# Blender 4.4.1
# www.blender.org
mtllib sword_.bag.mtl
o カバン
v 0.271863 -0.161467 0.200010
v 0.271863 -0.161467 0.096314
v 0.271863 -0.130411 0.200010
v 0.322995 -0.161467 0.200010
v 0.322995 -0.161467 0.096314
v 0.322995 -0.130411 0.200010
v 0.322995 -0.130411 0.096314
v 0.271863 -0.130411 0.096314
v 0.274170 -0.206702 0.199651
v 0.274170 -0.206702 0.096673
v 0.274170 -0.161340 0.199651
v 0.320895 -0.206702 0.199651
v 0.320895 -0.206702 0.096673
v 0.320895 -0.161340 0.199651
v 0.320895 -0.161340 0.096673
v 0.274170 -0.161340 0.096673
v -0.130949 -0.206702 -0.187739
v -0.233927 -0.206702 -0.187739
v -0.130949 -0.161340 -0.187739
v -0.130949 -0.206702 -0.209888
v -0.233927 -0.206702 -0.209888
v -0.130949 -0.161340 -0.209888
v -0.233927 -0.161340 -0.209888
v -0.233927 -0.161340 -0.187739
v -0.130590 -0.161467 -0.187369
v -0.234286 -0.161467 -0.187369
v -0.130590 -0.130412 -0.187369
v -0.130590 -0.161467 -0.213471
v -0.234286 -0.161467 -0.213471
v -0.130590 -0.130412 -0.213471
v -0.234286 -0.130412 -0.213471
v -0.234286 -0.130412 -0.187369
vn -0.0000 -1.0000 -0.0000
vn -0.0000 -0.0000 1.0000
vn 1.0000 -0.0000 -0.0000
vn -0.0000 1.0000 -0.0000
vn -0.0000 -0.0000 -1.0000
vn -1.0000 -0.0000 -0.0000
vt 0.375000 0.500000
vt 0.125000 0.750000
vt 0.125000 0.500000
vt 0.625000 0.750000
vt 0.375000 1.000000
vt 0.375000 0.750000
vt 0.625000 0.500000
vt 0.875000 0.500000
vt 0.625000 0.250000
vt 0.375000 0.250000
vt 0.625000 1.000000
vt 0.875000 0.750000
s 0
f 5/1/1 1/2/1 2/3/1
f 6/4/2 1/5/2 4/6/2
f 7/7/3 4/6/3 5/1/3
f 8/8/4 6/4/4 7/7/4
f 8/9/5 5/1/5 2/10/5
f 13/1/1 9/2/1 10/3/1
f 14/4/2 9/5/2 12/6/2
f 15/7/3 12/6/3 13/1/3
f 16/9/5 13/1/5 10/10/5
f 21/1/1 17/2/1 18/3/1
f 22/4/3 17/5/3 20/6/3
f 23/7/5 20/6/5 21/1/5
f 24/9/6 21/1/6 18/10/6
f 29/1/1 25/2/1 26/3/1
f 30/4/3 25/5/3 28/6/3
f 31/7/5 28/6/5 29/1/5
f 32/8/4 30/4/4 31/7/4
f 32/9/6 29/1/6 26/10/6
f 5/1/1 4/6/1 1/2/1
f 6/4/2 3/11/2 1/5/2
f 7/7/3 6/4/3 4/6/3
f 8/8/4 3/12/4 6/4/4
f 8/9/5 7/7/5 5/1/5
f 13/1/1 12/6/1 9/2/1
f 14/4/2 11/11/2 9/5/2
f 15/7/3 14/4/3 12/6/3
f 16/9/5 15/7/5 13/1/5
f 21/1/1 20/6/1 17/2/1
f 22/4/3 19/11/3 17/5/3
f 23/7/5 22/4/5 20/6/5
f 24/9/6 23/7/6 21/1/6
f 29/1/1 28/6/1 25/2/1
f 30/4/3 27/11/3 25/5/3
f 31/7/5 30/4/5 28/6/5
f 32/8/4 27/12/4 30/4/4
f 32/9/6 31/7/6 29/1/6
