{
	"asset":{
		"generator":"Khronos glTF Blender I/O v4.4.56",
		"version":"2.0"
	},
	"scene":0,
	"scenes":[
		{
			"name":"Scene",
			"nodes":[
				1,
				2
			]
		}
	],
	"nodes":[
		{
			"name":"Slime",
			"rotation":[
				-0.70710688829422,
				0,
				0,
				0.7071066498756409
			],
			"scale":[
				100,
				99.99998474121094,
				99.99998474121094
			]
		},
		{
			"children":[
				0
			],
			"name":"RootNode"
		},
		{
			"mesh":0,
			"name":"Slime_Slime_0"
		}
	],
	"materials":[
		{
			"alphaCutoff":0.4151618182659149,
			"alphaMode":"MASK",
			"doubleSided":true,
			"name":"Slime",
			"pbrMetallicRoughness":{
				"baseColorTexture":{
					"index":0
				},
				"metallicFactor":0,
				"roughnessFactor":0.6000000238418579
			}
		}
	],
	"meshes":[
		{
			"name":"Slime_Slime_0",
			"primitives":[
				{
					"attributes":{
						"POSITION":0,
						"NORMAL":1,
						"TEXCOORD_0":2
					},
					"indices":3,
					"material":0
				}
			]
		}
	],
	"textures":[
		{
			"sampler":0,
			"source":0
		}
	],
	"images":[
		{
			"mimeType":"image/png",
			"name":"Slime_baseColor",
			"uri":"Slime_baseColor.png"
		}
	],
	"accessors":[
		{
			"bufferView":0,
			"componentType":5126,
			"count":291,
			"max":[
				0.5119686722755432,
				0.7366077899932861,
				0.5145934820175171
			],
			"min":[
				-0.5154838562011719,
				-0.005467218346893787,
				-0.5132371783256531
			],
			"type":"VEC3"
		},
		{
			"bufferView":1,
			"componentType":5126,
			"count":291,
			"type":"VEC3"
		},
		{
			"bufferView":2,
			"componentType":5126,
			"count":291,
			"type":"VEC2"
		},
		{
			"bufferView":3,
			"componentType":5123,
			"count":1266,
			"type":"SCALAR"
		}
	],
	"bufferViews":[
		{
			"buffer":0,
			"byteLength":3492,
			"byteOffset":0,
			"target":34962
		},
		{
			"buffer":0,
			"byteLength":3492,
			"byteOffset":3492,
			"target":34962
		},
		{
			"buffer":0,
			"byteLength":2328,
			"byteOffset":6984,
			"target":34962
		},
		{
			"buffer":0,
			"byteLength":2532,
			"byteOffset":9312,
			"target":34963
		}
	],
	"samplers":[
		{
			"magFilter":9729,
			"minFilter":9987
		}
	],
	"buffers":[
		{
			"byteLength":11844,
			"uri":"slime_lod1.bin"
		}
	]
}
