# Blender 4.4.1
# www.blender.org
mtllib enemy_core.mtl
o ベジエカーブ.001
v 0.000000 0.820751 -0.000000
v -0.179578 0.945369 -0.000000
v -0.374930 0.992584 -0.000000
v -0.688619 0.910359 -0.000000
v -0.915238 0.770274 -0.000000
v -1.095711 0.419223 -0.000000
v -1.000229 -0.000346 0.000000
v -0.710986 -0.351819 0.000000
v -0.440480 -0.629875 0.000000
v -0.182148 -0.867278 0.000000
v 0.000000 -0.999188 0.000000
v 0.179578 0.945369 -0.000000
v 0.374930 0.992584 -0.000000
v 0.688619 0.910359 -0.000000
v 0.915238 0.770274 -0.000000
v 1.095711 0.419223 -0.000000
v 1.000229 -0.000346 0.000000
v 0.710986 -0.351819 0.000000
v 0.440480 -0.629875 0.000000
v 0.182148 -0.867278 0.000000
v 0.000000 -0.685731 0.209497
v 0.000025 0.498873 0.298017
v -0.307725 0.653042 0.298017
v -0.617078 0.530090 0.298017
v -0.632898 0.173095 0.298017
v -0.526285 -0.047656 0.298017
v -0.339365 -0.265405 0.298017
v 0.000025 -0.599821 0.298017
v 0.000000 0.705862 0.209497
v -0.598475 0.707643 0.209497
v -0.866346 0.331467 0.209497
v -0.735297 -0.077445 0.209497
v -0.457160 -0.388912 0.209497
v -0.148810 -0.685731 0.209497
v 0.307775 0.653042 0.298017
v 0.609448 0.478888 0.298017
v 0.632948 0.173095 0.298017
v 0.526335 -0.047656 0.298017
v 0.339416 -0.265405 0.298017
v 0.598475 0.707643 0.209497
v 0.866346 0.331467 0.209497
v 0.735297 -0.077445 0.209497
v 0.457160 -0.388912 0.209497
v 0.148810 -0.685731 0.209497
v 0.000000 -0.685731 -0.209497
v 0.000025 0.498873 -0.298017
v -0.307725 0.653042 -0.298017
v -0.617078 0.530090 -0.298017
v -0.632898 0.173095 -0.298017
v -0.526285 -0.047656 -0.298017
v -0.339365 -0.265405 -0.298017
v 0.000025 -0.599821 -0.298017
v 0.000000 0.705862 -0.209497
v -0.598475 0.707643 -0.209497
v -0.866346 0.331467 -0.209497
v -0.735297 -0.077445 -0.209497
v -0.457160 -0.388912 -0.209497
v -0.148810 -0.685731 -0.209497
v 0.307775 0.653042 -0.298017
v 0.609448 0.478888 -0.298017
v 0.632948 0.173095 -0.298017
v 0.526335 -0.047656 -0.298017
v 0.339416 -0.265405 -0.298017
v 0.598475 0.707643 -0.209497
v 0.866346 0.331467 -0.209497
v 0.735297 -0.077445 -0.209497
v 0.457160 -0.388912 -0.209497
v 0.148810 -0.685731 -0.209497
vn 0.5198 0.7490 0.4108
vn -0.1753 0.6687 0.7225
vn -0.3627 0.5868 0.7239
vn -0.5792 0.2978 0.7589
vn -0.6983 -0.1589 0.6980
vn -0.4591 -0.6339 0.6224
vn -0.5424 -0.5902 0.5978
vn -0.6199 -0.5102 0.5962
vn -0.0000 -0.7176 0.6964
vn -0.3355 -0.2996 0.8931
vn -0.3627 -0.1752 0.9153
vn -0.3454 0.0153 0.9383
vn 0.1933 0.3858 0.9021
vn 0.0978 0.6674 0.7383
vn -0.5782 0.4117 0.7044
vn -0.6431 -0.2061 0.7375
vn -0.3507 -0.3011 0.8868
vn -0.3308 -0.3357 0.8820
vn -0.5748 -0.5592 0.5974
vn -0.0000 -0.0000 1.0000
vn -0.5198 0.7490 0.4108
vn 0.1753 0.6687 0.7225
vn 0.3627 0.5868 0.7239
vn 0.5792 0.2978 0.7589
vn 0.6983 -0.1589 0.6980
vn 0.4591 -0.6339 0.6224
vn 0.5424 -0.5902 0.5978
vn 0.6199 -0.5102 0.5962
vn -0.0000 -0.5557 0.8314
vn 0.3390 0.0261 0.9404
vn -0.1933 0.3858 0.9021
vn 0.1099 0.6433 0.7577
vn 0.4723 0.3363 0.8147
vn 0.6431 -0.2061 0.7375
vn 0.5748 -0.5592 0.5974
vn 0.1738 0.7190 0.6730
vn -0.1099 0.6433 0.7577
vn -0.4723 0.3363 0.8147
vn -0.4318 -0.1384 0.8913
vn -0.5865 -0.5237 0.6179
vn -0.5486 -0.5699 0.6118
vn -0.1738 0.7190 0.6730
vn -0.0978 0.6673 0.7383
vn 0.4739 0.3375 0.8133
vn 0.4319 -0.1384 0.8912
vn 0.5865 -0.5237 0.6179
vn 0.5486 -0.5699 0.6118
vn 0.3308 -0.3358 0.8819
vn 0.3194 -0.3318 0.8877
vn 0.3356 -0.2997 0.8931
vn 0.3508 -0.3011 0.8867
vn 0.3627 -0.1752 0.9153
vn -0.3193 -0.3317 0.8877
vn 0.2088 0.3616 0.9086
vn -0.1804 0.4539 0.8726
vn 0.5198 0.7490 -0.4108
vn -0.1753 0.6687 -0.7225
vn -0.3627 0.5868 -0.7239
vn -0.5792 0.2978 -0.7589
vn -0.6983 -0.1589 -0.6980
vn -0.4591 -0.6339 -0.6224
vn -0.5424 -0.5902 -0.5978
vn -0.6199 -0.5102 -0.5962
vn -0.0000 -0.7176 -0.6964
vn -0.3355 -0.2996 -0.8931
vn -0.3627 -0.1752 -0.9153
vn -0.3454 0.0153 -0.9383
vn 0.1933 0.3858 -0.9021
vn 0.0978 0.6674 -0.7383
vn -0.5782 0.4117 -0.7044
vn -0.6431 -0.2061 -0.7375
vn -0.3507 -0.3011 -0.8868
vn -0.3308 -0.3357 -0.8820
vn -0.5748 -0.5592 -0.5974
vn -0.0000 -0.0000 -1.0000
vn -0.5198 0.7490 -0.4108
vn 0.1753 0.6687 -0.7225
vn 0.3627 0.5868 -0.7239
vn 0.5792 0.2978 -0.7589
vn 0.6983 -0.1589 -0.6980
vn 0.4591 -0.6339 -0.6224
vn 0.5424 -0.5902 -0.5978
vn 0.6199 -0.5102 -0.5962
vn -0.0000 -0.5557 -0.8314
vn 0.3390 0.0261 -0.9404
vn -0.1933 0.3858 -0.9021
vn 0.1099 0.6433 -0.7577
vn 0.4723 0.3363 -0.8147
vn 0.6431 -0.2061 -0.7375
vn 0.5748 -0.5592 -0.5974
vn 0.1738 0.7190 -0.6730
vn -0.1099 0.6433 -0.7577
vn -0.4723 0.3363 -0.8147
vn -0.4318 -0.1384 -0.8913
vn -0.5865 -0.5237 -0.6179
vn -0.5486 -0.5699 -0.6118
vn -0.1738 0.7190 -0.6730
vn -0.0978 0.6673 -0.7383
vn 0.4739 0.3375 -0.8133
vn 0.4319 -0.1384 -0.8912
vn 0.5865 -0.5237 -0.6179
vn 0.5486 -0.5699 -0.6118
vn 0.3308 -0.3358 -0.8819
vn 0.3194 -0.3318 -0.8877
vn 0.3356 -0.2997 -0.8931
vn 0.3508 -0.3011 -0.8867
vn 0.3627 -0.1752 -0.9153
vn -0.3193 -0.3317 -0.8877
vn 0.2088 0.3616 -0.9086
vn -0.1804 0.4539 -0.8726
vt 0.000000 0.000000
s 0
f 2/1/1 29/1/1 1/1/1
f 3/1/2 4/1/2 30/1/2
f 4/1/3 5/1/3 30/1/3
f 5/1/4 6/1/4 31/1/4
f 6/1/5 7/1/5 31/1/5
f 10/1/6 11/1/6 34/1/6
f 9/1/7 10/1/7 34/1/7
f 32/1/8 7/1/8 8/1/8
f 28/1/9 34/1/9 21/1/9
f 33/1/10 26/1/10 32/1/10
f 26/1/11 25/1/11 32/1/11
f 25/1/12 24/1/12 31/1/12
f 22/1/13 29/1/13 23/1/13
f 3/1/14 23/1/14 29/1/14
f 30/1/15 31/1/15 24/1/15
f 32/1/16 31/1/16 7/1/16
f 27/1/17 26/1/17 33/1/17
f 28/1/18 27/1/18 34/1/18
f 8/1/19 9/1/19 33/1/19
f 25/1/20 26/1/20 22/1/20
f 29/1/21 12/1/21 1/1/21
f 13/1/22 40/1/22 14/1/22
f 14/1/23 40/1/23 15/1/23
f 15/1/24 41/1/24 16/1/24
f 16/1/25 41/1/25 17/1/25
f 20/1/26 44/1/26 11/1/26
f 19/1/27 44/1/27 20/1/27
f 42/1/28 18/1/28 17/1/28
f 44/1/29 21/1/29 11/1/29
f 37/1/30 41/1/30 36/1/30
f 22/1/31 35/1/31 29/1/31
f 13/1/32 35/1/32 40/1/32
f 40/1/33 41/1/33 15/1/33
f 41/1/34 42/1/34 17/1/34
f 11/1/29 21/1/29 34/1/29
f 18/1/35 43/1/35 19/1/35
f 37/1/20 36/1/20 35/1/20
f 28/1/9 21/1/9 44/1/9
f 2/1/36 3/1/36 29/1/36
f 3/1/37 30/1/37 23/1/37
f 30/1/38 5/1/38 31/1/38
f 32/1/39 25/1/39 31/1/39
f 33/1/40 32/1/40 8/1/40
f 9/1/41 34/1/41 33/1/41
f 28/1/20 22/1/20 27/1/20
f 22/1/20 23/1/20 25/1/20
f 27/1/20 22/1/20 26/1/20
f 23/1/20 24/1/20 25/1/20
f 29/1/42 13/1/42 12/1/42
f 13/1/43 29/1/43 35/1/43
f 40/1/44 36/1/44 41/1/44
f 41/1/45 37/1/45 42/1/45
f 43/1/46 18/1/46 42/1/46
f 19/1/47 43/1/47 44/1/47
f 35/1/20 22/1/20 37/1/20
f 22/1/20 28/1/20 39/1/20
f 38/1/20 22/1/20 39/1/20
f 38/1/20 37/1/20 22/1/20
f 28/1/48 44/1/48 39/1/48
f 43/1/49 39/1/49 44/1/49
f 43/1/50 42/1/50 38/1/50
f 39/1/51 43/1/51 38/1/51
f 38/1/52 42/1/52 37/1/52
f 33/1/53 34/1/53 27/1/53
f 36/1/54 40/1/54 35/1/54
f 24/1/55 23/1/55 30/1/55
f 2/1/56 1/1/56 53/1/56
f 3/1/57 54/1/57 4/1/57
f 4/1/58 54/1/58 5/1/58
f 5/1/59 55/1/59 6/1/59
f 6/1/60 55/1/60 7/1/60
f 10/1/61 58/1/61 11/1/61
f 9/1/62 58/1/62 10/1/62
f 56/1/63 8/1/63 7/1/63
f 52/1/64 45/1/64 58/1/64
f 57/1/65 56/1/65 50/1/65
f 50/1/66 56/1/66 49/1/66
f 49/1/67 55/1/67 48/1/67
f 46/1/68 47/1/68 53/1/68
f 3/1/69 53/1/69 47/1/69
f 54/1/70 48/1/70 55/1/70
f 56/1/71 7/1/71 55/1/71
f 51/1/72 57/1/72 50/1/72
f 52/1/73 58/1/73 51/1/73
f 8/1/74 57/1/74 9/1/74
f 49/1/75 46/1/75 50/1/75
f 53/1/76 1/1/76 12/1/76
f 13/1/77 14/1/77 64/1/77
f 14/1/78 15/1/78 64/1/78
f 15/1/79 16/1/79 65/1/79
f 16/1/80 17/1/80 65/1/80
f 20/1/81 11/1/81 68/1/81
f 19/1/82 20/1/82 68/1/82
f 66/1/83 17/1/83 18/1/83
f 68/1/84 11/1/84 45/1/84
f 61/1/85 60/1/85 65/1/85
f 46/1/86 53/1/86 59/1/86
f 13/1/87 64/1/87 59/1/87
f 64/1/88 15/1/88 65/1/88
f 65/1/89 17/1/89 66/1/89
f 11/1/84 58/1/84 45/1/84
f 18/1/90 19/1/90 67/1/90
f 61/1/75 59/1/75 60/1/75
f 52/1/64 68/1/64 45/1/64
f 2/1/91 53/1/91 3/1/91
f 3/1/92 47/1/92 54/1/92
f 54/1/93 55/1/93 5/1/93
f 56/1/94 55/1/94 49/1/94
f 57/1/95 8/1/95 56/1/95
f 9/1/96 57/1/96 58/1/96
f 52/1/75 51/1/75 46/1/75
f 46/1/75 49/1/75 47/1/75
f 51/1/75 50/1/75 46/1/75
f 47/1/75 49/1/75 48/1/75
f 53/1/97 12/1/97 13/1/97
f 13/1/98 59/1/98 53/1/98
f 64/1/99 65/1/99 60/1/99
f 65/1/100 66/1/100 61/1/100
f 67/1/101 66/1/101 18/1/101
f 19/1/102 68/1/102 67/1/102
f 59/1/75 61/1/75 46/1/75
f 46/1/75 63/1/75 52/1/75
f 62/1/75 63/1/75 46/1/75
f 62/1/75 46/1/75 61/1/75
f 52/1/103 63/1/103 68/1/103
f 67/1/104 68/1/104 63/1/104
f 67/1/105 62/1/105 66/1/105
f 63/1/106 62/1/106 67/1/106
f 62/1/107 61/1/107 66/1/107
f 57/1/108 51/1/108 58/1/108
f 60/1/109 59/1/109 64/1/109
f 48/1/110 54/1/110 47/1/110
