# Blender 4.4.1
# www.blender.org
mtllib map_under_equipment_01.mtl
o 台座下側装置_01
v -7.122132 1.988575 6.591804
v -4.735647 1.988575 4.205318
v -4.735647 6.488575 4.205318
v -6.591802 1.988575 7.122134
v -4.205317 6.488575 4.735648
v -4.205317 1.988575 4.735648
v 7.122132 1.988575 -6.591804
v 4.735647 1.988575 -4.205317
v 4.735647 6.488575 -4.205317
v 6.591803 1.988575 -7.122133
v 4.205317 6.488575 -4.735648
v 4.205317 1.988575 -4.735648
v 6.591804 1.988575 7.122132
v 4.205317 1.988575 4.735647
v 4.205317 6.488575 4.735647
v 7.122133 1.988575 6.591803
v 4.735648 6.488575 4.205317
v 4.735648 1.988575 4.205317
v -6.591804 1.988575 -7.122132
v -4.205318 1.988575 -4.735647
v -4.205318 6.488575 -4.735647
v -7.122134 1.988575 -6.591802
v -4.735648 6.488575 -4.205317
v -4.735648 1.988575 -4.205317
v 0.375001 1.988575 -9.697217
v 0.375001 1.988575 -6.322217
v 0.375001 6.488575 -6.322217
v -0.374999 1.988575 -9.697217
v -0.374999 6.488575 -6.322217
v -0.374999 1.988575 -6.322217
v -0.375000 1.988575 9.697217
v -0.375000 1.988575 6.322217
v -0.375000 6.488575 6.322217
v 0.375000 1.988575 9.697217
v 0.375000 6.488575 6.322217
v 0.375000 1.988575 6.322217
v 9.697217 1.988575 0.375000
v 6.322217 1.988575 0.375000
v 6.322217 6.488575 0.375000
v 9.697217 1.988575 -0.375000
v 6.322217 6.488575 -0.375000
v 6.322217 1.988575 -0.375000
v -9.697217 1.988575 -0.374999
v -6.322217 1.988575 -0.374999
v -6.322217 6.488575 -0.374999
v -9.697217 1.988575 0.375001
v -6.322217 6.488575 0.375001
v -6.322217 1.988575 0.375001
vn -0.7071 -0.0000 -0.7071
vn -0.5657 0.6000 0.5657
vn 0.7071 -0.0000 0.7071
vn 0.7071 -0.0000 -0.7071
vn 0.5657 0.6000 -0.5657
vn -0.7071 -0.0000 0.7071
vn 0.5657 0.6000 0.5657
vn -0.5657 0.6000 -0.5657
vn 1.0000 -0.0000 -0.0000
vn -0.0000 0.6000 -0.8000
vn -1.0000 -0.0000 -0.0000
vn -0.0000 -0.0000 1.0000
vn -0.0000 0.6000 0.8000
vn -0.0000 -0.0000 -1.0000
vn 0.8000 0.6000 -0.0000
vn -0.8000 0.6000 -0.0000
vt 0.375000 0.000000
vt 0.625000 0.250000
vt 0.375000 0.250000
vt 0.625000 0.750000
vt 0.625000 1.000000
vt 0.375000 1.000000
vt 0.375000 0.750000
vt 0.375000 0.500000
vt 0.625000 0.500000
s 0
f 1/1/1 3/2/1 2/3/1
f 5/4/2 3/5/2 1/6/2
f 5/4/2 1/6/2 4/7/2
f 6/8/3 5/4/3 4/7/3
f 3/2/4 5/9/4 6/8/4
f 3/2/4 6/8/4 2/3/4
f 7/1/3 9/2/3 8/3/3
f 11/4/5 9/5/5 7/6/5
f 11/4/5 7/6/5 10/7/5
f 9/2/6 11/9/6 12/8/6
f 12/8/1 11/4/1 10/7/1
f 9/2/6 12/8/6 8/3/6
f 13/1/6 15/2/6 14/3/6
f 17/4/7 15/5/7 13/6/7
f 17/4/7 13/6/7 16/7/7
f 15/2/1 17/9/1 18/8/1
f 18/8/4 17/4/4 16/7/4
f 15/2/1 18/8/1 14/3/1
f 19/1/4 21/2/4 20/3/4
f 23/4/8 21/5/8 19/6/8
f 23/4/8 19/6/8 22/7/8
f 24/8/6 23/4/6 22/7/6
f 21/2/3 23/9/3 24/8/3
f 21/2/3 24/8/3 20/3/3
f 25/1/9 27/2/9 26/3/9
f 29/4/10 27/5/10 25/6/10
f 29/4/10 25/6/10 28/7/10
f 30/8/11 29/4/11 28/7/11
f 27/2/12 29/9/12 30/8/12
f 27/2/12 30/8/12 26/3/12
f 31/1/11 33/2/11 32/3/11
f 35/4/13 33/5/13 31/6/13
f 35/4/13 31/6/13 34/7/13
f 36/8/9 35/4/9 34/7/9
f 33/2/14 35/9/14 36/8/14
f 33/2/14 36/8/14 32/3/14
f 37/1/12 39/2/12 38/3/12
f 41/4/15 39/5/15 37/6/15
f 41/4/15 37/6/15 40/7/15
f 42/8/14 41/4/14 40/7/14
f 39/2/11 41/9/11 42/8/11
f 39/2/11 42/8/11 38/3/11
f 43/1/14 45/2/14 44/3/14
f 47/4/16 45/5/16 43/6/16
f 47/4/16 43/6/16 46/7/16
f 48/8/12 47/4/12 46/7/12
f 45/2/9 47/9/9 48/8/9
f 45/2/9 48/8/9 44/3/9
