# Blender 4.4.1
# www.blender.org
mtllib map_equipment_03.mtl
o 台座下側装置_03
v -0.000001 29.094145 -9.041926
v -1.763993 29.094145 -8.868188
v -0.000001 28.294144 -9.041926
v 1.763992 29.094145 -8.868187
v 1.763992 28.294144 -8.868187
v -0.000000 29.094145 -6.501836
v -1.268446 29.094145 -6.376905
v 1.268445 29.094145 -6.376905
v -0.000001 28.294144 -7.649626
v 1.492367 28.294144 -7.502641
v 2.927385 28.294144 -7.067332
v 3.460195 28.294144 -8.353650
v 5.023424 28.294144 -7.518087
v 3.460195 29.094145 -8.353650
v 4.249904 28.294144 -6.360432
v 5.409101 28.294144 -5.409101
v 3.612226 29.094145 -5.406078
v 6.393606 28.294144 -6.393607
v 2.488145 29.094145 -6.006913
v 7.518085 28.294144 -5.023425
v 6.393606 29.094145 -6.393607
v 5.023424 29.094145 -7.518087
v 4.597492 29.094145 -4.597492
v 5.406078 29.094145 -3.612226
v 6.006912 29.094145 -2.488145
v 6.360431 28.294144 -4.249905
v 7.518085 29.094145 -5.023425
v 7.067331 28.294144 -2.927386
v 7.502640 28.294144 -1.492368
v 8.353649 28.294144 -3.460196
v 8.868187 28.294144 -1.763992
v 8.353649 29.094143 -3.460196
v 8.868187 29.094143 -1.763992
v 9.041925 29.094143 0.000000
v 9.041925 28.294144 0.000000
v 6.376904 29.094145 -1.268445
v 6.501836 29.094145 -0.000000
v 6.376904 29.094145 1.268445
v 7.649626 28.294144 -0.000000
v 8.868187 29.094143 1.763992
v 7.502640 28.294144 1.492368
v 7.067331 28.294144 2.927385
v 8.868187 28.294144 1.763992
v 8.353649 28.294144 3.460195
v 7.518086 28.294144 5.023425
v 8.353649 29.094143 3.460195
v 6.360431 28.294144 4.249904
v 5.409101 28.294144 5.409102
v 5.406078 29.094145 3.612226
v 6.006912 29.094145 2.488145
v 4.597491 29.094145 4.597493
v 6.393606 29.094145 6.393607
v 7.518086 29.094145 5.023425
v 6.393606 28.294144 6.393607
v 5.023424 28.294144 7.518087
v 4.249904 28.294144 6.360431
v 2.927386 28.294144 7.067332
v 3.612226 29.094145 5.406079
v 3.460195 28.294144 8.353650
v 2.488145 29.094145 6.006913
v 1.268445 29.094145 6.376905
v 3.460195 29.094145 8.353650
v 1.763992 29.094145 8.868188
v 5.023424 29.094145 7.518087
v 1.763992 28.294144 8.868188
v -0.000000 28.294144 9.041926
v -0.000000 29.094145 9.041926
v 1.492368 28.294144 7.502641
v -0.000000 28.294144 7.649626
v -1.492368 28.294144 7.502641
v -0.000000 29.094145 6.501836
v -1.763993 28.294144 8.868188
v -1.268446 29.094145 6.376904
v -1.763993 29.094145 8.868188
v -2.488146 29.094145 6.006913
v -2.927386 28.294146 7.067332
v -3.460196 28.294146 8.353650
v -4.249906 28.294146 6.360432
v -5.023427 28.294146 7.518087
v -3.612227 29.094145 5.406078
v -4.597493 29.094145 4.597492
v -6.393608 29.094145 6.393607
v -5.023427 29.094145 7.518087
v -3.460196 29.094145 8.353650
v -5.409103 28.294146 5.409101
v -6.360433 28.294146 4.249904
v -6.393608 28.294146 6.393607
v -7.518088 28.294146 5.023425
v -5.406080 29.094145 3.612226
v -6.006914 29.094145 2.488145
v -7.518088 29.094145 5.023425
v -7.067333 28.294146 2.927385
v -7.502642 28.294146 1.492368
v -8.353651 28.294146 3.460196
v -6.376906 29.094145 1.268445
v -6.501838 29.094145 0.000000
v -9.041927 29.094147 0.000000
v -8.868189 29.094147 1.763992
v -7.649627 28.294146 0.000000
v -7.502642 28.294146 -1.492368
v -9.041927 28.294146 0.000000
v -8.868189 28.294146 -1.763992
v -8.353651 28.294146 -3.460196
v -8.868189 29.094147 -1.763992
v -8.353651 29.094147 -3.460196
v -6.376906 29.094145 -1.268445
v -6.006915 29.094145 -2.488145
v -7.067333 28.294146 -2.927385
v -6.360433 28.294146 -4.249905
v -5.406080 29.094145 -3.612226
v -4.597493 29.094145 -4.597493
v -6.393608 29.094145 -6.393606
v -7.518088 29.094145 -5.023425
v -5.409103 28.294146 -5.409102
v -4.249906 28.294146 -6.360432
v -7.518088 28.294146 -5.023425
v -6.393608 28.294146 -6.393606
v -3.612227 29.094145 -5.406079
v -2.488146 29.094145 -6.006913
v -5.023427 29.094145 -7.518087
v -2.927386 28.294146 -7.067332
v -1.492369 28.294144 -7.502641
v -3.460196 28.294146 -8.353650
v -1.763993 28.294144 -8.868188
v -3.460196 29.094145 -8.353650
v -5.023427 28.294146 -7.518087
v -8.868189 28.294146 1.763992
v -8.353651 29.094147 3.460196
v 0.000000 5.905855 -9.041926
v 1.763992 5.905855 -8.868188
v 0.000000 6.705855 -9.041926
v -1.763992 5.905855 -8.868188
v -1.763992 6.705855 -8.868188
v 0.000000 5.905855 -6.501836
v 1.268445 5.905855 -6.376905
v -1.268445 5.905855 -6.376905
v 0.000000 6.705855 -7.649626
v 1.492368 6.705855 -7.502641
v -1.492368 6.705855 -7.502641
v -2.927386 6.705855 -7.067332
v -3.460196 6.705855 -8.353650
v -5.023425 6.705855 -7.518087
v -3.460196 5.905855 -8.353650
v -4.249905 6.705855 -6.360432
v -5.409102 6.705855 -5.409102
v -3.612227 5.905855 -5.406079
v -6.393607 6.705855 -6.393607
v -7.518087 6.705855 -5.023425
v -6.393607 5.905855 -6.393607
v -5.023425 5.905855 -7.518087
v -4.597492 5.905855 -4.597492
v -5.406079 5.905855 -3.612227
v -6.006913 5.905855 -2.488145
v -6.360432 6.705855 -4.249905
v -7.518087 5.905855 -5.023425
v -7.067332 6.705855 -2.927386
v -7.502641 6.705855 -1.492368
v -8.353650 6.705855 -3.460196
v -6.376905 5.905855 -1.268445
v -6.501836 5.905855 0.000000
v -9.041926 5.905855 0.000000
v -8.868188 5.905855 -1.763992
v -8.868188 6.705855 -1.763992
v -8.353650 5.905855 -3.460196
v -9.041926 6.705855 0.000000
v -8.868188 6.705855 1.763992
v -7.649626 6.705855 0.000000
v -7.502641 6.705855 1.492368
v -7.067332 6.705855 2.927386
v -6.376905 5.905855 1.268445
v -8.353650 6.705855 3.460196
v -7.518087 6.705855 5.023425
v -8.353650 5.905855 3.460196
v -8.868188 5.905855 1.763992
v -6.360432 6.705855 4.249905
v -5.409102 6.705855 5.409102
v -5.406079 5.905855 3.612227
v -6.006913 5.905855 2.488145
v -4.597492 5.905855 4.597492
v -6.393607 5.905855 6.393607
v -7.518087 5.905855 5.023425
v -6.393607 6.705855 6.393607
v -5.023425 6.705855 7.518087
v -4.249905 6.705855 6.360432
v -2.927386 6.705855 7.067332
v -3.612227 5.905855 5.406079
v -3.460196 6.705855 8.353650
v -1.763992 6.705855 8.868188
v -3.460196 5.905855 8.353650
v -5.023425 5.905855 7.518087
v -1.492368 6.705855 7.502641
v 0.000000 6.705855 7.649626
v -1.268445 5.905855 6.376905
v 0.000000 5.905855 6.501836
v 1.268445 5.905855 6.376905
v 0.000000 5.905855 9.041926
v -1.763992 5.905855 8.868188
v 1.492368 6.705855 7.502641
v 2.927386 6.705855 7.067332
v 1.763992 6.705855 8.868188
v 3.460196 6.705855 8.353650
v 5.023425 6.705855 7.518087
v 3.460196 5.905855 8.353650
v 1.763992 5.905855 8.868188
v 2.488145 5.905855 6.006913
v 3.612227 5.905855 5.406079
v 4.597492 5.905855 4.597492
v 4.249905 6.705855 6.360432
v 6.393607 5.905855 6.393607
v 5.023425 5.905855 7.518087
v 5.409102 6.705855 5.409102
v 6.360432 6.705855 4.249905
v 6.393607 6.705855 6.393607
v 7.518087 6.705855 5.023425
v 5.406079 5.905855 3.612227
v 6.006913 5.905855 2.488145
v 7.518087 5.905855 5.023425
v 7.067332 6.705855 2.927386
v 7.502641 6.705855 1.492368
v 8.353650 6.705855 3.460196
v 6.376905 5.905855 1.268445
v 6.501836 5.905855 0.000000
v 9.041926 5.905855 0.000000
v 8.868188 5.905855 1.763992
v 8.868188 6.705855 1.763992
v 8.353650 5.905855 3.460196
v 9.041926 6.705855 0.000000
v 8.868188 6.705855 -1.763992
v 7.649626 6.705855 0.000000
v 7.502641 6.705855 -1.492368
v 7.067332 6.705855 -2.927386
v 6.376905 5.905855 -1.268445
v 8.353650 6.705855 -3.460196
v 7.518087 6.705855 -5.023425
v 8.353650 5.905855 -3.460196
v 8.868188 5.905855 -1.763992
v 6.360432 6.705855 -4.249905
v 5.409102 6.705855 -5.409102
v 5.406079 5.905855 -3.612227
v 6.006913 5.905855 -2.488145
v 4.597492 5.905855 -4.597492
v 6.393607 5.905855 -6.393607
v 7.518087 5.905855 -5.023425
v 6.393607 6.705855 -6.393607
v 5.023425 6.705855 -7.518087
v 4.249905 6.705855 -6.360432
v 2.927386 6.705855 -7.067332
v 3.612227 5.905855 -5.406079
v 3.460196 6.705855 -8.353650
v 1.763992 6.705855 -8.868188
v 3.460196 5.905855 -8.353650
v 5.023425 5.905855 -7.518087
v 2.488145 5.905855 -6.006913
v 0.000000 6.705855 9.041926
v -2.488145 5.905855 6.006913
v -2.488145 5.905855 -6.006913
vn -0.0000 1.0000 -0.0000
vn -0.0000 -0.0000 -1.0000
vn -0.1951 -0.0000 -0.9808
vn 0.1951 -0.0000 -0.9808
vn -0.0000 -0.8204 0.5718
vn 0.1116 -0.8204 0.5608
vn -0.1116 -0.8204 0.5608
vn -0.0000 -1.0000 -0.0000
vn -0.2188 -0.8204 0.5283
vn 0.5556 -0.0000 -0.8315
vn 0.3827 -0.0000 -0.9239
vn -0.3177 -0.8204 0.4754
vn -0.4043 -0.8204 0.4043
vn 0.8315 -0.0000 -0.5556
vn 0.7071 -0.0000 -0.7071
vn -0.4754 -0.8204 0.3177
vn -0.5283 -0.8204 0.2188
vn -0.5608 -0.8204 0.1116
vn 0.9808 -0.0000 -0.1951
vn 0.9239 -0.0000 -0.3827
vn 1.0000 -0.0000 -0.0000
vn -0.5718 -0.8204 -0.0000
vn -0.5608 -0.8204 -0.1116
vn -0.5283 -0.8204 -0.2188
vn 0.8315 -0.0000 0.5556
vn 0.9239 -0.0000 0.3827
vn 0.9808 -0.0000 0.1951
vn -0.4754 -0.8204 -0.3177
vn -0.4043 -0.8204 -0.4043
vn 0.7071 -0.0000 0.7071
vn 0.5556 -0.0000 0.8315
vn -0.3177 -0.8204 -0.4754
vn -0.2188 -0.8204 -0.5283
vn -0.1116 -0.8204 -0.5608
vn 0.1951 -0.0000 0.9808
vn 0.3827 -0.0000 0.9239
vn -0.0000 -0.0000 1.0000
vn -0.0000 -0.8204 -0.5718
vn 0.1116 -0.8204 -0.5608
vn 0.2188 -0.8204 -0.5283
vn 0.3177 -0.8204 -0.4754
vn 0.4043 -0.8204 -0.4043
vn 0.4754 -0.8204 -0.3177
vn 0.5283 -0.8204 -0.2188
vn 0.5608 -0.8204 -0.1116
vn 0.5718 -0.8204 -0.0000
vn 0.5608 -0.8204 0.1116
vn -0.9239 -0.0000 -0.3827
vn -0.9808 -0.0000 -0.1951
vn -1.0000 -0.0000 -0.0000
vn 0.5283 -0.8204 0.2188
vn 0.4754 -0.8204 0.3177
vn 0.4043 -0.8204 0.4043
vn 0.3177 -0.8204 0.4754
vn 0.2188 -0.8204 0.5283
vn -0.3827 -0.0000 -0.9239
vn -0.5556 -0.0000 -0.8315
vn -0.7071 -0.0000 -0.7071
vn -0.8315 -0.0000 -0.5556
vn -0.9808 -0.0000 0.1951
vn -0.9239 -0.0000 0.3827
vn -0.8315 -0.0000 0.5556
vn -0.7071 -0.0000 0.7071
vn -0.5556 -0.0000 0.8315
vn -0.3827 -0.0000 0.9239
vn -0.1951 -0.0000 0.9808
vn -0.0000 0.8204 0.5718
vn -0.1116 0.8204 0.5608
vn 0.1116 0.8204 0.5608
vn 0.2188 0.8204 0.5283
vn 0.3177 0.8204 0.4754
vn 0.4043 0.8204 0.4043
vn 0.4754 0.8204 0.3177
vn 0.5283 0.8204 0.2188
vn 0.5608 0.8204 0.1116
vn 0.5718 0.8204 -0.0000
vn 0.5608 0.8204 -0.1116
vn 0.5283 0.8204 -0.2188
vn 0.4754 0.8204 -0.3177
vn 0.4043 0.8204 -0.4043
vn 0.3177 0.8204 -0.4754
vn 0.2188 0.8204 -0.5283
vn -0.0000 0.8204 -0.5718
vn 0.1116 0.8204 -0.5608
vn -0.1116 0.8204 -0.5608
vn -0.2188 0.8204 -0.5283
vn -0.3177 0.8204 -0.4754
vn -0.4043 0.8204 -0.4043
vn -0.4754 0.8204 -0.3177
vn -0.5283 0.8204 -0.2188
vn -0.5608 0.8204 -0.1116
vn -0.5718 0.8204 -0.0000
vn -0.5608 0.8204 0.1116
vn -0.5283 0.8204 0.2188
vn -0.4754 0.8204 0.3177
vn -0.4043 0.8204 0.4043
vn -0.2188 0.8204 0.5283
vn -0.3177 0.8204 0.4754
vt 0.000000 0.500000
vt 0.968750 0.500000
vt 0.394712 0.500000
vt 1.000000 1.000000
vt 1.000000 0.500000
vt 0.031250 1.000000
vt 0.000000 1.000000
vt 0.031250 0.500000
vt 1.000000 0.987600
vt 1.000000 0.512400
vt 0.968750 0.512400
vt 0.574038 0.500000
vt 0.274434 0.500000
vt 0.000000 0.512400
vt 0.031250 0.987600
vt 0.031250 0.512400
vt 0.000000 0.987600
vt 0.172298 0.437588
vt 0.210388 0.449143
vt 0.158156 0.471731
vt 0.062500 0.987600
vt 0.250000 0.453044
vt 0.203178 0.485388
vt 0.116663 0.449553
vt 0.137195 0.418825
vt 0.093750 1.000000
vt 0.062500 1.000000
vt 0.062500 0.500000
vt 0.093750 0.512400
vt 0.093750 0.987600
vt 0.125000 0.987600
vt 0.080294 0.419706
vt 0.106426 0.393574
vt 0.062500 0.512400
vt 0.229686 0.500000
vt 0.220723 0.500000
vt 0.050447 0.383337
vt 0.156250 1.000000
vt 0.125000 1.000000
vt 0.125000 0.500000
vt 0.093750 0.500000
vt 0.227066 0.500000
vt 0.125000 0.512400
vt 0.156250 0.512400
vt 0.240794 0.500000
vt 0.187500 0.987600
vt 0.187500 0.512400
vt 0.258575 0.500000
vt 0.156250 0.500000
vt 0.156250 0.987600
vt 0.028269 0.341844
vt 0.050857 0.289612
vt 0.062412 0.327702
vt 0.218750 0.987600
vt 0.081175 0.362805
vt 0.014612 0.296822
vt 0.218750 1.000000
vt 0.187500 1.000000
vt 0.187500 0.500000
vt 0.218750 0.500000
vt 0.250000 0.500000
vt 0.278812 0.500000
vt 0.250000 1.000000
vt 0.218750 0.512400
vt 0.250000 0.512400
vt 0.300653 0.500000
vt 0.323593 0.500000
vt 0.281250 0.500000
vt 0.281250 0.987600
vt 0.281250 0.512400
vt 0.250000 0.987600
vt 0.312500 0.987600
vt 0.028269 0.158156
vt 0.062412 0.172298
vt 0.050857 0.210388
vt 0.046956 0.250000
vt 0.014612 0.203178
vt 0.050447 0.116663
vt 0.081175 0.137195
vt 0.343750 1.000000
vt 0.312500 1.000000
vt 0.312500 0.500000
vt 0.281250 1.000000
vt 0.343750 0.512400
vt 0.343750 0.987600
vt 0.375000 0.987600
vt 0.106426 0.106426
vt 0.343750 0.500000
vt 0.347314 0.500000
vt 0.371597 0.500000
vt 0.312500 0.512400
vt 0.375000 0.500000
vt 0.396288 0.500000
vt 0.375000 0.512400
vt 0.375000 1.000000
vt 0.080294 0.080294
vt 0.116663 0.050447
vt 0.137195 0.081175
vt 0.406250 1.000000
vt 0.406250 0.987600
vt 0.437500 0.987600
vt 0.437500 0.512400
vt 0.158156 0.028269
vt 0.172298 0.062412
vt 0.406250 0.512400
vt 0.421266 0.500000
vt 0.446436 0.500000
vt 0.437500 0.500000
vt 0.468750 0.512400
vt 0.471717 0.500000
vt 0.468750 0.500000
vt 0.468750 1.000000
vt 0.437500 1.000000
vt 0.406250 0.500000
vt 0.203178 0.014612
vt 0.250000 0.010000
vt 0.250000 0.046956
vt 0.500000 0.500000
vt 0.500000 1.000000
vt 0.210388 0.050857
vt 0.500000 0.987600
vt 0.531250 0.987600
vt 0.531250 0.512400
vt 0.296822 0.014612
vt 0.289612 0.050857
vt 0.468750 0.987600
vt 0.500000 0.512400
vt 0.522314 0.500000
vt 0.531250 0.500000
vt 0.547484 0.500000
vt 0.562500 0.987600
vt 0.562500 0.512400
vt 0.497033 0.500000
vt 0.341844 0.028269
vt 0.327702 0.062412
vt 0.383337 0.050447
vt 0.593750 0.987600
vt 0.593750 0.512400
vt 0.362805 0.081175
vt 0.572462 0.500000
vt 0.562500 0.500000
vt 0.625000 0.987600
vt 0.625000 0.512400
vt 0.625000 0.500000
vt 0.597153 0.500000
vt 0.593750 0.500000
vt 0.656250 0.987600
vt 0.656250 0.512400
vt 0.418825 0.137195
vt 0.393574 0.106426
vt 0.449553 0.116663
vt 0.419706 0.080294
vt 0.656250 0.500000
vt 0.621436 0.500000
vt 0.645157 0.500000
vt 0.687500 0.987600
vt 0.687500 0.512400
vt 0.471731 0.158156
vt 0.449143 0.210388
vt 0.437588 0.172298
vt 0.718750 0.512400
vt 0.718750 0.987600
vt 0.718750 0.500000
vt 0.668097 0.500000
vt 0.750000 0.987600
vt 0.750000 0.512400
vt 0.750000 0.500000
vt 0.689938 0.500000
vt 0.485388 0.296822
vt 0.449143 0.289612
vt 0.453044 0.250000
vt 0.781250 0.987600
vt 0.490000 0.250000
vt 0.471731 0.341844
vt 0.812500 1.000000
vt 0.781250 1.000000
vt 0.781250 0.500000
vt 0.750000 1.000000
vt 0.812500 0.500000
vt 0.710176 0.500000
vt 0.781250 0.512400
vt 0.812500 0.987600
vt 0.812500 0.512400
vt 0.727956 0.500000
vt 0.418825 0.362805
vt 0.437588 0.327702
vt 0.843750 0.987600
vt 0.843750 0.512400
vt 0.843750 0.500000
vt 0.741684 0.500000
vt 0.875000 0.987600
vt 0.875000 0.512400
vt 0.875000 0.500000
vt 0.748027 0.500000
vt 0.362805 0.418825
vt 0.393574 0.393574
vt 0.419706 0.419706
vt 0.906250 0.512400
vt 0.906250 0.987600
vt 0.449553 0.383337
vt 0.906250 0.500000
vt 0.739064 0.500000
vt 0.937500 0.987600
vt 0.937500 0.512400
vt 0.694316 0.500000
vt 0.968750 0.987600
vt 0.289612 0.449143
vt 0.327702 0.437588
vt 0.341844 0.471731
vt 0.296822 0.485388
vt 0.968750 1.000000
vt 0.937500 1.000000
vt 0.937500 0.500000
vt 0.383337 0.449553
vt 0.906250 1.000000
vt 0.875000 1.000000
vt 0.250000 0.490000
vt 0.843750 1.000000
vt 0.485388 0.203178
vt 0.718750 1.000000
vt 0.687500 0.500000
vt 0.687500 1.000000
vt 0.656250 1.000000
vt 0.625000 1.000000
vt 0.593750 1.000000
vt 0.562500 1.000000
vt 0.531250 1.000000
vt 0.010000 0.250000
s 0
f 1/1/1 2/2/1 6/3/1
s 1
f 3/4/2 2/2/3 1/5/2
f 5/6/4 3/7/2 1/1/2
s 0
f 4/8/1 1/1/1 6/3/1
s 1
f 5/6/4 1/1/2 4/8/4
f 9/9/5 6/10/5 7/11/6
s 0
f 6/3/1 2/2/1 7/12/1
f 6/3/1 8/13/1 4/8/1
s 1
f 6/14/5 10/15/7 8/16/7
f 6/14/5 9/17/5 10/15/7
s 0
f 11/18/8 10/19/8 12/20/8
s 1
f 11/21/9 8/16/7 10/15/7
s 0
f 9/22/8 5/23/8 10/19/8
f 5/23/8 12/20/8 10/19/8
f 12/20/8 13/24/8 15/25/8
s 1
f 13/26/10 12/27/11 14/28/11
f 12/27/11 4/8/4 14/28/11
f 12/27/11 5/6/4 4/8/4
s 0
f 15/25/8 11/18/8 12/20/8
s 1
f 17/29/12 15/30/12 16/31/13
s 0
f 15/25/8 18/32/8 16/33/8
s 1
f 19/34/9 11/21/9 15/30/12
f 19/34/9 15/30/12 17/29/12
s 0
f 13/24/8 18/32/8 15/25/8
s 1
f 11/21/9 19/34/9 8/16/7
s 0
f 8/13/1 19/35/1 4/8/1
f 17/36/1 14/28/1 19/35/1
f 14/28/1 4/8/1 19/35/1
f 18/32/8 20/37/8 16/33/8
s 1
f 20/38/14 18/39/15 21/40/15
f 18/39/15 22/41/10 21/40/15
f 18/39/15 13/26/10 22/41/10
s 0
f 21/40/1 22/41/1 23/42/1
s 1
f 13/26/10 14/28/11 22/41/10
s 0
f 22/41/1 14/28/1 17/36/1
f 23/42/1 22/41/1 17/36/1
s 1
f 17/29/12 16/31/13 23/43/13
f 24/44/16 23/43/13 16/31/13
s 0
f 24/45/1 21/40/1 23/42/1
s 1
f 28/46/17 25/47/17 24/44/16
s 0
f 24/45/1 25/48/1 27/49/1
s 1
f 24/44/16 16/31/13 26/50/16
f 28/46/17 24/44/16 26/50/16
s 0
f 27/49/1 21/40/1 24/45/1
f 30/51/8 29/52/8 28/53/8
s 1
f 29/54/18 25/47/17 28/46/17
s 0
f 30/51/8 28/53/8 26/55/8
f 30/51/8 31/56/8 29/52/8
s 1
f 31/57/19 30/58/20 32/59/20
f 32/59/20 30/58/20 20/38/14
s 0
f 20/37/8 30/51/8 26/55/8
f 33/60/1 32/59/1 25/48/1
s 1
f 31/57/19 32/59/20 33/60/19
s 0
f 32/59/1 27/49/1 25/48/1
s 1
f 32/59/20 20/38/14 27/49/14
s 0
f 34/61/1 33/60/1 36/62/1
s 1
f 35/63/21 33/60/19 34/61/21
f 35/63/21 31/57/19 33/60/19
s 0
f 25/48/1 36/62/1 33/60/1
s 1
f 29/54/18 36/64/18 25/47/17
f 37/65/22 36/64/18 29/54/18
s 0
f 34/61/1 36/62/1 37/66/1
f 37/66/1 38/67/1 40/68/1
s 1
f 37/65/22 41/69/23 38/70/23
f 37/65/22 39/71/22 41/69/23
f 37/65/22 29/54/18 39/71/22
s 0
f 40/68/1 34/61/1 37/66/1
s 1
f 38/70/23 41/69/23 42/72/24
s 0
f 44/73/8 42/74/8 41/75/8
f 39/76/8 43/77/8 41/75/8
f 43/77/8 44/73/8 41/75/8
f 44/73/8 45/78/8 47/79/8
s 1
f 45/80/25 44/81/26 46/82/26
f 44/81/26 40/68/27 46/82/26
f 44/81/26 43/83/27 40/68/27
s 0
f 44/73/8 47/79/8 42/74/8
s 1
f 49/84/28 47/85/28 48/86/29
s 0
f 45/78/8 48/87/8 47/79/8
s 1
f 42/72/24 47/85/28 49/84/28
s 0
f 53/88/1 50/89/1 49/90/1
s 1
f 42/72/24 49/84/28 50/91/24
s 0
f 52/92/1 49/90/1 51/93/1
s 1
f 49/84/28 48/86/29 51/94/29
s 0
f 52/92/1 53/88/1 49/90/1
s 1
f 54/95/30 53/88/25 52/92/30
f 54/95/30 45/80/25 53/88/25
f 45/80/25 46/82/26 53/88/25
s 0
f 53/88/1 46/82/1 50/89/1
f 54/96/8 55/97/8 56/98/8
s 1
f 55/99/31 54/95/30 52/92/30
s 0
f 45/78/8 54/96/8 48/87/8
f 54/96/8 56/98/8 48/87/8
s 1
f 56/100/32 57/101/33 60/102/33
s 0
f 59/103/8 57/104/8 56/98/8
s 1
f 48/86/29 56/100/32 58/105/32
f 56/100/32 60/102/33 58/105/32
s 0
f 55/97/8 59/103/8 56/98/8
f 58/106/1 60/107/1 62/108/1
s 1
f 61/109/34 60/102/33 57/101/33
s 0
f 60/107/1 61/110/1 62/108/1
f 63/111/1 62/108/1 61/110/1
s 1
f 65/112/35 62/108/36 63/111/35
f 65/112/35 59/113/36 62/108/36
f 59/113/36 64/114/31 62/108/36
s 0
f 62/108/1 64/114/1 58/106/1
f 65/115/8 66/116/8 69/117/8
s 1
f 67/118/37 66/119/37 65/112/35
f 67/118/37 65/112/35 63/111/35
s 0
f 59/103/8 65/115/8 68/120/8
f 65/115/8 69/117/8 68/120/8
s 1
f 69/121/38 70/122/39 73/123/39
s 0
f 69/117/8 72/124/8 70/125/8
s 1
f 69/121/38 61/109/34 68/126/34
f 69/121/38 71/127/38 61/109/34
f 69/121/38 73/123/39 71/127/38
s 0
f 66/116/8 72/124/8 69/117/8
f 73/128/1 74/129/1 67/118/1
f 74/129/1 73/128/1 75/130/1
s 1
f 73/123/39 76/131/40 75/132/40
s 0
f 73/128/1 67/118/1 71/133/1
s 1
f 73/123/39 70/122/39 76/131/40
s 0
f 77/134/8 76/135/8 70/125/8
f 76/135/8 77/134/8 79/136/8
s 1
f 76/131/40 78/137/41 80/138/41
s 0
f 76/135/8 79/136/8 78/139/8
s 1
f 76/131/40 80/138/41 75/132/40
s 0
f 80/140/1 84/141/1 75/130/1
s 1
f 85/142/42 81/143/42 80/138/41
s 0
f 82/144/1 80/140/1 81/145/1
s 1
f 85/142/42 80/138/41 78/137/41
s 0
f 82/144/1 83/146/1 80/140/1
f 83/146/1 84/141/1 80/140/1
s 1
f 85/142/42 86/147/43 89/148/43
s 0
f 86/149/8 85/150/8 88/151/8
f 78/139/8 87/152/8 85/150/8
s 1
f 85/142/42 89/148/43 81/143/42
s 0
f 87/152/8 88/151/8 85/150/8
f 91/153/1 81/145/1 89/154/1
f 91/153/1 89/154/1 90/155/1
s 1
f 89/148/43 92/156/44 90/157/44
f 89/148/43 86/147/43 92/156/44
s 0
f 94/158/8 93/159/8 92/160/8
s 1
f 95/161/45 92/156/44 93/162/45
s 0
f 92/160/8 86/149/8 88/151/8
s 1
f 95/161/45 90/157/44 92/156/44
s 0
f 88/151/8 94/158/8 92/160/8
f 98/163/1 90/155/1 95/164/1
s 1
f 99/165/46 96/166/46 95/161/45
s 0
f 97/167/1 95/164/1 96/168/1
s 1
f 99/165/46 95/161/45 93/162/45
s 0
f 97/167/1 98/163/1 95/164/1
f 102/169/8 100/170/8 99/171/8
s 1
f 100/172/47 96/166/46 99/165/46
s 0
f 93/159/8 101/173/8 99/171/8
f 101/173/8 102/169/8 99/171/8
f 102/169/8 103/174/8 100/170/8
s 1
f 103/175/48 102/176/49 104/177/49
f 102/176/49 97/167/50 104/177/49
f 102/176/49 101/178/50 97/167/50
s 0
f 105/179/1 104/177/1 106/180/1
s 1
f 103/175/48 104/177/49 105/179/48
s 0
f 104/177/1 97/167/1 96/168/1
f 104/177/1 96/168/1 106/180/1
s 1
f 100/172/47 106/181/47 96/166/46
f 108/182/51 107/183/51 106/181/47
s 0
f 105/179/1 106/180/1 107/184/1
s 1
f 108/182/51 106/181/47 100/172/47
s 0
f 109/185/8 108/186/8 103/174/8
f 103/174/8 108/186/8 100/170/8
s 1
f 108/182/51 109/187/52 110/188/52
f 108/182/51 110/188/52 107/183/51
s 0
f 113/189/1 107/184/1 110/190/1
s 1
f 114/191/53 111/192/53 110/188/52
s 0
f 112/193/1 110/190/1 111/194/1
s 1
f 114/191/53 110/188/52 109/187/52
s 0
f 112/193/1 113/189/1 110/190/1
f 115/195/8 114/196/8 117/197/8
s 1
f 118/198/54 114/191/53 115/199/54
s 0
f 116/200/8 114/196/8 109/185/8
s 1
f 118/198/54 111/192/53 114/191/53
s 0
f 116/200/8 117/197/8 114/196/8
f 120/201/1 111/194/1 118/202/1
s 1
f 121/203/55 119/204/55 118/198/54
s 0
f 120/201/1 118/202/1 119/205/1
s 1
f 121/203/55 118/198/54 115/199/54
f 121/203/55 122/206/6 7/11/6
s 0
f 122/207/8 121/208/8 123/209/8
f 121/208/8 115/195/8 123/209/8
s 1
f 121/203/55 7/11/6 119/204/55
s 0
f 123/209/8 124/210/8 122/207/8
s 1
f 2/2/3 124/211/3 123/212/56
f 123/212/56 120/201/57 125/213/56
f 2/2/3 123/212/56 125/213/56
s 0
f 126/214/8 123/209/8 115/195/8
s 1
f 123/212/56 126/215/57 120/201/57
f 126/215/57 112/193/58 120/201/57
s 0
f 117/197/8 126/214/8 115/195/8
s 1
f 126/215/57 117/216/58 112/193/58
s 0
f 2/2/1 125/213/1 7/12/1
f 125/213/1 120/201/1 119/205/1
f 7/12/1 125/213/1 119/205/1
f 124/210/8 3/217/8 9/22/8
s 1
f 3/4/2 124/211/3 2/2/3
s 0
f 124/210/8 9/22/8 122/207/8
s 1
f 9/9/5 7/11/6 122/206/6
s 0
f 120/201/1 112/193/1 111/194/1
s 1
f 117/216/58 113/189/59 112/193/58
f 117/216/58 116/218/59 113/189/59
f 113/189/59 116/218/59 103/175/48
s 0
f 103/174/8 116/200/8 109/185/8
f 113/189/1 105/179/1 107/184/1
s 1
f 113/189/59 103/175/48 105/179/48
f 101/178/50 98/163/60 97/167/50
s 0
f 127/219/8 101/173/8 93/159/8
s 1
f 101/178/50 127/220/60 98/163/60
f 127/220/60 128/221/61 98/163/60
s 0
f 94/158/8 127/219/8 93/159/8
s 1
f 127/220/60 94/222/61 128/221/61
s 0
f 98/163/1 128/221/1 90/155/1
s 1
f 94/222/61 91/153/62 128/221/61
s 0
f 128/221/1 91/153/1 90/155/1
s 1
f 94/222/61 88/223/62 91/153/62
f 88/223/62 82/144/63 91/153/62
s 0
f 91/153/1 82/144/1 81/145/1
s 1
f 88/223/62 87/224/63 82/144/63
f 87/224/63 83/146/64 82/144/63
s 0
f 79/136/8 87/152/8 78/139/8
s 1
f 87/224/63 79/225/64 83/146/64
f 79/225/64 84/141/65 83/146/64
f 79/225/64 77/226/65 84/141/65
f 77/226/65 74/129/66 84/141/65
s 0
f 84/141/1 74/129/1 75/130/1
f 72/124/8 77/134/8 70/125/8
s 1
f 77/226/65 72/227/66 74/129/66
f 74/129/66 72/227/66 66/119/37
f 74/129/66 66/119/37 67/118/37
s 0
f 71/133/1 63/111/1 61/110/1
f 67/118/1 63/111/1 71/133/1
f 59/103/8 68/120/8 57/104/8
s 1
f 61/109/34 57/101/33 68/126/34
f 59/113/36 55/99/31 64/114/31
f 55/99/31 52/92/30 64/114/31
s 0
f 64/114/1 52/92/1 51/93/1
f 64/114/1 51/93/1 58/106/1
s 1
f 48/86/29 58/105/32 51/94/29
s 0
f 46/82/1 38/67/1 50/89/1
s 1
f 38/70/23 42/72/24 50/91/24
s 0
f 46/82/1 40/68/1 38/67/1
s 1
f 43/83/27 34/61/21 40/68/27
s 0
f 35/228/8 43/77/8 39/76/8
s 1
f 43/83/27 35/63/21 34/61/21
s 0
f 31/56/8 39/76/8 29/52/8
f 31/56/8 35/228/8 39/76/8
s 1
f 20/38/14 21/40/15 27/49/14
s 0
f 16/33/8 20/37/8 26/55/8
f 3/217/8 5/23/8 9/22/8
f 129/1/8 130/2/8 134/3/8
s 1
f 131/4/2 130/2/4 129/5/2
f 133/6/3 131/7/2 129/1/2
s 0
f 132/8/8 129/1/8 134/3/8
s 1
f 133/6/3 129/1/2 132/8/3
f 134/10/67 135/11/68 138/206/68
s 0
f 134/3/8 130/2/8 135/12/8
f 134/3/8 136/13/8 132/8/8
s 1
f 134/14/67 139/15/69 136/16/69
f 134/14/67 137/17/67 139/15/69
f 134/10/67 138/206/68 137/9/67
s 0
f 140/18/1 139/19/1 141/20/1
s 1
f 140/21/70 136/16/69 139/15/69
s 0
f 137/22/1 133/23/1 139/19/1
f 133/23/1 141/20/1 139/19/1
f 141/20/1 142/24/1 144/25/1
s 1
f 142/26/57 141/27/56 143/28/56
f 141/27/56 132/8/3 143/28/56
f 141/27/56 133/6/3 132/8/3
s 0
f 144/25/1 140/18/1 141/20/1
s 1
f 146/29/71 144/30/71 145/31/72
s 0
f 144/25/1 147/32/1 145/33/1
s 1
f 140/21/70 144/30/71 146/29/71
s 0
f 142/24/1 147/32/1 144/25/1
f 147/32/1 148/37/1 145/33/1
s 1
f 148/38/59 147/39/58 149/40/58
f 147/39/58 150/41/57 149/40/58
f 147/39/58 142/26/57 150/41/57
s 0
f 149/40/8 150/41/8 151/42/8
s 1
f 142/26/57 143/28/56 150/41/57
s 0
f 150/41/8 143/28/8 146/36/8
f 151/42/8 150/41/8 146/36/8
s 1
f 146/29/71 145/31/72 151/43/72
f 152/44/73 151/43/72 145/31/72
s 0
f 152/45/8 149/40/8 151/42/8
s 1
f 156/46/74 153/47/74 152/44/73
s 0
f 152/45/8 153/48/8 155/49/8
s 1
f 152/44/73 145/31/72 154/50/73
f 156/46/74 152/44/73 154/50/73
s 0
f 155/49/8 149/40/8 152/45/8
f 158/51/1 157/52/1 156/53/1
s 1
f 159/64/75 156/46/74 157/54/75
s 0
f 158/51/1 156/53/1 154/55/1
s 1
f 159/64/75 153/47/74 156/46/74
s 0
f 153/48/8 159/62/8 162/60/8
s 1
f 160/65/76 159/64/75 157/54/75
s 0
f 161/61/8 159/62/8 160/66/8
f 161/61/8 162/60/8 159/62/8
s 1
f 165/63/50 162/60/49 161/61/50
f 165/63/50 163/57/49 162/60/49
f 163/57/49 164/59/48 162/60/49
s 0
f 162/60/8 164/59/8 153/48/8
f 165/228/1 166/77/1 167/76/1
s 1
f 166/83/60 165/63/50 161/61/50
s 0
f 163/56/1 165/228/1 167/76/1
s 1
f 160/65/76 167/71/76 168/69/77
s 0
f 167/76/1 166/77/1 168/75/1
f 163/56/1 167/76/1 157/52/1
s 1
f 160/65/76 157/54/75 167/71/76
f 170/70/77 168/69/77 169/72/78
s 0
f 171/73/1 169/74/1 168/75/1
s 1
f 160/65/76 168/69/77 170/70/77
s 0
f 166/77/1 171/73/1 168/75/1
f 171/73/1 172/78/1 175/79/1
s 1
f 172/80/62 171/81/61 173/82/61
f 171/81/61 174/68/60 173/82/61
f 171/81/61 166/83/60 174/68/60
s 0
f 171/73/1 175/79/1 169/74/1
s 1
f 177/84/79 175/85/79 176/86/80
s 0
f 172/78/1 176/87/1 175/79/1
s 1
f 169/72/78 175/85/79 177/84/79
s 0
f 181/88/8 178/89/8 177/90/8
s 1
f 169/72/78 177/84/79 178/91/78
s 0
f 180/92/8 177/90/8 179/93/8
s 1
f 177/84/79 176/86/80 179/94/80
s 0
f 180/92/8 181/88/8 177/90/8
s 1
f 182/95/63 181/88/62 180/92/63
f 182/95/63 172/80/62 181/88/62
f 172/80/62 173/82/61 181/88/62
s 0
f 181/88/8 173/82/8 178/89/8
f 182/96/1 183/97/1 184/98/1
s 1
f 183/99/64 182/95/63 180/92/63
s 0
f 172/78/1 182/96/1 176/87/1
f 182/96/1 184/98/1 176/87/1
s 1
f 186/105/81 184/100/81 185/101/82
s 0
f 187/103/1 185/104/1 184/98/1
s 1
f 176/86/80 184/100/81 186/105/81
s 0
f 183/97/1 187/103/1 184/98/1
f 187/103/1 188/115/1 191/120/1
s 1
f 188/112/66 187/113/65 189/108/65
f 187/113/65 190/114/64 189/108/65
f 187/113/65 183/99/64 190/114/64
s 0
f 187/103/1 191/120/1 185/104/1
f 188/115/1 192/117/1 191/120/1
s 1
f 194/127/83 191/126/84 192/121/83
f 193/109/84 185/101/82 191/126/84
f 194/127/83 193/109/84 191/126/84
s 0
f 194/133/8 197/111/8 193/110/8
s 1
f 198/122/85 195/123/85 194/127/83
s 0
f 195/128/8 196/118/8 194/133/8
s 1
f 198/122/85 194/127/83 192/121/83
s 0
f 196/118/8 197/111/8 194/133/8
s 1
f 195/123/85 198/122/85 199/131/86
s 0
f 201/134/1 199/135/1 198/125/1
f 192/117/1 200/124/1 198/125/1
f 200/124/1 201/134/1 198/125/1
f 199/135/1 201/134/1 202/136/1
s 1
f 202/225/31 201/226/36 203/141/36
f 201/226/36 204/129/35 203/141/36
f 201/226/36 200/227/35 204/129/35
s 0
f 203/141/8 204/129/8 205/130/8
s 1
f 200/227/35 196/118/37 204/129/35
s 0
f 195/128/8 204/129/8 196/118/8
f 204/129/8 195/128/8 205/130/8
s 1
f 195/123/85 199/131/86 205/132/86
s 0
f 206/140/8 203/141/8 205/130/8
s 1
f 199/131/86 206/138/87 205/132/86
f 211/142/88 207/143/88 206/138/87
s 0
f 209/144/8 206/140/8 207/145/8
s 1
f 199/131/86 208/137/87 206/138/87
f 211/142/88 206/138/87 208/137/87
s 0
f 209/144/8 210/146/8 206/140/8
f 210/146/8 203/141/8 206/140/8
s 1
f 211/142/88 212/147/89 215/148/89
s 0
f 212/149/1 211/150/1 214/151/1
f 208/139/1 213/152/1 211/150/1
s 1
f 211/142/88 215/148/89 207/143/88
s 0
f 213/152/1 214/151/1 211/150/1
f 217/153/8 207/145/8 215/154/8
f 217/153/8 215/154/8 216/155/8
s 1
f 215/148/89 218/156/90 216/157/90
f 215/148/89 212/147/89 218/156/90
s 0
f 220/158/1 219/159/1 218/160/1
s 1
f 221/161/91 218/156/90 219/162/91
s 0
f 218/160/1 212/149/1 214/151/1
s 1
f 221/161/91 216/157/90 218/156/90
s 0
f 214/151/1 220/158/1 218/160/1
f 224/163/8 216/155/8 221/164/8
s 1
f 222/166/92 221/161/91 219/162/91
s 0
f 223/167/8 221/164/8 222/168/8
f 223/167/8 224/163/8 221/164/8
s 1
f 227/178/21 224/163/27 223/167/21
f 227/178/21 225/220/27 224/163/27
f 225/220/27 226/221/26 224/163/27
s 0
f 224/163/8 226/221/8 216/155/8
f 227/173/1 228/169/1 229/171/1
s 1
f 228/176/19 227/178/21 223/167/21
s 0
f 225/219/1 227/173/1 219/159/1
f 219/159/1 227/173/1 229/171/1
f 228/169/1 230/170/1 229/171/1
s 1
f 230/172/93 222/166/92 229/165/92
f 222/166/92 219/162/91 229/165/92
s 0
f 233/174/1 231/186/1 230/170/1
s 1
f 231/182/94 232/181/93 230/172/93
f 230/172/93 232/181/93 222/166/92
s 0
f 228/169/1 233/174/1 230/170/1
f 233/174/1 234/200/1 237/185/1
s 1
f 234/218/14 233/175/20 235/179/20
f 233/175/20 236/177/19 235/179/20
f 233/175/20 228/176/19 236/177/19
s 0
f 237/185/1 231/186/1 233/174/1
s 1
f 231/182/94 237/187/95 239/188/95
s 0
f 234/200/1 238/196/1 237/185/1
s 1
f 238/191/96 239/188/95 237/187/95
s 0
f 243/189/8 240/184/8 239/190/8
s 1
f 231/182/94 239/188/95 240/183/94
f 238/191/96 241/192/96 239/188/95
s 0
f 242/193/8 239/190/8 241/194/8
f 242/193/8 243/189/8 239/190/8
s 1
f 244/216/15 243/189/14 242/193/15
f 244/216/15 234/218/14 243/189/14
f 234/218/14 235/179/20 243/189/14
s 0
f 243/189/8 235/179/8 240/184/8
f 244/197/1 245/214/1 246/195/1
s 1
f 245/215/10 244/216/15 242/193/15
s 0
f 234/200/1 244/197/1 238/196/1
f 246/195/1 238/196/1 244/197/1
f 247/208/1 246/195/1 249/209/1
s 1
f 247/203/97 248/198/98 246/199/98
f 248/198/98 238/191/96 246/199/98
s 0
f 245/214/1 249/209/1 246/195/1
f 249/209/1 250/210/1 138/207/1
s 1
f 250/211/4 249/212/11 251/213/11
f 249/212/11 252/201/10 251/213/11
f 249/212/11 245/215/10 252/201/10
s 0
f 138/207/1 247/208/1 249/209/1
f 251/213/8 252/201/8 253/205/8
s 1
f 245/215/10 242/193/15 252/201/10
s 0
f 252/201/8 242/193/8 241/194/8
f 252/201/8 248/202/8 253/205/8
f 252/201/8 241/194/8 248/202/8
s 1
f 247/203/97 253/204/97 248/198/98
s 0
f 135/12/8 251/213/8 253/205/8
s 1
f 247/203/97 135/11/68 253/204/97
s 0
f 130/2/8 251/213/8 135/12/8
s 1
f 250/211/4 251/213/11 130/2/4
s 0
f 250/210/1 131/217/1 137/22/1
s 1
f 131/4/2 250/211/4 130/2/4
s 0
f 250/210/1 137/22/1 138/207/1
s 1
f 248/198/98 241/192/96 238/191/96
f 247/203/97 138/206/68 135/11/68
f 231/182/94 240/183/94 232/181/93
s 0
f 235/179/8 232/180/8 240/184/8
f 235/179/8 236/177/8 232/180/8
s 1
f 228/176/19 223/167/21 236/177/19
s 0
f 236/177/8 223/167/8 222/168/8
f 236/177/8 222/168/8 232/180/8
s 1
f 225/220/27 220/222/26 226/221/26
f 220/222/26 217/153/25 226/221/26
s 0
f 226/221/8 217/153/8 216/155/8
f 220/158/1 225/219/1 219/159/1
s 1
f 220/222/26 214/223/25 217/153/25
f 214/223/25 209/144/30 217/153/25
s 0
f 217/153/8 209/144/8 207/145/8
s 1
f 214/223/25 213/224/30 209/144/30
f 213/224/30 210/146/31 209/144/30
s 0
f 202/136/1 213/152/1 208/139/1
s 1
f 213/224/30 202/225/31 210/146/31
f 202/225/31 203/141/36 210/146/31
s 0
f 199/135/1 202/136/1 208/139/1
f 254/116/1 200/124/1 192/117/1
s 1
f 200/227/35 254/119/37 196/118/37
f 254/119/37 197/111/66 196/118/37
s 0
f 188/115/1 254/116/1 192/117/1
s 1
f 254/119/37 188/112/66 197/111/66
f 188/112/66 189/108/65 197/111/66
s 0
f 197/111/8 189/108/8 193/110/8
s 1
f 193/109/84 255/102/82 185/101/82
s 0
f 255/107/8 193/110/8 189/108/8
s 1
f 186/105/81 185/101/82 255/102/82
s 0
f 186/106/8 255/107/8 189/108/8
f 189/108/8 190/114/8 186/106/8
s 1
f 183/99/64 180/92/63 190/114/64
s 0
f 190/114/8 180/92/8 179/93/8
f 190/114/8 179/93/8 186/106/8
s 1
f 176/86/80 186/105/81 179/94/80
s 0
f 173/82/8 170/67/8 178/89/8
s 1
f 170/70/77 169/72/78 178/91/78
s 0
f 173/82/8 174/68/8 170/67/8
s 1
f 166/83/60 161/61/50 174/68/60
s 0
f 174/68/8 161/61/8 160/66/8
f 160/66/8 170/67/8 174/68/8
s 1
f 163/57/49 158/58/48 164/59/48
f 158/58/48 155/49/59 164/59/48
s 0
f 164/59/8 155/49/8 153/48/8
f 158/51/1 163/56/1 157/52/1
f 148/37/1 158/51/1 154/55/1
s 1
f 158/58/48 148/38/59 155/49/59
f 148/38/59 149/40/58 155/49/59
s 0
f 145/33/1 148/37/1 154/55/1
f 146/36/8 143/28/8 256/35/8
s 1
f 140/21/70 146/29/71 256/34/70
f 140/21/70 256/34/70 136/16/69
s 0
f 136/13/8 256/35/8 132/8/8
f 143/28/8 132/8/8 256/35/8
f 131/217/1 133/23/1 137/22/1
