# Blender 4.4.1
# www.blender.org
mtllib Player_body.mtl
o からだ
v 0.264286 0.132169 0.230266
v 0.264286 -0.279658 0.230266
v -0.271030 0.132169 0.222287
v 0.270423 0.132169 -0.181516
v 0.270423 -0.279658 -0.181516
v -0.264893 0.132169 -0.189494
v -0.264893 -0.279658 -0.189494
v -0.271030 -0.279658 0.222287
vn 0.9999 -0.0000 0.0149
vn -0.0149 -0.0000 0.9999
vn 0.0149 -0.0000 -0.9999
vn -0.9999 -0.0000 -0.0149
vn -0.0000 -1.0000 -0.0000
vn -0.0000 1.0000 -0.0000
vt 0.975055 0.492592
vt 0.858143 0.375680
vt 0.975055 0.375680
vt 0.858143 0.492592
vt 0.706158 0.375680
vt 0.706158 0.141857
vt 0.858143 0.258768
vt 0.706158 0.258768
vt 0.706158 0.492592
vt 0.589247 0.375680
vt 0.858143 0.024945
vt 0.706158 0.024945
vt 0.858143 0.141857
vt 0.589247 0.492592
s 0
usemtl Material
f 4/1/1 2/2/1 5/3/1
f 1/4/2 8/5/2 2/2/2
f 6/6/3 5/7/3 7/8/3
f 3/9/4 7/10/4 8/5/4
f 2/2/5 7/8/5 5/7/5
f 1/11/6 6/6/6 3/12/6
f 4/1/1 1/4/1 2/2/1
f 1/4/2 3/9/2 8/5/2
f 6/6/3 4/13/3 5/7/3
f 3/9/4 6/14/4 7/10/4
f 2/2/5 8/5/5 7/8/5
f 1/11/6 4/13/6 6/6/6
