# Blender 4.4.1
# www.blender.org
mtllib enemy_core13.mtl
o enemy_core13
v 0.637161 -0.098602 0.037279
v 0.635074 -0.099031 0.007239
v 0.710986 -0.351819 0.000000
v 0.719281 -0.141982 0.169995
v 0.636268 -0.289295 0.123923
v 0.729044 -0.148013 0.155615
v 0.828114 -0.209491 0.000000
v 0.627803 -0.304577 0.119005
v 0.713883 -0.148759 -0.169375
v 0.728297 -0.156451 -0.149172
v 0.709507 -0.146620 -0.175341
v 0.625626 -0.322327 0.106025
v 0.620768 -0.365003 0.074462
v 0.614868 -0.414653 0.033665
v 0.611303 -0.366386 -0.082274
v 0.610042 -0.455580 0.000000
v 0.613819 -0.238696 -0.188123
v 0.719281 -0.141982 0.169995
v 0.636268 -0.289295 0.123923
v 0.729044 -0.148013 0.155615
v 0.729044 -0.148013 0.155615
v 0.828114 -0.209491 0.000000
v 0.828114 -0.209491 0.000000
v 0.709507 -0.146620 -0.175341
v 0.613819 -0.238696 -0.188123
v 0.627803 -0.304577 0.119005
v 0.713883 -0.148759 -0.169375
v 0.728297 -0.156451 -0.149172
v 0.728297 -0.156451 -0.149172
v 0.625626 -0.322327 0.106025
v 0.620768 -0.365003 0.074462
v 0.620768 -0.365003 0.074462
v 0.614868 -0.414653 0.033665
v 0.611303 -0.366386 -0.082274
v 0.611303 -0.366386 -0.082274
v 0.610042 -0.455580 0.000000
v 0.610042 -0.455580 0.000000
v 0.710986 -0.351819 0.000000
v 0.710986 -0.351819 0.000000
v 0.710986 -0.351819 0.000000
v 0.710986 -0.351819 0.000000
v 0.710986 -0.351819 0.000000
vn -0.7801 0.2619 0.5683
vn -0.7888 0.2573 0.5582
vn 0.4777 0.8778 -0.0357
vn 0.4584 0.8876 -0.0445
vn -0.9951 0.0722 0.0681
vn -0.9958 0.0688 0.0603
vn -0.9959 0.0687 0.0592
vn -0.5989 0.6809 -0.4216
vn 0.6199 -0.5102 0.5962
vn 0.5748 -0.5592 0.5974
vn 0.5865 -0.5237 0.6179
vn 0.6199 -0.5102 -0.5962
vn 0.5748 -0.5592 -0.5974
vn 0.5865 -0.5237 -0.6179
vn 0.4985 0.8665 -0.0252
vn 0.5865 -0.5237 0.6178
vn 0.4982 0.8667 -0.0254
vn 0.4983 0.8666 -0.0251
vn 0.4982 0.8667 -0.0252
vt 0.427426 0.427426
vt 0.000000 0.000000
vt 0.278792 0.000000
vt 0.278792 0.278792
vt 0.310871 0.000000
vt 1.000000 0.227494
vt 1.000000 1.000000
vt 0.335774 0.335774
vt 0.244142 0.000000
vt 1.000000 0.000000
vt 1.000000 0.689129
vt 0.369487 0.189287
vt 0.337231 0.337231
vt 0.404411 0.404411
vt 0.549561 0.000000
vt 0.542850 0.245854
vt 1.000000 0.755858
vt 0.433855 0.000000
vt 0.975006 0.412118
vt 0.474973 0.059989
vt 0.337231 0.000000
vt 0.404411 0.000000
vt 0.523241 0.424793
vt 0.335774 0.000000
vt 1.000000 0.427426
vt 0.713344 0.235511
s 0
f 18/1/1 1/2/1 19/3/1
f 19/4/2 1/2/2 26/5/2
f 24/6/3 1/7/3 9/8/3
f 24/9/4 2/10/4 1/7/4
f 2/2/5 26/11/5 1/7/5
f 2/2/6 31/12/6 30/13/6
f 33/14/7 25/15/7 34/16/7
f 2/10/8 24/17/8 25/18/8
s 1
f 38/2/9 22/2/9 20/2/9
f 39/2/10 14/2/10 37/2/10
f 13/2/11 21/2/11 5/2/11
f 23/2/12 40/2/12 29/2/12
f 35/2/13 41/2/13 16/2/13
f 27/2/14 3/2/14 17/2/14
s 0
f 1/10/15 6/19/15 10/20/15
f 2/2/5 30/21/5 26/11/5
f 2/2/6 33/22/6 31/12/6
f 34/16/7 36/23/7 33/14/7
f 33/14/7 2/2/7 25/15/7
s 1
f 39/2/10 32/2/10 14/2/10
f 8/2/11 12/2/16 13/2/11
f 13/2/11 42/2/11 21/2/11
f 21/2/11 4/2/11 5/2/11
f 5/2/11 8/2/11 13/2/11
f 17/2/14 11/2/14 27/2/14
f 27/2/14 28/2/14 3/2/14
f 3/2/14 15/2/14 17/2/14
s 0
f 10/20/17 9/24/17 1/10/17
f 1/10/18 18/25/18 6/19/18
f 6/19/19 7/26/19 10/20/19
