mtllib prism_crystal_fragment_a.mtl
o PrismCrystalFragmentA
v 0.000000 0.800000 0.000000
v 0.000000 -0.550000 0.000000
v 0.280000 0.000000 0.050000
v -0.060000 0.020000 0.300000
v -0.300000 -0.020000 -0.060000
v 0.050000 0.010000 -0.260000
vn 0.582819 0.252265 0.772453
vn -0.816350 0.260964 0.515238
vn -0.496900 0.242756 -0.833162
vn 0.783605 0.238406 -0.573694
vn 0.542556 -0.345805 0.765540
vn -0.755103 -0.365826 0.544050
vn -0.443308 -0.344606 -0.827481
vn 0.752570 -0.331395 -0.569048
usemtl PrismFragment
f 1//1 4//1 3//1
f 1//2 5//2 4//2
f 1//3 6//3 5//3
f 1//4 3//4 6//4
f 2//5 3//5 4//5
f 2//6 4//6 5//6
f 2//7 5//7 6//7
f 2//8 6//8 3//8
