# Blender 4.4.1
# www.blender.org
mtllib map_tutorial_16.mtl
o 立方体.010
v -9.000000 30.000006 -34.899994
v -9.000000 40.000008 -34.899990
v -9.000000 30.000006 -30.099995
v -9.000000 40.000008 -30.099991
v -10.000000 30.000006 -34.899998
v -10.000000 40.000008 -34.899990
v -10.000000 30.000006 -30.099995
v -10.000000 40.000008 -30.099993
v 0.000000 30.000008 -34.899994
v 0.000000 40.000008 -34.899990
v 0.000000 30.000008 -30.099995
v 0.000000 40.000008 -30.099991
v -1.000000 30.000008 -34.899998
v -1.000000 40.000008 -34.899990
v -1.000000 30.000008 -30.099995
v -1.000000 40.000008 -30.099993
vn 1.0000 -0.0000 -0.0000
vn -0.0000 -0.0000 1.0000
vn -0.0000 -0.0000 -1.0000
vn -1.0000 -0.0000 -0.0000
vt 0.625000 0.000000
vt 0.375000 0.250000
vt 0.375000 0.000000
vt 0.625000 0.250000
vt 0.375000 0.500000
vt 0.625000 0.750000
vt 0.375000 1.000000
vt 0.375000 0.750000
vt 0.625000 0.500000
vt 0.625000 1.000000
s 1
f 2/1/1 3/2/1 1/3/1
f 4/4/2 7/5/2 3/2/2
f 6/6/3 1/7/3 5/8/3
f 2/1/1 4/4/1 3/2/1
f 4/4/2 8/9/2 7/5/2
f 6/6/3 2/10/3 1/7/3
f 10/1/1 11/2/1 9/3/1
f 12/4/2 15/5/2 11/2/2
f 16/9/4 13/8/4 15/5/4
f 14/6/3 9/7/3 13/8/3
f 10/1/1 12/4/1 11/2/1
f 12/4/2 16/9/2 15/5/2
f 16/9/4 14/6/4 13/8/4
f 14/6/3 10/10/3 9/7/3
