# CG2 False King attack model
mtllib false_king_crown_lance.mtl
o false_king_crown_lance
v 0.0000000 -0.8450000 0.0000000
v 0.0000000 1.0050000 0.0000000
v 0.1700000 -0.8450000 0.0000000
v 0.1700000 1.0050000 0.0000000
v 0.1700000 -0.8450000 0.0000000
v 0.1700000 1.0050000 0.0000000
v 0.1616796 -0.8450000 0.0525329
v 0.1616796 1.0050000 0.0525329
v 0.1616796 -0.8450000 0.0525329
v 0.1616796 1.0050000 0.0525329
v 0.1375329 -0.8450000 0.0999235
v 0.1375329 1.0050000 0.0999235
v 0.1375329 -0.8450000 0.0999235
v 0.1375329 1.0050000 0.0999235
v 0.0999235 -0.8450000 0.1375329
v 0.0999235 1.0050000 0.1375329
v 0.0999235 -0.8450000 0.1375329
v 0.0999235 1.0050000 0.1375329
v 0.0525329 -0.8450000 0.1616796
v 0.0525329 1.0050000 0.1616796
v 0.0525329 -0.8450000 0.1616796
v 0.0525329 1.0050000 0.1616796
v 0.0000000 -0.8450000 0.1700000
v 0.0000000 1.0050000 0.1700000
v 0.0000000 -0.8450000 0.1700000
v 0.0000000 1.0050000 0.1700000
v -0.0525329 -0.8450000 0.1616796
v -0.0525329 1.0050000 0.1616796
v -0.0525329 -0.8450000 0.1616796
v -0.0525329 1.0050000 0.1616796
v -0.0999235 -0.8450000 0.1375329
v -0.0999235 1.0050000 0.1375329
v -0.0999235 -0.8450000 0.1375329
v -0.0999235 1.0050000 0.1375329
v -0.1375329 -0.8450000 0.0999235
v -0.1375329 1.0050000 0.0999235
v -0.1375329 -0.8450000 0.0999235
v -0.1375329 1.0050000 0.0999235
v -0.1616796 -0.8450000 0.0525329
v -0.1616796 1.0050000 0.0525329
v -0.1616796 -0.8450000 0.0525329
v -0.1616796 1.0050000 0.0525329
v -0.1700000 -0.8450000 0.0000000
v -0.1700000 1.0050000 0.0000000
v -0.1700000 -0.8450000 0.0000000
v -0.1700000 1.0050000 0.0000000
v -0.1616796 -0.8450000 -0.0525329
v -0.1616796 1.0050000 -0.0525329
v -0.1616796 -0.8450000 -0.0525329
v -0.1616796 1.0050000 -0.0525329
v -0.1375329 -0.8450000 -0.0999235
v -0.1375329 1.0050000 -0.0999235
v -0.1375329 -0.8450000 -0.0999235
v -0.1375329 1.0050000 -0.0999235
v -0.0999235 -0.8450000 -0.1375329
v -0.0999235 1.0050000 -0.1375329
v -0.0999235 -0.8450000 -0.1375329
v -0.0999235 1.0050000 -0.1375329
v -0.0525329 -0.8450000 -0.1616796
v -0.0525329 1.0050000 -0.1616796
v -0.0525329 -0.8450000 -0.1616796
v -0.0525329 1.0050000 -0.1616796
v -0.0000000 -0.8450000 -0.1700000
v -0.0000000 1.0050000 -0.1700000
v -0.0000000 -0.8450000 -0.1700000
v -0.0000000 1.0050000 -0.1700000
v 0.0525329 -0.8450000 -0.1616796
v 0.0525329 1.0050000 -0.1616796
v 0.0525329 -0.8450000 -0.1616796
v 0.0525329 1.0050000 -0.1616796
v 0.0999235 -0.8450000 -0.1375329
v 0.0999235 1.0050000 -0.1375329
v 0.0999235 -0.8450000 -0.1375329
v 0.0999235 1.0050000 -0.1375329
v 0.1375329 -0.8450000 -0.0999235
v 0.1375329 1.0050000 -0.0999235
v 0.1375329 -0.8450000 -0.0999235
v 0.1375329 1.0050000 -0.0999235
v 0.1616796 -0.8450000 -0.0525329
v 0.1616796 1.0050000 -0.0525329
v 0.1616796 -0.8450000 -0.0525329
v 0.1616796 1.0050000 -0.0525329
v 0.0000000 -1.1100000 0.0000000
v 0.0000000 1.0700000 0.0000000
v 0.0850000 -1.1100000 0.0000000
v 0.0850000 1.0700000 0.0000000
v 0.0850000 -1.1100000 0.0000000
v 0.0850000 1.0700000 0.0000000
v 0.0785298 -1.1100000 0.0325281
v 0.0785298 1.0700000 0.0325281
v 0.0785298 -1.1100000 0.0325281
v 0.0785298 1.0700000 0.0325281
v 0.0601041 -1.1100000 0.0601041
v 0.0601041 1.0700000 0.0601041
v 0.0601041 -1.1100000 0.0601041
v 0.0601041 1.0700000 0.0601041
v 0.0325281 -1.1100000 0.0785298
v 0.0325281 1.0700000 0.0785298
v 0.0325281 -1.1100000 0.0785298
v 0.0325281 1.0700000 0.0785298
v 0.0000000 -1.1100000 0.0850000
v 0.0000000 1.0700000 0.0850000
v 0.0000000 -1.1100000 0.0850000
v 0.0000000 1.0700000 0.0850000
v -0.0325281 -1.1100000 0.0785298
v -0.0325281 1.0700000 0.0785298
v -0.0325281 -1.1100000 0.0785298
v -0.0325281 1.0700000 0.0785298
v -0.0601041 -1.1100000 0.0601041
v -0.0601041 1.0700000 0.0601041
v -0.0601041 -1.1100000 0.0601041
v -0.0601041 1.0700000 0.0601041
v -0.0785298 -1.1100000 0.0325281
v -0.0785298 1.0700000 0.0325281
v -0.0785298 -1.1100000 0.0325281
v -0.0785298 1.0700000 0.0325281
v -0.0850000 -1.1100000 0.0000000
v -0.0850000 1.0700000 0.0000000
v -0.0850000 -1.1100000 0.0000000
v -0.0850000 1.0700000 0.0000000
v -0.0785298 -1.1100000 -0.0325281
v -0.0785298 1.0700000 -0.0325281
v -0.0785298 -1.1100000 -0.0325281
v -0.0785298 1.0700000 -0.0325281
v -0.0601041 -1.1100000 -0.0601041
v -0.0601041 1.0700000 -0.0601041
v -0.0601041 -1.1100000 -0.0601041
v -0.0601041 1.0700000 -0.0601041
v -0.0325281 -1.1100000 -0.0785298
v -0.0325281 1.0700000 -0.0785298
v -0.0325281 -1.1100000 -0.0785298
v -0.0325281 1.0700000 -0.0785298
v -0.0000000 -1.1100000 -0.0850000
v -0.0000000 1.0700000 -0.0850000
v -0.0000000 -1.1100000 -0.0850000
v -0.0000000 1.0700000 -0.0850000
v 0.0325281 -1.1100000 -0.0785298
v 0.0325281 1.0700000 -0.0785298
v 0.0325281 -1.1100000 -0.0785298
v 0.0325281 1.0700000 -0.0785298
v 0.0601041 -1.1100000 -0.0601041
v 0.0601041 1.0700000 -0.0601041
v 0.0601041 -1.1100000 -0.0601041
v 0.0601041 1.0700000 -0.0601041
v 0.0785298 -1.1100000 -0.0325281
v 0.0785298 1.0700000 -0.0325281
v 0.0785298 -1.1100000 -0.0325281
v 0.0785298 1.0700000 -0.0325281
v 0.0000000 -0.5800000 0.0000000
v 0.0000000 -2.0200000 0.0000000
v 0.4200000 -1.3000000 0.0000000
v 0.0000000 -1.3000000 0.4200000
v -0.4200000 -1.3000000 0.0000000
v 0.0000000 -1.3000000 -0.4200000
v 0.5150000 0.7600000 0.0000000
v 0.4901041 0.8201041 0.0000000
v 0.4300000 0.8450000 0.0000000
v 0.3698959 0.8201041 0.0000000
v 0.3450000 0.7600000 0.0000000
v 0.3698959 0.6998959 0.0000000
v 0.4300000 0.6750000 0.0000000
v 0.4901041 0.6998959 0.0000000
v 0.5150000 0.7600000 0.0000000
v 0.5020879 0.7600000 0.1145983
v 0.4778161 0.8201041 0.1090584
v 0.4192190 0.8450000 0.0956840
v 0.3606219 0.8201041 0.0823096
v 0.3363501 0.7600000 0.0767697
v 0.3606219 0.6998959 0.0823096
v 0.4192190 0.6750000 0.0956840
v 0.4778161 0.6998959 0.1090584
v 0.5020879 0.7600000 0.1145983
v 0.4639990 0.7600000 0.2234501
v 0.4415685 0.8201041 0.2126482
v 0.3874166 0.8450000 0.1865700
v 0.3332647 0.8201041 0.1604918
v 0.3108343 0.7600000 0.1496899
v 0.3332647 0.6998959 0.1604918
v 0.3874166 0.6750000 0.1865700
v 0.4415685 0.6998959 0.2126482
v 0.4639990 0.7600000 0.2234501
v 0.4026432 0.7600000 0.3210972
v 0.3831788 0.8201041 0.3055749
v 0.3361875 0.8450000 0.2681006
v 0.2891963 0.8201041 0.2306263
v 0.2697319 0.7600000 0.2151040
v 0.2891963 0.6998959 0.2306263
v 0.3361875 0.6750000 0.2681006
v 0.3831788 0.6998959 0.3055749
v 0.4026432 0.7600000 0.3210972
v 0.3210972 0.7600000 0.4026432
v 0.3055749 0.8201041 0.3831788
v 0.2681006 0.8450000 0.3361875
v 0.2306263 0.8201041 0.2891963
v 0.2151040 0.7600000 0.2697319
v 0.2306263 0.6998959 0.2891963
v 0.2681006 0.6750000 0.3361875
v 0.3055749 0.6998959 0.3831788
v 0.3210972 0.7600000 0.4026432
v 0.2234501 0.7600000 0.4639990
v 0.2126482 0.8201041 0.4415685
v 0.1865700 0.8450000 0.3874166
v 0.1604918 0.8201041 0.3332647
v 0.1496899 0.7600000 0.3108343
v 0.1604918 0.6998959 0.3332647
v 0.1865700 0.6750000 0.3874166
v 0.2126482 0.6998959 0.4415685
v 0.2234501 0.7600000 0.4639990
v 0.1145983 0.7600000 0.5020879
v 0.1090584 0.8201041 0.4778161
v 0.0956840 0.8450000 0.4192190
v 0.0823096 0.8201041 0.3606219
v 0.0767697 0.7600000 0.3363501
v 0.0823096 0.6998959 0.3606219
v 0.0956840 0.6750000 0.4192190
v 0.1090584 0.6998959 0.4778161
v 0.1145983 0.7600000 0.5020879
v 0.0000000 0.7600000 0.5150000
v 0.0000000 0.8201041 0.4901041
v 0.0000000 0.8450000 0.4300000
v 0.0000000 0.8201041 0.3698959
v 0.0000000 0.7600000 0.3450000
v 0.0000000 0.6998959 0.3698959
v 0.0000000 0.6750000 0.4300000
v 0.0000000 0.6998959 0.4901041
v 0.0000000 0.7600000 0.5150000
v -0.1145983 0.7600000 0.5020879
v -0.1090584 0.8201041 0.4778161
v -0.0956840 0.8450000 0.4192190
v -0.0823096 0.8201041 0.3606219
v -0.0767697 0.7600000 0.3363501
v -0.0823096 0.6998959 0.3606219
v -0.0956840 0.6750000 0.4192190
v -0.1090584 0.6998959 0.4778161
v -0.1145983 0.7600000 0.5020879
v -0.2234501 0.7600000 0.4639990
v -0.2126482 0.8201041 0.4415685
v -0.1865700 0.8450000 0.3874166
v -0.1604918 0.8201041 0.3332647
v -0.1496899 0.7600000 0.3108343
v -0.1604918 0.6998959 0.3332647
v -0.1865700 0.6750000 0.3874166
v -0.2126482 0.6998959 0.4415685
v -0.2234501 0.7600000 0.4639990
v -0.3210972 0.7600000 0.4026432
v -0.3055749 0.8201041 0.3831788
v -0.2681006 0.8450000 0.3361875
v -0.2306263 0.8201041 0.2891963
v -0.2151040 0.7600000 0.2697319
v -0.2306263 0.6998959 0.2891963
v -0.2681006 0.6750000 0.3361875
v -0.3055749 0.6998959 0.3831788
v -0.3210972 0.7600000 0.4026432
v -0.4026432 0.7600000 0.3210972
v -0.3831788 0.8201041 0.3055749
v -0.3361875 0.8450000 0.2681006
v -0.2891963 0.8201041 0.2306263
v -0.2697319 0.7600000 0.2151040
v -0.2891963 0.6998959 0.2306263
v -0.3361875 0.6750000 0.2681006
v -0.3831788 0.6998959 0.3055749
v -0.4026432 0.7600000 0.3210972
v -0.4639990 0.7600000 0.2234501
v -0.4415685 0.8201041 0.2126482
v -0.3874166 0.8450000 0.1865700
v -0.3332647 0.8201041 0.1604918
v -0.3108343 0.7600000 0.1496899
v -0.3332647 0.6998959 0.1604918
v -0.3874166 0.6750000 0.1865700
v -0.4415685 0.6998959 0.2126482
v -0.4639990 0.7600000 0.2234501
v -0.5020879 0.7600000 0.1145983
v -0.4778161 0.8201041 0.1090584
v -0.4192190 0.8450000 0.0956840
v -0.3606219 0.8201041 0.0823096
v -0.3363501 0.7600000 0.0767697
v -0.3606219 0.6998959 0.0823096
v -0.4192190 0.6750000 0.0956840
v -0.4778161 0.6998959 0.1090584
v -0.5020879 0.7600000 0.1145983
v -0.5150000 0.7600000 0.0000000
v -0.4901041 0.8201041 0.0000000
v -0.4300000 0.8450000 0.0000000
v -0.3698959 0.8201041 0.0000000
v -0.3450000 0.7600000 0.0000000
v -0.3698959 0.6998959 0.0000000
v -0.4300000 0.6750000 0.0000000
v -0.4901041 0.6998959 0.0000000
v -0.5150000 0.7600000 0.0000000
v -0.5020879 0.7600000 -0.1145983
v -0.4778161 0.8201041 -0.1090584
v -0.4192190 0.8450000 -0.0956840
v -0.3606219 0.8201041 -0.0823096
v -0.3363501 0.7600000 -0.0767697
v -0.3606219 0.6998959 -0.0823096
v -0.4192190 0.6750000 -0.0956840
v -0.4778161 0.6998959 -0.1090584
v -0.5020879 0.7600000 -0.1145983
v -0.4639990 0.7600000 -0.2234501
v -0.4415685 0.8201041 -0.2126482
v -0.3874166 0.8450000 -0.1865700
v -0.3332647 0.8201041 -0.1604918
v -0.3108343 0.7600000 -0.1496899
v -0.3332647 0.6998959 -0.1604918
v -0.3874166 0.6750000 -0.1865700
v -0.4415685 0.6998959 -0.2126482
v -0.4639990 0.7600000 -0.2234501
v -0.4026432 0.7600000 -0.3210972
v -0.3831788 0.8201041 -0.3055749
v -0.3361875 0.8450000 -0.2681006
v -0.2891963 0.8201041 -0.2306263
v -0.2697319 0.7600000 -0.2151040
v -0.2891963 0.6998959 -0.2306263
v -0.3361875 0.6750000 -0.2681006
v -0.3831788 0.6998959 -0.3055749
v -0.4026432 0.7600000 -0.3210972
v -0.3210972 0.7600000 -0.4026432
v -0.3055749 0.8201041 -0.3831788
v -0.2681006 0.8450000 -0.3361875
v -0.2306263 0.8201041 -0.2891963
v -0.2151040 0.7600000 -0.2697319
v -0.2306263 0.6998959 -0.2891963
v -0.2681006 0.6750000 -0.3361875
v -0.3055749 0.6998959 -0.3831788
v -0.3210972 0.7600000 -0.4026432
v -0.2234501 0.7600000 -0.4639990
v -0.2126482 0.8201041 -0.4415685
v -0.1865700 0.8450000 -0.3874166
v -0.1604918 0.8201041 -0.3332647
v -0.1496899 0.7600000 -0.3108343
v -0.1604918 0.6998959 -0.3332647
v -0.1865700 0.6750000 -0.3874166
v -0.2126482 0.6998959 -0.4415685
v -0.2234501 0.7600000 -0.4639990
v -0.1145983 0.7600000 -0.5020879
v -0.1090584 0.8201041 -0.4778161
v -0.0956840 0.8450000 -0.4192190
v -0.0823096 0.8201041 -0.3606219
v -0.0767697 0.7600000 -0.3363501
v -0.0823096 0.6998959 -0.3606219
v -0.0956840 0.6750000 -0.4192190
v -0.1090584 0.6998959 -0.4778161
v -0.1145983 0.7600000 -0.5020879
v -0.0000000 0.7600000 -0.5150000
v -0.0000000 0.8201041 -0.4901041
v -0.0000000 0.8450000 -0.4300000
v -0.0000000 0.8201041 -0.3698959
v -0.0000000 0.7600000 -0.3450000
v -0.0000000 0.6998959 -0.3698959
v -0.0000000 0.6750000 -0.4300000
v -0.0000000 0.6998959 -0.4901041
v -0.0000000 0.7600000 -0.5150000
v 0.1145983 0.7600000 -0.5020879
v 0.1090584 0.8201041 -0.4778161
v 0.0956840 0.8450000 -0.4192190
v 0.0823096 0.8201041 -0.3606219
v 0.0767697 0.7600000 -0.3363501
v 0.0823096 0.6998959 -0.3606219
v 0.0956840 0.6750000 -0.4192190
v 0.1090584 0.6998959 -0.4778161
v 0.1145983 0.7600000 -0.5020879
v 0.2234501 0.7600000 -0.4639990
v 0.2126482 0.8201041 -0.4415685
v 0.1865700 0.8450000 -0.3874166
v 0.1604918 0.8201041 -0.3332647
v 0.1496899 0.7600000 -0.3108343
v 0.1604918 0.6998959 -0.3332647
v 0.1865700 0.6750000 -0.3874166
v 0.2126482 0.6998959 -0.4415685
v 0.2234501 0.7600000 -0.4639990
v 0.3210972 0.7600000 -0.4026432
v 0.3055749 0.8201041 -0.3831788
v 0.2681006 0.8450000 -0.3361875
v 0.2306263 0.8201041 -0.2891963
v 0.2151040 0.7600000 -0.2697319
v 0.2306263 0.6998959 -0.2891963
v 0.2681006 0.6750000 -0.3361875
v 0.3055749 0.6998959 -0.3831788
v 0.3210972 0.7600000 -0.4026432
v 0.4026432 0.7600000 -0.3210972
v 0.3831788 0.8201041 -0.3055749
v 0.3361875 0.8450000 -0.2681006
v 0.2891963 0.8201041 -0.2306263
v 0.2697319 0.7600000 -0.2151040
v 0.2891963 0.6998959 -0.2306263
v 0.3361875 0.6750000 -0.2681006
v 0.3831788 0.6998959 -0.3055749
v 0.4026432 0.7600000 -0.3210972
v 0.4639990 0.7600000 -0.2234501
v 0.4415685 0.8201041 -0.2126482
v 0.3874166 0.8450000 -0.1865700
v 0.3332647 0.8201041 -0.1604918
v 0.3108343 0.7600000 -0.1496899
v 0.3332647 0.6998959 -0.1604918
v 0.3874166 0.6750000 -0.1865700
v 0.4415685 0.6998959 -0.2126482
v 0.4639990 0.7600000 -0.2234501
v 0.5020879 0.7600000 -0.1145983
v 0.4778161 0.8201041 -0.1090584
v 0.4192190 0.8450000 -0.0956840
v 0.3606219 0.8201041 -0.0823096
v 0.3363501 0.7600000 -0.0767697
v 0.3606219 0.6998959 -0.0823096
v 0.4192190 0.6750000 -0.0956840
v 0.4778161 0.6998959 -0.1090584
v 0.5020879 0.7600000 -0.1145983
v 0.5150000 0.7600000 -0.0000000
v 0.4901041 0.8201041 -0.0000000
v 0.4300000 0.8450000 -0.0000000
v 0.3698959 0.8201041 -0.0000000
v 0.3450000 0.7600000 -0.0000000
v 0.3698959 0.6998959 -0.0000000
v 0.4300000 0.6750000 -0.0000000
v 0.4901041 0.6998959 -0.0000000
v 0.5150000 0.7600000 -0.0000000
v 0.3150000 0.8600000 0.0000000
v 0.2942919 0.9030007 0.0000000
v 0.2477613 0.9136210 0.0000000
v 0.2104467 0.8838636 0.0000000
v 0.2104467 0.8361364 0.0000000
v 0.2477613 0.8063790 0.0000000
v 0.2942919 0.8169993 0.0000000
v 0.3150000 0.8600000 0.0000000
v 0.3042666 0.8600000 0.0815280
v 0.2842642 0.9030007 0.0761684
v 0.2393191 0.9136210 0.0641254
v 0.2032759 0.8838636 0.0544676
v 0.2032759 0.8361364 0.0544676
v 0.2393191 0.8063790 0.0641254
v 0.2842642 0.8169993 0.0761684
v 0.3042666 0.8600000 0.0815280
v 0.2727980 0.8600000 0.1575000
v 0.2548643 0.9030007 0.1471460
v 0.2145676 0.9136210 0.1238807
v 0.1822522 0.8838636 0.1052234
v 0.1822522 0.8361364 0.1052234
v 0.2145676 0.8063790 0.1238807
v 0.2548643 0.8169993 0.1471460
v 0.2727980 0.8600000 0.1575000
v 0.2227386 0.8600000 0.2227386
v 0.2080958 0.9030007 0.2080958
v 0.1751937 0.9136210 0.1751937
v 0.1488083 0.8838636 0.1488083
v 0.1488083 0.8361364 0.1488083
v 0.1751937 0.8063790 0.1751937
v 0.2080958 0.8169993 0.2080958
v 0.2227386 0.8600000 0.2227386
v 0.1575000 0.8600000 0.2727980
v 0.1471460 0.9030007 0.2548643
v 0.1238807 0.9136210 0.2145676
v 0.1052234 0.8838636 0.1822522
v 0.1052234 0.8361364 0.1822522
v 0.1238807 0.8063790 0.2145676
v 0.1471460 0.8169993 0.2548643
v 0.1575000 0.8600000 0.2727980
v 0.0815280 0.8600000 0.3042666
v 0.0761684 0.9030007 0.2842642
v 0.0641254 0.9136210 0.2393191
v 0.0544676 0.8838636 0.2032759
v 0.0544676 0.8361364 0.2032759
v 0.0641254 0.8063790 0.2393191
v 0.0761684 0.8169993 0.2842642
v 0.0815280 0.8600000 0.3042666
v 0.0000000 0.8600000 0.3150000
v 0.0000000 0.9030007 0.2942919
v 0.0000000 0.9136210 0.2477613
v 0.0000000 0.8838636 0.2104467
v 0.0000000 0.8361364 0.2104467
v 0.0000000 0.8063790 0.2477613
v 0.0000000 0.8169993 0.2942919
v 0.0000000 0.8600000 0.3150000
v -0.0815280 0.8600000 0.3042666
v -0.0761684 0.9030007 0.2842642
v -0.0641254 0.9136210 0.2393191
v -0.0544676 0.8838636 0.2032759
v -0.0544676 0.8361364 0.2032759
v -0.0641254 0.8063790 0.2393191
v -0.0761684 0.8169993 0.2842642
v -0.0815280 0.8600000 0.3042666
v -0.1575000 0.8600000 0.2727980
v -0.1471460 0.9030007 0.2548643
v -0.1238807 0.9136210 0.2145676
v -0.1052234 0.8838636 0.1822522
v -0.1052234 0.8361364 0.1822522
v -0.1238807 0.8063790 0.2145676
v -0.1471460 0.8169993 0.2548643
v -0.1575000 0.8600000 0.2727980
v -0.2227386 0.8600000 0.2227386
v -0.2080958 0.9030007 0.2080958
v -0.1751937 0.9136210 0.1751937
v -0.1488083 0.8838636 0.1488083
v -0.1488083 0.8361364 0.1488083
v -0.1751937 0.8063790 0.1751937
v -0.2080958 0.8169993 0.2080958
v -0.2227386 0.8600000 0.2227386
v -0.2727980 0.8600000 0.1575000
v -0.2548643 0.9030007 0.1471460
v -0.2145676 0.9136210 0.1238807
v -0.1822522 0.8838636 0.1052234
v -0.1822522 0.8361364 0.1052234
v -0.2145676 0.8063790 0.1238807
v -0.2548643 0.8169993 0.1471460
v -0.2727980 0.8600000 0.1575000
v -0.3042666 0.8600000 0.0815280
v -0.2842642 0.9030007 0.0761684
v -0.2393191 0.9136210 0.0641254
v -0.2032759 0.8838636 0.0544676
v -0.2032759 0.8361364 0.0544676
v -0.2393191 0.8063790 0.0641254
v -0.2842642 0.8169993 0.0761684
v -0.3042666 0.8600000 0.0815280
v -0.3150000 0.8600000 0.0000000
v -0.2942919 0.9030007 0.0000000
v -0.2477613 0.9136210 0.0000000
v -0.2104467 0.8838636 0.0000000
v -0.2104467 0.8361364 0.0000000
v -0.2477613 0.8063790 0.0000000
v -0.2942919 0.8169993 0.0000000
v -0.3150000 0.8600000 0.0000000
v -0.3042666 0.8600000 -0.0815280
v -0.2842642 0.9030007 -0.0761684
v -0.2393191 0.9136210 -0.0641254
v -0.2032759 0.8838636 -0.0544676
v -0.2032759 0.8361364 -0.0544676
v -0.2393191 0.8063790 -0.0641254
v -0.2842642 0.8169993 -0.0761684
v -0.3042666 0.8600000 -0.0815280
v -0.2727980 0.8600000 -0.1575000
v -0.2548643 0.9030007 -0.1471460
v -0.2145676 0.9136210 -0.1238807
v -0.1822522 0.8838636 -0.1052234
v -0.1822522 0.8361364 -0.1052234
v -0.2145676 0.8063790 -0.1238807
v -0.2548643 0.8169993 -0.1471460
v -0.2727980 0.8600000 -0.1575000
v -0.2227386 0.8600000 -0.2227386
v -0.2080958 0.9030007 -0.2080958
v -0.1751937 0.9136210 -0.1751937
v -0.1488083 0.8838636 -0.1488083
v -0.1488083 0.8361364 -0.1488083
v -0.1751937 0.8063790 -0.1751937
v -0.2080958 0.8169993 -0.2080958
v -0.2227386 0.8600000 -0.2227386
v -0.1575000 0.8600000 -0.2727980
v -0.1471460 0.9030007 -0.2548643
v -0.1238807 0.9136210 -0.2145676
v -0.1052234 0.8838636 -0.1822522
v -0.1052234 0.8361364 -0.1822522
v -0.1238807 0.8063790 -0.2145676
v -0.1471460 0.8169993 -0.2548643
v -0.1575000 0.8600000 -0.2727980
v -0.0815280 0.8600000 -0.3042666
v -0.0761684 0.9030007 -0.2842642
v -0.0641254 0.9136210 -0.2393191
v -0.0544676 0.8838636 -0.2032759
v -0.0544676 0.8361364 -0.2032759
v -0.0641254 0.8063790 -0.2393191
v -0.0761684 0.8169993 -0.2842642
v -0.0815280 0.8600000 -0.3042666
v -0.0000000 0.8600000 -0.3150000
v -0.0000000 0.9030007 -0.2942919
v -0.0000000 0.9136210 -0.2477613
v -0.0000000 0.8838636 -0.2104467
v -0.0000000 0.8361364 -0.2104467
v -0.0000000 0.8063790 -0.2477613
v -0.0000000 0.8169993 -0.2942919
v -0.0000000 0.8600000 -0.3150000
v 0.0815280 0.8600000 -0.3042666
v 0.0761684 0.9030007 -0.2842642
v 0.0641254 0.9136210 -0.2393191
v 0.0544676 0.8838636 -0.2032759
v 0.0544676 0.8361364 -0.2032759
v 0.0641254 0.8063790 -0.2393191
v 0.0761684 0.8169993 -0.2842642
v 0.0815280 0.8600000 -0.3042666
v 0.1575000 0.8600000 -0.2727980
v 0.1471460 0.9030007 -0.2548643
v 0.1238807 0.9136210 -0.2145676
v 0.1052234 0.8838636 -0.1822522
v 0.1052234 0.8361364 -0.1822522
v 0.1238807 0.8063790 -0.2145676
v 0.1471460 0.8169993 -0.2548643
v 0.1575000 0.8600000 -0.2727980
v 0.2227386 0.8600000 -0.2227386
v 0.2080958 0.9030007 -0.2080958
v 0.1751937 0.9136210 -0.1751937
v 0.1488083 0.8838636 -0.1488083
v 0.1488083 0.8361364 -0.1488083
v 0.1751937 0.8063790 -0.1751937
v 0.2080958 0.8169993 -0.2080958
v 0.2227386 0.8600000 -0.2227386
v 0.2727980 0.8600000 -0.1575000
v 0.2548643 0.9030007 -0.1471460
v 0.2145676 0.9136210 -0.1238807
v 0.1822522 0.8838636 -0.1052234
v 0.1822522 0.8361364 -0.1052234
v 0.2145676 0.8063790 -0.1238807
v 0.2548643 0.8169993 -0.1471460
v 0.2727980 0.8600000 -0.1575000
v 0.3042666 0.8600000 -0.0815280
v 0.2842642 0.9030007 -0.0761684
v 0.2393191 0.9136210 -0.0641254
v 0.2032759 0.8838636 -0.0544676
v 0.2032759 0.8361364 -0.0544676
v 0.2393191 0.8063790 -0.0641254
v 0.2842642 0.8169993 -0.0761684
v 0.3042666 0.8600000 -0.0815280
v 0.3150000 0.8600000 -0.0000000
v 0.2942919 0.9030007 -0.0000000
v 0.2477613 0.9136210 -0.0000000
v 0.2104467 0.8838636 -0.0000000
v 0.2104467 0.8361364 -0.0000000
v 0.2477613 0.8063790 -0.0000000
v 0.2942919 0.8169993 -0.0000000
v 0.3150000 0.8600000 -0.0000000
v 0.4700000 1.4300000 0.0000000
v 0.4700000 0.6300000 0.0000000
v 0.6100000 1.0300000 0.0000000
v 0.4700000 1.0300000 0.1400000
v 0.3300000 1.0300000 0.0000000
v 0.4700000 1.0300000 -0.1400000
v 0.2350000 1.3300000 0.4070319
v 0.2350000 0.7300000 0.4070319
v 0.3750000 1.0300000 0.4070319
v 0.2350000 1.0300000 0.5470319
v 0.0950000 1.0300000 0.4070319
v 0.2350000 1.0300000 0.2670319
v -0.2350000 1.4300000 0.4070319
v -0.2350000 0.6300000 0.4070319
v -0.0950000 1.0300000 0.4070319
v -0.2350000 1.0300000 0.5470319
v -0.3750000 1.0300000 0.4070319
v -0.2350000 1.0300000 0.2670319
v -0.4700000 1.3300000 0.0000000
v -0.4700000 0.7300000 0.0000000
v -0.3300000 1.0300000 0.0000000
v -0.4700000 1.0300000 0.1400000
v -0.6100000 1.0300000 0.0000000
v -0.4700000 1.0300000 -0.1400000
v -0.2350000 1.4300000 -0.4070319
v -0.2350000 0.6300000 -0.4070319
v -0.0950000 1.0300000 -0.4070319
v -0.2350000 1.0300000 -0.2670319
v -0.3750000 1.0300000 -0.4070319
v -0.2350000 1.0300000 -0.5470319
v 0.2350000 1.3300000 -0.4070319
v 0.2350000 0.7300000 -0.4070319
v 0.3750000 1.0300000 -0.4070319
v 0.2350000 1.0300000 -0.2670319
v 0.0950000 1.0300000 -0.4070319
v 0.2350000 1.0300000 -0.5470319
v 0.0000000 1.6300000 0.0000000
v 0.0000000 0.9300000 0.0000000
v 0.2400000 1.2800000 0.0000000
v 0.0000000 1.2800000 0.2400000
v -0.2400000 1.2800000 0.0000000
v 0.0000000 1.2800000 -0.2400000
vt 0.5000000 0.5000000
vt 0.5000000 0.5000000
vt 0.0000000 1.0000000
vt 0.0000000 0.0000000
vt 1.0000000 0.5000000
vt 1.0000000 0.5000000
vt 0.0500000 1.0000000
vt 0.0500000 0.0000000
vt 0.9755283 0.6545085
vt 0.9755283 0.3454915
vt 0.1000000 1.0000000
vt 0.1000000 0.0000000
vt 0.9045085 0.7938926
vt 0.9045085 0.2061074
vt 0.1500000 1.0000000
vt 0.1500000 0.0000000
vt 0.7938926 0.9045085
vt 0.7938926 0.0954915
vt 0.2000000 1.0000000
vt 0.2000000 0.0000000
vt 0.6545085 0.9755283
vt 0.6545085 0.0244717
vt 0.2500000 1.0000000
vt 0.2500000 0.0000000
vt 0.5000000 1.0000000
vt 0.5000000 0.0000000
vt 0.3000000 1.0000000
vt 0.3000000 0.0000000
vt 0.3454915 0.9755283
vt 0.3454915 0.0244717
vt 0.3500000 1.0000000
vt 0.3500000 0.0000000
vt 0.2061074 0.9045085
vt 0.2061074 0.0954915
vt 0.4000000 1.0000000
vt 0.4000000 0.0000000
vt 0.0954915 0.7938926
vt 0.0954915 0.2061074
vt 0.4500000 1.0000000
vt 0.4500000 0.0000000
vt 0.0244717 0.6545085
vt 0.0244717 0.3454915
vt 0.5000000 1.0000000
vt 0.5000000 0.0000000
vt 0.0000000 0.5000000
vt 0.0000000 0.5000000
vt 0.5500000 1.0000000
vt 0.5500000 0.0000000
vt 0.0244717 0.3454915
vt 0.0244717 0.6545085
vt 0.6000000 1.0000000
vt 0.6000000 0.0000000
vt 0.0954915 0.2061074
vt 0.0954915 0.7938926
vt 0.6500000 1.0000000
vt 0.6500000 0.0000000
vt 0.2061074 0.0954915
vt 0.2061074 0.9045085
vt 0.7000000 1.0000000
vt 0.7000000 0.0000000
vt 0.3454915 0.0244717
vt 0.3454915 0.9755283
vt 0.7500000 1.0000000
vt 0.7500000 0.0000000
vt 0.5000000 0.0000000
vt 0.5000000 1.0000000
vt 0.8000000 1.0000000
vt 0.8000000 0.0000000
vt 0.6545085 0.0244717
vt 0.6545085 0.9755283
vt 0.8500000 1.0000000
vt 0.8500000 0.0000000
vt 0.7938926 0.0954915
vt 0.7938926 0.9045085
vt 0.9000000 1.0000000
vt 0.9000000 0.0000000
vt 0.9045085 0.2061074
vt 0.9045085 0.7938926
vt 0.9500000 1.0000000
vt 0.9500000 0.0000000
vt 0.9755283 0.3454915
vt 0.9755283 0.6545085
vt 0.5000000 0.5000000
vt 0.5000000 0.5000000
vt 0.0000000 1.0000000
vt 0.0000000 0.0000000
vt 1.0000000 0.5000000
vt 1.0000000 0.5000000
vt 0.0625000 1.0000000
vt 0.0625000 0.0000000
vt 0.9619398 0.6913417
vt 0.9619398 0.3086583
vt 0.1250000 1.0000000
vt 0.1250000 0.0000000
vt 0.8535534 0.8535534
vt 0.8535534 0.1464466
vt 0.1875000 1.0000000
vt 0.1875000 0.0000000
vt 0.6913417 0.9619398
vt 0.6913417 0.0380602
vt 0.2500000 1.0000000
vt 0.2500000 0.0000000
vt 0.5000000 1.0000000
vt 0.5000000 0.0000000
vt 0.3125000 1.0000000
vt 0.3125000 0.0000000
vt 0.3086583 0.9619398
vt 0.3086583 0.0380602
vt 0.3750000 1.0000000
vt 0.3750000 0.0000000
vt 0.1464466 0.8535534
vt 0.1464466 0.1464466
vt 0.4375000 1.0000000
vt 0.4375000 0.0000000
vt 0.0380602 0.6913417
vt 0.0380602 0.3086583
vt 0.5000000 1.0000000
vt 0.5000000 0.0000000
vt 0.0000000 0.5000000
vt 0.0000000 0.5000000
vt 0.5625000 1.0000000
vt 0.5625000 0.0000000
vt 0.0380602 0.3086583
vt 0.0380602 0.6913417
vt 0.6250000 1.0000000
vt 0.6250000 0.0000000
vt 0.1464466 0.1464466
vt 0.1464466 0.8535534
vt 0.6875000 1.0000000
vt 0.6875000 0.0000000
vt 0.3086583 0.0380602
vt 0.3086583 0.9619398
vt 0.7500000 1.0000000
vt 0.7500000 0.0000000
vt 0.5000000 0.0000000
vt 0.5000000 1.0000000
vt 0.8125000 1.0000000
vt 0.8125000 0.0000000
vt 0.6913417 0.0380602
vt 0.6913417 0.9619398
vt 0.8750000 1.0000000
vt 0.8750000 0.0000000
vt 0.8535534 0.1464466
vt 0.8535534 0.8535534
vt 0.9375000 1.0000000
vt 0.9375000 0.0000000
vt 0.9619398 0.3086583
vt 0.9619398 0.6913417
vt 0.5000000 0.0000000
vt 0.5000000 1.0000000
vt 1.0000000 0.5000000
vt 0.5000000 0.5000000
vt 0.0000000 0.5000000
vt 0.5000000 0.5000000
vt 0.0000000 0.0000000
vt 0.0000000 0.1250000
vt 0.0000000 0.2500000
vt 0.0000000 0.3750000
vt 0.0000000 0.5000000
vt 0.0000000 0.6250000
vt 0.0000000 0.7500000
vt 0.0000000 0.8750000
vt 0.0000000 1.0000000
vt 0.0357143 0.0000000
vt 0.0357143 0.1250000
vt 0.0357143 0.2500000
vt 0.0357143 0.3750000
vt 0.0357143 0.5000000
vt 0.0357143 0.6250000
vt 0.0357143 0.7500000
vt 0.0357143 0.8750000
vt 0.0357143 1.0000000
vt 0.0714286 0.0000000
vt 0.0714286 0.1250000
vt 0.0714286 0.2500000
vt 0.0714286 0.3750000
vt 0.0714286 0.5000000
vt 0.0714286 0.6250000
vt 0.0714286 0.7500000
vt 0.0714286 0.8750000
vt 0.0714286 1.0000000
vt 0.1071429 0.0000000
vt 0.1071429 0.1250000
vt 0.1071429 0.2500000
vt 0.1071429 0.3750000
vt 0.1071429 0.5000000
vt 0.1071429 0.6250000
vt 0.1071429 0.7500000
vt 0.1071429 0.8750000
vt 0.1071429 1.0000000
vt 0.1428571 0.0000000
vt 0.1428571 0.1250000
vt 0.1428571 0.2500000
vt 0.1428571 0.3750000
vt 0.1428571 0.5000000
vt 0.1428571 0.6250000
vt 0.1428571 0.7500000
vt 0.1428571 0.8750000
vt 0.1428571 1.0000000
vt 0.1785714 0.0000000
vt 0.1785714 0.1250000
vt 0.1785714 0.2500000
vt 0.1785714 0.3750000
vt 0.1785714 0.5000000
vt 0.1785714 0.6250000
vt 0.1785714 0.7500000
vt 0.1785714 0.8750000
vt 0.1785714 1.0000000
vt 0.2142857 0.0000000
vt 0.2142857 0.1250000
vt 0.2142857 0.2500000
vt 0.2142857 0.3750000
vt 0.2142857 0.5000000
vt 0.2142857 0.6250000
vt 0.2142857 0.7500000
vt 0.2142857 0.8750000
vt 0.2142857 1.0000000
vt 0.2500000 0.0000000
vt 0.2500000 0.1250000
vt 0.2500000 0.2500000
vt 0.2500000 0.3750000
vt 0.2500000 0.5000000
vt 0.2500000 0.6250000
vt 0.2500000 0.7500000
vt 0.2500000 0.8750000
vt 0.2500000 1.0000000
vt 0.2857143 0.0000000
vt 0.2857143 0.1250000
vt 0.2857143 0.2500000
vt 0.2857143 0.3750000
vt 0.2857143 0.5000000
vt 0.2857143 0.6250000
vt 0.2857143 0.7500000
vt 0.2857143 0.8750000
vt 0.2857143 1.0000000
vt 0.3214286 0.0000000
vt 0.3214286 0.1250000
vt 0.3214286 0.2500000
vt 0.3214286 0.3750000
vt 0.3214286 0.5000000
vt 0.3214286 0.6250000
vt 0.3214286 0.7500000
vt 0.3214286 0.8750000
vt 0.3214286 1.0000000
vt 0.3571429 0.0000000
vt 0.3571429 0.1250000
vt 0.3571429 0.2500000
vt 0.3571429 0.3750000
vt 0.3571429 0.5000000
vt 0.3571429 0.6250000
vt 0.3571429 0.7500000
vt 0.3571429 0.8750000
vt 0.3571429 1.0000000
vt 0.3928571 0.0000000
vt 0.3928571 0.1250000
vt 0.3928571 0.2500000
vt 0.3928571 0.3750000
vt 0.3928571 0.5000000
vt 0.3928571 0.6250000
vt 0.3928571 0.7500000
vt 0.3928571 0.8750000
vt 0.3928571 1.0000000
vt 0.4285714 0.0000000
vt 0.4285714 0.1250000
vt 0.4285714 0.2500000
vt 0.4285714 0.3750000
vt 0.4285714 0.5000000
vt 0.4285714 0.6250000
vt 0.4285714 0.7500000
vt 0.4285714 0.8750000
vt 0.4285714 1.0000000
vt 0.4642857 0.0000000
vt 0.4642857 0.1250000
vt 0.4642857 0.2500000
vt 0.4642857 0.3750000
vt 0.4642857 0.5000000
vt 0.4642857 0.6250000
vt 0.4642857 0.7500000
vt 0.4642857 0.8750000
vt 0.4642857 1.0000000
vt 0.5000000 0.0000000
vt 0.5000000 0.1250000
vt 0.5000000 0.2500000
vt 0.5000000 0.3750000
vt 0.5000000 0.5000000
vt 0.5000000 0.6250000
vt 0.5000000 0.7500000
vt 0.5000000 0.8750000
vt 0.5000000 1.0000000
vt 0.5357143 0.0000000
vt 0.5357143 0.1250000
vt 0.5357143 0.2500000
vt 0.5357143 0.3750000
vt 0.5357143 0.5000000
vt 0.5357143 0.6250000
vt 0.5357143 0.7500000
vt 0.5357143 0.8750000
vt 0.5357143 1.0000000
vt 0.5714286 0.0000000
vt 0.5714286 0.1250000
vt 0.5714286 0.2500000
vt 0.5714286 0.3750000
vt 0.5714286 0.5000000
vt 0.5714286 0.6250000
vt 0.5714286 0.7500000
vt 0.5714286 0.8750000
vt 0.5714286 1.0000000
vt 0.6071429 0.0000000
vt 0.6071429 0.1250000
vt 0.6071429 0.2500000
vt 0.6071429 0.3750000
vt 0.6071429 0.5000000
vt 0.6071429 0.6250000
vt 0.6071429 0.7500000
vt 0.6071429 0.8750000
vt 0.6071429 1.0000000
vt 0.6428571 0.0000000
vt 0.6428571 0.1250000
vt 0.6428571 0.2500000
vt 0.6428571 0.3750000
vt 0.6428571 0.5000000
vt 0.6428571 0.6250000
vt 0.6428571 0.7500000
vt 0.6428571 0.8750000
vt 0.6428571 1.0000000
vt 0.6785714 0.0000000
vt 0.6785714 0.1250000
vt 0.6785714 0.2500000
vt 0.6785714 0.3750000
vt 0.6785714 0.5000000
vt 0.6785714 0.6250000
vt 0.6785714 0.7500000
vt 0.6785714 0.8750000
vt 0.6785714 1.0000000
vt 0.7142857 0.0000000
vt 0.7142857 0.1250000
vt 0.7142857 0.2500000
vt 0.7142857 0.3750000
vt 0.7142857 0.5000000
vt 0.7142857 0.6250000
vt 0.7142857 0.7500000
vt 0.7142857 0.8750000
vt 0.7142857 1.0000000
vt 0.7500000 0.0000000
vt 0.7500000 0.1250000
vt 0.7500000 0.2500000
vt 0.7500000 0.3750000
vt 0.7500000 0.5000000
vt 0.7500000 0.6250000
vt 0.7500000 0.7500000
vt 0.7500000 0.8750000
vt 0.7500000 1.0000000
vt 0.7857143 0.0000000
vt 0.7857143 0.1250000
vt 0.7857143 0.2500000
vt 0.7857143 0.3750000
vt 0.7857143 0.5000000
vt 0.7857143 0.6250000
vt 0.7857143 0.7500000
vt 0.7857143 0.8750000
vt 0.7857143 1.0000000
vt 0.8214286 0.0000000
vt 0.8214286 0.1250000
vt 0.8214286 0.2500000
vt 0.8214286 0.3750000
vt 0.8214286 0.5000000
vt 0.8214286 0.6250000
vt 0.8214286 0.7500000
vt 0.8214286 0.8750000
vt 0.8214286 1.0000000
vt 0.8571429 0.0000000
vt 0.8571429 0.1250000
vt 0.8571429 0.2500000
vt 0.8571429 0.3750000
vt 0.8571429 0.5000000
vt 0.8571429 0.6250000
vt 0.8571429 0.7500000
vt 0.8571429 0.8750000
vt 0.8571429 1.0000000
vt 0.8928571 0.0000000
vt 0.8928571 0.1250000
vt 0.8928571 0.2500000
vt 0.8928571 0.3750000
vt 0.8928571 0.5000000
vt 0.8928571 0.6250000
vt 0.8928571 0.7500000
vt 0.8928571 0.8750000
vt 0.8928571 1.0000000
vt 0.9285714 0.0000000
vt 0.9285714 0.1250000
vt 0.9285714 0.2500000
vt 0.9285714 0.3750000
vt 0.9285714 0.5000000
vt 0.9285714 0.6250000
vt 0.9285714 0.7500000
vt 0.9285714 0.8750000
vt 0.9285714 1.0000000
vt 0.9642857 0.0000000
vt 0.9642857 0.1250000
vt 0.9642857 0.2500000
vt 0.9642857 0.3750000
vt 0.9642857 0.5000000
vt 0.9642857 0.6250000
vt 0.9642857 0.7500000
vt 0.9642857 0.8750000
vt 0.9642857 1.0000000
vt 1.0000000 0.0000000
vt 1.0000000 0.1250000
vt 1.0000000 0.2500000
vt 1.0000000 0.3750000
vt 1.0000000 0.5000000
vt 1.0000000 0.6250000
vt 1.0000000 0.7500000
vt 1.0000000 0.8750000
vt 1.0000000 1.0000000
vt 0.0000000 0.0000000
vt 0.0000000 0.1428571
vt 0.0000000 0.2857143
vt 0.0000000 0.4285714
vt 0.0000000 0.5714286
vt 0.0000000 0.7142857
vt 0.0000000 0.8571429
vt 0.0000000 1.0000000
vt 0.0416667 0.0000000
vt 0.0416667 0.1428571
vt 0.0416667 0.2857143
vt 0.0416667 0.4285714
vt 0.0416667 0.5714286
vt 0.0416667 0.7142857
vt 0.0416667 0.8571429
vt 0.0416667 1.0000000
vt 0.0833333 0.0000000
vt 0.0833333 0.1428571
vt 0.0833333 0.2857143
vt 0.0833333 0.4285714
vt 0.0833333 0.5714286
vt 0.0833333 0.7142857
vt 0.0833333 0.8571429
vt 0.0833333 1.0000000
vt 0.1250000 0.0000000
vt 0.1250000 0.1428571
vt 0.1250000 0.2857143
vt 0.1250000 0.4285714
vt 0.1250000 0.5714286
vt 0.1250000 0.7142857
vt 0.1250000 0.8571429
vt 0.1250000 1.0000000
vt 0.1666667 0.0000000
vt 0.1666667 0.1428571
vt 0.1666667 0.2857143
vt 0.1666667 0.4285714
vt 0.1666667 0.5714286
vt 0.1666667 0.7142857
vt 0.1666667 0.8571429
vt 0.1666667 1.0000000
vt 0.2083333 0.0000000
vt 0.2083333 0.1428571
vt 0.2083333 0.2857143
vt 0.2083333 0.4285714
vt 0.2083333 0.5714286
vt 0.2083333 0.7142857
vt 0.2083333 0.8571429
vt 0.2083333 1.0000000
vt 0.2500000 0.0000000
vt 0.2500000 0.1428571
vt 0.2500000 0.2857143
vt 0.2500000 0.4285714
vt 0.2500000 0.5714286
vt 0.2500000 0.7142857
vt 0.2500000 0.8571429
vt 0.2500000 1.0000000
vt 0.2916667 0.0000000
vt 0.2916667 0.1428571
vt 0.2916667 0.2857143
vt 0.2916667 0.4285714
vt 0.2916667 0.5714286
vt 0.2916667 0.7142857
vt 0.2916667 0.8571429
vt 0.2916667 1.0000000
vt 0.3333333 0.0000000
vt 0.3333333 0.1428571
vt 0.3333333 0.2857143
vt 0.3333333 0.4285714
vt 0.3333333 0.5714286
vt 0.3333333 0.7142857
vt 0.3333333 0.8571429
vt 0.3333333 1.0000000
vt 0.3750000 0.0000000
vt 0.3750000 0.1428571
vt 0.3750000 0.2857143
vt 0.3750000 0.4285714
vt 0.3750000 0.5714286
vt 0.3750000 0.7142857
vt 0.3750000 0.8571429
vt 0.3750000 1.0000000
vt 0.4166667 0.0000000
vt 0.4166667 0.1428571
vt 0.4166667 0.2857143
vt 0.4166667 0.4285714
vt 0.4166667 0.5714286
vt 0.4166667 0.7142857
vt 0.4166667 0.8571429
vt 0.4166667 1.0000000
vt 0.4583333 0.0000000
vt 0.4583333 0.1428571
vt 0.4583333 0.2857143
vt 0.4583333 0.4285714
vt 0.4583333 0.5714286
vt 0.4583333 0.7142857
vt 0.4583333 0.8571429
vt 0.4583333 1.0000000
vt 0.5000000 0.0000000
vt 0.5000000 0.1428571
vt 0.5000000 0.2857143
vt 0.5000000 0.4285714
vt 0.5000000 0.5714286
vt 0.5000000 0.7142857
vt 0.5000000 0.8571429
vt 0.5000000 1.0000000
vt 0.5416667 0.0000000
vt 0.5416667 0.1428571
vt 0.5416667 0.2857143
vt 0.5416667 0.4285714
vt 0.5416667 0.5714286
vt 0.5416667 0.7142857
vt 0.5416667 0.8571429
vt 0.5416667 1.0000000
vt 0.5833333 0.0000000
vt 0.5833333 0.1428571
vt 0.5833333 0.2857143
vt 0.5833333 0.4285714
vt 0.5833333 0.5714286
vt 0.5833333 0.7142857
vt 0.5833333 0.8571429
vt 0.5833333 1.0000000
vt 0.6250000 0.0000000
vt 0.6250000 0.1428571
vt 0.6250000 0.2857143
vt 0.6250000 0.4285714
vt 0.6250000 0.5714286
vt 0.6250000 0.7142857
vt 0.6250000 0.8571429
vt 0.6250000 1.0000000
vt 0.6666667 0.0000000
vt 0.6666667 0.1428571
vt 0.6666667 0.2857143
vt 0.6666667 0.4285714
vt 0.6666667 0.5714286
vt 0.6666667 0.7142857
vt 0.6666667 0.8571429
vt 0.6666667 1.0000000
vt 0.7083333 0.0000000
vt 0.7083333 0.1428571
vt 0.7083333 0.2857143
vt 0.7083333 0.4285714
vt 0.7083333 0.5714286
vt 0.7083333 0.7142857
vt 0.7083333 0.8571429
vt 0.7083333 1.0000000
vt 0.7500000 0.0000000
vt 0.7500000 0.1428571
vt 0.7500000 0.2857143
vt 0.7500000 0.4285714
vt 0.7500000 0.5714286
vt 0.7500000 0.7142857
vt 0.7500000 0.8571429
vt 0.7500000 1.0000000
vt 0.7916667 0.0000000
vt 0.7916667 0.1428571
vt 0.7916667 0.2857143
vt 0.7916667 0.4285714
vt 0.7916667 0.5714286
vt 0.7916667 0.7142857
vt 0.7916667 0.8571429
vt 0.7916667 1.0000000
vt 0.8333333 0.0000000
vt 0.8333333 0.1428571
vt 0.8333333 0.2857143
vt 0.8333333 0.4285714
vt 0.8333333 0.5714286
vt 0.8333333 0.7142857
vt 0.8333333 0.8571429
vt 0.8333333 1.0000000
vt 0.8750000 0.0000000
vt 0.8750000 0.1428571
vt 0.8750000 0.2857143
vt 0.8750000 0.4285714
vt 0.8750000 0.5714286
vt 0.8750000 0.7142857
vt 0.8750000 0.8571429
vt 0.8750000 1.0000000
vt 0.9166667 0.0000000
vt 0.9166667 0.1428571
vt 0.9166667 0.2857143
vt 0.9166667 0.4285714
vt 0.9166667 0.5714286
vt 0.9166667 0.7142857
vt 0.9166667 0.8571429
vt 0.9166667 1.0000000
vt 0.9583333 0.0000000
vt 0.9583333 0.1428571
vt 0.9583333 0.2857143
vt 0.9583333 0.4285714
vt 0.9583333 0.5714286
vt 0.9583333 0.7142857
vt 0.9583333 0.8571429
vt 0.9583333 1.0000000
vt 1.0000000 0.0000000
vt 1.0000000 0.1428571
vt 1.0000000 0.2857143
vt 1.0000000 0.4285714
vt 1.0000000 0.5714286
vt 1.0000000 0.7142857
vt 1.0000000 0.8571429
vt 1.0000000 1.0000000
vt 0.5000000 0.0000000
vt 0.5000000 1.0000000
vt 1.0000000 0.5000000
vt 0.5000000 0.5000000
vt 0.0000000 0.5000000
vt 0.5000000 0.5000000
vt 0.5000000 0.0000000
vt 0.5000000 1.0000000
vt 1.0000000 0.5000000
vt 0.5000000 0.5000000
vt 0.0000000 0.5000000
vt 0.5000000 0.5000000
vt 0.5000000 0.0000000
vt 0.5000000 1.0000000
vt 1.0000000 0.5000000
vt 0.5000000 0.5000000
vt 0.0000000 0.5000000
vt 0.5000000 0.5000000
vt 0.5000000 0.0000000
vt 0.5000000 1.0000000
vt 1.0000000 0.5000000
vt 0.5000000 0.5000000
vt 0.0000000 0.5000000
vt 0.5000000 0.5000000
vt 0.5000000 0.0000000
vt 0.5000000 1.0000000
vt 1.0000000 0.5000000
vt 0.5000000 0.5000000
vt 0.0000000 0.5000000
vt 0.5000000 0.5000000
vt 0.5000000 0.0000000
vt 0.5000000 1.0000000
vt 1.0000000 0.5000000
vt 0.5000000 0.5000000
vt 0.0000000 0.5000000
vt 0.5000000 0.5000000
vt 0.5000000 0.0000000
vt 0.5000000 1.0000000
vt 1.0000000 0.5000000
vt 0.5000000 0.5000000
vt 0.0000000 0.5000000
vt 0.5000000 0.5000000
vn 0.0000000 -1.0000000 0.0000000
vn 0.0000000 1.0000000 0.0000000
vn 1.0000000 0.0000000 0.0000000
vn 1.0000000 0.0000000 0.0000000
vn 0.0000000 -1.0000000 0.0000000
vn 0.0000000 1.0000000 0.0000000
vn 0.9510565 0.0000000 0.3090170
vn 0.9510565 0.0000000 0.3090170
vn 0.0000000 -1.0000000 0.0000000
vn 0.0000000 1.0000000 0.0000000
vn 0.8090170 0.0000000 0.5877853
vn 0.8090170 0.0000000 0.5877853
vn 0.0000000 -1.0000000 0.0000000
vn 0.0000000 1.0000000 0.0000000
vn 0.5877853 0.0000000 0.8090170
vn 0.5877853 0.0000000 0.8090170
vn 0.0000000 -1.0000000 0.0000000
vn 0.0000000 1.0000000 0.0000000
vn 0.3090170 0.0000000 0.9510565
vn 0.3090170 0.0000000 0.9510565
vn 0.0000000 -1.0000000 0.0000000
vn 0.0000000 1.0000000 0.0000000
vn 0.0000000 0.0000000 1.0000000
vn 0.0000000 0.0000000 1.0000000
vn 0.0000000 -1.0000000 0.0000000
vn 0.0000000 1.0000000 0.0000000
vn -0.3090170 0.0000000 0.9510565
vn -0.3090170 0.0000000 0.9510565
vn 0.0000000 -1.0000000 0.0000000
vn 0.0000000 1.0000000 0.0000000
vn -0.5877853 0.0000000 0.8090170
vn -0.5877853 0.0000000 0.8090170
vn 0.0000000 -1.0000000 0.0000000
vn 0.0000000 1.0000000 0.0000000
vn -0.8090170 0.0000000 0.5877853
vn -0.8090170 0.0000000 0.5877853
vn 0.0000000 -1.0000000 0.0000000
vn 0.0000000 1.0000000 0.0000000
vn -0.9510565 0.0000000 0.3090170
vn -0.9510565 0.0000000 0.3090170
vn 0.0000000 -1.0000000 0.0000000
vn 0.0000000 1.0000000 0.0000000
vn -1.0000000 0.0000000 0.0000000
vn -1.0000000 0.0000000 0.0000000
vn 0.0000000 -1.0000000 0.0000000
vn 0.0000000 1.0000000 0.0000000
vn -0.9510565 0.0000000 -0.3090170
vn -0.9510565 0.0000000 -0.3090170
vn 0.0000000 -1.0000000 0.0000000
vn 0.0000000 1.0000000 0.0000000
vn -0.8090170 0.0000000 -0.5877853
vn -0.8090170 0.0000000 -0.5877853
vn 0.0000000 -1.0000000 0.0000000
vn 0.0000000 1.0000000 0.0000000
vn -0.5877853 0.0000000 -0.8090170
vn -0.5877853 0.0000000 -0.8090170
vn 0.0000000 -1.0000000 0.0000000
vn 0.0000000 1.0000000 0.0000000
vn -0.3090170 0.0000000 -0.9510565
vn -0.3090170 0.0000000 -0.9510565
vn 0.0000000 -1.0000000 0.0000000
vn 0.0000000 1.0000000 0.0000000
vn -0.0000000 0.0000000 -1.0000000
vn -0.0000000 0.0000000 -1.0000000
vn 0.0000000 -1.0000000 0.0000000
vn 0.0000000 1.0000000 0.0000000
vn 0.3090170 0.0000000 -0.9510565
vn 0.3090170 0.0000000 -0.9510565
vn 0.0000000 -1.0000000 0.0000000
vn 0.0000000 1.0000000 0.0000000
vn 0.5877853 0.0000000 -0.8090170
vn 0.5877853 0.0000000 -0.8090170
vn 0.0000000 -1.0000000 0.0000000
vn 0.0000000 1.0000000 0.0000000
vn 0.8090170 0.0000000 -0.5877853
vn 0.8090170 0.0000000 -0.5877853
vn 0.0000000 -1.0000000 0.0000000
vn 0.0000000 1.0000000 0.0000000
vn 0.9510565 0.0000000 -0.3090170
vn 0.9510565 0.0000000 -0.3090170
vn 0.0000000 -1.0000000 0.0000000
vn 0.0000000 1.0000000 0.0000000
vn 0.0000000 -1.0000000 0.0000000
vn 0.0000000 1.0000000 0.0000000
vn 1.0000000 0.0000000 0.0000000
vn 1.0000000 0.0000000 0.0000000
vn 0.0000000 -1.0000000 0.0000000
vn 0.0000000 1.0000000 0.0000000
vn 0.9238795 0.0000000 0.3826834
vn 0.9238795 0.0000000 0.3826834
vn 0.0000000 -1.0000000 0.0000000
vn 0.0000000 1.0000000 0.0000000
vn 0.7071068 0.0000000 0.7071068
vn 0.7071068 0.0000000 0.7071068
vn 0.0000000 -1.0000000 0.0000000
vn 0.0000000 1.0000000 0.0000000
vn 0.3826834 0.0000000 0.9238795
vn 0.3826834 0.0000000 0.9238795
vn 0.0000000 -1.0000000 0.0000000
vn 0.0000000 1.0000000 0.0000000
vn 0.0000000 0.0000000 1.0000000
vn 0.0000000 0.0000000 1.0000000
vn 0.0000000 -1.0000000 0.0000000
vn 0.0000000 1.0000000 0.0000000
vn -0.3826834 0.0000000 0.9238795
vn -0.3826834 0.0000000 0.9238795
vn 0.0000000 -1.0000000 0.0000000
vn 0.0000000 1.0000000 0.0000000
vn -0.7071068 0.0000000 0.7071068
vn -0.7071068 0.0000000 0.7071068
vn 0.0000000 -1.0000000 0.0000000
vn 0.0000000 1.0000000 0.0000000
vn -0.9238795 0.0000000 0.3826834
vn -0.9238795 0.0000000 0.3826834
vn 0.0000000 -1.0000000 0.0000000
vn 0.0000000 1.0000000 0.0000000
vn -1.0000000 0.0000000 0.0000000
vn -1.0000000 0.0000000 0.0000000
vn 0.0000000 -1.0000000 0.0000000
vn 0.0000000 1.0000000 0.0000000
vn -0.9238795 0.0000000 -0.3826834
vn -0.9238795 0.0000000 -0.3826834
vn 0.0000000 -1.0000000 0.0000000
vn 0.0000000 1.0000000 0.0000000
vn -0.7071068 0.0000000 -0.7071068
vn -0.7071068 0.0000000 -0.7071068
vn 0.0000000 -1.0000000 0.0000000
vn 0.0000000 1.0000000 0.0000000
vn -0.3826834 0.0000000 -0.9238795
vn -0.3826834 0.0000000 -0.9238795
vn 0.0000000 -1.0000000 0.0000000
vn 0.0000000 1.0000000 0.0000000
vn -0.0000000 0.0000000 -1.0000000
vn -0.0000000 0.0000000 -1.0000000
vn 0.0000000 -1.0000000 0.0000000
vn 0.0000000 1.0000000 0.0000000
vn 0.3826834 0.0000000 -0.9238795
vn 0.3826834 0.0000000 -0.9238795
vn 0.0000000 -1.0000000 0.0000000
vn 0.0000000 1.0000000 0.0000000
vn 0.7071068 0.0000000 -0.7071068
vn 0.7071068 0.0000000 -0.7071068
vn 0.0000000 -1.0000000 0.0000000
vn 0.0000000 1.0000000 0.0000000
vn 0.9238795 0.0000000 -0.3826834
vn 0.9238795 0.0000000 -0.3826834
vn 0.0000000 -1.0000000 0.0000000
vn 0.0000000 1.0000000 0.0000000
vn 0.0000000 1.0000000 0.0000000
vn 0.0000000 -1.0000000 0.0000000
vn 1.0000000 0.0000000 0.0000000
vn 0.0000000 0.0000000 1.0000000
vn -1.0000000 0.0000000 0.0000000
vn 0.0000000 0.0000000 -1.0000000
vn 1.0000000 0.0000000 0.0000000
vn 0.7071068 0.7071068 0.0000000
vn 0.0000000 1.0000000 0.0000000
vn -0.7071068 0.7071068 -0.0000000
vn -1.0000000 0.0000000 -0.0000000
vn -0.7071068 -0.7071068 -0.0000000
vn -0.0000000 -1.0000000 -0.0000000
vn 0.7071068 -0.7071068 0.0000000
vn 1.0000000 -0.0000000 0.0000000
vn 0.9749279 0.0000000 0.2225209
vn 0.6893781 0.7071068 0.1573461
vn 0.0000000 1.0000000 0.0000000
vn -0.6893781 0.7071068 -0.1573461
vn -0.9749279 0.0000000 -0.2225209
vn -0.6893781 -0.7071068 -0.1573461
vn -0.0000000 -1.0000000 -0.0000000
vn 0.6893781 -0.7071068 0.1573461
vn 0.9749279 -0.0000000 0.2225209
vn 0.9009689 0.0000000 0.4338837
vn 0.6370812 0.7071068 0.3068021
vn 0.0000000 1.0000000 0.0000000
vn -0.6370812 0.7071068 -0.3068021
vn -0.9009689 0.0000000 -0.4338837
vn -0.6370812 -0.7071068 -0.3068021
vn -0.0000000 -1.0000000 -0.0000000
vn 0.6370812 -0.7071068 0.3068021
vn 0.9009689 -0.0000000 0.4338837
vn 0.7818315 0.0000000 0.6234898
vn 0.5528383 0.7071068 0.4408739
vn 0.0000000 1.0000000 0.0000000
vn -0.5528383 0.7071068 -0.4408739
vn -0.7818315 0.0000000 -0.6234898
vn -0.5528383 -0.7071068 -0.4408739
vn -0.0000000 -1.0000000 -0.0000000
vn 0.5528383 -0.7071068 0.4408739
vn 0.7818315 -0.0000000 0.6234898
vn 0.6234898 0.0000000 0.7818315
vn 0.4408739 0.7071068 0.5528383
vn 0.0000000 1.0000000 0.0000000
vn -0.4408739 0.7071068 -0.5528383
vn -0.6234898 0.0000000 -0.7818315
vn -0.4408739 -0.7071068 -0.5528383
vn -0.0000000 -1.0000000 -0.0000000
vn 0.4408739 -0.7071068 0.5528383
vn 0.6234898 -0.0000000 0.7818315
vn 0.4338837 0.0000000 0.9009689
vn 0.3068021 0.7071068 0.6370812
vn 0.0000000 1.0000000 0.0000000
vn -0.3068021 0.7071068 -0.6370812
vn -0.4338837 0.0000000 -0.9009689
vn -0.3068021 -0.7071068 -0.6370812
vn -0.0000000 -1.0000000 -0.0000000
vn 0.3068021 -0.7071068 0.6370812
vn 0.4338837 -0.0000000 0.9009689
vn 0.2225209 0.0000000 0.9749279
vn 0.1573461 0.7071068 0.6893781
vn 0.0000000 1.0000000 0.0000000
vn -0.1573461 0.7071068 -0.6893781
vn -0.2225209 0.0000000 -0.9749279
vn -0.1573461 -0.7071068 -0.6893781
vn -0.0000000 -1.0000000 -0.0000000
vn 0.1573461 -0.7071068 0.6893781
vn 0.2225209 -0.0000000 0.9749279
vn 0.0000000 0.0000000 1.0000000
vn 0.0000000 0.7071068 0.7071068
vn 0.0000000 1.0000000 0.0000000
vn -0.0000000 0.7071068 -0.7071068
vn -0.0000000 0.0000000 -1.0000000
vn -0.0000000 -0.7071068 -0.7071068
vn -0.0000000 -1.0000000 -0.0000000
vn 0.0000000 -0.7071068 0.7071068
vn 0.0000000 -0.0000000 1.0000000
vn -0.2225209 0.0000000 0.9749279
vn -0.1573461 0.7071068 0.6893781
vn -0.0000000 1.0000000 0.0000000
vn 0.1573461 0.7071068 -0.6893781
vn 0.2225209 0.0000000 -0.9749279
vn 0.1573461 -0.7071068 -0.6893781
vn 0.0000000 -1.0000000 -0.0000000
vn -0.1573461 -0.7071068 0.6893781
vn -0.2225209 -0.0000000 0.9749279
vn -0.4338837 0.0000000 0.9009689
vn -0.3068021 0.7071068 0.6370812
vn -0.0000000 1.0000000 0.0000000
vn 0.3068021 0.7071068 -0.6370812
vn 0.4338837 0.0000000 -0.9009689
vn 0.3068021 -0.7071068 -0.6370812
vn 0.0000000 -1.0000000 -0.0000000
vn -0.3068021 -0.7071068 0.6370812
vn -0.4338837 -0.0000000 0.9009689
vn -0.6234898 0.0000000 0.7818315
vn -0.4408739 0.7071068 0.5528383
vn -0.0000000 1.0000000 0.0000000
vn 0.4408739 0.7071068 -0.5528383
vn 0.6234898 0.0000000 -0.7818315
vn 0.4408739 -0.7071068 -0.5528383
vn 0.0000000 -1.0000000 -0.0000000
vn -0.4408739 -0.7071068 0.5528383
vn -0.6234898 -0.0000000 0.7818315
vn -0.7818315 0.0000000 0.6234898
vn -0.5528383 0.7071068 0.4408739
vn -0.0000000 1.0000000 0.0000000
vn 0.5528383 0.7071068 -0.4408739
vn 0.7818315 0.0000000 -0.6234898
vn 0.5528383 -0.7071068 -0.4408739
vn 0.0000000 -1.0000000 -0.0000000
vn -0.5528383 -0.7071068 0.4408739
vn -0.7818315 -0.0000000 0.6234898
vn -0.9009689 0.0000000 0.4338837
vn -0.6370812 0.7071068 0.3068021
vn -0.0000000 1.0000000 0.0000000
vn 0.6370812 0.7071068 -0.3068021
vn 0.9009689 0.0000000 -0.4338837
vn 0.6370812 -0.7071068 -0.3068021
vn 0.0000000 -1.0000000 -0.0000000
vn -0.6370812 -0.7071068 0.3068021
vn -0.9009689 -0.0000000 0.4338837
vn -0.9749279 0.0000000 0.2225209
vn -0.6893781 0.7071068 0.1573461
vn -0.0000000 1.0000000 0.0000000
vn 0.6893781 0.7071068 -0.1573461
vn 0.9749279 0.0000000 -0.2225209
vn 0.6893781 -0.7071068 -0.1573461
vn 0.0000000 -1.0000000 -0.0000000
vn -0.6893781 -0.7071068 0.1573461
vn -0.9749279 -0.0000000 0.2225209
vn -1.0000000 0.0000000 0.0000000
vn -0.7071068 0.7071068 0.0000000
vn -0.0000000 1.0000000 0.0000000
vn 0.7071068 0.7071068 -0.0000000
vn 1.0000000 0.0000000 -0.0000000
vn 0.7071068 -0.7071068 -0.0000000
vn 0.0000000 -1.0000000 -0.0000000
vn -0.7071068 -0.7071068 0.0000000
vn -1.0000000 -0.0000000 0.0000000
vn -0.9749279 0.0000000 -0.2225209
vn -0.6893781 0.7071068 -0.1573461
vn -0.0000000 1.0000000 -0.0000000
vn 0.6893781 0.7071068 0.1573461
vn 0.9749279 0.0000000 0.2225209
vn 0.6893781 -0.7071068 0.1573461
vn 0.0000000 -1.0000000 0.0000000
vn -0.6893781 -0.7071068 -0.1573461
vn -0.9749279 -0.0000000 -0.2225209
vn -0.9009689 0.0000000 -0.4338837
vn -0.6370812 0.7071068 -0.3068021
vn -0.0000000 1.0000000 -0.0000000
vn 0.6370812 0.7071068 0.3068021
vn 0.9009689 0.0000000 0.4338837
vn 0.6370812 -0.7071068 0.3068021
vn 0.0000000 -1.0000000 0.0000000
vn -0.6370812 -0.7071068 -0.3068021
vn -0.9009689 -0.0000000 -0.4338837
vn -0.7818315 0.0000000 -0.6234898
vn -0.5528383 0.7071068 -0.4408739
vn -0.0000000 1.0000000 -0.0000000
vn 0.5528383 0.7071068 0.4408739
vn 0.7818315 0.0000000 0.6234898
vn 0.5528383 -0.7071068 0.4408739
vn 0.0000000 -1.0000000 0.0000000
vn -0.5528383 -0.7071068 -0.4408739
vn -0.7818315 -0.0000000 -0.6234898
vn -0.6234898 0.0000000 -0.7818315
vn -0.4408739 0.7071068 -0.5528383
vn -0.0000000 1.0000000 -0.0000000
vn 0.4408739 0.7071068 0.5528383
vn 0.6234898 0.0000000 0.7818315
vn 0.4408739 -0.7071068 0.5528383
vn 0.0000000 -1.0000000 0.0000000
vn -0.4408739 -0.7071068 -0.5528383
vn -0.6234898 -0.0000000 -0.7818315
vn -0.4338837 0.0000000 -0.9009689
vn -0.3068021 0.7071068 -0.6370812
vn -0.0000000 1.0000000 -0.0000000
vn 0.3068021 0.7071068 0.6370812
vn 0.4338837 0.0000000 0.9009689
vn 0.3068021 -0.7071068 0.6370812
vn 0.0000000 -1.0000000 0.0000000
vn -0.3068021 -0.7071068 -0.6370812
vn -0.4338837 -0.0000000 -0.9009689
vn -0.2225209 0.0000000 -0.9749279
vn -0.1573461 0.7071068 -0.6893781
vn -0.0000000 1.0000000 -0.0000000
vn 0.1573461 0.7071068 0.6893781
vn 0.2225209 0.0000000 0.9749279
vn 0.1573461 -0.7071068 0.6893781
vn 0.0000000 -1.0000000 0.0000000
vn -0.1573461 -0.7071068 -0.6893781
vn -0.2225209 -0.0000000 -0.9749279
vn -0.0000000 0.0000000 -1.0000000
vn -0.0000000 0.7071068 -0.7071068
vn -0.0000000 1.0000000 -0.0000000
vn 0.0000000 0.7071068 0.7071068
vn 0.0000000 0.0000000 1.0000000
vn 0.0000000 -0.7071068 0.7071068
vn 0.0000000 -1.0000000 0.0000000
vn -0.0000000 -0.7071068 -0.7071068
vn -0.0000000 -0.0000000 -1.0000000
vn 0.2225209 0.0000000 -0.9749279
vn 0.1573461 0.7071068 -0.6893781
vn 0.0000000 1.0000000 -0.0000000
vn -0.1573461 0.7071068 0.6893781
vn -0.2225209 0.0000000 0.9749279
vn -0.1573461 -0.7071068 0.6893781
vn -0.0000000 -1.0000000 0.0000000
vn 0.1573461 -0.7071068 -0.6893781
vn 0.2225209 -0.0000000 -0.9749279
vn 0.4338837 0.0000000 -0.9009689
vn 0.3068021 0.7071068 -0.6370812
vn 0.0000000 1.0000000 -0.0000000
vn -0.3068021 0.7071068 0.6370812
vn -0.4338837 0.0000000 0.9009689
vn -0.3068021 -0.7071068 0.6370812
vn -0.0000000 -1.0000000 0.0000000
vn 0.3068021 -0.7071068 -0.6370812
vn 0.4338837 -0.0000000 -0.9009689
vn 0.6234898 0.0000000 -0.7818315
vn 0.4408739 0.7071068 -0.5528383
vn 0.0000000 1.0000000 -0.0000000
vn -0.4408739 0.7071068 0.5528383
vn -0.6234898 0.0000000 0.7818315
vn -0.4408739 -0.7071068 0.5528383
vn -0.0000000 -1.0000000 0.0000000
vn 0.4408739 -0.7071068 -0.5528383
vn 0.6234898 -0.0000000 -0.7818315
vn 0.7818315 0.0000000 -0.6234898
vn 0.5528383 0.7071068 -0.4408739
vn 0.0000000 1.0000000 -0.0000000
vn -0.5528383 0.7071068 0.4408739
vn -0.7818315 0.0000000 0.6234898
vn -0.5528383 -0.7071068 0.4408739
vn -0.0000000 -1.0000000 0.0000000
vn 0.5528383 -0.7071068 -0.4408739
vn 0.7818315 -0.0000000 -0.6234898
vn 0.9009689 0.0000000 -0.4338837
vn 0.6370812 0.7071068 -0.3068021
vn 0.0000000 1.0000000 -0.0000000
vn -0.6370812 0.7071068 0.3068021
vn -0.9009689 0.0000000 0.4338837
vn -0.6370812 -0.7071068 0.3068021
vn -0.0000000 -1.0000000 0.0000000
vn 0.6370812 -0.7071068 -0.3068021
vn 0.9009689 -0.0000000 -0.4338837
vn 0.9749279 0.0000000 -0.2225209
vn 0.6893781 0.7071068 -0.1573461
vn 0.0000000 1.0000000 -0.0000000
vn -0.6893781 0.7071068 0.1573461
vn -0.9749279 0.0000000 0.2225209
vn -0.6893781 -0.7071068 0.1573461
vn -0.0000000 -1.0000000 0.0000000
vn 0.6893781 -0.7071068 -0.1573461
vn 0.9749279 -0.0000000 -0.2225209
vn 1.0000000 0.0000000 -0.0000000
vn 0.7071068 0.7071068 -0.0000000
vn 0.0000000 1.0000000 -0.0000000
vn -0.7071068 0.7071068 0.0000000
vn -1.0000000 0.0000000 0.0000000
vn -0.7071068 -0.7071068 0.0000000
vn -0.0000000 -1.0000000 0.0000000
vn 0.7071068 -0.7071068 -0.0000000
vn 1.0000000 -0.0000000 -0.0000000
vn 1.0000000 0.0000000 0.0000000
vn 0.6234898 0.7818315 0.0000000
vn -0.2225209 0.9749279 -0.0000000
vn -0.9009689 0.4338837 -0.0000000
vn -0.9009689 -0.4338837 -0.0000000
vn -0.2225209 -0.9749279 -0.0000000
vn 0.6234898 -0.7818315 0.0000000
vn 1.0000000 -0.0000000 0.0000000
vn 0.9659258 0.0000000 0.2588190
vn 0.6022449 0.7818315 0.1613710
vn -0.2149387 0.9749279 -0.0575927
vn -0.8702691 0.4338837 -0.2331879
vn -0.8702691 -0.4338837 -0.2331879
vn -0.2149387 -0.9749279 -0.0575927
vn 0.6022449 -0.7818315 0.1613710
vn 0.9659258 -0.0000000 0.2588190
vn 0.8660254 0.0000000 0.5000000
vn 0.5399580 0.7818315 0.3117449
vn -0.1927088 0.9749279 -0.1112605
vn -0.7802619 0.4338837 -0.4504844
vn -0.7802619 -0.4338837 -0.4504844
vn -0.1927088 -0.9749279 -0.1112605
vn 0.5399580 -0.7818315 0.3117449
vn 0.8660254 -0.0000000 0.5000000
vn 0.7071068 0.0000000 0.7071068
vn 0.4408739 0.7818315 0.4408739
vn -0.1573461 0.9749279 -0.1573461
vn -0.6370812 0.4338837 -0.6370812
vn -0.6370812 -0.4338837 -0.6370812
vn -0.1573461 -0.9749279 -0.1573461
vn 0.4408739 -0.7818315 0.4408739
vn 0.7071068 -0.0000000 0.7071068
vn 0.5000000 0.0000000 0.8660254
vn 0.3117449 0.7818315 0.5399580
vn -0.1112605 0.9749279 -0.1927088
vn -0.4504844 0.4338837 -0.7802619
vn -0.4504844 -0.4338837 -0.7802619
vn -0.1112605 -0.9749279 -0.1927088
vn 0.3117449 -0.7818315 0.5399580
vn 0.5000000 -0.0000000 0.8660254
vn 0.2588190 0.0000000 0.9659258
vn 0.1613710 0.7818315 0.6022449
vn -0.0575927 0.9749279 -0.2149387
vn -0.2331879 0.4338837 -0.8702691
vn -0.2331879 -0.4338837 -0.8702691
vn -0.0575927 -0.9749279 -0.2149387
vn 0.1613710 -0.7818315 0.6022449
vn 0.2588190 -0.0000000 0.9659258
vn 0.0000000 0.0000000 1.0000000
vn 0.0000000 0.7818315 0.6234898
vn -0.0000000 0.9749279 -0.2225209
vn -0.0000000 0.4338837 -0.9009689
vn -0.0000000 -0.4338837 -0.9009689
vn -0.0000000 -0.9749279 -0.2225209
vn 0.0000000 -0.7818315 0.6234898
vn 0.0000000 -0.0000000 1.0000000
vn -0.2588190 0.0000000 0.9659258
vn -0.1613710 0.7818315 0.6022449
vn 0.0575927 0.9749279 -0.2149387
vn 0.2331879 0.4338837 -0.8702691
vn 0.2331879 -0.4338837 -0.8702691
vn 0.0575927 -0.9749279 -0.2149387
vn -0.1613710 -0.7818315 0.6022449
vn -0.2588190 -0.0000000 0.9659258
vn -0.5000000 0.0000000 0.8660254
vn -0.3117449 0.7818315 0.5399580
vn 0.1112605 0.9749279 -0.1927088
vn 0.4504844 0.4338837 -0.7802619
vn 0.4504844 -0.4338837 -0.7802619
vn 0.1112605 -0.9749279 -0.1927088
vn -0.3117449 -0.7818315 0.5399580
vn -0.5000000 -0.0000000 0.8660254
vn -0.7071068 0.0000000 0.7071068
vn -0.4408739 0.7818315 0.4408739
vn 0.1573461 0.9749279 -0.1573461
vn 0.6370812 0.4338837 -0.6370812
vn 0.6370812 -0.4338837 -0.6370812
vn 0.1573461 -0.9749279 -0.1573461
vn -0.4408739 -0.7818315 0.4408739
vn -0.7071068 -0.0000000 0.7071068
vn -0.8660254 0.0000000 0.5000000
vn -0.5399580 0.7818315 0.3117449
vn 0.1927088 0.9749279 -0.1112605
vn 0.7802619 0.4338837 -0.4504844
vn 0.7802619 -0.4338837 -0.4504844
vn 0.1927088 -0.9749279 -0.1112605
vn -0.5399580 -0.7818315 0.3117449
vn -0.8660254 -0.0000000 0.5000000
vn -0.9659258 0.0000000 0.2588190
vn -0.6022449 0.7818315 0.1613710
vn 0.2149387 0.9749279 -0.0575927
vn 0.8702691 0.4338837 -0.2331879
vn 0.8702691 -0.4338837 -0.2331879
vn 0.2149387 -0.9749279 -0.0575927
vn -0.6022449 -0.7818315 0.1613710
vn -0.9659258 -0.0000000 0.2588190
vn -1.0000000 0.0000000 0.0000000
vn -0.6234898 0.7818315 0.0000000
vn 0.2225209 0.9749279 -0.0000000
vn 0.9009689 0.4338837 -0.0000000
vn 0.9009689 -0.4338837 -0.0000000
vn 0.2225209 -0.9749279 -0.0000000
vn -0.6234898 -0.7818315 0.0000000
vn -1.0000000 -0.0000000 0.0000000
vn -0.9659258 0.0000000 -0.2588190
vn -0.6022449 0.7818315 -0.1613710
vn 0.2149387 0.9749279 0.0575927
vn 0.8702691 0.4338837 0.2331879
vn 0.8702691 -0.4338837 0.2331879
vn 0.2149387 -0.9749279 0.0575927
vn -0.6022449 -0.7818315 -0.1613710
vn -0.9659258 -0.0000000 -0.2588190
vn -0.8660254 0.0000000 -0.5000000
vn -0.5399580 0.7818315 -0.3117449
vn 0.1927088 0.9749279 0.1112605
vn 0.7802619 0.4338837 0.4504844
vn 0.7802619 -0.4338837 0.4504844
vn 0.1927088 -0.9749279 0.1112605
vn -0.5399580 -0.7818315 -0.3117449
vn -0.8660254 -0.0000000 -0.5000000
vn -0.7071068 0.0000000 -0.7071068
vn -0.4408739 0.7818315 -0.4408739
vn 0.1573461 0.9749279 0.1573461
vn 0.6370812 0.4338837 0.6370812
vn 0.6370812 -0.4338837 0.6370812
vn 0.1573461 -0.9749279 0.1573461
vn -0.4408739 -0.7818315 -0.4408739
vn -0.7071068 -0.0000000 -0.7071068
vn -0.5000000 0.0000000 -0.8660254
vn -0.3117449 0.7818315 -0.5399580
vn 0.1112605 0.9749279 0.1927088
vn 0.4504844 0.4338837 0.7802619
vn 0.4504844 -0.4338837 0.7802619
vn 0.1112605 -0.9749279 0.1927088
vn -0.3117449 -0.7818315 -0.5399580
vn -0.5000000 -0.0000000 -0.8660254
vn -0.2588190 0.0000000 -0.9659258
vn -0.1613710 0.7818315 -0.6022449
vn 0.0575927 0.9749279 0.2149387
vn 0.2331879 0.4338837 0.8702691
vn 0.2331879 -0.4338837 0.8702691
vn 0.0575927 -0.9749279 0.2149387
vn -0.1613710 -0.7818315 -0.6022449
vn -0.2588190 -0.0000000 -0.9659258
vn -0.0000000 0.0000000 -1.0000000
vn -0.0000000 0.7818315 -0.6234898
vn 0.0000000 0.9749279 0.2225209
vn 0.0000000 0.4338837 0.9009689
vn 0.0000000 -0.4338837 0.9009689
vn 0.0000000 -0.9749279 0.2225209
vn -0.0000000 -0.7818315 -0.6234898
vn -0.0000000 -0.0000000 -1.0000000
vn 0.2588190 0.0000000 -0.9659258
vn 0.1613710 0.7818315 -0.6022449
vn -0.0575927 0.9749279 0.2149387
vn -0.2331879 0.4338837 0.8702691
vn -0.2331879 -0.4338837 0.8702691
vn -0.0575927 -0.9749279 0.2149387
vn 0.1613710 -0.7818315 -0.6022449
vn 0.2588190 -0.0000000 -0.9659258
vn 0.5000000 0.0000000 -0.8660254
vn 0.3117449 0.7818315 -0.5399580
vn -0.1112605 0.9749279 0.1927088
vn -0.4504844 0.4338837 0.7802619
vn -0.4504844 -0.4338837 0.7802619
vn -0.1112605 -0.9749279 0.1927088
vn 0.3117449 -0.7818315 -0.5399580
vn 0.5000000 -0.0000000 -0.8660254
vn 0.7071068 0.0000000 -0.7071068
vn 0.4408739 0.7818315 -0.4408739
vn -0.1573461 0.9749279 0.1573461
vn -0.6370812 0.4338837 0.6370812
vn -0.6370812 -0.4338837 0.6370812
vn -0.1573461 -0.9749279 0.1573461
vn 0.4408739 -0.7818315 -0.4408739
vn 0.7071068 -0.0000000 -0.7071068
vn 0.8660254 0.0000000 -0.5000000
vn 0.5399580 0.7818315 -0.3117449
vn -0.1927088 0.9749279 0.1112605
vn -0.7802619 0.4338837 0.4504844
vn -0.7802619 -0.4338837 0.4504844
vn -0.1927088 -0.9749279 0.1112605
vn 0.5399580 -0.7818315 -0.3117449
vn 0.8660254 -0.0000000 -0.5000000
vn 0.9659258 0.0000000 -0.2588190
vn 0.6022449 0.7818315 -0.1613710
vn -0.2149387 0.9749279 0.0575927
vn -0.8702691 0.4338837 0.2331879
vn -0.8702691 -0.4338837 0.2331879
vn -0.2149387 -0.9749279 0.0575927
vn 0.6022449 -0.7818315 -0.1613710
vn 0.9659258 -0.0000000 -0.2588190
vn 1.0000000 0.0000000 -0.0000000
vn 0.6234898 0.7818315 -0.0000000
vn -0.2225209 0.9749279 0.0000000
vn -0.9009689 0.4338837 0.0000000
vn -0.9009689 -0.4338837 0.0000000
vn -0.2225209 -0.9749279 0.0000000
vn 0.6234898 -0.7818315 -0.0000000
vn 1.0000000 -0.0000000 -0.0000000
vn 0.0000000 1.0000000 0.0000000
vn 0.0000000 -1.0000000 0.0000000
vn 1.0000000 0.0000000 0.0000000
vn 0.0000000 0.0000000 1.0000000
vn -1.0000000 0.0000000 0.0000000
vn 0.0000000 0.0000000 -1.0000000
vn 0.0000000 1.0000000 0.0000000
vn 0.0000000 -1.0000000 0.0000000
vn 1.0000000 0.0000000 0.0000000
vn 0.0000000 0.0000000 1.0000000
vn -1.0000000 0.0000000 0.0000000
vn 0.0000000 0.0000000 -1.0000000
vn 0.0000000 1.0000000 0.0000000
vn 0.0000000 -1.0000000 0.0000000
vn 1.0000000 0.0000000 0.0000000
vn 0.0000000 0.0000000 1.0000000
vn -1.0000000 0.0000000 0.0000000
vn 0.0000000 0.0000000 -1.0000000
vn 0.0000000 1.0000000 0.0000000
vn 0.0000000 -1.0000000 0.0000000
vn 1.0000000 0.0000000 0.0000000
vn 0.0000000 0.0000000 1.0000000
vn -1.0000000 0.0000000 0.0000000
vn 0.0000000 0.0000000 -1.0000000
vn 0.0000000 1.0000000 0.0000000
vn 0.0000000 -1.0000000 0.0000000
vn 1.0000000 0.0000000 0.0000000
vn 0.0000000 0.0000000 1.0000000
vn -1.0000000 0.0000000 0.0000000
vn 0.0000000 0.0000000 -1.0000000
vn 0.0000000 1.0000000 0.0000000
vn 0.0000000 -1.0000000 0.0000000
vn 1.0000000 0.0000000 0.0000000
vn 0.0000000 0.0000000 1.0000000
vn -1.0000000 0.0000000 0.0000000
vn 0.0000000 0.0000000 -1.0000000
vn 0.0000000 1.0000000 0.0000000
vn 0.0000000 -1.0000000 0.0000000
vn 1.0000000 0.0000000 0.0000000
vn 0.0000000 0.0000000 1.0000000
vn -1.0000000 0.0000000 0.0000000
vn 0.0000000 0.0000000 -1.0000000
usemtl RoyalDark
s 1
f 3/3/3 7/7/7 8/8/8
f 3/3/3 8/8/8 4/4/4
f 1/1/1 9/9/9 5/5/5
f 2/2/2 6/6/6 10/10/10
f 7/7/7 11/11/11 12/12/12
f 7/7/7 12/12/12 8/8/8
f 1/1/1 13/13/13 9/9/9
f 2/2/2 10/10/10 14/14/14
f 11/11/11 15/15/15 16/16/16
f 11/11/11 16/16/16 12/12/12
f 1/1/1 17/17/17 13/13/13
f 2/2/2 14/14/14 18/18/18
f 15/15/15 19/19/19 20/20/20
f 15/15/15 20/20/20 16/16/16
f 1/1/1 21/21/21 17/17/17
f 2/2/2 18/18/18 22/22/22
f 19/19/19 23/23/23 24/24/24
f 19/19/19 24/24/24 20/20/20
f 1/1/1 25/25/25 21/21/21
f 2/2/2 22/22/22 26/26/26
f 23/23/23 27/27/27 28/28/28
f 23/23/23 28/28/28 24/24/24
f 1/1/1 29/29/29 25/25/25
f 2/2/2 26/26/26 30/30/30
f 27/27/27 31/31/31 32/32/32
f 27/27/27 32/32/32 28/28/28
f 1/1/1 33/33/33 29/29/29
f 2/2/2 30/30/30 34/34/34
f 31/31/31 35/35/35 36/36/36
f 31/31/31 36/36/36 32/32/32
f 1/1/1 37/37/37 33/33/33
f 2/2/2 34/34/34 38/38/38
f 35/35/35 39/39/39 40/40/40
f 35/35/35 40/40/40 36/36/36
f 1/1/1 41/41/41 37/37/37
f 2/2/2 38/38/38 42/42/42
f 39/39/39 43/43/43 44/44/44
f 39/39/39 44/44/44 40/40/40
f 1/1/1 45/45/45 41/41/41
f 2/2/2 42/42/42 46/46/46
f 43/43/43 47/47/47 48/48/48
f 43/43/43 48/48/48 44/44/44
f 1/1/1 49/49/49 45/45/45
f 2/2/2 46/46/46 50/50/50
f 47/47/47 51/51/51 52/52/52
f 47/47/47 52/52/52 48/48/48
f 1/1/1 53/53/53 49/49/49
f 2/2/2 50/50/50 54/54/54
f 51/51/51 55/55/55 56/56/56
f 51/51/51 56/56/56 52/52/52
f 1/1/1 57/57/57 53/53/53
f 2/2/2 54/54/54 58/58/58
f 55/55/55 59/59/59 60/60/60
f 55/55/55 60/60/60 56/56/56
f 1/1/1 61/61/61 57/57/57
f 2/2/2 58/58/58 62/62/62
f 59/59/59 63/63/63 64/64/64
f 59/59/59 64/64/64 60/60/60
f 1/1/1 65/65/65 61/61/61
f 2/2/2 62/62/62 66/66/66
f 63/63/63 67/67/67 68/68/68
f 63/63/63 68/68/68 64/64/64
f 1/1/1 69/69/69 65/65/65
f 2/2/2 66/66/66 70/70/70
f 67/67/67 71/71/71 72/72/72
f 67/67/67 72/72/72 68/68/68
f 1/1/1 73/73/73 69/69/69
f 2/2/2 70/70/70 74/74/74
f 71/71/71 75/75/75 76/76/76
f 71/71/71 76/76/76 72/72/72
f 1/1/1 77/77/77 73/73/73
f 2/2/2 74/74/74 78/78/78
f 75/75/75 79/79/79 80/80/80
f 75/75/75 80/80/80 76/76/76
f 1/1/1 81/81/81 77/77/77
f 2/2/2 78/78/78 82/82/82
f 79/79/79 3/3/3 4/4/4
f 79/79/79 4/4/4 80/80/80
f 1/1/1 5/5/5 81/81/81
f 2/2/2 82/82/82 6/6/6
usemtl RoyalCore
s 1
f 85/85/85 89/89/89 90/90/90
f 85/85/85 90/90/90 86/86/86
f 83/83/83 91/91/91 87/87/87
f 84/84/84 88/88/88 92/92/92
f 89/89/89 93/93/93 94/94/94
f 89/89/89 94/94/94 90/90/90
f 83/83/83 95/95/95 91/91/91
f 84/84/84 92/92/92 96/96/96
f 93/93/93 97/97/97 98/98/98
f 93/93/93 98/98/98 94/94/94
f 83/83/83 99/99/99 95/95/95
f 84/84/84 96/96/96 100/100/100
f 97/97/97 101/101/101 102/102/102
f 97/97/97 102/102/102 98/98/98
f 83/83/83 103/103/103 99/99/99
f 84/84/84 100/100/100 104/104/104
f 101/101/101 105/105/105 106/106/106
f 101/101/101 106/106/106 102/102/102
f 83/83/83 107/107/107 103/103/103
f 84/84/84 104/104/104 108/108/108
f 105/105/105 109/109/109 110/110/110
f 105/105/105 110/110/110 106/106/106
f 83/83/83 111/111/111 107/107/107
f 84/84/84 108/108/108 112/112/112
f 109/109/109 113/113/113 114/114/114
f 109/109/109 114/114/114 110/110/110
f 83/83/83 115/115/115 111/111/111
f 84/84/84 112/112/112 116/116/116
f 113/113/113 117/117/117 118/118/118
f 113/113/113 118/118/118 114/114/114
f 83/83/83 119/119/119 115/115/115
f 84/84/84 116/116/116 120/120/120
f 117/117/117 121/121/121 122/122/122
f 117/117/117 122/122/122 118/118/118
f 83/83/83 123/123/123 119/119/119
f 84/84/84 120/120/120 124/124/124
f 121/121/121 125/125/125 126/126/126
f 121/121/121 126/126/126 122/122/122
f 83/83/83 127/127/127 123/123/123
f 84/84/84 124/124/124 128/128/128
f 125/125/125 129/129/129 130/130/130
f 125/125/125 130/130/130 126/126/126
f 83/83/83 131/131/131 127/127/127
f 84/84/84 128/128/128 132/132/132
f 129/129/129 133/133/133 134/134/134
f 129/129/129 134/134/134 130/130/130
f 83/83/83 135/135/135 131/131/131
f 84/84/84 132/132/132 136/136/136
f 133/133/133 137/137/137 138/138/138
f 133/133/133 138/138/138 134/134/134
f 83/83/83 139/139/139 135/135/135
f 84/84/84 136/136/136 140/140/140
f 137/137/137 141/141/141 142/142/142
f 137/137/137 142/142/142 138/138/138
f 83/83/83 143/143/143 139/139/139
f 84/84/84 140/140/140 144/144/144
f 141/141/141 145/145/145 146/146/146
f 141/141/141 146/146/146 142/142/142
f 83/83/83 147/147/147 143/143/143
f 84/84/84 144/144/144 148/148/148
f 145/145/145 85/85/85 86/86/86
f 145/145/145 86/86/86 146/146/146
f 83/83/83 87/87/87 147/147/147
f 84/84/84 148/148/148 88/88/88
f 652/652/652 654/654/654 655/655/655
f 653/653/653 655/655/655 654/654/654
f 652/652/652 655/655/655 656/656/656
f 653/653/653 656/656/656 655/655/655
f 652/652/652 656/656/656 657/657/657
f 653/653/653 657/657/657 656/656/656
f 652/652/652 657/657/657 654/654/654
f 653/653/653 654/654/654 657/657/657
usemtl RoyalGold
s 1
f 149/149/149 151/151/151 152/152/152
f 150/150/150 152/152/152 151/151/151
f 149/149/149 152/152/152 153/153/153
f 150/150/150 153/153/153 152/152/152
f 149/149/149 153/153/153 154/154/154
f 150/150/150 154/154/154 153/153/153
f 149/149/149 154/154/154 151/151/151
f 150/150/150 151/151/151 154/154/154
f 155/155/155 164/164/164 165/165/165
f 155/155/155 165/165/165 156/156/156
f 156/156/156 165/165/165 166/166/166
f 156/156/156 166/166/166 157/157/157
f 157/157/157 166/166/166 167/167/167
f 157/157/157 167/167/167 158/158/158
f 158/158/158 167/167/167 168/168/168
f 158/158/158 168/168/168 159/159/159
f 159/159/159 168/168/168 169/169/169
f 159/159/159 169/169/169 160/160/160
f 160/160/160 169/169/169 170/170/170
f 160/160/160 170/170/170 161/161/161
f 161/161/161 170/170/170 171/171/171
f 161/161/161 171/171/171 162/162/162
f 162/162/162 171/171/171 172/172/172
f 162/162/162 172/172/172 163/163/163
f 164/164/164 173/173/173 174/174/174
f 164/164/164 174/174/174 165/165/165
f 165/165/165 174/174/174 175/175/175
f 165/165/165 175/175/175 166/166/166
f 166/166/166 175/175/175 176/176/176
f 166/166/166 176/176/176 167/167/167
f 167/167/167 176/176/176 177/177/177
f 167/167/167 177/177/177 168/168/168
f 168/168/168 177/177/177 178/178/178
f 168/168/168 178/178/178 169/169/169
f 169/169/169 178/178/178 179/179/179
f 169/169/169 179/179/179 170/170/170
f 170/170/170 179/179/179 180/180/180
f 170/170/170 180/180/180 171/171/171
f 171/171/171 180/180/180 181/181/181
f 171/171/171 181/181/181 172/172/172
f 173/173/173 182/182/182 183/183/183
f 173/173/173 183/183/183 174/174/174
f 174/174/174 183/183/183 184/184/184
f 174/174/174 184/184/184 175/175/175
f 175/175/175 184/184/184 185/185/185
f 175/175/175 185/185/185 176/176/176
f 176/176/176 185/185/185 186/186/186
f 176/176/176 186/186/186 177/177/177
f 177/177/177 186/186/186 187/187/187
f 177/177/177 187/187/187 178/178/178
f 178/178/178 187/187/187 188/188/188
f 178/178/178 188/188/188 179/179/179
f 179/179/179 188/188/188 189/189/189
f 179/179/179 189/189/189 180/180/180
f 180/180/180 189/189/189 190/190/190
f 180/180/180 190/190/190 181/181/181
f 182/182/182 191/191/191 192/192/192
f 182/182/182 192/192/192 183/183/183
f 183/183/183 192/192/192 193/193/193
f 183/183/183 193/193/193 184/184/184
f 184/184/184 193/193/193 194/194/194
f 184/184/184 194/194/194 185/185/185
f 185/185/185 194/194/194 195/195/195
f 185/185/185 195/195/195 186/186/186
f 186/186/186 195/195/195 196/196/196
f 186/186/186 196/196/196 187/187/187
f 187/187/187 196/196/196 197/197/197
f 187/187/187 197/197/197 188/188/188
f 188/188/188 197/197/197 198/198/198
f 188/188/188 198/198/198 189/189/189
f 189/189/189 198/198/198 199/199/199
f 189/189/189 199/199/199 190/190/190
f 191/191/191 200/200/200 201/201/201
f 191/191/191 201/201/201 192/192/192
f 192/192/192 201/201/201 202/202/202
f 192/192/192 202/202/202 193/193/193
f 193/193/193 202/202/202 203/203/203
f 193/193/193 203/203/203 194/194/194
f 194/194/194 203/203/203 204/204/204
f 194/194/194 204/204/204 195/195/195
f 195/195/195 204/204/204 205/205/205
f 195/195/195 205/205/205 196/196/196
f 196/196/196 205/205/205 206/206/206
f 196/196/196 206/206/206 197/197/197
f 197/197/197 206/206/206 207/207/207
f 197/197/197 207/207/207 198/198/198
f 198/198/198 207/207/207 208/208/208
f 198/198/198 208/208/208 199/199/199
f 200/200/200 209/209/209 210/210/210
f 200/200/200 210/210/210 201/201/201
f 201/201/201 210/210/210 211/211/211
f 201/201/201 211/211/211 202/202/202
f 202/202/202 211/211/211 212/212/212
f 202/202/202 212/212/212 203/203/203
f 203/203/203 212/212/212 213/213/213
f 203/203/203 213/213/213 204/204/204
f 204/204/204 213/213/213 214/214/214
f 204/204/204 214/214/214 205/205/205
f 205/205/205 214/214/214 215/215/215
f 205/205/205 215/215/215 206/206/206
f 206/206/206 215/215/215 216/216/216
f 206/206/206 216/216/216 207/207/207
f 207/207/207 216/216/216 217/217/217
f 207/207/207 217/217/217 208/208/208
f 209/209/209 218/218/218 219/219/219
f 209/209/209 219/219/219 210/210/210
f 210/210/210 219/219/219 220/220/220
f 210/210/210 220/220/220 211/211/211
f 211/211/211 220/220/220 221/221/221
f 211/211/211 221/221/221 212/212/212
f 212/212/212 221/221/221 222/222/222
f 212/212/212 222/222/222 213/213/213
f 213/213/213 222/222/222 223/223/223
f 213/213/213 223/223/223 214/214/214
f 214/214/214 223/223/223 224/224/224
f 214/214/214 224/224/224 215/215/215
f 215/215/215 224/224/224 225/225/225
f 215/215/215 225/225/225 216/216/216
f 216/216/216 225/225/225 226/226/226
f 216/216/216 226/226/226 217/217/217
f 218/218/218 227/227/227 228/228/228
f 218/218/218 228/228/228 219/219/219
f 219/219/219 228/228/228 229/229/229
f 219/219/219 229/229/229 220/220/220
f 220/220/220 229/229/229 230/230/230
f 220/220/220 230/230/230 221/221/221
f 221/221/221 230/230/230 231/231/231
f 221/221/221 231/231/231 222/222/222
f 222/222/222 231/231/231 232/232/232
f 222/222/222 232/232/232 223/223/223
f 223/223/223 232/232/232 233/233/233
f 223/223/223 233/233/233 224/224/224
f 224/224/224 233/233/233 234/234/234
f 224/224/224 234/234/234 225/225/225
f 225/225/225 234/234/234 235/235/235
f 225/225/225 235/235/235 226/226/226
f 227/227/227 236/236/236 237/237/237
f 227/227/227 237/237/237 228/228/228
f 228/228/228 237/237/237 238/238/238
f 228/228/228 238/238/238 229/229/229
f 229/229/229 238/238/238 239/239/239
f 229/229/229 239/239/239 230/230/230
f 230/230/230 239/239/239 240/240/240
f 230/230/230 240/240/240 231/231/231
f 231/231/231 240/240/240 241/241/241
f 231/231/231 241/241/241 232/232/232
f 232/232/232 241/241/241 242/242/242
f 232/232/232 242/242/242 233/233/233
f 233/233/233 242/242/242 243/243/243
f 233/233/233 243/243/243 234/234/234
f 234/234/234 243/243/243 244/244/244
f 234/234/234 244/244/244 235/235/235
f 236/236/236 245/245/245 246/246/246
f 236/236/236 246/246/246 237/237/237
f 237/237/237 246/246/246 247/247/247
f 237/237/237 247/247/247 238/238/238
f 238/238/238 247/247/247 248/248/248
f 238/238/238 248/248/248 239/239/239
f 239/239/239 248/248/248 249/249/249
f 239/239/239 249/249/249 240/240/240
f 240/240/240 249/249/249 250/250/250
f 240/240/240 250/250/250 241/241/241
f 241/241/241 250/250/250 251/251/251
f 241/241/241 251/251/251 242/242/242
f 242/242/242 251/251/251 252/252/252
f 242/242/242 252/252/252 243/243/243
f 243/243/243 252/252/252 253/253/253
f 243/243/243 253/253/253 244/244/244
f 245/245/245 254/254/254 255/255/255
f 245/245/245 255/255/255 246/246/246
f 246/246/246 255/255/255 256/256/256
f 246/246/246 256/256/256 247/247/247
f 247/247/247 256/256/256 257/257/257
f 247/247/247 257/257/257 248/248/248
f 248/248/248 257/257/257 258/258/258
f 248/248/248 258/258/258 249/249/249
f 249/249/249 258/258/258 259/259/259
f 249/249/249 259/259/259 250/250/250
f 250/250/250 259/259/259 260/260/260
f 250/250/250 260/260/260 251/251/251
f 251/251/251 260/260/260 261/261/261
f 251/251/251 261/261/261 252/252/252
f 252/252/252 261/261/261 262/262/262
f 252/252/252 262/262/262 253/253/253
f 254/254/254 263/263/263 264/264/264
f 254/254/254 264/264/264 255/255/255
f 255/255/255 264/264/264 265/265/265
f 255/255/255 265/265/265 256/256/256
f 256/256/256 265/265/265 266/266/266
f 256/256/256 266/266/266 257/257/257
f 257/257/257 266/266/266 267/267/267
f 257/257/257 267/267/267 258/258/258
f 258/258/258 267/267/267 268/268/268
f 258/258/258 268/268/268 259/259/259
f 259/259/259 268/268/268 269/269/269
f 259/259/259 269/269/269 260/260/260
f 260/260/260 269/269/269 270/270/270
f 260/260/260 270/270/270 261/261/261
f 261/261/261 270/270/270 271/271/271
f 261/261/261 271/271/271 262/262/262
f 263/263/263 272/272/272 273/273/273
f 263/263/263 273/273/273 264/264/264
f 264/264/264 273/273/273 274/274/274
f 264/264/264 274/274/274 265/265/265
f 265/265/265 274/274/274 275/275/275
f 265/265/265 275/275/275 266/266/266
f 266/266/266 275/275/275 276/276/276
f 266/266/266 276/276/276 267/267/267
f 267/267/267 276/276/276 277/277/277
f 267/267/267 277/277/277 268/268/268
f 268/268/268 277/277/277 278/278/278
f 268/268/268 278/278/278 269/269/269
f 269/269/269 278/278/278 279/279/279
f 269/269/269 279/279/279 270/270/270
f 270/270/270 279/279/279 280/280/280
f 270/270/270 280/280/280 271/271/271
f 272/272/272 281/281/281 282/282/282
f 272/272/272 282/282/282 273/273/273
f 273/273/273 282/282/282 283/283/283
f 273/273/273 283/283/283 274/274/274
f 274/274/274 283/283/283 284/284/284
f 274/274/274 284/284/284 275/275/275
f 275/275/275 284/284/284 285/285/285
f 275/275/275 285/285/285 276/276/276
f 276/276/276 285/285/285 286/286/286
f 276/276/276 286/286/286 277/277/277
f 277/277/277 286/286/286 287/287/287
f 277/277/277 287/287/287 278/278/278
f 278/278/278 287/287/287 288/288/288
f 278/278/278 288/288/288 279/279/279
f 279/279/279 288/288/288 289/289/289
f 279/279/279 289/289/289 280/280/280
f 281/281/281 290/290/290 291/291/291
f 281/281/281 291/291/291 282/282/282
f 282/282/282 291/291/291 292/292/292
f 282/282/282 292/292/292 283/283/283
f 283/283/283 292/292/292 293/293/293
f 283/283/283 293/293/293 284/284/284
f 284/284/284 293/293/293 294/294/294
f 284/284/284 294/294/294 285/285/285
f 285/285/285 294/294/294 295/295/295
f 285/285/285 295/295/295 286/286/286
f 286/286/286 295/295/295 296/296/296
f 286/286/286 296/296/296 287/287/287
f 287/287/287 296/296/296 297/297/297
f 287/287/287 297/297/297 288/288/288
f 288/288/288 297/297/297 298/298/298
f 288/288/288 298/298/298 289/289/289
f 290/290/290 299/299/299 300/300/300
f 290/290/290 300/300/300 291/291/291
f 291/291/291 300/300/300 301/301/301
f 291/291/291 301/301/301 292/292/292
f 292/292/292 301/301/301 302/302/302
f 292/292/292 302/302/302 293/293/293
f 293/293/293 302/302/302 303/303/303
f 293/293/293 303/303/303 294/294/294
f 294/294/294 303/303/303 304/304/304
f 294/294/294 304/304/304 295/295/295
f 295/295/295 304/304/304 305/305/305
f 295/295/295 305/305/305 296/296/296
f 296/296/296 305/305/305 306/306/306
f 296/296/296 306/306/306 297/297/297
f 297/297/297 306/306/306 307/307/307
f 297/297/297 307/307/307 298/298/298
f 299/299/299 308/308/308 309/309/309
f 299/299/299 309/309/309 300/300/300
f 300/300/300 309/309/309 310/310/310
f 300/300/300 310/310/310 301/301/301
f 301/301/301 310/310/310 311/311/311
f 301/301/301 311/311/311 302/302/302
f 302/302/302 311/311/311 312/312/312
f 302/302/302 312/312/312 303/303/303
f 303/303/303 312/312/312 313/313/313
f 303/303/303 313/313/313 304/304/304
f 304/304/304 313/313/313 314/314/314
f 304/304/304 314/314/314 305/305/305
f 305/305/305 314/314/314 315/315/315
f 305/305/305 315/315/315 306/306/306
f 306/306/306 315/315/315 316/316/316
f 306/306/306 316/316/316 307/307/307
f 308/308/308 317/317/317 318/318/318
f 308/308/308 318/318/318 309/309/309
f 309/309/309 318/318/318 319/319/319
f 309/309/309 319/319/319 310/310/310
f 310/310/310 319/319/319 320/320/320
f 310/310/310 320/320/320 311/311/311
f 311/311/311 320/320/320 321/321/321
f 311/311/311 321/321/321 312/312/312
f 312/312/312 321/321/321 322/322/322
f 312/312/312 322/322/322 313/313/313
f 313/313/313 322/322/322 323/323/323
f 313/313/313 323/323/323 314/314/314
f 314/314/314 323/323/323 324/324/324
f 314/314/314 324/324/324 315/315/315
f 315/315/315 324/324/324 325/325/325
f 315/315/315 325/325/325 316/316/316
f 317/317/317 326/326/326 327/327/327
f 317/317/317 327/327/327 318/318/318
f 318/318/318 327/327/327 328/328/328
f 318/318/318 328/328/328 319/319/319
f 319/319/319 328/328/328 329/329/329
f 319/319/319 329/329/329 320/320/320
f 320/320/320 329/329/329 330/330/330
f 320/320/320 330/330/330 321/321/321
f 321/321/321 330/330/330 331/331/331
f 321/321/321 331/331/331 322/322/322
f 322/322/322 331/331/331 332/332/332
f 322/322/322 332/332/332 323/323/323
f 323/323/323 332/332/332 333/333/333
f 323/323/323 333/333/333 324/324/324
f 324/324/324 333/333/333 334/334/334
f 324/324/324 334/334/334 325/325/325
f 326/326/326 335/335/335 336/336/336
f 326/326/326 336/336/336 327/327/327
f 327/327/327 336/336/336 337/337/337
f 327/327/327 337/337/337 328/328/328
f 328/328/328 337/337/337 338/338/338
f 328/328/328 338/338/338 329/329/329
f 329/329/329 338/338/338 339/339/339
f 329/329/329 339/339/339 330/330/330
f 330/330/330 339/339/339 340/340/340
f 330/330/330 340/340/340 331/331/331
f 331/331/331 340/340/340 341/341/341
f 331/331/331 341/341/341 332/332/332
f 332/332/332 341/341/341 342/342/342
f 332/332/332 342/342/342 333/333/333
f 333/333/333 342/342/342 343/343/343
f 333/333/333 343/343/343 334/334/334
f 335/335/335 344/344/344 345/345/345
f 335/335/335 345/345/345 336/336/336
f 336/336/336 345/345/345 346/346/346
f 336/336/336 346/346/346 337/337/337
f 337/337/337 346/346/346 347/347/347
f 337/337/337 347/347/347 338/338/338
f 338/338/338 347/347/347 348/348/348
f 338/338/338 348/348/348 339/339/339
f 339/339/339 348/348/348 349/349/349
f 339/339/339 349/349/349 340/340/340
f 340/340/340 349/349/349 350/350/350
f 340/340/340 350/350/350 341/341/341
f 341/341/341 350/350/350 351/351/351
f 341/341/341 351/351/351 342/342/342
f 342/342/342 351/351/351 352/352/352
f 342/342/342 352/352/352 343/343/343
f 344/344/344 353/353/353 354/354/354
f 344/344/344 354/354/354 345/345/345
f 345/345/345 354/354/354 355/355/355
f 345/345/345 355/355/355 346/346/346
f 346/346/346 355/355/355 356/356/356
f 346/346/346 356/356/356 347/347/347
f 347/347/347 356/356/356 357/357/357
f 347/347/347 357/357/357 348/348/348
f 348/348/348 357/357/357 358/358/358
f 348/348/348 358/358/358 349/349/349
f 349/349/349 358/358/358 359/359/359
f 349/349/349 359/359/359 350/350/350
f 350/350/350 359/359/359 360/360/360
f 350/350/350 360/360/360 351/351/351
f 351/351/351 360/360/360 361/361/361
f 351/351/351 361/361/361 352/352/352
f 353/353/353 362/362/362 363/363/363
f 353/353/353 363/363/363 354/354/354
f 354/354/354 363/363/363 364/364/364
f 354/354/354 364/364/364 355/355/355
f 355/355/355 364/364/364 365/365/365
f 355/355/355 365/365/365 356/356/356
f 356/356/356 365/365/365 366/366/366
f 356/356/356 366/366/366 357/357/357
f 357/357/357 366/366/366 367/367/367
f 357/357/357 367/367/367 358/358/358
f 358/358/358 367/367/367 368/368/368
f 358/358/358 368/368/368 359/359/359
f 359/359/359 368/368/368 369/369/369
f 359/359/359 369/369/369 360/360/360
f 360/360/360 369/369/369 370/370/370
f 360/360/360 370/370/370 361/361/361
f 362/362/362 371/371/371 372/372/372
f 362/362/362 372/372/372 363/363/363
f 363/363/363 372/372/372 373/373/373
f 363/363/363 373/373/373 364/364/364
f 364/364/364 373/373/373 374/374/374
f 364/364/364 374/374/374 365/365/365
f 365/365/365 374/374/374 375/375/375
f 365/365/365 375/375/375 366/366/366
f 366/366/366 375/375/375 376/376/376
f 366/366/366 376/376/376 367/367/367
f 367/367/367 376/376/376 377/377/377
f 367/367/367 377/377/377 368/368/368
f 368/368/368 377/377/377 378/378/378
f 368/368/368 378/378/378 369/369/369
f 369/369/369 378/378/378 379/379/379
f 369/369/369 379/379/379 370/370/370
f 371/371/371 380/380/380 381/381/381
f 371/371/371 381/381/381 372/372/372
f 372/372/372 381/381/381 382/382/382
f 372/372/372 382/382/382 373/373/373
f 373/373/373 382/382/382 383/383/383
f 373/373/373 383/383/383 374/374/374
f 374/374/374 383/383/383 384/384/384
f 374/374/374 384/384/384 375/375/375
f 375/375/375 384/384/384 385/385/385
f 375/375/375 385/385/385 376/376/376
f 376/376/376 385/385/385 386/386/386
f 376/376/376 386/386/386 377/377/377
f 377/377/377 386/386/386 387/387/387
f 377/377/377 387/387/387 378/378/378
f 378/378/378 387/387/387 388/388/388
f 378/378/378 388/388/388 379/379/379
f 380/380/380 389/389/389 390/390/390
f 380/380/380 390/390/390 381/381/381
f 381/381/381 390/390/390 391/391/391
f 381/381/381 391/391/391 382/382/382
f 382/382/382 391/391/391 392/392/392
f 382/382/382 392/392/392 383/383/383
f 383/383/383 392/392/392 393/393/393
f 383/383/383 393/393/393 384/384/384
f 384/384/384 393/393/393 394/394/394
f 384/384/384 394/394/394 385/385/385
f 385/385/385 394/394/394 395/395/395
f 385/385/385 395/395/395 386/386/386
f 386/386/386 395/395/395 396/396/396
f 386/386/386 396/396/396 387/387/387
f 387/387/387 396/396/396 397/397/397
f 387/387/387 397/397/397 388/388/388
f 389/389/389 398/398/398 399/399/399
f 389/389/389 399/399/399 390/390/390
f 390/390/390 399/399/399 400/400/400
f 390/390/390 400/400/400 391/391/391
f 391/391/391 400/400/400 401/401/401
f 391/391/391 401/401/401 392/392/392
f 392/392/392 401/401/401 402/402/402
f 392/392/392 402/402/402 393/393/393
f 393/393/393 402/402/402 403/403/403
f 393/393/393 403/403/403 394/394/394
f 394/394/394 403/403/403 404/404/404
f 394/394/394 404/404/404 395/395/395
f 395/395/395 404/404/404 405/405/405
f 395/395/395 405/405/405 396/396/396
f 396/396/396 405/405/405 406/406/406
f 396/396/396 406/406/406 397/397/397
f 398/398/398 407/407/407 408/408/408
f 398/398/398 408/408/408 399/399/399
f 399/399/399 408/408/408 409/409/409
f 399/399/399 409/409/409 400/400/400
f 400/400/400 409/409/409 410/410/410
f 400/400/400 410/410/410 401/401/401
f 401/401/401 410/410/410 411/411/411
f 401/401/401 411/411/411 402/402/402
f 402/402/402 411/411/411 412/412/412
f 402/402/402 412/412/412 403/403/403
f 403/403/403 412/412/412 413/413/413
f 403/403/403 413/413/413 404/404/404
f 404/404/404 413/413/413 414/414/414
f 404/404/404 414/414/414 405/405/405
f 405/405/405 414/414/414 415/415/415
f 405/405/405 415/415/415 406/406/406
f 616/616/616 618/618/618 619/619/619
f 617/617/617 619/619/619 618/618/618
f 616/616/616 619/619/619 620/620/620
f 617/617/617 620/620/620 619/619/619
f 616/616/616 620/620/620 621/621/621
f 617/617/617 621/621/621 620/620/620
f 616/616/616 621/621/621 618/618/618
f 617/617/617 618/618/618 621/621/621
f 628/628/628 630/630/630 631/631/631
f 629/629/629 631/631/631 630/630/630
f 628/628/628 631/631/631 632/632/632
f 629/629/629 632/632/632 631/631/631
f 628/628/628 632/632/632 633/633/633
f 629/629/629 633/633/633 632/632/632
f 628/628/628 633/633/633 630/630/630
f 629/629/629 630/630/630 633/633/633
f 640/640/640 642/642/642 643/643/643
f 641/641/641 643/643/643 642/642/642
f 640/640/640 643/643/643 644/644/644
f 641/641/641 644/644/644 643/643/643
f 640/640/640 644/644/644 645/645/645
f 641/641/641 645/645/645 644/644/644
f 640/640/640 645/645/645 642/642/642
f 641/641/641 642/642/642 645/645/645
usemtl RoyalViolet
s 1
f 416/416/416 424/424/424 425/425/425
f 416/416/416 425/425/425 417/417/417
f 417/417/417 425/425/425 426/426/426
f 417/417/417 426/426/426 418/418/418
f 418/418/418 426/426/426 427/427/427
f 418/418/418 427/427/427 419/419/419
f 419/419/419 427/427/427 428/428/428
f 419/419/419 428/428/428 420/420/420
f 420/420/420 428/428/428 429/429/429
f 420/420/420 429/429/429 421/421/421
f 421/421/421 429/429/429 430/430/430
f 421/421/421 430/430/430 422/422/422
f 422/422/422 430/430/430 431/431/431
f 422/422/422 431/431/431 423/423/423
f 424/424/424 432/432/432 433/433/433
f 424/424/424 433/433/433 425/425/425
f 425/425/425 433/433/433 434/434/434
f 425/425/425 434/434/434 426/426/426
f 426/426/426 434/434/434 435/435/435
f 426/426/426 435/435/435 427/427/427
f 427/427/427 435/435/435 436/436/436
f 427/427/427 436/436/436 428/428/428
f 428/428/428 436/436/436 437/437/437
f 428/428/428 437/437/437 429/429/429
f 429/429/429 437/437/437 438/438/438
f 429/429/429 438/438/438 430/430/430
f 430/430/430 438/438/438 439/439/439
f 430/430/430 439/439/439 431/431/431
f 432/432/432 440/440/440 441/441/441
f 432/432/432 441/441/441 433/433/433
f 433/433/433 441/441/441 442/442/442
f 433/433/433 442/442/442 434/434/434
f 434/434/434 442/442/442 443/443/443
f 434/434/434 443/443/443 435/435/435
f 435/435/435 443/443/443 444/444/444
f 435/435/435 444/444/444 436/436/436
f 436/436/436 444/444/444 445/445/445
f 436/436/436 445/445/445 437/437/437
f 437/437/437 445/445/445 446/446/446
f 437/437/437 446/446/446 438/438/438
f 438/438/438 446/446/446 447/447/447
f 438/438/438 447/447/447 439/439/439
f 440/440/440 448/448/448 449/449/449
f 440/440/440 449/449/449 441/441/441
f 441/441/441 449/449/449 450/450/450
f 441/441/441 450/450/450 442/442/442
f 442/442/442 450/450/450 451/451/451
f 442/442/442 451/451/451 443/443/443
f 443/443/443 451/451/451 452/452/452
f 443/443/443 452/452/452 444/444/444
f 444/444/444 452/452/452 453/453/453
f 444/444/444 453/453/453 445/445/445
f 445/445/445 453/453/453 454/454/454
f 445/445/445 454/454/454 446/446/446
f 446/446/446 454/454/454 455/455/455
f 446/446/446 455/455/455 447/447/447
f 448/448/448 456/456/456 457/457/457
f 448/448/448 457/457/457 449/449/449
f 449/449/449 457/457/457 458/458/458
f 449/449/449 458/458/458 450/450/450
f 450/450/450 458/458/458 459/459/459
f 450/450/450 459/459/459 451/451/451
f 451/451/451 459/459/459 460/460/460
f 451/451/451 460/460/460 452/452/452
f 452/452/452 460/460/460 461/461/461
f 452/452/452 461/461/461 453/453/453
f 453/453/453 461/461/461 462/462/462
f 453/453/453 462/462/462 454/454/454
f 454/454/454 462/462/462 463/463/463
f 454/454/454 463/463/463 455/455/455
f 456/456/456 464/464/464 465/465/465
f 456/456/456 465/465/465 457/457/457
f 457/457/457 465/465/465 466/466/466
f 457/457/457 466/466/466 458/458/458
f 458/458/458 466/466/466 467/467/467
f 458/458/458 467/467/467 459/459/459
f 459/459/459 467/467/467 468/468/468
f 459/459/459 468/468/468 460/460/460
f 460/460/460 468/468/468 469/469/469
f 460/460/460 469/469/469 461/461/461
f 461/461/461 469/469/469 470/470/470
f 461/461/461 470/470/470 462/462/462
f 462/462/462 470/470/470 471/471/471
f 462/462/462 471/471/471 463/463/463
f 464/464/464 472/472/472 473/473/473
f 464/464/464 473/473/473 465/465/465
f 465/465/465 473/473/473 474/474/474
f 465/465/465 474/474/474 466/466/466
f 466/466/466 474/474/474 475/475/475
f 466/466/466 475/475/475 467/467/467
f 467/467/467 475/475/475 476/476/476
f 467/467/467 476/476/476 468/468/468
f 468/468/468 476/476/476 477/477/477
f 468/468/468 477/477/477 469/469/469
f 469/469/469 477/477/477 478/478/478
f 469/469/469 478/478/478 470/470/470
f 470/470/470 478/478/478 479/479/479
f 470/470/470 479/479/479 471/471/471
f 472/472/472 480/480/480 481/481/481
f 472/472/472 481/481/481 473/473/473
f 473/473/473 481/481/481 482/482/482
f 473/473/473 482/482/482 474/474/474
f 474/474/474 482/482/482 483/483/483
f 474/474/474 483/483/483 475/475/475
f 475/475/475 483/483/483 484/484/484
f 475/475/475 484/484/484 476/476/476
f 476/476/476 484/484/484 485/485/485
f 476/476/476 485/485/485 477/477/477
f 477/477/477 485/485/485 486/486/486
f 477/477/477 486/486/486 478/478/478
f 478/478/478 486/486/486 487/487/487
f 478/478/478 487/487/487 479/479/479
f 480/480/480 488/488/488 489/489/489
f 480/480/480 489/489/489 481/481/481
f 481/481/481 489/489/489 490/490/490
f 481/481/481 490/490/490 482/482/482
f 482/482/482 490/490/490 491/491/491
f 482/482/482 491/491/491 483/483/483
f 483/483/483 491/491/491 492/492/492
f 483/483/483 492/492/492 484/484/484
f 484/484/484 492/492/492 493/493/493
f 484/484/484 493/493/493 485/485/485
f 485/485/485 493/493/493 494/494/494
f 485/485/485 494/494/494 486/486/486
f 486/486/486 494/494/494 495/495/495
f 486/486/486 495/495/495 487/487/487
f 488/488/488 496/496/496 497/497/497
f 488/488/488 497/497/497 489/489/489
f 489/489/489 497/497/497 498/498/498
f 489/489/489 498/498/498 490/490/490
f 490/490/490 498/498/498 499/499/499
f 490/490/490 499/499/499 491/491/491
f 491/491/491 499/499/499 500/500/500
f 491/491/491 500/500/500 492/492/492
f 492/492/492 500/500/500 501/501/501
f 492/492/492 501/501/501 493/493/493
f 493/493/493 501/501/501 502/502/502
f 493/493/493 502/502/502 494/494/494
f 494/494/494 502/502/502 503/503/503
f 494/494/494 503/503/503 495/495/495
f 496/496/496 504/504/504 505/505/505
f 496/496/496 505/505/505 497/497/497
f 497/497/497 505/505/505 506/506/506
f 497/497/497 506/506/506 498/498/498
f 498/498/498 506/506/506 507/507/507
f 498/498/498 507/507/507 499/499/499
f 499/499/499 507/507/507 508/508/508
f 499/499/499 508/508/508 500/500/500
f 500/500/500 508/508/508 509/509/509
f 500/500/500 509/509/509 501/501/501
f 501/501/501 509/509/509 510/510/510
f 501/501/501 510/510/510 502/502/502
f 502/502/502 510/510/510 511/511/511
f 502/502/502 511/511/511 503/503/503
f 504/504/504 512/512/512 513/513/513
f 504/504/504 513/513/513 505/505/505
f 505/505/505 513/513/513 514/514/514
f 505/505/505 514/514/514 506/506/506
f 506/506/506 514/514/514 515/515/515
f 506/506/506 515/515/515 507/507/507
f 507/507/507 515/515/515 516/516/516
f 507/507/507 516/516/516 508/508/508
f 508/508/508 516/516/516 517/517/517
f 508/508/508 517/517/517 509/509/509
f 509/509/509 517/517/517 518/518/518
f 509/509/509 518/518/518 510/510/510
f 510/510/510 518/518/518 519/519/519
f 510/510/510 519/519/519 511/511/511
f 512/512/512 520/520/520 521/521/521
f 512/512/512 521/521/521 513/513/513
f 513/513/513 521/521/521 522/522/522
f 513/513/513 522/522/522 514/514/514
f 514/514/514 522/522/522 523/523/523
f 514/514/514 523/523/523 515/515/515
f 515/515/515 523/523/523 524/524/524
f 515/515/515 524/524/524 516/516/516
f 516/516/516 524/524/524 525/525/525
f 516/516/516 525/525/525 517/517/517
f 517/517/517 525/525/525 526/526/526
f 517/517/517 526/526/526 518/518/518
f 518/518/518 526/526/526 527/527/527
f 518/518/518 527/527/527 519/519/519
f 520/520/520 528/528/528 529/529/529
f 520/520/520 529/529/529 521/521/521
f 521/521/521 529/529/529 530/530/530
f 521/521/521 530/530/530 522/522/522
f 522/522/522 530/530/530 531/531/531
f 522/522/522 531/531/531 523/523/523
f 523/523/523 531/531/531 532/532/532
f 523/523/523 532/532/532 524/524/524
f 524/524/524 532/532/532 533/533/533
f 524/524/524 533/533/533 525/525/525
f 525/525/525 533/533/533 534/534/534
f 525/525/525 534/534/534 526/526/526
f 526/526/526 534/534/534 535/535/535
f 526/526/526 535/535/535 527/527/527
f 528/528/528 536/536/536 537/537/537
f 528/528/528 537/537/537 529/529/529
f 529/529/529 537/537/537 538/538/538
f 529/529/529 538/538/538 530/530/530
f 530/530/530 538/538/538 539/539/539
f 530/530/530 539/539/539 531/531/531
f 531/531/531 539/539/539 540/540/540
f 531/531/531 540/540/540 532/532/532
f 532/532/532 540/540/540 541/541/541
f 532/532/532 541/541/541 533/533/533
f 533/533/533 541/541/541 542/542/542
f 533/533/533 542/542/542 534/534/534
f 534/534/534 542/542/542 543/543/543
f 534/534/534 543/543/543 535/535/535
f 536/536/536 544/544/544 545/545/545
f 536/536/536 545/545/545 537/537/537
f 537/537/537 545/545/545 546/546/546
f 537/537/537 546/546/546 538/538/538
f 538/538/538 546/546/546 547/547/547
f 538/538/538 547/547/547 539/539/539
f 539/539/539 547/547/547 548/548/548
f 539/539/539 548/548/548 540/540/540
f 540/540/540 548/548/548 549/549/549
f 540/540/540 549/549/549 541/541/541
f 541/541/541 549/549/549 550/550/550
f 541/541/541 550/550/550 542/542/542
f 542/542/542 550/550/550 551/551/551
f 542/542/542 551/551/551 543/543/543
f 544/544/544 552/552/552 553/553/553
f 544/544/544 553/553/553 545/545/545
f 545/545/545 553/553/553 554/554/554
f 545/545/545 554/554/554 546/546/546
f 546/546/546 554/554/554 555/555/555
f 546/546/546 555/555/555 547/547/547
f 547/547/547 555/555/555 556/556/556
f 547/547/547 556/556/556 548/548/548
f 548/548/548 556/556/556 557/557/557
f 548/548/548 557/557/557 549/549/549
f 549/549/549 557/557/557 558/558/558
f 549/549/549 558/558/558 550/550/550
f 550/550/550 558/558/558 559/559/559
f 550/550/550 559/559/559 551/551/551
f 552/552/552 560/560/560 561/561/561
f 552/552/552 561/561/561 553/553/553
f 553/553/553 561/561/561 562/562/562
f 553/553/553 562/562/562 554/554/554
f 554/554/554 562/562/562 563/563/563
f 554/554/554 563/563/563 555/555/555
f 555/555/555 563/563/563 564/564/564
f 555/555/555 564/564/564 556/556/556
f 556/556/556 564/564/564 565/565/565
f 556/556/556 565/565/565 557/557/557
f 557/557/557 565/565/565 566/566/566
f 557/557/557 566/566/566 558/558/558
f 558/558/558 566/566/566 567/567/567
f 558/558/558 567/567/567 559/559/559
f 560/560/560 568/568/568 569/569/569
f 560/560/560 569/569/569 561/561/561
f 561/561/561 569/569/569 570/570/570
f 561/561/561 570/570/570 562/562/562
f 562/562/562 570/570/570 571/571/571
f 562/562/562 571/571/571 563/563/563
f 563/563/563 571/571/571 572/572/572
f 563/563/563 572/572/572 564/564/564
f 564/564/564 572/572/572 573/573/573
f 564/564/564 573/573/573 565/565/565
f 565/565/565 573/573/573 574/574/574
f 565/565/565 574/574/574 566/566/566
f 566/566/566 574/574/574 575/575/575
f 566/566/566 575/575/575 567/567/567
f 568/568/568 576/576/576 577/577/577
f 568/568/568 577/577/577 569/569/569
f 569/569/569 577/577/577 578/578/578
f 569/569/569 578/578/578 570/570/570
f 570/570/570 578/578/578 579/579/579
f 570/570/570 579/579/579 571/571/571
f 571/571/571 579/579/579 580/580/580
f 571/571/571 580/580/580 572/572/572
f 572/572/572 580/580/580 581/581/581
f 572/572/572 581/581/581 573/573/573
f 573/573/573 581/581/581 582/582/582
f 573/573/573 582/582/582 574/574/574
f 574/574/574 582/582/582 583/583/583
f 574/574/574 583/583/583 575/575/575
f 576/576/576 584/584/584 585/585/585
f 576/576/576 585/585/585 577/577/577
f 577/577/577 585/585/585 586/586/586
f 577/577/577 586/586/586 578/578/578
f 578/578/578 586/586/586 587/587/587
f 578/578/578 587/587/587 579/579/579
f 579/579/579 587/587/587 588/588/588
f 579/579/579 588/588/588 580/580/580
f 580/580/580 588/588/588 589/589/589
f 580/580/580 589/589/589 581/581/581
f 581/581/581 589/589/589 590/590/590
f 581/581/581 590/590/590 582/582/582
f 582/582/582 590/590/590 591/591/591
f 582/582/582 591/591/591 583/583/583
f 584/584/584 592/592/592 593/593/593
f 584/584/584 593/593/593 585/585/585
f 585/585/585 593/593/593 594/594/594
f 585/585/585 594/594/594 586/586/586
f 586/586/586 594/594/594 595/595/595
f 586/586/586 595/595/595 587/587/587
f 587/587/587 595/595/595 596/596/596
f 587/587/587 596/596/596 588/588/588
f 588/588/588 596/596/596 597/597/597
f 588/588/588 597/597/597 589/589/589
f 589/589/589 597/597/597 598/598/598
f 589/589/589 598/598/598 590/590/590
f 590/590/590 598/598/598 599/599/599
f 590/590/590 599/599/599 591/591/591
f 592/592/592 600/600/600 601/601/601
f 592/592/592 601/601/601 593/593/593
f 593/593/593 601/601/601 602/602/602
f 593/593/593 602/602/602 594/594/594
f 594/594/594 602/602/602 603/603/603
f 594/594/594 603/603/603 595/595/595
f 595/595/595 603/603/603 604/604/604
f 595/595/595 604/604/604 596/596/596
f 596/596/596 604/604/604 605/605/605
f 596/596/596 605/605/605 597/597/597
f 597/597/597 605/605/605 606/606/606
f 597/597/597 606/606/606 598/598/598
f 598/598/598 606/606/606 607/607/607
f 598/598/598 607/607/607 599/599/599
f 600/600/600 608/608/608 609/609/609
f 600/600/600 609/609/609 601/601/601
f 601/601/601 609/609/609 610/610/610
f 601/601/601 610/610/610 602/602/602
f 602/602/602 610/610/610 611/611/611
f 602/602/602 611/611/611 603/603/603
f 603/603/603 611/611/611 612/612/612
f 603/603/603 612/612/612 604/604/604
f 604/604/604 612/612/612 613/613/613
f 604/604/604 613/613/613 605/605/605
f 605/605/605 613/613/613 614/614/614
f 605/605/605 614/614/614 606/606/606
f 606/606/606 614/614/614 615/615/615
f 606/606/606 615/615/615 607/607/607
f 622/622/622 624/624/624 625/625/625
f 623/623/623 625/625/625 624/624/624
f 622/622/622 625/625/625 626/626/626
f 623/623/623 626/626/626 625/625/625
f 622/622/622 626/626/626 627/627/627
f 623/623/623 627/627/627 626/626/626
f 622/622/622 627/627/627 624/624/624
f 623/623/623 624/624/624 627/627/627
f 634/634/634 636/636/636 637/637/637
f 635/635/635 637/637/637 636/636/636
f 634/634/634 637/637/637 638/638/638
f 635/635/635 638/638/638 637/637/637
f 634/634/634 638/638/638 639/639/639
f 635/635/635 639/639/639 638/638/638
f 634/634/634 639/639/639 636/636/636
f 635/635/635 636/636/636 639/639/639
f 646/646/646 648/648/648 649/649/649
f 647/647/647 649/649/649 648/648/648
f 646/646/646 649/649/649 650/650/650
f 647/647/647 650/650/650 649/649/649
f 646/646/646 650/650/650 651/651/651
f 647/647/647 651/651/651 650/650/650
f 646/646/646 651/651/651 648/648/648
f 647/647/647 648/648/648 651/651/651
