# Blender 4.4.1
# www.blender.org
mtllib bossBattleSkydome.mtl
o 球
v 0.000000 415.734802 277.785217
v 0.000000 277.785126 415.734955
v 0.000000 97.545158 490.392792
v 0.000000 0.000000 500.000183
v 0.000000 -97.545158 490.392792
v 0.000000 -277.785126 415.734955
v -19.030128 490.392639 95.670891
v -37.328945 461.939758 187.665222
v -54.193226 415.734802 272.447662
v -68.974884 353.553375 346.760071
v -81.105888 277.785126 407.746704
v -90.120026 191.341721 453.063873
v -95.670914 97.545158 480.970032
v -97.545219 0.000000 490.392792
v -95.670914 -97.545158 480.970032
v -90.120026 -191.341721 453.063873
v -81.105888 -277.785126 407.746704
v -68.974884 -353.553375 346.760071
v -54.193226 -415.734802 272.447662
v -37.328945 -461.939758 187.665222
v -19.030128 -490.392639 95.670891
v -37.328938 490.392639 90.120003
v -73.223351 461.939758 176.776779
v -106.303833 415.734802 256.640045
v -135.299103 353.553375 326.640839
v -159.094910 277.785126 384.088959
v -176.776779 191.341721 426.776825
v -187.665253 97.545158 453.063873
v -191.341827 0.000000 461.939880
v -187.665253 -97.545158 453.063873
v -176.776779 -191.341721 426.776825
v -159.094910 -277.785126 384.088959
v -135.299103 -353.553375 326.640839
v -106.303833 -415.734802 256.640045
v -73.223351 -461.939758 176.776779
v -37.328938 -490.392639 90.120003
v -54.193218 490.392639 81.105858
v -106.303833 461.939758 159.094879
v -154.329224 415.734802 230.969925
v -196.423859 353.553375 293.968994
v -230.969986 277.785126 345.670929
v -256.640106 191.341721 384.088989
v -272.447723 97.545158 407.746704
v -277.785278 0.000000 415.734894
v -272.447723 -97.545158 407.746704
v -256.640106 -191.341721 384.088989
v -230.969986 -277.785126 345.670929
v -196.423859 -353.553375 293.968994
v -154.329224 -415.734802 230.969925
v -106.303833 -461.939758 159.094879
v -54.193218 -490.392639 81.105858
v -68.974876 490.392639 68.974854
v -135.299103 461.939758 135.299057
v -196.423843 415.734802 196.423767
v -250.000153 353.553375 250.000092
v -293.969025 277.785126 293.968933
v -326.640900 191.341721 326.640839
v -346.760162 97.545158 346.760040
v -353.553589 0.000000 353.553436
v -346.760162 -97.545158 346.760040
v -326.640900 -191.341721 326.640839
v -293.969025 -277.785126 293.968933
v -250.000153 -353.553375 250.000092
v -196.423843 -415.734802 196.423767
v -135.299103 -461.939758 135.299057
v -68.974876 -490.392639 68.974854
v -81.105881 490.392639 54.193195
v -159.094925 461.939758 106.303787
v -230.970001 415.734802 154.329163
v -293.969055 353.553375 196.423813
v -345.671021 277.785126 230.969894
v -384.089050 191.341721 256.640076
v -407.746796 97.545158 272.447601
v -415.735016 0.000000 277.785095
v -407.746796 -97.545158 272.447601
v -384.089050 -191.341721 256.640076
v -345.671021 -277.785126 230.969894
v -293.969055 -353.553375 196.423813
v -230.970001 -415.734802 154.329163
v -159.094925 -461.939758 106.303787
v -81.105881 -490.392639 54.193195
v 0.000000 500.000000 0.000000
v -90.120010 490.392639 37.328918
v -176.776779 461.939758 73.223320
v -256.640106 415.734802 106.303764
v -326.640930 353.553375 135.299072
v -384.089050 277.785126 159.094803
v -426.776917 191.341721 176.776779
v -453.063934 97.545158 187.665146
v -461.939972 0.000000 191.341675
v -453.063934 -97.545158 187.665146
v -426.776917 -191.341721 176.776779
v -384.089050 -277.785126 159.094803
v -326.640930 -353.553375 135.299072
v -256.640106 -415.734802 106.303764
v -176.776779 -461.939758 73.223320
v -90.120010 -490.392639 37.328918
v -95.670891 490.392639 19.030113
v -187.665237 461.939758 37.328918
v -272.447693 415.734802 54.193176
v -346.760162 353.553375 68.974876
v -407.746735 277.785126 81.105812
v -453.063934 191.341721 90.120026
v -480.970123 97.545158 95.670837
v -490.392822 0.000000 97.545097
v -480.970123 -97.545158 95.670837
v -453.063934 -191.341721 90.120026
v -407.746735 -277.785126 81.105812
v -346.760162 -353.553375 68.974876
v -272.447693 -415.734802 54.193176
v -187.665237 -461.939758 37.328918
v -95.670891 -490.392639 19.030113
v -97.545189 490.392639 -0.000006
v -191.341812 461.939758 -0.000011
v -277.785217 415.734802 -0.000026
v -353.553558 353.553375 0.000007
v -415.734955 277.785126 -0.000045
v -461.940002 191.341721 0.000022
v -490.392853 97.545158 -0.000045
v -500.000153 0.000000 -0.000082
v -490.392853 -97.545158 -0.000045
v -461.940002 -191.341721 0.000022
v -415.734955 -277.785126 -0.000045
v -353.553558 -353.553375 0.000007
v -277.785217 -415.734802 -0.000026
v -191.341812 -461.939758 -0.000011
v -97.545189 -490.392639 -0.000006
v -95.670883 490.392639 -19.030123
v -187.665237 461.939758 -37.328938
v -272.447662 415.734802 -54.193222
v -346.760132 353.553375 -68.974854
v -407.746704 277.785126 -81.105896
v -453.063934 191.341721 -90.119980
v -480.970093 97.545158 -95.670921
v -490.392731 0.000000 -97.545250
v -480.970093 -97.545158 -95.670921
v -453.063934 -191.341721 -90.119980
v -407.746704 -277.785126 -81.105896
v -346.760132 -353.553375 -68.974854
v -272.447662 -415.734802 -54.193222
v -187.665237 -461.939758 -37.328938
v -95.670883 -490.392639 -19.030123
v -90.119995 490.392639 -37.328922
v -176.776779 461.939758 -73.223335
v -256.640045 415.734802 -106.303802
v -326.640900 353.553375 -135.299042
v -384.088989 277.785126 -159.094879
v -426.776917 191.341721 -176.776718
v -453.063873 97.545158 -187.665222
v -461.939819 0.000000 -191.341797
v -453.063873 -97.545158 -187.665222
v -426.776917 -191.341721 -176.776718
v -384.088989 -277.785126 -159.094879
v -326.640900 -353.553375 -135.299042
v -256.640045 -415.734802 -106.303802
v -176.776779 -461.939758 -73.223335
v -90.119995 -490.392639 -37.328922
v -81.105850 490.392639 -54.193188
v -159.094894 461.939758 -106.303795
v -230.969925 415.734802 -154.329178
v -293.969025 353.553375 -196.423782
v -345.670929 277.785126 -230.969925
v -384.089050 191.341721 -256.640015
v -407.746704 97.545158 -272.447632
v -415.734802 0.000000 -277.785187
v -407.746704 -97.545158 -272.447632
v -384.089050 -191.341721 -256.640015
v -345.670929 -277.785126 -230.969925
v -293.969025 -353.553375 -196.423782
v -230.969925 -415.734802 -154.329178
v -159.094894 -461.939758 -106.303795
v -81.105850 -490.392639 -54.193188
v -68.974854 490.392639 -68.974838
v -135.299072 461.939758 -135.299057
v -196.423752 415.734802 -196.423782
v -250.000122 353.553375 -250.000061
v -293.968933 277.785126 -293.968933
v -326.640900 191.341721 -326.640778
v -346.760071 97.545158 -346.760040
v -353.553345 0.000000 -353.553467
v -346.760071 -97.545158 -346.760040
v -326.640900 -191.341721 -326.640778
v -293.968933 -277.785126 -293.968933
v -250.000122 -353.553375 -250.000061
v -196.423752 -415.734802 -196.423782
v -135.299072 -461.939758 -135.299057
v -68.974854 -490.392639 -68.974838
v -54.193192 490.392639 -81.105827
v -106.303787 461.939758 -159.094864
v -154.329147 415.734802 -230.969910
v -196.423828 353.553375 -293.968964
v -230.969910 277.785126 -345.670898
v -256.640106 191.341721 -384.088928
v -272.447601 97.545158 -407.746643
v -277.785034 0.000000 -415.734833
v -272.447601 -97.545158 -407.746643
v -256.640106 -191.341721 -384.088928
v -230.969910 -277.785126 -345.670898
v -196.423828 -353.553375 -293.968964
v -154.329147 -415.734802 -230.969910
v -106.303787 -461.939758 -159.094864
v -54.193192 -490.392639 -81.105827
v -37.328915 490.392639 -90.119965
v -73.223305 461.939758 -176.776733
v -106.303741 415.734802 -256.639984
v -135.299072 353.553375 -326.640808
v -159.094818 277.785126 -384.088898
v -176.776779 191.341721 -426.776733
v -187.665131 97.545158 -453.063782
v -191.341599 0.000000 -461.939728
v -187.665131 -97.545158 -453.063782
v -176.776779 -191.341721 -426.776733
v -159.094818 -277.785126 -384.088898
v -135.299072 -353.553375 -326.640808
v -106.303741 -415.734802 -256.639984
v -73.223305 -461.939758 -176.776733
v -37.328915 -490.392639 -90.119965
v -19.030113 490.392639 -95.670830
v -37.328903 461.939758 -187.665161
v -54.193150 415.734802 -272.447540
v -68.974869 353.553375 -346.760040
v -81.105812 277.785126 -407.746582
v -90.120026 191.341721 -453.063782
v -95.670815 97.545158 -480.969910
v -97.545013 0.000000 -490.392578
v -95.670815 -97.545158 -480.969910
v -90.120026 -191.341721 -453.063782
v -81.105812 -277.785126 -407.746582
v -68.974869 -353.553375 -346.760040
v -54.193150 -415.734802 -272.447540
v -37.328903 -461.939758 -187.665161
v -19.030113 -490.392639 -95.670830
v 0.000004 490.392639 -97.545128
v 0.000026 461.939758 -191.341736
v 0.000048 415.734802 -277.785065
v 0.000007 353.553375 -353.553467
v 0.000052 277.785126 -415.734802
v -0.000015 191.341721 -461.939789
v 0.000067 97.545158 -490.392670
v 0.000164 0.000000 -499.999847
v 0.000067 -97.545158 -490.392670
v -0.000015 -191.341721 -461.939789
v 0.000052 -277.785126 -415.734802
v 0.000007 -353.553375 -353.553467
v 0.000048 -415.734802 -277.785065
v 0.000026 -461.939758 -191.341736
v 0.000004 -490.392639 -97.545128
v 19.030119 490.392639 -95.670822
v 37.328957 461.939758 -187.665161
v 54.193241 415.734802 -272.447510
v 68.974876 353.553375 -346.760010
v 81.105911 277.785126 -407.746552
v 90.119987 191.341721 -453.063751
v 95.670952 97.545158 -480.969879
v 97.545319 0.000000 -490.392456
v 95.670952 -97.545158 -480.969879
v 90.119987 -191.341721 -453.063751
v 81.105911 -277.785126 -407.746552
v 68.974876 -353.553375 -346.760010
v 54.193241 -415.734802 -272.447510
v 37.328957 -461.939758 -187.665161
v 19.030119 -490.392639 -95.670822
v 37.328915 490.392639 -90.119949
v 73.223351 461.939758 -176.776718
v 106.303818 415.734802 -256.639893
v 135.299072 353.553375 -326.640778
v 159.094910 277.785126 -384.088837
v 176.776718 191.341721 -426.776703
v 187.665253 97.545158 -453.063690
v 191.341858 0.000000 -461.939545
v 187.665253 -97.545158 -453.063690
v 176.776718 -191.341721 -426.776703
v 159.094910 -277.785126 -384.088837
v 135.299072 -353.553375 -326.640778
v 106.303818 -415.734802 -256.639893
v 73.223351 -461.939758 -176.776718
v 37.328915 -490.392639 -90.119949
v 54.193184 490.392639 -81.105804
v 106.303818 461.939758 -159.094818
v 154.329193 415.734802 -230.969788
v 196.423828 353.553375 -293.968933
v 230.969955 277.785126 -345.670807
v 256.640015 191.341721 -384.088898
v 272.447693 97.545158 -407.746521
v 277.785217 0.000000 -415.734528
v 272.447693 -97.545158 -407.746521
v 256.640015 -191.341721 -384.088898
v 230.969955 -277.785126 -345.670807
v 196.423828 -353.553375 -293.968933
v 154.329193 -415.734802 -230.969788
v 106.303818 -461.939758 -159.094818
v 54.193184 -490.392639 -81.105804
v 68.974838 490.392639 -68.974808
v 135.299072 461.939758 -135.299011
v 196.423767 415.734802 -196.423630
v 250.000107 353.553375 -250.000031
v 293.968964 277.785126 -293.968811
v 326.640808 191.341721 -326.640747
v 346.760101 97.545158 -346.759888
v 353.553436 0.000000 -353.553101
v 346.760101 -97.545158 -346.759888
v 326.640808 -191.341721 -326.640747
v 293.968964 -277.785126 -293.968811
v 250.000107 -353.553375 -250.000031
v 196.423767 -415.734802 -196.423630
v 135.299072 -461.939758 -135.299011
v 68.974838 -490.392639 -68.974808
v 0.000000 -500.000000 0.000000
v 81.105827 490.392639 -54.193157
v 159.094879 461.939758 -106.303749
v 230.969894 415.734802 -154.329025
v 293.968994 353.553375 -196.423752
v 345.670929 277.785126 -230.969803
v 384.088959 191.341721 -256.639984
v 407.746704 97.545158 -272.447449
v 415.734802 0.000000 -277.784821
v 407.746704 -97.545158 -272.447449
v 384.088959 -191.341721 -256.639984
v 345.670929 -277.785126 -230.969803
v 293.968994 -353.553375 -196.423752
v 230.969894 -415.734802 -154.329025
v 159.094879 -461.939758 -106.303749
v 81.105827 -490.392639 -54.193157
v 90.119957 490.392639 -37.328892
v 176.776733 461.939758 -73.223282
v 256.639954 415.734802 -106.303658
v 326.640869 353.553375 -135.299026
v 384.088928 277.785126 -159.094727
v 426.776794 191.341721 -176.776703
v 453.063843 97.545158 -187.665009
v 461.939697 0.000000 -191.341415
v 453.063843 -97.545158 -187.665009
v 426.776794 -191.341721 -176.776703
v 384.088928 -277.785126 -159.094727
v 326.640869 -353.553375 -135.299026
v 256.639954 -415.734802 -106.303658
v 176.776733 -461.939758 -73.223282
v 90.119957 -490.392639 -37.328892
v 95.670830 490.392639 -19.030098
v 187.665176 461.939758 -37.328892
v 272.447510 415.734802 -54.193096
v 346.760101 353.553375 -68.974838
v 407.746613 277.785126 -81.105743
v 453.063812 191.341721 -90.119972
v 480.970001 97.545158 -95.670731
v 490.392517 0.000000 -97.544884
v 480.970001 -97.545158 -95.670731
v 453.063812 -191.341721 -90.119972
v 407.746613 -277.785126 -81.105743
v 346.760101 -353.553375 -68.974838
v 272.447510 -415.734802 -54.193096
v 187.665176 -461.939758 -37.328892
v 95.670830 -490.392639 -19.030098
v 97.545135 490.392639 0.000009
v 191.341736 461.939758 0.000026
v 277.785065 415.734802 0.000075
v 353.553497 353.553375 0.000015
v 415.734833 277.785126 0.000082
v 461.939850 191.341721 0.000007
v 490.392731 97.545158 0.000134
v 499.999817 0.000000 0.000224
v 490.392731 -97.545158 0.000134
v 461.939850 -191.341721 0.000007
v 415.734833 -277.785126 0.000082
v 353.553497 -353.553375 0.000015
v 277.785065 -415.734802 0.000075
v 191.341736 -461.939758 0.000026
v 97.545135 -490.392639 0.000009
v 95.670822 490.392639 19.030115
v 187.665161 461.939758 37.328938
v 272.447479 415.734802 54.193237
v 346.760071 353.553375 68.974869
v 407.746552 277.785126 81.105911
v 453.063782 191.341721 90.119980
v 480.969910 97.545158 95.670982
v 490.392426 0.000000 97.545326
v 480.969910 -97.545158 95.670982
v 453.063782 -191.341721 90.119980
v 407.746552 -277.785126 81.105911
v 346.760071 -353.553375 68.974869
v 272.447479 -415.734802 54.193237
v 187.665161 -461.939758 37.328938
v 95.670822 -490.392639 19.030115
v 90.119949 490.392639 37.328907
v 176.776718 461.939758 73.223320
v 256.639862 415.734802 106.303780
v 326.640839 353.553375 135.299042
v 384.088837 277.785126 159.094864
v 426.776764 191.341721 176.776688
v 453.063690 97.545158 187.665237
v 461.939484 0.000000 191.341812
v 453.063690 -97.545158 187.665237
v 426.776764 -191.341721 176.776688
v 384.088837 -277.785126 159.094864
v 326.640839 -353.553375 135.299042
v 256.639862 -415.734802 106.303780
v 176.776718 -461.939758 73.223320
v 90.119949 -490.392639 37.328907
v 81.105804 490.392639 54.193165
v 159.094818 461.939758 106.303764
v 230.969742 415.734802 154.329132
v 293.968964 353.553375 196.423767
v 345.670807 277.785126 230.969894
v 384.088928 191.341721 256.639954
v 407.746521 97.545158 272.447632
v 415.734497 0.000000 277.785126
v 407.746521 -97.545158 272.447632
v 384.088928 -191.341721 256.639954
v 345.670807 -277.785126 230.969894
v 293.968964 -353.553375 196.423767
v 230.969742 -415.734802 154.329132
v 159.094818 -461.939758 106.303764
v 81.105804 -490.392639 54.193165
v 68.974815 490.392639 68.974808
v 135.299026 461.939758 135.299011
v 196.423584 415.734802 196.423691
v 250.000061 353.553375 250.000031
v 293.968811 277.785126 293.968872
v 326.640778 191.341721 326.640686
v 346.759888 97.545158 346.759979
v 353.553070 0.000000 353.553314
v 346.759888 -97.545158 346.759979
v 326.640778 -191.341721 326.640686
v 293.968811 -277.785126 293.968872
v 250.000061 -353.553375 250.000031
v 196.423584 -415.734802 196.423691
v 135.299026 -461.939758 135.299011
v 68.974815 -490.392639 68.974808
v 54.193157 490.392639 81.105789
v 106.303749 461.939758 159.094803
v 154.328995 415.734802 230.969803
v 196.423767 353.553375 293.968933
v 230.969772 277.785126 345.670807
v 256.639984 191.341721 384.088837
v 272.447449 97.545158 407.746552
v 277.784790 0.000000 415.734619
v 272.447449 -97.545158 407.746552
v 256.639984 -191.341721 384.088837
v 230.969772 -277.785126 345.670807
v 196.423767 -353.553375 293.968933
v 154.328995 -415.734802 230.969803
v 106.303749 -461.939758 159.094803
v 54.193157 -490.392639 81.105789
v 37.328892 490.392639 90.119919
v 73.223282 461.939758 176.776688
v 106.303612 415.734802 256.639832
v 135.299042 353.553375 326.640778
v 159.094696 277.785126 384.088776
v 176.776703 191.341721 426.776642
v 187.665009 97.545158 453.063660
v 191.341400 0.000000 461.939484
v 187.665009 -97.545158 453.063660
v 176.776703 -191.341721 426.776642
v 159.094696 -277.785126 384.088776
v 135.299042 -353.553375 326.640778
v 106.303612 -415.734802 256.639832
v 73.223282 -461.939758 176.776688
v 37.328892 -490.392639 90.119919
v 19.030100 490.392639 95.670784
v 37.328888 461.939758 187.665115
v 54.193054 415.734802 272.447357
v 68.974831 353.553375 346.760010
v 81.105713 277.785126 407.746429
v 90.119957 191.341721 453.063660
v 95.670723 97.545158 480.969788
v 97.544868 0.000000 490.392273
v 95.670723 -97.545158 480.969788
v 90.119957 -191.341721 453.063660
v 81.105713 -277.785126 407.746429
v 68.974831 -353.553375 346.760010
v 54.193054 -415.734802 272.447357
v 37.328888 -461.939758 187.665115
v 19.030100 -490.392639 95.670784
v -0.000007 490.392639 97.545082
v -0.000034 461.939758 191.341675
v -0.000045 353.553375 353.553436
v -0.000030 191.341721 461.939697
v -0.000030 -191.341721 461.939697
v -0.000045 -353.553375 353.553436
v -0.000108 -415.734802 277.784882
v -0.000034 -461.939758 191.341675
v -0.000007 -490.392639 97.545082
vn -0.0000 -0.8286 -0.5598
vn -0.0000 -0.5528 -0.8333
vn -0.0000 -0.1939 -0.9810
vn -0.0000 -0.0000 -1.0000
vn -0.0000 0.1939 -0.9810
vn -0.0000 0.5528 -0.8333
vn 0.0392 -0.9796 -0.1971
vn 0.0757 -0.9217 -0.3804
vn 0.1092 -0.8286 -0.5490
vn 0.1385 -0.7041 -0.6965
vn 0.1626 -0.5528 -0.8173
vn 0.1804 -0.3805 -0.9070
vn 0.1914 -0.1939 -0.9622
vn 0.1951 -0.0000 -0.9808
vn 0.1914 0.1939 -0.9622
vn 0.1804 0.3805 -0.9070
vn 0.1626 0.5528 -0.8173
vn 0.1385 0.7041 -0.6965
vn 0.1092 0.8286 -0.5490
vn 0.0757 0.9217 -0.3804
vn 0.0392 0.9796 -0.1971
vn 0.0769 -0.9796 -0.1857
vn 0.1484 -0.9217 -0.3584
vn 0.2142 -0.8286 -0.5172
vn 0.2718 -0.7041 -0.6561
vn 0.3189 -0.5528 -0.7699
vn 0.3539 -0.3805 -0.8544
vn 0.3754 -0.1939 -0.9063
vn 0.3827 -0.0000 -0.9239
vn 0.3754 0.1939 -0.9063
vn 0.3539 0.3805 -0.8544
vn 0.3189 0.5528 -0.7699
vn 0.2718 0.7041 -0.6561
vn 0.2142 0.8286 -0.5172
vn 0.1484 0.9217 -0.3584
vn 0.0769 0.9796 -0.1857
vn 0.1117 -0.9796 -0.1671
vn 0.2155 -0.9217 -0.3225
vn 0.3110 -0.8286 -0.4654
vn 0.3945 -0.7041 -0.5905
vn 0.4630 -0.5528 -0.6929
vn 0.5138 -0.3805 -0.7689
vn 0.5450 -0.1939 -0.8157
vn 0.5556 -0.0000 -0.8315
vn 0.5450 0.1939 -0.8157
vn 0.5138 0.3805 -0.7689
vn 0.4630 0.5528 -0.6929
vn 0.3945 0.7041 -0.5905
vn 0.3110 0.8286 -0.4654
vn 0.2155 0.9217 -0.3225
vn 0.1117 0.9796 -0.1671
vn 0.1421 -0.9796 -0.1421
vn 0.2743 -0.9217 -0.2743
vn 0.3958 -0.8286 -0.3958
vn 0.5021 -0.7041 -0.5021
vn 0.5893 -0.5528 -0.5893
vn 0.6539 -0.3805 -0.6539
vn 0.6937 -0.1939 -0.6937
vn 0.7071 -0.0000 -0.7071
vn 0.6937 0.1939 -0.6937
vn 0.6539 0.3805 -0.6539
vn 0.5893 0.5528 -0.5893
vn 0.5021 0.7041 -0.5021
vn 0.3958 0.8286 -0.3958
vn 0.2743 0.9217 -0.2743
vn 0.1421 0.9796 -0.1421
vn 0.1671 -0.9796 -0.1117
vn 0.3225 -0.9217 -0.2155
vn 0.4654 -0.8286 -0.3110
vn 0.5905 -0.7041 -0.3945
vn 0.6929 -0.5528 -0.4630
vn 0.7689 -0.3805 -0.5138
vn 0.8157 -0.1939 -0.5450
vn 0.8315 -0.0000 -0.5556
vn 0.8157 0.1939 -0.5450
vn 0.7689 0.3805 -0.5138
vn 0.6929 0.5528 -0.4630
vn 0.5905 0.7041 -0.3945
vn 0.4654 0.8286 -0.3110
vn 0.3225 0.9217 -0.2155
vn 0.1671 0.9796 -0.1117
vn -0.0000 -1.0000 -0.0000
vn 0.1857 -0.9796 -0.0769
vn 0.3584 -0.9217 -0.1484
vn 0.5172 -0.8286 -0.2142
vn 0.6561 -0.7041 -0.2718
vn 0.7699 -0.5528 -0.3189
vn 0.8544 -0.3805 -0.3539
vn 0.9063 -0.1939 -0.3754
vn 0.9239 -0.0000 -0.3827
vn 0.9063 0.1939 -0.3754
vn 0.8544 0.3805 -0.3539
vn 0.7699 0.5528 -0.3189
vn 0.6561 0.7041 -0.2718
vn 0.5172 0.8286 -0.2142
vn 0.3584 0.9217 -0.1484
vn 0.1857 0.9796 -0.0769
vn 0.1971 -0.9796 -0.0392
vn 0.3804 -0.9217 -0.0757
vn 0.5490 -0.8286 -0.1092
vn 0.6965 -0.7041 -0.1385
vn 0.8173 -0.5528 -0.1626
vn 0.9070 -0.3805 -0.1804
vn 0.9622 -0.1939 -0.1914
vn 0.9808 -0.0000 -0.1951
vn 0.9622 0.1939 -0.1914
vn 0.9070 0.3805 -0.1804
vn 0.8173 0.5528 -0.1626
vn 0.6965 0.7041 -0.1385
vn 0.5490 0.8286 -0.1092
vn 0.3804 0.9217 -0.0757
vn 0.1971 0.9796 -0.0392
vn 0.2010 -0.9796 -0.0000
vn 0.3879 -0.9217 -0.0000
vn 0.5598 -0.8286 -0.0000
vn 0.7101 -0.7041 -0.0000
vn 0.8333 -0.5528 -0.0000
vn 0.9248 -0.3805 -0.0000
vn 0.9810 -0.1939 -0.0000
vn 1.0000 -0.0000 -0.0000
vn 0.9810 0.1939 -0.0000
vn 0.9248 0.3805 -0.0000
vn 0.8333 0.5528 -0.0000
vn 0.7101 0.7041 -0.0000
vn 0.5598 0.8286 -0.0000
vn 0.3879 0.9217 -0.0000
vn 0.2010 0.9796 -0.0000
vn 0.1971 -0.9796 0.0392
vn 0.3804 -0.9217 0.0757
vn 0.5490 -0.8286 0.1092
vn 0.6965 -0.7041 0.1385
vn 0.8173 -0.5528 0.1626
vn 0.9070 -0.3805 0.1804
vn 0.9622 -0.1939 0.1914
vn 0.9808 -0.0000 0.1951
vn 0.9622 0.1939 0.1914
vn 0.9070 0.3805 0.1804
vn 0.8173 0.5528 0.1626
vn 0.6965 0.7041 0.1385
vn 0.5490 0.8286 0.1092
vn 0.3804 0.9217 0.0757
vn 0.1971 0.9796 0.0392
vn 0.1857 -0.9796 0.0769
vn 0.3584 -0.9217 0.1484
vn 0.5172 -0.8286 0.2142
vn 0.6561 -0.7041 0.2718
vn 0.7699 -0.5528 0.3189
vn 0.8544 -0.3805 0.3539
vn 0.9063 -0.1939 0.3754
vn 0.9239 -0.0000 0.3827
vn 0.9063 0.1939 0.3754
vn 0.8544 0.3805 0.3539
vn 0.7699 0.5528 0.3189
vn 0.6561 0.7041 0.2718
vn 0.5172 0.8286 0.2142
vn 0.3584 0.9217 0.1484
vn 0.1857 0.9796 0.0769
vn 0.1671 -0.9796 0.1117
vn 0.3225 -0.9217 0.2155
vn 0.4654 -0.8286 0.3110
vn 0.5905 -0.7041 0.3945
vn 0.6929 -0.5528 0.4630
vn 0.7689 -0.3805 0.5138
vn 0.8157 -0.1939 0.5450
vn 0.8315 -0.0000 0.5556
vn 0.8157 0.1939 0.5450
vn 0.7689 0.3805 0.5138
vn 0.6929 0.5528 0.4630
vn 0.5905 0.7041 0.3945
vn 0.4654 0.8286 0.3110
vn 0.3225 0.9217 0.2155
vn 0.1671 0.9796 0.1117
vn 0.1421 -0.9796 0.1421
vn 0.2743 -0.9217 0.2743
vn 0.3958 -0.8286 0.3958
vn 0.5021 -0.7041 0.5021
vn 0.5893 -0.5528 0.5893
vn 0.6539 -0.3805 0.6539
vn 0.6937 -0.1939 0.6937
vn 0.7071 -0.0000 0.7071
vn 0.6937 0.1939 0.6937
vn 0.6539 0.3805 0.6539
vn 0.5893 0.5528 0.5893
vn 0.5021 0.7041 0.5021
vn 0.3958 0.8286 0.3958
vn 0.2743 0.9217 0.2743
vn 0.1421 0.9796 0.1421
vn 0.1117 -0.9796 0.1671
vn 0.2155 -0.9217 0.3225
vn 0.3110 -0.8286 0.4654
vn 0.3945 -0.7041 0.5905
vn 0.4630 -0.5528 0.6929
vn 0.5138 -0.3805 0.7689
vn 0.5450 -0.1939 0.8157
vn 0.5556 -0.0000 0.8315
vn 0.5450 0.1939 0.8157
vn 0.5138 0.3805 0.7689
vn 0.4630 0.5528 0.6929
vn 0.3945 0.7041 0.5905
vn 0.3110 0.8286 0.4654
vn 0.2155 0.9217 0.3225
vn 0.1117 0.9796 0.1671
vn 0.0769 -0.9796 0.1857
vn 0.1484 -0.9217 0.3584
vn 0.2142 -0.8286 0.5172
vn 0.2718 -0.7041 0.6561
vn 0.3189 -0.5528 0.7699
vn 0.3539 -0.3805 0.8544
vn 0.3754 -0.1939 0.9063
vn 0.3827 -0.0000 0.9239
vn 0.3754 0.1939 0.9063
vn 0.3539 0.3805 0.8544
vn 0.3189 0.5528 0.7699
vn 0.2718 0.7041 0.6561
vn 0.2142 0.8286 0.5172
vn 0.1484 0.9217 0.3584
vn 0.0769 0.9796 0.1857
vn 0.0392 -0.9796 0.1971
vn 0.0757 -0.9217 0.3804
vn 0.1092 -0.8286 0.5490
vn 0.1385 -0.7041 0.6965
vn 0.1626 -0.5528 0.8173
vn 0.1804 -0.3805 0.9070
vn 0.1914 -0.1939 0.9622
vn 0.1951 -0.0000 0.9808
vn 0.1914 0.1939 0.9622
vn 0.1804 0.3805 0.9070
vn 0.1626 0.5528 0.8173
vn 0.1385 0.7041 0.6965
vn 0.1092 0.8286 0.5490
vn 0.0757 0.9217 0.3804
vn 0.0392 0.9796 0.1971
vn -0.0000 -0.9796 0.2010
vn -0.0000 -0.9217 0.3879
vn -0.0000 -0.8286 0.5598
vn -0.0000 -0.7041 0.7101
vn -0.0000 -0.5528 0.8333
vn -0.0000 -0.3805 0.9248
vn -0.0000 -0.1939 0.9810
vn -0.0000 -0.0000 1.0000
vn -0.0000 0.1939 0.9810
vn -0.0000 0.3805 0.9248
vn -0.0000 0.5528 0.8333
vn -0.0000 0.7041 0.7101
vn -0.0000 0.8286 0.5598
vn -0.0000 0.9217 0.3879
vn -0.0000 0.9796 0.2010
vn -0.0392 -0.9796 0.1971
vn -0.0757 -0.9217 0.3804
vn -0.1092 -0.8286 0.5490
vn -0.1385 -0.7041 0.6965
vn -0.1626 -0.5528 0.8173
vn -0.1804 -0.3805 0.9070
vn -0.1914 -0.1939 0.9622
vn -0.1951 -0.0000 0.9808
vn -0.1914 0.1939 0.9622
vn -0.1804 0.3805 0.9070
vn -0.1626 0.5528 0.8173
vn -0.1385 0.7041 0.6965
vn -0.1092 0.8286 0.5490
vn -0.0757 0.9217 0.3804
vn -0.0392 0.9796 0.1971
vn -0.0769 -0.9796 0.1857
vn -0.1484 -0.9217 0.3584
vn -0.2142 -0.8286 0.5172
vn -0.2718 -0.7041 0.6561
vn -0.3189 -0.5528 0.7699
vn -0.3539 -0.3805 0.8544
vn -0.3754 -0.1939 0.9063
vn -0.3827 -0.0000 0.9239
vn -0.3754 0.1939 0.9063
vn -0.3539 0.3805 0.8544
vn -0.3189 0.5528 0.7699
vn -0.2718 0.7041 0.6561
vn -0.2142 0.8286 0.5172
vn -0.1484 0.9217 0.3584
vn -0.0769 0.9796 0.1857
vn -0.1117 -0.9796 0.1671
vn -0.2155 -0.9217 0.3225
vn -0.3110 -0.8286 0.4654
vn -0.3945 -0.7041 0.5905
vn -0.4630 -0.5528 0.6929
vn -0.5138 -0.3805 0.7689
vn -0.5450 -0.1939 0.8157
vn -0.5556 -0.0000 0.8315
vn -0.5450 0.1939 0.8157
vn -0.5138 0.3805 0.7689
vn -0.4630 0.5528 0.6929
vn -0.3945 0.7041 0.5905
vn -0.3110 0.8286 0.4654
vn -0.2155 0.9217 0.3225
vn -0.1117 0.9796 0.1671
vn -0.1421 -0.9796 0.1421
vn -0.2743 -0.9217 0.2743
vn -0.3958 -0.8286 0.3958
vn -0.5021 -0.7041 0.5021
vn -0.5893 -0.5528 0.5893
vn -0.6539 -0.3805 0.6539
vn -0.6937 -0.1939 0.6937
vn -0.7071 -0.0000 0.7071
vn -0.6937 0.1939 0.6937
vn -0.6539 0.3805 0.6539
vn -0.5893 0.5528 0.5893
vn -0.5021 0.7041 0.5021
vn -0.3958 0.8286 0.3958
vn -0.2743 0.9217 0.2743
vn -0.1421 0.9796 0.1421
vn -0.0000 1.0000 -0.0000
vn -0.1671 -0.9796 0.1117
vn -0.3225 -0.9217 0.2155
vn -0.4654 -0.8286 0.3110
vn -0.5905 -0.7041 0.3945
vn -0.6929 -0.5528 0.4630
vn -0.7689 -0.3805 0.5138
vn -0.8157 -0.1939 0.5450
vn -0.8315 -0.0000 0.5556
vn -0.8157 0.1939 0.5450
vn -0.7689 0.3805 0.5138
vn -0.6929 0.5528 0.4630
vn -0.5905 0.7041 0.3945
vn -0.4654 0.8286 0.3110
vn -0.3225 0.9217 0.2155
vn -0.1671 0.9796 0.1117
vn -0.1857 -0.9796 0.0769
vn -0.3584 -0.9217 0.1484
vn -0.5172 -0.8286 0.2142
vn -0.6561 -0.7041 0.2718
vn -0.7699 -0.5528 0.3189
vn -0.8544 -0.3805 0.3539
vn -0.9063 -0.1939 0.3754
vn -0.9239 -0.0000 0.3827
vn -0.9063 0.1939 0.3754
vn -0.8544 0.3805 0.3539
vn -0.7699 0.5528 0.3189
vn -0.6561 0.7041 0.2718
vn -0.5172 0.8286 0.2142
vn -0.3584 0.9217 0.1484
vn -0.1857 0.9796 0.0769
vn -0.1971 -0.9796 0.0392
vn -0.3804 -0.9217 0.0757
vn -0.5490 -0.8286 0.1092
vn -0.6965 -0.7041 0.1385
vn -0.8173 -0.5528 0.1626
vn -0.9070 -0.3805 0.1804
vn -0.9622 -0.1939 0.1914
vn -0.9808 -0.0000 0.1951
vn -0.9622 0.1939 0.1914
vn -0.9070 0.3805 0.1804
vn -0.8173 0.5528 0.1626
vn -0.6965 0.7041 0.1385
vn -0.5490 0.8286 0.1092
vn -0.3804 0.9217 0.0757
vn -0.1971 0.9796 0.0392
vn -0.2010 -0.9796 -0.0000
vn -0.3879 -0.9217 -0.0000
vn -0.5598 -0.8286 -0.0000
vn -0.7101 -0.7041 -0.0000
vn -0.8333 -0.5528 -0.0000
vn -0.9248 -0.3805 -0.0000
vn -0.9810 -0.1939 -0.0000
vn -1.0000 -0.0000 -0.0000
vn -0.9810 0.1939 -0.0000
vn -0.9248 0.3805 -0.0000
vn -0.8333 0.5528 -0.0000
vn -0.7101 0.7041 -0.0000
vn -0.5598 0.8286 -0.0000
vn -0.3879 0.9217 -0.0000
vn -0.2010 0.9796 -0.0000
vn -0.1971 -0.9796 -0.0392
vn -0.3804 -0.9217 -0.0757
vn -0.5490 -0.8286 -0.1092
vn -0.6965 -0.7041 -0.1385
vn -0.8173 -0.5528 -0.1626
vn -0.9070 -0.3805 -0.1804
vn -0.9622 -0.1939 -0.1914
vn -0.9808 -0.0000 -0.1951
vn -0.9622 0.1939 -0.1914
vn -0.9070 0.3805 -0.1804
vn -0.8173 0.5528 -0.1626
vn -0.6965 0.7041 -0.1385
vn -0.5490 0.8286 -0.1092
vn -0.3804 0.9217 -0.0757
vn -0.1971 0.9796 -0.0392
vn -0.1857 -0.9796 -0.0769
vn -0.3584 -0.9217 -0.1484
vn -0.5172 -0.8286 -0.2142
vn -0.6561 -0.7041 -0.2718
vn -0.7699 -0.5528 -0.3189
vn -0.8544 -0.3805 -0.3539
vn -0.9063 -0.1939 -0.3754
vn -0.9239 -0.0000 -0.3827
vn -0.9063 0.1939 -0.3754
vn -0.8544 0.3805 -0.3539
vn -0.7699 0.5528 -0.3189
vn -0.6561 0.7041 -0.2718
vn -0.5172 0.8286 -0.2142
vn -0.3584 0.9217 -0.1484
vn -0.1857 0.9796 -0.0769
vn -0.1671 -0.9796 -0.1117
vn -0.3225 -0.9217 -0.2155
vn -0.4654 -0.8286 -0.3110
vn -0.5905 -0.7041 -0.3945
vn -0.6929 -0.5528 -0.4630
vn -0.7689 -0.3805 -0.5138
vn -0.8157 -0.1939 -0.5450
vn -0.8315 -0.0000 -0.5556
vn -0.8157 0.1939 -0.5450
vn -0.7689 0.3805 -0.5138
vn -0.6929 0.5528 -0.4630
vn -0.5905 0.7041 -0.3945
vn -0.4654 0.8286 -0.3110
vn -0.3225 0.9217 -0.2155
vn -0.1671 0.9796 -0.1117
vn -0.1421 -0.9796 -0.1421
vn -0.2743 -0.9217 -0.2743
vn -0.3958 -0.8286 -0.3958
vn -0.5021 -0.7041 -0.5021
vn -0.5893 -0.5528 -0.5893
vn -0.6539 -0.3805 -0.6539
vn -0.6937 -0.1939 -0.6937
vn -0.7071 -0.0000 -0.7071
vn -0.6937 0.1939 -0.6937
vn -0.6539 0.3805 -0.6539
vn -0.5893 0.5528 -0.5893
vn -0.5021 0.7041 -0.5021
vn -0.3958 0.8286 -0.3958
vn -0.2743 0.9217 -0.2743
vn -0.1421 0.9796 -0.1421
vn -0.1117 -0.9796 -0.1671
vn -0.2155 -0.9217 -0.3225
vn -0.3110 -0.8286 -0.4654
vn -0.3945 -0.7041 -0.5905
vn -0.4630 -0.5528 -0.6929
vn -0.5138 -0.3805 -0.7689
vn -0.5450 -0.1939 -0.8157
vn -0.5556 -0.0000 -0.8315
vn -0.5450 0.1939 -0.8157
vn -0.5138 0.3805 -0.7689
vn -0.4630 0.5528 -0.6929
vn -0.3945 0.7041 -0.5905
vn -0.3110 0.8286 -0.4654
vn -0.2155 0.9217 -0.3225
vn -0.1117 0.9796 -0.1671
vn -0.0769 -0.9796 -0.1857
vn -0.1484 -0.9217 -0.3584
vn -0.2142 -0.8286 -0.5172
vn -0.2718 -0.7041 -0.6561
vn -0.3189 -0.5528 -0.7699
vn -0.3539 -0.3805 -0.8544
vn -0.3754 -0.1939 -0.9063
vn -0.3827 -0.0000 -0.9239
vn -0.3754 0.1939 -0.9063
vn -0.3539 0.3805 -0.8544
vn -0.3189 0.5528 -0.7699
vn -0.2718 0.7041 -0.6561
vn -0.2142 0.8286 -0.5172
vn -0.1484 0.9217 -0.3584
vn -0.0769 0.9796 -0.1857
vn -0.0392 -0.9796 -0.1971
vn -0.0757 -0.9217 -0.3804
vn -0.1092 -0.8286 -0.5490
vn -0.1385 -0.7041 -0.6965
vn -0.1626 -0.5528 -0.8173
vn -0.1804 -0.3805 -0.9070
vn -0.1914 -0.1939 -0.9622
vn -0.1951 -0.0000 -0.9808
vn -0.1914 0.1939 -0.9622
vn -0.1804 0.3805 -0.9070
vn -0.1626 0.5528 -0.8173
vn -0.1385 0.7041 -0.6965
vn -0.1092 0.8286 -0.5490
vn -0.0757 0.9217 -0.3804
vn -0.0392 0.9796 -0.1971
vn -0.0000 -0.9796 -0.2010
vn -0.0000 -0.9217 -0.3879
vn -0.0000 -0.7041 -0.7101
vn -0.0000 -0.3805 -0.9248
vn -0.0000 0.3805 -0.9248
vn -0.0000 0.7041 -0.7101
vn -0.0000 0.8286 -0.5598
vn -0.0000 0.9217 -0.3879
vn -0.0000 0.9796 -0.2010
vt 0.718750 0.125000
vt 0.750000 0.187500
vt 0.750000 0.125000
vt 0.750000 0.562500
vt 0.718750 0.625000
vt 0.750000 0.625000
vt 0.718750 0.062500
vt 0.750000 0.062500
vt 0.718750 0.500000
vt 0.750000 0.500000
vt 0.750000 0.937500
vt 0.718750 0.937500
vt 0.734375 1.000000
vt 0.734375 0.000000
vt 0.718750 0.437500
vt 0.750000 0.437500
vt 0.750000 0.875000
vt 0.718750 0.375000
vt 0.750000 0.375000
vt 0.750000 0.812500
vt 0.718750 0.875000
vt 0.718750 0.312500
vt 0.750000 0.312500
vt 0.750000 0.750000
vt 0.718750 0.812500
vt 0.718750 0.250000
vt 0.750000 0.250000
vt 0.718750 0.687500
vt 0.750000 0.687500
vt 0.718750 0.187500
vt 0.687500 0.687500
vt 0.718750 0.750000
vt 0.687500 0.250000
vt 0.687500 0.625000
vt 0.687500 0.187500
vt 0.718750 0.562500
vt 0.687500 0.062500
vt 0.687500 0.500000
vt 0.687500 0.937500
vt 0.703125 1.000000
vt 0.703125 0.000000
vt 0.687500 0.437500
vt 0.687500 0.875000
vt 0.687500 0.375000
vt 0.687500 0.812500
vt 0.687500 0.312500
vt 0.687500 0.750000
vt 0.656250 0.500000
vt 0.656250 0.875000
vt 0.656250 0.375000
vt 0.656250 0.812500
vt 0.656250 0.750000
vt 0.656250 0.312500
vt 0.656250 0.687500
vt 0.656250 0.250000
vt 0.656250 0.625000
vt 0.656250 0.125000
vt 0.687500 0.125000
vt 0.687500 0.562500
vt 0.656250 0.937500
vt 0.671875 1.000000
vt 0.671875 0.000000
vt 0.656250 0.062500
vt 0.625000 0.187500
vt 0.656250 0.187500
vt 0.625000 0.625000
vt 0.656250 0.562500
vt 0.625000 0.062500
vt 0.625000 0.500000
vt 0.625000 0.937500
vt 0.640625 1.000000
vt 0.640625 0.000000
vt 0.625000 0.437500
vt 0.656250 0.437500
vt 0.625000 0.875000
vt 0.625000 0.375000
vt 0.625000 0.812500
vt 0.625000 0.750000
vt 0.625000 0.250000
vt 0.625000 0.687500
vt 0.593750 0.375000
vt 0.593750 0.812500
vt 0.625000 0.312500
vt 0.593750 0.750000
vt 0.593750 0.250000
vt 0.593750 0.625000
vt 0.593750 0.125000
vt 0.625000 0.125000
vt 0.625000 0.562500
vt 0.593750 0.062500
vt 0.593750 0.562500
vt 0.593750 0.937500
vt 0.609375 1.000000
vt 0.609375 0.000000
vt 0.593750 0.437500
vt 0.593750 0.875000
vt 0.562500 0.125000
vt 0.593750 0.187500
vt 0.562500 0.625000
vt 0.593750 0.500000
vt 0.562500 0.562500
vt 0.562500 0.937500
vt 0.578125 1.000000
vt 0.578125 0.000000
vt 0.562500 0.062500
vt 0.562500 0.437500
vt 0.562500 0.875000
vt 0.562500 0.375000
vt 0.562500 0.812500
vt 0.593750 0.312500
vt 0.562500 0.250000
vt 0.593750 0.687500
vt 0.562500 0.750000
vt 0.562500 0.187500
vt 0.531250 0.812500
vt 0.562500 0.312500
vt 0.531250 0.375000
vt 0.531250 0.750000
vt 0.531250 0.250000
vt 0.562500 0.687500
vt 0.531250 0.625000
vt 0.531250 0.187500
vt 0.531250 0.062500
vt 0.562500 0.500000
vt 0.531250 0.562500
vt 0.531250 0.937500
vt 0.546875 1.000000
vt 0.546875 0.000000
vt 0.531250 0.437500
vt 0.531250 0.875000
vt 0.500000 0.625000
vt 0.500000 0.125000
vt 0.531250 0.125000
vt 0.531250 0.500000
vt 0.500000 0.562500
vt 0.500000 0.937500
vt 0.515625 1.000000
vt 0.515625 0.000000
vt 0.500000 0.062500
vt 0.500000 0.437500
vt 0.500000 0.875000
vt 0.500000 0.375000
vt 0.500000 0.812500
vt 0.531250 0.312500
vt 0.500000 0.750000
vt 0.500000 0.250000
vt 0.531250 0.687500
vt 0.500000 0.312500
vt 0.468750 0.375000
vt 0.468750 0.750000
vt 0.468750 0.250000
vt 0.500000 0.687500
vt 0.500000 0.187500
vt 0.468750 0.625000
vt 0.468750 0.125000
vt 0.468750 0.062500
vt 0.500000 0.500000
vt 0.468750 0.562500
vt 0.468750 0.937500
vt 0.484375 1.000000
vt 0.484375 0.000000
vt 0.468750 0.437500
vt 0.468750 0.812500
vt 0.437500 0.062500
vt 0.468750 0.500000
vt 0.437500 0.562500
vt 0.437500 0.937500
vt 0.453125 1.000000
vt 0.453125 0.000000
vt 0.437500 0.437500
vt 0.437500 0.875000
vt 0.468750 0.875000
vt 0.437500 0.375000
vt 0.437500 0.812500
vt 0.468750 0.312500
vt 0.437500 0.750000
vt 0.437500 0.250000
vt 0.468750 0.687500
vt 0.468750 0.187500
vt 0.437500 0.625000
vt 0.437500 0.125000
vt 0.406250 0.750000
vt 0.406250 0.250000
vt 0.437500 0.312500
vt 0.437500 0.687500
vt 0.437500 0.187500
vt 0.406250 0.625000
vt 0.406250 0.125000
vt 0.437500 0.500000
vt 0.406250 0.562500
vt 0.406250 0.937500
vt 0.421875 1.000000
vt 0.421875 0.000000
vt 0.406250 0.062500
vt 0.406250 0.437500
vt 0.406250 0.875000
vt 0.406250 0.375000
vt 0.406250 0.500000
vt 0.375000 0.562500
vt 0.375000 0.937500
vt 0.390625 1.000000
vt 0.390625 0.000000
vt 0.375000 0.062500
vt 0.375000 0.437500
vt 0.375000 0.875000
vt 0.375000 0.375000
vt 0.375000 0.812500
vt 0.406250 0.812500
vt 0.406250 0.312500
vt 0.375000 0.750000
vt 0.375000 0.250000
vt 0.406250 0.687500
vt 0.406250 0.187500
vt 0.375000 0.625000
vt 0.375000 0.125000
vt 0.343750 0.250000
vt 0.375000 0.312500
vt 0.375000 0.687500
vt 0.343750 0.750000
vt 0.375000 0.187500
vt 0.343750 0.625000
vt 0.343750 0.125000
vt 0.343750 0.062500
vt 0.375000 0.500000
vt 0.343750 0.562500
vt 0.343750 0.937500
vt 0.359375 1.000000
vt 0.359375 0.000000
vt 0.343750 0.437500
vt 0.343750 0.375000
vt 0.343750 0.875000
vt 0.328125 0.000000
vt 0.312500 0.062500
vt 0.312500 0.437500
vt 0.343750 0.500000
vt 0.312500 0.875000
vt 0.312500 0.375000
vt 0.312500 0.812500
vt 0.343750 0.812500
vt 0.343750 0.312500
vt 0.312500 0.750000
vt 0.312500 0.250000
vt 0.343750 0.687500
vt 0.343750 0.187500
vt 0.312500 0.625000
vt 0.312500 0.125000
vt 0.312500 0.562500
vt 0.312500 0.937500
vt 0.328125 1.000000
vt 0.312500 0.187500
vt 0.281250 0.250000
vt 0.281250 0.625000
vt 0.312500 0.687500
vt 0.281250 0.125000
vt 0.281250 0.062500
vt 0.312500 0.500000
vt 0.281250 0.562500
vt 0.281250 0.937500
vt 0.296875 1.000000
vt 0.296875 0.000000
vt 0.281250 0.437500
vt 0.281250 0.875000
vt 0.281250 0.375000
vt 0.281250 0.812500
vt 0.312500 0.312500
vt 0.281250 0.750000
vt 0.250000 0.875000
vt 0.250000 0.375000
vt 0.250000 0.812500
vt 0.281250 0.312500
vt 0.250000 0.750000
vt 0.250000 0.250000
vt 0.281250 0.687500
vt 0.281250 0.187500
vt 0.250000 0.625000
vt 0.250000 0.125000
vt 0.250000 0.062500
vt 0.281250 0.500000
vt 0.250000 0.562500
vt 0.250000 0.937500
vt 0.265625 1.000000
vt 0.265625 0.000000
vt 0.250000 0.437500
vt 0.218750 0.625000
vt 0.250000 0.687500
vt 0.218750 0.125000
vt 0.250000 0.187500
vt 0.250000 0.500000
vt 0.218750 0.562500
vt 0.218750 0.937500
vt 0.234375 1.000000
vt 0.234375 0.000000
vt 0.218750 0.062500
vt 0.218750 0.437500
vt 0.218750 0.875000
vt 0.218750 0.375000
vt 0.218750 0.812500
vt 0.250000 0.312500
vt 0.218750 0.750000
vt 0.218750 0.250000
vt 0.187500 0.375000
vt 0.187500 0.812500
vt 0.218750 0.312500
vt 0.187500 0.750000
vt 0.187500 0.250000
vt 0.218750 0.687500
vt 0.218750 0.187500
vt 0.187500 0.625000
vt 0.187500 0.187500
vt 0.187500 0.062500
vt 0.218750 0.500000
vt 0.187500 0.562500
vt 0.187500 0.937500
vt 0.203125 1.000000
vt 0.203125 0.000000
vt 0.187500 0.437500
vt 0.187500 0.125000
vt 0.156250 0.187500
vt 0.156250 0.625000
vt 0.156250 0.062500
vt 0.187500 0.500000
vt 0.156250 0.562500
vt 0.156250 0.937500
vt 0.171875 1.000000
vt 0.171875 0.000000
vt 0.156250 0.437500
vt 0.156250 0.875000
vt 0.187500 0.875000
vt 0.156250 0.375000
vt 0.156250 0.812500
vt 0.187500 0.312500
vt 0.156250 0.750000
vt 0.156250 0.250000
vt 0.187500 0.687500
vt 0.125000 0.875000
vt 0.156250 0.312500
vt 0.125000 0.375000
vt 0.125000 0.750000
vt 0.125000 0.250000
vt 0.156250 0.687500
vt 0.125000 0.625000
vt 0.125000 0.125000
vt 0.156250 0.125000
vt 0.125000 0.062500
vt 0.156250 0.500000
vt 0.125000 0.562500
vt 0.125000 0.937500
vt 0.140625 1.000000
vt 0.140625 0.000000
vt 0.125000 0.437500
vt 0.093750 0.625000
vt 0.093750 0.062500
vt 0.125000 0.500000
vt 0.093750 0.562500
vt 0.093750 0.937500
vt 0.109375 1.000000
vt 0.109375 0.000000
vt 0.093750 0.437500
vt 0.093750 0.375000
vt 0.125000 0.812500
vt 0.093750 0.875000
vt 0.125000 0.312500
vt 0.093750 0.750000
vt 0.093750 0.250000
vt 0.125000 0.687500
vt 0.125000 0.187500
vt 0.093750 0.125000
vt 0.093750 0.312500
vt 0.062500 0.375000
vt 0.062500 0.750000
vt 0.093750 0.812500
vt 0.062500 0.250000
vt 0.093750 0.687500
vt 0.093750 0.187500
vt 0.062500 0.625000
vt 0.062500 0.187500
vt 0.062500 0.062500
vt 0.093750 0.500000
vt 0.062500 0.562500
vt 0.062500 0.937500
vt 0.078125 1.000000
vt 0.078125 0.000000
vt 0.062500 0.437500
vt 0.062500 0.875000
vt 0.031250 0.125000
vt 0.062500 0.125000
vt 0.062500 0.500000
vt 0.031250 0.562500
vt 0.031250 0.937500
vt 0.046875 1.000000
vt 0.046875 0.000000
vt 0.031250 0.062500
vt 0.031250 0.437500
vt 0.031250 0.375000
vt 0.031250 0.812500
vt 0.062500 0.812500
vt 0.062500 0.312500
vt 0.031250 0.750000
vt 0.031250 0.250000
vt 0.062500 0.687500
vt 0.031250 0.625000
vt 0.000000 0.250000
vt 0.031250 0.312500
vt 0.031250 0.687500
vt 0.000000 0.750000
vt 0.031250 0.187500
vt 0.000000 0.625000
vt 0.000000 0.125000
vt 0.000000 0.062500
vt 0.031250 0.500000
vt 0.000000 0.562500
vt 0.000000 0.937500
vt 0.015625 1.000000
vt 0.015625 0.000000
vt 0.000000 0.437500
vt 0.000000 0.875000
vt 0.031250 0.875000
vt 0.000000 0.375000
vt 0.000000 0.812500
vt 1.000000 0.937500
vt 0.968750 0.937500
vt 0.984375 1.000000
vt 0.984375 0.000000
vt 0.968750 0.062500
vt 1.000000 0.062500
vt 0.968750 0.437500
vt 1.000000 0.500000
vt 1.000000 0.437500
vt 1.000000 0.875000
vt 0.968750 0.375000
vt 1.000000 0.375000
vt 1.000000 0.812500
vt 0.968750 0.875000
vt 1.000000 0.312500
vt 0.968750 0.750000
vt 1.000000 0.750000
vt 0.968750 0.250000
vt 1.000000 0.250000
vt 1.000000 0.687500
vt 1.000000 0.187500
vt 0.968750 0.625000
vt 1.000000 0.625000
vt 0.968750 0.125000
vt 1.000000 0.125000
vt 1.000000 0.562500
vt 0.968750 0.562500
vt 0.968750 0.687500
vt 0.937500 0.750000
vt 0.968750 0.187500
vt 0.937500 0.250000
vt 0.937500 0.625000
vt 0.937500 0.125000
vt 0.937500 0.062500
vt 0.968750 0.500000
vt 0.937500 0.562500
vt 0.937500 0.937500
vt 0.953125 1.000000
vt 0.953125 0.000000
vt 0.937500 0.437500
vt 0.937500 0.875000
vt 0.937500 0.375000
vt 0.968750 0.812500
vt 0.968750 0.312500
vt 0.906250 0.437500
vt 0.937500 0.500000
vt 0.906250 0.937500
vt 0.906250 0.375000
vt 0.906250 0.812500
vt 0.937500 0.812500
vt 0.937500 0.312500
vt 0.906250 0.750000
vt 0.906250 0.250000
vt 0.937500 0.687500
vt 0.937500 0.187500
vt 0.906250 0.625000
vt 0.906250 0.187500
vt 0.906250 0.062500
vt 0.906250 0.562500
vt 0.921875 1.000000
vt 0.921875 0.000000
vt 0.875000 0.250000
vt 0.875000 0.625000
vt 0.906250 0.687500
vt 0.875000 0.125000
vt 0.906250 0.125000
vt 0.906250 0.500000
vt 0.875000 0.562500
vt 0.875000 0.937500
vt 0.890625 1.000000
vt 0.890625 0.000000
vt 0.875000 0.062500
vt 0.875000 0.437500
vt 0.875000 0.875000
vt 0.906250 0.875000
vt 0.875000 0.375000
vt 0.906250 0.312500
vt 0.875000 0.750000
vt 0.843750 0.875000
vt 0.843750 0.375000
vt 0.875000 0.812500
vt 0.875000 0.312500
vt 0.843750 0.750000
vt 0.843750 0.250000
vt 0.875000 0.687500
vt 0.875000 0.187500
vt 0.843750 0.625000
vt 0.843750 0.125000
vt 0.843750 0.062500
vt 0.875000 0.500000
vt 0.843750 0.562500
vt 0.843750 0.937500
vt 0.859375 1.000000
vt 0.859375 0.000000
vt 0.843750 0.437500
vt 0.812500 0.625000
vt 0.843750 0.687500
vt 0.812500 0.125000
vt 0.843750 0.187500
vt 0.812500 0.062500
vt 0.843750 0.500000
vt 0.812500 0.562500
vt 0.812500 0.937500
vt 0.828125 1.000000
vt 0.828125 0.000000
vt 0.812500 0.437500
vt 0.812500 0.875000
vt 0.812500 0.375000
vt 0.843750 0.812500
vt 0.843750 0.312500
vt 0.812500 0.750000
vt 0.812500 0.250000
vt 0.781250 0.375000
vt 0.812500 0.812500
vt 0.781250 0.875000
vt 0.812500 0.312500
vt 0.781250 0.750000
vt 0.781250 0.250000
vt 0.812500 0.687500
vt 0.812500 0.187500
vt 0.781250 0.625000
vt 0.781250 0.125000
vt 0.781250 0.062500
vt 0.812500 0.500000
vt 0.781250 0.562500
vt 0.781250 0.937500
vt 0.796875 1.000000
vt 0.796875 0.000000
vt 0.781250 0.437500
vt 0.781250 0.187500
vt 0.781250 0.500000
vt 0.765625 1.000000
vt 0.765625 0.000000
vt 0.781250 0.812500
vt 0.781250 0.312500
vt 0.781250 0.687500
vt 0.000000 0.312500
vt 0.000000 0.687500
vt 0.000000 0.187500
vt 0.000000 0.500000
s 1
usemtl マテリアル
f 20/1/20 480/2/480 481/3/481
f 3/4/3 12/5/12 477/6/477
f 21/7/21 481/3/481 482/8/482
f 14/9/14 3/4/3 4/10/4
f 474/11/474 7/12/7 82/13/82
f 308/14/308 21/7/21 482/8/482
f 15/15/15 4/10/4 5/16/5
f 475/17/475 7/12/7 474/11/474
f 16/18/16 5/16/5 478/19/478
f 1/20/1 8/21/8 475/17/475
f 17/22/17 478/19/478 6/23/6
f 476/24/476 9/25/9 1/20/1
f 18/26/18 6/23/6 479/27/479
f 11/28/11 476/24/476 2/29/2
f 19/30/19 479/27/479 480/2/480
f 477/6/477 11/28/11 2/29/2
f 26/31/26 10/32/10 11/28/11
f 19/30/19 33/33/33 18/26/18
f 27/34/27 11/28/11 12/5/12
f 20/1/20 34/35/34 19/30/19
f 13/36/13 27/34/27 12/5/12
f 36/37/36 20/1/20 21/7/21
f 29/38/29 13/36/13 14/9/14
f 7/12/7 22/39/22 82/40/82
f 308/41/308 36/37/36 21/7/21
f 30/42/30 14/9/14 15/15/15
f 23/43/23 7/12/7 8/21/8
f 31/44/31 15/15/15 16/18/16
f 24/45/24 8/21/8 9/25/9
f 32/46/32 16/18/16 17/22/17
f 25/47/25 9/25/9 10/32/10
f 33/33/33 17/22/17 18/26/18
f 30/42/30 44/48/44 29/38/29
f 38/49/38 22/39/22 23/43/23
f 46/50/46 30/42/30 31/44/31
f 39/51/39 23/43/23 24/45/24
f 32/46/32 46/50/46 31/44/31
f 40/52/40 24/45/24 25/47/25
f 33/33/33 47/53/47 32/46/32
f 41/54/41 25/47/25 26/31/26
f 34/35/34 48/55/48 33/33/33
f 42/56/42 26/31/26 27/34/27
f 50/57/50 34/35/34 35/58/35
f 28/59/28 42/56/42 27/34/27
f 36/37/36 50/57/50 35/58/35
f 44/48/44 28/59/28 29/38/29
f 22/39/22 37/60/37 82/61/82
f 308/62/308 51/63/51 36/37/36
f 64/64/64 48/55/48 49/65/49
f 57/66/57 41/54/41 42/56/42
f 50/57/50 64/64/64 49/65/49
f 43/67/43 57/66/57 42/56/42
f 66/68/66 50/57/50 51/63/51
f 59/69/59 43/67/43 44/48/44
f 37/60/37 52/70/52 82/71/82
f 308/72/308 66/68/66 51/63/51
f 60/73/60 44/48/44 45/74/45
f 53/75/53 37/60/37 38/49/38
f 61/76/61 45/74/45 46/50/46
f 54/77/54 38/49/38 39/51/39
f 47/53/47 61/76/61 46/50/46
f 55/78/55 39/51/39 40/52/40
f 63/79/63 47/53/47 48/55/48
f 56/80/56 40/52/40 41/54/41
f 76/81/76 60/73/60 61/76/61
f 69/82/69 53/75/53 54/77/54
f 62/83/62 76/81/76 61/76/61
f 70/84/70 54/77/54 55/78/55
f 78/85/78 62/83/62 63/79/63
f 56/80/56 70/84/70 55/78/55
f 64/64/64 78/85/78 63/79/63
f 72/86/72 56/80/56 57/66/57
f 80/87/80 64/64/64 65/88/65
f 58/89/58 72/86/72 57/66/57
f 81/90/81 65/88/65 66/68/66
f 59/69/59 73/91/73 58/89/58
f 52/70/52 67/92/67 82/93/82
f 308/94/308 81/90/81 66/68/66
f 75/95/75 59/69/59 60/73/60
f 68/96/68 52/70/52 53/75/53
f 96/97/96 79/98/79 80/87/80
f 73/91/73 88/99/88 72/86/72
f 81/90/81 96/97/96 80/87/80
f 74/100/74 89/101/89 73/91/73
f 67/92/67 83/102/83 82/103/82
f 308/104/308 97/105/97 81/90/81
f 91/106/91 74/100/74 75/95/75
f 84/107/84 67/92/67 68/96/68
f 92/108/92 75/95/75 76/81/76
f 85/109/85 68/96/68 69/82/69
f 77/110/77 92/108/92 76/81/76
f 70/84/70 85/109/85 69/82/69
f 94/111/94 77/110/77 78/85/78
f 71/112/71 86/113/86 70/84/70
f 95/114/95 78/85/78 79/98/79
f 88/99/88 71/112/71 72/86/72
f 100/115/100 84/107/84 85/109/85
f 93/116/93 107/117/107 92/108/92
f 101/118/101 85/109/85 86/113/86
f 109/119/109 93/116/93 94/111/94
f 87/120/87 101/118/101 86/113/86
f 95/114/95 109/119/109 94/111/94
f 103/121/103 87/120/87 88/99/88
f 96/97/96 110/122/110 95/114/95
f 89/101/89 103/121/103 88/99/88
f 112/123/112 96/97/96 97/105/97
f 90/124/90 104/125/104 89/101/89
f 83/102/83 98/126/98 82/127/82
f 308/128/308 112/123/112 97/105/97
f 106/129/106 90/124/90 91/106/91
f 99/130/99 83/102/83 84/107/84
f 107/117/107 91/106/91 92/108/92
f 104/125/104 118/131/118 103/121/103
f 112/123/112 126/132/126 111/133/111
f 105/134/105 119/135/119 104/125/104
f 98/126/98 113/136/113 82/137/82
f 308/138/308 127/139/127 112/123/112
f 121/140/121 105/134/105 106/129/106
f 114/141/114 98/126/98 99/130/99
f 122/142/122 106/129/106 107/117/107
f 115/143/115 99/130/99 100/115/100
f 108/144/108 122/142/122 107/117/107
f 116/145/116 100/115/100 101/118/101
f 124/146/124 108/144/108 109/119/109
f 102/147/102 116/145/116 101/118/101
f 110/122/110 124/146/124 109/119/109
f 118/131/118 102/147/102 103/121/103
f 126/132/126 110/122/110 111/133/111
f 123/148/123 137/149/137 122/142/122
f 131/150/131 115/143/115 116/145/116
f 139/151/139 123/148/123 124/146/124
f 117/152/117 131/150/131 116/145/116
f 125/153/125 139/151/139 124/146/124
f 133/154/133 117/152/117 118/131/118
f 141/155/141 125/153/125 126/132/126
f 119/135/119 133/154/133 118/131/118
f 142/156/142 126/132/126 127/139/127
f 120/157/120 134/158/134 119/135/119
f 113/136/113 128/159/128 82/160/82
f 308/161/308 142/156/142 127/139/127
f 136/162/136 120/157/120 121/140/121
f 114/141/114 128/159/128 113/136/113
f 137/149/137 121/140/121 122/142/122
f 130/163/130 114/141/114 115/143/115
f 157/164/157 141/155/141 142/156/142
f 135/165/135 149/166/149 134/158/134
f 128/159/128 143/167/143 82/168/82
f 308/169/308 157/164/157 142/156/142
f 151/170/151 135/165/135 136/162/136
f 144/171/144 128/159/128 129/172/129
f 152/173/152 136/162/136 137/149/137
f 145/174/145 129/172/129 130/163/130
f 138/175/138 152/173/152 137/149/137
f 146/176/146 130/163/130 131/150/131
f 154/177/154 138/175/138 139/151/139
f 132/178/132 146/176/146 131/150/131
f 140/179/140 154/177/154 139/151/139
f 148/180/148 132/178/132 133/154/133
f 156/181/156 140/179/140 141/155/141
f 134/158/134 148/180/148 133/154/133
f 161/182/161 145/174/145 146/176/146
f 169/183/169 153/184/153 154/177/154
f 147/185/147 161/182/161 146/176/146
f 155/186/155 169/183/169 154/177/154
f 163/187/163 147/185/147 148/180/148
f 171/188/171 155/186/155 156/181/156
f 149/166/149 163/187/163 148/180/148
f 157/164/157 171/188/171 156/181/156
f 150/189/150 164/190/164 149/166/149
f 143/167/143 158/191/158 82/192/82
f 308/193/308 172/194/172 157/164/157
f 166/195/166 150/189/150 151/170/151
f 159/196/159 143/167/143 144/171/144
f 167/197/167 151/170/151 152/173/152
f 145/174/145 159/196/159 144/171/144
f 153/184/153 167/197/167 152/173/152
f 165/198/165 179/199/179 164/190/164
f 158/191/158 173/200/173 82/201/82
f 308/202/308 187/203/187 172/194/172
f 181/204/181 165/198/165 166/195/166
f 174/205/174 158/191/158 159/196/159
f 182/206/182 166/195/166 167/197/167
f 175/207/175 159/196/159 160/208/160
f 168/209/168 182/206/182 167/197/167
f 176/210/176 160/208/160 161/182/161
f 184/211/184 168/209/168 169/183/169
f 162/212/162 176/210/176 161/182/161
f 170/213/170 184/211/184 169/183/169
f 178/214/178 162/212/162 163/187/163
f 186/215/186 170/213/170 171/188/171
f 164/190/164 178/214/178 163/187/163
f 172/194/172 186/215/186 171/188/171
f 199/216/199 183/217/183 184/211/184
f 177/218/177 191/219/191 176/210/176
f 185/220/185 199/216/199 184/211/184
f 193/221/193 177/218/177 178/214/178
f 201/222/201 185/220/185 186/215/186
f 179/199/179 193/221/193 178/214/178
f 202/223/202 186/215/186 187/203/187
f 180/224/180 194/225/194 179/199/179
f 173/200/173 188/226/188 82/227/82
f 308/228/308 202/223/202 187/203/187
f 196/229/196 180/224/180 181/204/181
f 174/205/174 188/226/188 173/200/173
f 197/230/197 181/204/181 182/206/182
f 175/207/175 189/231/189 174/205/174
f 183/217/183 197/230/197 182/206/182
f 191/219/191 175/207/175 176/210/176
f 308/232/308 217/233/217 202/223/202
f 211/234/211 195/235/195 196/229/196
f 204/236/204 188/226/188 189/231/189
f 212/237/212 196/229/196 197/230/197
f 205/238/205 189/231/189 190/239/190
f 198/240/198 212/237/212 197/230/197
f 206/241/206 190/239/190 191/219/191
f 214/242/214 198/240/198 199/216/199
f 192/243/192 206/241/206 191/219/191
f 200/244/200 214/242/214 199/216/199
f 208/245/208 192/243/192 193/221/193
f 216/246/216 200/244/200 201/222/201
f 194/225/194 208/245/208 193/221/193
f 217/233/217 201/222/201 202/223/202
f 195/235/195 209/247/209 194/225/194
f 188/226/188 203/248/203 82/249/82
f 215/250/215 229/251/229 214/242/214
f 223/252/223 207/253/207 208/245/208
f 231/254/231 215/250/215 216/246/216
f 209/247/209 223/252/223 208/245/208
f 232/255/232 216/246/216 217/233/217
f 210/256/210 224/257/224 209/247/209
f 203/248/203 218/258/218 82/259/82
f 308/260/308 232/255/232 217/233/217
f 226/261/226 210/256/210 211/234/211
f 219/262/219 203/248/203 204/236/204
f 227/263/227 211/234/211 212/237/212
f 220/264/220 204/236/204 205/238/205
f 213/265/213 227/263/227 212/237/212
f 221/266/221 205/238/205 206/241/206
f 229/251/229 213/265/213 214/242/214
f 207/253/207 221/266/221 206/241/206
f 234/267/234 218/258/218 219/262/219
f 242/268/242 226/261/226 227/263/227
f 235/269/235 219/262/219 220/264/220
f 228/270/228 242/268/242 227/263/227
f 236/271/236 220/264/220 221/266/221
f 244/272/244 228/270/228 229/251/229
f 222/273/222 236/271/236 221/266/221
f 230/274/230 244/272/244 229/251/229
f 238/275/238 222/273/222 223/252/223
f 246/276/246 230/274/230 231/254/231
f 224/257/224 238/275/238 223/252/223
f 247/277/247 231/254/231 232/255/232
f 225/278/225 239/279/239 224/257/224
f 218/258/218 233/280/233 82/281/82
f 308/282/308 247/277/247 232/255/232
f 241/283/241 225/278/225 226/261/226
f 253/284/253 237/285/237 238/275/238
f 261/286/261 245/287/245 246/276/246
f 239/279/239 253/284/253 238/275/238
f 247/277/247 261/286/261 246/276/246
f 240/288/240 254/289/254 239/279/239
f 233/280/233 248/290/248 82/291/82
f 308/292/308 262/293/262 247/277/247
f 256/294/256 240/288/240 241/283/241
f 249/295/249 233/280/233 234/267/234
f 257/296/257 241/283/241 242/268/242
f 250/297/250 234/267/234 235/269/235
f 243/298/243 257/296/257 242/268/242
f 251/299/251 235/269/235 236/271/236
f 259/300/259 243/298/243 244/272/244
f 237/285/237 251/299/251 236/271/236
f 245/287/245 259/300/259 244/272/244
f 272/301/272 256/294/256 257/296/257
f 265/302/265 249/295/249 250/297/250
f 258/303/258 272/301/272 257/296/257
f 266/304/266 250/297/250 251/299/251
f 274/305/274 258/303/258 259/300/259
f 252/306/252 266/304/266 251/299/251
f 260/307/260 274/305/274 259/300/259
f 268/308/268 252/306/252 253/284/253
f 261/286/261 275/309/275 260/307/260
f 254/289/254 268/308/268 253/284/253
f 277/310/277 261/286/261 262/293/262
f 255/311/255 269/312/269 254/289/254
f 248/290/248 263/313/263 82/314/82
f 308/315/308 277/310/277 262/293/262
f 271/316/271 255/311/255 256/294/256
f 249/295/249 263/313/263 248/290/248
f 276/317/276 290/318/290 275/309/275
f 269/312/269 283/319/283 268/308/268
f 292/320/292 276/317/276 277/310/277
f 270/321/270 284/322/284 269/312/269
f 263/313/263 278/323/278 82/324/82
f 308/325/308 292/320/292 277/310/277
f 286/326/286 270/321/270 271/316/271
f 279/327/279 263/313/263 264/328/264
f 287/329/287 271/316/271 272/301/272
f 280/330/280 264/328/264 265/302/265
f 273/331/273 287/329/287 272/301/272
f 281/332/281 265/302/265 266/304/266
f 289/333/289 273/331/273 274/305/274
f 267/334/267 281/332/281 266/304/266
f 275/309/275 289/333/289 274/305/274
f 283/319/283 267/334/267 268/308/268
f 280/330/280 294/335/294 279/327/279
f 288/336/288 302/337/302 287/329/287
f 296/338/296 280/330/280 281/332/281
f 304/339/304 288/336/288 289/333/289
f 282/340/282 296/338/296 281/332/281
f 290/318/290 304/339/304 289/333/289
f 298/341/298 282/340/282 283/319/283
f 306/342/306 290/318/290 291/343/291
f 284/322/284 298/341/298 283/319/283
f 307/344/307 291/343/291 292/320/292
f 285/345/285 299/346/299 284/322/284
f 278/323/278 293/347/293 82/348/82
f 308/349/308 307/344/307 292/320/292
f 301/350/301 285/345/285 286/326/286
f 294/335/294 278/323/278 279/327/279
f 302/337/302 286/326/286 287/329/287
f 299/346/299 314/351/314 298/341/298
f 323/352/323 306/342/306 307/344/307
f 300/353/300 315/354/315 299/346/299
f 293/347/293 309/355/309 82/356/82
f 308/357/308 323/352/323 307/344/307
f 317/358/317 300/353/300 301/350/301
f 294/335/294 309/355/309 293/347/293
f 318/359/318 301/350/301 302/337/302
f 295/360/295 310/361/310 294/335/294
f 303/362/303 318/359/318 302/337/302
f 312/363/312 295/360/295 296/338/296
f 320/364/320 303/362/303 304/339/304
f 297/365/297 312/363/312 296/338/296
f 305/366/305 320/364/320 304/339/304
f 314/351/314 297/365/297 298/341/298
f 322/367/322 305/366/305 306/342/306
f 319/368/319 333/369/333 318/359/318
f 327/370/327 311/371/311 312/363/312
f 335/372/335 319/368/319 320/364/320
f 313/373/313 327/370/327 312/363/312
f 321/374/321 335/372/335 320/364/320
f 329/375/329 313/373/313 314/351/314
f 322/367/322 336/376/336 321/374/321
f 315/354/315 329/375/329 314/351/314
f 338/377/338 322/367/322 323/352/323
f 316/378/316 330/379/330 315/354/315
f 309/355/309 324/380/324 82/381/82
f 308/382/308 338/377/338 323/352/323
f 332/383/332 316/378/316 317/358/317
f 325/384/325 309/355/309 310/361/310
f 333/369/333 317/358/317 318/359/318
f 311/371/311 325/384/325 310/361/310
f 338/377/338 352/385/352 337/386/337
f 331/387/331 345/388/345 330/379/330
f 324/380/324 339/389/339 82/390/82
f 308/391/308 353/392/353 338/377/338
f 347/393/347 331/387/331 332/383/332
f 325/384/325 339/389/339 324/380/324
f 348/394/348 332/383/332 333/369/333
f 341/395/341 325/384/325 326/396/326
f 334/397/334 348/394/348 333/369/333
f 342/398/342 326/396/326 327/370/327
f 350/399/350 334/397/334 335/372/335
f 328/400/328 342/398/342 327/370/327
f 336/376/336 350/399/350 335/372/335
f 344/401/344 328/400/328 329/375/329
f 352/385/352 336/376/336 337/386/337
f 330/379/330 344/401/344 329/375/329
f 365/402/365 349/403/349 350/399/350
f 343/404/343 357/405/357 342/398/342
f 351/406/351 365/402/365 350/399/350
f 359/407/359 343/404/343 344/401/344
f 367/408/367 351/406/351 352/385/352
f 345/388/345 359/407/359 344/401/344
f 368/409/368 352/385/352 353/392/353
f 346/410/346 360/411/360 345/388/345
f 339/389/339 354/412/354 82/413/82
f 308/414/308 368/409/368 353/392/353
f 362/415/362 346/410/346 347/393/347
f 355/416/355 339/389/339 340/417/340
f 363/418/363 347/393/347 348/394/348
f 356/419/356 340/417/340 341/395/341
f 349/403/349 363/418/363 348/394/348
f 357/405/357 341/395/341 342/398/342
f 354/420/354 369/421/369 82/422/82
f 308/423/308 383/424/383 368/425/368
f 377/426/377 361/427/361 362/428/362
f 355/429/355 369/421/369 354/420/354
f 378/430/378 362/428/362 363/431/363
f 356/432/356 370/433/370 355/429/355
f 364/434/364 378/430/378 363/431/363
f 372/435/372 356/432/356 357/436/357
f 380/437/380 364/434/364 365/438/365
f 358/439/358 372/435/372 357/436/357
f 366/440/366 380/437/380 365/438/365
f 374/441/374 358/439/358 359/442/359
f 382/443/382 366/440/366 367/444/367
f 360/445/360 374/441/374 359/442/359
f 383/424/383 367/444/367 368/425/368
f 361/427/361 375/446/375 360/445/360
f 373/447/373 387/448/387 372/435/372
f 381/449/381 395/450/395 380/437/380
f 389/451/389 373/447/373 374/441/374
f 397/452/397 381/449/381 382/443/382
f 375/446/375 389/451/389 374/441/374
f 398/453/398 382/443/382 383/424/383
f 376/454/376 390/455/390 375/446/375
f 369/421/369 384/456/384 82/457/82
f 308/458/308 398/453/398 383/424/383
f 392/459/392 376/454/376 377/426/377
f 385/460/385 369/421/369 370/433/370
f 393/461/393 377/426/377 378/430/378
f 371/462/371 385/460/385 370/433/370
f 379/463/379 393/461/393 378/430/378
f 387/448/387 371/462/371 372/435/372
f 395/450/395 379/463/379 380/437/380
f 407/464/407 391/465/391 392/459/392
f 385/460/385 399/466/399 384/456/384
f 408/467/408 392/459/392 393/461/393
f 401/468/401 385/460/385 386/469/386
f 394/470/394 408/467/408 393/461/393
f 402/471/402 386/469/386 387/448/387
f 410/472/410 394/470/394 395/450/395
f 388/473/388 402/471/402 387/448/387
f 396/474/396 410/472/410 395/450/395
f 404/475/404 388/473/388 389/451/389
f 397/452/397 411/476/411 396/474/396
f 390/455/390 404/475/404 389/451/389
f 413/477/413 397/452/397 398/453/398
f 391/465/391 405/478/405 390/455/390
f 384/456/384 399/466/399 82/479/82
f 308/480/308 413/477/413 398/453/398
f 411/476/411 425/481/425 410/472/410
f 419/482/419 403/483/403 404/475/404
f 427/484/427 411/476/411 412/485/412
f 405/478/405 419/482/419 404/475/404
f 413/477/413 427/484/427 412/485/412
f 406/486/406 420/487/420 405/478/405
f 399/466/399 414/488/414 82/489/82
f 308/490/308 428/491/428 413/477/413
f 422/492/422 406/486/406 407/464/407
f 415/493/415 399/466/399 400/494/400
f 423/495/423 407/464/407 408/467/408
f 401/468/401 415/493/415 400/494/400
f 409/496/409 423/495/423 408/467/408
f 417/497/417 401/468/401 402/471/402
f 425/481/425 409/496/409 410/472/410
f 403/483/403 417/497/417 402/471/402
f 430/498/430 414/488/414 415/493/415
f 438/499/438 422/492/422 423/495/423
f 416/500/416 430/498/430 415/493/415
f 424/501/424 438/499/438 423/495/423
f 432/502/432 416/500/416 417/497/417
f 440/503/440 424/501/424 425/481/425
f 418/504/418 432/502/432 417/497/417
f 426/505/426 440/503/440 425/481/425
f 434/506/434 418/504/418 419/482/419
f 442/507/442 426/505/426 427/484/427
f 420/487/420 434/506/434 419/482/419
f 443/508/443 427/484/427 428/491/428
f 421/509/421 435/510/435 420/487/420
f 414/488/414 429/511/429 82/512/82
f 308/513/308 443/508/443 428/491/428
f 437/514/437 421/509/421 422/492/422
f 449/515/449 433/516/433 434/506/434
f 457/517/457 441/518/441 442/507/442
f 435/510/435 449/515/449 434/506/434
f 458/519/458 442/507/442 443/508/443
f 436/520/436 450/521/450 435/510/435
f 429/511/429 444/522/444 82/523/82
f 308/524/308 458/519/458 443/508/443
f 452/525/452 436/520/436 437/514/437
f 445/526/445 429/511/429 430/498/430
f 453/527/453 437/514/437 438/499/438
f 431/528/431 445/526/445 430/498/430
f 439/529/439 453/527/453 438/499/438
f 447/530/447 431/528/431 432/502/432
f 455/531/455 439/529/439 440/503/440
f 433/516/433 447/530/447 432/502/432
f 441/518/441 455/531/455 440/503/440
f 468/532/468 452/525/452 453/527/453
f 446/533/446 460/534/460 445/526/445
f 454/535/454 468/532/468 453/527/453
f 462/536/462 446/533/446 447/530/447
f 470/537/470 454/535/454 455/531/455
f 448/538/448 462/536/462 447/530/447
f 456/539/456 470/537/470 455/531/455
f 464/540/464 448/538/448 449/515/449
f 472/541/472 456/539/456 457/517/457
f 450/521/450 464/540/464 449/515/449
f 473/542/473 457/517/457 458/519/458
f 451/543/451 465/544/465 450/521/450
f 444/522/444 459/545/459 82/546/82
f 308/547/308 473/542/473 458/519/458
f 467/548/467 451/543/451 452/525/452
f 460/534/460 444/522/444 445/526/445
f 481/3/481 471/549/471 472/541/472
f 465/544/465 477/6/477 464/540/464
f 482/8/482 472/541/472 473/542/473
f 466/550/466 3/4/3 465/544/465
f 459/545/459 474/11/474 82/551/82
f 308/552/308 482/8/482 473/542/473
f 5/16/5 466/550/466 467/548/467
f 460/534/460 474/11/474 459/545/459
f 478/19/478 467/548/467 468/532/468
f 461/553/461 475/17/475 460/534/460
f 6/23/6 468/532/468 469/554/469
f 462/536/462 1/20/1 461/553/461
f 479/27/479 469/554/469 470/537/470
f 463/555/463 476/24/476 462/536/462
f 471/549/471 479/27/479 470/537/470
f 464/540/464 2/29/2 463/555/463
f 20/1/20 19/30/19 480/2/480
f 3/4/3 13/36/13 12/5/12
f 21/7/21 20/1/20 481/3/481
f 14/9/14 13/36/13 3/4/3
f 15/15/15 14/9/14 4/10/4
f 475/17/475 8/21/8 7/12/7
f 16/18/16 15/15/15 5/16/5
f 1/20/1 9/25/9 8/21/8
f 17/22/17 16/18/16 478/19/478
f 476/24/476 10/32/10 9/25/9
f 18/26/18 17/22/17 6/23/6
f 11/28/11 10/32/10 476/24/476
f 19/30/19 18/26/18 479/27/479
f 477/6/477 12/5/12 11/28/11
f 26/31/26 25/47/25 10/32/10
f 19/30/19 34/35/34 33/33/33
f 27/34/27 26/31/26 11/28/11
f 20/1/20 35/58/35 34/35/34
f 13/36/13 28/59/28 27/34/27
f 36/37/36 35/58/35 20/1/20
f 29/38/29 28/59/28 13/36/13
f 30/42/30 29/38/29 14/9/14
f 23/43/23 22/39/22 7/12/7
f 31/44/31 30/42/30 15/15/15
f 24/45/24 23/43/23 8/21/8
f 32/46/32 31/44/31 16/18/16
f 25/47/25 24/45/24 9/25/9
f 33/33/33 32/46/32 17/22/17
f 30/42/30 45/74/45 44/48/44
f 38/49/38 37/60/37 22/39/22
f 46/50/46 45/74/45 30/42/30
f 39/51/39 38/49/38 23/43/23
f 32/46/32 47/53/47 46/50/46
f 40/52/40 39/51/39 24/45/24
f 33/33/33 48/55/48 47/53/47
f 41/54/41 40/52/40 25/47/25
f 34/35/34 49/65/49 48/55/48
f 42/56/42 41/54/41 26/31/26
f 50/57/50 49/65/49 34/35/34
f 28/59/28 43/67/43 42/56/42
f 36/37/36 51/63/51 50/57/50
f 44/48/44 43/67/43 28/59/28
f 64/64/64 63/79/63 48/55/48
f 57/66/57 56/80/56 41/54/41
f 50/57/50 65/88/65 64/64/64
f 43/67/43 58/89/58 57/66/57
f 66/68/66 65/88/65 50/57/50
f 59/69/59 58/89/58 43/67/43
f 60/73/60 59/69/59 44/48/44
f 53/75/53 52/70/52 37/60/37
f 61/76/61 60/73/60 45/74/45
f 54/77/54 53/75/53 38/49/38
f 47/53/47 62/83/62 61/76/61
f 55/78/55 54/77/54 39/51/39
f 63/79/63 62/83/62 47/53/47
f 56/80/56 55/78/55 40/52/40
f 76/81/76 75/95/75 60/73/60
f 69/82/69 68/96/68 53/75/53
f 62/83/62 77/110/77 76/81/76
f 70/84/70 69/82/69 54/77/54
f 78/85/78 77/110/77 62/83/62
f 56/80/56 71/112/71 70/84/70
f 64/64/64 79/98/79 78/85/78
f 72/86/72 71/112/71 56/80/56
f 80/87/80 79/98/79 64/64/64
f 58/89/58 73/91/73 72/86/72
f 81/90/81 80/87/80 65/88/65
f 59/69/59 74/100/74 73/91/73
f 75/95/75 74/100/74 59/69/59
f 68/96/68 67/92/67 52/70/52
f 96/97/96 95/114/95 79/98/79
f 73/91/73 89/101/89 88/99/88
f 81/90/81 97/105/97 96/97/96
f 74/100/74 90/124/90 89/101/89
f 91/106/91 90/124/90 74/100/74
f 84/107/84 83/102/83 67/92/67
f 92/108/92 91/106/91 75/95/75
f 85/109/85 84/107/84 68/96/68
f 77/110/77 93/116/93 92/108/92
f 70/84/70 86/113/86 85/109/85
f 94/111/94 93/116/93 77/110/77
f 71/112/71 87/120/87 86/113/86
f 95/114/95 94/111/94 78/85/78
f 88/99/88 87/120/87 71/112/71
f 100/115/100 99/130/99 84/107/84
f 93/116/93 108/144/108 107/117/107
f 101/118/101 100/115/100 85/109/85
f 109/119/109 108/144/108 93/116/93
f 87/120/87 102/147/102 101/118/101
f 95/114/95 110/122/110 109/119/109
f 103/121/103 102/147/102 87/120/87
f 96/97/96 111/133/111 110/122/110
f 89/101/89 104/125/104 103/121/103
f 112/123/112 111/133/111 96/97/96
f 90/124/90 105/134/105 104/125/104
f 106/129/106 105/134/105 90/124/90
f 99/130/99 98/126/98 83/102/83
f 107/117/107 106/129/106 91/106/91
f 104/125/104 119/135/119 118/131/118
f 112/123/112 127/139/127 126/132/126
f 105/134/105 120/157/120 119/135/119
f 121/140/121 120/157/120 105/134/105
f 114/141/114 113/136/113 98/126/98
f 122/142/122 121/140/121 106/129/106
f 115/143/115 114/141/114 99/130/99
f 108/144/108 123/148/123 122/142/122
f 116/145/116 115/143/115 100/115/100
f 124/146/124 123/148/123 108/144/108
f 102/147/102 117/152/117 116/145/116
f 110/122/110 125/153/125 124/146/124
f 118/131/118 117/152/117 102/147/102
f 126/132/126 125/153/125 110/122/110
f 123/148/123 138/175/138 137/149/137
f 131/150/131 130/163/130 115/143/115
f 139/151/139 138/175/138 123/148/123
f 117/152/117 132/178/132 131/150/131
f 125/153/125 140/179/140 139/151/139
f 133/154/133 132/178/132 117/152/117
f 141/155/141 140/179/140 125/153/125
f 119/135/119 134/158/134 133/154/133
f 142/156/142 141/155/141 126/132/126
f 120/157/120 135/165/135 134/158/134
f 136/162/136 135/165/135 120/157/120
f 114/141/114 129/172/129 128/159/128
f 137/149/137 136/162/136 121/140/121
f 130/163/130 129/172/129 114/141/114
f 157/164/157 156/181/156 141/155/141
f 135/165/135 150/189/150 149/166/149
f 151/170/151 150/189/150 135/165/135
f 144/171/144 143/167/143 128/159/128
f 152/173/152 151/170/151 136/162/136
f 145/174/145 144/171/144 129/172/129
f 138/175/138 153/184/153 152/173/152
f 146/176/146 145/174/145 130/163/130
f 154/177/154 153/184/153 138/175/138
f 132/178/132 147/185/147 146/176/146
f 140/179/140 155/186/155 154/177/154
f 148/180/148 147/185/147 132/178/132
f 156/181/156 155/186/155 140/179/140
f 134/158/134 149/166/149 148/180/148
f 161/182/161 160/208/160 145/174/145
f 169/183/169 168/209/168 153/184/153
f 147/185/147 162/212/162 161/182/161
f 155/186/155 170/213/170 169/183/169
f 163/187/163 162/212/162 147/185/147
f 171/188/171 170/213/170 155/186/155
f 149/166/149 164/190/164 163/187/163
f 157/164/157 172/194/172 171/188/171
f 150/189/150 165/198/165 164/190/164
f 166/195/166 165/198/165 150/189/150
f 159/196/159 158/191/158 143/167/143
f 167/197/167 166/195/166 151/170/151
f 145/174/145 160/208/160 159/196/159
f 153/184/153 168/209/168 167/197/167
f 165/198/165 180/224/180 179/199/179
f 181/204/181 180/224/180 165/198/165
f 174/205/174 173/200/173 158/191/158
f 182/206/182 181/204/181 166/195/166
f 175/207/175 174/205/174 159/196/159
f 168/209/168 183/217/183 182/206/182
f 176/210/176 175/207/175 160/208/160
f 184/211/184 183/217/183 168/209/168
f 162/212/162 177/218/177 176/210/176
f 170/213/170 185/220/185 184/211/184
f 178/214/178 177/218/177 162/212/162
f 186/215/186 185/220/185 170/213/170
f 164/190/164 179/199/179 178/214/178
f 172/194/172 187/203/187 186/215/186
f 199/216/199 198/240/198 183/217/183
f 177/218/177 192/243/192 191/219/191
f 185/220/185 200/244/200 199/216/199
f 193/221/193 192/243/192 177/218/177
f 201/222/201 200/244/200 185/220/185
f 179/199/179 194/225/194 193/221/193
f 202/223/202 201/222/201 186/215/186
f 180/224/180 195/235/195 194/225/194
f 196/229/196 195/235/195 180/224/180
f 174/205/174 189/231/189 188/226/188
f 197/230/197 196/229/196 181/204/181
f 175/207/175 190/239/190 189/231/189
f 183/217/183 198/240/198 197/230/197
f 191/219/191 190/239/190 175/207/175
f 211/234/211 210/256/210 195/235/195
f 204/236/204 203/248/203 188/226/188
f 212/237/212 211/234/211 196/229/196
f 205/238/205 204/236/204 189/231/189
f 198/240/198 213/265/213 212/237/212
f 206/241/206 205/238/205 190/239/190
f 214/242/214 213/265/213 198/240/198
f 192/243/192 207/253/207 206/241/206
f 200/244/200 215/250/215 214/242/214
f 208/245/208 207/253/207 192/243/192
f 216/246/216 215/250/215 200/244/200
f 194/225/194 209/247/209 208/245/208
f 217/233/217 216/246/216 201/222/201
f 195/235/195 210/256/210 209/247/209
f 215/250/215 230/274/230 229/251/229
f 223/252/223 222/273/222 207/253/207
f 231/254/231 230/274/230 215/250/215
f 209/247/209 224/257/224 223/252/223
f 232/255/232 231/254/231 216/246/216
f 210/256/210 225/278/225 224/257/224
f 226/261/226 225/278/225 210/256/210
f 219/262/219 218/258/218 203/248/203
f 227/263/227 226/261/226 211/234/211
f 220/264/220 219/262/219 204/236/204
f 213/265/213 228/270/228 227/263/227
f 221/266/221 220/264/220 205/238/205
f 229/251/229 228/270/228 213/265/213
f 207/253/207 222/273/222 221/266/221
f 234/267/234 233/280/233 218/258/218
f 242/268/242 241/283/241 226/261/226
f 235/269/235 234/267/234 219/262/219
f 228/270/228 243/298/243 242/268/242
f 236/271/236 235/269/235 220/264/220
f 244/272/244 243/298/243 228/270/228
f 222/273/222 237/285/237 236/271/236
f 230/274/230 245/287/245 244/272/244
f 238/275/238 237/285/237 222/273/222
f 246/276/246 245/287/245 230/274/230
f 224/257/224 239/279/239 238/275/238
f 247/277/247 246/276/246 231/254/231
f 225/278/225 240/288/240 239/279/239
f 241/283/241 240/288/240 225/278/225
f 253/284/253 252/306/252 237/285/237
f 261/286/261 260/307/260 245/287/245
f 239/279/239 254/289/254 253/284/253
f 247/277/247 262/293/262 261/286/261
f 240/288/240 255/311/255 254/289/254
f 256/294/256 255/311/255 240/288/240
f 249/295/249 248/290/248 233/280/233
f 257/296/257 256/294/256 241/283/241
f 250/297/250 249/295/249 234/267/234
f 243/298/243 258/303/258 257/296/257
f 251/299/251 250/297/250 235/269/235
f 259/300/259 258/303/258 243/298/243
f 237/285/237 252/306/252 251/299/251
f 245/287/245 260/307/260 259/300/259
f 272/301/272 271/316/271 256/294/256
f 265/302/265 264/328/264 249/295/249
f 258/303/258 273/331/273 272/301/272
f 266/304/266 265/302/265 250/297/250
f 274/305/274 273/331/273 258/303/258
f 252/306/252 267/334/267 266/304/266
f 260/307/260 275/309/275 274/305/274
f 268/308/268 267/334/267 252/306/252
f 261/286/261 276/317/276 275/309/275
f 254/289/254 269/312/269 268/308/268
f 277/310/277 276/317/276 261/286/261
f 255/311/255 270/321/270 269/312/269
f 271/316/271 270/321/270 255/311/255
f 249/295/249 264/328/264 263/313/263
f 276/317/276 291/343/291 290/318/290
f 269/312/269 284/322/284 283/319/283
f 292/320/292 291/343/291 276/317/276
f 270/321/270 285/345/285 284/322/284
f 286/326/286 285/345/285 270/321/270
f 279/327/279 278/323/278 263/313/263
f 287/329/287 286/326/286 271/316/271
f 280/330/280 279/327/279 264/328/264
f 273/331/273 288/336/288 287/329/287
f 281/332/281 280/330/280 265/302/265
f 289/333/289 288/336/288 273/331/273
f 267/334/267 282/340/282 281/332/281
f 275/309/275 290/318/290 289/333/289
f 283/319/283 282/340/282 267/334/267
f 280/330/280 295/360/295 294/335/294
f 288/336/288 303/362/303 302/337/302
f 296/338/296 295/360/295 280/330/280
f 304/339/304 303/362/303 288/336/288
f 282/340/282 297/365/297 296/338/296
f 290/318/290 305/366/305 304/339/304
f 298/341/298 297/365/297 282/340/282
f 306/342/306 305/366/305 290/318/290
f 284/322/284 299/346/299 298/341/298
f 307/344/307 306/342/306 291/343/291
f 285/345/285 300/353/300 299/346/299
f 301/350/301 300/353/300 285/345/285
f 294/335/294 293/347/293 278/323/278
f 302/337/302 301/350/301 286/326/286
f 299/346/299 315/354/315 314/351/314
f 323/352/323 322/367/322 306/342/306
f 300/353/300 316/378/316 315/354/315
f 317/358/317 316/378/316 300/353/300
f 294/335/294 310/361/310 309/355/309
f 318/359/318 317/358/317 301/350/301
f 295/360/295 311/371/311 310/361/310
f 303/362/303 319/368/319 318/359/318
f 312/363/312 311/371/311 295/360/295
f 320/364/320 319/368/319 303/362/303
f 297/365/297 313/373/313 312/363/312
f 305/366/305 321/374/321 320/364/320
f 314/351/314 313/373/313 297/365/297
f 322/367/322 321/374/321 305/366/305
f 319/368/319 334/397/334 333/369/333
f 327/370/327 326/396/326 311/371/311
f 335/372/335 334/397/334 319/368/319
f 313/373/313 328/400/328 327/370/327
f 321/374/321 336/376/336 335/372/335
f 329/375/329 328/400/328 313/373/313
f 322/367/322 337/386/337 336/376/336
f 315/354/315 330/379/330 329/375/329
f 338/377/338 337/386/337 322/367/322
f 316/378/316 331/387/331 330/379/330
f 332/383/332 331/387/331 316/378/316
f 325/384/325 324/380/324 309/355/309
f 333/369/333 332/383/332 317/358/317
f 311/371/311 326/396/326 325/384/325
f 338/377/338 353/392/353 352/385/352
f 331/387/331 346/410/346 345/388/345
f 347/393/347 346/410/346 331/387/331
f 325/384/325 340/417/340 339/389/339
f 348/394/348 347/393/347 332/383/332
f 341/395/341 340/417/340 325/384/325
f 334/397/334 349/403/349 348/394/348
f 342/398/342 341/395/341 326/396/326
f 350/399/350 349/403/349 334/397/334
f 328/400/328 343/404/343 342/398/342
f 336/376/336 351/406/351 350/399/350
f 344/401/344 343/404/343 328/400/328
f 352/385/352 351/406/351 336/376/336
f 330/379/330 345/388/345 344/401/344
f 365/402/365 364/556/364 349/403/349
f 343/404/343 358/557/358 357/405/357
f 351/406/351 366/558/366 365/402/365
f 359/407/359 358/557/358 343/404/343
f 367/408/367 366/558/366 351/406/351
f 345/388/345 360/411/360 359/407/359
f 368/409/368 367/408/367 352/385/352
f 346/410/346 361/559/361 360/411/360
f 362/415/362 361/559/361 346/410/346
f 355/416/355 354/412/354 339/389/339
f 363/418/363 362/415/362 347/393/347
f 356/419/356 355/416/355 340/417/340
f 349/403/349 364/556/364 363/418/363
f 357/405/357 356/419/356 341/395/341
f 377/426/377 376/454/376 361/427/361
f 355/429/355 370/433/370 369/421/369
f 378/430/378 377/426/377 362/428/362
f 356/432/356 371/462/371 370/433/370
f 364/434/364 379/463/379 378/430/378
f 372/435/372 371/462/371 356/432/356
f 380/437/380 379/463/379 364/434/364
f 358/439/358 373/447/373 372/435/372
f 366/440/366 381/449/381 380/437/380
f 374/441/374 373/447/373 358/439/358
f 382/443/382 381/449/381 366/440/366
f 360/445/360 375/446/375 374/441/374
f 383/424/383 382/443/382 367/444/367
f 361/427/361 376/454/376 375/446/375
f 373/447/373 388/473/388 387/448/387
f 381/449/381 396/474/396 395/450/395
f 389/451/389 388/473/388 373/447/373
f 397/452/397 396/474/396 381/449/381
f 375/446/375 390/455/390 389/451/389
f 398/453/398 397/452/397 382/443/382
f 376/454/376 391/465/391 390/455/390
f 392/459/392 391/465/391 376/454/376
f 385/460/385 384/456/384 369/421/369
f 393/461/393 392/459/392 377/426/377
f 371/462/371 386/469/386 385/460/385
f 379/463/379 394/470/394 393/461/393
f 387/448/387 386/469/386 371/462/371
f 395/450/395 394/470/394 379/463/379
f 407/464/407 406/486/406 391/465/391
f 385/460/385 400/494/400 399/466/399
f 408/467/408 407/464/407 392/459/392
f 401/468/401 400/494/400 385/460/385
f 394/470/394 409/496/409 408/467/408
f 402/471/402 401/468/401 386/469/386
f 410/472/410 409/496/409 394/470/394
f 388/473/388 403/483/403 402/471/402
f 396/474/396 411/476/411 410/472/410
f 404/475/404 403/483/403 388/473/388
f 397/452/397 412/485/412 411/476/411
f 390/455/390 405/478/405 404/475/404
f 413/477/413 412/485/412 397/452/397
f 391/465/391 406/486/406 405/478/405
f 411/476/411 426/505/426 425/481/425
f 419/482/419 418/504/418 403/483/403
f 427/484/427 426/505/426 411/476/411
f 405/478/405 420/487/420 419/482/419
f 413/477/413 428/491/428 427/484/427
f 406/486/406 421/509/421 420/487/420
f 422/492/422 421/509/421 406/486/406
f 415/493/415 414/488/414 399/466/399
f 423/495/423 422/492/422 407/464/407
f 401/468/401 416/500/416 415/493/415
f 409/496/409 424/501/424 423/495/423
f 417/497/417 416/500/416 401/468/401
f 425/481/425 424/501/424 409/496/409
f 403/483/403 418/504/418 417/497/417
f 430/498/430 429/511/429 414/488/414
f 438/499/438 437/514/437 422/492/422
f 416/500/416 431/528/431 430/498/430
f 424/501/424 439/529/439 438/499/438
f 432/502/432 431/528/431 416/500/416
f 440/503/440 439/529/439 424/501/424
f 418/504/418 433/516/433 432/502/432
f 426/505/426 441/518/441 440/503/440
f 434/506/434 433/516/433 418/504/418
f 442/507/442 441/518/441 426/505/426
f 420/487/420 435/510/435 434/506/434
f 443/508/443 442/507/442 427/484/427
f 421/509/421 436/520/436 435/510/435
f 437/514/437 436/520/436 421/509/421
f 449/515/449 448/538/448 433/516/433
f 457/517/457 456/539/456 441/518/441
f 435/510/435 450/521/450 449/515/449
f 458/519/458 457/517/457 442/507/442
f 436/520/436 451/543/451 450/521/450
f 452/525/452 451/543/451 436/520/436
f 445/526/445 444/522/444 429/511/429
f 453/527/453 452/525/452 437/514/437
f 431/528/431 446/533/446 445/526/445
f 439/529/439 454/535/454 453/527/453
f 447/530/447 446/533/446 431/528/431
f 455/531/455 454/535/454 439/529/439
f 433/516/433 448/538/448 447/530/447
f 441/518/441 456/539/456 455/531/455
f 468/532/468 467/548/467 452/525/452
f 446/533/446 461/553/461 460/534/460
f 454/535/454 469/554/469 468/532/468
f 462/536/462 461/553/461 446/533/446
f 470/537/470 469/554/469 454/535/454
f 448/538/448 463/555/463 462/536/462
f 456/539/456 471/549/471 470/537/470
f 464/540/464 463/555/463 448/538/448
f 472/541/472 471/549/471 456/539/456
f 450/521/450 465/544/465 464/540/464
f 473/542/473 472/541/472 457/517/457
f 451/543/451 466/550/466 465/544/465
f 467/548/467 466/550/466 451/543/451
f 460/534/460 459/545/459 444/522/444
f 481/3/481 480/2/480 471/549/471
f 465/544/465 3/4/3 477/6/477
f 482/8/482 481/3/481 472/541/472
f 466/550/466 4/10/4 3/4/3
f 5/16/5 4/10/4 466/550/466
f 460/534/460 475/17/475 474/11/474
f 478/19/478 5/16/5 467/548/467
f 461/553/461 1/20/1 475/17/475
f 6/23/6 478/19/478 468/532/468
f 462/536/462 476/24/476 1/20/1
f 479/27/479 6/23/6 469/554/469
f 463/555/463 2/29/2 476/24/476
f 471/549/471 480/2/480 479/27/479
f 464/540/464 477/6/477 2/29/2
