# Blender 4.4.1
# www.blender.org
mtllib terrain.mtl
o Plane
v -50.000000 0.021101 50.000000
v 50.000000 0.021101 50.000000
v -50.000000 0.021093 -50.000000
v 50.000000 0.021093 -50.000000
v -50.000000 0.021093 -45.238094
v -50.000000 0.021094 -40.476189
v -50.000000 0.026441 -35.714291
v -50.000000 0.021094 -30.952379
v -50.000000 0.021095 -26.190474
v -50.000000 0.021095 -21.428576
v -50.000000 0.021096 -16.666670
v -50.000000 0.021096 -11.904765
v -50.000000 0.021096 -7.142860
v -50.000000 0.021097 -2.380955
v -50.000000 0.021097 2.380950
v -50.000000 0.021097 7.142855
v -50.000000 0.021098 11.904759
v -50.000000 0.021098 16.666664
v -50.000000 0.021098 21.428570
v -50.000000 0.021099 26.190474
v -50.000000 0.021099 30.952379
v -50.000000 0.021099 35.714287
v -50.000000 0.021100 40.476189
v -50.000000 0.021100 45.238094
v -45.238094 0.021101 50.000000
v -40.476189 0.021101 50.000000
v -35.714291 0.021101 50.000000
v -30.952379 0.021101 50.000000
v -26.190474 0.021101 50.000000
v -21.428576 0.021101 50.000000
v -16.666670 0.021101 50.000000
v -11.904765 0.021101 50.000000
v -7.142860 0.021101 50.000000
v -2.380955 0.021101 50.000000
v 2.380950 0.021101 50.000000
v 7.142855 0.021101 50.000000
v 11.904759 0.021101 50.000000
v 16.666664 0.029519 50.000000
v 21.428570 0.029519 50.000000
v 26.190474 0.029519 50.000000
v 30.952379 0.029519 50.000000
v 35.714287 0.021101 50.000000
v 40.476189 0.021101 50.000000
v 45.238094 0.021101 50.000000
v 50.000000 0.021100 45.238094
v 50.000000 0.021100 40.476189
v 50.000000 0.021099 35.714291
v 50.000000 0.021099 30.952379
v 50.000000 0.021099 26.190474
v 50.000000 0.021098 21.428576
v 50.000000 0.021098 16.666670
v 50.000000 0.021098 11.904765
v 50.000000 0.021097 7.142860
v 50.000000 0.021097 2.380955
v 50.000000 0.021097 -2.380950
v 50.000000 0.021096 -7.142855
v 50.000000 0.021096 -11.904759
v 50.000000 0.021096 -16.666664
v 50.000000 0.021095 -21.428570
v 50.000000 0.021095 -26.190474
v 50.000000 0.021094 -30.952379
v 50.000000 0.021094 -35.714287
v 50.000000 0.021094 -40.476189
v 50.000000 0.021093 -45.238094
v 45.238094 0.021093 -50.000000
v 40.476189 0.021093 -50.000000
v 35.714291 0.021093 -50.000000
v 30.952379 0.021093 -50.000000
v 26.190474 0.021093 -50.000000
v 21.428576 0.021093 -50.000000
v 16.666670 0.021093 -50.000000
v 11.904765 0.021093 -50.000000
v 7.142860 0.021093 -50.000000
v 2.380955 0.024705 -50.000000
v -2.380950 0.021093 -50.000000
v -7.142855 0.021093 -50.000000
v -11.904759 0.021093 -50.000000
v -16.666664 0.024562 -50.000000
v -21.428570 0.021093 -50.000000
v -26.190474 0.024005 -50.000000
v -30.952379 0.021093 -50.000000
v -35.714287 0.021093 -50.000000
v -40.476189 0.021093 -50.000000
v -45.238094 0.021093 -50.000000
v -45.238094 0.021100 45.238094
v -45.238094 0.021100 40.476189
v -45.238094 0.021099 35.714291
v -45.238094 0.037494 30.952379
v -45.238094 0.037494 26.190474
v -45.238094 0.021098 21.428576
v -45.238094 0.021098 16.666670
v -45.238094 0.021098 11.904765
v -45.238094 0.028906 7.142860
v -45.238094 0.028906 2.380955
v -45.238094 0.021097 -2.380950
v -45.238094 0.021096 -7.142855
v -45.238094 0.021096 -11.904759
v -45.238094 0.021096 -16.666664
v -45.238094 0.021095 -21.428570
v -45.238094 0.021095 -26.190474
v -45.238094 0.224256 -30.952379
v -45.238094 0.455929 -35.714287
v -45.238094 0.224255 -40.476189
v -45.238094 0.021093 -45.238094
v -40.476189 0.021100 45.238094
v -40.476189 0.021100 40.476189
v -40.476189 0.644062 35.714291
v -40.476189 1.354454 30.952379
v -40.476189 1.354454 26.190474
v -40.476189 0.644062 21.428576
v -40.476189 0.021098 16.666670
v -40.476189 0.317827 11.904765
v -40.476189 0.656199 7.142860
v -40.476189 0.656199 2.380955
v -40.476189 0.317826 -2.380950
v -40.476189 0.028905 -7.142855
v -40.476189 0.028905 -11.904759
v -40.476189 0.021096 -16.666664
v -40.476189 0.021095 -21.428570
v -40.476189 0.029282 -26.190474
v -40.476189 0.458220 -30.952379
v -40.476189 0.832827 -35.714287
v -40.476189 0.455929 -40.476189
v -40.476189 0.026440 -45.238094
v -35.714291 0.021100 45.238094
v -35.714291 0.644063 40.476189
v -35.714291 1.354452 35.714291
v -35.714291 2.634432 30.952379
v -35.714291 2.782071 26.190474
v -35.714291 1.828437 21.428576
v -35.714291 0.055200 16.666670
v -35.714291 0.656199 11.904765
v -35.714291 1.206678 7.142860
v -35.714291 1.355322 2.380955
v -35.714291 0.908746 -2.380950
v -35.714291 0.764458 -7.142855
v -35.714291 0.656197 -11.904759
v -35.714291 0.317825 -16.666664
v -35.714291 0.129021 -21.428570
v -35.714291 0.342077 -26.190474
v -35.714291 0.516910 -30.952379
v -35.714291 0.543626 -35.714287
v -35.714291 0.227166 -40.476189
v -35.714291 0.021093 -45.238094
v -30.952379 0.037495 45.238094
v -30.952379 1.354455 40.476189
v -30.952379 2.513421 35.714291
v -30.952379 2.776157 30.952379
v -30.952379 3.022310 26.190474
v -30.952379 2.287228 21.428576
v -30.952379 0.682503 16.666670
v -30.952379 0.837348 11.904765
v -30.952379 1.210590 7.142860
v -30.952379 1.524828 2.380955
v -30.952379 1.800587 -2.380950
v -30.952379 1.524827 -7.142855
v -30.952379 1.210589 -11.904759
v -30.952379 0.662898 -16.666664
v -30.952379 0.419251 -21.428570
v -30.952379 0.958744 -26.190474
v -30.952379 0.765321 -30.952379
v -30.952379 0.317154 -35.714287
v -30.952379 0.259907 -40.476189
v -30.952379 0.131728 -45.238094
v -26.190474 0.021100 45.238094
v -26.190474 0.644063 40.476189
v -26.190474 1.354452 35.714291
v -26.190474 2.634432 30.952379
v -26.190474 2.782071 26.190474
v -26.190474 1.828437 21.428576
v -26.190474 1.124877 16.666670
v -26.190474 0.866764 11.904765
v -26.190474 0.656198 7.142860
v -26.190474 0.764459 2.380955
v -26.190474 1.524828 -2.380950
v -26.190474 1.355321 -7.142855
v -26.190474 1.354182 -11.904759
v -26.190474 0.961459 -16.666664
v -26.190474 0.594281 -21.428570
v -26.190474 0.969212 -26.190474
v -26.190474 0.676745 -30.952379
v -26.190474 0.348029 -35.714287
v -26.190474 0.464044 -40.476189
v -26.190474 0.257891 -45.238094
v -21.428576 0.021100 45.238094
v -21.428576 0.021100 40.476189
v -21.428576 0.644062 35.714291
v -21.428576 1.403037 30.952379
v -21.428576 1.510955 26.190474
v -21.428576 1.074980 21.428576
v -21.428576 0.699425 16.666670
v -21.428576 0.292577 11.904765
v -21.428576 0.028906 7.142860
v -21.428576 0.317826 2.380955
v -21.428576 0.656331 -2.380950
v -21.428576 0.660072 -7.142855
v -21.428576 0.958823 -11.904759
v -21.428576 0.853581 -16.666664
v -21.428576 0.485253 -21.428570
v -21.428576 0.855080 -26.190474
v -21.428576 1.169043 -30.952379
v -21.428576 0.703229 -35.714287
v -21.428570 0.530481 -40.476189
v -21.428570 0.262592 -45.238094
v -16.666670 0.021100 45.238094
v -16.666670 0.021100 40.476189
v -16.666670 0.024786 35.714291
v -16.666670 0.505426 30.952379
v -16.666670 0.927032 26.190474
v -16.666670 0.755107 21.428576
v -16.666670 0.326776 16.666670
v -16.666670 0.024751 11.904765
v -16.666670 0.021097 7.142860
v -16.666670 0.021097 2.380955
v -16.666670 0.028906 -2.380950
v -16.666670 0.028905 -7.142855
v -16.666670 0.176410 -11.904759
v -16.666670 0.336807 -16.666664
v -16.666670 0.234308 -21.428570
v -16.666670 1.211906 -26.190474
v -16.666670 2.032849 -30.952379
v -16.666670 1.204126 -35.714287
v -16.666664 0.564716 -40.476189
v -16.666664 0.303594 -45.238094
v -11.904765 0.021100 45.238094
v -11.904765 0.021100 40.476189
v -11.904765 0.024752 35.714291
v -11.904765 0.396009 30.952379
v -11.904765 0.755108 26.190474
v -11.904765 0.659540 21.428576
v -11.904765 0.318216 16.666670
v -11.904765 0.024751 11.904765
v -11.904765 0.021097 7.142860
v -11.904765 0.021097 2.380955
v -11.904765 0.021097 -2.380950
v -11.904765 0.021096 -7.142855
v -11.904765 0.021096 -11.904759
v -11.904765 0.025157 -16.666664
v -11.904765 0.141261 -21.428570
v -11.904765 0.796374 -26.190474
v -11.904765 1.240711 -30.952379
v -11.904765 0.870492 -35.714287
v -11.904759 0.456030 -40.476189
v -11.904759 0.153073 -45.238094
v -7.142860 0.021100 45.238094
v -7.142860 0.021100 40.476189
v -7.142860 0.021099 35.714291
v -7.142860 0.159917 30.952379
v -7.142860 0.319617 26.190474
v -7.142860 0.318216 21.428576
v -7.142860 0.159916 16.666670
v -7.142860 0.021098 11.904765
v -7.142860 0.021097 7.142860
v -7.142860 0.021097 2.380955
v -7.142860 0.021097 -2.380950
v -7.142860 0.021096 -7.142855
v -7.142860 0.021096 -11.904759
v -7.142860 0.021096 -16.666664
v -7.142860 0.073429 -21.428570
v -7.142860 0.145766 -26.190474
v -7.142860 0.435556 -30.952379
v -7.142860 0.646145 -35.714287
v -7.142855 0.359491 -40.476189
v -7.142855 0.025210 -45.238094
v -2.380955 0.021100 45.238094
v -2.380955 0.021100 40.476189
v -2.380955 0.021099 35.714291
v -2.380955 0.021099 30.952379
v -2.380955 0.024752 26.190474
v -2.380955 0.024751 21.428576
v -2.380955 0.021098 16.666670
v -2.380955 0.021098 11.904765
v -2.380955 0.021097 7.142860
v -2.380955 0.021097 2.380955
v -2.380955 0.021097 -2.380950
v -2.380955 0.021096 -7.142855
v -2.380955 0.021096 -11.904759
v -2.380955 0.021096 -16.666664
v -2.380955 0.021095 -21.428570
v -2.380955 0.021274 -26.190474
v -2.380955 0.177532 -30.952379
v -2.380955 0.478602 -35.714287
v -2.380950 0.466077 -40.476189
v -2.380950 0.158354 -45.238094
v 2.380950 0.021100 45.238094
v 2.380950 0.021100 40.476189
v 2.380950 0.021099 35.714291
v 2.380950 0.021099 30.952379
v 2.380950 0.021099 26.190474
v 2.380950 0.021098 21.428576
v 2.380950 0.021098 16.666670
v 2.380950 0.021098 11.904765
v 2.380950 0.021097 7.142860
v 2.380950 0.021097 2.380955
v 2.380950 0.021097 -2.380950
v 2.380950 0.021096 -7.142855
v 2.380950 0.021096 -11.904759
v 2.380950 0.021096 -16.666664
v 2.380950 0.021095 -21.428570
v 2.380955 0.021095 -26.190474
v 2.380955 0.024706 -30.952379
v 2.380955 0.318993 -35.714287
v 2.380955 0.569521 -40.476189
v 2.380955 0.314878 -45.238094
v 7.142855 0.021100 45.238094
v 7.142855 0.029519 40.476189
v 7.142855 0.029518 35.714291
v 7.142855 0.029518 30.952379
v 7.142855 0.021099 26.190474
v 7.142855 0.021098 21.428576
v 7.142855 0.021098 16.666670
v 7.142855 0.021098 11.904765
v 7.142855 0.021097 7.142860
v 7.142855 0.021097 2.380955
v 7.142855 0.021097 -2.380950
v 7.142855 0.021096 -7.142855
v 7.142855 0.021096 -11.904759
v 7.142855 0.021096 -16.666664
v 7.142855 0.021095 -21.428570
v 7.142855 0.021095 -26.190474
v 7.142855 0.021094 -30.952379
v 7.142855 0.158355 -35.714287
v 7.142855 0.314880 -40.476189
v 7.142860 0.158354 -45.238094
v 11.904759 0.340984 45.238094
v 11.904759 0.705761 40.476189
v 11.904759 0.705760 35.714291
v 11.904759 0.705760 30.952379
v 11.904759 0.340983 26.190474
v 11.904759 0.021098 21.428576
v 11.904759 0.021098 16.666670
v 11.904759 0.021098 11.904765
v 11.904759 0.021097 7.142860
v 11.904759 0.021097 2.380955
v 11.904759 0.021097 -2.380950
v 11.904759 0.021096 -7.142855
v 11.904759 0.021096 -11.904759
v 11.904759 0.021096 -16.666664
v 11.904759 0.021095 -21.428570
v 11.904759 0.021095 -26.190474
v 11.904759 0.021094 -30.952379
v 11.904765 0.021094 -35.714287
v 11.904765 0.024706 -40.476189
v 11.904765 0.021093 -45.238094
v 16.666664 0.705760 45.238094
v 16.666664 1.299197 40.476189
v 16.666664 1.299197 35.714291
v 16.666664 1.299196 30.952379
v 16.666664 0.705759 26.190474
v 16.666664 0.340982 21.428576
v 16.666664 0.021098 16.666670
v 16.666664 0.021098 11.904765
v 16.666664 0.021097 7.142860
v 16.666664 0.021097 2.380955
v 16.666664 0.021097 -2.380950
v 16.666664 0.021096 -7.142855
v 16.666664 0.021096 -11.904759
v 16.666664 0.021096 -16.666664
v 16.666664 0.021095 -21.428570
v 16.666664 0.021095 -26.190474
v 16.666664 0.021094 -30.952379
v 16.666664 0.021094 -35.714287
v 16.666664 0.021094 -40.476189
v 16.666670 0.021093 -45.238094
v 21.428570 0.705760 45.238094
v 21.428570 1.299197 40.476189
v 21.428570 1.299197 35.714291
v 21.428570 1.299196 30.952379
v 21.428570 1.299196 26.190474
v 21.428570 0.705759 21.428576
v 21.428570 0.029517 16.666670
v 21.428570 0.021098 11.904765
v 21.428570 0.021097 7.142860
v 21.428570 0.021097 2.380955
v 21.428570 0.021097 -2.380950
v 21.428570 0.021096 -7.142855
v 21.428570 0.021096 -11.904759
v 21.428570 0.021096 -16.666664
v 21.428570 0.021095 -21.428570
v 21.428570 0.021095 -26.190474
v 21.428570 0.021094 -30.952379
v 21.428570 0.021094 -35.714287
v 21.428570 0.021094 -40.476189
v 21.428576 0.021093 -45.238094
v 26.190474 0.705760 45.238094
v 26.190474 1.299197 40.476189
v 26.190474 1.299197 35.714291
v 26.190474 1.299196 30.952379
v 26.190474 1.299196 26.190474
v 26.190474 0.705759 21.428576
v 26.190474 0.029517 16.666670
v 26.190474 0.021098 11.904765
v 26.190474 0.021097 7.142860
v 26.190474 0.021097 2.380955
v 26.190474 0.021097 -2.380950
v 26.190474 0.021096 -7.142855
v 26.190474 0.021096 -11.904759
v 26.190474 0.021096 -16.666664
v 26.190474 0.021095 -21.428570
v 26.190474 0.021095 -26.190474
v 26.190474 0.021094 -30.952379
v 26.190474 0.021094 -35.714287
v 26.190474 0.021094 -40.476189
v 26.190474 0.021093 -45.238094
v 30.952379 0.705760 45.238094
v 30.952379 1.299197 40.476189
v 30.952379 1.299197 35.714291
v 30.952379 1.299196 30.952379
v 30.952379 1.299196 26.190474
v 30.952379 0.705759 21.428576
v 30.952379 0.029517 16.666670
v 30.952379 0.021098 11.904765
v 30.952379 0.021097 7.142860
v 30.952379 0.021097 2.380955
v 30.952379 0.021097 -2.380950
v 30.952379 0.021096 -7.142855
v 30.952379 0.021096 -11.904759
v 30.952379 0.021096 -16.666664
v 30.952379 0.021095 -21.428570
v 30.952379 0.021095 -26.190474
v 30.952379 0.021094 -30.952379
v 30.952379 0.021094 -35.714287
v 30.952379 0.021094 -40.476189
v 30.952379 0.021093 -45.238094
v 35.714287 0.340984 45.238094
v 35.714287 0.705761 40.476189
v 35.714287 1.299197 35.714291
v 35.714287 1.299196 30.952379
v 35.714287 1.299196 26.190474
v 35.714287 0.705759 21.428576
v 35.714287 0.029517 16.666670
v 35.714287 0.021098 11.904765
v 35.714287 0.021097 7.142860
v 35.714287 0.021097 2.380955
v 35.714287 0.021097 -2.380950
v 35.714287 0.021096 -7.142855
v 35.714287 0.021096 -11.904759
v 35.714287 0.021096 -16.666664
v 35.714287 0.021095 -21.428570
v 35.714287 0.021095 -26.190474
v 35.714287 0.021094 -30.952379
v 35.714287 0.021094 -35.714287
v 35.714287 0.021094 -40.476189
v 35.714291 0.021093 -45.238094
v 40.476189 0.021100 45.238094
v 40.476189 0.340984 40.476189
v 40.476189 0.705759 35.714291
v 40.476189 0.705759 30.952379
v 40.476189 0.705759 26.190474
v 40.476189 0.340982 21.428576
v 40.476189 0.021098 16.666670
v 40.476189 0.021098 11.904765
v 40.476189 0.021097 7.142860
v 40.476189 0.021097 2.380955
v 40.476189 0.021097 -2.380950
v 40.476189 0.021096 -7.142855
v 40.476189 0.021096 -11.904759
v 40.476189 0.021096 -16.666664
v 40.476189 0.021095 -21.428570
v 40.476189 0.021095 -26.190474
v 40.476189 0.021094 -30.952379
v 40.476189 0.021094 -35.714287
v 40.476189 0.021094 -40.476189
v 40.476189 0.021093 -45.238094
v 45.238094 0.021100 45.238094
v 45.238094 0.021100 40.476189
v 45.238094 0.029517 35.714291
v 45.238094 0.029517 30.952379
v 45.238094 0.029517 26.190474
v 45.238094 0.021098 21.428576
v 45.238094 0.021098 16.666670
v 45.238094 0.021098 11.904765
v 45.238094 0.021097 7.142860
v 45.238094 0.021097 2.380955
v 45.238094 0.021097 -2.380950
v 45.238094 0.021096 -7.142855
v 45.238094 0.021096 -11.904759
v 45.238094 0.021096 -16.666664
v 45.238094 0.021095 -21.428570
v 45.238094 0.021095 -26.190474
v 45.238094 0.021094 -30.952379
v 45.238094 0.021094 -35.714287
v 45.238094 0.021094 -40.476189
v 45.238094 0.021093 -45.238094
vn -0.0000 1.0000 -0.0000
vn -0.0002 1.0000 -0.0002
vn -0.0000 1.0000 -0.0006
vn 0.0004 1.0000 -0.0004
vn -0.0000 1.0000 -0.0011
vn -0.0006 0.9997 -0.0232
vn -0.0002 0.9988 -0.0499
vn 0.0001 0.9988 -0.0494
vn 0.0006 0.9988 -0.0491
vn -0.0008 0.9987 -0.0507
vn -0.0007 0.9987 -0.0506
vn 0.0315 0.9978 -0.0585
vn 0.0268 0.9993 -0.0277
vn -0.0000 1.0000 -0.0009
vn -0.0008 0.9996 -0.0288
vn 0.0328 0.9976 -0.0608
vn 0.0288 0.9992 -0.0288
vn 0.0005 1.0000 -0.0005
vn -0.0034 1.0000 -0.0000
vn -0.0003 1.0000 0.0003
vn -0.0012 1.0000 0.0004
vn -0.0016 1.0000 -0.0000
vn -0.0005 1.0000 -0.0012
vn -0.0016 1.0000 -0.0008
vn -0.0016 1.0000 -0.0005
vn -0.0426 0.9991 0.0011
vn -0.0426 0.9991 -0.0011
vn -0.1297 0.9915 0.0034
vn -0.2665 0.9638 -0.0000
vn -0.2666 0.9638 -0.0000
vn -0.1297 0.9915 -0.0034
vn -0.0622 0.9981 0.0016
vn -0.1306 0.9914 -0.0000
vn -0.0622 0.9981 -0.0016
vn -0.0004 1.0000 -0.0004
vn -0.0013 1.0000 0.0013
vn -0.0017 0.9991 0.0426
vn -0.0490 0.9976 0.0485
vn -0.0485 0.9976 -0.0485
vn -0.0011 0.9991 -0.0426
vn -0.1286 0.9833 0.1286
vn -0.1460 0.9785 0.1460
vn -0.2596 0.9657 -0.0000
vn -0.2603 0.9655 -0.0000
vn -0.2389 0.9604 -0.1433
vn -0.0071 0.9915 -0.1297
vn -0.0071 0.9980 0.0622
vn -0.0707 0.9950 0.0707
vn -0.1148 0.9934 -0.0000
vn -0.1228 0.9899 -0.0703
vn -0.1524 0.9865 -0.0599
vn -0.0227 0.9997 -0.0000
vn -0.0227 0.9997 0.0009
vn -0.0227 0.9997 0.0017
vn -0.0653 0.9938 0.0895
vn 0.0604 0.9951 0.0783
vn 0.0604 0.9951 -0.0788
vn 0.0478 0.9948 -0.0897
vn -0.0034 0.9915 0.1297
vn -0.2288 0.9401 0.2527
vn -0.0297 0.9991 0.0310
vn -0.0941 0.9762 -0.1955
vn -0.1225 0.9301 -0.3463
vn -0.1296 0.9838 0.1242
vn -0.0378 0.9927 0.1148
vn -0.0008 0.9995 0.0312
vn -0.1833 0.9788 -0.0918
vn -0.1576 0.9870 -0.0299
vn -0.1156 0.9930 -0.0226
vn -0.0721 0.9949 -0.0707
vn -0.0610 0.9974 -0.0396
vn -0.0608 0.9974 -0.0395
vn -0.0620 0.9973 -0.0395
vn -0.0608 0.9972 0.0446
vn -0.0521 0.9980 0.0366
vn 0.0475 0.9989 0.0056
vn 0.0474 0.9967 -0.0662
vn 0.0475 0.9967 -0.0662
vn 0.0478 0.9967 -0.0662
vn -0.0232 0.9988 -0.0432
vn 0.0034 1.0000 0.0034
vn 0.1423 0.9540 0.2638
vn 0.2301 0.9456 0.2301
vn 0.0297 0.9980 0.0551
vn 0.0503 0.9974 0.0516
vn 0.0498 0.9871 -0.1524
vn 0.0909 0.9437 -0.3180
vn -0.0062 0.9995 0.0325
vn 0.1153 0.9903 0.0776
vn 0.1573 0.9854 0.0650
vn 0.0577 0.9967 0.0577
vn 0.0577 0.9967 -0.0577
vn 0.0355 0.9972 -0.0658
vn -0.0622 0.9915 -0.1140
vn -0.0367 0.9980 -0.0511
vn -0.0365 0.9930 0.1125
vn -0.0022 0.9992 -0.0406
vn 0.0185 0.9954 -0.0937
vn -0.0065 0.9999 -0.0120
vn -0.0068 0.9999 -0.0120
vn -0.0265 0.9993 -0.0269
vn 0.1286 0.9833 0.1286
vn 0.1284 0.9833 0.1286
vn 0.1460 0.9785 0.1460
vn 0.2423 0.9369 0.2518
vn 0.2578 0.9657 0.0299
vn 0.2532 0.9486 -0.1900
vn 0.1546 0.9774 -0.1444
vn 0.0889 0.9946 -0.0539
vn 0.1196 0.9919 -0.0439
vn 0.0934 0.9954 0.0226
vn 0.1773 0.9719 0.1552
vn 0.1793 0.9832 -0.0350
vn 0.0827 0.9966 -0.0002
vn 0.0825 0.9932 -0.0819
vn 0.0227 0.9968 -0.0770
vn 0.0226 0.9968 -0.0769
vn 0.0233 0.9967 0.0779
vn 0.0228 0.9967 0.0775
vn 0.0239 0.9966 0.0785
vn 0.0239 0.9978 -0.0613
vn -0.0742 0.9949 -0.0687
vn -0.0139 0.9996 0.0244
vn -0.0010 0.9991 -0.0433
vn -0.0000 1.0000 0.0002
vn 0.1279 0.9834 0.1287
vn 0.1830 0.9709 0.1547
vn 0.1217 0.9923 0.0225
vn 0.1212 0.9885 -0.0905
vn 0.0668 0.9947 -0.0784
vn 0.0777 0.9934 -0.0849
vn 0.0561 0.9969 -0.0552
vn 0.0621 0.9962 0.0604
vn 0.1303 0.9890 0.0703
vn 0.1306 0.9914 0.0001
vn 0.1313 0.9913 0.0008
vn 0.1314 0.9913 0.0008
vn 0.1618 0.9849 0.0618
vn 0.1079 0.9939 -0.0220
vn 0.1076 0.9912 -0.0767
vn 0.0525 0.9956 0.0773
vn -0.0746 0.9951 0.0656
vn -0.1040 0.9899 -0.0968
vn -0.1041 0.9898 -0.0968
vn -0.1025 0.9900 -0.0969
vn -0.0072 0.9993 -0.0363
vn -0.0079 0.9984 -0.0554
vn -0.0071 0.9985 -0.0549
vn -0.0086 0.9984 -0.0562
vn 0.0002 1.0000 0.0007
vn -0.0000 1.0000 0.0008
vn 0.0229 0.9947 0.1004
vn 0.0359 0.9955 0.0881
vn 0.0361 0.9987 -0.0361
vn 0.0200 0.9958 -0.0896
vn -0.0000 0.9981 -0.0615
vn 0.0018 0.9980 -0.0633
vn -0.0000 1.0000 -0.0007
vn 0.0014 1.0000 -0.0007
vn 0.0004 1.0000 -0.0000
vn 0.0007 1.0000 0.0003
vn 0.0016 1.0000 0.0005
vn 0.0016 1.0000 0.0008
vn 0.0016 1.0000 -0.0000
vn 0.0326 0.9990 0.0309
vn 0.0653 0.9973 0.0336
vn 0.0195 0.9996 -0.0215
vn 0.0852 0.9760 0.2004
vn 0.1618 0.9725 0.1677
vn 0.1617 0.9722 -0.1692
vn 0.0693 0.9887 -0.1328
vn 0.0228 0.9982 -0.0547
vn 0.0002 1.0000 0.0002
vn 0.0004 1.0000 0.0008
vn 0.0494 0.9958 0.0776
vn 0.0908 0.9930 0.0749
vn 0.0911 0.9956 -0.0200
vn 0.0713 0.9949 -0.0713
vn 0.0332 0.9976 -0.0615
vn 0.0005 1.0000 0.0002
vn 0.0009 1.0000 0.0009
vn 0.0142 0.9996 0.0244
vn 0.1341 0.9817 0.1351
vn 0.1660 0.9819 0.0916
vn 0.1662 0.9831 -0.0764
vn 0.0469 0.9951 -0.0866
vn 0.0202 0.9978 -0.0635
vn 0.0291 0.9992 0.0291
vn 0.0618 0.9975 0.0335
vn 0.0617 0.9981 -0.0001
vn 0.0617 0.9981 -0.0002
vn 0.0618 0.9981 -0.0003
vn 0.0615 0.9976 -0.0332
vn 0.0291 0.9992 -0.0291
vn 0.0110 0.9999 0.0110
vn 0.0261 0.9995 0.0152
vn 0.0540 0.9967 0.0607
vn 0.0540 0.9967 0.0609
vn 0.0540 0.9966 0.0627
vn 0.0351 0.9984 0.0442
vn 0.0351 0.9976 -0.0601
vn -0.0279 0.9972 -0.0700
vn 0.0001 1.0000 0.0010
vn -0.0009 1.0000 -0.0000
vn 0.0007 1.0000 0.0002
vn 0.0008 1.0000 0.0004
vn 0.0007 1.0000 -0.0000
vn -0.0000 1.0000 -0.0004
vn -0.0000 1.0000 0.0003
vn 0.0321 0.9989 0.0328
vn 0.0327 0.9975 0.0623
vn 0.0324 0.9975 0.0625
vn 0.0334 0.9974 0.0631
vn -0.0220 0.9998 -0.0026
vn -0.0217 0.9998 -0.0026
vn -0.0328 0.9974 -0.0645
vn -0.0011 1.0000 0.0011
vn -0.0017 1.0000 -0.0000
vn -0.0018 1.0000 -0.0000
vn -0.0017 1.0000 -0.0006
vn 0.0006 1.0000 0.0004
vn 0.0001 1.0000 0.0008
vn 0.0334 0.9975 0.0616
vn 0.0337 0.9975 0.0616
vn 0.0533 0.9972 0.0525
vn 0.0533 0.9972 -0.0533
vn -0.0670 0.9977 0.0018
vn -0.1406 0.9901 -0.0000
vn -0.0670 0.9977 -0.0018
vn 0.0288 0.9992 0.0288
vn 0.0608 0.9976 0.0328
vn 0.0608 0.9976 -0.0328
vn -0.0018 0.9977 0.0670
vn -0.0762 0.9942 0.0762
vn -0.1237 0.9923 -0.0000
vn -0.0762 0.9942 -0.0762
vn -0.0669 0.9955 -0.0669
vn 0.0008 1.0000 -0.0000
vn -0.0000 0.9901 0.1406
vn -0.0000 0.9923 0.1237
vn -0.1227 0.9848 -0.1227
vn -0.0018 0.9977 -0.0670
vn -0.0006 1.0000 -0.0017
vn -0.0000 0.9923 -0.1237
vn -0.0000 0.9901 -0.1406
vn -0.0000 1.0000 -0.0018
vn -0.0009 1.0000 -0.0018
vn 0.0756 0.9872 0.1402
vn 0.1227 0.9848 0.1227
vn -0.0000 1.0000 -0.0017
vn 0.0010 1.0000 0.0001
vn 0.0669 0.9955 0.0669
vn 0.0762 0.9942 0.0762
vn 0.1237 0.9923 -0.0000
vn 0.1227 0.9848 -0.1227
vn 0.0756 0.9872 -0.1402
vn 0.0011 1.0000 -0.0011
vn 0.1402 0.9872 0.0756
vn 0.1406 0.9901 -0.0000
vn 0.1402 0.9872 -0.0756
vn 0.0669 0.9955 -0.0669
vn 0.0004 1.0000 0.0004
vn 0.0013 1.0000 0.0004
vn 0.0018 1.0000 0.0009
vn 0.0018 1.0000 -0.0000
vn 0.0017 1.0000 -0.0000
vn 0.0005 1.0000 -0.0013
vn -0.0232 0.9995 -0.0232
vn -0.0265 0.9984 -0.0490
vn -0.0086 0.9983 -0.0585
vn 0.0007 0.9996 -0.0277
vn -0.0279 0.9992 -0.0288
vn -0.0328 0.9976 -0.0608
vn 0.0008 0.9996 -0.0288
vn -0.0016 1.0000 0.0008
vn -0.0426 0.9982 0.0426
vn -0.0897 0.9948 0.0484
vn -0.0897 0.9948 -0.0484
vn -0.0426 0.9982 -0.0426
vn -0.1286 0.9833 -0.1286
vn -0.0621 0.9961 0.0621
vn -0.1303 0.9890 0.0703
vn -0.0017 1.0000 0.0017
vn -0.0489 0.9948 0.0896
vn -0.0787 0.9938 0.0782
vn -0.0787 0.9938 -0.0787
vn -0.0484 0.9948 -0.0897
vn -0.2270 0.9127 -0.3399
vn -0.0703 0.9897 0.1249
vn -0.1141 0.9869 0.1141
vn -0.1303 0.9890 -0.0703
vn -0.0621 0.9973 -0.0395
vn -0.0655 0.9969 0.0446
vn -0.0123 0.9993 0.0367
vn -0.0123 0.9999 0.0056
vn 0.0479 0.9967 -0.0662
vn 0.0011 0.9991 -0.0432
vn -0.0034 1.0000 0.0034
vn -0.1423 0.9540 0.2638
vn -0.0297 0.9980 0.0551
vn -0.0503 0.9974 0.0516
vn -0.0498 0.9871 -0.1524
vn -0.0909 0.9437 -0.3180
vn -0.0380 0.9988 0.0325
vn -0.0008 0.9969 0.0781
vn -0.0355 0.9972 0.0658
vn -0.0355 0.9977 0.0578
vn -0.1149 0.9869 -0.1135
vn -0.0722 0.9961 -0.0510
vn -0.1276 0.9855 0.1117
vn -0.1283 0.9909 -0.0402
vn -0.0519 0.9943 -0.0936
vn -0.0069 0.9999 -0.0120
vn -0.0069 0.9996 -0.0269
vn 0.0034 0.9915 0.1297
vn 0.2288 0.9401 0.2527
vn 0.0297 0.9991 0.0310
vn 0.0941 0.9762 -0.1955
vn -0.0915 0.9851 -0.1455
vn -0.0924 0.9943 -0.0539
vn -0.0062 0.9990 -0.0442
vn 0.1156 0.9930 0.0226
vn 0.1558 0.9754 0.1558
vn 0.0356 0.9987 -0.0356
vn -0.0301 0.9995 -0.0002
vn -0.0300 0.9962 -0.0822
vn -0.0624 0.9951 -0.0767
vn -0.0022 0.9969 0.0785
vn 0.0186 0.9979 -0.0613
vn -0.0065 0.9976 -0.0689
vn -0.0428 0.9988 0.0243
vn -0.0428 0.9981 -0.0432
vn 0.1457 0.9770 0.1557
vn 0.2503 0.9679 0.0219
vn 0.1556 0.9837 -0.0901
vn 0.0887 0.9930 -0.0783
vn 0.1193 0.9893 -0.0845
vn 0.1304 0.9899 -0.0548
vn 0.1304 0.9896 0.0600
vn 0.0932 0.9931 0.0706
vn 0.1445 0.9895 0.0008
vn 0.1442 0.9876 0.0620
vn 0.0226 0.9995 -0.0221
vn 0.0228 0.9968 -0.0771
vn 0.0228 0.9967 0.0774
vn -0.1026 0.9926 0.0654
vn -0.0743 0.9966 -0.0362
vn -0.0139 0.9983 -0.0562
vn 0.1283 0.9867 0.0996
vn 0.1845 0.9790 0.0867
vn 0.0670 0.9971 -0.0360
vn 0.0777 0.9930 -0.0893
vn 0.0560 0.9964 -0.0632
vn 0.0016 1.0000 -0.0004
vn 0.0622 0.9981 0.0016
vn 0.1306 0.9914 -0.0000
vn 0.1313 0.9909 0.0307
vn 0.1620 0.9862 0.0332
vn 0.0526 0.9984 -0.0215
vn -0.0732 0.9769 0.2006
vn -0.1760 0.9701 0.1672
vn -0.1037 0.9858 -0.1324
vn -0.0072 0.9985 -0.0548
vn -0.0000 0.9970 0.0777
vn 0.0229 0.9969 0.0752
vn 0.0201 0.9996 -0.0201
vn 0.0018 0.9974 -0.0715
vn 0.0326 0.9995 0.0009
vn 0.0653 0.9976 0.0243
vn 0.0194 0.9905 0.1363
vn 0.0866 0.9919 0.0926
vn 0.0697 0.9946 -0.0773
vn 0.0227 0.9960 -0.0867
vn 0.0315 0.9975 -0.0635
vn 0.0008 0.9996 0.0291
vn 0.0495 0.9982 0.0335
vn 0.0715 0.9974 -0.0003
vn 0.0332 0.9989 -0.0332
vn 0.0008 0.9996 -0.0291
vn 0.0009 0.9999 0.0110
vn 0.0142 0.9998 0.0152
vn 0.1351 0.9890 0.0602
vn 0.0470 0.9979 0.0441
vn 0.0202 0.9980 -0.0601
vn 0.0268 0.9972 -0.0700
vn 0.0291 0.9996 0.0008
vn 0.0615 0.9981 -0.0000
vn 0.0291 0.9996 -0.0008
vn 0.0110 0.9999 -0.0000
vn 0.0261 0.9991 0.0328
vn 0.0540 0.9966 0.0630
vn -0.0224 0.9997 -0.0026
vn -0.0223 0.9977 -0.0645
vn 0.0335 0.9981 0.0525
vn -0.0217 0.9983 -0.0534
vn -0.0018 1.0000 -0.0009
vn 0.0008 0.9996 0.0288
vn 0.0337 0.9989 0.0328
vn 0.0328 0.9989 -0.0328
vn -0.0669 0.9955 0.0669
vn -0.1402 0.9872 0.0756
vn -0.1402 0.9872 -0.0756
vn 0.0288 0.9996 0.0008
vn 0.0288 0.9996 -0.0008
vn -0.0756 0.9872 0.1402
vn -0.1227 0.9848 0.1227
vn -0.0756 0.9872 -0.1402
vn 0.0018 0.9977 0.0670
vn 0.0762 0.9942 -0.0762
vn 0.0018 0.9977 -0.0670
vn 0.0670 0.9977 0.0018
vn 0.0670 0.9977 -0.0018
vn -0.0034 1.0000 -0.0034
vn -0.2638 0.9540 0.1423
vn -0.2638 0.9540 -0.1423
vn -0.0621 0.9962 -0.0604
vn -0.2513 0.9347 0.2513
vn -0.2870 0.9575 0.0297
vn -0.2820 0.9407 -0.1884
vn -0.1452 0.9889 0.0309
vn -0.1446 0.9852 -0.0924
vn -0.1231 0.9919 -0.0301
vn -0.1526 0.9880 -0.0225
vn -0.2301 0.9456 0.2301
vn -0.1838 0.9813 -0.0568
vn -0.1573 0.9854 -0.0650
vn -0.1024 0.9900 -0.0968
vn -0.1759 0.9698 -0.1688
vt 1.000000 0.952381
vt 0.952381 1.000000
vt 0.952381 0.952381
vt 0.047619 0.952381
vt 0.000000 1.000000
vt 0.000000 0.952381
vt 0.095238 1.000000
vt 0.047619 1.000000
vt 0.142857 0.952381
vt 0.095238 0.952381
vt 0.190476 1.000000
vt 0.142857 1.000000
vt 0.190476 0.952381
vt 0.238095 1.000000
vt 0.238095 0.952381
vt 0.285714 1.000000
vt 0.285714 0.952381
vt 0.333333 1.000000
vt 0.380952 0.952381
vt 0.333333 0.952381
vt 0.428571 0.952381
vt 0.380952 1.000000
vt 0.476190 1.000000
vt 0.428571 1.000000
vt 0.476190 0.952381
vt 0.523810 1.000000
vt 0.571429 0.952381
vt 0.523810 0.952381
vt 0.619048 0.952381
vt 0.571429 1.000000
vt 0.666667 0.952381
vt 0.619048 1.000000
vt 0.714286 0.952381
vt 0.666667 1.000000
vt 0.761905 0.952381
vt 0.714286 1.000000
vt 0.809524 0.952381
vt 0.761905 1.000000
vt 0.857143 0.952381
vt 0.809524 1.000000
vt 0.904762 0.952381
vt 0.857143 1.000000
vt 0.904762 1.000000
vt 0.047619 0.000000
vt 0.000000 0.047619
vt 0.000000 0.000000
vt 0.047619 0.095238
vt 0.000000 0.095238
vt 0.047619 0.142857
vt 0.000000 0.142857
vt 0.000000 0.190476
vt 0.047619 0.238095
vt 0.000000 0.238095
vt 0.047619 0.285714
vt 0.000000 0.285714
vt 0.047619 0.333333
vt 0.000000 0.333333
vt 0.047619 0.380952
vt 0.000000 0.380952
vt 0.000000 0.428571
vt 0.047619 0.476190
vt 0.000000 0.476190
vt 0.047619 0.523810
vt 0.000000 0.523810
vt 0.047619 0.571429
vt 0.000000 0.571429
vt 0.047619 0.619048
vt 0.000000 0.619048
vt 0.047619 0.666667
vt 0.000000 0.666667
vt 0.047619 0.714286
vt 0.000000 0.714286
vt 0.047619 0.761905
vt 0.000000 0.761905
vt 0.000000 0.809524
vt 0.047619 0.809524
vt 0.000000 0.857143
vt 0.047619 0.904762
vt 0.000000 0.904762
vt 0.095238 0.000000
vt 0.047619 0.047619
vt 0.095238 0.047619
vt 0.095238 0.095238
vt 0.095238 0.142857
vt 0.047619 0.190476
vt 0.095238 0.190476
vt 0.095238 0.285714
vt 0.095238 0.333333
vt 0.095238 0.380952
vt 0.047619 0.428571
vt 0.095238 0.428571
vt 0.095238 0.523810
vt 0.095238 0.571429
vt 0.095238 0.666667
vt 0.095238 0.714286
vt 0.095238 0.761905
vt 0.095238 0.809524
vt 0.047619 0.857143
vt 0.095238 0.904762
vt 0.142857 0.000000
vt 0.142857 0.047619
vt 0.142857 0.095238
vt 0.142857 0.142857
vt 0.142857 0.190476
vt 0.095238 0.238095
vt 0.142857 0.285714
vt 0.142857 0.333333
vt 0.142857 0.380952
vt 0.142857 0.428571
vt 0.095238 0.476190
vt 0.142857 0.523810
vt 0.142857 0.571429
vt 0.142857 0.619048
vt 0.095238 0.619048
vt 0.142857 0.666667
vt 0.142857 0.714286
vt 0.142857 0.761905
vt 0.142857 0.857143
vt 0.095238 0.857143
vt 0.142857 0.904762
vt 0.190476 0.000000
vt 0.190476 0.047619
vt 0.190476 0.095238
vt 0.190476 0.142857
vt 0.190476 0.190476
vt 0.142857 0.238095
vt 0.190476 0.285714
vt 0.190476 0.333333
vt 0.190476 0.380952
vt 0.190476 0.428571
vt 0.142857 0.476190
vt 0.190476 0.523810
vt 0.190476 0.571429
vt 0.190476 0.619048
vt 0.190476 0.666667
vt 0.190476 0.714286
vt 0.190476 0.809524
vt 0.142857 0.809524
vt 0.190476 0.857143
vt 0.238095 0.047619
vt 0.238095 0.095238
vt 0.238095 0.142857
vt 0.238095 0.190476
vt 0.238095 0.238095
vt 0.190476 0.238095
vt 0.238095 0.285714
vt 0.238095 0.380952
vt 0.238095 0.428571
vt 0.238095 0.476190
vt 0.190476 0.476190
vt 0.238095 0.523810
vt 0.238095 0.571429
vt 0.238095 0.666667
vt 0.238095 0.714286
vt 0.190476 0.761905
vt 0.238095 0.761905
vt 0.238095 0.809524
vt 0.238095 0.857143
vt 0.190476 0.904762
vt 0.285714 0.000000
vt 0.238095 0.000000
vt 0.285714 0.095238
vt 0.285714 0.142857
vt 0.285714 0.190476
vt 0.285714 0.238095
vt 0.285714 0.285714
vt 0.238095 0.333333
vt 0.285714 0.333333
vt 0.285714 0.380952
vt 0.285714 0.476190
vt 0.285714 0.523810
vt 0.285714 0.619048
vt 0.238095 0.619048
vt 0.285714 0.666667
vt 0.285714 0.761905
vt 0.285714 0.857143
vt 0.285714 0.904762
vt 0.238095 0.904762
vt 0.333333 0.000000
vt 0.285714 0.047619
vt 0.333333 0.047619
vt 0.333333 0.142857
vt 0.333333 0.190476
vt 0.333333 0.238095
vt 0.333333 0.285714
vt 0.333333 0.333333
vt 0.333333 0.380952
vt 0.285714 0.428571
vt 0.333333 0.476190
vt 0.333333 0.523810
vt 0.333333 0.571429
vt 0.285714 0.571429
vt 0.333333 0.619048
vt 0.333333 0.666667
vt 0.285714 0.714286
vt 0.333333 0.714286
vt 0.333333 0.761905
vt 0.285714 0.809524
vt 0.333333 0.857143
vt 0.333333 0.904762
vt 0.380952 0.000000
vt 0.380952 0.047619
vt 0.333333 0.095238
vt 0.380952 0.095238
vt 0.380952 0.190476
vt 0.380952 0.238095
vt 0.380952 0.285714
vt 0.380952 0.333333
vt 0.380952 0.380952
vt 0.333333 0.428571
vt 0.380952 0.428571
vt 0.380952 0.523810
vt 0.380952 0.619048
vt 0.380952 0.666667
vt 0.380952 0.714286
vt 0.380952 0.761905
vt 0.380952 0.809524
vt 0.333333 0.809524
vt 0.380952 0.857143
vt 0.380952 0.904762
vt 0.428571 0.000000
vt 0.428571 0.047619
vt 0.428571 0.142857
vt 0.380952 0.142857
vt 0.428571 0.190476
vt 0.428571 0.238095
vt 0.428571 0.285714
vt 0.428571 0.333333
vt 0.428571 0.380952
vt 0.428571 0.428571
vt 0.380952 0.476190
vt 0.428571 0.476190
vt 0.428571 0.523810
vt 0.380952 0.571429
vt 0.428571 0.571429
vt 0.428571 0.666667
vt 0.428571 0.714286
vt 0.428571 0.761905
vt 0.428571 0.809524
vt 0.428571 0.857143
vt 0.428571 0.904762
vt 0.476190 0.000000
vt 0.476191 0.047619
vt 0.428571 0.095238
vt 0.476191 0.095238
vt 0.476190 0.190476
vt 0.476190 0.238095
vt 0.476190 0.285714
vt 0.476190 0.333333
vt 0.476190 0.380952
vt 0.476190 0.428571
vt 0.476190 0.476190
vt 0.476190 0.523810
vt 0.476190 0.571429
vt 0.428571 0.619048
vt 0.476190 0.619048
vt 0.476190 0.714286
vt 0.476190 0.761905
vt 0.476190 0.809524
vt 0.476190 0.857143
vt 0.523810 0.000000
vt 0.523810 0.047619
vt 0.523810 0.095238
vt 0.476191 0.142857
vt 0.523810 0.142857
vt 0.523810 0.238095
vt 0.523810 0.285714
vt 0.523810 0.333333
vt 0.523810 0.380952
vt 0.523810 0.428571
vt 0.523810 0.476190
vt 0.523810 0.523810
vt 0.523810 0.571429
vt 0.523810 0.619048
vt 0.476190 0.666667
vt 0.523810 0.666667
vt 0.523810 0.714286
vt 0.523810 0.809524
vt 0.523810 0.857143
vt 0.523810 0.904762
vt 0.476190 0.904762
vt 0.571429 0.000000
vt 0.571429 0.047619
vt 0.571429 0.095238
vt 0.571429 0.142857
vt 0.523810 0.190476
vt 0.571429 0.238095
vt 0.571429 0.285714
vt 0.571429 0.333333
vt 0.571429 0.380952
vt 0.571429 0.428571
vt 0.571429 0.476190
vt 0.571429 0.523810
vt 0.571429 0.571429
vt 0.571429 0.619048
vt 0.571429 0.666667
vt 0.571429 0.761905
vt 0.523810 0.761905
vt 0.571429 0.809524
vt 0.571429 0.857143
vt 0.571429 0.904762
vt 0.619048 0.000000
vt 0.619048 0.047619
vt 0.619048 0.095238
vt 0.619048 0.142857
vt 0.571429 0.190476
vt 0.619048 0.238095
vt 0.619048 0.285714
vt 0.619048 0.333333
vt 0.619048 0.380952
vt 0.619048 0.428571
vt 0.619048 0.476190
vt 0.619048 0.523810
vt 0.619048 0.571429
vt 0.619048 0.619048
vt 0.619048 0.666667
vt 0.571429 0.714286
vt 0.619048 0.714286
vt 0.619048 0.761905
vt 0.619048 0.857143
vt 0.619048 0.904762
vt 0.666667 0.000000
vt 0.666667 0.047619
vt 0.666667 0.095238
vt 0.666667 0.142857
vt 0.619048 0.190476
vt 0.666667 0.238095
vt 0.666667 0.285714
vt 0.666667 0.333333
vt 0.666667 0.380952
vt 0.666667 0.428571
vt 0.666667 0.476190
vt 0.666667 0.523810
vt 0.666667 0.571429
vt 0.666667 0.619048
vt 0.666667 0.666667
vt 0.666667 0.714286
vt 0.666667 0.761905
vt 0.619048 0.809524
vt 0.666667 0.809524
vt 0.666667 0.904762
vt 0.714286 0.000000
vt 0.714286 0.047619
vt 0.714286 0.095238
vt 0.714286 0.142857
vt 0.666667 0.190476
vt 0.714286 0.238095
vt 0.714286 0.285714
vt 0.714286 0.333333
vt 0.714286 0.380952
vt 0.714286 0.428571
vt 0.714286 0.476190
vt 0.714286 0.523810
vt 0.714286 0.571429
vt 0.714286 0.619048
vt 0.714286 0.666667
vt 0.714286 0.714286
vt 0.714286 0.761905
vt 0.714286 0.809524
vt 0.666667 0.857143
vt 0.714286 0.857143
vt 0.714286 0.904762
vt 0.761905 0.000000
vt 0.761905 0.047619
vt 0.761905 0.095238
vt 0.761905 0.142857
vt 0.714286 0.190476
vt 0.761905 0.190476
vt 0.761905 0.238095
vt 0.761905 0.285714
vt 0.761905 0.333333
vt 0.761905 0.380952
vt 0.761905 0.428571
vt 0.761905 0.476190
vt 0.761905 0.523810
vt 0.761905 0.571429
vt 0.761905 0.619048
vt 0.761905 0.666667
vt 0.761905 0.714286
vt 0.761905 0.761905
vt 0.761905 0.809524
vt 0.761905 0.857143
vt 0.761905 0.904762
vt 0.809524 0.000000
vt 0.809524 0.047619
vt 0.809524 0.095238
vt 0.809524 0.142857
vt 0.809524 0.190476
vt 0.809524 0.238095
vt 0.809524 0.285714
vt 0.809524 0.333333
vt 0.809524 0.380952
vt 0.809524 0.428571
vt 0.809524 0.476190
vt 0.809524 0.523810
vt 0.809524 0.571429
vt 0.809524 0.619048
vt 0.809524 0.666667
vt 0.809524 0.714286
vt 0.809524 0.761905
vt 0.809524 0.809524
vt 0.809524 0.857143
vt 0.809524 0.904762
vt 0.857143 0.047619
vt 0.857143 0.095238
vt 0.857143 0.142857
vt 0.857143 0.190476
vt 0.857143 0.238095
vt 0.857143 0.285714
vt 0.857143 0.333333
vt 0.857143 0.380952
vt 0.857143 0.428571
vt 0.857143 0.476190
vt 0.857143 0.523810
vt 0.857143 0.571429
vt 0.857143 0.619048
vt 0.857143 0.666667
vt 0.857143 0.714286
vt 0.857143 0.761905
vt 0.857143 0.809524
vt 0.857143 0.857143
vt 0.857143 0.904762
vt 0.857143 0.000000
vt 0.904762 0.047619
vt 0.904762 0.095238
vt 0.904762 0.142857
vt 0.904762 0.190476
vt 0.904762 0.238095
vt 0.904762 0.285714
vt 0.904762 0.333333
vt 0.904762 0.380952
vt 0.904762 0.428571
vt 0.904762 0.476190
vt 0.904762 0.523810
vt 0.904762 0.571429
vt 0.904762 0.619048
vt 0.904762 0.666667
vt 0.904762 0.714286
vt 0.904762 0.761905
vt 0.904762 0.809524
vt 0.904762 0.857143
vt 0.904762 0.904762
vt 0.952381 0.000000
vt 0.904762 0.000000
vt 0.952381 0.095238
vt 0.952381 0.142857
vt 0.952381 0.190476
vt 0.952381 0.238095
vt 0.952381 0.285714
vt 0.952381 0.333333
vt 0.952381 0.380952
vt 0.952381 0.428571
vt 0.952381 0.476190
vt 0.952381 0.523810
vt 0.952381 0.571429
vt 0.952381 0.619048
vt 0.952381 0.666667
vt 0.952381 0.714286
vt 0.952381 0.761905
vt 0.952381 0.809524
vt 0.952381 0.857143
vt 0.952381 0.904762
vt 1.000000 0.000000
vt 0.952381 0.047619
vt 1.000000 0.047619
vt 1.000000 0.142857
vt 1.000000 0.190476
vt 1.000000 0.238095
vt 1.000000 0.285714
vt 1.000000 0.333333
vt 1.000000 0.380952
vt 1.000000 0.428571
vt 1.000000 0.476190
vt 1.000000 0.523810
vt 1.000000 0.571429
vt 1.000000 0.619048
vt 1.000000 0.666667
vt 1.000000 0.714286
vt 1.000000 0.761905
vt 1.000000 0.809524
vt 1.000000 0.857143
vt 1.000000 0.904762
vt 1.000000 1.000000
vt 1.000000 0.095238
s 1
usemtl Material.001
f 64/1/1 65/2/1 484/3/1
f 104/4/2 3/5/1 5/6/1
f 104/4/2 83/7/3 84/8/1
f 144/9/4 83/7/3 124/10/5
f 144/9/4 81/11/1 82/12/1
f 164/13/6 80/14/6 81/11/6
f 184/15/7 79/16/8 80/14/9
f 204/17/10 78/18/11 79/16/8
f 244/19/12 78/18/12 224/20/12
f 264/21/13 77/22/13 244/19/13
f 264/21/14 75/23/14 76/24/14
f 284/25/15 74/26/15 75/23/15
f 324/27/16 74/26/16 304/28/16
f 344/29/17 73/30/17 324/27/17
f 364/31/1 72/32/1 344/29/18
f 384/33/1 71/34/1 364/31/1
f 404/35/1 70/36/1 384/33/1
f 424/37/1 69/38/1 404/35/1
f 444/39/1 68/40/1 424/37/1
f 464/41/1 67/42/1 444/39/1
f 484/3/1 66/43/1 464/41/1
f 25/44/1 24/45/1 1/46/1
f 24/45/1 86/47/1 23/48/1
f 23/48/1 87/49/1 22/50/1
f 87/49/1 21/51/1 22/50/1
f 21/51/19 89/52/19 20/53/19
f 20/53/1 90/54/1 19/55/1
f 19/55/1 91/56/1 18/57/1
f 18/57/1 92/58/20 17/59/1
f 92/58/20 16/60/21 17/59/1
f 16/60/21 94/61/22 15/62/23
f 15/62/23 95/63/24 14/64/1
f 14/64/1 96/65/1 13/66/1
f 13/66/1 97/67/25 12/68/1
f 12/68/1 98/69/1 11/70/1
f 11/70/1 99/71/1 10/72/1
f 10/72/1 100/73/20 9/74/1
f 100/73/20 8/75/1 9/74/1
f 101/76/26 7/77/26 8/75/26
f 7/77/27 103/78/27 6/79/27
f 6/79/1 104/4/2 5/6/1
f 26/80/1 85/81/1 25/44/1
f 105/82/1 86/47/1 85/81/1
f 106/83/1 87/49/1 86/47/1
f 107/84/28 88/85/28 87/49/28
f 108/86/29 89/52/30 88/85/30
f 89/52/31 110/87/31 90/54/31
f 90/54/1 111/88/1 91/56/1
f 111/88/1 92/58/20 91/56/1
f 112/89/32 93/90/32 92/58/32
f 113/91/33 94/61/33 93/90/33
f 94/61/34 115/92/34 95/63/34
f 95/63/24 116/93/22 96/65/1
f 116/93/22 97/67/25 96/65/1
f 97/67/25 118/94/35 98/69/1
f 118/94/35 99/71/1 98/69/1
f 119/95/36 100/73/20 99/71/1
f 120/96/37 101/76/37 100/73/37
f 121/97/38 102/98/38 101/76/38
f 102/98/39 123/99/39 103/78/39
f 103/78/40 124/10/40 104/4/40
f 27/100/1 105/82/1 26/80/1
f 125/101/1 106/83/1 105/82/1
f 126/102/41 107/84/41 106/83/41
f 127/103/42 108/86/42 107/84/42
f 128/104/43 109/105/44 108/86/29
f 109/105/45 130/106/45 110/87/45
f 110/87/46 131/107/46 111/88/46
f 131/107/47 112/89/47 111/88/47
f 132/108/48 113/91/48 112/89/48
f 133/109/49 114/110/49 113/91/49
f 114/110/50 135/111/50 115/92/50
f 115/92/51 136/112/51 116/93/51
f 116/93/33 137/113/33 117/114/33
f 117/114/34 138/115/34 118/94/34
f 118/94/52 139/116/53 119/95/53
f 139/116/53 120/96/54 119/95/53
f 140/117/55 121/97/55 120/96/55
f 121/97/56 142/118/56 122/119/56
f 142/118/57 123/99/57 122/119/57
f 143/120/58 124/10/58 123/99/58
f 28/121/1 125/101/1 27/100/1
f 145/122/59 126/102/59 125/101/59
f 146/123/42 127/103/42 126/102/42
f 147/124/60 128/104/60 127/103/60
f 148/125/61 129/126/61 128/104/61
f 129/126/62 150/127/62 130/106/62
f 130/106/63 151/128/63 131/107/63
f 151/128/64 132/108/64 131/107/64
f 152/129/65 133/109/65 132/108/65
f 153/130/66 134/131/66 133/109/66
f 134/131/67 155/132/67 135/111/67
f 135/111/68 156/133/68 136/112/68
f 136/112/69 157/134/69 137/113/69
f 137/113/70 158/135/70 138/115/70
f 138/115/71 159/136/72 139/116/73
f 159/136/74 140/117/74 139/116/74
f 140/117/75 161/137/75 141/138/75
f 141/138/76 162/139/76 142/118/76
f 162/139/77 143/120/78 142/118/79
f 143/120/80 164/13/80 144/9/80
f 28/121/81 165/140/81 145/122/81
f 145/122/82 166/141/82 146/123/82
f 146/123/83 167/142/83 147/124/83
f 147/124/84 168/143/84 148/125/84
f 148/125/85 169/144/85 149/145/85
f 169/144/86 150/127/86 149/145/86
f 170/146/87 151/128/87 150/127/87
f 151/128/88 172/147/88 152/129/88
f 152/129/89 173/148/89 153/130/89
f 153/130/90 174/149/90 154/150/90
f 154/150/91 175/151/91 155/132/91
f 175/151/92 156/133/92 155/132/92
f 176/152/93 157/134/93 156/133/93
f 157/134/94 178/153/94 158/135/94
f 158/135/95 179/154/95 159/136/95
f 179/154/96 160/155/96 159/136/96
f 180/156/97 161/137/97 160/155/97
f 181/157/98 162/139/98 161/137/98
f 182/158/99 163/159/99 162/139/100
f 163/159/101 184/15/101 164/13/101
f 30/160/1 165/140/1 29/161/1
f 165/140/102 186/162/103 166/141/102
f 166/141/104 187/163/104 167/142/104
f 167/142/105 188/164/105 168/143/105
f 168/143/106 189/165/106 169/144/106
f 189/165/107 170/146/107 169/144/107
f 190/166/108 171/167/108 170/146/108
f 191/168/109 172/147/109 171/167/109
f 192/169/110 173/148/110 172/147/110
f 173/148/111 194/170/111 174/149/111
f 174/149/112 195/171/112 175/151/112
f 195/171/113 176/152/113 175/151/113
f 176/152/114 197/172/114 177/173/114
f 197/172/115 178/153/115 177/173/115
f 198/174/116 179/154/116 178/153/117
f 179/154/118 200/175/119 180/156/120
f 200/175/121 181/157/121 180/156/121
f 181/157/122 202/176/122 182/158/122
f 182/158/123 203/177/123 183/178/123
f 183/178/124 204/17/124 184/15/124
f 31/179/1 185/180/1 30/160/1
f 205/181/1 186/162/125 185/180/1
f 186/162/103 207/182/126 187/163/102
f 187/163/127 208/183/127 188/164/127
f 188/164/128 209/184/128 189/165/128
f 209/184/129 190/166/129 189/165/129
f 210/185/130 191/168/130 190/166/130
f 211/186/131 192/169/131 191/168/131
f 212/187/132 193/188/132 192/169/132
f 193/188/133 214/189/133 194/170/133
f 194/170/134 215/190/134 195/171/134
f 195/171/135 216/191/136 196/192/137
f 196/192/138 217/193/138 197/172/138
f 197/172/139 218/194/139 198/174/139
f 218/194/140 199/195/140 198/174/140
f 219/196/141 200/175/141 199/195/141
f 220/197/142 201/198/142 200/175/142
f 201/198/143 222/199/144 202/176/145
f 202/176/146 223/200/146 203/177/146
f 203/177/147 224/20/148 204/17/149
f 32/201/1 205/181/1 31/179/1
f 225/202/1 206/203/1 205/181/1
f 226/204/150 207/182/151 206/203/1
f 207/182/152 228/205/152 208/183/152
f 208/183/153 229/206/153 209/184/153
f 229/206/154 210/185/154 209/184/154
f 230/207/155 211/186/155 210/185/155
f 231/208/156 212/187/157 211/186/157
f 232/209/158 213/210/158 212/187/159
f 233/211/160 214/189/161 213/210/158
f 214/189/161 235/212/162 215/190/163
f 235/212/162 216/191/164 215/190/163
f 216/191/165 237/213/165 217/193/165
f 217/193/166 238/214/166 218/194/166
f 218/194/167 239/215/167 219/196/167
f 219/196/168 240/216/168 220/197/168
f 220/197/169 241/217/169 221/218/169
f 241/217/170 222/199/170 221/218/170
f 242/219/171 223/200/171 222/199/171
f 243/220/172 224/20/172 223/200/172
f 33/221/1 225/202/1 32/201/1
f 245/222/1 226/204/150 225/202/1
f 226/204/150 247/223/173 227/224/174
f 227/224/175 248/225/175 228/205/175
f 228/205/176 249/226/176 229/206/176
f 249/226/177 230/207/177 229/206/177
f 250/227/178 231/208/178 230/207/178
f 251/228/179 232/209/179 231/208/179
f 252/229/18 233/211/160 232/209/158
f 253/230/1 234/231/1 233/211/160
f 254/232/1 235/212/162 234/231/1
f 255/233/1 236/234/1 235/212/162
f 256/235/1 237/213/180 236/234/1
f 237/213/180 258/236/173 238/214/181
f 238/214/182 259/237/182 239/215/182
f 239/215/183 260/238/183 240/216/183
f 240/216/184 261/239/184 241/217/184
f 261/239/185 242/219/185 241/217/185
f 262/240/186 243/220/186 242/219/186
f 263/241/187 244/19/187 243/220/187
f 34/242/1 245/222/1 33/221/1
f 265/243/1 246/244/1 245/222/1
f 266/245/1 247/223/173 246/244/1
f 247/223/188 268/246/188 248/225/188
f 248/225/189 269/247/189 249/226/189
f 269/247/190 250/227/191 249/226/192
f 270/248/193 251/228/193 250/227/193
f 271/249/194 252/229/194 251/228/194
f 272/250/1 253/230/1 252/229/18
f 273/251/1 254/232/1 253/230/1
f 274/252/1 255/233/1 254/232/1
f 275/253/1 256/235/1 255/233/1
f 276/254/1 257/255/1 256/235/1
f 277/256/1 258/236/173 257/255/1
f 258/236/195 279/257/195 259/237/195
f 259/237/196 280/258/196 260/238/196
f 260/238/197 281/259/198 261/239/199
f 261/239/200 282/260/200 262/240/200
f 282/260/201 263/241/201 262/240/201
f 263/241/202 284/25/202 264/21/202
f 35/261/1 265/243/1 34/242/1
f 285/262/1 266/245/1 265/243/1
f 286/263/203 267/264/1 266/245/1
f 287/265/204 268/246/173 267/264/1
f 268/246/173 289/266/205 269/247/206
f 289/266/205 270/248/207 269/247/206
f 290/267/208 271/249/18 270/248/207
f 291/268/1 272/250/1 271/249/18
f 292/269/1 273/251/1 272/250/1
f 293/270/1 274/252/1 273/251/1
f 294/271/1 275/253/1 274/252/1
f 295/272/1 276/254/1 275/253/1
f 296/273/1 277/256/1 276/254/1
f 297/274/1 278/275/1 277/256/1
f 298/276/1 279/257/1 278/275/1
f 299/277/1 280/258/209 279/257/1
f 280/258/210 301/278/210 281/259/210
f 281/259/211 302/279/212 282/260/213
f 282/260/214 303/280/215 283/281/214
f 283/281/216 304/28/216 284/25/216
f 36/282/1 285/262/1 35/261/1
f 305/283/217 286/263/203 285/262/1
f 306/284/218 287/265/204 286/263/203
f 307/285/219 288/286/220 287/265/204
f 288/286/220 309/287/35 289/266/205
f 309/287/35 290/267/208 289/266/205
f 310/288/1 291/268/1 290/267/208
f 311/289/1 292/269/1 291/268/1
f 312/290/1 293/270/1 292/269/1
f 313/291/1 294/271/1 293/270/1
f 314/292/1 295/272/1 294/271/1
f 315/293/1 296/273/1 295/272/1
f 316/294/1 297/274/1 296/273/1
f 317/295/1 298/276/1 297/274/1
f 318/296/1 299/277/1 298/276/1
f 299/277/1 320/297/1 300/298/221
f 300/298/221 321/299/173 301/278/222
f 301/278/223 322/300/224 302/279/212
f 302/279/225 323/301/225 303/280/225
f 323/301/226 304/28/226 303/280/226
f 37/302/1 305/283/217 36/282/1
f 325/303/227 306/284/227 305/283/227
f 326/304/228 307/285/228 306/284/228
f 327/305/228 308/306/228 307/285/228
f 308/306/229 329/307/229 309/287/229
f 309/287/35 330/308/1 310/288/1
f 330/308/1 311/289/1 310/288/1
f 331/309/1 312/290/1 311/289/1
f 332/310/1 313/291/1 312/290/1
f 333/311/1 314/292/1 313/291/1
f 334/312/1 315/293/1 314/292/1
f 335/313/1 316/294/1 315/293/1
f 336/314/1 317/295/1 316/294/1
f 337/315/1 318/296/1 317/295/1
f 338/316/1 319/317/1 318/296/1
f 339/318/1 320/297/1 319/317/1
f 340/319/1 321/299/173 320/297/1
f 321/299/230 342/320/230 322/300/230
f 322/300/231 343/321/231 323/301/231
f 343/321/232 324/27/232 323/301/232
f 38/322/233 325/303/233 37/302/233
f 345/323/234 326/304/234 325/303/234
f 346/324/235 327/305/235 326/304/235
f 347/325/235 328/326/235 327/305/235
f 328/326/236 349/327/236 329/307/236
f 329/307/237 350/328/237 330/308/237
f 330/308/1 351/329/35 331/309/1
f 351/329/35 332/310/1 331/309/1
f 352/330/1 333/311/1 332/310/1
f 353/331/1 334/312/1 333/311/1
f 354/332/1 335/313/1 334/312/1
f 355/333/1 336/314/1 335/313/1
f 356/334/1 337/315/1 336/314/1
f 357/335/1 338/316/1 337/315/1
f 358/336/1 339/318/1 338/316/1
f 359/337/1 340/319/1 339/318/1
f 360/338/1 341/339/1 340/319/1
f 361/340/1 342/320/173 341/339/1
f 342/320/173 363/341/207 343/321/238
f 363/341/207 344/29/18 343/321/238
f 39/342/239 345/323/239 38/322/239
f 365/343/240 346/324/240 345/323/240
f 366/344/1 347/325/1 346/324/1
f 367/345/1 348/346/1 347/325/1
f 348/346/241 369/347/241 349/327/241
f 349/327/236 370/348/236 350/328/236
f 350/328/242 371/349/242 351/329/242
f 351/329/35 372/350/243 352/330/1
f 372/350/243 353/331/1 352/330/1
f 373/351/1 354/332/1 353/331/1
f 374/352/1 355/333/1 354/332/1
f 375/353/1 356/334/1 355/333/1
f 376/354/1 357/335/1 356/334/1
f 377/355/1 358/336/1 357/335/1
f 378/356/1 359/337/1 358/336/1
f 379/357/1 360/338/1 359/337/1
f 380/358/1 361/340/1 360/338/1
f 381/359/1 362/360/1 361/340/1
f 382/361/1 363/341/207 362/360/1
f 383/362/1 364/31/1 363/341/207
f 40/363/239 365/343/239 39/342/239
f 385/364/240 366/344/240 365/343/240
f 386/365/1 367/345/1 366/344/1
f 387/366/1 368/367/1 367/345/1
f 388/368/1 369/347/1 368/367/1
f 389/369/244 370/348/244 369/347/244
f 390/370/245 371/349/245 370/348/245
f 391/371/246 372/350/243 371/349/247
f 392/372/14 373/351/1 372/350/243
f 393/373/1 374/352/1 373/351/1
f 394/374/1 375/353/1 374/352/1
f 395/375/1 376/354/1 375/353/1
f 396/376/1 377/355/1 376/354/1
f 397/377/1 378/356/1 377/355/1
f 398/378/1 379/357/1 378/356/1
f 399/379/1 380/358/1 379/357/1
f 400/380/1 381/359/1 380/358/1
f 401/381/1 382/361/1 381/359/1
f 402/382/1 383/362/1 382/361/1
f 403/383/1 384/33/1 383/362/1
f 41/384/239 385/364/239 40/363/239
f 405/385/240 386/365/240 385/364/240
f 406/386/1 387/366/1 386/365/1
f 407/387/1 388/368/1 387/366/1
f 408/388/1 389/369/1 388/368/1
f 409/389/244 390/370/244 389/369/244
f 410/390/245 391/371/245 390/370/245
f 411/391/246 392/372/14 391/371/246
f 412/392/14 393/373/1 392/372/14
f 413/393/1 394/374/1 393/373/1
f 414/394/1 395/375/1 394/374/1
f 415/395/1 396/376/1 395/375/1
f 416/396/1 397/377/1 396/376/1
f 417/397/1 398/378/1 397/377/1
f 418/398/1 399/379/1 398/378/1
f 419/399/1 400/380/1 399/379/1
f 420/400/1 401/381/1 400/380/1
f 421/401/1 402/382/1 401/381/1
f 422/402/1 403/383/1 402/382/1
f 423/403/1 404/35/1 403/383/1
f 41/384/248 425/404/248 405/385/248
f 405/385/249 426/405/249 406/386/249
f 406/386/1 427/406/1 407/387/1
f 427/406/1 408/388/1 407/387/1
f 428/407/1 409/389/1 408/388/1
f 429/408/244 410/390/244 409/389/244
f 430/409/245 411/391/245 410/390/245
f 431/410/250 412/392/14 411/391/246
f 432/411/251 413/393/1 412/392/14
f 433/412/1 414/394/1 413/393/1
f 434/413/1 415/395/1 414/394/1
f 435/414/1 416/396/1 415/395/1
f 436/415/1 417/397/1 416/396/1
f 437/416/1 418/398/1 417/397/1
f 438/417/1 419/399/1 418/398/1
f 439/418/1 420/400/1 419/399/1
f 440/419/1 421/401/1 420/400/1
f 441/420/1 422/402/1 421/401/1
f 442/421/1 423/403/1 422/402/1
f 443/422/1 424/37/1 423/403/1
f 42/423/252 445/424/252 425/404/252
f 425/404/253 446/425/253 426/405/253
f 426/405/249 447/426/249 427/406/249
f 447/426/254 428/407/254 427/406/254
f 448/427/254 429/408/254 428/407/254
f 449/428/255 430/409/255 429/408/255
f 450/429/256 431/410/256 430/409/256
f 451/430/257 432/411/251 431/410/250
f 452/431/1 433/412/1 432/411/251
f 453/432/1 434/413/1 433/412/1
f 454/433/1 435/414/1 434/413/1
f 455/434/1 436/415/1 435/414/1
f 456/435/1 437/416/1 436/415/1
f 457/436/1 438/417/1 437/416/1
f 458/437/1 439/418/1 438/417/1
f 459/438/1 440/419/1 439/418/1
f 460/439/1 441/420/1 440/419/1
f 461/440/1 442/421/1 441/420/1
f 462/441/1 443/422/1 442/421/1
f 463/442/1 444/39/1 443/422/1
f 44/443/1 445/424/1 43/444/1
f 445/424/252 466/445/252 446/425/252
f 446/425/258 467/446/258 447/426/258
f 467/446/259 448/427/259 447/426/259
f 468/447/259 449/428/259 448/427/259
f 469/448/260 450/429/260 449/428/260
f 470/449/261 451/430/261 450/429/261
f 471/450/1 452/431/1 451/430/257
f 472/451/1 453/432/1 452/431/1
f 473/452/1 454/433/1 453/432/1
f 474/453/1 455/434/1 454/433/1
f 475/454/1 456/435/1 455/434/1
f 476/455/1 457/436/1 456/435/1
f 477/456/1 458/437/1 457/436/1
f 478/457/1 459/438/1 458/437/1
f 479/458/1 460/439/1 459/438/1
f 480/459/1 461/440/1 460/439/1
f 481/460/1 462/441/1 461/440/1
f 482/461/1 463/442/1 462/441/1
f 483/462/1 464/41/1 463/442/1
f 2/463/1 465/464/1 44/443/1
f 45/465/1 466/445/262 465/464/1
f 466/445/262 47/466/263 467/446/264
f 47/466/263 468/447/265 467/446/264
f 48/467/265 469/448/266 468/447/265
f 49/468/267 470/449/257 469/448/266
f 50/469/1 471/450/1 470/449/257
f 51/470/1 472/451/1 471/450/1
f 52/471/1 473/452/1 472/451/1
f 53/472/1 474/453/1 473/452/1
f 54/473/1 475/454/1 474/453/1
f 55/474/1 476/455/1 475/454/1
f 56/475/1 477/456/1 476/455/1
f 57/476/1 478/457/1 477/456/1
f 58/477/1 479/458/1 478/457/1
f 59/478/1 480/459/1 479/458/1
f 60/479/1 481/460/1 480/459/1
f 61/480/1 482/461/1 481/460/1
f 62/481/1 483/462/1 482/461/1
f 63/482/1 484/3/1 483/462/1
f 64/1/1 4/483/1 65/2/1
f 104/4/2 84/8/1 3/5/1
f 104/4/2 124/10/5 83/7/3
f 144/9/4 82/12/1 83/7/3
f 144/9/268 164/13/268 81/11/268
f 164/13/269 184/15/269 80/14/269
f 184/15/7 204/17/10 79/16/8
f 204/17/270 224/20/270 78/18/270
f 244/19/271 77/22/271 78/18/271
f 264/21/14 76/24/14 77/22/14
f 264/21/272 284/25/272 75/23/272
f 284/25/273 304/28/273 74/26/273
f 324/27/274 73/30/274 74/26/274
f 344/29/18 72/32/1 73/30/1
f 364/31/1 71/34/1 72/32/1
f 384/33/1 70/36/1 71/34/1
f 404/35/1 69/38/1 70/36/1
f 424/37/1 68/40/1 69/38/1
f 444/39/1 67/42/1 68/40/1
f 464/41/1 66/43/1 67/42/1
f 484/3/1 65/2/1 66/43/1
f 25/44/1 85/81/1 24/45/1
f 24/45/1 85/81/1 86/47/1
f 19/55/1 90/54/1 91/56/1
f 18/57/1 91/56/1 92/58/20
f 92/58/20 93/90/275 16/60/21
f 16/60/21 93/90/275 94/61/22
f 15/62/23 94/61/22 95/63/24
f 14/64/1 95/63/24 96/65/1
f 13/66/1 96/65/1 97/67/25
f 12/68/1 97/67/25 98/69/1
f 11/70/1 98/69/1 99/71/1
f 10/72/1 99/71/1 100/73/20
f 100/73/276 101/76/276 8/75/276
f 101/76/277 102/98/277 7/77/277
f 7/77/278 102/98/278 103/78/278
f 6/79/279 103/78/279 104/4/279
f 26/80/1 105/82/1 85/81/1
f 105/82/1 106/83/1 86/47/1
f 90/54/280 110/87/280 111/88/280
f 111/88/281 112/89/281 92/58/281
f 112/89/282 113/91/282 93/90/282
f 116/93/22 117/114/24 97/67/25
f 97/67/25 117/114/24 118/94/35
f 118/94/35 119/95/36 99/71/1
f 119/95/36 120/96/283 100/73/20
f 120/96/284 121/97/284 101/76/284
f 121/97/285 122/119/285 102/98/285
f 102/98/286 122/119/286 123/99/286
f 103/78/287 123/99/287 124/10/287
f 27/100/1 125/101/1 105/82/1
f 125/101/41 126/102/41 106/83/41
f 110/87/288 130/106/288 131/107/288
f 131/107/289 132/108/289 112/89/289
f 132/108/290 133/109/290 113/91/290
f 117/114/291 137/113/291 138/115/291
f 118/94/292 138/115/71 139/116/73
f 139/116/293 140/117/293 120/96/293
f 140/117/294 141/138/294 121/97/294
f 121/97/295 141/138/295 142/118/295
f 142/118/79 143/120/78 123/99/296
f 143/120/297 144/9/297 124/10/297
f 28/121/298 145/122/298 125/101/298
f 145/122/299 146/123/299 126/102/299
f 147/124/300 148/125/300 128/104/300
f 148/125/301 149/145/301 129/126/301
f 129/126/302 149/145/302 150/127/302
f 130/106/303 150/127/303 151/128/303
f 151/128/304 152/129/304 132/108/304
f 152/129/305 153/130/305 133/109/305
f 153/130/306 154/150/306 134/131/306
f 134/131/307 154/150/307 155/132/307
f 137/113/308 157/134/308 158/135/308
f 138/115/309 158/135/309 159/136/309
f 159/136/310 160/155/310 140/117/310
f 140/117/311 160/155/311 161/137/311
f 141/138/312 161/137/312 162/139/312
f 162/139/100 163/159/99 143/120/313
f 143/120/314 163/159/314 164/13/314
f 28/121/1 29/161/1 165/140/1
f 145/122/315 165/140/315 166/141/315
f 146/123/104 166/141/104 167/142/104
f 147/124/316 167/142/316 168/143/316
f 148/125/317 168/143/317 169/144/317
f 169/144/318 170/146/318 150/127/318
f 170/146/319 171/167/319 151/128/319
f 151/128/320 171/167/320 172/147/320
f 152/129/321 172/147/321 173/148/321
f 153/130/322 173/148/322 174/149/322
f 154/150/323 174/149/323 175/151/323
f 175/151/324 176/152/324 156/133/324
f 176/152/325 177/173/325 157/134/325
f 157/134/326 177/173/326 178/153/326
f 158/135/327 178/153/327 179/154/327
f 179/154/328 180/156/328 160/155/328
f 180/156/329 181/157/329 161/137/329
f 181/157/330 182/158/330 162/139/330
f 182/158/331 183/178/331 163/159/331
f 163/159/332 183/178/332 184/15/332
f 30/160/1 185/180/1 165/140/1
f 165/140/1 185/180/1 186/162/125
f 166/141/102 186/162/103 187/163/102
f 167/142/333 187/163/333 188/164/333
f 168/143/334 188/164/334 189/165/334
f 189/165/335 190/166/335 170/146/335
f 190/166/336 191/168/336 171/167/336
f 191/168/337 192/169/337 172/147/337
f 192/169/338 193/188/338 173/148/338
f 173/148/339 193/188/339 194/170/339
f 174/149/340 194/170/340 195/171/340
f 195/171/341 196/192/341 176/152/341
f 176/152/342 196/192/342 197/172/342
f 197/172/343 198/174/343 178/153/343
f 198/174/116 199/195/344 179/154/116
f 179/154/118 199/195/345 200/175/119
f 200/175/346 201/198/346 181/157/346
f 182/158/347 202/176/347 203/177/347
f 183/178/348 203/177/348 204/17/348
f 31/179/1 205/181/1 185/180/1
f 205/181/1 206/203/1 186/162/125
f 186/162/125 206/203/1 207/182/151
f 187/163/349 207/182/349 208/183/349
f 188/164/350 208/183/350 209/184/350
f 209/184/351 210/185/351 190/166/351
f 210/185/352 211/186/352 191/168/352
f 211/186/353 212/187/353 192/169/353
f 212/187/159 213/210/158 193/188/354
f 193/188/354 213/210/158 214/189/161
f 194/170/355 214/189/355 215/190/355
f 195/171/135 215/190/356 216/191/136
f 196/192/357 216/191/357 217/193/357
f 197/172/358 217/193/358 218/194/358
f 218/194/359 219/196/359 199/195/359
f 219/196/360 220/197/360 200/175/360
f 220/197/361 221/218/361 201/198/361
f 202/176/362 222/199/362 223/200/362
f 203/177/147 223/200/363 224/20/148
f 32/201/1 225/202/1 205/181/1
f 225/202/1 226/204/150 206/203/1
f 226/204/150 227/224/174 207/182/151
f 207/182/364 227/224/364 228/205/364
f 208/183/365 228/205/365 229/206/365
f 229/206/366 230/207/366 210/185/366
f 230/207/367 231/208/367 211/186/367
f 231/208/156 232/209/156 212/187/157
f 232/209/158 233/211/160 213/210/158
f 233/211/160 234/231/1 214/189/161
f 214/189/161 234/231/1 235/212/162
f 235/212/162 236/234/1 216/191/164
f 216/191/164 236/234/1 237/213/180
f 217/193/368 237/213/368 238/214/368
f 218/194/369 238/214/369 239/215/369
f 219/196/370 239/215/370 240/216/370
f 220/197/371 240/216/371 241/217/371
f 241/217/372 242/219/372 222/199/372
f 242/219/373 243/220/373 223/200/373
f 243/220/374 244/19/374 224/20/374
f 33/221/1 245/222/1 225/202/1
f 245/222/1 246/244/1 226/204/150
f 226/204/150 246/244/1 247/223/173
f 227/224/375 247/223/375 248/225/375
f 228/205/376 248/225/376 249/226/376
f 249/226/377 250/227/377 230/207/377
f 250/227/378 251/228/378 231/208/378
f 251/228/379 252/229/379 232/209/379
f 252/229/18 253/230/1 233/211/160
f 253/230/1 254/232/1 234/231/1
f 254/232/1 255/233/1 235/212/162
f 255/233/1 256/235/1 236/234/1
f 256/235/1 257/255/1 237/213/180
f 237/213/180 257/255/1 258/236/173
f 238/214/380 258/236/380 259/237/380
f 239/215/381 259/237/381 260/238/381
f 240/216/382 260/238/382 261/239/382
f 261/239/383 262/240/383 242/219/383
f 262/240/384 263/241/384 243/220/384
f 263/241/385 264/21/385 244/19/385
f 34/242/1 265/243/1 245/222/1
f 265/243/1 266/245/1 246/244/1
f 266/245/1 267/264/1 247/223/173
f 247/223/173 267/264/1 268/246/173
f 248/225/386 268/246/386 269/247/386
f 269/247/190 270/248/387 250/227/191
f 270/248/388 271/249/388 251/228/388
f 271/249/18 272/250/1 252/229/18
f 272/250/1 273/251/1 253/230/1
f 273/251/1 274/252/1 254/232/1
f 274/252/1 275/253/1 255/233/1
f 275/253/1 276/254/1 256/235/1
f 276/254/1 277/256/1 257/255/1
f 277/256/1 278/275/1 258/236/173
f 258/236/173 278/275/1 279/257/1
f 259/237/389 279/257/389 280/258/389
f 260/238/390 280/258/390 281/259/390
f 261/239/199 281/259/198 282/260/391
f 282/260/214 283/281/214 263/241/392
f 263/241/393 283/281/393 284/25/393
f 35/261/1 285/262/1 265/243/1
f 285/262/1 286/263/203 266/245/1
f 286/263/203 287/265/204 267/264/1
f 287/265/204 288/286/220 268/246/173
f 268/246/173 288/286/220 289/266/205
f 289/266/205 290/267/208 270/248/207
f 290/267/208 291/268/1 271/249/18
f 291/268/1 292/269/1 272/250/1
f 292/269/1 293/270/1 273/251/1
f 293/270/1 294/271/1 274/252/1
f 294/271/1 295/272/1 275/253/1
f 295/272/1 296/273/1 276/254/1
f 296/273/1 297/274/1 277/256/1
f 297/274/1 298/276/1 278/275/1
f 298/276/1 299/277/1 279/257/1
f 299/277/1 300/298/221 280/258/209
f 280/258/209 300/298/221 301/278/222
f 281/259/211 301/278/223 302/279/212
f 282/260/394 302/279/394 303/280/394
f 283/281/395 303/280/395 304/28/395
f 36/282/1 305/283/217 285/262/1
f 305/283/217 306/284/218 286/263/203
f 306/284/218 307/285/219 287/265/204
f 307/285/219 308/306/396 288/286/220
f 288/286/220 308/306/396 309/287/35
f 309/287/35 310/288/1 290/267/208
f 310/288/1 311/289/1 291/268/1
f 311/289/1 312/290/1 292/269/1
f 312/290/1 313/291/1 293/270/1
f 313/291/1 314/292/1 294/271/1
f 314/292/1 315/293/1 295/272/1
f 315/293/1 316/294/1 296/273/1
f 316/294/1 317/295/1 297/274/1
f 317/295/1 318/296/1 298/276/1
f 318/296/1 319/317/1 299/277/1
f 299/277/1 319/317/1 320/297/1
f 300/298/221 320/297/1 321/299/173
f 301/278/397 321/299/397 322/300/397
f 302/279/398 322/300/398 323/301/398
f 323/301/399 324/27/399 304/28/399
f 37/302/400 325/303/400 305/283/400
f 325/303/401 326/304/401 306/284/401
f 308/306/402 328/326/402 329/307/402
f 309/287/237 329/307/237 330/308/237
f 330/308/1 331/309/1 311/289/1
f 331/309/1 332/310/1 312/290/1
f 332/310/1 333/311/1 313/291/1
f 333/311/1 334/312/1 314/292/1
f 334/312/1 335/313/1 315/293/1
f 335/313/1 336/314/1 316/294/1
f 336/314/1 337/315/1 317/295/1
f 337/315/1 338/316/1 318/296/1
f 338/316/1 339/318/1 319/317/1
f 339/318/1 340/319/1 320/297/1
f 340/319/1 341/339/1 321/299/173
f 321/299/173 341/339/1 342/320/173
f 322/300/403 342/320/403 343/321/403
f 343/321/404 344/29/404 324/27/404
f 38/322/405 345/323/405 325/303/405
f 345/323/406 346/324/406 326/304/406
f 346/324/235 347/325/235 327/305/235
f 347/325/235 348/346/235 328/326/235
f 328/326/241 348/346/241 349/327/241
f 329/307/236 349/327/236 350/328/236
f 330/308/237 350/328/237 351/329/237
f 351/329/35 352/330/1 332/310/1
f 352/330/1 353/331/1 333/311/1
f 353/331/1 354/332/1 334/312/1
f 354/332/1 355/333/1 335/313/1
f 355/333/1 356/334/1 336/314/1
f 356/334/1 357/335/1 337/315/1
f 357/335/1 358/336/1 338/316/1
f 358/336/1 359/337/1 339/318/1
f 359/337/1 360/338/1 340/319/1
f 360/338/1 361/340/1 341/339/1
f 361/340/1 362/360/1 342/320/173
f 342/320/173 362/360/1 363/341/207
f 363/341/207 364/31/1 344/29/18
f 39/342/239 365/343/239 345/323/239
f 365/343/240 366/344/240 346/324/240
f 366/344/1 367/345/1 347/325/1
f 367/345/1 368/367/1 348/346/1
f 348/346/1 368/367/1 369/347/1
f 349/327/241 369/347/241 370/348/241
f 350/328/407 370/348/407 371/349/407
f 351/329/35 371/349/247 372/350/243
f 372/350/243 373/351/1 353/331/1
f 373/351/1 374/352/1 354/332/1
f 374/352/1 375/353/1 355/333/1
f 375/353/1 376/354/1 356/334/1
f 376/354/1 377/355/1 357/335/1
f 377/355/1 378/356/1 358/336/1
f 378/356/1 379/357/1 359/337/1
f 379/357/1 380/358/1 360/338/1
f 380/358/1 381/359/1 361/340/1
f 381/359/1 382/361/1 362/360/1
f 382/361/1 383/362/1 363/341/207
f 383/362/1 384/33/1 364/31/1
f 40/363/239 385/364/239 365/343/239
f 385/364/240 386/365/240 366/344/240
f 386/365/1 387/366/1 367/345/1
f 387/366/1 388/368/1 368/367/1
f 388/368/1 389/369/1 369/347/1
f 389/369/244 390/370/244 370/348/244
f 390/370/245 391/371/245 371/349/245
f 391/371/246 392/372/14 372/350/243
f 392/372/14 393/373/1 373/351/1
f 393/373/1 394/374/1 374/352/1
f 394/374/1 395/375/1 375/353/1
f 395/375/1 396/376/1 376/354/1
f 396/376/1 397/377/1 377/355/1
f 397/377/1 398/378/1 378/356/1
f 398/378/1 399/379/1 379/357/1
f 399/379/1 400/380/1 380/358/1
f 400/380/1 401/381/1 381/359/1
f 401/381/1 402/382/1 382/361/1
f 402/382/1 403/383/1 383/362/1
f 403/383/1 404/35/1 384/33/1
f 41/384/239 405/385/239 385/364/239
f 405/385/240 406/386/240 386/365/240
f 406/386/1 407/387/1 387/366/1
f 407/387/1 408/388/1 388/368/1
f 408/388/1 409/389/1 389/369/1
f 409/389/244 410/390/244 390/370/244
f 410/390/245 411/391/245 391/371/245
f 411/391/246 412/392/14 392/372/14
f 412/392/14 413/393/1 393/373/1
f 413/393/1 414/394/1 394/374/1
f 414/394/1 415/395/1 395/375/1
f 415/395/1 416/396/1 396/376/1
f 416/396/1 417/397/1 397/377/1
f 417/397/1 418/398/1 398/378/1
f 418/398/1 419/399/1 399/379/1
f 419/399/1 420/400/1 400/380/1
f 420/400/1 421/401/1 401/381/1
f 421/401/1 422/402/1 402/382/1
f 422/402/1 423/403/1 403/383/1
f 423/403/1 424/37/1 404/35/1
f 41/384/408 42/423/408 425/404/408
f 405/385/253 425/404/253 426/405/253
f 406/386/249 426/405/249 427/406/249
f 427/406/1 428/407/1 408/388/1
f 428/407/1 429/408/1 409/389/1
f 429/408/244 430/409/244 410/390/244
f 430/409/245 431/410/245 411/391/245
f 431/410/250 432/411/251 412/392/14
f 432/411/251 433/412/1 413/393/1
f 433/412/1 434/413/1 414/394/1
f 434/413/1 435/414/1 415/395/1
f 435/414/1 436/415/1 416/396/1
f 436/415/1 437/416/1 417/397/1
f 437/416/1 438/417/1 418/398/1
f 438/417/1 439/418/1 419/399/1
f 439/418/1 440/419/1 420/400/1
f 440/419/1 441/420/1 421/401/1
f 441/420/1 442/421/1 422/402/1
f 442/421/1 443/422/1 423/403/1
f 443/422/1 444/39/1 424/37/1
f 42/423/1 43/444/1 445/424/1
f 425/404/252 445/424/252 446/425/252
f 426/405/253 446/425/253 447/426/253
f 447/426/254 448/427/254 428/407/254
f 448/427/254 449/428/254 429/408/254
f 449/428/409 450/429/409 430/409/409
f 450/429/410 451/430/410 431/410/410
f 451/430/257 452/431/1 432/411/251
f 452/431/1 453/432/1 433/412/1
f 453/432/1 454/433/1 434/413/1
f 454/433/1 455/434/1 435/414/1
f 455/434/1 456/435/1 436/415/1
f 456/435/1 457/436/1 437/416/1
f 457/436/1 458/437/1 438/417/1
f 458/437/1 459/438/1 439/418/1
f 459/438/1 460/439/1 440/419/1
f 460/439/1 461/440/1 441/420/1
f 461/440/1 462/441/1 442/421/1
f 462/441/1 463/442/1 443/422/1
f 463/442/1 464/41/1 444/39/1
f 44/443/1 465/464/1 445/424/1
f 445/424/1 465/464/1 466/445/262
f 446/425/411 466/445/411 467/446/411
f 467/446/259 468/447/259 448/427/259
f 468/447/259 469/448/259 449/428/259
f 469/448/412 470/449/412 450/429/412
f 470/449/257 471/450/1 451/430/257
f 471/450/1 472/451/1 452/431/1
f 472/451/1 473/452/1 453/432/1
f 473/452/1 474/453/1 454/433/1
f 474/453/1 475/454/1 455/434/1
f 475/454/1 476/455/1 456/435/1
f 476/455/1 477/456/1 457/436/1
f 477/456/1 478/457/1 458/437/1
f 478/457/1 479/458/1 459/438/1
f 479/458/1 480/459/1 460/439/1
f 480/459/1 481/460/1 461/440/1
f 481/460/1 482/461/1 462/441/1
f 482/461/1 483/462/1 463/442/1
f 483/462/1 484/3/1 464/41/1
f 2/463/1 45/465/1 465/464/1
f 45/465/1 46/484/1 466/445/262
f 466/445/262 46/484/1 47/466/263
f 47/466/263 48/467/265 468/447/265
f 48/467/265 49/468/267 469/448/266
f 49/468/267 50/469/1 470/449/257
f 50/469/1 51/470/1 471/450/1
f 51/470/1 52/471/1 472/451/1
f 52/471/1 53/472/1 473/452/1
f 53/472/1 54/473/1 474/453/1
f 54/473/1 55/474/1 475/454/1
f 55/474/1 56/475/1 476/455/1
f 56/475/1 57/476/1 477/456/1
f 57/476/1 58/477/1 478/457/1
f 58/477/1 59/478/1 479/458/1
f 59/478/1 60/479/1 480/459/1
f 60/479/1 61/480/1 481/460/1
f 61/480/1 62/481/1 482/461/1
f 62/481/1 63/482/1 483/462/1
f 63/482/1 64/1/1 484/3/1
f 23/48/1 86/47/1 87/49/1
f 87/49/298 88/85/298 21/51/298
f 21/51/19 88/85/19 89/52/19
f 20/53/413 89/52/413 90/54/413
f 106/83/41 107/84/41 87/49/41
f 107/84/414 108/86/414 88/85/414
f 108/86/29 109/105/44 89/52/30
f 89/52/415 109/105/415 110/87/415
f 113/91/33 114/110/33 94/61/33
f 94/61/291 114/110/291 115/92/291
f 95/63/416 115/92/416 116/93/416
f 126/102/42 127/103/42 107/84/42
f 127/103/417 128/104/417 108/86/417
f 128/104/418 129/126/418 109/105/418
f 109/105/419 129/126/419 130/106/419
f 133/109/420 134/131/420 114/110/420
f 114/110/421 134/131/421 135/111/421
f 115/92/422 135/111/422 136/112/422
f 116/93/423 136/112/423 137/113/423
f 146/123/424 147/124/424 127/103/424
f 135/111/425 155/132/425 156/133/425
f 136/112/426 156/133/426 157/134/426
f 181/157/427 201/198/143 202/176/145
f 201/198/428 221/218/428 222/199/428
f 326/304/228 327/305/228 307/285/228
f 327/305/228 328/326/228 308/306/228
