# Blender 4.4.1
# www.blender.org
mtllib map_under_equipment_02.mtl
o 台座下側装置_02
v 0.000000 2.000000 -7.500000
v 1.463177 2.000000 -7.355889
v 0.000000 4.250000 -7.500000
v -1.463177 2.000000 -7.355889
v -1.463177 4.250000 -7.355889
v -2.870126 4.250000 -6.929096
v -4.166777 4.250000 -6.236022
v -2.870126 2.000000 -6.929096
v -5.303301 4.250000 -5.303301
v -6.236022 4.250000 -4.166777
v -6.929096 4.250000 -2.870126
v -7.355889 4.250000 -1.463177
v -6.929096 2.000000 -2.870126
v -6.236022 2.000000 -4.166777
v -6.929096 4.250000 2.870126
v 2.870126 4.250000 -6.929096
v 1.463177 4.250000 -7.355889
v 2.870126 2.000000 -6.929096
v 4.166777 4.250000 -6.236022
v 4.166777 2.000000 -6.236022
v 6.929096 4.250000 -2.870126
v -2.870126 4.250000 6.929096
v -1.463177 4.250000 7.355889
v -2.870126 2.000000 6.929096
v -4.166777 4.250000 6.236022
v -4.166777 2.000000 6.236022
v 0.000000 4.250000 7.500000
v 6.929096 4.250000 2.870126
v 7.355889 4.250000 1.463177
v 6.929096 2.000000 2.870126
v 6.236022 4.250000 4.166777
v 6.236022 2.000000 4.166777
v 2.870126 4.250000 6.929096
v 7.500000 4.250000 0.000000
v 7.355889 4.250000 -1.463177
v 7.355889 2.000000 -1.463177
v 7.500000 2.000000 0.000000
v 7.355889 2.000000 1.463177
v 6.929096 2.000000 -2.870126
v 6.236022 2.000000 -4.166777
v 6.236022 4.250000 -4.166777
v 5.303301 4.250000 -5.303301
v 5.303301 2.000000 -5.303301
v 4.166777 4.250000 6.236022
v 2.870126 2.000000 6.929096
v 1.463177 4.250000 7.355889
v 1.463177 2.000000 7.355889
v 5.303301 4.250000 5.303301
v 5.303301 2.000000 5.303301
v 4.166777 2.000000 6.236022
v 0.000000 2.000000 7.500000
v -1.463177 2.000000 7.355889
v -5.303301 2.000000 5.303301
v -5.303301 4.250000 5.303301
v -6.236022 2.000000 4.166777
v -6.236022 4.250000 4.166777
v -6.929096 2.000000 2.870126
v -7.355889 2.000000 1.463177
v -7.355889 4.250000 1.463177
v -7.500000 2.000000 0.000000
v -7.500000 4.250000 0.000000
v -7.355889 2.000000 -1.463177
v -5.303301 2.000000 -5.303301
v -4.166777 2.000000 -6.236022
vn -0.0000 -0.0000 -1.0000
vn 0.1951 -0.0000 -0.9808
vn -0.1951 -0.0000 -0.9808
vn -0.0000 1.0000 -0.0000
vn -0.3827 -0.0000 -0.9239
vn -0.5556 -0.0000 -0.8315
vn -0.9808 -0.0000 -0.1951
vn -0.9239 -0.0000 -0.3827
vn -0.8315 -0.0000 -0.5556
vn 0.3827 -0.0000 -0.9239
vn 0.5556 -0.0000 -0.8315
vn -0.1951 -0.0000 0.9808
vn -0.3827 -0.0000 0.9239
vn -0.5556 -0.0000 0.8315
vn 0.9808 -0.0000 0.1951
vn 0.9239 -0.0000 0.3827
vn 0.8315 -0.0000 0.5556
vn 0.9239 -0.0000 -0.3827
vn 0.9808 -0.0000 -0.1951
vn 1.0000 -0.0000 -0.0000
vn 0.8315 -0.0000 -0.5556
vn 0.7071 -0.0000 -0.7071
vn 0.5556 -0.0000 0.8315
vn 0.3827 -0.0000 0.9239
vn 0.1951 -0.0000 0.9808
vn 0.7071 -0.0000 0.7071
vn -0.0000 -0.0000 1.0000
vn -0.7071 -0.0000 0.7071
vn -0.8315 -0.0000 0.5556
vn -0.9239 -0.0000 0.3827
vn -0.9808 -0.0000 0.1951
vn -1.0000 -0.0000 -0.0000
vn -0.7071 -0.0000 -0.7071
vt 1.000000 1.000000
vt 0.968750 0.500000
vt 1.000000 0.500000
vt 0.031250 1.000000
vt 0.000000 1.000000
vt 0.000000 0.500000
vt 0.031250 0.500000
vt 0.250000 0.490000
vt 0.203178 0.485388
vt 0.158156 0.471731
vt 0.062500 1.000000
vt 0.093750 1.000000
vt 0.062500 0.500000
vt 0.116663 0.449553
vt 0.080294 0.419706
vt 0.028269 0.341844
vt 0.050447 0.383337
vt 0.218750 1.000000
vt 0.187500 1.000000
vt 0.187500 0.500000
vt 0.014612 0.296822
vt 0.028269 0.158156
vt 0.156250 0.500000
vt 0.156250 1.000000
vt 0.341844 0.471731
vt 0.968750 1.000000
vt 0.937500 1.000000
vt 0.937500 0.500000
vt 0.296822 0.485388
vt 0.906250 0.500000
vt 0.906250 1.000000
vt 0.383337 0.449553
vt 0.471731 0.341844
vt 0.158156 0.028269
vt 0.468750 1.000000
vt 0.437500 1.000000
vt 0.437500 0.500000
vt 0.203178 0.014612
vt 0.250000 0.010000
vt 0.406250 0.500000
vt 0.406250 1.000000
vt 0.116663 0.050447
vt 0.471731 0.158156
vt 0.718750 1.000000
vt 0.687500 1.000000
vt 0.687500 0.500000
vt 0.485388 0.203178
vt 0.490000 0.250000
vt 0.656250 0.500000
vt 0.656250 1.000000
vt 0.449553 0.116663
vt 0.341844 0.028269
vt 0.485388 0.296822
vt 0.812500 1.000000
vt 0.781250 1.000000
vt 0.781250 0.500000
vt 0.750000 0.500000
vt 0.750000 1.000000
vt 0.718750 0.500000
vt 0.812500 0.500000
vt 0.843750 1.000000
vt 0.843750 0.500000
vt 0.875000 1.000000
vt 0.449553 0.383337
vt 0.419706 0.419706
vt 0.875000 0.500000
vt 0.593750 1.000000
vt 0.562500 1.000000
vt 0.562500 0.500000
vt 0.383337 0.050447
vt 0.419706 0.080294
vt 0.531250 0.500000
vt 0.531250 1.000000
vt 0.296822 0.014612
vt 0.625000 1.000000
vt 0.625000 0.500000
vt 0.593750 0.500000
vt 0.500000 0.500000
vt 0.500000 1.000000
vt 0.468750 0.500000
vt 0.375000 0.500000
vt 0.375000 1.000000
vt 0.343750 0.500000
vt 0.343750 1.000000
vt 0.312500 0.500000
vt 0.312500 1.000000
vt 0.281250 0.500000
vt 0.281250 1.000000
vt 0.250000 0.500000
vt 0.250000 1.000000
vt 0.218750 0.500000
vt 0.010000 0.250000
vt 0.014612 0.203178
vt 0.050447 0.116663
vt 0.080294 0.080294
vt 0.125000 0.500000
vt 0.125000 1.000000
vt 0.093750 0.500000
s 1
f 3/1/1 2/2/2 1/3/1
f 5/4/3 3/5/1 1/6/1
f 5/4/3 1/6/1 4/7/3
s 0
f 3/8/4 5/9/4 6/10/4
s 1
f 6/11/5 5/4/3 4/7/3
f 7/12/6 6/11/5 8/13/5
s 0
f 6/10/4 7/14/4 9/15/4
s 1
f 6/11/5 4/7/3 8/13/5
s 0
f 3/8/4 6/10/4 11/16/4
f 9/15/4 10/17/4 6/10/4
f 10/17/4 11/16/4 6/10/4
s 1
f 12/18/7 11/19/8 13/20/8
s 0
f 11/16/4 12/21/4 15/22/4
s 1
f 11/19/8 14/23/9 13/20/8
f 11/19/8 10/24/9 14/23/9
s 0
f 11/16/4 15/22/4 16/25/4
f 16/25/4 3/8/4 11/16/4
s 1
f 17/26/2 16/27/10 18/28/10
s 0
f 16/25/4 17/29/4 3/8/4
s 1
f 16/27/10 20/30/11 18/28/10
f 16/27/10 19/31/11 20/30/11
s 0
f 19/32/4 16/25/4 21/33/4
f 21/33/4 16/25/4 22/34/4
f 15/22/4 22/34/4 16/25/4
s 1
f 23/35/12 22/36/13 24/37/13
s 0
f 22/34/4 23/38/4 27/39/4
s 1
f 22/36/13 26/40/14 24/37/13
f 22/36/13 25/41/14 26/40/14
s 0
f 25/42/4 22/34/4 15/22/4
f 22/34/4 27/39/4 28/43/4
f 28/43/4 21/33/4 22/34/4
s 1
f 29/44/15 28/45/16 30/46/16
s 0
f 28/43/4 29/47/4 34/48/4
s 1
f 28/45/16 32/49/17 30/46/16
f 28/45/16 31/50/17 32/49/17
s 0
f 31/51/4 28/43/4 33/52/4
f 27/39/4 33/52/4 28/43/4
f 34/48/4 35/53/4 28/43/4
f 35/53/4 21/33/4 28/43/4
s 1
f 21/54/18 35/55/19 36/56/19
f 35/55/19 37/57/20 36/56/19
f 35/55/19 34/58/20 37/57/20
f 34/58/20 38/59/15 37/57/20
f 29/44/15 30/46/16 38/59/15
f 34/58/20 29/44/15 38/59/15
f 21/54/18 36/56/19 39/60/18
f 41/61/21 39/60/18 40/62/21
f 41/61/21 21/54/18 39/60/18
f 42/63/22 41/61/21 40/62/21
s 0
f 21/33/4 41/64/4 42/65/4
s 1
f 19/31/11 42/63/22 43/66/22
s 0
f 42/65/4 19/32/4 21/33/4
s 1
f 42/63/22 40/62/21 43/66/22
f 19/31/11 43/66/22 20/30/11
f 44/67/23 33/68/24 45/69/24
s 0
f 33/52/4 44/70/4 48/71/4
s 1
f 33/68/24 47/72/25 45/69/24
f 33/68/24 46/73/25 47/72/25
s 0
f 27/39/4 46/74/4 33/52/4
f 48/71/4 31/51/4 33/52/4
s 1
f 31/50/17 48/75/26 49/76/26
f 48/75/26 50/77/23 49/76/26
f 48/75/26 44/67/23 50/77/23
f 44/67/23 45/69/24 50/77/23
f 31/50/17 49/76/26 32/49/17
f 46/73/25 51/78/27 47/72/25
f 27/79/27 52/80/12 51/78/27
f 46/73/25 27/79/27 51/78/27
f 23/35/12 24/37/13 52/80/12
f 27/79/27 23/35/12 52/80/12
f 25/41/14 53/81/28 26/40/14
f 54/82/28 55/83/29 53/81/28
f 25/41/14 54/82/28 53/81/28
f 56/84/29 57/85/30 55/83/29
f 54/82/28 56/84/29 55/83/29
f 15/86/30 58/87/31 57/85/30
f 56/84/29 15/86/30 57/85/30
f 59/88/31 60/89/32 58/87/31
f 15/86/30 59/88/31 58/87/31
f 61/90/32 62/91/7 60/89/32
f 59/88/31 61/90/32 60/89/32
f 12/18/7 13/20/8 62/91/7
f 61/90/32 12/18/7 62/91/7
s 0
f 61/92/4 59/93/4 15/22/4
f 12/21/4 61/92/4 15/22/4
f 15/22/4 56/94/4 54/95/4
f 54/95/4 25/42/4 15/22/4
s 1
f 17/26/2 18/28/10 2/2/2
f 3/1/1 17/26/2 2/2/2
f 10/24/9 63/96/33 14/23/9
f 9/97/33 64/98/6 63/96/33
f 10/24/9 9/97/33 63/96/33
f 7/12/6 8/13/5 64/98/6
f 9/97/33 7/12/6 64/98/6
