{
	"asset":{
		"generator":"Khronos glTF Blender I/O v4.4.56",
		"version":"2.0"
	},
	"scene":0,
	"scenes":[
		{
			"name":"Scene",
			"nodes":[
				4
			]
		}
	],
	"nodes":[
		{
			"mesh":0,
			"name":"Cube__0"
		},
		{
			"children":[
				0
			],
			"name":"Cube"
		},
		{
			"children":[
				1
			],
			"name":"RootNode"
		},
		{
			"children":[
				2
			],
			"name":"Heart.fbx"
		},
		{
			"children":[
				3
			],
			"name":"Sketchfab_model.001"
		}
	],
	"materials":[
		{
			"doubleSided":true,
			"name":"Scene_-_Root",
			"pbrMetallicRoughness":{
				"baseColorFactor":[
					1,
					0,
					0,
					1
				],
				"metallicFactor":0,
				"roughnessFactor":0.3032549321651459
			}
		}
	],
	"meshes":[
		{
			"name":"Cube__0",
			"primitives":[
				{
					"attributes":{
						"POSITION":0,
						"NORMAL":1,
						"TEXCOORD_0":2
					},
					"indices":3,
					"material":0
				}
			]
		}
	],
	"accessors":[
		{
			"bufferView":0,
			"componentType":5126,
			"count":2252,
			"max":[
				1.4232124090194702,
				1.4049642086029053,
				0.7131556272506714
			],
			"min":[
				-1.4232124090194702,
				-0.9265618920326233,
				-0.71315598487854
			],
			"type":"VEC3"
		},
		{
			"bufferView":1,
			"componentType":5126,
			"count":2252,
			"type":"VEC3"
		},
		{
			"bufferView":2,
			"componentType":5126,
			"count":2252,
			"type":"VEC2"
		},
		{
			"bufferView":3,
			"componentType":5123,
			"count":9792,
			"type":"SCALAR"
		}
	],
	"bufferViews":[
		{
			"buffer":0,
			"byteLength":27024,
			"byteOffset":0,
			"target":34962
		},
		{
			"buffer":0,
			"byteLength":27024,
			"byteOffset":27024,
			"target":34962
		},
		{
			"buffer":0,
			"byteLength":18016,
			"byteOffset":54048,
			"target":34962
		},
		{
			"buffer":0,
			"byteLength":19584,
			"byteOffset":72064,
			"target":34963
		}
	],
	"buffers":[
		{
			"byteLength":91648,
			"uri":"heart.bin"
		}
	]
}
