# Blender 4.4.1
# www.blender.org
mtllib sword_.scabbardobj.mtl
o さや
v -0.408635 0.076096 -0.199995
v -0.348635 0.180019 -0.199995
v -0.408635 0.076096 -0.239995
v -0.348635 0.180019 -0.239995
v 0.443397 -0.346543 -0.199995
v 0.443397 -0.346543 -0.239995
v 0.370643 -0.235256 -0.239995
v 0.310643 -0.339179 -0.199995
v 0.310643 -0.339179 -0.239995
v 0.370643 -0.235256 -0.199995
v -0.378635 0.128057 -0.199995
v -0.378635 0.128057 -0.239995
v 0.340643 -0.287218 -0.199995
v 0.340643 -0.287218 -0.239995
v -0.425890 0.083172 -0.197495
v -0.363390 0.191425 -0.197495
v -0.425890 0.083172 -0.242495
v -0.363390 0.191425 -0.242495
v -0.409436 0.073672 -0.197495
v -0.346936 0.181925 -0.197495
v -0.409436 0.073672 -0.242495
v -0.346936 0.181925 -0.242495
v -0.374157 0.172776 -0.231910
v -0.374157 0.172776 -0.208079
v -0.415123 0.101821 -0.208079
v -0.415123 0.101821 -0.231910
v -0.357703 0.163276 -0.208079
v -0.357703 0.163276 -0.231910
v -0.398669 0.092321 -0.208079
v -0.398669 0.092321 -0.231910
vn -0.0000 -0.0000 -1.0000
vn -0.0554 -0.9985 -0.0000
vn -0.0000 -0.0000 1.0000
vn -0.5000 -0.8660 -0.0000
vn 0.8370 0.5472 -0.0000
vn 0.5000 0.8660 -0.0000
vn -0.8660 0.5000 -0.0000
vn 0.8660 -0.5000 -0.0000
vt 0.500000 0.468750
vt 0.625000 0.468750
vt 0.500000 0.500000
vt 0.375000 0.500000
vt 0.343750 0.750000
vt 0.343750 0.500000
vt 0.500000 1.000000
vt 0.375000 0.781250
vt 0.500000 0.781250
vt 0.500000 0.250000
vt 0.625000 0.250000
vt 0.125000 0.750000
vt 0.125000 0.500000
vt 0.656250 0.500000
vt 0.625000 0.750000
vt 0.625000 0.500000
vt 0.625000 0.781250
vt 0.375000 0.468750
vt 0.375000 0.250000
vt 0.625000 1.000000
vt 0.500000 0.750000
vt 0.875000 0.750000
vt 0.875000 0.500000
vt 0.625000 0.000000
vt 0.581932 0.058803
vt 0.375000 0.000000
vt 0.418068 0.191197
vt 0.581932 0.558803
vt 0.375000 0.750000
vt 0.418068 0.558803
vt 0.418068 0.691197
vt 0.375000 1.000000
vt 0.625000 0.302371
vt 0.375000 0.447629
vt 0.625000 0.447629
vt 0.625000 0.802371
vt 0.375000 0.947629
vt 0.625000 0.947629
vt 0.177371 0.750000
vt 0.322629 0.500000
vt 0.177371 0.500000
vt 0.677371 0.500000
vt 0.822629 0.750000
vt 0.822629 0.500000
vt 0.656250 0.750000
vt 0.418068 0.058803
vt 0.581932 0.191197
vt 0.581932 0.691197
vt 0.375000 0.302371
vt 0.375000 0.802371
vt 0.322629 0.750000
vt 0.677371 0.750000
s 0
f 14/1/1 7/2/1 6/3/1
f 6/4/2 8/5/2 9/6/2
f 11/7/3 8/8/3 13/9/3
f 7/2/1 12/10/1 4/11/1
f 9/6/4 1/12/4 3/13/4
f 7/14/5 5/15/5 6/16/5
f 5/15/3 10/17/3 13/9/3
f 12/10/1 9/18/1 3/19/1
f 11/7/3 10/17/3 2/20/3
f 5/21/3 13/9/3 8/8/3
f 2/22/6 7/14/6 4/23/6
f 9/18/1 14/1/1 6/4/1
f 16/24/7 18/11/7 24/25/7
f 15/26/7 26/27/7 17/19/7
f 18/11/1 21/4/1 17/19/1
f 22/16/8 20/15/8 28/28/8
f 19/29/8 30/30/8 29/31/8
f 20/15/3 15/32/3 19/29/3
f 21/4/4 15/12/4 17/13/4
f 18/23/6 20/15/6 22/16/6
f 23/33/3 30/34/3 28/35/3
f 27/36/1 25/37/1 24/38/1
f 25/39/6 30/40/6 26/41/6
f 28/42/4 24/43/4 23/44/4
f 6/4/2 5/29/2 8/5/2
f 11/7/3 1/32/3 8/8/3
f 7/2/1 14/1/1 12/10/1
f 9/6/4 8/5/4 1/12/4
f 7/14/5 10/45/5 5/15/5
f 12/10/1 14/1/1 9/18/1
f 11/7/3 13/9/3 10/17/3
f 2/22/6 10/45/6 7/14/6
f 25/46/7 15/26/7 16/24/7
f 18/11/7 17/19/7 26/27/7
f 18/11/7 26/27/7 23/47/7
f 24/25/7 25/46/7 16/24/7
f 18/11/7 23/47/7 24/25/7
f 15/26/7 25/46/7 26/27/7
f 18/11/1 22/16/1 21/4/1
f 28/28/8 30/30/8 21/4/8
f 20/15/8 19/29/8 29/31/8
f 20/15/8 29/31/8 27/48/8
f 28/28/8 21/4/8 22/16/8
f 20/15/8 27/48/8 28/28/8
f 19/29/8 21/4/8 30/30/8
f 20/15/3 16/20/3 15/32/3
f 21/4/4 19/29/4 15/12/4
f 18/23/6 16/22/6 20/15/6
f 23/33/3 26/49/3 30/34/3
f 27/36/1 29/50/1 25/37/1
f 25/39/6 29/51/6 30/40/6
f 28/42/4 27/52/4 24/43/4
