mtllib stage_select_gate_pad.mtl
o stage_select_gate_pad
v 0.000000 0.120000 0.000000
v 5.982790 0.120000 1.190051
v 6.100000 0.120000 0.000000
v 6.100000 0.120000 0.000000
v 5.982790 0.120000 1.190051
v 5.982790 0.000000 1.190051
v 6.100000 0.000000 0.000000
v 0.000000 0.000000 0.000000
v 6.100000 0.000000 0.000000
v 5.982790 0.000000 1.190051
v 0.000000 0.120000 0.000000
v 5.635665 0.120000 2.334369
v 5.982790 0.120000 1.190051
v 5.982790 0.120000 1.190051
v 5.635665 0.120000 2.334369
v 5.635665 0.000000 2.334369
v 5.982790 0.000000 1.190051
v 0.000000 0.000000 0.000000
v 5.982790 0.000000 1.190051
v 5.635665 0.000000 2.334369
v 0.000000 0.120000 0.000000
v 5.071965 0.120000 3.388978
v 5.635665 0.120000 2.334369
v 5.635665 0.120000 2.334369
v 5.071965 0.120000 3.388978
v 5.071965 0.000000 3.388978
v 5.635665 0.000000 2.334369
v 0.000000 0.000000 0.000000
v 5.635665 0.000000 2.334369
v 5.071965 0.000000 3.388978
v 0.000000 0.120000 0.000000
v 4.313351 0.120000 4.313351
v 5.071965 0.120000 3.388978
v 5.071965 0.120000 3.388978
v 4.313351 0.120000 4.313351
v 4.313351 0.000000 4.313351
v 5.071965 0.000000 3.388978
v 0.000000 0.000000 0.000000
v 5.071965 0.000000 3.388978
v 4.313351 0.000000 4.313351
v 0.000000 0.120000 0.000000
v 3.388978 0.120000 5.071965
v 4.313351 0.120000 4.313351
v 4.313351 0.120000 4.313351
v 3.388978 0.120000 5.071965
v 3.388978 0.000000 5.071965
v 4.313351 0.000000 4.313351
v 0.000000 0.000000 0.000000
v 4.313351 0.000000 4.313351
v 3.388978 0.000000 5.071965
v 0.000000 0.120000 0.000000
v 2.334369 0.120000 5.635665
v 3.388978 0.120000 5.071965
v 3.388978 0.120000 5.071965
v 2.334369 0.120000 5.635665
v 2.334369 0.000000 5.635665
v 3.388978 0.000000 5.071965
v 0.000000 0.000000 0.000000
v 3.388978 0.000000 5.071965
v 2.334369 0.000000 5.635665
v 0.000000 0.120000 0.000000
v 1.190051 0.120000 5.982790
v 2.334369 0.120000 5.635665
v 2.334369 0.120000 5.635665
v 1.190051 0.120000 5.982790
v 1.190051 0.000000 5.982790
v 2.334369 0.000000 5.635665
v 0.000000 0.000000 0.000000
v 2.334369 0.000000 5.635665
v 1.190051 0.000000 5.982790
v 0.000000 0.120000 0.000000
v 0.000000 0.120000 6.100000
v 1.190051 0.120000 5.982790
v 1.190051 0.120000 5.982790
v 0.000000 0.120000 6.100000
v 0.000000 0.000000 6.100000
v 1.190051 0.000000 5.982790
v 0.000000 0.000000 0.000000
v 1.190051 0.000000 5.982790
v 0.000000 0.000000 6.100000
v 0.000000 0.120000 0.000000
v -1.190051 0.120000 5.982790
v 0.000000 0.120000 6.100000
v 0.000000 0.120000 6.100000
v -1.190051 0.120000 5.982790
v -1.190051 0.000000 5.982790
v 0.000000 0.000000 6.100000
v 0.000000 0.000000 0.000000
v 0.000000 0.000000 6.100000
v -1.190051 0.000000 5.982790
v 0.000000 0.120000 0.000000
v -2.334369 0.120000 5.635665
v -1.190051 0.120000 5.982790
v -1.190051 0.120000 5.982790
v -2.334369 0.120000 5.635665
v -2.334369 0.000000 5.635665
v -1.190051 0.000000 5.982790
v 0.000000 0.000000 0.000000
v -1.190051 0.000000 5.982790
v -2.334369 0.000000 5.635665
v 0.000000 0.120000 0.000000
v -3.388978 0.120000 5.071965
v -2.334369 0.120000 5.635665
v -2.334369 0.120000 5.635665
v -3.388978 0.120000 5.071965
v -3.388978 0.000000 5.071965
v -2.334369 0.000000 5.635665
v 0.000000 0.000000 0.000000
v -2.334369 0.000000 5.635665
v -3.388978 0.000000 5.071965
v 0.000000 0.120000 0.000000
v -4.313351 0.120000 4.313351
v -3.388978 0.120000 5.071965
v -3.388978 0.120000 5.071965
v -4.313351 0.120000 4.313351
v -4.313351 0.000000 4.313351
v -3.388978 0.000000 5.071965
v 0.000000 0.000000 0.000000
v -3.388978 0.000000 5.071965
v -4.313351 0.000000 4.313351
v 0.000000 0.120000 0.000000
v -5.071965 0.120000 3.388978
v -4.313351 0.120000 4.313351
v -4.313351 0.120000 4.313351
v -5.071965 0.120000 3.388978
v -5.071965 0.000000 3.388978
v -4.313351 0.000000 4.313351
v 0.000000 0.000000 0.000000
v -4.313351 0.000000 4.313351
v -5.071965 0.000000 3.388978
v 0.000000 0.120000 0.000000
v -5.635665 0.120000 2.334369
v -5.071965 0.120000 3.388978
v -5.071965 0.120000 3.388978
v -5.635665 0.120000 2.334369
v -5.635665 0.000000 2.334369
v -5.071965 0.000000 3.388978
v 0.000000 0.000000 0.000000
v -5.071965 0.000000 3.388978
v -5.635665 0.000000 2.334369
v 0.000000 0.120000 0.000000
v -5.982790 0.120000 1.190051
v -5.635665 0.120000 2.334369
v -5.635665 0.120000 2.334369
v -5.982790 0.120000 1.190051
v -5.982790 0.000000 1.190051
v -5.635665 0.000000 2.334369
v 0.000000 0.000000 0.000000
v -5.635665 0.000000 2.334369
v -5.982790 0.000000 1.190051
v 0.000000 0.120000 0.000000
v -6.100000 0.120000 0.000000
v -5.982790 0.120000 1.190051
v -5.982790 0.120000 1.190051
v -6.100000 0.120000 0.000000
v -6.100000 0.000000 0.000000
v -5.982790 0.000000 1.190051
v 0.000000 0.000000 0.000000
v -5.982790 0.000000 1.190051
v -6.100000 0.000000 0.000000
v 0.000000 0.120000 0.000000
v -5.982790 0.120000 -1.190051
v -6.100000 0.120000 0.000000
v -6.100000 0.120000 0.000000
v -5.982790 0.120000 -1.190051
v -5.982790 0.000000 -1.190051
v -6.100000 0.000000 0.000000
v 0.000000 0.000000 0.000000
v -6.100000 0.000000 0.000000
v -5.982790 0.000000 -1.190051
v 0.000000 0.120000 0.000000
v -5.635665 0.120000 -2.334369
v -5.982790 0.120000 -1.190051
v -5.982790 0.120000 -1.190051
v -5.635665 0.120000 -2.334369
v -5.635665 0.000000 -2.334369
v -5.982790 0.000000 -1.190051
v 0.000000 0.000000 0.000000
v -5.982790 0.000000 -1.190051
v -5.635665 0.000000 -2.334369
v 0.000000 0.120000 0.000000
v -5.071965 0.120000 -3.388978
v -5.635665 0.120000 -2.334369
v -5.635665 0.120000 -2.334369
v -5.071965 0.120000 -3.388978
v -5.071965 0.000000 -3.388978
v -5.635665 0.000000 -2.334369
v 0.000000 0.000000 0.000000
v -5.635665 0.000000 -2.334369
v -5.071965 0.000000 -3.388978
v 0.000000 0.120000 0.000000
v -4.313351 0.120000 -4.313351
v -5.071965 0.120000 -3.388978
v -5.071965 0.120000 -3.388978
v -4.313351 0.120000 -4.313351
v -4.313351 0.000000 -4.313351
v -5.071965 0.000000 -3.388978
v 0.000000 0.000000 0.000000
v -5.071965 0.000000 -3.388978
v -4.313351 0.000000 -4.313351
v 0.000000 0.120000 0.000000
v -3.388978 0.120000 -5.071965
v -4.313351 0.120000 -4.313351
v -4.313351 0.120000 -4.313351
v -3.388978 0.120000 -5.071965
v -3.388978 0.000000 -5.071965
v -4.313351 0.000000 -4.313351
v 0.000000 0.000000 0.000000
v -4.313351 0.000000 -4.313351
v -3.388978 0.000000 -5.071965
v 0.000000 0.120000 0.000000
v -2.334369 0.120000 -5.635665
v -3.388978 0.120000 -5.071965
v -3.388978 0.120000 -5.071965
v -2.334369 0.120000 -5.635665
v -2.334369 0.000000 -5.635665
v -3.388978 0.000000 -5.071965
v 0.000000 0.000000 0.000000
v -3.388978 0.000000 -5.071965
v -2.334369 0.000000 -5.635665
v 0.000000 0.120000 0.000000
v -1.190051 0.120000 -5.982790
v -2.334369 0.120000 -5.635665
v -2.334369 0.120000 -5.635665
v -1.190051 0.120000 -5.982790
v -1.190051 0.000000 -5.982790
v -2.334369 0.000000 -5.635665
v 0.000000 0.000000 0.000000
v -2.334369 0.000000 -5.635665
v -1.190051 0.000000 -5.982790
v 0.000000 0.120000 0.000000
v -0.000000 0.120000 -6.100000
v -1.190051 0.120000 -5.982790
v -1.190051 0.120000 -5.982790
v -0.000000 0.120000 -6.100000
v -0.000000 0.000000 -6.100000
v -1.190051 0.000000 -5.982790
v 0.000000 0.000000 0.000000
v -1.190051 0.000000 -5.982790
v -0.000000 0.000000 -6.100000
v 0.000000 0.120000 0.000000
v 1.190051 0.120000 -5.982790
v -0.000000 0.120000 -6.100000
v -0.000000 0.120000 -6.100000
v 1.190051 0.120000 -5.982790
v 1.190051 0.000000 -5.982790
v -0.000000 0.000000 -6.100000
v 0.000000 0.000000 0.000000
v -0.000000 0.000000 -6.100000
v 1.190051 0.000000 -5.982790
v 0.000000 0.120000 0.000000
v 2.334369 0.120000 -5.635665
v 1.190051 0.120000 -5.982790
v 1.190051 0.120000 -5.982790
v 2.334369 0.120000 -5.635665
v 2.334369 0.000000 -5.635665
v 1.190051 0.000000 -5.982790
v 0.000000 0.000000 0.000000
v 1.190051 0.000000 -5.982790
v 2.334369 0.000000 -5.635665
v 0.000000 0.120000 0.000000
v 3.388978 0.120000 -5.071965
v 2.334369 0.120000 -5.635665
v 2.334369 0.120000 -5.635665
v 3.388978 0.120000 -5.071965
v 3.388978 0.000000 -5.071965
v 2.334369 0.000000 -5.635665
v 0.000000 0.000000 0.000000
v 2.334369 0.000000 -5.635665
v 3.388978 0.000000 -5.071965
v 0.000000 0.120000 0.000000
v 4.313351 0.120000 -4.313351
v 3.388978 0.120000 -5.071965
v 3.388978 0.120000 -5.071965
v 4.313351 0.120000 -4.313351
v 4.313351 0.000000 -4.313351
v 3.388978 0.000000 -5.071965
v 0.000000 0.000000 0.000000
v 3.388978 0.000000 -5.071965
v 4.313351 0.000000 -4.313351
v 0.000000 0.120000 0.000000
v 5.071965 0.120000 -3.388978
v 4.313351 0.120000 -4.313351
v 4.313351 0.120000 -4.313351
v 5.071965 0.120000 -3.388978
v 5.071965 0.000000 -3.388978
v 4.313351 0.000000 -4.313351
v 0.000000 0.000000 0.000000
v 4.313351 0.000000 -4.313351
v 5.071965 0.000000 -3.388978
v 0.000000 0.120000 0.000000
v 5.635665 0.120000 -2.334369
v 5.071965 0.120000 -3.388978
v 5.071965 0.120000 -3.388978
v 5.635665 0.120000 -2.334369
v 5.635665 0.000000 -2.334369
v 5.071965 0.000000 -3.388978
v 0.000000 0.000000 0.000000
v 5.071965 0.000000 -3.388978
v 5.635665 0.000000 -2.334369
v 0.000000 0.120000 0.000000
v 5.982790 0.120000 -1.190051
v 5.635665 0.120000 -2.334369
v 5.635665 0.120000 -2.334369
v 5.982790 0.120000 -1.190051
v 5.982790 0.000000 -1.190051
v 5.635665 0.000000 -2.334369
v 0.000000 0.000000 0.000000
v 5.635665 0.000000 -2.334369
v 5.982790 0.000000 -1.190051
v 0.000000 0.120000 0.000000
v 6.100000 0.120000 -0.000000
v 5.982790 0.120000 -1.190051
v 5.982790 0.120000 -1.190051
v 6.100000 0.120000 -0.000000
v 6.100000 0.000000 -0.000000
v 5.982790 0.000000 -1.190051
v 0.000000 0.000000 0.000000
v 5.982790 0.000000 -1.190051
v 6.100000 0.000000 -0.000000
v 0.000000 0.280000 0.000000
v 5.443358 0.280000 1.082751
v 5.550000 0.280000 0.000000
v 5.550000 0.280000 0.000000
v 5.443358 0.280000 1.082751
v 5.443358 0.100000 1.082751
v 5.550000 0.100000 0.000000
v 0.000000 0.100000 0.000000
v 5.550000 0.100000 0.000000
v 5.443358 0.100000 1.082751
v 0.000000 0.280000 0.000000
v 5.127531 0.280000 2.123893
v 5.443358 0.280000 1.082751
v 5.443358 0.280000 1.082751
v 5.127531 0.280000 2.123893
v 5.127531 0.100000 2.123893
v 5.443358 0.100000 1.082751
v 0.000000 0.100000 0.000000
v 5.443358 0.100000 1.082751
v 5.127531 0.100000 2.123893
v 0.000000 0.280000 0.000000
v 4.614656 0.280000 3.083415
v 5.127531 0.280000 2.123893
v 5.127531 0.280000 2.123893
v 4.614656 0.280000 3.083415
v 4.614656 0.100000 3.083415
v 5.127531 0.100000 2.123893
v 0.000000 0.100000 0.000000
v 5.127531 0.100000 2.123893
v 4.614656 0.100000 3.083415
v 0.000000 0.280000 0.000000
v 3.924443 0.280000 3.924443
v 4.614656 0.280000 3.083415
v 4.614656 0.280000 3.083415
v 3.924443 0.280000 3.924443
v 3.924443 0.100000 3.924443
v 4.614656 0.100000 3.083415
v 0.000000 0.100000 0.000000
v 4.614656 0.100000 3.083415
v 3.924443 0.100000 3.924443
v 0.000000 0.280000 0.000000
v 3.083415 0.280000 4.614656
v 3.924443 0.280000 3.924443
v 3.924443 0.280000 3.924443
v 3.083415 0.280000 4.614656
v 3.083415 0.100000 4.614656
v 3.924443 0.100000 3.924443
v 0.000000 0.100000 0.000000
v 3.924443 0.100000 3.924443
v 3.083415 0.100000 4.614656
v 0.000000 0.280000 0.000000
v 2.123893 0.280000 5.127531
v 3.083415 0.280000 4.614656
v 3.083415 0.280000 4.614656
v 2.123893 0.280000 5.127531
v 2.123893 0.100000 5.127531
v 3.083415 0.100000 4.614656
v 0.000000 0.100000 0.000000
v 3.083415 0.100000 4.614656
v 2.123893 0.100000 5.127531
v 0.000000 0.280000 0.000000
v 1.082751 0.280000 5.443358
v 2.123893 0.280000 5.127531
v 2.123893 0.280000 5.127531
v 1.082751 0.280000 5.443358
v 1.082751 0.100000 5.443358
v 2.123893 0.100000 5.127531
v 0.000000 0.100000 0.000000
v 2.123893 0.100000 5.127531
v 1.082751 0.100000 5.443358
v 0.000000 0.280000 0.000000
v 0.000000 0.280000 5.550000
v 1.082751 0.280000 5.443358
v 1.082751 0.280000 5.443358
v 0.000000 0.280000 5.550000
v 0.000000 0.100000 5.550000
v 1.082751 0.100000 5.443358
v 0.000000 0.100000 0.000000
v 1.082751 0.100000 5.443358
v 0.000000 0.100000 5.550000
v 0.000000 0.280000 0.000000
v -1.082751 0.280000 5.443358
v 0.000000 0.280000 5.550000
v 0.000000 0.280000 5.550000
v -1.082751 0.280000 5.443358
v -1.082751 0.100000 5.443358
v 0.000000 0.100000 5.550000
v 0.000000 0.100000 0.000000
v 0.000000 0.100000 5.550000
v -1.082751 0.100000 5.443358
v 0.000000 0.280000 0.000000
v -2.123893 0.280000 5.127531
v -1.082751 0.280000 5.443358
v -1.082751 0.280000 5.443358
v -2.123893 0.280000 5.127531
v -2.123893 0.100000 5.127531
v -1.082751 0.100000 5.443358
v 0.000000 0.100000 0.000000
v -1.082751 0.100000 5.443358
v -2.123893 0.100000 5.127531
v 0.000000 0.280000 0.000000
v -3.083415 0.280000 4.614656
v -2.123893 0.280000 5.127531
v -2.123893 0.280000 5.127531
v -3.083415 0.280000 4.614656
v -3.083415 0.100000 4.614656
v -2.123893 0.100000 5.127531
v 0.000000 0.100000 0.000000
v -2.123893 0.100000 5.127531
v -3.083415 0.100000 4.614656
v 0.000000 0.280000 0.000000
v -3.924443 0.280000 3.924443
v -3.083415 0.280000 4.614656
v -3.083415 0.280000 4.614656
v -3.924443 0.280000 3.924443
v -3.924443 0.100000 3.924443
v -3.083415 0.100000 4.614656
v 0.000000 0.100000 0.000000
v -3.083415 0.100000 4.614656
v -3.924443 0.100000 3.924443
v 0.000000 0.280000 0.000000
v -4.614656 0.280000 3.083415
v -3.924443 0.280000 3.924443
v -3.924443 0.280000 3.924443
v -4.614656 0.280000 3.083415
v -4.614656 0.100000 3.083415
v -3.924443 0.100000 3.924443
v 0.000000 0.100000 0.000000
v -3.924443 0.100000 3.924443
v -4.614656 0.100000 3.083415
v 0.000000 0.280000 0.000000
v -5.127531 0.280000 2.123893
v -4.614656 0.280000 3.083415
v -4.614656 0.280000 3.083415
v -5.127531 0.280000 2.123893
v -5.127531 0.100000 2.123893
v -4.614656 0.100000 3.083415
v 0.000000 0.100000 0.000000
v -4.614656 0.100000 3.083415
v -5.127531 0.100000 2.123893
v 0.000000 0.280000 0.000000
v -5.443358 0.280000 1.082751
v -5.127531 0.280000 2.123893
v -5.127531 0.280000 2.123893
v -5.443358 0.280000 1.082751
v -5.443358 0.100000 1.082751
v -5.127531 0.100000 2.123893
v 0.000000 0.100000 0.000000
v -5.127531 0.100000 2.123893
v -5.443358 0.100000 1.082751
v 0.000000 0.280000 0.000000
v -5.550000 0.280000 0.000000
v -5.443358 0.280000 1.082751
v -5.443358 0.280000 1.082751
v -5.550000 0.280000 0.000000
v -5.550000 0.100000 0.000000
v -5.443358 0.100000 1.082751
v 0.000000 0.100000 0.000000
v -5.443358 0.100000 1.082751
v -5.550000 0.100000 0.000000
v 0.000000 0.280000 0.000000
v -5.443358 0.280000 -1.082751
v -5.550000 0.280000 0.000000
v -5.550000 0.280000 0.000000
v -5.443358 0.280000 -1.082751
v -5.443358 0.100000 -1.082751
v -5.550000 0.100000 0.000000
v 0.000000 0.100000 0.000000
v -5.550000 0.100000 0.000000
v -5.443358 0.100000 -1.082751
v 0.000000 0.280000 0.000000
v -5.127531 0.280000 -2.123893
v -5.443358 0.280000 -1.082751
v -5.443358 0.280000 -1.082751
v -5.127531 0.280000 -2.123893
v -5.127531 0.100000 -2.123893
v -5.443358 0.100000 -1.082751
v 0.000000 0.100000 0.000000
v -5.443358 0.100000 -1.082751
v -5.127531 0.100000 -2.123893
v 0.000000 0.280000 0.000000
v -4.614656 0.280000 -3.083415
v -5.127531 0.280000 -2.123893
v -5.127531 0.280000 -2.123893
v -4.614656 0.280000 -3.083415
v -4.614656 0.100000 -3.083415
v -5.127531 0.100000 -2.123893
v 0.000000 0.100000 0.000000
v -5.127531 0.100000 -2.123893
v -4.614656 0.100000 -3.083415
v 0.000000 0.280000 0.000000
v -3.924443 0.280000 -3.924443
v -4.614656 0.280000 -3.083415
v -4.614656 0.280000 -3.083415
v -3.924443 0.280000 -3.924443
v -3.924443 0.100000 -3.924443
v -4.614656 0.100000 -3.083415
v 0.000000 0.100000 0.000000
v -4.614656 0.100000 -3.083415
v -3.924443 0.100000 -3.924443
v 0.000000 0.280000 0.000000
v -3.083415 0.280000 -4.614656
v -3.924443 0.280000 -3.924443
v -3.924443 0.280000 -3.924443
v -3.083415 0.280000 -4.614656
v -3.083415 0.100000 -4.614656
v -3.924443 0.100000 -3.924443
v 0.000000 0.100000 0.000000
v -3.924443 0.100000 -3.924443
v -3.083415 0.100000 -4.614656
v 0.000000 0.280000 0.000000
v -2.123893 0.280000 -5.127531
v -3.083415 0.280000 -4.614656
v -3.083415 0.280000 -4.614656
v -2.123893 0.280000 -5.127531
v -2.123893 0.100000 -5.127531
v -3.083415 0.100000 -4.614656
v 0.000000 0.100000 0.000000
v -3.083415 0.100000 -4.614656
v -2.123893 0.100000 -5.127531
v 0.000000 0.280000 0.000000
v -1.082751 0.280000 -5.443358
v -2.123893 0.280000 -5.127531
v -2.123893 0.280000 -5.127531
v -1.082751 0.280000 -5.443358
v -1.082751 0.100000 -5.443358
v -2.123893 0.100000 -5.127531
v 0.000000 0.100000 0.000000
v -2.123893 0.100000 -5.127531
v -1.082751 0.100000 -5.443358
v 0.000000 0.280000 0.000000
v -0.000000 0.280000 -5.550000
v -1.082751 0.280000 -5.443358
v -1.082751 0.280000 -5.443358
v -0.000000 0.280000 -5.550000
v -0.000000 0.100000 -5.550000
v -1.082751 0.100000 -5.443358
v 0.000000 0.100000 0.000000
v -1.082751 0.100000 -5.443358
v -0.000000 0.100000 -5.550000
v 0.000000 0.280000 0.000000
v 1.082751 0.280000 -5.443358
v -0.000000 0.280000 -5.550000
v -0.000000 0.280000 -5.550000
v 1.082751 0.280000 -5.443358
v 1.082751 0.100000 -5.443358
v -0.000000 0.100000 -5.550000
v 0.000000 0.100000 0.000000
v -0.000000 0.100000 -5.550000
v 1.082751 0.100000 -5.443358
v 0.000000 0.280000 0.000000
v 2.123893 0.280000 -5.127531
v 1.082751 0.280000 -5.443358
v 1.082751 0.280000 -5.443358
v 2.123893 0.280000 -5.127531
v 2.123893 0.100000 -5.127531
v 1.082751 0.100000 -5.443358
v 0.000000 0.100000 0.000000
v 1.082751 0.100000 -5.443358
v 2.123893 0.100000 -5.127531
v 0.000000 0.280000 0.000000
v 3.083415 0.280000 -4.614656
v 2.123893 0.280000 -5.127531
v 2.123893 0.280000 -5.127531
v 3.083415 0.280000 -4.614656
v 3.083415 0.100000 -4.614656
v 2.123893 0.100000 -5.127531
v 0.000000 0.100000 0.000000
v 2.123893 0.100000 -5.127531
v 3.083415 0.100000 -4.614656
v 0.000000 0.280000 0.000000
v 3.924443 0.280000 -3.924443
v 3.083415 0.280000 -4.614656
v 3.083415 0.280000 -4.614656
v 3.924443 0.280000 -3.924443
v 3.924443 0.100000 -3.924443
v 3.083415 0.100000 -4.614656
v 0.000000 0.100000 0.000000
v 3.083415 0.100000 -4.614656
v 3.924443 0.100000 -3.924443
v 0.000000 0.280000 0.000000
v 4.614656 0.280000 -3.083415
v 3.924443 0.280000 -3.924443
v 3.924443 0.280000 -3.924443
v 4.614656 0.280000 -3.083415
v 4.614656 0.100000 -3.083415
v 3.924443 0.100000 -3.924443
v 0.000000 0.100000 0.000000
v 3.924443 0.100000 -3.924443
v 4.614656 0.100000 -3.083415
v 0.000000 0.280000 0.000000
v 5.127531 0.280000 -2.123893
v 4.614656 0.280000 -3.083415
v 4.614656 0.280000 -3.083415
v 5.127531 0.280000 -2.123893
v 5.127531 0.100000 -2.123893
v 4.614656 0.100000 -3.083415
v 0.000000 0.100000 0.000000
v 4.614656 0.100000 -3.083415
v 5.127531 0.100000 -2.123893
v 0.000000 0.280000 0.000000
v 5.443358 0.280000 -1.082751
v 5.127531 0.280000 -2.123893
v 5.127531 0.280000 -2.123893
v 5.443358 0.280000 -1.082751
v 5.443358 0.100000 -1.082751
v 5.127531 0.100000 -2.123893
v 0.000000 0.100000 0.000000
v 5.127531 0.100000 -2.123893
v 5.443358 0.100000 -1.082751
v 0.000000 0.280000 0.000000
v 5.550000 0.280000 -0.000000
v 5.443358 0.280000 -1.082751
v 5.443358 0.280000 -1.082751
v 5.550000 0.280000 -0.000000
v 5.550000 0.100000 -0.000000
v 5.443358 0.100000 -1.082751
v 0.000000 0.100000 0.000000
v 5.443358 0.100000 -1.082751
v 5.550000 0.100000 -0.000000
v 0.000000 0.340000 0.000000
v 3.579866 0.340000 0.712080
v 3.650000 0.340000 0.000000
v 3.650000 0.340000 0.000000
v 3.579866 0.340000 0.712080
v 3.579866 0.270000 0.712080
v 3.650000 0.270000 0.000000
v 0.000000 0.270000 0.000000
v 3.650000 0.270000 0.000000
v 3.579866 0.270000 0.712080
v 0.000000 0.340000 0.000000
v 3.372160 0.340000 1.396795
v 3.579866 0.340000 0.712080
v 3.579866 0.340000 0.712080
v 3.372160 0.340000 1.396795
v 3.372160 0.270000 1.396795
v 3.579866 0.270000 0.712080
v 0.000000 0.270000 0.000000
v 3.579866 0.270000 0.712080
v 3.372160 0.270000 1.396795
v 0.000000 0.340000 0.000000
v 3.034864 0.340000 2.027831
v 3.372160 0.340000 1.396795
v 3.372160 0.340000 1.396795
v 3.034864 0.340000 2.027831
v 3.034864 0.270000 2.027831
v 3.372160 0.270000 1.396795
v 0.000000 0.270000 0.000000
v 3.372160 0.270000 1.396795
v 3.034864 0.270000 2.027831
v 0.000000 0.340000 0.000000
v 2.580940 0.340000 2.580940
v 3.034864 0.340000 2.027831
v 3.034864 0.340000 2.027831
v 2.580940 0.340000 2.580940
v 2.580940 0.270000 2.580940
v 3.034864 0.270000 2.027831
v 0.000000 0.270000 0.000000
v 3.034864 0.270000 2.027831
v 2.580940 0.270000 2.580940
v 0.000000 0.340000 0.000000
v 2.027831 0.340000 3.034864
v 2.580940 0.340000 2.580940
v 2.580940 0.340000 2.580940
v 2.027831 0.340000 3.034864
v 2.027831 0.270000 3.034864
v 2.580940 0.270000 2.580940
v 0.000000 0.270000 0.000000
v 2.580940 0.270000 2.580940
v 2.027831 0.270000 3.034864
v 0.000000 0.340000 0.000000
v 1.396795 0.340000 3.372160
v 2.027831 0.340000 3.034864
v 2.027831 0.340000 3.034864
v 1.396795 0.340000 3.372160
v 1.396795 0.270000 3.372160
v 2.027831 0.270000 3.034864
v 0.000000 0.270000 0.000000
v 2.027831 0.270000 3.034864
v 1.396795 0.270000 3.372160
v 0.000000 0.340000 0.000000
v 0.712080 0.340000 3.579866
v 1.396795 0.340000 3.372160
v 1.396795 0.340000 3.372160
v 0.712080 0.340000 3.579866
v 0.712080 0.270000 3.579866
v 1.396795 0.270000 3.372160
v 0.000000 0.270000 0.000000
v 1.396795 0.270000 3.372160
v 0.712080 0.270000 3.579866
v 0.000000 0.340000 0.000000
v 0.000000 0.340000 3.650000
v 0.712080 0.340000 3.579866
v 0.712080 0.340000 3.579866
v 0.000000 0.340000 3.650000
v 0.000000 0.270000 3.650000
v 0.712080 0.270000 3.579866
v 0.000000 0.270000 0.000000
v 0.712080 0.270000 3.579866
v 0.000000 0.270000 3.650000
v 0.000000 0.340000 0.000000
v -0.712080 0.340000 3.579866
v 0.000000 0.340000 3.650000
v 0.000000 0.340000 3.650000
v -0.712080 0.340000 3.579866
v -0.712080 0.270000 3.579866
v 0.000000 0.270000 3.650000
v 0.000000 0.270000 0.000000
v 0.000000 0.270000 3.650000
v -0.712080 0.270000 3.579866
v 0.000000 0.340000 0.000000
v -1.396795 0.340000 3.372160
v -0.712080 0.340000 3.579866
v -0.712080 0.340000 3.579866
v -1.396795 0.340000 3.372160
v -1.396795 0.270000 3.372160
v -0.712080 0.270000 3.579866
v 0.000000 0.270000 0.000000
v -0.712080 0.270000 3.579866
v -1.396795 0.270000 3.372160
v 0.000000 0.340000 0.000000
v -2.027831 0.340000 3.034864
v -1.396795 0.340000 3.372160
v -1.396795 0.340000 3.372160
v -2.027831 0.340000 3.034864
v -2.027831 0.270000 3.034864
v -1.396795 0.270000 3.372160
v 0.000000 0.270000 0.000000
v -1.396795 0.270000 3.372160
v -2.027831 0.270000 3.034864
v 0.000000 0.340000 0.000000
v -2.580940 0.340000 2.580940
v -2.027831 0.340000 3.034864
v -2.027831 0.340000 3.034864
v -2.580940 0.340000 2.580940
v -2.580940 0.270000 2.580940
v -2.027831 0.270000 3.034864
v 0.000000 0.270000 0.000000
v -2.027831 0.270000 3.034864
v -2.580940 0.270000 2.580940
v 0.000000 0.340000 0.000000
v -3.034864 0.340000 2.027831
v -2.580940 0.340000 2.580940
v -2.580940 0.340000 2.580940
v -3.034864 0.340000 2.027831
v -3.034864 0.270000 2.027831
v -2.580940 0.270000 2.580940
v 0.000000 0.270000 0.000000
v -2.580940 0.270000 2.580940
v -3.034864 0.270000 2.027831
v 0.000000 0.340000 0.000000
v -3.372160 0.340000 1.396795
v -3.034864 0.340000 2.027831
v -3.034864 0.340000 2.027831
v -3.372160 0.340000 1.396795
v -3.372160 0.270000 1.396795
v -3.034864 0.270000 2.027831
v 0.000000 0.270000 0.000000
v -3.034864 0.270000 2.027831
v -3.372160 0.270000 1.396795
v 0.000000 0.340000 0.000000
v -3.579866 0.340000 0.712080
v -3.372160 0.340000 1.396795
v -3.372160 0.340000 1.396795
v -3.579866 0.340000 0.712080
v -3.579866 0.270000 0.712080
v -3.372160 0.270000 1.396795
v 0.000000 0.270000 0.000000
v -3.372160 0.270000 1.396795
v -3.579866 0.270000 0.712080
v 0.000000 0.340000 0.000000
v -3.650000 0.340000 0.000000
v -3.579866 0.340000 0.712080
v -3.579866 0.340000 0.712080
v -3.650000 0.340000 0.000000
v -3.650000 0.270000 0.000000
v -3.579866 0.270000 0.712080
v 0.000000 0.270000 0.000000
v -3.579866 0.270000 0.712080
v -3.650000 0.270000 0.000000
v 0.000000 0.340000 0.000000
v -3.579866 0.340000 -0.712080
v -3.650000 0.340000 0.000000
v -3.650000 0.340000 0.000000
v -3.579866 0.340000 -0.712080
v -3.579866 0.270000 -0.712080
v -3.650000 0.270000 0.000000
v 0.000000 0.270000 0.000000
v -3.650000 0.270000 0.000000
v -3.579866 0.270000 -0.712080
v 0.000000 0.340000 0.000000
v -3.372160 0.340000 -1.396795
v -3.579866 0.340000 -0.712080
v -3.579866 0.340000 -0.712080
v -3.372160 0.340000 -1.396795
v -3.372160 0.270000 -1.396795
v -3.579866 0.270000 -0.712080
v 0.000000 0.270000 0.000000
v -3.579866 0.270000 -0.712080
v -3.372160 0.270000 -1.396795
v 0.000000 0.340000 0.000000
v -3.034864 0.340000 -2.027831
v -3.372160 0.340000 -1.396795
v -3.372160 0.340000 -1.396795
v -3.034864 0.340000 -2.027831
v -3.034864 0.270000 -2.027831
v -3.372160 0.270000 -1.396795
v 0.000000 0.270000 0.000000
v -3.372160 0.270000 -1.396795
v -3.034864 0.270000 -2.027831
v 0.000000 0.340000 0.000000
v -2.580940 0.340000 -2.580940
v -3.034864 0.340000 -2.027831
v -3.034864 0.340000 -2.027831
v -2.580940 0.340000 -2.580940
v -2.580940 0.270000 -2.580940
v -3.034864 0.270000 -2.027831
v 0.000000 0.270000 0.000000
v -3.034864 0.270000 -2.027831
v -2.580940 0.270000 -2.580940
v 0.000000 0.340000 0.000000
v -2.027831 0.340000 -3.034864
v -2.580940 0.340000 -2.580940
v -2.580940 0.340000 -2.580940
v -2.027831 0.340000 -3.034864
v -2.027831 0.270000 -3.034864
v -2.580940 0.270000 -2.580940
v 0.000000 0.270000 0.000000
v -2.580940 0.270000 -2.580940
v -2.027831 0.270000 -3.034864
v 0.000000 0.340000 0.000000
v -1.396795 0.340000 -3.372160
v -2.027831 0.340000 -3.034864
v -2.027831 0.340000 -3.034864
v -1.396795 0.340000 -3.372160
v -1.396795 0.270000 -3.372160
v -2.027831 0.270000 -3.034864
v 0.000000 0.270000 0.000000
v -2.027831 0.270000 -3.034864
v -1.396795 0.270000 -3.372160
v 0.000000 0.340000 0.000000
v -0.712080 0.340000 -3.579866
v -1.396795 0.340000 -3.372160
v -1.396795 0.340000 -3.372160
v -0.712080 0.340000 -3.579866
v -0.712080 0.270000 -3.579866
v -1.396795 0.270000 -3.372160
v 0.000000 0.270000 0.000000
v -1.396795 0.270000 -3.372160
v -0.712080 0.270000 -3.579866
v 0.000000 0.340000 0.000000
v -0.000000 0.340000 -3.650000
v -0.712080 0.340000 -3.579866
v -0.712080 0.340000 -3.579866
v -0.000000 0.340000 -3.650000
v -0.000000 0.270000 -3.650000
v -0.712080 0.270000 -3.579866
v 0.000000 0.270000 0.000000
v -0.712080 0.270000 -3.579866
v -0.000000 0.270000 -3.650000
v 0.000000 0.340000 0.000000
v 0.712080 0.340000 -3.579866
v -0.000000 0.340000 -3.650000
v -0.000000 0.340000 -3.650000
v 0.712080 0.340000 -3.579866
v 0.712080 0.270000 -3.579866
v -0.000000 0.270000 -3.650000
v 0.000000 0.270000 0.000000
v -0.000000 0.270000 -3.650000
v 0.712080 0.270000 -3.579866
v 0.000000 0.340000 0.000000
v 1.396795 0.340000 -3.372160
v 0.712080 0.340000 -3.579866
v 0.712080 0.340000 -3.579866
v 1.396795 0.340000 -3.372160
v 1.396795 0.270000 -3.372160
v 0.712080 0.270000 -3.579866
v 0.000000 0.270000 0.000000
v 0.712080 0.270000 -3.579866
v 1.396795 0.270000 -3.372160
v 0.000000 0.340000 0.000000
v 2.027831 0.340000 -3.034864
v 1.396795 0.340000 -3.372160
v 1.396795 0.340000 -3.372160
v 2.027831 0.340000 -3.034864
v 2.027831 0.270000 -3.034864
v 1.396795 0.270000 -3.372160
v 0.000000 0.270000 0.000000
v 1.396795 0.270000 -3.372160
v 2.027831 0.270000 -3.034864
v 0.000000 0.340000 0.000000
v 2.580940 0.340000 -2.580940
v 2.027831 0.340000 -3.034864
v 2.027831 0.340000 -3.034864
v 2.580940 0.340000 -2.580940
v 2.580940 0.270000 -2.580940
v 2.027831 0.270000 -3.034864
v 0.000000 0.270000 0.000000
v 2.027831 0.270000 -3.034864
v 2.580940 0.270000 -2.580940
v 0.000000 0.340000 0.000000
v 3.034864 0.340000 -2.027831
v 2.580940 0.340000 -2.580940
v 2.580940 0.340000 -2.580940
v 3.034864 0.340000 -2.027831
v 3.034864 0.270000 -2.027831
v 2.580940 0.270000 -2.580940
v 0.000000 0.270000 0.000000
v 2.580940 0.270000 -2.580940
v 3.034864 0.270000 -2.027831
v 0.000000 0.340000 0.000000
v 3.372160 0.340000 -1.396795
v 3.034864 0.340000 -2.027831
v 3.034864 0.340000 -2.027831
v 3.372160 0.340000 -1.396795
v 3.372160 0.270000 -1.396795
v 3.034864 0.270000 -2.027831
v 0.000000 0.270000 0.000000
v 3.034864 0.270000 -2.027831
v 3.372160 0.270000 -1.396795
v 0.000000 0.340000 0.000000
v 3.579866 0.340000 -0.712080
v 3.372160 0.340000 -1.396795
v 3.372160 0.340000 -1.396795
v 3.579866 0.340000 -0.712080
v 3.579866 0.270000 -0.712080
v 3.372160 0.270000 -1.396795
v 0.000000 0.270000 0.000000
v 3.372160 0.270000 -1.396795
v 3.579866 0.270000 -0.712080
v 0.000000 0.340000 0.000000
v 3.650000 0.340000 -0.000000
v 3.579866 0.340000 -0.712080
v 3.579866 0.340000 -0.712080
v 3.650000 0.340000 -0.000000
v 3.650000 0.270000 -0.000000
v 3.579866 0.270000 -0.712080
v 0.000000 0.270000 0.000000
v 3.579866 0.270000 -0.712080
v 3.650000 0.270000 -0.000000
vt 0.500000 0.500000
vt 1.000000 1.000000
vt 0.000000 1.000000
vt 0.000000 0.000000
vt 1.000000 0.000000
vt 1.000000 1.000000
vt 0.000000 1.000000
vt 0.500000 0.500000
vt 0.000000 0.000000
vt 1.000000 0.000000
vt 0.500000 0.500000
vt 1.000000 1.000000
vt 0.000000 1.000000
vt 0.000000 0.000000
vt 1.000000 0.000000
vt 1.000000 1.000000
vt 0.000000 1.000000
vt 0.500000 0.500000
vt 0.000000 0.000000
vt 1.000000 0.000000
vt 0.500000 0.500000
vt 1.000000 1.000000
vt 0.000000 1.000000
vt 0.000000 0.000000
vt 1.000000 0.000000
vt 1.000000 1.000000
vt 0.000000 1.000000
vt 0.500000 0.500000
vt 0.000000 0.000000
vt 1.000000 0.000000
vt 0.500000 0.500000
vt 1.000000 1.000000
vt 0.000000 1.000000
vt 0.000000 0.000000
vt 1.000000 0.000000
vt 1.000000 1.000000
vt 0.000000 1.000000
vt 0.500000 0.500000
vt 0.000000 0.000000
vt 1.000000 0.000000
vt 0.500000 0.500000
vt 1.000000 1.000000
vt 0.000000 1.000000
vt 0.000000 0.000000
vt 1.000000 0.000000
vt 1.000000 1.000000
vt 0.000000 1.000000
vt 0.500000 0.500000
vt 0.000000 0.000000
vt 1.000000 0.000000
vt 0.500000 0.500000
vt 1.000000 1.000000
vt 0.000000 1.000000
vt 0.000000 0.000000
vt 1.000000 0.000000
vt 1.000000 1.000000
vt 0.000000 1.000000
vt 0.500000 0.500000
vt 0.000000 0.000000
vt 1.000000 0.000000
vt 0.500000 0.500000
vt 1.000000 1.000000
vt 0.000000 1.000000
vt 0.000000 0.000000
vt 1.000000 0.000000
vt 1.000000 1.000000
vt 0.000000 1.000000
vt 0.500000 0.500000
vt 0.000000 0.000000
vt 1.000000 0.000000
vt 0.500000 0.500000
vt 1.000000 1.000000
vt 0.000000 1.000000
vt 0.000000 0.000000
vt 1.000000 0.000000
vt 1.000000 1.000000
vt 0.000000 1.000000
vt 0.500000 0.500000
vt 0.000000 0.000000
vt 1.000000 0.000000
vt 0.500000 0.500000
vt 1.000000 1.000000
vt 0.000000 1.000000
vt 0.000000 0.000000
vt 1.000000 0.000000
vt 1.000000 1.000000
vt 0.000000 1.000000
vt 0.500000 0.500000
vt 0.000000 0.000000
vt 1.000000 0.000000
vt 0.500000 0.500000
vt 1.000000 1.000000
vt 0.000000 1.000000
vt 0.000000 0.000000
vt 1.000000 0.000000
vt 1.000000 1.000000
vt 0.000000 1.000000
vt 0.500000 0.500000
vt 0.000000 0.000000
vt 1.000000 0.000000
vt 0.500000 0.500000
vt 1.000000 1.000000
vt 0.000000 1.000000
vt 0.000000 0.000000
vt 1.000000 0.000000
vt 1.000000 1.000000
vt 0.000000 1.000000
vt 0.500000 0.500000
vt 0.000000 0.000000
vt 1.000000 0.000000
vt 0.500000 0.500000
vt 1.000000 1.000000
vt 0.000000 1.000000
vt 0.000000 0.000000
vt 1.000000 0.000000
vt 1.000000 1.000000
vt 0.000000 1.000000
vt 0.500000 0.500000
vt 0.000000 0.000000
vt 1.000000 0.000000
vt 0.500000 0.500000
vt 1.000000 1.000000
vt 0.000000 1.000000
vt 0.000000 0.000000
vt 1.000000 0.000000
vt 1.000000 1.000000
vt 0.000000 1.000000
vt 0.500000 0.500000
vt 0.000000 0.000000
vt 1.000000 0.000000
vt 0.500000 0.500000
vt 1.000000 1.000000
vt 0.000000 1.000000
vt 0.000000 0.000000
vt 1.000000 0.000000
vt 1.000000 1.000000
vt 0.000000 1.000000
vt 0.500000 0.500000
vt 0.000000 0.000000
vt 1.000000 0.000000
vt 0.500000 0.500000
vt 1.000000 1.000000
vt 0.000000 1.000000
vt 0.000000 0.000000
vt 1.000000 0.000000
vt 1.000000 1.000000
vt 0.000000 1.000000
vt 0.500000 0.500000
vt 0.000000 0.000000
vt 1.000000 0.000000
vt 0.500000 0.500000
vt 1.000000 1.000000
vt 0.000000 1.000000
vt 0.000000 0.000000
vt 1.000000 0.000000
vt 1.000000 1.000000
vt 0.000000 1.000000
vt 0.500000 0.500000
vt 0.000000 0.000000
vt 1.000000 0.000000
vt 0.500000 0.500000
vt 1.000000 1.000000
vt 0.000000 1.000000
vt 0.000000 0.000000
vt 1.000000 0.000000
vt 1.000000 1.000000
vt 0.000000 1.000000
vt 0.500000 0.500000
vt 0.000000 0.000000
vt 1.000000 0.000000
vt 0.500000 0.500000
vt 1.000000 1.000000
vt 0.000000 1.000000
vt 0.000000 0.000000
vt 1.000000 0.000000
vt 1.000000 1.000000
vt 0.000000 1.000000
vt 0.500000 0.500000
vt 0.000000 0.000000
vt 1.000000 0.000000
vt 0.500000 0.500000
vt 1.000000 1.000000
vt 0.000000 1.000000
vt 0.000000 0.000000
vt 1.000000 0.000000
vt 1.000000 1.000000
vt 0.000000 1.000000
vt 0.500000 0.500000
vt 0.000000 0.000000
vt 1.000000 0.000000
vt 0.500000 0.500000
vt 1.000000 1.000000
vt 0.000000 1.000000
vt 0.000000 0.000000
vt 1.000000 0.000000
vt 1.000000 1.000000
vt 0.000000 1.000000
vt 0.500000 0.500000
vt 0.000000 0.000000
vt 1.000000 0.000000
vt 0.500000 0.500000
vt 1.000000 1.000000
vt 0.000000 1.000000
vt 0.000000 0.000000
vt 1.000000 0.000000
vt 1.000000 1.000000
vt 0.000000 1.000000
vt 0.500000 0.500000
vt 0.000000 0.000000
vt 1.000000 0.000000
vt 0.500000 0.500000
vt 1.000000 1.000000
vt 0.000000 1.000000
vt 0.000000 0.000000
vt 1.000000 0.000000
vt 1.000000 1.000000
vt 0.000000 1.000000
vt 0.500000 0.500000
vt 0.000000 0.000000
vt 1.000000 0.000000
vt 0.500000 0.500000
vt 1.000000 1.000000
vt 0.000000 1.000000
vt 0.000000 0.000000
vt 1.000000 0.000000
vt 1.000000 1.000000
vt 0.000000 1.000000
vt 0.500000 0.500000
vt 0.000000 0.000000
vt 1.000000 0.000000
vt 0.500000 0.500000
vt 1.000000 1.000000
vt 0.000000 1.000000
vt 0.000000 0.000000
vt 1.000000 0.000000
vt 1.000000 1.000000
vt 0.000000 1.000000
vt 0.500000 0.500000
vt 0.000000 0.000000
vt 1.000000 0.000000
vt 0.500000 0.500000
vt 1.000000 1.000000
vt 0.000000 1.000000
vt 0.000000 0.000000
vt 1.000000 0.000000
vt 1.000000 1.000000
vt 0.000000 1.000000
vt 0.500000 0.500000
vt 0.000000 0.000000
vt 1.000000 0.000000
vt 0.500000 0.500000
vt 1.000000 1.000000
vt 0.000000 1.000000
vt 0.000000 0.000000
vt 1.000000 0.000000
vt 1.000000 1.000000
vt 0.000000 1.000000
vt 0.500000 0.500000
vt 0.000000 0.000000
vt 1.000000 0.000000
vt 0.500000 0.500000
vt 1.000000 1.000000
vt 0.000000 1.000000
vt 0.000000 0.000000
vt 1.000000 0.000000
vt 1.000000 1.000000
vt 0.000000 1.000000
vt 0.500000 0.500000
vt 0.000000 0.000000
vt 1.000000 0.000000
vt 0.500000 0.500000
vt 1.000000 1.000000
vt 0.000000 1.000000
vt 0.000000 0.000000
vt 1.000000 0.000000
vt 1.000000 1.000000
vt 0.000000 1.000000
vt 0.500000 0.500000
vt 0.000000 0.000000
vt 1.000000 0.000000
vt 0.500000 0.500000
vt 1.000000 1.000000
vt 0.000000 1.000000
vt 0.000000 0.000000
vt 1.000000 0.000000
vt 1.000000 1.000000
vt 0.000000 1.000000
vt 0.500000 0.500000
vt 0.000000 0.000000
vt 1.000000 0.000000
vt 0.500000 0.500000
vt 1.000000 1.000000
vt 0.000000 1.000000
vt 0.000000 0.000000
vt 1.000000 0.000000
vt 1.000000 1.000000
vt 0.000000 1.000000
vt 0.500000 0.500000
vt 0.000000 0.000000
vt 1.000000 0.000000
vt 0.500000 0.500000
vt 1.000000 1.000000
vt 0.000000 1.000000
vt 0.000000 0.000000
vt 1.000000 0.000000
vt 1.000000 1.000000
vt 0.000000 1.000000
vt 0.500000 0.500000
vt 0.000000 0.000000
vt 1.000000 0.000000
vt 0.500000 0.500000
vt 1.000000 1.000000
vt 0.000000 1.000000
vt 0.000000 0.000000
vt 1.000000 0.000000
vt 1.000000 1.000000
vt 0.000000 1.000000
vt 0.500000 0.500000
vt 0.000000 0.000000
vt 1.000000 0.000000
vt 0.500000 0.500000
vt 1.000000 1.000000
vt 0.000000 1.000000
vt 0.000000 0.000000
vt 1.000000 0.000000
vt 1.000000 1.000000
vt 0.000000 1.000000
vt 0.500000 0.500000
vt 0.000000 0.000000
vt 1.000000 0.000000
vt 0.500000 0.500000
vt 1.000000 1.000000
vt 0.000000 1.000000
vt 0.000000 0.000000
vt 1.000000 0.000000
vt 1.000000 1.000000
vt 0.000000 1.000000
vt 0.500000 0.500000
vt 0.000000 0.000000
vt 1.000000 0.000000
vt 0.500000 0.500000
vt 1.000000 1.000000
vt 0.000000 1.000000
vt 0.000000 0.000000
vt 1.000000 0.000000
vt 1.000000 1.000000
vt 0.000000 1.000000
vt 0.500000 0.500000
vt 0.000000 0.000000
vt 1.000000 0.000000
vt 0.500000 0.500000
vt 1.000000 1.000000
vt 0.000000 1.000000
vt 0.000000 0.000000
vt 1.000000 0.000000
vt 1.000000 1.000000
vt 0.000000 1.000000
vt 0.500000 0.500000
vt 0.000000 0.000000
vt 1.000000 0.000000
vt 0.500000 0.500000
vt 1.000000 1.000000
vt 0.000000 1.000000
vt 0.000000 0.000000
vt 1.000000 0.000000
vt 1.000000 1.000000
vt 0.000000 1.000000
vt 0.500000 0.500000
vt 0.000000 0.000000
vt 1.000000 0.000000
vt 0.500000 0.500000
vt 1.000000 1.000000
vt 0.000000 1.000000
vt 0.000000 0.000000
vt 1.000000 0.000000
vt 1.000000 1.000000
vt 0.000000 1.000000
vt 0.500000 0.500000
vt 0.000000 0.000000
vt 1.000000 0.000000
vt 0.500000 0.500000
vt 1.000000 1.000000
vt 0.000000 1.000000
vt 0.000000 0.000000
vt 1.000000 0.000000
vt 1.000000 1.000000
vt 0.000000 1.000000
vt 0.500000 0.500000
vt 0.000000 0.000000
vt 1.000000 0.000000
vt 0.500000 0.500000
vt 1.000000 1.000000
vt 0.000000 1.000000
vt 0.000000 0.000000
vt 1.000000 0.000000
vt 1.000000 1.000000
vt 0.000000 1.000000
vt 0.500000 0.500000
vt 0.000000 0.000000
vt 1.000000 0.000000
vt 0.500000 0.500000
vt 1.000000 1.000000
vt 0.000000 1.000000
vt 0.000000 0.000000
vt 1.000000 0.000000
vt 1.000000 1.000000
vt 0.000000 1.000000
vt 0.500000 0.500000
vt 0.000000 0.000000
vt 1.000000 0.000000
vt 0.500000 0.500000
vt 1.000000 1.000000
vt 0.000000 1.000000
vt 0.000000 0.000000
vt 1.000000 0.000000
vt 1.000000 1.000000
vt 0.000000 1.000000
vt 0.500000 0.500000
vt 0.000000 0.000000
vt 1.000000 0.000000
vt 0.500000 0.500000
vt 1.000000 1.000000
vt 0.000000 1.000000
vt 0.000000 0.000000
vt 1.000000 0.000000
vt 1.000000 1.000000
vt 0.000000 1.000000
vt 0.500000 0.500000
vt 0.000000 0.000000
vt 1.000000 0.000000
vt 0.500000 0.500000
vt 1.000000 1.000000
vt 0.000000 1.000000
vt 0.000000 0.000000
vt 1.000000 0.000000
vt 1.000000 1.000000
vt 0.000000 1.000000
vt 0.500000 0.500000
vt 0.000000 0.000000
vt 1.000000 0.000000
vt 0.500000 0.500000
vt 1.000000 1.000000
vt 0.000000 1.000000
vt 0.000000 0.000000
vt 1.000000 0.000000
vt 1.000000 1.000000
vt 0.000000 1.000000
vt 0.500000 0.500000
vt 0.000000 0.000000
vt 1.000000 0.000000
vt 0.500000 0.500000
vt 1.000000 1.000000
vt 0.000000 1.000000
vt 0.000000 0.000000
vt 1.000000 0.000000
vt 1.000000 1.000000
vt 0.000000 1.000000
vt 0.500000 0.500000
vt 0.000000 0.000000
vt 1.000000 0.000000
vt 0.500000 0.500000
vt 1.000000 1.000000
vt 0.000000 1.000000
vt 0.000000 0.000000
vt 1.000000 0.000000
vt 1.000000 1.000000
vt 0.000000 1.000000
vt 0.500000 0.500000
vt 0.000000 0.000000
vt 1.000000 0.000000
vt 0.500000 0.500000
vt 1.000000 1.000000
vt 0.000000 1.000000
vt 0.000000 0.000000
vt 1.000000 0.000000
vt 1.000000 1.000000
vt 0.000000 1.000000
vt 0.500000 0.500000
vt 0.000000 0.000000
vt 1.000000 0.000000
vt 0.500000 0.500000
vt 1.000000 1.000000
vt 0.000000 1.000000
vt 0.000000 0.000000
vt 1.000000 0.000000
vt 1.000000 1.000000
vt 0.000000 1.000000
vt 0.500000 0.500000
vt 0.000000 0.000000
vt 1.000000 0.000000
vt 0.500000 0.500000
vt 1.000000 1.000000
vt 0.000000 1.000000
vt 0.000000 0.000000
vt 1.000000 0.000000
vt 1.000000 1.000000
vt 0.000000 1.000000
vt 0.500000 0.500000
vt 0.000000 0.000000
vt 1.000000 0.000000
vt 0.500000 0.500000
vt 1.000000 1.000000
vt 0.000000 1.000000
vt 0.000000 0.000000
vt 1.000000 0.000000
vt 1.000000 1.000000
vt 0.000000 1.000000
vt 0.500000 0.500000
vt 0.000000 0.000000
vt 1.000000 0.000000
vt 0.500000 0.500000
vt 1.000000 1.000000
vt 0.000000 1.000000
vt 0.000000 0.000000
vt 1.000000 0.000000
vt 1.000000 1.000000
vt 0.000000 1.000000
vt 0.500000 0.500000
vt 0.000000 0.000000
vt 1.000000 0.000000
vt 0.500000 0.500000
vt 1.000000 1.000000
vt 0.000000 1.000000
vt 0.000000 0.000000
vt 1.000000 0.000000
vt 1.000000 1.000000
vt 0.000000 1.000000
vt 0.500000 0.500000
vt 0.000000 0.000000
vt 1.000000 0.000000
vt 0.500000 0.500000
vt 1.000000 1.000000
vt 0.000000 1.000000
vt 0.000000 0.000000
vt 1.000000 0.000000
vt 1.000000 1.000000
vt 0.000000 1.000000
vt 0.500000 0.500000
vt 0.000000 0.000000
vt 1.000000 0.000000
vt 0.500000 0.500000
vt 1.000000 1.000000
vt 0.000000 1.000000
vt 0.000000 0.000000
vt 1.000000 0.000000
vt 1.000000 1.000000
vt 0.000000 1.000000
vt 0.500000 0.500000
vt 0.000000 0.000000
vt 1.000000 0.000000
vt 0.500000 0.500000
vt 1.000000 1.000000
vt 0.000000 1.000000
vt 0.000000 0.000000
vt 1.000000 0.000000
vt 1.000000 1.000000
vt 0.000000 1.000000
vt 0.500000 0.500000
vt 0.000000 0.000000
vt 1.000000 0.000000
vt 0.500000 0.500000
vt 1.000000 1.000000
vt 0.000000 1.000000
vt 0.000000 0.000000
vt 1.000000 0.000000
vt 1.000000 1.000000
vt 0.000000 1.000000
vt 0.500000 0.500000
vt 0.000000 0.000000
vt 1.000000 0.000000
vt 0.500000 0.500000
vt 1.000000 1.000000
vt 0.000000 1.000000
vt 0.000000 0.000000
vt 1.000000 0.000000
vt 1.000000 1.000000
vt 0.000000 1.000000
vt 0.500000 0.500000
vt 0.000000 0.000000
vt 1.000000 0.000000
vt 0.500000 0.500000
vt 1.000000 1.000000
vt 0.000000 1.000000
vt 0.000000 0.000000
vt 1.000000 0.000000
vt 1.000000 1.000000
vt 0.000000 1.000000
vt 0.500000 0.500000
vt 0.000000 0.000000
vt 1.000000 0.000000
vt 0.500000 0.500000
vt 1.000000 1.000000
vt 0.000000 1.000000
vt 0.000000 0.000000
vt 1.000000 0.000000
vt 1.000000 1.000000
vt 0.000000 1.000000
vt 0.500000 0.500000
vt 0.000000 0.000000
vt 1.000000 0.000000
vt 0.500000 0.500000
vt 1.000000 1.000000
vt 0.000000 1.000000
vt 0.000000 0.000000
vt 1.000000 0.000000
vt 1.000000 1.000000
vt 0.000000 1.000000
vt 0.500000 0.500000
vt 0.000000 0.000000
vt 1.000000 0.000000
vt 0.500000 0.500000
vt 1.000000 1.000000
vt 0.000000 1.000000
vt 0.000000 0.000000
vt 1.000000 0.000000
vt 1.000000 1.000000
vt 0.000000 1.000000
vt 0.500000 0.500000
vt 0.000000 0.000000
vt 1.000000 0.000000
vt 0.500000 0.500000
vt 1.000000 1.000000
vt 0.000000 1.000000
vt 0.000000 0.000000
vt 1.000000 0.000000
vt 1.000000 1.000000
vt 0.000000 1.000000
vt 0.500000 0.500000
vt 0.000000 0.000000
vt 1.000000 0.000000
vt 0.500000 0.500000
vt 1.000000 1.000000
vt 0.000000 1.000000
vt 0.000000 0.000000
vt 1.000000 0.000000
vt 1.000000 1.000000
vt 0.000000 1.000000
vt 0.500000 0.500000
vt 0.000000 0.000000
vt 1.000000 0.000000
vt 0.500000 0.500000
vt 1.000000 1.000000
vt 0.000000 1.000000
vt 0.000000 0.000000
vt 1.000000 0.000000
vt 1.000000 1.000000
vt 0.000000 1.000000
vt 0.500000 0.500000
vt 0.000000 0.000000
vt 1.000000 0.000000
vt 0.500000 0.500000
vt 1.000000 1.000000
vt 0.000000 1.000000
vt 0.000000 0.000000
vt 1.000000 0.000000
vt 1.000000 1.000000
vt 0.000000 1.000000
vt 0.500000 0.500000
vt 0.000000 0.000000
vt 1.000000 0.000000
vt 0.500000 0.500000
vt 1.000000 1.000000
vt 0.000000 1.000000
vt 0.000000 0.000000
vt 1.000000 0.000000
vt 1.000000 1.000000
vt 0.000000 1.000000
vt 0.500000 0.500000
vt 0.000000 0.000000
vt 1.000000 0.000000
vt 0.500000 0.500000
vt 1.000000 1.000000
vt 0.000000 1.000000
vt 0.000000 0.000000
vt 1.000000 0.000000
vt 1.000000 1.000000
vt 0.000000 1.000000
vt 0.500000 0.500000
vt 0.000000 0.000000
vt 1.000000 0.000000
vt 0.500000 0.500000
vt 1.000000 1.000000
vt 0.000000 1.000000
vt 0.000000 0.000000
vt 1.000000 0.000000
vt 1.000000 1.000000
vt 0.000000 1.000000
vt 0.500000 0.500000
vt 0.000000 0.000000
vt 1.000000 0.000000
vt 0.500000 0.500000
vt 1.000000 1.000000
vt 0.000000 1.000000
vt 0.000000 0.000000
vt 1.000000 0.000000
vt 1.000000 1.000000
vt 0.000000 1.000000
vt 0.500000 0.500000
vt 0.000000 0.000000
vt 1.000000 0.000000
vt 0.500000 0.500000
vt 1.000000 1.000000
vt 0.000000 1.000000
vt 0.000000 0.000000
vt 1.000000 0.000000
vt 1.000000 1.000000
vt 0.000000 1.000000
vt 0.500000 0.500000
vt 0.000000 0.000000
vt 1.000000 0.000000
vt 0.500000 0.500000
vt 1.000000 1.000000
vt 0.000000 1.000000
vt 0.000000 0.000000
vt 1.000000 0.000000
vt 1.000000 1.000000
vt 0.000000 1.000000
vt 0.500000 0.500000
vt 0.000000 0.000000
vt 1.000000 0.000000
vt 0.500000 0.500000
vt 1.000000 1.000000
vt 0.000000 1.000000
vt 0.000000 0.000000
vt 1.000000 0.000000
vt 1.000000 1.000000
vt 0.000000 1.000000
vt 0.500000 0.500000
vt 0.000000 0.000000
vt 1.000000 0.000000
vt 0.500000 0.500000
vt 1.000000 1.000000
vt 0.000000 1.000000
vt 0.000000 0.000000
vt 1.000000 0.000000
vt 1.000000 1.000000
vt 0.000000 1.000000
vt 0.500000 0.500000
vt 0.000000 0.000000
vt 1.000000 0.000000
vt 0.500000 0.500000
vt 1.000000 1.000000
vt 0.000000 1.000000
vt 0.000000 0.000000
vt 1.000000 0.000000
vt 1.000000 1.000000
vt 0.000000 1.000000
vt 0.500000 0.500000
vt 0.000000 0.000000
vt 1.000000 0.000000
vt 0.500000 0.500000
vt 1.000000 1.000000
vt 0.000000 1.000000
vt 0.000000 0.000000
vt 1.000000 0.000000
vt 1.000000 1.000000
vt 0.000000 1.000000
vt 0.500000 0.500000
vt 0.000000 0.000000
vt 1.000000 0.000000
vt 0.500000 0.500000
vt 1.000000 1.000000
vt 0.000000 1.000000
vt 0.000000 0.000000
vt 1.000000 0.000000
vt 1.000000 1.000000
vt 0.000000 1.000000
vt 0.500000 0.500000
vt 0.000000 0.000000
vt 1.000000 0.000000
vt 0.500000 0.500000
vt 1.000000 1.000000
vt 0.000000 1.000000
vt 0.000000 0.000000
vt 1.000000 0.000000
vt 1.000000 1.000000
vt 0.000000 1.000000
vt 0.500000 0.500000
vt 0.000000 0.000000
vt 1.000000 0.000000
vt 0.500000 0.500000
vt 1.000000 1.000000
vt 0.000000 1.000000
vt 0.000000 0.000000
vt 1.000000 0.000000
vt 1.000000 1.000000
vt 0.000000 1.000000
vt 0.500000 0.500000
vt 0.000000 0.000000
vt 1.000000 0.000000
vt 0.500000 0.500000
vt 1.000000 1.000000
vt 0.000000 1.000000
vt 0.000000 0.000000
vt 1.000000 0.000000
vt 1.000000 1.000000
vt 0.000000 1.000000
vt 0.500000 0.500000
vt 0.000000 0.000000
vt 1.000000 0.000000
vt 0.500000 0.500000
vt 1.000000 1.000000
vt 0.000000 1.000000
vt 0.000000 0.000000
vt 1.000000 0.000000
vt 1.000000 1.000000
vt 0.000000 1.000000
vt 0.500000 0.500000
vt 0.000000 0.000000
vt 1.000000 0.000000
vt 0.500000 0.500000
vt 1.000000 1.000000
vt 0.000000 1.000000
vt 0.000000 0.000000
vt 1.000000 0.000000
vt 1.000000 1.000000
vt 0.000000 1.000000
vt 0.500000 0.500000
vt 0.000000 0.000000
vt 1.000000 0.000000
vt 0.500000 0.500000
vt 1.000000 1.000000
vt 0.000000 1.000000
vt 0.000000 0.000000
vt 1.000000 0.000000
vt 1.000000 1.000000
vt 0.000000 1.000000
vt 0.500000 0.500000
vt 0.000000 0.000000
vt 1.000000 0.000000
vt 0.500000 0.500000
vt 1.000000 1.000000
vt 0.000000 1.000000
vt 0.000000 0.000000
vt 1.000000 0.000000
vt 1.000000 1.000000
vt 0.000000 1.000000
vt 0.500000 0.500000
vt 0.000000 0.000000
vt 1.000000 0.000000
vt 0.500000 0.500000
vt 1.000000 1.000000
vt 0.000000 1.000000
vt 0.000000 0.000000
vt 1.000000 0.000000
vt 1.000000 1.000000
vt 0.000000 1.000000
vt 0.500000 0.500000
vt 0.000000 0.000000
vt 1.000000 0.000000
vt 0.500000 0.500000
vt 1.000000 1.000000
vt 0.000000 1.000000
vt 0.000000 0.000000
vt 1.000000 0.000000
vt 1.000000 1.000000
vt 0.000000 1.000000
vt 0.500000 0.500000
vt 0.000000 0.000000
vt 1.000000 0.000000
vt 0.500000 0.500000
vt 1.000000 1.000000
vt 0.000000 1.000000
vt 0.000000 0.000000
vt 1.000000 0.000000
vt 1.000000 1.000000
vt 0.000000 1.000000
vt 0.500000 0.500000
vt 0.000000 0.000000
vt 1.000000 0.000000
vt 0.500000 0.500000
vt 1.000000 1.000000
vt 0.000000 1.000000
vt 0.000000 0.000000
vt 1.000000 0.000000
vt 1.000000 1.000000
vt 0.000000 1.000000
vt 0.500000 0.500000
vt 0.000000 0.000000
vt 1.000000 0.000000
vt 0.500000 0.500000
vt 1.000000 1.000000
vt 0.000000 1.000000
vt 0.000000 0.000000
vt 1.000000 0.000000
vt 1.000000 1.000000
vt 0.000000 1.000000
vt 0.500000 0.500000
vt 0.000000 0.000000
vt 1.000000 0.000000
vt 0.500000 0.500000
vt 1.000000 1.000000
vt 0.000000 1.000000
vt 0.000000 0.000000
vt 1.000000 0.000000
vt 1.000000 1.000000
vt 0.000000 1.000000
vt 0.500000 0.500000
vt 0.000000 0.000000
vt 1.000000 0.000000
vt 0.500000 0.500000
vt 1.000000 1.000000
vt 0.000000 1.000000
vt 0.000000 0.000000
vt 1.000000 0.000000
vt 1.000000 1.000000
vt 0.000000 1.000000
vt 0.500000 0.500000
vt 0.000000 0.000000
vt 1.000000 0.000000
vt 0.500000 0.500000
vt 1.000000 1.000000
vt 0.000000 1.000000
vt 0.000000 0.000000
vt 1.000000 0.000000
vt 1.000000 1.000000
vt 0.000000 1.000000
vt 0.500000 0.500000
vt 0.000000 0.000000
vt 1.000000 0.000000
vt 0.500000 0.500000
vt 1.000000 1.000000
vt 0.000000 1.000000
vt 0.000000 0.000000
vt 1.000000 0.000000
vt 1.000000 1.000000
vt 0.000000 1.000000
vt 0.500000 0.500000
vt 0.000000 0.000000
vt 1.000000 0.000000
vt 0.500000 0.500000
vt 1.000000 1.000000
vt 0.000000 1.000000
vt 0.000000 0.000000
vt 1.000000 0.000000
vt 1.000000 1.000000
vt 0.000000 1.000000
vt 0.500000 0.500000
vt 0.000000 0.000000
vt 1.000000 0.000000
vt 0.500000 0.500000
vt 1.000000 1.000000
vt 0.000000 1.000000
vt 0.000000 0.000000
vt 1.000000 0.000000
vt 1.000000 1.000000
vt 0.000000 1.000000
vt 0.500000 0.500000
vt 0.000000 0.000000
vt 1.000000 0.000000
vt 0.500000 0.500000
vt 1.000000 1.000000
vt 0.000000 1.000000
vt 0.000000 0.000000
vt 1.000000 0.000000
vt 1.000000 1.000000
vt 0.000000 1.000000
vt 0.500000 0.500000
vt 0.000000 0.000000
vt 1.000000 0.000000
vn 0.000000 1.000000 0.000000
vn 0.000000 1.000000 0.000000
vn 0.000000 1.000000 0.000000
vn 0.995185 0.000000 0.098017
vn 0.995185 0.000000 0.098017
vn 0.995185 0.000000 0.098017
vn 0.995185 0.000000 0.098017
vn 0.000000 -1.000000 0.000000
vn 0.000000 -1.000000 0.000000
vn 0.000000 -1.000000 0.000000
vn 0.000000 1.000000 0.000000
vn 0.000000 1.000000 0.000000
vn 0.000000 1.000000 0.000000
vn 0.956940 0.000000 0.290285
vn 0.956940 0.000000 0.290285
vn 0.956940 0.000000 0.290285
vn 0.956940 0.000000 0.290285
vn 0.000000 -1.000000 0.000000
vn 0.000000 -1.000000 0.000000
vn 0.000000 -1.000000 0.000000
vn 0.000000 1.000000 0.000000
vn 0.000000 1.000000 0.000000
vn 0.000000 1.000000 0.000000
vn 0.881921 0.000000 0.471397
vn 0.881921 0.000000 0.471397
vn 0.881921 0.000000 0.471397
vn 0.881921 0.000000 0.471397
vn 0.000000 -1.000000 0.000000
vn 0.000000 -1.000000 0.000000
vn 0.000000 -1.000000 0.000000
vn 0.000000 1.000000 0.000000
vn 0.000000 1.000000 0.000000
vn 0.000000 1.000000 0.000000
vn 0.773010 0.000000 0.634393
vn 0.773010 0.000000 0.634393
vn 0.773010 0.000000 0.634393
vn 0.773010 0.000000 0.634393
vn 0.000000 -1.000000 0.000000
vn 0.000000 -1.000000 0.000000
vn 0.000000 -1.000000 0.000000
vn 0.000000 1.000000 0.000000
vn 0.000000 1.000000 0.000000
vn 0.000000 1.000000 0.000000
vn 0.634393 0.000000 0.773010
vn 0.634393 0.000000 0.773010
vn 0.634393 0.000000 0.773010
vn 0.634393 0.000000 0.773010
vn 0.000000 -1.000000 0.000000
vn 0.000000 -1.000000 0.000000
vn 0.000000 -1.000000 0.000000
vn 0.000000 1.000000 0.000000
vn 0.000000 1.000000 0.000000
vn 0.000000 1.000000 0.000000
vn 0.471397 0.000000 0.881921
vn 0.471397 0.000000 0.881921
vn 0.471397 0.000000 0.881921
vn 0.471397 0.000000 0.881921
vn 0.000000 -1.000000 0.000000
vn 0.000000 -1.000000 0.000000
vn 0.000000 -1.000000 0.000000
vn 0.000000 1.000000 0.000000
vn 0.000000 1.000000 0.000000
vn 0.000000 1.000000 0.000000
vn 0.290285 0.000000 0.956940
vn 0.290285 0.000000 0.956940
vn 0.290285 0.000000 0.956940
vn 0.290285 0.000000 0.956940
vn 0.000000 -1.000000 0.000000
vn 0.000000 -1.000000 0.000000
vn 0.000000 -1.000000 0.000000
vn 0.000000 1.000000 0.000000
vn 0.000000 1.000000 0.000000
vn 0.000000 1.000000 0.000000
vn 0.098017 0.000000 0.995185
vn 0.098017 0.000000 0.995185
vn 0.098017 0.000000 0.995185
vn 0.098017 0.000000 0.995185
vn 0.000000 -1.000000 0.000000
vn 0.000000 -1.000000 0.000000
vn 0.000000 -1.000000 0.000000
vn 0.000000 1.000000 -0.000000
vn 0.000000 1.000000 -0.000000
vn 0.000000 1.000000 -0.000000
vn -0.098017 0.000000 0.995185
vn -0.098017 0.000000 0.995185
vn -0.098017 0.000000 0.995185
vn -0.098017 0.000000 0.995185
vn 0.000000 -1.000000 0.000000
vn 0.000000 -1.000000 0.000000
vn 0.000000 -1.000000 0.000000
vn 0.000000 1.000000 0.000000
vn 0.000000 1.000000 0.000000
vn 0.000000 1.000000 0.000000
vn -0.290285 0.000000 0.956940
vn -0.290285 0.000000 0.956940
vn -0.290285 0.000000 0.956940
vn -0.290285 0.000000 0.956940
vn 0.000000 -1.000000 0.000000
vn 0.000000 -1.000000 0.000000
vn 0.000000 -1.000000 0.000000
vn 0.000000 1.000000 0.000000
vn 0.000000 1.000000 0.000000
vn 0.000000 1.000000 0.000000
vn -0.471397 0.000000 0.881921
vn -0.471397 0.000000 0.881921
vn -0.471397 0.000000 0.881921
vn -0.471397 0.000000 0.881921
vn 0.000000 -1.000000 0.000000
vn 0.000000 -1.000000 0.000000
vn 0.000000 -1.000000 0.000000
vn 0.000000 1.000000 0.000000
vn 0.000000 1.000000 0.000000
vn 0.000000 1.000000 0.000000
vn -0.634393 0.000000 0.773010
vn -0.634393 0.000000 0.773010
vn -0.634393 0.000000 0.773010
vn -0.634393 0.000000 0.773010
vn 0.000000 -1.000000 0.000000
vn 0.000000 -1.000000 0.000000
vn 0.000000 -1.000000 0.000000
vn 0.000000 1.000000 0.000000
vn 0.000000 1.000000 0.000000
vn 0.000000 1.000000 0.000000
vn -0.773010 0.000000 0.634393
vn -0.773010 0.000000 0.634393
vn -0.773010 0.000000 0.634393
vn -0.773010 0.000000 0.634393
vn 0.000000 -1.000000 0.000000
vn 0.000000 -1.000000 0.000000
vn 0.000000 -1.000000 0.000000
vn 0.000000 1.000000 0.000000
vn 0.000000 1.000000 0.000000
vn 0.000000 1.000000 0.000000
vn -0.881921 0.000000 0.471397
vn -0.881921 0.000000 0.471397
vn -0.881921 0.000000 0.471397
vn -0.881921 0.000000 0.471397
vn 0.000000 -1.000000 0.000000
vn 0.000000 -1.000000 0.000000
vn 0.000000 -1.000000 0.000000
vn 0.000000 1.000000 0.000000
vn 0.000000 1.000000 0.000000
vn 0.000000 1.000000 0.000000
vn -0.956940 0.000000 0.290285
vn -0.956940 0.000000 0.290285
vn -0.956940 0.000000 0.290285
vn -0.956940 0.000000 0.290285
vn 0.000000 -1.000000 0.000000
vn 0.000000 -1.000000 0.000000
vn 0.000000 -1.000000 0.000000
vn 0.000000 1.000000 0.000000
vn 0.000000 1.000000 0.000000
vn 0.000000 1.000000 0.000000
vn -0.995185 0.000000 0.098017
vn -0.995185 0.000000 0.098017
vn -0.995185 0.000000 0.098017
vn -0.995185 0.000000 0.098017
vn 0.000000 -1.000000 0.000000
vn 0.000000 -1.000000 0.000000
vn 0.000000 -1.000000 0.000000
vn 0.000000 1.000000 0.000000
vn 0.000000 1.000000 0.000000
vn 0.000000 1.000000 0.000000
vn -0.995185 0.000000 -0.098017
vn -0.995185 0.000000 -0.098017
vn -0.995185 0.000000 -0.098017
vn -0.995185 0.000000 -0.098017
vn -0.000000 -1.000000 0.000000
vn -0.000000 -1.000000 0.000000
vn -0.000000 -1.000000 0.000000
vn 0.000000 1.000000 0.000000
vn 0.000000 1.000000 0.000000
vn 0.000000 1.000000 0.000000
vn -0.956940 0.000000 -0.290285
vn -0.956940 0.000000 -0.290285
vn -0.956940 0.000000 -0.290285
vn -0.956940 0.000000 -0.290285
vn 0.000000 -1.000000 0.000000
vn 0.000000 -1.000000 0.000000
vn 0.000000 -1.000000 0.000000
vn 0.000000 1.000000 0.000000
vn 0.000000 1.000000 0.000000
vn 0.000000 1.000000 0.000000
vn -0.881921 0.000000 -0.471397
vn -0.881921 0.000000 -0.471397
vn -0.881921 0.000000 -0.471397
vn -0.881921 0.000000 -0.471397
vn 0.000000 -1.000000 0.000000
vn 0.000000 -1.000000 0.000000
vn 0.000000 -1.000000 0.000000
vn 0.000000 1.000000 0.000000
vn 0.000000 1.000000 0.000000
vn 0.000000 1.000000 0.000000
vn -0.773010 0.000000 -0.634393
vn -0.773010 0.000000 -0.634393
vn -0.773010 0.000000 -0.634393
vn -0.773010 0.000000 -0.634393
vn 0.000000 -1.000000 0.000000
vn 0.000000 -1.000000 0.000000
vn 0.000000 -1.000000 0.000000
vn 0.000000 1.000000 0.000000
vn 0.000000 1.000000 0.000000
vn 0.000000 1.000000 0.000000
vn -0.634393 0.000000 -0.773010
vn -0.634393 0.000000 -0.773010
vn -0.634393 0.000000 -0.773010
vn -0.634393 0.000000 -0.773010
vn 0.000000 -1.000000 0.000000
vn 0.000000 -1.000000 0.000000
vn 0.000000 -1.000000 0.000000
vn 0.000000 1.000000 0.000000
vn 0.000000 1.000000 0.000000
vn 0.000000 1.000000 0.000000
vn -0.471397 0.000000 -0.881921
vn -0.471397 0.000000 -0.881921
vn -0.471397 0.000000 -0.881921
vn -0.471397 0.000000 -0.881921
vn 0.000000 -1.000000 0.000000
vn 0.000000 -1.000000 0.000000
vn 0.000000 -1.000000 0.000000
vn 0.000000 1.000000 0.000000
vn 0.000000 1.000000 0.000000
vn 0.000000 1.000000 0.000000
vn -0.290285 0.000000 -0.956940
vn -0.290285 0.000000 -0.956940
vn -0.290285 0.000000 -0.956940
vn -0.290285 0.000000 -0.956940
vn 0.000000 -1.000000 0.000000
vn 0.000000 -1.000000 0.000000
vn 0.000000 -1.000000 0.000000
vn 0.000000 1.000000 0.000000
vn 0.000000 1.000000 0.000000
vn 0.000000 1.000000 0.000000
vn -0.098017 0.000000 -0.995185
vn -0.098017 0.000000 -0.995185
vn -0.098017 0.000000 -0.995185
vn -0.098017 0.000000 -0.995185
vn 0.000000 -1.000000 0.000000
vn 0.000000 -1.000000 0.000000
vn 0.000000 -1.000000 0.000000
vn 0.000000 1.000000 0.000000
vn 0.000000 1.000000 0.000000
vn 0.000000 1.000000 0.000000
vn 0.098017 0.000000 -0.995185
vn 0.098017 0.000000 -0.995185
vn 0.098017 0.000000 -0.995185
vn 0.098017 0.000000 -0.995185
vn 0.000000 -1.000000 -0.000000
vn 0.000000 -1.000000 -0.000000
vn 0.000000 -1.000000 -0.000000
vn 0.000000 1.000000 0.000000
vn 0.000000 1.000000 0.000000
vn 0.000000 1.000000 0.000000
vn 0.290285 0.000000 -0.956940
vn 0.290285 0.000000 -0.956940
vn 0.290285 0.000000 -0.956940
vn 0.290285 0.000000 -0.956940
vn 0.000000 -1.000000 0.000000
vn 0.000000 -1.000000 0.000000
vn 0.000000 -1.000000 0.000000
vn 0.000000 1.000000 0.000000
vn 0.000000 1.000000 0.000000
vn 0.000000 1.000000 0.000000
vn 0.471397 0.000000 -0.881921
vn 0.471397 0.000000 -0.881921
vn 0.471397 0.000000 -0.881921
vn 0.471397 0.000000 -0.881921
vn 0.000000 -1.000000 0.000000
vn 0.000000 -1.000000 0.000000
vn 0.000000 -1.000000 0.000000
vn 0.000000 1.000000 0.000000
vn 0.000000 1.000000 0.000000
vn 0.000000 1.000000 0.000000
vn 0.634393 0.000000 -0.773010
vn 0.634393 0.000000 -0.773010
vn 0.634393 0.000000 -0.773010
vn 0.634393 0.000000 -0.773010
vn 0.000000 -1.000000 0.000000
vn 0.000000 -1.000000 0.000000
vn 0.000000 -1.000000 0.000000
vn 0.000000 1.000000 0.000000
vn 0.000000 1.000000 0.000000
vn 0.000000 1.000000 0.000000
vn 0.773010 0.000000 -0.634393
vn 0.773010 0.000000 -0.634393
vn 0.773010 0.000000 -0.634393
vn 0.773010 0.000000 -0.634393
vn 0.000000 -1.000000 0.000000
vn 0.000000 -1.000000 0.000000
vn 0.000000 -1.000000 0.000000
vn 0.000000 1.000000 0.000000
vn 0.000000 1.000000 0.000000
vn 0.000000 1.000000 0.000000
vn 0.881921 0.000000 -0.471397
vn 0.881921 0.000000 -0.471397
vn 0.881921 0.000000 -0.471397
vn 0.881921 0.000000 -0.471397
vn 0.000000 -1.000000 0.000000
vn 0.000000 -1.000000 0.000000
vn 0.000000 -1.000000 0.000000
vn 0.000000 1.000000 0.000000
vn 0.000000 1.000000 0.000000
vn 0.000000 1.000000 0.000000
vn 0.956940 0.000000 -0.290285
vn 0.956940 0.000000 -0.290285
vn 0.956940 0.000000 -0.290285
vn 0.956940 0.000000 -0.290285
vn 0.000000 -1.000000 0.000000
vn 0.000000 -1.000000 0.000000
vn 0.000000 -1.000000 0.000000
vn 0.000000 1.000000 0.000000
vn 0.000000 1.000000 0.000000
vn 0.000000 1.000000 0.000000
vn 0.995185 0.000000 -0.098017
vn 0.995185 0.000000 -0.098017
vn 0.995185 0.000000 -0.098017
vn 0.995185 0.000000 -0.098017
vn 0.000000 -1.000000 0.000000
vn 0.000000 -1.000000 0.000000
vn 0.000000 -1.000000 0.000000
vn 0.000000 1.000000 0.000000
vn 0.000000 1.000000 0.000000
vn 0.000000 1.000000 0.000000
vn 0.995185 0.000000 0.098017
vn 0.995185 0.000000 0.098017
vn 0.995185 0.000000 0.098017
vn 0.995185 0.000000 0.098017
vn 0.000000 -1.000000 0.000000
vn 0.000000 -1.000000 0.000000
vn 0.000000 -1.000000 0.000000
vn 0.000000 1.000000 0.000000
vn 0.000000 1.000000 0.000000
vn 0.000000 1.000000 0.000000
vn 0.956940 0.000000 0.290285
vn 0.956940 0.000000 0.290285
vn 0.956940 0.000000 0.290285
vn 0.956940 0.000000 0.290285
vn 0.000000 -1.000000 0.000000
vn 0.000000 -1.000000 0.000000
vn 0.000000 -1.000000 0.000000
vn 0.000000 1.000000 0.000000
vn 0.000000 1.000000 0.000000
vn 0.000000 1.000000 0.000000
vn 0.881921 0.000000 0.471397
vn 0.881921 0.000000 0.471397
vn 0.881921 0.000000 0.471397
vn 0.881921 0.000000 0.471397
vn 0.000000 -1.000000 0.000000
vn 0.000000 -1.000000 0.000000
vn 0.000000 -1.000000 0.000000
vn 0.000000 1.000000 0.000000
vn 0.000000 1.000000 0.000000
vn 0.000000 1.000000 0.000000
vn 0.773010 0.000000 0.634393
vn 0.773010 0.000000 0.634393
vn 0.773010 0.000000 0.634393
vn 0.773010 0.000000 0.634393
vn 0.000000 -1.000000 0.000000
vn 0.000000 -1.000000 0.000000
vn 0.000000 -1.000000 0.000000
vn 0.000000 1.000000 0.000000
vn 0.000000 1.000000 0.000000
vn 0.000000 1.000000 0.000000
vn 0.634393 0.000000 0.773010
vn 0.634393 0.000000 0.773010
vn 0.634393 0.000000 0.773010
vn 0.634393 0.000000 0.773010
vn 0.000000 -1.000000 0.000000
vn 0.000000 -1.000000 0.000000
vn 0.000000 -1.000000 0.000000
vn 0.000000 1.000000 0.000000
vn 0.000000 1.000000 0.000000
vn 0.000000 1.000000 0.000000
vn 0.471397 0.000000 0.881921
vn 0.471397 0.000000 0.881921
vn 0.471397 0.000000 0.881921
vn 0.471397 0.000000 0.881921
vn 0.000000 -1.000000 0.000000
vn 0.000000 -1.000000 0.000000
vn 0.000000 -1.000000 0.000000
vn 0.000000 1.000000 0.000000
vn 0.000000 1.000000 0.000000
vn 0.000000 1.000000 0.000000
vn 0.290285 0.000000 0.956940
vn 0.290285 0.000000 0.956940
vn 0.290285 0.000000 0.956940
vn 0.290285 0.000000 0.956940
vn 0.000000 -1.000000 0.000000
vn 0.000000 -1.000000 0.000000
vn 0.000000 -1.000000 0.000000
vn 0.000000 1.000000 0.000000
vn 0.000000 1.000000 0.000000
vn 0.000000 1.000000 0.000000
vn 0.098017 0.000000 0.995185
vn 0.098017 0.000000 0.995185
vn 0.098017 0.000000 0.995185
vn 0.098017 0.000000 0.995185
vn 0.000000 -1.000000 0.000000
vn 0.000000 -1.000000 0.000000
vn 0.000000 -1.000000 0.000000
vn 0.000000 1.000000 -0.000000
vn 0.000000 1.000000 -0.000000
vn 0.000000 1.000000 -0.000000
vn -0.098017 0.000000 0.995185
vn -0.098017 0.000000 0.995185
vn -0.098017 0.000000 0.995185
vn -0.098017 0.000000 0.995185
vn 0.000000 -1.000000 0.000000
vn 0.000000 -1.000000 0.000000
vn 0.000000 -1.000000 0.000000
vn 0.000000 1.000000 0.000000
vn 0.000000 1.000000 0.000000
vn 0.000000 1.000000 0.000000
vn -0.290285 0.000000 0.956940
vn -0.290285 0.000000 0.956940
vn -0.290285 0.000000 0.956940
vn -0.290285 0.000000 0.956940
vn 0.000000 -1.000000 0.000000
vn 0.000000 -1.000000 0.000000
vn 0.000000 -1.000000 0.000000
vn 0.000000 1.000000 0.000000
vn 0.000000 1.000000 0.000000
vn 0.000000 1.000000 0.000000
vn -0.471397 0.000000 0.881921
vn -0.471397 0.000000 0.881921
vn -0.471397 0.000000 0.881921
vn -0.471397 0.000000 0.881921
vn 0.000000 -1.000000 0.000000
vn 0.000000 -1.000000 0.000000
vn 0.000000 -1.000000 0.000000
vn 0.000000 1.000000 0.000000
vn 0.000000 1.000000 0.000000
vn 0.000000 1.000000 0.000000
vn -0.634393 0.000000 0.773010
vn -0.634393 0.000000 0.773010
vn -0.634393 0.000000 0.773010
vn -0.634393 0.000000 0.773010
vn 0.000000 -1.000000 0.000000
vn 0.000000 -1.000000 0.000000
vn 0.000000 -1.000000 0.000000
vn 0.000000 1.000000 0.000000
vn 0.000000 1.000000 0.000000
vn 0.000000 1.000000 0.000000
vn -0.773010 0.000000 0.634393
vn -0.773010 0.000000 0.634393
vn -0.773010 0.000000 0.634393
vn -0.773010 0.000000 0.634393
vn 0.000000 -1.000000 0.000000
vn 0.000000 -1.000000 0.000000
vn 0.000000 -1.000000 0.000000
vn 0.000000 1.000000 0.000000
vn 0.000000 1.000000 0.000000
vn 0.000000 1.000000 0.000000
vn -0.881921 0.000000 0.471397
vn -0.881921 0.000000 0.471397
vn -0.881921 0.000000 0.471397
vn -0.881921 0.000000 0.471397
vn 0.000000 -1.000000 0.000000
vn 0.000000 -1.000000 0.000000
vn 0.000000 -1.000000 0.000000
vn 0.000000 1.000000 0.000000
vn 0.000000 1.000000 0.000000
vn 0.000000 1.000000 0.000000
vn -0.956940 0.000000 0.290285
vn -0.956940 0.000000 0.290285
vn -0.956940 0.000000 0.290285
vn -0.956940 0.000000 0.290285
vn 0.000000 -1.000000 0.000000
vn 0.000000 -1.000000 0.000000
vn 0.000000 -1.000000 0.000000
vn 0.000000 1.000000 0.000000
vn 0.000000 1.000000 0.000000
vn 0.000000 1.000000 0.000000
vn -0.995185 0.000000 0.098017
vn -0.995185 0.000000 0.098017
vn -0.995185 0.000000 0.098017
vn -0.995185 0.000000 0.098017
vn 0.000000 -1.000000 0.000000
vn 0.000000 -1.000000 0.000000
vn 0.000000 -1.000000 0.000000
vn 0.000000 1.000000 0.000000
vn 0.000000 1.000000 0.000000
vn 0.000000 1.000000 0.000000
vn -0.995185 0.000000 -0.098017
vn -0.995185 0.000000 -0.098017
vn -0.995185 0.000000 -0.098017
vn -0.995185 0.000000 -0.098017
vn -0.000000 -1.000000 0.000000
vn -0.000000 -1.000000 0.000000
vn -0.000000 -1.000000 0.000000
vn 0.000000 1.000000 0.000000
vn 0.000000 1.000000 0.000000
vn 0.000000 1.000000 0.000000
vn -0.956940 0.000000 -0.290285
vn -0.956940 0.000000 -0.290285
vn -0.956940 0.000000 -0.290285
vn -0.956940 0.000000 -0.290285
vn 0.000000 -1.000000 0.000000
vn 0.000000 -1.000000 0.000000
vn 0.000000 -1.000000 0.000000
vn 0.000000 1.000000 0.000000
vn 0.000000 1.000000 0.000000
vn 0.000000 1.000000 0.000000
vn -0.881921 0.000000 -0.471397
vn -0.881921 0.000000 -0.471397
vn -0.881921 0.000000 -0.471397
vn -0.881921 0.000000 -0.471397
vn 0.000000 -1.000000 0.000000
vn 0.000000 -1.000000 0.000000
vn 0.000000 -1.000000 0.000000
vn 0.000000 1.000000 0.000000
vn 0.000000 1.000000 0.000000
vn 0.000000 1.000000 0.000000
vn -0.773010 0.000000 -0.634393
vn -0.773010 0.000000 -0.634393
vn -0.773010 0.000000 -0.634393
vn -0.773010 0.000000 -0.634393
vn 0.000000 -1.000000 0.000000
vn 0.000000 -1.000000 0.000000
vn 0.000000 -1.000000 0.000000
vn 0.000000 1.000000 0.000000
vn 0.000000 1.000000 0.000000
vn 0.000000 1.000000 0.000000
vn -0.634393 0.000000 -0.773010
vn -0.634393 0.000000 -0.773010
vn -0.634393 0.000000 -0.773010
vn -0.634393 0.000000 -0.773010
vn 0.000000 -1.000000 0.000000
vn 0.000000 -1.000000 0.000000
vn 0.000000 -1.000000 0.000000
vn 0.000000 1.000000 0.000000
vn 0.000000 1.000000 0.000000
vn 0.000000 1.000000 0.000000
vn -0.471397 0.000000 -0.881921
vn -0.471397 0.000000 -0.881921
vn -0.471397 0.000000 -0.881921
vn -0.471397 0.000000 -0.881921
vn 0.000000 -1.000000 0.000000
vn 0.000000 -1.000000 0.000000
vn 0.000000 -1.000000 0.000000
vn 0.000000 1.000000 0.000000
vn 0.000000 1.000000 0.000000
vn 0.000000 1.000000 0.000000
vn -0.290285 0.000000 -0.956940
vn -0.290285 0.000000 -0.956940
vn -0.290285 0.000000 -0.956940
vn -0.290285 0.000000 -0.956940
vn 0.000000 -1.000000 0.000000
vn 0.000000 -1.000000 0.000000
vn 0.000000 -1.000000 0.000000
vn 0.000000 1.000000 0.000000
vn 0.000000 1.000000 0.000000
vn 0.000000 1.000000 0.000000
vn -0.098017 0.000000 -0.995185
vn -0.098017 0.000000 -0.995185
vn -0.098017 0.000000 -0.995185
vn -0.098017 0.000000 -0.995185
vn 0.000000 -1.000000 0.000000
vn 0.000000 -1.000000 0.000000
vn 0.000000 -1.000000 0.000000
vn 0.000000 1.000000 0.000000
vn 0.000000 1.000000 0.000000
vn 0.000000 1.000000 0.000000
vn 0.098017 0.000000 -0.995185
vn 0.098017 0.000000 -0.995185
vn 0.098017 0.000000 -0.995185
vn 0.098017 0.000000 -0.995185
vn 0.000000 -1.000000 -0.000000
vn 0.000000 -1.000000 -0.000000
vn 0.000000 -1.000000 -0.000000
vn 0.000000 1.000000 0.000000
vn 0.000000 1.000000 0.000000
vn 0.000000 1.000000 0.000000
vn 0.290285 0.000000 -0.956940
vn 0.290285 0.000000 -0.956940
vn 0.290285 0.000000 -0.956940
vn 0.290285 0.000000 -0.956940
vn 0.000000 -1.000000 0.000000
vn 0.000000 -1.000000 0.000000
vn 0.000000 -1.000000 0.000000
vn 0.000000 1.000000 0.000000
vn 0.000000 1.000000 0.000000
vn 0.000000 1.000000 0.000000
vn 0.471397 0.000000 -0.881921
vn 0.471397 0.000000 -0.881921
vn 0.471397 0.000000 -0.881921
vn 0.471397 0.000000 -0.881921
vn 0.000000 -1.000000 0.000000
vn 0.000000 -1.000000 0.000000
vn 0.000000 -1.000000 0.000000
vn 0.000000 1.000000 0.000000
vn 0.000000 1.000000 0.000000
vn 0.000000 1.000000 0.000000
vn 0.634393 0.000000 -0.773010
vn 0.634393 0.000000 -0.773010
vn 0.634393 0.000000 -0.773010
vn 0.634393 0.000000 -0.773010
vn 0.000000 -1.000000 0.000000
vn 0.000000 -1.000000 0.000000
vn 0.000000 -1.000000 0.000000
vn 0.000000 1.000000 0.000000
vn 0.000000 1.000000 0.000000
vn 0.000000 1.000000 0.000000
vn 0.773010 0.000000 -0.634393
vn 0.773010 0.000000 -0.634393
vn 0.773010 0.000000 -0.634393
vn 0.773010 0.000000 -0.634393
vn 0.000000 -1.000000 0.000000
vn 0.000000 -1.000000 0.000000
vn 0.000000 -1.000000 0.000000
vn 0.000000 1.000000 0.000000
vn 0.000000 1.000000 0.000000
vn 0.000000 1.000000 0.000000
vn 0.881921 0.000000 -0.471397
vn 0.881921 0.000000 -0.471397
vn 0.881921 0.000000 -0.471397
vn 0.881921 0.000000 -0.471397
vn 0.000000 -1.000000 0.000000
vn 0.000000 -1.000000 0.000000
vn 0.000000 -1.000000 0.000000
vn 0.000000 1.000000 0.000000
vn 0.000000 1.000000 0.000000
vn 0.000000 1.000000 0.000000
vn 0.956940 0.000000 -0.290285
vn 0.956940 0.000000 -0.290285
vn 0.956940 0.000000 -0.290285
vn 0.956940 0.000000 -0.290285
vn 0.000000 -1.000000 0.000000
vn 0.000000 -1.000000 0.000000
vn 0.000000 -1.000000 0.000000
vn 0.000000 1.000000 0.000000
vn 0.000000 1.000000 0.000000
vn 0.000000 1.000000 0.000000
vn 0.995185 0.000000 -0.098017
vn 0.995185 0.000000 -0.098017
vn 0.995185 0.000000 -0.098017
vn 0.995185 0.000000 -0.098017
vn 0.000000 -1.000000 0.000000
vn 0.000000 -1.000000 0.000000
vn 0.000000 -1.000000 0.000000
vn 0.000000 1.000000 0.000000
vn 0.000000 1.000000 0.000000
vn 0.000000 1.000000 0.000000
vn 0.995185 0.000000 0.098017
vn 0.995185 0.000000 0.098017
vn 0.995185 0.000000 0.098017
vn 0.995185 0.000000 0.098017
vn 0.000000 -1.000000 0.000000
vn 0.000000 -1.000000 0.000000
vn 0.000000 -1.000000 0.000000
vn 0.000000 1.000000 0.000000
vn 0.000000 1.000000 0.000000
vn 0.000000 1.000000 0.000000
vn 0.956940 0.000000 0.290285
vn 0.956940 0.000000 0.290285
vn 0.956940 0.000000 0.290285
vn 0.956940 0.000000 0.290285
vn 0.000000 -1.000000 0.000000
vn 0.000000 -1.000000 0.000000
vn 0.000000 -1.000000 0.000000
vn 0.000000 1.000000 0.000000
vn 0.000000 1.000000 0.000000
vn 0.000000 1.000000 0.000000
vn 0.881921 0.000000 0.471397
vn 0.881921 0.000000 0.471397
vn 0.881921 0.000000 0.471397
vn 0.881921 0.000000 0.471397
vn 0.000000 -1.000000 0.000000
vn 0.000000 -1.000000 0.000000
vn 0.000000 -1.000000 0.000000
vn 0.000000 1.000000 0.000000
vn 0.000000 1.000000 0.000000
vn 0.000000 1.000000 0.000000
vn 0.773010 0.000000 0.634393
vn 0.773010 0.000000 0.634393
vn 0.773010 0.000000 0.634393
vn 0.773010 0.000000 0.634393
vn 0.000000 -1.000000 0.000000
vn 0.000000 -1.000000 0.000000
vn 0.000000 -1.000000 0.000000
vn 0.000000 1.000000 0.000000
vn 0.000000 1.000000 0.000000
vn 0.000000 1.000000 0.000000
vn 0.634393 0.000000 0.773010
vn 0.634393 0.000000 0.773010
vn 0.634393 0.000000 0.773010
vn 0.634393 0.000000 0.773010
vn 0.000000 -1.000000 0.000000
vn 0.000000 -1.000000 0.000000
vn 0.000000 -1.000000 0.000000
vn 0.000000 1.000000 0.000000
vn 0.000000 1.000000 0.000000
vn 0.000000 1.000000 0.000000
vn 0.471397 0.000000 0.881921
vn 0.471397 0.000000 0.881921
vn 0.471397 0.000000 0.881921
vn 0.471397 0.000000 0.881921
vn 0.000000 -1.000000 0.000000
vn 0.000000 -1.000000 0.000000
vn 0.000000 -1.000000 0.000000
vn 0.000000 1.000000 0.000000
vn 0.000000 1.000000 0.000000
vn 0.000000 1.000000 0.000000
vn 0.290285 0.000000 0.956940
vn 0.290285 0.000000 0.956940
vn 0.290285 0.000000 0.956940
vn 0.290285 0.000000 0.956940
vn 0.000000 -1.000000 0.000000
vn 0.000000 -1.000000 0.000000
vn 0.000000 -1.000000 0.000000
vn 0.000000 1.000000 0.000000
vn 0.000000 1.000000 0.000000
vn 0.000000 1.000000 0.000000
vn 0.098017 0.000000 0.995185
vn 0.098017 0.000000 0.995185
vn 0.098017 0.000000 0.995185
vn 0.098017 0.000000 0.995185
vn 0.000000 -1.000000 0.000000
vn 0.000000 -1.000000 0.000000
vn 0.000000 -1.000000 0.000000
vn 0.000000 1.000000 -0.000000
vn 0.000000 1.000000 -0.000000
vn 0.000000 1.000000 -0.000000
vn -0.098017 0.000000 0.995185
vn -0.098017 0.000000 0.995185
vn -0.098017 0.000000 0.995185
vn -0.098017 0.000000 0.995185
vn 0.000000 -1.000000 0.000000
vn 0.000000 -1.000000 0.000000
vn 0.000000 -1.000000 0.000000
vn 0.000000 1.000000 0.000000
vn 0.000000 1.000000 0.000000
vn 0.000000 1.000000 0.000000
vn -0.290285 0.000000 0.956940
vn -0.290285 0.000000 0.956940
vn -0.290285 0.000000 0.956940
vn -0.290285 0.000000 0.956940
vn 0.000000 -1.000000 0.000000
vn 0.000000 -1.000000 0.000000
vn 0.000000 -1.000000 0.000000
vn 0.000000 1.000000 0.000000
vn 0.000000 1.000000 0.000000
vn 0.000000 1.000000 0.000000
vn -0.471397 0.000000 0.881921
vn -0.471397 0.000000 0.881921
vn -0.471397 0.000000 0.881921
vn -0.471397 0.000000 0.881921
vn 0.000000 -1.000000 0.000000
vn 0.000000 -1.000000 0.000000
vn 0.000000 -1.000000 0.000000
vn 0.000000 1.000000 0.000000
vn 0.000000 1.000000 0.000000
vn 0.000000 1.000000 0.000000
vn -0.634393 0.000000 0.773010
vn -0.634393 0.000000 0.773010
vn -0.634393 0.000000 0.773010
vn -0.634393 0.000000 0.773010
vn 0.000000 -1.000000 0.000000
vn 0.000000 -1.000000 0.000000
vn 0.000000 -1.000000 0.000000
vn 0.000000 1.000000 0.000000
vn 0.000000 1.000000 0.000000
vn 0.000000 1.000000 0.000000
vn -0.773010 0.000000 0.634393
vn -0.773010 0.000000 0.634393
vn -0.773010 0.000000 0.634393
vn -0.773010 0.000000 0.634393
vn 0.000000 -1.000000 0.000000
vn 0.000000 -1.000000 0.000000
vn 0.000000 -1.000000 0.000000
vn 0.000000 1.000000 0.000000
vn 0.000000 1.000000 0.000000
vn 0.000000 1.000000 0.000000
vn -0.881921 0.000000 0.471397
vn -0.881921 0.000000 0.471397
vn -0.881921 0.000000 0.471397
vn -0.881921 0.000000 0.471397
vn 0.000000 -1.000000 0.000000
vn 0.000000 -1.000000 0.000000
vn 0.000000 -1.000000 0.000000
vn 0.000000 1.000000 0.000000
vn 0.000000 1.000000 0.000000
vn 0.000000 1.000000 0.000000
vn -0.956940 0.000000 0.290285
vn -0.956940 0.000000 0.290285
vn -0.956940 0.000000 0.290285
vn -0.956940 0.000000 0.290285
vn 0.000000 -1.000000 0.000000
vn 0.000000 -1.000000 0.000000
vn 0.000000 -1.000000 0.000000
vn 0.000000 1.000000 0.000000
vn 0.000000 1.000000 0.000000
vn 0.000000 1.000000 0.000000
vn -0.995185 0.000000 0.098017
vn -0.995185 0.000000 0.098017
vn -0.995185 0.000000 0.098017
vn -0.995185 0.000000 0.098017
vn 0.000000 -1.000000 0.000000
vn 0.000000 -1.000000 0.000000
vn 0.000000 -1.000000 0.000000
vn 0.000000 1.000000 0.000000
vn 0.000000 1.000000 0.000000
vn 0.000000 1.000000 0.000000
vn -0.995185 0.000000 -0.098017
vn -0.995185 0.000000 -0.098017
vn -0.995185 0.000000 -0.098017
vn -0.995185 0.000000 -0.098017
vn -0.000000 -1.000000 0.000000
vn -0.000000 -1.000000 0.000000
vn -0.000000 -1.000000 0.000000
vn 0.000000 1.000000 0.000000
vn 0.000000 1.000000 0.000000
vn 0.000000 1.000000 0.000000
vn -0.956940 0.000000 -0.290285
vn -0.956940 0.000000 -0.290285
vn -0.956940 0.000000 -0.290285
vn -0.956940 0.000000 -0.290285
vn 0.000000 -1.000000 0.000000
vn 0.000000 -1.000000 0.000000
vn 0.000000 -1.000000 0.000000
vn 0.000000 1.000000 0.000000
vn 0.000000 1.000000 0.000000
vn 0.000000 1.000000 0.000000
vn -0.881921 0.000000 -0.471397
vn -0.881921 0.000000 -0.471397
vn -0.881921 0.000000 -0.471397
vn -0.881921 0.000000 -0.471397
vn 0.000000 -1.000000 0.000000
vn 0.000000 -1.000000 0.000000
vn 0.000000 -1.000000 0.000000
vn 0.000000 1.000000 0.000000
vn 0.000000 1.000000 0.000000
vn 0.000000 1.000000 0.000000
vn -0.773010 0.000000 -0.634393
vn -0.773010 0.000000 -0.634393
vn -0.773010 0.000000 -0.634393
vn -0.773010 0.000000 -0.634393
vn 0.000000 -1.000000 0.000000
vn 0.000000 -1.000000 0.000000
vn 0.000000 -1.000000 0.000000
vn 0.000000 1.000000 0.000000
vn 0.000000 1.000000 0.000000
vn 0.000000 1.000000 0.000000
vn -0.634393 0.000000 -0.773010
vn -0.634393 0.000000 -0.773010
vn -0.634393 0.000000 -0.773010
vn -0.634393 0.000000 -0.773010
vn 0.000000 -1.000000 0.000000
vn 0.000000 -1.000000 0.000000
vn 0.000000 -1.000000 0.000000
vn 0.000000 1.000000 0.000000
vn 0.000000 1.000000 0.000000
vn 0.000000 1.000000 0.000000
vn -0.471397 0.000000 -0.881921
vn -0.471397 0.000000 -0.881921
vn -0.471397 0.000000 -0.881921
vn -0.471397 0.000000 -0.881921
vn 0.000000 -1.000000 0.000000
vn 0.000000 -1.000000 0.000000
vn 0.000000 -1.000000 0.000000
vn 0.000000 1.000000 0.000000
vn 0.000000 1.000000 0.000000
vn 0.000000 1.000000 0.000000
vn -0.290285 0.000000 -0.956940
vn -0.290285 0.000000 -0.956940
vn -0.290285 0.000000 -0.956940
vn -0.290285 0.000000 -0.956940
vn 0.000000 -1.000000 0.000000
vn 0.000000 -1.000000 0.000000
vn 0.000000 -1.000000 0.000000
vn 0.000000 1.000000 0.000000
vn 0.000000 1.000000 0.000000
vn 0.000000 1.000000 0.000000
vn -0.098017 0.000000 -0.995185
vn -0.098017 0.000000 -0.995185
vn -0.098017 0.000000 -0.995185
vn -0.098017 0.000000 -0.995185
vn 0.000000 -1.000000 0.000000
vn 0.000000 -1.000000 0.000000
vn 0.000000 -1.000000 0.000000
vn 0.000000 1.000000 0.000000
vn 0.000000 1.000000 0.000000
vn 0.000000 1.000000 0.000000
vn 0.098017 0.000000 -0.995185
vn 0.098017 0.000000 -0.995185
vn 0.098017 0.000000 -0.995185
vn 0.098017 0.000000 -0.995185
vn 0.000000 -1.000000 -0.000000
vn 0.000000 -1.000000 -0.000000
vn 0.000000 -1.000000 -0.000000
vn 0.000000 1.000000 0.000000
vn 0.000000 1.000000 0.000000
vn 0.000000 1.000000 0.000000
vn 0.290285 0.000000 -0.956940
vn 0.290285 0.000000 -0.956940
vn 0.290285 0.000000 -0.956940
vn 0.290285 0.000000 -0.956940
vn 0.000000 -1.000000 0.000000
vn 0.000000 -1.000000 0.000000
vn 0.000000 -1.000000 0.000000
vn 0.000000 1.000000 0.000000
vn 0.000000 1.000000 0.000000
vn 0.000000 1.000000 0.000000
vn 0.471397 0.000000 -0.881921
vn 0.471397 0.000000 -0.881921
vn 0.471397 0.000000 -0.881921
vn 0.471397 0.000000 -0.881921
vn 0.000000 -1.000000 0.000000
vn 0.000000 -1.000000 0.000000
vn 0.000000 -1.000000 0.000000
vn 0.000000 1.000000 0.000000
vn 0.000000 1.000000 0.000000
vn 0.000000 1.000000 0.000000
vn 0.634393 0.000000 -0.773010
vn 0.634393 0.000000 -0.773010
vn 0.634393 0.000000 -0.773010
vn 0.634393 0.000000 -0.773010
vn 0.000000 -1.000000 0.000000
vn 0.000000 -1.000000 0.000000
vn 0.000000 -1.000000 0.000000
vn 0.000000 1.000000 0.000000
vn 0.000000 1.000000 0.000000
vn 0.000000 1.000000 0.000000
vn 0.773010 0.000000 -0.634393
vn 0.773010 0.000000 -0.634393
vn 0.773010 0.000000 -0.634393
vn 0.773010 0.000000 -0.634393
vn 0.000000 -1.000000 0.000000
vn 0.000000 -1.000000 0.000000
vn 0.000000 -1.000000 0.000000
vn 0.000000 1.000000 0.000000
vn 0.000000 1.000000 0.000000
vn 0.000000 1.000000 0.000000
vn 0.881921 0.000000 -0.471397
vn 0.881921 0.000000 -0.471397
vn 0.881921 0.000000 -0.471397
vn 0.881921 0.000000 -0.471397
vn 0.000000 -1.000000 0.000000
vn 0.000000 -1.000000 0.000000
vn 0.000000 -1.000000 0.000000
vn 0.000000 1.000000 0.000000
vn 0.000000 1.000000 0.000000
vn 0.000000 1.000000 0.000000
vn 0.956940 0.000000 -0.290285
vn 0.956940 0.000000 -0.290285
vn 0.956940 0.000000 -0.290285
vn 0.956940 0.000000 -0.290285
vn 0.000000 -1.000000 0.000000
vn 0.000000 -1.000000 0.000000
vn 0.000000 -1.000000 0.000000
vn 0.000000 1.000000 0.000000
vn 0.000000 1.000000 0.000000
vn 0.000000 1.000000 0.000000
vn 0.995185 0.000000 -0.098017
vn 0.995185 0.000000 -0.098017
vn 0.995185 0.000000 -0.098017
vn 0.995185 0.000000 -0.098017
vn 0.000000 -1.000000 0.000000
vn 0.000000 -1.000000 0.000000
vn 0.000000 -1.000000 0.000000
s off
usemtl PadGold
f 1/1/1 2/2/2 3/3/3
f 4/4/4 5/5/5 6/6/6
f 4/4/4 6/6/6 7/7/7
f 8/8/8 9/9/9 10/10/10
f 11/11/11 12/12/12 13/13/13
f 14/14/14 15/15/15 16/16/16
f 14/14/14 16/16/16 17/17/17
f 18/18/18 19/19/19 20/20/20
f 21/21/21 22/22/22 23/23/23
f 24/24/24 25/25/25 26/26/26
f 24/24/24 26/26/26 27/27/27
f 28/28/28 29/29/29 30/30/30
f 31/31/31 32/32/32 33/33/33
f 34/34/34 35/35/35 36/36/36
f 34/34/34 36/36/36 37/37/37
f 38/38/38 39/39/39 40/40/40
f 41/41/41 42/42/42 43/43/43
f 44/44/44 45/45/45 46/46/46
f 44/44/44 46/46/46 47/47/47
f 48/48/48 49/49/49 50/50/50
f 51/51/51 52/52/52 53/53/53
f 54/54/54 55/55/55 56/56/56
f 54/54/54 56/56/56 57/57/57
f 58/58/58 59/59/59 60/60/60
f 61/61/61 62/62/62 63/63/63
f 64/64/64 65/65/65 66/66/66
f 64/64/64 66/66/66 67/67/67
f 68/68/68 69/69/69 70/70/70
f 71/71/71 72/72/72 73/73/73
f 74/74/74 75/75/75 76/76/76
f 74/74/74 76/76/76 77/77/77
f 78/78/78 79/79/79 80/80/80
f 81/81/81 82/82/82 83/83/83
f 84/84/84 85/85/85 86/86/86
f 84/84/84 86/86/86 87/87/87
f 88/88/88 89/89/89 90/90/90
f 91/91/91 92/92/92 93/93/93
f 94/94/94 95/95/95 96/96/96
f 94/94/94 96/96/96 97/97/97
f 98/98/98 99/99/99 100/100/100
f 101/101/101 102/102/102 103/103/103
f 104/104/104 105/105/105 106/106/106
f 104/104/104 106/106/106 107/107/107
f 108/108/108 109/109/109 110/110/110
f 111/111/111 112/112/112 113/113/113
f 114/114/114 115/115/115 116/116/116
f 114/114/114 116/116/116 117/117/117
f 118/118/118 119/119/119 120/120/120
f 121/121/121 122/122/122 123/123/123
f 124/124/124 125/125/125 126/126/126
f 124/124/124 126/126/126 127/127/127
f 128/128/128 129/129/129 130/130/130
f 131/131/131 132/132/132 133/133/133
f 134/134/134 135/135/135 136/136/136
f 134/134/134 136/136/136 137/137/137
f 138/138/138 139/139/139 140/140/140
f 141/141/141 142/142/142 143/143/143
f 144/144/144 145/145/145 146/146/146
f 144/144/144 146/146/146 147/147/147
f 148/148/148 149/149/149 150/150/150
f 151/151/151 152/152/152 153/153/153
f 154/154/154 155/155/155 156/156/156
f 154/154/154 156/156/156 157/157/157
f 158/158/158 159/159/159 160/160/160
f 161/161/161 162/162/162 163/163/163
f 164/164/164 165/165/165 166/166/166
f 164/164/164 166/166/166 167/167/167
f 168/168/168 169/169/169 170/170/170
f 171/171/171 172/172/172 173/173/173
f 174/174/174 175/175/175 176/176/176
f 174/174/174 176/176/176 177/177/177
f 178/178/178 179/179/179 180/180/180
f 181/181/181 182/182/182 183/183/183
f 184/184/184 185/185/185 186/186/186
f 184/184/184 186/186/186 187/187/187
f 188/188/188 189/189/189 190/190/190
f 191/191/191 192/192/192 193/193/193
f 194/194/194 195/195/195 196/196/196
f 194/194/194 196/196/196 197/197/197
f 198/198/198 199/199/199 200/200/200
f 201/201/201 202/202/202 203/203/203
f 204/204/204 205/205/205 206/206/206
f 204/204/204 206/206/206 207/207/207
f 208/208/208 209/209/209 210/210/210
f 211/211/211 212/212/212 213/213/213
f 214/214/214 215/215/215 216/216/216
f 214/214/214 216/216/216 217/217/217
f 218/218/218 219/219/219 220/220/220
f 221/221/221 222/222/222 223/223/223
f 224/224/224 225/225/225 226/226/226
f 224/224/224 226/226/226 227/227/227
f 228/228/228 229/229/229 230/230/230
f 231/231/231 232/232/232 233/233/233
f 234/234/234 235/235/235 236/236/236
f 234/234/234 236/236/236 237/237/237
f 238/238/238 239/239/239 240/240/240
f 241/241/241 242/242/242 243/243/243
f 244/244/244 245/245/245 246/246/246
f 244/244/244 246/246/246 247/247/247
f 248/248/248 249/249/249 250/250/250
f 251/251/251 252/252/252 253/253/253
f 254/254/254 255/255/255 256/256/256
f 254/254/254 256/256/256 257/257/257
f 258/258/258 259/259/259 260/260/260
f 261/261/261 262/262/262 263/263/263
f 264/264/264 265/265/265 266/266/266
f 264/264/264 266/266/266 267/267/267
f 268/268/268 269/269/269 270/270/270
f 271/271/271 272/272/272 273/273/273
f 274/274/274 275/275/275 276/276/276
f 274/274/274 276/276/276 277/277/277
f 278/278/278 279/279/279 280/280/280
f 281/281/281 282/282/282 283/283/283
f 284/284/284 285/285/285 286/286/286
f 284/284/284 286/286/286 287/287/287
f 288/288/288 289/289/289 290/290/290
f 291/291/291 292/292/292 293/293/293
f 294/294/294 295/295/295 296/296/296
f 294/294/294 296/296/296 297/297/297
f 298/298/298 299/299/299 300/300/300
f 301/301/301 302/302/302 303/303/303
f 304/304/304 305/305/305 306/306/306
f 304/304/304 306/306/306 307/307/307
f 308/308/308 309/309/309 310/310/310
f 311/311/311 312/312/312 313/313/313
f 314/314/314 315/315/315 316/316/316
f 314/314/314 316/316/316 317/317/317
f 318/318/318 319/319/319 320/320/320
usemtl PadStone
f 321/321/321 322/322/322 323/323/323
f 324/324/324 325/325/325 326/326/326
f 324/324/324 326/326/326 327/327/327
f 328/328/328 329/329/329 330/330/330
f 331/331/331 332/332/332 333/333/333
f 334/334/334 335/335/335 336/336/336
f 334/334/334 336/336/336 337/337/337
f 338/338/338 339/339/339 340/340/340
f 341/341/341 342/342/342 343/343/343
f 344/344/344 345/345/345 346/346/346
f 344/344/344 346/346/346 347/347/347
f 348/348/348 349/349/349 350/350/350
f 351/351/351 352/352/352 353/353/353
f 354/354/354 355/355/355 356/356/356
f 354/354/354 356/356/356 357/357/357
f 358/358/358 359/359/359 360/360/360
f 361/361/361 362/362/362 363/363/363
f 364/364/364 365/365/365 366/366/366
f 364/364/364 366/366/366 367/367/367
f 368/368/368 369/369/369 370/370/370
f 371/371/371 372/372/372 373/373/373
f 374/374/374 375/375/375 376/376/376
f 374/374/374 376/376/376 377/377/377
f 378/378/378 379/379/379 380/380/380
f 381/381/381 382/382/382 383/383/383
f 384/384/384 385/385/385 386/386/386
f 384/384/384 386/386/386 387/387/387
f 388/388/388 389/389/389 390/390/390
f 391/391/391 392/392/392 393/393/393
f 394/394/394 395/395/395 396/396/396
f 394/394/394 396/396/396 397/397/397
f 398/398/398 399/399/399 400/400/400
f 401/401/401 402/402/402 403/403/403
f 404/404/404 405/405/405 406/406/406
f 404/404/404 406/406/406 407/407/407
f 408/408/408 409/409/409 410/410/410
f 411/411/411 412/412/412 413/413/413
f 414/414/414 415/415/415 416/416/416
f 414/414/414 416/416/416 417/417/417
f 418/418/418 419/419/419 420/420/420
f 421/421/421 422/422/422 423/423/423
f 424/424/424 425/425/425 426/426/426
f 424/424/424 426/426/426 427/427/427
f 428/428/428 429/429/429 430/430/430
f 431/431/431 432/432/432 433/433/433
f 434/434/434 435/435/435 436/436/436
f 434/434/434 436/436/436 437/437/437
f 438/438/438 439/439/439 440/440/440
f 441/441/441 442/442/442 443/443/443
f 444/444/444 445/445/445 446/446/446
f 444/444/444 446/446/446 447/447/447
f 448/448/448 449/449/449 450/450/450
f 451/451/451 452/452/452 453/453/453
f 454/454/454 455/455/455 456/456/456
f 454/454/454 456/456/456 457/457/457
f 458/458/458 459/459/459 460/460/460
f 461/461/461 462/462/462 463/463/463
f 464/464/464 465/465/465 466/466/466
f 464/464/464 466/466/466 467/467/467
f 468/468/468 469/469/469 470/470/470
f 471/471/471 472/472/472 473/473/473
f 474/474/474 475/475/475 476/476/476
f 474/474/474 476/476/476 477/477/477
f 478/478/478 479/479/479 480/480/480
f 481/481/481 482/482/482 483/483/483
f 484/484/484 485/485/485 486/486/486
f 484/484/484 486/486/486 487/487/487
f 488/488/488 489/489/489 490/490/490
f 491/491/491 492/492/492 493/493/493
f 494/494/494 495/495/495 496/496/496
f 494/494/494 496/496/496 497/497/497
f 498/498/498 499/499/499 500/500/500
f 501/501/501 502/502/502 503/503/503
f 504/504/504 505/505/505 506/506/506
f 504/504/504 506/506/506 507/507/507
f 508/508/508 509/509/509 510/510/510
f 511/511/511 512/512/512 513/513/513
f 514/514/514 515/515/515 516/516/516
f 514/514/514 516/516/516 517/517/517
f 518/518/518 519/519/519 520/520/520
f 521/521/521 522/522/522 523/523/523
f 524/524/524 525/525/525 526/526/526
f 524/524/524 526/526/526 527/527/527
f 528/528/528 529/529/529 530/530/530
f 531/531/531 532/532/532 533/533/533
f 534/534/534 535/535/535 536/536/536
f 534/534/534 536/536/536 537/537/537
f 538/538/538 539/539/539 540/540/540
f 541/541/541 542/542/542 543/543/543
f 544/544/544 545/545/545 546/546/546
f 544/544/544 546/546/546 547/547/547
f 548/548/548 549/549/549 550/550/550
f 551/551/551 552/552/552 553/553/553
f 554/554/554 555/555/555 556/556/556
f 554/554/554 556/556/556 557/557/557
f 558/558/558 559/559/559 560/560/560
f 561/561/561 562/562/562 563/563/563
f 564/564/564 565/565/565 566/566/566
f 564/564/564 566/566/566 567/567/567
f 568/568/568 569/569/569 570/570/570
f 571/571/571 572/572/572 573/573/573
f 574/574/574 575/575/575 576/576/576
f 574/574/574 576/576/576 577/577/577
f 578/578/578 579/579/579 580/580/580
f 581/581/581 582/582/582 583/583/583
f 584/584/584 585/585/585 586/586/586
f 584/584/584 586/586/586 587/587/587
f 588/588/588 589/589/589 590/590/590
f 591/591/591 592/592/592 593/593/593
f 594/594/594 595/595/595 596/596/596
f 594/594/594 596/596/596 597/597/597
f 598/598/598 599/599/599 600/600/600
f 601/601/601 602/602/602 603/603/603
f 604/604/604 605/605/605 606/606/606
f 604/604/604 606/606/606 607/607/607
f 608/608/608 609/609/609 610/610/610
f 611/611/611 612/612/612 613/613/613
f 614/614/614 615/615/615 616/616/616
f 614/614/614 616/616/616 617/617/617
f 618/618/618 619/619/619 620/620/620
f 621/621/621 622/622/622 623/623/623
f 624/624/624 625/625/625 626/626/626
f 624/624/624 626/626/626 627/627/627
f 628/628/628 629/629/629 630/630/630
f 631/631/631 632/632/632 633/633/633
f 634/634/634 635/635/635 636/636/636
f 634/634/634 636/636/636 637/637/637
f 638/638/638 639/639/639 640/640/640
usemtl PadInlay
f 641/641/641 642/642/642 643/643/643
f 644/644/644 645/645/645 646/646/646
f 644/644/644 646/646/646 647/647/647
f 648/648/648 649/649/649 650/650/650
f 651/651/651 652/652/652 653/653/653
f 654/654/654 655/655/655 656/656/656
f 654/654/654 656/656/656 657/657/657
f 658/658/658 659/659/659 660/660/660
f 661/661/661 662/662/662 663/663/663
f 664/664/664 665/665/665 666/666/666
f 664/664/664 666/666/666 667/667/667
f 668/668/668 669/669/669 670/670/670
f 671/671/671 672/672/672 673/673/673
f 674/674/674 675/675/675 676/676/676
f 674/674/674 676/676/676 677/677/677
f 678/678/678 679/679/679 680/680/680
f 681/681/681 682/682/682 683/683/683
f 684/684/684 685/685/685 686/686/686
f 684/684/684 686/686/686 687/687/687
f 688/688/688 689/689/689 690/690/690
f 691/691/691 692/692/692 693/693/693
f 694/694/694 695/695/695 696/696/696
f 694/694/694 696/696/696 697/697/697
f 698/698/698 699/699/699 700/700/700
f 701/701/701 702/702/702 703/703/703
f 704/704/704 705/705/705 706/706/706
f 704/704/704 706/706/706 707/707/707
f 708/708/708 709/709/709 710/710/710
f 711/711/711 712/712/712 713/713/713
f 714/714/714 715/715/715 716/716/716
f 714/714/714 716/716/716 717/717/717
f 718/718/718 719/719/719 720/720/720
f 721/721/721 722/722/722 723/723/723
f 724/724/724 725/725/725 726/726/726
f 724/724/724 726/726/726 727/727/727
f 728/728/728 729/729/729 730/730/730
f 731/731/731 732/732/732 733/733/733
f 734/734/734 735/735/735 736/736/736
f 734/734/734 736/736/736 737/737/737
f 738/738/738 739/739/739 740/740/740
f 741/741/741 742/742/742 743/743/743
f 744/744/744 745/745/745 746/746/746
f 744/744/744 746/746/746 747/747/747
f 748/748/748 749/749/749 750/750/750
f 751/751/751 752/752/752 753/753/753
f 754/754/754 755/755/755 756/756/756
f 754/754/754 756/756/756 757/757/757
f 758/758/758 759/759/759 760/760/760
f 761/761/761 762/762/762 763/763/763
f 764/764/764 765/765/765 766/766/766
f 764/764/764 766/766/766 767/767/767
f 768/768/768 769/769/769 770/770/770
f 771/771/771 772/772/772 773/773/773
f 774/774/774 775/775/775 776/776/776
f 774/774/774 776/776/776 777/777/777
f 778/778/778 779/779/779 780/780/780
f 781/781/781 782/782/782 783/783/783
f 784/784/784 785/785/785 786/786/786
f 784/784/784 786/786/786 787/787/787
f 788/788/788 789/789/789 790/790/790
f 791/791/791 792/792/792 793/793/793
f 794/794/794 795/795/795 796/796/796
f 794/794/794 796/796/796 797/797/797
f 798/798/798 799/799/799 800/800/800
f 801/801/801 802/802/802 803/803/803
f 804/804/804 805/805/805 806/806/806
f 804/804/804 806/806/806 807/807/807
f 808/808/808 809/809/809 810/810/810
f 811/811/811 812/812/812 813/813/813
f 814/814/814 815/815/815 816/816/816
f 814/814/814 816/816/816 817/817/817
f 818/818/818 819/819/819 820/820/820
f 821/821/821 822/822/822 823/823/823
f 824/824/824 825/825/825 826/826/826
f 824/824/824 826/826/826 827/827/827
f 828/828/828 829/829/829 830/830/830
f 831/831/831 832/832/832 833/833/833
f 834/834/834 835/835/835 836/836/836
f 834/834/834 836/836/836 837/837/837
f 838/838/838 839/839/839 840/840/840
f 841/841/841 842/842/842 843/843/843
f 844/844/844 845/845/845 846/846/846
f 844/844/844 846/846/846 847/847/847
f 848/848/848 849/849/849 850/850/850
f 851/851/851 852/852/852 853/853/853
f 854/854/854 855/855/855 856/856/856
f 854/854/854 856/856/856 857/857/857
f 858/858/858 859/859/859 860/860/860
f 861/861/861 862/862/862 863/863/863
f 864/864/864 865/865/865 866/866/866
f 864/864/864 866/866/866 867/867/867
f 868/868/868 869/869/869 870/870/870
f 871/871/871 872/872/872 873/873/873
f 874/874/874 875/875/875 876/876/876
f 874/874/874 876/876/876 877/877/877
f 878/878/878 879/879/879 880/880/880
f 881/881/881 882/882/882 883/883/883
f 884/884/884 885/885/885 886/886/886
f 884/884/884 886/886/886 887/887/887
f 888/888/888 889/889/889 890/890/890
f 891/891/891 892/892/892 893/893/893
f 894/894/894 895/895/895 896/896/896
f 894/894/894 896/896/896 897/897/897
f 898/898/898 899/899/899 900/900/900
f 901/901/901 902/902/902 903/903/903
f 904/904/904 905/905/905 906/906/906
f 904/904/904 906/906/906 907/907/907
f 908/908/908 909/909/909 910/910/910
f 911/911/911 912/912/912 913/913/913
f 914/914/914 915/915/915 916/916/916
f 914/914/914 916/916/916 917/917/917
f 918/918/918 919/919/919 920/920/920
f 921/921/921 922/922/922 923/923/923
f 924/924/924 925/925/925 926/926/926
f 924/924/924 926/926/926 927/927/927
f 928/928/928 929/929/929 930/930/930
f 931/931/931 932/932/932 933/933/933
f 934/934/934 935/935/935 936/936/936
f 934/934/934 936/936/936 937/937/937
f 938/938/938 939/939/939 940/940/940
f 941/941/941 942/942/942 943/943/943
f 944/944/944 945/945/945 946/946/946
f 944/944/944 946/946/946 947/947/947
f 948/948/948 949/949/949 950/950/950
f 951/951/951 952/952/952 953/953/953
f 954/954/954 955/955/955 956/956/956
f 954/954/954 956/956/956 957/957/957
f 958/958/958 959/959/959 960/960/960
