mtllib galaxy_spiral_tower.mtl
o galaxy_spiral_tower
v 4.500000 0.000000 0.000000
v 4.500000 5.600000 0.000000
v 4.387176 0.000000 1.001344
v 4.387176 5.600000 1.001344
v 4.054360 0.000000 1.952477
v 4.054360 5.600000 1.952477
v 3.518242 0.000000 2.805704
v 3.518242 5.600000 2.805704
v 2.805704 0.000000 3.518242
v 2.805704 5.600000 3.518242
v 1.952477 0.000000 4.054360
v 1.952477 5.600000 4.054360
v 1.001344 0.000000 4.387176
v 1.001344 5.600000 4.387176
v 0.000000 0.000000 4.500000
v 0.000000 5.600000 4.500000
v -1.001344 0.000000 4.387176
v -1.001344 5.600000 4.387176
v -1.952477 0.000000 4.054360
v -1.952477 5.600000 4.054360
v -2.805704 0.000000 3.518242
v -2.805704 5.600000 3.518242
v -3.518242 0.000000 2.805704
v -3.518242 5.600000 2.805704
v -4.054360 0.000000 1.952477
v -4.054360 5.600000 1.952477
v -4.387176 0.000000 1.001344
v -4.387176 5.600000 1.001344
v -4.500000 0.000000 0.000000
v -4.500000 5.600000 0.000000
v -4.387176 0.000000 -1.001344
v -4.387176 5.600000 -1.001344
v -4.054360 0.000000 -1.952477
v -4.054360 5.600000 -1.952477
v -3.518242 0.000000 -2.805704
v -3.518242 5.600000 -2.805704
v -2.805704 0.000000 -3.518242
v -2.805704 5.600000 -3.518242
v -1.952477 0.000000 -4.054360
v -1.952477 5.600000 -4.054360
v -1.001344 0.000000 -4.387176
v -1.001344 5.600000 -4.387176
v 0.000000 0.000000 -4.500000
v 0.000000 5.600000 -4.500000
v 1.001344 0.000000 -4.387176
v 1.001344 5.600000 -4.387176
v 1.952477 0.000000 -4.054360
v 1.952477 5.600000 -4.054360
v 2.805704 0.000000 -3.518242
v 2.805704 5.600000 -3.518242
v 3.518242 0.000000 -2.805704
v 3.518242 5.600000 -2.805704
v 4.054360 0.000000 -1.952477
v 4.054360 5.600000 -1.952477
v 4.387176 0.000000 -1.001344
v 4.387176 5.600000 -1.001344
v 0.000000 0.000000 0.000000
v 0.000000 5.600000 0.000000
usemtl pearl
f 1 3 4 2
f 3 5 6 4
f 5 7 8 6
f 7 9 10 8
f 9 11 12 10
f 11 13 14 12
f 13 15 16 14
f 15 17 18 16
f 17 19 20 18
f 19 21 22 20
f 21 23 24 22
f 23 25 26 24
f 25 27 28 26
f 27 29 30 28
f 29 31 32 30
f 31 33 34 32
f 33 35 36 34
f 35 37 38 36
f 37 39 40 38
f 39 41 42 40
f 41 43 44 42
f 43 45 46 44
f 45 47 48 46
f 47 49 50 48
f 49 51 52 50
f 51 53 54 52
f 53 55 56 54
f 55 1 2 56
usemtl grass
f 57 3 1
f 58 2 4
f 57 5 3
f 58 4 6
f 57 7 5
f 58 6 8
f 57 9 7
f 58 8 10
f 57 11 9
f 58 10 12
f 57 13 11
f 58 12 14
f 57 15 13
f 58 14 16
f 57 17 15
f 58 16 18
f 57 19 17
f 58 18 20
f 57 21 19
f 58 20 22
f 57 23 21
f 58 22 24
f 57 25 23
f 58 24 26
f 57 27 25
f 58 26 28
f 57 29 27
f 58 28 30
f 57 31 29
f 58 30 32
f 57 33 31
f 58 32 34
f 57 35 33
f 58 34 36
f 57 37 35
f 58 36 38
f 57 39 37
f 58 38 40
f 57 41 39
f 58 40 42
f 57 43 41
f 58 42 44
f 57 45 43
f 58 44 46
f 57 47 45
f 58 46 48
f 57 49 47
f 58 48 50
f 57 51 49
f 58 50 52
f 57 53 51
f 58 52 54
f 57 55 53
f 58 54 56
f 57 1 55
f 58 56 2
v 3.700000 5.600000 0.000000
v 3.700000 10.800000 0.000000
v 3.607233 5.600000 0.823327
v 3.607233 10.800000 0.823327
v 3.333585 5.600000 1.605370
v 3.333585 10.800000 1.605370
v 2.892776 5.600000 2.306912
v 2.892776 10.800000 2.306912
v 2.306912 5.600000 2.892776
v 2.306912 10.800000 2.892776
v 1.605370 5.600000 3.333585
v 1.605370 10.800000 3.333585
v 0.823327 5.600000 3.607233
v 0.823327 10.800000 3.607233
v 0.000000 5.600000 3.700000
v 0.000000 10.800000 3.700000
v -0.823327 5.600000 3.607233
v -0.823327 10.800000 3.607233
v -1.605370 5.600000 3.333585
v -1.605370 10.800000 3.333585
v -2.306912 5.600000 2.892776
v -2.306912 10.800000 2.892776
v -2.892776 5.600000 2.306912
v -2.892776 10.800000 2.306912
v -3.333585 5.600000 1.605370
v -3.333585 10.800000 1.605370
v -3.607233 5.600000 0.823327
v -3.607233 10.800000 0.823327
v -3.700000 5.600000 0.000000
v -3.700000 10.800000 0.000000
v -3.607233 5.600000 -0.823327
v -3.607233 10.800000 -0.823327
v -3.333585 5.600000 -1.605370
v -3.333585 10.800000 -1.605370
v -2.892776 5.600000 -2.306912
v -2.892776 10.800000 -2.306912
v -2.306912 5.600000 -2.892776
v -2.306912 10.800000 -2.892776
v -1.605370 5.600000 -3.333585
v -1.605370 10.800000 -3.333585
v -0.823327 5.600000 -3.607233
v -0.823327 10.800000 -3.607233
v 0.000000 5.600000 -3.700000
v 0.000000 10.800000 -3.700000
v 0.823327 5.600000 -3.607233
v 0.823327 10.800000 -3.607233
v 1.605370 5.600000 -3.333585
v 1.605370 10.800000 -3.333585
v 2.306912 5.600000 -2.892776
v 2.306912 10.800000 -2.892776
v 2.892776 5.600000 -2.306912
v 2.892776 10.800000 -2.306912
v 3.333585 5.600000 -1.605370
v 3.333585 10.800000 -1.605370
v 3.607233 5.600000 -0.823327
v 3.607233 10.800000 -0.823327
v 0.000000 5.600000 0.000000
v 0.000000 10.800000 0.000000
usemtl violet
f 59 61 62 60
f 61 63 64 62
f 63 65 66 64
f 65 67 68 66
f 67 69 70 68
f 69 71 72 70
f 71 73 74 72
f 73 75 76 74
f 75 77 78 76
f 77 79 80 78
f 79 81 82 80
f 81 83 84 82
f 83 85 86 84
f 85 87 88 86
f 87 89 90 88
f 89 91 92 90
f 91 93 94 92
f 93 95 96 94
f 95 97 98 96
f 97 99 100 98
f 99 101 102 100
f 101 103 104 102
f 103 105 106 104
f 105 107 108 106
f 107 109 110 108
f 109 111 112 110
f 111 113 114 112
f 113 59 60 114
usemtl pearl
f 115 61 59
f 116 60 62
f 115 63 61
f 116 62 64
f 115 65 63
f 116 64 66
f 115 67 65
f 116 66 68
f 115 69 67
f 116 68 70
f 115 71 69
f 116 70 72
f 115 73 71
f 116 72 74
f 115 75 73
f 116 74 76
f 115 77 75
f 116 76 78
f 115 79 77
f 116 78 80
f 115 81 79
f 116 80 82
f 115 83 81
f 116 82 84
f 115 85 83
f 116 84 86
f 115 87 85
f 116 86 88
f 115 89 87
f 116 88 90
f 115 91 89
f 116 90 92
f 115 93 91
f 116 92 94
f 115 95 93
f 116 94 96
f 115 97 95
f 116 96 98
f 115 99 97
f 116 98 100
f 115 101 99
f 116 100 102
f 115 103 101
f 116 102 104
f 115 105 103
f 116 104 106
f 115 107 105
f 116 106 108
f 115 109 107
f 116 108 110
f 115 111 109
f 116 110 112
f 115 113 111
f 116 112 114
f 115 59 113
f 116 114 60
v 3.000000 10.800000 0.000000
v 3.000000 15.600000 0.000000
v 2.924784 10.800000 0.667563
v 2.924784 15.600000 0.667563
v 2.702907 10.800000 1.301651
v 2.702907 15.600000 1.301651
v 2.345494 10.800000 1.870469
v 2.345494 15.600000 1.870469
v 1.870469 10.800000 2.345494
v 1.870469 15.600000 2.345494
v 1.301651 10.800000 2.702907
v 1.301651 15.600000 2.702907
v 0.667563 10.800000 2.924784
v 0.667563 15.600000 2.924784
v 0.000000 10.800000 3.000000
v 0.000000 15.600000 3.000000
v -0.667563 10.800000 2.924784
v -0.667563 15.600000 2.924784
v -1.301651 10.800000 2.702907
v -1.301651 15.600000 2.702907
v -1.870469 10.800000 2.345494
v -1.870469 15.600000 2.345494
v -2.345494 10.800000 1.870469
v -2.345494 15.600000 1.870469
v -2.702907 10.800000 1.301651
v -2.702907 15.600000 1.301651
v -2.924784 10.800000 0.667563
v -2.924784 15.600000 0.667563
v -3.000000 10.800000 0.000000
v -3.000000 15.600000 0.000000
v -2.924784 10.800000 -0.667563
v -2.924784 15.600000 -0.667563
v -2.702907 10.800000 -1.301651
v -2.702907 15.600000 -1.301651
v -2.345494 10.800000 -1.870469
v -2.345494 15.600000 -1.870469
v -1.870469 10.800000 -2.345494
v -1.870469 15.600000 -2.345494
v -1.301651 10.800000 -2.702907
v -1.301651 15.600000 -2.702907
v -0.667563 10.800000 -2.924784
v -0.667563 15.600000 -2.924784
v 0.000000 10.800000 -3.000000
v 0.000000 15.600000 -3.000000
v 0.667563 10.800000 -2.924784
v 0.667563 15.600000 -2.924784
v 1.301651 10.800000 -2.702907
v 1.301651 15.600000 -2.702907
v 1.870469 10.800000 -2.345494
v 1.870469 15.600000 -2.345494
v 2.345494 10.800000 -1.870469
v 2.345494 15.600000 -1.870469
v 2.702907 10.800000 -1.301651
v 2.702907 15.600000 -1.301651
v 2.924784 10.800000 -0.667563
v 2.924784 15.600000 -0.667563
v 0.000000 10.800000 0.000000
v 0.000000 15.600000 0.000000
usemtl pearl
f 117 119 120 118
f 119 121 122 120
f 121 123 124 122
f 123 125 126 124
f 125 127 128 126
f 127 129 130 128
f 129 131 132 130
f 131 133 134 132
f 133 135 136 134
f 135 137 138 136
f 137 139 140 138
f 139 141 142 140
f 141 143 144 142
f 143 145 146 144
f 145 147 148 146
f 147 149 150 148
f 149 151 152 150
f 151 153 154 152
f 153 155 156 154
f 155 157 158 156
f 157 159 160 158
f 159 161 162 160
f 161 163 164 162
f 163 165 166 164
f 165 167 168 166
f 167 169 170 168
f 169 171 172 170
f 171 117 118 172
usemtl aqua
f 173 119 117
f 174 118 120
f 173 121 119
f 174 120 122
f 173 123 121
f 174 122 124
f 173 125 123
f 174 124 126
f 173 127 125
f 174 126 128
f 173 129 127
f 174 128 130
f 173 131 129
f 174 130 132
f 173 133 131
f 174 132 134
f 173 135 133
f 174 134 136
f 173 137 135
f 174 136 138
f 173 139 137
f 174 138 140
f 173 141 139
f 174 140 142
f 173 143 141
f 174 142 144
f 173 145 143
f 174 144 146
f 173 147 145
f 174 146 148
f 173 149 147
f 174 148 150
f 173 151 149
f 174 150 152
f 173 153 151
f 174 152 154
f 173 155 153
f 174 154 156
f 173 157 155
f 174 156 158
f 173 159 157
f 174 158 160
f 173 161 159
f 174 160 162
f 173 163 161
f 174 162 164
f 173 165 163
f 174 164 166
f 173 167 165
f 174 166 168
f 173 169 167
f 174 168 170
f 173 171 169
f 174 170 172
f 173 117 171
f 174 172 118
v 2.350000 15.600000 0.000000
v 2.350000 19.800000 0.000000
v 2.291081 15.600000 0.522924
v 2.291081 19.800000 0.522924
v 2.117277 15.600000 1.019627
v 2.117277 19.800000 1.019627
v 1.837304 15.600000 1.465201
v 1.837304 19.800000 1.465201
v 1.465201 15.600000 1.837304
v 1.465201 19.800000 1.837304
v 1.019627 15.600000 2.117277
v 1.019627 19.800000 2.117277
v 0.522924 15.600000 2.291081
v 0.522924 19.800000 2.291081
v 0.000000 15.600000 2.350000
v 0.000000 19.800000 2.350000
v -0.522924 15.600000 2.291081
v -0.522924 19.800000 2.291081
v -1.019627 15.600000 2.117277
v -1.019627 19.800000 2.117277
v -1.465201 15.600000 1.837304
v -1.465201 19.800000 1.837304
v -1.837304 15.600000 1.465201
v -1.837304 19.800000 1.465201
v -2.117277 15.600000 1.019627
v -2.117277 19.800000 1.019627
v -2.291081 15.600000 0.522924
v -2.291081 19.800000 0.522924
v -2.350000 15.600000 0.000000
v -2.350000 19.800000 0.000000
v -2.291081 15.600000 -0.522924
v -2.291081 19.800000 -0.522924
v -2.117277 15.600000 -1.019627
v -2.117277 19.800000 -1.019627
v -1.837304 15.600000 -1.465201
v -1.837304 19.800000 -1.465201
v -1.465201 15.600000 -1.837304
v -1.465201 19.800000 -1.837304
v -1.019627 15.600000 -2.117277
v -1.019627 19.800000 -2.117277
v -0.522924 15.600000 -2.291081
v -0.522924 19.800000 -2.291081
v 0.000000 15.600000 -2.350000
v 0.000000 19.800000 -2.350000
v 0.522924 15.600000 -2.291081
v 0.522924 19.800000 -2.291081
v 1.019627 15.600000 -2.117277
v 1.019627 19.800000 -2.117277
v 1.465201 15.600000 -1.837304
v 1.465201 19.800000 -1.837304
v 1.837304 15.600000 -1.465201
v 1.837304 19.800000 -1.465201
v 2.117277 15.600000 -1.019627
v 2.117277 19.800000 -1.019627
v 2.291081 15.600000 -0.522924
v 2.291081 19.800000 -0.522924
v 0.000000 15.600000 0.000000
v 0.000000 19.800000 0.000000
usemtl violet
f 175 177 178 176
f 177 179 180 178
f 179 181 182 180
f 181 183 184 182
f 183 185 186 184
f 185 187 188 186
f 187 189 190 188
f 189 191 192 190
f 191 193 194 192
f 193 195 196 194
f 195 197 198 196
f 197 199 200 198
f 199 201 202 200
f 201 203 204 202
f 203 205 206 204
f 205 207 208 206
f 207 209 210 208
f 209 211 212 210
f 211 213 214 212
f 213 215 216 214
f 215 217 218 216
f 217 219 220 218
f 219 221 222 220
f 221 223 224 222
f 223 225 226 224
f 225 227 228 226
f 227 229 230 228
f 229 175 176 230
usemtl pearl
f 231 177 175
f 232 176 178
f 231 179 177
f 232 178 180
f 231 181 179
f 232 180 182
f 231 183 181
f 232 182 184
f 231 185 183
f 232 184 186
f 231 187 185
f 232 186 188
f 231 189 187
f 232 188 190
f 231 191 189
f 232 190 192
f 231 193 191
f 232 192 194
f 231 195 193
f 232 194 196
f 231 197 195
f 232 196 198
f 231 199 197
f 232 198 200
f 231 201 199
f 232 200 202
f 231 203 201
f 232 202 204
f 231 205 203
f 232 204 206
f 231 207 205
f 232 206 208
f 231 209 207
f 232 208 210
f 231 211 209
f 232 210 212
f 231 213 211
f 232 212 214
f 231 215 213
f 232 214 216
f 231 217 215
f 232 216 218
f 231 219 217
f 232 218 220
f 231 221 219
f 232 220 222
f 231 223 221
f 232 222 224
f 231 225 223
f 232 224 226
f 231 227 225
f 232 226 228
f 231 229 227
f 232 228 230
f 231 175 229
f 232 230 176
v 5.360000 5.600000 0.000000
v 5.283848 5.783848 0.000000
v 5.100000 5.860000 0.000000
v 4.916152 5.783848 0.000000
v 4.840000 5.600000 0.000000
v 4.916152 5.416152 0.000000
v 5.100000 5.340000 0.000000
v 5.283848 5.416152 0.000000
v 5.242871 5.600000 1.114407
v 5.168383 5.783848 1.098574
v 4.988553 5.860000 1.060350
v 4.808723 5.783848 1.022126
v 4.734234 5.600000 1.006293
v 4.808723 5.416152 1.022126
v 4.988553 5.340000 1.060350
v 5.168383 5.416152 1.098574
v 4.896604 5.600000 2.180108
v 4.827035 5.783848 2.149135
v 4.659082 5.860000 2.074357
v 4.491129 5.783848 1.999579
v 4.421560 5.600000 1.968605
v 4.491129 5.416152 1.999579
v 4.659082 5.340000 2.074357
v 4.827035 5.416152 2.149135
v 4.336331 5.600000 3.150529
v 4.274723 5.783848 3.105768
v 4.125987 5.860000 2.997705
v 3.977251 5.783848 2.889642
v 3.915642 5.600000 2.844881
v 3.977251 5.416152 2.889642
v 4.125987 5.340000 2.997705
v 4.274723 5.416152 3.105768
v 3.586540 5.600000 3.983256
v 3.535584 5.783848 3.926664
v 3.412566 5.860000 3.790039
v 3.289548 5.783848 3.653413
v 3.238592 5.600000 3.596821
v 3.289548 5.416152 3.653413
v 3.412566 5.340000 3.790039
v 3.535584 5.416152 3.926664
v 2.680000 5.600000 4.641896
v 2.641924 5.783848 4.575946
v 2.550000 5.860000 4.416730
v 2.458076 5.783848 4.257513
v 2.420000 5.600000 4.191563
v 2.458076 5.416152 4.257513
v 2.550000 5.340000 4.416730
v 2.641924 5.416152 4.575946
v 1.656331 5.600000 5.097663
v 1.632799 5.783848 5.025238
v 1.575987 5.860000 4.850388
v 1.519175 5.783848 4.675539
v 1.495642 5.600000 4.603114
v 1.519175 5.416152 4.675539
v 1.575987 5.340000 4.850388
v 1.632799 5.416152 5.025238
v 0.560273 5.600000 5.330637
v 0.552312 5.783848 5.254902
v 0.533095 5.860000 5.072062
v 0.513878 5.783848 4.889221
v 0.505918 5.600000 4.813486
v 0.513878 5.416152 4.889221
v 0.533095 5.340000 5.072062
v 0.552312 5.416152 5.254902
v -0.560273 5.600000 5.330637
v -0.552312 5.783848 5.254902
v -0.533095 5.860000 5.072062
v -0.513878 5.783848 4.889221
v -0.505918 5.600000 4.813486
v -0.513878 5.416152 4.889221
v -0.533095 5.340000 5.072062
v -0.552312 5.416152 5.254902
v -1.656331 5.600000 5.097663
v -1.632799 5.783848 5.025238
v -1.575987 5.860000 4.850388
v -1.519175 5.783848 4.675539
v -1.495642 5.600000 4.603114
v -1.519175 5.416152 4.675539
v -1.575987 5.340000 4.850388
v -1.632799 5.416152 5.025238
v -2.680000 5.600000 4.641896
v -2.641924 5.783848 4.575946
v -2.550000 5.860000 4.416730
v -2.458076 5.783848 4.257513
v -2.420000 5.600000 4.191563
v -2.458076 5.416152 4.257513
v -2.550000 5.340000 4.416730
v -2.641924 5.416152 4.575946
v -3.586540 5.600000 3.983256
v -3.535584 5.783848 3.926664
v -3.412566 5.860000 3.790039
v -3.289548 5.783848 3.653413
v -3.238592 5.600000 3.596821
v -3.289548 5.416152 3.653413
v -3.412566 5.340000 3.790039
v -3.535584 5.416152 3.926664
v -4.336331 5.600000 3.150529
v -4.274723 5.783848 3.105768
v -4.125987 5.860000 2.997705
v -3.977251 5.783848 2.889642
v -3.915642 5.600000 2.844881
v -3.977251 5.416152 2.889642
v -4.125987 5.340000 2.997705
v -4.274723 5.416152 3.105768
v -4.896604 5.600000 2.180108
v -4.827035 5.783848 2.149135
v -4.659082 5.860000 2.074357
v -4.491129 5.783848 1.999579
v -4.421560 5.600000 1.968605
v -4.491129 5.416152 1.999579
v -4.659082 5.340000 2.074357
v -4.827035 5.416152 2.149135
v -5.242871 5.600000 1.114407
v -5.168383 5.783848 1.098574
v -4.988553 5.860000 1.060350
v -4.808723 5.783848 1.022126
v -4.734234 5.600000 1.006293
v -4.808723 5.416152 1.022126
v -4.988553 5.340000 1.060350
v -5.168383 5.416152 1.098574
v -5.360000 5.600000 0.000000
v -5.283848 5.783848 0.000000
v -5.100000 5.860000 0.000000
v -4.916152 5.783848 0.000000
v -4.840000 5.600000 0.000000
v -4.916152 5.416152 0.000000
v -5.100000 5.340000 0.000000
v -5.283848 5.416152 0.000000
v -5.242871 5.600000 -1.114407
v -5.168383 5.783848 -1.098574
v -4.988553 5.860000 -1.060350
v -4.808723 5.783848 -1.022126
v -4.734234 5.600000 -1.006293
v -4.808723 5.416152 -1.022126
v -4.988553 5.340000 -1.060350
v -5.168383 5.416152 -1.098574
v -4.896604 5.600000 -2.180108
v -4.827035 5.783848 -2.149135
v -4.659082 5.860000 -2.074357
v -4.491129 5.783848 -1.999579
v -4.421560 5.600000 -1.968605
v -4.491129 5.416152 -1.999579
v -4.659082 5.340000 -2.074357
v -4.827035 5.416152 -2.149135
v -4.336331 5.600000 -3.150529
v -4.274723 5.783848 -3.105768
v -4.125987 5.860000 -2.997705
v -3.977251 5.783848 -2.889642
v -3.915642 5.600000 -2.844881
v -3.977251 5.416152 -2.889642
v -4.125987 5.340000 -2.997705
v -4.274723 5.416152 -3.105768
v -3.586540 5.600000 -3.983256
v -3.535584 5.783848 -3.926664
v -3.412566 5.860000 -3.790039
v -3.289548 5.783848 -3.653413
v -3.238592 5.600000 -3.596821
v -3.289548 5.416152 -3.653413
v -3.412566 5.340000 -3.790039
v -3.535584 5.416152 -3.926664
v -2.680000 5.600000 -4.641896
v -2.641924 5.783848 -4.575946
v -2.550000 5.860000 -4.416730
v -2.458076 5.783848 -4.257513
v -2.420000 5.600000 -4.191563
v -2.458076 5.416152 -4.257513
v -2.550000 5.340000 -4.416730
v -2.641924 5.416152 -4.575946
v -1.656331 5.600000 -5.097663
v -1.632799 5.783848 -5.025238
v -1.575987 5.860000 -4.850388
v -1.519175 5.783848 -4.675539
v -1.495642 5.600000 -4.603114
v -1.519175 5.416152 -4.675539
v -1.575987 5.340000 -4.850388
v -1.632799 5.416152 -5.025238
v -0.560273 5.600000 -5.330637
v -0.552312 5.783848 -5.254902
v -0.533095 5.860000 -5.072062
v -0.513878 5.783848 -4.889221
v -0.505918 5.600000 -4.813486
v -0.513878 5.416152 -4.889221
v -0.533095 5.340000 -5.072062
v -0.552312 5.416152 -5.254902
v 0.560273 5.600000 -5.330637
v 0.552312 5.783848 -5.254902
v 0.533095 5.860000 -5.072062
v 0.513878 5.783848 -4.889221
v 0.505918 5.600000 -4.813486
v 0.513878 5.416152 -4.889221
v 0.533095 5.340000 -5.072062
v 0.552312 5.416152 -5.254902
v 1.656331 5.600000 -5.097663
v 1.632799 5.783848 -5.025238
v 1.575987 5.860000 -4.850388
v 1.519175 5.783848 -4.675539
v 1.495642 5.600000 -4.603114
v 1.519175 5.416152 -4.675539
v 1.575987 5.340000 -4.850388
v 1.632799 5.416152 -5.025238
v 2.680000 5.600000 -4.641896
v 2.641924 5.783848 -4.575946
v 2.550000 5.860000 -4.416730
v 2.458076 5.783848 -4.257513
v 2.420000 5.600000 -4.191563
v 2.458076 5.416152 -4.257513
v 2.550000 5.340000 -4.416730
v 2.641924 5.416152 -4.575946
v 3.586540 5.600000 -3.983256
v 3.535584 5.783848 -3.926664
v 3.412566 5.860000 -3.790039
v 3.289548 5.783848 -3.653413
v 3.238592 5.600000 -3.596821
v 3.289548 5.416152 -3.653413
v 3.412566 5.340000 -3.790039
v 3.535584 5.416152 -3.926664
v 4.336331 5.600000 -3.150529
v 4.274723 5.783848 -3.105768
v 4.125987 5.860000 -2.997705
v 3.977251 5.783848 -2.889642
v 3.915642 5.600000 -2.844881
v 3.977251 5.416152 -2.889642
v 4.125987 5.340000 -2.997705
v 4.274723 5.416152 -3.105768
v 4.896604 5.600000 -2.180108
v 4.827035 5.783848 -2.149135
v 4.659082 5.860000 -2.074357
v 4.491129 5.783848 -1.999579
v 4.421560 5.600000 -1.968605
v 4.491129 5.416152 -1.999579
v 4.659082 5.340000 -2.074357
v 4.827035 5.416152 -2.149135
v 5.242871 5.600000 -1.114407
v 5.168383 5.783848 -1.098574
v 4.988553 5.860000 -1.060350
v 4.808723 5.783848 -1.022126
v 4.734234 5.600000 -1.006293
v 4.808723 5.416152 -1.022126
v 4.988553 5.340000 -1.060350
v 5.168383 5.416152 -1.098574
usemtl gold
f 233 241 242 234
f 234 242 243 235
f 235 243 244 236
f 236 244 245 237
f 237 245 246 238
f 238 246 247 239
f 239 247 248 240
f 240 248 241 233
f 241 249 250 242
f 242 250 251 243
f 243 251 252 244
f 244 252 253 245
f 245 253 254 246
f 246 254 255 247
f 247 255 256 248
f 248 256 249 241
f 249 257 258 250
f 250 258 259 251
f 251 259 260 252
f 252 260 261 253
f 253 261 262 254
f 254 262 263 255
f 255 263 264 256
f 256 264 257 249
f 257 265 266 258
f 258 266 267 259
f 259 267 268 260
f 260 268 269 261
f 261 269 270 262
f 262 270 271 263
f 263 271 272 264
f 264 272 265 257
f 265 273 274 266
f 266 274 275 267
f 267 275 276 268
f 268 276 277 269
f 269 277 278 270
f 270 278 279 271
f 271 279 280 272
f 272 280 273 265
f 273 281 282 274
f 274 282 283 275
f 275 283 284 276
f 276 284 285 277
f 277 285 286 278
f 278 286 287 279
f 279 287 288 280
f 280 288 281 273
f 281 289 290 282
f 282 290 291 283
f 283 291 292 284
f 284 292 293 285
f 285 293 294 286
f 286 294 295 287
f 287 295 296 288
f 288 296 289 281
f 289 297 298 290
f 290 298 299 291
f 291 299 300 292
f 292 300 301 293
f 293 301 302 294
f 294 302 303 295
f 295 303 304 296
f 296 304 297 289
f 297 305 306 298
f 298 306 307 299
f 299 307 308 300
f 300 308 309 301
f 301 309 310 302
f 302 310 311 303
f 303 311 312 304
f 304 312 305 297
f 305 313 314 306
f 306 314 315 307
f 307 315 316 308
f 308 316 317 309
f 309 317 318 310
f 310 318 319 311
f 311 319 320 312
f 312 320 313 305
f 313 321 322 314
f 314 322 323 315
f 315 323 324 316
f 316 324 325 317
f 317 325 326 318
f 318 326 327 319
f 319 327 328 320
f 320 328 321 313
f 321 329 330 322
f 322 330 331 323
f 323 331 332 324
f 324 332 333 325
f 325 333 334 326
f 326 334 335 327
f 327 335 336 328
f 328 336 329 321
f 329 337 338 330
f 330 338 339 331
f 331 339 340 332
f 332 340 341 333
f 333 341 342 334
f 334 342 343 335
f 335 343 344 336
f 336 344 337 329
f 337 345 346 338
f 338 346 347 339
f 339 347 348 340
f 340 348 349 341
f 341 349 350 342
f 342 350 351 343
f 343 351 352 344
f 344 352 345 337
f 345 353 354 346
f 346 354 355 347
f 347 355 356 348
f 348 356 357 349
f 349 357 358 350
f 350 358 359 351
f 351 359 360 352
f 352 360 353 345
f 353 361 362 354
f 354 362 363 355
f 355 363 364 356
f 356 364 365 357
f 357 365 366 358
f 358 366 367 359
f 359 367 368 360
f 360 368 361 353
f 361 369 370 362
f 362 370 371 363
f 363 371 372 364
f 364 372 373 365
f 365 373 374 366
f 366 374 375 367
f 367 375 376 368
f 368 376 369 361
f 369 377 378 370
f 370 378 379 371
f 371 379 380 372
f 372 380 381 373
f 373 381 382 374
f 374 382 383 375
f 375 383 384 376
f 376 384 377 369
f 377 385 386 378
f 378 386 387 379
f 379 387 388 380
f 380 388 389 381
f 381 389 390 382
f 382 390 391 383
f 383 391 392 384
f 384 392 385 377
f 385 393 394 386
f 386 394 395 387
f 387 395 396 388
f 388 396 397 389
f 389 397 398 390
f 390 398 399 391
f 391 399 400 392
f 392 400 393 385
f 393 401 402 394
f 394 402 403 395
f 395 403 404 396
f 396 404 405 397
f 397 405 406 398
f 398 406 407 399
f 399 407 408 400
f 400 408 401 393
f 401 409 410 402
f 402 410 411 403
f 403 411 412 404
f 404 412 413 405
f 405 413 414 406
f 406 414 415 407
f 407 415 416 408
f 408 416 409 401
f 409 417 418 410
f 410 418 419 411
f 411 419 420 412
f 412 420 421 413
f 413 421 422 414
f 414 422 423 415
f 415 423 424 416
f 416 424 417 409
f 417 425 426 418
f 418 426 427 419
f 419 427 428 420
f 420 428 429 421
f 421 429 430 422
f 422 430 431 423
f 423 431 432 424
f 424 432 425 417
f 425 433 434 426
f 426 434 435 427
f 427 435 436 428
f 428 436 437 429
f 429 437 438 430
f 430 438 439 431
f 431 439 440 432
f 432 440 433 425
f 433 441 442 434
f 434 442 443 435
f 435 443 444 436
f 436 444 445 437
f 437 445 446 438
f 438 446 447 439
f 439 447 448 440
f 440 448 441 433
f 441 449 450 442
f 442 450 451 443
f 443 451 452 444
f 444 452 453 445
f 445 453 454 446
f 446 454 455 447
f 447 455 456 448
f 448 456 449 441
f 449 457 458 450
f 450 458 459 451
f 451 459 460 452
f 452 460 461 453
f 453 461 462 454
f 454 462 463 455
f 455 463 464 456
f 456 464 457 449
f 457 465 466 458
f 458 466 467 459
f 459 467 468 460
f 460 468 469 461
f 461 469 470 462
f 462 470 471 463
f 463 471 472 464
f 464 472 465 457
f 465 233 234 466
f 466 234 235 467
f 467 235 236 468
f 468 236 237 469
f 469 237 238 470
f 470 238 239 471
f 471 239 240 472
f 472 240 233 465
v 4.690000 10.800000 0.000000
v 4.619706 10.969706 0.000000
v 4.450000 11.040000 0.000000
v 4.280294 10.969706 0.000000
v 4.210000 10.800000 0.000000
v 4.280294 10.630294 0.000000
v 4.450000 10.560000 0.000000
v 4.619706 10.630294 0.000000
v 4.587512 10.800000 0.975106
v 4.518754 10.969706 0.960491
v 4.352757 11.040000 0.925207
v 4.186760 10.969706 0.889923
v 4.118001 10.800000 0.875308
v 4.186760 10.630294 0.889923
v 4.352757 10.560000 0.925207
v 4.518754 10.630294 0.960491
v 4.284528 10.800000 1.907595
v 4.220311 10.969706 1.879004
v 4.065277 11.040000 1.809978
v 3.910243 10.969706 1.740953
v 3.846026 10.800000 1.712361
v 3.910243 10.630294 1.740953
v 4.065277 10.560000 1.809978
v 4.220311 10.630294 1.879004
v 3.794290 10.800000 2.756713
v 3.737420 10.969706 2.715395
v 3.600126 11.040000 2.615644
v 3.462831 10.969706 2.515894
v 3.405962 10.800000 2.474576
v 3.462831 10.630294 2.515894
v 3.600126 10.560000 2.615644
v 3.737420 10.630294 2.715395
v 3.138223 10.800000 3.485349
v 3.091186 10.969706 3.433110
v 2.977631 11.040000 3.306994
v 2.864076 10.969706 3.180879
v 2.817040 10.800000 3.128640
v 2.864076 10.630294 3.180879
v 2.977631 10.560000 3.306994
v 3.091186 10.630294 3.433110
v 2.345000 10.800000 4.061659
v 2.309853 10.969706 4.000782
v 2.225000 11.040000 3.853813
v 2.140147 10.969706 3.706844
v 2.105000 10.800000 3.645967
v 2.140147 10.630294 3.706844
v 2.225000 10.560000 3.853813
v 2.309853 10.630294 4.000782
v 1.449290 10.800000 4.460455
v 1.427568 10.969706 4.393601
v 1.375126 11.040000 4.232201
v 1.322684 10.969706 4.070802
v 1.300962 10.800000 4.003948
v 1.322684 10.630294 4.070802
v 1.375126 10.560000 4.232201
v 1.427568 10.630294 4.393601
v 0.490238 10.800000 4.664308
v 0.482891 10.969706 4.594398
v 0.465152 11.040000 4.425622
v 0.447413 10.969706 4.256846
v 0.440065 10.800000 4.186937
v 0.447413 10.630294 4.256846
v 0.465152 10.560000 4.425622
v 0.482891 10.630294 4.594398
v -0.490238 10.800000 4.664308
v -0.482891 10.969706 4.594398
v -0.465152 11.040000 4.425622
v -0.447413 10.969706 4.256846
v -0.440065 10.800000 4.186937
v -0.447413 10.630294 4.256846
v -0.465152 10.560000 4.425622
v -0.482891 10.630294 4.594398
v -1.449290 10.800000 4.460455
v -1.427568 10.969706 4.393601
v -1.375126 11.040000 4.232201
v -1.322684 10.969706 4.070802
v -1.300962 10.800000 4.003948
v -1.322684 10.630294 4.070802
v -1.375126 10.560000 4.232201
v -1.427568 10.630294 4.393601
v -2.345000 10.800000 4.061659
v -2.309853 10.969706 4.000782
v -2.225000 11.040000 3.853813
v -2.140147 10.969706 3.706844
v -2.105000 10.800000 3.645967
v -2.140147 10.630294 3.706844
v -2.225000 10.560000 3.853813
v -2.309853 10.630294 4.000782
v -3.138223 10.800000 3.485349
v -3.091186 10.969706 3.433110
v -2.977631 11.040000 3.306994
v -2.864076 10.969706 3.180879
v -2.817040 10.800000 3.128640
v -2.864076 10.630294 3.180879
v -2.977631 10.560000 3.306994
v -3.091186 10.630294 3.433110
v -3.794290 10.800000 2.756713
v -3.737420 10.969706 2.715395
v -3.600126 11.040000 2.615644
v -3.462831 10.969706 2.515894
v -3.405962 10.800000 2.474576
v -3.462831 10.630294 2.515894
v -3.600126 10.560000 2.615644
v -3.737420 10.630294 2.715395
v -4.284528 10.800000 1.907595
v -4.220311 10.969706 1.879004
v -4.065277 11.040000 1.809978
v -3.910243 10.969706 1.740953
v -3.846026 10.800000 1.712361
v -3.910243 10.630294 1.740953
v -4.065277 10.560000 1.809978
v -4.220311 10.630294 1.879004
v -4.587512 10.800000 0.975106
v -4.518754 10.969706 0.960491
v -4.352757 11.040000 0.925207
v -4.186760 10.969706 0.889923
v -4.118001 10.800000 0.875308
v -4.186760 10.630294 0.889923
v -4.352757 10.560000 0.925207
v -4.518754 10.630294 0.960491
v -4.690000 10.800000 0.000000
v -4.619706 10.969706 0.000000
v -4.450000 11.040000 0.000000
v -4.280294 10.969706 0.000000
v -4.210000 10.800000 0.000000
v -4.280294 10.630294 0.000000
v -4.450000 10.560000 0.000000
v -4.619706 10.630294 0.000000
v -4.587512 10.800000 -0.975106
v -4.518754 10.969706 -0.960491
v -4.352757 11.040000 -0.925207
v -4.186760 10.969706 -0.889923
v -4.118001 10.800000 -0.875308
v -4.186760 10.630294 -0.889923
v -4.352757 10.560000 -0.925207
v -4.518754 10.630294 -0.960491
v -4.284528 10.800000 -1.907595
v -4.220311 10.969706 -1.879004
v -4.065277 11.040000 -1.809978
v -3.910243 10.969706 -1.740953
v -3.846026 10.800000 -1.712361
v -3.910243 10.630294 -1.740953
v -4.065277 10.560000 -1.809978
v -4.220311 10.630294 -1.879004
v -3.794290 10.800000 -2.756713
v -3.737420 10.969706 -2.715395
v -3.600126 11.040000 -2.615644
v -3.462831 10.969706 -2.515894
v -3.405962 10.800000 -2.474576
v -3.462831 10.630294 -2.515894
v -3.600126 10.560000 -2.615644
v -3.737420 10.630294 -2.715395
v -3.138223 10.800000 -3.485349
v -3.091186 10.969706 -3.433110
v -2.977631 11.040000 -3.306994
v -2.864076 10.969706 -3.180879
v -2.817040 10.800000 -3.128640
v -2.864076 10.630294 -3.180879
v -2.977631 10.560000 -3.306994
v -3.091186 10.630294 -3.433110
v -2.345000 10.800000 -4.061659
v -2.309853 10.969706 -4.000782
v -2.225000 11.040000 -3.853813
v -2.140147 10.969706 -3.706844
v -2.105000 10.800000 -3.645967
v -2.140147 10.630294 -3.706844
v -2.225000 10.560000 -3.853813
v -2.309853 10.630294 -4.000782
v -1.449290 10.800000 -4.460455
v -1.427568 10.969706 -4.393601
v -1.375126 11.040000 -4.232201
v -1.322684 10.969706 -4.070802
v -1.300962 10.800000 -4.003948
v -1.322684 10.630294 -4.070802
v -1.375126 10.560000 -4.232201
v -1.427568 10.630294 -4.393601
v -0.490238 10.800000 -4.664308
v -0.482891 10.969706 -4.594398
v -0.465152 11.040000 -4.425622
v -0.447413 10.969706 -4.256846
v -0.440065 10.800000 -4.186937
v -0.447413 10.630294 -4.256846
v -0.465152 10.560000 -4.425622
v -0.482891 10.630294 -4.594398
v 0.490238 10.800000 -4.664308
v 0.482891 10.969706 -4.594398
v 0.465152 11.040000 -4.425622
v 0.447413 10.969706 -4.256846
v 0.440065 10.800000 -4.186937
v 0.447413 10.630294 -4.256846
v 0.465152 10.560000 -4.425622
v 0.482891 10.630294 -4.594398
v 1.449290 10.800000 -4.460455
v 1.427568 10.969706 -4.393601
v 1.375126 11.040000 -4.232201
v 1.322684 10.969706 -4.070802
v 1.300962 10.800000 -4.003948
v 1.322684 10.630294 -4.070802
v 1.375126 10.560000 -4.232201
v 1.427568 10.630294 -4.393601
v 2.345000 10.800000 -4.061659
v 2.309853 10.969706 -4.000782
v 2.225000 11.040000 -3.853813
v 2.140147 10.969706 -3.706844
v 2.105000 10.800000 -3.645967
v 2.140147 10.630294 -3.706844
v 2.225000 10.560000 -3.853813
v 2.309853 10.630294 -4.000782
v 3.138223 10.800000 -3.485349
v 3.091186 10.969706 -3.433110
v 2.977631 11.040000 -3.306994
v 2.864076 10.969706 -3.180879
v 2.817040 10.800000 -3.128640
v 2.864076 10.630294 -3.180879
v 2.977631 10.560000 -3.306994
v 3.091186 10.630294 -3.433110
v 3.794290 10.800000 -2.756713
v 3.737420 10.969706 -2.715395
v 3.600126 11.040000 -2.615644
v 3.462831 10.969706 -2.515894
v 3.405962 10.800000 -2.474576
v 3.462831 10.630294 -2.515894
v 3.600126 10.560000 -2.615644
v 3.737420 10.630294 -2.715395
v 4.284528 10.800000 -1.907595
v 4.220311 10.969706 -1.879004
v 4.065277 11.040000 -1.809978
v 3.910243 10.969706 -1.740953
v 3.846026 10.800000 -1.712361
v 3.910243 10.630294 -1.740953
v 4.065277 10.560000 -1.809978
v 4.220311 10.630294 -1.879004
v 4.587512 10.800000 -0.975106
v 4.518754 10.969706 -0.960491
v 4.352757 11.040000 -0.925207
v 4.186760 10.969706 -0.889923
v 4.118001 10.800000 -0.875308
v 4.186760 10.630294 -0.889923
v 4.352757 10.560000 -0.925207
v 4.518754 10.630294 -0.960491
usemtl aqua
f 473 481 482 474
f 474 482 483 475
f 475 483 484 476
f 476 484 485 477
f 477 485 486 478
f 478 486 487 479
f 479 487 488 480
f 480 488 481 473
f 481 489 490 482
f 482 490 491 483
f 483 491 492 484
f 484 492 493 485
f 485 493 494 486
f 486 494 495 487
f 487 495 496 488
f 488 496 489 481
f 489 497 498 490
f 490 498 499 491
f 491 499 500 492
f 492 500 501 493
f 493 501 502 494
f 494 502 503 495
f 495 503 504 496
f 496 504 497 489
f 497 505 506 498
f 498 506 507 499
f 499 507 508 500
f 500 508 509 501
f 501 509 510 502
f 502 510 511 503
f 503 511 512 504
f 504 512 505 497
f 505 513 514 506
f 506 514 515 507
f 507 515 516 508
f 508 516 517 509
f 509 517 518 510
f 510 518 519 511
f 511 519 520 512
f 512 520 513 505
f 513 521 522 514
f 514 522 523 515
f 515 523 524 516
f 516 524 525 517
f 517 525 526 518
f 518 526 527 519
f 519 527 528 520
f 520 528 521 513
f 521 529 530 522
f 522 530 531 523
f 523 531 532 524
f 524 532 533 525
f 525 533 534 526
f 526 534 535 527
f 527 535 536 528
f 528 536 529 521
f 529 537 538 530
f 530 538 539 531
f 531 539 540 532
f 532 540 541 533
f 533 541 542 534
f 534 542 543 535
f 535 543 544 536
f 536 544 537 529
f 537 545 546 538
f 538 546 547 539
f 539 547 548 540
f 540 548 549 541
f 541 549 550 542
f 542 550 551 543
f 543 551 552 544
f 544 552 545 537
f 545 553 554 546
f 546 554 555 547
f 547 555 556 548
f 548 556 557 549
f 549 557 558 550
f 550 558 559 551
f 551 559 560 552
f 552 560 553 545
f 553 561 562 554
f 554 562 563 555
f 555 563 564 556
f 556 564 565 557
f 557 565 566 558
f 558 566 567 559
f 559 567 568 560
f 560 568 561 553
f 561 569 570 562
f 562 570 571 563
f 563 571 572 564
f 564 572 573 565
f 565 573 574 566
f 566 574 575 567
f 567 575 576 568
f 568 576 569 561
f 569 577 578 570
f 570 578 579 571
f 571 579 580 572
f 572 580 581 573
f 573 581 582 574
f 574 582 583 575
f 575 583 584 576
f 576 584 577 569
f 577 585 586 578
f 578 586 587 579
f 579 587 588 580
f 580 588 589 581
f 581 589 590 582
f 582 590 591 583
f 583 591 592 584
f 584 592 585 577
f 585 593 594 586
f 586 594 595 587
f 587 595 596 588
f 588 596 597 589
f 589 597 598 590
f 590 598 599 591
f 591 599 600 592
f 592 600 593 585
f 593 601 602 594
f 594 602 603 595
f 595 603 604 596
f 596 604 605 597
f 597 605 606 598
f 598 606 607 599
f 599 607 608 600
f 600 608 601 593
f 601 609 610 602
f 602 610 611 603
f 603 611 612 604
f 604 612 613 605
f 605 613 614 606
f 606 614 615 607
f 607 615 616 608
f 608 616 609 601
f 609 617 618 610
f 610 618 619 611
f 611 619 620 612
f 612 620 621 613
f 613 621 622 614
f 614 622 623 615
f 615 623 624 616
f 616 624 617 609
f 617 625 626 618
f 618 626 627 619
f 619 627 628 620
f 620 628 629 621
f 621 629 630 622
f 622 630 631 623
f 623 631 632 624
f 624 632 625 617
f 625 633 634 626
f 626 634 635 627
f 627 635 636 628
f 628 636 637 629
f 629 637 638 630
f 630 638 639 631
f 631 639 640 632
f 632 640 633 625
f 633 641 642 634
f 634 642 643 635
f 635 643 644 636
f 636 644 645 637
f 637 645 646 638
f 638 646 647 639
f 639 647 648 640
f 640 648 641 633
f 641 649 650 642
f 642 650 651 643
f 643 651 652 644
f 644 652 653 645
f 645 653 654 646
f 646 654 655 647
f 647 655 656 648
f 648 656 649 641
f 649 657 658 650
f 650 658 659 651
f 651 659 660 652
f 652 660 661 653
f 653 661 662 654
f 654 662 663 655
f 655 663 664 656
f 656 664 657 649
f 657 665 666 658
f 658 666 667 659
f 659 667 668 660
f 660 668 669 661
f 661 669 670 662
f 662 670 671 663
f 663 671 672 664
f 664 672 665 657
f 665 673 674 666
f 666 674 675 667
f 667 675 676 668
f 668 676 677 669
f 669 677 678 670
f 670 678 679 671
f 671 679 680 672
f 672 680 673 665
f 673 681 682 674
f 674 682 683 675
f 675 683 684 676
f 676 684 685 677
f 677 685 686 678
f 678 686 687 679
f 679 687 688 680
f 680 688 681 673
f 681 689 690 682
f 682 690 691 683
f 683 691 692 684
f 684 692 693 685
f 685 693 694 686
f 686 694 695 687
f 687 695 696 688
f 688 696 689 681
f 689 697 698 690
f 690 698 699 691
f 691 699 700 692
f 692 700 701 693
f 693 701 702 694
f 694 702 703 695
f 695 703 704 696
f 696 704 697 689
f 697 705 706 698
f 698 706 707 699
f 699 707 708 700
f 700 708 709 701
f 701 709 710 702
f 702 710 711 703
f 703 711 712 704
f 704 712 705 697
f 705 473 474 706
f 706 474 475 707
f 707 475 476 708
f 708 476 477 709
f 709 477 478 710
f 710 478 479 711
f 711 479 480 712
f 712 480 473 705
v 3.970000 15.600000 0.000000
v 3.905563 15.755563 0.000000
v 3.750000 15.820000 0.000000
v 3.594437 15.755563 0.000000
v 3.530000 15.600000 0.000000
v 3.594437 15.444437 0.000000
v 3.750000 15.380000 0.000000
v 3.905563 15.444437 0.000000
v 3.883246 15.600000 0.825409
v 3.820218 15.755563 0.812012
v 3.668054 15.820000 0.779669
v 3.515889 15.755563 0.747325
v 3.452861 15.600000 0.733928
v 3.515889 15.444437 0.747325
v 3.668054 15.380000 0.779669
v 3.820218 15.444437 0.812012
v 3.626775 15.600000 1.614744
v 3.567910 15.755563 1.588536
v 3.425795 15.820000 1.525262
v 3.283681 15.755563 1.461989
v 3.224815 15.600000 1.435780
v 3.283681 15.444437 1.461989
v 3.425795 15.380000 1.525262
v 3.567910 15.444437 1.588536
v 3.211797 15.600000 2.333507
v 3.159667 15.755563 2.295633
v 3.033814 15.820000 2.204195
v 2.907960 15.755563 2.112757
v 2.855830 15.600000 2.074882
v 2.907960 15.444437 2.112757
v 3.033814 15.380000 2.204195
v 3.159667 15.444437 2.295633
v 2.656449 15.600000 2.950285
v 2.613332 15.755563 2.902399
v 2.509240 15.820000 2.786793
v 2.405147 15.755563 2.671187
v 2.362031 15.600000 2.623301
v 2.405147 15.444437 2.671187
v 2.509240 15.380000 2.786793
v 2.613332 15.444437 2.902399
v 1.985000 15.600000 3.438121
v 1.952782 15.755563 3.382317
v 1.875000 15.820000 3.247595
v 1.797218 15.755563 3.112873
v 1.765000 15.600000 3.057070
v 1.797218 15.444437 3.112873
v 1.875000 15.380000 3.247595
v 1.952782 15.444437 3.382317
v 1.226797 15.600000 3.775694
v 1.206885 15.755563 3.714412
v 1.158814 15.820000 3.566462
v 1.110742 15.755563 3.418512
v 1.090830 15.600000 3.357230
v 1.110742 15.444437 3.418512
v 1.158814 15.380000 3.566462
v 1.206885 15.444437 3.714412
v 0.414978 15.600000 3.948252
v 0.408243 15.755563 3.884168
v 0.391982 15.820000 3.729457
v 0.375721 15.755563 3.574746
v 0.368985 15.600000 3.510662
v 0.375721 15.444437 3.574746
v 0.391982 15.380000 3.729457
v 0.408243 15.444437 3.884168
v -0.414978 15.600000 3.948252
v -0.408243 15.755563 3.884168
v -0.391982 15.820000 3.729457
v -0.375721 15.755563 3.574746
v -0.368985 15.600000 3.510662
v -0.375721 15.444437 3.574746
v -0.391982 15.380000 3.729457
v -0.408243 15.444437 3.884168
v -1.226797 15.600000 3.775694
v -1.206885 15.755563 3.714412
v -1.158814 15.820000 3.566462
v -1.110742 15.755563 3.418512
v -1.090830 15.600000 3.357230
v -1.110742 15.444437 3.418512
v -1.158814 15.380000 3.566462
v -1.206885 15.444437 3.714412
v -1.985000 15.600000 3.438121
v -1.952782 15.755563 3.382317
v -1.875000 15.820000 3.247595
v -1.797218 15.755563 3.112873
v -1.765000 15.600000 3.057070
v -1.797218 15.444437 3.112873
v -1.875000 15.380000 3.247595
v -1.952782 15.444437 3.382317
v -2.656449 15.600000 2.950285
v -2.613332 15.755563 2.902399
v -2.509240 15.820000 2.786793
v -2.405147 15.755563 2.671187
v -2.362031 15.600000 2.623301
v -2.405147 15.444437 2.671187
v -2.509240 15.380000 2.786793
v -2.613332 15.444437 2.902399
v -3.211797 15.600000 2.333507
v -3.159667 15.755563 2.295633
v -3.033814 15.820000 2.204195
v -2.907960 15.755563 2.112757
v -2.855830 15.600000 2.074882
v -2.907960 15.444437 2.112757
v -3.033814 15.380000 2.204195
v -3.159667 15.444437 2.295633
v -3.626775 15.600000 1.614744
v -3.567910 15.755563 1.588536
v -3.425795 15.820000 1.525262
v -3.283681 15.755563 1.461989
v -3.224815 15.600000 1.435780
v -3.283681 15.444437 1.461989
v -3.425795 15.380000 1.525262
v -3.567910 15.444437 1.588536
v -3.883246 15.600000 0.825409
v -3.820218 15.755563 0.812012
v -3.668054 15.820000 0.779669
v -3.515889 15.755563 0.747325
v -3.452861 15.600000 0.733928
v -3.515889 15.444437 0.747325
v -3.668054 15.380000 0.779669
v -3.820218 15.444437 0.812012
v -3.970000 15.600000 0.000000
v -3.905563 15.755563 0.000000
v -3.750000 15.820000 0.000000
v -3.594437 15.755563 0.000000
v -3.530000 15.600000 0.000000
v -3.594437 15.444437 0.000000
v -3.750000 15.380000 0.000000
v -3.905563 15.444437 0.000000
v -3.883246 15.600000 -0.825409
v -3.820218 15.755563 -0.812012
v -3.668054 15.820000 -0.779669
v -3.515889 15.755563 -0.747325
v -3.452861 15.600000 -0.733928
v -3.515889 15.444437 -0.747325
v -3.668054 15.380000 -0.779669
v -3.820218 15.444437 -0.812012
v -3.626775 15.600000 -1.614744
v -3.567910 15.755563 -1.588536
v -3.425795 15.820000 -1.525262
v -3.283681 15.755563 -1.461989
v -3.224815 15.600000 -1.435780
v -3.283681 15.444437 -1.461989
v -3.425795 15.380000 -1.525262
v -3.567910 15.444437 -1.588536
v -3.211797 15.600000 -2.333507
v -3.159667 15.755563 -2.295633
v -3.033814 15.820000 -2.204195
v -2.907960 15.755563 -2.112757
v -2.855830 15.600000 -2.074882
v -2.907960 15.444437 -2.112757
v -3.033814 15.380000 -2.204195
v -3.159667 15.444437 -2.295633
v -2.656449 15.600000 -2.950285
v -2.613332 15.755563 -2.902399
v -2.509240 15.820000 -2.786793
v -2.405147 15.755563 -2.671187
v -2.362031 15.600000 -2.623301
v -2.405147 15.444437 -2.671187
v -2.509240 15.380000 -2.786793
v -2.613332 15.444437 -2.902399
v -1.985000 15.600000 -3.438121
v -1.952782 15.755563 -3.382317
v -1.875000 15.820000 -3.247595
v -1.797218 15.755563 -3.112873
v -1.765000 15.600000 -3.057070
v -1.797218 15.444437 -3.112873
v -1.875000 15.380000 -3.247595
v -1.952782 15.444437 -3.382317
v -1.226797 15.600000 -3.775694
v -1.206885 15.755563 -3.714412
v -1.158814 15.820000 -3.566462
v -1.110742 15.755563 -3.418512
v -1.090830 15.600000 -3.357230
v -1.110742 15.444437 -3.418512
v -1.158814 15.380000 -3.566462
v -1.206885 15.444437 -3.714412
v -0.414978 15.600000 -3.948252
v -0.408243 15.755563 -3.884168
v -0.391982 15.820000 -3.729457
v -0.375721 15.755563 -3.574746
v -0.368985 15.600000 -3.510662
v -0.375721 15.444437 -3.574746
v -0.391982 15.380000 -3.729457
v -0.408243 15.444437 -3.884168
v 0.414978 15.600000 -3.948252
v 0.408243 15.755563 -3.884168
v 0.391982 15.820000 -3.729457
v 0.375721 15.755563 -3.574746
v 0.368985 15.600000 -3.510662
v 0.375721 15.444437 -3.574746
v 0.391982 15.380000 -3.729457
v 0.408243 15.444437 -3.884168
v 1.226797 15.600000 -3.775694
v 1.206885 15.755563 -3.714412
v 1.158814 15.820000 -3.566462
v 1.110742 15.755563 -3.418512
v 1.090830 15.600000 -3.357230
v 1.110742 15.444437 -3.418512
v 1.158814 15.380000 -3.566462
v 1.206885 15.444437 -3.714412
v 1.985000 15.600000 -3.438121
v 1.952782 15.755563 -3.382317
v 1.875000 15.820000 -3.247595
v 1.797218 15.755563 -3.112873
v 1.765000 15.600000 -3.057070
v 1.797218 15.444437 -3.112873
v 1.875000 15.380000 -3.247595
v 1.952782 15.444437 -3.382317
v 2.656449 15.600000 -2.950285
v 2.613332 15.755563 -2.902399
v 2.509240 15.820000 -2.786793
v 2.405147 15.755563 -2.671187
v 2.362031 15.600000 -2.623301
v 2.405147 15.444437 -2.671187
v 2.509240 15.380000 -2.786793
v 2.613332 15.444437 -2.902399
v 3.211797 15.600000 -2.333507
v 3.159667 15.755563 -2.295633
v 3.033814 15.820000 -2.204195
v 2.907960 15.755563 -2.112757
v 2.855830 15.600000 -2.074882
v 2.907960 15.444437 -2.112757
v 3.033814 15.380000 -2.204195
v 3.159667 15.444437 -2.295633
v 3.626775 15.600000 -1.614744
v 3.567910 15.755563 -1.588536
v 3.425795 15.820000 -1.525262
v 3.283681 15.755563 -1.461989
v 3.224815 15.600000 -1.435780
v 3.283681 15.444437 -1.461989
v 3.425795 15.380000 -1.525262
v 3.567910 15.444437 -1.588536
v 3.883246 15.600000 -0.825409
v 3.820218 15.755563 -0.812012
v 3.668054 15.820000 -0.779669
v 3.515889 15.755563 -0.747325
v 3.452861 15.600000 -0.733928
v 3.515889 15.444437 -0.747325
v 3.668054 15.380000 -0.779669
v 3.820218 15.444437 -0.812012
usemtl gold
f 713 721 722 714
f 714 722 723 715
f 715 723 724 716
f 716 724 725 717
f 717 725 726 718
f 718 726 727 719
f 719 727 728 720
f 720 728 721 713
f 721 729 730 722
f 722 730 731 723
f 723 731 732 724
f 724 732 733 725
f 725 733 734 726
f 726 734 735 727
f 727 735 736 728
f 728 736 729 721
f 729 737 738 730
f 730 738 739 731
f 731 739 740 732
f 732 740 741 733
f 733 741 742 734
f 734 742 743 735
f 735 743 744 736
f 736 744 737 729
f 737 745 746 738
f 738 746 747 739
f 739 747 748 740
f 740 748 749 741
f 741 749 750 742
f 742 750 751 743
f 743 751 752 744
f 744 752 745 737
f 745 753 754 746
f 746 754 755 747
f 747 755 756 748
f 748 756 757 749
f 749 757 758 750
f 750 758 759 751
f 751 759 760 752
f 752 760 753 745
f 753 761 762 754
f 754 762 763 755
f 755 763 764 756
f 756 764 765 757
f 757 765 766 758
f 758 766 767 759
f 759 767 768 760
f 760 768 761 753
f 761 769 770 762
f 762 770 771 763
f 763 771 772 764
f 764 772 773 765
f 765 773 774 766
f 766 774 775 767
f 767 775 776 768
f 768 776 769 761
f 769 777 778 770
f 770 778 779 771
f 771 779 780 772
f 772 780 781 773
f 773 781 782 774
f 774 782 783 775
f 775 783 784 776
f 776 784 777 769
f 777 785 786 778
f 778 786 787 779
f 779 787 788 780
f 780 788 789 781
f 781 789 790 782
f 782 790 791 783
f 783 791 792 784
f 784 792 785 777
f 785 793 794 786
f 786 794 795 787
f 787 795 796 788
f 788 796 797 789
f 789 797 798 790
f 790 798 799 791
f 791 799 800 792
f 792 800 793 785
f 793 801 802 794
f 794 802 803 795
f 795 803 804 796
f 796 804 805 797
f 797 805 806 798
f 798 806 807 799
f 799 807 808 800
f 800 808 801 793
f 801 809 810 802
f 802 810 811 803
f 803 811 812 804
f 804 812 813 805
f 805 813 814 806
f 806 814 815 807
f 807 815 816 808
f 808 816 809 801
f 809 817 818 810
f 810 818 819 811
f 811 819 820 812
f 812 820 821 813
f 813 821 822 814
f 814 822 823 815
f 815 823 824 816
f 816 824 817 809
f 817 825 826 818
f 818 826 827 819
f 819 827 828 820
f 820 828 829 821
f 821 829 830 822
f 822 830 831 823
f 823 831 832 824
f 824 832 825 817
f 825 833 834 826
f 826 834 835 827
f 827 835 836 828
f 828 836 837 829
f 829 837 838 830
f 830 838 839 831
f 831 839 840 832
f 832 840 833 825
f 833 841 842 834
f 834 842 843 835
f 835 843 844 836
f 836 844 845 837
f 837 845 846 838
f 838 846 847 839
f 839 847 848 840
f 840 848 841 833
f 841 849 850 842
f 842 850 851 843
f 843 851 852 844
f 844 852 853 845
f 845 853 854 846
f 846 854 855 847
f 847 855 856 848
f 848 856 849 841
f 849 857 858 850
f 850 858 859 851
f 851 859 860 852
f 852 860 861 853
f 853 861 862 854
f 854 862 863 855
f 855 863 864 856
f 856 864 857 849
f 857 865 866 858
f 858 866 867 859
f 859 867 868 860
f 860 868 869 861
f 861 869 870 862
f 862 870 871 863
f 863 871 872 864
f 864 872 865 857
f 865 873 874 866
f 866 874 875 867
f 867 875 876 868
f 868 876 877 869
f 869 877 878 870
f 870 878 879 871
f 871 879 880 872
f 872 880 873 865
f 873 881 882 874
f 874 882 883 875
f 875 883 884 876
f 876 884 885 877
f 877 885 886 878
f 878 886 887 879
f 879 887 888 880
f 880 888 881 873
f 881 889 890 882
f 882 890 891 883
f 883 891 892 884
f 884 892 893 885
f 885 893 894 886
f 886 894 895 887
f 887 895 896 888
f 888 896 889 881
f 889 897 898 890
f 890 898 899 891
f 891 899 900 892
f 892 900 901 893
f 893 901 902 894
f 894 902 903 895
f 895 903 904 896
f 896 904 897 889
f 897 905 906 898
f 898 906 907 899
f 899 907 908 900
f 900 908 909 901
f 901 909 910 902
f 902 910 911 903
f 903 911 912 904
f 904 912 905 897
f 905 913 914 906
f 906 914 915 907
f 907 915 916 908
f 908 916 917 909
f 909 917 918 910
f 910 918 919 911
f 911 919 920 912
f 912 920 913 905
f 913 921 922 914
f 914 922 923 915
f 915 923 924 916
f 916 924 925 917
f 917 925 926 918
f 918 926 927 919
f 919 927 928 920
f 920 928 921 913
f 921 929 930 922
f 922 930 931 923
f 923 931 932 924
f 924 932 933 925
f 925 933 934 926
f 926 934 935 927
f 927 935 936 928
f 928 936 929 921
f 929 937 938 930
f 930 938 939 931
f 931 939 940 932
f 932 940 941 933
f 933 941 942 934
f 934 942 943 935
f 935 943 944 936
f 936 944 937 929
f 937 945 946 938
f 938 946 947 939
f 939 947 948 940
f 940 948 949 941
f 941 949 950 942
f 942 950 951 943
f 943 951 952 944
f 944 952 945 937
f 945 713 714 946
f 946 714 715 947
f 947 715 716 948
f 948 716 717 949
f 949 717 718 950
f 950 718 719 951
f 951 719 720 952
f 952 720 713 945
v 3.250000 20.000000 0.000000
v 3.191421 20.141421 0.000000
v 3.050000 20.200000 0.000000
v 2.908579 20.141421 0.000000
v 2.850000 20.000000 0.000000
v 2.908579 19.858579 0.000000
v 3.050000 19.800000 0.000000
v 3.191421 19.858579 0.000000
v 3.178980 20.000000 0.675713
v 3.121681 20.141421 0.663534
v 2.983350 20.200000 0.634131
v 2.845019 20.141421 0.604728
v 2.787721 20.000000 0.592548
v 2.845019 19.858579 0.604728
v 2.983350 19.800000 0.634131
v 3.121681 19.858579 0.663534
v 2.969023 20.000000 1.321894
v 2.915508 20.141421 1.298068
v 2.786314 20.200000 1.240547
v 2.657119 20.141421 1.183026
v 2.603605 20.000000 1.159199
v 2.657119 19.858579 1.183026
v 2.786314 19.800000 1.240547
v 2.915508 19.858579 1.298068
v 2.629305 20.000000 1.910302
v 2.581914 20.141421 1.875870
v 2.467502 20.200000 1.792745
v 2.353090 20.141421 1.709620
v 2.305698 20.000000 1.675188
v 2.353090 19.858579 1.709620
v 2.467502 19.800000 1.792745
v 2.581914 19.858579 1.875870
v 2.174674 20.000000 2.415221
v 2.135478 20.141421 2.371688
v 2.040848 20.200000 2.266592
v 1.946219 20.141421 2.161495
v 1.907022 20.000000 2.117963
v 1.946219 19.858579 2.161495
v 2.040848 19.800000 2.266592
v 2.135478 19.858579 2.371688
v 1.625000 20.000000 2.814583
v 1.595711 20.141421 2.763852
v 1.525000 20.200000 2.641377
v 1.454289 20.141421 2.518903
v 1.425000 20.000000 2.468172
v 1.454289 19.858579 2.518903
v 1.525000 19.800000 2.641377
v 1.595711 19.858579 2.763852
v 1.004305 20.000000 3.090934
v 0.986203 20.141421 3.035222
v 0.942502 20.200000 2.900722
v 0.898800 20.141421 2.766223
v 0.880698 20.000000 2.710511
v 0.898800 19.858579 2.766223
v 0.942502 19.800000 2.900722
v 0.986203 19.858579 3.035222
v 0.339718 20.000000 3.232196
v 0.333594 20.141421 3.173938
v 0.318812 20.200000 3.033292
v 0.304029 20.141421 2.892645
v 0.297906 20.000000 2.834387
v 0.304029 19.858579 2.892645
v 0.318812 19.800000 3.033292
v 0.333594 19.858579 3.173938
v -0.339718 20.000000 3.232196
v -0.333594 20.141421 3.173938
v -0.318812 20.200000 3.033292
v -0.304029 20.141421 2.892645
v -0.297906 20.000000 2.834387
v -0.304029 19.858579 2.892645
v -0.318812 19.800000 3.033292
v -0.333594 19.858579 3.173938
v -1.004305 20.000000 3.090934
v -0.986203 20.141421 3.035222
v -0.942502 20.200000 2.900722
v -0.898800 20.141421 2.766223
v -0.880698 20.000000 2.710511
v -0.898800 19.858579 2.766223
v -0.942502 19.800000 2.900722
v -0.986203 19.858579 3.035222
v -1.625000 20.000000 2.814583
v -1.595711 20.141421 2.763852
v -1.525000 20.200000 2.641377
v -1.454289 20.141421 2.518903
v -1.425000 20.000000 2.468172
v -1.454289 19.858579 2.518903
v -1.525000 19.800000 2.641377
v -1.595711 19.858579 2.763852
v -2.174674 20.000000 2.415221
v -2.135478 20.141421 2.371688
v -2.040848 20.200000 2.266592
v -1.946219 20.141421 2.161495
v -1.907022 20.000000 2.117963
v -1.946219 19.858579 2.161495
v -2.040848 19.800000 2.266592
v -2.135478 19.858579 2.371688
v -2.629305 20.000000 1.910302
v -2.581914 20.141421 1.875870
v -2.467502 20.200000 1.792745
v -2.353090 20.141421 1.709620
v -2.305698 20.000000 1.675188
v -2.353090 19.858579 1.709620
v -2.467502 19.800000 1.792745
v -2.581914 19.858579 1.875870
v -2.969023 20.000000 1.321894
v -2.915508 20.141421 1.298068
v -2.786314 20.200000 1.240547
v -2.657119 20.141421 1.183026
v -2.603605 20.000000 1.159199
v -2.657119 19.858579 1.183026
v -2.786314 19.800000 1.240547
v -2.915508 19.858579 1.298068
v -3.178980 20.000000 0.675713
v -3.121681 20.141421 0.663534
v -2.983350 20.200000 0.634131
v -2.845019 20.141421 0.604728
v -2.787721 20.000000 0.592548
v -2.845019 19.858579 0.604728
v -2.983350 19.800000 0.634131
v -3.121681 19.858579 0.663534
v -3.250000 20.000000 0.000000
v -3.191421 20.141421 0.000000
v -3.050000 20.200000 0.000000
v -2.908579 20.141421 0.000000
v -2.850000 20.000000 0.000000
v -2.908579 19.858579 0.000000
v -3.050000 19.800000 0.000000
v -3.191421 19.858579 0.000000
v -3.178980 20.000000 -0.675713
v -3.121681 20.141421 -0.663534
v -2.983350 20.200000 -0.634131
v -2.845019 20.141421 -0.604728
v -2.787721 20.000000 -0.592548
v -2.845019 19.858579 -0.604728
v -2.983350 19.800000 -0.634131
v -3.121681 19.858579 -0.663534
v -2.969023 20.000000 -1.321894
v -2.915508 20.141421 -1.298068
v -2.786314 20.200000 -1.240547
v -2.657119 20.141421 -1.183026
v -2.603605 20.000000 -1.159199
v -2.657119 19.858579 -1.183026
v -2.786314 19.800000 -1.240547
v -2.915508 19.858579 -1.298068
v -2.629305 20.000000 -1.910302
v -2.581914 20.141421 -1.875870
v -2.467502 20.200000 -1.792745
v -2.353090 20.141421 -1.709620
v -2.305698 20.000000 -1.675188
v -2.353090 19.858579 -1.709620
v -2.467502 19.800000 -1.792745
v -2.581914 19.858579 -1.875870
v -2.174674 20.000000 -2.415221
v -2.135478 20.141421 -2.371688
v -2.040848 20.200000 -2.266592
v -1.946219 20.141421 -2.161495
v -1.907022 20.000000 -2.117963
v -1.946219 19.858579 -2.161495
v -2.040848 19.800000 -2.266592
v -2.135478 19.858579 -2.371688
v -1.625000 20.000000 -2.814583
v -1.595711 20.141421 -2.763852
v -1.525000 20.200000 -2.641377
v -1.454289 20.141421 -2.518903
v -1.425000 20.000000 -2.468172
v -1.454289 19.858579 -2.518903
v -1.525000 19.800000 -2.641377
v -1.595711 19.858579 -2.763852
v -1.004305 20.000000 -3.090934
v -0.986203 20.141421 -3.035222
v -0.942502 20.200000 -2.900722
v -0.898800 20.141421 -2.766223
v -0.880698 20.000000 -2.710511
v -0.898800 19.858579 -2.766223
v -0.942502 19.800000 -2.900722
v -0.986203 19.858579 -3.035222
v -0.339718 20.000000 -3.232196
v -0.333594 20.141421 -3.173938
v -0.318812 20.200000 -3.033292
v -0.304029 20.141421 -2.892645
v -0.297906 20.000000 -2.834387
v -0.304029 19.858579 -2.892645
v -0.318812 19.800000 -3.033292
v -0.333594 19.858579 -3.173938
v 0.339718 20.000000 -3.232196
v 0.333594 20.141421 -3.173938
v 0.318812 20.200000 -3.033292
v 0.304029 20.141421 -2.892645
v 0.297906 20.000000 -2.834387
v 0.304029 19.858579 -2.892645
v 0.318812 19.800000 -3.033292
v 0.333594 19.858579 -3.173938
v 1.004305 20.000000 -3.090934
v 0.986203 20.141421 -3.035222
v 0.942502 20.200000 -2.900722
v 0.898800 20.141421 -2.766223
v 0.880698 20.000000 -2.710511
v 0.898800 19.858579 -2.766223
v 0.942502 19.800000 -2.900722
v 0.986203 19.858579 -3.035222
v 1.625000 20.000000 -2.814583
v 1.595711 20.141421 -2.763852
v 1.525000 20.200000 -2.641377
v 1.454289 20.141421 -2.518903
v 1.425000 20.000000 -2.468172
v 1.454289 19.858579 -2.518903
v 1.525000 19.800000 -2.641377
v 1.595711 19.858579 -2.763852
v 2.174674 20.000000 -2.415221
v 2.135478 20.141421 -2.371688
v 2.040848 20.200000 -2.266592
v 1.946219 20.141421 -2.161495
v 1.907022 20.000000 -2.117963
v 1.946219 19.858579 -2.161495
v 2.040848 19.800000 -2.266592
v 2.135478 19.858579 -2.371688
v 2.629305 20.000000 -1.910302
v 2.581914 20.141421 -1.875870
v 2.467502 20.200000 -1.792745
v 2.353090 20.141421 -1.709620
v 2.305698 20.000000 -1.675188
v 2.353090 19.858579 -1.709620
v 2.467502 19.800000 -1.792745
v 2.581914 19.858579 -1.875870
v 2.969023 20.000000 -1.321894
v 2.915508 20.141421 -1.298068
v 2.786314 20.200000 -1.240547
v 2.657119 20.141421 -1.183026
v 2.603605 20.000000 -1.159199
v 2.657119 19.858579 -1.183026
v 2.786314 19.800000 -1.240547
v 2.915508 19.858579 -1.298068
v 3.178980 20.000000 -0.675713
v 3.121681 20.141421 -0.663534
v 2.983350 20.200000 -0.634131
v 2.845019 20.141421 -0.604728
v 2.787721 20.000000 -0.592548
v 2.845019 19.858579 -0.604728
v 2.983350 19.800000 -0.634131
v 3.121681 19.858579 -0.663534
usemtl aqua
f 953 961 962 954
f 954 962 963 955
f 955 963 964 956
f 956 964 965 957
f 957 965 966 958
f 958 966 967 959
f 959 967 968 960
f 960 968 961 953
f 961 969 970 962
f 962 970 971 963
f 963 971 972 964
f 964 972 973 965
f 965 973 974 966
f 966 974 975 967
f 967 975 976 968
f 968 976 969 961
f 969 977 978 970
f 970 978 979 971
f 971 979 980 972
f 972 980 981 973
f 973 981 982 974
f 974 982 983 975
f 975 983 984 976
f 976 984 977 969
f 977 985 986 978
f 978 986 987 979
f 979 987 988 980
f 980 988 989 981
f 981 989 990 982
f 982 990 991 983
f 983 991 992 984
f 984 992 985 977
f 985 993 994 986
f 986 994 995 987
f 987 995 996 988
f 988 996 997 989
f 989 997 998 990
f 990 998 999 991
f 991 999 1000 992
f 992 1000 993 985
f 993 1001 1002 994
f 994 1002 1003 995
f 995 1003 1004 996
f 996 1004 1005 997
f 997 1005 1006 998
f 998 1006 1007 999
f 999 1007 1008 1000
f 1000 1008 1001 993
f 1001 1009 1010 1002
f 1002 1010 1011 1003
f 1003 1011 1012 1004
f 1004 1012 1013 1005
f 1005 1013 1014 1006
f 1006 1014 1015 1007
f 1007 1015 1016 1008
f 1008 1016 1009 1001
f 1009 1017 1018 1010
f 1010 1018 1019 1011
f 1011 1019 1020 1012
f 1012 1020 1021 1013
f 1013 1021 1022 1014
f 1014 1022 1023 1015
f 1015 1023 1024 1016
f 1016 1024 1017 1009
f 1017 1025 1026 1018
f 1018 1026 1027 1019
f 1019 1027 1028 1020
f 1020 1028 1029 1021
f 1021 1029 1030 1022
f 1022 1030 1031 1023
f 1023 1031 1032 1024
f 1024 1032 1025 1017
f 1025 1033 1034 1026
f 1026 1034 1035 1027
f 1027 1035 1036 1028
f 1028 1036 1037 1029
f 1029 1037 1038 1030
f 1030 1038 1039 1031
f 1031 1039 1040 1032
f 1032 1040 1033 1025
f 1033 1041 1042 1034
f 1034 1042 1043 1035
f 1035 1043 1044 1036
f 1036 1044 1045 1037
f 1037 1045 1046 1038
f 1038 1046 1047 1039
f 1039 1047 1048 1040
f 1040 1048 1041 1033
f 1041 1049 1050 1042
f 1042 1050 1051 1043
f 1043 1051 1052 1044
f 1044 1052 1053 1045
f 1045 1053 1054 1046
f 1046 1054 1055 1047
f 1047 1055 1056 1048
f 1048 1056 1049 1041
f 1049 1057 1058 1050
f 1050 1058 1059 1051
f 1051 1059 1060 1052
f 1052 1060 1061 1053
f 1053 1061 1062 1054
f 1054 1062 1063 1055
f 1055 1063 1064 1056
f 1056 1064 1057 1049
f 1057 1065 1066 1058
f 1058 1066 1067 1059
f 1059 1067 1068 1060
f 1060 1068 1069 1061
f 1061 1069 1070 1062
f 1062 1070 1071 1063
f 1063 1071 1072 1064
f 1064 1072 1065 1057
f 1065 1073 1074 1066
f 1066 1074 1075 1067
f 1067 1075 1076 1068
f 1068 1076 1077 1069
f 1069 1077 1078 1070
f 1070 1078 1079 1071
f 1071 1079 1080 1072
f 1072 1080 1073 1065
f 1073 1081 1082 1074
f 1074 1082 1083 1075
f 1075 1083 1084 1076
f 1076 1084 1085 1077
f 1077 1085 1086 1078
f 1078 1086 1087 1079
f 1079 1087 1088 1080
f 1080 1088 1081 1073
f 1081 1089 1090 1082
f 1082 1090 1091 1083
f 1083 1091 1092 1084
f 1084 1092 1093 1085
f 1085 1093 1094 1086
f 1086 1094 1095 1087
f 1087 1095 1096 1088
f 1088 1096 1089 1081
f 1089 1097 1098 1090
f 1090 1098 1099 1091
f 1091 1099 1100 1092
f 1092 1100 1101 1093
f 1093 1101 1102 1094
f 1094 1102 1103 1095
f 1095 1103 1104 1096
f 1096 1104 1097 1089
f 1097 1105 1106 1098
f 1098 1106 1107 1099
f 1099 1107 1108 1100
f 1100 1108 1109 1101
f 1101 1109 1110 1102
f 1102 1110 1111 1103
f 1103 1111 1112 1104
f 1104 1112 1105 1097
f 1105 1113 1114 1106
f 1106 1114 1115 1107
f 1107 1115 1116 1108
f 1108 1116 1117 1109
f 1109 1117 1118 1110
f 1110 1118 1119 1111
f 1111 1119 1120 1112
f 1112 1120 1113 1105
f 1113 1121 1122 1114
f 1114 1122 1123 1115
f 1115 1123 1124 1116
f 1116 1124 1125 1117
f 1117 1125 1126 1118
f 1118 1126 1127 1119
f 1119 1127 1128 1120
f 1120 1128 1121 1113
f 1121 1129 1130 1122
f 1122 1130 1131 1123
f 1123 1131 1132 1124
f 1124 1132 1133 1125
f 1125 1133 1134 1126
f 1126 1134 1135 1127
f 1127 1135 1136 1128
f 1128 1136 1129 1121
f 1129 1137 1138 1130
f 1130 1138 1139 1131
f 1131 1139 1140 1132
f 1132 1140 1141 1133
f 1133 1141 1142 1134
f 1134 1142 1143 1135
f 1135 1143 1144 1136
f 1136 1144 1137 1129
f 1137 1145 1146 1138
f 1138 1146 1147 1139
f 1139 1147 1148 1140
f 1140 1148 1149 1141
f 1141 1149 1150 1142
f 1142 1150 1151 1143
f 1143 1151 1152 1144
f 1144 1152 1145 1137
f 1145 1153 1154 1146
f 1146 1154 1155 1147
f 1147 1155 1156 1148
f 1148 1156 1157 1149
f 1149 1157 1158 1150
f 1150 1158 1159 1151
f 1151 1159 1160 1152
f 1152 1160 1153 1145
f 1153 1161 1162 1154
f 1154 1162 1163 1155
f 1155 1163 1164 1156
f 1156 1164 1165 1157
f 1157 1165 1166 1158
f 1158 1166 1167 1159
f 1159 1167 1168 1160
f 1160 1168 1161 1153
f 1161 1169 1170 1162
f 1162 1170 1171 1163
f 1163 1171 1172 1164
f 1164 1172 1173 1165
f 1165 1173 1174 1166
f 1166 1174 1175 1167
f 1167 1175 1176 1168
f 1168 1176 1169 1161
f 1169 1177 1178 1170
f 1170 1178 1179 1171
f 1171 1179 1180 1172
f 1172 1180 1181 1173
f 1173 1181 1182 1174
f 1174 1182 1183 1175
f 1175 1183 1184 1176
f 1176 1184 1177 1169
f 1177 1185 1186 1178
f 1178 1186 1187 1179
f 1179 1187 1188 1180
f 1180 1188 1189 1181
f 1181 1189 1190 1182
f 1182 1190 1191 1183
f 1183 1191 1192 1184
f 1184 1192 1185 1177
f 1185 953 954 1186
f 1186 954 955 1187
f 1187 955 956 1188
f 1188 956 957 1189
f 1189 957 958 1190
f 1190 958 959 1191
f 1191 959 960 1192
f 1192 960 953 1185
v 0.000000 20.275000 -2.200000
v 0.000000 20.625000 -2.200000
v 0.540762 20.275000 -0.744296
v 0.540762 20.625000 -0.744296
v 2.092324 20.275000 -0.679837
v 2.092324 20.625000 -0.679837
v 0.874972 20.275000 0.284296
v 0.874972 20.625000 0.284296
v 1.293128 20.275000 1.779837
v 1.293128 20.625000 1.779837
v 0.000000 20.275000 0.920000
v 0.000000 20.625000 0.920000
v -1.293128 20.275000 1.779837
v -1.293128 20.625000 1.779837
v -0.874972 20.275000 0.284296
v -0.874972 20.625000 0.284296
v -2.092324 20.275000 -0.679837
v -2.092324 20.625000 -0.679837
v -0.540762 20.275000 -0.744296
v -0.540762 20.625000 -0.744296
v 0.000000 20.275000 0.000000
v 0.000000 20.625000 0.000000
usemtl violet
f 1193 1195 1196 1194
f 1195 1197 1198 1196
f 1197 1199 1200 1198
f 1199 1201 1202 1200
f 1201 1203 1204 1202
f 1203 1205 1206 1204
f 1205 1207 1208 1206
f 1207 1209 1210 1208
f 1209 1211 1212 1210
f 1211 1193 1194 1212
usemtl gold
f 1213 1195 1193
f 1214 1194 1196
f 1213 1197 1195
f 1214 1196 1198
f 1213 1199 1197
f 1214 1198 1200
f 1213 1201 1199
f 1214 1200 1202
f 1213 1203 1201
f 1214 1202 1204
f 1213 1205 1203
f 1214 1204 1206
f 1213 1207 1205
f 1214 1206 1208
f 1213 1209 1207
f 1214 1208 1210
f 1213 1211 1209
f 1214 1210 1212
f 1213 1193 1211
f 1214 1212 1194
