mtllib star_launch.mtl
o star_launch
v 1.800000 -0.170000 0.000000
v 1.800000 0.170000 0.000000
v 1.738666 -0.170000 0.465874
v 1.738666 0.170000 0.465874
v 1.558846 -0.170000 0.900000
v 1.558846 0.170000 0.900000
v 1.272792 -0.170000 1.272792
v 1.272792 0.170000 1.272792
v 0.900000 -0.170000 1.558846
v 0.900000 0.170000 1.558846
v 0.465874 -0.170000 1.738666
v 0.465874 0.170000 1.738666
v 0.000000 -0.170000 1.800000
v 0.000000 0.170000 1.800000
v -0.465874 -0.170000 1.738666
v -0.465874 0.170000 1.738666
v -0.900000 -0.170000 1.558846
v -0.900000 0.170000 1.558846
v -1.272792 -0.170000 1.272792
v -1.272792 0.170000 1.272792
v -1.558846 -0.170000 0.900000
v -1.558846 0.170000 0.900000
v -1.738666 -0.170000 0.465874
v -1.738666 0.170000 0.465874
v -1.800000 -0.170000 0.000000
v -1.800000 0.170000 0.000000
v -1.738666 -0.170000 -0.465874
v -1.738666 0.170000 -0.465874
v -1.558846 -0.170000 -0.900000
v -1.558846 0.170000 -0.900000
v -1.272792 -0.170000 -1.272792
v -1.272792 0.170000 -1.272792
v -0.900000 -0.170000 -1.558846
v -0.900000 0.170000 -1.558846
v -0.465874 -0.170000 -1.738666
v -0.465874 0.170000 -1.738666
v 0.000000 -0.170000 -1.800000
v 0.000000 0.170000 -1.800000
v 0.465874 -0.170000 -1.738666
v 0.465874 0.170000 -1.738666
v 0.900000 -0.170000 -1.558846
v 0.900000 0.170000 -1.558846
v 1.272792 -0.170000 -1.272792
v 1.272792 0.170000 -1.272792
v 1.558846 -0.170000 -0.900000
v 1.558846 0.170000 -0.900000
v 1.738666 -0.170000 -0.465874
v 1.738666 0.170000 -0.465874
v 0.000000 -0.170000 0.000000
v 0.000000 0.170000 0.000000
usemtl violet
f 1 3 4 2
f 3 5 6 4
f 5 7 8 6
f 7 9 10 8
f 9 11 12 10
f 11 13 14 12
f 13 15 16 14
f 15 17 18 16
f 17 19 20 18
f 19 21 22 20
f 21 23 24 22
f 23 25 26 24
f 25 27 28 26
f 27 29 30 28
f 29 31 32 30
f 31 33 34 32
f 33 35 36 34
f 35 37 38 36
f 37 39 40 38
f 39 41 42 40
f 41 43 44 42
f 43 45 46 44
f 45 47 48 46
f 47 1 2 48
usemtl pearl
f 49 3 1
f 50 2 4
f 49 5 3
f 50 4 6
f 49 7 5
f 50 6 8
f 49 9 7
f 50 8 10
f 49 11 9
f 50 10 12
f 49 13 11
f 50 12 14
f 49 15 13
f 50 14 16
f 49 17 15
f 50 16 18
f 49 19 17
f 50 18 20
f 49 21 19
f 50 20 22
f 49 23 21
f 50 22 24
f 49 25 23
f 50 24 26
f 49 27 25
f 50 26 28
f 49 29 27
f 50 28 30
f 49 31 29
f 50 30 32
f 49 33 31
f 50 32 34
f 49 35 33
f 50 34 36
f 49 37 35
f 50 36 38
f 49 39 37
f 50 38 40
f 49 41 39
f 50 40 42
f 49 43 41
f 50 42 44
f 49 45 43
f 50 44 46
f 49 47 45
f 50 46 48
f 49 1 47
f 50 48 2
v 1.480000 0.140000 0.000000
v 1.480000 0.360000 0.000000
v 1.429570 0.140000 0.383052
v 1.429570 0.360000 0.383052
v 1.281718 0.140000 0.740000
v 1.281718 0.360000 0.740000
v 1.046518 0.140000 1.046518
v 1.046518 0.360000 1.046518
v 0.740000 0.140000 1.281718
v 0.740000 0.360000 1.281718
v 0.383052 0.140000 1.429570
v 0.383052 0.360000 1.429570
v 0.000000 0.140000 1.480000
v 0.000000 0.360000 1.480000
v -0.383052 0.140000 1.429570
v -0.383052 0.360000 1.429570
v -0.740000 0.140000 1.281718
v -0.740000 0.360000 1.281718
v -1.046518 0.140000 1.046518
v -1.046518 0.360000 1.046518
v -1.281718 0.140000 0.740000
v -1.281718 0.360000 0.740000
v -1.429570 0.140000 0.383052
v -1.429570 0.360000 0.383052
v -1.480000 0.140000 0.000000
v -1.480000 0.360000 0.000000
v -1.429570 0.140000 -0.383052
v -1.429570 0.360000 -0.383052
v -1.281718 0.140000 -0.740000
v -1.281718 0.360000 -0.740000
v -1.046518 0.140000 -1.046518
v -1.046518 0.360000 -1.046518
v -0.740000 0.140000 -1.281718
v -0.740000 0.360000 -1.281718
v -0.383052 0.140000 -1.429570
v -0.383052 0.360000 -1.429570
v 0.000000 0.140000 -1.480000
v 0.000000 0.360000 -1.480000
v 0.383052 0.140000 -1.429570
v 0.383052 0.360000 -1.429570
v 0.740000 0.140000 -1.281718
v 0.740000 0.360000 -1.281718
v 1.046518 0.140000 -1.046518
v 1.046518 0.360000 -1.046518
v 1.281718 0.140000 -0.740000
v 1.281718 0.360000 -0.740000
v 1.429570 0.140000 -0.383052
v 1.429570 0.360000 -0.383052
v 0.000000 0.140000 0.000000
v 0.000000 0.360000 0.000000
usemtl gold
f 51 53 54 52
f 53 55 56 54
f 55 57 58 56
f 57 59 60 58
f 59 61 62 60
f 61 63 64 62
f 63 65 66 64
f 65 67 68 66
f 67 69 70 68
f 69 71 72 70
f 71 73 74 72
f 73 75 76 74
f 75 77 78 76
f 77 79 80 78
f 79 81 82 80
f 81 83 84 82
f 83 85 86 84
f 85 87 88 86
f 87 89 90 88
f 89 91 92 90
f 91 93 94 92
f 93 95 96 94
f 95 97 98 96
f 97 51 52 98
usemtl aqua
f 99 53 51
f 100 52 54
f 99 55 53
f 100 54 56
f 99 57 55
f 100 56 58
f 99 59 57
f 100 58 60
f 99 61 59
f 100 60 62
f 99 63 61
f 100 62 64
f 99 65 63
f 100 64 66
f 99 67 65
f 100 66 68
f 99 69 67
f 100 68 70
f 99 71 69
f 100 70 72
f 99 73 71
f 100 72 74
f 99 75 73
f 100 74 76
f 99 77 75
f 100 76 78
f 99 79 77
f 100 78 80
f 99 81 79
f 100 80 82
f 99 83 81
f 100 82 84
f 99 85 83
f 100 84 86
f 99 87 85
f 100 86 88
f 99 89 87
f 100 88 90
f 99 91 89
f 100 90 92
f 99 93 91
f 100 92 94
f 99 95 93
f 100 94 96
f 99 97 95
f 100 96 98
f 99 51 97
f 100 98 52
v 0.000000 0.400000 -1.250000
v 0.000000 0.640000 -1.250000
v 0.317404 0.400000 -0.436869
v 0.317404 0.640000 -0.436869
v 1.188821 0.400000 -0.386271
v 1.188821 0.640000 -0.386271
v 0.513571 0.400000 0.166869
v 0.513571 0.640000 0.166869
v 0.734732 0.400000 1.011271
v 0.734732 0.640000 1.011271
v 0.000000 0.400000 0.540000
v 0.000000 0.640000 0.540000
v -0.734732 0.400000 1.011271
v -0.734732 0.640000 1.011271
v -0.513571 0.400000 0.166869
v -0.513571 0.640000 0.166869
v -1.188821 0.400000 -0.386271
v -1.188821 0.640000 -0.386271
v -0.317404 0.400000 -0.436869
v -0.317404 0.640000 -0.436869
v 0.000000 0.400000 0.000000
v 0.000000 0.640000 0.000000
usemtl violet
f 101 103 104 102
f 103 105 106 104
f 105 107 108 106
f 107 109 110 108
f 109 111 112 110
f 111 113 114 112
f 113 115 116 114
f 115 117 118 116
f 117 119 120 118
f 119 101 102 120
usemtl gold
f 121 103 101
f 122 102 104
f 121 105 103
f 122 104 106
f 121 107 105
f 122 106 108
f 121 109 107
f 122 108 110
f 121 111 109
f 122 110 112
f 121 113 111
f 122 112 114
f 121 115 113
f 122 114 116
f 121 117 115
f 122 116 118
f 121 119 117
f 122 118 120
f 121 101 119
f 122 120 102
v 1.480000 1.850000 0.000000
v 1.430000 1.850000 0.086603
v 1.330000 1.850000 0.086603
v 1.280000 1.850000 0.000000
v 1.330000 1.850000 -0.086603
v 1.430000 1.850000 -0.086603
v 1.429570 2.233052 0.000000
v 1.381274 2.220111 0.086603
v 1.284681 2.194229 0.086603
v 1.236385 2.181288 0.000000
v 1.284681 2.194229 -0.086603
v 1.381274 2.220111 -0.086603
v 1.281718 2.590000 0.000000
v 1.238416 2.565000 0.086603
v 1.151814 2.515000 0.086603
v 1.108513 2.490000 0.000000
v 1.151814 2.515000 -0.086603
v 1.238416 2.565000 -0.086603
v 1.046518 2.896518 0.000000
v 1.011163 2.861163 0.086603
v 0.940452 2.790452 0.086603
v 0.905097 2.755097 0.000000
v 0.940452 2.790452 -0.086603
v 1.011163 2.861163 -0.086603
v 0.740000 3.131718 0.000000
v 0.715000 3.088416 0.086603
v 0.665000 3.001814 0.086603
v 0.640000 2.958513 0.000000
v 0.665000 3.001814 -0.086603
v 0.715000 3.088416 -0.086603
v 0.383052 3.279570 0.000000
v 0.370111 3.231274 0.086603
v 0.344229 3.134681 0.086603
v 0.331288 3.086385 0.000000
v 0.344229 3.134681 -0.086603
v 0.370111 3.231274 -0.086603
v 0.000000 3.330000 0.000000
v 0.000000 3.280000 0.086603
v 0.000000 3.180000 0.086603
v 0.000000 3.130000 0.000000
v 0.000000 3.180000 -0.086603
v 0.000000 3.280000 -0.086603
v -0.383052 3.279570 0.000000
v -0.370111 3.231274 0.086603
v -0.344229 3.134681 0.086603
v -0.331288 3.086385 0.000000
v -0.344229 3.134681 -0.086603
v -0.370111 3.231274 -0.086603
v -0.740000 3.131718 0.000000
v -0.715000 3.088416 0.086603
v -0.665000 3.001814 0.086603
v -0.640000 2.958513 0.000000
v -0.665000 3.001814 -0.086603
v -0.715000 3.088416 -0.086603
v -1.046518 2.896518 0.000000
v -1.011163 2.861163 0.086603
v -0.940452 2.790452 0.086603
v -0.905097 2.755097 0.000000
v -0.940452 2.790452 -0.086603
v -1.011163 2.861163 -0.086603
v -1.281718 2.590000 0.000000
v -1.238416 2.565000 0.086603
v -1.151814 2.515000 0.086603
v -1.108513 2.490000 0.000000
v -1.151814 2.515000 -0.086603
v -1.238416 2.565000 -0.086603
v -1.429570 2.233052 0.000000
v -1.381274 2.220111 0.086603
v -1.284681 2.194229 0.086603
v -1.236385 2.181288 0.000000
v -1.284681 2.194229 -0.086603
v -1.381274 2.220111 -0.086603
v -1.480000 1.850000 0.000000
v -1.430000 1.850000 0.086603
v -1.330000 1.850000 0.086603
v -1.280000 1.850000 0.000000
v -1.330000 1.850000 -0.086603
v -1.430000 1.850000 -0.086603
v -1.429570 1.466948 0.000000
v -1.381274 1.479889 0.086603
v -1.284681 1.505771 0.086603
v -1.236385 1.518712 0.000000
v -1.284681 1.505771 -0.086603
v -1.381274 1.479889 -0.086603
v -1.281718 1.110000 0.000000
v -1.238416 1.135000 0.086603
v -1.151814 1.185000 0.086603
v -1.108513 1.210000 0.000000
v -1.151814 1.185000 -0.086603
v -1.238416 1.135000 -0.086603
v -1.046518 0.803482 0.000000
v -1.011163 0.838837 0.086603
v -0.940452 0.909548 0.086603
v -0.905097 0.944903 0.000000
v -0.940452 0.909548 -0.086603
v -1.011163 0.838837 -0.086603
v -0.740000 0.568282 0.000000
v -0.715000 0.611584 0.086603
v -0.665000 0.698186 0.086603
v -0.640000 0.741487 0.000000
v -0.665000 0.698186 -0.086603
v -0.715000 0.611584 -0.086603
v -0.383052 0.420430 0.000000
v -0.370111 0.468726 0.086603
v -0.344229 0.565319 0.086603
v -0.331288 0.613615 0.000000
v -0.344229 0.565319 -0.086603
v -0.370111 0.468726 -0.086603
v 0.000000 0.370000 0.000000
v 0.000000 0.420000 0.086603
v 0.000000 0.520000 0.086603
v 0.000000 0.570000 0.000000
v 0.000000 0.520000 -0.086603
v 0.000000 0.420000 -0.086603
v 0.383052 0.420430 0.000000
v 0.370111 0.468726 0.086603
v 0.344229 0.565319 0.086603
v 0.331288 0.613615 0.000000
v 0.344229 0.565319 -0.086603
v 0.370111 0.468726 -0.086603
v 0.740000 0.568282 0.000000
v 0.715000 0.611584 0.086603
v 0.665000 0.698186 0.086603
v 0.640000 0.741487 0.000000
v 0.665000 0.698186 -0.086603
v 0.715000 0.611584 -0.086603
v 1.046518 0.803482 0.000000
v 1.011163 0.838837 0.086603
v 0.940452 0.909548 0.086603
v 0.905097 0.944903 0.000000
v 0.940452 0.909548 -0.086603
v 1.011163 0.838837 -0.086603
v 1.281718 1.110000 0.000000
v 1.238416 1.135000 0.086603
v 1.151814 1.185000 0.086603
v 1.108513 1.210000 0.000000
v 1.151814 1.185000 -0.086603
v 1.238416 1.135000 -0.086603
v 1.429570 1.466948 0.000000
v 1.381274 1.479889 0.086603
v 1.284681 1.505771 0.086603
v 1.236385 1.518712 0.000000
v 1.284681 1.505771 -0.086603
v 1.381274 1.479889 -0.086603
usemtl aqua
f 123 129 130 124
f 124 130 131 125
f 125 131 132 126
f 126 132 133 127
f 127 133 134 128
f 128 134 129 123
f 129 135 136 130
f 130 136 137 131
f 131 137 138 132
f 132 138 139 133
f 133 139 140 134
f 134 140 135 129
f 135 141 142 136
f 136 142 143 137
f 137 143 144 138
f 138 144 145 139
f 139 145 146 140
f 140 146 141 135
f 141 147 148 142
f 142 148 149 143
f 143 149 150 144
f 144 150 151 145
f 145 151 152 146
f 146 152 147 141
f 147 153 154 148
f 148 154 155 149
f 149 155 156 150
f 150 156 157 151
f 151 157 158 152
f 152 158 153 147
f 153 159 160 154
f 154 160 161 155
f 155 161 162 156
f 156 162 163 157
f 157 163 164 158
f 158 164 159 153
f 159 165 166 160
f 160 166 167 161
f 161 167 168 162
f 162 168 169 163
f 163 169 170 164
f 164 170 165 159
f 165 171 172 166
f 166 172 173 167
f 167 173 174 168
f 168 174 175 169
f 169 175 176 170
f 170 176 171 165
f 171 177 178 172
f 172 178 179 173
f 173 179 180 174
f 174 180 181 175
f 175 181 182 176
f 176 182 177 171
f 177 183 184 178
f 178 184 185 179
f 179 185 186 180
f 180 186 187 181
f 181 187 188 182
f 182 188 183 177
f 183 189 190 184
f 184 190 191 185
f 185 191 192 186
f 186 192 193 187
f 187 193 194 188
f 188 194 189 183
f 189 195 196 190
f 190 196 197 191
f 191 197 198 192
f 192 198 199 193
f 193 199 200 194
f 194 200 195 189
f 195 201 202 196
f 196 202 203 197
f 197 203 204 198
f 198 204 205 199
f 199 205 206 200
f 200 206 201 195
f 201 207 208 202
f 202 208 209 203
f 203 209 210 204
f 204 210 211 205
f 205 211 212 206
f 206 212 207 201
f 207 213 214 208
f 208 214 215 209
f 209 215 216 210
f 210 216 217 211
f 211 217 218 212
f 212 218 213 207
f 213 219 220 214
f 214 220 221 215
f 215 221 222 216
f 216 222 223 217
f 217 223 224 218
f 218 224 219 213
f 219 225 226 220
f 220 226 227 221
f 221 227 228 222
f 222 228 229 223
f 223 229 230 224
f 224 230 225 219
f 225 231 232 226
f 226 232 233 227
f 227 233 234 228
f 228 234 235 229
f 229 235 236 230
f 230 236 231 225
f 231 237 238 232
f 232 238 239 233
f 233 239 240 234
f 234 240 241 235
f 235 241 242 236
f 236 242 237 231
f 237 243 244 238
f 238 244 245 239
f 239 245 246 240
f 240 246 247 241
f 241 247 248 242
f 242 248 243 237
f 243 249 250 244
f 244 250 251 245
f 245 251 252 246
f 246 252 253 247
f 247 253 254 248
f 248 254 249 243
f 249 255 256 250
f 250 256 257 251
f 251 257 258 252
f 252 258 259 253
f 253 259 260 254
f 254 260 255 249
f 255 261 262 256
f 256 262 263 257
f 257 263 264 258
f 258 264 265 259
f 259 265 266 260
f 260 266 261 255
f 261 123 124 262
f 262 124 125 263
f 263 125 126 264
f 264 126 127 265
f 265 127 128 266
f 266 128 123 261
v 1.790000 1.850000 0.000000
v 1.755000 1.850000 0.060622
v 1.685000 1.850000 0.060622
v 1.650000 1.850000 0.000000
v 1.685000 1.850000 -0.060622
v 1.755000 1.850000 -0.060622
v 1.729007 2.313286 0.000000
v 1.695200 2.304227 0.060622
v 1.627585 2.286110 0.060622
v 1.593778 2.277051 0.000000
v 1.627585 2.286110 -0.060622
v 1.695200 2.304227 -0.060622
v 1.550185 2.745000 0.000000
v 1.519875 2.727500 0.060622
v 1.459253 2.692500 0.060622
v 1.428942 2.675000 0.000000
v 1.459253 2.692500 -0.060622
v 1.519875 2.727500 -0.060622
v 1.265721 3.115721 0.000000
v 1.240972 3.090972 0.060622
v 1.191475 3.041475 0.060622
v 1.166726 3.016726 0.000000
v 1.191475 3.041475 -0.060622
v 1.240972 3.090972 -0.060622
v 0.895000 3.400185 0.000000
v 0.877500 3.369875 0.060622
v 0.842500 3.309253 0.060622
v 0.825000 3.278942 0.000000
v 0.842500 3.309253 -0.060622
v 0.877500 3.369875 -0.060622
v 0.463286 3.579007 0.000000
v 0.454227 3.545200 0.060622
v 0.436110 3.477585 0.060622
v 0.427051 3.443778 0.000000
v 0.436110 3.477585 -0.060622
v 0.454227 3.545200 -0.060622
v 0.000000 3.640000 0.000000
v 0.000000 3.605000 0.060622
v 0.000000 3.535000 0.060622
v 0.000000 3.500000 0.000000
v 0.000000 3.535000 -0.060622
v 0.000000 3.605000 -0.060622
v -0.463286 3.579007 0.000000
v -0.454227 3.545200 0.060622
v -0.436110 3.477585 0.060622
v -0.427051 3.443778 0.000000
v -0.436110 3.477585 -0.060622
v -0.454227 3.545200 -0.060622
v -0.895000 3.400185 0.000000
v -0.877500 3.369875 0.060622
v -0.842500 3.309253 0.060622
v -0.825000 3.278942 0.000000
v -0.842500 3.309253 -0.060622
v -0.877500 3.369875 -0.060622
v -1.265721 3.115721 0.000000
v -1.240972 3.090972 0.060622
v -1.191475 3.041475 0.060622
v -1.166726 3.016726 0.000000
v -1.191475 3.041475 -0.060622
v -1.240972 3.090972 -0.060622
v -1.550185 2.745000 0.000000
v -1.519875 2.727500 0.060622
v -1.459253 2.692500 0.060622
v -1.428942 2.675000 0.000000
v -1.459253 2.692500 -0.060622
v -1.519875 2.727500 -0.060622
v -1.729007 2.313286 0.000000
v -1.695200 2.304227 0.060622
v -1.627585 2.286110 0.060622
v -1.593778 2.277051 0.000000
v -1.627585 2.286110 -0.060622
v -1.695200 2.304227 -0.060622
v -1.790000 1.850000 0.000000
v -1.755000 1.850000 0.060622
v -1.685000 1.850000 0.060622
v -1.650000 1.850000 0.000000
v -1.685000 1.850000 -0.060622
v -1.755000 1.850000 -0.060622
v -1.729007 1.386714 0.000000
v -1.695200 1.395773 0.060622
v -1.627585 1.413890 0.060622
v -1.593778 1.422949 0.000000
v -1.627585 1.413890 -0.060622
v -1.695200 1.395773 -0.060622
v -1.550185 0.955000 0.000000
v -1.519875 0.972500 0.060622
v -1.459253 1.007500 0.060622
v -1.428942 1.025000 0.000000
v -1.459253 1.007500 -0.060622
v -1.519875 0.972500 -0.060622
v -1.265721 0.584279 0.000000
v -1.240972 0.609028 0.060622
v -1.191475 0.658525 0.060622
v -1.166726 0.683274 0.000000
v -1.191475 0.658525 -0.060622
v -1.240972 0.609028 -0.060622
v -0.895000 0.299815 0.000000
v -0.877500 0.330125 0.060622
v -0.842500 0.390747 0.060622
v -0.825000 0.421058 0.000000
v -0.842500 0.390747 -0.060622
v -0.877500 0.330125 -0.060622
v -0.463286 0.120993 0.000000
v -0.454227 0.154800 0.060622
v -0.436110 0.222415 0.060622
v -0.427051 0.256222 0.000000
v -0.436110 0.222415 -0.060622
v -0.454227 0.154800 -0.060622
v 0.000000 0.060000 0.000000
v 0.000000 0.095000 0.060622
v 0.000000 0.165000 0.060622
v 0.000000 0.200000 0.000000
v 0.000000 0.165000 -0.060622
v 0.000000 0.095000 -0.060622
v 0.463286 0.120993 0.000000
v 0.454227 0.154800 0.060622
v 0.436110 0.222415 0.060622
v 0.427051 0.256222 0.000000
v 0.436110 0.222415 -0.060622
v 0.454227 0.154800 -0.060622
v 0.895000 0.299815 0.000000
v 0.877500 0.330125 0.060622
v 0.842500 0.390747 0.060622
v 0.825000 0.421058 0.000000
v 0.842500 0.390747 -0.060622
v 0.877500 0.330125 -0.060622
v 1.265721 0.584279 0.000000
v 1.240972 0.609028 0.060622
v 1.191475 0.658525 0.060622
v 1.166726 0.683274 0.000000
v 1.191475 0.658525 -0.060622
v 1.240972 0.609028 -0.060622
v 1.550185 0.955000 0.000000
v 1.519875 0.972500 0.060622
v 1.459253 1.007500 0.060622
v 1.428942 1.025000 0.000000
v 1.459253 1.007500 -0.060622
v 1.519875 0.972500 -0.060622
v 1.729007 1.386714 0.000000
v 1.695200 1.395773 0.060622
v 1.627585 1.413890 0.060622
v 1.593778 1.422949 0.000000
v 1.627585 1.413890 -0.060622
v 1.695200 1.395773 -0.060622
usemtl gold
f 267 273 274 268
f 268 274 275 269
f 269 275 276 270
f 270 276 277 271
f 271 277 278 272
f 272 278 273 267
f 273 279 280 274
f 274 280 281 275
f 275 281 282 276
f 276 282 283 277
f 277 283 284 278
f 278 284 279 273
f 279 285 286 280
f 280 286 287 281
f 281 287 288 282
f 282 288 289 283
f 283 289 290 284
f 284 290 285 279
f 285 291 292 286
f 286 292 293 287
f 287 293 294 288
f 288 294 295 289
f 289 295 296 290
f 290 296 291 285
f 291 297 298 292
f 292 298 299 293
f 293 299 300 294
f 294 300 301 295
f 295 301 302 296
f 296 302 297 291
f 297 303 304 298
f 298 304 305 299
f 299 305 306 300
f 300 306 307 301
f 301 307 308 302
f 302 308 303 297
f 303 309 310 304
f 304 310 311 305
f 305 311 312 306
f 306 312 313 307
f 307 313 314 308
f 308 314 309 303
f 309 315 316 310
f 310 316 317 311
f 311 317 318 312
f 312 318 319 313
f 313 319 320 314
f 314 320 315 309
f 315 321 322 316
f 316 322 323 317
f 317 323 324 318
f 318 324 325 319
f 319 325 326 320
f 320 326 321 315
f 321 327 328 322
f 322 328 329 323
f 323 329 330 324
f 324 330 331 325
f 325 331 332 326
f 326 332 327 321
f 327 333 334 328
f 328 334 335 329
f 329 335 336 330
f 330 336 337 331
f 331 337 338 332
f 332 338 333 327
f 333 339 340 334
f 334 340 341 335
f 335 341 342 336
f 336 342 343 337
f 337 343 344 338
f 338 344 339 333
f 339 345 346 340
f 340 346 347 341
f 341 347 348 342
f 342 348 349 343
f 343 349 350 344
f 344 350 345 339
f 345 351 352 346
f 346 352 353 347
f 347 353 354 348
f 348 354 355 349
f 349 355 356 350
f 350 356 351 345
f 351 357 358 352
f 352 358 359 353
f 353 359 360 354
f 354 360 361 355
f 355 361 362 356
f 356 362 357 351
f 357 363 364 358
f 358 364 365 359
f 359 365 366 360
f 360 366 367 361
f 361 367 368 362
f 362 368 363 357
f 363 369 370 364
f 364 370 371 365
f 365 371 372 366
f 366 372 373 367
f 367 373 374 368
f 368 374 369 363
f 369 375 376 370
f 370 376 377 371
f 371 377 378 372
f 372 378 379 373
f 373 379 380 374
f 374 380 375 369
f 375 381 382 376
f 376 382 383 377
f 377 383 384 378
f 378 384 385 379
f 379 385 386 380
f 380 386 381 375
f 381 387 388 382
f 382 388 389 383
f 383 389 390 384
f 384 390 391 385
f 385 391 392 386
f 386 392 387 381
f 387 393 394 388
f 388 394 395 389
f 389 395 396 390
f 390 396 397 391
f 391 397 398 392
f 392 398 393 387
f 393 399 400 394
f 394 400 401 395
f 395 401 402 396
f 396 402 403 397
f 397 403 404 398
f 398 404 399 393
f 399 405 406 400
f 400 406 407 401
f 401 407 408 402
f 402 408 409 403
f 403 409 410 404
f 404 410 405 399
f 405 267 268 406
f 406 268 269 407
f 407 269 270 408
f 408 270 271 409
f 409 271 272 410
f 410 272 267 405
v -0.940000 0.160000 0.875000
v -0.700000 0.160000 0.875000
v -0.700000 0.340000 0.875000
v -0.940000 0.340000 0.875000
v -0.940000 0.160000 2.425000
v -0.700000 0.160000 2.425000
v -0.700000 0.340000 2.425000
v -0.940000 0.340000 2.425000
usemtl aqua
f 411 412 413 414
f 415 418 417 416
f 411 415 416 412
f 412 416 417 413
f 413 417 418 414
f 415 411 414 418
v -0.120000 0.160000 0.880000
v 0.120000 0.160000 0.880000
v 0.120000 0.340000 0.880000
v -0.120000 0.340000 0.880000
v -0.120000 0.160000 2.880000
v 0.120000 0.160000 2.880000
v 0.120000 0.340000 2.880000
v -0.120000 0.340000 2.880000
usemtl pearl
f 419 420 421 422
f 423 426 425 424
f 419 423 424 420
f 420 424 425 421
f 421 425 426 422
f 423 419 422 426
v 0.700000 0.160000 0.875000
v 0.940000 0.160000 0.875000
v 0.940000 0.340000 0.875000
v 0.700000 0.340000 0.875000
v 0.700000 0.160000 2.425000
v 0.940000 0.160000 2.425000
v 0.940000 0.340000 2.425000
v 0.700000 0.340000 2.425000
usemtl aqua
f 427 428 429 430
f 431 434 433 432
f 427 431 432 428
f 428 432 433 429
f 429 433 434 430
f 431 427 430 434
