# Blender 4.4.1
# www.blender.org
mtllib map_wall_02.mtl
o 立方体.032
v 82.738899 77.000000 131.243073
v 80.617577 77.000000 133.222977
v 82.738899 79.000000 131.243073
v -145.512177 77.000000 -81.791267
v -145.512177 79.000000 -81.791267
v -147.633499 77.000000 -79.811363
v -147.633499 79.000000 -79.811363
v 80.617577 79.000000 133.222977
v 68.836876 78.000000 138.600006
v 68.836876 78.000000 141.400009
v 68.836876 80.000000 138.600006
v -77.985229 78.000000 138.600006
v -77.985229 80.000000 138.600006
v -77.985214 78.000000 141.399994
v -77.985214 80.000000 141.399994
v 68.836876 80.000000 141.400009
v 177.506454 78.000000 -1.400000
v 177.506454 78.000000 1.400000
v 177.506454 80.000000 -1.400000
v -177.236389 78.000000 -1.400011
v -177.236389 80.000000 -1.400011
v -177.236420 78.000000 1.399995
v -177.236420 80.000000 1.399995
v 177.506454 80.000000 1.400000
v 166.734711 78.000000 26.600002
v 166.734711 78.000000 29.400005
v 166.734711 80.000000 26.600002
v -168.125427 78.000000 26.599977
v -168.125427 80.000000 26.599977
v -168.125427 78.000000 29.399979
v -168.125427 80.000000 29.399979
v 166.734711 80.000000 29.400005
v 155.608978 78.000000 54.600006
v 155.608978 78.000000 57.400009
v 155.608978 80.000000 54.600006
v -159.032272 78.000000 54.599998
v -159.032272 80.000000 54.599998
v -159.032272 78.000000 57.399998
v -159.032272 80.000000 57.399998
v 155.608978 80.000000 57.400009
v 144.483246 78.000000 82.600006
v 144.483246 78.000000 85.400017
v 144.483246 80.000000 82.600006
v -149.618195 78.000000 82.599983
v -149.618195 80.000000 82.599983
v -149.618195 78.000000 85.400002
v -149.618195 80.000000 85.400002
v 144.483246 80.000000 85.400017
v 113.031647 78.000000 110.599998
v 113.031647 78.000000 113.400002
v 113.031647 80.000000 110.599998
v -119.450340 78.000000 110.599998
v -119.450340 80.000000 110.599998
v -119.450333 78.000000 113.399986
v -119.450333 80.000000 113.399986
v 113.031647 80.000000 113.400002
v 168.678146 78.000000 -29.400011
v 168.678131 78.000000 -26.600000
v 168.678146 80.000000 -29.400011
v -166.627716 78.000000 -29.400011
v -166.627716 80.000000 -29.400011
v -166.627747 78.000000 -26.600004
v -166.627747 80.000000 -26.600004
v 168.678131 80.000000 -26.600000
v 158.827652 78.000000 -57.399998
v 158.827652 78.000000 -54.599998
v 158.827652 80.000000 -57.399998
v -155.840759 78.000000 -57.400021
v -155.840759 80.000000 -57.400021
v -155.840744 78.000000 -54.600010
v -155.840744 80.000000 -54.600010
v 158.827652 80.000000 -54.599998
v 149.997742 78.000000 -85.400002
v 149.997726 78.000000 -82.599991
v 149.997742 80.000000 -85.400002
v -144.561081 78.000000 -85.400017
v -144.561081 80.000000 -85.400017
v -144.561081 78.000000 -82.600021
v -144.561081 80.000000 -82.600021
v 149.997726 80.000000 -82.599991
v 119.896912 78.000000 -113.400002
v 119.896912 78.000000 -110.599998
v 119.896912 80.000000 -113.400002
v -112.589386 78.000000 -113.400009
v -112.589386 80.000000 -113.400009
v -112.589371 78.000000 -110.600006
v -112.589371 80.000000 -110.600006
v 119.896912 80.000000 -110.599998
v 77.791260 78.000000 -141.400024
v 77.791267 78.000000 -138.600021
v 77.791260 80.000000 -141.400024
v -68.997391 78.000000 -141.400024
v -68.997391 80.000000 -141.400024
v -68.997391 78.000000 -138.600021
v -68.997391 80.000000 -138.600021
v 77.791267 80.000000 -138.600021
v 177.193054 77.500000 0.639919
v 179.314392 77.500000 2.619820
v 177.193054 79.500000 0.639919
v 16.213835 77.500000 150.887192
v 16.213835 79.500000 150.887192
v 18.335155 77.500000 152.867096
v 18.335155 79.500000 152.867096
v 179.314392 79.500000 2.619820
v 163.396545 77.500000 -42.483341
v 165.517868 77.500000 -40.503441
v 163.396545 79.500000 -42.483341
v -43.550091 77.500000 150.666855
v -43.550091 79.500000 150.666855
v -41.428768 77.500000 152.646744
v -41.428768 79.500000 152.646744
v 165.517868 79.500000 -40.503441
v 118.596359 77.500000 -112.669838
v 120.717682 77.500000 -110.689934
v 118.596359 79.500000 -112.669838
v -120.207207 77.500000 110.213493
v -120.207207 79.500000 110.213493
v -118.085884 77.500000 112.193390
v -118.085884 79.500000 112.193390
v 120.717682 79.500000 -110.689934
v 83.421829 77.500000 -135.840286
v 85.543152 77.500000 -133.860382
v 83.421829 79.500000 -135.840286
v -151.267685 77.500000 83.203255
v -151.267685 79.500000 83.203255
v -149.146362 77.500000 85.183159
v -149.146362 79.500000 85.183159
v 85.543152 79.500000 -133.860382
v 41.828842 77.500000 -153.020157
v 43.950153 77.500000 -151.040253
v 41.828842 79.500000 -153.020157
v -165.149414 77.500000 40.159550
v -165.149414 79.500000 40.159550
v -163.028091 77.500000 42.139442
v -163.028091 79.500000 42.139442
v 43.950153 79.500000 -151.040253
v -18.423609 77.500000 -152.784546
v -16.302286 77.500000 -150.804642
v -18.423609 79.500000 -152.784546
v -179.165497 77.500000 -2.758792
v -179.165497 79.500000 -2.758792
v -177.044174 77.500000 -0.778891
v -177.044174 79.500000 -0.778891
v -16.302286 79.500000 -150.804642
v 148.754639 77.500000 -84.817566
v 150.875961 77.500000 -82.837662
v 148.754639 79.500000 -84.817566
v -85.413345 77.500000 133.739212
v -85.413345 79.500000 133.739212
v -83.292023 77.500000 135.719116
v -83.292023 79.500000 135.719116
v 150.875961 79.500000 -82.837662
v -15.819654 77.000000 151.255096
v -17.940971 77.000000 153.234985
v -15.819654 79.000000 151.255096
v -177.291458 77.000000 0.548061
v -177.291458 79.000000 0.548061
v -179.412781 77.000000 2.527956
v -179.412781 79.000000 2.527956
v -17.940971 79.000000 153.234985
v 117.507133 77.000000 107.693420
v 115.385811 77.000000 109.673325
v 117.507133 79.000000 107.693420
v -116.051361 77.000000 -110.294510
v -116.051361 79.000000 -110.294510
v -118.172684 77.000000 -108.314606
v -118.172684 79.000000 -108.314606
v 115.385811 79.000000 109.673325
v 43.808483 77.000000 150.908020
v 41.687160 77.000000 152.887924
v 43.808483 79.000000 150.908020
v -162.394043 77.000000 -41.547665
v -162.394043 79.000000 -41.547665
v -164.515366 77.000000 -39.567760
v -164.515366 79.000000 -39.567760
v 41.687160 79.000000 152.887924
v 147.363922 77.000000 79.559761
v 145.242599 77.000000 81.539658
v 147.363922 79.000000 79.559761
v -80.107658 77.000000 -132.747040
v -80.107658 79.000000 -132.747040
v -82.228981 77.000000 -130.767151
v -82.228981 79.000000 -130.767151
v 145.242599 79.000000 81.539658
v 163.382080 77.000000 38.510044
v 161.260757 77.000000 40.489944
v 163.382080 79.000000 38.510044
v -42.556698 77.000000 -153.699478
v -42.556698 79.000000 -153.699478
v -44.678020 77.000000 -151.719574
v -44.678020 79.000000 -151.719574
v 161.260757 79.000000 40.489944
v 179.519638 77.000000 -2.428232
v 177.398315 77.000000 -0.448341
v 179.519638 79.000000 -2.428232
v 18.360266 77.000000 -152.843628
v 18.360266 79.000000 -152.843628
v 16.238949 77.000000 -150.863754
v 16.238949 79.000000 -150.863754
v 177.398315 79.000000 -0.448341
vn -0.0000 -1.0000 -0.0000
vn 0.6823 -0.0000 -0.7311
vn -0.6823 -0.0000 0.7311
vn -0.0000 -0.0000 -1.0000
vn -0.0000 -0.0000 1.0000
vn -0.6823 -0.0000 -0.7311
vn 0.6823 -0.0000 0.7311
vt 0.375000 0.500000
vt 0.125000 0.750000
vt 0.125000 0.500000
vt 0.625000 0.750000
vt 0.625000 1.000000
vt 0.375000 1.000000
vt 0.375000 0.750000
vt 0.625000 0.250000
vt 0.375000 0.250000
vt 0.625000 0.500000
s 0
f 6/1/1 1/2/1 2/3/1
f 5/4/2 3/5/2 1/6/2
f 5/4/2 1/6/2 4/7/2
f 6/1/1 4/7/1 1/2/1
f 8/8/3 6/1/3 2/9/3
f 8/8/3 7/10/3 6/1/3
f 14/1/1 9/2/1 10/3/1
f 13/4/4 11/5/4 9/6/4
f 13/4/4 9/6/4 12/7/4
f 14/1/1 12/7/1 9/2/1
f 16/8/5 14/1/5 10/9/5
f 16/8/5 15/10/5 14/1/5
f 22/1/1 17/2/1 18/3/1
f 21/4/4 19/5/4 17/6/4
f 21/4/4 17/6/4 20/7/4
f 22/1/1 20/7/1 17/2/1
f 24/8/5 22/1/5 18/9/5
f 24/8/5 23/10/5 22/1/5
f 30/1/1 25/2/1 26/3/1
f 29/4/4 27/5/4 25/6/4
f 29/4/4 25/6/4 28/7/4
f 30/1/1 28/7/1 25/2/1
f 32/8/5 30/1/5 26/9/5
f 32/8/5 31/10/5 30/1/5
f 38/1/1 33/2/1 34/3/1
f 37/4/4 35/5/4 33/6/4
f 37/4/4 33/6/4 36/7/4
f 38/1/1 36/7/1 33/2/1
f 40/8/5 38/1/5 34/9/5
f 40/8/5 39/10/5 38/1/5
f 46/1/1 41/2/1 42/3/1
f 45/4/4 43/5/4 41/6/4
f 45/4/4 41/6/4 44/7/4
f 46/1/1 44/7/1 41/2/1
f 48/8/5 46/1/5 42/9/5
f 48/8/5 47/10/5 46/1/5
f 54/1/1 49/2/1 50/3/1
f 53/4/4 51/5/4 49/6/4
f 53/4/4 49/6/4 52/7/4
f 54/1/1 52/7/1 49/2/1
f 56/8/5 54/1/5 50/9/5
f 56/8/5 55/10/5 54/1/5
f 58/3/1 60/7/1 57/2/1
f 61/4/4 59/5/4 57/6/4
f 61/4/4 57/6/4 60/7/4
f 58/3/1 62/1/1 60/7/1
f 64/8/5 62/1/5 58/9/5
f 64/8/5 63/10/5 62/1/5
f 70/1/1 65/2/1 66/3/1
f 69/4/4 67/5/4 65/6/4
f 69/4/4 65/6/4 68/7/4
f 70/1/1 68/7/1 65/2/1
f 72/8/5 70/1/5 66/9/5
f 72/8/5 71/10/5 70/1/5
f 74/3/1 76/7/1 73/2/1
f 77/4/4 75/5/4 73/6/4
f 77/4/4 73/6/4 76/7/4
f 74/3/1 78/1/1 76/7/1
f 80/8/5 78/1/5 74/9/5
f 80/8/5 79/10/5 78/1/5
f 86/1/1 81/2/1 82/3/1
f 85/4/4 83/5/4 81/6/4
f 85/4/4 81/6/4 84/7/4
f 86/1/1 84/7/1 81/2/1
f 88/8/5 86/1/5 82/9/5
f 88/8/5 87/10/5 86/1/5
f 94/1/1 89/2/1 90/3/1
f 93/4/4 91/5/4 89/6/4
f 93/4/4 89/6/4 92/7/4
f 94/1/1 92/7/1 89/2/1
f 96/8/5 94/1/5 90/9/5
f 96/8/5 95/10/5 94/1/5
f 102/1/1 97/2/1 98/3/1
f 101/4/6 99/5/6 97/6/6
f 101/4/6 97/6/6 100/7/6
f 102/1/1 100/7/1 97/2/1
f 104/8/7 102/1/7 98/9/7
f 104/8/7 103/10/7 102/1/7
f 110/1/1 105/2/1 106/3/1
f 109/4/6 107/5/6 105/6/6
f 110/1/1 108/7/1 105/2/1
f 109/4/6 105/6/6 108/7/6
f 112/8/7 110/1/7 106/9/7
f 112/8/7 111/10/7 110/1/7
f 118/1/1 113/2/1 114/3/1
f 117/4/6 115/5/6 113/6/6
f 117/4/6 113/6/6 116/7/6
f 118/1/1 116/7/1 113/2/1
f 120/8/7 118/1/7 114/9/7
f 120/8/7 119/10/7 118/1/7
f 126/1/1 121/2/1 122/3/1
f 125/4/6 123/5/6 121/6/6
f 125/4/6 121/6/6 124/7/6
f 126/1/1 124/7/1 121/2/1
f 128/8/7 126/1/7 122/9/7
f 128/8/7 127/10/7 126/1/7
f 134/1/1 129/2/1 130/3/1
f 133/4/6 131/5/6 129/6/6
f 133/4/6 129/6/6 132/7/6
f 134/1/1 132/7/1 129/2/1
f 136/8/7 134/1/7 130/9/7
f 136/8/7 135/10/7 134/1/7
f 142/1/1 137/2/1 138/3/1
f 141/4/6 139/5/6 137/6/6
f 141/4/6 137/6/6 140/7/6
f 142/1/1 140/7/1 137/2/1
f 144/8/7 142/1/7 138/9/7
f 144/8/7 143/10/7 142/1/7
f 150/1/1 145/2/1 146/3/1
f 149/4/6 147/5/6 145/6/6
f 149/4/6 145/6/6 148/7/6
f 150/1/1 148/7/1 145/2/1
f 152/8/7 150/1/7 146/9/7
f 152/8/7 151/10/7 150/1/7
f 154/3/1 156/7/1 153/2/1
f 157/4/2 155/5/2 153/6/2
f 157/4/2 153/6/2 156/7/2
f 154/3/1 158/1/1 156/7/1
f 160/8/3 158/1/3 154/9/3
f 160/8/3 159/10/3 158/1/3
f 166/1/1 161/2/1 162/3/1
f 165/4/2 163/5/2 161/6/2
f 165/4/2 161/6/2 164/7/2
f 166/1/1 164/7/1 161/2/1
f 168/8/3 166/1/3 162/9/3
f 168/8/3 167/10/3 166/1/3
f 174/1/1 169/2/1 170/3/1
f 173/4/2 171/5/2 169/6/2
f 173/4/2 169/6/2 172/7/2
f 174/1/1 172/7/1 169/2/1
f 176/8/3 174/1/3 170/9/3
f 176/8/3 175/10/3 174/1/3
f 182/1/1 177/2/1 178/3/1
f 181/4/2 179/5/2 177/6/2
f 181/4/2 177/6/2 180/7/2
f 182/1/1 180/7/1 177/2/1
f 184/8/3 182/1/3 178/9/3
f 184/8/3 183/10/3 182/1/3
f 190/1/1 185/2/1 186/3/1
f 189/4/2 187/5/2 185/6/2
f 189/4/2 185/6/2 188/7/2
f 190/1/1 188/7/1 185/2/1
f 192/8/3 190/1/3 186/9/3
f 192/8/3 191/10/3 190/1/3
f 194/3/1 196/7/1 193/2/1
f 197/4/2 195/5/2 193/6/2
f 197/4/2 193/6/2 196/7/2
f 194/3/1 198/1/1 196/7/1
f 200/8/3 198/1/3 194/9/3
f 200/8/3 199/10/3 198/1/3
