{
	"asset":{
		"generator":"Khronos glTF Blender I/O v4.4.56",
		"version":"2.0"
	},
	"scene":0,
	"scenes":[
		{
			"name":"Scene",
			"nodes":[
				3,
				7
			]
		}
	],
	"nodes":[
		{
			"name":"Cube"
		},
		{
			"children":[
				0
			],
			"name":"RootNode"
		},
		{
			"children":[
				1
			],
			"name":"Heart.fbx"
		},
		{
			"children":[
				2
			],
			"name":"Sketchfab_model.001"
		},
		{
			"mesh":0,
			"name":"Object_2"
		},
		{
			"mesh":1,
			"name":"Object_3"
		},
		{
			"children":[
				4,
				5
			],
			"name":"f12b519a8acd4829a4718a5e14f7c8ef.obj.cleaner.materialmerger.gle"
		},
		{
			"children":[
				6
			],
			"name":"Sketchfab_model",
			"rotation":[
				-0.70710688829422,
				0,
				0,
				0.7071066498756409
			]
		}
	],
	"materials":[
		{
			"alphaMode":"BLEND",
			"doubleSided":true,
			"name":"Material.002",
			"pbrMetallicRoughness":{
				"baseColorTexture":{
					"index":0
				},
				"roughnessFactor":0
			}
		},
		{
			"doubleSided":true,
			"name":"Material.003",
			"normalTexture":{
				"index":1
			},
			"pbrMetallicRoughness":{
				"baseColorTexture":{
					"index":2
				},
				"roughnessFactor":0.6499999761581421
			}
		}
	],
	"meshes":[
		{
			"name":"Object_0",
			"primitives":[
				{
					"attributes":{
						"POSITION":0,
						"NORMAL":1,
						"TEXCOORD_0":2
					},
					"indices":3,
					"material":0
				}
			]
		},
		{
			"name":"Object_1",
			"primitives":[
				{
					"attributes":{
						"POSITION":4,
						"NORMAL":5,
						"TEXCOORD_0":6
					},
					"indices":7,
					"material":1
				}
			]
		}
	],
	"textures":[
		{
			"sampler":0,
			"source":0
		},
		{
			"sampler":0,
			"source":1
		},
		{
			"sampler":0,
			"source":2
		}
	],
	"images":[
		{
			"mimeType":"image/png",
			"name":"Material.001_baseColor",
			"uri":"Material_001_baseColor.png"
		},
		{
			"mimeType":"image/png",
			"name":"Material.002_normal",
			"uri":"Material_002_normal.png"
		},
		{
			"mimeType":"image/png",
			"name":"Material.002_baseColor",
			"uri":"Material_002_baseColor.png"
		}
	],
	"accessors":[
		{
			"bufferView":0,
			"componentType":5126,
			"count":193,
			"max":[
				1.0217939615249634,
				1.0217939615249634,
				1.0217939615249634
			],
			"min":[
				-1.0217939615249634,
				-1.0217939615249634,
				-1.0217939615249634
			],
			"type":"VEC3"
		},
		{
			"bufferView":1,
			"componentType":5126,
			"count":193,
			"type":"VEC3"
		},
		{
			"bufferView":2,
			"componentType":5126,
			"count":193,
			"type":"VEC2"
		},
		{
			"bufferView":3,
			"componentType":5123,
			"count":672,
			"type":"SCALAR"
		},
		{
			"bufferView":4,
			"componentType":5126,
			"count":705,
			"max":[
				0.962302029132843,
				0.9920709729194641,
				0.962302029132843
			],
			"min":[
				-0.962302029132843,
				-0.8016059994697571,
				-0.9623010158538818
			],
			"type":"VEC3"
		},
		{
			"bufferView":5,
			"componentType":5126,
			"count":705,
			"type":"VEC3"
		},
		{
			"bufferView":6,
			"componentType":5126,
			"count":705,
			"type":"VEC2"
		},
		{
			"bufferView":7,
			"componentType":5123,
			"count":3264,
			"type":"SCALAR"
		}
	],
	"bufferViews":[
		{
			"buffer":0,
			"byteLength":2316,
			"byteOffset":0,
			"target":34962
		},
		{
			"buffer":0,
			"byteLength":2316,
			"byteOffset":2316,
			"target":34962
		},
		{
			"buffer":0,
			"byteLength":1544,
			"byteOffset":4632,
			"target":34962
		},
		{
			"buffer":0,
			"byteLength":1344,
			"byteOffset":6176,
			"target":34963
		},
		{
			"buffer":0,
			"byteLength":8460,
			"byteOffset":7520,
			"target":34962
		},
		{
			"buffer":0,
			"byteLength":8460,
			"byteOffset":15980,
			"target":34962
		},
		{
			"buffer":0,
			"byteLength":5640,
			"byteOffset":24440,
			"target":34962
		},
		{
			"buffer":0,
			"byteLength":6528,
			"byteOffset":30080,
			"target":34963
		}
	],
	"samplers":[
		{
			"magFilter":9729,
			"minFilter":9987
		}
	],
	"buffers":[
		{
			"byteLength":36608,
			"uri":"eye.bin"
		}
	]
}
