# Blender 4.4.1
# www.blender.org
mtllib enemy_core9.mtl
o enemy_core9
v -1.095711 0.419223 0.000000
v -1.000229 -0.000346 0.000000
v -0.866346 0.331467 0.209497
v -1.007578 0.590656 0.000000
v -0.890556 0.548748 0.105762
v -0.891318 0.555587 -0.102497
v -0.544100 0.428500 0.298017
v -0.620465 0.453664 0.298017
v -0.747522 0.498333 0.209497
v -0.685241 0.475776 0.273811
v -0.797864 0.526880 -0.168527
v -0.608187 0.278072 0.298017
v -0.817819 0.487199 -0.173339
v -0.652159 0.186162 0.290714
v -0.639363 0.209549 0.295043
v -0.945743 -0.056164 -0.008891
v -0.944988 -0.067472 0.000000
v -0.865737 -0.039485 0.106350
v -0.770128 0.031238 0.209497
v -0.630566 0.225714 0.298017
v -0.948579 -0.015377 -0.040843
v -0.889855 0.340461 -0.188025
v -0.910247 0.222664 -0.140802
v -0.871770 0.380147 -0.186256
v -0.890556 0.548748 0.105762
v -0.890556 0.548748 0.105762
v -0.747522 0.498333 0.209497
v -0.747522 0.498333 0.209497
v -0.685241 0.475776 0.273811
v -0.685241 0.475776 0.273811
v -0.620465 0.453664 0.298017
v -0.620465 0.453664 0.298017
v -0.544100 0.428500 0.298017
v -0.891318 0.555587 -0.102497
v -0.891318 0.555587 -0.102497
v -0.797864 0.526880 -0.168527
v -1.007578 0.590656 0.000000
v -1.007578 0.590656 0.000000
v -0.817819 0.487199 -0.173339
v -0.608187 0.278072 0.298017
v -0.944988 -0.067472 0.000000
v -0.944988 -0.067472 0.000000
v -0.865737 -0.039485 0.106350
v -0.865737 -0.039485 0.106350
v -0.945743 -0.056164 -0.008891
v -0.652159 0.186162 0.290714
v -0.652159 0.186162 0.290714
v -0.639363 0.209549 0.295043
v -0.770128 0.031238 0.209497
v -0.770128 0.031238 0.209497
v -0.889855 0.340461 -0.188025
v -0.889855 0.340461 -0.188025
v -0.871770 0.380147 -0.186256
v -0.871770 0.380147 -0.186256
v -0.630566 0.225714 0.298017
v -0.630566 0.225714 0.298017
v -0.948579 -0.015377 -0.040843
v -0.948579 -0.015377 -0.040843
v -0.910247 0.222664 -0.140802
v -0.910247 0.222664 -0.140802
v -1.095711 0.419223 0.000000
v -1.095711 0.419223 0.000000
v -1.095711 0.419223 0.000000
v -0.866346 0.331467 0.209497
v -0.866346 0.331467 0.209497
v -0.866346 0.331467 0.209497
v -0.866346 0.331467 0.209497
v -0.866346 0.331467 0.209497
v -0.866346 0.331467 0.209497
v -1.000229 -0.000346 0.000000
v -1.000229 -0.000346 0.000000
v -1.000229 -0.000346 0.000000
v -1.000229 -0.000346 0.000000
v -1.000229 -0.000346 0.000000
vn 0.3128 0.9493 0.0300
vn 0.7948 -0.3386 -0.5037
vn 0.7944 -0.3417 -0.5021
vn 0.7943 -0.3395 -0.5039
vn -0.5792 0.2978 0.7589
vn -0.6983 -0.1589 0.6980
vn -0.6199 -0.5102 0.5962
vn -0.3454 0.0153 0.9383
vn -0.5782 0.4117 0.7044
vn -0.6431 -0.2061 0.7375
vn -0.4723 0.3363 0.8147
vn -0.4318 -0.1384 0.8913
vn -0.0000 -0.0000 1.0000
vn -0.5792 0.2978 -0.7589
vn -0.6983 -0.1589 -0.6980
vn -0.6199 -0.5102 -0.5962
vn -0.6431 -0.2061 -0.7375
vn -0.4723 0.3363 -0.8147
vt 0.445783 0.246891
vt 0.741874 0.000000
vt 0.979404 0.479205
vt 0.928578 0.000000
vt 0.251094 0.251094
vt 0.258126 0.000000
vt 1.000000 0.357005
vt 0.935941 0.846399
vt 0.725268 0.348740
vt 1.000000 0.251094
vt 0.357005 0.357005
vt 0.658138 0.228552
vt 0.000000 0.000000
vt 0.309908 0.203484
vt 0.192973 0.121422
vt 0.071422 0.000000
vt 0.852904 0.205701
vt 0.732716 0.384603
vt 0.928150 0.928150
vt 0.937646 0.324028
vt 1.000000 0.904531
vt 0.661700 0.484607
vt 0.790517 0.187548
vt 0.845837 0.201299
vt 1.000000 0.928150
vt 0.928432 0.913647
vt 0.904531 0.904531
vt 0.393380 0.318481
s 0
f 27/1/1 36/2/1 37/3/1
f 33/4/2 39/5/2 36/6/2
f 45/7/3 46/8/3 43/9/3
f 39/10/4 45/11/4 59/12/4
s 1
f 61/13/5 26/13/5 38/13/5
f 65/13/6 62/13/6 70/13/6
f 42/13/7 44/13/7 71/13/7
f 32/13/8 66/13/8 15/13/8
f 28/13/9 67/13/9 10/13/9
f 68/13/10 18/13/10 50/13/10
f 69/13/11 9/13/11 5/13/11
f 3/13/12 19/13/12 14/13/12
f 12/13/13 8/13/13 20/13/13
f 63/13/14 35/13/14 54/13/14
f 1/13/15 60/13/15 72/13/15
f 73/13/16 16/13/16 17/13/16
f 2/13/17 23/13/17 21/13/17
f 6/13/18 13/13/18 24/13/18
s 0
f 27/1/1 29/14/1 31/15/1
f 31/15/1 33/16/1 36/2/1
f 36/2/1 34/17/1 37/3/1
f 37/3/1 25/18/1 27/1/1
f 27/1/1 31/15/1 36/2/1
f 33/4/2 40/19/2 39/5/2
f 43/9/3 41/20/3 45/7/3
f 45/7/3 48/21/3 46/8/3
f 46/8/3 49/22/3 43/9/3
f 51/23/4 53/24/4 39/10/4
f 39/10/4 40/25/4 55/26/4
f 55/26/4 48/27/4 45/11/4
f 45/11/4 57/28/4 59/12/4
f 59/12/4 51/23/4 39/10/4
f 39/10/4 55/26/4 45/11/4
s 1
f 61/13/5 64/13/5 26/13/5
f 15/13/8 56/13/8 32/13/8
f 32/13/8 30/13/8 66/13/8
f 66/13/8 47/13/8 15/13/8
f 68/13/10 74/13/10 18/13/10
f 12/13/13 7/13/13 8/13/13
f 54/13/14 52/13/14 63/13/14
f 63/13/14 4/13/14 35/13/14
f 1/13/15 22/13/15 60/13/15
f 73/13/16 58/13/16 16/13/16
f 6/13/18 11/13/18 13/13/18
