# Generated by tools/model_lod_builder.ps1
# Source: flore.obj
# Ratio: 0.25
mtllib flore.mtl
v -75 -100 -75
v -75 -100 75
v -75 0 -75
v -75 0 75
v 75 -100 -75
v 75 -100 75
v 75 0 -75
v 75 0 75
vt 0.625000 0.000000
vt 0.375000 0.250000
vt 0.375000 0.000000
vt 0.625000 0.250000
vt 0.375000 0.500000
vt 0.625000 0.500000
vt 0.375000 0.750000
vt 0.625000 0.750000
vt 0.375000 1.000000
vt 0.125000 0.750000
vt 0.125000 0.500000
vt 0.875000 0.500000
vt 0.625000 1.000000
vt 0.875000 0.750000
vn 1.0000 -0.0000 -0.0000
vn -0.0000 -0.0000 1.0000
vn -1.0000 -0.0000 -0.0000
vn -0.0000 -0.0000 -1.0000
vn -0.0000 -1.0000 -0.0000
vn -0.0000 1.0000 -0.0000
o 立方体.001
s 0
usemtl マテリアル.002
f 7/1/1 6/2/1 5/3/1
f 8/4/2 2/5/2 6/2/2
f 4/6/3 1/7/3 2/5/3
f 3/8/4 5/9/4 1/7/4
f 2/5/5 5/10/5 6/11/5
f 8/12/6 3/8/6 4/6/6
f 7/1/1 8/4/1 6/2/1
f 8/4/2 4/6/2 2/5/2
f 4/6/3 3/8/3 1/7/3
f 3/8/4 7/13/4 5/9/4
f 2/5/5 1/7/5 5/10/5
f 8/12/6 7/14/6 3/8/6
