# Blender 4.4.1
# www.blender.org
mtllib map_floor_08.mtl
o 四角8
v -15.966051 -1.299999 -13.844730
v -13.844730 -1.299999 -15.966051
v -15.966051 1.699999 -13.844730
v -12.430518 -1.299999 -10.309197
v -10.309197 -1.299999 -12.430518
v -12.430518 1.699999 -10.309197
v -10.309197 1.699999 -12.430518
v -13.844730 1.699999 -15.966051
vn -0.7071 -0.0000 -0.7071
vn -0.7071 -0.0000 0.7071
vn -0.0000 1.0000 -0.0000
vn 0.7071 -0.0000 -0.7071
vt 0.625000 0.000000
vt 0.375000 0.250000
vt 0.375000 0.000000
vt 0.625000 0.750000
vt 0.375000 1.000000
vt 0.375000 0.750000
vt 0.875000 0.500000
vt 0.625000 0.500000
vt 0.625000 0.250000
vt 0.375000 0.500000
vt 0.625000 1.000000
vt 0.875000 0.750000
s 0
f 3/1/1 2/2/1 1/3/1
f 6/4/2 1/5/2 4/6/2
f 8/7/3 6/4/3 7/8/3
f 8/9/4 5/10/4 2/2/4
f 3/1/1 8/9/1 2/2/1
f 6/4/2 3/11/2 1/5/2
f 8/7/3 3/12/3 6/4/3
f 8/9/4 7/8/4 5/10/4
