# Blender 4.4.1
# www.blender.org
mtllib enemy_core6.mtl
o enemy_core6
v 0.000000 0.820751 0.000000
v -0.179578 0.945369 0.000000
v -0.374930 0.992584 0.000000
v 0.179578 0.945369 0.000000
v -0.095371 0.384292 -0.039330
v 0.374930 0.992584 0.000000
v 0.032839 0.435050 0.132011
v 0.090217 0.485413 0.070512
v -0.307725 0.653042 0.298017
v 0.000000 0.705862 0.209497
v -0.307725 0.653042 -0.298017
v 0.000000 0.705862 -0.209497
v -0.044259 0.470242 -0.298017
v -0.050524 0.466055 -0.298017
v -0.073932 0.450516 -0.298017
v -0.418405 0.609053 -0.298017
v -0.465651 0.625419 -0.279734
v 0.000023 0.518261 -0.289725
v 0.151844 0.679803 -0.253169
v -0.013585 0.505691 -0.298017
v 0.347861 0.855720 -0.120126
v 0.400277 0.899336 -0.075493
v -0.414527 0.433436 0.298017
v -0.388798 0.421782 0.298017
v -0.554911 0.656558 -0.245079
v -0.470040 0.459083 0.298017
v -0.027166 0.462582 0.298017
v -0.051876 0.459678 0.298017
v -0.557017 0.699857 0.222119
v -0.510049 0.572628 0.298017
v -0.572478 0.740780 0.185133
v -0.570286 0.702349 -0.218079
v -0.579803 0.731443 -0.191999
v -0.641744 0.922646 0.000000
v 0.410986 0.960255 -0.021175
v 0.409328 0.948739 -0.032236
v -0.004548 0.501164 0.298017
v 0.000024 0.506434 0.294783
v 0.126595 0.684136 0.245907
v 0.414190 0.982293 0.000000
v 0.395733 0.966068 0.019496
v 0.363607 0.935335 0.050248
v -0.044259 0.470242 -0.298017
v -0.050524 0.466055 -0.298017
v -0.073932 0.450516 -0.298017
v -0.418405 0.609053 -0.298017
v -0.418405 0.609053 -0.298017
v -0.465651 0.625419 -0.279734
v -0.013585 0.505691 -0.298017
v -0.013585 0.505691 -0.298017
v 0.000023 0.518261 -0.289725
v 0.000023 0.518261 -0.289725
v 0.151844 0.679803 -0.253169
v 0.151844 0.679803 -0.253169
v 0.347861 0.855720 -0.120126
v 0.347861 0.855720 -0.120126
v 0.400277 0.899336 -0.075493
v -0.414527 0.433436 0.298017
v -0.388798 0.421782 0.298017
v -0.554911 0.656558 -0.245079
v -0.470040 0.459083 0.298017
v -0.027166 0.462582 0.298017
v -0.051876 0.459678 0.298017
v -0.570286 0.702349 -0.218079
v -0.570286 0.702349 -0.218079
v -0.510049 0.572628 0.298017
v -0.510049 0.572628 0.298017
v -0.557017 0.699857 0.222119
v -0.557017 0.699857 0.222119
v -0.572478 0.740780 0.185133
v -0.572478 0.740780 0.185133
v 0.409328 0.948739 -0.032236
v 0.409328 0.948739 -0.032236
v -0.579803 0.731443 -0.191999
v -0.579803 0.731443 -0.191999
v -0.641744 0.922646 0.000000
v -0.641744 0.922646 0.000000
v 0.410986 0.960255 -0.021175
v -0.004548 0.501164 0.298017
v -0.004548 0.501164 0.298017
v 0.000024 0.506434 0.294783
v 0.000024 0.506434 0.294783
v 0.126595 0.684136 0.245907
v 0.126595 0.684136 0.245907
v 0.363607 0.935335 0.050248
v 0.363607 0.935335 0.050248
v 0.414190 0.982293 0.000000
v 0.414190 0.982293 0.000000
v 0.395733 0.966068 0.019496
v 0.395733 0.966068 0.019496
v 0.000000 0.820751 0.000000
v 0.000000 0.820751 0.000000
v 0.000000 0.820751 0.000000
v -0.179578 0.945369 0.000000
v -0.179578 0.945369 0.000000
v -0.179578 0.945369 0.000000
v 0.000000 0.705862 0.209497
v 0.000000 0.705862 0.209497
v 0.000000 0.705862 0.209497
v 0.000000 0.705862 0.209497
v 0.000000 0.705862 0.209497
v 0.000000 0.705862 0.209497
v 0.000000 0.705862 0.209497
v -0.374930 0.992584 0.000000
v -0.374930 0.992584 0.000000
v -0.374930 0.992584 0.000000
v -0.374930 0.992584 0.000000
v -0.374930 0.992584 0.000000
v -0.374930 0.992584 0.000000
v -0.374930 0.992584 0.000000
v -0.307725 0.653042 0.298017
v -0.307725 0.653042 0.298017
v -0.307725 0.653042 0.298017
v -0.307725 0.653042 0.298017
v 0.179578 0.945369 0.000000
v 0.179578 0.945369 0.000000
v 0.179578 0.945369 0.000000
v 0.374930 0.992584 0.000000
v 0.374930 0.992584 0.000000
v 0.374930 0.992584 0.000000
v 0.374930 0.992584 0.000000
v 0.374930 0.992584 0.000000
v 0.374930 0.992584 0.000000
v 0.374930 0.992584 0.000000
v 0.000000 0.705862 -0.209497
v 0.000000 0.705862 -0.209497
v 0.000000 0.705862 -0.209497
v 0.000000 0.705862 -0.209497
v 0.000000 0.705862 -0.209497
v 0.000000 0.705862 -0.209497
v 0.000000 0.705862 -0.209497
v -0.307725 0.653042 -0.298017
v -0.307725 0.653042 -0.298017
v -0.307725 0.653042 -0.298017
v -0.307725 0.653042 -0.298017
vn 0.5479 -0.8198 -0.1662
vn 0.8021 -0.4699 0.3685
vn -0.4039 -0.8776 -0.2581
vn -0.0000 -0.0000 -1.0000
vn 0.8030 -0.4743 0.3608
vn -0.3995 -0.8821 -0.2495
vn -0.4055 -0.8776 -0.2557
vn 0.1143 -0.9726 0.2026
vn 0.1094 -0.9730 0.2033
vn 0.5455 -0.8217 -0.1652
vn 0.5198 0.7490 0.4108
vn -0.1753 0.6687 0.7225
vn 0.1933 0.3858 0.9021
vn 0.0978 0.6674 0.7383
vn 0.7338 -0.6349 -0.2416
vn -0.5198 0.7490 0.4108
vn 0.1753 0.6687 0.7225
vn -0.1933 0.3858 0.9021
vn 0.1099 0.6433 0.7577
vn 0.1738 0.7190 0.6730
vn -0.1099 0.6433 0.7577
vn -0.0000 -0.0000 1.0000
vn -0.9428 -0.3322 0.0265
vn -0.1738 0.7190 0.6730
vn -0.0978 0.6673 0.7383
vn -0.1804 0.4539 0.8726
vn 0.5198 0.7490 -0.4108
vn -0.1753 0.6687 -0.7225
vn 0.1933 0.3858 -0.9021
vn 0.0978 0.6674 -0.7383
vn -0.5198 0.7490 -0.4108
vn 0.1753 0.6687 -0.7225
vn -0.1933 0.3858 -0.9021
vn 0.1099 0.6433 -0.7577
vn 0.1738 0.7190 -0.6730
vn -0.1099 0.6433 -0.7577
vn -0.1738 0.7190 -0.6730
vn -0.0978 0.6673 -0.7383
vn -0.1804 0.4539 -0.8726
vn 0.8022 -0.4701 0.3682
vn 0.8022 -0.4702 0.3679
vn 0.8021 -0.4704 0.3679
vn 0.8011 -0.4706 0.3699
vn 0.8021 -0.4703 0.3680
vn 0.8021 -0.4702 0.3681
vn 0.8027 -0.4693 0.3681
vn 0.5452 -0.8220 -0.1645
vn 0.5455 -0.8217 -0.1651
vn 0.7339 -0.6349 -0.2414
vn 0.7338 -0.6350 -0.2416
vn 0.7338 -0.6350 -0.2415
vn -0.9429 -0.3321 0.0265
vn -0.1805 0.4537 -0.8727
vt 0.119725 0.000000
vt 1.000000 0.000000
vt 1.000000 0.879771
vt 0.930303 0.121026
vt 1.000000 0.985022
vt 0.164313 0.133815
vt 0.837566 0.150324
vt 0.000000 0.000000
vt 0.778478 0.000000
vt 1.000000 1.000000
vt 0.014978 0.000000
vt 1.000000 0.129889
vt 0.129738 0.129738
vt 1.000000 0.221522
vt 0.129888 0.129888
vt 0.072300 0.000000
vt 1.000000 0.129953
vt 0.129953 0.129953
vt 1.000000 0.129738
vt 0.879771 0.879771
vt 0.916611 0.788519
vt 0.635806 0.238455
vt 0.852030 0.852030
vt 0.261009 0.072149
vt 0.634323 0.234047
vt 0.242446 0.187603
vt 0.739570 0.627118
vt 0.939419 0.122665
vt 1.000000 0.232851
vt 0.308794 0.198751
vt 0.135453 0.135453
vt 0.114781 0.105410
vt 0.837039 0.837039
vt 0.852030 0.000000
vt 0.767149 0.000000
vt 1.000000 0.837039
vt 1.000000 0.018031
vt 1.000000 0.880275
vt 0.938000 0.826779
vt 0.636708 0.459689
vt 0.499904 0.343660
vt 0.932354 0.775696
vt 0.905685 0.813192
vt 0.072300 0.072300
vt 0.535560 0.180983
s 0
f 43/1/1 8/2/1 44/3/1
f 81/4/2 57/5/2 89/6/2
f 46/7/3 5/8/3 48/9/3
s 1
f 132/8/4 13/8/4 15/8/4
s 0
f 7/2/5 8/10/5 57/11/5
f 58/12/6 5/10/6 59/13/6
f 48/14/7 58/15/7 61/16/7
f 7/8/8 63/17/8 5/10/8
f 5/10/9 63/18/9 59/19/9
f 5/2/10 44/20/10 8/10/10
s 1
f 94/8/11 97/8/11 91/8/11
f 71/8/12 104/8/12 76/8/12
f 82/8/13 111/8/13 80/8/13
f 105/8/14 112/8/14 99/8/14
s 0
f 8/2/15 51/21/15 55/22/15
s 1
f 92/8/16 100/8/16 115/8/16
f 118/8/17 90/8/17 88/8/17
f 38/8/18 84/8/18 101/8/18
f 41/8/19 119/8/19 86/8/19
f 95/8/20 106/8/20 10/8/20
f 113/8/21 70/8/21 69/8/21
f 66/8/22 23/8/22 28/8/22
s 0
f 60/23/23 67/24/23 31/25/23
s 1
f 116/8/24 102/8/24 120/8/24
f 42/8/25 103/8/25 39/8/25
f 29/8/26 30/8/26 9/8/26
f 96/8/27 93/8/27 125/8/27
f 34/8/28 107/8/28 75/8/28
f 126/8/29 20/8/29 133/8/29
f 108/8/30 127/8/30 134/8/30
f 128/8/31 1/8/31 117/8/31
f 121/8/32 35/8/32 73/8/32
f 129/8/33 54/8/33 18/8/33
f 22/8/34 122/8/34 36/8/34
f 3/8/35 2/8/35 12/8/35
f 135/8/36 33/8/36 110/8/36
f 130/8/37 4/8/37 123/8/37
f 131/8/38 21/8/38 19/8/38
f 25/8/39 11/8/39 16/8/39
s 0
f 85/26/40 83/27/40 81/4/40
f 81/4/41 79/28/41 62/29/41
f 62/29/42 7/2/42 57/5/42
f 57/5/43 72/30/43 78/31/43
f 78/31/44 87/32/44 89/6/44
f 89/6/40 85/26/40 81/4/40
f 81/4/45 62/29/45 57/5/45
f 57/5/46 78/31/46 89/6/46
f 46/7/3 45/33/3 5/8/3
s 1
f 15/8/4 47/8/4 132/8/4
f 132/8/4 49/8/4 13/8/4
f 13/8/4 14/8/4 15/8/4
s 0
f 61/16/7 60/34/7 48/14/7
f 48/14/7 5/10/7 58/15/7
f 7/8/8 62/35/8 63/17/8
f 8/10/47 7/8/47 5/2/47
f 5/2/48 45/36/48 44/20/48
s 1
f 82/8/13 98/8/13 111/8/13
s 0
f 55/22/49 57/37/49 8/2/49
f 8/2/50 43/38/50 50/39/50
f 51/21/51 53/40/51 55/22/51
f 8/2/50 50/39/50 51/21/50
s 1
f 113/8/21 109/8/21 70/8/21
f 28/8/22 27/8/22 37/8/22
f 37/8/22 114/8/22 66/8/22
f 66/8/22 26/8/22 23/8/22
f 23/8/22 24/8/22 28/8/22
f 28/8/22 37/8/22 66/8/22
s 0
f 31/25/52 77/41/52 74/42/52
f 74/42/23 64/43/23 60/23/23
f 60/23/23 61/44/23 67/24/23
f 67/24/23 68/45/23 31/25/23
f 31/25/23 74/42/23 60/23/23
s 1
f 42/8/25 6/8/25 103/8/25
f 126/8/29 52/8/29 20/8/29
f 121/8/32 40/8/32 35/8/32
f 22/8/34 56/8/34 122/8/34
f 135/8/36 65/8/36 33/8/36
f 131/8/38 124/8/38 21/8/38
f 16/8/39 17/8/53 25/8/39
f 25/8/39 32/8/39 11/8/39
