{
	"asset":{
		"generator":"Khronos glTF Blender I/O v4.4.56",
		"version":"2.0"
	},
	"extensionsUsed":[
		"KHR_materials_specular",
		"KHR_materials_ior"
	],
	"scene":0,
	"scenes":[
		{
			"name":"Scene",
			"nodes":[
				13
			]
		}
	],
	"nodes":[
		{
			"mesh":0,
			"name":"Object_6"
		},
		{
			"children":[
				0
			],
			"name":"node_id31_1",
			"scale":[
				256,
				256,
				256
			],
			"translation":[
				-0.0001068115234375,
				-5.6730804443359375,
				256.00262451171875
			]
		},
		{
			"mesh":1,
			"name":"Object_8"
		},
		{
			"children":[
				2
			],
			"name":"node_id33_5",
			"scale":[
				256,
				256,
				256
			],
			"translation":[
				-0.0001068115234375,
				-5.6730804443359375,
				256.00262451171875
			]
		},
		{
			"children":[
				1,
				3
			],
			"name":"node_id35_3",
			"scale":[
				0.0010000000474974513,
				0.0010000000474974513,
				0.0010000000474974513
			],
			"translation":[
				-0.005735490936785936,
				-0.1543269157409668,
				0
			]
		},
		{
			"name":"node_id46_6",
			"scale":[
				0.0999511182308197,
				0.0999511182308197,
				0.0999511182308197
			],
			"translation":[
				-0.17894627153873444,
				-0.15570545196533203,
				0.4298960566520691
			]
		},
		{
			"name":"node_id54_7",
			"scale":[
				0.0999511182308197,
				0.0999511182308197,
				0.0999511182308197
			],
			"translation":[
				0.08024141937494278,
				-0.15570545196533203,
				0.05739797651767731
			]
		},
		{
			"name":"node_id58_8",
			"scale":[
				0.0999511182308197,
				0.0999511182308197,
				0.0999511182308197
			],
			"translation":[
				-0.019638529047369957,
				-0.15570545196533203,
				0.2900295853614807
			]
		},
		{
			"name":"node_id60_4",
			"scale":[
				0.0999511182308197,
				0.0999511182308197,
				0.0999511182308197
			],
			"translation":[
				-0.17894627153873444,
				-0.15570545196533203,
				0.2595439851284027
			]
		},
		{
			"name":"node_id62_0",
			"scale":[
				0.0999511182308197,
				0.0999511182308197,
				0.0999511182308197
			],
			"translation":[
				0.13581423461437225,
				-0.15570545196533203,
				0.44382622838020325
			]
		},
		{
			"children":[
				4,
				5,
				6,
				7,
				8,
				9
			],
			"name":"root_2"
		},
		{
			"children":[
				10
			],
			"name":"GLTF_SceneRootNode",
			"rotation":[
				0.70710688829422,
				0,
				0,
				0.7071066498756409
			]
		},
		{
			"children":[
				11
			],
			"name":"root"
		},
		{
			"children":[
				12
			],
			"name":"Sketchfab_model",
			"rotation":[
				-0.70710688829422,
				0,
				0,
				0.7071066498756409
			]
		}
	],
	"materials":[
		{
			"doubleSided":true,
			"extensions":{
				"KHR_materials_specular":{
					"specularColorTexture":{
						"index":0
					}
				},
				"KHR_materials_ior":{
					"ior":1000
				}
			},
			"name":"material.001",
			"pbrMetallicRoughness":{
				"baseColorTexture":{
					"index":1
				},
				"metallicFactor":0,
				"metallicRoughnessTexture":{
					"index":2
				}
			}
		},
		{
			"doubleSided":true,
			"extensions":{
				"KHR_materials_specular":{
					"specularColorTexture":{
						"index":3
					}
				},
				"KHR_materials_ior":{
					"ior":1000
				}
			},
			"name":"material_1.001",
			"pbrMetallicRoughness":{
				"baseColorTexture":{
					"index":4
				},
				"metallicFactor":0,
				"metallicRoughnessTexture":{
					"index":5
				}
			}
		}
	],
	"meshes":[
		{
			"name":"Object_0.003",
			"primitives":[
				{
					"attributes":{
						"POSITION":0,
						"NORMAL":1,
						"TEXCOORD_0":2,
						"TEXCOORD_1":3,
						"TEXCOORD_2":4
					},
					"indices":5,
					"material":0
				}
			]
		},
		{
			"name":"Object_1.003",
			"primitives":[
				{
					"attributes":{
						"POSITION":6,
						"NORMAL":7,
						"TEXCOORD_0":8,
						"TEXCOORD_1":9,
						"TEXCOORD_2":10
					},
					"indices":11,
					"material":1
				}
			]
		}
	],
	"textures":[
		{
			"sampler":0,
			"source":0
		},
		{
			"sampler":0,
			"source":1
		},
		{
			"sampler":0,
			"source":2
		},
		{
			"sampler":0,
			"source":3
		},
		{
			"sampler":0,
			"source":4
		},
		{
			"sampler":0,
			"source":5
		}
	],
	"images":[
		{
			"mimeType":"image/png",
			"name":"material_specularGlossiness",
			"uri":"material_specularGlossiness.png"
		},
		{
			"mimeType":"image/png",
			"name":"material_diffuse",
			"uri":"material_diffuse.png"
		},
		{
			"mimeType":"image/png",
			"name":"material_specularGlossiness",
			"uri":"material_specularGlossiness-1.png"
		},
		{
			"mimeType":"image/png",
			"name":"material_1_specularGlossiness",
			"uri":"material_1_specularGlossiness.png"
		},
		{
			"mimeType":"image/png",
			"name":"material_1_diffuse",
			"uri":"material_1_diffuse.png"
		},
		{
			"mimeType":"image/png",
			"name":"material_1_specularGlossiness",
			"uri":"material_1_specularGlossiness-1.png"
		}
	],
	"accessors":[
		{
			"bufferView":0,
			"componentType":5126,
			"count":25,
			"max":[
				1,
				0.044321008026599884,
				0.999988853931427
			],
			"min":[
				-1,
				0.044321008026599884,
				-1.0000094175338745
			],
			"type":"VEC3"
		},
		{
			"bufferView":1,
			"componentType":5126,
			"count":25,
			"type":"VEC3"
		},
		{
			"bufferView":2,
			"componentType":5126,
			"count":25,
			"type":"VEC2"
		},
		{
			"bufferView":3,
			"componentType":5126,
			"count":25,
			"type":"VEC2"
		},
		{
			"bufferView":4,
			"componentType":5126,
			"count":25,
			"type":"VEC2"
		},
		{
			"bufferView":5,
			"componentType":5123,
			"count":96,
			"type":"SCALAR"
		},
		{
			"bufferView":6,
			"componentType":5126,
			"count":65,
			"max":[
				1,
				0.044321008026599884,
				0.999988853931427
			],
			"min":[
				-1,
				0,
				-1.0000094175338745
			],
			"type":"VEC3"
		},
		{
			"bufferView":7,
			"componentType":5126,
			"count":65,
			"type":"VEC3"
		},
		{
			"bufferView":8,
			"componentType":5126,
			"count":65,
			"type":"VEC2"
		},
		{
			"bufferView":9,
			"componentType":5126,
			"count":65,
			"type":"VEC2"
		},
		{
			"bufferView":10,
			"componentType":5126,
			"count":65,
			"type":"VEC2"
		},
		{
			"bufferView":11,
			"componentType":5123,
			"count":192,
			"type":"SCALAR"
		}
	],
	"bufferViews":[
		{
			"buffer":0,
			"byteLength":300,
			"byteOffset":0,
			"target":34962
		},
		{
			"buffer":0,
			"byteLength":300,
			"byteOffset":300,
			"target":34962
		},
		{
			"buffer":0,
			"byteLength":200,
			"byteOffset":600,
			"target":34962
		},
		{
			"buffer":0,
			"byteLength":200,
			"byteOffset":800,
			"target":34962
		},
		{
			"buffer":0,
			"byteLength":200,
			"byteOffset":1000,
			"target":34962
		},
		{
			"buffer":0,
			"byteLength":192,
			"byteOffset":1200,
			"target":34963
		},
		{
			"buffer":0,
			"byteLength":780,
			"byteOffset":1392,
			"target":34962
		},
		{
			"buffer":0,
			"byteLength":780,
			"byteOffset":2172,
			"target":34962
		},
		{
			"buffer":0,
			"byteLength":520,
			"byteOffset":2952,
			"target":34962
		},
		{
			"buffer":0,
			"byteLength":520,
			"byteOffset":3472,
			"target":34962
		},
		{
			"buffer":0,
			"byteLength":520,
			"byteOffset":3992,
			"target":34962
		},
		{
			"buffer":0,
			"byteLength":384,
			"byteOffset":4512,
			"target":34963
		}
	],
	"samplers":[
		{
			"magFilter":9729,
			"minFilter":9987
		}
	],
	"buffers":[
		{
			"byteLength":4896,
			"uri":"garasu.bin"
		}
	]
}
