mtllib magma_fortress_foundation.mtl
o magma_fortress_foundation
v 14.987500 0.000000 -11.662500
v 14.650000 0.000000 -12.000000
v 0.000000 0.000000 0.000000
v 15.325000 0.000000 -11.325000
v 14.987500 0.000000 -11.662500
v 0.000000 0.000000 0.000000
v 15.662500 0.000000 -10.987500
v 15.325000 0.000000 -11.325000
v 0.000000 0.000000 0.000000
v 16.000000 0.000000 -10.650000
v 15.662500 0.000000 -10.987500
v 0.000000 0.000000 0.000000
v 16.000000 0.000000 -5.325000
v 16.000000 0.000000 -10.650000
v 0.000000 0.000000 0.000000
v 16.000000 0.000000 0.000000
v 16.000000 0.000000 -5.325000
v 0.000000 0.000000 0.000000
v 16.000000 0.000000 5.325000
v 16.000000 0.000000 0.000000
v 0.000000 0.000000 0.000000
v 16.000000 0.000000 10.650000
v 16.000000 0.000000 5.325000
v 0.000000 0.000000 0.000000
v 15.662500 0.000000 10.987500
v 16.000000 0.000000 10.650000
v 0.000000 0.000000 0.000000
v 15.325000 0.000000 11.325000
v 15.662500 0.000000 10.987500
v 0.000000 0.000000 0.000000
v 14.987500 0.000000 11.662500
v 15.325000 0.000000 11.325000
v 0.000000 0.000000 0.000000
v 14.650000 0.000000 12.000000
v 14.987500 0.000000 11.662500
v 0.000000 0.000000 0.000000
v 7.325000 0.000000 12.000000
v 14.650000 0.000000 12.000000
v 0.000000 0.000000 0.000000
v 0.000000 0.000000 12.000000
v 7.325000 0.000000 12.000000
v 0.000000 0.000000 0.000000
v -7.325000 0.000000 12.000000
v 0.000000 0.000000 12.000000
v 0.000000 0.000000 0.000000
v -14.650000 0.000000 12.000000
v -7.325000 0.000000 12.000000
v 0.000000 0.000000 0.000000
v -14.987500 0.000000 11.662500
v -14.650000 0.000000 12.000000
v 0.000000 0.000000 0.000000
v -15.325000 0.000000 11.325000
v -14.987500 0.000000 11.662500
v 0.000000 0.000000 0.000000
v -15.662500 0.000000 10.987500
v -15.325000 0.000000 11.325000
v 0.000000 0.000000 0.000000
v -16.000000 0.000000 10.650000
v -15.662500 0.000000 10.987500
v 0.000000 0.000000 0.000000
v -16.000000 0.000000 5.325000
v -16.000000 0.000000 10.650000
v 0.000000 0.000000 0.000000
v -16.000000 0.000000 0.000000
v -16.000000 0.000000 5.325000
v 0.000000 0.000000 0.000000
v -16.000000 0.000000 -5.325000
v -16.000000 0.000000 0.000000
v 0.000000 0.000000 0.000000
v -16.000000 0.000000 -10.650000
v -16.000000 0.000000 -5.325000
v 0.000000 0.000000 0.000000
v -15.662500 0.000000 -10.987500
v -16.000000 0.000000 -10.650000
v 0.000000 0.000000 0.000000
v -15.325000 0.000000 -11.325000
v -15.662500 0.000000 -10.987500
v 0.000000 0.000000 0.000000
v -14.987500 0.000000 -11.662500
v -15.325000 0.000000 -11.325000
v 0.000000 0.000000 0.000000
v -14.650000 0.000000 -12.000000
v -14.987500 0.000000 -11.662500
v 0.000000 0.000000 0.000000
v -7.325000 0.000000 -12.000000
v -14.650000 0.000000 -12.000000
v 0.000000 0.000000 0.000000
v 0.000000 0.000000 -12.000000
v -7.325000 0.000000 -12.000000
v 0.000000 0.000000 0.000000
v 7.325000 0.000000 -12.000000
v 0.000000 0.000000 -12.000000
v 0.000000 0.000000 0.000000
v 14.650000 0.000000 -12.000000
v 7.325000 0.000000 -12.000000
v 0.000000 0.000000 0.000000
v 14.650000 0.000000 -12.000000
v 14.987500 0.000000 -11.662500
v 15.147411 -0.650000 -11.858087
v 14.773952 -0.650000 -12.203264
v 14.987500 0.000000 -11.662500
v 15.325000 0.000000 -11.325000
v 15.482888 -0.650000 -11.483433
v 15.147411 -0.650000 -11.858087
v 15.325000 0.000000 -11.325000
v 15.662500 0.000000 -10.987500
v 15.842847 -0.650000 -11.127744
v 15.482888 -0.650000 -11.483433
v 15.662500 0.000000 -10.987500
v 16.000000 0.000000 -10.650000
v 16.221291 -0.650000 -10.784154
v 15.842847 -0.650000 -11.127744
v 16.000000 0.000000 -10.650000
v 16.000000 0.000000 -5.325000
v 16.198432 -0.650000 -5.384479
v 16.221291 -0.650000 -10.784154
v 16.000000 0.000000 -5.325000
v 16.000000 0.000000 0.000000
v 16.166772 -0.650000 0.000000
v 16.198432 -0.650000 -5.384479
v 16.000000 0.000000 0.000000
v 16.000000 0.000000 5.325000
v 16.194043 -0.650000 5.383020
v 16.166772 -0.650000 0.000000
v 16.000000 0.000000 5.325000
v 16.000000 0.000000 10.650000
v 16.209147 -0.650000 10.776081
v 16.194043 -0.650000 5.383020
v 16.000000 0.000000 10.650000
v 15.662500 0.000000 10.987500
v 15.831584 -0.650000 11.119833
v 16.209147 -0.650000 10.776081
v 15.662500 0.000000 10.987500
v 15.325000 0.000000 11.325000
v 15.483133 -0.650000 11.483615
v 15.831584 -0.650000 11.119833
v 15.325000 0.000000 11.325000
v 14.987500 0.000000 11.662500
v 15.153838 -0.650000 11.863119
v 15.483133 -0.650000 11.483615
v 14.987500 0.000000 11.662500
v 14.650000 0.000000 12.000000
v 14.780319 -0.650000 12.208523
v 15.153838 -0.650000 11.863119
v 14.650000 0.000000 12.000000
v 7.325000 0.000000 12.000000
v 7.374536 -0.650000 12.182714
v 14.780319 -0.650000 12.208523
v 7.325000 0.000000 12.000000
v 0.000000 0.000000 12.000000
v 0.000000 -0.650000 12.198210
v 7.374536 -0.650000 12.182714
v 0.000000 0.000000 12.000000
v -7.325000 0.000000 12.000000
v -7.388160 -0.650000 12.205221
v 0.000000 -0.650000 12.198210
v -7.325000 0.000000 12.000000
v -14.650000 0.000000 12.000000
v -14.750071 -0.650000 12.183538
v -7.388160 -0.650000 12.205221
v -14.650000 0.000000 12.000000
v -14.987500 0.000000 11.662500
v -15.113945 -0.650000 11.831888
v -14.750071 -0.650000 12.183538
v -14.987500 0.000000 11.662500
v -15.325000 0.000000 11.325000
v -15.505084 -0.650000 11.499896
v -15.113945 -0.650000 11.831888
v -15.325000 0.000000 11.325000
v -15.662500 0.000000 10.987500
v -15.855822 -0.650000 11.136857
v -15.505084 -0.650000 11.499896
v -15.662500 0.000000 10.987500
v -16.000000 0.000000 10.650000
v -16.192553 -0.650000 10.765049
v -15.855822 -0.650000 11.136857
v -16.000000 0.000000 10.650000
v -16.000000 0.000000 5.325000
v -16.211541 -0.650000 5.388836
v -16.192553 -0.650000 10.765049
v -16.000000 0.000000 5.325000
v -16.000000 0.000000 0.000000
v -16.217101 -0.650000 0.000000
v -16.211541 -0.650000 5.388836
v -16.000000 0.000000 0.000000
v -16.000000 0.000000 -5.325000
v -16.177122 -0.650000 -5.377395
v -16.217101 -0.650000 0.000000
v -16.000000 0.000000 -5.325000
v -16.000000 0.000000 -10.650000
v -16.177694 -0.650000 -10.755171
v -16.177122 -0.650000 -5.377395
v -16.000000 0.000000 -10.650000
v -15.662500 0.000000 -10.987500
v -15.850854 -0.650000 -11.133367
v -16.177694 -0.650000 -10.755171
v -15.662500 0.000000 -10.987500
v -15.325000 0.000000 -11.325000
v -15.488564 -0.650000 -11.487643
v -15.850854 -0.650000 -11.133367
v -15.325000 0.000000 -11.325000
v -14.987500 0.000000 -11.662500
v -15.117044 -0.650000 -11.834315
v -15.488564 -0.650000 -11.487643
v -14.987500 0.000000 -11.662500
v -14.650000 0.000000 -12.000000
v -14.783529 -0.650000 -12.211175
v -15.117044 -0.650000 -11.834315
v -14.650000 0.000000 -12.000000
v -7.325000 0.000000 -12.000000
v -7.401025 -0.650000 -12.226472
v -14.783529 -0.650000 -12.211175
v -7.325000 0.000000 -12.000000
v 0.000000 0.000000 -12.000000
v 0.000000 -0.650000 -12.190488
v -7.401025 -0.650000 -12.226472
v 0.000000 0.000000 -12.000000
v 7.325000 0.000000 -12.000000
v 7.374605 -0.650000 -12.182828
v 0.000000 -0.650000 -12.190488
v 7.325000 0.000000 -12.000000
v 14.650000 0.000000 -12.000000
v 14.773952 -0.650000 -12.203264
v 7.374605 -0.650000 -12.182828
v 14.773952 -0.650000 -12.203264
v 15.147411 -0.650000 -11.858087
v 15.439841 -2.784000 -12.177233
v 15.075688 -2.784000 -12.575599
v 15.147411 -0.650000 -11.858087
v 15.482888 -0.650000 -11.483433
v 15.780843 -2.784000 -11.763266
v 15.439841 -2.784000 -12.177233
v 15.482888 -0.650000 -11.483433
v 15.842847 -0.650000 -11.127744
v 16.242445 -2.784000 -11.437671
v 15.780843 -2.784000 -11.763266
v 15.842847 -0.650000 -11.127744
v 16.221291 -0.650000 -10.784154
v 16.650164 -2.784000 -11.069973
v 16.242445 -2.784000 -11.437671
v 16.221291 -0.650000 -10.784154
v 16.198432 -0.650000 -5.384479
v 16.535701 -2.784000 -5.496936
v 16.650164 -2.784000 -11.069973
v 16.198432 -0.650000 -5.384479
v 16.166772 -0.650000 0.000000
v 16.510111 -2.784000 0.000000
v 16.535701 -2.784000 -5.496936
v 16.166772 -0.650000 0.000000
v 16.194043 -0.650000 5.383020
v 16.595571 -2.784000 5.516838
v 16.510111 -2.784000 0.000000
v 16.194043 -0.650000 5.383020
v 16.209147 -0.650000 10.776081
v 16.555537 -2.784000 11.007060
v 16.595571 -2.784000 5.516838
v 16.209147 -0.650000 10.776081
v 15.831584 -0.650000 11.119833
v 16.126236 -2.784000 11.355838
v 16.555537 -2.784000 11.007060
v 15.831584 -0.650000 11.119833
v 15.483133 -0.650000 11.483615
v 15.837120 -2.784000 11.805215
v 16.126236 -2.784000 11.355838
v 15.483133 -0.650000 11.483615
v 15.153838 -0.650000 11.863119
v 15.505166 -2.784000 12.228754
v 15.837120 -2.784000 11.805215
v 15.153838 -0.650000 11.863119
v 14.780319 -0.650000 12.208523
v 15.042317 -2.784000 12.547762
v 15.505166 -2.784000 12.228754
v 14.780319 -0.650000 12.208523
v 7.374536 -0.650000 12.182714
v 7.511879 -2.784000 12.532281
v 15.042317 -2.784000 12.547762
v 7.374536 -0.650000 12.182714
v 0.000000 -0.650000 12.198210
v 0.000000 -2.784000 12.603492
v 7.511879 -2.784000 12.532281
v 0.000000 -0.650000 12.198210
v -7.388160 -0.650000 12.205221
v -7.513135 -2.784000 12.534375
v 0.000000 -2.784000 12.603492
v -7.388160 -0.650000 12.205221
v -14.750071 -0.650000 12.183538
v -14.960645 -2.784000 12.479634
v -7.513135 -2.784000 12.534375
v -14.750071 -0.650000 12.183538
v -15.113945 -0.650000 11.831888
v -15.416352 -2.784000 12.158708
v -14.960645 -2.784000 12.479634
v -15.113945 -0.650000 11.831888
v -15.505084 -0.650000 11.499896
v -15.858744 -2.784000 11.821334
v -15.416352 -2.784000 12.158708
v -15.505084 -0.650000 11.499896
v -15.855822 -0.650000 11.136857
v -16.180756 -2.784000 11.394230
v -15.858744 -2.784000 11.821334
v -15.855822 -0.650000 11.136857
v -16.192553 -0.650000 10.765049
v -16.572933 -2.784000 11.018626
v -16.180756 -2.784000 11.394230
v -16.192553 -0.650000 10.765049
v -16.211541 -0.650000 5.388836
v -16.665304 -2.784000 5.540020
v -16.572933 -2.784000 11.018626
v -16.211541 -0.650000 5.388836
v -16.217101 -0.650000 0.000000
v -16.602838 -2.784000 0.000000
v -16.665304 -2.784000 5.540020
v -16.217101 -0.650000 0.000000
v -16.177122 -0.650000 -5.377395
v -16.491950 -2.784000 -5.482392
v -16.602838 -2.784000 0.000000
v -16.177122 -0.650000 -5.377395
v -16.177694 -0.650000 -10.755171
v -16.552447 -2.784000 -11.005005
v -16.491950 -2.784000 -5.482392
v -16.177694 -0.650000 -10.755171
v -15.850854 -0.650000 -11.133367
v -16.212079 -2.784000 -11.416287
v -16.552447 -2.784000 -11.005005
v -15.850854 -0.650000 -11.133367
v -15.488564 -0.650000 -11.487643
v -15.763238 -2.784000 -11.750143
v -16.212079 -2.784000 -11.416287
v -15.488564 -0.650000 -11.487643
v -15.117044 -0.650000 -11.834315
v -15.400023 -2.784000 -12.145829
v -15.763238 -2.784000 -11.750143
v -15.117044 -0.650000 -11.834315
v -14.783529 -0.650000 -12.211175
v -15.117388 -2.784000 -12.610384
v -15.400023 -2.784000 -12.145829
v -14.783529 -0.650000 -12.211175
v -7.401025 -0.650000 -12.226472
v -7.554014 -2.784000 -12.602575
v -15.117388 -2.784000 -12.610384
v -7.401025 -0.650000 -12.226472
v 0.000000 -0.650000 -12.190488
v 0.000000 -2.784000 -12.508651
v -7.554014 -2.784000 -12.602575
v 0.000000 -0.650000 -12.190488
v 7.374605 -0.650000 -12.182828
v 7.526604 -2.784000 -12.556847
v 0.000000 -2.784000 -12.508651
v 7.374605 -0.650000 -12.182828
v 14.773952 -0.650000 -12.203264
v 15.075688 -2.784000 -12.575599
v 7.526604 -2.784000 -12.556847
v 15.075688 -2.784000 -12.575599
v 15.439841 -2.784000 -12.177233
v 15.030984 -4.480000 -11.750046
v 14.712122 -4.480000 -12.155885
v 15.439841 -2.784000 -12.177233
v 15.780843 -2.784000 -11.763266
v 15.431809 -4.480000 -11.408944
v 15.030984 -4.480000 -11.750046
v 15.780843 -2.784000 -11.763266
v 16.242445 -2.784000 -11.437671
v 15.868958 -4.480000 -11.090452
v 15.431809 -4.480000 -11.408944
v 16.242445 -2.784000 -11.437671
v 16.650164 -2.784000 -11.069973
v 16.198410 -4.480000 -10.695457
v 15.868958 -4.480000 -11.090452
v 16.650164 -2.784000 -11.069973
v 16.535701 -2.784000 -5.496936
v 16.146693 -4.480000 -5.330655
v 16.198410 -4.480000 -10.695457
v 16.535701 -2.784000 -5.496936
v 16.510111 -2.784000 0.000000
v 16.194939 -4.480000 0.000000
v 16.146693 -4.480000 -5.330655
v 16.510111 -2.784000 0.000000
v 16.595571 -2.784000 5.516838
v 16.190165 -4.480000 5.345007
v 16.194939 -4.480000 0.000000
v 16.595571 -2.784000 5.516838
v 16.555537 -2.784000 11.007060
v 16.116907 -4.480000 10.641643
v 16.190165 -4.480000 5.345007
v 16.555537 -2.784000 11.007060
v 16.126236 -2.784000 11.355838
v 15.771264 -4.480000 11.022176
v 16.116907 -4.480000 10.641643
v 16.126236 -2.784000 11.355838
v 15.837120 -2.784000 11.805215
v 15.475673 -4.480000 11.441374
v 15.771264 -4.480000 11.022176
v 15.837120 -2.784000 11.805215
v 15.505166 -2.784000 12.228754
v 15.086005 -4.480000 11.793057
v 15.475673 -4.480000 11.441374
v 15.505166 -2.784000 12.228754
v 15.042317 -2.784000 12.547762
v 14.690410 -4.480000 12.137945
v 15.086005 -4.480000 11.793057
v 15.042317 -2.784000 12.547762
v 7.511879 -2.784000 12.532281
v 7.377290 -4.480000 12.190966
v 14.690410 -4.480000 12.137945
v 7.511879 -2.784000 12.532281
v 0.000000 -2.784000 12.603492
v 0.000000 -4.480000 12.199851
v 7.377290 -4.480000 12.190966
v 0.000000 -2.784000 12.603492
v -7.513135 -2.784000 12.534375
v -7.327011 -4.480000 12.107880
v 0.000000 -4.480000 12.199851
v -7.513135 -2.784000 12.534375
v -14.960645 -2.784000 12.479634
v -14.666540 -4.480000 12.118223
v -7.327011 -4.480000 12.107880
v -14.960645 -2.784000 12.479634
v -15.416352 -2.784000 12.158708
v -15.087178 -4.480000 11.793974
v -14.666540 -4.480000 12.118223
v -15.416352 -2.784000 12.158708
v -15.858744 -2.784000 11.821334
v -15.428174 -4.480000 11.406257
v -15.087178 -4.480000 11.793974
v -15.858744 -2.784000 11.821334
v -16.180756 -2.784000 11.394230
v -15.771327 -4.480000 11.022219
v -15.428174 -4.480000 11.406257
v -16.180756 -2.784000 11.394230
v -16.572933 -2.784000 11.018626
v -16.210764 -4.480000 10.703614
v -15.771327 -4.480000 11.022219
v -16.572933 -2.784000 11.018626
v -16.665304 -2.784000 5.540020
v -16.242172 -4.480000 5.362176
v -16.210764 -4.480000 10.703614
v -16.665304 -2.784000 5.540020
v -16.602838 -2.784000 0.000000
v -16.159853 -4.480000 0.000000
v -16.242172 -4.480000 5.362176
v -16.602838 -2.784000 0.000000
v -16.491950 -2.784000 -5.482392
v -16.153873 -4.480000 -5.333025
v -16.159853 -4.480000 0.000000
v -16.491950 -2.784000 -5.482392
v -16.552447 -2.784000 -11.005005
v -16.199031 -4.480000 -10.695867
v -16.153873 -4.480000 -5.333025
v -16.552447 -2.784000 -11.005005
v -16.212079 -2.784000 -11.416287
v -15.785981 -4.480000 -11.032461
v -16.199031 -4.480000 -10.695867
v -16.212079 -2.784000 -11.416287
v -15.763238 -2.784000 -11.750143
v -15.379713 -4.480000 -11.370429
v -15.785981 -4.480000 -11.032461
v -15.763238 -2.784000 -11.750143
v -15.400023 -2.784000 -12.145829
v -15.079592 -4.480000 -11.788044
v -15.379713 -4.480000 -11.370429
v -15.400023 -2.784000 -12.145829
v -15.117388 -2.784000 -12.610384
v -14.746897 -4.480000 -12.184617
v -15.079592 -4.480000 -11.788044
v -15.117388 -2.784000 -12.610384
v -7.554014 -2.784000 -12.602575
v -7.348521 -4.480000 -12.143425
v -14.746897 -4.480000 -12.184617
v -7.554014 -2.784000 -12.602575
v 0.000000 -2.784000 -12.508651
v 0.000000 -4.480000 -12.152894
v -7.348521 -4.480000 -12.143425
v 0.000000 -2.784000 -12.508651
v 7.526604 -2.784000 -12.556847
v 7.384497 -4.480000 -12.202876
v 0.000000 -4.480000 -12.152894
v 7.526604 -2.784000 -12.556847
v 15.075688 -2.784000 -12.575599
v 14.712122 -4.480000 -12.155885
v 7.384497 -4.480000 -12.202876
v 0.000000 -4.800000 0.000000
v 14.712122 -4.480000 -12.155885
v 15.030984 -4.480000 -11.750046
v 0.000000 -4.800000 0.000000
v 15.030984 -4.480000 -11.750046
v 15.431809 -4.480000 -11.408944
v 0.000000 -4.800000 0.000000
v 15.431809 -4.480000 -11.408944
v 15.868958 -4.480000 -11.090452
v 0.000000 -4.800000 0.000000
v 15.868958 -4.480000 -11.090452
v 16.198410 -4.480000 -10.695457
v 0.000000 -4.800000 0.000000
v 16.198410 -4.480000 -10.695457
v 16.146693 -4.480000 -5.330655
v 0.000000 -4.800000 0.000000
v 16.146693 -4.480000 -5.330655
v 16.194939 -4.480000 0.000000
v 0.000000 -4.800000 0.000000
v 16.194939 -4.480000 0.000000
v 16.190165 -4.480000 5.345007
v 0.000000 -4.800000 0.000000
v 16.190165 -4.480000 5.345007
v 16.116907 -4.480000 10.641643
v 0.000000 -4.800000 0.000000
v 16.116907 -4.480000 10.641643
v 15.771264 -4.480000 11.022176
v 0.000000 -4.800000 0.000000
v 15.771264 -4.480000 11.022176
v 15.475673 -4.480000 11.441374
v 0.000000 -4.800000 0.000000
v 15.475673 -4.480000 11.441374
v 15.086005 -4.480000 11.793057
v 0.000000 -4.800000 0.000000
v 15.086005 -4.480000 11.793057
v 14.690410 -4.480000 12.137945
v 0.000000 -4.800000 0.000000
v 14.690410 -4.480000 12.137945
v 7.377290 -4.480000 12.190966
v 0.000000 -4.800000 0.000000
v 7.377290 -4.480000 12.190966
v 0.000000 -4.480000 12.199851
v 0.000000 -4.800000 0.000000
v 0.000000 -4.480000 12.199851
v -7.327011 -4.480000 12.107880
v 0.000000 -4.800000 0.000000
v -7.327011 -4.480000 12.107880
v -14.666540 -4.480000 12.118223
v 0.000000 -4.800000 0.000000
v -14.666540 -4.480000 12.118223
v -15.087178 -4.480000 11.793974
v 0.000000 -4.800000 0.000000
v -15.087178 -4.480000 11.793974
v -15.428174 -4.480000 11.406257
v 0.000000 -4.800000 0.000000
v -15.428174 -4.480000 11.406257
v -15.771327 -4.480000 11.022219
v 0.000000 -4.800000 0.000000
v -15.771327 -4.480000 11.022219
v -16.210764 -4.480000 10.703614
v 0.000000 -4.800000 0.000000
v -16.210764 -4.480000 10.703614
v -16.242172 -4.480000 5.362176
v 0.000000 -4.800000 0.000000
v -16.242172 -4.480000 5.362176
v -16.159853 -4.480000 0.000000
v 0.000000 -4.800000 0.000000
v -16.159853 -4.480000 0.000000
v -16.153873 -4.480000 -5.333025
v 0.000000 -4.800000 0.000000
v -16.153873 -4.480000 -5.333025
v -16.199031 -4.480000 -10.695867
v 0.000000 -4.800000 0.000000
v -16.199031 -4.480000 -10.695867
v -15.785981 -4.480000 -11.032461
v 0.000000 -4.800000 0.000000
v -15.785981 -4.480000 -11.032461
v -15.379713 -4.480000 -11.370429
v 0.000000 -4.800000 0.000000
v -15.379713 -4.480000 -11.370429
v -15.079592 -4.480000 -11.788044
v 0.000000 -4.800000 0.000000
v -15.079592 -4.480000 -11.788044
v -14.746897 -4.480000 -12.184617
v 0.000000 -4.800000 0.000000
v -14.746897 -4.480000 -12.184617
v -7.348521 -4.480000 -12.143425
v 0.000000 -4.800000 0.000000
v -7.348521 -4.480000 -12.143425
v 0.000000 -4.480000 -12.152894
v 0.000000 -4.800000 0.000000
v 0.000000 -4.480000 -12.152894
v 7.384497 -4.480000 -12.202876
v 0.000000 -4.800000 0.000000
v 7.384497 -4.480000 -12.202876
v 14.712122 -4.480000 -12.155885
v -13.750000 0.440000 -11.610000
v 13.750000 0.440000 -11.610000
v 13.750000 0.000000 -11.610000
v -13.750000 0.000000 -11.610000
v -13.750000 0.000000 -11.090000
v 13.750000 0.000000 -11.090000
v 13.750000 0.440000 -11.090000
v -13.750000 0.440000 -11.090000
v -13.750000 0.000000 -11.610000
v -13.750000 0.000000 -11.090000
v -13.750000 0.440000 -11.090000
v -13.750000 0.440000 -11.610000
v 13.750000 0.000000 -11.090000
v 13.750000 0.000000 -11.610000
v 13.750000 0.440000 -11.610000
v 13.750000 0.440000 -11.090000
v -13.750000 0.440000 -11.610000
v -13.750000 0.440000 -11.090000
v 13.750000 0.440000 -11.090000
v 13.750000 0.440000 -11.610000
v -13.750000 0.000000 -11.610000
v 13.750000 0.000000 -11.610000
v 13.750000 0.000000 -11.090000
v -13.750000 0.000000 -11.090000
v -13.750000 0.440000 11.090000
v 13.750000 0.440000 11.090000
v 13.750000 0.000000 11.090000
v -13.750000 0.000000 11.090000
v -13.750000 0.000000 11.610000
v 13.750000 0.000000 11.610000
v 13.750000 0.440000 11.610000
v -13.750000 0.440000 11.610000
v -13.750000 0.000000 11.090000
v -13.750000 0.000000 11.610000
v -13.750000 0.440000 11.610000
v -13.750000 0.440000 11.090000
v 13.750000 0.000000 11.610000
v 13.750000 0.000000 11.090000
v 13.750000 0.440000 11.090000
v 13.750000 0.440000 11.610000
v -13.750000 0.440000 11.090000
v -13.750000 0.440000 11.610000
v 13.750000 0.440000 11.610000
v 13.750000 0.440000 11.090000
v -13.750000 0.000000 11.090000
v 13.750000 0.000000 11.090000
v 13.750000 0.000000 11.610000
v -13.750000 0.000000 11.610000
vt 0.968359 0.985937
vt 0.957812 1.000000
vt 0.500000 0.500000
vt 0.978906 0.971875
vt 0.968359 0.985937
vt 0.500000 0.500000
vt 0.989453 0.957812
vt 0.978906 0.971875
vt 0.500000 0.500000
vt 1.000000 0.943750
vt 0.989453 0.957812
vt 0.500000 0.500000
vt 1.000000 0.721875
vt 1.000000 0.943750
vt 0.500000 0.500000
vt 1.000000 0.500000
vt 1.000000 0.721875
vt 0.500000 0.500000
vt 1.000000 0.278125
vt 1.000000 0.500000
vt 0.500000 0.500000
vt 1.000000 0.056250
vt 1.000000 0.278125
vt 0.500000 0.500000
vt 0.989453 0.042187
vt 1.000000 0.056250
vt 0.500000 0.500000
vt 0.978906 0.028125
vt 0.989453 0.042187
vt 0.500000 0.500000
vt 0.968359 0.014063
vt 0.978906 0.028125
vt 0.500000 0.500000
vt 0.957812 0.000000
vt 0.968359 0.014063
vt 0.500000 0.500000
vt 0.728906 0.000000
vt 0.957812 0.000000
vt 0.500000 0.500000
vt 0.500000 0.000000
vt 0.728906 0.000000
vt 0.500000 0.500000
vt 0.271094 0.000000
vt 0.500000 0.000000
vt 0.500000 0.500000
vt 0.042187 0.000000
vt 0.271094 0.000000
vt 0.500000 0.500000
vt 0.031641 0.014063
vt 0.042187 0.000000
vt 0.500000 0.500000
vt 0.021094 0.028125
vt 0.031641 0.014063
vt 0.500000 0.500000
vt 0.010547 0.042187
vt 0.021094 0.028125
vt 0.500000 0.500000
vt 0.000000 0.056250
vt 0.010547 0.042187
vt 0.500000 0.500000
vt 0.000000 0.278125
vt 0.000000 0.056250
vt 0.500000 0.500000
vt 0.000000 0.500000
vt 0.000000 0.278125
vt 0.500000 0.500000
vt 0.000000 0.721875
vt 0.000000 0.500000
vt 0.500000 0.500000
vt 0.000000 0.943750
vt 0.000000 0.721875
vt 0.500000 0.500000
vt 0.010547 0.957812
vt 0.000000 0.943750
vt 0.500000 0.500000
vt 0.021094 0.971875
vt 0.010547 0.957812
vt 0.500000 0.500000
vt 0.031641 0.985937
vt 0.021094 0.971875
vt 0.500000 0.500000
vt 0.042187 1.000000
vt 0.031641 0.985937
vt 0.500000 0.500000
vt 0.271094 1.000000
vt 0.042187 1.000000
vt 0.500000 0.500000
vt 0.500000 1.000000
vt 0.271094 1.000000
vt 0.500000 0.500000
vt 0.728906 1.000000
vt 0.500000 1.000000
vt 0.500000 0.500000
vt 0.957812 1.000000
vt 0.728906 1.000000
vt 0.500000 0.500000
vt 0.000000 0.000000
vt 0.031250 0.000000
vt 0.031250 1.000000
vt 0.000000 1.000000
vt 0.031250 0.000000
vt 0.062500 0.000000
vt 0.062500 1.000000
vt 0.031250 1.000000
vt 0.062500 0.000000
vt 0.093750 0.000000
vt 0.093750 1.000000
vt 0.062500 1.000000
vt 0.093750 0.000000
vt 0.125000 0.000000
vt 0.125000 1.000000
vt 0.093750 1.000000
vt 0.125000 0.000000
vt 0.156250 0.000000
vt 0.156250 1.000000
vt 0.125000 1.000000
vt 0.156250 0.000000
vt 0.187500 0.000000
vt 0.187500 1.000000
vt 0.156250 1.000000
vt 0.187500 0.000000
vt 0.218750 0.000000
vt 0.218750 1.000000
vt 0.187500 1.000000
vt 0.218750 0.000000
vt 0.250000 0.000000
vt 0.250000 1.000000
vt 0.218750 1.000000
vt 0.250000 0.000000
vt 0.281250 0.000000
vt 0.281250 1.000000
vt 0.250000 1.000000
vt 0.281250 0.000000
vt 0.312500 0.000000
vt 0.312500 1.000000
vt 0.281250 1.000000
vt 0.312500 0.000000
vt 0.343750 0.000000
vt 0.343750 1.000000
vt 0.312500 1.000000
vt 0.343750 0.000000
vt 0.375000 0.000000
vt 0.375000 1.000000
vt 0.343750 1.000000
vt 0.375000 0.000000
vt 0.406250 0.000000
vt 0.406250 1.000000
vt 0.375000 1.000000
vt 0.406250 0.000000
vt 0.437500 0.000000
vt 0.437500 1.000000
vt 0.406250 1.000000
vt 0.437500 0.000000
vt 0.468750 0.000000
vt 0.468750 1.000000
vt 0.437500 1.000000
vt 0.468750 0.000000
vt 0.500000 0.000000
vt 0.500000 1.000000
vt 0.468750 1.000000
vt 0.500000 0.000000
vt 0.531250 0.000000
vt 0.531250 1.000000
vt 0.500000 1.000000
vt 0.531250 0.000000
vt 0.562500 0.000000
vt 0.562500 1.000000
vt 0.531250 1.000000
vt 0.562500 0.000000
vt 0.593750 0.000000
vt 0.593750 1.000000
vt 0.562500 1.000000
vt 0.593750 0.000000
vt 0.625000 0.000000
vt 0.625000 1.000000
vt 0.593750 1.000000
vt 0.625000 0.000000
vt 0.656250 0.000000
vt 0.656250 1.000000
vt 0.625000 1.000000
vt 0.656250 0.000000
vt 0.687500 0.000000
vt 0.687500 1.000000
vt 0.656250 1.000000
vt 0.687500 0.000000
vt 0.718750 0.000000
vt 0.718750 1.000000
vt 0.687500 1.000000
vt 0.718750 0.000000
vt 0.750000 0.000000
vt 0.750000 1.000000
vt 0.718750 1.000000
vt 0.750000 0.000000
vt 0.781250 0.000000
vt 0.781250 1.000000
vt 0.750000 1.000000
vt 0.781250 0.000000
vt 0.812500 0.000000
vt 0.812500 1.000000
vt 0.781250 1.000000
vt 0.812500 0.000000
vt 0.843750 0.000000
vt 0.843750 1.000000
vt 0.812500 1.000000
vt 0.843750 0.000000
vt 0.875000 0.000000
vt 0.875000 1.000000
vt 0.843750 1.000000
vt 0.875000 0.000000
vt 0.906250 0.000000
vt 0.906250 1.000000
vt 0.875000 1.000000
vt 0.906250 0.000000
vt 0.937500 0.000000
vt 0.937500 1.000000
vt 0.906250 1.000000
vt 0.937500 0.000000
vt 0.968750 0.000000
vt 0.968750 1.000000
vt 0.937500 1.000000
vt 0.968750 0.000000
vt 1.000000 0.000000
vt 1.000000 1.000000
vt 0.968750 1.000000
vt 0.000000 0.000000
vt 0.031250 0.000000
vt 0.031250 1.000000
vt 0.000000 1.000000
vt 0.031250 0.000000
vt 0.062500 0.000000
vt 0.062500 1.000000
vt 0.031250 1.000000
vt 0.062500 0.000000
vt 0.093750 0.000000
vt 0.093750 1.000000
vt 0.062500 1.000000
vt 0.093750 0.000000
vt 0.125000 0.000000
vt 0.125000 1.000000
vt 0.093750 1.000000
vt 0.125000 0.000000
vt 0.156250 0.000000
vt 0.156250 1.000000
vt 0.125000 1.000000
vt 0.156250 0.000000
vt 0.187500 0.000000
vt 0.187500 1.000000
vt 0.156250 1.000000
vt 0.187500 0.000000
vt 0.218750 0.000000
vt 0.218750 1.000000
vt 0.187500 1.000000
vt 0.218750 0.000000
vt 0.250000 0.000000
vt 0.250000 1.000000
vt 0.218750 1.000000
vt 0.250000 0.000000
vt 0.281250 0.000000
vt 0.281250 1.000000
vt 0.250000 1.000000
vt 0.281250 0.000000
vt 0.312500 0.000000
vt 0.312500 1.000000
vt 0.281250 1.000000
vt 0.312500 0.000000
vt 0.343750 0.000000
vt 0.343750 1.000000
vt 0.312500 1.000000
vt 0.343750 0.000000
vt 0.375000 0.000000
vt 0.375000 1.000000
vt 0.343750 1.000000
vt 0.375000 0.000000
vt 0.406250 0.000000
vt 0.406250 1.000000
vt 0.375000 1.000000
vt 0.406250 0.000000
vt 0.437500 0.000000
vt 0.437500 1.000000
vt 0.406250 1.000000
vt 0.437500 0.000000
vt 0.468750 0.000000
vt 0.468750 1.000000
vt 0.437500 1.000000
vt 0.468750 0.000000
vt 0.500000 0.000000
vt 0.500000 1.000000
vt 0.468750 1.000000
vt 0.500000 0.000000
vt 0.531250 0.000000
vt 0.531250 1.000000
vt 0.500000 1.000000
vt 0.531250 0.000000
vt 0.562500 0.000000
vt 0.562500 1.000000
vt 0.531250 1.000000
vt 0.562500 0.000000
vt 0.593750 0.000000
vt 0.593750 1.000000
vt 0.562500 1.000000
vt 0.593750 0.000000
vt 0.625000 0.000000
vt 0.625000 1.000000
vt 0.593750 1.000000
vt 0.625000 0.000000
vt 0.656250 0.000000
vt 0.656250 1.000000
vt 0.625000 1.000000
vt 0.656250 0.000000
vt 0.687500 0.000000
vt 0.687500 1.000000
vt 0.656250 1.000000
vt 0.687500 0.000000
vt 0.718750 0.000000
vt 0.718750 1.000000
vt 0.687500 1.000000
vt 0.718750 0.000000
vt 0.750000 0.000000
vt 0.750000 1.000000
vt 0.718750 1.000000
vt 0.750000 0.000000
vt 0.781250 0.000000
vt 0.781250 1.000000
vt 0.750000 1.000000
vt 0.781250 0.000000
vt 0.812500 0.000000
vt 0.812500 1.000000
vt 0.781250 1.000000
vt 0.812500 0.000000
vt 0.843750 0.000000
vt 0.843750 1.000000
vt 0.812500 1.000000
vt 0.843750 0.000000
vt 0.875000 0.000000
vt 0.875000 1.000000
vt 0.843750 1.000000
vt 0.875000 0.000000
vt 0.906250 0.000000
vt 0.906250 1.000000
vt 0.875000 1.000000
vt 0.906250 0.000000
vt 0.937500 0.000000
vt 0.937500 1.000000
vt 0.906250 1.000000
vt 0.937500 0.000000
vt 0.968750 0.000000
vt 0.968750 1.000000
vt 0.937500 1.000000
vt 0.968750 0.000000
vt 1.000000 0.000000
vt 1.000000 1.000000
vt 0.968750 1.000000
vt 0.000000 0.000000
vt 0.031250 0.000000
vt 0.031250 1.000000
vt 0.000000 1.000000
vt 0.031250 0.000000
vt 0.062500 0.000000
vt 0.062500 1.000000
vt 0.031250 1.000000
vt 0.062500 0.000000
vt 0.093750 0.000000
vt 0.093750 1.000000
vt 0.062500 1.000000
vt 0.093750 0.000000
vt 0.125000 0.000000
vt 0.125000 1.000000
vt 0.093750 1.000000
vt 0.125000 0.000000
vt 0.156250 0.000000
vt 0.156250 1.000000
vt 0.125000 1.000000
vt 0.156250 0.000000
vt 0.187500 0.000000
vt 0.187500 1.000000
vt 0.156250 1.000000
vt 0.187500 0.000000
vt 0.218750 0.000000
vt 0.218750 1.000000
vt 0.187500 1.000000
vt 0.218750 0.000000
vt 0.250000 0.000000
vt 0.250000 1.000000
vt 0.218750 1.000000
vt 0.250000 0.000000
vt 0.281250 0.000000
vt 0.281250 1.000000
vt 0.250000 1.000000
vt 0.281250 0.000000
vt 0.312500 0.000000
vt 0.312500 1.000000
vt 0.281250 1.000000
vt 0.312500 0.000000
vt 0.343750 0.000000
vt 0.343750 1.000000
vt 0.312500 1.000000
vt 0.343750 0.000000
vt 0.375000 0.000000
vt 0.375000 1.000000
vt 0.343750 1.000000
vt 0.375000 0.000000
vt 0.406250 0.000000
vt 0.406250 1.000000
vt 0.375000 1.000000
vt 0.406250 0.000000
vt 0.437500 0.000000
vt 0.437500 1.000000
vt 0.406250 1.000000
vt 0.437500 0.000000
vt 0.468750 0.000000
vt 0.468750 1.000000
vt 0.437500 1.000000
vt 0.468750 0.000000
vt 0.500000 0.000000
vt 0.500000 1.000000
vt 0.468750 1.000000
vt 0.500000 0.000000
vt 0.531250 0.000000
vt 0.531250 1.000000
vt 0.500000 1.000000
vt 0.531250 0.000000
vt 0.562500 0.000000
vt 0.562500 1.000000
vt 0.531250 1.000000
vt 0.562500 0.000000
vt 0.593750 0.000000
vt 0.593750 1.000000
vt 0.562500 1.000000
vt 0.593750 0.000000
vt 0.625000 0.000000
vt 0.625000 1.000000
vt 0.593750 1.000000
vt 0.625000 0.000000
vt 0.656250 0.000000
vt 0.656250 1.000000
vt 0.625000 1.000000
vt 0.656250 0.000000
vt 0.687500 0.000000
vt 0.687500 1.000000
vt 0.656250 1.000000
vt 0.687500 0.000000
vt 0.718750 0.000000
vt 0.718750 1.000000
vt 0.687500 1.000000
vt 0.718750 0.000000
vt 0.750000 0.000000
vt 0.750000 1.000000
vt 0.718750 1.000000
vt 0.750000 0.000000
vt 0.781250 0.000000
vt 0.781250 1.000000
vt 0.750000 1.000000
vt 0.781250 0.000000
vt 0.812500 0.000000
vt 0.812500 1.000000
vt 0.781250 1.000000
vt 0.812500 0.000000
vt 0.843750 0.000000
vt 0.843750 1.000000
vt 0.812500 1.000000
vt 0.843750 0.000000
vt 0.875000 0.000000
vt 0.875000 1.000000
vt 0.843750 1.000000
vt 0.875000 0.000000
vt 0.906250 0.000000
vt 0.906250 1.000000
vt 0.875000 1.000000
vt 0.906250 0.000000
vt 0.937500 0.000000
vt 0.937500 1.000000
vt 0.906250 1.000000
vt 0.937500 0.000000
vt 0.968750 0.000000
vt 0.968750 1.000000
vt 0.937500 1.000000
vt 0.968750 0.000000
vt 1.000000 0.000000
vt 1.000000 1.000000
vt 0.968750 1.000000
vt 0.500000 0.500000
vt 1.014924 0.925456
vt 1.026084 0.911252
vt 0.500000 0.500000
vt 1.026084 0.911252
vt 1.040113 0.899313
vt 0.500000 0.500000
vt 1.040113 0.899313
vt 1.055414 0.888166
vt 0.500000 0.500000
vt 1.055414 0.888166
vt 1.066944 0.874341
vt 0.500000 0.500000
vt 1.066944 0.874341
vt 1.065134 0.686573
vt 0.500000 0.500000
vt 1.065134 0.686573
vt 1.066823 0.500000
vt 0.500000 0.500000
vt 1.066823 0.500000
vt 1.066656 0.312925
vt 0.500000 0.500000
vt 1.066656 0.312925
vt 1.064092 0.127543
vt 0.500000 0.500000
vt 1.064092 0.127543
vt 1.051994 0.114224
vt 0.500000 0.500000
vt 1.051994 0.114224
vt 1.041649 0.099552
vt 0.500000 0.500000
vt 1.041649 0.099552
vt 1.028010 0.087243
vt 0.500000 0.500000
vt 1.028010 0.087243
vt 1.014164 0.075172
vt 0.500000 0.500000
vt 1.014164 0.075172
vt 0.758205 0.073316
vt 0.500000 0.500000
vt 0.758205 0.073316
vt 0.500000 0.073005
vt 0.500000 0.500000
vt 0.500000 0.073005
vt 0.243555 0.076224
vt 0.500000 0.500000
vt 0.243555 0.076224
vt -0.013329 0.075862
vt 0.500000 0.500000
vt -0.013329 0.075862
vt -0.028051 0.087211
vt 0.500000 0.500000
vt -0.028051 0.087211
vt -0.039986 0.100781
vt 0.500000 0.500000
vt -0.039986 0.100781
vt -0.051996 0.114222
vt 0.500000 0.500000
vt -0.051996 0.114222
vt -0.067377 0.125374
vt 0.500000 0.500000
vt -0.067377 0.125374
vt -0.068476 0.312324
vt 0.500000 0.500000
vt -0.068476 0.312324
vt -0.065595 0.500000
vt 0.500000 0.500000
vt -0.065595 0.500000
vt -0.065386 0.686656
vt 0.500000 0.500000
vt -0.065386 0.686656
vt -0.066966 0.874355
vt 0.500000 0.500000
vt -0.066966 0.874355
vt -0.052509 0.886136
vt 0.500000 0.500000
vt -0.052509 0.886136
vt -0.038290 0.897965
vt 0.500000 0.500000
vt -0.038290 0.897965
vt -0.027786 0.912582
vt 0.500000 0.500000
vt -0.027786 0.912582
vt -0.016141 0.926462
vt 0.500000 0.500000
vt -0.016141 0.926462
vt 0.242802 0.925020
vt 0.500000 0.500000
vt 0.242802 0.925020
vt 0.500000 0.925351
vt 0.500000 0.500000
vt 0.500000 0.925351
vt 0.758457 0.927101
vt 0.500000 0.500000
vt 0.758457 0.927101
vt 1.014924 0.925456
vt 0.018750 0.906350
vt 0.981250 0.906350
vt 0.981250 0.906350
vt 0.018750 0.906350
vt 0.018750 0.888150
vt 0.981250 0.888150
vt 0.981250 0.888150
vt 0.018750 0.888150
vt 0.018750 0.906350
vt 0.018750 0.888150
vt 0.018750 0.888150
vt 0.018750 0.906350
vt 0.981250 0.888150
vt 0.981250 0.906350
vt 0.981250 0.906350
vt 0.981250 0.888150
vt 0.018750 0.906350
vt 0.018750 0.888150
vt 0.981250 0.888150
vt 0.981250 0.906350
vt 0.018750 0.906350
vt 0.981250 0.906350
vt 0.981250 0.888150
vt 0.018750 0.888150
vt 0.018750 0.111850
vt 0.981250 0.111850
vt 0.981250 0.111850
vt 0.018750 0.111850
vt 0.018750 0.093650
vt 0.981250 0.093650
vt 0.981250 0.093650
vt 0.018750 0.093650
vt 0.018750 0.111850
vt 0.018750 0.093650
vt 0.018750 0.093650
vt 0.018750 0.111850
vt 0.981250 0.093650
vt 0.981250 0.111850
vt 0.981250 0.111850
vt 0.981250 0.093650
vt 0.018750 0.111850
vt 0.018750 0.093650
vt 0.981250 0.093650
vt 0.981250 0.111850
vt 0.018750 0.111850
vt 0.981250 0.111850
vt 0.981250 0.093650
vt 0.018750 0.093650
vn 0.000000 1.000000 0.000000
vn 0.000000 1.000000 0.000000
vn 0.000000 1.000000 0.000000
vn 0.000000 1.000000 0.000000
vn 0.000000 1.000000 0.000000
vn 0.000000 1.000000 0.000000
vn 0.000000 1.000000 0.000000
vn 0.000000 1.000000 0.000000
vn 0.000000 1.000000 0.000000
vn 0.000000 1.000000 0.000000
vn 0.000000 1.000000 0.000000
vn 0.000000 1.000000 0.000000
vn 0.000000 1.000000 0.000000
vn 0.000000 1.000000 0.000000
vn 0.000000 1.000000 0.000000
vn 0.000000 1.000000 0.000000
vn 0.000000 1.000000 0.000000
vn 0.000000 1.000000 0.000000
vn 0.000000 1.000000 0.000000
vn 0.000000 1.000000 0.000000
vn 0.000000 1.000000 0.000000
vn 0.000000 1.000000 0.000000
vn 0.000000 1.000000 0.000000
vn 0.000000 1.000000 0.000000
vn 0.000000 1.000000 0.000000
vn 0.000000 1.000000 0.000000
vn 0.000000 1.000000 0.000000
vn 0.000000 1.000000 0.000000
vn 0.000000 1.000000 0.000000
vn 0.000000 1.000000 0.000000
vn 0.000000 1.000000 0.000000
vn 0.000000 1.000000 0.000000
vn 0.000000 1.000000 0.000000
vn 0.000000 1.000000 0.000000
vn 0.000000 1.000000 0.000000
vn 0.000000 1.000000 0.000000
vn -0.000000 1.000000 0.000000
vn -0.000000 1.000000 0.000000
vn -0.000000 1.000000 0.000000
vn -0.000000 1.000000 0.000000
vn -0.000000 1.000000 0.000000
vn -0.000000 1.000000 0.000000
vn -0.000000 1.000000 0.000000
vn -0.000000 1.000000 0.000000
vn -0.000000 1.000000 0.000000
vn -0.000000 1.000000 0.000000
vn -0.000000 1.000000 0.000000
vn -0.000000 1.000000 0.000000
vn -0.000000 1.000000 0.000000
vn -0.000000 1.000000 0.000000
vn -0.000000 1.000000 0.000000
vn -0.000000 1.000000 0.000000
vn -0.000000 1.000000 0.000000
vn -0.000000 1.000000 0.000000
vn -0.000000 1.000000 0.000000
vn -0.000000 1.000000 0.000000
vn -0.000000 1.000000 0.000000
vn -0.000000 1.000000 0.000000
vn -0.000000 1.000000 0.000000
vn -0.000000 1.000000 0.000000
vn -0.000000 1.000000 0.000000
vn -0.000000 1.000000 0.000000
vn -0.000000 1.000000 0.000000
vn 0.000000 1.000000 0.000000
vn 0.000000 1.000000 0.000000
vn 0.000000 1.000000 0.000000
vn 0.000000 1.000000 0.000000
vn 0.000000 1.000000 0.000000
vn 0.000000 1.000000 0.000000
vn 0.000000 1.000000 0.000000
vn 0.000000 1.000000 0.000000
vn 0.000000 1.000000 0.000000
vn 0.000000 1.000000 -0.000000
vn 0.000000 1.000000 -0.000000
vn 0.000000 1.000000 -0.000000
vn 0.000000 1.000000 -0.000000
vn 0.000000 1.000000 -0.000000
vn 0.000000 1.000000 -0.000000
vn 0.000000 1.000000 -0.000000
vn 0.000000 1.000000 -0.000000
vn 0.000000 1.000000 -0.000000
vn 0.000000 1.000000 -0.000000
vn 0.000000 1.000000 -0.000000
vn 0.000000 1.000000 -0.000000
vn 0.000000 1.000000 -0.000000
vn 0.000000 1.000000 -0.000000
vn 0.000000 1.000000 -0.000000
vn 0.000000 1.000000 -0.000000
vn 0.000000 1.000000 -0.000000
vn 0.000000 1.000000 -0.000000
vn 0.000000 1.000000 0.000000
vn 0.000000 1.000000 0.000000
vn 0.000000 1.000000 0.000000
vn 0.000000 1.000000 0.000000
vn 0.000000 1.000000 0.000000
vn 0.000000 1.000000 0.000000
vn 0.659506 0.360698 -0.659506
vn 0.659506 0.360698 -0.659506
vn 0.659506 0.360698 -0.659506
vn 0.659506 0.360698 -0.659506
vn 0.668627 0.325386 -0.668627
vn 0.668627 0.325386 -0.668627
vn 0.668627 0.325386 -0.668627
vn 0.668627 0.325386 -0.668627
vn 0.667667 0.329304 -0.667667
vn 0.667667 0.329304 -0.667667
vn 0.667667 0.329304 -0.667667
vn 0.667667 0.329304 -0.667667
vn 0.659519 0.360650 -0.659519
vn 0.659519 0.360650 -0.659519
vn 0.659519 0.360650 -0.659519
vn 0.659519 0.360650 -0.659519
vn 0.956425 0.291978 -0.000000
vn 0.956425 0.291978 -0.000000
vn 0.956425 0.291978 -0.000000
vn 0.956425 0.291978 -0.000000
vn 0.968626 0.248523 -0.000000
vn 0.968626 0.248523 -0.000000
vn 0.968626 0.248523 -0.000000
vn 0.968626 0.248523 -0.000000
vn 0.958214 0.286054 -0.000000
vn 0.958214 0.286054 -0.000000
vn 0.958214 0.286054 -0.000000
vn 0.958214 0.286054 -0.000000
vn 0.951935 0.306299 -0.000000
vn 0.951935 0.306299 -0.000000
vn 0.951935 0.306299 -0.000000
vn 0.951935 0.306299 -0.000000
vn 0.671908 0.311576 0.671908
vn 0.671908 0.311576 0.671908
vn 0.671908 0.311576 0.671908
vn 0.671908 0.311576 0.671908
vn 0.668531 0.325778 0.668531
vn 0.668531 0.325778 0.668531
vn 0.668531 0.325778 0.668531
vn 0.668531 0.325778 0.668531
vn 0.656714 0.370748 0.656714
vn 0.656714 0.370748 0.656714
vn 0.656714 0.370748 0.656714
vn 0.656714 0.370748 0.656714
vn 0.663468 0.345863 0.663468
vn 0.663468 0.345863 0.663468
vn 0.663468 0.345863 0.663468
vn 0.663468 0.345863 0.663468
vn 0.000000 0.270610 0.962689
vn 0.000000 0.270610 0.962689
vn 0.000000 0.270610 0.962689
vn 0.000000 0.270610 0.962689
vn 0.000000 0.291678 0.956517
vn 0.000000 0.291678 0.956517
vn 0.000000 0.291678 0.956517
vn 0.000000 0.291678 0.956517
vn 0.000000 0.301074 0.953601
vn 0.000000 0.301074 0.953601
vn 0.000000 0.301074 0.953601
vn 0.000000 0.301074 0.953601
vn 0.000000 0.271741 0.962370
vn 0.000000 0.271741 0.962370
vn 0.000000 0.271741 0.962370
vn 0.000000 0.271741 0.962370
vn -0.673108 0.306350 0.673108
vn -0.673108 0.306350 0.673108
vn -0.673108 0.306350 0.673108
vn -0.673108 0.306350 0.673108
vn -0.659631 0.360240 0.659631
vn -0.659631 0.360240 0.659631
vn -0.659631 0.360240 0.659631
vn -0.659631 0.360240 0.659631
vn -0.662566 0.349303 0.662566
vn -0.662566 0.349303 0.662566
vn -0.662566 0.349303 0.662566
vn -0.662566 0.349303 0.662566
vn -0.670560 0.317332 0.670560
vn -0.670560 0.317332 0.670560
vn -0.670560 0.317332 0.670560
vn -0.670560 0.317332 0.670560
vn -0.950909 0.309471 0.000000
vn -0.950909 0.309471 0.000000
vn -0.950909 0.309471 0.000000
vn -0.950909 0.309471 0.000000
vn -0.948493 0.316798 0.000000
vn -0.948493 0.316798 0.000000
vn -0.948493 0.316798 0.000000
vn -0.948493 0.316798 0.000000
vn -0.964821 0.262909 0.000000
vn -0.964821 0.262909 0.000000
vn -0.964821 0.262909 0.000000
vn -0.964821 0.262909 0.000000
vn -0.964605 0.263700 0.000000
vn -0.964605 0.263700 0.000000
vn -0.964605 0.263700 0.000000
vn -0.964605 0.263700 0.000000
vn -0.664545 0.341700 -0.664545
vn -0.664545 0.341700 -0.664545
vn -0.664545 0.341700 -0.664545
vn -0.664545 0.341700 -0.664545
vn -0.666391 0.334433 -0.666391
vn -0.666391 0.334433 -0.666391
vn -0.666391 0.334433 -0.666391
vn -0.666391 0.334433 -0.666391
vn -0.671920 0.311522 -0.671920
vn -0.671920 0.311522 -0.671920
vn -0.671920 0.311522 -0.671920
vn -0.671920 0.311522 -0.671920
vn -0.662087 0.351113 -0.662087
vn -0.662087 0.351113 -0.662087
vn -0.662087 0.351113 -0.662087
vn -0.662087 0.351113 -0.662087
vn 0.000000 0.329020 -0.944323
vn 0.000000 0.329020 -0.944323
vn 0.000000 0.329020 -0.944323
vn 0.000000 0.329020 -0.944323
vn 0.000000 0.281231 -0.959640
vn 0.000000 0.281231 -0.959640
vn 0.000000 0.281231 -0.959640
vn 0.000000 0.281231 -0.959640
vn 0.000000 0.270767 -0.962645
vn 0.000000 0.270767 -0.962645
vn 0.000000 0.270767 -0.962645
vn 0.000000 0.270767 -0.962645
vn 0.000000 0.298461 -0.954422
vn 0.000000 0.298461 -0.954422
vn 0.000000 0.298461 -0.954422
vn 0.000000 0.298461 -0.954422
vn 0.665205 0.198791 -0.719711
vn 0.665205 0.198791 -0.719711
vn 0.665205 0.198791 -0.719711
vn 0.665205 0.198791 -0.719711
vn 0.731690 0.188074 -0.655177
vn 0.731690 0.188074 -0.655177
vn 0.731690 0.188074 -0.655177
vn 0.731690 0.188074 -0.655177
vn 0.684248 0.228696 -0.692461
vn 0.684248 0.228696 -0.692461
vn 0.684248 0.228696 -0.692461
vn 0.684248 0.228696 -0.692461
vn 0.654473 0.228080 -0.720864
vn 0.654473 0.228080 -0.720864
vn 0.654473 0.228080 -0.720864
vn 0.654473 0.228080 -0.720864
vn 0.987765 0.155891 0.004181
vn 0.987765 0.155891 0.004181
vn 0.987765 0.155891 0.004181
vn 0.987765 0.155891 0.004181
vn 0.987287 0.158844 0.005805
vn 0.987287 0.158844 0.005805
vn 0.987287 0.158844 0.005805
vn 0.987287 0.158844 0.005805
vn 0.982800 0.184609 -0.004979
vn 0.982800 0.184609 -0.004979
vn 0.982800 0.184609 -0.004979
vn 0.982800 0.184609 -0.004979
vn 0.987124 0.159931 -0.002764
vn 0.987124 0.159931 -0.002764
vn 0.987124 0.159931 -0.002764
vn 0.987124 0.159931 -0.002764
vn 0.663175 0.172124 0.728404
vn 0.663175 0.172124 0.728404
vn 0.663175 0.172124 0.728404
vn 0.663175 0.172124 0.728404
vn 0.704692 0.218618 0.674993
vn 0.704692 0.218618 0.674993
vn 0.704692 0.218618 0.674993
vn 0.704692 0.218618 0.674993
vn 0.735005 0.230279 0.637761
vn 0.735005 0.230279 0.637761
vn 0.735005 0.230279 0.637761
vn 0.735005 0.230279 0.637761
vn 0.665741 0.196182 0.719931
vn 0.665741 0.196182 0.719931
vn 0.665741 0.196182 0.719931
vn 0.665741 0.196182 0.719931
vn -0.003439 0.161437 0.986877
vn -0.003439 0.161437 0.986877
vn -0.003439 0.161437 0.986877
vn -0.003439 0.161437 0.986877
vn 0.002064 0.186582 0.982437
vn 0.002064 0.186582 0.982437
vn 0.002064 0.186582 0.982437
vn 0.002064 0.186582 0.982437
vn 0.000938 0.152387 0.988320
vn 0.000938 0.152387 0.988320
vn 0.000938 0.152387 0.988320
vn 0.000938 0.152387 0.988320
vn -0.002917 0.137717 0.990467
vn -0.002917 0.137717 0.990467
vn -0.002917 0.137717 0.990467
vn -0.002917 0.137717 0.990467
vn -0.680281 0.204208 0.703929
vn -0.680281 0.204208 0.703929
vn -0.680281 0.204208 0.703929
vn -0.680281 0.204208 0.703929
vn -0.631718 0.216799 0.744265
vn -0.631718 0.216799 0.744265
vn -0.631718 0.216799 0.744265
vn -0.631718 0.216799 0.744265
vn -0.706115 0.189793 0.682188
vn -0.706115 0.189793 0.682188
vn -0.706115 0.189793 0.682188
vn -0.706115 0.189793 0.682188
vn -0.725106 0.207282 0.656701
vn -0.725106 0.207282 0.656701
vn -0.725106 0.207282 0.656701
vn -0.725106 0.207282 0.656701
vn -0.978076 0.208218 0.003454
vn -0.978076 0.208218 0.003454
vn -0.978076 0.208218 0.003454
vn -0.978076 0.208218 0.003454
vn -0.984053 0.177875 0.001015
vn -0.984053 0.177875 0.001015
vn -0.984053 0.177875 0.001015
vn -0.984053 0.177875 0.001015
vn -0.989213 0.146300 -0.007355
vn -0.989213 0.146300 -0.007355
vn -0.989213 0.146300 -0.007355
vn -0.989213 0.146300 -0.007355
vn -0.984930 0.172952 0.000105
vn -0.984930 0.172952 0.000105
vn -0.984930 0.172952 0.000105
vn -0.984930 0.172952 0.000105
vn -0.739742 0.209972 -0.639291
vn -0.739742 0.209972 -0.639291
vn -0.739742 0.209972 -0.639291
vn -0.739742 0.209972 -0.639291
vn -0.688342 0.175186 -0.703914
vn -0.688342 0.175186 -0.703914
vn -0.688342 0.175186 -0.703914
vn -0.688342 0.175186 -0.703914
vn -0.669344 0.193470 -0.717320
vn -0.669344 0.193470 -0.717320
vn -0.669344 0.193470 -0.717320
vn -0.669344 0.193470 -0.717320
vn -0.727993 0.234416 -0.644264
vn -0.727993 0.234416 -0.644264
vn -0.727993 0.234416 -0.644264
vn -0.727993 0.234416 -0.644264
vn -0.002041 0.173710 -0.984795
vn -0.002041 0.173710 -0.984795
vn -0.002041 0.173710 -0.984795
vn -0.002041 0.173710 -0.984795
vn 0.004809 0.147461 -0.989056
vn 0.004809 0.147461 -0.989056
vn 0.004809 0.147461 -0.989056
vn 0.004809 0.147461 -0.989056
vn 0.001023 0.172706 -0.984973
vn 0.001023 0.172706 -0.984973
vn 0.001023 0.172706 -0.984973
vn 0.001023 0.172706 -0.984973
vn -0.002721 0.171507 -0.985179
vn -0.002721 0.171507 -0.985179
vn -0.002721 0.171507 -0.985179
vn -0.002721 0.171507 -0.985179
vn 0.697113 -0.328563 -0.637244
vn 0.697113 -0.328563 -0.637244
vn 0.697113 -0.328563 -0.637244
vn 0.697113 -0.328563 -0.637244
vn 0.740975 -0.280008 -0.610370
vn 0.740975 -0.280008 -0.610370
vn 0.740975 -0.280008 -0.610370
vn 0.740975 -0.280008 -0.610370
vn 0.552959 -0.282265 -0.783940
vn 0.552959 -0.282265 -0.783940
vn 0.552959 -0.282265 -0.783940
vn 0.552959 -0.282265 -0.783940
vn 0.633612 -0.323917 -0.702577
vn 0.633612 -0.323917 -0.702577
vn 0.633612 -0.323917 -0.702577
vn 0.633612 -0.323917 -0.702577
vn 0.974920 -0.221652 0.020024
vn 0.974920 -0.221652 0.020024
vn 0.974920 -0.221652 0.020024
vn 0.974920 -0.221652 0.020024
vn 0.983158 -0.182703 0.004577
vn 0.983158 -0.182703 0.004577
vn 0.983158 -0.182703 0.004577
vn 0.983158 -0.182703 0.004577
vn 0.972833 -0.231016 -0.015070
vn 0.972833 -0.231016 -0.015070
vn 0.972833 -0.231016 -0.015070
vn 0.972833 -0.231016 -0.015070
vn 0.967752 -0.251806 0.007057
vn 0.967752 -0.251806 0.007057
vn 0.967752 -0.251806 0.007057
vn 0.967752 -0.251806 0.007057
vn 0.606466 -0.273792 0.746483
vn 0.606466 -0.273792 0.746483
vn 0.606466 -0.273792 0.746483
vn 0.606466 -0.273792 0.746483
vn 0.806550 -0.283211 0.518911
vn 0.806550 -0.283211 0.518911
vn 0.806550 -0.283211 0.518911
vn 0.806550 -0.283211 0.518911
vn 0.742182 -0.332863 0.581694
vn 0.742182 -0.332863 0.581694
vn 0.742182 -0.332863 0.581694
vn 0.742182 -0.332863 0.581694
vn 0.541009 -0.301929 0.784951
vn 0.541009 -0.301929 0.784951
vn 0.541009 -0.301929 0.784951
vn 0.541009 -0.301929 0.784951
vn -0.002016 -0.197137 0.980374
vn -0.002016 -0.197137 0.980374
vn -0.002016 -0.197137 0.980374
vn -0.002016 -0.197137 0.980374
vn 0.009222 -0.231519 0.972787
vn 0.009222 -0.231519 0.972787
vn 0.009222 -0.231519 0.972787
vn 0.009222 -0.231519 0.972787
vn -0.008919 -0.244789 0.969535
vn -0.008919 -0.244789 0.969535
vn -0.008919 -0.244789 0.969535
vn -0.008919 -0.244789 0.969535
vn -0.007187 -0.209603 0.977760
vn -0.007187 -0.209603 0.977760
vn -0.007187 -0.209603 0.977760
vn -0.007187 -0.209603 0.977760
vn -0.553359 -0.276380 0.785753
vn -0.553359 -0.276380 0.785753
vn -0.553359 -0.276380 0.785753
vn -0.553359 -0.276380 0.785753
vn -0.572612 -0.329135 0.750857
vn -0.572612 -0.329135 0.750857
vn -0.572612 -0.329135 0.750857
vn -0.572612 -0.329135 0.750857
vn -0.759430 -0.308923 0.572566
vn -0.759430 -0.308923 0.572566
vn -0.759430 -0.308923 0.572566
vn -0.759430 -0.308923 0.572566
vn -0.665745 -0.271276 0.695121
vn -0.665745 -0.271276 0.695121
vn -0.665745 -0.271276 0.695121
vn -0.665745 -0.271276 0.695121
vn -0.969725 -0.243650 0.016350
vn -0.969725 -0.243650 0.016350
vn -0.969725 -0.243650 0.016350
vn -0.969725 -0.243650 0.016350
vn -0.967483 -0.252701 -0.010909
vn -0.967483 -0.252701 -0.010909
vn -0.967483 -0.252701 -0.010909
vn -0.967483 -0.252701 -0.010909
vn -0.980176 -0.197132 -0.019825
vn -0.980176 -0.197132 -0.019825
vn -0.980176 -0.197132 -0.019825
vn -0.980176 -0.197132 -0.019825
vn -0.979303 -0.202114 0.010728
vn -0.979303 -0.202114 0.010728
vn -0.979303 -0.202114 0.010728
vn -0.979303 -0.202114 0.010728
vn -0.729870 -0.320069 -0.604025
vn -0.729870 -0.320069 -0.604025
vn -0.729870 -0.320069 -0.604025
vn -0.729870 -0.320069 -0.604025
vn -0.569311 -0.300103 -0.765391
vn -0.569311 -0.300103 -0.765391
vn -0.569311 -0.300103 -0.765391
vn -0.569311 -0.300103 -0.765391
vn -0.709064 -0.271273 -0.650875
vn -0.709064 -0.271273 -0.650875
vn -0.709064 -0.271273 -0.650875
vn -0.709064 -0.271273 -0.650875
vn -0.814348 -0.302273 -0.495448
vn -0.814348 -0.302273 -0.495448
vn -0.814348 -0.302273 -0.495448
vn -0.814348 -0.302273 -0.495448
vn 0.000997 -0.261206 -0.965283
vn 0.000997 -0.261206 -0.965283
vn 0.000997 -0.261206 -0.965283
vn 0.000997 -0.261206 -0.965283
vn 0.012168 -0.205279 -0.978628
vn 0.012168 -0.205279 -0.978628
vn 0.012168 -0.205279 -0.978628
vn 0.012168 -0.205279 -0.978628
vn -0.006269 -0.203800 -0.978992
vn -0.006269 -0.203800 -0.978992
vn -0.006269 -0.203800 -0.978992
vn -0.006269 -0.203800 -0.978992
vn -0.002411 -0.239738 -0.970835
vn -0.002411 -0.239738 -0.970835
vn -0.002411 -0.239738 -0.970835
vn -0.002411 -0.239738 -0.970835
vn 0.013187 -0.999859 -0.010361
vn 0.013187 -0.999859 -0.010361
vn 0.013187 -0.999859 -0.010361
vn 0.011095 -0.999853 -0.013037
vn 0.011095 -0.999853 -0.013037
vn 0.011095 -0.999853 -0.013037
vn 0.010291 -0.999847 -0.014125
vn 0.010291 -0.999847 -0.014125
vn 0.010291 -0.999847 -0.014125
vn 0.012738 -0.999862 -0.010624
vn 0.012738 -0.999862 -0.010624
vn 0.012738 -0.999862 -0.010624
vn 0.019878 -0.999802 0.000192
vn 0.019878 -0.999802 0.000192
vn 0.019878 -0.999802 0.000192
vn 0.019755 -0.999805 -0.000179
vn 0.019755 -0.999805 -0.000179
vn 0.019755 -0.999805 -0.000179
vn 0.019755 -0.999805 0.000018
vn 0.019755 -0.999805 0.000018
vn 0.019755 -0.999805 0.000018
vn 0.019671 -0.999806 0.000272
vn 0.019671 -0.999806 0.000272
vn 0.019671 -0.999806 0.000272
vn 0.012410 -0.999859 0.011272
vn 0.012410 -0.999859 0.011272
vn 0.012410 -0.999859 0.011272
vn 0.013590 -0.999862 0.009583
vn 0.013590 -0.999862 0.009583
vn 0.013590 -0.999862 0.009583
vn 0.011365 -0.999856 0.012592
vn 0.011365 -0.999856 0.012592
vn 0.011365 -0.999856 0.012592
vn 0.011182 -0.999855 0.012826
vn 0.011182 -0.999855 0.012826
vn 0.011182 -0.999855 0.012826
vn 0.000189 -0.999659 0.026125
vn 0.000189 -0.999659 0.026125
vn 0.000189 -0.999659 0.026125
vn 0.000032 -0.999656 0.026221
vn 0.000032 -0.999656 0.026221
vn 0.000032 -0.999656 0.026221
vn -0.000329 -0.999656 0.026221
vn -0.000329 -0.999656 0.026221
vn -0.000329 -0.999656 0.026221
vn 0.000037 -0.999650 0.026442
vn 0.000037 -0.999650 0.026442
vn 0.000037 -0.999650 0.026442
vn -0.010529 -0.999851 0.013659
vn -0.010529 -0.999851 0.013659
vn -0.010529 -0.999851 0.013659
vn -0.012567 -0.999860 0.011053
vn -0.012567 -0.999860 0.011053
vn -0.012567 -0.999860 0.011053
vn -0.012488 -0.999860 0.011159
vn -0.012488 -0.999860 0.011159
vn -0.012488 -0.999860 0.011159
vn -0.010330 -0.999845 0.014247
vn -0.010330 -0.999845 0.014247
vn -0.010330 -0.999845 0.014247
vn -0.019660 -0.999807 0.000116
vn -0.019660 -0.999807 0.000116
vn -0.019660 -0.999807 0.000116
vn -0.019798 -0.999804 -0.000304
vn -0.019798 -0.999804 -0.000304
vn -0.019798 -0.999804 -0.000304
vn -0.019798 -0.999804 -0.000022
vn -0.019798 -0.999804 -0.000022
vn -0.019798 -0.999804 -0.000022
vn -0.019861 -0.999803 0.000167
vn -0.019861 -0.999803 0.000167
vn -0.019861 -0.999803 0.000167
vn -0.010911 -0.999851 -0.013389
vn -0.010911 -0.999851 -0.013389
vn -0.010911 -0.999851 -0.013389
vn -0.011015 -0.999852 -0.013241
vn -0.011015 -0.999852 -0.013241
vn -0.011015 -0.999852 -0.013241
vn -0.013586 -0.999860 -0.009763
vn -0.013586 -0.999860 -0.009763
vn -0.013586 -0.999860 -0.009763
vn -0.012814 -0.999860 -0.010750
vn -0.012814 -0.999860 -0.010750
vn -0.012814 -0.999860 -0.010750
vn 0.000147 -0.999651 -0.026432
vn 0.000147 -0.999651 -0.026432
vn 0.000147 -0.999651 -0.026432
vn -0.000034 -0.999654 -0.026322
vn -0.000034 -0.999654 -0.026322
vn -0.000034 -0.999654 -0.026322
vn -0.000178 -0.999653 -0.026322
vn -0.000178 -0.999653 -0.026322
vn -0.000178 -0.999653 -0.026322
vn 0.000167 -0.999659 -0.026113
vn 0.000167 -0.999659 -0.026113
vn 0.000167 -0.999659 -0.026113
vn 0.000000 0.000000 -1.000000
vn 0.000000 0.000000 -1.000000
vn 0.000000 0.000000 -1.000000
vn 0.000000 0.000000 -1.000000
vn 0.000000 0.000000 1.000000
vn 0.000000 0.000000 1.000000
vn 0.000000 0.000000 1.000000
vn 0.000000 0.000000 1.000000
vn -1.000000 0.000000 0.000000
vn -1.000000 0.000000 0.000000
vn -1.000000 0.000000 0.000000
vn -1.000000 0.000000 0.000000
vn 1.000000 0.000000 0.000000
vn 1.000000 0.000000 0.000000
vn 1.000000 0.000000 0.000000
vn 1.000000 0.000000 0.000000
vn 0.000000 1.000000 0.000000
vn 0.000000 1.000000 0.000000
vn 0.000000 1.000000 0.000000
vn 0.000000 1.000000 0.000000
vn 0.000000 -1.000000 0.000000
vn 0.000000 -1.000000 0.000000
vn 0.000000 -1.000000 0.000000
vn 0.000000 -1.000000 0.000000
vn 0.000000 0.000000 -1.000000
vn 0.000000 0.000000 -1.000000
vn 0.000000 0.000000 -1.000000
vn 0.000000 0.000000 -1.000000
vn 0.000000 0.000000 1.000000
vn 0.000000 0.000000 1.000000
vn 0.000000 0.000000 1.000000
vn 0.000000 0.000000 1.000000
vn -1.000000 0.000000 0.000000
vn -1.000000 0.000000 0.000000
vn -1.000000 0.000000 0.000000
vn -1.000000 0.000000 0.000000
vn 1.000000 0.000000 0.000000
vn 1.000000 0.000000 0.000000
vn 1.000000 0.000000 0.000000
vn 1.000000 0.000000 0.000000
vn 0.000000 1.000000 0.000000
vn 0.000000 1.000000 0.000000
vn 0.000000 1.000000 0.000000
vn 0.000000 1.000000 0.000000
vn 0.000000 -1.000000 0.000000
vn 0.000000 -1.000000 0.000000
vn 0.000000 -1.000000 0.000000
vn 0.000000 -1.000000 0.000000
usemtl fortress_floor
f 1/1/1 2/2/2 3/3/3
f 4/4/4 5/5/5 6/6/6
f 7/7/7 8/8/8 9/9/9
f 10/10/10 11/11/11 12/12/12
f 13/13/13 14/14/14 15/15/15
f 16/16/16 17/17/17 18/18/18
f 19/19/19 20/20/20 21/21/21
f 22/22/22 23/23/23 24/24/24
f 25/25/25 26/26/26 27/27/27
f 28/28/28 29/29/29 30/30/30
f 31/31/31 32/32/32 33/33/33
f 34/34/34 35/35/35 36/36/36
f 37/37/37 38/38/38 39/39/39
f 40/40/40 41/41/41 42/42/42
f 43/43/43 44/44/44 45/45/45
f 46/46/46 47/47/47 48/48/48
f 49/49/49 50/50/50 51/51/51
f 52/52/52 53/53/53 54/54/54
f 55/55/55 56/56/56 57/57/57
f 58/58/58 59/59/59 60/60/60
f 61/61/61 62/62/62 63/63/63
f 64/64/64 65/65/65 66/66/66
f 67/67/67 68/68/68 69/69/69
f 70/70/70 71/71/71 72/72/72
f 73/73/73 74/74/74 75/75/75
f 76/76/76 77/77/77 78/78/78
f 79/79/79 80/80/80 81/81/81
f 82/82/82 83/83/83 84/84/84
f 85/85/85 86/86/86 87/87/87
f 88/88/88 89/89/89 90/90/90
f 91/91/91 92/92/92 93/93/93
f 94/94/94 95/95/95 96/96/96
usemtl fortress_trim
f 97/97/97 98/98/98 99/99/99 100/100/100
f 101/101/101 102/102/102 103/103/103 104/104/104
f 105/105/105 106/106/106 107/107/107 108/108/108
f 109/109/109 110/110/110 111/111/111 112/112/112
f 113/113/113 114/114/114 115/115/115 116/116/116
f 117/117/117 118/118/118 119/119/119 120/120/120
f 121/121/121 122/122/122 123/123/123 124/124/124
f 125/125/125 126/126/126 127/127/127 128/128/128
f 129/129/129 130/130/130 131/131/131 132/132/132
f 133/133/133 134/134/134 135/135/135 136/136/136
f 137/137/137 138/138/138 139/139/139 140/140/140
f 141/141/141 142/142/142 143/143/143 144/144/144
f 145/145/145 146/146/146 147/147/147 148/148/148
f 149/149/149 150/150/150 151/151/151 152/152/152
f 153/153/153 154/154/154 155/155/155 156/156/156
f 157/157/157 158/158/158 159/159/159 160/160/160
f 161/161/161 162/162/162 163/163/163 164/164/164
f 165/165/165 166/166/166 167/167/167 168/168/168
f 169/169/169 170/170/170 171/171/171 172/172/172
f 173/173/173 174/174/174 175/175/175 176/176/176
f 177/177/177 178/178/178 179/179/179 180/180/180
f 181/181/181 182/182/182 183/183/183 184/184/184
f 185/185/185 186/186/186 187/187/187 188/188/188
f 189/189/189 190/190/190 191/191/191 192/192/192
f 193/193/193 194/194/194 195/195/195 196/196/196
f 197/197/197 198/198/198 199/199/199 200/200/200
f 201/201/201 202/202/202 203/203/203 204/204/204
f 205/205/205 206/206/206 207/207/207 208/208/208
f 209/209/209 210/210/210 211/211/211 212/212/212
f 213/213/213 214/214/214 215/215/215 216/216/216
f 217/217/217 218/218/218 219/219/219 220/220/220
f 221/221/221 222/222/222 223/223/223 224/224/224
usemtl fortress_cliff
f 225/225/225 226/226/226 227/227/227 228/228/228
f 229/229/229 230/230/230 231/231/231 232/232/232
f 233/233/233 234/234/234 235/235/235 236/236/236
usemtl basalt_side
f 237/237/237 238/238/238 239/239/239 240/240/240
usemtl fortress_cliff
f 241/241/241 242/242/242 243/243/243 244/244/244
f 245/245/245 246/246/246 247/247/247 248/248/248
f 249/249/249 250/250/250 251/251/251 252/252/252
f 253/253/253 254/254/254 255/255/255 256/256/256
f 257/257/257 258/258/258 259/259/259 260/260/260
f 261/261/261 262/262/262 263/263/263 264/264/264
usemtl basalt_side
f 265/265/265 266/266/266 267/267/267 268/268/268
usemtl fortress_cliff
f 269/269/269 270/270/270 271/271/271 272/272/272
f 273/273/273 274/274/274 275/275/275 276/276/276
f 277/277/277 278/278/278 279/279/279 280/280/280
f 281/281/281 282/282/282 283/283/283 284/284/284
f 285/285/285 286/286/286 287/287/287 288/288/288
f 289/289/289 290/290/290 291/291/291 292/292/292
usemtl basalt_side
f 293/293/293 294/294/294 295/295/295 296/296/296
usemtl fortress_cliff
f 297/297/297 298/298/298 299/299/299 300/300/300
f 301/301/301 302/302/302 303/303/303 304/304/304
f 305/305/305 306/306/306 307/307/307 308/308/308
f 309/309/309 310/310/310 311/311/311 312/312/312
f 313/313/313 314/314/314 315/315/315 316/316/316
f 317/317/317 318/318/318 319/319/319 320/320/320
usemtl basalt_side
f 321/321/321 322/322/322 323/323/323 324/324/324
usemtl fortress_cliff
f 325/325/325 326/326/326 327/327/327 328/328/328
f 329/329/329 330/330/330 331/331/331 332/332/332
f 333/333/333 334/334/334 335/335/335 336/336/336
f 337/337/337 338/338/338 339/339/339 340/340/340
f 341/341/341 342/342/342 343/343/343 344/344/344
f 345/345/345 346/346/346 347/347/347 348/348/348
usemtl basalt_side
f 349/349/349 350/350/350 351/351/351 352/352/352
usemtl fortress_cliff
f 353/353/353 354/354/354 355/355/355 356/356/356
f 357/357/357 358/358/358 359/359/359 360/360/360
f 361/361/361 362/362/362 363/363/363 364/364/364
usemtl obsidian
f 365/365/365 366/366/366 367/367/367 368/368/368
usemtl fortress_cliff
f 369/369/369 370/370/370 371/371/371 372/372/372
f 373/373/373 374/374/374 375/375/375 376/376/376
f 377/377/377 378/378/378 379/379/379 380/380/380
f 381/381/381 382/382/382 383/383/383 384/384/384
f 385/385/385 386/386/386 387/387/387 388/388/388
f 389/389/389 390/390/390 391/391/391 392/392/392
usemtl obsidian
f 393/393/393 394/394/394 395/395/395 396/396/396
usemtl fortress_cliff
f 397/397/397 398/398/398 399/399/399 400/400/400
f 401/401/401 402/402/402 403/403/403 404/404/404
f 405/405/405 406/406/406 407/407/407 408/408/408
f 409/409/409 410/410/410 411/411/411 412/412/412
f 413/413/413 414/414/414 415/415/415 416/416/416
f 417/417/417 418/418/418 419/419/419 420/420/420
usemtl obsidian
f 421/421/421 422/422/422 423/423/423 424/424/424
usemtl fortress_cliff
f 425/425/425 426/426/426 427/427/427 428/428/428
f 429/429/429 430/430/430 431/431/431 432/432/432
f 433/433/433 434/434/434 435/435/435 436/436/436
f 437/437/437 438/438/438 439/439/439 440/440/440
f 441/441/441 442/442/442 443/443/443 444/444/444
f 445/445/445 446/446/446 447/447/447 448/448/448
usemtl obsidian
f 449/449/449 450/450/450 451/451/451 452/452/452
usemtl fortress_cliff
f 453/453/453 454/454/454 455/455/455 456/456/456
f 457/457/457 458/458/458 459/459/459 460/460/460
f 461/461/461 462/462/462 463/463/463 464/464/464
f 465/465/465 466/466/466 467/467/467 468/468/468
f 469/469/469 470/470/470 471/471/471 472/472/472
f 473/473/473 474/474/474 475/475/475 476/476/476
usemtl obsidian
f 477/477/477 478/478/478 479/479/479 480/480/480
f 481/481/481 482/482/482 483/483/483
f 484/484/484 485/485/485 486/486/486
f 487/487/487 488/488/488 489/489/489
f 490/490/490 491/491/491 492/492/492
f 493/493/493 494/494/494 495/495/495
f 496/496/496 497/497/497 498/498/498
f 499/499/499 500/500/500 501/501/501
f 502/502/502 503/503/503 504/504/504
f 505/505/505 506/506/506 507/507/507
f 508/508/508 509/509/509 510/510/510
f 511/511/511 512/512/512 513/513/513
f 514/514/514 515/515/515 516/516/516
f 517/517/517 518/518/518 519/519/519
f 520/520/520 521/521/521 522/522/522
f 523/523/523 524/524/524 525/525/525
f 526/526/526 527/527/527 528/528/528
f 529/529/529 530/530/530 531/531/531
f 532/532/532 533/533/533 534/534/534
f 535/535/535 536/536/536 537/537/537
f 538/538/538 539/539/539 540/540/540
f 541/541/541 542/542/542 543/543/543
f 544/544/544 545/545/545 546/546/546
f 547/547/547 548/548/548 549/549/549
f 550/550/550 551/551/551 552/552/552
f 553/553/553 554/554/554 555/555/555
f 556/556/556 557/557/557 558/558/558
f 559/559/559 560/560/560 561/561/561
f 562/562/562 563/563/563 564/564/564
f 565/565/565 566/566/566 567/567/567
f 568/568/568 569/569/569 570/570/570
f 571/571/571 572/572/572 573/573/573
f 574/574/574 575/575/575 576/576/576
usemtl fortress_trim
f 577/577/577 578/578/578 579/579/579 580/580/580
f 581/581/581 582/582/582 583/583/583 584/584/584
f 585/585/585 586/586/586 587/587/587 588/588/588
f 589/589/589 590/590/590 591/591/591 592/592/592
f 593/593/593 594/594/594 595/595/595 596/596/596
f 597/597/597 598/598/598 599/599/599 600/600/600
f 601/601/601 602/602/602 603/603/603 604/604/604
f 605/605/605 606/606/606 607/607/607 608/608/608
f 609/609/609 610/610/610 611/611/611 612/612/612
f 613/613/613 614/614/614 615/615/615 616/616/616
f 617/617/617 618/618/618 619/619/619 620/620/620
f 621/621/621 622/622/622 623/623/623 624/624/624
