# Blender 4.4.1
# www.blender.org
mtllib sword_Tsuba.mtl
o 円柱.002
v -0.161394 0.003209 -0.014002
v -0.189246 0.003209 -0.014002
v -0.161394 0.003209 -0.017455
v -0.161394 -0.003209 -0.014002
v -0.189246 -0.003209 -0.014002
v -0.161394 -0.003209 -0.017455
v -0.184806 0.090311 -0.019827
v -0.161871 0.105000 -0.020000
v -0.184806 0.090311 0.019827
v -0.142983 -0.000000 -0.019827
v -0.117633 -0.000000 -0.019827
v -0.118256 -0.065547 -0.018161
v -0.117633 0.000000 0.019827
v -0.118256 0.065547 -0.018161
v -0.161871 -0.105000 -0.020000
v -0.184806 -0.090311 -0.019827
v -0.184806 -0.090311 0.019827
v -0.161871 -0.105000 0.020000
v -0.142983 0.000000 0.019827
v -0.096254 -0.082233 0.018054
v -0.118256 -0.065547 0.018161
v -0.096254 -0.082233 -0.018054
v -0.096254 0.082233 -0.018054
v -0.118256 0.065547 0.018161
v -0.096254 0.082233 0.018054
v -0.161871 0.105000 0.020000
v -0.141777 -0.013626 -0.003292
v -0.189246 -0.013626 -0.003292
v -0.141777 -0.035022 -0.003292
v -0.141777 -0.013626 0.003598
v -0.189246 -0.013626 0.003598
v -0.141777 -0.035022 0.003598
v -0.141777 0.013474 0.003598
v -0.189246 0.013474 0.003598
v -0.141777 0.034869 0.003598
v -0.141777 0.013474 -0.003292
v -0.189246 0.013474 -0.003292
v -0.141777 0.034869 -0.003292
v -0.161394 -0.003209 0.014105
v -0.189246 -0.003209 0.014105
v -0.161394 -0.003209 0.017558
v -0.161394 0.003209 0.014105
v -0.189246 0.003209 0.014105
v -0.161394 0.003209 0.017558
vn -0.0000 1.0000 -0.0000
vn -0.0000 -1.0000 -0.0000
vn -0.1230 -0.0000 -0.9924
vn -0.0051 -0.0038 -1.0000
vn -0.5393 0.8421 -0.0000
vn -0.9074 -0.4202 -0.0000
vn -0.0000 -0.0000 -1.0000
vn 0.0656 -0.0260 -0.9975
vn 1.0000 -0.0095 -0.0000
vn 1.0000 0.0095 -0.0000
vn 0.0656 0.0260 -0.9975
vn -0.0051 0.0038 -1.0000
vn -0.9074 0.4202 -0.0000
vn -0.5393 -0.8421 -0.0000
vn -0.0051 0.0038 1.0000
vn -0.0000 -0.0000 1.0000
vn 0.0219 0.0224 0.9995
vn 0.3278 -0.9447 -0.0000
vn 0.0656 -0.0260 0.9975
vn 0.6043 0.7968 -0.0000
vn 0.0219 0.0224 -0.9995
vn 0.0219 -0.0224 -0.9995
vn 0.6043 -0.7968 -0.0000
vn 0.0656 0.0260 0.9975
vn 0.0219 -0.0224 0.9995
vn 0.3278 0.9447 -0.0000
vn -0.0051 -0.0038 1.0000
vn -0.4109 -0.9117 -0.0000
vn -0.4109 0.9117 -0.0000
vn -0.1230 -0.0000 0.9924
vt 0.375000 0.000000
vt 0.625000 0.000000
vt 0.375000 0.250000
vt 0.625000 0.500000
vt 0.625000 0.750000
vt 0.375000 0.750000
vt 0.875000 0.750000
vt 0.375000 0.125000
vt 0.000000 0.000000
vt 0.375000 1.000000
vt 0.625000 0.125000
vt 0.375000 0.875000
vt 0.625000 1.000000
vt 0.375000 0.437500
vt 0.375000 0.625000
vt 0.625000 0.375000
vt 0.375000 0.375000
vt 0.625000 0.312500
vt 0.375000 0.312500
vt 0.625000 0.875000
vt 0.625000 0.625000
vt 0.625000 0.437500
vt 0.375000 0.500000
vt 0.625000 0.250000
vt 0.875000 0.500000
s 0
f 1/1/1 3/2/1 2/3/1
f 5/4/2 6/5/2 4/6/2
f 5/4/3 3/7/3 6/5/3
f 8/8/4 11/9/4 7/10/4
f 7/1/5 26/11/5 8/8/5
f 10/12/6 9/13/6 7/10/6
f 10/12/7 7/10/7 11/9/7
f 12/14/8 15/15/8 11/9/8
f 13/16/9 12/14/9 11/17/9
f 24/18/10 11/17/10 14/19/10
f 14/19/11 11/9/11 8/8/11
f 10/12/7 11/9/7 16/6/7
f 15/15/12 16/6/12 11/9/12
f 16/6/13 19/20/13 10/12/13
f 18/21/14 16/6/14 15/15/14
f 18/21/15 13/16/15 17/5/15
f 19/20/16 17/5/16 13/16/16
f 19/20/16 13/16/16 9/13/16
f 21/22/17 18/21/17 20/4/17
f 20/4/18 15/15/18 22/23/18
f 21/22/19 13/16/19 18/21/19
f 21/22/20 22/23/20 12/14/20
f 22/23/21 15/15/21 12/14/21
f 14/19/22 8/8/22 23/3/22
f 23/3/23 24/18/23 14/19/23
f 24/18/24 26/11/24 13/16/24
f 25/24/25 26/11/25 24/18/25
f 26/11/26 23/3/26 8/8/26
f 26/11/27 9/13/27 13/16/27
f 27/1/7 29/2/7 28/3/7
f 31/4/16 32/5/16 30/6/16
f 31/4/28 29/7/28 32/5/28
f 33/1/16 35/2/16 34/3/16
f 37/4/7 38/5/7 36/6/7
f 34/25/29 38/5/29 37/4/29
f 39/1/2 41/2/2 40/3/2
f 43/4/1 44/5/1 42/6/1
f 43/4/30 41/7/30 44/5/30
f 5/4/3 2/25/3 3/7/3
f 7/1/5 9/2/5 26/11/5
f 10/12/6 19/20/6 9/13/6
f 13/16/9 21/22/9 12/14/9
f 24/18/10 13/16/10 11/17/10
f 16/6/13 17/5/13 19/20/13
f 18/21/14 17/5/14 16/6/14
f 20/4/18 18/21/18 15/15/18
f 21/22/20 20/4/20 22/23/20
f 23/3/23 25/24/23 24/18/23
f 26/11/26 25/24/26 23/3/26
f 31/4/28 28/25/28 29/7/28
f 34/25/29 35/7/29 38/5/29
f 43/4/30 40/25/30 41/7/30
