# Blender 4.4.1
# www.blender.org
mtllib map_floor_07.mtl
o 四角7
v 14.707107 -2.159910 -16.828426
v 16.828426 -2.159910 -14.707107
v 14.707107 0.840088 -16.828426
v 11.171573 -2.159910 -13.292893
v 13.292893 -2.159910 -11.171573
v 11.171573 0.840088 -13.292893
v 13.292893 0.840088 -11.171573
v 16.828426 0.840088 -14.707107
vn 0.7071 -0.0000 -0.7071
vn -0.7071 -0.0000 -0.7071
vn -0.0000 1.0000 -0.0000
vn 0.7071 -0.0000 0.7071
vn -0.7071 -0.0000 0.7071
vn -0.0000 -1.0000 -0.0000
vt 0.625000 0.000000
vt 0.375000 0.250000
vt 0.375000 0.000000
vt 0.625000 0.750000
vt 0.375000 1.000000
vt 0.375000 0.750000
vt 0.875000 0.500000
vt 0.625000 0.500000
vt 0.625000 0.250000
vt 0.375000 0.500000
vt 0.625000 1.000000
vt 0.875000 0.750000
vt 0.000000 0.000000
s 0
f 3/1/1 2/2/1 1/3/1
f 6/4/2 1/5/2 4/6/2
f 8/7/3 6/4/3 7/8/3
f 8/9/4 5/10/4 2/2/4
f 3/1/1 8/9/1 2/2/1
f 6/4/2 3/11/2 1/5/2
f 8/7/3 3/12/3 6/4/3
f 8/9/4 7/8/4 5/10/4
f 6/4/5 4/6/5 5/13/5
f 6/4/5 5/13/5 7/8/5
f 1/5/6 2/2/6 4/6/6
f 5/13/6 4/6/6 2/2/6
