mtllib forge_temple.mtl
o forge_temple
v 7.200000 1.300000 0.000000
v 6.651933 1.300000 2.755321
v 6.651933 0.000000 2.755321
v 7.200000 0.000000 0.000000
v 6.651933 1.300000 2.755321
v 5.091169 1.300000 5.091169
v 5.091169 0.000000 5.091169
v 6.651933 0.000000 2.755321
v 5.091169 1.300000 5.091169
v 2.755321 1.300000 6.651933
v 2.755321 0.000000 6.651933
v 5.091169 0.000000 5.091169
v 2.755321 1.300000 6.651933
v 0.000000 1.300000 7.200000
v 0.000000 0.000000 7.200000
v 2.755321 0.000000 6.651933
v 0.000000 1.300000 7.200000
v -2.755321 1.300000 6.651933
v -2.755321 0.000000 6.651933
v 0.000000 0.000000 7.200000
v -2.755321 1.300000 6.651933
v -5.091169 1.300000 5.091169
v -5.091169 0.000000 5.091169
v -2.755321 0.000000 6.651933
v -5.091169 1.300000 5.091169
v -6.651933 1.300000 2.755321
v -6.651933 0.000000 2.755321
v -5.091169 0.000000 5.091169
v -6.651933 1.300000 2.755321
v -7.200000 1.300000 0.000000
v -7.200000 0.000000 0.000000
v -6.651933 0.000000 2.755321
v -7.200000 1.300000 0.000000
v -6.651933 1.300000 -2.755321
v -6.651933 0.000000 -2.755321
v -7.200000 0.000000 0.000000
v -6.651933 1.300000 -2.755321
v -5.091169 1.300000 -5.091169
v -5.091169 0.000000 -5.091169
v -6.651933 0.000000 -2.755321
v -5.091169 1.300000 -5.091169
v -2.755321 1.300000 -6.651933
v -2.755321 0.000000 -6.651933
v -5.091169 0.000000 -5.091169
v -2.755321 1.300000 -6.651933
v -0.000000 1.300000 -7.200000
v -0.000000 0.000000 -7.200000
v -2.755321 0.000000 -6.651933
v -0.000000 1.300000 -7.200000
v 2.755321 1.300000 -6.651933
v 2.755321 0.000000 -6.651933
v -0.000000 0.000000 -7.200000
v 2.755321 1.300000 -6.651933
v 5.091169 1.300000 -5.091169
v 5.091169 0.000000 -5.091169
v 2.755321 0.000000 -6.651933
v 5.091169 1.300000 -5.091169
v 6.651933 1.300000 -2.755321
v 6.651933 0.000000 -2.755321
v 5.091169 0.000000 -5.091169
v 6.651933 1.300000 -2.755321
v 7.200000 1.300000 0.000000
v 7.200000 0.000000 0.000000
v 6.651933 0.000000 -2.755321
v 6.651933 1.300000 2.755321
v 7.200000 1.300000 0.000000
v 0.000000 1.300000 0.000000
v 0.000000 0.000000 0.000000
v 7.200000 0.000000 0.000000
v 6.651933 0.000000 2.755321
v 5.091169 1.300000 5.091169
v 6.651933 1.300000 2.755321
v 0.000000 1.300000 0.000000
v 0.000000 0.000000 0.000000
v 6.651933 0.000000 2.755321
v 5.091169 0.000000 5.091169
v 2.755321 1.300000 6.651933
v 5.091169 1.300000 5.091169
v 0.000000 1.300000 0.000000
v 0.000000 0.000000 0.000000
v 5.091169 0.000000 5.091169
v 2.755321 0.000000 6.651933
v 0.000000 1.300000 7.200000
v 2.755321 1.300000 6.651933
v 0.000000 1.300000 0.000000
v 0.000000 0.000000 0.000000
v 2.755321 0.000000 6.651933
v 0.000000 0.000000 7.200000
v -2.755321 1.300000 6.651933
v 0.000000 1.300000 7.200000
v 0.000000 1.300000 0.000000
v 0.000000 0.000000 0.000000
v 0.000000 0.000000 7.200000
v -2.755321 0.000000 6.651933
v -5.091169 1.300000 5.091169
v -2.755321 1.300000 6.651933
v 0.000000 1.300000 0.000000
v 0.000000 0.000000 0.000000
v -2.755321 0.000000 6.651933
v -5.091169 0.000000 5.091169
v -6.651933 1.300000 2.755321
v -5.091169 1.300000 5.091169
v 0.000000 1.300000 0.000000
v 0.000000 0.000000 0.000000
v -5.091169 0.000000 5.091169
v -6.651933 0.000000 2.755321
v -7.200000 1.300000 0.000000
v -6.651933 1.300000 2.755321
v 0.000000 1.300000 0.000000
v 0.000000 0.000000 0.000000
v -6.651933 0.000000 2.755321
v -7.200000 0.000000 0.000000
v -6.651933 1.300000 -2.755321
v -7.200000 1.300000 0.000000
v 0.000000 1.300000 0.000000
v 0.000000 0.000000 0.000000
v -7.200000 0.000000 0.000000
v -6.651933 0.000000 -2.755321
v -5.091169 1.300000 -5.091169
v -6.651933 1.300000 -2.755321
v 0.000000 1.300000 0.000000
v 0.000000 0.000000 0.000000
v -6.651933 0.000000 -2.755321
v -5.091169 0.000000 -5.091169
v -2.755321 1.300000 -6.651933
v -5.091169 1.300000 -5.091169
v 0.000000 1.300000 0.000000
v 0.000000 0.000000 0.000000
v -5.091169 0.000000 -5.091169
v -2.755321 0.000000 -6.651933
v -0.000000 1.300000 -7.200000
v -2.755321 1.300000 -6.651933
v 0.000000 1.300000 0.000000
v 0.000000 0.000000 0.000000
v -2.755321 0.000000 -6.651933
v -0.000000 0.000000 -7.200000
v 2.755321 1.300000 -6.651933
v -0.000000 1.300000 -7.200000
v 0.000000 1.300000 0.000000
v 0.000000 0.000000 0.000000
v -0.000000 0.000000 -7.200000
v 2.755321 0.000000 -6.651933
v 5.091169 1.300000 -5.091169
v 2.755321 1.300000 -6.651933
v 0.000000 1.300000 0.000000
v 0.000000 0.000000 0.000000
v 2.755321 0.000000 -6.651933
v 5.091169 0.000000 -5.091169
v 6.651933 1.300000 -2.755321
v 5.091169 1.300000 -5.091169
v 0.000000 1.300000 0.000000
v 0.000000 0.000000 0.000000
v 5.091169 0.000000 -5.091169
v 6.651933 0.000000 -2.755321
v 7.200000 1.300000 0.000000
v 6.651933 1.300000 -2.755321
v 0.000000 1.300000 0.000000
v 0.000000 0.000000 0.000000
v 6.651933 0.000000 -2.755321
v 7.200000 0.000000 0.000000
v 5.900000 1.800000 0.000000
v 5.450889 1.800000 2.257832
v 5.450889 1.300000 2.257832
v 5.900000 1.300000 0.000000
v 5.450889 1.800000 2.257832
v 4.171930 1.800000 4.171930
v 4.171930 1.300000 4.171930
v 5.450889 1.300000 2.257832
v 4.171930 1.800000 4.171930
v 2.257832 1.800000 5.450889
v 2.257832 1.300000 5.450889
v 4.171930 1.300000 4.171930
v 2.257832 1.800000 5.450889
v 0.000000 1.800000 5.900000
v 0.000000 1.300000 5.900000
v 2.257832 1.300000 5.450889
v 0.000000 1.800000 5.900000
v -2.257832 1.800000 5.450889
v -2.257832 1.300000 5.450889
v 0.000000 1.300000 5.900000
v -2.257832 1.800000 5.450889
v -4.171930 1.800000 4.171930
v -4.171930 1.300000 4.171930
v -2.257832 1.300000 5.450889
v -4.171930 1.800000 4.171930
v -5.450889 1.800000 2.257832
v -5.450889 1.300000 2.257832
v -4.171930 1.300000 4.171930
v -5.450889 1.800000 2.257832
v -5.900000 1.800000 0.000000
v -5.900000 1.300000 0.000000
v -5.450889 1.300000 2.257832
v -5.900000 1.800000 0.000000
v -5.450889 1.800000 -2.257832
v -5.450889 1.300000 -2.257832
v -5.900000 1.300000 0.000000
v -5.450889 1.800000 -2.257832
v -4.171930 1.800000 -4.171930
v -4.171930 1.300000 -4.171930
v -5.450889 1.300000 -2.257832
v -4.171930 1.800000 -4.171930
v -2.257832 1.800000 -5.450889
v -2.257832 1.300000 -5.450889
v -4.171930 1.300000 -4.171930
v -2.257832 1.800000 -5.450889
v -0.000000 1.800000 -5.900000
v -0.000000 1.300000 -5.900000
v -2.257832 1.300000 -5.450889
v -0.000000 1.800000 -5.900000
v 2.257832 1.800000 -5.450889
v 2.257832 1.300000 -5.450889
v -0.000000 1.300000 -5.900000
v 2.257832 1.800000 -5.450889
v 4.171930 1.800000 -4.171930
v 4.171930 1.300000 -4.171930
v 2.257832 1.300000 -5.450889
v 4.171930 1.800000 -4.171930
v 5.450889 1.800000 -2.257832
v 5.450889 1.300000 -2.257832
v 4.171930 1.300000 -4.171930
v 5.450889 1.800000 -2.257832
v 5.900000 1.800000 0.000000
v 5.900000 1.300000 0.000000
v 5.450889 1.300000 -2.257832
v 5.450889 1.800000 2.257832
v 5.900000 1.800000 0.000000
v 0.000000 1.800000 0.000000
v 0.000000 1.300000 0.000000
v 5.900000 1.300000 0.000000
v 5.450889 1.300000 2.257832
v 4.171930 1.800000 4.171930
v 5.450889 1.800000 2.257832
v 0.000000 1.800000 0.000000
v 0.000000 1.300000 0.000000
v 5.450889 1.300000 2.257832
v 4.171930 1.300000 4.171930
v 2.257832 1.800000 5.450889
v 4.171930 1.800000 4.171930
v 0.000000 1.800000 0.000000
v 0.000000 1.300000 0.000000
v 4.171930 1.300000 4.171930
v 2.257832 1.300000 5.450889
v 0.000000 1.800000 5.900000
v 2.257832 1.800000 5.450889
v 0.000000 1.800000 0.000000
v 0.000000 1.300000 0.000000
v 2.257832 1.300000 5.450889
v 0.000000 1.300000 5.900000
v -2.257832 1.800000 5.450889
v 0.000000 1.800000 5.900000
v 0.000000 1.800000 0.000000
v 0.000000 1.300000 0.000000
v 0.000000 1.300000 5.900000
v -2.257832 1.300000 5.450889
v -4.171930 1.800000 4.171930
v -2.257832 1.800000 5.450889
v 0.000000 1.800000 0.000000
v 0.000000 1.300000 0.000000
v -2.257832 1.300000 5.450889
v -4.171930 1.300000 4.171930
v -5.450889 1.800000 2.257832
v -4.171930 1.800000 4.171930
v 0.000000 1.800000 0.000000
v 0.000000 1.300000 0.000000
v -4.171930 1.300000 4.171930
v -5.450889 1.300000 2.257832
v -5.900000 1.800000 0.000000
v -5.450889 1.800000 2.257832
v 0.000000 1.800000 0.000000
v 0.000000 1.300000 0.000000
v -5.450889 1.300000 2.257832
v -5.900000 1.300000 0.000000
v -5.450889 1.800000 -2.257832
v -5.900000 1.800000 0.000000
v 0.000000 1.800000 0.000000
v 0.000000 1.300000 0.000000
v -5.900000 1.300000 0.000000
v -5.450889 1.300000 -2.257832
v -4.171930 1.800000 -4.171930
v -5.450889 1.800000 -2.257832
v 0.000000 1.800000 0.000000
v 0.000000 1.300000 0.000000
v -5.450889 1.300000 -2.257832
v -4.171930 1.300000 -4.171930
v -2.257832 1.800000 -5.450889
v -4.171930 1.800000 -4.171930
v 0.000000 1.800000 0.000000
v 0.000000 1.300000 0.000000
v -4.171930 1.300000 -4.171930
v -2.257832 1.300000 -5.450889
v -0.000000 1.800000 -5.900000
v -2.257832 1.800000 -5.450889
v 0.000000 1.800000 0.000000
v 0.000000 1.300000 0.000000
v -2.257832 1.300000 -5.450889
v -0.000000 1.300000 -5.900000
v 2.257832 1.800000 -5.450889
v -0.000000 1.800000 -5.900000
v 0.000000 1.800000 0.000000
v 0.000000 1.300000 0.000000
v -0.000000 1.300000 -5.900000
v 2.257832 1.300000 -5.450889
v 4.171930 1.800000 -4.171930
v 2.257832 1.800000 -5.450889
v 0.000000 1.800000 0.000000
v 0.000000 1.300000 0.000000
v 2.257832 1.300000 -5.450889
v 4.171930 1.300000 -4.171930
v 5.450889 1.800000 -2.257832
v 4.171930 1.800000 -4.171930
v 0.000000 1.800000 0.000000
v 0.000000 1.300000 0.000000
v 4.171930 1.300000 -4.171930
v 5.450889 1.300000 -2.257832
v 5.900000 1.800000 0.000000
v 5.450889 1.800000 -2.257832
v 0.000000 1.800000 0.000000
v 0.000000 1.300000 0.000000
v 5.450889 1.300000 -2.257832
v 5.900000 1.300000 0.000000
v -3.680000 8.000000 -4.000000
v -3.817508 8.000000 -3.576795
v -3.817508 1.600000 -3.576795
v -3.680000 1.600000 -4.000000
v -3.817508 8.000000 -3.576795
v -4.177508 8.000000 -3.315239
v -4.177508 1.600000 -3.315239
v -3.817508 1.600000 -3.576795
v -4.177508 8.000000 -3.315239
v -4.622492 8.000000 -3.315239
v -4.622492 1.600000 -3.315239
v -4.177508 1.600000 -3.315239
v -4.622492 8.000000 -3.315239
v -4.982492 8.000000 -3.576795
v -4.982492 1.600000 -3.576795
v -4.622492 1.600000 -3.315239
v -4.982492 8.000000 -3.576795
v -5.120000 8.000000 -4.000000
v -5.120000 1.600000 -4.000000
v -4.982492 1.600000 -3.576795
v -5.120000 8.000000 -4.000000
v -4.982492 8.000000 -4.423205
v -4.982492 1.600000 -4.423205
v -5.120000 1.600000 -4.000000
v -4.982492 8.000000 -4.423205
v -4.622492 8.000000 -4.684761
v -4.622492 1.600000 -4.684761
v -4.982492 1.600000 -4.423205
v -4.622492 8.000000 -4.684761
v -4.177508 8.000000 -4.684761
v -4.177508 1.600000 -4.684761
v -4.622492 1.600000 -4.684761
v -4.177508 8.000000 -4.684761
v -3.817508 8.000000 -4.423205
v -3.817508 1.600000 -4.423205
v -4.177508 1.600000 -4.684761
v -3.817508 8.000000 -4.423205
v -3.680000 8.000000 -4.000000
v -3.680000 1.600000 -4.000000
v -3.817508 1.600000 -4.423205
v -3.817508 8.000000 -3.576795
v -3.680000 8.000000 -4.000000
v -4.400000 8.000000 -4.000000
v -4.400000 1.600000 -4.000000
v -3.680000 1.600000 -4.000000
v -3.817508 1.600000 -3.576795
v -4.177508 8.000000 -3.315239
v -3.817508 8.000000 -3.576795
v -4.400000 8.000000 -4.000000
v -4.400000 1.600000 -4.000000
v -3.817508 1.600000 -3.576795
v -4.177508 1.600000 -3.315239
v -4.622492 8.000000 -3.315239
v -4.177508 8.000000 -3.315239
v -4.400000 8.000000 -4.000000
v -4.400000 1.600000 -4.000000
v -4.177508 1.600000 -3.315239
v -4.622492 1.600000 -3.315239
v -4.982492 8.000000 -3.576795
v -4.622492 8.000000 -3.315239
v -4.400000 8.000000 -4.000000
v -4.400000 1.600000 -4.000000
v -4.622492 1.600000 -3.315239
v -4.982492 1.600000 -3.576795
v -5.120000 8.000000 -4.000000
v -4.982492 8.000000 -3.576795
v -4.400000 8.000000 -4.000000
v -4.400000 1.600000 -4.000000
v -4.982492 1.600000 -3.576795
v -5.120000 1.600000 -4.000000
v -4.982492 8.000000 -4.423205
v -5.120000 8.000000 -4.000000
v -4.400000 8.000000 -4.000000
v -4.400000 1.600000 -4.000000
v -5.120000 1.600000 -4.000000
v -4.982492 1.600000 -4.423205
v -4.622492 8.000000 -4.684761
v -4.982492 8.000000 -4.423205
v -4.400000 8.000000 -4.000000
v -4.400000 1.600000 -4.000000
v -4.982492 1.600000 -4.423205
v -4.622492 1.600000 -4.684761
v -4.177508 8.000000 -4.684761
v -4.622492 8.000000 -4.684761
v -4.400000 8.000000 -4.000000
v -4.400000 1.600000 -4.000000
v -4.622492 1.600000 -4.684761
v -4.177508 1.600000 -4.684761
v -3.817508 8.000000 -4.423205
v -4.177508 8.000000 -4.684761
v -4.400000 8.000000 -4.000000
v -4.400000 1.600000 -4.000000
v -4.177508 1.600000 -4.684761
v -3.817508 1.600000 -4.423205
v -3.680000 8.000000 -4.000000
v -3.817508 8.000000 -4.423205
v -4.400000 8.000000 -4.000000
v -4.400000 1.600000 -4.000000
v -3.817508 1.600000 -4.423205
v -3.680000 1.600000 -4.000000
v -3.680000 8.000000 4.000000
v -3.817508 8.000000 4.423205
v -3.817508 1.600000 4.423205
v -3.680000 1.600000 4.000000
v -3.817508 8.000000 4.423205
v -4.177508 8.000000 4.684761
v -4.177508 1.600000 4.684761
v -3.817508 1.600000 4.423205
v -4.177508 8.000000 4.684761
v -4.622492 8.000000 4.684761
v -4.622492 1.600000 4.684761
v -4.177508 1.600000 4.684761
v -4.622492 8.000000 4.684761
v -4.982492 8.000000 4.423205
v -4.982492 1.600000 4.423205
v -4.622492 1.600000 4.684761
v -4.982492 8.000000 4.423205
v -5.120000 8.000000 4.000000
v -5.120000 1.600000 4.000000
v -4.982492 1.600000 4.423205
v -5.120000 8.000000 4.000000
v -4.982492 8.000000 3.576795
v -4.982492 1.600000 3.576795
v -5.120000 1.600000 4.000000
v -4.982492 8.000000 3.576795
v -4.622492 8.000000 3.315239
v -4.622492 1.600000 3.315239
v -4.982492 1.600000 3.576795
v -4.622492 8.000000 3.315239
v -4.177508 8.000000 3.315239
v -4.177508 1.600000 3.315239
v -4.622492 1.600000 3.315239
v -4.177508 8.000000 3.315239
v -3.817508 8.000000 3.576795
v -3.817508 1.600000 3.576795
v -4.177508 1.600000 3.315239
v -3.817508 8.000000 3.576795
v -3.680000 8.000000 4.000000
v -3.680000 1.600000 4.000000
v -3.817508 1.600000 3.576795
v -3.817508 8.000000 4.423205
v -3.680000 8.000000 4.000000
v -4.400000 8.000000 4.000000
v -4.400000 1.600000 4.000000
v -3.680000 1.600000 4.000000
v -3.817508 1.600000 4.423205
v -4.177508 8.000000 4.684761
v -3.817508 8.000000 4.423205
v -4.400000 8.000000 4.000000
v -4.400000 1.600000 4.000000
v -3.817508 1.600000 4.423205
v -4.177508 1.600000 4.684761
v -4.622492 8.000000 4.684761
v -4.177508 8.000000 4.684761
v -4.400000 8.000000 4.000000
v -4.400000 1.600000 4.000000
v -4.177508 1.600000 4.684761
v -4.622492 1.600000 4.684761
v -4.982492 8.000000 4.423205
v -4.622492 8.000000 4.684761
v -4.400000 8.000000 4.000000
v -4.400000 1.600000 4.000000
v -4.622492 1.600000 4.684761
v -4.982492 1.600000 4.423205
v -5.120000 8.000000 4.000000
v -4.982492 8.000000 4.423205
v -4.400000 8.000000 4.000000
v -4.400000 1.600000 4.000000
v -4.982492 1.600000 4.423205
v -5.120000 1.600000 4.000000
v -4.982492 8.000000 3.576795
v -5.120000 8.000000 4.000000
v -4.400000 8.000000 4.000000
v -4.400000 1.600000 4.000000
v -5.120000 1.600000 4.000000
v -4.982492 1.600000 3.576795
v -4.622492 8.000000 3.315239
v -4.982492 8.000000 3.576795
v -4.400000 8.000000 4.000000
v -4.400000 1.600000 4.000000
v -4.982492 1.600000 3.576795
v -4.622492 1.600000 3.315239
v -4.177508 8.000000 3.315239
v -4.622492 8.000000 3.315239
v -4.400000 8.000000 4.000000
v -4.400000 1.600000 4.000000
v -4.622492 1.600000 3.315239
v -4.177508 1.600000 3.315239
v -3.817508 8.000000 3.576795
v -4.177508 8.000000 3.315239
v -4.400000 8.000000 4.000000
v -4.400000 1.600000 4.000000
v -4.177508 1.600000 3.315239
v -3.817508 1.600000 3.576795
v -3.680000 8.000000 4.000000
v -3.817508 8.000000 3.576795
v -4.400000 8.000000 4.000000
v -4.400000 1.600000 4.000000
v -3.817508 1.600000 3.576795
v -3.680000 1.600000 4.000000
v 5.120000 8.000000 -4.000000
v 4.982492 8.000000 -3.576795
v 4.982492 1.600000 -3.576795
v 5.120000 1.600000 -4.000000
v 4.982492 8.000000 -3.576795
v 4.622492 8.000000 -3.315239
v 4.622492 1.600000 -3.315239
v 4.982492 1.600000 -3.576795
v 4.622492 8.000000 -3.315239
v 4.177508 8.000000 -3.315239
v 4.177508 1.600000 -3.315239
v 4.622492 1.600000 -3.315239
v 4.177508 8.000000 -3.315239
v 3.817508 8.000000 -3.576795
v 3.817508 1.600000 -3.576795
v 4.177508 1.600000 -3.315239
v 3.817508 8.000000 -3.576795
v 3.680000 8.000000 -4.000000
v 3.680000 1.600000 -4.000000
v 3.817508 1.600000 -3.576795
v 3.680000 8.000000 -4.000000
v 3.817508 8.000000 -4.423205
v 3.817508 1.600000 -4.423205
v 3.680000 1.600000 -4.000000
v 3.817508 8.000000 -4.423205
v 4.177508 8.000000 -4.684761
v 4.177508 1.600000 -4.684761
v 3.817508 1.600000 -4.423205
v 4.177508 8.000000 -4.684761
v 4.622492 8.000000 -4.684761
v 4.622492 1.600000 -4.684761
v 4.177508 1.600000 -4.684761
v 4.622492 8.000000 -4.684761
v 4.982492 8.000000 -4.423205
v 4.982492 1.600000 -4.423205
v 4.622492 1.600000 -4.684761
v 4.982492 8.000000 -4.423205
v 5.120000 8.000000 -4.000000
v 5.120000 1.600000 -4.000000
v 4.982492 1.600000 -4.423205
v 4.982492 8.000000 -3.576795
v 5.120000 8.000000 -4.000000
v 4.400000 8.000000 -4.000000
v 4.400000 1.600000 -4.000000
v 5.120000 1.600000 -4.000000
v 4.982492 1.600000 -3.576795
v 4.622492 8.000000 -3.315239
v 4.982492 8.000000 -3.576795
v 4.400000 8.000000 -4.000000
v 4.400000 1.600000 -4.000000
v 4.982492 1.600000 -3.576795
v 4.622492 1.600000 -3.315239
v 4.177508 8.000000 -3.315239
v 4.622492 8.000000 -3.315239
v 4.400000 8.000000 -4.000000
v 4.400000 1.600000 -4.000000
v 4.622492 1.600000 -3.315239
v 4.177508 1.600000 -3.315239
v 3.817508 8.000000 -3.576795
v 4.177508 8.000000 -3.315239
v 4.400000 8.000000 -4.000000
v 4.400000 1.600000 -4.000000
v 4.177508 1.600000 -3.315239
v 3.817508 1.600000 -3.576795
v 3.680000 8.000000 -4.000000
v 3.817508 8.000000 -3.576795
v 4.400000 8.000000 -4.000000
v 4.400000 1.600000 -4.000000
v 3.817508 1.600000 -3.576795
v 3.680000 1.600000 -4.000000
v 3.817508 8.000000 -4.423205
v 3.680000 8.000000 -4.000000
v 4.400000 8.000000 -4.000000
v 4.400000 1.600000 -4.000000
v 3.680000 1.600000 -4.000000
v 3.817508 1.600000 -4.423205
v 4.177508 8.000000 -4.684761
v 3.817508 8.000000 -4.423205
v 4.400000 8.000000 -4.000000
v 4.400000 1.600000 -4.000000
v 3.817508 1.600000 -4.423205
v 4.177508 1.600000 -4.684761
v 4.622492 8.000000 -4.684761
v 4.177508 8.000000 -4.684761
v 4.400000 8.000000 -4.000000
v 4.400000 1.600000 -4.000000
v 4.177508 1.600000 -4.684761
v 4.622492 1.600000 -4.684761
v 4.982492 8.000000 -4.423205
v 4.622492 8.000000 -4.684761
v 4.400000 8.000000 -4.000000
v 4.400000 1.600000 -4.000000
v 4.622492 1.600000 -4.684761
v 4.982492 1.600000 -4.423205
v 5.120000 8.000000 -4.000000
v 4.982492 8.000000 -4.423205
v 4.400000 8.000000 -4.000000
v 4.400000 1.600000 -4.000000
v 4.982492 1.600000 -4.423205
v 5.120000 1.600000 -4.000000
v 5.120000 8.000000 4.000000
v 4.982492 8.000000 4.423205
v 4.982492 1.600000 4.423205
v 5.120000 1.600000 4.000000
v 4.982492 8.000000 4.423205
v 4.622492 8.000000 4.684761
v 4.622492 1.600000 4.684761
v 4.982492 1.600000 4.423205
v 4.622492 8.000000 4.684761
v 4.177508 8.000000 4.684761
v 4.177508 1.600000 4.684761
v 4.622492 1.600000 4.684761
v 4.177508 8.000000 4.684761
v 3.817508 8.000000 4.423205
v 3.817508 1.600000 4.423205
v 4.177508 1.600000 4.684761
v 3.817508 8.000000 4.423205
v 3.680000 8.000000 4.000000
v 3.680000 1.600000 4.000000
v 3.817508 1.600000 4.423205
v 3.680000 8.000000 4.000000
v 3.817508 8.000000 3.576795
v 3.817508 1.600000 3.576795
v 3.680000 1.600000 4.000000
v 3.817508 8.000000 3.576795
v 4.177508 8.000000 3.315239
v 4.177508 1.600000 3.315239
v 3.817508 1.600000 3.576795
v 4.177508 8.000000 3.315239
v 4.622492 8.000000 3.315239
v 4.622492 1.600000 3.315239
v 4.177508 1.600000 3.315239
v 4.622492 8.000000 3.315239
v 4.982492 8.000000 3.576795
v 4.982492 1.600000 3.576795
v 4.622492 1.600000 3.315239
v 4.982492 8.000000 3.576795
v 5.120000 8.000000 4.000000
v 5.120000 1.600000 4.000000
v 4.982492 1.600000 3.576795
v 4.982492 8.000000 4.423205
v 5.120000 8.000000 4.000000
v 4.400000 8.000000 4.000000
v 4.400000 1.600000 4.000000
v 5.120000 1.600000 4.000000
v 4.982492 1.600000 4.423205
v 4.622492 8.000000 4.684761
v 4.982492 8.000000 4.423205
v 4.400000 8.000000 4.000000
v 4.400000 1.600000 4.000000
v 4.982492 1.600000 4.423205
v 4.622492 1.600000 4.684761
v 4.177508 8.000000 4.684761
v 4.622492 8.000000 4.684761
v 4.400000 8.000000 4.000000
v 4.400000 1.600000 4.000000
v 4.622492 1.600000 4.684761
v 4.177508 1.600000 4.684761
v 3.817508 8.000000 4.423205
v 4.177508 8.000000 4.684761
v 4.400000 8.000000 4.000000
v 4.400000 1.600000 4.000000
v 4.177508 1.600000 4.684761
v 3.817508 1.600000 4.423205
v 3.680000 8.000000 4.000000
v 3.817508 8.000000 4.423205
v 4.400000 8.000000 4.000000
v 4.400000 1.600000 4.000000
v 3.817508 1.600000 4.423205
v 3.680000 1.600000 4.000000
v 3.817508 8.000000 3.576795
v 3.680000 8.000000 4.000000
v 4.400000 8.000000 4.000000
v 4.400000 1.600000 4.000000
v 3.680000 1.600000 4.000000
v 3.817508 1.600000 3.576795
v 4.177508 8.000000 3.315239
v 3.817508 8.000000 3.576795
v 4.400000 8.000000 4.000000
v 4.400000 1.600000 4.000000
v 3.817508 1.600000 3.576795
v 4.177508 1.600000 3.315239
v 4.622492 8.000000 3.315239
v 4.177508 8.000000 3.315239
v 4.400000 8.000000 4.000000
v 4.400000 1.600000 4.000000
v 4.177508 1.600000 3.315239
v 4.622492 1.600000 3.315239
v 4.982492 8.000000 3.576795
v 4.622492 8.000000 3.315239
v 4.400000 8.000000 4.000000
v 4.400000 1.600000 4.000000
v 4.622492 1.600000 3.315239
v 4.982492 1.600000 3.576795
v 5.120000 8.000000 4.000000
v 4.982492 8.000000 3.576795
v 4.400000 8.000000 4.000000
v 4.400000 1.600000 4.000000
v 4.982492 1.600000 3.576795
v 5.120000 1.600000 4.000000
v -5.750000 8.650000 -5.250000
v 5.750000 8.650000 -5.250000
v 5.750000 7.850000 -5.250000
v -5.750000 7.850000 -5.250000
v -5.750000 7.850000 5.250000
v 5.750000 7.850000 5.250000
v 5.750000 8.650000 5.250000
v -5.750000 8.650000 5.250000
v -5.750000 7.850000 -5.250000
v -5.750000 7.850000 5.250000
v -5.750000 8.650000 5.250000
v -5.750000 8.650000 -5.250000
v 5.750000 7.850000 5.250000
v 5.750000 7.850000 -5.250000
v 5.750000 8.650000 -5.250000
v 5.750000 8.650000 5.250000
v -5.750000 8.650000 -5.250000
v -5.750000 8.650000 5.250000
v 5.750000 8.650000 5.250000
v 5.750000 8.650000 -5.250000
v -5.750000 7.850000 -5.250000
v 5.750000 7.850000 -5.250000
v 5.750000 7.850000 5.250000
v -5.750000 7.850000 5.250000
v -4.705586 9.350000 -3.635582
v 4.066269 9.350000 -4.338831
v 4.066269 8.650000 -4.338831
v -4.705586 8.650000 -3.635582
v -4.066269 8.650000 4.338831
v 4.705586 8.650000 3.635582
v 4.705586 9.350000 3.635582
v -4.066269 9.350000 4.338831
v -4.705586 8.650000 -3.635582
v -4.066269 8.650000 4.338831
v -4.066269 9.350000 4.338831
v -4.705586 9.350000 -3.635582
v 4.705586 8.650000 3.635582
v 4.066269 8.650000 -4.338831
v 4.066269 9.350000 -4.338831
v 4.705586 9.350000 3.635582
v -4.705586 9.350000 -3.635582
v -4.066269 9.350000 4.338831
v 4.705586 9.350000 3.635582
v 4.066269 9.350000 -4.338831
v -4.705586 8.650000 -3.635582
v 4.066269 8.650000 -4.338831
v 4.705586 8.650000 3.635582
v -4.066269 8.650000 4.338831
v 2.300000 13.100000 0.000000
v 1.991858 13.100000 1.150000
v 1.991858 9.100000 1.150000
v 2.300000 9.100000 0.000000
v 1.991858 13.100000 1.150000
v 1.150000 13.100000 1.991858
v 1.150000 9.100000 1.991858
v 1.991858 9.100000 1.150000
v 1.150000 13.100000 1.991858
v 0.000000 13.100000 2.300000
v 0.000000 9.100000 2.300000
v 1.150000 9.100000 1.991858
v 0.000000 13.100000 2.300000
v -1.150000 13.100000 1.991858
v -1.150000 9.100000 1.991858
v 0.000000 9.100000 2.300000
v -1.150000 13.100000 1.991858
v -1.991858 13.100000 1.150000
v -1.991858 9.100000 1.150000
v -1.150000 9.100000 1.991858
v -1.991858 13.100000 1.150000
v -2.300000 13.100000 0.000000
v -2.300000 9.100000 0.000000
v -1.991858 9.100000 1.150000
v -2.300000 13.100000 0.000000
v -1.991858 13.100000 -1.150000
v -1.991858 9.100000 -1.150000
v -2.300000 9.100000 0.000000
v -1.991858 13.100000 -1.150000
v -1.150000 13.100000 -1.991858
v -1.150000 9.100000 -1.991858
v -1.991858 9.100000 -1.150000
v -1.150000 13.100000 -1.991858
v -0.000000 13.100000 -2.300000
v -0.000000 9.100000 -2.300000
v -1.150000 9.100000 -1.991858
v -0.000000 13.100000 -2.300000
v 1.150000 13.100000 -1.991858
v 1.150000 9.100000 -1.991858
v -0.000000 9.100000 -2.300000
v 1.150000 13.100000 -1.991858
v 1.991858 13.100000 -1.150000
v 1.991858 9.100000 -1.150000
v 1.150000 9.100000 -1.991858
v 1.991858 13.100000 -1.150000
v 2.300000 13.100000 0.000000
v 2.300000 9.100000 0.000000
v 1.991858 9.100000 -1.150000
v 1.991858 13.100000 1.150000
v 2.300000 13.100000 0.000000
v 0.000000 13.100000 0.000000
v 0.000000 9.100000 0.000000
v 2.300000 9.100000 0.000000
v 1.991858 9.100000 1.150000
v 1.150000 13.100000 1.991858
v 1.991858 13.100000 1.150000
v 0.000000 13.100000 0.000000
v 0.000000 9.100000 0.000000
v 1.991858 9.100000 1.150000
v 1.150000 9.100000 1.991858
v 0.000000 13.100000 2.300000
v 1.150000 13.100000 1.991858
v 0.000000 13.100000 0.000000
v 0.000000 9.100000 0.000000
v 1.150000 9.100000 1.991858
v 0.000000 9.100000 2.300000
v -1.150000 13.100000 1.991858
v 0.000000 13.100000 2.300000
v 0.000000 13.100000 0.000000
v 0.000000 9.100000 0.000000
v 0.000000 9.100000 2.300000
v -1.150000 9.100000 1.991858
v -1.991858 13.100000 1.150000
v -1.150000 13.100000 1.991858
v 0.000000 13.100000 0.000000
v 0.000000 9.100000 0.000000
v -1.150000 9.100000 1.991858
v -1.991858 9.100000 1.150000
v -2.300000 13.100000 0.000000
v -1.991858 13.100000 1.150000
v 0.000000 13.100000 0.000000
v 0.000000 9.100000 0.000000
v -1.991858 9.100000 1.150000
v -2.300000 9.100000 0.000000
v -1.991858 13.100000 -1.150000
v -2.300000 13.100000 0.000000
v 0.000000 13.100000 0.000000
v 0.000000 9.100000 0.000000
v -2.300000 9.100000 0.000000
v -1.991858 9.100000 -1.150000
v -1.150000 13.100000 -1.991858
v -1.991858 13.100000 -1.150000
v 0.000000 13.100000 0.000000
v 0.000000 9.100000 0.000000
v -1.991858 9.100000 -1.150000
v -1.150000 9.100000 -1.991858
v -0.000000 13.100000 -2.300000
v -1.150000 13.100000 -1.991858
v 0.000000 13.100000 0.000000
v 0.000000 9.100000 0.000000
v -1.150000 9.100000 -1.991858
v -0.000000 9.100000 -2.300000
v 1.150000 13.100000 -1.991858
v -0.000000 13.100000 -2.300000
v 0.000000 13.100000 0.000000
v 0.000000 9.100000 0.000000
v -0.000000 9.100000 -2.300000
v 1.150000 9.100000 -1.991858
v 1.991858 13.100000 -1.150000
v 1.150000 13.100000 -1.991858
v 0.000000 13.100000 0.000000
v 0.000000 9.100000 0.000000
v 1.150000 9.100000 -1.991858
v 1.991858 9.100000 -1.150000
v 2.300000 13.100000 0.000000
v 1.991858 13.100000 -1.150000
v 0.000000 13.100000 0.000000
v 0.000000 9.100000 0.000000
v 1.991858 9.100000 -1.150000
v 2.300000 9.100000 0.000000
v 1.300000 13.600000 0.000000
v 1.125833 13.600000 0.650000
v 1.125833 13.100000 0.650000
v 1.300000 13.100000 0.000000
v 1.125833 13.600000 0.650000
v 0.650000 13.600000 1.125833
v 0.650000 13.100000 1.125833
v 1.125833 13.100000 0.650000
v 0.650000 13.600000 1.125833
v 0.000000 13.600000 1.300000
v 0.000000 13.100000 1.300000
v 0.650000 13.100000 1.125833
v 0.000000 13.600000 1.300000
v -0.650000 13.600000 1.125833
v -0.650000 13.100000 1.125833
v 0.000000 13.100000 1.300000
v -0.650000 13.600000 1.125833
v -1.125833 13.600000 0.650000
v -1.125833 13.100000 0.650000
v -0.650000 13.100000 1.125833
v -1.125833 13.600000 0.650000
v -1.300000 13.600000 0.000000
v -1.300000 13.100000 0.000000
v -1.125833 13.100000 0.650000
v -1.300000 13.600000 0.000000
v -1.125833 13.600000 -0.650000
v -1.125833 13.100000 -0.650000
v -1.300000 13.100000 0.000000
v -1.125833 13.600000 -0.650000
v -0.650000 13.600000 -1.125833
v -0.650000 13.100000 -1.125833
v -1.125833 13.100000 -0.650000
v -0.650000 13.600000 -1.125833
v -0.000000 13.600000 -1.300000
v -0.000000 13.100000 -1.300000
v -0.650000 13.100000 -1.125833
v -0.000000 13.600000 -1.300000
v 0.650000 13.600000 -1.125833
v 0.650000 13.100000 -1.125833
v -0.000000 13.100000 -1.300000
v 0.650000 13.600000 -1.125833
v 1.125833 13.600000 -0.650000
v 1.125833 13.100000 -0.650000
v 0.650000 13.100000 -1.125833
v 1.125833 13.600000 -0.650000
v 1.300000 13.600000 0.000000
v 1.300000 13.100000 0.000000
v 1.125833 13.100000 -0.650000
v 1.125833 13.600000 0.650000
v 1.300000 13.600000 0.000000
v 0.000000 13.600000 0.000000
v 0.000000 13.100000 0.000000
v 1.300000 13.100000 0.000000
v 1.125833 13.100000 0.650000
v 0.650000 13.600000 1.125833
v 1.125833 13.600000 0.650000
v 0.000000 13.600000 0.000000
v 0.000000 13.100000 0.000000
v 1.125833 13.100000 0.650000
v 0.650000 13.100000 1.125833
v 0.000000 13.600000 1.300000
v 0.650000 13.600000 1.125833
v 0.000000 13.600000 0.000000
v 0.000000 13.100000 0.000000
v 0.650000 13.100000 1.125833
v 0.000000 13.100000 1.300000
v -0.650000 13.600000 1.125833
v 0.000000 13.600000 1.300000
v 0.000000 13.600000 0.000000
v 0.000000 13.100000 0.000000
v 0.000000 13.100000 1.300000
v -0.650000 13.100000 1.125833
v -1.125833 13.600000 0.650000
v -0.650000 13.600000 1.125833
v 0.000000 13.600000 0.000000
v 0.000000 13.100000 0.000000
v -0.650000 13.100000 1.125833
v -1.125833 13.100000 0.650000
v -1.300000 13.600000 0.000000
v -1.125833 13.600000 0.650000
v 0.000000 13.600000 0.000000
v 0.000000 13.100000 0.000000
v -1.125833 13.100000 0.650000
v -1.300000 13.100000 0.000000
v -1.125833 13.600000 -0.650000
v -1.300000 13.600000 0.000000
v 0.000000 13.600000 0.000000
v 0.000000 13.100000 0.000000
v -1.300000 13.100000 0.000000
v -1.125833 13.100000 -0.650000
v -0.650000 13.600000 -1.125833
v -1.125833 13.600000 -0.650000
v 0.000000 13.600000 0.000000
v 0.000000 13.100000 0.000000
v -1.125833 13.100000 -0.650000
v -0.650000 13.100000 -1.125833
v -0.000000 13.600000 -1.300000
v -0.650000 13.600000 -1.125833
v 0.000000 13.600000 0.000000
v 0.000000 13.100000 0.000000
v -0.650000 13.100000 -1.125833
v -0.000000 13.100000 -1.300000
v 0.650000 13.600000 -1.125833
v -0.000000 13.600000 -1.300000
v 0.000000 13.600000 0.000000
v 0.000000 13.100000 0.000000
v -0.000000 13.100000 -1.300000
v 0.650000 13.100000 -1.125833
v 1.125833 13.600000 -0.650000
v 0.650000 13.600000 -1.125833
v 0.000000 13.600000 0.000000
v 0.000000 13.100000 0.000000
v 0.650000 13.100000 -1.125833
v 1.125833 13.100000 -0.650000
v 1.300000 13.600000 0.000000
v 1.125833 13.600000 -0.650000
v 0.000000 13.600000 0.000000
v 0.000000 13.100000 0.000000
v 1.125833 13.100000 -0.650000
v 1.300000 13.100000 0.000000
v -2.100000 6.500000 5.025000
v 2.100000 6.500000 5.025000
v 2.100000 1.500000 5.025000
v -2.100000 1.500000 5.025000
v -2.100000 1.500000 5.675000
v 2.100000 1.500000 5.675000
v 2.100000 6.500000 5.675000
v -2.100000 6.500000 5.675000
v -2.100000 1.500000 5.025000
v -2.100000 1.500000 5.675000
v -2.100000 6.500000 5.675000
v -2.100000 6.500000 5.025000
v 2.100000 1.500000 5.675000
v 2.100000 1.500000 5.025000
v 2.100000 6.500000 5.025000
v 2.100000 6.500000 5.675000
v -2.100000 6.500000 5.025000
v -2.100000 6.500000 5.675000
v 2.100000 6.500000 5.675000
v 2.100000 6.500000 5.025000
v -2.100000 1.500000 5.025000
v 2.100000 1.500000 5.025000
v 2.100000 1.500000 5.675000
v -2.100000 1.500000 5.675000
vt 0.000000 0.000000
vt 0.062500 0.000000
vt 0.062500 1.000000
vt 0.000000 1.000000
vt 0.062500 0.000000
vt 0.125000 0.000000
vt 0.125000 1.000000
vt 0.062500 1.000000
vt 0.125000 0.000000
vt 0.187500 0.000000
vt 0.187500 1.000000
vt 0.125000 1.000000
vt 0.187500 0.000000
vt 0.250000 0.000000
vt 0.250000 1.000000
vt 0.187500 1.000000
vt 0.250000 0.000000
vt 0.312500 0.000000
vt 0.312500 1.000000
vt 0.250000 1.000000
vt 0.312500 0.000000
vt 0.375000 0.000000
vt 0.375000 1.000000
vt 0.312500 1.000000
vt 0.375000 0.000000
vt 0.437500 0.000000
vt 0.437500 1.000000
vt 0.375000 1.000000
vt 0.437500 0.000000
vt 0.500000 0.000000
vt 0.500000 1.000000
vt 0.437500 1.000000
vt 0.500000 0.000000
vt 0.562500 0.000000
vt 0.562500 1.000000
vt 0.500000 1.000000
vt 0.562500 0.000000
vt 0.625000 0.000000
vt 0.625000 1.000000
vt 0.562500 1.000000
vt 0.625000 0.000000
vt 0.687500 0.000000
vt 0.687500 1.000000
vt 0.625000 1.000000
vt 0.687500 0.000000
vt 0.750000 0.000000
vt 0.750000 1.000000
vt 0.687500 1.000000
vt 0.750000 0.000000
vt 0.812500 0.000000
vt 0.812500 1.000000
vt 0.750000 1.000000
vt 0.812500 0.000000
vt 0.875000 0.000000
vt 0.875000 1.000000
vt 0.812500 1.000000
vt 0.875000 0.000000
vt 0.937500 0.000000
vt 0.937500 1.000000
vt 0.875000 1.000000
vt 0.937500 0.000000
vt 1.000000 0.000000
vt 1.000000 1.000000
vt 0.937500 1.000000
vt 0.732818 0.403564
vt 0.752000 0.500000
vt 0.500000 0.500000
vt 0.500000 0.500000
vt 0.752000 0.500000
vt 0.732818 0.403564
vt 0.678191 0.321809
vt 0.732818 0.403564
vt 0.500000 0.500000
vt 0.500000 0.500000
vt 0.732818 0.403564
vt 0.678191 0.321809
vt 0.596436 0.267182
vt 0.678191 0.321809
vt 0.500000 0.500000
vt 0.500000 0.500000
vt 0.678191 0.321809
vt 0.596436 0.267182
vt 0.500000 0.248000
vt 0.596436 0.267182
vt 0.500000 0.500000
vt 0.500000 0.500000
vt 0.596436 0.267182
vt 0.500000 0.248000
vt 0.403564 0.267182
vt 0.500000 0.248000
vt 0.500000 0.500000
vt 0.500000 0.500000
vt 0.500000 0.248000
vt 0.403564 0.267182
vt 0.321809 0.321809
vt 0.403564 0.267182
vt 0.500000 0.500000
vt 0.500000 0.500000
vt 0.403564 0.267182
vt 0.321809 0.321809
vt 0.267182 0.403564
vt 0.321809 0.321809
vt 0.500000 0.500000
vt 0.500000 0.500000
vt 0.321809 0.321809
vt 0.267182 0.403564
vt 0.248000 0.500000
vt 0.267182 0.403564
vt 0.500000 0.500000
vt 0.500000 0.500000
vt 0.267182 0.403564
vt 0.248000 0.500000
vt 0.267182 0.596436
vt 0.248000 0.500000
vt 0.500000 0.500000
vt 0.500000 0.500000
vt 0.248000 0.500000
vt 0.267182 0.596436
vt 0.321809 0.678191
vt 0.267182 0.596436
vt 0.500000 0.500000
vt 0.500000 0.500000
vt 0.267182 0.596436
vt 0.321809 0.678191
vt 0.403564 0.732818
vt 0.321809 0.678191
vt 0.500000 0.500000
vt 0.500000 0.500000
vt 0.321809 0.678191
vt 0.403564 0.732818
vt 0.500000 0.752000
vt 0.403564 0.732818
vt 0.500000 0.500000
vt 0.500000 0.500000
vt 0.403564 0.732818
vt 0.500000 0.752000
vt 0.596436 0.732818
vt 0.500000 0.752000
vt 0.500000 0.500000
vt 0.500000 0.500000
vt 0.500000 0.752000
vt 0.596436 0.732818
vt 0.678191 0.678191
vt 0.596436 0.732818
vt 0.500000 0.500000
vt 0.500000 0.500000
vt 0.596436 0.732818
vt 0.678191 0.678191
vt 0.732818 0.596436
vt 0.678191 0.678191
vt 0.500000 0.500000
vt 0.500000 0.500000
vt 0.678191 0.678191
vt 0.732818 0.596436
vt 0.752000 0.500000
vt 0.732818 0.596436
vt 0.500000 0.500000
vt 0.500000 0.500000
vt 0.732818 0.596436
vt 0.752000 0.500000
vt 0.000000 0.000000
vt 0.062500 0.000000
vt 0.062500 1.000000
vt 0.000000 1.000000
vt 0.062500 0.000000
vt 0.125000 0.000000
vt 0.125000 1.000000
vt 0.062500 1.000000
vt 0.125000 0.000000
vt 0.187500 0.000000
vt 0.187500 1.000000
vt 0.125000 1.000000
vt 0.187500 0.000000
vt 0.250000 0.000000
vt 0.250000 1.000000
vt 0.187500 1.000000
vt 0.250000 0.000000
vt 0.312500 0.000000
vt 0.312500 1.000000
vt 0.250000 1.000000
vt 0.312500 0.000000
vt 0.375000 0.000000
vt 0.375000 1.000000
vt 0.312500 1.000000
vt 0.375000 0.000000
vt 0.437500 0.000000
vt 0.437500 1.000000
vt 0.375000 1.000000
vt 0.437500 0.000000
vt 0.500000 0.000000
vt 0.500000 1.000000
vt 0.437500 1.000000
vt 0.500000 0.000000
vt 0.562500 0.000000
vt 0.562500 1.000000
vt 0.500000 1.000000
vt 0.562500 0.000000
vt 0.625000 0.000000
vt 0.625000 1.000000
vt 0.562500 1.000000
vt 0.625000 0.000000
vt 0.687500 0.000000
vt 0.687500 1.000000
vt 0.625000 1.000000
vt 0.687500 0.000000
vt 0.750000 0.000000
vt 0.750000 1.000000
vt 0.687500 1.000000
vt 0.750000 0.000000
vt 0.812500 0.000000
vt 0.812500 1.000000
vt 0.750000 1.000000
vt 0.812500 0.000000
vt 0.875000 0.000000
vt 0.875000 1.000000
vt 0.812500 1.000000
vt 0.875000 0.000000
vt 0.937500 0.000000
vt 0.937500 1.000000
vt 0.875000 1.000000
vt 0.937500 0.000000
vt 1.000000 0.000000
vt 1.000000 1.000000
vt 0.937500 1.000000
vt 0.690781 0.420976
vt 0.706500 0.500000
vt 0.500000 0.500000
vt 0.500000 0.500000
vt 0.706500 0.500000
vt 0.690781 0.420976
vt 0.646018 0.353982
vt 0.690781 0.420976
vt 0.500000 0.500000
vt 0.500000 0.500000
vt 0.690781 0.420976
vt 0.646018 0.353982
vt 0.579024 0.309219
vt 0.646018 0.353982
vt 0.500000 0.500000
vt 0.500000 0.500000
vt 0.646018 0.353982
vt 0.579024 0.309219
vt 0.500000 0.293500
vt 0.579024 0.309219
vt 0.500000 0.500000
vt 0.500000 0.500000
vt 0.579024 0.309219
vt 0.500000 0.293500
vt 0.420976 0.309219
vt 0.500000 0.293500
vt 0.500000 0.500000
vt 0.500000 0.500000
vt 0.500000 0.293500
vt 0.420976 0.309219
vt 0.353982 0.353982
vt 0.420976 0.309219
vt 0.500000 0.500000
vt 0.500000 0.500000
vt 0.420976 0.309219
vt 0.353982 0.353982
vt 0.309219 0.420976
vt 0.353982 0.353982
vt 0.500000 0.500000
vt 0.500000 0.500000
vt 0.353982 0.353982
vt 0.309219 0.420976
vt 0.293500 0.500000
vt 0.309219 0.420976
vt 0.500000 0.500000
vt 0.500000 0.500000
vt 0.309219 0.420976
vt 0.293500 0.500000
vt 0.309219 0.579024
vt 0.293500 0.500000
vt 0.500000 0.500000
vt 0.500000 0.500000
vt 0.293500 0.500000
vt 0.309219 0.579024
vt 0.353982 0.646018
vt 0.309219 0.579024
vt 0.500000 0.500000
vt 0.500000 0.500000
vt 0.309219 0.579024
vt 0.353982 0.646018
vt 0.420976 0.690781
vt 0.353982 0.646018
vt 0.500000 0.500000
vt 0.500000 0.500000
vt 0.353982 0.646018
vt 0.420976 0.690781
vt 0.500000 0.706500
vt 0.420976 0.690781
vt 0.500000 0.500000
vt 0.500000 0.500000
vt 0.420976 0.690781
vt 0.500000 0.706500
vt 0.579024 0.690781
vt 0.500000 0.706500
vt 0.500000 0.500000
vt 0.500000 0.500000
vt 0.500000 0.706500
vt 0.579024 0.690781
vt 0.646018 0.646018
vt 0.579024 0.690781
vt 0.500000 0.500000
vt 0.500000 0.500000
vt 0.579024 0.690781
vt 0.646018 0.646018
vt 0.690781 0.579024
vt 0.646018 0.646018
vt 0.500000 0.500000
vt 0.500000 0.500000
vt 0.646018 0.646018
vt 0.690781 0.579024
vt 0.706500 0.500000
vt 0.690781 0.579024
vt 0.500000 0.500000
vt 0.500000 0.500000
vt 0.690781 0.579024
vt 0.706500 0.500000
vt 0.000000 0.000000
vt 0.100000 0.000000
vt 0.100000 1.000000
vt 0.000000 1.000000
vt 0.100000 0.000000
vt 0.200000 0.000000
vt 0.200000 1.000000
vt 0.100000 1.000000
vt 0.200000 0.000000
vt 0.300000 0.000000
vt 0.300000 1.000000
vt 0.200000 1.000000
vt 0.300000 0.000000
vt 0.400000 0.000000
vt 0.400000 1.000000
vt 0.300000 1.000000
vt 0.400000 0.000000
vt 0.500000 0.000000
vt 0.500000 1.000000
vt 0.400000 1.000000
vt 0.500000 0.000000
vt 0.600000 0.000000
vt 0.600000 1.000000
vt 0.500000 1.000000
vt 0.600000 0.000000
vt 0.700000 0.000000
vt 0.700000 1.000000
vt 0.600000 1.000000
vt 0.700000 0.000000
vt 0.800000 0.000000
vt 0.800000 1.000000
vt 0.700000 1.000000
vt 0.800000 0.000000
vt 0.900000 0.000000
vt 0.900000 1.000000
vt 0.800000 1.000000
vt 0.900000 0.000000
vt 1.000000 0.000000
vt 1.000000 1.000000
vt 0.900000 1.000000
vt 0.366387 0.625188
vt 0.371200 0.640000
vt 0.346000 0.640000
vt 0.346000 0.640000
vt 0.371200 0.640000
vt 0.366387 0.625188
vt 0.353787 0.616033
vt 0.366387 0.625188
vt 0.346000 0.640000
vt 0.346000 0.640000
vt 0.366387 0.625188
vt 0.353787 0.616033
vt 0.338213 0.616033
vt 0.353787 0.616033
vt 0.346000 0.640000
vt 0.346000 0.640000
vt 0.353787 0.616033
vt 0.338213 0.616033
vt 0.325613 0.625188
vt 0.338213 0.616033
vt 0.346000 0.640000
vt 0.346000 0.640000
vt 0.338213 0.616033
vt 0.325613 0.625188
vt 0.320800 0.640000
vt 0.325613 0.625188
vt 0.346000 0.640000
vt 0.346000 0.640000
vt 0.325613 0.625188
vt 0.320800 0.640000
vt 0.325613 0.654812
vt 0.320800 0.640000
vt 0.346000 0.640000
vt 0.346000 0.640000
vt 0.320800 0.640000
vt 0.325613 0.654812
vt 0.338213 0.663967
vt 0.325613 0.654812
vt 0.346000 0.640000
vt 0.346000 0.640000
vt 0.325613 0.654812
vt 0.338213 0.663967
vt 0.353787 0.663967
vt 0.338213 0.663967
vt 0.346000 0.640000
vt 0.346000 0.640000
vt 0.338213 0.663967
vt 0.353787 0.663967
vt 0.366387 0.654812
vt 0.353787 0.663967
vt 0.346000 0.640000
vt 0.346000 0.640000
vt 0.353787 0.663967
vt 0.366387 0.654812
vt 0.371200 0.640000
vt 0.366387 0.654812
vt 0.346000 0.640000
vt 0.346000 0.640000
vt 0.366387 0.654812
vt 0.371200 0.640000
vt 0.000000 0.000000
vt 0.100000 0.000000
vt 0.100000 1.000000
vt 0.000000 1.000000
vt 0.100000 0.000000
vt 0.200000 0.000000
vt 0.200000 1.000000
vt 0.100000 1.000000
vt 0.200000 0.000000
vt 0.300000 0.000000
vt 0.300000 1.000000
vt 0.200000 1.000000
vt 0.300000 0.000000
vt 0.400000 0.000000
vt 0.400000 1.000000
vt 0.300000 1.000000
vt 0.400000 0.000000
vt 0.500000 0.000000
vt 0.500000 1.000000
vt 0.400000 1.000000
vt 0.500000 0.000000
vt 0.600000 0.000000
vt 0.600000 1.000000
vt 0.500000 1.000000
vt 0.600000 0.000000
vt 0.700000 0.000000
vt 0.700000 1.000000
vt 0.600000 1.000000
vt 0.700000 0.000000
vt 0.800000 0.000000
vt 0.800000 1.000000
vt 0.700000 1.000000
vt 0.800000 0.000000
vt 0.900000 0.000000
vt 0.900000 1.000000
vt 0.800000 1.000000
vt 0.900000 0.000000
vt 1.000000 0.000000
vt 1.000000 1.000000
vt 0.900000 1.000000
vt 0.366387 0.345188
vt 0.371200 0.360000
vt 0.346000 0.360000
vt 0.346000 0.360000
vt 0.371200 0.360000
vt 0.366387 0.345188
vt 0.353787 0.336033
vt 0.366387 0.345188
vt 0.346000 0.360000
vt 0.346000 0.360000
vt 0.366387 0.345188
vt 0.353787 0.336033
vt 0.338213 0.336033
vt 0.353787 0.336033
vt 0.346000 0.360000
vt 0.346000 0.360000
vt 0.353787 0.336033
vt 0.338213 0.336033
vt 0.325613 0.345188
vt 0.338213 0.336033
vt 0.346000 0.360000
vt 0.346000 0.360000
vt 0.338213 0.336033
vt 0.325613 0.345188
vt 0.320800 0.360000
vt 0.325613 0.345188
vt 0.346000 0.360000
vt 0.346000 0.360000
vt 0.325613 0.345188
vt 0.320800 0.360000
vt 0.325613 0.374812
vt 0.320800 0.360000
vt 0.346000 0.360000
vt 0.346000 0.360000
vt 0.320800 0.360000
vt 0.325613 0.374812
vt 0.338213 0.383967
vt 0.325613 0.374812
vt 0.346000 0.360000
vt 0.346000 0.360000
vt 0.325613 0.374812
vt 0.338213 0.383967
vt 0.353787 0.383967
vt 0.338213 0.383967
vt 0.346000 0.360000
vt 0.346000 0.360000
vt 0.338213 0.383967
vt 0.353787 0.383967
vt 0.366387 0.374812
vt 0.353787 0.383967
vt 0.346000 0.360000
vt 0.346000 0.360000
vt 0.353787 0.383967
vt 0.366387 0.374812
vt 0.371200 0.360000
vt 0.366387 0.374812
vt 0.346000 0.360000
vt 0.346000 0.360000
vt 0.366387 0.374812
vt 0.371200 0.360000
vt 0.000000 0.000000
vt 0.100000 0.000000
vt 0.100000 1.000000
vt 0.000000 1.000000
vt 0.100000 0.000000
vt 0.200000 0.000000
vt 0.200000 1.000000
vt 0.100000 1.000000
vt 0.200000 0.000000
vt 0.300000 0.000000
vt 0.300000 1.000000
vt 0.200000 1.000000
vt 0.300000 0.000000
vt 0.400000 0.000000
vt 0.400000 1.000000
vt 0.300000 1.000000
vt 0.400000 0.000000
vt 0.500000 0.000000
vt 0.500000 1.000000
vt 0.400000 1.000000
vt 0.500000 0.000000
vt 0.600000 0.000000
vt 0.600000 1.000000
vt 0.500000 1.000000
vt 0.600000 0.000000
vt 0.700000 0.000000
vt 0.700000 1.000000
vt 0.600000 1.000000
vt 0.700000 0.000000
vt 0.800000 0.000000
vt 0.800000 1.000000
vt 0.700000 1.000000
vt 0.800000 0.000000
vt 0.900000 0.000000
vt 0.900000 1.000000
vt 0.800000 1.000000
vt 0.900000 0.000000
vt 1.000000 0.000000
vt 1.000000 1.000000
vt 0.900000 1.000000
vt 0.674387 0.625188
vt 0.679200 0.640000
vt 0.654000 0.640000
vt 0.654000 0.640000
vt 0.679200 0.640000
vt 0.674387 0.625188
vt 0.661787 0.616033
vt 0.674387 0.625188
vt 0.654000 0.640000
vt 0.654000 0.640000
vt 0.674387 0.625188
vt 0.661787 0.616033
vt 0.646213 0.616033
vt 0.661787 0.616033
vt 0.654000 0.640000
vt 0.654000 0.640000
vt 0.661787 0.616033
vt 0.646213 0.616033
vt 0.633613 0.625188
vt 0.646213 0.616033
vt 0.654000 0.640000
vt 0.654000 0.640000
vt 0.646213 0.616033
vt 0.633613 0.625188
vt 0.628800 0.640000
vt 0.633613 0.625188
vt 0.654000 0.640000
vt 0.654000 0.640000
vt 0.633613 0.625188
vt 0.628800 0.640000
vt 0.633613 0.654812
vt 0.628800 0.640000
vt 0.654000 0.640000
vt 0.654000 0.640000
vt 0.628800 0.640000
vt 0.633613 0.654812
vt 0.646213 0.663967
vt 0.633613 0.654812
vt 0.654000 0.640000
vt 0.654000 0.640000
vt 0.633613 0.654812
vt 0.646213 0.663967
vt 0.661787 0.663967
vt 0.646213 0.663967
vt 0.654000 0.640000
vt 0.654000 0.640000
vt 0.646213 0.663967
vt 0.661787 0.663967
vt 0.674387 0.654812
vt 0.661787 0.663967
vt 0.654000 0.640000
vt 0.654000 0.640000
vt 0.661787 0.663967
vt 0.674387 0.654812
vt 0.679200 0.640000
vt 0.674387 0.654812
vt 0.654000 0.640000
vt 0.654000 0.640000
vt 0.674387 0.654812
vt 0.679200 0.640000
vt 0.000000 0.000000
vt 0.100000 0.000000
vt 0.100000 1.000000
vt 0.000000 1.000000
vt 0.100000 0.000000
vt 0.200000 0.000000
vt 0.200000 1.000000
vt 0.100000 1.000000
vt 0.200000 0.000000
vt 0.300000 0.000000
vt 0.300000 1.000000
vt 0.200000 1.000000
vt 0.300000 0.000000
vt 0.400000 0.000000
vt 0.400000 1.000000
vt 0.300000 1.000000
vt 0.400000 0.000000
vt 0.500000 0.000000
vt 0.500000 1.000000
vt 0.400000 1.000000
vt 0.500000 0.000000
vt 0.600000 0.000000
vt 0.600000 1.000000
vt 0.500000 1.000000
vt 0.600000 0.000000
vt 0.700000 0.000000
vt 0.700000 1.000000
vt 0.600000 1.000000
vt 0.700000 0.000000
vt 0.800000 0.000000
vt 0.800000 1.000000
vt 0.700000 1.000000
vt 0.800000 0.000000
vt 0.900000 0.000000
vt 0.900000 1.000000
vt 0.800000 1.000000
vt 0.900000 0.000000
vt 1.000000 0.000000
vt 1.000000 1.000000
vt 0.900000 1.000000
vt 0.674387 0.345188
vt 0.679200 0.360000
vt 0.654000 0.360000
vt 0.654000 0.360000
vt 0.679200 0.360000
vt 0.674387 0.345188
vt 0.661787 0.336033
vt 0.674387 0.345188
vt 0.654000 0.360000
vt 0.654000 0.360000
vt 0.674387 0.345188
vt 0.661787 0.336033
vt 0.646213 0.336033
vt 0.661787 0.336033
vt 0.654000 0.360000
vt 0.654000 0.360000
vt 0.661787 0.336033
vt 0.646213 0.336033
vt 0.633613 0.345188
vt 0.646213 0.336033
vt 0.654000 0.360000
vt 0.654000 0.360000
vt 0.646213 0.336033
vt 0.633613 0.345188
vt 0.628800 0.360000
vt 0.633613 0.345188
vt 0.654000 0.360000
vt 0.654000 0.360000
vt 0.633613 0.345188
vt 0.628800 0.360000
vt 0.633613 0.374812
vt 0.628800 0.360000
vt 0.654000 0.360000
vt 0.654000 0.360000
vt 0.628800 0.360000
vt 0.633613 0.374812
vt 0.646213 0.383967
vt 0.633613 0.374812
vt 0.654000 0.360000
vt 0.654000 0.360000
vt 0.633613 0.374812
vt 0.646213 0.383967
vt 0.661787 0.383967
vt 0.646213 0.383967
vt 0.654000 0.360000
vt 0.654000 0.360000
vt 0.646213 0.383967
vt 0.661787 0.383967
vt 0.674387 0.374812
vt 0.661787 0.383967
vt 0.654000 0.360000
vt 0.654000 0.360000
vt 0.661787 0.383967
vt 0.674387 0.374812
vt 0.679200 0.360000
vt 0.674387 0.374812
vt 0.654000 0.360000
vt 0.654000 0.360000
vt 0.674387 0.374812
vt 0.679200 0.360000
vt 0.298750 0.683750
vt 0.701250 0.683750
vt 0.701250 0.683750
vt 0.298750 0.683750
vt 0.298750 0.316250
vt 0.701250 0.316250
vt 0.701250 0.316250
vt 0.298750 0.316250
vt 0.298750 0.683750
vt 0.298750 0.316250
vt 0.298750 0.316250
vt 0.298750 0.683750
vt 0.701250 0.316250
vt 0.701250 0.683750
vt 0.701250 0.683750
vt 0.701250 0.316250
vt 0.298750 0.683750
vt 0.298750 0.316250
vt 0.701250 0.316250
vt 0.701250 0.683750
vt 0.298750 0.683750
vt 0.701250 0.683750
vt 0.701250 0.316250
vt 0.298750 0.316250
vt 0.335304 0.627245
vt 0.642319 0.651859
vt 0.642319 0.651859
vt 0.335304 0.627245
vt 0.357681 0.348141
vt 0.664696 0.372755
vt 0.664696 0.372755
vt 0.357681 0.348141
vt 0.335304 0.627245
vt 0.357681 0.348141
vt 0.357681 0.348141
vt 0.335304 0.627245
vt 0.664696 0.372755
vt 0.642319 0.651859
vt 0.642319 0.651859
vt 0.664696 0.372755
vt 0.335304 0.627245
vt 0.357681 0.348141
vt 0.664696 0.372755
vt 0.642319 0.651859
vt 0.335304 0.627245
vt 0.642319 0.651859
vt 0.664696 0.372755
vt 0.357681 0.348141
vt 0.000000 0.000000
vt 0.083333 0.000000
vt 0.083333 1.000000
vt 0.000000 1.000000
vt 0.083333 0.000000
vt 0.166667 0.000000
vt 0.166667 1.000000
vt 0.083333 1.000000
vt 0.166667 0.000000
vt 0.250000 0.000000
vt 0.250000 1.000000
vt 0.166667 1.000000
vt 0.250000 0.000000
vt 0.333333 0.000000
vt 0.333333 1.000000
vt 0.250000 1.000000
vt 0.333333 0.000000
vt 0.416667 0.000000
vt 0.416667 1.000000
vt 0.333333 1.000000
vt 0.416667 0.000000
vt 0.500000 0.000000
vt 0.500000 1.000000
vt 0.416667 1.000000
vt 0.500000 0.000000
vt 0.583333 0.000000
vt 0.583333 1.000000
vt 0.500000 1.000000
vt 0.583333 0.000000
vt 0.666667 0.000000
vt 0.666667 1.000000
vt 0.583333 1.000000
vt 0.666667 0.000000
vt 0.750000 0.000000
vt 0.750000 1.000000
vt 0.666667 1.000000
vt 0.750000 0.000000
vt 0.833333 0.000000
vt 0.833333 1.000000
vt 0.750000 1.000000
vt 0.833333 0.000000
vt 0.916667 0.000000
vt 0.916667 1.000000
vt 0.833333 1.000000
vt 0.916667 0.000000
vt 1.000000 0.000000
vt 1.000000 1.000000
vt 0.916667 1.000000
vt 0.569715 0.459750
vt 0.580500 0.500000
vt 0.500000 0.500000
vt 0.500000 0.500000
vt 0.580500 0.500000
vt 0.569715 0.459750
vt 0.540250 0.430285
vt 0.569715 0.459750
vt 0.500000 0.500000
vt 0.500000 0.500000
vt 0.569715 0.459750
vt 0.540250 0.430285
vt 0.500000 0.419500
vt 0.540250 0.430285
vt 0.500000 0.500000
vt 0.500000 0.500000
vt 0.540250 0.430285
vt 0.500000 0.419500
vt 0.459750 0.430285
vt 0.500000 0.419500
vt 0.500000 0.500000
vt 0.500000 0.500000
vt 0.500000 0.419500
vt 0.459750 0.430285
vt 0.430285 0.459750
vt 0.459750 0.430285
vt 0.500000 0.500000
vt 0.500000 0.500000
vt 0.459750 0.430285
vt 0.430285 0.459750
vt 0.419500 0.500000
vt 0.430285 0.459750
vt 0.500000 0.500000
vt 0.500000 0.500000
vt 0.430285 0.459750
vt 0.419500 0.500000
vt 0.430285 0.540250
vt 0.419500 0.500000
vt 0.500000 0.500000
vt 0.500000 0.500000
vt 0.419500 0.500000
vt 0.430285 0.540250
vt 0.459750 0.569715
vt 0.430285 0.540250
vt 0.500000 0.500000
vt 0.500000 0.500000
vt 0.430285 0.540250
vt 0.459750 0.569715
vt 0.500000 0.580500
vt 0.459750 0.569715
vt 0.500000 0.500000
vt 0.500000 0.500000
vt 0.459750 0.569715
vt 0.500000 0.580500
vt 0.540250 0.569715
vt 0.500000 0.580500
vt 0.500000 0.500000
vt 0.500000 0.500000
vt 0.500000 0.580500
vt 0.540250 0.569715
vt 0.569715 0.540250
vt 0.540250 0.569715
vt 0.500000 0.500000
vt 0.500000 0.500000
vt 0.540250 0.569715
vt 0.569715 0.540250
vt 0.580500 0.500000
vt 0.569715 0.540250
vt 0.500000 0.500000
vt 0.500000 0.500000
vt 0.569715 0.540250
vt 0.580500 0.500000
vt 0.000000 0.000000
vt 0.083333 0.000000
vt 0.083333 1.000000
vt 0.000000 1.000000
vt 0.083333 0.000000
vt 0.166667 0.000000
vt 0.166667 1.000000
vt 0.083333 1.000000
vt 0.166667 0.000000
vt 0.250000 0.000000
vt 0.250000 1.000000
vt 0.166667 1.000000
vt 0.250000 0.000000
vt 0.333333 0.000000
vt 0.333333 1.000000
vt 0.250000 1.000000
vt 0.333333 0.000000
vt 0.416667 0.000000
vt 0.416667 1.000000
vt 0.333333 1.000000
vt 0.416667 0.000000
vt 0.500000 0.000000
vt 0.500000 1.000000
vt 0.416667 1.000000
vt 0.500000 0.000000
vt 0.583333 0.000000
vt 0.583333 1.000000
vt 0.500000 1.000000
vt 0.583333 0.000000
vt 0.666667 0.000000
vt 0.666667 1.000000
vt 0.583333 1.000000
vt 0.666667 0.000000
vt 0.750000 0.000000
vt 0.750000 1.000000
vt 0.666667 1.000000
vt 0.750000 0.000000
vt 0.833333 0.000000
vt 0.833333 1.000000
vt 0.750000 1.000000
vt 0.833333 0.000000
vt 0.916667 0.000000
vt 0.916667 1.000000
vt 0.833333 1.000000
vt 0.916667 0.000000
vt 1.000000 0.000000
vt 1.000000 1.000000
vt 0.916667 1.000000
vt 0.539404 0.477250
vt 0.545500 0.500000
vt 0.500000 0.500000
vt 0.500000 0.500000
vt 0.545500 0.500000
vt 0.539404 0.477250
vt 0.522750 0.460596
vt 0.539404 0.477250
vt 0.500000 0.500000
vt 0.500000 0.500000
vt 0.539404 0.477250
vt 0.522750 0.460596
vt 0.500000 0.454500
vt 0.522750 0.460596
vt 0.500000 0.500000
vt 0.500000 0.500000
vt 0.522750 0.460596
vt 0.500000 0.454500
vt 0.477250 0.460596
vt 0.500000 0.454500
vt 0.500000 0.500000
vt 0.500000 0.500000
vt 0.500000 0.454500
vt 0.477250 0.460596
vt 0.460596 0.477250
vt 0.477250 0.460596
vt 0.500000 0.500000
vt 0.500000 0.500000
vt 0.477250 0.460596
vt 0.460596 0.477250
vt 0.454500 0.500000
vt 0.460596 0.477250
vt 0.500000 0.500000
vt 0.500000 0.500000
vt 0.460596 0.477250
vt 0.454500 0.500000
vt 0.460596 0.522750
vt 0.454500 0.500000
vt 0.500000 0.500000
vt 0.500000 0.500000
vt 0.454500 0.500000
vt 0.460596 0.522750
vt 0.477250 0.539404
vt 0.460596 0.522750
vt 0.500000 0.500000
vt 0.500000 0.500000
vt 0.460596 0.522750
vt 0.477250 0.539404
vt 0.500000 0.545500
vt 0.477250 0.539404
vt 0.500000 0.500000
vt 0.500000 0.500000
vt 0.477250 0.539404
vt 0.500000 0.545500
vt 0.522750 0.539404
vt 0.500000 0.545500
vt 0.500000 0.500000
vt 0.500000 0.500000
vt 0.500000 0.545500
vt 0.522750 0.539404
vt 0.539404 0.522750
vt 0.522750 0.539404
vt 0.500000 0.500000
vt 0.500000 0.500000
vt 0.522750 0.539404
vt 0.539404 0.522750
vt 0.545500 0.500000
vt 0.539404 0.522750
vt 0.500000 0.500000
vt 0.500000 0.500000
vt 0.539404 0.522750
vt 0.545500 0.500000
vt 0.426500 0.324125
vt 0.573500 0.324125
vt 0.573500 0.324125
vt 0.426500 0.324125
vt 0.426500 0.301375
vt 0.573500 0.301375
vt 0.573500 0.301375
vt 0.426500 0.301375
vt 0.426500 0.324125
vt 0.426500 0.301375
vt 0.426500 0.301375
vt 0.426500 0.324125
vt 0.573500 0.301375
vt 0.573500 0.324125
vt 0.573500 0.324125
vt 0.573500 0.301375
vt 0.426500 0.324125
vt 0.426500 0.301375
vt 0.573500 0.301375
vt 0.573500 0.324125
vt 0.426500 0.324125
vt 0.573500 0.324125
vt 0.573500 0.301375
vt 0.426500 0.301375
vn 0.980785 0.000000 0.195090
vn 0.980785 0.000000 0.195090
vn 0.980785 0.000000 0.195090
vn 0.980785 0.000000 0.195090
vn 0.831470 0.000000 0.555570
vn 0.831470 0.000000 0.555570
vn 0.831470 0.000000 0.555570
vn 0.831470 0.000000 0.555570
vn 0.555570 0.000000 0.831470
vn 0.555570 0.000000 0.831470
vn 0.555570 0.000000 0.831470
vn 0.555570 0.000000 0.831470
vn 0.195090 0.000000 0.980785
vn 0.195090 0.000000 0.980785
vn 0.195090 0.000000 0.980785
vn 0.195090 0.000000 0.980785
vn -0.195090 0.000000 0.980785
vn -0.195090 0.000000 0.980785
vn -0.195090 0.000000 0.980785
vn -0.195090 0.000000 0.980785
vn -0.555570 0.000000 0.831470
vn -0.555570 0.000000 0.831470
vn -0.555570 0.000000 0.831470
vn -0.555570 0.000000 0.831470
vn -0.831470 0.000000 0.555570
vn -0.831470 0.000000 0.555570
vn -0.831470 0.000000 0.555570
vn -0.831470 0.000000 0.555570
vn -0.980785 0.000000 0.195090
vn -0.980785 0.000000 0.195090
vn -0.980785 0.000000 0.195090
vn -0.980785 0.000000 0.195090
vn -0.980785 0.000000 -0.195090
vn -0.980785 0.000000 -0.195090
vn -0.980785 0.000000 -0.195090
vn -0.980785 0.000000 -0.195090
vn -0.831470 0.000000 -0.555570
vn -0.831470 0.000000 -0.555570
vn -0.831470 0.000000 -0.555570
vn -0.831470 0.000000 -0.555570
vn -0.555570 0.000000 -0.831470
vn -0.555570 0.000000 -0.831470
vn -0.555570 0.000000 -0.831470
vn -0.555570 0.000000 -0.831470
vn -0.195090 0.000000 -0.980785
vn -0.195090 0.000000 -0.980785
vn -0.195090 0.000000 -0.980785
vn -0.195090 0.000000 -0.980785
vn 0.195090 0.000000 -0.980785
vn 0.195090 0.000000 -0.980785
vn 0.195090 0.000000 -0.980785
vn 0.195090 0.000000 -0.980785
vn 0.555570 0.000000 -0.831470
vn 0.555570 0.000000 -0.831470
vn 0.555570 0.000000 -0.831470
vn 0.555570 0.000000 -0.831470
vn 0.831470 0.000000 -0.555570
vn 0.831470 0.000000 -0.555570
vn 0.831470 0.000000 -0.555570
vn 0.831470 0.000000 -0.555570
vn 0.980785 0.000000 -0.195090
vn 0.980785 0.000000 -0.195090
vn 0.980785 0.000000 -0.195090
vn 0.980785 0.000000 -0.195090
vn 0.000000 1.000000 0.000000
vn 0.000000 1.000000 0.000000
vn 0.000000 1.000000 0.000000
vn 0.000000 -1.000000 0.000000
vn 0.000000 -1.000000 0.000000
vn 0.000000 -1.000000 0.000000
vn 0.000000 1.000000 0.000000
vn 0.000000 1.000000 0.000000
vn 0.000000 1.000000 0.000000
vn 0.000000 -1.000000 0.000000
vn 0.000000 -1.000000 0.000000
vn 0.000000 -1.000000 0.000000
vn 0.000000 1.000000 0.000000
vn 0.000000 1.000000 0.000000
vn 0.000000 1.000000 0.000000
vn 0.000000 -1.000000 0.000000
vn 0.000000 -1.000000 0.000000
vn 0.000000 -1.000000 0.000000
vn 0.000000 1.000000 0.000000
vn 0.000000 1.000000 0.000000
vn 0.000000 1.000000 0.000000
vn 0.000000 -1.000000 0.000000
vn 0.000000 -1.000000 0.000000
vn 0.000000 -1.000000 0.000000
vn -0.000000 1.000000 0.000000
vn -0.000000 1.000000 0.000000
vn -0.000000 1.000000 0.000000
vn 0.000000 -1.000000 0.000000
vn 0.000000 -1.000000 0.000000
vn 0.000000 -1.000000 0.000000
vn -0.000000 1.000000 0.000000
vn -0.000000 1.000000 0.000000
vn -0.000000 1.000000 0.000000
vn 0.000000 -1.000000 0.000000
vn 0.000000 -1.000000 0.000000
vn 0.000000 -1.000000 0.000000
vn -0.000000 1.000000 0.000000
vn -0.000000 1.000000 0.000000
vn -0.000000 1.000000 0.000000
vn 0.000000 -1.000000 0.000000
vn 0.000000 -1.000000 0.000000
vn 0.000000 -1.000000 0.000000
vn -0.000000 1.000000 0.000000
vn -0.000000 1.000000 0.000000
vn -0.000000 1.000000 0.000000
vn 0.000000 -1.000000 0.000000
vn 0.000000 -1.000000 0.000000
vn 0.000000 -1.000000 0.000000
vn 0.000000 1.000000 -0.000000
vn 0.000000 1.000000 -0.000000
vn 0.000000 1.000000 -0.000000
vn -0.000000 -1.000000 0.000000
vn -0.000000 -1.000000 0.000000
vn -0.000000 -1.000000 0.000000
vn 0.000000 1.000000 -0.000000
vn 0.000000 1.000000 -0.000000
vn 0.000000 1.000000 -0.000000
vn 0.000000 -1.000000 0.000000
vn 0.000000 -1.000000 0.000000
vn 0.000000 -1.000000 0.000000
vn 0.000000 1.000000 -0.000000
vn 0.000000 1.000000 -0.000000
vn 0.000000 1.000000 -0.000000
vn 0.000000 -1.000000 0.000000
vn 0.000000 -1.000000 0.000000
vn 0.000000 -1.000000 0.000000
vn 0.000000 1.000000 -0.000000
vn 0.000000 1.000000 -0.000000
vn 0.000000 1.000000 -0.000000
vn 0.000000 -1.000000 0.000000
vn 0.000000 -1.000000 0.000000
vn 0.000000 -1.000000 0.000000
vn 0.000000 1.000000 0.000000
vn 0.000000 1.000000 0.000000
vn 0.000000 1.000000 0.000000
vn 0.000000 -1.000000 -0.000000
vn 0.000000 -1.000000 -0.000000
vn 0.000000 -1.000000 -0.000000
vn 0.000000 1.000000 0.000000
vn 0.000000 1.000000 0.000000
vn 0.000000 1.000000 0.000000
vn 0.000000 -1.000000 0.000000
vn 0.000000 -1.000000 0.000000
vn 0.000000 -1.000000 0.000000
vn 0.000000 1.000000 0.000000
vn 0.000000 1.000000 0.000000
vn 0.000000 1.000000 0.000000
vn 0.000000 -1.000000 0.000000
vn 0.000000 -1.000000 0.000000
vn 0.000000 -1.000000 0.000000
vn 0.000000 1.000000 0.000000
vn 0.000000 1.000000 0.000000
vn 0.000000 1.000000 0.000000
vn 0.000000 -1.000000 0.000000
vn 0.000000 -1.000000 0.000000
vn 0.000000 -1.000000 0.000000
vn 0.980785 0.000000 0.195090
vn 0.980785 0.000000 0.195090
vn 0.980785 0.000000 0.195090
vn 0.980785 0.000000 0.195090
vn 0.831470 0.000000 0.555570
vn 0.831470 0.000000 0.555570
vn 0.831470 0.000000 0.555570
vn 0.831470 0.000000 0.555570
vn 0.555570 0.000000 0.831470
vn 0.555570 0.000000 0.831470
vn 0.555570 0.000000 0.831470
vn 0.555570 0.000000 0.831470
vn 0.195090 0.000000 0.980785
vn 0.195090 0.000000 0.980785
vn 0.195090 0.000000 0.980785
vn 0.195090 0.000000 0.980785
vn -0.195090 0.000000 0.980785
vn -0.195090 0.000000 0.980785
vn -0.195090 0.000000 0.980785
vn -0.195090 0.000000 0.980785
vn -0.555570 0.000000 0.831470
vn -0.555570 0.000000 0.831470
vn -0.555570 0.000000 0.831470
vn -0.555570 0.000000 0.831470
vn -0.831470 0.000000 0.555570
vn -0.831470 0.000000 0.555570
vn -0.831470 0.000000 0.555570
vn -0.831470 0.000000 0.555570
vn -0.980785 0.000000 0.195090
vn -0.980785 0.000000 0.195090
vn -0.980785 0.000000 0.195090
vn -0.980785 0.000000 0.195090
vn -0.980785 0.000000 -0.195090
vn -0.980785 0.000000 -0.195090
vn -0.980785 0.000000 -0.195090
vn -0.980785 0.000000 -0.195090
vn -0.831470 0.000000 -0.555570
vn -0.831470 0.000000 -0.555570
vn -0.831470 0.000000 -0.555570
vn -0.831470 0.000000 -0.555570
vn -0.555570 0.000000 -0.831470
vn -0.555570 0.000000 -0.831470
vn -0.555570 0.000000 -0.831470
vn -0.555570 0.000000 -0.831470
vn -0.195090 0.000000 -0.980785
vn -0.195090 0.000000 -0.980785
vn -0.195090 0.000000 -0.980785
vn -0.195090 0.000000 -0.980785
vn 0.195090 0.000000 -0.980785
vn 0.195090 0.000000 -0.980785
vn 0.195090 0.000000 -0.980785
vn 0.195090 0.000000 -0.980785
vn 0.555570 0.000000 -0.831470
vn 0.555570 0.000000 -0.831470
vn 0.555570 0.000000 -0.831470
vn 0.555570 0.000000 -0.831470
vn 0.831470 0.000000 -0.555570
vn 0.831470 0.000000 -0.555570
vn 0.831470 0.000000 -0.555570
vn 0.831470 0.000000 -0.555570
vn 0.980785 0.000000 -0.195090
vn 0.980785 0.000000 -0.195090
vn 0.980785 0.000000 -0.195090
vn 0.980785 0.000000 -0.195090
vn 0.000000 1.000000 0.000000
vn 0.000000 1.000000 0.000000
vn 0.000000 1.000000 0.000000
vn 0.000000 -1.000000 0.000000
vn 0.000000 -1.000000 0.000000
vn 0.000000 -1.000000 0.000000
vn 0.000000 1.000000 0.000000
vn 0.000000 1.000000 0.000000
vn 0.000000 1.000000 0.000000
vn 0.000000 -1.000000 0.000000
vn 0.000000 -1.000000 0.000000
vn 0.000000 -1.000000 0.000000
vn 0.000000 1.000000 0.000000
vn 0.000000 1.000000 0.000000
vn 0.000000 1.000000 0.000000
vn 0.000000 -1.000000 0.000000
vn 0.000000 -1.000000 0.000000
vn 0.000000 -1.000000 0.000000
vn 0.000000 1.000000 0.000000
vn 0.000000 1.000000 0.000000
vn 0.000000 1.000000 0.000000
vn 0.000000 -1.000000 0.000000
vn 0.000000 -1.000000 0.000000
vn 0.000000 -1.000000 0.000000
vn -0.000000 1.000000 0.000000
vn -0.000000 1.000000 0.000000
vn -0.000000 1.000000 0.000000
vn 0.000000 -1.000000 0.000000
vn 0.000000 -1.000000 0.000000
vn 0.000000 -1.000000 0.000000
vn -0.000000 1.000000 0.000000
vn -0.000000 1.000000 0.000000
vn -0.000000 1.000000 0.000000
vn 0.000000 -1.000000 0.000000
vn 0.000000 -1.000000 0.000000
vn 0.000000 -1.000000 0.000000
vn -0.000000 1.000000 0.000000
vn -0.000000 1.000000 0.000000
vn -0.000000 1.000000 0.000000
vn 0.000000 -1.000000 0.000000
vn 0.000000 -1.000000 0.000000
vn 0.000000 -1.000000 0.000000
vn -0.000000 1.000000 0.000000
vn -0.000000 1.000000 0.000000
vn -0.000000 1.000000 0.000000
vn 0.000000 -1.000000 0.000000
vn 0.000000 -1.000000 0.000000
vn 0.000000 -1.000000 0.000000
vn 0.000000 1.000000 -0.000000
vn 0.000000 1.000000 -0.000000
vn 0.000000 1.000000 -0.000000
vn -0.000000 -1.000000 0.000000
vn -0.000000 -1.000000 0.000000
vn -0.000000 -1.000000 0.000000
vn 0.000000 1.000000 -0.000000
vn 0.000000 1.000000 -0.000000
vn 0.000000 1.000000 -0.000000
vn 0.000000 -1.000000 0.000000
vn 0.000000 -1.000000 0.000000
vn 0.000000 -1.000000 0.000000
vn 0.000000 1.000000 -0.000000
vn 0.000000 1.000000 -0.000000
vn 0.000000 1.000000 -0.000000
vn 0.000000 -1.000000 0.000000
vn 0.000000 -1.000000 0.000000
vn 0.000000 -1.000000 0.000000
vn 0.000000 1.000000 -0.000000
vn 0.000000 1.000000 -0.000000
vn 0.000000 1.000000 -0.000000
vn 0.000000 -1.000000 0.000000
vn 0.000000 -1.000000 0.000000
vn 0.000000 -1.000000 0.000000
vn 0.000000 1.000000 0.000000
vn 0.000000 1.000000 0.000000
vn 0.000000 1.000000 0.000000
vn 0.000000 -1.000000 -0.000000
vn 0.000000 -1.000000 -0.000000
vn 0.000000 -1.000000 -0.000000
vn 0.000000 1.000000 0.000000
vn 0.000000 1.000000 0.000000
vn 0.000000 1.000000 0.000000
vn 0.000000 -1.000000 0.000000
vn 0.000000 -1.000000 0.000000
vn 0.000000 -1.000000 0.000000
vn 0.000000 1.000000 0.000000
vn 0.000000 1.000000 0.000000
vn 0.000000 1.000000 0.000000
vn 0.000000 -1.000000 0.000000
vn 0.000000 -1.000000 0.000000
vn 0.000000 -1.000000 0.000000
vn 0.000000 1.000000 0.000000
vn 0.000000 1.000000 0.000000
vn 0.000000 1.000000 0.000000
vn 0.000000 -1.000000 0.000000
vn 0.000000 -1.000000 0.000000
vn 0.000000 -1.000000 0.000000
vn 0.951057 0.000000 0.309017
vn 0.951057 0.000000 0.309017
vn 0.951057 0.000000 0.309017
vn 0.951057 0.000000 0.309017
vn 0.587785 0.000000 0.809017
vn 0.587785 0.000000 0.809017
vn 0.587785 0.000000 0.809017
vn 0.587785 0.000000 0.809017
vn 0.000000 0.000000 1.000000
vn 0.000000 0.000000 1.000000
vn 0.000000 0.000000 1.000000
vn 0.000000 0.000000 1.000000
vn -0.587785 0.000000 0.809017
vn -0.587785 0.000000 0.809017
vn -0.587785 0.000000 0.809017
vn -0.587785 0.000000 0.809017
vn -0.951057 0.000000 0.309017
vn -0.951057 0.000000 0.309017
vn -0.951057 0.000000 0.309017
vn -0.951057 0.000000 0.309017
vn -0.951057 0.000000 -0.309017
vn -0.951057 0.000000 -0.309017
vn -0.951057 0.000000 -0.309017
vn -0.951057 0.000000 -0.309017
vn -0.587785 0.000000 -0.809017
vn -0.587785 0.000000 -0.809017
vn -0.587785 0.000000 -0.809017
vn -0.587785 0.000000 -0.809017
vn 0.000000 0.000000 -1.000000
vn 0.000000 0.000000 -1.000000
vn 0.000000 0.000000 -1.000000
vn 0.000000 0.000000 -1.000000
vn 0.587785 0.000000 -0.809017
vn 0.587785 0.000000 -0.809017
vn 0.587785 0.000000 -0.809017
vn 0.587785 0.000000 -0.809017
vn 0.951057 0.000000 -0.309017
vn 0.951057 0.000000 -0.309017
vn 0.951057 0.000000 -0.309017
vn 0.951057 0.000000 -0.309017
vn 0.000000 1.000000 0.000000
vn 0.000000 1.000000 0.000000
vn 0.000000 1.000000 0.000000
vn 0.000000 -1.000000 0.000000
vn 0.000000 -1.000000 0.000000
vn 0.000000 -1.000000 0.000000
vn 0.000000 1.000000 0.000000
vn 0.000000 1.000000 0.000000
vn 0.000000 1.000000 0.000000
vn 0.000000 -1.000000 0.000000
vn 0.000000 -1.000000 0.000000
vn 0.000000 -1.000000 0.000000
vn -0.000000 1.000000 0.000000
vn -0.000000 1.000000 0.000000
vn -0.000000 1.000000 0.000000
vn 0.000000 -1.000000 0.000000
vn 0.000000 -1.000000 0.000000
vn 0.000000 -1.000000 0.000000
vn -0.000000 1.000000 0.000000
vn -0.000000 1.000000 0.000000
vn -0.000000 1.000000 0.000000
vn 0.000000 -1.000000 0.000000
vn 0.000000 -1.000000 0.000000
vn 0.000000 -1.000000 0.000000
vn 0.000000 1.000000 0.000000
vn 0.000000 1.000000 0.000000
vn 0.000000 1.000000 0.000000
vn 0.000000 -1.000000 0.000000
vn 0.000000 -1.000000 0.000000
vn 0.000000 -1.000000 0.000000
vn 0.000000 1.000000 -0.000000
vn 0.000000 1.000000 -0.000000
vn 0.000000 1.000000 -0.000000
vn -0.000000 -1.000000 0.000000
vn -0.000000 -1.000000 0.000000
vn -0.000000 -1.000000 0.000000
vn 0.000000 1.000000 -0.000000
vn 0.000000 1.000000 -0.000000
vn 0.000000 1.000000 -0.000000
vn 0.000000 -1.000000 0.000000
vn 0.000000 -1.000000 0.000000
vn 0.000000 -1.000000 0.000000
vn 0.000000 1.000000 0.000000
vn 0.000000 1.000000 0.000000
vn 0.000000 1.000000 0.000000
vn 0.000000 -1.000000 -0.000000
vn 0.000000 -1.000000 -0.000000
vn 0.000000 -1.000000 -0.000000
vn 0.000000 1.000000 0.000000
vn 0.000000 1.000000 0.000000
vn 0.000000 1.000000 0.000000
vn 0.000000 -1.000000 0.000000
vn 0.000000 -1.000000 0.000000
vn 0.000000 -1.000000 0.000000
vn 0.000000 1.000000 0.000000
vn 0.000000 1.000000 0.000000
vn 0.000000 1.000000 0.000000
vn 0.000000 -1.000000 0.000000
vn 0.000000 -1.000000 0.000000
vn 0.000000 -1.000000 0.000000
vn 0.951057 0.000000 0.309017
vn 0.951057 0.000000 0.309017
vn 0.951057 0.000000 0.309017
vn 0.951057 0.000000 0.309017
vn 0.587785 0.000000 0.809017
vn 0.587785 0.000000 0.809017
vn 0.587785 0.000000 0.809017
vn 0.587785 0.000000 0.809017
vn 0.000000 0.000000 1.000000
vn 0.000000 0.000000 1.000000
vn 0.000000 0.000000 1.000000
vn 0.000000 0.000000 1.000000
vn -0.587785 0.000000 0.809017
vn -0.587785 0.000000 0.809017
vn -0.587785 0.000000 0.809017
vn -0.587785 0.000000 0.809017
vn -0.951057 0.000000 0.309017
vn -0.951057 0.000000 0.309017
vn -0.951057 0.000000 0.309017
vn -0.951057 0.000000 0.309017
vn -0.951057 0.000000 -0.309017
vn -0.951057 0.000000 -0.309017
vn -0.951057 0.000000 -0.309017
vn -0.951057 0.000000 -0.309017
vn -0.587785 0.000000 -0.809017
vn -0.587785 0.000000 -0.809017
vn -0.587785 0.000000 -0.809017
vn -0.587785 0.000000 -0.809017
vn 0.000000 0.000000 -1.000000
vn 0.000000 0.000000 -1.000000
vn 0.000000 0.000000 -1.000000
vn 0.000000 0.000000 -1.000000
vn 0.587785 0.000000 -0.809017
vn 0.587785 0.000000 -0.809017
vn 0.587785 0.000000 -0.809017
vn 0.587785 0.000000 -0.809017
vn 0.951057 0.000000 -0.309017
vn 0.951057 0.000000 -0.309017
vn 0.951057 0.000000 -0.309017
vn 0.951057 0.000000 -0.309017
vn 0.000000 1.000000 0.000000
vn 0.000000 1.000000 0.000000
vn 0.000000 1.000000 0.000000
vn 0.000000 -1.000000 0.000000
vn 0.000000 -1.000000 0.000000
vn 0.000000 -1.000000 0.000000
vn 0.000000 1.000000 0.000000
vn 0.000000 1.000000 0.000000
vn 0.000000 1.000000 0.000000
vn 0.000000 -1.000000 0.000000
vn 0.000000 -1.000000 0.000000
vn 0.000000 -1.000000 0.000000
vn -0.000000 1.000000 0.000000
vn -0.000000 1.000000 0.000000
vn -0.000000 1.000000 0.000000
vn 0.000000 -1.000000 0.000000
vn 0.000000 -1.000000 0.000000
vn 0.000000 -1.000000 0.000000
vn -0.000000 1.000000 0.000000
vn -0.000000 1.000000 0.000000
vn -0.000000 1.000000 0.000000
vn 0.000000 -1.000000 0.000000
vn 0.000000 -1.000000 0.000000
vn 0.000000 -1.000000 0.000000
vn 0.000000 1.000000 0.000000
vn 0.000000 1.000000 0.000000
vn 0.000000 1.000000 0.000000
vn 0.000000 -1.000000 0.000000
vn 0.000000 -1.000000 0.000000
vn 0.000000 -1.000000 0.000000
vn 0.000000 1.000000 -0.000000
vn 0.000000 1.000000 -0.000000
vn 0.000000 1.000000 -0.000000
vn -0.000000 -1.000000 0.000000
vn -0.000000 -1.000000 0.000000
vn -0.000000 -1.000000 0.000000
vn 0.000000 1.000000 -0.000000
vn 0.000000 1.000000 -0.000000
vn 0.000000 1.000000 -0.000000
vn 0.000000 -1.000000 0.000000
vn 0.000000 -1.000000 0.000000
vn 0.000000 -1.000000 0.000000
vn 0.000000 1.000000 0.000000
vn 0.000000 1.000000 0.000000
vn 0.000000 1.000000 0.000000
vn 0.000000 -1.000000 -0.000000
vn 0.000000 -1.000000 -0.000000
vn 0.000000 -1.000000 -0.000000
vn 0.000000 1.000000 0.000000
vn 0.000000 1.000000 0.000000
vn 0.000000 1.000000 0.000000
vn 0.000000 -1.000000 0.000000
vn 0.000000 -1.000000 0.000000
vn 0.000000 -1.000000 0.000000
vn 0.000000 1.000000 0.000000
vn 0.000000 1.000000 0.000000
vn 0.000000 1.000000 0.000000
vn 0.000000 -1.000000 0.000000
vn 0.000000 -1.000000 0.000000
vn 0.000000 -1.000000 0.000000
vn 0.951057 0.000000 0.309017
vn 0.951057 0.000000 0.309017
vn 0.951057 0.000000 0.309017
vn 0.951057 0.000000 0.309017
vn 0.587785 0.000000 0.809017
vn 0.587785 0.000000 0.809017
vn 0.587785 0.000000 0.809017
vn 0.587785 0.000000 0.809017
vn 0.000000 0.000000 1.000000
vn 0.000000 0.000000 1.000000
vn 0.000000 0.000000 1.000000
vn 0.000000 0.000000 1.000000
vn -0.587785 0.000000 0.809017
vn -0.587785 0.000000 0.809017
vn -0.587785 0.000000 0.809017
vn -0.587785 0.000000 0.809017
vn -0.951057 0.000000 0.309017
vn -0.951057 0.000000 0.309017
vn -0.951057 0.000000 0.309017
vn -0.951057 0.000000 0.309017
vn -0.951057 0.000000 -0.309017
vn -0.951057 0.000000 -0.309017
vn -0.951057 0.000000 -0.309017
vn -0.951057 0.000000 -0.309017
vn -0.587785 0.000000 -0.809017
vn -0.587785 0.000000 -0.809017
vn -0.587785 0.000000 -0.809017
vn -0.587785 0.000000 -0.809017
vn 0.000000 0.000000 -1.000000
vn 0.000000 0.000000 -1.000000
vn 0.000000 0.000000 -1.000000
vn 0.000000 0.000000 -1.000000
vn 0.587785 0.000000 -0.809017
vn 0.587785 0.000000 -0.809017
vn 0.587785 0.000000 -0.809017
vn 0.587785 0.000000 -0.809017
vn 0.951057 0.000000 -0.309017
vn 0.951057 0.000000 -0.309017
vn 0.951057 0.000000 -0.309017
vn 0.951057 0.000000 -0.309017
vn 0.000000 1.000000 0.000000
vn 0.000000 1.000000 0.000000
vn 0.000000 1.000000 0.000000
vn 0.000000 -1.000000 0.000000
vn 0.000000 -1.000000 0.000000
vn 0.000000 -1.000000 0.000000
vn 0.000000 1.000000 0.000000
vn 0.000000 1.000000 0.000000
vn 0.000000 1.000000 0.000000
vn 0.000000 -1.000000 0.000000
vn 0.000000 -1.000000 0.000000
vn 0.000000 -1.000000 0.000000
vn -0.000000 1.000000 0.000000
vn -0.000000 1.000000 0.000000
vn -0.000000 1.000000 0.000000
vn 0.000000 -1.000000 0.000000
vn 0.000000 -1.000000 0.000000
vn 0.000000 -1.000000 0.000000
vn -0.000000 1.000000 0.000000
vn -0.000000 1.000000 0.000000
vn -0.000000 1.000000 0.000000
vn 0.000000 -1.000000 0.000000
vn 0.000000 -1.000000 0.000000
vn 0.000000 -1.000000 0.000000
vn 0.000000 1.000000 0.000000
vn 0.000000 1.000000 0.000000
vn 0.000000 1.000000 0.000000
vn 0.000000 -1.000000 0.000000
vn 0.000000 -1.000000 0.000000
vn 0.000000 -1.000000 0.000000
vn 0.000000 1.000000 -0.000000
vn 0.000000 1.000000 -0.000000
vn 0.000000 1.000000 -0.000000
vn -0.000000 -1.000000 0.000000
vn -0.000000 -1.000000 0.000000
vn -0.000000 -1.000000 0.000000
vn 0.000000 1.000000 -0.000000
vn 0.000000 1.000000 -0.000000
vn 0.000000 1.000000 -0.000000
vn 0.000000 -1.000000 0.000000
vn 0.000000 -1.000000 0.000000
vn 0.000000 -1.000000 0.000000
vn 0.000000 1.000000 0.000000
vn 0.000000 1.000000 0.000000
vn 0.000000 1.000000 0.000000
vn 0.000000 -1.000000 -0.000000
vn 0.000000 -1.000000 -0.000000
vn 0.000000 -1.000000 -0.000000
vn 0.000000 1.000000 0.000000
vn 0.000000 1.000000 0.000000
vn 0.000000 1.000000 0.000000
vn 0.000000 -1.000000 0.000000
vn 0.000000 -1.000000 0.000000
vn 0.000000 -1.000000 0.000000
vn 0.000000 1.000000 0.000000
vn 0.000000 1.000000 0.000000
vn 0.000000 1.000000 0.000000
vn 0.000000 -1.000000 0.000000
vn 0.000000 -1.000000 0.000000
vn 0.000000 -1.000000 0.000000
vn 0.951057 0.000000 0.309017
vn 0.951057 0.000000 0.309017
vn 0.951057 0.000000 0.309017
vn 0.951057 0.000000 0.309017
vn 0.587785 0.000000 0.809017
vn 0.587785 0.000000 0.809017
vn 0.587785 0.000000 0.809017
vn 0.587785 0.000000 0.809017
vn 0.000000 0.000000 1.000000
vn 0.000000 0.000000 1.000000
vn 0.000000 0.000000 1.000000
vn 0.000000 0.000000 1.000000
vn -0.587785 0.000000 0.809017
vn -0.587785 0.000000 0.809017
vn -0.587785 0.000000 0.809017
vn -0.587785 0.000000 0.809017
vn -0.951057 0.000000 0.309017
vn -0.951057 0.000000 0.309017
vn -0.951057 0.000000 0.309017
vn -0.951057 0.000000 0.309017
vn -0.951057 0.000000 -0.309017
vn -0.951057 0.000000 -0.309017
vn -0.951057 0.000000 -0.309017
vn -0.951057 0.000000 -0.309017
vn -0.587785 0.000000 -0.809017
vn -0.587785 0.000000 -0.809017
vn -0.587785 0.000000 -0.809017
vn -0.587785 0.000000 -0.809017
vn 0.000000 0.000000 -1.000000
vn 0.000000 0.000000 -1.000000
vn 0.000000 0.000000 -1.000000
vn 0.000000 0.000000 -1.000000
vn 0.587785 0.000000 -0.809017
vn 0.587785 0.000000 -0.809017
vn 0.587785 0.000000 -0.809017
vn 0.587785 0.000000 -0.809017
vn 0.951057 0.000000 -0.309017
vn 0.951057 0.000000 -0.309017
vn 0.951057 0.000000 -0.309017
vn 0.951057 0.000000 -0.309017
vn 0.000000 1.000000 0.000000
vn 0.000000 1.000000 0.000000
vn 0.000000 1.000000 0.000000
vn 0.000000 -1.000000 0.000000
vn 0.000000 -1.000000 0.000000
vn 0.000000 -1.000000 0.000000
vn 0.000000 1.000000 0.000000
vn 0.000000 1.000000 0.000000
vn 0.000000 1.000000 0.000000
vn 0.000000 -1.000000 0.000000
vn 0.000000 -1.000000 0.000000
vn 0.000000 -1.000000 0.000000
vn -0.000000 1.000000 0.000000
vn -0.000000 1.000000 0.000000
vn -0.000000 1.000000 0.000000
vn 0.000000 -1.000000 0.000000
vn 0.000000 -1.000000 0.000000
vn 0.000000 -1.000000 0.000000
vn -0.000000 1.000000 0.000000
vn -0.000000 1.000000 0.000000
vn -0.000000 1.000000 0.000000
vn 0.000000 -1.000000 0.000000
vn 0.000000 -1.000000 0.000000
vn 0.000000 -1.000000 0.000000
vn 0.000000 1.000000 0.000000
vn 0.000000 1.000000 0.000000
vn 0.000000 1.000000 0.000000
vn 0.000000 -1.000000 0.000000
vn 0.000000 -1.000000 0.000000
vn 0.000000 -1.000000 0.000000
vn 0.000000 1.000000 -0.000000
vn 0.000000 1.000000 -0.000000
vn 0.000000 1.000000 -0.000000
vn -0.000000 -1.000000 0.000000
vn -0.000000 -1.000000 0.000000
vn -0.000000 -1.000000 0.000000
vn 0.000000 1.000000 -0.000000
vn 0.000000 1.000000 -0.000000
vn 0.000000 1.000000 -0.000000
vn 0.000000 -1.000000 0.000000
vn 0.000000 -1.000000 0.000000
vn 0.000000 -1.000000 0.000000
vn 0.000000 1.000000 0.000000
vn 0.000000 1.000000 0.000000
vn 0.000000 1.000000 0.000000
vn 0.000000 -1.000000 -0.000000
vn 0.000000 -1.000000 -0.000000
vn 0.000000 -1.000000 -0.000000
vn 0.000000 1.000000 0.000000
vn 0.000000 1.000000 0.000000
vn 0.000000 1.000000 0.000000
vn 0.000000 -1.000000 0.000000
vn 0.000000 -1.000000 0.000000
vn 0.000000 -1.000000 0.000000
vn 0.000000 1.000000 0.000000
vn 0.000000 1.000000 0.000000
vn 0.000000 1.000000 0.000000
vn 0.000000 -1.000000 0.000000
vn 0.000000 -1.000000 0.000000
vn 0.000000 -1.000000 0.000000
vn 0.000000 0.000000 -1.000000
vn 0.000000 0.000000 -1.000000
vn 0.000000 0.000000 -1.000000
vn 0.000000 0.000000 -1.000000
vn 0.000000 0.000000 1.000000
vn 0.000000 0.000000 1.000000
vn 0.000000 0.000000 1.000000
vn 0.000000 0.000000 1.000000
vn -1.000000 0.000000 0.000000
vn -1.000000 0.000000 0.000000
vn -1.000000 0.000000 0.000000
vn -1.000000 0.000000 0.000000
vn 1.000000 0.000000 0.000000
vn 1.000000 0.000000 0.000000
vn 1.000000 0.000000 0.000000
vn 1.000000 0.000000 0.000000
vn 0.000000 1.000000 0.000000
vn 0.000000 1.000000 0.000000
vn 0.000000 1.000000 0.000000
vn 0.000000 1.000000 0.000000
vn 0.000000 -1.000000 0.000000
vn 0.000000 -1.000000 0.000000
vn 0.000000 -1.000000 0.000000
vn 0.000000 -1.000000 0.000000
vn -0.079915 0.000000 -0.996802
vn -0.079915 0.000000 -0.996802
vn -0.079915 0.000000 -0.996802
vn -0.079915 0.000000 -0.996802
vn 0.079915 0.000000 0.996802
vn 0.079915 0.000000 0.996802
vn 0.079915 0.000000 0.996802
vn 0.079915 0.000000 0.996802
vn -0.996802 0.000000 0.079915
vn -0.996802 0.000000 0.079915
vn -0.996802 0.000000 0.079915
vn -0.996802 0.000000 0.079915
vn 0.996802 0.000000 -0.079915
vn 0.996802 0.000000 -0.079915
vn 0.996802 0.000000 -0.079915
vn 0.996802 0.000000 -0.079915
vn 0.000000 1.000000 0.000000
vn 0.000000 1.000000 0.000000
vn 0.000000 1.000000 0.000000
vn 0.000000 1.000000 0.000000
vn 0.000000 -1.000000 0.000000
vn 0.000000 -1.000000 0.000000
vn 0.000000 -1.000000 0.000000
vn 0.000000 -1.000000 0.000000
vn 0.965926 0.000000 0.258819
vn 0.965926 0.000000 0.258819
vn 0.965926 0.000000 0.258819
vn 0.965926 0.000000 0.258819
vn 0.707107 0.000000 0.707107
vn 0.707107 0.000000 0.707107
vn 0.707107 0.000000 0.707107
vn 0.707107 0.000000 0.707107
vn 0.258819 0.000000 0.965926
vn 0.258819 0.000000 0.965926
vn 0.258819 0.000000 0.965926
vn 0.258819 0.000000 0.965926
vn -0.258819 0.000000 0.965926
vn -0.258819 0.000000 0.965926
vn -0.258819 0.000000 0.965926
vn -0.258819 0.000000 0.965926
vn -0.707107 0.000000 0.707107
vn -0.707107 0.000000 0.707107
vn -0.707107 0.000000 0.707107
vn -0.707107 0.000000 0.707107
vn -0.965926 0.000000 0.258819
vn -0.965926 0.000000 0.258819
vn -0.965926 0.000000 0.258819
vn -0.965926 0.000000 0.258819
vn -0.965926 0.000000 -0.258819
vn -0.965926 0.000000 -0.258819
vn -0.965926 0.000000 -0.258819
vn -0.965926 0.000000 -0.258819
vn -0.707107 0.000000 -0.707107
vn -0.707107 0.000000 -0.707107
vn -0.707107 0.000000 -0.707107
vn -0.707107 0.000000 -0.707107
vn -0.258819 0.000000 -0.965926
vn -0.258819 0.000000 -0.965926
vn -0.258819 0.000000 -0.965926
vn -0.258819 0.000000 -0.965926
vn 0.258819 0.000000 -0.965926
vn 0.258819 0.000000 -0.965926
vn 0.258819 0.000000 -0.965926
vn 0.258819 0.000000 -0.965926
vn 0.707107 0.000000 -0.707107
vn 0.707107 0.000000 -0.707107
vn 0.707107 0.000000 -0.707107
vn 0.707107 0.000000 -0.707107
vn 0.965926 0.000000 -0.258819
vn 0.965926 0.000000 -0.258819
vn 0.965926 0.000000 -0.258819
vn 0.965926 0.000000 -0.258819
vn 0.000000 1.000000 0.000000
vn 0.000000 1.000000 0.000000
vn 0.000000 1.000000 0.000000
vn 0.000000 -1.000000 0.000000
vn 0.000000 -1.000000 0.000000
vn 0.000000 -1.000000 0.000000
vn 0.000000 1.000000 0.000000
vn 0.000000 1.000000 0.000000
vn 0.000000 1.000000 0.000000
vn 0.000000 -1.000000 0.000000
vn 0.000000 -1.000000 0.000000
vn 0.000000 -1.000000 0.000000
vn 0.000000 1.000000 0.000000
vn 0.000000 1.000000 0.000000
vn 0.000000 1.000000 0.000000
vn 0.000000 -1.000000 0.000000
vn 0.000000 -1.000000 0.000000
vn 0.000000 -1.000000 0.000000
vn -0.000000 1.000000 0.000000
vn -0.000000 1.000000 0.000000
vn -0.000000 1.000000 0.000000
vn 0.000000 -1.000000 0.000000
vn 0.000000 -1.000000 0.000000
vn 0.000000 -1.000000 0.000000
vn -0.000000 1.000000 0.000000
vn -0.000000 1.000000 0.000000
vn -0.000000 1.000000 0.000000
vn 0.000000 -1.000000 0.000000
vn 0.000000 -1.000000 0.000000
vn 0.000000 -1.000000 0.000000
vn -0.000000 1.000000 0.000000
vn -0.000000 1.000000 0.000000
vn -0.000000 1.000000 0.000000
vn 0.000000 -1.000000 0.000000
vn 0.000000 -1.000000 0.000000
vn 0.000000 -1.000000 0.000000
vn 0.000000 1.000000 -0.000000
vn 0.000000 1.000000 -0.000000
vn 0.000000 1.000000 -0.000000
vn -0.000000 -1.000000 0.000000
vn -0.000000 -1.000000 0.000000
vn -0.000000 -1.000000 0.000000
vn 0.000000 1.000000 -0.000000
vn 0.000000 1.000000 -0.000000
vn 0.000000 1.000000 -0.000000
vn 0.000000 -1.000000 0.000000
vn 0.000000 -1.000000 0.000000
vn 0.000000 -1.000000 0.000000
vn 0.000000 1.000000 -0.000000
vn 0.000000 1.000000 -0.000000
vn 0.000000 1.000000 -0.000000
vn 0.000000 -1.000000 0.000000
vn 0.000000 -1.000000 0.000000
vn 0.000000 -1.000000 0.000000
vn 0.000000 1.000000 0.000000
vn 0.000000 1.000000 0.000000
vn 0.000000 1.000000 0.000000
vn 0.000000 -1.000000 -0.000000
vn 0.000000 -1.000000 -0.000000
vn 0.000000 -1.000000 -0.000000
vn 0.000000 1.000000 0.000000
vn 0.000000 1.000000 0.000000
vn 0.000000 1.000000 0.000000
vn 0.000000 -1.000000 0.000000
vn 0.000000 -1.000000 0.000000
vn 0.000000 -1.000000 0.000000
vn 0.000000 1.000000 0.000000
vn 0.000000 1.000000 0.000000
vn 0.000000 1.000000 0.000000
vn 0.000000 -1.000000 0.000000
vn 0.000000 -1.000000 0.000000
vn 0.000000 -1.000000 0.000000
vn 0.965926 0.000000 0.258819
vn 0.965926 0.000000 0.258819
vn 0.965926 0.000000 0.258819
vn 0.965926 0.000000 0.258819
vn 0.707107 0.000000 0.707107
vn 0.707107 0.000000 0.707107
vn 0.707107 0.000000 0.707107
vn 0.707107 0.000000 0.707107
vn 0.258819 0.000000 0.965926
vn 0.258819 0.000000 0.965926
vn 0.258819 0.000000 0.965926
vn 0.258819 0.000000 0.965926
vn -0.258819 0.000000 0.965926
vn -0.258819 0.000000 0.965926
vn -0.258819 0.000000 0.965926
vn -0.258819 0.000000 0.965926
vn -0.707107 0.000000 0.707107
vn -0.707107 0.000000 0.707107
vn -0.707107 0.000000 0.707107
vn -0.707107 0.000000 0.707107
vn -0.965926 0.000000 0.258819
vn -0.965926 0.000000 0.258819
vn -0.965926 0.000000 0.258819
vn -0.965926 0.000000 0.258819
vn -0.965926 0.000000 -0.258819
vn -0.965926 0.000000 -0.258819
vn -0.965926 0.000000 -0.258819
vn -0.965926 0.000000 -0.258819
vn -0.707107 0.000000 -0.707107
vn -0.707107 0.000000 -0.707107
vn -0.707107 0.000000 -0.707107
vn -0.707107 0.000000 -0.707107
vn -0.258819 0.000000 -0.965926
vn -0.258819 0.000000 -0.965926
vn -0.258819 0.000000 -0.965926
vn -0.258819 0.000000 -0.965926
vn 0.258819 0.000000 -0.965926
vn 0.258819 0.000000 -0.965926
vn 0.258819 0.000000 -0.965926
vn 0.258819 0.000000 -0.965926
vn 0.707107 0.000000 -0.707107
vn 0.707107 0.000000 -0.707107
vn 0.707107 0.000000 -0.707107
vn 0.707107 0.000000 -0.707107
vn 0.965926 0.000000 -0.258819
vn 0.965926 0.000000 -0.258819
vn 0.965926 0.000000 -0.258819
vn 0.965926 0.000000 -0.258819
vn 0.000000 1.000000 0.000000
vn 0.000000 1.000000 0.000000
vn 0.000000 1.000000 0.000000
vn 0.000000 -1.000000 0.000000
vn 0.000000 -1.000000 0.000000
vn 0.000000 -1.000000 0.000000
vn 0.000000 1.000000 0.000000
vn 0.000000 1.000000 0.000000
vn 0.000000 1.000000 0.000000
vn 0.000000 -1.000000 0.000000
vn 0.000000 -1.000000 0.000000
vn 0.000000 -1.000000 0.000000
vn 0.000000 1.000000 0.000000
vn 0.000000 1.000000 0.000000
vn 0.000000 1.000000 0.000000
vn 0.000000 -1.000000 0.000000
vn 0.000000 -1.000000 0.000000
vn 0.000000 -1.000000 0.000000
vn -0.000000 1.000000 0.000000
vn -0.000000 1.000000 0.000000
vn -0.000000 1.000000 0.000000
vn 0.000000 -1.000000 0.000000
vn 0.000000 -1.000000 0.000000
vn 0.000000 -1.000000 0.000000
vn -0.000000 1.000000 0.000000
vn -0.000000 1.000000 0.000000
vn -0.000000 1.000000 0.000000
vn 0.000000 -1.000000 0.000000
vn 0.000000 -1.000000 0.000000
vn 0.000000 -1.000000 0.000000
vn -0.000000 1.000000 0.000000
vn -0.000000 1.000000 0.000000
vn -0.000000 1.000000 0.000000
vn 0.000000 -1.000000 0.000000
vn 0.000000 -1.000000 0.000000
vn 0.000000 -1.000000 0.000000
vn 0.000000 1.000000 -0.000000
vn 0.000000 1.000000 -0.000000
vn 0.000000 1.000000 -0.000000
vn -0.000000 -1.000000 0.000000
vn -0.000000 -1.000000 0.000000
vn -0.000000 -1.000000 0.000000
vn 0.000000 1.000000 -0.000000
vn 0.000000 1.000000 -0.000000
vn 0.000000 1.000000 -0.000000
vn 0.000000 -1.000000 0.000000
vn 0.000000 -1.000000 0.000000
vn 0.000000 -1.000000 0.000000
vn 0.000000 1.000000 -0.000000
vn 0.000000 1.000000 -0.000000
vn 0.000000 1.000000 -0.000000
vn 0.000000 -1.000000 0.000000
vn 0.000000 -1.000000 0.000000
vn 0.000000 -1.000000 0.000000
vn 0.000000 1.000000 0.000000
vn 0.000000 1.000000 0.000000
vn 0.000000 1.000000 0.000000
vn 0.000000 -1.000000 -0.000000
vn 0.000000 -1.000000 -0.000000
vn 0.000000 -1.000000 -0.000000
vn 0.000000 1.000000 0.000000
vn 0.000000 1.000000 0.000000
vn 0.000000 1.000000 0.000000
vn 0.000000 -1.000000 0.000000
vn 0.000000 -1.000000 0.000000
vn 0.000000 -1.000000 0.000000
vn 0.000000 1.000000 0.000000
vn 0.000000 1.000000 0.000000
vn 0.000000 1.000000 0.000000
vn 0.000000 -1.000000 0.000000
vn 0.000000 -1.000000 0.000000
vn 0.000000 -1.000000 0.000000
vn 0.000000 0.000000 -1.000000
vn 0.000000 0.000000 -1.000000
vn 0.000000 0.000000 -1.000000
vn 0.000000 0.000000 -1.000000
vn 0.000000 0.000000 1.000000
vn 0.000000 0.000000 1.000000
vn 0.000000 0.000000 1.000000
vn 0.000000 0.000000 1.000000
vn -1.000000 0.000000 0.000000
vn -1.000000 0.000000 0.000000
vn -1.000000 0.000000 0.000000
vn -1.000000 0.000000 0.000000
vn 1.000000 0.000000 0.000000
vn 1.000000 0.000000 0.000000
vn 1.000000 0.000000 0.000000
vn 1.000000 0.000000 0.000000
vn 0.000000 1.000000 0.000000
vn 0.000000 1.000000 0.000000
vn 0.000000 1.000000 0.000000
vn 0.000000 1.000000 0.000000
vn 0.000000 -1.000000 0.000000
vn 0.000000 -1.000000 0.000000
vn 0.000000 -1.000000 0.000000
vn 0.000000 -1.000000 0.000000
usemtl basalt_side
f 1/1/1 2/2/2 3/3/3 4/4/4
f 5/5/5 6/6/6 7/7/7 8/8/8
f 9/9/9 10/10/10 11/11/11 12/12/12
f 13/13/13 14/14/14 15/15/15 16/16/16
f 17/17/17 18/18/18 19/19/19 20/20/20
f 21/21/21 22/22/22 23/23/23 24/24/24
f 25/25/25 26/26/26 27/27/27 28/28/28
f 29/29/29 30/30/30 31/31/31 32/32/32
f 33/33/33 34/34/34 35/35/35 36/36/36
f 37/37/37 38/38/38 39/39/39 40/40/40
f 41/41/41 42/42/42 43/43/43 44/44/44
f 45/45/45 46/46/46 47/47/47 48/48/48
f 49/49/49 50/50/50 51/51/51 52/52/52
f 53/53/53 54/54/54 55/55/55 56/56/56
f 57/57/57 58/58/58 59/59/59 60/60/60
f 61/61/61 62/62/62 63/63/63 64/64/64
usemtl basalt_top
f 65/65/65 66/66/66 67/67/67
usemtl basalt_side
f 68/68/68 69/69/69 70/70/70
usemtl basalt_top
f 71/71/71 72/72/72 73/73/73
usemtl basalt_side
f 74/74/74 75/75/75 76/76/76
usemtl basalt_top
f 77/77/77 78/78/78 79/79/79
usemtl basalt_side
f 80/80/80 81/81/81 82/82/82
usemtl basalt_top
f 83/83/83 84/84/84 85/85/85
usemtl basalt_side
f 86/86/86 87/87/87 88/88/88
usemtl basalt_top
f 89/89/89 90/90/90 91/91/91
usemtl basalt_side
f 92/92/92 93/93/93 94/94/94
usemtl basalt_top
f 95/95/95 96/96/96 97/97/97
usemtl basalt_side
f 98/98/98 99/99/99 100/100/100
usemtl basalt_top
f 101/101/101 102/102/102 103/103/103
usemtl basalt_side
f 104/104/104 105/105/105 106/106/106
usemtl basalt_top
f 107/107/107 108/108/108 109/109/109
usemtl basalt_side
f 110/110/110 111/111/111 112/112/112
usemtl basalt_top
f 113/113/113 114/114/114 115/115/115
usemtl basalt_side
f 116/116/116 117/117/117 118/118/118
usemtl basalt_top
f 119/119/119 120/120/120 121/121/121
usemtl basalt_side
f 122/122/122 123/123/123 124/124/124
usemtl basalt_top
f 125/125/125 126/126/126 127/127/127
usemtl basalt_side
f 128/128/128 129/129/129 130/130/130
usemtl basalt_top
f 131/131/131 132/132/132 133/133/133
usemtl basalt_side
f 134/134/134 135/135/135 136/136/136
usemtl basalt_top
f 137/137/137 138/138/138 139/139/139
usemtl basalt_side
f 140/140/140 141/141/141 142/142/142
usemtl basalt_top
f 143/143/143 144/144/144 145/145/145
usemtl basalt_side
f 146/146/146 147/147/147 148/148/148
usemtl basalt_top
f 149/149/149 150/150/150 151/151/151
usemtl basalt_side
f 152/152/152 153/153/153 154/154/154
usemtl basalt_top
f 155/155/155 156/156/156 157/157/157
usemtl basalt_side
f 158/158/158 159/159/159 160/160/160
usemtl obsidian
f 161/161/161 162/162/162 163/163/163 164/164/164
f 165/165/165 166/166/166 167/167/167 168/168/168
f 169/169/169 170/170/170 171/171/171 172/172/172
f 173/173/173 174/174/174 175/175/175 176/176/176
f 177/177/177 178/178/178 179/179/179 180/180/180
f 181/181/181 182/182/182 183/183/183 184/184/184
f 185/185/185 186/186/186 187/187/187 188/188/188
f 189/189/189 190/190/190 191/191/191 192/192/192
f 193/193/193 194/194/194 195/195/195 196/196/196
f 197/197/197 198/198/198 199/199/199 200/200/200
f 201/201/201 202/202/202 203/203/203 204/204/204
f 205/205/205 206/206/206 207/207/207 208/208/208
f 209/209/209 210/210/210 211/211/211 212/212/212
f 213/213/213 214/214/214 215/215/215 216/216/216
f 217/217/217 218/218/218 219/219/219 220/220/220
f 221/221/221 222/222/222 223/223/223 224/224/224
f 225/225/225 226/226/226 227/227/227
f 228/228/228 229/229/229 230/230/230
f 231/231/231 232/232/232 233/233/233
f 234/234/234 235/235/235 236/236/236
f 237/237/237 238/238/238 239/239/239
f 240/240/240 241/241/241 242/242/242
f 243/243/243 244/244/244 245/245/245
f 246/246/246 247/247/247 248/248/248
f 249/249/249 250/250/250 251/251/251
f 252/252/252 253/253/253 254/254/254
f 255/255/255 256/256/256 257/257/257
f 258/258/258 259/259/259 260/260/260
f 261/261/261 262/262/262 263/263/263
f 264/264/264 265/265/265 266/266/266
f 267/267/267 268/268/268 269/269/269
f 270/270/270 271/271/271 272/272/272
f 273/273/273 274/274/274 275/275/275
f 276/276/276 277/277/277 278/278/278
f 279/279/279 280/280/280 281/281/281
f 282/282/282 283/283/283 284/284/284
f 285/285/285 286/286/286 287/287/287
f 288/288/288 289/289/289 290/290/290
f 291/291/291 292/292/292 293/293/293
f 294/294/294 295/295/295 296/296/296
f 297/297/297 298/298/298 299/299/299
f 300/300/300 301/301/301 302/302/302
f 303/303/303 304/304/304 305/305/305
f 306/306/306 307/307/307 308/308/308
f 309/309/309 310/310/310 311/311/311
f 312/312/312 313/313/313 314/314/314
f 315/315/315 316/316/316 317/317/317
f 318/318/318 319/319/319 320/320/320
usemtl metal
f 321/321/321 322/322/322 323/323/323 324/324/324
f 325/325/325 326/326/326 327/327/327 328/328/328
f 329/329/329 330/330/330 331/331/331 332/332/332
f 333/333/333 334/334/334 335/335/335 336/336/336
f 337/337/337 338/338/338 339/339/339 340/340/340
f 341/341/341 342/342/342 343/343/343 344/344/344
f 345/345/345 346/346/346 347/347/347 348/348/348
f 349/349/349 350/350/350 351/351/351 352/352/352
f 353/353/353 354/354/354 355/355/355 356/356/356
f 357/357/357 358/358/358 359/359/359 360/360/360
usemtl ember
f 361/361/361 362/362/362 363/363/363
usemtl metal
f 364/364/364 365/365/365 366/366/366
usemtl ember
f 367/367/367 368/368/368 369/369/369
usemtl metal
f 370/370/370 371/371/371 372/372/372
usemtl ember
f 373/373/373 374/374/374 375/375/375
usemtl metal
f 376/376/376 377/377/377 378/378/378
usemtl ember
f 379/379/379 380/380/380 381/381/381
usemtl metal
f 382/382/382 383/383/383 384/384/384
usemtl ember
f 385/385/385 386/386/386 387/387/387
usemtl metal
f 388/388/388 389/389/389 390/390/390
usemtl ember
f 391/391/391 392/392/392 393/393/393
usemtl metal
f 394/394/394 395/395/395 396/396/396
usemtl ember
f 397/397/397 398/398/398 399/399/399
usemtl metal
f 400/400/400 401/401/401 402/402/402
usemtl ember
f 403/403/403 404/404/404 405/405/405
usemtl metal
f 406/406/406 407/407/407 408/408/408
usemtl ember
f 409/409/409 410/410/410 411/411/411
usemtl metal
f 412/412/412 413/413/413 414/414/414
usemtl ember
f 415/415/415 416/416/416 417/417/417
usemtl metal
f 418/418/418 419/419/419 420/420/420
f 421/421/421 422/422/422 423/423/423 424/424/424
f 425/425/425 426/426/426 427/427/427 428/428/428
f 429/429/429 430/430/430 431/431/431 432/432/432
f 433/433/433 434/434/434 435/435/435 436/436/436
f 437/437/437 438/438/438 439/439/439 440/440/440
f 441/441/441 442/442/442 443/443/443 444/444/444
f 445/445/445 446/446/446 447/447/447 448/448/448
f 449/449/449 450/450/450 451/451/451 452/452/452
f 453/453/453 454/454/454 455/455/455 456/456/456
f 457/457/457 458/458/458 459/459/459 460/460/460
usemtl ember
f 461/461/461 462/462/462 463/463/463
usemtl metal
f 464/464/464 465/465/465 466/466/466
usemtl ember
f 467/467/467 468/468/468 469/469/469
usemtl metal
f 470/470/470 471/471/471 472/472/472
usemtl ember
f 473/473/473 474/474/474 475/475/475
usemtl metal
f 476/476/476 477/477/477 478/478/478
usemtl ember
f 479/479/479 480/480/480 481/481/481
usemtl metal
f 482/482/482 483/483/483 484/484/484
usemtl ember
f 485/485/485 486/486/486 487/487/487
usemtl metal
f 488/488/488 489/489/489 490/490/490
usemtl ember
f 491/491/491 492/492/492 493/493/493
usemtl metal
f 494/494/494 495/495/495 496/496/496
usemtl ember
f 497/497/497 498/498/498 499/499/499
usemtl metal
f 500/500/500 501/501/501 502/502/502
usemtl ember
f 503/503/503 504/504/504 505/505/505
usemtl metal
f 506/506/506 507/507/507 508/508/508
usemtl ember
f 509/509/509 510/510/510 511/511/511
usemtl metal
f 512/512/512 513/513/513 514/514/514
usemtl ember
f 515/515/515 516/516/516 517/517/517
usemtl metal
f 518/518/518 519/519/519 520/520/520
f 521/521/521 522/522/522 523/523/523 524/524/524
f 525/525/525 526/526/526 527/527/527 528/528/528
f 529/529/529 530/530/530 531/531/531 532/532/532
f 533/533/533 534/534/534 535/535/535 536/536/536
f 537/537/537 538/538/538 539/539/539 540/540/540
f 541/541/541 542/542/542 543/543/543 544/544/544
f 545/545/545 546/546/546 547/547/547 548/548/548
f 549/549/549 550/550/550 551/551/551 552/552/552
f 553/553/553 554/554/554 555/555/555 556/556/556
f 557/557/557 558/558/558 559/559/559 560/560/560
usemtl ember
f 561/561/561 562/562/562 563/563/563
usemtl metal
f 564/564/564 565/565/565 566/566/566
usemtl ember
f 567/567/567 568/568/568 569/569/569
usemtl metal
f 570/570/570 571/571/571 572/572/572
usemtl ember
f 573/573/573 574/574/574 575/575/575
usemtl metal
f 576/576/576 577/577/577 578/578/578
usemtl ember
f 579/579/579 580/580/580 581/581/581
usemtl metal
f 582/582/582 583/583/583 584/584/584
usemtl ember
f 585/585/585 586/586/586 587/587/587
usemtl metal
f 588/588/588 589/589/589 590/590/590
usemtl ember
f 591/591/591 592/592/592 593/593/593
usemtl metal
f 594/594/594 595/595/595 596/596/596
usemtl ember
f 597/597/597 598/598/598 599/599/599
usemtl metal
f 600/600/600 601/601/601 602/602/602
usemtl ember
f 603/603/603 604/604/604 605/605/605
usemtl metal
f 606/606/606 607/607/607 608/608/608
usemtl ember
f 609/609/609 610/610/610 611/611/611
usemtl metal
f 612/612/612 613/613/613 614/614/614
usemtl ember
f 615/615/615 616/616/616 617/617/617
usemtl metal
f 618/618/618 619/619/619 620/620/620
f 621/621/621 622/622/622 623/623/623 624/624/624
f 625/625/625 626/626/626 627/627/627 628/628/628
f 629/629/629 630/630/630 631/631/631 632/632/632
f 633/633/633 634/634/634 635/635/635 636/636/636
f 637/637/637 638/638/638 639/639/639 640/640/640
f 641/641/641 642/642/642 643/643/643 644/644/644
f 645/645/645 646/646/646 647/647/647 648/648/648
f 649/649/649 650/650/650 651/651/651 652/652/652
f 653/653/653 654/654/654 655/655/655 656/656/656
f 657/657/657 658/658/658 659/659/659 660/660/660
usemtl ember
f 661/661/661 662/662/662 663/663/663
usemtl metal
f 664/664/664 665/665/665 666/666/666
usemtl ember
f 667/667/667 668/668/668 669/669/669
usemtl metal
f 670/670/670 671/671/671 672/672/672
usemtl ember
f 673/673/673 674/674/674 675/675/675
usemtl metal
f 676/676/676 677/677/677 678/678/678
usemtl ember
f 679/679/679 680/680/680 681/681/681
usemtl metal
f 682/682/682 683/683/683 684/684/684
usemtl ember
f 685/685/685 686/686/686 687/687/687
usemtl metal
f 688/688/688 689/689/689 690/690/690
usemtl ember
f 691/691/691 692/692/692 693/693/693
usemtl metal
f 694/694/694 695/695/695 696/696/696
usemtl ember
f 697/697/697 698/698/698 699/699/699
usemtl metal
f 700/700/700 701/701/701 702/702/702
usemtl ember
f 703/703/703 704/704/704 705/705/705
usemtl metal
f 706/706/706 707/707/707 708/708/708
usemtl ember
f 709/709/709 710/710/710 711/711/711
usemtl metal
f 712/712/712 713/713/713 714/714/714
usemtl ember
f 715/715/715 716/716/716 717/717/717
usemtl metal
f 718/718/718 719/719/719 720/720/720
usemtl basalt_side
f 721/721/721 722/722/722 723/723/723 724/724/724
f 725/725/725 726/726/726 727/727/727 728/728/728
f 729/729/729 730/730/730 731/731/731 732/732/732
f 733/733/733 734/734/734 735/735/735 736/736/736
f 737/737/737 738/738/738 739/739/739 740/740/740
f 741/741/741 742/742/742 743/743/743 744/744/744
usemtl obsidian
f 745/745/745 746/746/746 747/747/747 748/748/748
f 749/749/749 750/750/750 751/751/751 752/752/752
f 753/753/753 754/754/754 755/755/755 756/756/756
f 757/757/757 758/758/758 759/759/759 760/760/760
f 761/761/761 762/762/762 763/763/763 764/764/764
f 765/765/765 766/766/766 767/767/767 768/768/768
usemtl basalt_side
f 769/769/769 770/770/770 771/771/771 772/772/772
f 773/773/773 774/774/774 775/775/775 776/776/776
f 777/777/777 778/778/778 779/779/779 780/780/780
f 781/781/781 782/782/782 783/783/783 784/784/784
f 785/785/785 786/786/786 787/787/787 788/788/788
f 789/789/789 790/790/790 791/791/791 792/792/792
f 793/793/793 794/794/794 795/795/795 796/796/796
f 797/797/797 798/798/798 799/799/799 800/800/800
f 801/801/801 802/802/802 803/803/803 804/804/804
f 805/805/805 806/806/806 807/807/807 808/808/808
f 809/809/809 810/810/810 811/811/811 812/812/812
f 813/813/813 814/814/814 815/815/815 816/816/816
usemtl basalt_top
f 817/817/817 818/818/818 819/819/819
usemtl basalt_side
f 820/820/820 821/821/821 822/822/822
usemtl basalt_top
f 823/823/823 824/824/824 825/825/825
usemtl basalt_side
f 826/826/826 827/827/827 828/828/828
usemtl basalt_top
f 829/829/829 830/830/830 831/831/831
usemtl basalt_side
f 832/832/832 833/833/833 834/834/834
usemtl basalt_top
f 835/835/835 836/836/836 837/837/837
usemtl basalt_side
f 838/838/838 839/839/839 840/840/840
usemtl basalt_top
f 841/841/841 842/842/842 843/843/843
usemtl basalt_side
f 844/844/844 845/845/845 846/846/846
usemtl basalt_top
f 847/847/847 848/848/848 849/849/849
usemtl basalt_side
f 850/850/850 851/851/851 852/852/852
usemtl basalt_top
f 853/853/853 854/854/854 855/855/855
usemtl basalt_side
f 856/856/856 857/857/857 858/858/858
usemtl basalt_top
f 859/859/859 860/860/860 861/861/861
usemtl basalt_side
f 862/862/862 863/863/863 864/864/864
usemtl basalt_top
f 865/865/865 866/866/866 867/867/867
usemtl basalt_side
f 868/868/868 869/869/869 870/870/870
usemtl basalt_top
f 871/871/871 872/872/872 873/873/873
usemtl basalt_side
f 874/874/874 875/875/875 876/876/876
usemtl basalt_top
f 877/877/877 878/878/878 879/879/879
usemtl basalt_side
f 880/880/880 881/881/881 882/882/882
usemtl basalt_top
f 883/883/883 884/884/884 885/885/885
usemtl basalt_side
f 886/886/886 887/887/887 888/888/888
usemtl ember
f 889/889/889 890/890/890 891/891/891 892/892/892
f 893/893/893 894/894/894 895/895/895 896/896/896
f 897/897/897 898/898/898 899/899/899 900/900/900
f 901/901/901 902/902/902 903/903/903 904/904/904
f 905/905/905 906/906/906 907/907/907 908/908/908
f 909/909/909 910/910/910 911/911/911 912/912/912
f 913/913/913 914/914/914 915/915/915 916/916/916
f 917/917/917 918/918/918 919/919/919 920/920/920
f 921/921/921 922/922/922 923/923/923 924/924/924
f 925/925/925 926/926/926 927/927/927 928/928/928
f 929/929/929 930/930/930 931/931/931 932/932/932
f 933/933/933 934/934/934 935/935/935 936/936/936
usemtl magma
f 937/937/937 938/938/938 939/939/939
usemtl ember
f 940/940/940 941/941/941 942/942/942
usemtl magma
f 943/943/943 944/944/944 945/945/945
usemtl ember
f 946/946/946 947/947/947 948/948/948
usemtl magma
f 949/949/949 950/950/950 951/951/951
usemtl ember
f 952/952/952 953/953/953 954/954/954
usemtl magma
f 955/955/955 956/956/956 957/957/957
usemtl ember
f 958/958/958 959/959/959 960/960/960
usemtl magma
f 961/961/961 962/962/962 963/963/963
usemtl ember
f 964/964/964 965/965/965 966/966/966
usemtl magma
f 967/967/967 968/968/968 969/969/969
usemtl ember
f 970/970/970 971/971/971 972/972/972
usemtl magma
f 973/973/973 974/974/974 975/975/975
usemtl ember
f 976/976/976 977/977/977 978/978/978
usemtl magma
f 979/979/979 980/980/980 981/981/981
usemtl ember
f 982/982/982 983/983/983 984/984/984
usemtl magma
f 985/985/985 986/986/986 987/987/987
usemtl ember
f 988/988/988 989/989/989 990/990/990
usemtl magma
f 991/991/991 992/992/992 993/993/993
usemtl ember
f 994/994/994 995/995/995 996/996/996
usemtl magma
f 997/997/997 998/998/998 999/999/999
usemtl ember
f 1000/1000/1000 1001/1001/1001 1002/1002/1002
usemtl magma
f 1003/1003/1003 1004/1004/1004 1005/1005/1005
usemtl ember
f 1006/1006/1006 1007/1007/1007 1008/1008/1008
f 1009/1009/1009 1010/1010/1010 1011/1011/1011 1012/1012/1012
f 1013/1013/1013 1014/1014/1014 1015/1015/1015 1016/1016/1016
f 1017/1017/1017 1018/1018/1018 1019/1019/1019 1020/1020/1020
f 1021/1021/1021 1022/1022/1022 1023/1023/1023 1024/1024/1024
f 1025/1025/1025 1026/1026/1026 1027/1027/1027 1028/1028/1028
f 1029/1029/1029 1030/1030/1030 1031/1031/1031 1032/1032/1032
