{
	"asset":{
		"generator":"Khronos glTF Blender I/O v4.4.56",
		"version":"2.0"
	},
	"scene":0,
	"scenes":[
		{
			"name":"Scene",
			"nodes":[
				1,
				2,
				3,
				4
			]
		}
	],
	"nodes":[
		{
			"name":"Slime",
			"rotation":[
				-0.70710688829422,
				0,
				0,
				0.7071066498756409
			],
			"scale":[
				100,
				99.99998474121094,
				99.99998474121094
			]
		},
		{
			"children":[
				0
			],
			"name":"RootNode"
		},
		{
			"mesh":0,
			"name":"Slime_Slime_0"
		},
		{
			"mesh":1,
			"name":"Slime_Slime_0.001"
		},
		{
			"mesh":2,
			"name":"Slime_Slime_0.004"
		}
	],
	"materials":[
		{
			"alphaCutoff":0.4151618182659149,
			"alphaMode":"MASK",
			"doubleSided":true,
			"name":"Slime",
			"pbrMetallicRoughness":{
				"baseColorTexture":{
					"index":0
				},
				"metallicFactor":0,
				"roughnessFactor":0.6000000238418579
			}
		}
	],
	"meshes":[
		{
			"name":"Slime_Slime_0",
			"primitives":[
				{
					"attributes":{
						"POSITION":0,
						"NORMAL":1,
						"TEXCOORD_0":2
					},
					"indices":3,
					"material":0
				}
			]
		},
		{
			"name":"Slime_Slime_0.001",
			"primitives":[
				{
					"attributes":{
						"POSITION":4,
						"NORMAL":5,
						"TEXCOORD_0":6
					},
					"indices":7,
					"material":0
				}
			]
		},
		{
			"name":"Slime_Slime_0.004",
			"primitives":[
				{
					"attributes":{
						"POSITION":8,
						"NORMAL":9,
						"TEXCOORD_0":10
					},
					"indices":11,
					"material":0
				}
			]
		}
	],
	"textures":[
		{
			"sampler":0,
			"source":0
		}
	],
	"images":[
		{
			"mimeType":"image/png",
			"name":"Slime_baseColor_pink",
			"uri":"Slime_baseColor_pink.png"
		}
	],
	"accessors":[
		{
			"bufferView":0,
			"componentType":5126,
			"count":161,
			"max":[
				0.36607667803764343,
				0.7366077899932861,
				0.37000083923339844
			],
			"min":[
				-0.37167540192604065,
				0.5286020636558533,
				-0.3678313195705414
			],
			"type":"VEC3"
		},
		{
			"bufferView":1,
			"componentType":5126,
			"count":161,
			"type":"VEC3"
		},
		{
			"bufferView":2,
			"componentType":5126,
			"count":161,
			"type":"VEC2"
		},
		{
			"bufferView":3,
			"componentType":5123,
			"count":864,
			"type":"SCALAR"
		},
		{
			"bufferView":4,
			"componentType":5126,
			"count":264,
			"max":[
				0.5119686722755432,
				0.5286023020744324,
				0.5145934820175171
			],
			"min":[
				-0.5154838562011719,
				-0.005467218346893787,
				-0.5132371783256531
			],
			"type":"VEC3"
		},
		{
			"bufferView":5,
			"componentType":5126,
			"count":264,
			"type":"VEC3"
		},
		{
			"bufferView":6,
			"componentType":5126,
			"count":264,
			"type":"VEC2"
		},
		{
			"bufferView":7,
			"componentType":5123,
			"count":1344,
			"type":"SCALAR"
		},
		{
			"bufferView":8,
			"componentType":5126,
			"count":32,
			"max":[
				0.31251204013824463,
				0.007738698739558458,
				0.28743547201156616
			],
			"min":[
				-0.2763625979423523,
				-0.005467218346893787,
				-0.3014393150806427
			],
			"type":"VEC3"
		},
		{
			"bufferView":9,
			"componentType":5126,
			"count":32,
			"type":"VEC3"
		},
		{
			"bufferView":10,
			"componentType":5126,
			"count":32,
			"type":"VEC2"
		},
		{
			"bufferView":11,
			"componentType":5123,
			"count":90,
			"type":"SCALAR"
		}
	],
	"bufferViews":[
		{
			"buffer":0,
			"byteLength":1932,
			"byteOffset":0,
			"target":34962
		},
		{
			"buffer":0,
			"byteLength":1932,
			"byteOffset":1932,
			"target":34962
		},
		{
			"buffer":0,
			"byteLength":1288,
			"byteOffset":3864,
			"target":34962
		},
		{
			"buffer":0,
			"byteLength":1728,
			"byteOffset":5152,
			"target":34963
		},
		{
			"buffer":0,
			"byteLength":3168,
			"byteOffset":6880,
			"target":34962
		},
		{
			"buffer":0,
			"byteLength":3168,
			"byteOffset":10048,
			"target":34962
		},
		{
			"buffer":0,
			"byteLength":2112,
			"byteOffset":13216,
			"target":34962
		},
		{
			"buffer":0,
			"byteLength":2688,
			"byteOffset":15328,
			"target":34963
		},
		{
			"buffer":0,
			"byteLength":384,
			"byteOffset":18016,
			"target":34962
		},
		{
			"buffer":0,
			"byteLength":384,
			"byteOffset":18400,
			"target":34962
		},
		{
			"buffer":0,
			"byteLength":256,
			"byteOffset":18784,
			"target":34962
		},
		{
			"buffer":0,
			"byteLength":180,
			"byteOffset":19040,
			"target":34963
		}
	],
	"samplers":[
		{
			"magFilter":9729,
			"minFilter":9987
		}
	],
	"buffers":[
		{
			"byteLength":19220,
			"uri":"slimeBody_pink.bin"
		}
	]
}
