mtllib fortress_ramp.mtl
o fortress_ramp
v 14.460000 0.000000 -5.420000
v 14.280000 0.000000 -5.600000
v 0.000000 0.000000 0.000000
v 14.640000 0.000000 -5.240000
v 14.460000 0.000000 -5.420000
v 0.000000 0.000000 0.000000
v 14.820000 0.000000 -5.060000
v 14.640000 0.000000 -5.240000
v 0.000000 0.000000 0.000000
v 15.000000 0.000000 -4.880000
v 14.820000 0.000000 -5.060000
v 0.000000 0.000000 0.000000
v 15.000000 0.000000 -2.440000
v 15.000000 0.000000 -4.880000
v 0.000000 0.000000 0.000000
v 15.000000 0.000000 0.000000
v 15.000000 0.000000 -2.440000
v 0.000000 0.000000 0.000000
v 15.000000 0.000000 2.440000
v 15.000000 0.000000 0.000000
v 0.000000 0.000000 0.000000
v 15.000000 0.000000 4.880000
v 15.000000 0.000000 2.440000
v 0.000000 0.000000 0.000000
v 14.820000 0.000000 5.060000
v 15.000000 0.000000 4.880000
v 0.000000 0.000000 0.000000
v 14.640000 0.000000 5.240000
v 14.820000 0.000000 5.060000
v 0.000000 0.000000 0.000000
v 14.460000 0.000000 5.420000
v 14.640000 0.000000 5.240000
v 0.000000 0.000000 0.000000
v 14.280000 0.000000 5.600000
v 14.460000 0.000000 5.420000
v 0.000000 0.000000 0.000000
v 7.140000 0.000000 5.600000
v 14.280000 0.000000 5.600000
v 0.000000 0.000000 0.000000
v 0.000000 0.000000 5.600000
v 7.140000 0.000000 5.600000
v 0.000000 0.000000 0.000000
v -7.140000 0.000000 5.600000
v 0.000000 0.000000 5.600000
v 0.000000 0.000000 0.000000
v -14.280000 0.000000 5.600000
v -7.140000 0.000000 5.600000
v 0.000000 0.000000 0.000000
v -14.460000 0.000000 5.420000
v -14.280000 0.000000 5.600000
v 0.000000 0.000000 0.000000
v -14.640000 0.000000 5.240000
v -14.460000 0.000000 5.420000
v 0.000000 0.000000 0.000000
v -14.820000 0.000000 5.060000
v -14.640000 0.000000 5.240000
v 0.000000 0.000000 0.000000
v -15.000000 0.000000 4.880000
v -14.820000 0.000000 5.060000
v 0.000000 0.000000 0.000000
v -15.000000 0.000000 2.440000
v -15.000000 0.000000 4.880000
v 0.000000 0.000000 0.000000
v -15.000000 0.000000 0.000000
v -15.000000 0.000000 2.440000
v 0.000000 0.000000 0.000000
v -15.000000 0.000000 -2.440000
v -15.000000 0.000000 0.000000
v 0.000000 0.000000 0.000000
v -15.000000 0.000000 -4.880000
v -15.000000 0.000000 -2.440000
v 0.000000 0.000000 0.000000
v -14.820000 0.000000 -5.060000
v -15.000000 0.000000 -4.880000
v 0.000000 0.000000 0.000000
v -14.640000 0.000000 -5.240000
v -14.820000 0.000000 -5.060000
v 0.000000 0.000000 0.000000
v -14.460000 0.000000 -5.420000
v -14.640000 0.000000 -5.240000
v 0.000000 0.000000 0.000000
v -14.280000 0.000000 -5.600000
v -14.460000 0.000000 -5.420000
v 0.000000 0.000000 0.000000
v -7.140000 0.000000 -5.600000
v -14.280000 0.000000 -5.600000
v 0.000000 0.000000 0.000000
v 0.000000 0.000000 -5.600000
v -7.140000 0.000000 -5.600000
v 0.000000 0.000000 0.000000
v 7.140000 0.000000 -5.600000
v 0.000000 0.000000 -5.600000
v 0.000000 0.000000 0.000000
v 14.280000 0.000000 -5.600000
v 7.140000 0.000000 -5.600000
v 0.000000 0.000000 0.000000
v 14.280000 0.000000 -5.600000
v 14.460000 0.000000 -5.420000
v 14.623610 -0.612000 -5.609056
v 14.404754 -0.612000 -5.801915
v 14.460000 0.000000 -5.420000
v 14.640000 0.000000 -5.240000
v 14.797530 -0.612000 -5.399099
v 14.623610 -0.612000 -5.609056
v 14.640000 0.000000 -5.240000
v 14.820000 0.000000 -5.060000
v 15.000401 -0.612000 -5.200139
v 14.797530 -0.612000 -5.399099
v 14.820000 0.000000 -5.060000
v 15.000000 0.000000 -4.880000
v 15.224286 -0.612000 -5.007989
v 15.000401 -0.612000 -5.200139
v 15.000000 0.000000 -4.880000
v 15.000000 0.000000 -2.440000
v 15.198370 -0.612000 -2.499732
v 15.224286 -0.612000 -5.007989
v 15.000000 0.000000 -2.440000
v 15.000000 0.000000 0.000000
v 15.166772 -0.612000 0.000000
v 15.198370 -0.612000 -2.499732
v 15.000000 0.000000 0.000000
v 15.000000 0.000000 2.440000
v 15.193806 -0.612000 2.498981
v 15.166772 -0.612000 0.000000
v 15.000000 0.000000 2.440000
v 15.000000 0.000000 4.880000
v 15.210434 -0.612000 5.003432
v 15.193806 -0.612000 2.498981
v 15.000000 0.000000 4.880000
v 14.820000 0.000000 5.060000
v 14.987396 -0.612000 5.195631
v 15.210434 -0.612000 5.003432
v 14.820000 0.000000 5.060000
v 14.640000 0.000000 5.240000
v 14.797816 -0.612000 5.399203
v 14.987396 -0.612000 5.195631
v 14.640000 0.000000 5.240000
v 14.460000 0.000000 5.420000
v 14.631231 -0.612000 5.611979
v 14.797816 -0.612000 5.399203
v 14.460000 0.000000 5.420000
v 14.280000 0.000000 5.600000
v 14.412414 -0.612000 5.805000
v 14.631231 -0.612000 5.611979
v 14.280000 0.000000 5.600000
v 7.140000 0.000000 5.600000
v 7.184264 -0.612000 5.787324
v 14.412414 -0.612000 5.805000
v 7.140000 0.000000 5.600000
v 0.000000 0.000000 5.600000
v 0.000000 -0.612000 5.798210
v 7.184264 -0.612000 5.787324
v 0.000000 0.000000 5.600000
v -7.140000 0.000000 5.600000
v -7.204752 -0.612000 5.803828
v 0.000000 -0.612000 5.798210
v -7.140000 0.000000 5.600000
v -14.280000 0.000000 5.600000
v -14.376023 -0.612000 5.790343
v -7.204752 -0.612000 5.803828
v -14.280000 0.000000 5.600000
v -14.460000 0.000000 5.420000
v -14.583927 -0.612000 5.593835
v -14.376023 -0.612000 5.790343
v -14.460000 0.000000 5.420000
v -14.640000 0.000000 5.240000
v -14.823491 -0.612000 5.408571
v -14.583927 -0.612000 5.593835
v -14.640000 0.000000 5.240000
v -14.820000 0.000000 5.060000
v -15.015381 -0.612000 5.205332
v -14.823491 -0.612000 5.408571
v -14.820000 0.000000 5.060000
v -15.000000 0.000000 4.880000
v -15.191506 -0.612000 4.997206
v -15.015381 -0.612000 5.205332
v -15.000000 0.000000 4.880000
v -15.000000 0.000000 2.440000
v -15.212001 -0.612000 2.501974
v -15.191506 -0.612000 4.997206
v -15.000000 0.000000 2.440000
v -15.000000 0.000000 0.000000
v -15.217101 -0.612000 0.000000
v -15.212001 -0.612000 2.501974
v -15.000000 0.000000 0.000000
v -15.000000 0.000000 -2.440000
v -15.176211 -0.612000 -2.496087
v -15.217101 -0.612000 0.000000
v -15.000000 0.000000 -2.440000
v -15.000000 0.000000 -4.880000
v -15.174556 -0.612000 -4.991630
v -15.176211 -0.612000 -2.496087
v -15.000000 0.000000 -4.880000
v -14.820000 0.000000 -5.060000
v -15.009645 -0.612000 -5.203344
v -15.174556 -0.612000 -4.991630
v -14.820000 0.000000 -5.060000
v -14.640000 0.000000 -5.240000
v -14.804168 -0.612000 -5.401521
v -15.009645 -0.612000 -5.203344
v -14.640000 0.000000 -5.240000
v -14.460000 0.000000 -5.420000
v -14.587602 -0.612000 -5.595245
v -14.804168 -0.612000 -5.401521
v -14.460000 0.000000 -5.420000
v -14.280000 0.000000 -5.600000
v -14.416276 -0.612000 -5.806556
v -14.587602 -0.612000 -5.595245
v -14.280000 0.000000 -5.600000
v -7.140000 0.000000 -5.600000
v -7.224098 -0.612000 -5.819413
v -14.416276 -0.612000 -5.806556
v -7.140000 0.000000 -5.600000
v 0.000000 0.000000 -5.600000
v 0.000000 -0.612000 -5.790488
v -7.224098 -0.612000 -5.819413
v 0.000000 0.000000 -5.600000
v 7.140000 0.000000 -5.600000
v 7.184368 -0.612000 -5.787407
v 0.000000 -0.612000 -5.790488
v 7.140000 0.000000 -5.600000
v 14.280000 0.000000 -5.600000
v 14.404754 -0.612000 -5.801915
v 7.184368 -0.612000 -5.787407
v 14.404754 -0.612000 -5.801915
v 14.623610 -0.612000 -5.609056
v 14.914605 -1.972000 -5.930808
v 14.711857 -1.972000 -6.165446
v 14.623610 -0.612000 -5.609056
v 14.797530 -0.612000 -5.399099
v 15.090970 -1.972000 -5.687175
v 14.914605 -1.972000 -5.930808
v 14.797530 -0.612000 -5.399099
v 15.000401 -0.612000 -5.200139
v 15.407536 -1.972000 -5.495522
v 15.090970 -1.972000 -5.687175
v 15.000401 -0.612000 -5.200139
v 15.224286 -0.612000 -5.007989
v 15.660532 -1.972000 -5.278831
v 15.407536 -1.972000 -5.495522
v 15.224286 -0.612000 -5.007989
v 15.198370 -0.612000 -2.499732
v 15.534162 -1.972000 -2.618117
v 15.660532 -1.972000 -5.278831
v 15.198370 -0.612000 -2.499732
v 15.166772 -0.612000 0.000000
v 15.510111 -1.972000 0.000000
v 15.534162 -1.972000 -2.618117
v 15.166772 -0.612000 0.000000
v 15.193806 -0.612000 2.498981
v 15.596376 -1.972000 2.628603
v 15.510111 -1.972000 0.000000
v 15.193806 -0.612000 2.498981
v 15.210434 -0.612000 5.003432
v 15.552852 -1.972000 5.242535
v 15.596376 -1.972000 2.628603
v 15.210434 -0.612000 5.003432
v 14.987396 -0.612000 5.195631
v 15.273665 -1.972000 5.447773
v 15.552852 -1.972000 5.242535
v 14.987396 -0.612000 5.195631
v 14.797816 -0.612000 5.399203
v 15.156652 -1.972000 5.711928
v 15.273665 -1.972000 5.447773
v 14.797816 -0.612000 5.399203
v 14.631231 -0.612000 5.611979
v 14.991914 -1.972000 5.961550
v 15.156652 -1.972000 5.711928
v 14.631231 -0.612000 5.611979
v 14.412414 -0.612000 5.805000
v 14.671778 -1.972000 6.148650
v 14.991914 -1.972000 5.961550
v 14.412414 -0.612000 5.805000
v 7.184264 -0.612000 5.787324
v 7.321667 -1.972000 6.136730
v 14.671778 -1.972000 6.148650
v 7.184264 -0.612000 5.787324
v 0.000000 -0.612000 5.798210
v 0.000000 -1.972000 6.203492
v 7.321667 -1.972000 6.136730
v 0.000000 -0.612000 5.798210
v -7.204752 -0.612000 5.803828
v -7.323539 -1.972000 6.138298
v 0.000000 -1.972000 6.203492
v -7.204752 -0.612000 5.803828
v -14.376023 -0.612000 5.790343
v -14.573687 -1.972000 6.107542
v -7.323539 -1.972000 6.138298
v -14.376023 -0.612000 5.790343
v -14.583927 -0.612000 5.593835
v -14.886807 -1.972000 5.919754
v -14.573687 -1.972000 6.107542
v -14.583927 -0.612000 5.593835
v -14.823491 -0.612000 5.408571
v -15.181890 -1.972000 5.721440
v -14.886807 -1.972000 5.919754
v -14.823491 -0.612000 5.408571
v -15.015381 -0.612000 5.205332
v -15.336471 -1.972000 5.470174
v -15.181890 -1.972000 5.721440
v -15.015381 -0.612000 5.205332
v -15.191506 -0.612000 4.997206
v -15.572648 -1.972000 5.249207
v -15.336471 -1.972000 5.470174
v -15.191506 -0.612000 4.997206
v -15.212001 -0.612000 2.501974
v -15.668840 -1.972000 2.640816
v -15.572648 -1.972000 5.249207
v -15.212001 -0.612000 2.501974
v -15.217101 -0.612000 0.000000
v -15.602838 -1.972000 0.000000
v -15.668840 -1.972000 2.640816
v -15.217101 -0.612000 0.000000
v -15.176211 -0.612000 -2.496087
v -15.488698 -1.972000 -2.610455
v -15.602838 -1.972000 0.000000
v -15.176211 -0.612000 -2.496087
v -15.174556 -0.612000 -4.991630
v -15.549336 -1.972000 -5.241349
v -15.488698 -1.972000 -2.610455
v -15.174556 -0.612000 -4.991630
v -15.009645 -0.612000 -5.203344
v -15.372554 -1.972000 -5.483045
v -15.549336 -1.972000 -5.241349
v -15.009645 -0.612000 -5.203344
v -14.804168 -0.612000 -5.401521
v -15.070423 -1.972000 -5.679432
v -15.372554 -1.972000 -5.483045
v -14.804168 -0.612000 -5.401521
v -14.587602 -0.612000 -5.595245
v -14.867482 -1.972000 -5.912069
v -15.070423 -1.972000 -5.679432
v -14.587602 -0.612000 -5.595245
v -14.416276 -0.612000 -5.806556
v -14.761941 -1.972000 -6.186435
v -14.867482 -1.972000 -5.912069
v -14.416276 -0.612000 -5.806556
v -7.224098 -0.612000 -5.819413
v -7.384478 -1.972000 -6.189375
v -14.761941 -1.972000 -6.186435
v -7.224098 -0.612000 -5.819413
v 0.000000 -0.612000 -5.790488
v 0.000000 -1.972000 -6.108651
v -7.384478 -1.972000 -6.189375
v 0.000000 -0.612000 -5.790488
v 7.184368 -0.612000 -5.787407
v 7.343618 -1.972000 -6.155128
v 0.000000 -1.972000 -6.108651
v 7.184368 -0.612000 -5.787407
v 14.404754 -0.612000 -5.801915
v 14.711857 -1.972000 -6.165446
v 7.343618 -1.972000 -6.155128
v 14.711857 -1.972000 -6.165446
v 14.914605 -1.972000 -5.930808
v 14.495756 -3.080000 -5.521244
v 14.343575 -3.080000 -5.753440
v 14.914605 -1.972000 -5.930808
v 15.090970 -1.972000 -5.687175
v 14.745419 -3.080000 -5.326539
v 14.495756 -3.080000 -5.521244
v 15.090970 -1.972000 -5.687175
v 15.407536 -1.972000 -5.495522
v 15.035943 -3.080000 -5.144272
v 14.745419 -3.080000 -5.326539
v 15.407536 -1.972000 -5.495522
v 15.660532 -1.972000 -5.278831
v 15.201690 -3.080000 -4.918636
v 15.035943 -3.080000 -5.144272
v 15.660532 -1.972000 -5.278831
v 15.534162 -1.972000 -2.618117
v 15.145573 -3.080000 -2.450239
v 15.201690 -3.080000 -4.918636
v 15.534162 -1.972000 -2.618117
v 15.510111 -1.972000 0.000000
v 15.194939 -3.080000 0.000000
v 15.145573 -3.080000 -2.450239
v 15.510111 -1.972000 0.000000
v 15.596376 -1.972000 2.628603
v 15.190765 -3.080000 2.457551
v 15.194939 -3.080000 0.000000
v 15.596376 -1.972000 2.628603
v 15.552852 -1.972000 5.242535
v 15.108767 -3.080000 4.888570
v 15.190765 -3.080000 2.457551
v 15.552852 -1.972000 5.242535
v 15.273665 -1.972000 5.447773
v 14.923172 -3.080000 5.105689
v 15.108767 -3.080000 4.888570
v 15.273665 -1.972000 5.447773
v 15.156652 -1.972000 5.711928
v 14.796725 -3.080000 5.345072
v 14.923172 -3.080000 5.105689
v 15.156652 -1.972000 5.711928
v 14.991914 -1.972000 5.961550
v 14.561019 -3.080000 5.546102
v 14.796725 -3.080000 5.345072
v 14.991914 -1.972000 5.961550
v 14.671778 -1.972000 6.148650
v 14.317435 -3.080000 5.742954
v 14.561019 -3.080000 5.546102
v 14.671778 -1.972000 6.148650
v 7.321667 -1.972000 6.136730
v 7.204850 -3.080000 5.779963
v 14.317435 -3.080000 5.742954
v 7.321667 -1.972000 6.136730
v 0.000000 -1.972000 6.203492
v 0.000000 -3.080000 5.799851
v 7.204850 -3.080000 5.779963
v 0.000000 -1.972000 6.203492
v -7.323539 -1.972000 6.138298
v -7.129098 -3.080000 5.719193
v 0.000000 -3.080000 5.799851
v -7.323539 -1.972000 6.138298
v -14.573687 -1.972000 6.107542
v -14.288697 -3.080000 5.731427
v -7.129098 -3.080000 5.719193
v -14.573687 -1.972000 6.107542
v -14.886807 -1.972000 5.919754
v -14.562411 -3.080000 5.546632
v -14.288697 -3.080000 5.731427
v -14.886807 -1.972000 5.919754
v -15.181890 -1.972000 5.721440
v -14.741168 -3.080000 5.325003
v -14.562411 -3.080000 5.546632
v -15.181890 -1.972000 5.721440
v -15.336471 -1.972000 5.470174
v -14.923245 -3.080000 5.105714
v -14.741168 -3.080000 5.325003
v -15.336471 -1.972000 5.470174
v -15.572648 -1.972000 5.249207
v -15.215775 -3.080000 4.923193
v -14.923245 -3.080000 5.105714
v -15.572648 -1.972000 5.249207
v -15.668840 -1.972000 2.640816
v -15.244830 -3.080000 2.466297
v -15.215775 -3.080000 4.923193
v -15.668840 -1.972000 2.640816
v -15.602838 -1.972000 0.000000
v -15.159853 -3.080000 0.000000
v -15.244830 -3.080000 2.466297
v -15.602838 -1.972000 0.000000
v -15.488698 -1.972000 -2.610455
v -15.153037 -3.080000 -2.451447
v -15.159853 -3.080000 0.000000
v -15.488698 -1.972000 -2.610455
v -15.549336 -1.972000 -5.241349
v -15.202399 -3.080000 -4.918865
v -15.153037 -3.080000 -2.451447
v -15.549336 -1.972000 -5.241349
v -15.372554 -1.972000 -5.483045
v -14.940160 -3.080000 -5.111501
v -15.202399 -3.080000 -4.918865
v -15.372554 -1.972000 -5.483045
v -15.070423 -1.972000 -5.679432
v -14.684485 -3.080000 -5.304528
v -14.940160 -3.080000 -5.111501
v -15.070423 -1.972000 -5.679432
v -14.867482 -1.972000 -5.912069
v -14.553413 -3.080000 -5.543204
v -14.684485 -3.080000 -5.304528
v -14.867482 -1.972000 -5.912069
v -14.761941 -1.972000 -6.186435
v -14.385441 -3.080000 -5.770233
v -14.553413 -3.080000 -5.543204
v -14.761941 -1.972000 -6.186435
v -7.384478 -1.972000 -6.189375
v -7.161505 -3.080000 -5.745191
v -14.385441 -3.080000 -5.770233
v -7.384478 -1.972000 -6.189375
v 0.000000 -1.972000 -6.108651
v 0.000000 -3.080000 -5.752894
v -7.161505 -3.080000 -5.745191
v 0.000000 -1.972000 -6.108651
v 7.343618 -1.972000 -6.155128
v 7.215708 -3.080000 -5.788674
v 0.000000 -3.080000 -5.752894
v 7.343618 -1.972000 -6.155128
v 14.711857 -1.972000 -6.165446
v 14.343575 -3.080000 -5.753440
v 7.215708 -3.080000 -5.788674
v 0.000000 -3.400000 0.000000
v 14.343575 -3.080000 -5.753440
v 14.495756 -3.080000 -5.521244
v 0.000000 -3.400000 0.000000
v 14.495756 -3.080000 -5.521244
v 14.745419 -3.080000 -5.326539
v 0.000000 -3.400000 0.000000
v 14.745419 -3.080000 -5.326539
v 15.035943 -3.080000 -5.144272
v 0.000000 -3.400000 0.000000
v 15.035943 -3.080000 -5.144272
v 15.201690 -3.080000 -4.918636
v 0.000000 -3.400000 0.000000
v 15.201690 -3.080000 -4.918636
v 15.145573 -3.080000 -2.450239
v 0.000000 -3.400000 0.000000
v 15.145573 -3.080000 -2.450239
v 15.194939 -3.080000 0.000000
v 0.000000 -3.400000 0.000000
v 15.194939 -3.080000 0.000000
v 15.190765 -3.080000 2.457551
v 0.000000 -3.400000 0.000000
v 15.190765 -3.080000 2.457551
v 15.108767 -3.080000 4.888570
v 0.000000 -3.400000 0.000000
v 15.108767 -3.080000 4.888570
v 14.923172 -3.080000 5.105689
v 0.000000 -3.400000 0.000000
v 14.923172 -3.080000 5.105689
v 14.796725 -3.080000 5.345072
v 0.000000 -3.400000 0.000000
v 14.796725 -3.080000 5.345072
v 14.561019 -3.080000 5.546102
v 0.000000 -3.400000 0.000000
v 14.561019 -3.080000 5.546102
v 14.317435 -3.080000 5.742954
v 0.000000 -3.400000 0.000000
v 14.317435 -3.080000 5.742954
v 7.204850 -3.080000 5.779963
v 0.000000 -3.400000 0.000000
v 7.204850 -3.080000 5.779963
v 0.000000 -3.080000 5.799851
v 0.000000 -3.400000 0.000000
v 0.000000 -3.080000 5.799851
v -7.129098 -3.080000 5.719193
v 0.000000 -3.400000 0.000000
v -7.129098 -3.080000 5.719193
v -14.288697 -3.080000 5.731427
v 0.000000 -3.400000 0.000000
v -14.288697 -3.080000 5.731427
v -14.562411 -3.080000 5.546632
v 0.000000 -3.400000 0.000000
v -14.562411 -3.080000 5.546632
v -14.741168 -3.080000 5.325003
v 0.000000 -3.400000 0.000000
v -14.741168 -3.080000 5.325003
v -14.923245 -3.080000 5.105714
v 0.000000 -3.400000 0.000000
v -14.923245 -3.080000 5.105714
v -15.215775 -3.080000 4.923193
v 0.000000 -3.400000 0.000000
v -15.215775 -3.080000 4.923193
v -15.244830 -3.080000 2.466297
v 0.000000 -3.400000 0.000000
v -15.244830 -3.080000 2.466297
v -15.159853 -3.080000 0.000000
v 0.000000 -3.400000 0.000000
v -15.159853 -3.080000 0.000000
v -15.153037 -3.080000 -2.451447
v 0.000000 -3.400000 0.000000
v -15.153037 -3.080000 -2.451447
v -15.202399 -3.080000 -4.918865
v 0.000000 -3.400000 0.000000
v -15.202399 -3.080000 -4.918865
v -14.940160 -3.080000 -5.111501
v 0.000000 -3.400000 0.000000
v -14.940160 -3.080000 -5.111501
v -14.684485 -3.080000 -5.304528
v 0.000000 -3.400000 0.000000
v -14.684485 -3.080000 -5.304528
v -14.553413 -3.080000 -5.543204
v 0.000000 -3.400000 0.000000
v -14.553413 -3.080000 -5.543204
v -14.385441 -3.080000 -5.770233
v 0.000000 -3.400000 0.000000
v -14.385441 -3.080000 -5.770233
v -7.161505 -3.080000 -5.745191
v 0.000000 -3.400000 0.000000
v -7.161505 -3.080000 -5.745191
v 0.000000 -3.080000 -5.752894
v 0.000000 -3.400000 0.000000
v 0.000000 -3.080000 -5.752894
v 7.215708 -3.080000 -5.788674
v 0.000000 -3.400000 0.000000
v 7.215708 -3.080000 -5.788674
v 14.343575 -3.080000 -5.753440
v -12.140000 0.030000 -5.075000
v -11.860000 0.030000 -5.075000
v -11.860000 -0.110000 -5.075000
v -12.140000 -0.110000 -5.075000
v -12.140000 -0.110000 5.075000
v -11.860000 -0.110000 5.075000
v -11.860000 0.030000 5.075000
v -12.140000 0.030000 5.075000
v -12.140000 -0.110000 -5.075000
v -12.140000 -0.110000 5.075000
v -12.140000 0.030000 5.075000
v -12.140000 0.030000 -5.075000
v -11.860000 -0.110000 5.075000
v -11.860000 -0.110000 -5.075000
v -11.860000 0.030000 -5.075000
v -11.860000 0.030000 5.075000
v -12.140000 0.030000 -5.075000
v -12.140000 0.030000 5.075000
v -11.860000 0.030000 5.075000
v -11.860000 0.030000 -5.075000
v -12.140000 -0.110000 -5.075000
v -11.860000 -0.110000 -5.075000
v -11.860000 -0.110000 5.075000
v -12.140000 -0.110000 5.075000
v -6.140000 0.030000 -5.075000
v -5.860000 0.030000 -5.075000
v -5.860000 -0.110000 -5.075000
v -6.140000 -0.110000 -5.075000
v -6.140000 -0.110000 5.075000
v -5.860000 -0.110000 5.075000
v -5.860000 0.030000 5.075000
v -6.140000 0.030000 5.075000
v -6.140000 -0.110000 -5.075000
v -6.140000 -0.110000 5.075000
v -6.140000 0.030000 5.075000
v -6.140000 0.030000 -5.075000
v -5.860000 -0.110000 5.075000
v -5.860000 -0.110000 -5.075000
v -5.860000 0.030000 -5.075000
v -5.860000 0.030000 5.075000
v -6.140000 0.030000 -5.075000
v -6.140000 0.030000 5.075000
v -5.860000 0.030000 5.075000
v -5.860000 0.030000 -5.075000
v -6.140000 -0.110000 -5.075000
v -5.860000 -0.110000 -5.075000
v -5.860000 -0.110000 5.075000
v -6.140000 -0.110000 5.075000
v -0.140000 0.030000 -5.075000
v 0.140000 0.030000 -5.075000
v 0.140000 -0.110000 -5.075000
v -0.140000 -0.110000 -5.075000
v -0.140000 -0.110000 5.075000
v 0.140000 -0.110000 5.075000
v 0.140000 0.030000 5.075000
v -0.140000 0.030000 5.075000
v -0.140000 -0.110000 -5.075000
v -0.140000 -0.110000 5.075000
v -0.140000 0.030000 5.075000
v -0.140000 0.030000 -5.075000
v 0.140000 -0.110000 5.075000
v 0.140000 -0.110000 -5.075000
v 0.140000 0.030000 -5.075000
v 0.140000 0.030000 5.075000
v -0.140000 0.030000 -5.075000
v -0.140000 0.030000 5.075000
v 0.140000 0.030000 5.075000
v 0.140000 0.030000 -5.075000
v -0.140000 -0.110000 -5.075000
v 0.140000 -0.110000 -5.075000
v 0.140000 -0.110000 5.075000
v -0.140000 -0.110000 5.075000
v 5.860000 0.030000 -5.075000
v 6.140000 0.030000 -5.075000
v 6.140000 -0.110000 -5.075000
v 5.860000 -0.110000 -5.075000
v 5.860000 -0.110000 5.075000
v 6.140000 -0.110000 5.075000
v 6.140000 0.030000 5.075000
v 5.860000 0.030000 5.075000
v 5.860000 -0.110000 -5.075000
v 5.860000 -0.110000 5.075000
v 5.860000 0.030000 5.075000
v 5.860000 0.030000 -5.075000
v 6.140000 -0.110000 5.075000
v 6.140000 -0.110000 -5.075000
v 6.140000 0.030000 -5.075000
v 6.140000 0.030000 5.075000
v 5.860000 0.030000 -5.075000
v 5.860000 0.030000 5.075000
v 6.140000 0.030000 5.075000
v 6.140000 0.030000 -5.075000
v 5.860000 -0.110000 -5.075000
v 6.140000 -0.110000 -5.075000
v 6.140000 -0.110000 5.075000
v 5.860000 -0.110000 5.075000
v 11.860000 0.030000 -5.075000
v 12.140000 0.030000 -5.075000
v 12.140000 -0.110000 -5.075000
v 11.860000 -0.110000 -5.075000
v 11.860000 -0.110000 5.075000
v 12.140000 -0.110000 5.075000
v 12.140000 0.030000 5.075000
v 11.860000 0.030000 5.075000
v 11.860000 -0.110000 -5.075000
v 11.860000 -0.110000 5.075000
v 11.860000 0.030000 5.075000
v 11.860000 0.030000 -5.075000
v 12.140000 -0.110000 5.075000
v 12.140000 -0.110000 -5.075000
v 12.140000 0.030000 -5.075000
v 12.140000 0.030000 5.075000
v 11.860000 0.030000 -5.075000
v 11.860000 0.030000 5.075000
v 12.140000 0.030000 5.075000
v 12.140000 0.030000 -5.075000
v 11.860000 -0.110000 -5.075000
v 12.140000 -0.110000 -5.075000
v 12.140000 -0.110000 5.075000
v 11.860000 -0.110000 5.075000
vt 0.982000 0.983929
vt 0.976000 1.000000
vt 0.500000 0.500000
vt 0.988000 0.967857
vt 0.982000 0.983929
vt 0.500000 0.500000
vt 0.994000 0.951786
vt 0.988000 0.967857
vt 0.500000 0.500000
vt 1.000000 0.935714
vt 0.994000 0.951786
vt 0.500000 0.500000
vt 1.000000 0.717857
vt 1.000000 0.935714
vt 0.500000 0.500000
vt 1.000000 0.500000
vt 1.000000 0.717857
vt 0.500000 0.500000
vt 1.000000 0.282143
vt 1.000000 0.500000
vt 0.500000 0.500000
vt 1.000000 0.064286
vt 1.000000 0.282143
vt 0.500000 0.500000
vt 0.994000 0.048214
vt 1.000000 0.064286
vt 0.500000 0.500000
vt 0.988000 0.032143
vt 0.994000 0.048214
vt 0.500000 0.500000
vt 0.982000 0.016071
vt 0.988000 0.032143
vt 0.500000 0.500000
vt 0.976000 0.000000
vt 0.982000 0.016071
vt 0.500000 0.500000
vt 0.738000 0.000000
vt 0.976000 0.000000
vt 0.500000 0.500000
vt 0.500000 0.000000
vt 0.738000 0.000000
vt 0.500000 0.500000
vt 0.262000 0.000000
vt 0.500000 0.000000
vt 0.500000 0.500000
vt 0.024000 0.000000
vt 0.262000 0.000000
vt 0.500000 0.500000
vt 0.018000 0.016071
vt 0.024000 0.000000
vt 0.500000 0.500000
vt 0.012000 0.032143
vt 0.018000 0.016071
vt 0.500000 0.500000
vt 0.006000 0.048214
vt 0.012000 0.032143
vt 0.500000 0.500000
vt 0.000000 0.064286
vt 0.006000 0.048214
vt 0.500000 0.500000
vt 0.000000 0.282143
vt 0.000000 0.064286
vt 0.500000 0.500000
vt 0.000000 0.500000
vt 0.000000 0.282143
vt 0.500000 0.500000
vt 0.000000 0.717857
vt 0.000000 0.500000
vt 0.500000 0.500000
vt 0.000000 0.935714
vt 0.000000 0.717857
vt 0.500000 0.500000
vt 0.006000 0.951786
vt 0.000000 0.935714
vt 0.500000 0.500000
vt 0.012000 0.967857
vt 0.006000 0.951786
vt 0.500000 0.500000
vt 0.018000 0.983929
vt 0.012000 0.967857
vt 0.500000 0.500000
vt 0.024000 1.000000
vt 0.018000 0.983929
vt 0.500000 0.500000
vt 0.262000 1.000000
vt 0.024000 1.000000
vt 0.500000 0.500000
vt 0.500000 1.000000
vt 0.262000 1.000000
vt 0.500000 0.500000
vt 0.738000 1.000000
vt 0.500000 1.000000
vt 0.500000 0.500000
vt 0.976000 1.000000
vt 0.738000 1.000000
vt 0.500000 0.500000
vt 0.000000 0.000000
vt 0.031250 0.000000
vt 0.031250 1.000000
vt 0.000000 1.000000
vt 0.031250 0.000000
vt 0.062500 0.000000
vt 0.062500 1.000000
vt 0.031250 1.000000
vt 0.062500 0.000000
vt 0.093750 0.000000
vt 0.093750 1.000000
vt 0.062500 1.000000
vt 0.093750 0.000000
vt 0.125000 0.000000
vt 0.125000 1.000000
vt 0.093750 1.000000
vt 0.125000 0.000000
vt 0.156250 0.000000
vt 0.156250 1.000000
vt 0.125000 1.000000
vt 0.156250 0.000000
vt 0.187500 0.000000
vt 0.187500 1.000000
vt 0.156250 1.000000
vt 0.187500 0.000000
vt 0.218750 0.000000
vt 0.218750 1.000000
vt 0.187500 1.000000
vt 0.218750 0.000000
vt 0.250000 0.000000
vt 0.250000 1.000000
vt 0.218750 1.000000
vt 0.250000 0.000000
vt 0.281250 0.000000
vt 0.281250 1.000000
vt 0.250000 1.000000
vt 0.281250 0.000000
vt 0.312500 0.000000
vt 0.312500 1.000000
vt 0.281250 1.000000
vt 0.312500 0.000000
vt 0.343750 0.000000
vt 0.343750 1.000000
vt 0.312500 1.000000
vt 0.343750 0.000000
vt 0.375000 0.000000
vt 0.375000 1.000000
vt 0.343750 1.000000
vt 0.375000 0.000000
vt 0.406250 0.000000
vt 0.406250 1.000000
vt 0.375000 1.000000
vt 0.406250 0.000000
vt 0.437500 0.000000
vt 0.437500 1.000000
vt 0.406250 1.000000
vt 0.437500 0.000000
vt 0.468750 0.000000
vt 0.468750 1.000000
vt 0.437500 1.000000
vt 0.468750 0.000000
vt 0.500000 0.000000
vt 0.500000 1.000000
vt 0.468750 1.000000
vt 0.500000 0.000000
vt 0.531250 0.000000
vt 0.531250 1.000000
vt 0.500000 1.000000
vt 0.531250 0.000000
vt 0.562500 0.000000
vt 0.562500 1.000000
vt 0.531250 1.000000
vt 0.562500 0.000000
vt 0.593750 0.000000
vt 0.593750 1.000000
vt 0.562500 1.000000
vt 0.593750 0.000000
vt 0.625000 0.000000
vt 0.625000 1.000000
vt 0.593750 1.000000
vt 0.625000 0.000000
vt 0.656250 0.000000
vt 0.656250 1.000000
vt 0.625000 1.000000
vt 0.656250 0.000000
vt 0.687500 0.000000
vt 0.687500 1.000000
vt 0.656250 1.000000
vt 0.687500 0.000000
vt 0.718750 0.000000
vt 0.718750 1.000000
vt 0.687500 1.000000
vt 0.718750 0.000000
vt 0.750000 0.000000
vt 0.750000 1.000000
vt 0.718750 1.000000
vt 0.750000 0.000000
vt 0.781250 0.000000
vt 0.781250 1.000000
vt 0.750000 1.000000
vt 0.781250 0.000000
vt 0.812500 0.000000
vt 0.812500 1.000000
vt 0.781250 1.000000
vt 0.812500 0.000000
vt 0.843750 0.000000
vt 0.843750 1.000000
vt 0.812500 1.000000
vt 0.843750 0.000000
vt 0.875000 0.000000
vt 0.875000 1.000000
vt 0.843750 1.000000
vt 0.875000 0.000000
vt 0.906250 0.000000
vt 0.906250 1.000000
vt 0.875000 1.000000
vt 0.906250 0.000000
vt 0.937500 0.000000
vt 0.937500 1.000000
vt 0.906250 1.000000
vt 0.937500 0.000000
vt 0.968750 0.000000
vt 0.968750 1.000000
vt 0.937500 1.000000
vt 0.968750 0.000000
vt 1.000000 0.000000
vt 1.000000 1.000000
vt 0.968750 1.000000
vt 0.000000 0.000000
vt 0.031250 0.000000
vt 0.031250 1.000000
vt 0.000000 1.000000
vt 0.031250 0.000000
vt 0.062500 0.000000
vt 0.062500 1.000000
vt 0.031250 1.000000
vt 0.062500 0.000000
vt 0.093750 0.000000
vt 0.093750 1.000000
vt 0.062500 1.000000
vt 0.093750 0.000000
vt 0.125000 0.000000
vt 0.125000 1.000000
vt 0.093750 1.000000
vt 0.125000 0.000000
vt 0.156250 0.000000
vt 0.156250 1.000000
vt 0.125000 1.000000
vt 0.156250 0.000000
vt 0.187500 0.000000
vt 0.187500 1.000000
vt 0.156250 1.000000
vt 0.187500 0.000000
vt 0.218750 0.000000
vt 0.218750 1.000000
vt 0.187500 1.000000
vt 0.218750 0.000000
vt 0.250000 0.000000
vt 0.250000 1.000000
vt 0.218750 1.000000
vt 0.250000 0.000000
vt 0.281250 0.000000
vt 0.281250 1.000000
vt 0.250000 1.000000
vt 0.281250 0.000000
vt 0.312500 0.000000
vt 0.312500 1.000000
vt 0.281250 1.000000
vt 0.312500 0.000000
vt 0.343750 0.000000
vt 0.343750 1.000000
vt 0.312500 1.000000
vt 0.343750 0.000000
vt 0.375000 0.000000
vt 0.375000 1.000000
vt 0.343750 1.000000
vt 0.375000 0.000000
vt 0.406250 0.000000
vt 0.406250 1.000000
vt 0.375000 1.000000
vt 0.406250 0.000000
vt 0.437500 0.000000
vt 0.437500 1.000000
vt 0.406250 1.000000
vt 0.437500 0.000000
vt 0.468750 0.000000
vt 0.468750 1.000000
vt 0.437500 1.000000
vt 0.468750 0.000000
vt 0.500000 0.000000
vt 0.500000 1.000000
vt 0.468750 1.000000
vt 0.500000 0.000000
vt 0.531250 0.000000
vt 0.531250 1.000000
vt 0.500000 1.000000
vt 0.531250 0.000000
vt 0.562500 0.000000
vt 0.562500 1.000000
vt 0.531250 1.000000
vt 0.562500 0.000000
vt 0.593750 0.000000
vt 0.593750 1.000000
vt 0.562500 1.000000
vt 0.593750 0.000000
vt 0.625000 0.000000
vt 0.625000 1.000000
vt 0.593750 1.000000
vt 0.625000 0.000000
vt 0.656250 0.000000
vt 0.656250 1.000000
vt 0.625000 1.000000
vt 0.656250 0.000000
vt 0.687500 0.000000
vt 0.687500 1.000000
vt 0.656250 1.000000
vt 0.687500 0.000000
vt 0.718750 0.000000
vt 0.718750 1.000000
vt 0.687500 1.000000
vt 0.718750 0.000000
vt 0.750000 0.000000
vt 0.750000 1.000000
vt 0.718750 1.000000
vt 0.750000 0.000000
vt 0.781250 0.000000
vt 0.781250 1.000000
vt 0.750000 1.000000
vt 0.781250 0.000000
vt 0.812500 0.000000
vt 0.812500 1.000000
vt 0.781250 1.000000
vt 0.812500 0.000000
vt 0.843750 0.000000
vt 0.843750 1.000000
vt 0.812500 1.000000
vt 0.843750 0.000000
vt 0.875000 0.000000
vt 0.875000 1.000000
vt 0.843750 1.000000
vt 0.875000 0.000000
vt 0.906250 0.000000
vt 0.906250 1.000000
vt 0.875000 1.000000
vt 0.906250 0.000000
vt 0.937500 0.000000
vt 0.937500 1.000000
vt 0.906250 1.000000
vt 0.937500 0.000000
vt 0.968750 0.000000
vt 0.968750 1.000000
vt 0.937500 1.000000
vt 0.968750 0.000000
vt 1.000000 0.000000
vt 1.000000 1.000000
vt 0.968750 1.000000
vt 0.000000 0.000000
vt 0.031250 0.000000
vt 0.031250 1.000000
vt 0.000000 1.000000
vt 0.031250 0.000000
vt 0.062500 0.000000
vt 0.062500 1.000000
vt 0.031250 1.000000
vt 0.062500 0.000000
vt 0.093750 0.000000
vt 0.093750 1.000000
vt 0.062500 1.000000
vt 0.093750 0.000000
vt 0.125000 0.000000
vt 0.125000 1.000000
vt 0.093750 1.000000
vt 0.125000 0.000000
vt 0.156250 0.000000
vt 0.156250 1.000000
vt 0.125000 1.000000
vt 0.156250 0.000000
vt 0.187500 0.000000
vt 0.187500 1.000000
vt 0.156250 1.000000
vt 0.187500 0.000000
vt 0.218750 0.000000
vt 0.218750 1.000000
vt 0.187500 1.000000
vt 0.218750 0.000000
vt 0.250000 0.000000
vt 0.250000 1.000000
vt 0.218750 1.000000
vt 0.250000 0.000000
vt 0.281250 0.000000
vt 0.281250 1.000000
vt 0.250000 1.000000
vt 0.281250 0.000000
vt 0.312500 0.000000
vt 0.312500 1.000000
vt 0.281250 1.000000
vt 0.312500 0.000000
vt 0.343750 0.000000
vt 0.343750 1.000000
vt 0.312500 1.000000
vt 0.343750 0.000000
vt 0.375000 0.000000
vt 0.375000 1.000000
vt 0.343750 1.000000
vt 0.375000 0.000000
vt 0.406250 0.000000
vt 0.406250 1.000000
vt 0.375000 1.000000
vt 0.406250 0.000000
vt 0.437500 0.000000
vt 0.437500 1.000000
vt 0.406250 1.000000
vt 0.437500 0.000000
vt 0.468750 0.000000
vt 0.468750 1.000000
vt 0.437500 1.000000
vt 0.468750 0.000000
vt 0.500000 0.000000
vt 0.500000 1.000000
vt 0.468750 1.000000
vt 0.500000 0.000000
vt 0.531250 0.000000
vt 0.531250 1.000000
vt 0.500000 1.000000
vt 0.531250 0.000000
vt 0.562500 0.000000
vt 0.562500 1.000000
vt 0.531250 1.000000
vt 0.562500 0.000000
vt 0.593750 0.000000
vt 0.593750 1.000000
vt 0.562500 1.000000
vt 0.593750 0.000000
vt 0.625000 0.000000
vt 0.625000 1.000000
vt 0.593750 1.000000
vt 0.625000 0.000000
vt 0.656250 0.000000
vt 0.656250 1.000000
vt 0.625000 1.000000
vt 0.656250 0.000000
vt 0.687500 0.000000
vt 0.687500 1.000000
vt 0.656250 1.000000
vt 0.687500 0.000000
vt 0.718750 0.000000
vt 0.718750 1.000000
vt 0.687500 1.000000
vt 0.718750 0.000000
vt 0.750000 0.000000
vt 0.750000 1.000000
vt 0.718750 1.000000
vt 0.750000 0.000000
vt 0.781250 0.000000
vt 0.781250 1.000000
vt 0.750000 1.000000
vt 0.781250 0.000000
vt 0.812500 0.000000
vt 0.812500 1.000000
vt 0.781250 1.000000
vt 0.812500 0.000000
vt 0.843750 0.000000
vt 0.843750 1.000000
vt 0.812500 1.000000
vt 0.843750 0.000000
vt 0.875000 0.000000
vt 0.875000 1.000000
vt 0.843750 1.000000
vt 0.875000 0.000000
vt 0.906250 0.000000
vt 0.906250 1.000000
vt 0.875000 1.000000
vt 0.906250 0.000000
vt 0.937500 0.000000
vt 0.937500 1.000000
vt 0.906250 1.000000
vt 0.937500 0.000000
vt 0.968750 0.000000
vt 0.968750 1.000000
vt 0.937500 1.000000
vt 0.968750 0.000000
vt 1.000000 0.000000
vt 1.000000 1.000000
vt 0.968750 1.000000
vt 0.500000 0.500000
vt 1.002025 0.701370
vt 1.007351 0.693244
vt 0.500000 0.500000
vt 1.007351 0.693244
vt 1.016090 0.686429
vt 0.500000 0.500000
vt 1.016090 0.686429
vt 1.026258 0.680050
vt 0.500000 0.500000
vt 1.026258 0.680050
vt 1.032059 0.672152
vt 0.500000 0.500000
vt 1.032059 0.672152
vt 1.030095 0.585758
vt 0.500000 0.500000
vt 1.030095 0.585758
vt 1.031823 0.500000
vt 0.500000 0.500000
vt 1.031823 0.500000
vt 1.031677 0.413986
vt 0.500000 0.500000
vt 1.031677 0.413986
vt 1.028807 0.328900
vt 0.500000 0.500000
vt 1.028807 0.328900
vt 1.022311 0.321301
vt 0.500000 0.500000
vt 1.022311 0.321301
vt 1.017885 0.312922
vt 0.500000 0.500000
vt 1.017885 0.312922
vt 1.009636 0.305886
vt 0.500000 0.500000
vt 1.009636 0.305886
vt 1.001110 0.298997
vt 0.500000 0.500000
vt 1.001110 0.298997
vt 0.752170 0.297701
vt 0.500000 0.500000
vt 0.752170 0.297701
vt 0.500000 0.297005
vt 0.500000 0.500000
vt 0.500000 0.297005
vt 0.250482 0.299828
vt 0.500000 0.500000
vt 0.250482 0.299828
vt -0.000104 0.299400
vt 0.500000 0.500000
vt -0.000104 0.299400
vt -0.009684 0.305868
vt 0.500000 0.500000
vt -0.009684 0.305868
vt -0.015941 0.313625
vt 0.500000 0.500000
vt -0.015941 0.313625
vt -0.022314 0.321300
vt 0.500000 0.500000
vt -0.022314 0.321300
vt -0.032552 0.327688
vt 0.500000 0.500000
vt -0.032552 0.327688
vt -0.033569 0.413680
vt 0.500000 0.500000
vt -0.033569 0.413680
vt -0.030595 0.500000
vt 0.500000 0.500000
vt -0.030595 0.500000
vt -0.030356 0.585801
vt 0.500000 0.500000
vt -0.030356 0.585801
vt -0.032084 0.672160
vt 0.500000 0.500000
vt -0.032084 0.672160
vt -0.022906 0.678903
vt 0.500000 0.500000
vt -0.022906 0.678903
vt -0.013957 0.685658
vt 0.500000 0.500000
vt -0.013957 0.685658
vt -0.009369 0.694012
vt 0.500000 0.500000
vt -0.009369 0.694012
vt -0.003490 0.701958
vt 0.500000 0.500000
vt -0.003490 0.701958
vt 0.249347 0.701082
vt 0.500000 0.500000
vt 0.249347 0.701082
vt 0.500000 0.701351
vt 0.500000 0.500000
vt 0.500000 0.701351
vt 0.752550 0.702604
vt 0.500000 0.500000
vt 0.752550 0.702604
vt 1.002025 0.701370
vt 0.075100 0.677625
vt 0.084900 0.677625
vt 0.084900 0.677625
vt 0.075100 0.677625
vt 0.075100 0.322375
vt 0.084900 0.322375
vt 0.084900 0.322375
vt 0.075100 0.322375
vt 0.075100 0.677625
vt 0.075100 0.322375
vt 0.075100 0.322375
vt 0.075100 0.677625
vt 0.084900 0.322375
vt 0.084900 0.677625
vt 0.084900 0.677625
vt 0.084900 0.322375
vt 0.075100 0.677625
vt 0.075100 0.322375
vt 0.084900 0.322375
vt 0.084900 0.677625
vt 0.075100 0.677625
vt 0.084900 0.677625
vt 0.084900 0.322375
vt 0.075100 0.322375
vt 0.285100 0.677625
vt 0.294900 0.677625
vt 0.294900 0.677625
vt 0.285100 0.677625
vt 0.285100 0.322375
vt 0.294900 0.322375
vt 0.294900 0.322375
vt 0.285100 0.322375
vt 0.285100 0.677625
vt 0.285100 0.322375
vt 0.285100 0.322375
vt 0.285100 0.677625
vt 0.294900 0.322375
vt 0.294900 0.677625
vt 0.294900 0.677625
vt 0.294900 0.322375
vt 0.285100 0.677625
vt 0.285100 0.322375
vt 0.294900 0.322375
vt 0.294900 0.677625
vt 0.285100 0.677625
vt 0.294900 0.677625
vt 0.294900 0.322375
vt 0.285100 0.322375
vt 0.495100 0.677625
vt 0.504900 0.677625
vt 0.504900 0.677625
vt 0.495100 0.677625
vt 0.495100 0.322375
vt 0.504900 0.322375
vt 0.504900 0.322375
vt 0.495100 0.322375
vt 0.495100 0.677625
vt 0.495100 0.322375
vt 0.495100 0.322375
vt 0.495100 0.677625
vt 0.504900 0.322375
vt 0.504900 0.677625
vt 0.504900 0.677625
vt 0.504900 0.322375
vt 0.495100 0.677625
vt 0.495100 0.322375
vt 0.504900 0.322375
vt 0.504900 0.677625
vt 0.495100 0.677625
vt 0.504900 0.677625
vt 0.504900 0.322375
vt 0.495100 0.322375
vt 0.705100 0.677625
vt 0.714900 0.677625
vt 0.714900 0.677625
vt 0.705100 0.677625
vt 0.705100 0.322375
vt 0.714900 0.322375
vt 0.714900 0.322375
vt 0.705100 0.322375
vt 0.705100 0.677625
vt 0.705100 0.322375
vt 0.705100 0.322375
vt 0.705100 0.677625
vt 0.714900 0.322375
vt 0.714900 0.677625
vt 0.714900 0.677625
vt 0.714900 0.322375
vt 0.705100 0.677625
vt 0.705100 0.322375
vt 0.714900 0.322375
vt 0.714900 0.677625
vt 0.705100 0.677625
vt 0.714900 0.677625
vt 0.714900 0.322375
vt 0.705100 0.322375
vt 0.915100 0.677625
vt 0.924900 0.677625
vt 0.924900 0.677625
vt 0.915100 0.677625
vt 0.915100 0.322375
vt 0.924900 0.322375
vt 0.924900 0.322375
vt 0.915100 0.322375
vt 0.915100 0.677625
vt 0.915100 0.322375
vt 0.915100 0.322375
vt 0.915100 0.677625
vt 0.924900 0.322375
vt 0.924900 0.677625
vt 0.924900 0.677625
vt 0.924900 0.322375
vt 0.915100 0.677625
vt 0.915100 0.322375
vt 0.924900 0.322375
vt 0.924900 0.677625
vt 0.915100 0.677625
vt 0.924900 0.677625
vt 0.924900 0.322375
vt 0.915100 0.322375
vn 0.000000 1.000000 0.000000
vn 0.000000 1.000000 0.000000
vn 0.000000 1.000000 0.000000
vn 0.000000 1.000000 0.000000
vn 0.000000 1.000000 0.000000
vn 0.000000 1.000000 0.000000
vn 0.000000 1.000000 0.000000
vn 0.000000 1.000000 0.000000
vn 0.000000 1.000000 0.000000
vn 0.000000 1.000000 0.000000
vn 0.000000 1.000000 0.000000
vn 0.000000 1.000000 0.000000
vn 0.000000 1.000000 0.000000
vn 0.000000 1.000000 0.000000
vn 0.000000 1.000000 0.000000
vn 0.000000 1.000000 0.000000
vn 0.000000 1.000000 0.000000
vn 0.000000 1.000000 0.000000
vn 0.000000 1.000000 0.000000
vn 0.000000 1.000000 0.000000
vn 0.000000 1.000000 0.000000
vn 0.000000 1.000000 0.000000
vn 0.000000 1.000000 0.000000
vn 0.000000 1.000000 0.000000
vn 0.000000 1.000000 0.000000
vn 0.000000 1.000000 0.000000
vn 0.000000 1.000000 0.000000
vn 0.000000 1.000000 0.000000
vn 0.000000 1.000000 0.000000
vn 0.000000 1.000000 0.000000
vn 0.000000 1.000000 0.000000
vn 0.000000 1.000000 0.000000
vn 0.000000 1.000000 0.000000
vn 0.000000 1.000000 0.000000
vn 0.000000 1.000000 0.000000
vn 0.000000 1.000000 0.000000
vn -0.000000 1.000000 0.000000
vn -0.000000 1.000000 0.000000
vn -0.000000 1.000000 0.000000
vn -0.000000 1.000000 0.000000
vn -0.000000 1.000000 0.000000
vn -0.000000 1.000000 0.000000
vn -0.000000 1.000000 0.000000
vn -0.000000 1.000000 0.000000
vn -0.000000 1.000000 0.000000
vn -0.000000 1.000000 0.000000
vn -0.000000 1.000000 0.000000
vn -0.000000 1.000000 0.000000
vn -0.000000 1.000000 0.000000
vn -0.000000 1.000000 0.000000
vn -0.000000 1.000000 0.000000
vn -0.000000 1.000000 0.000000
vn -0.000000 1.000000 0.000000
vn -0.000000 1.000000 0.000000
vn -0.000000 1.000000 0.000000
vn -0.000000 1.000000 0.000000
vn -0.000000 1.000000 0.000000
vn -0.000000 1.000000 0.000000
vn -0.000000 1.000000 0.000000
vn -0.000000 1.000000 0.000000
vn -0.000000 1.000000 0.000000
vn -0.000000 1.000000 0.000000
vn -0.000000 1.000000 0.000000
vn 0.000000 1.000000 0.000000
vn 0.000000 1.000000 0.000000
vn 0.000000 1.000000 0.000000
vn 0.000000 1.000000 0.000000
vn 0.000000 1.000000 0.000000
vn 0.000000 1.000000 0.000000
vn 0.000000 1.000000 0.000000
vn 0.000000 1.000000 0.000000
vn 0.000000 1.000000 0.000000
vn 0.000000 1.000000 -0.000000
vn 0.000000 1.000000 -0.000000
vn 0.000000 1.000000 -0.000000
vn 0.000000 1.000000 -0.000000
vn 0.000000 1.000000 -0.000000
vn 0.000000 1.000000 -0.000000
vn 0.000000 1.000000 -0.000000
vn 0.000000 1.000000 -0.000000
vn 0.000000 1.000000 -0.000000
vn 0.000000 1.000000 -0.000000
vn 0.000000 1.000000 -0.000000
vn 0.000000 1.000000 -0.000000
vn 0.000000 1.000000 -0.000000
vn 0.000000 1.000000 -0.000000
vn 0.000000 1.000000 -0.000000
vn 0.000000 1.000000 -0.000000
vn 0.000000 1.000000 -0.000000
vn 0.000000 1.000000 -0.000000
vn 0.000000 1.000000 0.000000
vn 0.000000 1.000000 0.000000
vn 0.000000 1.000000 0.000000
vn 0.000000 1.000000 0.000000
vn 0.000000 1.000000 0.000000
vn 0.000000 1.000000 0.000000
vn 0.654832 0.377347 -0.654832
vn 0.654832 0.377347 -0.654832
vn 0.654832 0.377347 -0.654832
vn 0.654832 0.377347 -0.654832
vn 0.664065 0.343565 -0.664065
vn 0.664065 0.343565 -0.664065
vn 0.664065 0.343565 -0.664065
vn 0.664065 0.343565 -0.664065
vn 0.663092 0.347300 -0.663092
vn 0.663092 0.347300 -0.663092
vn 0.663092 0.347300 -0.663092
vn 0.663092 0.347300 -0.663092
vn 0.654935 0.376989 -0.654935
vn 0.654935 0.376989 -0.654935
vn 0.654935 0.376989 -0.654935
vn 0.654935 0.376989 -0.654935
vn 0.951276 0.308341 -0.000000
vn 0.951276 0.308341 -0.000000
vn 0.951276 0.308341 -0.000000
vn 0.951276 0.308341 -0.000000
vn 0.964819 0.262917 -0.000000
vn 0.964819 0.262917 -0.000000
vn 0.964819 0.262917 -0.000000
vn 0.964819 0.262917 -0.000000
vn 0.953339 0.301900 -0.000000
vn 0.953339 0.301900 -0.000000
vn 0.953339 0.301900 -0.000000
vn 0.953339 0.301900 -0.000000
vn 0.945659 0.325161 -0.000000
vn 0.945659 0.325161 -0.000000
vn 0.945659 0.325161 -0.000000
vn 0.945659 0.325161 -0.000000
vn 0.667384 0.330450 0.667384
vn 0.667384 0.330450 0.667384
vn 0.667384 0.330450 0.667384
vn 0.667384 0.330450 0.667384
vn 0.663968 0.343939 0.663968
vn 0.663968 0.343939 0.663968
vn 0.663968 0.343939 0.663968
vn 0.663968 0.343939 0.663968
vn 0.652020 0.386961 0.652020
vn 0.652020 0.386961 0.652020
vn 0.652020 0.386961 0.652020
vn 0.652020 0.386961 0.652020
vn 0.658813 0.363224 0.658813
vn 0.658813 0.363224 0.658813
vn 0.658813 0.363224 0.658813
vn 0.658813 0.363224 0.658813
vn 0.000000 0.292681 0.956210
vn 0.000000 0.292681 0.956210
vn 0.000000 0.292681 0.956210
vn 0.000000 0.292681 0.956210
vn 0.000000 0.308115 0.951349
vn 0.000000 0.308115 0.951349
vn 0.000000 0.308115 0.951349
vn 0.000000 0.308115 0.951349
vn 0.000000 0.315988 0.948763
vn 0.000000 0.315988 0.948763
vn 0.000000 0.315988 0.948763
vn 0.000000 0.315988 0.948763
vn 0.000000 0.296985 0.954882
vn 0.000000 0.296985 0.954882
vn 0.000000 0.296985 0.954882
vn 0.000000 0.296985 0.954882
vn -0.668643 0.325320 0.668643
vn -0.668643 0.325320 0.668643
vn -0.668643 0.325320 0.668643
vn -0.668643 0.325320 0.668643
vn -0.654991 0.376793 0.654991
vn -0.654991 0.376793 0.654991
vn -0.654991 0.376793 0.654991
vn -0.654991 0.376793 0.654991
vn -0.657960 0.366301 0.657960
vn -0.657960 0.366301 0.657960
vn -0.657960 0.366301 0.657960
vn -0.657960 0.366301 0.657960
vn -0.666008 0.335955 0.666008
vn -0.666008 0.335955 0.666008
vn -0.666008 0.335955 0.666008
vn -0.666008 0.335955 0.666008
vn -0.944912 0.327324 0.000000
vn -0.944912 0.327324 0.000000
vn -0.944912 0.327324 0.000000
vn -0.944912 0.327324 0.000000
vn -0.942457 0.334328 0.000000
vn -0.942457 0.334328 0.000000
vn -0.942457 0.334328 0.000000
vn -0.942457 0.334328 0.000000
vn -0.960961 0.276685 0.000000
vn -0.960961 0.276685 0.000000
vn -0.960961 0.276685 0.000000
vn -0.960961 0.276685 0.000000
vn -0.961649 0.274284 0.000000
vn -0.961649 0.274284 0.000000
vn -0.961649 0.274284 0.000000
vn -0.961649 0.274284 0.000000
vn -0.659948 0.359078 -0.659948
vn -0.659948 0.359078 -0.659948
vn -0.659948 0.359078 -0.659948
vn -0.659948 0.359078 -0.659948
vn -0.661801 0.352192 -0.661801
vn -0.661801 0.352192 -0.661801
vn -0.661801 0.352192 -0.661801
vn -0.661801 0.352192 -0.661801
vn -0.667427 0.330275 -0.667427
vn -0.667427 0.330275 -0.667427
vn -0.667427 0.330275 -0.667427
vn -0.667427 0.330275 -0.667427
vn -0.657410 0.368270 -0.657410
vn -0.657410 0.368270 -0.657410
vn -0.657410 0.368270 -0.657410
vn -0.657410 0.368270 -0.657410
vn 0.000000 0.337484 -0.941331
vn 0.000000 0.337484 -0.941331
vn 0.000000 0.337484 -0.941331
vn 0.000000 0.337484 -0.941331
vn 0.000000 0.297192 -0.954818
vn 0.000000 0.297192 -0.954818
vn 0.000000 0.297192 -0.954818
vn 0.000000 0.297192 -0.954818
vn 0.000000 0.292801 -0.956173
vn 0.000000 0.292801 -0.956173
vn 0.000000 0.292801 -0.956173
vn 0.000000 0.292801 -0.956173
vn 0.000000 0.313314 -0.949649
vn 0.000000 0.313314 -0.949649
vn 0.000000 0.313314 -0.949649
vn 0.000000 0.313314 -0.949649
vn 0.629877 0.303878 -0.714782
vn 0.629877 0.303878 -0.714782
vn 0.629877 0.303878 -0.714782
vn 0.629877 0.303878 -0.714782
vn 0.737363 0.288478 -0.610800
vn 0.737363 0.288478 -0.610800
vn 0.737363 0.288478 -0.610800
vn 0.737363 0.288478 -0.610800
vn 0.657814 0.342607 -0.670746
vn 0.657814 0.342607 -0.670746
vn 0.657814 0.342607 -0.670746
vn 0.657814 0.342607 -0.670746
vn 0.612772 0.338746 -0.713977
vn 0.612772 0.338746 -0.713977
vn 0.612772 0.338746 -0.713977
vn 0.612772 0.338746 -0.713977
vn 0.970999 0.238872 0.010033
vn 0.970999 0.238872 0.010033
vn 0.970999 0.238872 0.010033
vn 0.970999 0.238872 0.010033
vn 0.969507 0.244757 0.012255
vn 0.969507 0.244757 0.012255
vn 0.969507 0.244757 0.012255
vn 0.969507 0.244757 0.012255
vn 0.959091 0.282909 -0.010375
vn 0.959091 0.282909 -0.010375
vn 0.959091 0.282909 -0.010375
vn 0.959091 0.282909 -0.010375
vn 0.969983 0.243089 -0.006440
vn 0.969983 0.243089 -0.006440
vn 0.969983 0.243089 -0.006440
vn 0.969983 0.243089 -0.006440
vn 0.628965 0.267712 0.729886
vn 0.628965 0.267712 0.729886
vn 0.628965 0.267712 0.729886
vn 0.628965 0.267712 0.729886
vn 0.690768 0.330180 0.643289
vn 0.690768 0.330180 0.643289
vn 0.690768 0.330180 0.643289
vn 0.690768 0.330180 0.643289
vn 0.739115 0.344758 0.578664
vn 0.739115 0.344758 0.578664
vn 0.739115 0.344758 0.578664
vn 0.739115 0.344758 0.578664
vn 0.630841 0.301012 0.715145
vn 0.630841 0.301012 0.715145
vn 0.630841 0.301012 0.715145
vn 0.630841 0.301012 0.715145
vn -0.002369 0.248610 0.968601
vn -0.002369 0.248610 0.968601
vn -0.002369 0.248610 0.968601
vn -0.002369 0.248610 0.968601
vn 0.001452 0.285590 0.958351
vn 0.001452 0.285590 0.958351
vn 0.001452 0.285590 0.958351
vn 0.001452 0.285590 0.958351
vn 0.000757 0.238755 0.971079
vn 0.000757 0.238755 0.971079
vn 0.000757 0.238755 0.971079
vn 0.000757 0.238755 0.971079
vn -0.001831 0.227391 0.973802
vn -0.001831 0.227391 0.973802
vn -0.001831 0.227391 0.973802
vn -0.001831 0.227391 0.973802
vn -0.652861 0.310925 0.690723
vn -0.652861 0.310925 0.690723
vn -0.652861 0.310925 0.690723
vn -0.652861 0.310925 0.690723
vn -0.578622 0.324611 0.748214
vn -0.578622 0.324611 0.748214
vn -0.578622 0.324611 0.748214
vn -0.578622 0.324611 0.748214
vn -0.695416 0.292046 0.656586
vn -0.695416 0.292046 0.656586
vn -0.695416 0.292046 0.656586
vn -0.695416 0.292046 0.656586
vn -0.724117 0.316480 0.612776
vn -0.724117 0.316480 0.612776
vn -0.724117 0.316480 0.612776
vn -0.724117 0.316480 0.612776
vn -0.947679 0.319130 0.007784
vn -0.947679 0.319130 0.007784
vn -0.947679 0.319130 0.007784
vn -0.947679 0.319130 0.007784
vn -0.962050 0.272866 0.001961
vn -0.962050 0.272866 0.001961
vn -0.962050 0.272866 0.001961
vn -0.962050 0.272866 0.001961
vn -0.974186 0.225181 -0.015959
vn -0.974186 0.225181 -0.015959
vn -0.974186 0.225181 -0.015959
vn -0.974186 0.225181 -0.015959
vn -0.964034 0.265779 -0.000639
vn -0.964034 0.265779 -0.000639
vn -0.964034 0.265779 -0.000639
vn -0.964034 0.265779 -0.000639
vn -0.747623 0.319266 -0.582348
vn -0.747623 0.319266 -0.582348
vn -0.747623 0.319266 -0.582348
vn -0.747623 0.319266 -0.582348
vn -0.667973 0.272299 -0.692579
vn -0.667973 0.272299 -0.692579
vn -0.667973 0.272299 -0.692579
vn -0.667973 0.272299 -0.692579
vn -0.636660 0.296825 -0.711729
vn -0.636660 0.296825 -0.711729
vn -0.636660 0.296825 -0.711729
vn -0.636660 0.296825 -0.711729
vn -0.727708 0.349761 -0.590008
vn -0.727708 0.349761 -0.590008
vn -0.727708 0.349761 -0.590008
vn -0.727708 0.349761 -0.590008
vn -0.001725 0.262681 -0.964881
vn -0.001725 0.262681 -0.964881
vn -0.001725 0.262681 -0.964881
vn -0.001725 0.262681 -0.964881
vn 0.003899 0.227791 -0.973702
vn 0.003899 0.227791 -0.973702
vn 0.003899 0.227791 -0.973702
vn 0.003899 0.227791 -0.973702
vn 0.000414 0.261055 -0.965324
vn 0.000414 0.261055 -0.965324
vn 0.000414 0.261055 -0.965324
vn 0.000414 0.261055 -0.965324
vn -0.001941 0.257826 -0.966189
vn -0.001941 0.257826 -0.966189
vn -0.001941 0.257826 -0.966189
vn -0.001941 0.257826 -0.966189
vn 0.669192 -0.466712 -0.578240
vn 0.669192 -0.466712 -0.578240
vn 0.669192 -0.466712 -0.578240
vn 0.669192 -0.466712 -0.578240
vn 0.740484 -0.405404 -0.536033
vn 0.740484 -0.405404 -0.536033
vn 0.740484 -0.405404 -0.536033
vn 0.740484 -0.405404 -0.536033
vn 0.473186 -0.406467 -0.781588
vn 0.473186 -0.406467 -0.781588
vn 0.473186 -0.406467 -0.781588
vn 0.473186 -0.406467 -0.781588
vn 0.578018 -0.458755 -0.674862
vn 0.578018 -0.458755 -0.674862
vn 0.578018 -0.458755 -0.674862
vn 0.578018 -0.458755 -0.674862
vn 0.944802 -0.324555 0.044873
vn 0.944802 -0.324555 0.044873
vn 0.944802 -0.324555 0.044873
vn 0.944802 -0.324555 0.044873
vn 0.961807 -0.273587 0.008835
vn 0.961807 -0.273587 0.008835
vn 0.961807 -0.273587 0.008835
vn 0.961807 -0.273587 0.008835
vn 0.940137 -0.339397 -0.030853
vn 0.940137 -0.339397 -0.030853
vn 0.940137 -0.339397 -0.030853
vn 0.940137 -0.339397 -0.030853
vn 0.926399 -0.376228 0.015425
vn 0.926399 -0.376228 0.015425
vn 0.926399 -0.376228 0.015425
vn 0.926399 -0.376228 0.015425
vn 0.542919 -0.399756 0.738535
vn 0.542919 -0.399756 0.738535
vn 0.542919 -0.399756 0.738535
vn 0.542919 -0.399756 0.738535
vn 0.839611 -0.395886 0.371924
vn 0.839611 -0.395886 0.371924
vn 0.839611 -0.395886 0.371924
vn 0.839611 -0.395886 0.371924
vn 0.737116 -0.469060 0.486460
vn 0.737116 -0.469060 0.486460
vn 0.737116 -0.469060 0.486460
vn 0.737116 -0.469060 0.486460
vn 0.455338 -0.430889 0.779103
vn 0.455338 -0.430889 0.779103
vn 0.455338 -0.430889 0.779103
vn 0.455338 -0.430889 0.779103
vn -0.001544 -0.306347 0.951919
vn -0.001544 -0.306347 0.951919
vn -0.001544 -0.306347 0.951919
vn -0.001544 -0.306347 0.951919
vn 0.008567 -0.342279 0.939559
vn 0.008567 -0.342279 0.939559
vn 0.008567 -0.342279 0.939559
vn 0.008567 -0.342279 0.939559
vn -0.008322 -0.355056 0.934808
vn -0.008322 -0.355056 0.934808
vn -0.008322 -0.355056 0.934808
vn -0.008322 -0.355056 0.934808
vn -0.004016 -0.322362 0.946608
vn -0.004016 -0.322362 0.946608
vn -0.004016 -0.322362 0.946608
vn -0.004016 -0.322362 0.946608
vn -0.470879 -0.402263 0.785148
vn -0.470879 -0.402263 0.785148
vn -0.470879 -0.402263 0.785148
vn -0.470879 -0.402263 0.785148
vn -0.495122 -0.460537 0.736722
vn -0.495122 -0.460537 0.736722
vn -0.495122 -0.460537 0.736722
vn -0.495122 -0.460537 0.736722
vn -0.764838 -0.440021 0.470536
vn -0.764838 -0.440021 0.470536
vn -0.764838 -0.440021 0.470536
vn -0.764838 -0.440021 0.470536
vn -0.626514 -0.398825 0.669640
vn -0.626514 -0.398825 0.669640
vn -0.626514 -0.398825 0.669640
vn -0.626514 -0.398825 0.669640
vn -0.931580 -0.361909 0.034355
vn -0.931580 -0.361909 0.034355
vn -0.931580 -0.361909 0.034355
vn -0.931580 -0.361909 0.034355
vn -0.928289 -0.371135 -0.023201
vn -0.928289 -0.371135 -0.023201
vn -0.928289 -0.371135 -0.023201
vn -0.928289 -0.371135 -0.023201
vn -0.954536 -0.295160 -0.041736
vn -0.954536 -0.295160 -0.041736
vn -0.954536 -0.295160 -0.041736
vn -0.954536 -0.295160 -0.041736
vn -0.955890 -0.292896 0.022032
vn -0.955890 -0.292896 0.022032
vn -0.955890 -0.292896 0.022032
vn -0.955890 -0.292896 0.022032
vn -0.718169 -0.456407 -0.525286
vn -0.718169 -0.456407 -0.525286
vn -0.718169 -0.456407 -0.525286
vn -0.718169 -0.456407 -0.525286
vn -0.492560 -0.427970 -0.757777
vn -0.492560 -0.427970 -0.757777
vn -0.492560 -0.427970 -0.757777
vn -0.492560 -0.427970 -0.757777
vn -0.691662 -0.396924 -0.603369
vn -0.691662 -0.396924 -0.603369
vn -0.691662 -0.396924 -0.603369
vn -0.691662 -0.396924 -0.603369
vn -0.850481 -0.411886 -0.327157
vn -0.850481 -0.411886 -0.327157
vn -0.850481 -0.411886 -0.327157
vn -0.850481 -0.411886 -0.327157
vn -0.000370 -0.372165 -0.928166
vn -0.000370 -0.372165 -0.928166
vn -0.000370 -0.372165 -0.928166
vn -0.000370 -0.372165 -0.928166
vn 0.010408 -0.305692 -0.952074
vn 0.010408 -0.305692 -0.952074
vn 0.010408 -0.305692 -0.952074
vn 0.010408 -0.305692 -0.952074
vn -0.006010 -0.313375 -0.949610
vn -0.006010 -0.313375 -0.949610
vn -0.006010 -0.313375 -0.949610
vn -0.006010 -0.313375 -0.949610
vn -0.001313 -0.348148 -0.937439
vn -0.001313 -0.348148 -0.937439
vn -0.001313 -0.348148 -0.937439
vn -0.001313 -0.348148 -0.937439
vn 0.017662 -0.999777 -0.011575
vn 0.017662 -0.999777 -0.011575
vn 0.017662 -0.999777 -0.011575
vn 0.014827 -0.999709 -0.019013
vn 0.014827 -0.999709 -0.019013
vn 0.014827 -0.999709 -0.019013
vn 0.013767 -0.999664 -0.021944
vn 0.013767 -0.999664 -0.021944
vn 0.013767 -0.999664 -0.021944
vn 0.017004 -0.999777 -0.012491
vn 0.017004 -0.999777 -0.012491
vn 0.017004 -0.999777 -0.012491
vn 0.021202 -0.999775 0.000482
vn 0.021202 -0.999775 0.000482
vn 0.021202 -0.999775 0.000482
vn 0.021055 -0.999778 -0.000424
vn 0.021055 -0.999778 -0.000424
vn 0.021055 -0.999778 -0.000424
vn 0.021055 -0.999778 0.000036
vn 0.021055 -0.999778 0.000036
vn 0.021055 -0.999778 0.000036
vn 0.020947 -0.999780 0.000707
vn 0.020947 -0.999780 0.000707
vn 0.020947 -0.999780 0.000707
vn 0.016587 -0.999762 0.014179
vn 0.016587 -0.999762 0.014179
vn 0.016587 -0.999762 0.014179
vn 0.018157 -0.999789 0.009591
vn 0.018157 -0.999789 0.009591
vn 0.018157 -0.999789 0.009591
vn 0.015188 -0.999726 0.017808
vn 0.015188 -0.999726 0.017808
vn 0.015188 -0.999726 0.017808
vn 0.014932 -0.999718 0.018477
vn 0.014932 -0.999718 0.018477
vn 0.014932 -0.999718 0.018477
vn 0.000286 -0.998491 0.054924
vn 0.000286 -0.998491 0.054924
vn 0.000286 -0.998491 0.054924
vn 0.000152 -0.998481 0.055090
vn 0.000152 -0.998481 0.055090
vn 0.000152 -0.998481 0.055090
vn -0.000623 -0.998481 0.055090
vn -0.000623 -0.998481 0.055090
vn -0.000623 -0.998481 0.055090
vn 0.000096 -0.998432 0.055983
vn 0.000096 -0.998432 0.055983
vn 0.000096 -0.998432 0.055983
vn -0.014044 -0.999685 0.020802
vn -0.014044 -0.999685 0.020802
vn -0.014044 -0.999685 0.020802
vn -0.016806 -0.999767 0.013555
vn -0.016806 -0.999767 0.013555
vn -0.016806 -0.999767 0.013555
vn -0.016695 -0.999765 0.013862
vn -0.016695 -0.999765 0.013862
vn -0.016695 -0.999765 0.013862
vn -0.013844 -0.999658 0.022189
vn -0.013844 -0.999658 0.022189
vn -0.013844 -0.999658 0.022189
vn -0.020946 -0.999781 0.000248
vn -0.020946 -0.999781 0.000248
vn -0.020946 -0.999781 0.000248
vn -0.021104 -0.999777 -0.000727
vn -0.021104 -0.999777 -0.000727
vn -0.021104 -0.999777 -0.000727
vn -0.021104 -0.999777 -0.000059
vn -0.021104 -0.999777 -0.000059
vn -0.021104 -0.999777 -0.000059
vn -0.021182 -0.999776 0.000424
vn -0.021182 -0.999776 0.000424
vn -0.021182 -0.999776 0.000424
vn -0.014608 -0.999696 -0.019887
vn -0.014608 -0.999696 -0.019887
vn -0.014608 -0.999696 -0.019887
vn -0.014735 -0.999701 -0.019517
vn -0.014735 -0.999701 -0.019517
vn -0.014735 -0.999701 -0.019517
vn -0.018180 -0.999785 -0.009984
vn -0.018180 -0.999785 -0.009984
vn -0.018180 -0.999785 -0.009984
vn -0.017150 -0.999772 -0.012689
vn -0.017150 -0.999772 -0.012689
vn -0.017150 -0.999772 -0.012689
vn 0.000194 -0.998439 -0.055853
vn 0.000194 -0.998439 -0.055853
vn 0.000194 -0.998439 -0.055853
vn -0.000060 -0.998457 -0.055538
vn -0.000060 -0.998457 -0.055538
vn -0.000060 -0.998457 -0.055538
vn -0.000275 -0.998457 -0.055538
vn -0.000275 -0.998457 -0.055538
vn -0.000275 -0.998457 -0.055538
vn 0.000271 -0.998494 -0.054859
vn 0.000271 -0.998494 -0.054859
vn 0.000271 -0.998494 -0.054859
vn 0.000000 0.000000 -1.000000
vn 0.000000 0.000000 -1.000000
vn 0.000000 0.000000 -1.000000
vn 0.000000 0.000000 -1.000000
vn 0.000000 0.000000 1.000000
vn 0.000000 0.000000 1.000000
vn 0.000000 0.000000 1.000000
vn 0.000000 0.000000 1.000000
vn -1.000000 0.000000 0.000000
vn -1.000000 0.000000 0.000000
vn -1.000000 0.000000 0.000000
vn -1.000000 0.000000 0.000000
vn 1.000000 0.000000 0.000000
vn 1.000000 0.000000 0.000000
vn 1.000000 0.000000 0.000000
vn 1.000000 0.000000 0.000000
vn 0.000000 1.000000 0.000000
vn 0.000000 1.000000 0.000000
vn 0.000000 1.000000 0.000000
vn 0.000000 1.000000 0.000000
vn 0.000000 -1.000000 0.000000
vn 0.000000 -1.000000 0.000000
vn 0.000000 -1.000000 0.000000
vn 0.000000 -1.000000 0.000000
vn 0.000000 0.000000 -1.000000
vn 0.000000 0.000000 -1.000000
vn 0.000000 0.000000 -1.000000
vn 0.000000 0.000000 -1.000000
vn 0.000000 0.000000 1.000000
vn 0.000000 0.000000 1.000000
vn 0.000000 0.000000 1.000000
vn 0.000000 0.000000 1.000000
vn -1.000000 0.000000 0.000000
vn -1.000000 0.000000 0.000000
vn -1.000000 0.000000 0.000000
vn -1.000000 0.000000 0.000000
vn 1.000000 0.000000 0.000000
vn 1.000000 0.000000 0.000000
vn 1.000000 0.000000 0.000000
vn 1.000000 0.000000 0.000000
vn 0.000000 1.000000 0.000000
vn 0.000000 1.000000 0.000000
vn 0.000000 1.000000 0.000000
vn 0.000000 1.000000 0.000000
vn 0.000000 -1.000000 0.000000
vn 0.000000 -1.000000 0.000000
vn 0.000000 -1.000000 0.000000
vn 0.000000 -1.000000 0.000000
vn 0.000000 0.000000 -1.000000
vn 0.000000 0.000000 -1.000000
vn 0.000000 0.000000 -1.000000
vn 0.000000 0.000000 -1.000000
vn 0.000000 0.000000 1.000000
vn 0.000000 0.000000 1.000000
vn 0.000000 0.000000 1.000000
vn 0.000000 0.000000 1.000000
vn -1.000000 0.000000 0.000000
vn -1.000000 0.000000 0.000000
vn -1.000000 0.000000 0.000000
vn -1.000000 0.000000 0.000000
vn 1.000000 0.000000 0.000000
vn 1.000000 0.000000 0.000000
vn 1.000000 0.000000 0.000000
vn 1.000000 0.000000 0.000000
vn 0.000000 1.000000 0.000000
vn 0.000000 1.000000 0.000000
vn 0.000000 1.000000 0.000000
vn 0.000000 1.000000 0.000000
vn 0.000000 -1.000000 0.000000
vn 0.000000 -1.000000 0.000000
vn 0.000000 -1.000000 0.000000
vn 0.000000 -1.000000 0.000000
vn 0.000000 0.000000 -1.000000
vn 0.000000 0.000000 -1.000000
vn 0.000000 0.000000 -1.000000
vn 0.000000 0.000000 -1.000000
vn 0.000000 0.000000 1.000000
vn 0.000000 0.000000 1.000000
vn 0.000000 0.000000 1.000000
vn 0.000000 0.000000 1.000000
vn -1.000000 0.000000 0.000000
vn -1.000000 0.000000 0.000000
vn -1.000000 0.000000 0.000000
vn -1.000000 0.000000 0.000000
vn 1.000000 0.000000 0.000000
vn 1.000000 0.000000 0.000000
vn 1.000000 0.000000 0.000000
vn 1.000000 0.000000 0.000000
vn 0.000000 1.000000 0.000000
vn 0.000000 1.000000 0.000000
vn 0.000000 1.000000 0.000000
vn 0.000000 1.000000 0.000000
vn 0.000000 -1.000000 0.000000
vn 0.000000 -1.000000 0.000000
vn 0.000000 -1.000000 0.000000
vn 0.000000 -1.000000 0.000000
vn 0.000000 0.000000 -1.000000
vn 0.000000 0.000000 -1.000000
vn 0.000000 0.000000 -1.000000
vn 0.000000 0.000000 -1.000000
vn 0.000000 0.000000 1.000000
vn 0.000000 0.000000 1.000000
vn 0.000000 0.000000 1.000000
vn 0.000000 0.000000 1.000000
vn -1.000000 0.000000 0.000000
vn -1.000000 0.000000 0.000000
vn -1.000000 0.000000 0.000000
vn -1.000000 0.000000 0.000000
vn 1.000000 0.000000 0.000000
vn 1.000000 0.000000 0.000000
vn 1.000000 0.000000 0.000000
vn 1.000000 0.000000 0.000000
vn 0.000000 1.000000 0.000000
vn 0.000000 1.000000 0.000000
vn 0.000000 1.000000 0.000000
vn 0.000000 1.000000 0.000000
vn 0.000000 -1.000000 0.000000
vn 0.000000 -1.000000 0.000000
vn 0.000000 -1.000000 0.000000
vn 0.000000 -1.000000 0.000000
usemtl fortress_floor
f 1/1/1 2/2/2 3/3/3
f 4/4/4 5/5/5 6/6/6
f 7/7/7 8/8/8 9/9/9
f 10/10/10 11/11/11 12/12/12
f 13/13/13 14/14/14 15/15/15
f 16/16/16 17/17/17 18/18/18
f 19/19/19 20/20/20 21/21/21
f 22/22/22 23/23/23 24/24/24
f 25/25/25 26/26/26 27/27/27
f 28/28/28 29/29/29 30/30/30
f 31/31/31 32/32/32 33/33/33
f 34/34/34 35/35/35 36/36/36
f 37/37/37 38/38/38 39/39/39
f 40/40/40 41/41/41 42/42/42
f 43/43/43 44/44/44 45/45/45
f 46/46/46 47/47/47 48/48/48
f 49/49/49 50/50/50 51/51/51
f 52/52/52 53/53/53 54/54/54
f 55/55/55 56/56/56 57/57/57
f 58/58/58 59/59/59 60/60/60
f 61/61/61 62/62/62 63/63/63
f 64/64/64 65/65/65 66/66/66
f 67/67/67 68/68/68 69/69/69
f 70/70/70 71/71/71 72/72/72
f 73/73/73 74/74/74 75/75/75
f 76/76/76 77/77/77 78/78/78
f 79/79/79 80/80/80 81/81/81
f 82/82/82 83/83/83 84/84/84
f 85/85/85 86/86/86 87/87/87
f 88/88/88 89/89/89 90/90/90
f 91/91/91 92/92/92 93/93/93
f 94/94/94 95/95/95 96/96/96
usemtl fortress_trim
f 97/97/97 98/98/98 99/99/99 100/100/100
f 101/101/101 102/102/102 103/103/103 104/104/104
f 105/105/105 106/106/106 107/107/107 108/108/108
f 109/109/109 110/110/110 111/111/111 112/112/112
f 113/113/113 114/114/114 115/115/115 116/116/116
f 117/117/117 118/118/118 119/119/119 120/120/120
f 121/121/121 122/122/122 123/123/123 124/124/124
f 125/125/125 126/126/126 127/127/127 128/128/128
f 129/129/129 130/130/130 131/131/131 132/132/132
f 133/133/133 134/134/134 135/135/135 136/136/136
f 137/137/137 138/138/138 139/139/139 140/140/140
f 141/141/141 142/142/142 143/143/143 144/144/144
f 145/145/145 146/146/146 147/147/147 148/148/148
f 149/149/149 150/150/150 151/151/151 152/152/152
f 153/153/153 154/154/154 155/155/155 156/156/156
f 157/157/157 158/158/158 159/159/159 160/160/160
f 161/161/161 162/162/162 163/163/163 164/164/164
f 165/165/165 166/166/166 167/167/167 168/168/168
f 169/169/169 170/170/170 171/171/171 172/172/172
f 173/173/173 174/174/174 175/175/175 176/176/176
f 177/177/177 178/178/178 179/179/179 180/180/180
f 181/181/181 182/182/182 183/183/183 184/184/184
f 185/185/185 186/186/186 187/187/187 188/188/188
f 189/189/189 190/190/190 191/191/191 192/192/192
f 193/193/193 194/194/194 195/195/195 196/196/196
f 197/197/197 198/198/198 199/199/199 200/200/200
f 201/201/201 202/202/202 203/203/203 204/204/204
f 205/205/205 206/206/206 207/207/207 208/208/208
f 209/209/209 210/210/210 211/211/211 212/212/212
f 213/213/213 214/214/214 215/215/215 216/216/216
f 217/217/217 218/218/218 219/219/219 220/220/220
f 221/221/221 222/222/222 223/223/223 224/224/224
usemtl fortress_cliff
f 225/225/225 226/226/226 227/227/227 228/228/228
f 229/229/229 230/230/230 231/231/231 232/232/232
f 233/233/233 234/234/234 235/235/235 236/236/236
usemtl basalt_side
f 237/237/237 238/238/238 239/239/239 240/240/240
usemtl fortress_cliff
f 241/241/241 242/242/242 243/243/243 244/244/244
f 245/245/245 246/246/246 247/247/247 248/248/248
f 249/249/249 250/250/250 251/251/251 252/252/252
f 253/253/253 254/254/254 255/255/255 256/256/256
f 257/257/257 258/258/258 259/259/259 260/260/260
f 261/261/261 262/262/262 263/263/263 264/264/264
usemtl basalt_side
f 265/265/265 266/266/266 267/267/267 268/268/268
usemtl fortress_cliff
f 269/269/269 270/270/270 271/271/271 272/272/272
f 273/273/273 274/274/274 275/275/275 276/276/276
f 277/277/277 278/278/278 279/279/279 280/280/280
f 281/281/281 282/282/282 283/283/283 284/284/284
f 285/285/285 286/286/286 287/287/287 288/288/288
f 289/289/289 290/290/290 291/291/291 292/292/292
usemtl basalt_side
f 293/293/293 294/294/294 295/295/295 296/296/296
usemtl fortress_cliff
f 297/297/297 298/298/298 299/299/299 300/300/300
f 301/301/301 302/302/302 303/303/303 304/304/304
f 305/305/305 306/306/306 307/307/307 308/308/308
f 309/309/309 310/310/310 311/311/311 312/312/312
f 313/313/313 314/314/314 315/315/315 316/316/316
f 317/317/317 318/318/318 319/319/319 320/320/320
usemtl basalt_side
f 321/321/321 322/322/322 323/323/323 324/324/324
usemtl fortress_cliff
f 325/325/325 326/326/326 327/327/327 328/328/328
f 329/329/329 330/330/330 331/331/331 332/332/332
f 333/333/333 334/334/334 335/335/335 336/336/336
f 337/337/337 338/338/338 339/339/339 340/340/340
f 341/341/341 342/342/342 343/343/343 344/344/344
f 345/345/345 346/346/346 347/347/347 348/348/348
usemtl basalt_side
f 349/349/349 350/350/350 351/351/351 352/352/352
usemtl fortress_cliff
f 353/353/353 354/354/354 355/355/355 356/356/356
f 357/357/357 358/358/358 359/359/359 360/360/360
f 361/361/361 362/362/362 363/363/363 364/364/364
usemtl obsidian
f 365/365/365 366/366/366 367/367/367 368/368/368
usemtl fortress_cliff
f 369/369/369 370/370/370 371/371/371 372/372/372
f 373/373/373 374/374/374 375/375/375 376/376/376
f 377/377/377 378/378/378 379/379/379 380/380/380
f 381/381/381 382/382/382 383/383/383 384/384/384
f 385/385/385 386/386/386 387/387/387 388/388/388
f 389/389/389 390/390/390 391/391/391 392/392/392
usemtl obsidian
f 393/393/393 394/394/394 395/395/395 396/396/396
usemtl fortress_cliff
f 397/397/397 398/398/398 399/399/399 400/400/400
f 401/401/401 402/402/402 403/403/403 404/404/404
f 405/405/405 406/406/406 407/407/407 408/408/408
f 409/409/409 410/410/410 411/411/411 412/412/412
f 413/413/413 414/414/414 415/415/415 416/416/416
f 417/417/417 418/418/418 419/419/419 420/420/420
usemtl obsidian
f 421/421/421 422/422/422 423/423/423 424/424/424
usemtl fortress_cliff
f 425/425/425 426/426/426 427/427/427 428/428/428
f 429/429/429 430/430/430 431/431/431 432/432/432
f 433/433/433 434/434/434 435/435/435 436/436/436
f 437/437/437 438/438/438 439/439/439 440/440/440
f 441/441/441 442/442/442 443/443/443 444/444/444
f 445/445/445 446/446/446 447/447/447 448/448/448
usemtl obsidian
f 449/449/449 450/450/450 451/451/451 452/452/452
usemtl fortress_cliff
f 453/453/453 454/454/454 455/455/455 456/456/456
f 457/457/457 458/458/458 459/459/459 460/460/460
f 461/461/461 462/462/462 463/463/463 464/464/464
f 465/465/465 466/466/466 467/467/467 468/468/468
f 469/469/469 470/470/470 471/471/471 472/472/472
f 473/473/473 474/474/474 475/475/475 476/476/476
usemtl obsidian
f 477/477/477 478/478/478 479/479/479 480/480/480
f 481/481/481 482/482/482 483/483/483
f 484/484/484 485/485/485 486/486/486
f 487/487/487 488/488/488 489/489/489
f 490/490/490 491/491/491 492/492/492
f 493/493/493 494/494/494 495/495/495
f 496/496/496 497/497/497 498/498/498
f 499/499/499 500/500/500 501/501/501
f 502/502/502 503/503/503 504/504/504
f 505/505/505 506/506/506 507/507/507
f 508/508/508 509/509/509 510/510/510
f 511/511/511 512/512/512 513/513/513
f 514/514/514 515/515/515 516/516/516
f 517/517/517 518/518/518 519/519/519
f 520/520/520 521/521/521 522/522/522
f 523/523/523 524/524/524 525/525/525
f 526/526/526 527/527/527 528/528/528
f 529/529/529 530/530/530 531/531/531
f 532/532/532 533/533/533 534/534/534
f 535/535/535 536/536/536 537/537/537
f 538/538/538 539/539/539 540/540/540
f 541/541/541 542/542/542 543/543/543
f 544/544/544 545/545/545 546/546/546
f 547/547/547 548/548/548 549/549/549
f 550/550/550 551/551/551 552/552/552
f 553/553/553 554/554/554 555/555/555
f 556/556/556 557/557/557 558/558/558
f 559/559/559 560/560/560 561/561/561
f 562/562/562 563/563/563 564/564/564
f 565/565/565 566/566/566 567/567/567
f 568/568/568 569/569/569 570/570/570
f 571/571/571 572/572/572 573/573/573
f 574/574/574 575/575/575 576/576/576
usemtl iron_hot
f 577/577/577 578/578/578 579/579/579 580/580/580
f 581/581/581 582/582/582 583/583/583 584/584/584
f 585/585/585 586/586/586 587/587/587 588/588/588
f 589/589/589 590/590/590 591/591/591 592/592/592
f 593/593/593 594/594/594 595/595/595 596/596/596
f 597/597/597 598/598/598 599/599/599 600/600/600
f 601/601/601 602/602/602 603/603/603 604/604/604
f 605/605/605 606/606/606 607/607/607 608/608/608
f 609/609/609 610/610/610 611/611/611 612/612/612
f 613/613/613 614/614/614 615/615/615 616/616/616
f 617/617/617 618/618/618 619/619/619 620/620/620
f 621/621/621 622/622/622 623/623/623 624/624/624
f 625/625/625 626/626/626 627/627/627 628/628/628
f 629/629/629 630/630/630 631/631/631 632/632/632
f 633/633/633 634/634/634 635/635/635 636/636/636
f 637/637/637 638/638/638 639/639/639 640/640/640
f 641/641/641 642/642/642 643/643/643 644/644/644
f 645/645/645 646/646/646 647/647/647 648/648/648
f 649/649/649 650/650/650 651/651/651 652/652/652
f 653/653/653 654/654/654 655/655/655 656/656/656
f 657/657/657 658/658/658 659/659/659 660/660/660
f 661/661/661 662/662/662 663/663/663 664/664/664
f 665/665/665 666/666/666 667/667/667 668/668/668
f 669/669/669 670/670/670 671/671/671 672/672/672
f 673/673/673 674/674/674 675/675/675 676/676/676
f 677/677/677 678/678/678 679/679/679 680/680/680
f 681/681/681 682/682/682 683/683/683 684/684/684
f 685/685/685 686/686/686 687/687/687 688/688/688
f 689/689/689 690/690/690 691/691/691 692/692/692
f 693/693/693 694/694/694 695/695/695 696/696/696
