# Blender 4.4.1
# www.blender.org
mtllib enemy_core10.mtl
o enemy_core10
v 0.634264 -0.097383 0.035699
v 0.234116 -0.471687 0.056962
v 0.179191 -0.322322 -0.023196
v 0.625523 -0.088986 0.029146
v 0.633391 -0.096847 0.010737
v 0.219520 -0.564276 -0.118053
v 0.167798 -0.485692 -0.267500
v 0.440480 -0.629875 0.000000
v 0.457160 -0.388912 -0.209497
v 0.370451 -0.630073 0.062608
v 0.355412 -0.565980 0.135794
v 0.623810 -0.321798 0.108197
v 0.618952 -0.365268 0.075961
v 0.625021 -0.307722 0.118979
v 0.450952 -0.478590 0.131530
v 0.559992 -0.373885 0.124624
v 0.373446 -0.642712 0.048148
v 0.382239 -0.683398 0.000000
v 0.338498 -0.666716 -0.056159
v 0.327002 -0.651607 -0.081508
v 0.265846 -0.573072 -0.209497
v 0.225591 -0.536469 -0.237659
v 0.609439 -0.366659 -0.083812
v 0.608197 -0.457477 0.000000
v 0.611800 -0.237866 -0.190743
v 0.604805 -0.242567 -0.193397
v 0.192426 -0.477828 -0.272286
v 0.260048 -0.440427 -0.261158
v 0.561062 -0.272559 -0.209497
v 0.470320 -0.323989 -0.226338
v 0.421875 -0.351900 -0.236024
v 0.173941 -0.488127 -0.275299
v 0.219194 -0.530519 -0.242184
v 0.370451 -0.630073 0.062608
v 0.355412 -0.565980 0.135794
v 0.609439 -0.366659 -0.083812
v 0.609439 -0.366659 -0.083812
v 0.611800 -0.237866 -0.190743
v 0.623810 -0.321798 0.108197
v 0.618952 -0.365268 0.075961
v 0.618952 -0.365268 0.075961
v 0.625021 -0.307722 0.118979
v 0.559992 -0.373885 0.124624
v 0.559992 -0.373885 0.124624
v 0.450952 -0.478590 0.131530
v 0.450952 -0.478590 0.131530
v 0.373446 -0.642712 0.048148
v 0.373446 -0.642712 0.048148
v 0.382239 -0.683398 0.000000
v 0.382239 -0.683398 0.000000
v 0.338498 -0.666716 -0.056159
v 0.327002 -0.651607 -0.081508
v 0.327002 -0.651607 -0.081508
v 0.265846 -0.573072 -0.209497
v 0.265846 -0.573072 -0.209497
v 0.225591 -0.536469 -0.237659
v 0.608197 -0.457477 0.000000
v 0.608197 -0.457477 0.000000
v 0.604805 -0.242567 -0.193397
v 0.192426 -0.477828 -0.272286
v 0.260048 -0.440427 -0.261158
v 0.561062 -0.272559 -0.209497
v 0.561062 -0.272559 -0.209497
v 0.470320 -0.323989 -0.226338
v 0.470320 -0.323989 -0.226338
v 0.421875 -0.351900 -0.236024
v 0.421875 -0.351900 -0.236024
v 0.173941 -0.488127 -0.275299
v 0.219194 -0.530519 -0.242184
v 0.440480 -0.629875 0.000000
v 0.440480 -0.629875 0.000000
v 0.440480 -0.629875 0.000000
v 0.440480 -0.629875 0.000000
v 0.440480 -0.629875 0.000000
v 0.457160 -0.388912 -0.209497
v 0.457160 -0.388912 -0.209497
v 0.457160 -0.388912 -0.209497
v 0.457160 -0.388912 -0.209497
v 0.457160 -0.388912 -0.209497
vn -0.7086 -0.5965 0.3768
vn 0.9977 -0.0581 -0.0361
vn -0.2926 0.3631 0.8846
vn -0.7092 -0.5971 0.3750
vn -0.2949 0.3654 0.8829
vn -0.9491 -0.2387 0.2055
vn -0.5714 -0.7925 -0.2132
vn 0.6962 0.7177 -0.0089
vn -0.3342 0.7886 -0.5161
vn -0.3500 0.7849 -0.5113
vn -0.3520 0.7856 -0.5089
vn -0.3574 0.7940 -0.4918
vn -0.2986 0.3743 0.8779
vn -0.9497 -0.2381 0.2035
vn -0.5809 -0.7858 -0.2122
vn -0.3499 0.7799 -0.5190
vn 0.5424 -0.5902 0.5978
vn 0.5748 -0.5592 0.5974
vn 0.5865 -0.5237 0.6179
vn 0.5486 -0.5699 0.6118
vn 0.5424 -0.5902 -0.5978
vn 0.5748 -0.5592 -0.5974
vn 0.5865 -0.5237 -0.6179
vn 0.5486 -0.5699 -0.6118
vn 0.3237 -0.3333 -0.8855
vn 0.3308 -0.3358 -0.8819
vn 0.3220 -0.3327 -0.8864
vn 0.3194 -0.3318 -0.8877
vn 0.3356 -0.2997 -0.8931
vn 0.3508 -0.3011 -0.8867
vn 0.9960 -0.0676 -0.0590
vn -0.7092 -0.5970 0.3750
vn 0.3194 -0.3318 -0.8876
vn 0.9970 -0.0598 -0.0500
vn 0.9959 -0.0680 -0.0591
vn 0.9960 -0.0674 -0.0591
vt 0.389905 0.000000
vt 0.326919 0.326919
vt 0.000000 0.000000
vt 1.000000 0.317382
vt 0.339155 0.339155
vt 1.000000 0.326919
vt 0.487676 0.325774
vt 1.000000 0.610095
vt 0.638236 0.199516
vt 1.000000 0.000000
vt 1.000000 1.000000
vt 0.601062 0.111492
vt 0.374509 0.292442
vt 0.428330 0.428330
vt 1.000000 0.431290
vt 0.431290 0.431290
vt 0.575488 0.271074
vt 0.851671 0.065819
vt 0.888271 0.421043
vt 1.000000 0.479834
vt 0.096899 0.096899
vt 0.059299 0.000000
vt 0.443067 0.000000
vt 1.000000 0.339155
vt 0.897543 0.428000
vt 0.317382 0.317382
vt 0.764126 0.330035
vt 0.916385 0.514424
vt 0.326631 0.000000
vt 0.326631 0.326631
vt 0.520166 0.000000
vt 0.940701 0.000000
vt 0.461818 0.364572
vt 0.634058 0.219271
vt 0.096899 0.000000
vt 0.694683 0.244958
vt 0.816088 0.188123
s 0
f 34/1/1 35/2/1 2/3/1
f 5/3/2 42/4/2 39/5/2
f 1/3/3 35/6/3 43/7/3
f 34/8/4 6/3/4 49/9/4
f 3/10/5 2/11/5 1/3/5
f 3/3/6 6/10/6 2/11/6
f 6/3/7 54/12/7 52/13/7
f 5/11/8 4/3/8 1/10/8
f 25/14/9 59/15/9 5/11/9
f 59/16/10 64/17/10 61/18/10
f 7/3/11 3/10/11 5/11/11
f 3/3/12 4/10/12 5/11/12
f 4/3/13 3/10/13 1/11/13
f 3/3/14 7/10/14 6/11/14
f 7/3/15 69/19/15 56/20/15
f 68/21/16 7/3/16 60/22/16
s 1
f 48/3/17 50/3/17 70/3/17
f 41/3/18 46/3/18 71/3/18
f 16/3/19 12/3/19 14/3/19
f 74/3/20 11/3/20 10/3/20
f 19/3/21 72/3/21 18/3/21
f 75/3/22 57/3/22 73/3/22
f 36/3/23 63/3/23 26/3/23
f 20/3/24 77/3/24 8/3/24
f 33/3/25 27/3/26 28/3/27
f 21/3/28 33/3/25 67/3/28
f 65/3/29 29/3/29 79/3/29
f 9/3/30 31/3/30 30/3/30
s 0
f 25/23/31 39/24/31 24/25/31
f 5/3/2 1/10/2 42/4/2
f 43/7/3 42/26/3 1/3/3
f 1/3/3 2/10/3 35/6/3
f 35/6/3 45/27/3 43/7/3
f 49/9/32 47/28/32 34/8/32
f 34/8/4 2/11/4 6/3/4
f 6/3/4 51/29/4 49/9/4
f 52/13/7 51/30/7 6/3/7
f 6/3/7 56/31/7 54/12/7
f 61/18/10 60/32/10 7/10/10
f 7/10/10 5/11/10 59/16/10
f 59/16/10 62/33/10 64/17/10
f 64/17/10 66/34/10 61/18/10
f 61/18/10 7/10/10 59/16/10
f 56/20/15 6/11/15 7/3/15
f 7/3/15 68/35/15 69/19/15
s 1
f 71/3/18 58/3/18 41/3/18
f 41/3/18 44/3/18 46/3/18
f 16/3/19 40/3/19 12/3/19
f 10/3/20 17/3/20 74/3/20
f 74/3/20 15/3/20 11/3/20
f 19/3/21 53/3/21 72/3/21
f 75/3/22 37/3/22 57/3/22
f 26/3/23 38/3/23 36/3/23
f 36/3/23 76/3/23 63/3/23
f 20/3/24 55/3/24 77/3/24
f 33/3/25 32/3/26 27/3/26
f 67/3/28 78/3/28 21/3/28
f 21/3/28 22/3/33 33/3/25
f 33/3/25 28/3/27 67/3/28
s 0
f 24/25/34 23/36/34 25/23/34
f 25/23/35 5/10/35 39/24/35
f 39/24/36 13/37/36 24/25/36
