# Blender 4.4.1
# www.blender.org
mtllib map_top_equipment_04.mtl
o 台座上側装置_04
v -10.336637 34.492569 -9.275976
v -9.275977 34.492569 -10.336637
v -10.336637 79.507439 -9.275976
v 9.275977 34.492569 10.336637
v 10.336637 34.492569 9.275976
v 9.275977 79.507446 10.336637
v 10.336637 79.507446 9.275976
v -9.275977 79.507439 -10.336637
v -13.868212 34.492561 0.750000
v -13.868214 34.492561 -0.750000
v -13.868212 79.507439 0.750000
v 13.868214 34.492561 0.750000
v 13.868214 79.507439 0.750000
v 13.868212 79.507439 -0.750000
v -13.868214 79.507439 -0.750000
v 13.868212 34.492561 -0.750000
v 0.750001 34.492569 13.868211
v -0.749999 34.492569 13.868210
v 0.750001 79.507446 13.868211
v 0.749999 34.492569 -13.868210
v 0.749999 79.507446 -13.868210
v -0.750001 79.507446 -13.868211
v -0.749999 79.507446 13.868210
v -0.750001 34.492569 -13.868211
v -9.275977 34.492569 10.336636
v -10.336635 34.492569 9.275976
v -9.275977 79.507439 10.336636
v 10.336635 34.492569 -9.275976
v 9.275977 34.492569 -10.336636
v 10.336635 79.507446 -9.275976
v 9.275977 79.507446 -10.336636
v -10.336635 79.507439 9.275976
vn -0.7071 -0.0000 -0.7071
vn -0.7071 -0.0000 0.7071
vn 0.7071 -0.0000 0.7071
vn 0.7071 -0.0000 -0.7071
vn -1.0000 -0.0000 -0.0000
vn -0.0000 -0.0000 1.0000
vn 1.0000 -0.0000 -0.0000
vn -0.0000 -0.0000 -1.0000
vt 0.625000 0.000000
vt 0.375000 0.250000
vt 0.375000 0.000000
vt 0.375000 0.750000
vt 0.625000 1.000000
vt 0.375000 1.000000
vt 0.625000 0.500000
vt 0.375000 0.500000
vt 0.625000 0.750000
vt 0.625000 0.250000
s 0
f 3/1/1 2/2/1 1/3/1
f 4/4/2 3/5/2 1/6/2
f 7/7/3 4/4/3 5/8/3
f 4/4/2 6/9/2 3/5/2
f 7/7/3 6/9/3 4/4/3
f 8/10/4 7/7/4 5/8/4
f 3/1/1 8/10/1 2/2/1
f 8/10/4 5/8/4 2/2/4
f 11/1/5 10/2/5 9/3/5
f 13/9/6 11/5/6 9/6/6
f 13/9/6 9/6/6 12/4/6
f 14/7/7 13/9/7 12/4/7
f 15/10/8 14/7/8 16/8/8
f 14/7/7 12/4/7 16/8/7
f 15/10/8 16/8/8 10/2/8
f 11/1/5 15/10/5 10/2/5
f 19/1/6 18/2/6 17/3/6
f 21/9/7 19/5/7 17/6/7
f 21/9/7 17/6/7 20/4/7
f 22/7/8 21/9/8 20/4/8
f 23/10/5 22/7/5 24/8/5
f 22/7/8 20/4/8 24/8/8
f 23/10/5 24/8/5 18/2/5
f 19/1/6 23/10/6 18/2/6
f 27/1/2 26/2/2 25/3/2
f 28/4/3 27/5/3 25/6/3
f 31/7/4 28/4/4 29/8/4
f 28/4/3 30/9/3 27/5/3
f 31/7/4 30/9/4 28/4/4
f 32/10/1 31/7/1 29/8/1
f 27/1/2 32/10/2 26/2/2
f 32/10/1 29/8/1 26/2/1
