# Blender 4.4.1
# www.blender.org
mtllib map_floor_03.mtl
o ボス戦の床.02
v -11.547550 -0.197958 -23.807789
v -23.807793 -0.197958 -11.547547
v -11.547550 0.302042 -23.807789
v -17.677671 -0.197958 -31.819803
v -31.819807 -0.197958 -17.677668
v -17.677671 0.302042 -31.819803
v -31.819807 0.302042 -17.677668
v -23.807793 0.302042 -11.547547
v 25.000000 -0.197958 8.669300
v 25.000000 -0.197958 -8.669300
v 25.000000 0.302042 8.669300
v 35.000000 -0.197958 10.000000
v 35.000000 -0.197958 -10.000000
v 35.000000 0.302042 10.000000
v 35.000000 0.302042 -10.000000
v 25.000000 0.302042 -8.669300
v 23.807791 -0.197958 -11.547548
v 11.547548 -0.197958 -23.807791
v 23.807791 0.302042 -11.547548
v 31.819805 -0.197958 -17.677670
v 17.677670 -0.197958 -31.819805
v 31.819805 0.302042 -17.677670
v 17.677670 0.302042 -31.819805
v 11.547548 0.302042 -23.807791
v 11.547548 -0.197958 23.807791
v 23.807791 -0.197958 11.547548
v 11.547548 0.302042 23.807791
v 17.677670 -0.197958 31.819805
v 31.819805 -0.197958 17.677670
v 17.677670 0.302042 31.819805
v 31.819805 0.302042 17.677670
v 23.807791 0.302042 11.547548
v -25.000000 -0.197958 -8.669298
v -25.000000 -0.197958 8.669302
v -25.000000 0.302042 -8.669298
v -35.000000 -0.197958 -9.999997
v -35.000000 -0.197958 10.000003
v -35.000000 0.302042 -9.999997
v -35.000000 0.302042 10.000003
v -25.000000 0.302042 8.669302
v 8.669299 -0.197958 -25.000000
v -8.669301 -0.197958 -25.000000
v 8.669299 0.302042 -25.000000
v 9.999998 -0.197958 -35.000000
v -10.000002 -0.197958 -35.000000
v 9.999998 0.302042 -35.000000
v -10.000002 0.302042 -35.000000
v -8.669301 0.302042 -25.000000
v -8.669301 -0.197958 25.000000
v 8.669299 -0.197958 25.000000
v -8.669301 0.302042 25.000000
v -10.000002 -0.197958 35.000000
v 9.999998 -0.197958 35.000000
v -10.000002 0.302042 35.000000
v 9.999998 0.302042 35.000000
v 8.669299 0.302042 25.000000
v -23.807789 -0.197958 11.547550
v -11.547547 -0.197958 23.807793
v -23.807789 0.302042 11.547550
v -31.819803 -0.197958 17.677671
v -17.677668 -0.197958 31.819807
v -31.819803 0.302042 17.677671
v -17.677668 0.302042 31.819807
v -11.547547 0.302042 23.807793
vn 0.7071 -0.0000 0.7071
vn 0.7942 -0.0000 -0.6077
vn -0.7071 -0.0000 -0.7071
vn -0.0000 1.0000 -0.0000
vn -0.6077 -0.0000 0.7942
vn -1.0000 -0.0000 -0.0000
vn -0.1319 -0.0000 0.9913
vn 1.0000 -0.0000 -0.0000
vn -0.1319 -0.0000 -0.9913
vn -0.7071 -0.0000 0.7071
vn 0.6077 -0.0000 0.7942
vn 0.7071 -0.0000 -0.7071
vn -0.7942 -0.0000 -0.6077
vn -0.7942 -0.0000 0.6077
vn 0.6077 -0.0000 -0.7942
vn 0.1319 -0.0000 -0.9913
vn 0.1319 -0.0000 0.9913
vn -0.0000 -0.0000 1.0000
vn 0.9913 -0.0000 0.1319
vn -0.0000 -0.0000 -1.0000
vn -0.9913 -0.0000 0.1319
vn -0.9913 -0.0000 -0.1319
vn 0.9913 -0.0000 -0.1319
vn -0.6077 -0.0000 -0.7942
vn 0.7942 -0.0000 0.6077
vt 0.625000 0.000000
vt 0.375000 0.250000
vt 0.375000 0.000000
vt 0.625000 0.750000
vt 0.375000 1.000000
vt 0.375000 0.750000
vt 0.625000 0.500000
vt 0.375000 0.500000
vt 0.875000 0.500000
vt 0.625000 0.250000
vt 0.625000 1.000000
vt 0.875000 0.750000
s 0
f 3/1/1 2/2/1 1/3/1
f 6/4/2 1/5/2 4/6/2
f 7/7/3 4/6/3 5/8/3
f 8/9/4 6/4/4 7/7/4
f 8/10/5 5/8/5 2/2/5
f 11/1/6 10/2/6 9/3/6
f 14/4/7 9/5/7 12/6/7
f 15/7/8 12/6/8 13/8/8
f 16/9/4 14/4/4 15/7/4
f 16/10/9 13/8/9 10/2/9
f 19/1/10 18/2/10 17/3/10
f 22/4/11 17/5/11 20/6/11
f 23/7/12 20/6/12 21/8/12
f 24/9/4 22/4/4 23/7/4
f 24/10/13 21/8/13 18/2/13
f 27/1/3 26/2/3 25/3/3
f 30/4/14 25/5/14 28/6/14
f 31/7/1 28/6/1 29/8/1
f 32/9/4 30/4/4 31/7/4
f 32/10/15 29/8/15 26/2/15
f 35/1/8 34/2/8 33/3/8
f 38/4/16 33/5/16 36/6/16
f 39/7/6 36/6/6 37/8/6
f 40/9/4 38/4/4 39/7/4
f 40/10/17 37/8/17 34/2/17
f 43/1/18 42/2/18 41/3/18
f 46/4/19 41/5/19 44/6/19
f 47/7/20 44/6/20 45/8/20
f 48/9/4 46/4/4 47/7/4
f 48/10/21 45/8/21 42/2/21
f 51/1/20 50/2/20 49/3/20
f 54/4/22 49/5/22 52/6/22
f 55/7/18 52/6/18 53/8/18
f 56/9/4 54/4/4 55/7/4
f 56/10/23 53/8/23 50/2/23
f 59/1/12 58/2/12 57/3/12
f 62/4/24 57/5/24 60/6/24
f 63/7/10 60/6/10 61/8/10
f 64/9/4 62/4/4 63/7/4
f 64/10/25 61/8/25 58/2/25
f 3/1/1 8/10/1 2/2/1
f 6/4/2 3/11/2 1/5/2
f 7/7/3 6/4/3 4/6/3
f 8/9/4 3/12/4 6/4/4
f 8/10/5 7/7/5 5/8/5
f 11/1/6 16/10/6 10/2/6
f 14/4/7 11/11/7 9/5/7
f 15/7/8 14/4/8 12/6/8
f 16/9/4 11/12/4 14/4/4
f 16/10/9 15/7/9 13/8/9
f 19/1/10 24/10/10 18/2/10
f 22/4/11 19/11/11 17/5/11
f 23/7/12 22/4/12 20/6/12
f 24/9/4 19/12/4 22/4/4
f 24/10/13 23/7/13 21/8/13
f 27/1/3 32/10/3 26/2/3
f 30/4/14 27/11/14 25/5/14
f 31/7/1 30/4/1 28/6/1
f 32/9/4 27/12/4 30/4/4
f 32/10/15 31/7/15 29/8/15
f 35/1/8 40/10/8 34/2/8
f 38/4/16 35/11/16 33/5/16
f 39/7/6 38/4/6 36/6/6
f 40/9/4 35/12/4 38/4/4
f 40/10/17 39/7/17 37/8/17
f 43/1/18 48/10/18 42/2/18
f 46/4/19 43/11/19 41/5/19
f 47/7/20 46/4/20 44/6/20
f 48/9/4 43/12/4 46/4/4
f 48/10/21 47/7/21 45/8/21
f 51/1/20 56/10/20 50/2/20
f 54/4/22 51/11/22 49/5/22
f 55/7/18 54/4/18 52/6/18
f 56/9/4 51/12/4 54/4/4
f 56/10/23 55/7/23 53/8/23
f 59/1/12 64/10/12 58/2/12
f 62/4/24 59/11/24 57/5/24
f 63/7/10 62/4/10 60/6/10
f 64/9/4 59/12/4 62/4/4
f 64/10/25 63/7/25 61/8/25
