# Blender 4.4.1
# www.blender.org
mtllib enemy_core11.mtl
o enemy_core11
v 0.639821 0.209880 0.081152
v 0.569981 0.100287 0.118167
v 0.563366 0.051786 0.155091
v 0.091934 0.485158 0.072099
v 0.235031 0.090221 0.278182
v 0.034083 0.434715 0.133689
v 0.000025 0.498873 0.298017
v 0.307775 0.653042 0.298017
v 0.609448 0.478888 0.298017
v 0.632948 0.173095 0.298017
v 0.598475 0.707643 0.209497
v 0.866346 0.331467 0.209497
v 0.651902 0.015288 0.260299
v 0.640659 0.002371 0.262282
v 0.680666 0.048649 0.255285
v 0.842506 0.257078 0.209497
v 0.854573 0.275030 0.203990
v 0.317985 0.065329 0.298017
v 0.554826 0.011338 0.298017
v 0.234070 0.084529 0.298017
v 0.408952 0.898123 -0.075265
v 0.402947 0.899539 -0.074933
v 0.436275 0.910900 -0.060454
v 0.734957 0.734628 0.119232
v 0.658080 0.841682 0.070974
v 0.558563 0.933621 0.010023
v -0.024884 0.461970 0.298017
v 0.149219 0.705729 0.229387
v 0.362987 0.932200 0.052999
v 0.416350 0.981727 0.000000
v 0.396876 0.964611 0.020567
v 0.412517 0.955488 -0.025216
v 0.411246 0.946294 -0.034034
v 0.542054 0.948777 0.000000
v 0.128577 0.683796 0.246477
v 0.651902 0.015288 0.260299
v 0.640659 0.002371 0.262282
v 0.680666 0.048649 0.255285
v 0.680666 0.048649 0.255285
v 0.842506 0.257078 0.209497
v 0.842506 0.257078 0.209497
v 0.854573 0.275030 0.203990
v 0.411246 0.946294 -0.034034
v 0.411246 0.946294 -0.034034
v 0.436275 0.910900 -0.060454
v 0.436275 0.910900 -0.060454
v 0.554826 0.011338 0.298017
v 0.554826 0.011338 0.298017
v 0.317985 0.065329 0.298017
v 0.234070 0.084529 0.298017
v 0.408952 0.898123 -0.075265
v 0.402947 0.899539 -0.074933
v 0.658080 0.841682 0.070974
v 0.658080 0.841682 0.070974
v 0.558563 0.933621 0.010023
v 0.734957 0.734628 0.119232
v 0.734957 0.734628 0.119232
v 0.632948 0.173095 0.298017
v 0.632948 0.173095 0.298017
v 0.632948 0.173095 0.298017
v 0.128577 0.683796 0.246477
v 0.128577 0.683796 0.246477
v 0.000025 0.498873 0.298017
v 0.000025 0.498873 0.298017
v 0.542054 0.948777 0.000000
v 0.542054 0.948777 0.000000
v -0.024884 0.461970 0.298017
v 0.866346 0.331467 0.209497
v 0.866346 0.331467 0.209497
v 0.866346 0.331467 0.209497
v 0.866346 0.331467 0.209497
v 0.149219 0.705729 0.229387
v 0.362987 0.932200 0.052999
v 0.362987 0.932200 0.052999
v 0.396876 0.964611 0.020567
v 0.396876 0.964611 0.020567
v 0.416350 0.981727 0.000000
v 0.416350 0.981727 0.000000
v 0.412517 0.955488 -0.025216
v 0.598475 0.707643 0.209497
v 0.598475 0.707643 0.209497
v 0.598475 0.707643 0.209497
v 0.598475 0.707643 0.209497
v 0.609448 0.478888 0.298017
v 0.609448 0.478888 0.298017
v 0.609448 0.478888 0.298017
v 0.307775 0.653042 0.298017
v 0.307775 0.653042 0.298017
v 0.307775 0.653042 0.298017
v 0.307775 0.653042 0.298017
vn 0.5290 -0.5585 -0.6389
vn 0.5325 -0.5552 -0.6389
vn 0.5335 -0.5546 -0.6386
vn -0.2135 -0.9366 -0.2778
vn -0.2142 -0.9361 -0.2790
vn -0.3506 -0.5366 -0.7676
vn -0.3525 -0.5301 -0.7712
vn -0.1133 -0.2556 -0.9601
vn -0.1091 -0.2550 -0.9608
vn -0.0000 -0.0000 1.0000
vn -0.3563 -0.5305 -0.7692
vn -0.8007 0.4686 -0.3732
vn 0.5025 -0.0241 -0.8642
vn -0.8120 0.4668 -0.3505
vn 0.5043 -0.0285 -0.8631
vn 0.1753 0.6687 0.7225
vn 0.3627 0.5868 0.7239
vn 0.3390 0.0261 0.9404
vn -0.1933 0.3858 0.9021
vn 0.1099 0.6433 0.7577
vn 0.4723 0.3363 0.8147
vn 0.4729 0.3367 0.8142
vn 0.4733 0.3370 0.8139
vn 0.6432 -0.2061 0.7375
vn -0.8020 0.4706 -0.3678
vn -0.0978 0.6673 0.7383
vn 0.4739 0.3375 0.8133
vn 0.4320 -0.1388 0.8911
vn 0.4323 -0.1399 0.8908
vn 0.4324 -0.1401 0.8907
vn -0.8082 -0.5545 -0.1981
vn 0.3627 -0.1752 0.9153
vn 0.2088 0.3616 0.9086
vn 0.1763 0.6673 -0.7236
vn 0.1763 0.6673 -0.7237
vn 0.1816 0.6675 -0.7221
vn 0.1099 0.6433 -0.7577
vn -0.8029 0.4704 -0.3661
vn -0.7722 0.5212 -0.3635
vn 0.4886 -0.0342 -0.8718
vn 0.5031 -0.0281 -0.8638
vn 0.5005 -0.0306 -0.8652
vn 0.5010 -0.0201 -0.8652
vn 0.5030 -0.0285 -0.8638
vn -0.8020 0.4707 -0.3677
vn -0.8020 0.4705 -0.3679
vn 0.4319 -0.1384 0.8912
vn -0.8082 -0.5545 -0.1983
vn 0.3628 -0.1753 0.9152
vn 0.1747 0.6688 -0.7226
vn 0.1749 0.6672 -0.7241
vt 0.000000 0.000000
vt 1.000000 0.618719
vt 0.555986 0.555986
vt 1.000000 0.652832
vt 0.618719 0.618719
vt 0.480418 0.053734
vt 0.652832 0.652832
vt 1.000000 0.000000
vt 0.763087 0.503898
vt 0.260304 0.000000
vt 0.260304 0.260304
vt 1.000000 1.000000
vt 1.000000 0.009217
vt 0.011024 0.000000
vt 0.303160 0.130755
vt 0.156730 0.156730
vt 1.000000 0.795310
vt 0.995099 0.953819
vt 0.854611 0.685016
vt 0.757799 0.072389
vt 0.525701 0.402695
vt 0.347963 0.161465
vt 0.931844 0.412529
vt 0.878224 0.140260
vt 1.000000 0.156730
vt 0.233767 0.000000
vt 0.459713 0.000000
vt 1.000000 0.555986
vt 0.717175 0.000000
vt 0.985714 0.000000
vt 1.000000 0.014286
vt 0.445988 0.445988
vt 0.766233 0.000000
vt 0.011024 0.011024
vt 0.039041 0.000000
vt 0.204690 0.000000
vt 0.461406 0.338881
vt 1.000000 0.540287
vt 0.445988 0.000000
vt 0.812504 0.198310
vt 0.921716 0.109612
vt 1.000000 0.282825
s 0
f 3/1/1 36/2/1 37/3/1
f 2/1/2 38/4/2 36/5/2
f 1/1/3 40/6/3 38/7/3
f 3/8/4 47/9/4 49/10/4
f 49/11/5 5/8/5 3/12/5
f 5/1/6 2/8/6 3/12/6
f 4/8/7 2/12/7 5/1/7
f 4/1/8 51/13/8 2/12/8
f 1/8/9 2/12/9 51/14/9
s 1
f 87/1/10 27/1/10 18/1/10
s 0
f 6/1/11 4/8/11 5/12/11
f 44/15/12 4/12/12 79/16/12
f 55/17/13 46/18/13 65/19/13
f 6/1/14 63/20/14 61/21/14
f 53/22/15 68/23/15 1/12/15
s 1
f 77/1/16 80/1/16 26/1/16
f 25/1/17 81/1/17 57/1/17
f 84/1/18 60/1/18 69/1/18
f 7/1/19 88/1/19 62/1/19
f 74/1/20 82/1/20 75/1/20
f 24/1/21 83/1/22 70/1/23
f 71/1/24 41/1/24 17/1/24
s 0
f 31/24/25 79/25/25 6/1/25
s 1
f 28/1/26 90/1/26 29/1/26
f 83/1/22 86/1/27 70/1/23
f 16/1/28 58/1/29 39/1/30
s 0
f 5/8/31 67/26/31 6/1/31
s 1
f 14/1/32 15/1/32 10/1/32
f 11/1/33 8/1/33 9/1/33
f 30/1/34 45/1/35 43/1/36
f 22/1/37 23/1/37 21/1/37
s 0
f 3/1/1 2/8/1 36/2/1
f 2/1/2 1/8/2 38/4/2
f 1/1/3 42/27/3 40/6/3
f 3/8/4 37/28/4 47/9/4
f 49/11/5 50/29/5 5/8/5
f 4/1/8 52/30/8 51/13/8
s 1
f 18/1/10 48/1/10 59/1/10
f 59/1/10 85/1/10 87/1/10
f 87/1/10 64/1/10 27/1/10
f 27/1/10 20/1/10 18/1/10
f 18/1/10 59/1/10 87/1/10
s 0
f 44/15/12 52/31/12 4/12/12
f 61/21/38 72/32/38 6/1/38
f 6/1/39 67/33/39 63/20/39
f 1/12/40 51/34/40 46/35/40
f 46/35/41 55/36/41 53/22/41
f 53/22/42 56/37/42 68/23/42
f 68/23/43 42/38/43 1/12/43
f 1/12/44 46/35/44 53/22/44
s 1
f 26/1/16 66/1/16 77/1/16
f 77/1/16 76/1/16 80/1/16
f 80/1/16 54/1/16 26/1/16
f 74/1/20 89/1/20 82/1/20
s 0
f 72/39/45 73/40/45 31/24/45
f 31/24/25 78/41/25 79/25/25
f 79/25/46 4/12/46 6/1/46
f 6/1/25 72/39/25 31/24/25
s 1
f 28/1/26 35/1/26 90/1/26
f 16/1/28 12/1/47 58/1/29
s 0
f 5/8/48 50/42/48 67/26/48
s 1
f 10/1/32 19/1/32 14/1/32
f 14/1/32 13/1/49 15/1/32
f 43/1/36 32/1/50 30/1/34
f 30/1/34 34/1/51 45/1/35
f 22/1/37 33/1/37 23/1/37
