mtllib basalt_causeway.mtl
o basalt_causeway
v 13.512500 0.000000 -3.837500
v 13.350000 0.000000 -4.000000
v 0.000000 0.000000 0.000000
v 13.675000 0.000000 -3.675000
v 13.512500 0.000000 -3.837500
v 0.000000 0.000000 0.000000
v 13.837500 0.000000 -3.512500
v 13.675000 0.000000 -3.675000
v 0.000000 0.000000 0.000000
v 14.000000 0.000000 -3.350000
v 13.837500 0.000000 -3.512500
v 0.000000 0.000000 0.000000
v 14.000000 0.000000 -1.675000
v 14.000000 0.000000 -3.350000
v 0.000000 0.000000 0.000000
v 14.000000 0.000000 0.000000
v 14.000000 0.000000 -1.675000
v 0.000000 0.000000 0.000000
v 14.000000 0.000000 1.675000
v 14.000000 0.000000 0.000000
v 0.000000 0.000000 0.000000
v 14.000000 0.000000 3.350000
v 14.000000 0.000000 1.675000
v 0.000000 0.000000 0.000000
v 13.837500 0.000000 3.512500
v 14.000000 0.000000 3.350000
v 0.000000 0.000000 0.000000
v 13.675000 0.000000 3.675000
v 13.837500 0.000000 3.512500
v 0.000000 0.000000 0.000000
v 13.512500 0.000000 3.837500
v 13.675000 0.000000 3.675000
v 0.000000 0.000000 0.000000
v 13.350000 0.000000 4.000000
v 13.512500 0.000000 3.837500
v 0.000000 0.000000 0.000000
v 6.675000 0.000000 4.000000
v 13.350000 0.000000 4.000000
v 0.000000 0.000000 0.000000
v 0.000000 0.000000 4.000000
v 6.675000 0.000000 4.000000
v 0.000000 0.000000 0.000000
v -6.675000 0.000000 4.000000
v 0.000000 0.000000 4.000000
v 0.000000 0.000000 0.000000
v -13.350000 0.000000 4.000000
v -6.675000 0.000000 4.000000
v 0.000000 0.000000 0.000000
v -13.512500 0.000000 3.837500
v -13.350000 0.000000 4.000000
v 0.000000 0.000000 0.000000
v -13.675000 0.000000 3.675000
v -13.512500 0.000000 3.837500
v 0.000000 0.000000 0.000000
v -13.837500 0.000000 3.512500
v -13.675000 0.000000 3.675000
v 0.000000 0.000000 0.000000
v -14.000000 0.000000 3.350000
v -13.837500 0.000000 3.512500
v 0.000000 0.000000 0.000000
v -14.000000 0.000000 1.675000
v -14.000000 0.000000 3.350000
v 0.000000 0.000000 0.000000
v -14.000000 0.000000 0.000000
v -14.000000 0.000000 1.675000
v 0.000000 0.000000 0.000000
v -14.000000 0.000000 -1.675000
v -14.000000 0.000000 0.000000
v 0.000000 0.000000 0.000000
v -14.000000 0.000000 -3.350000
v -14.000000 0.000000 -1.675000
v 0.000000 0.000000 0.000000
v -13.837500 0.000000 -3.512500
v -14.000000 0.000000 -3.350000
v 0.000000 0.000000 0.000000
v -13.675000 0.000000 -3.675000
v -13.837500 0.000000 -3.512500
v 0.000000 0.000000 0.000000
v -13.512500 0.000000 -3.837500
v -13.675000 0.000000 -3.675000
v 0.000000 0.000000 0.000000
v -13.350000 0.000000 -4.000000
v -13.512500 0.000000 -3.837500
v 0.000000 0.000000 0.000000
v -6.675000 0.000000 -4.000000
v -13.350000 0.000000 -4.000000
v 0.000000 0.000000 0.000000
v 0.000000 0.000000 -4.000000
v -6.675000 0.000000 -4.000000
v 0.000000 0.000000 0.000000
v 6.675000 0.000000 -4.000000
v 0.000000 0.000000 -4.000000
v 0.000000 0.000000 0.000000
v 13.350000 0.000000 -4.000000
v 6.675000 0.000000 -4.000000
v 0.000000 0.000000 0.000000
v 13.350000 0.000000 -4.000000
v 13.512500 0.000000 -3.837500
v 13.676758 -0.576000 -4.024638
v 13.474893 -0.576000 -4.201526
v 13.512500 0.000000 -3.837500
v 13.675000 0.000000 -3.675000
v 13.832466 -0.576000 -3.834298
v 13.676758 -0.576000 -4.024638
v 13.675000 0.000000 -3.675000
v 13.837500 0.000000 -3.512500
v 14.017910 -0.576000 -3.652607
v 13.832466 -0.576000 -3.834298
v 13.837500 0.000000 -3.512500
v 14.000000 0.000000 -3.350000
v 14.224836 -0.576000 -3.476069
v 14.017910 -0.576000 -3.652607
v 14.000000 0.000000 -3.350000
v 14.000000 0.000000 -1.675000
v 14.198360 -0.576000 -1.734800
v 14.224836 -0.576000 -3.476069
v 14.000000 0.000000 -1.675000
v 14.000000 0.000000 0.000000
v 14.166772 -0.576000 0.000000
v 14.198360 -0.576000 -1.734800
v 14.000000 0.000000 0.000000
v 14.000000 0.000000 1.675000
v 14.193769 -0.576000 1.734239
v 14.166772 -0.576000 0.000000
v 14.000000 0.000000 1.675000
v 14.000000 0.000000 3.350000
v 14.210670 -0.576000 3.472607
v 14.193769 -0.576000 1.734239
v 14.000000 0.000000 3.350000
v 13.837500 0.000000 3.512500
v 14.004591 -0.576000 3.649136
v 14.210670 -0.576000 3.472607
v 13.837500 0.000000 3.512500
v 13.675000 0.000000 3.675000
v 13.832760 -0.576000 3.834379
v 14.004591 -0.576000 3.649136
v 13.675000 0.000000 3.675000
v 13.512500 0.000000 3.837500
v 13.684589 -0.576000 4.026943
v 13.832760 -0.576000 3.834379
v 13.512500 0.000000 3.837500
v 13.350000 0.000000 4.000000
v 13.482777 -0.576000 4.203984
v 13.684589 -0.576000 4.026943
v 13.350000 0.000000 4.000000
v 6.675000 0.000000 4.000000
v 6.717854 -0.576000 4.189308
v 13.482777 -0.576000 4.203984
v 6.675000 0.000000 4.000000
v 0.000000 0.000000 4.000000
v 0.000000 -0.576000 4.198210
v 6.717854 -0.576000 4.189308
v 0.000000 0.000000 4.000000
v -6.675000 0.000000 4.000000
v -6.740178 -0.576000 4.203229
v 0.000000 -0.576000 4.198210
v -6.675000 0.000000 4.000000
v -13.350000 0.000000 4.000000
v -13.445323 -0.576000 4.192306
v -6.740178 -0.576000 4.203229
v -13.350000 0.000000 4.000000
v -13.512500 0.000000 3.837500
v -13.635985 -0.576000 4.012640
v -13.445323 -0.576000 4.192306
v -13.512500 0.000000 3.837500
v -13.675000 0.000000 3.675000
v -13.859097 -0.576000 3.841680
v -13.635985 -0.576000 4.012640
v -13.675000 0.000000 3.675000
v -13.837500 0.000000 3.512500
v -14.033253 -0.576000 3.656605
v -13.859097 -0.576000 3.841680
v -13.837500 0.000000 3.512500
v -14.000000 0.000000 3.350000
v -14.191314 -0.576000 3.467877
v -14.033253 -0.576000 3.656605
v -14.000000 0.000000 3.350000
v -14.000000 0.000000 1.675000
v -14.212072 -0.576000 1.736475
v -14.191314 -0.576000 3.467877
v -14.000000 0.000000 1.675000
v -14.000000 0.000000 0.000000
v -14.217101 -0.576000 0.000000
v -14.212072 -0.576000 1.736475
v -14.000000 0.000000 0.000000
v -14.000000 0.000000 -1.675000
v -14.176069 -0.576000 -1.732076
v -14.217101 -0.576000 0.000000
v -14.000000 0.000000 -1.675000
v -14.000000 0.000000 -3.350000
v -14.173980 -0.576000 -3.463642
v -14.176069 -0.576000 -1.732076
v -14.000000 0.000000 -3.350000
v -13.837500 0.000000 -3.512500
v -14.027379 -0.576000 -3.655074
v -14.173980 -0.576000 -3.463642
v -13.837500 0.000000 -3.512500
v -13.675000 0.000000 -3.675000
v -13.839276 -0.576000 -3.836185
v -14.027379 -0.576000 -3.655074
v -13.675000 0.000000 -3.675000
v -13.512500 0.000000 -3.837500
v -13.639762 -0.576000 -4.013751
v -13.839276 -0.576000 -3.836185
v -13.512500 0.000000 -3.837500
v -13.350000 0.000000 -4.000000
v -13.486752 -0.576000 -4.205223
v -13.639762 -0.576000 -4.013751
v -13.350000 0.000000 -4.000000
v -6.675000 0.000000 -4.000000
v -6.761258 -0.576000 -4.216374
v -13.486752 -0.576000 -4.205223
v -6.675000 0.000000 -4.000000
v 0.000000 0.000000 -4.000000
v 0.000000 -0.576000 -4.190488
v -6.761258 -0.576000 -4.216374
v 0.000000 0.000000 -4.000000
v 6.675000 0.000000 -4.000000
v 6.717967 -0.576000 -4.189378
v 0.000000 -0.576000 -4.190488
v 6.675000 0.000000 -4.000000
v 13.350000 0.000000 -4.000000
v 13.474893 -0.576000 -4.201526
v 6.717967 -0.576000 -4.189378
v 13.474893 -0.576000 -4.201526
v 13.676758 -0.576000 -4.024638
v 13.967508 -1.856000 -4.347171
v 13.782938 -1.856000 -4.562559
v 13.676758 -0.576000 -4.024638
v 13.832466 -0.576000 -3.834298
v 14.125092 -1.856000 -4.124806
v 13.967508 -1.856000 -4.347171
v 13.832466 -0.576000 -3.834298
v 14.017910 -0.576000 -3.652607
v 14.426424 -1.856000 -3.943607
v 14.125092 -1.856000 -4.124806
v 14.017910 -0.576000 -3.652607
v 14.224836 -0.576000 -3.476069
v 14.662457 -1.856000 -3.742322
v 14.426424 -1.856000 -3.943607
v 14.224836 -0.576000 -3.476069
v 14.198360 -0.576000 -1.734800
v 14.533919 -1.856000 -1.854757
v 14.662457 -1.856000 -3.742322
v 14.198360 -0.576000 -1.734800
v 14.166772 -0.576000 0.000000
v 14.510111 -1.856000 0.000000
v 14.533919 -1.856000 -1.854757
v 14.166772 -0.576000 0.000000
v 14.193769 -0.576000 1.734239
v 14.596503 -1.856000 1.862744
v 14.510111 -1.856000 0.000000
v 14.193769 -0.576000 1.734239
v 14.210670 -0.576000 3.472607
v 14.552354 -1.856000 3.714220
v 14.596503 -1.856000 1.862744
v 14.210670 -0.576000 3.472607
v 14.004591 -0.576000 3.649136
v 14.289323 -1.856000 3.906130
v 14.552354 -1.856000 3.714220
v 14.004591 -0.576000 3.649136
v 13.832760 -0.576000 3.834379
v 14.192469 -1.856000 4.144482
v 14.289323 -1.856000 3.906130
v 13.832760 -0.576000 3.834379
v 13.684589 -0.576000 4.026943
v 14.046946 -1.856000 4.371895
v 14.192469 -1.856000 4.144482
v 13.684589 -0.576000 4.026943
v 13.482777 -0.576000 4.203984
v 13.741684 -1.856000 4.548902
v 14.046946 -1.856000 4.371895
v 13.482777 -0.576000 4.203984
v 6.717854 -0.576000 4.189308
v 6.855274 -1.856000 4.538596
v 13.741684 -1.856000 4.548902
v 6.717854 -0.576000 4.189308
v 0.000000 -0.576000 4.198210
v 0.000000 -1.856000 4.603492
v 6.855274 -1.856000 4.538596
v 0.000000 -0.576000 4.198210
v -6.740178 -0.576000 4.203229
v -6.857311 -1.856000 4.539944
v 0.000000 -1.856000 4.603492
v -6.740178 -0.576000 4.203229
v -13.445323 -0.576000 4.192306
v -13.640715 -1.856000 4.515479
v -6.857311 -1.856000 4.539944
v -13.445323 -0.576000 4.192306
v -13.635985 -0.576000 4.012640
v -13.938943 -1.856000 4.338281
v -13.640715 -1.856000 4.515479
v -13.635985 -0.576000 4.012640
v -13.859097 -0.576000 3.841680
v -14.218358 -1.856000 4.152042
v -13.938943 -1.856000 4.338281
v -13.859097 -0.576000 3.841680
v -14.033253 -0.576000 3.656605
v -14.353644 -1.856000 3.923712
v -14.218358 -1.856000 4.152042
v -14.033253 -0.576000 3.656605
v -14.191314 -0.576000 3.467877
v -14.572595 -1.856000 3.719386
v -14.353644 -1.856000 3.923712
v -14.191314 -0.576000 3.467877
v -14.212072 -0.576000 1.736475
v -14.669398 -1.856000 1.872047
v -14.572595 -1.856000 3.719386
v -14.212072 -0.576000 1.736475
v -14.217101 -0.576000 0.000000
v -14.602838 -1.856000 0.000000
v -14.669398 -1.856000 1.872047
v -14.217101 -0.576000 0.000000
v -14.176069 -0.576000 -1.732076
v -14.488185 -1.856000 -1.848921
v -14.602838 -1.856000 0.000000
v -14.176069 -0.576000 -1.732076
v -14.173980 -0.576000 -3.463642
v -14.548758 -1.856000 -3.713302
v -14.488185 -1.856000 -1.848921
v -14.173980 -0.576000 -3.463642
v -14.027379 -0.576000 -3.655074
v -14.390598 -1.856000 -3.933814
v -14.548758 -1.856000 -3.713302
v -14.027379 -0.576000 -3.655074
v -13.839276 -0.576000 -3.836185
v -14.104014 -1.856000 -4.118651
v -14.390598 -1.856000 -3.933814
v -13.839276 -0.576000 -3.836185
v -13.639762 -0.576000 -4.013751
v -13.919086 -1.856000 -4.332101
v -14.104014 -1.856000 -4.118651
v -13.639762 -0.576000 -4.013751
v -13.486752 -0.576000 -4.205223
v -13.834491 -1.856000 -4.579624
v -13.919086 -1.856000 -4.332101
v -13.486752 -0.576000 -4.205223
v -6.761258 -0.576000 -4.216374
v -6.923610 -1.856000 -4.583838
v -13.834491 -1.856000 -4.579624
v -6.761258 -0.576000 -4.216374
v 0.000000 -0.576000 -4.190488
v 0.000000 -1.856000 -4.508651
v -6.923610 -1.856000 -4.583838
v 0.000000 -0.576000 -4.190488
v 6.717967 -0.576000 -4.189378
v 6.879157 -1.856000 -4.554407
v 0.000000 -1.856000 -4.508651
v 6.717967 -0.576000 -4.189378
v 13.474893 -0.576000 -4.201526
v 13.782938 -1.856000 -4.562559
v 6.879157 -1.856000 -4.554407
v 13.782938 -1.856000 -4.562559
v 13.967508 -1.856000 -4.347171
v 13.546904 -2.880000 -3.942774
v 13.413826 -2.880000 -4.152732
v 13.967508 -1.856000 -4.347171
v 14.125092 -1.856000 -4.124806
v 13.780173 -2.880000 -3.762317
v 13.546904 -2.880000 -3.942774
v 14.125092 -1.856000 -4.124806
v 14.426424 -1.856000 -3.943607
v 14.055146 -2.880000 -3.591061
v 13.780173 -2.880000 -3.762317
v 14.426424 -1.856000 -3.943607
v 14.662457 -1.856000 -3.742322
v 14.202287 -2.880000 -3.386507
v 14.055146 -2.880000 -3.591061
v 14.662457 -1.856000 -3.742322
v 14.533919 -1.856000 -1.854757
v 14.145400 -2.880000 -1.686471
v 14.202287 -2.880000 -3.386507
v 14.533919 -1.856000 -1.854757
v 14.510111 -1.856000 0.000000
v 14.194939 -2.880000 0.000000
v 14.145400 -2.880000 -1.686471
v 14.510111 -1.856000 0.000000
v 14.596503 -1.856000 1.862744
v 14.190858 -2.880000 1.691891
v 14.194939 -2.880000 0.000000
v 14.596503 -1.856000 1.862744
v 14.552354 -1.856000 3.714220
v 14.107285 -2.880000 3.363853
v 14.190858 -2.880000 1.691891
v 14.552354 -1.856000 3.714220
v 14.289323 -1.856000 3.906130
v 13.939668 -2.880000 3.561556
v 14.107285 -2.880000 3.363853
v 14.289323 -1.856000 3.906130
v 14.192469 -1.856000 4.144482
v 13.832797 -2.880000 3.776685
v 13.939668 -2.880000 3.561556
v 14.192469 -1.856000 4.144482
v 14.046946 -1.856000 4.371895
v 13.613959 -2.880000 3.962290
v 13.832797 -2.880000 3.776685
v 14.046946 -1.856000 4.371895
v 13.741684 -1.856000 4.548902
v 13.386921 -2.880000 4.144403
v 13.613959 -2.880000 3.962290
v 13.741684 -1.856000 4.548902
v 6.855274 -1.856000 4.538596
v 6.743211 -2.880000 4.175207
v 13.386921 -2.880000 4.144403
v 6.855274 -1.856000 4.538596
v 0.000000 -1.856000 4.603492
v 0.000000 -2.880000 4.199851
v 6.743211 -2.880000 4.175207
v 0.000000 -1.856000 4.603492
v -6.857311 -1.856000 4.539944
v -6.660642 -2.880000 4.124083
v 0.000000 -2.880000 4.199851
v -6.857311 -1.856000 4.539944
v -13.640715 -1.856000 4.515479
v -13.357342 -2.880000 4.135246
v -6.660642 -2.880000 4.124083
v -13.640715 -1.856000 4.515479
v -13.938943 -1.856000 4.338281
v -13.615389 -2.880000 3.962706
v -13.357342 -2.880000 4.135246
v -13.938943 -1.856000 4.338281
v -14.218358 -1.856000 4.152042
v -13.775812 -2.880000 3.761126
v -13.615389 -2.880000 3.962706
v -14.218358 -1.856000 4.152042
v -14.353644 -1.856000 3.923712
v -13.939742 -2.880000 3.561575
v -13.775812 -2.880000 3.761126
v -14.353644 -1.856000 3.923712
v -14.572595 -1.856000 3.719386
v -14.216688 -2.880000 3.389940
v -13.939742 -2.880000 3.561575
v -14.572595 -1.856000 3.719386
v -14.669398 -1.856000 1.872047
v -14.245240 -2.880000 1.698374
v -14.216688 -2.880000 3.389940
v -14.669398 -1.856000 1.872047
v -14.602838 -1.856000 0.000000
v -14.159853 -2.880000 0.000000
v -14.245240 -2.880000 1.698374
v -14.602838 -1.856000 0.000000
v -14.488185 -1.856000 -1.848921
v -14.152908 -2.880000 -1.687366
v -14.159853 -2.880000 0.000000
v -14.488185 -1.856000 -1.848921
v -14.548758 -1.856000 -3.713302
v -14.203012 -2.880000 -3.386679
v -14.152908 -2.880000 -1.687366
v -14.548758 -1.856000 -3.713302
v -14.390598 -1.856000 -3.933814
v -13.957063 -2.880000 -3.566001
v -14.203012 -2.880000 -3.386679
v -14.390598 -1.856000 -3.933814
v -14.104014 -1.856000 -4.118651
v -13.717673 -2.880000 -3.745253
v -13.957063 -2.880000 -3.566001
v -14.104014 -1.856000 -4.118651
v -13.919086 -1.856000 -4.332101
v -13.606144 -2.880000 -3.960016
v -13.717673 -2.880000 -3.745253
v -13.919086 -1.856000 -4.332101
v -13.834491 -1.856000 -4.579624
v -13.456917 -2.880000 -4.166073
v -13.606144 -2.880000 -3.960016
v -13.834491 -1.856000 -4.579624
v -6.923610 -1.856000 -4.583838
v -6.695965 -2.880000 -4.145954
v -13.456917 -2.880000 -4.166073
v -6.923610 -1.856000 -4.583838
v 0.000000 -1.856000 -4.508651
v 0.000000 -2.880000 -4.152894
v -6.695965 -2.880000 -4.145954
v 0.000000 -1.856000 -4.508651
v 6.879157 -1.856000 -4.554407
v 6.755046 -2.880000 -4.182535
v 0.000000 -2.880000 -4.152894
v 6.879157 -1.856000 -4.554407
v 13.782938 -1.856000 -4.562559
v 13.413826 -2.880000 -4.152732
v 6.755046 -2.880000 -4.182535
v 0.000000 -3.200000 0.000000
v 13.413826 -2.880000 -4.152732
v 13.546904 -2.880000 -3.942774
v 0.000000 -3.200000 0.000000
v 13.546904 -2.880000 -3.942774
v 13.780173 -2.880000 -3.762317
v 0.000000 -3.200000 0.000000
v 13.780173 -2.880000 -3.762317
v 14.055146 -2.880000 -3.591061
v 0.000000 -3.200000 0.000000
v 14.055146 -2.880000 -3.591061
v 14.202287 -2.880000 -3.386507
v 0.000000 -3.200000 0.000000
v 14.202287 -2.880000 -3.386507
v 14.145400 -2.880000 -1.686471
v 0.000000 -3.200000 0.000000
v 14.145400 -2.880000 -1.686471
v 14.194939 -2.880000 0.000000
v 0.000000 -3.200000 0.000000
v 14.194939 -2.880000 0.000000
v 14.190858 -2.880000 1.691891
v 0.000000 -3.200000 0.000000
v 14.190858 -2.880000 1.691891
v 14.107285 -2.880000 3.363853
v 0.000000 -3.200000 0.000000
v 14.107285 -2.880000 3.363853
v 13.939668 -2.880000 3.561556
v 0.000000 -3.200000 0.000000
v 13.939668 -2.880000 3.561556
v 13.832797 -2.880000 3.776685
v 0.000000 -3.200000 0.000000
v 13.832797 -2.880000 3.776685
v 13.613959 -2.880000 3.962290
v 0.000000 -3.200000 0.000000
v 13.613959 -2.880000 3.962290
v 13.386921 -2.880000 4.144403
v 0.000000 -3.200000 0.000000
v 13.386921 -2.880000 4.144403
v 6.743211 -2.880000 4.175207
v 0.000000 -3.200000 0.000000
v 6.743211 -2.880000 4.175207
v 0.000000 -2.880000 4.199851
v 0.000000 -3.200000 0.000000
v 0.000000 -2.880000 4.199851
v -6.660642 -2.880000 4.124083
v 0.000000 -3.200000 0.000000
v -6.660642 -2.880000 4.124083
v -13.357342 -2.880000 4.135246
v 0.000000 -3.200000 0.000000
v -13.357342 -2.880000 4.135246
v -13.615389 -2.880000 3.962706
v 0.000000 -3.200000 0.000000
v -13.615389 -2.880000 3.962706
v -13.775812 -2.880000 3.761126
v 0.000000 -3.200000 0.000000
v -13.775812 -2.880000 3.761126
v -13.939742 -2.880000 3.561575
v 0.000000 -3.200000 0.000000
v -13.939742 -2.880000 3.561575
v -14.216688 -2.880000 3.389940
v 0.000000 -3.200000 0.000000
v -14.216688 -2.880000 3.389940
v -14.245240 -2.880000 1.698374
v 0.000000 -3.200000 0.000000
v -14.245240 -2.880000 1.698374
v -14.159853 -2.880000 0.000000
v 0.000000 -3.200000 0.000000
v -14.159853 -2.880000 0.000000
v -14.152908 -2.880000 -1.687366
v 0.000000 -3.200000 0.000000
v -14.152908 -2.880000 -1.687366
v -14.203012 -2.880000 -3.386679
v 0.000000 -3.200000 0.000000
v -14.203012 -2.880000 -3.386679
v -13.957063 -2.880000 -3.566001
v 0.000000 -3.200000 0.000000
v -13.957063 -2.880000 -3.566001
v -13.717673 -2.880000 -3.745253
v 0.000000 -3.200000 0.000000
v -13.717673 -2.880000 -3.745253
v -13.606144 -2.880000 -3.960016
v 0.000000 -3.200000 0.000000
v -13.606144 -2.880000 -3.960016
v -13.456917 -2.880000 -4.166073
v 0.000000 -3.200000 0.000000
v -13.456917 -2.880000 -4.166073
v -6.695965 -2.880000 -4.145954
v 0.000000 -3.200000 0.000000
v -6.695965 -2.880000 -4.145954
v 0.000000 -2.880000 -4.152894
v 0.000000 -3.200000 0.000000
v 0.000000 -2.880000 -4.152894
v 6.755046 -2.880000 -4.182535
v 0.000000 -3.200000 0.000000
v 6.755046 -2.880000 -4.182535
v 13.413826 -2.880000 -4.152732
v -12.130000 0.030000 -3.625000
v -11.870000 0.030000 -3.625000
v -11.870000 -0.090000 -3.625000
v -12.130000 -0.090000 -3.625000
v -12.130000 -0.090000 3.625000
v -11.870000 -0.090000 3.625000
v -11.870000 0.030000 3.625000
v -12.130000 0.030000 3.625000
v -12.130000 -0.090000 -3.625000
v -12.130000 -0.090000 3.625000
v -12.130000 0.030000 3.625000
v -12.130000 0.030000 -3.625000
v -11.870000 -0.090000 3.625000
v -11.870000 -0.090000 -3.625000
v -11.870000 0.030000 -3.625000
v -11.870000 0.030000 3.625000
v -12.130000 0.030000 -3.625000
v -12.130000 0.030000 3.625000
v -11.870000 0.030000 3.625000
v -11.870000 0.030000 -3.625000
v -12.130000 -0.090000 -3.625000
v -11.870000 -0.090000 -3.625000
v -11.870000 -0.090000 3.625000
v -12.130000 -0.090000 3.625000
v -6.130000 0.030000 -3.625000
v -5.870000 0.030000 -3.625000
v -5.870000 -0.090000 -3.625000
v -6.130000 -0.090000 -3.625000
v -6.130000 -0.090000 3.625000
v -5.870000 -0.090000 3.625000
v -5.870000 0.030000 3.625000
v -6.130000 0.030000 3.625000
v -6.130000 -0.090000 -3.625000
v -6.130000 -0.090000 3.625000
v -6.130000 0.030000 3.625000
v -6.130000 0.030000 -3.625000
v -5.870000 -0.090000 3.625000
v -5.870000 -0.090000 -3.625000
v -5.870000 0.030000 -3.625000
v -5.870000 0.030000 3.625000
v -6.130000 0.030000 -3.625000
v -6.130000 0.030000 3.625000
v -5.870000 0.030000 3.625000
v -5.870000 0.030000 -3.625000
v -6.130000 -0.090000 -3.625000
v -5.870000 -0.090000 -3.625000
v -5.870000 -0.090000 3.625000
v -6.130000 -0.090000 3.625000
v -0.130000 0.030000 -3.625000
v 0.130000 0.030000 -3.625000
v 0.130000 -0.090000 -3.625000
v -0.130000 -0.090000 -3.625000
v -0.130000 -0.090000 3.625000
v 0.130000 -0.090000 3.625000
v 0.130000 0.030000 3.625000
v -0.130000 0.030000 3.625000
v -0.130000 -0.090000 -3.625000
v -0.130000 -0.090000 3.625000
v -0.130000 0.030000 3.625000
v -0.130000 0.030000 -3.625000
v 0.130000 -0.090000 3.625000
v 0.130000 -0.090000 -3.625000
v 0.130000 0.030000 -3.625000
v 0.130000 0.030000 3.625000
v -0.130000 0.030000 -3.625000
v -0.130000 0.030000 3.625000
v 0.130000 0.030000 3.625000
v 0.130000 0.030000 -3.625000
v -0.130000 -0.090000 -3.625000
v 0.130000 -0.090000 -3.625000
v 0.130000 -0.090000 3.625000
v -0.130000 -0.090000 3.625000
v 5.870000 0.030000 -3.625000
v 6.130000 0.030000 -3.625000
v 6.130000 -0.090000 -3.625000
v 5.870000 -0.090000 -3.625000
v 5.870000 -0.090000 3.625000
v 6.130000 -0.090000 3.625000
v 6.130000 0.030000 3.625000
v 5.870000 0.030000 3.625000
v 5.870000 -0.090000 -3.625000
v 5.870000 -0.090000 3.625000
v 5.870000 0.030000 3.625000
v 5.870000 0.030000 -3.625000
v 6.130000 -0.090000 3.625000
v 6.130000 -0.090000 -3.625000
v 6.130000 0.030000 -3.625000
v 6.130000 0.030000 3.625000
v 5.870000 0.030000 -3.625000
v 5.870000 0.030000 3.625000
v 6.130000 0.030000 3.625000
v 6.130000 0.030000 -3.625000
v 5.870000 -0.090000 -3.625000
v 6.130000 -0.090000 -3.625000
v 6.130000 -0.090000 3.625000
v 5.870000 -0.090000 3.625000
v 11.870000 0.030000 -3.625000
v 12.130000 0.030000 -3.625000
v 12.130000 -0.090000 -3.625000
v 11.870000 -0.090000 -3.625000
v 11.870000 -0.090000 3.625000
v 12.130000 -0.090000 3.625000
v 12.130000 0.030000 3.625000
v 11.870000 0.030000 3.625000
v 11.870000 -0.090000 -3.625000
v 11.870000 -0.090000 3.625000
v 11.870000 0.030000 3.625000
v 11.870000 0.030000 -3.625000
v 12.130000 -0.090000 3.625000
v 12.130000 -0.090000 -3.625000
v 12.130000 0.030000 -3.625000
v 12.130000 0.030000 3.625000
v 11.870000 0.030000 -3.625000
v 11.870000 0.030000 3.625000
v 12.130000 0.030000 3.625000
v 12.130000 0.030000 -3.625000
v 11.870000 -0.090000 -3.625000
v 12.130000 -0.090000 -3.625000
v 12.130000 -0.090000 3.625000
v 11.870000 -0.090000 3.625000
vt 0.982589 0.979688
vt 0.976786 1.000000
vt 0.500000 0.500000
vt 0.988393 0.959375
vt 0.982589 0.979688
vt 0.500000 0.500000
vt 0.994196 0.939063
vt 0.988393 0.959375
vt 0.500000 0.500000
vt 1.000000 0.918750
vt 0.994196 0.939063
vt 0.500000 0.500000
vt 1.000000 0.709375
vt 1.000000 0.918750
vt 0.500000 0.500000
vt 1.000000 0.500000
vt 1.000000 0.709375
vt 0.500000 0.500000
vt 1.000000 0.290625
vt 1.000000 0.500000
vt 0.500000 0.500000
vt 1.000000 0.081250
vt 1.000000 0.290625
vt 0.500000 0.500000
vt 0.994196 0.060937
vt 1.000000 0.081250
vt 0.500000 0.500000
vt 0.988393 0.040625
vt 0.994196 0.060937
vt 0.500000 0.500000
vt 0.982589 0.020313
vt 0.988393 0.040625
vt 0.500000 0.500000
vt 0.976786 0.000000
vt 0.982589 0.020313
vt 0.500000 0.500000
vt 0.738393 0.000000
vt 0.976786 0.000000
vt 0.500000 0.500000
vt 0.500000 0.000000
vt 0.738393 0.000000
vt 0.500000 0.500000
vt 0.261607 0.000000
vt 0.500000 0.000000
vt 0.500000 0.500000
vt 0.023214 0.000000
vt 0.261607 0.000000
vt 0.500000 0.500000
vt 0.017411 0.020313
vt 0.023214 0.000000
vt 0.500000 0.500000
vt 0.011607 0.040625
vt 0.017411 0.020313
vt 0.500000 0.500000
vt 0.005804 0.060937
vt 0.011607 0.040625
vt 0.500000 0.500000
vt 0.000000 0.081250
vt 0.005804 0.060937
vt 0.500000 0.500000
vt 0.000000 0.290625
vt 0.000000 0.081250
vt 0.500000 0.500000
vt 0.000000 0.500000
vt 0.000000 0.290625
vt 0.500000 0.500000
vt 0.000000 0.709375
vt 0.000000 0.500000
vt 0.500000 0.500000
vt 0.000000 0.918750
vt 0.000000 0.709375
vt 0.500000 0.500000
vt 0.005804 0.939063
vt 0.000000 0.918750
vt 0.500000 0.500000
vt 0.011607 0.959375
vt 0.005804 0.939063
vt 0.500000 0.500000
vt 0.017411 0.979688
vt 0.011607 0.959375
vt 0.500000 0.500000
vt 0.023214 1.000000
vt 0.017411 0.979688
vt 0.500000 0.500000
vt 0.261607 1.000000
vt 0.023214 1.000000
vt 0.500000 0.500000
vt 0.500000 1.000000
vt 0.261607 1.000000
vt 0.500000 0.500000
vt 0.738393 1.000000
vt 0.500000 1.000000
vt 0.500000 0.500000
vt 0.976786 1.000000
vt 0.738393 1.000000
vt 0.500000 0.500000
vt 0.000000 0.000000
vt 0.031250 0.000000
vt 0.031250 1.000000
vt 0.000000 1.000000
vt 0.031250 0.000000
vt 0.062500 0.000000
vt 0.062500 1.000000
vt 0.031250 1.000000
vt 0.062500 0.000000
vt 0.093750 0.000000
vt 0.093750 1.000000
vt 0.062500 1.000000
vt 0.093750 0.000000
vt 0.125000 0.000000
vt 0.125000 1.000000
vt 0.093750 1.000000
vt 0.125000 0.000000
vt 0.156250 0.000000
vt 0.156250 1.000000
vt 0.125000 1.000000
vt 0.156250 0.000000
vt 0.187500 0.000000
vt 0.187500 1.000000
vt 0.156250 1.000000
vt 0.187500 0.000000
vt 0.218750 0.000000
vt 0.218750 1.000000
vt 0.187500 1.000000
vt 0.218750 0.000000
vt 0.250000 0.000000
vt 0.250000 1.000000
vt 0.218750 1.000000
vt 0.250000 0.000000
vt 0.281250 0.000000
vt 0.281250 1.000000
vt 0.250000 1.000000
vt 0.281250 0.000000
vt 0.312500 0.000000
vt 0.312500 1.000000
vt 0.281250 1.000000
vt 0.312500 0.000000
vt 0.343750 0.000000
vt 0.343750 1.000000
vt 0.312500 1.000000
vt 0.343750 0.000000
vt 0.375000 0.000000
vt 0.375000 1.000000
vt 0.343750 1.000000
vt 0.375000 0.000000
vt 0.406250 0.000000
vt 0.406250 1.000000
vt 0.375000 1.000000
vt 0.406250 0.000000
vt 0.437500 0.000000
vt 0.437500 1.000000
vt 0.406250 1.000000
vt 0.437500 0.000000
vt 0.468750 0.000000
vt 0.468750 1.000000
vt 0.437500 1.000000
vt 0.468750 0.000000
vt 0.500000 0.000000
vt 0.500000 1.000000
vt 0.468750 1.000000
vt 0.500000 0.000000
vt 0.531250 0.000000
vt 0.531250 1.000000
vt 0.500000 1.000000
vt 0.531250 0.000000
vt 0.562500 0.000000
vt 0.562500 1.000000
vt 0.531250 1.000000
vt 0.562500 0.000000
vt 0.593750 0.000000
vt 0.593750 1.000000
vt 0.562500 1.000000
vt 0.593750 0.000000
vt 0.625000 0.000000
vt 0.625000 1.000000
vt 0.593750 1.000000
vt 0.625000 0.000000
vt 0.656250 0.000000
vt 0.656250 1.000000
vt 0.625000 1.000000
vt 0.656250 0.000000
vt 0.687500 0.000000
vt 0.687500 1.000000
vt 0.656250 1.000000
vt 0.687500 0.000000
vt 0.718750 0.000000
vt 0.718750 1.000000
vt 0.687500 1.000000
vt 0.718750 0.000000
vt 0.750000 0.000000
vt 0.750000 1.000000
vt 0.718750 1.000000
vt 0.750000 0.000000
vt 0.781250 0.000000
vt 0.781250 1.000000
vt 0.750000 1.000000
vt 0.781250 0.000000
vt 0.812500 0.000000
vt 0.812500 1.000000
vt 0.781250 1.000000
vt 0.812500 0.000000
vt 0.843750 0.000000
vt 0.843750 1.000000
vt 0.812500 1.000000
vt 0.843750 0.000000
vt 0.875000 0.000000
vt 0.875000 1.000000
vt 0.843750 1.000000
vt 0.875000 0.000000
vt 0.906250 0.000000
vt 0.906250 1.000000
vt 0.875000 1.000000
vt 0.906250 0.000000
vt 0.937500 0.000000
vt 0.937500 1.000000
vt 0.906250 1.000000
vt 0.937500 0.000000
vt 0.968750 0.000000
vt 0.968750 1.000000
vt 0.937500 1.000000
vt 0.968750 0.000000
vt 1.000000 0.000000
vt 1.000000 1.000000
vt 0.968750 1.000000
vt 0.000000 0.000000
vt 0.031250 0.000000
vt 0.031250 1.000000
vt 0.000000 1.000000
vt 0.031250 0.000000
vt 0.062500 0.000000
vt 0.062500 1.000000
vt 0.031250 1.000000
vt 0.062500 0.000000
vt 0.093750 0.000000
vt 0.093750 1.000000
vt 0.062500 1.000000
vt 0.093750 0.000000
vt 0.125000 0.000000
vt 0.125000 1.000000
vt 0.093750 1.000000
vt 0.125000 0.000000
vt 0.156250 0.000000
vt 0.156250 1.000000
vt 0.125000 1.000000
vt 0.156250 0.000000
vt 0.187500 0.000000
vt 0.187500 1.000000
vt 0.156250 1.000000
vt 0.187500 0.000000
vt 0.218750 0.000000
vt 0.218750 1.000000
vt 0.187500 1.000000
vt 0.218750 0.000000
vt 0.250000 0.000000
vt 0.250000 1.000000
vt 0.218750 1.000000
vt 0.250000 0.000000
vt 0.281250 0.000000
vt 0.281250 1.000000
vt 0.250000 1.000000
vt 0.281250 0.000000
vt 0.312500 0.000000
vt 0.312500 1.000000
vt 0.281250 1.000000
vt 0.312500 0.000000
vt 0.343750 0.000000
vt 0.343750 1.000000
vt 0.312500 1.000000
vt 0.343750 0.000000
vt 0.375000 0.000000
vt 0.375000 1.000000
vt 0.343750 1.000000
vt 0.375000 0.000000
vt 0.406250 0.000000
vt 0.406250 1.000000
vt 0.375000 1.000000
vt 0.406250 0.000000
vt 0.437500 0.000000
vt 0.437500 1.000000
vt 0.406250 1.000000
vt 0.437500 0.000000
vt 0.468750 0.000000
vt 0.468750 1.000000
vt 0.437500 1.000000
vt 0.468750 0.000000
vt 0.500000 0.000000
vt 0.500000 1.000000
vt 0.468750 1.000000
vt 0.500000 0.000000
vt 0.531250 0.000000
vt 0.531250 1.000000
vt 0.500000 1.000000
vt 0.531250 0.000000
vt 0.562500 0.000000
vt 0.562500 1.000000
vt 0.531250 1.000000
vt 0.562500 0.000000
vt 0.593750 0.000000
vt 0.593750 1.000000
vt 0.562500 1.000000
vt 0.593750 0.000000
vt 0.625000 0.000000
vt 0.625000 1.000000
vt 0.593750 1.000000
vt 0.625000 0.000000
vt 0.656250 0.000000
vt 0.656250 1.000000
vt 0.625000 1.000000
vt 0.656250 0.000000
vt 0.687500 0.000000
vt 0.687500 1.000000
vt 0.656250 1.000000
vt 0.687500 0.000000
vt 0.718750 0.000000
vt 0.718750 1.000000
vt 0.687500 1.000000
vt 0.718750 0.000000
vt 0.750000 0.000000
vt 0.750000 1.000000
vt 0.718750 1.000000
vt 0.750000 0.000000
vt 0.781250 0.000000
vt 0.781250 1.000000
vt 0.750000 1.000000
vt 0.781250 0.000000
vt 0.812500 0.000000
vt 0.812500 1.000000
vt 0.781250 1.000000
vt 0.812500 0.000000
vt 0.843750 0.000000
vt 0.843750 1.000000
vt 0.812500 1.000000
vt 0.843750 0.000000
vt 0.875000 0.000000
vt 0.875000 1.000000
vt 0.843750 1.000000
vt 0.875000 0.000000
vt 0.906250 0.000000
vt 0.906250 1.000000
vt 0.875000 1.000000
vt 0.906250 0.000000
vt 0.937500 0.000000
vt 0.937500 1.000000
vt 0.906250 1.000000
vt 0.937500 0.000000
vt 0.968750 0.000000
vt 0.968750 1.000000
vt 0.937500 1.000000
vt 0.968750 0.000000
vt 1.000000 0.000000
vt 1.000000 1.000000
vt 0.968750 1.000000
vt 0.000000 0.000000
vt 0.031250 0.000000
vt 0.031250 1.000000
vt 0.000000 1.000000
vt 0.031250 0.000000
vt 0.062500 0.000000
vt 0.062500 1.000000
vt 0.031250 1.000000
vt 0.062500 0.000000
vt 0.093750 0.000000
vt 0.093750 1.000000
vt 0.062500 1.000000
vt 0.093750 0.000000
vt 0.125000 0.000000
vt 0.125000 1.000000
vt 0.093750 1.000000
vt 0.125000 0.000000
vt 0.156250 0.000000
vt 0.156250 1.000000
vt 0.125000 1.000000
vt 0.156250 0.000000
vt 0.187500 0.000000
vt 0.187500 1.000000
vt 0.156250 1.000000
vt 0.187500 0.000000
vt 0.218750 0.000000
vt 0.218750 1.000000
vt 0.187500 1.000000
vt 0.218750 0.000000
vt 0.250000 0.000000
vt 0.250000 1.000000
vt 0.218750 1.000000
vt 0.250000 0.000000
vt 0.281250 0.000000
vt 0.281250 1.000000
vt 0.250000 1.000000
vt 0.281250 0.000000
vt 0.312500 0.000000
vt 0.312500 1.000000
vt 0.281250 1.000000
vt 0.312500 0.000000
vt 0.343750 0.000000
vt 0.343750 1.000000
vt 0.312500 1.000000
vt 0.343750 0.000000
vt 0.375000 0.000000
vt 0.375000 1.000000
vt 0.343750 1.000000
vt 0.375000 0.000000
vt 0.406250 0.000000
vt 0.406250 1.000000
vt 0.375000 1.000000
vt 0.406250 0.000000
vt 0.437500 0.000000
vt 0.437500 1.000000
vt 0.406250 1.000000
vt 0.437500 0.000000
vt 0.468750 0.000000
vt 0.468750 1.000000
vt 0.437500 1.000000
vt 0.468750 0.000000
vt 0.500000 0.000000
vt 0.500000 1.000000
vt 0.468750 1.000000
vt 0.500000 0.000000
vt 0.531250 0.000000
vt 0.531250 1.000000
vt 0.500000 1.000000
vt 0.531250 0.000000
vt 0.562500 0.000000
vt 0.562500 1.000000
vt 0.531250 1.000000
vt 0.562500 0.000000
vt 0.593750 0.000000
vt 0.593750 1.000000
vt 0.562500 1.000000
vt 0.593750 0.000000
vt 0.625000 0.000000
vt 0.625000 1.000000
vt 0.593750 1.000000
vt 0.625000 0.000000
vt 0.656250 0.000000
vt 0.656250 1.000000
vt 0.625000 1.000000
vt 0.656250 0.000000
vt 0.687500 0.000000
vt 0.687500 1.000000
vt 0.656250 1.000000
vt 0.687500 0.000000
vt 0.718750 0.000000
vt 0.718750 1.000000
vt 0.687500 1.000000
vt 0.718750 0.000000
vt 0.750000 0.000000
vt 0.750000 1.000000
vt 0.718750 1.000000
vt 0.750000 0.000000
vt 0.781250 0.000000
vt 0.781250 1.000000
vt 0.750000 1.000000
vt 0.781250 0.000000
vt 0.812500 0.000000
vt 0.812500 1.000000
vt 0.781250 1.000000
vt 0.812500 0.000000
vt 0.843750 0.000000
vt 0.843750 1.000000
vt 0.812500 1.000000
vt 0.843750 0.000000
vt 0.875000 0.000000
vt 0.875000 1.000000
vt 0.843750 1.000000
vt 0.875000 0.000000
vt 0.906250 0.000000
vt 0.906250 1.000000
vt 0.875000 1.000000
vt 0.906250 0.000000
vt 0.937500 0.000000
vt 0.937500 1.000000
vt 0.906250 1.000000
vt 0.937500 0.000000
vt 0.968750 0.000000
vt 0.968750 1.000000
vt 0.937500 1.000000
vt 0.968750 0.000000
vt 1.000000 0.000000
vt 1.000000 1.000000
vt 0.968750 1.000000
vt 0.500000 0.500000
vt 0.969484 0.645346
vt 0.974142 0.637997
vt 0.500000 0.500000
vt 0.974142 0.637997
vt 0.982306 0.631681
vt 0.500000 0.500000
vt 0.982306 0.631681
vt 0.991930 0.625687
vt 0.500000 0.500000
vt 0.991930 0.625687
vt 0.997080 0.618528
vt 0.500000 0.500000
vt 0.997080 0.618528
vt 0.995089 0.559026
vt 0.500000 0.500000
vt 0.995089 0.559026
vt 0.996823 0.500000
vt 0.500000 0.500000
vt 0.996823 0.500000
vt 0.996680 0.440784
vt 0.500000 0.500000
vt 0.996680 0.440784
vt 0.993755 0.382265
vt 0.500000 0.500000
vt 0.993755 0.382265
vt 0.987888 0.375346
vt 0.500000 0.500000
vt 0.987888 0.375346
vt 0.984148 0.367816
vt 0.500000 0.500000
vt 0.984148 0.367816
vt 0.976489 0.361320
vt 0.500000 0.500000
vt 0.976489 0.361320
vt 0.968542 0.354946
vt 0.500000 0.500000
vt 0.968542 0.354946
vt 0.736012 0.353868
vt 0.500000 0.500000
vt 0.736012 0.353868
vt 0.500000 0.353005
vt 0.500000 0.500000
vt 0.500000 0.353005
vt 0.266878 0.355657
vt 0.500000 0.500000
vt 0.266878 0.355657
vt 0.032493 0.355266
vt 0.500000 0.500000
vt 0.032493 0.355266
vt 0.023461 0.361305
vt 0.500000 0.500000
vt 0.023461 0.361305
vt 0.017847 0.368361
vt 0.500000 0.500000
vt 0.017847 0.368361
vt 0.012109 0.375345
vt 0.500000 0.500000
vt 0.012109 0.375345
vt 0.002416 0.381352
vt 0.500000 0.500000
vt 0.002416 0.381352
vt 0.001417 0.440557
vt 0.500000 0.500000
vt 0.001417 0.440557
vt 0.004405 0.500000
vt 0.500000 0.500000
vt 0.004405 0.500000
vt 0.004648 0.559058
vt 0.500000 0.500000
vt 0.004648 0.559058
vt 0.002895 0.618534
vt 0.500000 0.500000
vt 0.002895 0.618534
vt 0.011503 0.624810
vt 0.500000 0.500000
vt 0.011503 0.624810
vt 0.019881 0.631084
vt 0.500000 0.500000
vt 0.019881 0.631084
vt 0.023785 0.638601
vt 0.500000 0.500000
vt 0.023785 0.638601
vt 0.029008 0.645813
vt 0.500000 0.500000
vt 0.029008 0.645813
vt 0.265641 0.645108
vt 0.500000 0.500000
vt 0.265641 0.645108
vt 0.500000 0.645351
vt 0.500000 0.500000
vt 0.500000 0.645351
vt 0.736427 0.646389
vt 0.500000 0.500000
vt 0.736427 0.646389
vt 0.969484 0.645346
vt 0.075450 0.626875
vt 0.084550 0.626875
vt 0.084550 0.626875
vt 0.075450 0.626875
vt 0.075450 0.373125
vt 0.084550 0.373125
vt 0.084550 0.373125
vt 0.075450 0.373125
vt 0.075450 0.626875
vt 0.075450 0.373125
vt 0.075450 0.373125
vt 0.075450 0.626875
vt 0.084550 0.373125
vt 0.084550 0.626875
vt 0.084550 0.626875
vt 0.084550 0.373125
vt 0.075450 0.626875
vt 0.075450 0.373125
vt 0.084550 0.373125
vt 0.084550 0.626875
vt 0.075450 0.626875
vt 0.084550 0.626875
vt 0.084550 0.373125
vt 0.075450 0.373125
vt 0.285450 0.626875
vt 0.294550 0.626875
vt 0.294550 0.626875
vt 0.285450 0.626875
vt 0.285450 0.373125
vt 0.294550 0.373125
vt 0.294550 0.373125
vt 0.285450 0.373125
vt 0.285450 0.626875
vt 0.285450 0.373125
vt 0.285450 0.373125
vt 0.285450 0.626875
vt 0.294550 0.373125
vt 0.294550 0.626875
vt 0.294550 0.626875
vt 0.294550 0.373125
vt 0.285450 0.626875
vt 0.285450 0.373125
vt 0.294550 0.373125
vt 0.294550 0.626875
vt 0.285450 0.626875
vt 0.294550 0.626875
vt 0.294550 0.373125
vt 0.285450 0.373125
vt 0.495450 0.626875
vt 0.504550 0.626875
vt 0.504550 0.626875
vt 0.495450 0.626875
vt 0.495450 0.373125
vt 0.504550 0.373125
vt 0.504550 0.373125
vt 0.495450 0.373125
vt 0.495450 0.626875
vt 0.495450 0.373125
vt 0.495450 0.373125
vt 0.495450 0.626875
vt 0.504550 0.373125
vt 0.504550 0.626875
vt 0.504550 0.626875
vt 0.504550 0.373125
vt 0.495450 0.626875
vt 0.495450 0.373125
vt 0.504550 0.373125
vt 0.504550 0.626875
vt 0.495450 0.626875
vt 0.504550 0.626875
vt 0.504550 0.373125
vt 0.495450 0.373125
vt 0.705450 0.626875
vt 0.714550 0.626875
vt 0.714550 0.626875
vt 0.705450 0.626875
vt 0.705450 0.373125
vt 0.714550 0.373125
vt 0.714550 0.373125
vt 0.705450 0.373125
vt 0.705450 0.626875
vt 0.705450 0.373125
vt 0.705450 0.373125
vt 0.705450 0.626875
vt 0.714550 0.373125
vt 0.714550 0.626875
vt 0.714550 0.626875
vt 0.714550 0.373125
vt 0.705450 0.626875
vt 0.705450 0.373125
vt 0.714550 0.373125
vt 0.714550 0.626875
vt 0.705450 0.626875
vt 0.714550 0.626875
vt 0.714550 0.373125
vt 0.705450 0.373125
vt 0.915450 0.626875
vt 0.924550 0.626875
vt 0.924550 0.626875
vt 0.915450 0.626875
vt 0.915450 0.373125
vt 0.924550 0.373125
vt 0.924550 0.373125
vt 0.915450 0.373125
vt 0.915450 0.626875
vt 0.915450 0.373125
vt 0.915450 0.373125
vt 0.915450 0.626875
vt 0.924550 0.373125
vt 0.924550 0.626875
vt 0.924550 0.626875
vt 0.924550 0.373125
vt 0.915450 0.626875
vt 0.915450 0.373125
vt 0.924550 0.373125
vt 0.924550 0.626875
vt 0.915450 0.626875
vt 0.924550 0.626875
vt 0.924550 0.373125
vt 0.915450 0.373125
vn 0.000000 1.000000 0.000000
vn 0.000000 1.000000 0.000000
vn 0.000000 1.000000 0.000000
vn 0.000000 1.000000 0.000000
vn 0.000000 1.000000 0.000000
vn 0.000000 1.000000 0.000000
vn 0.000000 1.000000 0.000000
vn 0.000000 1.000000 0.000000
vn 0.000000 1.000000 0.000000
vn 0.000000 1.000000 0.000000
vn 0.000000 1.000000 0.000000
vn 0.000000 1.000000 0.000000
vn 0.000000 1.000000 0.000000
vn 0.000000 1.000000 0.000000
vn 0.000000 1.000000 0.000000
vn 0.000000 1.000000 0.000000
vn 0.000000 1.000000 0.000000
vn 0.000000 1.000000 0.000000
vn 0.000000 1.000000 0.000000
vn 0.000000 1.000000 0.000000
vn 0.000000 1.000000 0.000000
vn 0.000000 1.000000 0.000000
vn 0.000000 1.000000 0.000000
vn 0.000000 1.000000 0.000000
vn 0.000000 1.000000 0.000000
vn 0.000000 1.000000 0.000000
vn 0.000000 1.000000 0.000000
vn 0.000000 1.000000 0.000000
vn 0.000000 1.000000 0.000000
vn 0.000000 1.000000 0.000000
vn 0.000000 1.000000 0.000000
vn 0.000000 1.000000 0.000000
vn 0.000000 1.000000 0.000000
vn 0.000000 1.000000 0.000000
vn 0.000000 1.000000 0.000000
vn 0.000000 1.000000 0.000000
vn -0.000000 1.000000 0.000000
vn -0.000000 1.000000 0.000000
vn -0.000000 1.000000 0.000000
vn -0.000000 1.000000 0.000000
vn -0.000000 1.000000 0.000000
vn -0.000000 1.000000 0.000000
vn -0.000000 1.000000 0.000000
vn -0.000000 1.000000 0.000000
vn -0.000000 1.000000 0.000000
vn -0.000000 1.000000 0.000000
vn -0.000000 1.000000 0.000000
vn -0.000000 1.000000 0.000000
vn -0.000000 1.000000 0.000000
vn -0.000000 1.000000 0.000000
vn -0.000000 1.000000 0.000000
vn -0.000000 1.000000 0.000000
vn -0.000000 1.000000 0.000000
vn -0.000000 1.000000 0.000000
vn -0.000000 1.000000 0.000000
vn -0.000000 1.000000 0.000000
vn -0.000000 1.000000 0.000000
vn -0.000000 1.000000 0.000000
vn -0.000000 1.000000 0.000000
vn -0.000000 1.000000 0.000000
vn -0.000000 1.000000 0.000000
vn -0.000000 1.000000 0.000000
vn -0.000000 1.000000 0.000000
vn 0.000000 1.000000 0.000000
vn 0.000000 1.000000 0.000000
vn 0.000000 1.000000 0.000000
vn 0.000000 1.000000 0.000000
vn 0.000000 1.000000 0.000000
vn 0.000000 1.000000 0.000000
vn 0.000000 1.000000 0.000000
vn 0.000000 1.000000 0.000000
vn 0.000000 1.000000 0.000000
vn 0.000000 1.000000 -0.000000
vn 0.000000 1.000000 -0.000000
vn 0.000000 1.000000 -0.000000
vn 0.000000 1.000000 -0.000000
vn 0.000000 1.000000 -0.000000
vn 0.000000 1.000000 -0.000000
vn 0.000000 1.000000 -0.000000
vn 0.000000 1.000000 -0.000000
vn 0.000000 1.000000 -0.000000
vn 0.000000 1.000000 -0.000000
vn 0.000000 1.000000 -0.000000
vn 0.000000 1.000000 -0.000000
vn 0.000000 1.000000 -0.000000
vn 0.000000 1.000000 -0.000000
vn 0.000000 1.000000 -0.000000
vn 0.000000 1.000000 -0.000000
vn 0.000000 1.000000 -0.000000
vn 0.000000 1.000000 -0.000000
vn 0.000000 1.000000 0.000000
vn 0.000000 1.000000 0.000000
vn 0.000000 1.000000 0.000000
vn 0.000000 1.000000 0.000000
vn 0.000000 1.000000 0.000000
vn 0.000000 1.000000 0.000000
vn 0.649272 0.396097 -0.649272
vn 0.649272 0.396097 -0.649272
vn 0.649272 0.396097 -0.649272
vn 0.649272 0.396097 -0.649272
vn 0.659032 0.362426 -0.659032
vn 0.659032 0.362426 -0.659032
vn 0.659032 0.362426 -0.659032
vn 0.659032 0.362426 -0.659032
vn 0.658003 0.366148 -0.658003
vn 0.658003 0.366148 -0.658003
vn 0.658003 0.366148 -0.658003
vn 0.658003 0.366148 -0.658003
vn 0.649414 0.395629 -0.649414
vn 0.649414 0.395629 -0.649414
vn 0.649414 0.395629 -0.649414
vn 0.649414 0.395629 -0.649414
vn 0.945505 0.325609 -0.000000
vn 0.945505 0.325609 -0.000000
vn 0.945505 0.325609 -0.000000
vn 0.945505 0.325609 -0.000000
vn 0.960548 0.278113 -0.000000
vn 0.960548 0.278113 -0.000000
vn 0.960548 0.278113 -0.000000
vn 0.960548 0.278113 -0.000000
vn 0.947806 0.318847 -0.000000
vn 0.947806 0.318847 -0.000000
vn 0.947806 0.318847 -0.000000
vn 0.947806 0.318847 -0.000000
vn 0.939155 0.343492 -0.000000
vn 0.939155 0.343492 -0.000000
vn 0.939155 0.343492 -0.000000
vn 0.939155 0.343492 -0.000000
vn 0.662550 0.349366 0.662550
vn 0.662550 0.349366 0.662550
vn 0.662550 0.349366 0.662550
vn 0.662550 0.349366 0.662550
vn 0.658930 0.362799 0.658930
vn 0.658930 0.362799 0.658930
vn 0.658930 0.362799 0.658930
vn 0.658930 0.362799 0.658930
vn 0.646312 0.405663 0.646312
vn 0.646312 0.405663 0.646312
vn 0.646312 0.405663 0.646312
vn 0.646312 0.405663 0.646312
vn 0.653466 0.382052 0.653466
vn 0.653466 0.382052 0.653466
vn 0.653466 0.382052 0.653466
vn 0.653466 0.382052 0.653466
vn 0.000000 0.312229 0.950007
vn 0.000000 0.312229 0.950007
vn 0.000000 0.312229 0.950007
vn 0.000000 0.312229 0.950007
vn 0.000000 0.325387 0.945581
vn 0.000000 0.325387 0.945581
vn 0.000000 0.325387 0.945581
vn 0.000000 0.325387 0.945581
vn 0.000000 0.332725 0.943024
vn 0.000000 0.332725 0.943024
vn 0.000000 0.332725 0.943024
vn 0.000000 0.332725 0.943024
vn 0.000000 0.316681 0.948532
vn 0.000000 0.316681 0.948532
vn 0.000000 0.316681 0.948532
vn 0.000000 0.316681 0.948532
vn -0.663901 0.344197 0.663901
vn -0.663901 0.344197 0.663901
vn -0.663901 0.344197 0.663901
vn -0.663901 0.344197 0.663901
vn -0.649451 0.395507 0.649451
vn -0.649451 0.395507 0.649451
vn -0.649451 0.395507 0.649451
vn -0.649451 0.395507 0.649451
vn -0.652587 0.385047 0.652587
vn -0.652587 0.385047 0.652587
vn -0.652587 0.385047 0.652587
vn -0.652587 0.385047 0.652587
vn -0.661087 0.354865 0.661087
vn -0.661087 0.354865 0.661087
vn -0.661087 0.354865 0.661087
vn -0.661087 0.354865 0.661087
vn -0.938416 0.345507 0.000000
vn -0.938416 0.345507 0.000000
vn -0.938416 0.345507 0.000000
vn -0.938416 0.345507 0.000000
vn -0.935740 0.352691 0.000000
vn -0.935740 0.352691 0.000000
vn -0.935740 0.352691 0.000000
vn -0.935740 0.352691 0.000000
vn -0.956320 0.292323 0.000000
vn -0.956320 0.292323 0.000000
vn -0.956320 0.292323 0.000000
vn -0.956320 0.292323 0.000000
vn -0.957285 0.289147 0.000000
vn -0.957285 0.289147 0.000000
vn -0.957285 0.289147 0.000000
vn -0.957285 0.289147 0.000000
vn -0.654682 0.377866 -0.654682
vn -0.654682 0.377866 -0.654682
vn -0.654682 0.377866 -0.654682
vn -0.654682 0.377866 -0.654682
vn -0.656636 0.371023 -0.656636
vn -0.656636 0.371023 -0.656636
vn -0.656636 0.371023 -0.656636
vn -0.656636 0.371023 -0.656636
vn -0.662607 0.349149 -0.662607
vn -0.662607 0.349149 -0.662607
vn -0.662607 0.349149 -0.662607
vn -0.662607 0.349149 -0.662607
vn -0.651983 0.387086 -0.651983
vn -0.651983 0.387086 -0.651983
vn -0.651983 0.387086 -0.651983
vn -0.651983 0.387086 -0.651983
vn 0.000000 0.351657 -0.936129
vn 0.000000 0.351657 -0.936129
vn 0.000000 0.351657 -0.936129
vn 0.000000 0.351657 -0.936129
vn 0.000000 0.313984 -0.949428
vn 0.000000 0.313984 -0.949428
vn 0.000000 0.313984 -0.949428
vn 0.000000 0.313984 -0.949428
vn 0.000000 0.312334 -0.949972
vn 0.000000 0.312334 -0.949972
vn 0.000000 0.312334 -0.949972
vn 0.000000 0.312334 -0.949972
vn 0.000000 0.330242 -0.943896
vn 0.000000 0.330242 -0.943896
vn 0.000000 0.330242 -0.943896
vn 0.000000 0.330242 -0.943896
vn 0.624112 0.321236 -0.712244
vn 0.624112 0.321236 -0.712244
vn 0.624112 0.321236 -0.712244
vn 0.624112 0.321236 -0.712244
vn 0.737045 0.305341 -0.602936
vn 0.737045 0.305341 -0.602936
vn 0.737045 0.305341 -0.602936
vn 0.737045 0.305341 -0.602936
vn 0.652945 0.359898 -0.666435
vn 0.652945 0.359898 -0.666435
vn 0.652945 0.359898 -0.666435
vn 0.652945 0.359898 -0.666435
vn 0.606681 0.355337 -0.711108
vn 0.606681 0.355337 -0.711108
vn 0.606681 0.355337 -0.711108
vn 0.606681 0.355337 -0.711108
vn 0.967545 0.252269 0.014711
vn 0.967545 0.252269 0.014711
vn 0.967545 0.252269 0.014711
vn 0.967545 0.252269 0.014711
vn 0.965708 0.259035 0.017584
vn 0.965708 0.259035 0.017584
vn 0.965708 0.259035 0.017584
vn 0.965708 0.259035 0.017584
vn 0.954219 0.298740 -0.014854
vn 0.954219 0.298740 -0.014854
vn 0.954219 0.298740 -0.014854
vn 0.954219 0.298740 -0.014854
vn 0.966567 0.256242 -0.009397
vn 0.966567 0.256242 -0.009397
vn 0.966567 0.256242 -0.009397
vn 0.966567 0.256242 -0.009397
vn 0.623601 0.284880 0.727987
vn 0.623601 0.284880 0.727987
vn 0.623601 0.284880 0.727987
vn 0.623601 0.284880 0.727987
vn 0.687414 0.347660 0.637648
vn 0.687414 0.347660 0.637648
vn 0.687414 0.347660 0.637648
vn 0.687414 0.347660 0.637648
vn 0.738692 0.362297 0.568397
vn 0.738692 0.362297 0.568397
vn 0.738692 0.362297 0.568397
vn 0.738692 0.362297 0.568397
vn 0.625130 0.318467 0.712595
vn 0.625130 0.318467 0.712595
vn 0.625130 0.318467 0.712595
vn 0.625130 0.318467 0.712595
vn -0.002093 0.263046 0.964781
vn -0.002093 0.263046 0.964781
vn -0.002093 0.263046 0.964781
vn -0.002093 0.263046 0.964781
vn 0.001263 0.301857 0.953352
vn 0.001263 0.301857 0.953352
vn 0.001263 0.301857 0.953352
vn 0.001263 0.301857 0.953352
vn 0.000720 0.254342 0.967114
vn 0.000720 0.254342 0.967114
vn 0.000720 0.254342 0.967114
vn 0.000720 0.254342 0.967114
vn -0.001579 0.245023 0.969516
vn -0.001579 0.245023 0.969516
vn -0.001579 0.245023 0.969516
vn -0.001579 0.245023 0.969516
vn -0.647813 0.328224 0.687464
vn -0.647813 0.328224 0.687464
vn -0.647813 0.328224 0.687464
vn -0.647813 0.328224 0.687464
vn -0.571691 0.341362 0.746084
vn -0.571691 0.341362 0.746084
vn -0.571691 0.341362 0.746084
vn -0.571691 0.341362 0.746084
vn -0.692542 0.309339 0.651686
vn -0.692542 0.309339 0.651686
vn -0.692542 0.309339 0.651686
vn -0.692542 0.309339 0.651686
vn -0.722579 0.334149 0.605164
vn -0.722579 0.334149 0.605164
vn -0.722579 0.334149 0.605164
vn -0.722579 0.334149 0.605164
vn -0.941260 0.337494 0.011285
vn -0.941260 0.337494 0.011285
vn -0.941260 0.337494 0.011285
vn -0.941260 0.337494 0.011285
vn -0.957464 0.288539 0.002773
vn -0.957464 0.288539 0.002773
vn -0.957464 0.288539 0.002773
vn -0.957464 0.288539 0.002773
vn -0.970792 0.238818 -0.022998
vn -0.970792 0.238818 -0.022998
vn -0.970792 0.238818 -0.022998
vn -0.970792 0.238818 -0.022998
vn -0.959647 0.281206 -0.001157
vn -0.959647 0.281206 -0.001157
vn -0.959647 0.281206 -0.001157
vn -0.959647 0.281206 -0.001157
vn -0.747549 0.336796 -0.572485
vn -0.747549 0.336796 -0.572485
vn -0.747549 0.336796 -0.572485
vn -0.747549 0.336796 -0.572485
vn -0.663897 0.289474 -0.689526
vn -0.663897 0.289474 -0.689526
vn -0.663897 0.289474 -0.689526
vn -0.663897 0.289474 -0.689526
vn -0.631174 0.314119 -0.709189
vn -0.631174 0.314119 -0.709189
vn -0.631174 0.314119 -0.709189
vn -0.631174 0.314119 -0.709189
vn -0.726615 0.367243 -0.580657
vn -0.726615 0.367243 -0.580657
vn -0.726615 0.367243 -0.580657
vn -0.726615 0.367243 -0.580657
vn -0.001594 0.276122 -0.961121
vn -0.001594 0.276122 -0.961121
vn -0.001594 0.276122 -0.961121
vn -0.001594 0.276122 -0.961121
vn 0.003716 0.241223 -0.970463
vn 0.003716 0.241223 -0.970463
vn 0.003716 0.241223 -0.970463
vn 0.003716 0.241223 -0.970463
vn 0.000159 0.274263 -0.961655
vn 0.000159 0.274263 -0.961655
vn 0.000159 0.274263 -0.961655
vn 0.000159 0.274263 -0.961655
vn -0.001730 0.271079 -0.962556
vn -0.001730 0.271079 -0.962556
vn -0.001730 0.271079 -0.962556
vn -0.001730 0.271079 -0.962556
vn 0.660020 -0.494459 -0.565582
vn 0.660020 -0.494459 -0.565582
vn 0.660020 -0.494459 -0.565582
vn 0.660020 -0.494459 -0.565582
vn 0.735690 -0.432365 -0.521364
vn 0.735690 -0.432365 -0.521364
vn 0.735690 -0.432365 -0.521364
vn 0.735690 -0.432365 -0.521364
vn 0.464238 -0.434118 -0.772026
vn 0.464238 -0.434118 -0.772026
vn 0.464238 -0.434118 -0.772026
vn 0.464238 -0.434118 -0.772026
vn 0.567118 -0.485931 -0.665017
vn 0.567118 -0.485931 -0.665017
vn 0.567118 -0.485931 -0.665017
vn 0.567118 -0.485931 -0.665017
vn 0.936493 -0.344838 0.063772
vn 0.936493 -0.344838 0.063772
vn 0.936493 -0.344838 0.063772
vn 0.936493 -0.344838 0.063772
vn 0.955682 -0.294145 0.012267
vn 0.955682 -0.294145 0.012267
vn 0.955682 -0.294145 0.012267
vn 0.955682 -0.294145 0.012267
vn 0.931289 -0.361712 -0.043192
vn 0.931289 -0.361712 -0.043192
vn 0.931289 -0.361712 -0.043192
vn 0.931289 -0.361712 -0.043192
vn 0.914153 -0.404784 0.021798
vn 0.914153 -0.404784 0.021798
vn 0.914153 -0.404784 0.021798
vn 0.914153 -0.404784 0.021798
vn 0.532790 -0.427650 0.730240
vn 0.532790 -0.427650 0.730240
vn 0.532790 -0.427650 0.730240
vn 0.532790 -0.427650 0.730240
vn 0.841459 -0.418368 0.341927
vn 0.841459 -0.418368 0.341927
vn 0.841459 -0.418368 0.341927
vn 0.841459 -0.418368 0.341927
vn 0.731223 -0.496357 0.467913
vn 0.731223 -0.496357 0.467913
vn 0.731223 -0.496357 0.467913
vn 0.731223 -0.496357 0.467913
vn 0.445864 -0.458210 0.768927
vn 0.445864 -0.458210 0.768927
vn 0.445864 -0.458210 0.768927
vn 0.445864 -0.458210 0.768927
vn -0.001411 -0.334300 0.942466
vn -0.001411 -0.334300 0.942466
vn -0.001411 -0.334300 0.942466
vn -0.001411 -0.334300 0.942466
vn 0.008807 -0.366705 0.930296
vn 0.008807 -0.366705 0.930296
vn 0.008807 -0.366705 0.930296
vn 0.008807 -0.366705 0.930296
vn -0.008581 -0.377670 0.925901
vn -0.008581 -0.377670 0.925901
vn -0.008581 -0.377670 0.925901
vn -0.008581 -0.377670 0.925901
vn -0.003380 -0.348918 0.937147
vn -0.003380 -0.348918 0.937147
vn -0.003380 -0.348918 0.937147
vn -0.003380 -0.348918 0.937147
vn -0.461092 -0.430317 0.776029
vn -0.461092 -0.430317 0.776029
vn -0.461092 -0.430317 0.776029
vn -0.461092 -0.430317 0.776029
vn -0.484457 -0.486841 0.726834
vn -0.484457 -0.486841 0.726834
vn -0.484457 -0.486841 0.726834
vn -0.484457 -0.486841 0.726834
vn -0.760784 -0.466923 0.450767
vn -0.760784 -0.466923 0.450767
vn -0.760784 -0.466923 0.450767
vn -0.760784 -0.466923 0.450767
vn -0.616910 -0.427098 0.661066
vn -0.616910 -0.427098 0.661066
vn -0.616910 -0.427098 0.661066
vn -0.616910 -0.427098 0.661066
vn -0.919888 -0.389208 0.048203
vn -0.919888 -0.389208 0.048203
vn -0.919888 -0.389208 0.048203
vn -0.919888 -0.389208 0.048203
vn -0.917312 -0.396831 -0.032614
vn -0.917312 -0.396831 -0.032614
vn -0.917312 -0.396831 -0.032614
vn -0.917312 -0.396831 -0.032614
vn -0.945946 -0.318975 -0.058659
vn -0.945946 -0.318975 -0.058659
vn -0.945946 -0.318975 -0.058659
vn -0.945946 -0.318975 -0.058659
vn -0.949942 -0.310897 0.030863
vn -0.949942 -0.310897 0.030863
vn -0.949942 -0.310897 0.030863
vn -0.949942 -0.310897 0.030863
vn -0.710993 -0.484187 -0.509953
vn -0.710993 -0.484187 -0.509953
vn -0.710993 -0.484187 -0.509953
vn -0.710993 -0.484187 -0.509953
vn -0.482660 -0.454984 -0.748351
vn -0.482660 -0.454984 -0.748351
vn -0.482660 -0.454984 -0.748351
vn -0.482660 -0.454984 -0.748351
vn -0.684302 -0.424553 -0.592862
vn -0.684302 -0.424553 -0.592862
vn -0.684302 -0.424553 -0.592862
vn -0.684302 -0.424553 -0.592862
vn -0.853237 -0.432378 -0.291608
vn -0.853237 -0.432378 -0.291608
vn -0.853237 -0.432378 -0.291608
vn -0.853237 -0.432378 -0.291608
vn -0.000561 -0.393286 -0.919416
vn -0.000561 -0.393286 -0.919416
vn -0.000561 -0.393286 -0.919416
vn -0.000561 -0.393286 -0.919416
vn 0.010258 -0.328160 -0.944566
vn 0.010258 -0.328160 -0.944566
vn 0.010258 -0.328160 -0.944566
vn 0.010258 -0.328160 -0.944566
vn -0.006253 -0.340668 -0.940163
vn -0.006253 -0.340668 -0.940163
vn -0.006253 -0.340668 -0.940163
vn -0.006253 -0.340668 -0.940163
vn -0.001096 -0.371227 -0.928542
vn -0.001096 -0.371227 -0.928542
vn -0.001096 -0.371227 -0.928542
vn -0.001096 -0.371227 -0.928542
vn 0.019937 -0.999721 -0.012637
vn 0.019937 -0.999721 -0.012637
vn 0.019937 -0.999721 -0.012637
vn 0.017157 -0.999607 -0.022179
vn 0.017157 -0.999607 -0.022179
vn 0.017157 -0.999607 -0.022179
vn 0.016137 -0.999534 -0.025910
vn 0.016137 -0.999534 -0.025910
vn 0.016137 -0.999534 -0.025910
vn 0.019227 -0.999719 -0.013831
vn 0.019227 -0.999719 -0.013831
vn 0.019227 -0.999719 -0.013831
vn 0.022707 -0.999742 0.000760
vn 0.022707 -0.999742 0.000760
vn 0.022707 -0.999742 0.000760
vn 0.022538 -0.999746 -0.000662
vn 0.022538 -0.999746 -0.000662
vn 0.022538 -0.999746 -0.000662
vn 0.022538 -0.999746 0.000054
vn 0.022538 -0.999746 0.000054
vn 0.022538 -0.999746 0.000054
vn 0.022410 -0.999748 0.001120
vn 0.022410 -0.999748 0.001120
vn 0.022410 -0.999748 0.001120
vn 0.018863 -0.999694 0.015992
vn 0.018863 -0.999694 0.015992
vn 0.018863 -0.999694 0.015992
vn 0.020365 -0.999741 0.010117
vn 0.020365 -0.999741 0.010117
vn 0.020365 -0.999741 0.010117
vn 0.017494 -0.999634 0.020626
vn 0.017494 -0.999634 0.020626
vn 0.017494 -0.999634 0.020626
vn 0.017241 -0.999620 0.021494
vn 0.017241 -0.999620 0.021494
vn 0.017241 -0.999620 0.021494
vn 0.000352 -0.997119 0.075854
vn 0.000352 -0.997119 0.075854
vn 0.000352 -0.997119 0.075854
vn 0.000278 -0.997110 0.075973
vn 0.000278 -0.997110 0.075973
vn 0.000278 -0.997110 0.075973
vn -0.000864 -0.997110 0.075973
vn -0.000864 -0.997110 0.075973
vn -0.000864 -0.997110 0.075973
vn 0.000129 -0.996987 0.077568
vn 0.000129 -0.996987 0.077568
vn 0.000129 -0.996987 0.077568
vn -0.016368 -0.999566 0.024480
vn -0.016368 -0.999566 0.024480
vn -0.016368 -0.999566 0.024480
vn -0.019077 -0.999703 0.015182
vn -0.019077 -0.999703 0.015182
vn -0.019077 -0.999703 0.015182
vn -0.018968 -0.999699 0.015582
vn -0.018968 -0.999699 0.015582
vn -0.018968 -0.999699 0.015582
vn -0.016247 -0.999524 0.026216
vn -0.016247 -0.999524 0.026216
vn -0.016247 -0.999524 0.026216
vn -0.022413 -0.999749 0.000378
vn -0.022413 -0.999749 0.000378
vn -0.022413 -0.999749 0.000378
vn -0.022593 -0.999744 -0.001136
vn -0.022593 -0.999744 -0.001136
vn -0.022593 -0.999744 -0.001136
vn -0.022593 -0.999745 -0.000093
vn -0.022593 -0.999745 -0.000093
vn -0.022593 -0.999745 -0.000093
vn -0.022684 -0.999742 0.000669
vn -0.022684 -0.999742 0.000669
vn -0.022684 -0.999742 0.000669
vn -0.016971 -0.999585 -0.023276
vn -0.016971 -0.999585 -0.023276
vn -0.016971 -0.999585 -0.023276
vn -0.017088 -0.999594 -0.022820
vn -0.017088 -0.999594 -0.022820
vn -0.017088 -0.999594 -0.022820
vn -0.020425 -0.999735 -0.010607
vn -0.020425 -0.999735 -0.010607
vn -0.020425 -0.999735 -0.010607
vn -0.019419 -0.999713 -0.014063
vn -0.019419 -0.999713 -0.014063
vn -0.019419 -0.999713 -0.014063
vn 0.000230 -0.997006 -0.077324
vn 0.000230 -0.997006 -0.077324
vn 0.000230 -0.997006 -0.077324
vn -0.000080 -0.997044 -0.076827
vn -0.000080 -0.997044 -0.076827
vn -0.000080 -0.997044 -0.076827
vn -0.000337 -0.997044 -0.076827
vn -0.000337 -0.997044 -0.076827
vn -0.000337 -0.997044 -0.076827
vn 0.000339 -0.997127 -0.075741
vn 0.000339 -0.997127 -0.075741
vn 0.000339 -0.997127 -0.075741
vn 0.000000 0.000000 -1.000000
vn 0.000000 0.000000 -1.000000
vn 0.000000 0.000000 -1.000000
vn 0.000000 0.000000 -1.000000
vn 0.000000 0.000000 1.000000
vn 0.000000 0.000000 1.000000
vn 0.000000 0.000000 1.000000
vn 0.000000 0.000000 1.000000
vn -1.000000 0.000000 0.000000
vn -1.000000 0.000000 0.000000
vn -1.000000 0.000000 0.000000
vn -1.000000 0.000000 0.000000
vn 1.000000 0.000000 0.000000
vn 1.000000 0.000000 0.000000
vn 1.000000 0.000000 0.000000
vn 1.000000 0.000000 0.000000
vn 0.000000 1.000000 0.000000
vn 0.000000 1.000000 0.000000
vn 0.000000 1.000000 0.000000
vn 0.000000 1.000000 0.000000
vn 0.000000 -1.000000 0.000000
vn 0.000000 -1.000000 0.000000
vn 0.000000 -1.000000 0.000000
vn 0.000000 -1.000000 0.000000
vn 0.000000 0.000000 -1.000000
vn 0.000000 0.000000 -1.000000
vn 0.000000 0.000000 -1.000000
vn 0.000000 0.000000 -1.000000
vn 0.000000 0.000000 1.000000
vn 0.000000 0.000000 1.000000
vn 0.000000 0.000000 1.000000
vn 0.000000 0.000000 1.000000
vn -1.000000 0.000000 0.000000
vn -1.000000 0.000000 0.000000
vn -1.000000 0.000000 0.000000
vn -1.000000 0.000000 0.000000
vn 1.000000 0.000000 0.000000
vn 1.000000 0.000000 0.000000
vn 1.000000 0.000000 0.000000
vn 1.000000 0.000000 0.000000
vn 0.000000 1.000000 0.000000
vn 0.000000 1.000000 0.000000
vn 0.000000 1.000000 0.000000
vn 0.000000 1.000000 0.000000
vn 0.000000 -1.000000 0.000000
vn 0.000000 -1.000000 0.000000
vn 0.000000 -1.000000 0.000000
vn 0.000000 -1.000000 0.000000
vn 0.000000 0.000000 -1.000000
vn 0.000000 0.000000 -1.000000
vn 0.000000 0.000000 -1.000000
vn 0.000000 0.000000 -1.000000
vn 0.000000 0.000000 1.000000
vn 0.000000 0.000000 1.000000
vn 0.000000 0.000000 1.000000
vn 0.000000 0.000000 1.000000
vn -1.000000 0.000000 0.000000
vn -1.000000 0.000000 0.000000
vn -1.000000 0.000000 0.000000
vn -1.000000 0.000000 0.000000
vn 1.000000 0.000000 0.000000
vn 1.000000 0.000000 0.000000
vn 1.000000 0.000000 0.000000
vn 1.000000 0.000000 0.000000
vn 0.000000 1.000000 0.000000
vn 0.000000 1.000000 0.000000
vn 0.000000 1.000000 0.000000
vn 0.000000 1.000000 0.000000
vn 0.000000 -1.000000 0.000000
vn 0.000000 -1.000000 0.000000
vn 0.000000 -1.000000 0.000000
vn 0.000000 -1.000000 0.000000
vn 0.000000 0.000000 -1.000000
vn 0.000000 0.000000 -1.000000
vn 0.000000 0.000000 -1.000000
vn 0.000000 0.000000 -1.000000
vn 0.000000 0.000000 1.000000
vn 0.000000 0.000000 1.000000
vn 0.000000 0.000000 1.000000
vn 0.000000 0.000000 1.000000
vn -1.000000 0.000000 0.000000
vn -1.000000 0.000000 0.000000
vn -1.000000 0.000000 0.000000
vn -1.000000 0.000000 0.000000
vn 1.000000 0.000000 0.000000
vn 1.000000 0.000000 0.000000
vn 1.000000 0.000000 0.000000
vn 1.000000 0.000000 0.000000
vn 0.000000 1.000000 0.000000
vn 0.000000 1.000000 0.000000
vn 0.000000 1.000000 0.000000
vn 0.000000 1.000000 0.000000
vn 0.000000 -1.000000 0.000000
vn 0.000000 -1.000000 0.000000
vn 0.000000 -1.000000 0.000000
vn 0.000000 -1.000000 0.000000
vn 0.000000 0.000000 -1.000000
vn 0.000000 0.000000 -1.000000
vn 0.000000 0.000000 -1.000000
vn 0.000000 0.000000 -1.000000
vn 0.000000 0.000000 1.000000
vn 0.000000 0.000000 1.000000
vn 0.000000 0.000000 1.000000
vn 0.000000 0.000000 1.000000
vn -1.000000 0.000000 0.000000
vn -1.000000 0.000000 0.000000
vn -1.000000 0.000000 0.000000
vn -1.000000 0.000000 0.000000
vn 1.000000 0.000000 0.000000
vn 1.000000 0.000000 0.000000
vn 1.000000 0.000000 0.000000
vn 1.000000 0.000000 0.000000
vn 0.000000 1.000000 0.000000
vn 0.000000 1.000000 0.000000
vn 0.000000 1.000000 0.000000
vn 0.000000 1.000000 0.000000
vn 0.000000 -1.000000 0.000000
vn 0.000000 -1.000000 0.000000
vn 0.000000 -1.000000 0.000000
vn 0.000000 -1.000000 0.000000
usemtl fortress_floor
f 1/1/1 2/2/2 3/3/3
f 4/4/4 5/5/5 6/6/6
f 7/7/7 8/8/8 9/9/9
f 10/10/10 11/11/11 12/12/12
f 13/13/13 14/14/14 15/15/15
f 16/16/16 17/17/17 18/18/18
f 19/19/19 20/20/20 21/21/21
f 22/22/22 23/23/23 24/24/24
f 25/25/25 26/26/26 27/27/27
f 28/28/28 29/29/29 30/30/30
f 31/31/31 32/32/32 33/33/33
f 34/34/34 35/35/35 36/36/36
f 37/37/37 38/38/38 39/39/39
f 40/40/40 41/41/41 42/42/42
f 43/43/43 44/44/44 45/45/45
f 46/46/46 47/47/47 48/48/48
f 49/49/49 50/50/50 51/51/51
f 52/52/52 53/53/53 54/54/54
f 55/55/55 56/56/56 57/57/57
f 58/58/58 59/59/59 60/60/60
f 61/61/61 62/62/62 63/63/63
f 64/64/64 65/65/65 66/66/66
f 67/67/67 68/68/68 69/69/69
f 70/70/70 71/71/71 72/72/72
f 73/73/73 74/74/74 75/75/75
f 76/76/76 77/77/77 78/78/78
f 79/79/79 80/80/80 81/81/81
f 82/82/82 83/83/83 84/84/84
f 85/85/85 86/86/86 87/87/87
f 88/88/88 89/89/89 90/90/90
f 91/91/91 92/92/92 93/93/93
f 94/94/94 95/95/95 96/96/96
usemtl fortress_trim
f 97/97/97 98/98/98 99/99/99 100/100/100
f 101/101/101 102/102/102 103/103/103 104/104/104
f 105/105/105 106/106/106 107/107/107 108/108/108
f 109/109/109 110/110/110 111/111/111 112/112/112
f 113/113/113 114/114/114 115/115/115 116/116/116
f 117/117/117 118/118/118 119/119/119 120/120/120
f 121/121/121 122/122/122 123/123/123 124/124/124
f 125/125/125 126/126/126 127/127/127 128/128/128
f 129/129/129 130/130/130 131/131/131 132/132/132
f 133/133/133 134/134/134 135/135/135 136/136/136
f 137/137/137 138/138/138 139/139/139 140/140/140
f 141/141/141 142/142/142 143/143/143 144/144/144
f 145/145/145 146/146/146 147/147/147 148/148/148
f 149/149/149 150/150/150 151/151/151 152/152/152
f 153/153/153 154/154/154 155/155/155 156/156/156
f 157/157/157 158/158/158 159/159/159 160/160/160
f 161/161/161 162/162/162 163/163/163 164/164/164
f 165/165/165 166/166/166 167/167/167 168/168/168
f 169/169/169 170/170/170 171/171/171 172/172/172
f 173/173/173 174/174/174 175/175/175 176/176/176
f 177/177/177 178/178/178 179/179/179 180/180/180
f 181/181/181 182/182/182 183/183/183 184/184/184
f 185/185/185 186/186/186 187/187/187 188/188/188
f 189/189/189 190/190/190 191/191/191 192/192/192
f 193/193/193 194/194/194 195/195/195 196/196/196
f 197/197/197 198/198/198 199/199/199 200/200/200
f 201/201/201 202/202/202 203/203/203 204/204/204
f 205/205/205 206/206/206 207/207/207 208/208/208
f 209/209/209 210/210/210 211/211/211 212/212/212
f 213/213/213 214/214/214 215/215/215 216/216/216
f 217/217/217 218/218/218 219/219/219 220/220/220
f 221/221/221 222/222/222 223/223/223 224/224/224
usemtl fortress_cliff
f 225/225/225 226/226/226 227/227/227 228/228/228
f 229/229/229 230/230/230 231/231/231 232/232/232
f 233/233/233 234/234/234 235/235/235 236/236/236
usemtl basalt_side
f 237/237/237 238/238/238 239/239/239 240/240/240
usemtl fortress_cliff
f 241/241/241 242/242/242 243/243/243 244/244/244
f 245/245/245 246/246/246 247/247/247 248/248/248
f 249/249/249 250/250/250 251/251/251 252/252/252
f 253/253/253 254/254/254 255/255/255 256/256/256
f 257/257/257 258/258/258 259/259/259 260/260/260
f 261/261/261 262/262/262 263/263/263 264/264/264
usemtl basalt_side
f 265/265/265 266/266/266 267/267/267 268/268/268
usemtl fortress_cliff
f 269/269/269 270/270/270 271/271/271 272/272/272
f 273/273/273 274/274/274 275/275/275 276/276/276
f 277/277/277 278/278/278 279/279/279 280/280/280
f 281/281/281 282/282/282 283/283/283 284/284/284
f 285/285/285 286/286/286 287/287/287 288/288/288
f 289/289/289 290/290/290 291/291/291 292/292/292
usemtl basalt_side
f 293/293/293 294/294/294 295/295/295 296/296/296
usemtl fortress_cliff
f 297/297/297 298/298/298 299/299/299 300/300/300
f 301/301/301 302/302/302 303/303/303 304/304/304
f 305/305/305 306/306/306 307/307/307 308/308/308
f 309/309/309 310/310/310 311/311/311 312/312/312
f 313/313/313 314/314/314 315/315/315 316/316/316
f 317/317/317 318/318/318 319/319/319 320/320/320
usemtl basalt_side
f 321/321/321 322/322/322 323/323/323 324/324/324
usemtl fortress_cliff
f 325/325/325 326/326/326 327/327/327 328/328/328
f 329/329/329 330/330/330 331/331/331 332/332/332
f 333/333/333 334/334/334 335/335/335 336/336/336
f 337/337/337 338/338/338 339/339/339 340/340/340
f 341/341/341 342/342/342 343/343/343 344/344/344
f 345/345/345 346/346/346 347/347/347 348/348/348
usemtl basalt_side
f 349/349/349 350/350/350 351/351/351 352/352/352
usemtl fortress_cliff
f 353/353/353 354/354/354 355/355/355 356/356/356
f 357/357/357 358/358/358 359/359/359 360/360/360
f 361/361/361 362/362/362 363/363/363 364/364/364
usemtl obsidian
f 365/365/365 366/366/366 367/367/367 368/368/368
usemtl fortress_cliff
f 369/369/369 370/370/370 371/371/371 372/372/372
f 373/373/373 374/374/374 375/375/375 376/376/376
f 377/377/377 378/378/378 379/379/379 380/380/380
f 381/381/381 382/382/382 383/383/383 384/384/384
f 385/385/385 386/386/386 387/387/387 388/388/388
f 389/389/389 390/390/390 391/391/391 392/392/392
usemtl obsidian
f 393/393/393 394/394/394 395/395/395 396/396/396
usemtl fortress_cliff
f 397/397/397 398/398/398 399/399/399 400/400/400
f 401/401/401 402/402/402 403/403/403 404/404/404
f 405/405/405 406/406/406 407/407/407 408/408/408
f 409/409/409 410/410/410 411/411/411 412/412/412
f 413/413/413 414/414/414 415/415/415 416/416/416
f 417/417/417 418/418/418 419/419/419 420/420/420
usemtl obsidian
f 421/421/421 422/422/422 423/423/423 424/424/424
usemtl fortress_cliff
f 425/425/425 426/426/426 427/427/427 428/428/428
f 429/429/429 430/430/430 431/431/431 432/432/432
f 433/433/433 434/434/434 435/435/435 436/436/436
f 437/437/437 438/438/438 439/439/439 440/440/440
f 441/441/441 442/442/442 443/443/443 444/444/444
f 445/445/445 446/446/446 447/447/447 448/448/448
usemtl obsidian
f 449/449/449 450/450/450 451/451/451 452/452/452
usemtl fortress_cliff
f 453/453/453 454/454/454 455/455/455 456/456/456
f 457/457/457 458/458/458 459/459/459 460/460/460
f 461/461/461 462/462/462 463/463/463 464/464/464
f 465/465/465 466/466/466 467/467/467 468/468/468
f 469/469/469 470/470/470 471/471/471 472/472/472
f 473/473/473 474/474/474 475/475/475 476/476/476
usemtl obsidian
f 477/477/477 478/478/478 479/479/479 480/480/480
f 481/481/481 482/482/482 483/483/483
f 484/484/484 485/485/485 486/486/486
f 487/487/487 488/488/488 489/489/489
f 490/490/490 491/491/491 492/492/492
f 493/493/493 494/494/494 495/495/495
f 496/496/496 497/497/497 498/498/498
f 499/499/499 500/500/500 501/501/501
f 502/502/502 503/503/503 504/504/504
f 505/505/505 506/506/506 507/507/507
f 508/508/508 509/509/509 510/510/510
f 511/511/511 512/512/512 513/513/513
f 514/514/514 515/515/515 516/516/516
f 517/517/517 518/518/518 519/519/519
f 520/520/520 521/521/521 522/522/522
f 523/523/523 524/524/524 525/525/525
f 526/526/526 527/527/527 528/528/528
f 529/529/529 530/530/530 531/531/531
f 532/532/532 533/533/533 534/534/534
f 535/535/535 536/536/536 537/537/537
f 538/538/538 539/539/539 540/540/540
f 541/541/541 542/542/542 543/543/543
f 544/544/544 545/545/545 546/546/546
f 547/547/547 548/548/548 549/549/549
f 550/550/550 551/551/551 552/552/552
f 553/553/553 554/554/554 555/555/555
f 556/556/556 557/557/557 558/558/558
f 559/559/559 560/560/560 561/561/561
f 562/562/562 563/563/563 564/564/564
f 565/565/565 566/566/566 567/567/567
f 568/568/568 569/569/569 570/570/570
f 571/571/571 572/572/572 573/573/573
f 574/574/574 575/575/575 576/576/576
usemtl iron_hot
f 577/577/577 578/578/578 579/579/579 580/580/580
f 581/581/581 582/582/582 583/583/583 584/584/584
f 585/585/585 586/586/586 587/587/587 588/588/588
f 589/589/589 590/590/590 591/591/591 592/592/592
f 593/593/593 594/594/594 595/595/595 596/596/596
f 597/597/597 598/598/598 599/599/599 600/600/600
f 601/601/601 602/602/602 603/603/603 604/604/604
f 605/605/605 606/606/606 607/607/607 608/608/608
f 609/609/609 610/610/610 611/611/611 612/612/612
f 613/613/613 614/614/614 615/615/615 616/616/616
f 617/617/617 618/618/618 619/619/619 620/620/620
f 621/621/621 622/622/622 623/623/623 624/624/624
f 625/625/625 626/626/626 627/627/627 628/628/628
f 629/629/629 630/630/630 631/631/631 632/632/632
f 633/633/633 634/634/634 635/635/635 636/636/636
f 637/637/637 638/638/638 639/639/639 640/640/640
f 641/641/641 642/642/642 643/643/643 644/644/644
f 645/645/645 646/646/646 647/647/647 648/648/648
f 649/649/649 650/650/650 651/651/651 652/652/652
f 653/653/653 654/654/654 655/655/655 656/656/656
f 657/657/657 658/658/658 659/659/659 660/660/660
f 661/661/661 662/662/662 663/663/663 664/664/664
f 665/665/665 666/666/666 667/667/667 668/668/668
f 669/669/669 670/670/670 671/671/671 672/672/672
f 673/673/673 674/674/674 675/675/675 676/676/676
f 677/677/677 678/678/678 679/679/679 680/680/680
f 681/681/681 682/682/682 683/683/683 684/684/684
f 685/685/685 686/686/686 687/687/687 688/688/688
f 689/689/689 690/690/690 691/691/691 692/692/692
f 693/693/693 694/694/694 695/695/695 696/696/696
