# Blender 4.4.1
# www.blender.org
mtllib saka.mtl
o 立方体
v -1.000000 -1.000000 1.000000
v -1.000000 1.000000 1.000000
v -1.000000 -1.000000 -1.000000
v -1.000000 1.000000 -1.000000
v 1.000000 -1.000000 1.000000
v 1.000000 -0.935380 1.000000
v 1.000000 -1.000000 -1.000000
v 1.000000 -0.929978 -1.000000
vn -1.0000 -0.0000 -0.0000
vn -0.0000 -0.0000 -1.0000
vn 1.0000 -0.0000 -0.0000
vn -0.0000 -0.0000 1.0000
vn -0.0000 -1.0000 -0.0000
vn 0.6954 0.7186 0.0019
vn 0.6944 0.7196 -0.0000
vt 0.625000 0.000000
vt 0.375000 0.250000
vt 0.375000 0.000000
vt 0.625000 0.500000
vt 0.375000 0.500000
vt 0.625000 0.750000
vt 0.375000 0.750000
vt 0.375000 1.000000
vt 0.125000 0.750000
vt 0.125000 0.500000
vt 0.875000 0.750000
vt 0.625000 0.250000
vt 0.625000 1.000000
vt 0.875000 0.500000
s 0
f 2/1/1 3/2/1 1/3/1
f 3/2/2 8/4/2 7/5/2
f 7/5/3 6/6/3 5/7/3
f 6/6/4 1/8/4 5/7/4
f 7/5/5 1/9/5 3/10/5
f 8/4/6 2/11/6 6/6/6
f 2/1/1 4/12/1 3/2/1
f 3/2/2 4/12/2 8/4/2
f 7/5/3 8/4/3 6/6/3
f 6/6/4 2/13/4 1/8/4
f 7/5/5 5/7/5 1/9/5
f 8/4/7 4/14/7 2/11/7
