# Blender 4.4.1
# www.blender.org
mtllib map_tutorial_01.mtl
o 床
v 0.000000 29.654736 -25.000004
v -40.000000 30.000002 29.999998
v 2.926355 29.654736 -24.711781
v -40.000000 29.999998 -30.000002
v 5.740252 29.654736 -23.858194
v 40.000000 30.000002 29.999998
v 8.333553 29.654736 -22.472046
v 40.000000 29.999998 -30.000002
v 10.606602 29.654736 -20.606604
v 12.472044 29.654736 -18.333555
v 13.858192 29.654736 -15.740253
v 14.711779 29.654736 -12.926357
v 15.000000 29.654737 -10.000002
v 14.711779 29.654737 -7.073648
v 13.858192 29.654737 -4.259750
v 12.472044 29.654737 -1.666449
v 10.606602 29.654737 0.606599
v 8.333553 29.654737 2.472042
v 5.740252 29.654737 3.858190
v 2.926355 29.654737 4.711777
v 0.000000 29.654737 4.999998
v -2.926355 29.654737 4.711777
v -5.740252 29.654737 3.858190
v -8.333553 29.654737 2.472042
v -10.606602 29.654737 0.606599
v -12.472044 29.654737 -1.666449
v -13.858192 29.654737 -4.259750
v -14.711779 29.654737 -7.073648
v -15.000000 29.654737 -10.000002
v -14.711779 29.654736 -12.926357
v -13.858192 29.654736 -15.740253
v -12.472044 29.654736 -18.333555
v -10.606602 29.654736 -20.606604
v -8.333553 29.654736 -22.472046
v -5.740252 29.654736 -23.858194
v -2.926355 29.654736 -24.711781
v -14.711779 30.000000 -7.073648
v -15.000000 30.000000 -10.000002
v -13.858192 30.000000 -4.259750
v -14.711779 29.999998 -12.926357
v -13.858192 29.999998 -15.740253
v -12.472044 29.999998 -18.333555
v -8.333553 30.000000 2.472042
v -10.606602 30.000000 0.606599
v -10.606602 29.999998 -20.606604
v -12.472044 30.000000 -1.666449
v -8.333553 29.999998 -22.472046
v -5.740252 29.999998 -23.858194
v 0.000000 29.999998 -25.000004
v 2.926355 29.999998 -24.711781
v -2.926355 29.999998 -24.711781
v 8.333553 29.999998 -22.472046
v 10.606602 29.999998 -20.606604
v 13.858192 29.999998 -15.740253
v 14.711779 29.999998 -12.926357
v 12.472044 29.999998 -18.333555
v 5.740252 29.999998 -23.858194
v -5.740252 30.000000 3.858190
v 0.000000 30.000000 4.999998
v -2.926355 30.000000 4.711777
v 2.926355 30.000000 4.711777
v 8.333553 30.000000 2.472042
v 5.740252 30.000000 3.858190
v 13.858192 30.000000 -4.259750
v 12.472044 30.000000 -1.666449
v 15.000000 30.000000 -10.000002
v 14.711779 30.000000 -7.073648
v 10.606602 30.000000 0.606599
vn -0.0000 1.0000 -0.0000
vn -0.0000 -0.0000 1.0000
vn -0.1938 -0.0000 0.9810
vn -0.3806 -0.0000 0.9248
vn -0.5533 -0.0000 0.8330
vn -0.7052 -0.0000 0.7090
vn -0.8303 -0.0000 0.5574
vn -0.9233 -0.0000 0.3842
vn -0.8302 -0.0000 0.5574
vn -0.9807 -0.0000 0.1958
vn -1.0000 -0.0000 -0.0000
vn -0.9807 -0.0000 0.1957
vn -0.9807 -0.0000 -0.1957
vn -0.9233 -0.0000 -0.3841
vn -0.8303 -0.0000 -0.5574
vn -0.7052 -0.0000 -0.7090
vn -0.8302 -0.0000 -0.5574
vn -0.5533 -0.0000 -0.8330
vn -0.3805 -0.0000 -0.9248
vn -0.5534 -0.0000 -0.8329
vn -0.1938 -0.0000 -0.9810
vn -0.3806 -0.0000 -0.9248
vn -0.0000 -0.0000 -1.0000
vn -0.1939 -0.0000 -0.9810
vn 0.1939 -0.0000 -0.9810
vn 0.3805 -0.0000 -0.9248
vn 0.1938 -0.0000 -0.9810
vn 0.5533 -0.0000 -0.8330
vn 0.7052 -0.0000 -0.7090
vn 0.8302 -0.0000 -0.5574
vn 0.9233 -0.0000 -0.3841
vn 0.9807 -0.0000 -0.1957
vn 1.0000 -0.0000 -0.0000
vn 0.9806 -0.0000 0.1959
vn 0.9807 -0.0000 0.1958
vn 0.9233 -0.0000 0.3842
vn 0.8303 -0.0000 0.5574
vn 0.8302 -0.0000 0.5574
vn 0.7053 -0.0000 0.7089
vn 0.7052 -0.0000 0.7090
vn 0.5533 -0.0000 0.8330
vn 0.5534 -0.0000 0.8329
vn 0.3805 -0.0000 0.9248
vn 0.3806 -0.0000 0.9248
vn 0.1938 -0.0000 0.9810
vn 0.1937 -0.0000 0.9811
vt 0.625000 0.750000
vt 0.740855 0.644632
vt 0.750000 0.645833
vt 0.625000 0.500000
vt 0.875000 0.500000
vt 0.750000 0.520833
vt 1.000000 0.500000
vt 0.968750 0.845262
vt 1.000000 0.845262
vt 0.968750 0.500000
vt 0.937500 0.845262
vt 0.937500 0.500000
vt 0.906250 0.845262
vt 0.906250 0.500000
vt 0.843750 0.500000
vt 0.875000 0.845262
vt 0.812500 0.500000
vt 0.843750 0.845262
vt 0.781250 0.500000
vt 0.812500 0.845262
vt 0.750000 0.500000
vt 0.781250 0.845262
vt 0.718750 0.500000
vt 0.750000 0.845262
vt 0.687500 0.500000
vt 0.718750 0.845262
vt 0.656250 0.500000
vt 0.687500 0.845262
vt 0.656250 0.845262
vt 0.593750 0.500000
vt 0.625000 0.845262
vt 0.562500 0.500000
vt 0.593750 0.845262
vt 0.531250 0.500000
vt 0.562500 0.845262
vt 0.500000 0.500000
vt 0.531250 0.845262
vt 0.468750 0.500000
vt 0.500000 0.845262
vt 0.437500 0.500000
vt 0.468750 0.845262
vt 0.406250 0.500000
vt 0.437500 0.845262
vt 0.375000 0.845262
vt 0.406250 0.845262
vt 0.375000 0.500000
vt 0.343750 0.845262
vt 0.343750 0.500000
vt 0.312500 0.845262
vt 0.312500 0.500000
vt 0.281250 0.845262
vt 0.281250 0.500000
vt 0.250000 0.845262
vt 0.250000 0.500000
vt 0.218750 0.845262
vt 0.218750 0.500000
vt 0.187500 0.845262
vt 0.187500 0.500000
vt 0.156250 0.845262
vt 0.156250 0.500000
vt 0.125000 0.845262
vt 0.125000 0.500000
vt 0.093750 0.845262
vt 0.093750 0.500000
vt 0.062500 0.845262
vt 0.062500 0.500000
vt 0.031250 0.845262
vt 0.031250 0.500000
vt 0.000000 0.845262
vt 0.658156 0.028269
vt 0.703178 0.014612
vt 0.841844 0.028269
vt 0.793307 0.559416
vt 0.788975 0.548610
vt 0.704026 0.595527
vt 0.711025 0.548610
vt 0.706693 0.559416
vt 0.704026 0.571140
vt 0.795974 0.571140
vt 0.875000 0.750000
vt 0.795974 0.595526
vt 0.796875 0.583333
vt 0.703125 0.583333
vt 0.706693 0.607251
vt 0.793307 0.607251
vt 0.788975 0.618056
vt 0.711025 0.618056
vt 0.716854 0.627527
vt 0.783146 0.627527
vt 0.776042 0.635300
vt 0.723958 0.635300
vt 0.732062 0.641076
vt 0.767938 0.641076
vt 0.759145 0.644632
vt 0.716854 0.539139
vt 0.783146 0.539139
vt 0.776042 0.531366
vt 0.723958 0.531366
vt 0.732062 0.525591
vt 0.767938 0.525591
vt 0.759145 0.522034
vt 0.740855 0.522034
vt 0.000000 0.500000
vt 0.750000 0.010000
vt 0.796822 0.014612
vt 0.883337 0.050447
vt 0.616663 0.050447
vt 0.919706 0.080294
vt 0.580294 0.080294
vt 0.949553 0.116663
vt 0.550447 0.116663
vt 0.971731 0.158156
vt 0.528269 0.158156
vt 0.985388 0.203178
vt 0.514612 0.203178
vt 0.990000 0.250000
vt 0.510000 0.250000
vt 0.985388 0.296822
vt 0.514612 0.296822
vt 0.971731 0.341844
vt 0.528269 0.341844
vt 0.949553 0.383337
vt 0.550447 0.383337
vt 0.919706 0.419706
vt 0.580294 0.419706
vt 0.883337 0.449553
vt 0.841844 0.471731
vt 0.616663 0.449553
vt 0.796822 0.485388
vt 0.658156 0.471731
vt 0.750000 0.490000
vt 0.703178 0.485388
s 1
f 6/1/1 61/2/1 59/3/1
f 8/4/1 4/5/1 49/6/1
f 1/7/2 50/8/3 49/9/2
f 3/10/3 57/11/4 50/8/3
f 5/12/4 52/13/5 57/11/4
f 9/5/6 52/13/5 7/14/5
f 10/15/7 53/16/6 9/5/6
f 11/17/8 56/18/9 10/15/7
f 12/19/10 54/20/8 11/17/8
f 13/21/11 55/22/12 12/19/10
f 14/23/13 66/24/11 13/21/11
f 15/25/14 67/26/13 14/23/13
f 16/27/15 64/28/14 15/25/14
f 17/4/16 65/29/17 16/27/15
f 18/30/18 68/31/16 17/4/16
f 19/32/19 62/33/20 18/30/18
f 20/34/21 63/35/22 19/32/19
f 21/36/23 61/37/24 20/34/21
f 22/38/25 59/39/23 21/36/23
f 23/40/26 60/41/27 22/38/25
f 24/42/28 58/43/26 23/40/26
f 24/42/28 44/44/29 43/45/28
f 25/46/29 46/47/30 44/44/29
f 26/48/30 39/49/31 46/47/30
f 27/50/31 37/51/32 39/49/31
f 28/52/32 38/53/33 37/51/32
f 29/54/33 40/55/34 38/53/33
f 30/56/35 41/57/36 40/55/34
f 31/58/36 42/59/37 41/57/36
f 32/60/38 45/61/39 42/59/37
f 33/62/40 47/63/41 45/61/39
f 34/64/42 48/65/43 47/63/41
f 35/66/44 51/67/45 48/65/43
f 36/68/46 49/69/2 51/67/45
f 23/70/1 22/71/1 19/72/1
f 41/73/1 42/74/1 4/5/1
f 6/1/1 8/4/1 67/75/1
f 8/4/1 56/76/1 54/77/1
f 8/4/1 54/77/1 55/78/1
f 41/73/1 4/5/1 40/79/1
f 4/5/1 2/80/1 37/81/1
f 40/79/1 4/5/1 38/82/1
f 38/82/1 4/5/1 37/81/1
f 8/4/1 55/78/1 66/83/1
f 8/4/1 66/83/1 67/75/1
f 6/1/1 67/75/1 64/84/1
f 39/85/1 37/81/1 2/80/1
f 46/86/1 39/85/1 2/80/1
f 6/1/1 64/84/1 65/87/1
f 6/1/1 65/87/1 68/88/1
f 44/89/1 46/86/1 2/80/1
f 43/90/1 44/89/1 2/80/1
f 6/1/1 68/88/1 62/91/1
f 6/1/1 62/91/1 63/92/1
f 43/90/1 2/80/1 58/93/1
f 2/80/1 6/1/1 59/3/1
f 58/93/1 2/80/1 60/94/1
f 60/94/1 2/80/1 59/3/1
f 6/1/1 63/92/1 61/2/1
f 53/95/1 56/76/1 8/4/1
f 4/5/1 42/74/1 45/96/1
f 4/5/1 45/96/1 47/97/1
f 52/98/1 53/95/1 8/4/1
f 57/99/1 52/98/1 8/4/1
f 4/5/1 47/97/1 48/100/1
f 4/5/1 48/100/1 51/101/1
f 50/102/1 57/99/1 8/4/1
f 4/5/1 51/101/1 49/6/1
f 49/6/1 50/102/1 8/4/1
f 1/7/2 3/10/3 50/8/3
f 3/10/3 5/12/4 57/11/4
f 5/12/4 7/14/5 52/13/5
f 9/5/6 53/16/6 52/13/5
f 10/15/7 56/18/9 53/16/6
f 11/17/8 54/20/8 56/18/9
f 12/19/10 55/22/12 54/20/8
f 13/21/11 66/24/11 55/22/12
f 14/23/13 67/26/13 66/24/11
f 15/25/14 64/28/14 67/26/13
f 16/27/15 65/29/17 64/28/14
f 17/4/16 68/31/16 65/29/17
f 18/30/18 62/33/20 68/31/16
f 19/32/19 63/35/22 62/33/20
f 20/34/21 61/37/24 63/35/22
f 21/36/23 59/39/23 61/37/24
f 22/38/25 60/41/27 59/39/23
f 23/40/26 58/43/26 60/41/27
f 24/42/28 43/45/28 58/43/26
f 24/42/28 25/46/29 44/44/29
f 25/46/29 26/48/30 46/47/30
f 26/48/30 27/50/31 39/49/31
f 27/50/31 28/52/32 37/51/32
f 28/52/32 29/54/33 38/53/33
f 29/54/33 30/56/35 40/55/34
f 30/56/35 31/58/36 41/57/36
f 31/58/36 32/60/38 42/59/37
f 32/60/38 33/62/40 45/61/39
f 33/62/40 34/64/42 47/63/41
f 34/64/42 35/66/44 48/65/43
f 35/66/44 36/68/46 51/67/45
f 36/68/46 1/103/2 49/69/2
f 21/104/1 20/105/1 22/71/1
f 20/105/1 19/72/1 22/71/1
f 19/72/1 18/106/1 24/107/1
f 18/106/1 17/108/1 25/109/1
f 17/108/1 16/110/1 26/111/1
f 16/110/1 15/112/1 27/113/1
f 15/112/1 14/114/1 28/115/1
f 14/114/1 13/116/1 29/117/1
f 13/116/1 12/118/1 30/119/1
f 12/118/1 11/120/1 31/121/1
f 11/120/1 10/122/1 32/123/1
f 10/122/1 9/124/1 33/125/1
f 9/124/1 7/126/1 33/125/1
f 7/126/1 5/127/1 34/128/1
f 33/125/1 7/126/1 34/128/1
f 5/127/1 3/129/1 35/130/1
f 3/129/1 1/131/1 36/132/1
f 35/130/1 3/129/1 36/132/1
f 35/130/1 34/128/1 5/127/1
f 33/125/1 32/123/1 10/122/1
f 32/123/1 31/121/1 11/120/1
f 31/121/1 30/119/1 12/118/1
f 30/119/1 29/117/1 13/116/1
f 29/117/1 28/115/1 14/114/1
f 28/115/1 27/113/1 15/112/1
f 27/113/1 26/111/1 16/110/1
f 26/111/1 25/109/1 17/108/1
f 25/109/1 24/107/1 18/106/1
f 24/107/1 23/70/1 19/72/1
