# Blender 4.4.1
# www.blender.org
mtllib sword_onament.mtl
o 円柱.005
v -0.445412 -0.000000 -0.018056
v -0.445412 -0.003600 -0.017710
v -0.468648 -0.000000 -0.018056
v -0.445412 0.003600 -0.017710
v -0.445412 0.007062 -0.016682
v -0.468648 0.003600 -0.017710
v -0.468648 0.007062 -0.016682
v -0.468648 0.010253 -0.015013
v -0.468648 0.013050 -0.012768
v -0.445412 0.010253 -0.015013
v -0.445412 0.013050 -0.012768
v -0.445412 0.015345 -0.010032
v -0.445412 0.017050 -0.006910
v -0.468648 0.015345 -0.010032
v -0.468648 0.017050 -0.006910
v -0.468648 0.018100 -0.003523
v -0.468648 0.018455 -0.000000
v -0.445412 0.018100 -0.003523
v -0.445412 0.018455 -0.000000
v -0.445412 0.018100 0.003523
v -0.445412 0.017050 0.006910
v -0.468648 0.018100 0.003523
v -0.468648 0.017050 0.006910
v -0.468648 0.015345 0.010032
v -0.468648 0.013050 0.012768
v -0.445412 0.015345 0.010032
v -0.445412 0.013050 0.012768
v -0.445412 0.010253 0.015013
v -0.445412 0.007062 0.016682
v -0.468648 0.010253 0.015013
v -0.468648 0.007062 0.016682
v -0.468648 0.003600 0.017710
v -0.468648 0.000000 0.018056
v -0.445412 0.003600 0.017710
v -0.445412 0.000000 0.018056
v -0.445412 -0.003600 0.017710
v -0.445412 -0.007062 0.016682
v -0.468648 -0.003600 0.017710
v -0.468648 -0.007062 0.016682
v -0.468648 -0.010253 0.015013
v -0.468648 -0.013050 0.012768
v -0.445412 -0.010253 0.015013
v -0.445412 -0.013050 0.012768
v -0.445412 -0.015345 0.010032
v -0.445412 -0.017050 0.006910
v -0.468648 -0.015345 0.010032
v -0.468648 -0.017050 0.006910
v -0.468648 -0.018100 0.003523
v -0.468648 -0.018455 -0.000000
v -0.445412 -0.018100 0.003523
v -0.445412 -0.018455 0.000000
v -0.445412 -0.018100 -0.003523
v -0.445412 -0.017050 -0.006910
v -0.468648 -0.018100 -0.003523
v -0.468648 -0.017050 -0.006910
v -0.468648 -0.015345 -0.010032
v -0.468648 -0.013050 -0.012768
v -0.445412 -0.015345 -0.010032
v -0.445412 -0.013050 -0.012768
v -0.445412 -0.010253 -0.015013
v -0.445412 -0.007062 -0.016682
v -0.468648 -0.010253 -0.015013
v -0.468648 -0.007062 -0.016682
v -0.468648 -0.003600 -0.017710
v 0.017744 -0.000000 0.000000
v -0.123437 0.058261 0.000000
v -0.124162 -0.054601 0.000000
v -0.124162 -0.000000 -0.015852
v -0.124162 -0.000000 0.015852
v -0.138131 -0.000000 -0.018056
v -0.138131 -0.005668 -0.017709
v -0.161366 -0.000000 -0.018056
v -0.138131 0.005668 -0.017709
v -0.138131 0.011119 -0.016682
v -0.161366 0.005668 -0.017709
v -0.161366 0.011119 -0.016682
v -0.161366 0.016142 -0.015013
v -0.161366 0.020544 -0.012768
v -0.138131 0.016142 -0.015013
v -0.138131 0.020544 -0.012768
v -0.138131 0.024158 -0.010032
v -0.138131 0.026843 -0.006910
v -0.161366 0.024158 -0.010032
v -0.161366 0.026843 -0.006910
v -0.161366 0.028496 -0.003523
v -0.161366 0.029054 0.000000
v -0.138131 0.028496 -0.003523
v -0.138131 0.029054 0.000000
v -0.138131 0.028496 0.003523
v -0.138131 0.026843 0.006910
v -0.161366 0.028496 0.003523
v -0.161366 0.026843 0.006910
v -0.161366 0.024158 0.010032
v -0.161366 0.020544 0.012768
v -0.138131 0.024158 0.010032
v -0.138131 0.020544 0.012768
v -0.138131 0.016142 0.015013
v -0.138131 0.011119 0.016682
v -0.161366 0.016142 0.015013
v -0.161366 0.011119 0.016682
v -0.161366 0.005668 0.017710
v -0.161366 0.000000 0.018056
v -0.138131 0.005668 0.017710
v -0.138131 0.000000 0.018056
v -0.138131 -0.005668 0.017710
v -0.138131 -0.011119 0.016682
v -0.161366 -0.005668 0.017710
v -0.161366 -0.011119 0.016682
v -0.161366 -0.016142 0.015013
v -0.161366 -0.020544 0.012768
v -0.138131 -0.016142 0.015013
v -0.138131 -0.020544 0.012768
v -0.138131 -0.024158 0.010032
v -0.138131 -0.026843 0.006910
v -0.161366 -0.024158 0.010032
v -0.161366 -0.026843 0.006910
v -0.161366 -0.028496 0.003523
v -0.161366 -0.029054 0.000000
v -0.138131 -0.028496 0.003523
v -0.138131 -0.029054 0.000000
v -0.138131 -0.028496 -0.003523
v -0.138131 -0.026843 -0.006910
v -0.161366 -0.028496 -0.003523
v -0.161366 -0.026843 -0.006910
v -0.161366 -0.024158 -0.010032
v -0.161366 -0.020544 -0.012768
v -0.138131 -0.024158 -0.010032
v -0.138131 -0.020544 -0.012768
v -0.138131 -0.016142 -0.015013
v -0.138131 -0.011119 -0.016682
v -0.161366 -0.016142 -0.015013
v -0.161366 -0.011119 -0.016682
v -0.161366 -0.005668 -0.017709
vn 1.0000 -0.0000 -0.0000
vn -0.0000 -0.0000 -1.0000
vn -0.0000 -0.1911 -0.9816
vn -0.0000 0.1911 -0.9816
vn -0.0000 0.3757 -0.9267
vn -1.0000 -0.0000 -0.0000
vn -0.0000 0.5474 -0.8369
vn -0.0000 0.6995 -0.7146
vn -0.0000 0.8259 -0.5638
vn -0.0000 0.9209 -0.3897
vn -0.0000 0.9800 -0.1991
vn -0.0000 1.0000 -0.0000
vn -0.0000 0.9800 0.1991
vn -0.0000 0.9209 0.3897
vn -0.0000 0.8259 0.5638
vn -0.0000 0.6995 0.7146
vn -0.0000 0.5474 0.8369
vn -0.0000 0.3757 0.9267
vn -0.0000 0.1911 0.9816
vn -0.0000 -0.0000 1.0000
vn -0.0000 -0.1911 0.9816
vn -0.0000 -0.3757 0.9267
vn -0.0000 -0.5474 0.8369
vn -0.0000 -0.6995 0.7146
vn -0.0000 -0.8259 0.5638
vn -0.0000 -0.9209 0.3897
vn -0.0000 -0.9800 0.1991
vn -0.0000 -1.0000 -0.0000
vn -0.0000 -0.9800 -0.1991
vn -0.0000 -0.9209 -0.3897
vn -0.0000 -0.8259 -0.5638
vn -0.0000 -0.6995 -0.7146
vn -0.0000 -0.5474 -0.8369
vn -0.0000 -0.3757 -0.9267
vn 0.1072 0.2598 0.9597
vn 0.1072 0.2598 -0.9597
vn 0.1067 -0.2772 -0.9549
vn 0.1067 -0.2772 0.9549
vn -0.0000 -0.1234 -0.9924
vn -0.0000 0.1234 -0.9924
vn -0.0000 0.2508 -0.9680
vn -0.0000 0.3859 -0.9225
vn -0.0000 0.5311 -0.8473
vn -0.0000 0.6848 -0.7287
vn -0.0000 0.8353 -0.5499
vn -0.0000 0.9537 -0.3009
vn -0.0000 0.9537 0.3009
vn -0.0000 0.8353 0.5499
vn -0.0000 0.6848 0.7287
vn -0.0000 0.5311 0.8473
vn -0.0000 0.3859 0.9225
vn -0.0000 0.2508 0.9680
vn -0.0000 0.1234 0.9924
vn -0.0000 -0.1234 0.9924
vn -0.0000 -0.2508 0.9680
vn -0.0000 -0.3859 0.9225
vn -0.0000 -0.5311 0.8473
vn -0.0000 -0.6848 0.7287
vn -0.0000 -0.8353 0.5499
vn -0.0000 -0.9537 0.3009
vn -0.0000 -0.9537 -0.3009
vn -0.0000 -0.8353 -0.5499
vn -0.0000 -0.6848 -0.7287
vn -0.0000 -0.5311 -0.8473
vn -0.0000 -0.3859 -0.9225
vn -0.0000 -0.2508 -0.9680
vt 0.343750 0.500000
vt 0.156250 0.500000
vt 0.281250 0.500000
vt 1.000000 1.000000
vt 1.000000 0.500000
vt 0.968750 0.500000
vt 0.031250 1.000000
vt 0.031250 0.500000
vt 0.000000 0.500000
vt 0.062500 1.000000
vt 0.062500 0.500000
vt 0.419706 0.419706
vt 0.419706 0.080294
vt 0.383337 0.449553
vt 0.093750 1.000000
vt 0.093750 0.500000
vt 0.125000 1.000000
vt 0.125000 0.500000
vt 0.156250 1.000000
vt 0.187500 1.000000
vt 0.187500 0.500000
vt 0.218750 1.000000
vt 0.218750 0.500000
vt 0.250000 1.000000
vt 0.250000 0.500000
vt 0.281250 1.000000
vt 0.312500 1.000000
vt 0.312500 0.500000
vt 0.343750 1.000000
vt 0.375000 1.000000
vt 0.375000 0.500000
vt 0.406250 1.000000
vt 0.406250 0.500000
vt 0.437500 1.000000
vt 0.437500 0.500000
vt 0.468750 1.000000
vt 0.468750 0.500000
vt 0.500000 1.000000
vt 0.500000 0.500000
vt 0.531250 1.000000
vt 0.531250 0.500000
vt 0.562500 1.000000
vt 0.562500 0.500000
vt 0.593750 0.500000
vt 0.625000 0.500000
vt 0.593750 1.000000
vt 0.656250 0.500000
vt 0.625000 1.000000
vt 0.687500 1.000000
vt 0.687500 0.500000
vt 0.718750 1.000000
vt 0.718750 0.500000
vt 0.750000 1.000000
vt 0.750000 0.500000
vt 0.781250 1.000000
vt 0.781250 0.500000
vt 0.812500 0.500000
vt 0.843750 0.500000
vt 0.812500 1.000000
vt 0.875000 0.500000
vt 0.843750 1.000000
vt 0.906250 1.000000
vt 0.906250 0.500000
vt 0.937500 0.500000
vt 0.968750 1.000000
vt 0.125000 0.750000
vt 0.750000 0.750000
vt 0.625000 0.750000
vt 0.250000 0.750000
vt 0.656250 1.000000
vt 0.875000 1.000000
vt 0.000000 1.000000
vt 0.341844 0.471731
vt 0.296822 0.014612
vt 0.296822 0.485388
vt 0.250000 0.010000
vt 0.250000 0.490000
vt 0.203178 0.014612
vt 0.203178 0.485388
vt 0.158156 0.028269
vt 0.158156 0.471731
vt 0.116663 0.449553
vt 0.116663 0.050447
vt 0.080294 0.419706
vt 0.080294 0.080294
vt 0.050447 0.383337
vt 0.028269 0.341844
vt 0.028269 0.158156
vt 0.014612 0.296822
vt 0.010000 0.250000
vt 0.014612 0.203178
vt 0.050447 0.116663
vt 0.341844 0.028269
vt 0.383337 0.050447
vt 0.449553 0.116663
vt 0.471731 0.158156
vt 0.471731 0.341844
vt 0.485388 0.203178
vt 0.490000 0.250000
vt 0.485388 0.296822
vt 0.449553 0.383337
vt 0.937500 1.000000
s 0
f 26/1/1 12/2/1 20/3/1
s 1
f 3/4/2 1/5/2 2/6/3
f 6/7/4 4/8/4 1/9/2
f 7/10/5 5/11/5 4/8/4
s 0
f 57/12/6 41/13/6 62/14/6
s 1
f 8/15/7 10/16/7 5/11/5
f 9/17/8 11/18/8 10/16/7
f 14/19/9 12/2/9 11/18/8
f 15/20/10 13/21/10 12/2/9
f 16/22/11 18/23/11 13/21/10
f 17/24/12 19/25/12 18/23/11
f 22/26/13 20/3/13 19/25/12
f 23/27/14 21/28/14 20/3/13
f 24/29/15 26/1/15 21/28/14
f 25/30/16 27/31/16 26/1/15
f 30/32/17 28/33/17 27/31/16
f 31/34/18 29/35/18 28/33/17
f 32/36/19 34/37/19 29/35/18
f 33/38/20 35/39/20 34/37/19
f 38/40/21 36/41/21 35/39/20
f 39/42/22 37/43/22 36/41/21
f 42/44/23 37/43/22 39/42/22
f 43/45/24 42/44/23 40/46/23
f 44/47/25 43/45/24 41/48/24
f 47/49/26 45/50/26 44/47/25
f 48/51/27 50/52/27 45/50/26
f 49/53/28 51/54/28 50/52/27
f 54/55/29 52/56/29 51/54/28
f 53/57/30 52/56/29 54/55/29
f 58/58/31 53/57/30 55/59/30
f 59/60/32 58/58/31 56/61/31
f 62/62/33 60/63/33 59/60/32
f 61/64/34 60/63/33 62/62/33
f 64/65/3 2/6/3 61/64/34
s 0
f 66/18/35 69/25/35 65/66/35
f 68/54/36 66/60/36 65/67/36
f 67/45/37 68/54/37 65/68/37
f 69/25/38 67/31/38 65/69/38
s 1
f 72/4/2 70/5/2 71/6/39
f 75/7/40 73/8/40 70/9/2
f 76/10/41 74/11/41 73/8/40
s 0
f 126/12/6 110/13/6 131/14/6
s 1
f 77/15/42 79/16/42 74/11/41
f 78/17/43 80/18/43 79/16/42
f 83/19/44 81/2/44 80/18/43
f 84/20/45 82/21/45 81/2/44
f 85/22/46 87/23/46 82/21/45
f 86/24/12 88/25/12 87/23/46
f 91/26/47 89/3/47 88/25/12
f 92/27/48 90/28/48 89/3/47
f 93/29/49 95/1/49 90/28/48
f 94/30/50 96/31/50 95/1/49
f 99/32/51 97/33/51 96/31/50
f 98/35/52 97/33/51 99/32/51
f 101/36/53 103/37/53 98/35/52
f 102/38/20 104/39/20 103/37/53
f 107/40/54 105/41/54 104/39/20
f 108/42/55 106/43/55 105/41/54
f 109/46/56 111/44/56 106/43/55
f 112/45/57 111/44/56 109/46/56
f 113/47/58 112/45/57 110/48/57
f 114/50/59 113/47/58 115/70/58
f 117/51/60 119/52/60 114/50/59
f 118/53/28 120/54/28 119/52/60
f 123/55/61 121/56/61 120/54/28
f 122/57/62 121/56/61 123/55/61
f 127/58/63 122/57/62 124/59/62
f 128/60/64 127/58/63 125/61/63
f 129/63/65 128/60/64 126/71/64
f 130/64/66 129/63/65 131/62/65
f 133/65/39 71/6/39 130/64/66
s 0
f 4/8/1 35/39/1 1/9/1
f 1/9/1 36/41/1 2/6/1
f 2/6/1 36/41/1 61/64/1
f 61/64/1 37/43/1 60/63/1
f 36/41/1 37/43/1 61/64/1
f 60/63/1 44/47/1 59/60/1
f 59/60/1 44/47/1 58/58/1
f 58/58/1 52/56/1 53/57/1
f 52/56/1 50/52/1 51/54/1
f 50/52/1 52/56/1 45/50/1
f 45/50/1 52/56/1 44/47/1
f 44/47/1 60/63/1 43/45/1
f 43/45/1 60/63/1 42/44/1
f 42/44/1 60/63/1 37/43/1
f 36/41/1 1/9/1 35/39/1
f 35/39/1 4/8/1 34/37/1
f 34/37/1 4/8/1 29/35/1
f 29/35/1 5/11/1 28/33/1
f 4/8/1 5/11/1 29/35/1
f 28/33/1 12/2/1 27/31/1
f 27/31/1 12/2/1 26/1/1
f 26/1/6 21/28/6 20/3/6
f 20/3/6 19/25/6 18/23/6
f 18/23/1 20/3/1 13/21/1
f 13/21/1 20/3/1 12/2/1
f 12/2/1 28/33/1 11/18/1
f 11/18/1 28/33/1 10/16/1
f 10/16/1 28/33/1 5/11/1
f 58/58/1 44/47/1 52/56/1
s 1
f 3/4/2 2/6/3 64/65/3
f 6/7/4 1/9/2 3/72/2
f 7/10/5 4/8/4 6/7/4
s 0
f 63/73/6 38/74/6 64/75/6
f 64/75/6 33/76/6 3/77/6
f 3/77/6 32/78/6 6/79/6
f 6/79/6 31/80/6 7/81/6
f 7/81/6 31/80/6 8/82/6
f 8/82/6 30/83/6 9/84/6
f 31/80/6 30/83/6 8/82/6
f 9/84/6 25/85/6 14/86/6
f 14/86/6 25/85/6 15/87/6
f 15/87/6 23/88/6 16/89/6
f 16/89/6 23/88/6 17/90/6
f 17/90/6 23/88/6 22/91/6
f 23/88/6 15/87/6 24/92/6
f 24/92/6 15/87/6 25/85/6
f 25/85/6 9/84/6 30/83/6
f 31/80/6 6/79/6 32/78/6
f 32/78/6 3/77/6 33/76/6
f 33/76/6 64/75/6 38/74/6
f 38/74/6 63/73/6 39/93/6
f 39/93/6 63/73/6 40/94/6
f 40/94/6 62/14/6 41/13/6
f 63/73/6 62/14/6 40/94/6
f 41/13/6 57/12/6 46/95/6
f 46/95/6 57/12/6 47/96/6
f 47/96/6 55/97/6 48/98/6
f 48/98/6 55/97/6 49/99/6
f 49/99/6 55/97/6 54/100/6
f 55/97/6 47/96/6 56/101/6
f 56/101/6 47/96/6 57/12/6
s 1
f 8/15/7 5/11/5 7/10/5
f 9/17/8 10/16/7 8/15/7
f 14/19/9 11/18/8 9/17/8
f 15/20/10 12/2/9 14/19/9
f 16/22/11 13/21/10 15/20/10
f 17/24/12 18/23/11 16/22/11
f 22/26/13 19/25/12 17/24/12
f 23/27/14 20/3/13 22/26/13
f 24/29/15 21/28/14 23/27/14
f 25/30/16 26/1/15 24/29/15
f 30/32/17 27/31/16 25/30/16
f 31/34/18 28/33/17 30/32/17
f 32/36/19 29/35/18 31/34/18
f 33/38/20 34/37/19 32/36/19
f 38/40/21 35/39/20 33/38/20
f 39/42/22 36/41/21 38/40/21
f 42/44/23 39/42/22 40/46/23
f 43/45/24 40/46/23 41/48/24
f 44/47/25 41/48/24 46/70/25
f 47/49/26 44/47/25 46/70/25
f 48/51/27 45/50/26 47/49/26
f 49/53/28 50/52/27 48/51/27
f 54/55/29 51/54/28 49/53/28
f 53/57/30 54/55/29 55/59/30
f 58/58/31 55/59/30 56/61/31
f 59/60/32 56/61/31 57/71/32
f 62/62/33 59/60/32 57/71/32
f 61/64/34 62/62/33 63/102/34
f 64/65/3 61/64/34 63/102/34
f 72/4/2 71/6/39 133/65/39
f 75/7/40 70/9/2 72/72/2
f 76/10/41 73/8/40 75/7/40
s 0
f 132/73/6 107/74/6 133/75/6
f 133/75/6 102/76/6 72/77/6
f 72/77/6 101/78/6 75/79/6
f 75/79/6 100/80/6 76/81/6
f 76/81/6 100/80/6 77/82/6
f 77/82/6 99/83/6 78/84/6
f 100/80/6 99/83/6 77/82/6
f 78/84/6 94/85/6 83/86/6
f 83/86/6 93/92/6 84/87/6
f 94/85/6 93/92/6 83/86/6
f 84/87/6 92/88/6 85/89/6
f 85/89/6 91/91/6 86/90/6
f 92/88/6 91/91/6 85/89/6
f 92/88/6 84/87/6 93/92/6
f 94/85/6 78/84/6 99/83/6
f 100/80/6 75/79/6 101/78/6
f 101/78/6 72/77/6 102/76/6
f 102/76/6 133/75/6 107/74/6
f 107/74/6 132/73/6 108/93/6
f 108/93/6 132/73/6 109/94/6
f 109/94/6 131/14/6 110/13/6
f 132/73/6 131/14/6 109/94/6
f 110/13/6 126/12/6 115/95/6
f 115/95/6 125/101/6 116/96/6
f 126/12/6 125/101/6 115/95/6
f 116/96/6 124/97/6 117/98/6
f 117/98/6 123/100/6 118/99/6
f 124/97/6 123/100/6 117/98/6
f 124/97/6 116/96/6 125/101/6
s 1
f 77/15/42 74/11/41 76/10/41
f 78/17/43 79/16/42 77/15/42
f 83/19/44 80/18/43 78/17/43
f 84/20/45 81/2/44 83/19/44
f 85/22/46 82/21/45 84/20/45
f 86/24/12 87/23/46 85/22/46
f 91/26/47 88/25/12 86/24/12
f 92/27/48 89/3/47 91/26/47
f 93/29/49 90/28/48 92/27/48
f 94/30/50 95/1/49 93/29/49
f 99/32/51 96/31/50 94/30/50
f 98/35/52 99/32/51 100/34/52
f 101/36/53 98/35/52 100/34/52
f 102/38/20 103/37/53 101/36/53
f 107/40/54 104/39/20 102/38/20
f 108/42/55 105/41/54 107/40/54
f 109/46/56 106/43/55 108/42/55
f 112/45/57 109/46/56 110/48/57
f 113/47/58 110/48/57 115/70/58
f 114/50/59 115/70/58 116/49/59
f 117/51/60 114/50/59 116/49/59
f 118/53/28 119/52/60 117/51/60
f 123/55/61 120/54/28 118/53/28
f 122/57/62 123/55/61 124/59/62
f 127/58/63 124/59/62 125/61/63
f 128/60/64 125/61/63 126/71/64
f 129/63/65 126/71/64 131/62/65
f 130/64/66 131/62/65 132/102/66
f 133/65/39 130/64/66 132/102/66
