# Blender 4.4.1
# www.blender.org
mtllib Player_leftFoot.mtl
o 左足
v -0.394510 -0.414670 -0.272256
v -0.394510 -0.497035 -0.272256
v -0.244192 -0.414670 -0.339642
v -0.244192 -0.497035 -0.339642
v -0.226045 -0.414670 0.103538
v -0.226045 -0.497035 0.103538
v -0.075728 -0.414670 0.036153
v -0.075728 -0.497035 0.036153
vn -0.0000 1.0000 -0.0000
vn 0.9125 -0.0000 -0.4091
vn 0.4091 -0.0000 0.9125
vn -0.0000 -1.0000 -0.0000
vn -0.4091 -0.0000 -0.9125
vn -0.9125 -0.0000 0.4091
vt 0.115368 0.809368
vt 0.151537 0.899791
vt 0.115368 0.899791
vt 0.151537 0.682776
vt 0.241960 0.700860
vt 0.151537 0.700860
vt 0.151537 0.809368
vt 0.115368 0.791283
vt 0.151537 0.791283
vt 0.115368 0.682776
vt 0.115368 0.700860
vt 0.024945 0.682776
vt 0.024945 0.700860
vt 0.241960 0.682776
s 0
usemtl Material
f 5/1/1 3/2/1 1/3/1
f 3/4/2 8/5/2 4/6/2
f 7/7/3 6/8/3 8/9/3
f 6/8/4 4/6/4 8/9/4
f 1/10/5 4/6/5 2/11/5
f 5/12/6 2/11/6 6/13/6
f 5/1/1 7/7/1 3/2/1
f 3/4/2 7/14/2 8/5/2
f 7/7/3 5/1/3 6/8/3
f 6/8/4 2/11/4 4/6/4
f 1/10/5 3/4/5 4/6/5
f 5/12/6 1/10/6 2/11/6
