# Blender 4.4.1
# www.blender.org
mtllib map_equipment_05.mtl
o 台座下側装置_05
v -0.000000 55.000004 -20.000000
v 3.901807 55.000004 -19.615704
v -0.000000 57.000004 -16.348087
v -3.901806 55.000004 -19.615705
v -7.653670 55.000004 -18.477589
v -3.189354 57.000004 -16.033960
v -6.256144 57.000004 -15.103662
v -9.082510 57.000004 -13.592937
v -11.559844 57.000004 -11.559843
v -11.111404 55.000004 -16.629393
v -14.142136 55.000004 -14.142136
v -16.629395 55.000004 -11.111403
v -13.592937 57.000004 -9.082509
v -15.103662 57.000004 -6.256141
v -16.033962 57.000004 -3.189353
v -18.477592 55.000004 -7.653668
v -19.615705 55.000004 -3.901806
v -20.000000 55.000004 0.000000
v -16.348087 57.000004 0.000000
v -16.033962 57.000004 3.189354
v -19.615705 55.000004 3.901806
v -18.477591 55.000004 7.653669
v -15.103663 57.000004 6.256142
v -13.592937 57.000004 9.082509
v -11.559843 57.000004 11.559843
v -16.629393 55.000004 11.111404
v -14.142136 55.000004 14.142136
v -11.111403 55.000004 16.629393
v -7.653670 55.000004 18.477589
v -9.082510 57.000004 13.592937
v -6.256142 57.000004 15.103662
v -3.189353 57.000004 16.033962
v -3.901807 55.000004 19.615704
v 0.000000 55.000004 20.000000
v 0.000000 57.000004 16.348087
v 3.189354 57.000004 16.033960
v 3.901806 55.000004 19.615705
v 7.653669 55.000004 18.477589
v 6.256143 57.000004 15.103662
v 9.082510 57.000004 13.592937
v 11.559844 57.000004 11.559843
v 11.111404 55.000004 16.629393
v 14.142136 55.000004 14.142136
v 16.629395 55.000004 11.111403
v 13.592937 57.000004 9.082509
v 15.103662 57.000004 6.256141
v 16.033962 57.000004 3.189353
v 18.477592 55.000004 7.653668
v 19.615705 55.000004 3.901806
v 20.000000 55.000004 0.000000
v 16.348087 57.000004 0.000000
v 16.033962 57.000004 -3.189354
v 19.615705 55.000004 -3.901806
v 18.477591 55.000004 -7.653669
v 15.103663 57.000004 -6.256142
v 13.592937 57.000004 -9.082509
v 11.559843 57.000004 -11.559843
v 16.629393 55.000004 -11.111404
v 14.142136 55.000004 -14.142136
v 11.111403 55.000004 -16.629393
v 7.653669 55.000004 -18.477589
v 9.082510 57.000004 -13.592937
v 6.256142 57.000004 -15.103662
v 3.189353 57.000004 -16.033962
v -0.000000 55.000004 -20.000000
v -3.901806 55.000004 -19.615705
v -0.000000 53.000004 -16.348087
v 3.901807 55.000004 -19.615704
v 7.653669 55.000004 -18.477589
v 3.189353 53.000004 -16.033962
v 6.256140 53.000004 -15.103662
v 9.082510 53.000004 -13.592937
v 11.559843 53.000004 -11.559843
v 11.111403 55.000004 -16.629393
v 14.142136 55.000004 -14.142136
v 16.629393 55.000004 -11.111404
v 18.477591 55.000004 -7.653669
v 13.592937 53.000004 -9.082509
v 15.103663 53.000004 -6.256142
v 16.033964 53.000004 -3.189353
v 19.615705 55.000004 -3.901806
v 20.000000 55.000004 0.000000
v 16.348089 53.000004 -0.000000
v 16.033964 53.000004 3.189354
v 19.615705 55.000004 3.901806
v 18.477592 55.000004 7.653668
v 16.629395 55.000004 11.111403
v 15.103662 53.000004 6.256141
v 13.592937 53.000004 9.082509
v 11.559844 53.000004 11.559843
v 9.082510 53.000004 13.592937
v 14.142136 55.000004 14.142136
v 11.111404 55.000004 16.629393
v 7.653669 55.000004 18.477589
v 3.901806 55.000004 19.615705
v 6.256142 53.000004 15.103662
v 3.189354 53.000004 16.033960
v 0.000000 53.000004 16.348087
v -3.189353 53.000004 16.033962
v 0.000000 55.000004 20.000000
v -3.901807 55.000004 19.615704
v -7.653670 55.000004 18.477589
v -6.256143 53.000004 15.103662
v -9.082510 53.000004 13.592937
v -11.111403 55.000004 16.629393
v -14.142136 55.000004 14.142136
v -11.559843 53.000004 11.559843
v -13.592937 53.000004 9.082509
v -16.629393 55.000004 11.111404
v -18.477591 55.000004 7.653669
v -19.615705 55.000004 3.901806
v -15.103663 53.000004 6.256142
v -16.033960 53.000004 3.189354
v -16.348085 53.000004 0.000000
v -16.033960 53.000004 -3.189353
v -20.000000 55.000004 0.000000
v -19.615705 55.000004 -3.901806
v -18.477592 55.000004 -7.653668
v -15.103662 53.000004 -6.256141
v -13.592937 53.000004 -9.082509
v -16.629395 55.000004 -11.111403
v -14.142136 55.000004 -14.142136
v -11.559844 53.000004 -11.559843
v -9.082510 53.000004 -13.592937
v -11.111404 55.000004 -16.629393
v -7.653670 55.000004 -18.477589
v -6.256144 53.000004 -15.103662
v -3.189354 53.000004 -16.033960
v -0.000000 75.000000 -20.000000
v 3.901806 75.000000 -19.615704
v -0.000000 77.000000 -16.348087
v -3.901806 75.000000 -19.615705
v -7.653670 75.000000 -18.477589
v -3.189355 77.000000 -16.033962
v -6.256143 77.000000 -15.103662
v -9.082510 77.000000 -13.592937
v -11.559844 77.000000 -11.559843
v -11.111404 75.000000 -16.629393
v -14.142136 75.000000 -14.142136
v -16.629393 75.000000 -11.111403
v -18.477591 75.000000 -7.653669
v -13.592937 77.000000 -9.082509
v -15.103662 77.000000 -6.256141
v -16.033962 77.000000 -3.189353
v -19.615704 75.000000 -3.901807
v -20.000000 75.000000 0.000000
v -16.348087 77.000000 0.000000
v -16.033962 77.000000 3.189354
v -19.615705 75.000000 3.901806
v -18.477589 75.000000 7.653669
v -15.103663 77.000000 6.256142
v -13.592937 77.000000 9.082509
v -11.559843 77.000000 11.559843
v -16.629393 75.000000 11.111404
v -14.142136 75.000000 14.142136
v -11.111403 75.000000 16.629393
v -7.653670 75.000000 18.477589
v -9.082510 77.000000 13.592937
v -6.256142 77.000000 15.103662
v -3.189353 77.000000 16.033960
v -3.901807 75.000000 19.615704
v 0.000000 75.000000 20.000000
v 0.000000 77.000000 16.348087
v 3.189354 77.000000 16.033960
v 3.901806 75.000000 19.615705
v 7.653669 75.000000 18.477589
v 6.256143 77.000000 15.103662
v 9.082510 77.000000 13.592937
v 11.559844 77.000000 11.559843
v 11.111404 75.000000 16.629393
v 14.142136 75.000000 14.142136
v 16.629395 75.000000 11.111403
v 13.592937 77.000000 9.082509
v 15.103662 77.000000 6.256141
v 16.033962 77.000000 3.189353
v 18.477594 75.000000 7.653669
v 19.615709 75.000000 3.901805
v 20.000002 75.000000 0.000000
v 16.348087 77.000000 0.000000
v 16.033962 77.000000 -3.189354
v 19.615709 75.000000 -3.901806
v 18.477592 75.000000 -7.653669
v 16.629395 75.000000 -11.111404
v 15.103663 77.000000 -6.256142
v 13.592937 77.000000 -9.082509
v 11.559843 77.000000 -11.559843
v 14.142136 75.000000 -14.142136
v 11.111403 75.000000 -16.629393
v 7.653669 75.000000 -18.477589
v 9.082510 77.000000 -13.592937
v 6.256142 77.000000 -15.103662
v 3.189353 77.000000 -16.033962
v -0.000000 75.000000 -20.000000
v -3.901806 75.000000 -19.615705
v -0.000000 73.000000 -16.348087
v 3.901806 75.000000 -19.615704
v 7.653669 75.000000 -18.477589
v 3.189353 73.000000 -16.033962
v 6.256142 73.000000 -15.103662
v 9.082510 73.000000 -13.592937
v 11.559842 73.000000 -11.559843
v 11.111403 75.000000 -16.629393
v 14.142136 75.000000 -14.142136
v 16.629395 75.000000 -11.111404
v 13.592937 73.000000 -9.082509
v 15.103662 73.000000 -6.256142
v 16.033964 73.000000 -3.189353
v 18.477592 75.000000 -7.653669
v 19.615709 75.000000 -3.901806
v 20.000002 75.000000 0.000000
v 16.348089 73.000000 -0.000000
v 16.033964 73.000000 3.189354
v 19.615709 75.000000 3.901805
v 18.477594 75.000000 7.653669
v 16.629395 75.000000 11.111403
v 15.103662 73.000000 6.256142
v 13.592937 73.000000 9.082509
v 11.559843 73.000000 11.559843
v 14.142136 75.000000 14.142136
v 11.111404 75.000000 16.629393
v 7.653669 75.000000 18.477589
v 9.082509 73.000000 13.592937
v 6.256143 73.000000 15.103662
v 3.189354 73.000000 16.033960
v 0.000000 73.000000 16.348087
v 3.901806 75.000000 19.615705
v 0.000000 75.000000 20.000000
v -3.901807 75.000000 19.615704
v -7.653670 75.000000 18.477589
v -3.189353 73.000000 16.033960
v -6.256142 73.000000 15.103662
v -9.082511 73.000000 13.592937
v -11.559844 73.000000 11.559843
v -11.111403 75.000000 16.629393
v -14.142136 75.000000 14.142136
v -16.629393 75.000000 11.111404
v -18.477589 75.000000 7.653669
v -13.592938 73.000000 9.082510
v -15.103663 73.000000 6.256142
v -16.033960 73.000000 3.189354
v -19.615705 75.000000 3.901806
v -20.000000 75.000000 0.000000
v -16.348085 73.000000 0.000000
v -16.033960 73.000000 -3.189353
v -19.615704 75.000000 -3.901807
v -18.477591 75.000000 -7.653669
v -15.103664 73.000000 -6.256142
v -13.592937 73.000000 -9.082509
v -16.629393 75.000000 -11.111403
v -14.142136 75.000000 -14.142136
v -11.559845 73.000000 -11.559843
v -9.082512 73.000000 -13.592937
v -6.256144 73.000000 -15.103662
v -11.111404 75.000000 -16.629393
v -7.653670 75.000000 -18.477589
v -3.189355 73.000000 -16.033962
v -0.000000 35.000000 -20.000000
v 3.901807 35.000000 -19.615704
v -0.000000 37.000000 -16.348087
v -3.901806 35.000000 -19.615705
v -7.653670 35.000000 -18.477589
v -3.189354 37.000000 -16.033960
v -6.256144 37.000000 -15.103662
v -9.082510 37.000000 -13.592937
v -11.559844 37.000000 -11.559843
v -11.111404 35.000000 -16.629393
v -14.142136 35.000000 -14.142136
v -16.629395 35.000000 -11.111403
v -13.592937 37.000000 -9.082509
v -15.103662 37.000000 -6.256141
v -16.033962 37.000000 -3.189353
v -18.477592 35.000000 -7.653668
v -19.615705 35.000000 -3.901806
v -20.000000 35.000000 0.000000
v -16.348087 37.000000 0.000000
v -16.033962 37.000000 3.189354
v -19.615705 35.000000 3.901806
v -18.477591 35.000000 7.653669
v -15.103663 37.000000 6.256142
v -13.592937 37.000000 9.082509
v -11.559843 37.000000 11.559843
v -16.629393 35.000000 11.111404
v -14.142136 35.000000 14.142136
v -11.111403 35.000000 16.629393
v -7.653670 35.000000 18.477589
v -9.082510 37.000000 13.592937
v -6.256142 37.000000 15.103662
v -3.189353 37.000000 16.033962
v -3.901807 35.000000 19.615704
v 0.000000 35.000000 20.000000
v 0.000000 37.000000 16.348087
v 3.189354 37.000000 16.033960
v 3.901806 35.000000 19.615705
v 7.653669 35.000000 18.477589
v 6.256143 37.000000 15.103662
v 9.082510 37.000000 13.592937
v 11.559844 37.000000 11.559843
v 11.111404 35.000000 16.629393
v 14.142136 35.000000 14.142136
v 16.629395 35.000000 11.111403
v 13.592937 37.000000 9.082509
v 15.103662 37.000000 6.256141
v 16.033962 37.000000 3.189353
v 18.477592 35.000000 7.653668
v 19.615705 35.000000 3.901806
v 20.000000 35.000000 0.000000
v 16.348087 37.000000 0.000000
v 16.033962 37.000000 -3.189354
v 19.615705 35.000000 -3.901806
v 18.477591 35.000000 -7.653669
v 15.103663 37.000000 -6.256142
v 13.592937 37.000000 -9.082509
v 11.559843 37.000000 -11.559843
v 16.629393 35.000000 -11.111404
v 14.142136 35.000000 -14.142136
v 11.111403 35.000000 -16.629393
v 7.653669 35.000000 -18.477589
v 9.082510 37.000000 -13.592937
v 6.256142 37.000000 -15.103662
v 3.189353 37.000000 -16.033962
v -0.000000 35.000000 -20.000000
v -3.901806 35.000000 -19.615705
v -0.000000 33.000000 -16.348087
v 3.901807 35.000000 -19.615704
v 7.653669 35.000000 -18.477589
v 3.189353 33.000000 -16.033962
v 6.256142 33.000000 -15.103662
v 9.082510 33.000000 -13.592937
v -6.256144 33.000000 -15.103662
v -3.189355 33.000000 -16.033962
v 11.559843 33.000000 -11.559843
v 13.592937 33.000000 -9.082509
v 15.103663 33.000000 -6.256142
v 6.256143 33.000000 15.103662
v 3.189354 33.000000 16.033960
v 7.653669 35.000000 18.477589
v 9.082510 33.000000 13.592937
v 15.103662 33.000000 6.256141
v -6.256142 33.000000 15.103662
v -9.082510 33.000000 13.592937
v -7.653670 35.000000 18.477589
v -3.189353 33.000000 16.033960
v -3.901807 35.000000 19.615704
v 0.000000 33.000000 16.348087
v -11.559843 33.000000 11.559843
v -13.592937 33.000000 9.082509
v -15.103663 33.000000 6.256142
v -16.033962 33.000000 3.189354
v -18.477591 35.000000 7.653669
v -19.615705 35.000000 3.901806
v -15.103662 33.000000 -6.256141
v -13.592937 33.000000 -9.082509
v -18.477592 35.000000 -7.653668
v -16.033962 33.000000 -3.189353
v -16.629395 35.000000 -11.111403
v -19.615705 35.000000 -3.901806
v -16.348087 33.000000 0.000000
v -11.559844 33.000000 -11.559843
v -9.082510 33.000000 -13.592937
v -11.111404 35.000000 -16.629393
v -7.653670 35.000000 -18.477589
v -14.142136 35.000000 -14.142136
v -20.000000 35.000000 0.000000
v -16.629393 35.000000 11.111404
v -14.142136 35.000000 14.142136
v -11.111403 35.000000 16.629393
v 0.000000 35.000000 20.000000
v 3.901806 35.000000 19.615705
v 13.592937 33.000000 9.082509
v 18.477592 35.000000 7.653668
v 16.033962 33.000000 3.189353
v 16.629395 35.000000 11.111403
v 19.615705 35.000000 3.901806
v 16.033962 33.000000 -3.189354
v 16.348087 33.000000 0.000000
v 11.559844 33.000000 11.559843
v 14.142136 35.000000 14.142136
v 11.111404 35.000000 16.629393
v 20.000000 35.000000 0.000000
v 19.615705 35.000000 -3.901806
v 18.477591 35.000000 -7.653669
v 16.629393 35.000000 -11.111404
v 14.142136 35.000000 -14.142136
v 11.111403 35.000000 -16.629393
vn -0.0000 0.8771 -0.4803
vn 0.0937 0.8771 -0.4711
vn -0.0937 0.8771 -0.4711
vn -0.1838 0.8771 -0.4438
vn -0.2669 0.8771 -0.3994
vn -0.3397 0.8771 -0.3397
vn -0.3994 0.8771 -0.2669
vn -0.4438 0.8771 -0.1838
vn -0.4711 0.8771 -0.0937
vn -0.4803 0.8771 -0.0000
vn -0.4711 0.8771 0.0937
vn -0.4438 0.8771 0.1838
vn -0.3994 0.8771 0.2669
vn -0.3397 0.8771 0.3397
vn -0.2669 0.8771 0.3994
vn -0.1838 0.8771 0.4438
vn -0.0937 0.8771 0.4711
vn -0.0000 0.8771 0.4803
vn 0.0937 0.8771 0.4711
vn 0.1838 0.8771 0.4438
vn 0.2669 0.8771 0.3994
vn 0.3397 0.8771 0.3397
vn 0.3994 0.8771 0.2669
vn 0.4438 0.8771 0.1838
vn 0.4711 0.8771 0.0937
vn 0.4803 0.8771 -0.0000
vn 0.4711 0.8771 -0.0937
vn 0.4438 0.8771 -0.1838
vn 0.3994 0.8771 -0.2669
vn 0.3397 0.8771 -0.3397
vn 0.2669 0.8771 -0.3994
vn 0.1838 0.8771 -0.4438
vn -0.0000 -0.8771 -0.4803
vn -0.0937 -0.8771 -0.4711
vn 0.0937 -0.8771 -0.4711
vn 0.1838 -0.8771 -0.4438
vn 0.2669 -0.8771 -0.3994
vn 0.3397 -0.8771 -0.3397
vn 0.3994 -0.8771 -0.2669
vn 0.4438 -0.8771 -0.1838
vn 0.4711 -0.8771 -0.0937
vn 0.4803 -0.8771 -0.0000
vn 0.4711 -0.8771 0.0937
vn 0.4438 -0.8771 0.1838
vn 0.3994 -0.8771 0.2669
vn 0.3397 -0.8771 0.3397
vn 0.2669 -0.8771 0.3994
vn 0.1838 -0.8771 0.4438
vn 0.0937 -0.8771 0.4711
vn -0.0000 -0.8771 0.4803
vn -0.0937 -0.8771 0.4711
vn -0.1838 -0.8771 0.4438
vn -0.2669 -0.8771 0.3994
vn -0.3397 -0.8771 0.3397
vn -0.3994 -0.8771 0.2669
vn -0.4438 -0.8771 0.1838
vn -0.4711 -0.8771 0.0937
vn -0.4803 -0.8771 -0.0000
vn -0.4711 -0.8771 -0.0937
vn -0.4438 -0.8771 -0.1838
vn -0.3994 -0.8771 -0.2669
vn -0.3397 -0.8771 -0.3397
vn -0.2669 -0.8771 -0.3994
vn -0.1838 -0.8771 -0.4438
vn -0.0000 -1.0000 -0.0000
vt 1.000000 1.000000
vt 0.968750 0.500000
vt 1.000000 0.500000
vt 0.031250 0.500000
vt 0.000000 1.000000
vt 0.000000 0.500000
vt 0.062500 1.000000
vt 0.062500 0.500000
vt 0.031250 1.000000
vt 0.093750 1.000000
vt 0.125000 1.000000
vt 0.093750 0.500000
vt 0.125000 0.500000
vt 0.156250 1.000000
vt 0.156250 0.500000
vt 0.187500 1.000000
vt 0.218750 0.500000
vt 0.218750 1.000000
vt 0.187500 0.500000
vt 0.250000 1.000000
vt 0.250000 0.500000
vt 0.281250 0.500000
vt 0.281250 1.000000
vt 0.312500 1.000000
vt 0.312500 0.500000
vt 0.343750 1.000000
vt 0.375000 1.000000
vt 0.343750 0.500000
vt 0.375000 0.500000
vt 0.406250 0.500000
vt 0.437500 0.500000
vt 0.406250 1.000000
vt 0.437500 1.000000
vt 0.468750 0.500000
vt 0.468750 1.000000
vt 0.500000 1.000000
vt 0.500000 0.500000
vt 0.531250 0.500000
vt 0.531250 1.000000
vt 0.562500 1.000000
vt 0.562500 0.500000
vt 0.593750 1.000000
vt 0.625000 1.000000
vt 0.593750 0.500000
vt 0.625000 0.500000
vt 0.656250 1.000000
vt 0.656250 0.500000
vt 0.687500 1.000000
vt 0.718750 0.500000
vt 0.718750 1.000000
vt 0.687500 0.500000
vt 0.750000 1.000000
vt 0.750000 0.500000
vt 0.781250 0.500000
vt 0.781250 1.000000
vt 0.812500 1.000000
vt 0.812500 0.500000
vt 0.843750 1.000000
vt 0.875000 1.000000
vt 0.843750 0.500000
vt 0.875000 0.500000
vt 0.906250 0.500000
vt 0.937500 0.500000
vt 0.906250 1.000000
vt 0.937500 1.000000
vt 0.968750 1.000000
vt 0.158156 0.471731
vt 0.116663 0.449553
vt 0.080294 0.419706
vt 0.250000 0.490000
vt 0.203178 0.485388
vt 0.341844 0.471731
vt 0.296822 0.485388
vt 0.158156 0.028269
vt 0.050447 0.383337
vt 0.028269 0.341844
vt 0.203178 0.014612
vt 0.341844 0.028269
vt 0.116663 0.050447
vt 0.028269 0.158156
vt 0.383337 0.050447
vt 0.419706 0.080294
vt 0.250000 0.010000
vt 0.296822 0.014612
vt 0.449553 0.116663
vt 0.471731 0.158156
vt 0.485388 0.203178
vt 0.471731 0.341844
vt 0.449553 0.383337
vt 0.419706 0.419706
vt 0.490000 0.250000
vt 0.485388 0.296822
vt 0.383337 0.449553
vt 0.050447 0.116663
vt 0.080294 0.080294
vt 0.010000 0.250000
vt 0.014612 0.203178
vt 0.014612 0.296822
s 1
f 3/1/1 2/2/2 1/3/1
f 4/4/3 3/5/1 1/6/1
f 7/7/4 4/4/3 5/8/4
f 4/4/3 6/9/3 3/5/1
f 7/7/4 6/9/3 4/4/3
f 8/10/5 7/7/4 5/8/4
f 9/11/6 8/10/5 10/12/5
f 8/10/5 5/8/4 10/12/5
f 9/11/6 10/12/5 11/13/6
f 13/14/7 11/13/6 12/15/7
f 13/14/7 9/11/6 11/13/6
f 14/16/8 13/14/7 12/15/7
f 17/17/9 15/18/9 14/16/8
f 14/16/8 12/15/7 16/19/8
f 17/17/9 14/16/8 16/19/8
f 19/20/10 17/17/9 18/21/10
f 19/20/10 15/18/9 17/17/9
f 21/22/11 20/23/11 19/20/10
f 21/22/11 19/20/10 18/21/10
f 23/24/12 21/22/11 22/25/12
f 23/24/12 20/23/11 21/22/11
f 24/26/13 23/24/12 22/25/12
f 25/27/14 24/26/13 26/28/13
f 24/26/13 22/25/12 26/28/13
f 25/27/14 26/28/13 27/29/14
f 28/30/15 25/27/14 27/29/14
f 29/31/16 30/32/15 28/30/15
f 28/30/15 30/32/15 25/27/14
f 29/31/16 31/33/16 30/32/15
f 33/34/17 32/35/17 31/33/16
f 33/34/17 31/33/16 29/31/16
f 35/36/18 33/34/17 34/37/18
f 35/36/18 32/35/17 33/34/17
f 37/38/19 36/39/19 35/36/18
f 37/38/19 35/36/18 34/37/18
f 39/40/20 37/38/19 38/41/20
f 39/40/20 36/39/19 37/38/19
f 40/42/21 39/40/20 38/41/20
f 41/43/22 40/42/21 42/44/21
f 40/42/21 38/41/20 42/44/21
f 41/43/22 42/44/21 43/45/22
f 45/46/23 43/45/22 44/47/23
f 45/46/23 41/43/22 43/45/22
f 46/48/24 45/46/23 44/47/23
f 49/49/25 47/50/25 46/48/24
f 46/48/24 44/47/23 48/51/24
f 49/49/25 46/48/24 48/51/24
f 51/52/26 49/49/25 50/53/26
f 51/52/26 47/50/25 49/49/25
f 53/54/27 52/55/27 51/52/26
f 53/54/27 51/52/26 50/53/26
f 55/56/28 53/54/27 54/57/28
f 55/56/28 52/55/27 53/54/27
f 56/58/29 55/56/28 54/57/28
f 57/59/30 56/58/29 58/60/29
f 56/58/29 54/57/28 58/60/29
f 57/59/30 58/60/29 59/61/30
f 60/62/31 57/59/30 59/61/30
f 61/63/32 62/64/31 60/62/31
f 60/62/31 62/64/31 57/59/30
f 61/63/32 63/65/32 62/64/31
f 2/2/2 64/66/2 63/65/32
f 2/2/2 63/65/32 61/63/32
f 3/1/1 64/66/2 2/2/2
f 67/1/33 66/2/34 65/3/33
f 68/4/35 67/5/33 65/6/33
f 71/7/36 68/4/35 69/8/36
f 68/4/35 70/9/35 67/5/33
f 71/7/36 70/9/35 68/4/35
f 72/10/37 71/7/36 69/8/36
f 73/11/38 72/10/37 74/12/37
f 72/10/37 69/8/36 74/12/37
f 73/11/38 74/12/37 75/13/38
f 76/15/39 73/11/38 75/13/38
f 77/19/40 78/14/39 76/15/39
f 76/15/39 78/14/39 73/11/38
f 77/19/40 79/16/40 78/14/39
f 81/17/41 80/18/41 79/16/40
f 81/17/41 79/16/40 77/19/40
f 83/20/42 81/17/41 82/21/42
f 83/20/42 80/18/41 81/17/41
f 85/22/43 84/23/43 83/20/42
f 85/22/43 83/20/42 82/21/42
f 86/25/44 84/23/43 85/22/43
f 87/28/45 88/24/44 86/25/44
f 86/25/44 88/24/44 84/23/43
f 87/28/45 89/26/45 88/24/44
f 90/27/46 89/26/45 87/28/45
f 93/30/47 91/32/47 90/27/46
f 90/27/46 87/28/45 92/29/46
f 93/30/47 90/27/46 92/29/46
f 94/31/48 91/32/47 93/30/47
f 95/34/49 96/33/48 94/31/48
f 94/31/48 96/33/48 91/32/47
f 95/34/49 97/35/49 96/33/48
f 98/36/50 97/35/49 95/34/49
f 101/38/51 99/39/51 98/36/50
f 98/36/50 95/34/49 100/37/50
f 101/38/51 98/36/50 100/37/50
f 103/40/52 101/38/51 102/41/52
f 103/40/52 99/39/51 101/38/51
f 105/44/53 104/42/53 103/40/52
f 105/44/53 103/40/52 102/41/52
f 107/43/54 105/44/53 106/45/54
f 107/43/54 104/42/53 105/44/53
f 109/47/55 108/46/55 107/43/54
f 109/47/55 107/43/54 106/45/54
f 110/51/56 108/46/55 109/47/55
f 111/49/57 112/48/56 110/51/56
f 110/51/56 112/48/56 108/46/55
f 111/49/57 113/50/57 112/48/56
f 114/52/58 113/50/57 111/49/57
f 117/54/59 115/55/59 114/52/58
f 114/52/58 111/49/57 116/53/58
f 117/54/59 114/52/58 116/53/58
f 119/56/60 117/54/59 118/57/60
f 119/56/60 115/55/59 117/54/59
f 121/60/61 120/58/61 119/56/60
f 121/60/61 119/56/60 118/57/60
f 123/59/62 121/60/61 122/61/62
f 123/59/62 120/58/61 121/60/61
f 125/62/63 124/64/63 123/59/62
f 125/62/63 123/59/62 122/61/62
f 126/63/64 124/64/63 125/62/63
f 66/2/34 127/65/64 126/63/64
f 126/63/64 127/65/64 124/64/63
f 66/2/34 128/66/34 127/65/64
f 67/1/33 128/66/34 66/2/34
f 131/1/1 130/2/2 129/3/1
f 132/4/3 131/5/1 129/6/1
f 133/8/4 134/9/3 132/4/3
f 132/4/3 134/9/3 131/5/1
f 133/8/4 135/7/4 134/9/3
f 136/10/5 135/7/4 133/8/4
f 137/11/6 136/10/5 138/12/5
f 136/10/5 133/8/4 138/12/5
f 137/11/6 138/12/5 139/13/6
f 140/15/7 137/11/6 139/13/6
f 141/19/8 142/14/7 140/15/7
f 140/15/7 142/14/7 137/11/6
f 141/19/8 143/16/8 142/14/7
f 145/17/9 144/18/9 143/16/8
f 145/17/9 143/16/8 141/19/8
f 147/20/10 145/17/9 146/21/10
f 147/20/10 144/18/9 145/17/9
f 149/22/11 148/23/11 147/20/10
f 149/22/11 147/20/10 146/21/10
f 151/24/12 149/22/11 150/25/12
f 151/24/12 148/23/11 149/22/11
f 152/26/13 151/24/12 150/25/12
f 153/27/14 152/26/13 154/28/13
f 152/26/13 150/25/12 154/28/13
f 153/27/14 154/28/13 155/29/14
f 156/30/15 153/27/14 155/29/14
f 157/31/16 158/32/15 156/30/15
f 156/30/15 158/32/15 153/27/14
f 157/31/16 159/33/16 158/32/15
f 161/34/17 160/35/17 159/33/16
f 161/34/17 159/33/16 157/31/16
f 163/36/18 161/34/17 162/37/18
f 163/36/18 160/35/17 161/34/17
f 165/38/19 164/39/19 163/36/18
f 165/38/19 163/36/18 162/37/18
f 167/40/20 165/38/19 166/41/20
f 167/40/20 164/39/19 165/38/19
f 168/42/21 167/40/20 166/41/20
f 169/43/22 168/42/21 170/44/21
f 168/42/21 166/41/20 170/44/21
f 169/43/22 170/44/21 171/45/22
f 173/46/23 171/45/22 172/47/23
f 173/46/23 169/43/22 171/45/22
f 174/48/24 173/46/23 172/47/23
f 175/50/25 174/48/24 176/51/24
f 174/48/24 172/47/23 176/51/24
f 175/50/25 176/51/24 177/49/25
f 179/52/26 177/49/25 178/53/26
f 179/52/26 175/50/25 177/49/25
f 181/54/27 180/55/27 179/52/26
f 181/54/27 179/52/26 178/53/26
f 182/57/28 180/55/27 181/54/27
f 183/60/29 184/56/28 182/57/28
f 182/57/28 184/56/28 180/55/27
f 183/60/29 185/58/29 184/56/28
f 187/61/30 186/59/30 185/58/29
f 187/61/30 185/58/29 183/60/29
f 188/62/31 186/59/30 187/61/30
f 189/63/32 190/64/31 188/62/31
f 188/62/31 190/64/31 186/59/30
f 189/63/32 191/65/32 190/64/31
f 130/2/2 192/66/2 191/65/32
f 130/2/2 191/65/32 189/63/32
f 131/1/1 192/66/2 130/2/2
f 195/1/33 194/2/34 193/3/33
f 196/4/35 195/5/33 193/6/33
f 199/7/36 196/4/35 197/8/36
f 196/4/35 198/9/35 195/5/33
f 199/7/36 198/9/35 196/4/35
f 200/10/37 199/7/36 197/8/36
f 201/11/38 200/10/37 202/12/37
f 200/10/37 197/8/36 202/12/37
f 201/11/38 202/12/37 203/13/38
f 205/14/39 203/13/38 204/15/39
f 205/14/39 201/11/38 203/13/38
f 206/16/40 205/14/39 204/15/39
f 207/18/41 206/16/40 208/19/40
f 206/16/40 204/15/39 208/19/40
f 207/18/41 208/19/40 209/17/41
f 211/20/42 209/17/41 210/21/42
f 211/20/42 207/18/41 209/17/41
f 213/22/43 212/23/43 211/20/42
f 213/22/43 211/20/42 210/21/42
f 214/25/44 212/23/43 213/22/43
f 215/28/45 216/24/44 214/25/44
f 214/25/44 216/24/44 212/23/43
f 215/28/45 217/26/45 216/24/44
f 219/29/46 218/27/46 217/26/45
f 219/29/46 217/26/45 215/28/45
f 220/30/47 218/27/46 219/29/46
f 221/31/48 222/32/47 220/30/47
f 220/30/47 222/32/47 218/27/46
f 221/31/48 223/33/48 222/32/47
f 224/35/49 223/33/48 221/31/48
f 225/36/50 224/35/49 226/34/49
f 224/35/49 221/31/48 226/34/49
f 225/36/50 226/34/49 227/37/50
f 228/38/51 225/36/50 227/37/50
f 231/40/52 228/38/51 229/41/52
f 228/38/51 230/39/51 225/36/50
f 231/40/52 230/39/51 228/38/51
f 232/42/53 231/40/52 229/41/52
f 235/45/54 233/43/54 232/42/53
f 232/42/53 229/41/52 234/44/53
f 235/45/54 232/42/53 234/44/53
f 236/47/55 233/43/54 235/45/54
f 237/51/56 238/46/55 236/47/55
f 236/47/55 238/46/55 233/43/54
f 237/51/56 239/48/56 238/46/55
f 241/49/57 240/50/57 239/48/56
f 241/49/57 239/48/56 237/51/56
f 243/52/58 241/49/57 242/53/58
f 243/52/58 240/50/57 241/49/57
f 245/54/59 244/55/59 243/52/58
f 245/54/59 243/52/58 242/53/58
f 247/56/60 245/54/59 246/57/60
f 247/56/60 244/55/59 245/54/59
f 249/60/61 248/58/61 247/56/60
f 249/60/61 247/56/60 246/57/60
f 251/59/62 249/60/61 250/61/62
f 251/59/62 248/58/61 249/60/61
f 252/64/63 251/59/62 250/61/62
f 255/63/64 253/65/64 252/64/63
f 252/64/63 250/61/62 254/62/63
f 255/63/64 252/64/63 254/62/63
f 256/66/34 255/63/64 194/2/34
f 256/66/34 253/65/64 255/63/64
f 195/1/33 256/66/34 194/2/34
f 259/1/1 258/2/2 257/3/1
f 260/4/3 259/5/1 257/6/1
f 263/7/4 260/4/3 261/8/4
f 263/7/4 262/9/3 260/4/3
f 260/4/3 262/9/3 259/5/1
f 264/10/5 263/7/4 261/8/4
f 265/11/6 264/10/5 266/12/5
f 264/10/5 261/8/4 266/12/5
f 265/11/6 266/12/5 267/13/6
f 269/14/7 267/13/6 268/15/7
f 269/14/7 265/11/6 267/13/6
f 270/16/8 269/14/7 268/15/7
f 273/17/9 271/18/9 270/16/8
f 273/17/9 270/16/8 272/19/8
f 270/16/8 268/15/7 272/19/8
f 275/20/10 273/17/9 274/21/10
f 275/20/10 271/18/9 273/17/9
f 277/22/11 276/23/11 275/20/10
f 277/22/11 275/20/10 274/21/10
f 279/24/12 277/22/11 278/25/12
f 279/24/12 276/23/11 277/22/11
f 280/26/13 279/24/12 278/25/12
f 281/27/14 280/26/13 282/28/13
f 280/26/13 278/25/12 282/28/13
f 281/27/14 282/28/13 283/29/14
f 284/30/15 281/27/14 283/29/14
f 285/31/16 286/32/15 284/30/15
f 284/30/15 286/32/15 281/27/14
f 285/31/16 287/33/16 286/32/15
f 289/34/17 288/35/17 287/33/16
f 289/34/17 287/33/16 285/31/16
f 291/36/18 289/34/17 290/37/18
f 291/36/18 288/35/17 289/34/17
f 293/38/19 292/39/19 291/36/18
f 293/38/19 291/36/18 290/37/18
f 295/40/20 293/38/19 294/41/20
f 295/40/20 292/39/19 293/38/19
f 296/42/21 295/40/20 294/41/20
f 297/43/22 296/42/21 298/44/21
f 296/42/21 294/41/20 298/44/21
f 297/43/22 298/44/21 299/45/22
f 301/46/23 299/45/22 300/47/23
f 301/46/23 297/43/22 299/45/22
f 302/48/24 301/46/23 300/47/23
f 305/49/25 303/50/25 302/48/24
f 305/49/25 302/48/24 304/51/24
f 302/48/24 300/47/23 304/51/24
f 307/52/26 305/49/25 306/53/26
f 307/52/26 303/50/25 305/49/25
f 309/54/27 308/55/27 307/52/26
f 309/54/27 307/52/26 306/53/26
f 311/56/28 309/54/27 310/57/28
f 311/56/28 308/55/27 309/54/27
f 312/58/29 311/56/28 310/57/28
f 313/59/30 312/58/29 314/60/29
f 312/58/29 310/57/28 314/60/29
f 313/59/30 314/60/29 315/61/30
f 316/62/31 313/59/30 315/61/30
f 317/63/32 318/64/31 316/62/31
f 316/62/31 318/64/31 313/59/30
f 317/63/32 319/65/32 318/64/31
f 258/2/2 320/66/2 319/65/32
f 258/2/2 319/65/32 317/63/32
f 259/1/1 320/66/2 258/2/2
f 323/1/33 322/2/34 321/3/33
f 324/4/35 323/5/33 321/6/33
f 327/7/36 324/4/35 325/8/36
f 327/7/36 326/9/35 324/4/35
f 324/4/35 326/9/35 323/5/33
f 328/10/37 327/7/36 325/8/36
s 0
f 327/67/65 328/68/65 331/69/65
f 323/70/65 326/71/65 327/67/65
f 329/72/65 330/73/65 327/67/65
f 329/72/65 327/67/65 334/74/65
f 330/73/65 323/70/65 327/67/65
f 331/69/65 332/75/65 327/67/65
f 332/75/65 333/76/65 327/67/65
f 327/67/65 333/76/65 334/74/65
s 1
f 335/35/49 334/33/48 336/31/48
s 0
f 334/74/65 335/77/65 339/78/65
s 1
f 336/31/48 334/33/48 337/32/47
s 0
f 337/79/65 334/74/65 338/80/65
f 333/76/65 338/80/65 334/74/65
f 334/74/65 339/78/65 329/72/65
s 1
f 340/42/53 339/40/52 341/41/52
s 0
f 339/78/65 340/81/65 345/82/65
s 1
f 339/40/52 343/38/51 341/41/52
f 339/40/52 342/39/51 343/38/51
s 0
f 344/83/65 342/84/65 339/78/65
f 335/77/65 344/83/65 339/78/65
f 345/82/65 346/85/65 339/78/65
f 346/85/65 347/86/65 339/78/65
f 339/78/65 347/86/65 329/72/65
s 1
f 350/49/57 348/50/57 347/48/56
s 0
f 347/86/65 348/87/65 351/88/65
s 1
f 350/49/57 347/48/56 349/51/56
f 349/51/56 347/48/56 346/46/55
s 0
f 347/86/65 351/88/65 329/72/65
s 1
f 355/60/61 352/58/61 351/56/60
s 0
f 351/88/65 352/89/65 358/90/65
s 1
f 355/60/61 351/56/60 353/57/60
f 351/56/60 356/54/59 353/57/60
f 351/56/60 354/55/59 356/54/59
s 0
f 357/91/65 354/92/65 351/88/65
f 348/87/65 357/91/65 351/88/65
f 358/90/65 359/93/65 351/88/65
f 359/93/65 329/72/65 351/88/65
s 1
f 361/63/64 329/65/64 359/64/63
f 361/63/64 359/64/63 360/62/63
f 360/62/63 359/64/63 358/59/62
f 330/66/34 361/63/64 322/2/34
f 330/66/34 329/65/64 361/63/64
f 360/62/63 358/59/62 362/61/62
f 358/59/62 355/60/61 362/61/62
f 358/59/62 352/58/61 355/60/61
f 356/54/59 354/55/59 357/52/58
f 356/54/59 357/52/58 363/53/58
f 357/52/58 350/49/57 363/53/58
f 357/52/58 348/50/57 350/49/57
f 349/51/56 346/46/55 364/47/55
f 364/47/55 346/46/55 345/43/54
f 364/47/55 345/43/54 365/45/54
f 345/43/54 366/44/53 365/45/54
f 340/42/53 341/41/52 366/44/53
f 345/43/54 340/42/53 366/44/53
f 343/38/51 342/39/51 344/36/50
f 343/38/51 344/36/50 367/37/50
f 344/36/50 368/34/49 367/37/50
f 344/36/50 335/35/49 368/34/49
f 335/35/49 336/31/48 368/34/49
f 372/28/45 369/26/45 338/24/44
s 0
f 338/80/65 369/94/65 376/95/65
s 1
f 372/28/45 338/24/44 370/25/44
f 338/24/44 373/22/43 370/25/44
f 338/24/44 371/23/43 373/22/43
s 0
f 375/96/65 371/97/65 338/80/65
f 333/76/65 374/98/65 338/80/65
f 374/98/65 375/96/65 338/80/65
f 376/95/65 337/79/65 338/80/65
s 1
f 378/30/47 337/32/47 376/27/46
f 378/30/47 376/27/46 377/29/46
f 376/27/46 372/28/45 377/29/46
f 376/27/46 369/26/45 372/28/45
f 336/31/48 337/32/47 378/30/47
f 373/22/43 371/23/43 375/20/42
f 373/22/43 375/20/42 379/21/42
f 375/20/42 380/17/41 379/21/42
f 375/20/42 374/18/41 380/17/41
f 380/17/41 374/18/41 333/16/40
f 380/17/41 333/16/40 381/19/40
f 381/19/40 333/16/40 332/14/39
f 381/19/40 332/14/39 382/15/39
f 382/15/39 332/14/39 331/11/38
f 382/15/39 331/11/38 383/13/38
f 331/11/38 384/12/37 383/13/38
f 328/10/37 325/8/36 384/12/37
f 331/11/38 328/10/37 384/12/37
f 323/1/33 330/66/34 322/2/34
