# Blender 4.4.1
# www.blender.org
mtllib enemy_core17.mtl
o enemy_core17
v 0.635220 -0.097560 0.038570
v 0.234479 -0.470758 0.058475
v 0.178032 -0.320574 -0.021595
v 0.624417 -0.087569 0.030776
v 0.132904 -0.237436 0.056608
v 0.562744 0.049206 0.154440
v 0.235435 0.087551 0.277662
v 0.526335 -0.047656 0.298017
v 0.339416 -0.265405 0.298017
v 0.457160 -0.388912 0.209497
v 0.675686 -0.056531 0.237126
v 0.684164 -0.070156 0.231158
v 0.706862 -0.109287 0.209497
v 0.717997 -0.141024 0.172025
v 0.640193 0.000356 0.262082
v 0.625749 -0.304996 0.120599
v 0.617899 -0.313045 0.121228
v 0.317073 0.063247 0.298017
v 0.553935 0.009491 0.298017
v 0.234192 0.081959 0.298017
v 0.351113 -0.561919 0.143431
v 0.309704 -0.530854 0.209497
v 0.242348 -0.479460 0.252937
v 0.197540 -0.445282 0.282758
v 0.355057 -0.564798 0.137213
v 0.451072 -0.476865 0.133029
v 0.557866 -0.374195 0.126378
v 0.214206 0.015525 0.298017
v 0.126289 -0.285955 0.298017
v 0.184069 -0.418475 0.298017
v 0.132152 -0.299439 0.298017
v 0.684164 -0.070156 0.231158
v 0.684164 -0.070156 0.231158
v 0.706862 -0.109287 0.209497
v 0.706862 -0.109287 0.209497
v 0.717997 -0.141024 0.172025
v 0.675686 -0.056531 0.237126
v 0.640193 0.000356 0.262082
v 0.625749 -0.304996 0.120599
v 0.617899 -0.313045 0.121228
v 0.317073 0.063247 0.298017
v 0.553935 0.009491 0.298017
v 0.553935 0.009491 0.298017
v 0.234192 0.081959 0.298017
v 0.351113 -0.561919 0.143431
v 0.309704 -0.530854 0.209497
v 0.309704 -0.530854 0.209497
v 0.242348 -0.479460 0.252937
v 0.197540 -0.445282 0.282758
v 0.355057 -0.564798 0.137213
v 0.557866 -0.374195 0.126378
v 0.557866 -0.374195 0.126378
v 0.451072 -0.476865 0.133029
v 0.451072 -0.476865 0.133029
v 0.184069 -0.418475 0.298017
v 0.184069 -0.418475 0.298017
v 0.214206 0.015525 0.298017
v 0.126289 -0.285955 0.298017
v 0.132152 -0.299439 0.298017
v 0.457160 -0.388912 0.209497
v 0.457160 -0.388912 0.209497
v 0.457160 -0.388912 0.209497
v 0.457160 -0.388912 0.209497
v 0.457160 -0.388912 0.209497
v 0.339416 -0.265405 0.298017
v 0.339416 -0.265405 0.298017
v 0.526335 -0.047656 0.298017
v 0.526335 -0.047656 0.298017
v 0.526335 -0.047656 0.298017
vn 0.7569 0.5921 -0.2766
vn 0.7567 0.5929 -0.2754
vn 0.7802 -0.2605 -0.5688
vn 0.7531 0.5944 -0.2819
vn 0.3011 -0.3625 -0.8820
vn 0.2129 0.9383 0.2726
vn -0.2202 0.5977 -0.7709
vn 0.2120 0.9390 0.2709
vn -0.6109 -0.7916 -0.0107
vn -0.6077 -0.7940 -0.0177
vn 0.2941 -0.3632 -0.8841
vn 0.2927 -0.3619 -0.8851
vn -0.2210 0.5967 -0.7714
vn -0.9574 0.2880 0.0206
vn -0.9596 0.2798 0.0299
vn -0.2331 0.5961 -0.7683
vn -0.9120 -0.3966 -0.1047
vn 0.5748 -0.5592 0.5974
vn 0.5865 -0.5237 0.6179
vn 0.5486 -0.5699 0.6118
vn -0.9115 -0.3977 -0.1045
vn -0.0000 -0.0000 1.0000
vn 0.3308 -0.3358 0.8819
vn 0.3224 -0.3328 0.8862
vn 0.3194 -0.3318 0.8877
vn 0.3241 -0.3334 0.8853
vn 0.3356 -0.2997 0.8931
vn 0.3508 -0.3011 0.8867
vn 0.3627 -0.1752 0.9153
vn 0.5864 -0.5236 0.6181
vn -0.9112 -0.3984 -0.1048
vn -0.9114 -0.3975 -0.1063
vn -0.0000 0.0002 1.0000
vn 0.3628 -0.1752 0.9153
vt 0.431261 0.431261
vt 1.000000 0.000000
vt 0.927929 0.439442
vt 0.555329 0.000000
vt 0.427132 0.427132
vt 0.000000 0.000000
vt 1.000000 0.431261
vt 0.686729 0.000000
vt 1.000000 1.000000
vt 0.686729 0.686729
vt 0.762000 0.259246
vt 1.000000 0.444671
vt 1.000000 0.259180
vt 1.000000 0.293386
vt 0.417466 0.089609
vt 0.224681 0.000000
vt 0.325440 0.000000
vt 0.293386 0.293386
vt 0.846210 0.338756
vt 0.325440 0.325440
vt 1.000000 0.827763
vt 0.288368 0.288368
vt 0.827763 0.827763
vt 0.827058 0.000000
vt 1.000000 0.863602
vt 0.827058 0.827058
vt 1.000000 0.775319
vt 0.863602 0.863602
vt 0.701337 0.463176
vt 1.000000 0.427133
vt 0.664546 0.000000
vt 0.259180 0.259180
vt 0.288368 0.000000
vt 0.702982 0.224820
vt 1.000000 0.335454
vt 0.572161 0.335270
vt 0.865289 0.025521
s 0
f 36/1/1 6/2/1 32/3/1
f 38/4/2 37/5/2 6/6/2
f 36/7/3 39/8/3 1/2/3
f 6/2/4 1/9/4 4/6/4
f 39/10/5 4/2/5 1/9/5
f 6/9/6 42/11/6 38/12/6
f 6/9/7 4/6/7 7/2/7
f 7/6/8 41/13/8 6/9/8
f 45/14/9 48/15/9 49/16/9
f 2/6/10 50/17/10 45/18/10
f 4/2/11 51/19/11 50/20/11
f 3/2/12 4/9/12 2/6/12
f 7/2/13 4/9/13 3/6/13
f 7/6/14 57/21/14 44/22/14
f 57/23/15 5/6/15 58/24/15
f 5/2/16 7/9/16 3/6/16
f 5/6/17 59/25/17 58/26/17
s 1
f 52/6/18 60/6/18 54/6/18
f 35/6/19 27/6/19 16/6/19
f 62/6/20 21/6/20 25/6/20
s 0
f 49/27/21 59/28/21 3/6/21
s 1
f 43/6/22 29/6/22 56/6/22
f 24/6/23 66/6/24 30/6/23
f 63/6/25 23/6/26 22/6/25
f 13/6/27 68/6/27 64/6/27
f 9/6/28 10/6/28 8/6/28
f 69/6/29 11/6/29 15/6/29
s 0
f 32/3/1 34/29/1 36/1/1
f 36/1/1 1/6/1 6/2/1
f 6/2/1 37/30/1 32/3/1
f 39/10/5 40/31/5 4/2/5
f 6/9/6 41/32/6 42/11/6
f 7/6/8 44/33/8 41/13/8
f 49/16/9 2/2/9 45/14/9
f 45/14/9 46/34/9 48/15/9
f 50/20/11 2/6/11 4/2/11
f 4/2/11 40/35/11 51/19/11
f 51/19/11 53/36/11 50/20/11
f 7/6/14 5/2/14 57/21/14
f 5/6/17 3/2/17 59/25/17
s 1
f 16/6/19 14/6/19 35/6/19
f 35/6/19 61/6/19 27/6/19
f 27/6/19 17/6/30 16/6/19
f 25/6/20 26/6/20 62/6/20
f 62/6/20 47/6/20 21/6/20
s 0
f 3/6/31 2/2/31 49/27/31
f 49/27/32 55/37/32 59/28/32
s 1
f 65/6/22 67/6/22 43/6/22
f 43/6/22 18/6/33 20/6/22
f 20/6/22 28/6/22 29/6/22
f 29/6/22 31/6/22 56/6/22
f 56/6/22 65/6/22 43/6/22
f 43/6/22 20/6/22 29/6/22
f 24/6/23 23/6/26 66/6/24
f 63/6/25 66/6/24 23/6/26
f 13/6/27 33/6/27 68/6/27
f 15/6/29 19/6/34 69/6/29
f 69/6/29 12/6/29 11/6/29
