mtllib checkpoint_flag.mtl
o CheckpointFlag
usemtl Stone
v -0.72 0 -0.54
v 0.72 0 -0.54
v 0.72 0 0.54
v -0.72 0 0.54
v -0.72 0.16 -0.54
v 0.72 0.16 -0.54
v 0.72 0.16 0.54
v -0.72 0.16 0.54
f 1 3 2
f 1 4 3
f 5 6 7
f 5 7 8
f 1 2 6
f 1 6 5
f 2 3 7
f 2 7 6
f 3 4 8
f 3 8 7
f 4 1 5
f 4 5 8
usemtl Gold
v -0.52 0.16 -0.34
v 0.52 0.16 -0.34
v 0.52 0.16 0.34
v -0.52 0.16 0.34
v -0.52 0.23 -0.34
v 0.52 0.23 -0.34
v 0.52 0.23 0.34
v -0.52 0.23 0.34
f 9 11 10
f 9 12 11
f 13 14 15
f 13 15 16
f 9 10 14
f 9 14 13
f 10 11 15
f 10 15 14
f 11 12 16
f 11 16 15
f 12 9 13
f 12 13 16
usemtl Pole
v -0.09 0.23 -0.09
v 0.09 0.23 -0.09
v 0.09 0.23 0.09
v -0.09 0.23 0.09
v -0.09 2.42 -0.09
v 0.09 2.42 -0.09
v 0.09 2.42 0.09
v -0.09 2.42 0.09
f 17 19 18
f 17 20 19
f 21 22 23
f 21 23 24
f 17 18 22
f 17 22 21
f 18 19 23
f 18 23 22
f 19 20 24
f 19 24 23
f 20 17 21
f 20 21 24
usemtl Gold
v -0.25 2.42 -0.25
v 0.25 2.42 -0.25
v 0.25 2.42 0.25
v -0.25 2.42 0.25
v 0.0 2.72 0.0
f 25 26 29
f 26 27 29
f 27 28 29
f 28 25 29
usemtl FlagCloth
v 0.10 2.25 0.045
v 0.55 2.19 0.095
v 1.00 2.12 0.020
v 1.42 2.04 0.090
v 0.10 1.55 0.045
v 0.55 1.51 0.095
v 1.00 1.44 0.020
v 1.42 1.35 0.090
v 0.10 2.25 -0.045
v 0.55 2.19 -0.095
v 1.00 2.12 -0.020
v 1.42 2.04 -0.090
v 0.10 1.55 -0.045
v 0.55 1.51 -0.095
v 1.00 1.44 -0.020
v 1.42 1.35 -0.090
f 30 31 35
f 30 35 34
f 31 32 36
f 31 36 35
f 32 33 37
f 32 37 36
f 38 43 39
f 38 42 43
f 39 44 40
f 39 43 44
f 40 45 41
f 40 44 45
