# Blender 4.4.1
# www.blender.org
mtllib map_tutorial_12.mtl
o 柱.002
v 38.870037 28.264866 30.166458
v 38.870037 61.201782 30.168682
v 38.577141 28.264866 29.459347
v 38.577141 61.201782 29.461578
v 38.870037 61.201782 28.754467
v 38.870037 28.264866 28.752239
v 39.577141 61.201782 28.461575
v 39.577141 28.264866 28.459347
v 40.284248 61.201782 28.754467
v 40.284248 28.264866 28.752239
v -10.556252 29.469479 -28.642723
v -11.796642 29.469479 -29.253136
v -10.556252 40.780190 -28.642723
v -10.556252 41.873917 -29.253136
v -11.796642 40.780190 -29.253136
v -11.796642 29.469479 -35.584480
v -10.556252 29.469479 -35.710697
v -10.556252 41.873917 -35.352455
v -10.556252 40.780190 -35.969585
v -11.796642 40.780190 -35.352455
v 11.802547 29.469479 -29.253136
v 10.562158 29.469479 -28.642723
v 10.562158 41.873917 -29.253136
v 10.562158 40.780190 -28.642723
v 11.802547 40.780190 -29.253136
v 10.562158 29.469479 -35.969585
v 11.802547 29.469479 -35.352459
v 10.562158 41.873917 -35.352459
v 11.802547 40.780190 -35.352459
v 10.562158 40.780190 -35.969585
v -8.075473 38.817207 -35.352455
v -9.315863 37.992573 -35.352455
v -9.315863 29.469479 -35.352455
v 9.321768 29.469479 -35.352459
v 9.321768 37.992573 -35.352459
v 8.081378 38.817207 -35.352459
v 9.321768 37.992573 -29.253136
v 8.081378 38.817207 -29.253136
v -9.315863 29.469479 -29.253136
v 9.321768 29.469479 -29.253136
v -9.315863 37.992573 -29.253136
v -8.075473 38.817207 -29.253136
v 39.577141 28.264866 -28.334669
v 38.870037 28.264866 -28.627563
v 39.583195 61.201782 -28.332439
v 40.284248 28.264866 -28.627563
v 38.876091 61.201782 -28.625334
v 40.290302 61.201782 -28.625334
v 38.583195 61.201782 -29.332439
v 38.577141 28.264866 -29.334669
v 38.876091 61.201782 -30.039547
v 38.870037 28.264866 -30.041777
v -40.284199 28.264866 28.752239
v -40.284199 61.201782 28.754467
v -39.577095 28.264866 28.459347
v -39.577095 61.201782 28.461575
v -38.869987 61.201782 28.754467
v -38.869987 28.264866 28.752239
v -38.577095 28.264866 29.459347
v -38.577095 61.201782 29.461578
v -38.869987 28.264866 30.166458
v -38.869987 61.201782 30.168682
v -39.577095 28.264866 -28.334669
v -40.284199 28.264866 -28.627563
v -39.571041 61.201782 -28.332439
v -38.869987 28.264866 -28.627563
v -40.278145 61.201782 -28.625334
v -38.863934 61.201782 -28.625334
v -38.571041 61.201782 -29.332439
v -38.863934 61.201782 -30.039547
v -38.577095 28.264866 -29.334669
v -38.869987 28.264866 -30.041777
vn -0.9239 -0.0000 0.3827
vn -0.9239 -0.0000 -0.3827
vn -0.3827 0.0001 -0.9239
vn 0.3827 0.0001 -0.9239
vn 1.0000 -0.0000 -0.0000
vn -0.0000 -1.0000 -0.0000
vn -0.0000 1.0000 -0.0000
vn -1.0000 -0.0000 -0.0000
vn -0.3948 0.4478 0.8023
vn -0.3976 0.4509 -0.7991
vn 0.3948 0.4478 0.8023
vn 0.3976 0.4509 -0.7991
vn 0.1113 -0.1674 -0.9796
vn -0.1113 -0.1674 -0.9796
vn -0.1101 -0.1656 0.9800
vn 0.1101 -0.1656 0.9800
vn -0.4415 -0.0000 0.8972
vn -0.6614 0.7501 -0.0000
vn -0.1012 0.0204 -0.9947
vn -0.0000 0.4914 -0.8709
vn 0.4454 -0.0000 -0.8953
vn -0.4454 -0.0000 -0.8953
vn -0.0000 -0.2999 -0.9540
vn 0.4073 -0.0209 -0.9131
vn 0.6614 0.7501 -0.0000
vn 0.4415 -0.0000 0.8972
vn -0.0000 0.4873 0.8732
vn -0.0000 -0.2969 0.9549
vn 0.5536 -0.8328 -0.0000
vn -0.5536 -0.8328 -0.0000
vn -0.4454 -0.0205 -0.8951
vn 0.2775 -0.0000 -0.9607
vn -0.3827 -0.0000 0.9239
vn 0.3827 -0.0001 0.9239
vn -0.9239 0.0001 0.3827
vn -0.9239 0.0002 -0.3827
vn 0.9239 -0.0000 -0.3827
vn 0.9239 -0.0000 0.3827
vn 0.9239 -0.0002 0.3827
vn 0.9239 -0.0001 -0.3827
vt 0.875000 0.500000
vt 0.875000 1.000000
vt 0.750000 1.000000
vt 0.750000 0.500000
vt 0.625000 1.000000
vt 0.625000 0.500000
vt 0.500000 1.000000
vt 0.375000 0.500000
vt 0.500000 0.500000
vt 0.375000 1.000000
vt 0.608380 0.513140
vt 0.375000 0.736860
vt 0.375000 0.513140
vt 0.641638 0.584093
vt 0.858362 0.665908
vt 0.858362 0.584093
vt 0.861860 0.513140
vt 0.638140 0.736860
vt 0.638140 0.513140
vt 0.603784 0.584093
vt 0.384500 0.665908
vt 0.603784 0.665908
vt 0.603784 0.165907
vt 0.384500 0.084092
vt 0.384500 0.165908
vt 0.608380 0.000000
vt 0.625000 0.013140
vt 0.608380 0.013140
vt 0.625000 0.236860
vt 0.608380 0.250000
vt 0.608380 0.236860
vt 0.625000 0.763140
vt 0.609309 0.762651
vt 0.608380 0.750000
vt 0.625000 0.486860
vt 0.608380 0.500000
vt 0.609309 0.487349
vt 0.625000 0.165907
vt 0.625000 0.170713
vt 0.558535 0.480755
vt 0.576293 0.466678
vt 0.582279 0.488190
vt 0.558535 0.769245
vt 0.582279 0.761810
vt 0.576293 0.783322
vt 0.603784 0.084092
vt 0.625000 0.084092
vt 0.625000 0.079287
vt 0.375000 0.013140
vt 0.375000 0.000000
vt 0.375000 0.259623
vt 0.375000 0.236860
vt 0.609309 0.262651
vt 0.625000 0.263140
vt 0.375000 0.490377
vt 0.375000 0.480755
vt 0.576293 0.283322
vt 0.582278 0.261810
vt 0.384500 0.170713
vt 0.608380 0.736860
vt 0.375000 0.759623
vt 0.625000 0.986860
vt 0.609309 0.987349
vt 0.384500 0.079287
vt 0.582279 0.988190
vt 0.641638 0.665908
vt 0.861860 0.736860
vt 0.384500 0.584092
vt 0.375000 0.769245
vt 0.576293 0.966678
vt 1.000000 0.500000
vt 0.125000 1.000000
vt 0.000000 1.000000
vt 0.000000 0.500000
vt 1.000000 1.000000
vt 0.125000 0.500000
vt 0.250000 0.500000
vt 0.250000 1.000000
s 0
f 1/1/1 2/2/1 4/3/1
f 1/1/1 4/3/1 3/4/1
f 3/4/2 4/3/2 5/5/2
f 6/6/3 5/5/3 7/7/3
f 3/4/2 5/5/2 6/6/2
f 7/7/4 10/8/4 8/9/4
f 6/6/3 7/7/3 8/9/3
f 7/7/4 9/10/4 10/8/4
f 29/11/5 21/12/5 27/13/5
f 36/14/6 42/15/6 31/16/6
f 18/17/7 23/18/7 28/19/7
f 35/20/8 40/21/8 37/22/8
f 32/23/5 39/24/5 33/25/5
f 13/26/9 14/27/9 15/28/9
f 18/29/10 19/30/10 20/31/10
f 23/32/11 24/33/11 25/34/11
f 28/35/12 29/36/12 30/37/12
f 31/38/13 32/23/13 19/39/13
f 35/40/14 36/41/14 30/42/14
f 37/43/15 24/44/15 38/45/15
f 41/46/16 42/47/16 13/48/16
f 13/26/17 12/49/17 11/50/17
f 18/29/18 15/28/18 14/27/18
f 20/31/19 17/51/19 16/52/19
f 28/35/20 19/53/20 18/54/20
f 30/37/21 27/13/21 26/55/21
f 35/40/22 26/55/22 34/56/22
f 30/42/23 31/57/23 19/58/23
f 32/23/24 17/59/24 19/39/24
f 29/11/25 23/18/25 25/60/25
f 25/60/26 22/61/26 21/12/26
f 37/43/17 22/61/17 24/44/17
f 24/33/27 14/62/27 13/63/27
f 41/46/26 11/64/26 39/24/26
f 13/65/28 38/45/28 24/44/28
f 42/47/29 32/23/29 31/38/29
f 37/22/30 36/14/30 35/20/30
f 12/49/8 20/31/8 16/52/8
f 29/11/5 25/60/5 21/12/5
f 36/14/6 38/66/6 42/15/6
f 18/17/7 14/67/7 23/18/7
f 35/20/8 34/68/8 40/21/8
f 32/23/5 41/46/5 39/24/5
f 13/26/17 15/28/17 12/49/17
f 18/29/18 20/31/18 15/28/18
f 20/31/31 19/53/31 17/51/31
f 28/35/20 30/37/20 19/53/20
f 30/37/21 29/11/21 27/13/21
f 35/40/22 30/42/22 26/55/22
f 30/42/23 36/41/23 31/57/23
f 32/23/32 33/25/32 17/59/32
f 29/11/25 28/19/25 23/18/25
f 25/60/26 24/33/26 22/61/26
f 37/43/17 40/69/17 22/61/17
f 24/33/27 23/32/27 14/62/27
f 41/46/26 13/48/26 11/64/26
f 13/65/28 42/70/28 38/45/28
f 42/47/29 41/46/29 32/23/29
f 37/22/30 38/66/30 36/14/30
f 12/49/8 15/28/8 20/31/8
f 43/71/33 47/2/33 44/1/33
f 48/72/34 45/73/34 43/74/34
f 43/71/33 45/75/33 47/2/33
f 48/72/34 43/74/34 46/76/34
f 44/1/35 47/2/35 49/3/35
f 50/4/36 49/3/36 51/5/36
f 44/1/35 49/3/35 50/4/35
f 50/4/36 51/5/36 52/6/36
f 53/6/3 54/5/3 56/7/3
f 53/6/3 56/7/3 55/9/3
f 56/7/4 58/8/4 55/9/4
f 56/7/4 57/10/4 58/8/4
f 57/10/37 59/77/37 58/8/37
f 57/10/37 60/78/37 59/77/37
f 60/78/38 61/76/38 59/77/38
f 60/78/38 62/72/38 61/76/38
f 63/71/33 67/2/33 64/1/33
f 68/72/34 65/73/34 63/74/34
f 63/71/33 65/75/33 67/2/33
f 68/72/34 63/74/34 66/76/34
f 69/78/39 68/72/39 66/76/39
f 70/10/40 69/78/40 71/77/40
f 69/78/39 66/76/39 71/77/39
f 70/10/40 71/77/40 72/8/40
