# CG2 Stage 3 High Crown
mtllib high_crown.mtl
o high_crown_gate
v -6.0700000 0.0000000 0.3800000
v -5.6300000 0.0000000 0.3800000
v -5.6300000 7.1600000 0.3800000
v -6.0700000 7.1600000 0.3800000
v -5.6300000 0.0000000 -0.3800000
v -6.0700000 0.0000000 -0.3800000
v -6.0700000 7.1600000 -0.3800000
v -5.6300000 7.1600000 -0.3800000
v -5.6300000 0.0000000 0.3800000
v -5.6300000 0.0000000 -0.3800000
v -5.6300000 7.1600000 -0.3800000
v -5.6300000 7.1600000 0.3800000
v -6.0700000 0.0000000 -0.3800000
v -6.0700000 0.0000000 0.3800000
v -6.0700000 7.1600000 0.3800000
v -6.0700000 7.1600000 -0.3800000
v -6.0700000 7.1600000 0.3800000
v -5.6300000 7.1600000 0.3800000
v -5.6300000 7.1600000 -0.3800000
v -6.0700000 7.1600000 -0.3800000
v -6.0700000 0.0000000 -0.3800000
v -5.6300000 0.0000000 -0.3800000
v -5.6300000 0.0000000 0.3800000
v -6.0700000 0.0000000 0.3800000
v -5.8500000 7.0216000 0.0000000
v -5.8500000 8.0416000 0.0000000
v -5.4700000 7.4500000 0.0000000
v -5.8500000 7.4500000 0.3800000
v -6.2300000 7.4500000 0.0000000
v -5.8500000 7.4500000 -0.3800000
v -4.6100000 0.0000000 0.3800000
v -4.1700000 0.0000000 0.3800000
v -4.1700000 7.1600000 0.3800000
v -4.6100000 7.1600000 0.3800000
v -4.1700000 0.0000000 -0.3800000
v -4.6100000 0.0000000 -0.3800000
v -4.6100000 7.1600000 -0.3800000
v -4.1700000 7.1600000 -0.3800000
v -4.1700000 0.0000000 0.3800000
v -4.1700000 0.0000000 -0.3800000
v -4.1700000 7.1600000 -0.3800000
v -4.1700000 7.1600000 0.3800000
v -4.6100000 0.0000000 -0.3800000
v -4.6100000 0.0000000 0.3800000
v -4.6100000 7.1600000 0.3800000
v -4.6100000 7.1600000 -0.3800000
v -4.6100000 7.1600000 0.3800000
v -4.1700000 7.1600000 0.3800000
v -4.1700000 7.1600000 -0.3800000
v -4.6100000 7.1600000 -0.3800000
v -4.6100000 0.0000000 -0.3800000
v -4.1700000 0.0000000 -0.3800000
v -4.1700000 0.0000000 0.3800000
v -4.6100000 0.0000000 0.3800000
v -4.3900000 7.0216000 0.0000000
v -4.3900000 8.0416000 0.0000000
v -4.0100000 7.4500000 0.0000000
v -4.3900000 7.4500000 0.3800000
v -4.7700000 7.4500000 0.0000000
v -4.3900000 7.4500000 -0.3800000
v -3.1500000 0.0000000 0.3800000
v -2.7100000 0.0000000 0.3800000
v -2.7100000 7.1600000 0.3800000
v -3.1500000 7.1600000 0.3800000
v -2.7100000 0.0000000 -0.3800000
v -3.1500000 0.0000000 -0.3800000
v -3.1500000 7.1600000 -0.3800000
v -2.7100000 7.1600000 -0.3800000
v -2.7100000 0.0000000 0.3800000
v -2.7100000 0.0000000 -0.3800000
v -2.7100000 7.1600000 -0.3800000
v -2.7100000 7.1600000 0.3800000
v -3.1500000 0.0000000 -0.3800000
v -3.1500000 0.0000000 0.3800000
v -3.1500000 7.1600000 0.3800000
v -3.1500000 7.1600000 -0.3800000
v -3.1500000 7.1600000 0.3800000
v -2.7100000 7.1600000 0.3800000
v -2.7100000 7.1600000 -0.3800000
v -3.1500000 7.1600000 -0.3800000
v -3.1500000 0.0000000 -0.3800000
v -2.7100000 0.0000000 -0.3800000
v -2.7100000 0.0000000 0.3800000
v -3.1500000 0.0000000 0.3800000
v -2.9300000 7.0216000 0.0000000
v -2.9300000 8.0416000 0.0000000
v -2.5500000 7.4500000 0.0000000
v -2.9300000 7.4500000 0.3800000
v -3.3100000 7.4500000 0.0000000
v -2.9300000 7.4500000 -0.3800000
v -1.6800000 0.0000000 0.3800000
v -1.2400000 0.0000000 0.3800000
v -1.2400000 7.1600000 0.3800000
v -1.6800000 7.1600000 0.3800000
v -1.2400000 0.0000000 -0.3800000
v -1.6800000 0.0000000 -0.3800000
v -1.6800000 7.1600000 -0.3800000
v -1.2400000 7.1600000 -0.3800000
v -1.2400000 0.0000000 0.3800000
v -1.2400000 0.0000000 -0.3800000
v -1.2400000 7.1600000 -0.3800000
v -1.2400000 7.1600000 0.3800000
v -1.6800000 0.0000000 -0.3800000
v -1.6800000 0.0000000 0.3800000
v -1.6800000 7.1600000 0.3800000
v -1.6800000 7.1600000 -0.3800000
v -1.6800000 7.1600000 0.3800000
v -1.2400000 7.1600000 0.3800000
v -1.2400000 7.1600000 -0.3800000
v -1.6800000 7.1600000 -0.3800000
v -1.6800000 0.0000000 -0.3800000
v -1.2400000 0.0000000 -0.3800000
v -1.2400000 0.0000000 0.3800000
v -1.6800000 0.0000000 0.3800000
v -1.4600000 7.0216000 0.0000000
v -1.4600000 8.0416000 0.0000000
v -1.0800000 7.4500000 0.0000000
v -1.4600000 7.4500000 0.3800000
v -1.8400000 7.4500000 0.0000000
v -1.4600000 7.4500000 -0.3800000
v -0.2200000 0.0000000 0.3800000
v 0.2200000 0.0000000 0.3800000
v 0.2200000 7.1600000 0.3800000
v -0.2200000 7.1600000 0.3800000
v 0.2200000 0.0000000 -0.3800000
v -0.2200000 0.0000000 -0.3800000
v -0.2200000 7.1600000 -0.3800000
v 0.2200000 7.1600000 -0.3800000
v 0.2200000 0.0000000 0.3800000
v 0.2200000 0.0000000 -0.3800000
v 0.2200000 7.1600000 -0.3800000
v 0.2200000 7.1600000 0.3800000
v -0.2200000 0.0000000 -0.3800000
v -0.2200000 0.0000000 0.3800000
v -0.2200000 7.1600000 0.3800000
v -0.2200000 7.1600000 -0.3800000
v -0.2200000 7.1600000 0.3800000
v 0.2200000 7.1600000 0.3800000
v 0.2200000 7.1600000 -0.3800000
v -0.2200000 7.1600000 -0.3800000
v -0.2200000 0.0000000 -0.3800000
v 0.2200000 0.0000000 -0.3800000
v 0.2200000 0.0000000 0.3800000
v -0.2200000 0.0000000 0.3800000
v 0.0000000 7.4216000 0.0000000
v 0.0000000 8.4416000 0.0000000
v 0.3800000 7.8500000 0.0000000
v 0.0000000 7.8500000 0.3800000
v -0.3800000 7.8500000 0.0000000
v -0.0000000 7.8500000 -0.3800000
v 1.2400000 0.0000000 0.3800000
v 1.6800000 0.0000000 0.3800000
v 1.6800000 7.1600000 0.3800000
v 1.2400000 7.1600000 0.3800000
v 1.6800000 0.0000000 -0.3800000
v 1.2400000 0.0000000 -0.3800000
v 1.2400000 7.1600000 -0.3800000
v 1.6800000 7.1600000 -0.3800000
v 1.6800000 0.0000000 0.3800000
v 1.6800000 0.0000000 -0.3800000
v 1.6800000 7.1600000 -0.3800000
v 1.6800000 7.1600000 0.3800000
v 1.2400000 0.0000000 -0.3800000
v 1.2400000 0.0000000 0.3800000
v 1.2400000 7.1600000 0.3800000
v 1.2400000 7.1600000 -0.3800000
v 1.2400000 7.1600000 0.3800000
v 1.6800000 7.1600000 0.3800000
v 1.6800000 7.1600000 -0.3800000
v 1.2400000 7.1600000 -0.3800000
v 1.2400000 0.0000000 -0.3800000
v 1.6800000 0.0000000 -0.3800000
v 1.6800000 0.0000000 0.3800000
v 1.2400000 0.0000000 0.3800000
v 1.4600000 7.0216000 0.0000000
v 1.4600000 8.0416000 0.0000000
v 1.8400000 7.4500000 0.0000000
v 1.4600000 7.4500000 0.3800000
v 1.0800000 7.4500000 0.0000000
v 1.4600000 7.4500000 -0.3800000
v 2.7100000 0.0000000 0.3800000
v 3.1500000 0.0000000 0.3800000
v 3.1500000 7.1600000 0.3800000
v 2.7100000 7.1600000 0.3800000
v 3.1500000 0.0000000 -0.3800000
v 2.7100000 0.0000000 -0.3800000
v 2.7100000 7.1600000 -0.3800000
v 3.1500000 7.1600000 -0.3800000
v 3.1500000 0.0000000 0.3800000
v 3.1500000 0.0000000 -0.3800000
v 3.1500000 7.1600000 -0.3800000
v 3.1500000 7.1600000 0.3800000
v 2.7100000 0.0000000 -0.3800000
v 2.7100000 0.0000000 0.3800000
v 2.7100000 7.1600000 0.3800000
v 2.7100000 7.1600000 -0.3800000
v 2.7100000 7.1600000 0.3800000
v 3.1500000 7.1600000 0.3800000
v 3.1500000 7.1600000 -0.3800000
v 2.7100000 7.1600000 -0.3800000
v 2.7100000 0.0000000 -0.3800000
v 3.1500000 0.0000000 -0.3800000
v 3.1500000 0.0000000 0.3800000
v 2.7100000 0.0000000 0.3800000
v 2.9300000 7.0216000 0.0000000
v 2.9300000 8.0416000 0.0000000
v 3.3100000 7.4500000 0.0000000
v 2.9300000 7.4500000 0.3800000
v 2.5500000 7.4500000 0.0000000
v 2.9300000 7.4500000 -0.3800000
v 4.1700000 0.0000000 0.3800000
v 4.6100000 0.0000000 0.3800000
v 4.6100000 7.1600000 0.3800000
v 4.1700000 7.1600000 0.3800000
v 4.6100000 0.0000000 -0.3800000
v 4.1700000 0.0000000 -0.3800000
v 4.1700000 7.1600000 -0.3800000
v 4.6100000 7.1600000 -0.3800000
v 4.6100000 0.0000000 0.3800000
v 4.6100000 0.0000000 -0.3800000
v 4.6100000 7.1600000 -0.3800000
v 4.6100000 7.1600000 0.3800000
v 4.1700000 0.0000000 -0.3800000
v 4.1700000 0.0000000 0.3800000
v 4.1700000 7.1600000 0.3800000
v 4.1700000 7.1600000 -0.3800000
v 4.1700000 7.1600000 0.3800000
v 4.6100000 7.1600000 0.3800000
v 4.6100000 7.1600000 -0.3800000
v 4.1700000 7.1600000 -0.3800000
v 4.1700000 0.0000000 -0.3800000
v 4.6100000 0.0000000 -0.3800000
v 4.6100000 0.0000000 0.3800000
v 4.1700000 0.0000000 0.3800000
v 4.3900000 7.0216000 0.0000000
v 4.3900000 8.0416000 0.0000000
v 4.7700000 7.4500000 0.0000000
v 4.3900000 7.4500000 0.3800000
v 4.0100000 7.4500000 0.0000000
v 4.3900000 7.4500000 -0.3800000
v 5.6300000 0.0000000 0.3800000
v 6.0700000 0.0000000 0.3800000
v 6.0700000 7.1600000 0.3800000
v 5.6300000 7.1600000 0.3800000
v 6.0700000 0.0000000 -0.3800000
v 5.6300000 0.0000000 -0.3800000
v 5.6300000 7.1600000 -0.3800000
v 6.0700000 7.1600000 -0.3800000
v 6.0700000 0.0000000 0.3800000
v 6.0700000 0.0000000 -0.3800000
v 6.0700000 7.1600000 -0.3800000
v 6.0700000 7.1600000 0.3800000
v 5.6300000 0.0000000 -0.3800000
v 5.6300000 0.0000000 0.3800000
v 5.6300000 7.1600000 0.3800000
v 5.6300000 7.1600000 -0.3800000
v 5.6300000 7.1600000 0.3800000
v 6.0700000 7.1600000 0.3800000
v 6.0700000 7.1600000 -0.3800000
v 5.6300000 7.1600000 -0.3800000
v 5.6300000 0.0000000 -0.3800000
v 6.0700000 0.0000000 -0.3800000
v 6.0700000 0.0000000 0.3800000
v 5.6300000 0.0000000 0.3800000
v 5.8500000 7.0216000 0.0000000
v 5.8500000 8.0416000 0.0000000
v 6.2300000 7.4500000 0.0000000
v 5.8500000 7.4500000 0.3800000
v 5.4700000 7.4500000 0.0000000
v 5.8500000 7.4500000 -0.3800000
v -6.2500000 0.3400000 0.4200000
v 6.2500000 0.3400000 0.4200000
v 6.2500000 0.7000000 0.4200000
v -6.2500000 0.7000000 0.4200000
v 6.2500000 0.3400000 -0.4200000
v -6.2500000 0.3400000 -0.4200000
v -6.2500000 0.7000000 -0.4200000
v 6.2500000 0.7000000 -0.4200000
v 6.2500000 0.3400000 0.4200000
v 6.2500000 0.3400000 -0.4200000
v 6.2500000 0.7000000 -0.4200000
v 6.2500000 0.7000000 0.4200000
v -6.2500000 0.3400000 -0.4200000
v -6.2500000 0.3400000 0.4200000
v -6.2500000 0.7000000 0.4200000
v -6.2500000 0.7000000 -0.4200000
v -6.2500000 0.7000000 0.4200000
v 6.2500000 0.7000000 0.4200000
v 6.2500000 0.7000000 -0.4200000
v -6.2500000 0.7000000 -0.4200000
v -6.2500000 0.3400000 -0.4200000
v 6.2500000 0.3400000 -0.4200000
v 6.2500000 0.3400000 0.4200000
v -6.2500000 0.3400000 0.4200000
v -6.2500000 1.7400000 0.4200000
v 6.2500000 1.7400000 0.4200000
v 6.2500000 2.1000000 0.4200000
v -6.2500000 2.1000000 0.4200000
v 6.2500000 1.7400000 -0.4200000
v -6.2500000 1.7400000 -0.4200000
v -6.2500000 2.1000000 -0.4200000
v 6.2500000 2.1000000 -0.4200000
v 6.2500000 1.7400000 0.4200000
v 6.2500000 1.7400000 -0.4200000
v 6.2500000 2.1000000 -0.4200000
v 6.2500000 2.1000000 0.4200000
v -6.2500000 1.7400000 -0.4200000
v -6.2500000 1.7400000 0.4200000
v -6.2500000 2.1000000 0.4200000
v -6.2500000 2.1000000 -0.4200000
v -6.2500000 2.1000000 0.4200000
v 6.2500000 2.1000000 0.4200000
v 6.2500000 2.1000000 -0.4200000
v -6.2500000 2.1000000 -0.4200000
v -6.2500000 1.7400000 -0.4200000
v 6.2500000 1.7400000 -0.4200000
v 6.2500000 1.7400000 0.4200000
v -6.2500000 1.7400000 0.4200000
v -6.2500000 3.1400000 0.4200000
v 6.2500000 3.1400000 0.4200000
v 6.2500000 3.5000000 0.4200000
v -6.2500000 3.5000000 0.4200000
v 6.2500000 3.1400000 -0.4200000
v -6.2500000 3.1400000 -0.4200000
v -6.2500000 3.5000000 -0.4200000
v 6.2500000 3.5000000 -0.4200000
v 6.2500000 3.1400000 0.4200000
v 6.2500000 3.1400000 -0.4200000
v 6.2500000 3.5000000 -0.4200000
v 6.2500000 3.5000000 0.4200000
v -6.2500000 3.1400000 -0.4200000
v -6.2500000 3.1400000 0.4200000
v -6.2500000 3.5000000 0.4200000
v -6.2500000 3.5000000 -0.4200000
v -6.2500000 3.5000000 0.4200000
v 6.2500000 3.5000000 0.4200000
v 6.2500000 3.5000000 -0.4200000
v -6.2500000 3.5000000 -0.4200000
v -6.2500000 3.1400000 -0.4200000
v 6.2500000 3.1400000 -0.4200000
v 6.2500000 3.1400000 0.4200000
v -6.2500000 3.1400000 0.4200000
v -6.2500000 4.5400000 0.4200000
v 6.2500000 4.5400000 0.4200000
v 6.2500000 4.9000000 0.4200000
v -6.2500000 4.9000000 0.4200000
v 6.2500000 4.5400000 -0.4200000
v -6.2500000 4.5400000 -0.4200000
v -6.2500000 4.9000000 -0.4200000
v 6.2500000 4.9000000 -0.4200000
v 6.2500000 4.5400000 0.4200000
v 6.2500000 4.5400000 -0.4200000
v 6.2500000 4.9000000 -0.4200000
v 6.2500000 4.9000000 0.4200000
v -6.2500000 4.5400000 -0.4200000
v -6.2500000 4.5400000 0.4200000
v -6.2500000 4.9000000 0.4200000
v -6.2500000 4.9000000 -0.4200000
v -6.2500000 4.9000000 0.4200000
v 6.2500000 4.9000000 0.4200000
v 6.2500000 4.9000000 -0.4200000
v -6.2500000 4.9000000 -0.4200000
v -6.2500000 4.5400000 -0.4200000
v 6.2500000 4.5400000 -0.4200000
v 6.2500000 4.5400000 0.4200000
v -6.2500000 4.5400000 0.4200000
v -6.2500000 5.9400000 0.4200000
v 6.2500000 5.9400000 0.4200000
v 6.2500000 6.3000000 0.4200000
v -6.2500000 6.3000000 0.4200000
v 6.2500000 5.9400000 -0.4200000
v -6.2500000 5.9400000 -0.4200000
v -6.2500000 6.3000000 -0.4200000
v 6.2500000 6.3000000 -0.4200000
v 6.2500000 5.9400000 0.4200000
v 6.2500000 5.9400000 -0.4200000
v 6.2500000 6.3000000 -0.4200000
v 6.2500000 6.3000000 0.4200000
v -6.2500000 5.9400000 -0.4200000
v -6.2500000 5.9400000 0.4200000
v -6.2500000 6.3000000 0.4200000
v -6.2500000 6.3000000 -0.4200000
v -6.2500000 6.3000000 0.4200000
v 6.2500000 6.3000000 0.4200000
v 6.2500000 6.3000000 -0.4200000
v -6.2500000 6.3000000 -0.4200000
v -6.2500000 5.9400000 -0.4200000
v 6.2500000 5.9400000 -0.4200000
v 6.2500000 5.9400000 0.4200000
v -6.2500000 5.9400000 0.4200000
v -4.3900000 1.7604000 0.4200000
v -4.3900000 2.1404000 0.4200000
v -4.2300000 1.9200000 0.4200000
v -4.3900000 1.9200000 0.5800000
v -4.5500000 1.9200000 0.4200000
v -4.3900000 1.9200000 0.2600000
v -4.3900000 4.5604000 0.4200000
v -4.3900000 4.9404000 0.4200000
v -4.2300000 4.7200000 0.4200000
v -4.3900000 4.7200000 0.5800000
v -4.5500000 4.7200000 0.4200000
v -4.3900000 4.7200000 0.2600000
v -1.4600000 1.7604000 0.4200000
v -1.4600000 2.1404000 0.4200000
v -1.3000000 1.9200000 0.4200000
v -1.4600000 1.9200000 0.5800000
v -1.6200000 1.9200000 0.4200000
v -1.4600000 1.9200000 0.2600000
v -1.4600000 4.5604000 0.4200000
v -1.4600000 4.9404000 0.4200000
v -1.3000000 4.7200000 0.4200000
v -1.4600000 4.7200000 0.5800000
v -1.6200000 4.7200000 0.4200000
v -1.4600000 4.7200000 0.2600000
v 1.4600000 1.7604000 0.4200000
v 1.4600000 2.1404000 0.4200000
v 1.6200000 1.9200000 0.4200000
v 1.4600000 1.9200000 0.5800000
v 1.3000000 1.9200000 0.4200000
v 1.4600000 1.9200000 0.2600000
v 1.4600000 4.5604000 0.4200000
v 1.4600000 4.9404000 0.4200000
v 1.6200000 4.7200000 0.4200000
v 1.4600000 4.7200000 0.5800000
v 1.3000000 4.7200000 0.4200000
v 1.4600000 4.7200000 0.2600000
v 4.3900000 1.7604000 0.4200000
v 4.3900000 2.1404000 0.4200000
v 4.5500000 1.9200000 0.4200000
v 4.3900000 1.9200000 0.5800000
v 4.2300000 1.9200000 0.4200000
v 4.3900000 1.9200000 0.2600000
v 4.3900000 4.5604000 0.4200000
v 4.3900000 4.9404000 0.4200000
v 4.5500000 4.7200000 0.4200000
v 4.3900000 4.7200000 0.5800000
v 4.2300000 4.7200000 0.4200000
v 4.3900000 4.7200000 0.2600000
vt 0.0000000 1.0000000
vt 1.0000000 1.0000000
vt 1.0000000 0.0000000
vt 0.0000000 0.0000000
vt 0.0000000 1.0000000
vt 1.0000000 1.0000000
vt 1.0000000 0.0000000
vt 0.0000000 0.0000000
vt 0.0000000 1.0000000
vt 1.0000000 1.0000000
vt 1.0000000 0.0000000
vt 0.0000000 0.0000000
vt 0.0000000 1.0000000
vt 1.0000000 1.0000000
vt 1.0000000 0.0000000
vt 0.0000000 0.0000000
vt 0.0000000 1.0000000
vt 1.0000000 1.0000000
vt 1.0000000 0.0000000
vt 0.0000000 0.0000000
vt 0.0000000 1.0000000
vt 1.0000000 1.0000000
vt 1.0000000 0.0000000
vt 0.0000000 0.0000000
vt 0.5000000 1.0000000
vt 0.5000000 0.0000000
vt 0.0000000 0.5000000
vt 0.2500000 0.5000000
vt 0.5000000 0.5000000
vt 0.7500000 0.5000000
vt 0.0000000 1.0000000
vt 1.0000000 1.0000000
vt 1.0000000 0.0000000
vt 0.0000000 0.0000000
vt 0.0000000 1.0000000
vt 1.0000000 1.0000000
vt 1.0000000 0.0000000
vt 0.0000000 0.0000000
vt 0.0000000 1.0000000
vt 1.0000000 1.0000000
vt 1.0000000 0.0000000
vt 0.0000000 0.0000000
vt 0.0000000 1.0000000
vt 1.0000000 1.0000000
vt 1.0000000 0.0000000
vt 0.0000000 0.0000000
vt 0.0000000 1.0000000
vt 1.0000000 1.0000000
vt 1.0000000 0.0000000
vt 0.0000000 0.0000000
vt 0.0000000 1.0000000
vt 1.0000000 1.0000000
vt 1.0000000 0.0000000
vt 0.0000000 0.0000000
vt 0.5000000 1.0000000
vt 0.5000000 0.0000000
vt 0.0000000 0.5000000
vt 0.2500000 0.5000000
vt 0.5000000 0.5000000
vt 0.7500000 0.5000000
vt 0.0000000 1.0000000
vt 1.0000000 1.0000000
vt 1.0000000 0.0000000
vt 0.0000000 0.0000000
vt 0.0000000 1.0000000
vt 1.0000000 1.0000000
vt 1.0000000 0.0000000
vt 0.0000000 0.0000000
vt 0.0000000 1.0000000
vt 1.0000000 1.0000000
vt 1.0000000 0.0000000
vt 0.0000000 0.0000000
vt 0.0000000 1.0000000
vt 1.0000000 1.0000000
vt 1.0000000 0.0000000
vt 0.0000000 0.0000000
vt 0.0000000 1.0000000
vt 1.0000000 1.0000000
vt 1.0000000 0.0000000
vt 0.0000000 0.0000000
vt 0.0000000 1.0000000
vt 1.0000000 1.0000000
vt 1.0000000 0.0000000
vt 0.0000000 0.0000000
vt 0.5000000 1.0000000
vt 0.5000000 0.0000000
vt 0.0000000 0.5000000
vt 0.2500000 0.5000000
vt 0.5000000 0.5000000
vt 0.7500000 0.5000000
vt 0.0000000 1.0000000
vt 1.0000000 1.0000000
vt 1.0000000 0.0000000
vt 0.0000000 0.0000000
vt 0.0000000 1.0000000
vt 1.0000000 1.0000000
vt 1.0000000 0.0000000
vt 0.0000000 0.0000000
vt 0.0000000 1.0000000
vt 1.0000000 1.0000000
vt 1.0000000 0.0000000
vt 0.0000000 0.0000000
vt 0.0000000 1.0000000
vt 1.0000000 1.0000000
vt 1.0000000 0.0000000
vt 0.0000000 0.0000000
vt 0.0000000 1.0000000
vt 1.0000000 1.0000000
vt 1.0000000 0.0000000
vt 0.0000000 0.0000000
vt 0.0000000 1.0000000
vt 1.0000000 1.0000000
vt 1.0000000 0.0000000
vt 0.0000000 0.0000000
vt 0.5000000 1.0000000
vt 0.5000000 0.0000000
vt 0.0000000 0.5000000
vt 0.2500000 0.5000000
vt 0.5000000 0.5000000
vt 0.7500000 0.5000000
vt 0.0000000 1.0000000
vt 1.0000000 1.0000000
vt 1.0000000 0.0000000
vt 0.0000000 0.0000000
vt 0.0000000 1.0000000
vt 1.0000000 1.0000000
vt 1.0000000 0.0000000
vt 0.0000000 0.0000000
vt 0.0000000 1.0000000
vt 1.0000000 1.0000000
vt 1.0000000 0.0000000
vt 0.0000000 0.0000000
vt 0.0000000 1.0000000
vt 1.0000000 1.0000000
vt 1.0000000 0.0000000
vt 0.0000000 0.0000000
vt 0.0000000 1.0000000
vt 1.0000000 1.0000000
vt 1.0000000 0.0000000
vt 0.0000000 0.0000000
vt 0.0000000 1.0000000
vt 1.0000000 1.0000000
vt 1.0000000 0.0000000
vt 0.0000000 0.0000000
vt 0.5000000 1.0000000
vt 0.5000000 0.0000000
vt 0.0000000 0.5000000
vt 0.2500000 0.5000000
vt 0.5000000 0.5000000
vt 0.7500000 0.5000000
vt 0.0000000 1.0000000
vt 1.0000000 1.0000000
vt 1.0000000 0.0000000
vt 0.0000000 0.0000000
vt 0.0000000 1.0000000
vt 1.0000000 1.0000000
vt 1.0000000 0.0000000
vt 0.0000000 0.0000000
vt 0.0000000 1.0000000
vt 1.0000000 1.0000000
vt 1.0000000 0.0000000
vt 0.0000000 0.0000000
vt 0.0000000 1.0000000
vt 1.0000000 1.0000000
vt 1.0000000 0.0000000
vt 0.0000000 0.0000000
vt 0.0000000 1.0000000
vt 1.0000000 1.0000000
vt 1.0000000 0.0000000
vt 0.0000000 0.0000000
vt 0.0000000 1.0000000
vt 1.0000000 1.0000000
vt 1.0000000 0.0000000
vt 0.0000000 0.0000000
vt 0.5000000 1.0000000
vt 0.5000000 0.0000000
vt 0.0000000 0.5000000
vt 0.2500000 0.5000000
vt 0.5000000 0.5000000
vt 0.7500000 0.5000000
vt 0.0000000 1.0000000
vt 1.0000000 1.0000000
vt 1.0000000 0.0000000
vt 0.0000000 0.0000000
vt 0.0000000 1.0000000
vt 1.0000000 1.0000000
vt 1.0000000 0.0000000
vt 0.0000000 0.0000000
vt 0.0000000 1.0000000
vt 1.0000000 1.0000000
vt 1.0000000 0.0000000
vt 0.0000000 0.0000000
vt 0.0000000 1.0000000
vt 1.0000000 1.0000000
vt 1.0000000 0.0000000
vt 0.0000000 0.0000000
vt 0.0000000 1.0000000
vt 1.0000000 1.0000000
vt 1.0000000 0.0000000
vt 0.0000000 0.0000000
vt 0.0000000 1.0000000
vt 1.0000000 1.0000000
vt 1.0000000 0.0000000
vt 0.0000000 0.0000000
vt 0.5000000 1.0000000
vt 0.5000000 0.0000000
vt 0.0000000 0.5000000
vt 0.2500000 0.5000000
vt 0.5000000 0.5000000
vt 0.7500000 0.5000000
vt 0.0000000 1.0000000
vt 1.0000000 1.0000000
vt 1.0000000 0.0000000
vt 0.0000000 0.0000000
vt 0.0000000 1.0000000
vt 1.0000000 1.0000000
vt 1.0000000 0.0000000
vt 0.0000000 0.0000000
vt 0.0000000 1.0000000
vt 1.0000000 1.0000000
vt 1.0000000 0.0000000
vt 0.0000000 0.0000000
vt 0.0000000 1.0000000
vt 1.0000000 1.0000000
vt 1.0000000 0.0000000
vt 0.0000000 0.0000000
vt 0.0000000 1.0000000
vt 1.0000000 1.0000000
vt 1.0000000 0.0000000
vt 0.0000000 0.0000000
vt 0.0000000 1.0000000
vt 1.0000000 1.0000000
vt 1.0000000 0.0000000
vt 0.0000000 0.0000000
vt 0.5000000 1.0000000
vt 0.5000000 0.0000000
vt 0.0000000 0.5000000
vt 0.2500000 0.5000000
vt 0.5000000 0.5000000
vt 0.7500000 0.5000000
vt 0.0000000 1.0000000
vt 1.0000000 1.0000000
vt 1.0000000 0.0000000
vt 0.0000000 0.0000000
vt 0.0000000 1.0000000
vt 1.0000000 1.0000000
vt 1.0000000 0.0000000
vt 0.0000000 0.0000000
vt 0.0000000 1.0000000
vt 1.0000000 1.0000000
vt 1.0000000 0.0000000
vt 0.0000000 0.0000000
vt 0.0000000 1.0000000
vt 1.0000000 1.0000000
vt 1.0000000 0.0000000
vt 0.0000000 0.0000000
vt 0.0000000 1.0000000
vt 1.0000000 1.0000000
vt 1.0000000 0.0000000
vt 0.0000000 0.0000000
vt 0.0000000 1.0000000
vt 1.0000000 1.0000000
vt 1.0000000 0.0000000
vt 0.0000000 0.0000000
vt 0.5000000 1.0000000
vt 0.5000000 0.0000000
vt 0.0000000 0.5000000
vt 0.2500000 0.5000000
vt 0.5000000 0.5000000
vt 0.7500000 0.5000000
vt 0.0000000 1.0000000
vt 1.0000000 1.0000000
vt 1.0000000 0.0000000
vt 0.0000000 0.0000000
vt 0.0000000 1.0000000
vt 1.0000000 1.0000000
vt 1.0000000 0.0000000
vt 0.0000000 0.0000000
vt 0.0000000 1.0000000
vt 1.0000000 1.0000000
vt 1.0000000 0.0000000
vt 0.0000000 0.0000000
vt 0.0000000 1.0000000
vt 1.0000000 1.0000000
vt 1.0000000 0.0000000
vt 0.0000000 0.0000000
vt 0.0000000 1.0000000
vt 1.0000000 1.0000000
vt 1.0000000 0.0000000
vt 0.0000000 0.0000000
vt 0.0000000 1.0000000
vt 1.0000000 1.0000000
vt 1.0000000 0.0000000
vt 0.0000000 0.0000000
vt 0.0000000 1.0000000
vt 1.0000000 1.0000000
vt 1.0000000 0.0000000
vt 0.0000000 0.0000000
vt 0.0000000 1.0000000
vt 1.0000000 1.0000000
vt 1.0000000 0.0000000
vt 0.0000000 0.0000000
vt 0.0000000 1.0000000
vt 1.0000000 1.0000000
vt 1.0000000 0.0000000
vt 0.0000000 0.0000000
vt 0.0000000 1.0000000
vt 1.0000000 1.0000000
vt 1.0000000 0.0000000
vt 0.0000000 0.0000000
vt 0.0000000 1.0000000
vt 1.0000000 1.0000000
vt 1.0000000 0.0000000
vt 0.0000000 0.0000000
vt 0.0000000 1.0000000
vt 1.0000000 1.0000000
vt 1.0000000 0.0000000
vt 0.0000000 0.0000000
vt 0.0000000 1.0000000
vt 1.0000000 1.0000000
vt 1.0000000 0.0000000
vt 0.0000000 0.0000000
vt 0.0000000 1.0000000
vt 1.0000000 1.0000000
vt 1.0000000 0.0000000
vt 0.0000000 0.0000000
vt 0.0000000 1.0000000
vt 1.0000000 1.0000000
vt 1.0000000 0.0000000
vt 0.0000000 0.0000000
vt 0.0000000 1.0000000
vt 1.0000000 1.0000000
vt 1.0000000 0.0000000
vt 0.0000000 0.0000000
vt 0.0000000 1.0000000
vt 1.0000000 1.0000000
vt 1.0000000 0.0000000
vt 0.0000000 0.0000000
vt 0.0000000 1.0000000
vt 1.0000000 1.0000000
vt 1.0000000 0.0000000
vt 0.0000000 0.0000000
vt 0.0000000 1.0000000
vt 1.0000000 1.0000000
vt 1.0000000 0.0000000
vt 0.0000000 0.0000000
vt 0.0000000 1.0000000
vt 1.0000000 1.0000000
vt 1.0000000 0.0000000
vt 0.0000000 0.0000000
vt 0.0000000 1.0000000
vt 1.0000000 1.0000000
vt 1.0000000 0.0000000
vt 0.0000000 0.0000000
vt 0.0000000 1.0000000
vt 1.0000000 1.0000000
vt 1.0000000 0.0000000
vt 0.0000000 0.0000000
vt 0.0000000 1.0000000
vt 1.0000000 1.0000000
vt 1.0000000 0.0000000
vt 0.0000000 0.0000000
vt 0.0000000 1.0000000
vt 1.0000000 1.0000000
vt 1.0000000 0.0000000
vt 0.0000000 0.0000000
vt 0.0000000 1.0000000
vt 1.0000000 1.0000000
vt 1.0000000 0.0000000
vt 0.0000000 0.0000000
vt 0.0000000 1.0000000
vt 1.0000000 1.0000000
vt 1.0000000 0.0000000
vt 0.0000000 0.0000000
vt 0.0000000 1.0000000
vt 1.0000000 1.0000000
vt 1.0000000 0.0000000
vt 0.0000000 0.0000000
vt 0.0000000 1.0000000
vt 1.0000000 1.0000000
vt 1.0000000 0.0000000
vt 0.0000000 0.0000000
vt 0.0000000 1.0000000
vt 1.0000000 1.0000000
vt 1.0000000 0.0000000
vt 0.0000000 0.0000000
vt 0.0000000 1.0000000
vt 1.0000000 1.0000000
vt 1.0000000 0.0000000
vt 0.0000000 0.0000000
vt 0.5000000 1.0000000
vt 0.5000000 0.0000000
vt 0.0000000 0.5000000
vt 0.2500000 0.5000000
vt 0.5000000 0.5000000
vt 0.7500000 0.5000000
vt 0.5000000 1.0000000
vt 0.5000000 0.0000000
vt 0.0000000 0.5000000
vt 0.2500000 0.5000000
vt 0.5000000 0.5000000
vt 0.7500000 0.5000000
vt 0.5000000 1.0000000
vt 0.5000000 0.0000000
vt 0.0000000 0.5000000
vt 0.2500000 0.5000000
vt 0.5000000 0.5000000
vt 0.7500000 0.5000000
vt 0.5000000 1.0000000
vt 0.5000000 0.0000000
vt 0.0000000 0.5000000
vt 0.2500000 0.5000000
vt 0.5000000 0.5000000
vt 0.7500000 0.5000000
vt 0.5000000 1.0000000
vt 0.5000000 0.0000000
vt 0.0000000 0.5000000
vt 0.2500000 0.5000000
vt 0.5000000 0.5000000
vt 0.7500000 0.5000000
vt 0.5000000 1.0000000
vt 0.5000000 0.0000000
vt 0.0000000 0.5000000
vt 0.2500000 0.5000000
vt 0.5000000 0.5000000
vt 0.7500000 0.5000000
vt 0.5000000 1.0000000
vt 0.5000000 0.0000000
vt 0.0000000 0.5000000
vt 0.2500000 0.5000000
vt 0.5000000 0.5000000
vt 0.7500000 0.5000000
vt 0.5000000 1.0000000
vt 0.5000000 0.0000000
vt 0.0000000 0.5000000
vt 0.2500000 0.5000000
vt 0.5000000 0.5000000
vt 0.7500000 0.5000000
vn 0.0000000 0.0000000 1.0000000
vn 0.0000000 0.0000000 1.0000000
vn 0.0000000 0.0000000 1.0000000
vn 0.0000000 0.0000000 1.0000000
vn 0.0000000 0.0000000 -1.0000000
vn 0.0000000 0.0000000 -1.0000000
vn 0.0000000 0.0000000 -1.0000000
vn 0.0000000 0.0000000 -1.0000000
vn 1.0000000 0.0000000 0.0000000
vn 1.0000000 0.0000000 0.0000000
vn 1.0000000 0.0000000 0.0000000
vn 1.0000000 0.0000000 0.0000000
vn -1.0000000 0.0000000 0.0000000
vn -1.0000000 0.0000000 0.0000000
vn -1.0000000 0.0000000 0.0000000
vn -1.0000000 0.0000000 0.0000000
vn 0.0000000 1.0000000 0.0000000
vn 0.0000000 1.0000000 0.0000000
vn 0.0000000 1.0000000 0.0000000
vn 0.0000000 1.0000000 0.0000000
vn 0.0000000 -1.0000000 0.0000000
vn 0.0000000 -1.0000000 0.0000000
vn 0.0000000 -1.0000000 0.0000000
vn 0.0000000 -1.0000000 0.0000000
vn 0.0000000 -1.0000000 0.0000000
vn 0.0000000 1.0000000 0.0000000
vn 1.0000000 0.0000000 0.0000000
vn 0.0000000 0.0000000 1.0000000
vn -1.0000000 0.0000000 0.0000000
vn -0.0000000 0.0000000 -1.0000000
vn 0.0000000 0.0000000 1.0000000
vn 0.0000000 0.0000000 1.0000000
vn 0.0000000 0.0000000 1.0000000
vn 0.0000000 0.0000000 1.0000000
vn 0.0000000 0.0000000 -1.0000000
vn 0.0000000 0.0000000 -1.0000000
vn 0.0000000 0.0000000 -1.0000000
vn 0.0000000 0.0000000 -1.0000000
vn 1.0000000 0.0000000 0.0000000
vn 1.0000000 0.0000000 0.0000000
vn 1.0000000 0.0000000 0.0000000
vn 1.0000000 0.0000000 0.0000000
vn -1.0000000 0.0000000 0.0000000
vn -1.0000000 0.0000000 0.0000000
vn -1.0000000 0.0000000 0.0000000
vn -1.0000000 0.0000000 0.0000000
vn 0.0000000 1.0000000 0.0000000
vn 0.0000000 1.0000000 0.0000000
vn 0.0000000 1.0000000 0.0000000
vn 0.0000000 1.0000000 0.0000000
vn 0.0000000 -1.0000000 0.0000000
vn 0.0000000 -1.0000000 0.0000000
vn 0.0000000 -1.0000000 0.0000000
vn 0.0000000 -1.0000000 0.0000000
vn 0.0000000 -1.0000000 0.0000000
vn 0.0000000 1.0000000 0.0000000
vn 1.0000000 0.0000000 0.0000000
vn 0.0000000 0.0000000 1.0000000
vn -1.0000000 0.0000000 0.0000000
vn -0.0000000 0.0000000 -1.0000000
vn 0.0000000 0.0000000 1.0000000
vn 0.0000000 0.0000000 1.0000000
vn 0.0000000 0.0000000 1.0000000
vn 0.0000000 0.0000000 1.0000000
vn 0.0000000 0.0000000 -1.0000000
vn 0.0000000 0.0000000 -1.0000000
vn 0.0000000 0.0000000 -1.0000000
vn 0.0000000 0.0000000 -1.0000000
vn 1.0000000 0.0000000 0.0000000
vn 1.0000000 0.0000000 0.0000000
vn 1.0000000 0.0000000 0.0000000
vn 1.0000000 0.0000000 0.0000000
vn -1.0000000 0.0000000 0.0000000
vn -1.0000000 0.0000000 0.0000000
vn -1.0000000 0.0000000 0.0000000
vn -1.0000000 0.0000000 0.0000000
vn 0.0000000 1.0000000 0.0000000
vn 0.0000000 1.0000000 0.0000000
vn 0.0000000 1.0000000 0.0000000
vn 0.0000000 1.0000000 0.0000000
vn 0.0000000 -1.0000000 0.0000000
vn 0.0000000 -1.0000000 0.0000000
vn 0.0000000 -1.0000000 0.0000000
vn 0.0000000 -1.0000000 0.0000000
vn 0.0000000 -1.0000000 0.0000000
vn 0.0000000 1.0000000 0.0000000
vn 1.0000000 0.0000000 0.0000000
vn 0.0000000 0.0000000 1.0000000
vn -1.0000000 0.0000000 0.0000000
vn -0.0000000 0.0000000 -1.0000000
vn 0.0000000 0.0000000 1.0000000
vn 0.0000000 0.0000000 1.0000000
vn 0.0000000 0.0000000 1.0000000
vn 0.0000000 0.0000000 1.0000000
vn 0.0000000 0.0000000 -1.0000000
vn 0.0000000 0.0000000 -1.0000000
vn 0.0000000 0.0000000 -1.0000000
vn 0.0000000 0.0000000 -1.0000000
vn 1.0000000 0.0000000 0.0000000
vn 1.0000000 0.0000000 0.0000000
vn 1.0000000 0.0000000 0.0000000
vn 1.0000000 0.0000000 0.0000000
vn -1.0000000 0.0000000 0.0000000
vn -1.0000000 0.0000000 0.0000000
vn -1.0000000 0.0000000 0.0000000
vn -1.0000000 0.0000000 0.0000000
vn 0.0000000 1.0000000 0.0000000
vn 0.0000000 1.0000000 0.0000000
vn 0.0000000 1.0000000 0.0000000
vn 0.0000000 1.0000000 0.0000000
vn 0.0000000 -1.0000000 0.0000000
vn 0.0000000 -1.0000000 0.0000000
vn 0.0000000 -1.0000000 0.0000000
vn 0.0000000 -1.0000000 0.0000000
vn 0.0000000 -1.0000000 0.0000000
vn 0.0000000 1.0000000 0.0000000
vn 1.0000000 0.0000000 0.0000000
vn 0.0000000 0.0000000 1.0000000
vn -1.0000000 0.0000000 0.0000000
vn -0.0000000 0.0000000 -1.0000000
vn 0.0000000 0.0000000 1.0000000
vn 0.0000000 0.0000000 1.0000000
vn 0.0000000 0.0000000 1.0000000
vn 0.0000000 0.0000000 1.0000000
vn 0.0000000 0.0000000 -1.0000000
vn 0.0000000 0.0000000 -1.0000000
vn 0.0000000 0.0000000 -1.0000000
vn 0.0000000 0.0000000 -1.0000000
vn 1.0000000 0.0000000 0.0000000
vn 1.0000000 0.0000000 0.0000000
vn 1.0000000 0.0000000 0.0000000
vn 1.0000000 0.0000000 0.0000000
vn -1.0000000 0.0000000 0.0000000
vn -1.0000000 0.0000000 0.0000000
vn -1.0000000 0.0000000 0.0000000
vn -1.0000000 0.0000000 0.0000000
vn 0.0000000 1.0000000 0.0000000
vn 0.0000000 1.0000000 0.0000000
vn 0.0000000 1.0000000 0.0000000
vn 0.0000000 1.0000000 0.0000000
vn 0.0000000 -1.0000000 0.0000000
vn 0.0000000 -1.0000000 0.0000000
vn 0.0000000 -1.0000000 0.0000000
vn 0.0000000 -1.0000000 0.0000000
vn 0.0000000 -1.0000000 0.0000000
vn 0.0000000 1.0000000 0.0000000
vn 1.0000000 0.0000000 0.0000000
vn 0.0000000 0.0000000 1.0000000
vn -1.0000000 0.0000000 0.0000000
vn -0.0000000 0.0000000 -1.0000000
vn 0.0000000 0.0000000 1.0000000
vn 0.0000000 0.0000000 1.0000000
vn 0.0000000 0.0000000 1.0000000
vn 0.0000000 0.0000000 1.0000000
vn 0.0000000 0.0000000 -1.0000000
vn 0.0000000 0.0000000 -1.0000000
vn 0.0000000 0.0000000 -1.0000000
vn 0.0000000 0.0000000 -1.0000000
vn 1.0000000 0.0000000 0.0000000
vn 1.0000000 0.0000000 0.0000000
vn 1.0000000 0.0000000 0.0000000
vn 1.0000000 0.0000000 0.0000000
vn -1.0000000 0.0000000 0.0000000
vn -1.0000000 0.0000000 0.0000000
vn -1.0000000 0.0000000 0.0000000
vn -1.0000000 0.0000000 0.0000000
vn 0.0000000 1.0000000 0.0000000
vn 0.0000000 1.0000000 0.0000000
vn 0.0000000 1.0000000 0.0000000
vn 0.0000000 1.0000000 0.0000000
vn 0.0000000 -1.0000000 0.0000000
vn 0.0000000 -1.0000000 0.0000000
vn 0.0000000 -1.0000000 0.0000000
vn 0.0000000 -1.0000000 0.0000000
vn 0.0000000 -1.0000000 0.0000000
vn 0.0000000 1.0000000 0.0000000
vn 1.0000000 0.0000000 0.0000000
vn 0.0000000 0.0000000 1.0000000
vn -1.0000000 0.0000000 0.0000000
vn -0.0000000 0.0000000 -1.0000000
vn 0.0000000 0.0000000 1.0000000
vn 0.0000000 0.0000000 1.0000000
vn 0.0000000 0.0000000 1.0000000
vn 0.0000000 0.0000000 1.0000000
vn 0.0000000 0.0000000 -1.0000000
vn 0.0000000 0.0000000 -1.0000000
vn 0.0000000 0.0000000 -1.0000000
vn 0.0000000 0.0000000 -1.0000000
vn 1.0000000 0.0000000 0.0000000
vn 1.0000000 0.0000000 0.0000000
vn 1.0000000 0.0000000 0.0000000
vn 1.0000000 0.0000000 0.0000000
vn -1.0000000 0.0000000 0.0000000
vn -1.0000000 0.0000000 0.0000000
vn -1.0000000 0.0000000 0.0000000
vn -1.0000000 0.0000000 0.0000000
vn 0.0000000 1.0000000 0.0000000
vn 0.0000000 1.0000000 0.0000000
vn 0.0000000 1.0000000 0.0000000
vn 0.0000000 1.0000000 0.0000000
vn 0.0000000 -1.0000000 0.0000000
vn 0.0000000 -1.0000000 0.0000000
vn 0.0000000 -1.0000000 0.0000000
vn 0.0000000 -1.0000000 0.0000000
vn 0.0000000 -1.0000000 0.0000000
vn 0.0000000 1.0000000 0.0000000
vn 1.0000000 0.0000000 0.0000000
vn 0.0000000 0.0000000 1.0000000
vn -1.0000000 0.0000000 0.0000000
vn -0.0000000 0.0000000 -1.0000000
vn 0.0000000 0.0000000 1.0000000
vn 0.0000000 0.0000000 1.0000000
vn 0.0000000 0.0000000 1.0000000
vn 0.0000000 0.0000000 1.0000000
vn 0.0000000 0.0000000 -1.0000000
vn 0.0000000 0.0000000 -1.0000000
vn 0.0000000 0.0000000 -1.0000000
vn 0.0000000 0.0000000 -1.0000000
vn 1.0000000 0.0000000 0.0000000
vn 1.0000000 0.0000000 0.0000000
vn 1.0000000 0.0000000 0.0000000
vn 1.0000000 0.0000000 0.0000000
vn -1.0000000 0.0000000 0.0000000
vn -1.0000000 0.0000000 0.0000000
vn -1.0000000 0.0000000 0.0000000
vn -1.0000000 0.0000000 0.0000000
vn 0.0000000 1.0000000 0.0000000
vn 0.0000000 1.0000000 0.0000000
vn 0.0000000 1.0000000 0.0000000
vn 0.0000000 1.0000000 0.0000000
vn 0.0000000 -1.0000000 0.0000000
vn 0.0000000 -1.0000000 0.0000000
vn 0.0000000 -1.0000000 0.0000000
vn 0.0000000 -1.0000000 0.0000000
vn 0.0000000 -1.0000000 0.0000000
vn 0.0000000 1.0000000 0.0000000
vn 1.0000000 0.0000000 0.0000000
vn 0.0000000 0.0000000 1.0000000
vn -1.0000000 0.0000000 0.0000000
vn -0.0000000 0.0000000 -1.0000000
vn 0.0000000 0.0000000 1.0000000
vn 0.0000000 0.0000000 1.0000000
vn 0.0000000 0.0000000 1.0000000
vn 0.0000000 0.0000000 1.0000000
vn 0.0000000 0.0000000 -1.0000000
vn 0.0000000 0.0000000 -1.0000000
vn 0.0000000 0.0000000 -1.0000000
vn 0.0000000 0.0000000 -1.0000000
vn 1.0000000 0.0000000 0.0000000
vn 1.0000000 0.0000000 0.0000000
vn 1.0000000 0.0000000 0.0000000
vn 1.0000000 0.0000000 0.0000000
vn -1.0000000 0.0000000 0.0000000
vn -1.0000000 0.0000000 0.0000000
vn -1.0000000 0.0000000 0.0000000
vn -1.0000000 0.0000000 0.0000000
vn 0.0000000 1.0000000 0.0000000
vn 0.0000000 1.0000000 0.0000000
vn 0.0000000 1.0000000 0.0000000
vn 0.0000000 1.0000000 0.0000000
vn 0.0000000 -1.0000000 0.0000000
vn 0.0000000 -1.0000000 0.0000000
vn 0.0000000 -1.0000000 0.0000000
vn 0.0000000 -1.0000000 0.0000000
vn 0.0000000 -1.0000000 0.0000000
vn 0.0000000 1.0000000 0.0000000
vn 1.0000000 0.0000000 0.0000000
vn 0.0000000 0.0000000 1.0000000
vn -1.0000000 0.0000000 0.0000000
vn -0.0000000 0.0000000 -1.0000000
vn 0.0000000 0.0000000 1.0000000
vn 0.0000000 0.0000000 1.0000000
vn 0.0000000 0.0000000 1.0000000
vn 0.0000000 0.0000000 1.0000000
vn 0.0000000 0.0000000 -1.0000000
vn 0.0000000 0.0000000 -1.0000000
vn 0.0000000 0.0000000 -1.0000000
vn 0.0000000 0.0000000 -1.0000000
vn 1.0000000 0.0000000 0.0000000
vn 1.0000000 0.0000000 0.0000000
vn 1.0000000 0.0000000 0.0000000
vn 1.0000000 0.0000000 0.0000000
vn -1.0000000 0.0000000 0.0000000
vn -1.0000000 0.0000000 0.0000000
vn -1.0000000 0.0000000 0.0000000
vn -1.0000000 0.0000000 0.0000000
vn 0.0000000 1.0000000 0.0000000
vn 0.0000000 1.0000000 0.0000000
vn 0.0000000 1.0000000 0.0000000
vn 0.0000000 1.0000000 0.0000000
vn 0.0000000 -1.0000000 0.0000000
vn 0.0000000 -1.0000000 0.0000000
vn 0.0000000 -1.0000000 0.0000000
vn 0.0000000 -1.0000000 0.0000000
vn 0.0000000 0.0000000 1.0000000
vn 0.0000000 0.0000000 1.0000000
vn 0.0000000 0.0000000 1.0000000
vn 0.0000000 0.0000000 1.0000000
vn 0.0000000 0.0000000 -1.0000000
vn 0.0000000 0.0000000 -1.0000000
vn 0.0000000 0.0000000 -1.0000000
vn 0.0000000 0.0000000 -1.0000000
vn 1.0000000 0.0000000 0.0000000
vn 1.0000000 0.0000000 0.0000000
vn 1.0000000 0.0000000 0.0000000
vn 1.0000000 0.0000000 0.0000000
vn -1.0000000 0.0000000 0.0000000
vn -1.0000000 0.0000000 0.0000000
vn -1.0000000 0.0000000 0.0000000
vn -1.0000000 0.0000000 0.0000000
vn 0.0000000 1.0000000 0.0000000
vn 0.0000000 1.0000000 0.0000000
vn 0.0000000 1.0000000 0.0000000
vn 0.0000000 1.0000000 0.0000000
vn 0.0000000 -1.0000000 0.0000000
vn 0.0000000 -1.0000000 0.0000000
vn 0.0000000 -1.0000000 0.0000000
vn 0.0000000 -1.0000000 0.0000000
vn 0.0000000 0.0000000 1.0000000
vn 0.0000000 0.0000000 1.0000000
vn 0.0000000 0.0000000 1.0000000
vn 0.0000000 0.0000000 1.0000000
vn 0.0000000 0.0000000 -1.0000000
vn 0.0000000 0.0000000 -1.0000000
vn 0.0000000 0.0000000 -1.0000000
vn 0.0000000 0.0000000 -1.0000000
vn 1.0000000 0.0000000 0.0000000
vn 1.0000000 0.0000000 0.0000000
vn 1.0000000 0.0000000 0.0000000
vn 1.0000000 0.0000000 0.0000000
vn -1.0000000 0.0000000 0.0000000
vn -1.0000000 0.0000000 0.0000000
vn -1.0000000 0.0000000 0.0000000
vn -1.0000000 0.0000000 0.0000000
vn 0.0000000 1.0000000 0.0000000
vn 0.0000000 1.0000000 0.0000000
vn 0.0000000 1.0000000 0.0000000
vn 0.0000000 1.0000000 0.0000000
vn 0.0000000 -1.0000000 0.0000000
vn 0.0000000 -1.0000000 0.0000000
vn 0.0000000 -1.0000000 0.0000000
vn 0.0000000 -1.0000000 0.0000000
vn 0.0000000 0.0000000 1.0000000
vn 0.0000000 0.0000000 1.0000000
vn 0.0000000 0.0000000 1.0000000
vn 0.0000000 0.0000000 1.0000000
vn 0.0000000 0.0000000 -1.0000000
vn 0.0000000 0.0000000 -1.0000000
vn 0.0000000 0.0000000 -1.0000000
vn 0.0000000 0.0000000 -1.0000000
vn 1.0000000 0.0000000 0.0000000
vn 1.0000000 0.0000000 0.0000000
vn 1.0000000 0.0000000 0.0000000
vn 1.0000000 0.0000000 0.0000000
vn -1.0000000 0.0000000 0.0000000
vn -1.0000000 0.0000000 0.0000000
vn -1.0000000 0.0000000 0.0000000
vn -1.0000000 0.0000000 0.0000000
vn 0.0000000 1.0000000 0.0000000
vn 0.0000000 1.0000000 0.0000000
vn 0.0000000 1.0000000 0.0000000
vn 0.0000000 1.0000000 0.0000000
vn 0.0000000 -1.0000000 0.0000000
vn 0.0000000 -1.0000000 0.0000000
vn 0.0000000 -1.0000000 0.0000000
vn 0.0000000 -1.0000000 0.0000000
vn 0.0000000 0.0000000 1.0000000
vn 0.0000000 0.0000000 1.0000000
vn 0.0000000 0.0000000 1.0000000
vn 0.0000000 0.0000000 1.0000000
vn 0.0000000 0.0000000 -1.0000000
vn 0.0000000 0.0000000 -1.0000000
vn 0.0000000 0.0000000 -1.0000000
vn 0.0000000 0.0000000 -1.0000000
vn 1.0000000 0.0000000 0.0000000
vn 1.0000000 0.0000000 0.0000000
vn 1.0000000 0.0000000 0.0000000
vn 1.0000000 0.0000000 0.0000000
vn -1.0000000 0.0000000 0.0000000
vn -1.0000000 0.0000000 0.0000000
vn -1.0000000 0.0000000 0.0000000
vn -1.0000000 0.0000000 0.0000000
vn 0.0000000 1.0000000 0.0000000
vn 0.0000000 1.0000000 0.0000000
vn 0.0000000 1.0000000 0.0000000
vn 0.0000000 1.0000000 0.0000000
vn 0.0000000 -1.0000000 0.0000000
vn 0.0000000 -1.0000000 0.0000000
vn 0.0000000 -1.0000000 0.0000000
vn 0.0000000 -1.0000000 0.0000000
vn 0.0000000 -1.0000000 0.0000000
vn 0.0000000 1.0000000 0.0000000
vn 1.0000000 0.0000000 0.0000000
vn 0.0000000 0.0000000 1.0000000
vn -1.0000000 0.0000000 0.0000000
vn -0.0000000 0.0000000 -1.0000000
vn 0.0000000 -1.0000000 0.0000000
vn 0.0000000 1.0000000 0.0000000
vn 1.0000000 0.0000000 0.0000000
vn 0.0000000 0.0000000 1.0000000
vn -1.0000000 0.0000000 0.0000000
vn -0.0000000 0.0000000 -1.0000000
vn 0.0000000 -1.0000000 0.0000000
vn 0.0000000 1.0000000 0.0000000
vn 1.0000000 0.0000000 0.0000000
vn 0.0000000 0.0000000 1.0000000
vn -1.0000000 0.0000000 0.0000000
vn -0.0000000 0.0000000 -1.0000000
vn 0.0000000 -1.0000000 0.0000000
vn 0.0000000 1.0000000 0.0000000
vn 1.0000000 0.0000000 0.0000000
vn 0.0000000 0.0000000 1.0000000
vn -1.0000000 0.0000000 0.0000000
vn -0.0000000 0.0000000 -1.0000000
vn 0.0000000 -1.0000000 0.0000000
vn 0.0000000 1.0000000 0.0000000
vn 1.0000000 0.0000000 0.0000000
vn 0.0000000 0.0000000 1.0000000
vn -1.0000000 0.0000000 0.0000000
vn -0.0000000 0.0000000 -1.0000000
vn 0.0000000 -1.0000000 0.0000000
vn 0.0000000 1.0000000 0.0000000
vn 1.0000000 0.0000000 0.0000000
vn 0.0000000 0.0000000 1.0000000
vn -1.0000000 0.0000000 0.0000000
vn -0.0000000 0.0000000 -1.0000000
vn 0.0000000 -1.0000000 0.0000000
vn 0.0000000 1.0000000 0.0000000
vn 1.0000000 0.0000000 0.0000000
vn 0.0000000 0.0000000 1.0000000
vn -1.0000000 0.0000000 0.0000000
vn -0.0000000 0.0000000 -1.0000000
vn 0.0000000 -1.0000000 0.0000000
vn 0.0000000 1.0000000 0.0000000
vn 1.0000000 0.0000000 0.0000000
vn 0.0000000 0.0000000 1.0000000
vn -1.0000000 0.0000000 0.0000000
vn -0.0000000 0.0000000 -1.0000000
usemtl GateBlack
s off
f 1/1/1 2/2/2 3/3/3
f 1/1/1 3/3/3 4/4/4
f 5/5/5 6/6/6 7/7/7
f 5/5/5 7/7/7 8/8/8
f 9/9/9 10/10/10 11/11/11
f 9/9/9 11/11/11 12/12/12
f 13/13/13 14/14/14 15/15/15
f 13/13/13 15/15/15 16/16/16
f 17/17/17 18/18/18 19/19/19
f 17/17/17 19/19/19 20/20/20
f 21/21/21 22/22/22 23/23/23
f 21/21/21 23/23/23 24/24/24
f 27/27/27 26/26/26 28/28/28
f 28/28/28 25/25/25 27/27/27
f 28/28/28 26/26/26 29/29/29
f 29/29/29 25/25/25 28/28/28
f 29/29/29 26/26/26 30/30/30
f 30/30/30 25/25/25 29/29/29
f 30/30/30 26/26/26 27/27/27
f 27/27/27 25/25/25 30/30/30
f 31/31/31 32/32/32 33/33/33
f 31/31/31 33/33/33 34/34/34
f 35/35/35 36/36/36 37/37/37
f 35/35/35 37/37/37 38/38/38
f 39/39/39 40/40/40 41/41/41
f 39/39/39 41/41/41 42/42/42
f 43/43/43 44/44/44 45/45/45
f 43/43/43 45/45/45 46/46/46
f 47/47/47 48/48/48 49/49/49
f 47/47/47 49/49/49 50/50/50
f 51/51/51 52/52/52 53/53/53
f 51/51/51 53/53/53 54/54/54
f 57/57/57 56/56/56 58/58/58
f 58/58/58 55/55/55 57/57/57
f 58/58/58 56/56/56 59/59/59
f 59/59/59 55/55/55 58/58/58
f 59/59/59 56/56/56 60/60/60
f 60/60/60 55/55/55 59/59/59
f 60/60/60 56/56/56 57/57/57
f 57/57/57 55/55/55 60/60/60
f 61/61/61 62/62/62 63/63/63
f 61/61/61 63/63/63 64/64/64
f 65/65/65 66/66/66 67/67/67
f 65/65/65 67/67/67 68/68/68
f 69/69/69 70/70/70 71/71/71
f 69/69/69 71/71/71 72/72/72
f 73/73/73 74/74/74 75/75/75
f 73/73/73 75/75/75 76/76/76
f 77/77/77 78/78/78 79/79/79
f 77/77/77 79/79/79 80/80/80
f 81/81/81 82/82/82 83/83/83
f 81/81/81 83/83/83 84/84/84
f 87/87/87 86/86/86 88/88/88
f 88/88/88 85/85/85 87/87/87
f 88/88/88 86/86/86 89/89/89
f 89/89/89 85/85/85 88/88/88
f 89/89/89 86/86/86 90/90/90
f 90/90/90 85/85/85 89/89/89
f 90/90/90 86/86/86 87/87/87
f 87/87/87 85/85/85 90/90/90
f 91/91/91 92/92/92 93/93/93
f 91/91/91 93/93/93 94/94/94
f 95/95/95 96/96/96 97/97/97
f 95/95/95 97/97/97 98/98/98
f 99/99/99 100/100/100 101/101/101
f 99/99/99 101/101/101 102/102/102
f 103/103/103 104/104/104 105/105/105
f 103/103/103 105/105/105 106/106/106
f 107/107/107 108/108/108 109/109/109
f 107/107/107 109/109/109 110/110/110
f 111/111/111 112/112/112 113/113/113
f 111/111/111 113/113/113 114/114/114
f 117/117/117 116/116/116 118/118/118
f 118/118/118 115/115/115 117/117/117
f 118/118/118 116/116/116 119/119/119
f 119/119/119 115/115/115 118/118/118
f 119/119/119 116/116/116 120/120/120
f 120/120/120 115/115/115 119/119/119
f 120/120/120 116/116/116 117/117/117
f 117/117/117 115/115/115 120/120/120
f 121/121/121 122/122/122 123/123/123
f 121/121/121 123/123/123 124/124/124
f 125/125/125 126/126/126 127/127/127
f 125/125/125 127/127/127 128/128/128
f 129/129/129 130/130/130 131/131/131
f 129/129/129 131/131/131 132/132/132
f 133/133/133 134/134/134 135/135/135
f 133/133/133 135/135/135 136/136/136
f 137/137/137 138/138/138 139/139/139
f 137/137/137 139/139/139 140/140/140
f 141/141/141 142/142/142 143/143/143
f 141/141/141 143/143/143 144/144/144
f 147/147/147 146/146/146 148/148/148
f 148/148/148 145/145/145 147/147/147
f 148/148/148 146/146/146 149/149/149
f 149/149/149 145/145/145 148/148/148
f 149/149/149 146/146/146 150/150/150
f 150/150/150 145/145/145 149/149/149
f 150/150/150 146/146/146 147/147/147
f 147/147/147 145/145/145 150/150/150
f 151/151/151 152/152/152 153/153/153
f 151/151/151 153/153/153 154/154/154
f 155/155/155 156/156/156 157/157/157
f 155/155/155 157/157/157 158/158/158
f 159/159/159 160/160/160 161/161/161
f 159/159/159 161/161/161 162/162/162
f 163/163/163 164/164/164 165/165/165
f 163/163/163 165/165/165 166/166/166
f 167/167/167 168/168/168 169/169/169
f 167/167/167 169/169/169 170/170/170
f 171/171/171 172/172/172 173/173/173
f 171/171/171 173/173/173 174/174/174
f 177/177/177 176/176/176 178/178/178
f 178/178/178 175/175/175 177/177/177
f 178/178/178 176/176/176 179/179/179
f 179/179/179 175/175/175 178/178/178
f 179/179/179 176/176/176 180/180/180
f 180/180/180 175/175/175 179/179/179
f 180/180/180 176/176/176 177/177/177
f 177/177/177 175/175/175 180/180/180
f 181/181/181 182/182/182 183/183/183
f 181/181/181 183/183/183 184/184/184
f 185/185/185 186/186/186 187/187/187
f 185/185/185 187/187/187 188/188/188
f 189/189/189 190/190/190 191/191/191
f 189/189/189 191/191/191 192/192/192
f 193/193/193 194/194/194 195/195/195
f 193/193/193 195/195/195 196/196/196
f 197/197/197 198/198/198 199/199/199
f 197/197/197 199/199/199 200/200/200
f 201/201/201 202/202/202 203/203/203
f 201/201/201 203/203/203 204/204/204
f 207/207/207 206/206/206 208/208/208
f 208/208/208 205/205/205 207/207/207
f 208/208/208 206/206/206 209/209/209
f 209/209/209 205/205/205 208/208/208
f 209/209/209 206/206/206 210/210/210
f 210/210/210 205/205/205 209/209/209
f 210/210/210 206/206/206 207/207/207
f 207/207/207 205/205/205 210/210/210
f 211/211/211 212/212/212 213/213/213
f 211/211/211 213/213/213 214/214/214
f 215/215/215 216/216/216 217/217/217
f 215/215/215 217/217/217 218/218/218
f 219/219/219 220/220/220 221/221/221
f 219/219/219 221/221/221 222/222/222
f 223/223/223 224/224/224 225/225/225
f 223/223/223 225/225/225 226/226/226
f 227/227/227 228/228/228 229/229/229
f 227/227/227 229/229/229 230/230/230
f 231/231/231 232/232/232 233/233/233
f 231/231/231 233/233/233 234/234/234
f 237/237/237 236/236/236 238/238/238
f 238/238/238 235/235/235 237/237/237
f 238/238/238 236/236/236 239/239/239
f 239/239/239 235/235/235 238/238/238
f 239/239/239 236/236/236 240/240/240
f 240/240/240 235/235/235 239/239/239
f 240/240/240 236/236/236 237/237/237
f 237/237/237 235/235/235 240/240/240
f 241/241/241 242/242/242 243/243/243
f 241/241/241 243/243/243 244/244/244
f 245/245/245 246/246/246 247/247/247
f 245/245/245 247/247/247 248/248/248
f 249/249/249 250/250/250 251/251/251
f 249/249/249 251/251/251 252/252/252
f 253/253/253 254/254/254 255/255/255
f 253/253/253 255/255/255 256/256/256
f 257/257/257 258/258/258 259/259/259
f 257/257/257 259/259/259 260/260/260
f 261/261/261 262/262/262 263/263/263
f 261/261/261 263/263/263 264/264/264
f 267/267/267 266/266/266 268/268/268
f 268/268/268 265/265/265 267/267/267
f 268/268/268 266/266/266 269/269/269
f 269/269/269 265/265/265 268/268/268
f 269/269/269 266/266/266 270/270/270
f 270/270/270 265/265/265 269/269/269
f 270/270/270 266/266/266 267/267/267
f 267/267/267 265/265/265 270/270/270
f 271/271/271 272/272/272 273/273/273
f 271/271/271 273/273/273 274/274/274
f 275/275/275 276/276/276 277/277/277
f 275/275/275 277/277/277 278/278/278
f 279/279/279 280/280/280 281/281/281
f 279/279/279 281/281/281 282/282/282
f 283/283/283 284/284/284 285/285/285
f 283/283/283 285/285/285 286/286/286
f 287/287/287 288/288/288 289/289/289
f 287/287/287 289/289/289 290/290/290
f 291/291/291 292/292/292 293/293/293
f 291/291/291 293/293/293 294/294/294
f 295/295/295 296/296/296 297/297/297
f 295/295/295 297/297/297 298/298/298
f 299/299/299 300/300/300 301/301/301
f 299/299/299 301/301/301 302/302/302
f 303/303/303 304/304/304 305/305/305
f 303/303/303 305/305/305 306/306/306
f 307/307/307 308/308/308 309/309/309
f 307/307/307 309/309/309 310/310/310
f 311/311/311 312/312/312 313/313/313
f 311/311/311 313/313/313 314/314/314
f 315/315/315 316/316/316 317/317/317
f 315/315/315 317/317/317 318/318/318
f 319/319/319 320/320/320 321/321/321
f 319/319/319 321/321/321 322/322/322
f 323/323/323 324/324/324 325/325/325
f 323/323/323 325/325/325 326/326/326
f 327/327/327 328/328/328 329/329/329
f 327/327/327 329/329/329 330/330/330
f 331/331/331 332/332/332 333/333/333
f 331/331/331 333/333/333 334/334/334
f 335/335/335 336/336/336 337/337/337
f 335/335/335 337/337/337 338/338/338
f 339/339/339 340/340/340 341/341/341
f 339/339/339 341/341/341 342/342/342
f 343/343/343 344/344/344 345/345/345
f 343/343/343 345/345/345 346/346/346
f 347/347/347 348/348/348 349/349/349
f 347/347/347 349/349/349 350/350/350
f 351/351/351 352/352/352 353/353/353
f 351/351/351 353/353/353 354/354/354
f 355/355/355 356/356/356 357/357/357
f 355/355/355 357/357/357 358/358/358
f 359/359/359 360/360/360 361/361/361
f 359/359/359 361/361/361 362/362/362
f 363/363/363 364/364/364 365/365/365
f 363/363/363 365/365/365 366/366/366
f 367/367/367 368/368/368 369/369/369
f 367/367/367 369/369/369 370/370/370
f 371/371/371 372/372/372 373/373/373
f 371/371/371 373/373/373 374/374/374
f 375/375/375 376/376/376 377/377/377
f 375/375/375 377/377/377 378/378/378
f 379/379/379 380/380/380 381/381/381
f 379/379/379 381/381/381 382/382/382
f 383/383/383 384/384/384 385/385/385
f 383/383/383 385/385/385 386/386/386
f 387/387/387 388/388/388 389/389/389
f 387/387/387 389/389/389 390/390/390
usemtl GateGlow
s off
f 393/393/393 392/392/392 394/394/394
f 394/394/394 391/391/391 393/393/393
f 394/394/394 392/392/392 395/395/395
f 395/395/395 391/391/391 394/394/394
f 395/395/395 392/392/392 396/396/396
f 396/396/396 391/391/391 395/395/395
f 396/396/396 392/392/392 393/393/393
f 393/393/393 391/391/391 396/396/396
f 399/399/399 398/398/398 400/400/400
f 400/400/400 397/397/397 399/399/399
f 400/400/400 398/398/398 401/401/401
f 401/401/401 397/397/397 400/400/400
f 401/401/401 398/398/398 402/402/402
f 402/402/402 397/397/397 401/401/401
f 402/402/402 398/398/398 399/399/399
f 399/399/399 397/397/397 402/402/402
f 405/405/405 404/404/404 406/406/406
f 406/406/406 403/403/403 405/405/405
f 406/406/406 404/404/404 407/407/407
f 407/407/407 403/403/403 406/406/406
f 407/407/407 404/404/404 408/408/408
f 408/408/408 403/403/403 407/407/407
f 408/408/408 404/404/404 405/405/405
f 405/405/405 403/403/403 408/408/408
f 411/411/411 410/410/410 412/412/412
f 412/412/412 409/409/409 411/411/411
f 412/412/412 410/410/410 413/413/413
f 413/413/413 409/409/409 412/412/412
f 413/413/413 410/410/410 414/414/414
f 414/414/414 409/409/409 413/413/413
f 414/414/414 410/410/410 411/411/411
f 411/411/411 409/409/409 414/414/414
f 417/417/417 416/416/416 418/418/418
f 418/418/418 415/415/415 417/417/417
f 418/418/418 416/416/416 419/419/419
f 419/419/419 415/415/415 418/418/418
f 419/419/419 416/416/416 420/420/420
f 420/420/420 415/415/415 419/419/419
f 420/420/420 416/416/416 417/417/417
f 417/417/417 415/415/415 420/420/420
f 423/423/423 422/422/422 424/424/424
f 424/424/424 421/421/421 423/423/423
f 424/424/424 422/422/422 425/425/425
f 425/425/425 421/421/421 424/424/424
f 425/425/425 422/422/422 426/426/426
f 426/426/426 421/421/421 425/425/425
f 426/426/426 422/422/422 423/423/423
f 423/423/423 421/421/421 426/426/426
f 429/429/429 428/428/428 430/430/430
f 430/430/430 427/427/427 429/429/429
f 430/430/430 428/428/428 431/431/431
f 431/431/431 427/427/427 430/430/430
f 431/431/431 428/428/428 432/432/432
f 432/432/432 427/427/427 431/431/431
f 432/432/432 428/428/428 429/429/429
f 429/429/429 427/427/427 432/432/432
f 435/435/435 434/434/434 436/436/436
f 436/436/436 433/433/433 435/435/435
f 436/436/436 434/434/434 437/437/437
f 437/437/437 433/433/433 436/436/436
f 437/437/437 434/434/434 438/438/438
f 438/438/438 433/433/433 437/437/437
f 438/438/438 434/434/434 435/435/435
f 435/435/435 433/433/433 438/438/438
