# CG2 Stage 3 High Crown
mtllib high_crown.mtl
o high_crown_throne
v -5.6000000 0.0000000 2.7500000
v 5.6000000 0.0000000 2.7500000
v 5.6000000 1.2400000 2.7500000
v -5.6000000 1.2400000 2.7500000
v 5.6000000 0.0000000 -2.7500000
v -5.6000000 0.0000000 -2.7500000
v -5.6000000 1.2400000 -2.7500000
v 5.6000000 1.2400000 -2.7500000
v 5.6000000 0.0000000 2.7500000
v 5.6000000 0.0000000 -2.7500000
v 5.6000000 1.2400000 -2.7500000
v 5.6000000 1.2400000 2.7500000
v -5.6000000 0.0000000 -2.7500000
v -5.6000000 0.0000000 2.7500000
v -5.6000000 1.2400000 2.7500000
v -5.6000000 1.2400000 -2.7500000
v -5.6000000 1.2400000 2.7500000
v 5.6000000 1.2400000 2.7500000
v 5.6000000 1.2400000 -2.7500000
v -5.6000000 1.2400000 -2.7500000
v -5.6000000 0.0000000 -2.7500000
v 5.6000000 0.0000000 -2.7500000
v 5.6000000 0.0000000 2.7500000
v -5.6000000 0.0000000 2.7500000
v -5.4500000 1.2100000 2.5800000
v 5.4500000 1.2100000 2.5800000
v 5.4500000 1.3700000 2.5800000
v -5.4500000 1.3700000 2.5800000
v 5.4500000 1.2100000 -2.5800000
v -5.4500000 1.2100000 -2.5800000
v -5.4500000 1.3700000 -2.5800000
v 5.4500000 1.3700000 -2.5800000
v 5.4500000 1.2100000 2.5800000
v 5.4500000 1.2100000 -2.5800000
v 5.4500000 1.3700000 -2.5800000
v 5.4500000 1.3700000 2.5800000
v -5.4500000 1.2100000 -2.5800000
v -5.4500000 1.2100000 2.5800000
v -5.4500000 1.3700000 2.5800000
v -5.4500000 1.3700000 -2.5800000
v -5.4500000 1.3700000 2.5800000
v 5.4500000 1.3700000 2.5800000
v 5.4500000 1.3700000 -2.5800000
v -5.4500000 1.3700000 -2.5800000
v -5.4500000 1.2100000 -2.5800000
v 5.4500000 1.2100000 -2.5800000
v 5.4500000 1.2100000 2.5800000
v -5.4500000 1.2100000 2.5800000
v -2.3500000 1.3600000 1.9600000
v 2.3500000 1.3600000 1.9600000
v 2.3500000 2.8000000 1.9600000
v -2.3500000 2.8000000 1.9600000
v 2.3500000 1.3600000 -0.6000000
v -2.3500000 1.3600000 -0.6000000
v -2.3500000 2.8000000 -0.6000000
v 2.3500000 2.8000000 -0.6000000
v 2.3500000 1.3600000 1.9600000
v 2.3500000 1.3600000 -0.6000000
v 2.3500000 2.8000000 -0.6000000
v 2.3500000 2.8000000 1.9600000
v -2.3500000 1.3600000 -0.6000000
v -2.3500000 1.3600000 1.9600000
v -2.3500000 2.8000000 1.9600000
v -2.3500000 2.8000000 -0.6000000
v -2.3500000 2.8000000 1.9600000
v 2.3500000 2.8000000 1.9600000
v 2.3500000 2.8000000 -0.6000000
v -2.3500000 2.8000000 -0.6000000
v -2.3500000 1.3600000 -0.6000000
v 2.3500000 1.3600000 -0.6000000
v 2.3500000 1.3600000 1.9600000
v -2.3500000 1.3600000 1.9600000
v -2.4800000 2.7600000 2.0400000
v 2.4800000 2.7600000 2.0400000
v 2.4800000 2.9200000 2.0400000
v -2.4800000 2.9200000 2.0400000
v 2.4800000 2.7600000 -0.6800000
v -2.4800000 2.7600000 -0.6800000
v -2.4800000 2.9200000 -0.6800000
v 2.4800000 2.9200000 -0.6800000
v 2.4800000 2.7600000 2.0400000
v 2.4800000 2.7600000 -0.6800000
v 2.4800000 2.9200000 -0.6800000
v 2.4800000 2.9200000 2.0400000
v -2.4800000 2.7600000 -0.6800000
v -2.4800000 2.7600000 2.0400000
v -2.4800000 2.9200000 2.0400000
v -2.4800000 2.9200000 -0.6800000
v -2.4800000 2.9200000 2.0400000
v 2.4800000 2.9200000 2.0400000
v 2.4800000 2.9200000 -0.6800000
v -2.4800000 2.9200000 -0.6800000
v -2.4800000 2.7600000 -0.6800000
v 2.4800000 2.7600000 -0.6800000
v 2.4800000 2.7600000 2.0400000
v -2.4800000 2.7600000 2.0400000
v -4.6500000 1.4670000 1.9200000
v -4.6500000 6.1170000 1.9200000
v -3.8900000 3.4200000 1.9200000
v -4.4151471 3.4200000 2.6428030
v -5.2648529 3.4200000 2.3667168
v -5.2648529 3.4200000 1.4732832
v -4.4151471 3.4200000 1.1971970
v -3.3000000 1.7300000 2.1000000
v -3.3000000 7.7300000 2.1000000
v -2.3800000 4.2500000 2.1000000
v -3.0157044 4.2500000 2.9749720
v -4.0442956 4.2500000 2.6407624
v -4.0442956 4.2500000 1.5592376
v -3.0157044 4.2500000 1.2250280
v -1.7500000 1.9380000 2.1800000
v -1.7500000 9.0380000 2.1800000
v -0.7000000 4.9200000 2.1800000
v -1.4255322 4.9200000 3.1786093
v -2.5994678 4.9200000 2.7971745
v -2.5994678 4.9200000 1.5628255
v -1.4255322 4.9200000 1.1813907
v 0.0000000 2.0320000 2.2600000
v 0.0000000 9.9320000 2.2600000
v 1.1800000 5.3500000 2.2600000
v 0.3646401 5.3500000 3.3822467
v -0.9546401 5.3500000 2.9535866
v -0.9546401 5.3500000 1.5664134
v 0.3646401 5.3500000 1.1377533
v 1.7200000 1.9030000 2.1800000
v 1.7200000 8.7530000 2.1800000
v 2.7400000 4.7800000 2.1800000
v 2.0351973 4.7800000 3.1500776
v 0.8948027 4.7800000 2.7795410
v 0.8948027 4.7800000 1.5804590
v 2.0351973 4.7800000 1.2099224
v 3.2200000 1.7060000 2.0800000
v 3.2200000 7.4060000 2.0800000
v 4.1000000 4.1000000 2.0800000
v 3.4919350 4.1000000 2.9169297
v 2.5080650 4.1000000 2.5972510
v 2.5080650 4.1000000 1.5627490
v 3.4919350 4.1000000 1.2430703
v 4.5800000 1.4810000 1.9000000
v 4.5800000 5.9310000 1.9000000
v 5.3000000 3.3500000 1.9000000
v 4.8024922 3.3500000 2.5847607
v 3.9975078 3.3500000 2.3232054
v 3.9975078 3.3500000 1.4767946
v 4.8024922 3.3500000 1.2152393
v -2.4500000 4.4990000 2.6200000
v -2.4500000 6.0490000 2.6200000
v -2.0700000 5.1500000 2.6200000
v -2.2600000 5.1500000 2.9490897
v -2.6400000 5.1500000 2.9490897
v -2.8300000 5.1500000 2.6200000
v -2.6400000 5.1500000 2.2909103
v -2.2600000 5.1500000 2.2909103
v 0.0000000 5.7380000 2.7200000
v 0.0000000 7.8380000 2.7200000
v 0.5200000 6.6200000 2.7200000
v 0.2600000 6.6200000 3.1703332
v -0.2600000 6.6200000 3.1703332
v -0.5200000 6.6200000 2.7200000
v -0.2600000 6.6200000 2.2696668
v 0.2600000 6.6200000 2.2696668
v 2.4200000 4.4584000 2.6200000
v 2.4200000 5.9384000 2.6200000
v 2.8000000 5.0800000 2.6200000
v 2.6100000 5.0800000 2.9490897
v 2.2300000 5.0800000 2.9490897
v 2.0400000 5.0800000 2.6200000
v 2.2300000 5.0800000 2.2909103
v 2.6100000 5.0800000 2.2909103
v -4.0500000 2.7580000 2.5600000
v -3.6500000 2.7580000 2.5600000
v -3.6500000 3.1180000 2.5600000
v -4.0500000 3.1180000 2.5600000
v -3.6500000 2.7580000 2.2400000
v -4.0500000 2.7580000 2.2400000
v -4.0500000 3.1180000 2.2400000
v -3.6500000 3.1180000 2.2400000
v -3.6500000 2.7580000 2.5600000
v -3.6500000 2.7580000 2.2400000
v -3.6500000 3.1180000 2.2400000
v -3.6500000 3.1180000 2.5600000
v -4.0500000 2.7580000 2.2400000
v -4.0500000 2.7580000 2.5600000
v -4.0500000 3.1180000 2.5600000
v -4.0500000 3.1180000 2.2400000
v -4.0500000 3.1180000 2.5600000
v -3.6500000 3.1180000 2.5600000
v -3.6500000 3.1180000 2.2400000
v -4.0500000 3.1180000 2.2400000
v -4.0500000 2.7580000 2.2400000
v -3.6500000 2.7580000 2.2400000
v -3.6500000 2.7580000 2.5600000
v -4.0500000 2.7580000 2.5600000
v -2.7500000 2.9140000 2.5600000
v -2.3500000 2.9140000 2.5600000
v -2.3500000 3.2740000 2.5600000
v -2.7500000 3.2740000 2.5600000
v -2.3500000 2.9140000 2.2400000
v -2.7500000 2.9140000 2.2400000
v -2.7500000 3.2740000 2.2400000
v -2.3500000 3.2740000 2.2400000
v -2.3500000 2.9140000 2.5600000
v -2.3500000 2.9140000 2.2400000
v -2.3500000 3.2740000 2.2400000
v -2.3500000 3.2740000 2.5600000
v -2.7500000 2.9140000 2.2400000
v -2.7500000 2.9140000 2.5600000
v -2.7500000 3.2740000 2.5600000
v -2.7500000 3.2740000 2.2400000
v -2.7500000 3.2740000 2.5600000
v -2.3500000 3.2740000 2.5600000
v -2.3500000 3.2740000 2.2400000
v -2.7500000 3.2740000 2.2400000
v -2.7500000 2.9140000 2.2400000
v -2.3500000 2.9140000 2.2400000
v -2.3500000 2.9140000 2.5600000
v -2.7500000 2.9140000 2.5600000
v -1.3500000 3.0820000 2.5600000
v -0.9500000 3.0820000 2.5600000
v -0.9500000 3.4420000 2.5600000
v -1.3500000 3.4420000 2.5600000
v -0.9500000 3.0820000 2.2400000
v -1.3500000 3.0820000 2.2400000
v -1.3500000 3.4420000 2.2400000
v -0.9500000 3.4420000 2.2400000
v -0.9500000 3.0820000 2.5600000
v -0.9500000 3.0820000 2.2400000
v -0.9500000 3.4420000 2.2400000
v -0.9500000 3.4420000 2.5600000
v -1.3500000 3.0820000 2.2400000
v -1.3500000 3.0820000 2.5600000
v -1.3500000 3.4420000 2.5600000
v -1.3500000 3.4420000 2.2400000
v -1.3500000 3.4420000 2.5600000
v -0.9500000 3.4420000 2.5600000
v -0.9500000 3.4420000 2.2400000
v -1.3500000 3.4420000 2.2400000
v -1.3500000 3.0820000 2.2400000
v -0.9500000 3.0820000 2.2400000
v -0.9500000 3.0820000 2.5600000
v -1.3500000 3.0820000 2.5600000
v -0.2000000 3.2200000 2.5600000
v 0.2000000 3.2200000 2.5600000
v 0.2000000 3.5800000 2.5600000
v -0.2000000 3.5800000 2.5600000
v 0.2000000 3.2200000 2.2400000
v -0.2000000 3.2200000 2.2400000
v -0.2000000 3.5800000 2.2400000
v 0.2000000 3.5800000 2.2400000
v 0.2000000 3.2200000 2.5600000
v 0.2000000 3.2200000 2.2400000
v 0.2000000 3.5800000 2.2400000
v 0.2000000 3.5800000 2.5600000
v -0.2000000 3.2200000 2.2400000
v -0.2000000 3.2200000 2.5600000
v -0.2000000 3.5800000 2.5600000
v -0.2000000 3.5800000 2.2400000
v -0.2000000 3.5800000 2.5600000
v 0.2000000 3.5800000 2.5600000
v 0.2000000 3.5800000 2.2400000
v -0.2000000 3.5800000 2.2400000
v -0.2000000 3.2200000 2.2400000
v 0.2000000 3.2200000 2.2400000
v 0.2000000 3.2200000 2.5600000
v -0.2000000 3.2200000 2.5600000
v 0.9500000 3.0820000 2.5600000
v 1.3500000 3.0820000 2.5600000
v 1.3500000 3.4420000 2.5600000
v 0.9500000 3.4420000 2.5600000
v 1.3500000 3.0820000 2.2400000
v 0.9500000 3.0820000 2.2400000
v 0.9500000 3.4420000 2.2400000
v 1.3500000 3.4420000 2.2400000
v 1.3500000 3.0820000 2.5600000
v 1.3500000 3.0820000 2.2400000
v 1.3500000 3.4420000 2.2400000
v 1.3500000 3.4420000 2.5600000
v 0.9500000 3.0820000 2.2400000
v 0.9500000 3.0820000 2.5600000
v 0.9500000 3.4420000 2.5600000
v 0.9500000 3.4420000 2.2400000
v 0.9500000 3.4420000 2.5600000
v 1.3500000 3.4420000 2.5600000
v 1.3500000 3.4420000 2.2400000
v 0.9500000 3.4420000 2.2400000
v 0.9500000 3.0820000 2.2400000
v 1.3500000 3.0820000 2.2400000
v 1.3500000 3.0820000 2.5600000
v 0.9500000 3.0820000 2.5600000
v 2.3500000 2.9140000 2.5600000
v 2.7500000 2.9140000 2.5600000
v 2.7500000 3.2740000 2.5600000
v 2.3500000 3.2740000 2.5600000
v 2.7500000 2.9140000 2.2400000
v 2.3500000 2.9140000 2.2400000
v 2.3500000 3.2740000 2.2400000
v 2.7500000 3.2740000 2.2400000
v 2.7500000 2.9140000 2.5600000
v 2.7500000 2.9140000 2.2400000
v 2.7500000 3.2740000 2.2400000
v 2.7500000 3.2740000 2.5600000
v 2.3500000 2.9140000 2.2400000
v 2.3500000 2.9140000 2.5600000
v 2.3500000 3.2740000 2.5600000
v 2.3500000 3.2740000 2.2400000
v 2.3500000 3.2740000 2.5600000
v 2.7500000 3.2740000 2.5600000
v 2.7500000 3.2740000 2.2400000
v 2.3500000 3.2740000 2.2400000
v 2.3500000 2.9140000 2.2400000
v 2.7500000 2.9140000 2.2400000
v 2.7500000 2.9140000 2.5600000
v 2.3500000 2.9140000 2.5600000
v 3.6500000 2.7580000 2.5600000
v 4.0500000 2.7580000 2.5600000
v 4.0500000 3.1180000 2.5600000
v 3.6500000 3.1180000 2.5600000
v 4.0500000 2.7580000 2.2400000
v 3.6500000 2.7580000 2.2400000
v 3.6500000 3.1180000 2.2400000
v 4.0500000 3.1180000 2.2400000
v 4.0500000 2.7580000 2.5600000
v 4.0500000 2.7580000 2.2400000
v 4.0500000 3.1180000 2.2400000
v 4.0500000 3.1180000 2.5600000
v 3.6500000 2.7580000 2.2400000
v 3.6500000 2.7580000 2.5600000
v 3.6500000 3.1180000 2.5600000
v 3.6500000 3.1180000 2.2400000
v 3.6500000 3.1180000 2.5600000
v 4.0500000 3.1180000 2.5600000
v 4.0500000 3.1180000 2.2400000
v 3.6500000 3.1180000 2.2400000
v 3.6500000 2.7580000 2.2400000
v 4.0500000 2.7580000 2.2400000
v 4.0500000 2.7580000 2.5600000
v 3.6500000 2.7580000 2.5600000
vt 0.0000000 1.0000000
vt 1.0000000 1.0000000
vt 1.0000000 0.0000000
vt 0.0000000 0.0000000
vt 0.0000000 1.0000000
vt 1.0000000 1.0000000
vt 1.0000000 0.0000000
vt 0.0000000 0.0000000
vt 0.0000000 1.0000000
vt 1.0000000 1.0000000
vt 1.0000000 0.0000000
vt 0.0000000 0.0000000
vt 0.0000000 1.0000000
vt 1.0000000 1.0000000
vt 1.0000000 0.0000000
vt 0.0000000 0.0000000
vt 0.0000000 1.0000000
vt 1.0000000 1.0000000
vt 1.0000000 0.0000000
vt 0.0000000 0.0000000
vt 0.0000000 1.0000000
vt 1.0000000 1.0000000
vt 1.0000000 0.0000000
vt 0.0000000 0.0000000
vt 0.0000000 1.0000000
vt 1.0000000 1.0000000
vt 1.0000000 0.0000000
vt 0.0000000 0.0000000
vt 0.0000000 1.0000000
vt 1.0000000 1.0000000
vt 1.0000000 0.0000000
vt 0.0000000 0.0000000
vt 0.0000000 1.0000000
vt 1.0000000 1.0000000
vt 1.0000000 0.0000000
vt 0.0000000 0.0000000
vt 0.0000000 1.0000000
vt 1.0000000 1.0000000
vt 1.0000000 0.0000000
vt 0.0000000 0.0000000
vt 0.0000000 1.0000000
vt 1.0000000 1.0000000
vt 1.0000000 0.0000000
vt 0.0000000 0.0000000
vt 0.0000000 1.0000000
vt 1.0000000 1.0000000
vt 1.0000000 0.0000000
vt 0.0000000 0.0000000
vt 0.0000000 1.0000000
vt 1.0000000 1.0000000
vt 1.0000000 0.0000000
vt 0.0000000 0.0000000
vt 0.0000000 1.0000000
vt 1.0000000 1.0000000
vt 1.0000000 0.0000000
vt 0.0000000 0.0000000
vt 0.0000000 1.0000000
vt 1.0000000 1.0000000
vt 1.0000000 0.0000000
vt 0.0000000 0.0000000
vt 0.0000000 1.0000000
vt 1.0000000 1.0000000
vt 1.0000000 0.0000000
vt 0.0000000 0.0000000
vt 0.0000000 1.0000000
vt 1.0000000 1.0000000
vt 1.0000000 0.0000000
vt 0.0000000 0.0000000
vt 0.0000000 1.0000000
vt 1.0000000 1.0000000
vt 1.0000000 0.0000000
vt 0.0000000 0.0000000
vt 0.0000000 1.0000000
vt 1.0000000 1.0000000
vt 1.0000000 0.0000000
vt 0.0000000 0.0000000
vt 0.0000000 1.0000000
vt 1.0000000 1.0000000
vt 1.0000000 0.0000000
vt 0.0000000 0.0000000
vt 0.0000000 1.0000000
vt 1.0000000 1.0000000
vt 1.0000000 0.0000000
vt 0.0000000 0.0000000
vt 0.0000000 1.0000000
vt 1.0000000 1.0000000
vt 1.0000000 0.0000000
vt 0.0000000 0.0000000
vt 0.0000000 1.0000000
vt 1.0000000 1.0000000
vt 1.0000000 0.0000000
vt 0.0000000 0.0000000
vt 0.0000000 1.0000000
vt 1.0000000 1.0000000
vt 1.0000000 0.0000000
vt 0.0000000 0.0000000
vt 0.5000000 1.0000000
vt 0.5000000 0.0000000
vt 0.0000000 0.5000000
vt 0.2000000 0.5000000
vt 0.4000000 0.5000000
vt 0.6000000 0.5000000
vt 0.8000000 0.5000000
vt 0.5000000 1.0000000
vt 0.5000000 0.0000000
vt 0.0000000 0.5000000
vt 0.2000000 0.5000000
vt 0.4000000 0.5000000
vt 0.6000000 0.5000000
vt 0.8000000 0.5000000
vt 0.5000000 1.0000000
vt 0.5000000 0.0000000
vt 0.0000000 0.5000000
vt 0.2000000 0.5000000
vt 0.4000000 0.5000000
vt 0.6000000 0.5000000
vt 0.8000000 0.5000000
vt 0.5000000 1.0000000
vt 0.5000000 0.0000000
vt 0.0000000 0.5000000
vt 0.2000000 0.5000000
vt 0.4000000 0.5000000
vt 0.6000000 0.5000000
vt 0.8000000 0.5000000
vt 0.5000000 1.0000000
vt 0.5000000 0.0000000
vt 0.0000000 0.5000000
vt 0.2000000 0.5000000
vt 0.4000000 0.5000000
vt 0.6000000 0.5000000
vt 0.8000000 0.5000000
vt 0.5000000 1.0000000
vt 0.5000000 0.0000000
vt 0.0000000 0.5000000
vt 0.2000000 0.5000000
vt 0.4000000 0.5000000
vt 0.6000000 0.5000000
vt 0.8000000 0.5000000
vt 0.5000000 1.0000000
vt 0.5000000 0.0000000
vt 0.0000000 0.5000000
vt 0.2000000 0.5000000
vt 0.4000000 0.5000000
vt 0.6000000 0.5000000
vt 0.8000000 0.5000000
vt 0.5000000 1.0000000
vt 0.5000000 0.0000000
vt 0.0000000 0.5000000
vt 0.1666667 0.5000000
vt 0.3333333 0.5000000
vt 0.5000000 0.5000000
vt 0.6666667 0.5000000
vt 0.8333333 0.5000000
vt 0.5000000 1.0000000
vt 0.5000000 0.0000000
vt 0.0000000 0.5000000
vt 0.1666667 0.5000000
vt 0.3333333 0.5000000
vt 0.5000000 0.5000000
vt 0.6666667 0.5000000
vt 0.8333333 0.5000000
vt 0.5000000 1.0000000
vt 0.5000000 0.0000000
vt 0.0000000 0.5000000
vt 0.1666667 0.5000000
vt 0.3333333 0.5000000
vt 0.5000000 0.5000000
vt 0.6666667 0.5000000
vt 0.8333333 0.5000000
vt 0.0000000 1.0000000
vt 1.0000000 1.0000000
vt 1.0000000 0.0000000
vt 0.0000000 0.0000000
vt 0.0000000 1.0000000
vt 1.0000000 1.0000000
vt 1.0000000 0.0000000
vt 0.0000000 0.0000000
vt 0.0000000 1.0000000
vt 1.0000000 1.0000000
vt 1.0000000 0.0000000
vt 0.0000000 0.0000000
vt 0.0000000 1.0000000
vt 1.0000000 1.0000000
vt 1.0000000 0.0000000
vt 0.0000000 0.0000000
vt 0.0000000 1.0000000
vt 1.0000000 1.0000000
vt 1.0000000 0.0000000
vt 0.0000000 0.0000000
vt 0.0000000 1.0000000
vt 1.0000000 1.0000000
vt 1.0000000 0.0000000
vt 0.0000000 0.0000000
vt 0.0000000 1.0000000
vt 1.0000000 1.0000000
vt 1.0000000 0.0000000
vt 0.0000000 0.0000000
vt 0.0000000 1.0000000
vt 1.0000000 1.0000000
vt 1.0000000 0.0000000
vt 0.0000000 0.0000000
vt 0.0000000 1.0000000
vt 1.0000000 1.0000000
vt 1.0000000 0.0000000
vt 0.0000000 0.0000000
vt 0.0000000 1.0000000
vt 1.0000000 1.0000000
vt 1.0000000 0.0000000
vt 0.0000000 0.0000000
vt 0.0000000 1.0000000
vt 1.0000000 1.0000000
vt 1.0000000 0.0000000
vt 0.0000000 0.0000000
vt 0.0000000 1.0000000
vt 1.0000000 1.0000000
vt 1.0000000 0.0000000
vt 0.0000000 0.0000000
vt 0.0000000 1.0000000
vt 1.0000000 1.0000000
vt 1.0000000 0.0000000
vt 0.0000000 0.0000000
vt 0.0000000 1.0000000
vt 1.0000000 1.0000000
vt 1.0000000 0.0000000
vt 0.0000000 0.0000000
vt 0.0000000 1.0000000
vt 1.0000000 1.0000000
vt 1.0000000 0.0000000
vt 0.0000000 0.0000000
vt 0.0000000 1.0000000
vt 1.0000000 1.0000000
vt 1.0000000 0.0000000
vt 0.0000000 0.0000000
vt 0.0000000 1.0000000
vt 1.0000000 1.0000000
vt 1.0000000 0.0000000
vt 0.0000000 0.0000000
vt 0.0000000 1.0000000
vt 1.0000000 1.0000000
vt 1.0000000 0.0000000
vt 0.0000000 0.0000000
vt 0.0000000 1.0000000
vt 1.0000000 1.0000000
vt 1.0000000 0.0000000
vt 0.0000000 0.0000000
vt 0.0000000 1.0000000
vt 1.0000000 1.0000000
vt 1.0000000 0.0000000
vt 0.0000000 0.0000000
vt 0.0000000 1.0000000
vt 1.0000000 1.0000000
vt 1.0000000 0.0000000
vt 0.0000000 0.0000000
vt 0.0000000 1.0000000
vt 1.0000000 1.0000000
vt 1.0000000 0.0000000
vt 0.0000000 0.0000000
vt 0.0000000 1.0000000
vt 1.0000000 1.0000000
vt 1.0000000 0.0000000
vt 0.0000000 0.0000000
vt 0.0000000 1.0000000
vt 1.0000000 1.0000000
vt 1.0000000 0.0000000
vt 0.0000000 0.0000000
vt 0.0000000 1.0000000
vt 1.0000000 1.0000000
vt 1.0000000 0.0000000
vt 0.0000000 0.0000000
vt 0.0000000 1.0000000
vt 1.0000000 1.0000000
vt 1.0000000 0.0000000
vt 0.0000000 0.0000000
vt 0.0000000 1.0000000
vt 1.0000000 1.0000000
vt 1.0000000 0.0000000
vt 0.0000000 0.0000000
vt 0.0000000 1.0000000
vt 1.0000000 1.0000000
vt 1.0000000 0.0000000
vt 0.0000000 0.0000000
vt 0.0000000 1.0000000
vt 1.0000000 1.0000000
vt 1.0000000 0.0000000
vt 0.0000000 0.0000000
vt 0.0000000 1.0000000
vt 1.0000000 1.0000000
vt 1.0000000 0.0000000
vt 0.0000000 0.0000000
vt 0.0000000 1.0000000
vt 1.0000000 1.0000000
vt 1.0000000 0.0000000
vt 0.0000000 0.0000000
vt 0.0000000 1.0000000
vt 1.0000000 1.0000000
vt 1.0000000 0.0000000
vt 0.0000000 0.0000000
vt 0.0000000 1.0000000
vt 1.0000000 1.0000000
vt 1.0000000 0.0000000
vt 0.0000000 0.0000000
vt 0.0000000 1.0000000
vt 1.0000000 1.0000000
vt 1.0000000 0.0000000
vt 0.0000000 0.0000000
vt 0.0000000 1.0000000
vt 1.0000000 1.0000000
vt 1.0000000 0.0000000
vt 0.0000000 0.0000000
vt 0.0000000 1.0000000
vt 1.0000000 1.0000000
vt 1.0000000 0.0000000
vt 0.0000000 0.0000000
vt 0.0000000 1.0000000
vt 1.0000000 1.0000000
vt 1.0000000 0.0000000
vt 0.0000000 0.0000000
vt 0.0000000 1.0000000
vt 1.0000000 1.0000000
vt 1.0000000 0.0000000
vt 0.0000000 0.0000000
vt 0.0000000 1.0000000
vt 1.0000000 1.0000000
vt 1.0000000 0.0000000
vt 0.0000000 0.0000000
vt 0.0000000 1.0000000
vt 1.0000000 1.0000000
vt 1.0000000 0.0000000
vt 0.0000000 0.0000000
vt 0.0000000 1.0000000
vt 1.0000000 1.0000000
vt 1.0000000 0.0000000
vt 0.0000000 0.0000000
vt 0.0000000 1.0000000
vt 1.0000000 1.0000000
vt 1.0000000 0.0000000
vt 0.0000000 0.0000000
vn 0.0000000 0.0000000 1.0000000
vn 0.0000000 0.0000000 1.0000000
vn 0.0000000 0.0000000 1.0000000
vn 0.0000000 0.0000000 1.0000000
vn 0.0000000 0.0000000 -1.0000000
vn 0.0000000 0.0000000 -1.0000000
vn 0.0000000 0.0000000 -1.0000000
vn 0.0000000 0.0000000 -1.0000000
vn 1.0000000 0.0000000 0.0000000
vn 1.0000000 0.0000000 0.0000000
vn 1.0000000 0.0000000 0.0000000
vn 1.0000000 0.0000000 0.0000000
vn -1.0000000 0.0000000 0.0000000
vn -1.0000000 0.0000000 0.0000000
vn -1.0000000 0.0000000 0.0000000
vn -1.0000000 0.0000000 0.0000000
vn 0.0000000 1.0000000 0.0000000
vn 0.0000000 1.0000000 0.0000000
vn 0.0000000 1.0000000 0.0000000
vn 0.0000000 1.0000000 0.0000000
vn 0.0000000 -1.0000000 0.0000000
vn 0.0000000 -1.0000000 0.0000000
vn 0.0000000 -1.0000000 0.0000000
vn 0.0000000 -1.0000000 0.0000000
vn 0.0000000 0.0000000 1.0000000
vn 0.0000000 0.0000000 1.0000000
vn 0.0000000 0.0000000 1.0000000
vn 0.0000000 0.0000000 1.0000000
vn 0.0000000 0.0000000 -1.0000000
vn 0.0000000 0.0000000 -1.0000000
vn 0.0000000 0.0000000 -1.0000000
vn 0.0000000 0.0000000 -1.0000000
vn 1.0000000 0.0000000 0.0000000
vn 1.0000000 0.0000000 0.0000000
vn 1.0000000 0.0000000 0.0000000
vn 1.0000000 0.0000000 0.0000000
vn -1.0000000 0.0000000 0.0000000
vn -1.0000000 0.0000000 0.0000000
vn -1.0000000 0.0000000 0.0000000
vn -1.0000000 0.0000000 0.0000000
vn 0.0000000 1.0000000 0.0000000
vn 0.0000000 1.0000000 0.0000000
vn 0.0000000 1.0000000 0.0000000
vn 0.0000000 1.0000000 0.0000000
vn 0.0000000 -1.0000000 0.0000000
vn 0.0000000 -1.0000000 0.0000000
vn 0.0000000 -1.0000000 0.0000000
vn 0.0000000 -1.0000000 0.0000000
vn 0.0000000 0.0000000 1.0000000
vn 0.0000000 0.0000000 1.0000000
vn 0.0000000 0.0000000 1.0000000
vn 0.0000000 0.0000000 1.0000000
vn 0.0000000 0.0000000 -1.0000000
vn 0.0000000 0.0000000 -1.0000000
vn 0.0000000 0.0000000 -1.0000000
vn 0.0000000 0.0000000 -1.0000000
vn 1.0000000 0.0000000 0.0000000
vn 1.0000000 0.0000000 0.0000000
vn 1.0000000 0.0000000 0.0000000
vn 1.0000000 0.0000000 0.0000000
vn -1.0000000 0.0000000 0.0000000
vn -1.0000000 0.0000000 0.0000000
vn -1.0000000 0.0000000 0.0000000
vn -1.0000000 0.0000000 0.0000000
vn 0.0000000 1.0000000 0.0000000
vn 0.0000000 1.0000000 0.0000000
vn 0.0000000 1.0000000 0.0000000
vn 0.0000000 1.0000000 0.0000000
vn 0.0000000 -1.0000000 0.0000000
vn 0.0000000 -1.0000000 0.0000000
vn 0.0000000 -1.0000000 0.0000000
vn 0.0000000 -1.0000000 0.0000000
vn 0.0000000 0.0000000 1.0000000
vn 0.0000000 0.0000000 1.0000000
vn 0.0000000 0.0000000 1.0000000
vn 0.0000000 0.0000000 1.0000000
vn 0.0000000 0.0000000 -1.0000000
vn 0.0000000 0.0000000 -1.0000000
vn 0.0000000 0.0000000 -1.0000000
vn 0.0000000 0.0000000 -1.0000000
vn 1.0000000 0.0000000 0.0000000
vn 1.0000000 0.0000000 0.0000000
vn 1.0000000 0.0000000 0.0000000
vn 1.0000000 0.0000000 0.0000000
vn -1.0000000 0.0000000 0.0000000
vn -1.0000000 0.0000000 0.0000000
vn -1.0000000 0.0000000 0.0000000
vn -1.0000000 0.0000000 0.0000000
vn 0.0000000 1.0000000 0.0000000
vn 0.0000000 1.0000000 0.0000000
vn 0.0000000 1.0000000 0.0000000
vn 0.0000000 1.0000000 0.0000000
vn 0.0000000 -1.0000000 0.0000000
vn 0.0000000 -1.0000000 0.0000000
vn 0.0000000 -1.0000000 0.0000000
vn 0.0000000 -1.0000000 0.0000000
vn 0.0000000 -1.0000000 0.0000000
vn 0.0000000 1.0000000 0.0000000
vn 1.0000000 0.0000000 0.0000000
vn 0.3090170 0.0000000 0.9510565
vn -0.8090170 0.0000000 0.5877853
vn -0.8090170 0.0000000 -0.5877853
vn 0.3090170 0.0000000 -0.9510565
vn 0.0000000 -1.0000000 0.0000000
vn 0.0000000 1.0000000 0.0000000
vn 1.0000000 0.0000000 0.0000000
vn 0.3090170 0.0000000 0.9510565
vn -0.8090170 0.0000000 0.5877853
vn -0.8090170 0.0000000 -0.5877853
vn 0.3090170 0.0000000 -0.9510565
vn 0.0000000 -1.0000000 0.0000000
vn 0.0000000 1.0000000 0.0000000
vn 1.0000000 0.0000000 0.0000000
vn 0.3090170 0.0000000 0.9510565
vn -0.8090170 0.0000000 0.5877853
vn -0.8090170 0.0000000 -0.5877853
vn 0.3090170 0.0000000 -0.9510565
vn 0.0000000 -1.0000000 0.0000000
vn 0.0000000 1.0000000 0.0000000
vn 1.0000000 0.0000000 0.0000000
vn 0.3090170 0.0000000 0.9510565
vn -0.8090170 0.0000000 0.5877853
vn -0.8090170 0.0000000 -0.5877853
vn 0.3090170 0.0000000 -0.9510565
vn 0.0000000 -1.0000000 0.0000000
vn 0.0000000 1.0000000 0.0000000
vn 1.0000000 0.0000000 0.0000000
vn 0.3090170 0.0000000 0.9510565
vn -0.8090170 0.0000000 0.5877853
vn -0.8090170 0.0000000 -0.5877853
vn 0.3090170 0.0000000 -0.9510565
vn 0.0000000 -1.0000000 0.0000000
vn 0.0000000 1.0000000 0.0000000
vn 1.0000000 0.0000000 0.0000000
vn 0.3090170 0.0000000 0.9510565
vn -0.8090170 0.0000000 0.5877853
vn -0.8090170 0.0000000 -0.5877853
vn 0.3090170 0.0000000 -0.9510565
vn 0.0000000 -1.0000000 0.0000000
vn 0.0000000 1.0000000 0.0000000
vn 1.0000000 0.0000000 0.0000000
vn 0.3090170 0.0000000 0.9510565
vn -0.8090170 0.0000000 0.5877853
vn -0.8090170 0.0000000 -0.5877853
vn 0.3090170 0.0000000 -0.9510565
vn 0.0000000 -1.0000000 0.0000000
vn 0.0000000 1.0000000 0.0000000
vn 1.0000000 0.0000000 0.0000000
vn 0.5000000 0.0000000 0.8660254
vn -0.5000000 0.0000000 0.8660254
vn -1.0000000 0.0000000 0.0000000
vn -0.5000000 0.0000000 -0.8660254
vn 0.5000000 0.0000000 -0.8660254
vn 0.0000000 -1.0000000 0.0000000
vn 0.0000000 1.0000000 0.0000000
vn 1.0000000 0.0000000 0.0000000
vn 0.5000000 0.0000000 0.8660254
vn -0.5000000 0.0000000 0.8660254
vn -1.0000000 0.0000000 0.0000000
vn -0.5000000 0.0000000 -0.8660254
vn 0.5000000 0.0000000 -0.8660254
vn 0.0000000 -1.0000000 0.0000000
vn 0.0000000 1.0000000 0.0000000
vn 1.0000000 0.0000000 0.0000000
vn 0.5000000 0.0000000 0.8660254
vn -0.5000000 0.0000000 0.8660254
vn -1.0000000 0.0000000 0.0000000
vn -0.5000000 0.0000000 -0.8660254
vn 0.5000000 0.0000000 -0.8660254
vn 0.0000000 0.0000000 1.0000000
vn 0.0000000 0.0000000 1.0000000
vn 0.0000000 0.0000000 1.0000000
vn 0.0000000 0.0000000 1.0000000
vn 0.0000000 0.0000000 -1.0000000
vn 0.0000000 0.0000000 -1.0000000
vn 0.0000000 0.0000000 -1.0000000
vn 0.0000000 0.0000000 -1.0000000
vn 1.0000000 0.0000000 0.0000000
vn 1.0000000 0.0000000 0.0000000
vn 1.0000000 0.0000000 0.0000000
vn 1.0000000 0.0000000 0.0000000
vn -1.0000000 0.0000000 0.0000000
vn -1.0000000 0.0000000 0.0000000
vn -1.0000000 0.0000000 0.0000000
vn -1.0000000 0.0000000 0.0000000
vn 0.0000000 1.0000000 0.0000000
vn 0.0000000 1.0000000 0.0000000
vn 0.0000000 1.0000000 0.0000000
vn 0.0000000 1.0000000 0.0000000
vn 0.0000000 -1.0000000 0.0000000
vn 0.0000000 -1.0000000 0.0000000
vn 0.0000000 -1.0000000 0.0000000
vn 0.0000000 -1.0000000 0.0000000
vn 0.0000000 0.0000000 1.0000000
vn 0.0000000 0.0000000 1.0000000
vn 0.0000000 0.0000000 1.0000000
vn 0.0000000 0.0000000 1.0000000
vn 0.0000000 0.0000000 -1.0000000
vn 0.0000000 0.0000000 -1.0000000
vn 0.0000000 0.0000000 -1.0000000
vn 0.0000000 0.0000000 -1.0000000
vn 1.0000000 0.0000000 0.0000000
vn 1.0000000 0.0000000 0.0000000
vn 1.0000000 0.0000000 0.0000000
vn 1.0000000 0.0000000 0.0000000
vn -1.0000000 0.0000000 0.0000000
vn -1.0000000 0.0000000 0.0000000
vn -1.0000000 0.0000000 0.0000000
vn -1.0000000 0.0000000 0.0000000
vn 0.0000000 1.0000000 0.0000000
vn 0.0000000 1.0000000 0.0000000
vn 0.0000000 1.0000000 0.0000000
vn 0.0000000 1.0000000 0.0000000
vn 0.0000000 -1.0000000 0.0000000
vn 0.0000000 -1.0000000 0.0000000
vn 0.0000000 -1.0000000 0.0000000
vn 0.0000000 -1.0000000 0.0000000
vn 0.0000000 0.0000000 1.0000000
vn 0.0000000 0.0000000 1.0000000
vn 0.0000000 0.0000000 1.0000000
vn 0.0000000 0.0000000 1.0000000
vn 0.0000000 0.0000000 -1.0000000
vn 0.0000000 0.0000000 -1.0000000
vn 0.0000000 0.0000000 -1.0000000
vn 0.0000000 0.0000000 -1.0000000
vn 1.0000000 0.0000000 0.0000000
vn 1.0000000 0.0000000 0.0000000
vn 1.0000000 0.0000000 0.0000000
vn 1.0000000 0.0000000 0.0000000
vn -1.0000000 0.0000000 0.0000000
vn -1.0000000 0.0000000 0.0000000
vn -1.0000000 0.0000000 0.0000000
vn -1.0000000 0.0000000 0.0000000
vn 0.0000000 1.0000000 0.0000000
vn 0.0000000 1.0000000 0.0000000
vn 0.0000000 1.0000000 0.0000000
vn 0.0000000 1.0000000 0.0000000
vn 0.0000000 -1.0000000 0.0000000
vn 0.0000000 -1.0000000 0.0000000
vn 0.0000000 -1.0000000 0.0000000
vn 0.0000000 -1.0000000 0.0000000
vn 0.0000000 0.0000000 1.0000000
vn 0.0000000 0.0000000 1.0000000
vn 0.0000000 0.0000000 1.0000000
vn 0.0000000 0.0000000 1.0000000
vn 0.0000000 0.0000000 -1.0000000
vn 0.0000000 0.0000000 -1.0000000
vn 0.0000000 0.0000000 -1.0000000
vn 0.0000000 0.0000000 -1.0000000
vn 1.0000000 0.0000000 0.0000000
vn 1.0000000 0.0000000 0.0000000
vn 1.0000000 0.0000000 0.0000000
vn 1.0000000 0.0000000 0.0000000
vn -1.0000000 0.0000000 0.0000000
vn -1.0000000 0.0000000 0.0000000
vn -1.0000000 0.0000000 0.0000000
vn -1.0000000 0.0000000 0.0000000
vn 0.0000000 1.0000000 0.0000000
vn 0.0000000 1.0000000 0.0000000
vn 0.0000000 1.0000000 0.0000000
vn 0.0000000 1.0000000 0.0000000
vn 0.0000000 -1.0000000 0.0000000
vn 0.0000000 -1.0000000 0.0000000
vn 0.0000000 -1.0000000 0.0000000
vn 0.0000000 -1.0000000 0.0000000
vn 0.0000000 0.0000000 1.0000000
vn 0.0000000 0.0000000 1.0000000
vn 0.0000000 0.0000000 1.0000000
vn 0.0000000 0.0000000 1.0000000
vn 0.0000000 0.0000000 -1.0000000
vn 0.0000000 0.0000000 -1.0000000
vn 0.0000000 0.0000000 -1.0000000
vn 0.0000000 0.0000000 -1.0000000
vn 1.0000000 0.0000000 0.0000000
vn 1.0000000 0.0000000 0.0000000
vn 1.0000000 0.0000000 0.0000000
vn 1.0000000 0.0000000 0.0000000
vn -1.0000000 0.0000000 0.0000000
vn -1.0000000 0.0000000 0.0000000
vn -1.0000000 0.0000000 0.0000000
vn -1.0000000 0.0000000 0.0000000
vn 0.0000000 1.0000000 0.0000000
vn 0.0000000 1.0000000 0.0000000
vn 0.0000000 1.0000000 0.0000000
vn 0.0000000 1.0000000 0.0000000
vn 0.0000000 -1.0000000 0.0000000
vn 0.0000000 -1.0000000 0.0000000
vn 0.0000000 -1.0000000 0.0000000
vn 0.0000000 -1.0000000 0.0000000
vn 0.0000000 0.0000000 1.0000000
vn 0.0000000 0.0000000 1.0000000
vn 0.0000000 0.0000000 1.0000000
vn 0.0000000 0.0000000 1.0000000
vn 0.0000000 0.0000000 -1.0000000
vn 0.0000000 0.0000000 -1.0000000
vn 0.0000000 0.0000000 -1.0000000
vn 0.0000000 0.0000000 -1.0000000
vn 1.0000000 0.0000000 0.0000000
vn 1.0000000 0.0000000 0.0000000
vn 1.0000000 0.0000000 0.0000000
vn 1.0000000 0.0000000 0.0000000
vn -1.0000000 0.0000000 0.0000000
vn -1.0000000 0.0000000 0.0000000
vn -1.0000000 0.0000000 0.0000000
vn -1.0000000 0.0000000 0.0000000
vn 0.0000000 1.0000000 0.0000000
vn 0.0000000 1.0000000 0.0000000
vn 0.0000000 1.0000000 0.0000000
vn 0.0000000 1.0000000 0.0000000
vn 0.0000000 -1.0000000 0.0000000
vn 0.0000000 -1.0000000 0.0000000
vn 0.0000000 -1.0000000 0.0000000
vn 0.0000000 -1.0000000 0.0000000
vn 0.0000000 0.0000000 1.0000000
vn 0.0000000 0.0000000 1.0000000
vn 0.0000000 0.0000000 1.0000000
vn 0.0000000 0.0000000 1.0000000
vn 0.0000000 0.0000000 -1.0000000
vn 0.0000000 0.0000000 -1.0000000
vn 0.0000000 0.0000000 -1.0000000
vn 0.0000000 0.0000000 -1.0000000
vn 1.0000000 0.0000000 0.0000000
vn 1.0000000 0.0000000 0.0000000
vn 1.0000000 0.0000000 0.0000000
vn 1.0000000 0.0000000 0.0000000
vn -1.0000000 0.0000000 0.0000000
vn -1.0000000 0.0000000 0.0000000
vn -1.0000000 0.0000000 0.0000000
vn -1.0000000 0.0000000 0.0000000
vn 0.0000000 1.0000000 0.0000000
vn 0.0000000 1.0000000 0.0000000
vn 0.0000000 1.0000000 0.0000000
vn 0.0000000 1.0000000 0.0000000
vn 0.0000000 -1.0000000 0.0000000
vn 0.0000000 -1.0000000 0.0000000
vn 0.0000000 -1.0000000 0.0000000
vn 0.0000000 -1.0000000 0.0000000
usemtl StoneDark
s off
f 1/1/1 2/2/2 3/3/3
f 1/1/1 3/3/3 4/4/4
f 5/5/5 6/6/6 7/7/7
f 5/5/5 7/7/7 8/8/8
f 9/9/9 10/10/10 11/11/11
f 9/9/9 11/11/11 12/12/12
f 13/13/13 14/14/14 15/15/15
f 13/13/13 15/15/15 16/16/16
f 17/17/17 18/18/18 19/19/19
f 17/17/17 19/19/19 20/20/20
f 21/21/21 22/22/22 23/23/23
f 21/21/21 23/23/23 24/24/24
f 99/99/99 98/98/98 100/100/100
f 100/100/100 97/97/97 99/99/99
f 100/100/100 98/98/98 101/101/101
f 101/101/101 97/97/97 100/100/100
f 101/101/101 98/98/98 102/102/102
f 102/102/102 97/97/97 101/101/101
f 102/102/102 98/98/98 103/103/103
f 103/103/103 97/97/97 102/102/102
f 103/103/103 98/98/98 99/99/99
f 99/99/99 97/97/97 103/103/103
f 113/113/113 112/112/112 114/114/114
f 114/114/114 111/111/111 113/113/113
f 114/114/114 112/112/112 115/115/115
f 115/115/115 111/111/111 114/114/114
f 115/115/115 112/112/112 116/116/116
f 116/116/116 111/111/111 115/115/115
f 116/116/116 112/112/112 117/117/117
f 117/117/117 111/111/111 116/116/116
f 117/117/117 112/112/112 113/113/113
f 113/113/113 111/111/111 117/117/117
f 127/127/127 126/126/126 128/128/128
f 128/128/128 125/125/125 127/127/127
f 128/128/128 126/126/126 129/129/129
f 129/129/129 125/125/125 128/128/128
f 129/129/129 126/126/126 130/130/130
f 130/130/130 125/125/125 129/129/129
f 130/130/130 126/126/126 131/131/131
f 131/131/131 125/125/125 130/130/130
f 131/131/131 126/126/126 127/127/127
f 127/127/127 125/125/125 131/131/131
f 141/141/141 140/140/140 142/142/142
f 142/142/142 139/139/139 141/141/141
f 142/142/142 140/140/140 143/143/143
f 143/143/143 139/139/139 142/142/142
f 143/143/143 140/140/140 144/144/144
f 144/144/144 139/139/139 143/143/143
f 144/144/144 140/140/140 145/145/145
f 145/145/145 139/139/139 144/144/144
f 145/145/145 140/140/140 141/141/141
f 141/141/141 139/139/139 145/145/145
usemtl PavingB
s off
f 25/25/25 26/26/26 27/27/27
f 25/25/25 27/27/27 28/28/28
f 29/29/29 30/30/30 31/31/31
f 29/29/29 31/31/31 32/32/32
f 33/33/33 34/34/34 35/35/35
f 33/33/33 35/35/35 36/36/36
f 37/37/37 38/38/38 39/39/39
f 37/37/37 39/39/39 40/40/40
f 41/41/41 42/42/42 43/43/43
f 41/41/41 43/43/43 44/44/44
f 45/45/45 46/46/46 47/47/47
f 45/45/45 47/47/47 48/48/48
usemtl Stone
s off
f 49/49/49 50/50/50 51/51/51
f 49/49/49 51/51/51 52/52/52
f 53/53/53 54/54/54 55/55/55
f 53/53/53 55/55/55 56/56/56
f 57/57/57 58/58/58 59/59/59
f 57/57/57 59/59/59 60/60/60
f 61/61/61 62/62/62 63/63/63
f 61/61/61 63/63/63 64/64/64
f 65/65/65 66/66/66 67/67/67
f 65/65/65 67/67/67 68/68/68
f 69/69/69 70/70/70 71/71/71
f 69/69/69 71/71/71 72/72/72
usemtl Gold
s off
f 73/73/73 74/74/74 75/75/75
f 73/73/73 75/75/75 76/76/76
f 77/77/77 78/78/78 79/79/79
f 77/77/77 79/79/79 80/80/80
f 81/81/81 82/82/82 83/83/83
f 81/81/81 83/83/83 84/84/84
f 85/85/85 86/86/86 87/87/87
f 85/85/85 87/87/87 88/88/88
f 89/89/89 90/90/90 91/91/91
f 89/89/89 91/91/91 92/92/92
f 93/93/93 94/94/94 95/95/95
f 93/93/93 95/95/95 96/96/96
f 170/170/170 171/171/171 172/172/172
f 170/170/170 172/172/172 173/173/173
f 174/174/174 175/175/175 176/176/176
f 174/174/174 176/176/176 177/177/177
f 178/178/178 179/179/179 180/180/180
f 178/178/178 180/180/180 181/181/181
f 182/182/182 183/183/183 184/184/184
f 182/182/182 184/184/184 185/185/185
f 186/186/186 187/187/187 188/188/188
f 186/186/186 188/188/188 189/189/189
f 190/190/190 191/191/191 192/192/192
f 190/190/190 192/192/192 193/193/193
f 194/194/194 195/195/195 196/196/196
f 194/194/194 196/196/196 197/197/197
f 198/198/198 199/199/199 200/200/200
f 198/198/198 200/200/200 201/201/201
f 202/202/202 203/203/203 204/204/204
f 202/202/202 204/204/204 205/205/205
f 206/206/206 207/207/207 208/208/208
f 206/206/206 208/208/208 209/209/209
f 210/210/210 211/211/211 212/212/212
f 210/210/210 212/212/212 213/213/213
f 214/214/214 215/215/215 216/216/216
f 214/214/214 216/216/216 217/217/217
f 218/218/218 219/219/219 220/220/220
f 218/218/218 220/220/220 221/221/221
f 222/222/222 223/223/223 224/224/224
f 222/222/222 224/224/224 225/225/225
f 226/226/226 227/227/227 228/228/228
f 226/226/226 228/228/228 229/229/229
f 230/230/230 231/231/231 232/232/232
f 230/230/230 232/232/232 233/233/233
f 234/234/234 235/235/235 236/236/236
f 234/234/234 236/236/236 237/237/237
f 238/238/238 239/239/239 240/240/240
f 238/238/238 240/240/240 241/241/241
f 242/242/242 243/243/243 244/244/244
f 242/242/242 244/244/244 245/245/245
f 246/246/246 247/247/247 248/248/248
f 246/246/246 248/248/248 249/249/249
f 250/250/250 251/251/251 252/252/252
f 250/250/250 252/252/252 253/253/253
f 254/254/254 255/255/255 256/256/256
f 254/254/254 256/256/256 257/257/257
f 258/258/258 259/259/259 260/260/260
f 258/258/258 260/260/260 261/261/261
f 262/262/262 263/263/263 264/264/264
f 262/262/262 264/264/264 265/265/265
f 266/266/266 267/267/267 268/268/268
f 266/266/266 268/268/268 269/269/269
f 270/270/270 271/271/271 272/272/272
f 270/270/270 272/272/272 273/273/273
f 274/274/274 275/275/275 276/276/276
f 274/274/274 276/276/276 277/277/277
f 278/278/278 279/279/279 280/280/280
f 278/278/278 280/280/280 281/281/281
f 282/282/282 283/283/283 284/284/284
f 282/282/282 284/284/284 285/285/285
f 286/286/286 287/287/287 288/288/288
f 286/286/286 288/288/288 289/289/289
f 290/290/290 291/291/291 292/292/292
f 290/290/290 292/292/292 293/293/293
f 294/294/294 295/295/295 296/296/296
f 294/294/294 296/296/296 297/297/297
f 298/298/298 299/299/299 300/300/300
f 298/298/298 300/300/300 301/301/301
f 302/302/302 303/303/303 304/304/304
f 302/302/302 304/304/304 305/305/305
f 306/306/306 307/307/307 308/308/308
f 306/306/306 308/308/308 309/309/309
f 310/310/310 311/311/311 312/312/312
f 310/310/310 312/312/312 313/313/313
f 314/314/314 315/315/315 316/316/316
f 314/314/314 316/316/316 317/317/317
f 318/318/318 319/319/319 320/320/320
f 318/318/318 320/320/320 321/321/321
f 322/322/322 323/323/323 324/324/324
f 322/322/322 324/324/324 325/325/325
f 326/326/326 327/327/327 328/328/328
f 326/326/326 328/328/328 329/329/329
f 330/330/330 331/331/331 332/332/332
f 330/330/330 332/332/332 333/333/333
f 334/334/334 335/335/335 336/336/336
f 334/334/334 336/336/336 337/337/337
usemtl StoneLight
s off
f 106/106/106 105/105/105 107/107/107
f 107/107/107 104/104/104 106/106/106
f 107/107/107 105/105/105 108/108/108
f 108/108/108 104/104/104 107/107/107
f 108/108/108 105/105/105 109/109/109
f 109/109/109 104/104/104 108/108/108
f 109/109/109 105/105/105 110/110/110
f 110/110/110 104/104/104 109/109/109
f 110/110/110 105/105/105 106/106/106
f 106/106/106 104/104/104 110/110/110
f 120/120/120 119/119/119 121/121/121
f 121/121/121 118/118/118 120/120/120
f 121/121/121 119/119/119 122/122/122
f 122/122/122 118/118/118 121/121/121
f 122/122/122 119/119/119 123/123/123
f 123/123/123 118/118/118 122/122/122
f 123/123/123 119/119/119 124/124/124
f 124/124/124 118/118/118 123/123/123
f 124/124/124 119/119/119 120/120/120
f 120/120/120 118/118/118 124/124/124
f 134/134/134 133/133/133 135/135/135
f 135/135/135 132/132/132 134/134/134
f 135/135/135 133/133/133 136/136/136
f 136/136/136 132/132/132 135/135/135
f 136/136/136 133/133/133 137/137/137
f 137/137/137 132/132/132 136/136/136
f 137/137/137 133/133/133 138/138/138
f 138/138/138 132/132/132 137/137/137
f 138/138/138 133/133/133 134/134/134
f 134/134/134 132/132/132 138/138/138
usemtl GateGlow
s off
f 148/148/148 147/147/147 149/149/149
f 149/149/149 146/146/146 148/148/148
f 149/149/149 147/147/147 150/150/150
f 150/150/150 146/146/146 149/149/149
f 150/150/150 147/147/147 151/151/151
f 151/151/151 146/146/146 150/150/150
f 151/151/151 147/147/147 152/152/152
f 152/152/152 146/146/146 151/151/151
f 152/152/152 147/147/147 153/153/153
f 153/153/153 146/146/146 152/152/152
f 153/153/153 147/147/147 148/148/148
f 148/148/148 146/146/146 153/153/153
f 156/156/156 155/155/155 157/157/157
f 157/157/157 154/154/154 156/156/156
f 157/157/157 155/155/155 158/158/158
f 158/158/158 154/154/154 157/157/157
f 158/158/158 155/155/155 159/159/159
f 159/159/159 154/154/154 158/158/158
f 159/159/159 155/155/155 160/160/160
f 160/160/160 154/154/154 159/159/159
f 160/160/160 155/155/155 161/161/161
f 161/161/161 154/154/154 160/160/160
f 161/161/161 155/155/155 156/156/156
f 156/156/156 154/154/154 161/161/161
f 164/164/164 163/163/163 165/165/165
f 165/165/165 162/162/162 164/164/164
f 165/165/165 163/163/163 166/166/166
f 166/166/166 162/162/162 165/165/165
f 166/166/166 163/163/163 167/167/167
f 167/167/167 162/162/162 166/166/166
f 167/167/167 163/163/163 168/168/168
f 168/168/168 162/162/162 167/167/167
f 168/168/168 163/163/163 169/169/169
f 169/169/169 162/162/162 168/168/168
f 169/169/169 163/163/163 164/164/164
f 164/164/164 162/162/162 169/169/169
