# CG2 Stage 3 High Crown
mtllib high_crown.mtl
o high_crown_gate_frame
v -8.6100000 0.0000000 1.5200000
v -5.8900000 0.0000000 1.5200000
v -5.8900000 7.3000000 1.5200000
v -8.6100000 7.3000000 1.5200000
v -5.8900000 0.0000000 -1.5200000
v -8.6100000 0.0000000 -1.5200000
v -8.6100000 7.3000000 -1.5200000
v -5.8900000 7.3000000 -1.5200000
v -5.8900000 0.0000000 1.5200000
v -5.8900000 0.0000000 -1.5200000
v -5.8900000 7.3000000 -1.5200000
v -5.8900000 7.3000000 1.5200000
v -8.6100000 0.0000000 -1.5200000
v -8.6100000 0.0000000 1.5200000
v -8.6100000 7.3000000 1.5200000
v -8.6100000 7.3000000 -1.5200000
v -8.6100000 7.3000000 1.5200000
v -5.8900000 7.3000000 1.5200000
v -5.8900000 7.3000000 -1.5200000
v -8.6100000 7.3000000 -1.5200000
v -8.6100000 0.0000000 -1.5200000
v -5.8900000 0.0000000 -1.5200000
v -5.8900000 0.0000000 1.5200000
v -8.6100000 0.0000000 1.5200000
v -8.8700000 0.0000000 1.9600000
v -5.6300000 0.0000000 1.9600000
v -5.6300000 0.6400000 1.9600000
v -8.8700000 0.6400000 1.9600000
v -5.6300000 0.0000000 -1.4800000
v -8.8700000 0.0000000 -1.4800000
v -8.8700000 0.6400000 -1.4800000
v -5.6300000 0.6400000 -1.4800000
v -5.6300000 0.0000000 1.9600000
v -5.6300000 0.0000000 -1.4800000
v -5.6300000 0.6400000 -1.4800000
v -5.6300000 0.6400000 1.9600000
v -8.8700000 0.0000000 -1.4800000
v -8.8700000 0.0000000 1.9600000
v -8.8700000 0.6400000 1.9600000
v -8.8700000 0.6400000 -1.4800000
v -8.8700000 0.6400000 1.9600000
v -5.6300000 0.6400000 1.9600000
v -5.6300000 0.6400000 -1.4800000
v -8.8700000 0.6400000 -1.4800000
v -8.8700000 0.0000000 -1.4800000
v -5.6300000 0.0000000 -1.4800000
v -5.6300000 0.0000000 1.9600000
v -8.8700000 0.0000000 1.9600000
v -8.3300000 2.0300000 1.5400000
v -6.1700000 2.0300000 1.5400000
v -6.1700000 2.2700000 1.5400000
v -8.3300000 2.2700000 1.5400000
v -6.1700000 2.0300000 1.3000000
v -8.3300000 2.0300000 1.3000000
v -8.3300000 2.2700000 1.3000000
v -6.1700000 2.2700000 1.3000000
v -6.1700000 2.0300000 1.5400000
v -6.1700000 2.0300000 1.3000000
v -6.1700000 2.2700000 1.3000000
v -6.1700000 2.2700000 1.5400000
v -8.3300000 2.0300000 1.3000000
v -8.3300000 2.0300000 1.5400000
v -8.3300000 2.2700000 1.5400000
v -8.3300000 2.2700000 1.3000000
v -8.3300000 2.2700000 1.5400000
v -6.1700000 2.2700000 1.5400000
v -6.1700000 2.2700000 1.3000000
v -8.3300000 2.2700000 1.3000000
v -8.3300000 2.0300000 1.3000000
v -6.1700000 2.0300000 1.3000000
v -6.1700000 2.0300000 1.5400000
v -8.3300000 2.0300000 1.5400000
v -8.3300000 4.3300000 1.5400000
v -6.1700000 4.3300000 1.5400000
v -6.1700000 4.5700000 1.5400000
v -8.3300000 4.5700000 1.5400000
v -6.1700000 4.3300000 1.3000000
v -8.3300000 4.3300000 1.3000000
v -8.3300000 4.5700000 1.3000000
v -6.1700000 4.5700000 1.3000000
v -6.1700000 4.3300000 1.5400000
v -6.1700000 4.3300000 1.3000000
v -6.1700000 4.5700000 1.3000000
v -6.1700000 4.5700000 1.5400000
v -8.3300000 4.3300000 1.3000000
v -8.3300000 4.3300000 1.5400000
v -8.3300000 4.5700000 1.5400000
v -8.3300000 4.5700000 1.3000000
v -8.3300000 4.5700000 1.5400000
v -6.1700000 4.5700000 1.5400000
v -6.1700000 4.5700000 1.3000000
v -8.3300000 4.5700000 1.3000000
v -8.3300000 4.3300000 1.3000000
v -6.1700000 4.3300000 1.3000000
v -6.1700000 4.3300000 1.5400000
v -8.3300000 4.3300000 1.5400000
v -8.9100000 7.1600000 1.7200000
v -5.5900000 7.1600000 1.7200000
v -5.5900000 7.6000000 1.7200000
v -8.9100000 7.6000000 1.7200000
v -5.5900000 7.1600000 -1.7200000
v -8.9100000 7.1600000 -1.7200000
v -8.9100000 7.6000000 -1.7200000
v -5.5900000 7.6000000 -1.7200000
v -5.5900000 7.1600000 1.7200000
v -5.5900000 7.1600000 -1.7200000
v -5.5900000 7.6000000 -1.7200000
v -5.5900000 7.6000000 1.7200000
v -8.9100000 7.1600000 -1.7200000
v -8.9100000 7.1600000 1.7200000
v -8.9100000 7.6000000 1.7200000
v -8.9100000 7.6000000 -1.7200000
v -8.9100000 7.6000000 1.7200000
v -5.5900000 7.6000000 1.7200000
v -5.5900000 7.6000000 -1.7200000
v -8.9100000 7.6000000 -1.7200000
v -8.9100000 7.1600000 -1.7200000
v -5.5900000 7.1600000 -1.7200000
v -5.5900000 7.1600000 1.7200000
v -8.9100000 7.1600000 1.7200000
v -8.5100000 7.6200000 1.3000000
v -5.9900000 7.6200000 1.3000000
v -5.9900000 8.0200000 1.3000000
v -8.5100000 8.0200000 1.3000000
v -5.9900000 7.6200000 -1.3000000
v -8.5100000 7.6200000 -1.3000000
v -8.5100000 8.0200000 -1.3000000
v -5.9900000 8.0200000 -1.3000000
v -5.9900000 7.6200000 1.3000000
v -5.9900000 7.6200000 -1.3000000
v -5.9900000 8.0200000 -1.3000000
v -5.9900000 8.0200000 1.3000000
v -8.5100000 7.6200000 -1.3000000
v -8.5100000 7.6200000 1.3000000
v -8.5100000 8.0200000 1.3000000
v -8.5100000 8.0200000 -1.3000000
v -8.5100000 8.0200000 1.3000000
v -5.9900000 8.0200000 1.3000000
v -5.9900000 8.0200000 -1.3000000
v -8.5100000 8.0200000 -1.3000000
v -8.5100000 7.6200000 -1.3000000
v -5.9900000 7.6200000 -1.3000000
v -5.9900000 7.6200000 1.3000000
v -8.5100000 7.6200000 1.3000000
v -7.8700000 2.8200000 1.4700000
v -6.6300000 2.8200000 1.4700000
v -6.6300000 5.3800000 1.4700000
v -7.8700000 5.3800000 1.4700000
v -6.6300000 2.8200000 1.3700000
v -7.8700000 2.8200000 1.3700000
v -7.8700000 5.3800000 1.3700000
v -6.6300000 5.3800000 1.3700000
v -6.6300000 2.8200000 1.4700000
v -6.6300000 2.8200000 1.3700000
v -6.6300000 5.3800000 1.3700000
v -6.6300000 5.3800000 1.4700000
v -7.8700000 2.8200000 1.3700000
v -7.8700000 2.8200000 1.4700000
v -7.8700000 5.3800000 1.4700000
v -7.8700000 5.3800000 1.3700000
v -7.8700000 5.3800000 1.4700000
v -6.6300000 5.3800000 1.4700000
v -6.6300000 5.3800000 1.3700000
v -7.8700000 5.3800000 1.3700000
v -7.8700000 2.8200000 1.3700000
v -6.6300000 2.8200000 1.3700000
v -6.6300000 2.8200000 1.4700000
v -7.8700000 2.8200000 1.4700000
v -7.9700000 5.3500000 1.5700000
v -6.5300000 5.3500000 1.5700000
v -6.5300000 5.4900000 1.5700000
v -7.9700000 5.4900000 1.5700000
v -6.5300000 5.3500000 1.3700000
v -7.9700000 5.3500000 1.3700000
v -7.9700000 5.4900000 1.3700000
v -6.5300000 5.4900000 1.3700000
v -6.5300000 5.3500000 1.5700000
v -6.5300000 5.3500000 1.3700000
v -6.5300000 5.4900000 1.3700000
v -6.5300000 5.4900000 1.5700000
v -7.9700000 5.3500000 1.3700000
v -7.9700000 5.3500000 1.5700000
v -7.9700000 5.4900000 1.5700000
v -7.9700000 5.4900000 1.3700000
v -7.9700000 5.4900000 1.5700000
v -6.5300000 5.4900000 1.5700000
v -6.5300000 5.4900000 1.3700000
v -7.9700000 5.4900000 1.3700000
v -7.9700000 5.3500000 1.3700000
v -6.5300000 5.3500000 1.3700000
v -6.5300000 5.3500000 1.5700000
v -7.9700000 5.3500000 1.5700000
v -7.2500000 7.9804000 0.0000000
v -7.2500000 9.3604000 0.0000000
v -6.7300000 8.5600000 0.0000000
v -7.0893112 8.5600000 0.4945494
v -7.6706888 8.5600000 0.3056483
v -7.6706888 8.5600000 -0.3056483
v -7.0893112 8.5600000 -0.4945494
v -11.2800000 0.0000000 1.4800000
v -8.5200000 0.0000000 1.4800000
v -8.5200000 4.4000000 1.4800000
v -11.2800000 4.4000000 1.4800000
v -8.5200000 0.0000000 -0.9200000
v -11.2800000 0.0000000 -0.9200000
v -11.2800000 4.4000000 -0.9200000
v -8.5200000 4.4000000 -0.9200000
v -8.5200000 0.0000000 1.4800000
v -8.5200000 0.0000000 -0.9200000
v -8.5200000 4.4000000 -0.9200000
v -8.5200000 4.4000000 1.4800000
v -11.2800000 0.0000000 -0.9200000
v -11.2800000 0.0000000 1.4800000
v -11.2800000 4.4000000 1.4800000
v -11.2800000 4.4000000 -0.9200000
v -11.2800000 4.4000000 1.4800000
v -8.5200000 4.4000000 1.4800000
v -8.5200000 4.4000000 -0.9200000
v -11.2800000 4.4000000 -0.9200000
v -11.2800000 0.0000000 -0.9200000
v -8.5200000 0.0000000 -0.9200000
v -8.5200000 0.0000000 1.4800000
v -11.2800000 0.0000000 1.4800000
v -11.4600000 4.3300000 1.6000000
v -8.3400000 4.3300000 1.6000000
v -8.3400000 4.6300000 1.6000000
v -11.4600000 4.6300000 1.6000000
v -8.3400000 4.3300000 -1.0400000
v -11.4600000 4.3300000 -1.0400000
v -11.4600000 4.6300000 -1.0400000
v -8.3400000 4.6300000 -1.0400000
v -8.3400000 4.3300000 1.6000000
v -8.3400000 4.3300000 -1.0400000
v -8.3400000 4.6300000 -1.0400000
v -8.3400000 4.6300000 1.6000000
v -11.4600000 4.3300000 -1.0400000
v -11.4600000 4.3300000 1.6000000
v -11.4600000 4.6300000 1.6000000
v -11.4600000 4.6300000 -1.0400000
v -11.4600000 4.6300000 1.6000000
v -8.3400000 4.6300000 1.6000000
v -8.3400000 4.6300000 -1.0400000
v -11.4600000 4.6300000 -1.0400000
v -11.4600000 4.3300000 -1.0400000
v -8.3400000 4.3300000 -1.0400000
v -8.3400000 4.3300000 1.6000000
v -11.4600000 4.3300000 1.6000000
v 5.8900000 0.0000000 1.5200000
v 8.6100000 0.0000000 1.5200000
v 8.6100000 7.3000000 1.5200000
v 5.8900000 7.3000000 1.5200000
v 8.6100000 0.0000000 -1.5200000
v 5.8900000 0.0000000 -1.5200000
v 5.8900000 7.3000000 -1.5200000
v 8.6100000 7.3000000 -1.5200000
v 8.6100000 0.0000000 1.5200000
v 8.6100000 0.0000000 -1.5200000
v 8.6100000 7.3000000 -1.5200000
v 8.6100000 7.3000000 1.5200000
v 5.8900000 0.0000000 -1.5200000
v 5.8900000 0.0000000 1.5200000
v 5.8900000 7.3000000 1.5200000
v 5.8900000 7.3000000 -1.5200000
v 5.8900000 7.3000000 1.5200000
v 8.6100000 7.3000000 1.5200000
v 8.6100000 7.3000000 -1.5200000
v 5.8900000 7.3000000 -1.5200000
v 5.8900000 0.0000000 -1.5200000
v 8.6100000 0.0000000 -1.5200000
v 8.6100000 0.0000000 1.5200000
v 5.8900000 0.0000000 1.5200000
v 5.6300000 0.0000000 1.9600000
v 8.8700000 0.0000000 1.9600000
v 8.8700000 0.6400000 1.9600000
v 5.6300000 0.6400000 1.9600000
v 8.8700000 0.0000000 -1.4800000
v 5.6300000 0.0000000 -1.4800000
v 5.6300000 0.6400000 -1.4800000
v 8.8700000 0.6400000 -1.4800000
v 8.8700000 0.0000000 1.9600000
v 8.8700000 0.0000000 -1.4800000
v 8.8700000 0.6400000 -1.4800000
v 8.8700000 0.6400000 1.9600000
v 5.6300000 0.0000000 -1.4800000
v 5.6300000 0.0000000 1.9600000
v 5.6300000 0.6400000 1.9600000
v 5.6300000 0.6400000 -1.4800000
v 5.6300000 0.6400000 1.9600000
v 8.8700000 0.6400000 1.9600000
v 8.8700000 0.6400000 -1.4800000
v 5.6300000 0.6400000 -1.4800000
v 5.6300000 0.0000000 -1.4800000
v 8.8700000 0.0000000 -1.4800000
v 8.8700000 0.0000000 1.9600000
v 5.6300000 0.0000000 1.9600000
v 6.1700000 2.0300000 1.5400000
v 8.3300000 2.0300000 1.5400000
v 8.3300000 2.2700000 1.5400000
v 6.1700000 2.2700000 1.5400000
v 8.3300000 2.0300000 1.3000000
v 6.1700000 2.0300000 1.3000000
v 6.1700000 2.2700000 1.3000000
v 8.3300000 2.2700000 1.3000000
v 8.3300000 2.0300000 1.5400000
v 8.3300000 2.0300000 1.3000000
v 8.3300000 2.2700000 1.3000000
v 8.3300000 2.2700000 1.5400000
v 6.1700000 2.0300000 1.3000000
v 6.1700000 2.0300000 1.5400000
v 6.1700000 2.2700000 1.5400000
v 6.1700000 2.2700000 1.3000000
v 6.1700000 2.2700000 1.5400000
v 8.3300000 2.2700000 1.5400000
v 8.3300000 2.2700000 1.3000000
v 6.1700000 2.2700000 1.3000000
v 6.1700000 2.0300000 1.3000000
v 8.3300000 2.0300000 1.3000000
v 8.3300000 2.0300000 1.5400000
v 6.1700000 2.0300000 1.5400000
v 6.1700000 4.3300000 1.5400000
v 8.3300000 4.3300000 1.5400000
v 8.3300000 4.5700000 1.5400000
v 6.1700000 4.5700000 1.5400000
v 8.3300000 4.3300000 1.3000000
v 6.1700000 4.3300000 1.3000000
v 6.1700000 4.5700000 1.3000000
v 8.3300000 4.5700000 1.3000000
v 8.3300000 4.3300000 1.5400000
v 8.3300000 4.3300000 1.3000000
v 8.3300000 4.5700000 1.3000000
v 8.3300000 4.5700000 1.5400000
v 6.1700000 4.3300000 1.3000000
v 6.1700000 4.3300000 1.5400000
v 6.1700000 4.5700000 1.5400000
v 6.1700000 4.5700000 1.3000000
v 6.1700000 4.5700000 1.5400000
v 8.3300000 4.5700000 1.5400000
v 8.3300000 4.5700000 1.3000000
v 6.1700000 4.5700000 1.3000000
v 6.1700000 4.3300000 1.3000000
v 8.3300000 4.3300000 1.3000000
v 8.3300000 4.3300000 1.5400000
v 6.1700000 4.3300000 1.5400000
v 5.5900000 7.1600000 1.7200000
v 8.9100000 7.1600000 1.7200000
v 8.9100000 7.6000000 1.7200000
v 5.5900000 7.6000000 1.7200000
v 8.9100000 7.1600000 -1.7200000
v 5.5900000 7.1600000 -1.7200000
v 5.5900000 7.6000000 -1.7200000
v 8.9100000 7.6000000 -1.7200000
v 8.9100000 7.1600000 1.7200000
v 8.9100000 7.1600000 -1.7200000
v 8.9100000 7.6000000 -1.7200000
v 8.9100000 7.6000000 1.7200000
v 5.5900000 7.1600000 -1.7200000
v 5.5900000 7.1600000 1.7200000
v 5.5900000 7.6000000 1.7200000
v 5.5900000 7.6000000 -1.7200000
v 5.5900000 7.6000000 1.7200000
v 8.9100000 7.6000000 1.7200000
v 8.9100000 7.6000000 -1.7200000
v 5.5900000 7.6000000 -1.7200000
v 5.5900000 7.1600000 -1.7200000
v 8.9100000 7.1600000 -1.7200000
v 8.9100000 7.1600000 1.7200000
v 5.5900000 7.1600000 1.7200000
v 5.9900000 7.6200000 1.3000000
v 8.5100000 7.6200000 1.3000000
v 8.5100000 8.0200000 1.3000000
v 5.9900000 8.0200000 1.3000000
v 8.5100000 7.6200000 -1.3000000
v 5.9900000 7.6200000 -1.3000000
v 5.9900000 8.0200000 -1.3000000
v 8.5100000 8.0200000 -1.3000000
v 8.5100000 7.6200000 1.3000000
v 8.5100000 7.6200000 -1.3000000
v 8.5100000 8.0200000 -1.3000000
v 8.5100000 8.0200000 1.3000000
v 5.9900000 7.6200000 -1.3000000
v 5.9900000 7.6200000 1.3000000
v 5.9900000 8.0200000 1.3000000
v 5.9900000 8.0200000 -1.3000000
v 5.9900000 8.0200000 1.3000000
v 8.5100000 8.0200000 1.3000000
v 8.5100000 8.0200000 -1.3000000
v 5.9900000 8.0200000 -1.3000000
v 5.9900000 7.6200000 -1.3000000
v 8.5100000 7.6200000 -1.3000000
v 8.5100000 7.6200000 1.3000000
v 5.9900000 7.6200000 1.3000000
v 6.6300000 2.8200000 1.4700000
v 7.8700000 2.8200000 1.4700000
v 7.8700000 5.3800000 1.4700000
v 6.6300000 5.3800000 1.4700000
v 7.8700000 2.8200000 1.3700000
v 6.6300000 2.8200000 1.3700000
v 6.6300000 5.3800000 1.3700000
v 7.8700000 5.3800000 1.3700000
v 7.8700000 2.8200000 1.4700000
v 7.8700000 2.8200000 1.3700000
v 7.8700000 5.3800000 1.3700000
v 7.8700000 5.3800000 1.4700000
v 6.6300000 2.8200000 1.3700000
v 6.6300000 2.8200000 1.4700000
v 6.6300000 5.3800000 1.4700000
v 6.6300000 5.3800000 1.3700000
v 6.6300000 5.3800000 1.4700000
v 7.8700000 5.3800000 1.4700000
v 7.8700000 5.3800000 1.3700000
v 6.6300000 5.3800000 1.3700000
v 6.6300000 2.8200000 1.3700000
v 7.8700000 2.8200000 1.3700000
v 7.8700000 2.8200000 1.4700000
v 6.6300000 2.8200000 1.4700000
v 6.5300000 5.3500000 1.5700000
v 7.9700000 5.3500000 1.5700000
v 7.9700000 5.4900000 1.5700000
v 6.5300000 5.4900000 1.5700000
v 7.9700000 5.3500000 1.3700000
v 6.5300000 5.3500000 1.3700000
v 6.5300000 5.4900000 1.3700000
v 7.9700000 5.4900000 1.3700000
v 7.9700000 5.3500000 1.5700000
v 7.9700000 5.3500000 1.3700000
v 7.9700000 5.4900000 1.3700000
v 7.9700000 5.4900000 1.5700000
v 6.5300000 5.3500000 1.3700000
v 6.5300000 5.3500000 1.5700000
v 6.5300000 5.4900000 1.5700000
v 6.5300000 5.4900000 1.3700000
v 6.5300000 5.4900000 1.5700000
v 7.9700000 5.4900000 1.5700000
v 7.9700000 5.4900000 1.3700000
v 6.5300000 5.4900000 1.3700000
v 6.5300000 5.3500000 1.3700000
v 7.9700000 5.3500000 1.3700000
v 7.9700000 5.3500000 1.5700000
v 6.5300000 5.3500000 1.5700000
v 7.2500000 7.9804000 0.0000000
v 7.2500000 9.3604000 0.0000000
v 7.7700000 8.5600000 0.0000000
v 7.4106888 8.5600000 0.4945494
v 6.8293112 8.5600000 0.3056483
v 6.8293112 8.5600000 -0.3056483
v 7.4106888 8.5600000 -0.4945494
v 8.5200000 0.0000000 1.4800000
v 11.2800000 0.0000000 1.4800000
v 11.2800000 4.4000000 1.4800000
v 8.5200000 4.4000000 1.4800000
v 11.2800000 0.0000000 -0.9200000
v 8.5200000 0.0000000 -0.9200000
v 8.5200000 4.4000000 -0.9200000
v 11.2800000 4.4000000 -0.9200000
v 11.2800000 0.0000000 1.4800000
v 11.2800000 0.0000000 -0.9200000
v 11.2800000 4.4000000 -0.9200000
v 11.2800000 4.4000000 1.4800000
v 8.5200000 0.0000000 -0.9200000
v 8.5200000 0.0000000 1.4800000
v 8.5200000 4.4000000 1.4800000
v 8.5200000 4.4000000 -0.9200000
v 8.5200000 4.4000000 1.4800000
v 11.2800000 4.4000000 1.4800000
v 11.2800000 4.4000000 -0.9200000
v 8.5200000 4.4000000 -0.9200000
v 8.5200000 0.0000000 -0.9200000
v 11.2800000 0.0000000 -0.9200000
v 11.2800000 0.0000000 1.4800000
v 8.5200000 0.0000000 1.4800000
v 8.3400000 4.3300000 1.6000000
v 11.4600000 4.3300000 1.6000000
v 11.4600000 4.6300000 1.6000000
v 8.3400000 4.6300000 1.6000000
v 11.4600000 4.3300000 -1.0400000
v 8.3400000 4.3300000 -1.0400000
v 8.3400000 4.6300000 -1.0400000
v 11.4600000 4.6300000 -1.0400000
v 11.4600000 4.3300000 1.6000000
v 11.4600000 4.3300000 -1.0400000
v 11.4600000 4.6300000 -1.0400000
v 11.4600000 4.6300000 1.6000000
v 8.3400000 4.3300000 -1.0400000
v 8.3400000 4.3300000 1.6000000
v 8.3400000 4.6300000 1.6000000
v 8.3400000 4.6300000 -1.0400000
v 8.3400000 4.6300000 1.6000000
v 11.4600000 4.6300000 1.6000000
v 11.4600000 4.6300000 -1.0400000
v 8.3400000 4.6300000 -1.0400000
v 8.3400000 4.3300000 -1.0400000
v 11.4600000 4.3300000 -1.0400000
v 11.4600000 4.3300000 1.6000000
v 8.3400000 4.3300000 1.6000000
v -6.1800000 7.0900000 1.0000000
v 6.1800000 7.0900000 1.0000000
v 6.1800000 8.0100000 1.0000000
v -6.1800000 8.0100000 1.0000000
v 6.1800000 7.0900000 -1.0000000
v -6.1800000 7.0900000 -1.0000000
v -6.1800000 8.0100000 -1.0000000
v 6.1800000 8.0100000 -1.0000000
v 6.1800000 7.0900000 1.0000000
v 6.1800000 7.0900000 -1.0000000
v 6.1800000 8.0100000 -1.0000000
v 6.1800000 8.0100000 1.0000000
v -6.1800000 7.0900000 -1.0000000
v -6.1800000 7.0900000 1.0000000
v -6.1800000 8.0100000 1.0000000
v -6.1800000 8.0100000 -1.0000000
v -6.1800000 8.0100000 1.0000000
v 6.1800000 8.0100000 1.0000000
v 6.1800000 8.0100000 -1.0000000
v -6.1800000 8.0100000 -1.0000000
v -6.1800000 7.0900000 -1.0000000
v 6.1800000 7.0900000 -1.0000000
v 6.1800000 7.0900000 1.0000000
v -6.1800000 7.0900000 1.0000000
v -6.0200000 7.3200000 1.1200000
v 6.0200000 7.3200000 1.1200000
v 6.0200000 7.6400000 1.1200000
v -6.0200000 7.6400000 1.1200000
v 6.0200000 7.3200000 0.9200000
v -6.0200000 7.3200000 0.9200000
v -6.0200000 7.6400000 0.9200000
v 6.0200000 7.6400000 0.9200000
v 6.0200000 7.3200000 1.1200000
v 6.0200000 7.3200000 0.9200000
v 6.0200000 7.6400000 0.9200000
v 6.0200000 7.6400000 1.1200000
v -6.0200000 7.3200000 0.9200000
v -6.0200000 7.3200000 1.1200000
v -6.0200000 7.6400000 1.1200000
v -6.0200000 7.6400000 0.9200000
v -6.0200000 7.6400000 1.1200000
v 6.0200000 7.6400000 1.1200000
v 6.0200000 7.6400000 0.9200000
v -6.0200000 7.6400000 0.9200000
v -6.0200000 7.3200000 0.9200000
v 6.0200000 7.3200000 0.9200000
v 6.0200000 7.3200000 1.1200000
v -6.0200000 7.3200000 1.1200000
v -6.4800000 7.9600000 1.0800000
v 6.4800000 7.9600000 1.0800000
v 6.4800000 8.2000000 1.0800000
v -6.4800000 8.2000000 1.0800000
v 6.4800000 7.9600000 -1.0800000
v -6.4800000 7.9600000 -1.0800000
v -6.4800000 8.2000000 -1.0800000
v 6.4800000 8.2000000 -1.0800000
v 6.4800000 7.9600000 1.0800000
v 6.4800000 7.9600000 -1.0800000
v 6.4800000 8.2000000 -1.0800000
v 6.4800000 8.2000000 1.0800000
v -6.4800000 7.9600000 -1.0800000
v -6.4800000 7.9600000 1.0800000
v -6.4800000 8.2000000 1.0800000
v -6.4800000 8.2000000 -1.0800000
v -6.4800000 8.2000000 1.0800000
v 6.4800000 8.2000000 1.0800000
v 6.4800000 8.2000000 -1.0800000
v -6.4800000 8.2000000 -1.0800000
v -6.4800000 7.9600000 -1.0800000
v 6.4800000 7.9600000 -1.0800000
v 6.4800000 7.9600000 1.0800000
v -6.4800000 7.9600000 1.0800000
v -6.7000000 8.2300000 1.1400000
v 6.7000000 8.2300000 1.1400000
v 6.7000000 8.5300000 1.1400000
v -6.7000000 8.5300000 1.1400000
v 6.7000000 8.2300000 -1.1400000
v -6.7000000 8.2300000 -1.1400000
v -6.7000000 8.5300000 -1.1400000
v 6.7000000 8.5300000 -1.1400000
v 6.7000000 8.2300000 1.1400000
v 6.7000000 8.2300000 -1.1400000
v 6.7000000 8.5300000 -1.1400000
v 6.7000000 8.5300000 1.1400000
v -6.7000000 8.2300000 -1.1400000
v -6.7000000 8.2300000 1.1400000
v -6.7000000 8.5300000 1.1400000
v -6.7000000 8.5300000 -1.1400000
v -6.7000000 8.5300000 1.1400000
v 6.7000000 8.5300000 1.1400000
v 6.7000000 8.5300000 -1.1400000
v -6.7000000 8.5300000 -1.1400000
v -6.7000000 8.2300000 -1.1400000
v 6.7000000 8.2300000 -1.1400000
v 6.7000000 8.2300000 1.1400000
v -6.7000000 8.2300000 1.1400000
v -5.2500000 8.4560000 0.0000000
v -5.2500000 9.1560000 0.0000000
v -5.0100000 8.7500000 0.0000000
v -5.2500000 8.7500000 0.2400000
v -5.4900000 8.7500000 0.0000000
v -5.2500000 8.7500000 -0.2400000
v -2.6200000 8.4560000 0.0000000
v -2.6200000 9.1560000 0.0000000
v -2.3800000 8.7500000 0.0000000
v -2.6200000 8.7500000 0.2400000
v -2.8600000 8.7500000 0.0000000
v -2.6200000 8.7500000 -0.2400000
v 0.0000000 8.4560000 0.0000000
v 0.0000000 9.1560000 0.0000000
v 0.2400000 8.7500000 0.0000000
v 0.0000000 8.7500000 0.2400000
v -0.2400000 8.7500000 0.0000000
v -0.0000000 8.7500000 -0.2400000
v 2.6200000 8.4560000 0.0000000
v 2.6200000 9.1560000 0.0000000
v 2.8600000 8.7500000 0.0000000
v 2.6200000 8.7500000 0.2400000
v 2.3800000 8.7500000 0.0000000
v 2.6200000 8.7500000 -0.2400000
v 5.2500000 8.4560000 0.0000000
v 5.2500000 9.1560000 0.0000000
v 5.4900000 8.7500000 0.0000000
v 5.2500000 8.7500000 0.2400000
v 5.0100000 8.7500000 0.0000000
v 5.2500000 8.7500000 -0.2400000
vt 0.0000000 1.0000000
vt 1.0000000 1.0000000
vt 1.0000000 0.0000000
vt 0.0000000 0.0000000
vt 0.0000000 1.0000000
vt 1.0000000 1.0000000
vt 1.0000000 0.0000000
vt 0.0000000 0.0000000
vt 0.0000000 1.0000000
vt 1.0000000 1.0000000
vt 1.0000000 0.0000000
vt 0.0000000 0.0000000
vt 0.0000000 1.0000000
vt 1.0000000 1.0000000
vt 1.0000000 0.0000000
vt 0.0000000 0.0000000
vt 0.0000000 1.0000000
vt 1.0000000 1.0000000
vt 1.0000000 0.0000000
vt 0.0000000 0.0000000
vt 0.0000000 1.0000000
vt 1.0000000 1.0000000
vt 1.0000000 0.0000000
vt 0.0000000 0.0000000
vt 0.0000000 1.0000000
vt 1.0000000 1.0000000
vt 1.0000000 0.0000000
vt 0.0000000 0.0000000
vt 0.0000000 1.0000000
vt 1.0000000 1.0000000
vt 1.0000000 0.0000000
vt 0.0000000 0.0000000
vt 0.0000000 1.0000000
vt 1.0000000 1.0000000
vt 1.0000000 0.0000000
vt 0.0000000 0.0000000
vt 0.0000000 1.0000000
vt 1.0000000 1.0000000
vt 1.0000000 0.0000000
vt 0.0000000 0.0000000
vt 0.0000000 1.0000000
vt 1.0000000 1.0000000
vt 1.0000000 0.0000000
vt 0.0000000 0.0000000
vt 0.0000000 1.0000000
vt 1.0000000 1.0000000
vt 1.0000000 0.0000000
vt 0.0000000 0.0000000
vt 0.0000000 1.0000000
vt 1.0000000 1.0000000
vt 1.0000000 0.0000000
vt 0.0000000 0.0000000
vt 0.0000000 1.0000000
vt 1.0000000 1.0000000
vt 1.0000000 0.0000000
vt 0.0000000 0.0000000
vt 0.0000000 1.0000000
vt 1.0000000 1.0000000
vt 1.0000000 0.0000000
vt 0.0000000 0.0000000
vt 0.0000000 1.0000000
vt 1.0000000 1.0000000
vt 1.0000000 0.0000000
vt 0.0000000 0.0000000
vt 0.0000000 1.0000000
vt 1.0000000 1.0000000
vt 1.0000000 0.0000000
vt 0.0000000 0.0000000
vt 0.0000000 1.0000000
vt 1.0000000 1.0000000
vt 1.0000000 0.0000000
vt 0.0000000 0.0000000
vt 0.0000000 1.0000000
vt 1.0000000 1.0000000
vt 1.0000000 0.0000000
vt 0.0000000 0.0000000
vt 0.0000000 1.0000000
vt 1.0000000 1.0000000
vt 1.0000000 0.0000000
vt 0.0000000 0.0000000
vt 0.0000000 1.0000000
vt 1.0000000 1.0000000
vt 1.0000000 0.0000000
vt 0.0000000 0.0000000
vt 0.0000000 1.0000000
vt 1.0000000 1.0000000
vt 1.0000000 0.0000000
vt 0.0000000 0.0000000
vt 0.0000000 1.0000000
vt 1.0000000 1.0000000
vt 1.0000000 0.0000000
vt 0.0000000 0.0000000
vt 0.0000000 1.0000000
vt 1.0000000 1.0000000
vt 1.0000000 0.0000000
vt 0.0000000 0.0000000
vt 0.0000000 1.0000000
vt 1.0000000 1.0000000
vt 1.0000000 0.0000000
vt 0.0000000 0.0000000
vt 0.0000000 1.0000000
vt 1.0000000 1.0000000
vt 1.0000000 0.0000000
vt 0.0000000 0.0000000
vt 0.0000000 1.0000000
vt 1.0000000 1.0000000
vt 1.0000000 0.0000000
vt 0.0000000 0.0000000
vt 0.0000000 1.0000000
vt 1.0000000 1.0000000
vt 1.0000000 0.0000000
vt 0.0000000 0.0000000
vt 0.0000000 1.0000000
vt 1.0000000 1.0000000
vt 1.0000000 0.0000000
vt 0.0000000 0.0000000
vt 0.0000000 1.0000000
vt 1.0000000 1.0000000
vt 1.0000000 0.0000000
vt 0.0000000 0.0000000
vt 0.0000000 1.0000000
vt 1.0000000 1.0000000
vt 1.0000000 0.0000000
vt 0.0000000 0.0000000
vt 0.0000000 1.0000000
vt 1.0000000 1.0000000
vt 1.0000000 0.0000000
vt 0.0000000 0.0000000
vt 0.0000000 1.0000000
vt 1.0000000 1.0000000
vt 1.0000000 0.0000000
vt 0.0000000 0.0000000
vt 0.0000000 1.0000000
vt 1.0000000 1.0000000
vt 1.0000000 0.0000000
vt 0.0000000 0.0000000
vt 0.0000000 1.0000000
vt 1.0000000 1.0000000
vt 1.0000000 0.0000000
vt 0.0000000 0.0000000
vt 0.0000000 1.0000000
vt 1.0000000 1.0000000
vt 1.0000000 0.0000000
vt 0.0000000 0.0000000
vt 0.0000000 1.0000000
vt 1.0000000 1.0000000
vt 1.0000000 0.0000000
vt 0.0000000 0.0000000
vt 0.0000000 1.0000000
vt 1.0000000 1.0000000
vt 1.0000000 0.0000000
vt 0.0000000 0.0000000
vt 0.0000000 1.0000000
vt 1.0000000 1.0000000
vt 1.0000000 0.0000000
vt 0.0000000 0.0000000
vt 0.0000000 1.0000000
vt 1.0000000 1.0000000
vt 1.0000000 0.0000000
vt 0.0000000 0.0000000
vt 0.0000000 1.0000000
vt 1.0000000 1.0000000
vt 1.0000000 0.0000000
vt 0.0000000 0.0000000
vt 0.0000000 1.0000000
vt 1.0000000 1.0000000
vt 1.0000000 0.0000000
vt 0.0000000 0.0000000
vt 0.0000000 1.0000000
vt 1.0000000 1.0000000
vt 1.0000000 0.0000000
vt 0.0000000 0.0000000
vt 0.0000000 1.0000000
vt 1.0000000 1.0000000
vt 1.0000000 0.0000000
vt 0.0000000 0.0000000
vt 0.0000000 1.0000000
vt 1.0000000 1.0000000
vt 1.0000000 0.0000000
vt 0.0000000 0.0000000
vt 0.0000000 1.0000000
vt 1.0000000 1.0000000
vt 1.0000000 0.0000000
vt 0.0000000 0.0000000
vt 0.0000000 1.0000000
vt 1.0000000 1.0000000
vt 1.0000000 0.0000000
vt 0.0000000 0.0000000
vt 0.0000000 1.0000000
vt 1.0000000 1.0000000
vt 1.0000000 0.0000000
vt 0.0000000 0.0000000
vt 0.5000000 1.0000000
vt 0.5000000 0.0000000
vt 0.0000000 0.5000000
vt 0.2000000 0.5000000
vt 0.4000000 0.5000000
vt 0.6000000 0.5000000
vt 0.8000000 0.5000000
vt 0.0000000 1.0000000
vt 1.0000000 1.0000000
vt 1.0000000 0.0000000
vt 0.0000000 0.0000000
vt 0.0000000 1.0000000
vt 1.0000000 1.0000000
vt 1.0000000 0.0000000
vt 0.0000000 0.0000000
vt 0.0000000 1.0000000
vt 1.0000000 1.0000000
vt 1.0000000 0.0000000
vt 0.0000000 0.0000000
vt 0.0000000 1.0000000
vt 1.0000000 1.0000000
vt 1.0000000 0.0000000
vt 0.0000000 0.0000000
vt 0.0000000 1.0000000
vt 1.0000000 1.0000000
vt 1.0000000 0.0000000
vt 0.0000000 0.0000000
vt 0.0000000 1.0000000
vt 1.0000000 1.0000000
vt 1.0000000 0.0000000
vt 0.0000000 0.0000000
vt 0.0000000 1.0000000
vt 1.0000000 1.0000000
vt 1.0000000 0.0000000
vt 0.0000000 0.0000000
vt 0.0000000 1.0000000
vt 1.0000000 1.0000000
vt 1.0000000 0.0000000
vt 0.0000000 0.0000000
vt 0.0000000 1.0000000
vt 1.0000000 1.0000000
vt 1.0000000 0.0000000
vt 0.0000000 0.0000000
vt 0.0000000 1.0000000
vt 1.0000000 1.0000000
vt 1.0000000 0.0000000
vt 0.0000000 0.0000000
vt 0.0000000 1.0000000
vt 1.0000000 1.0000000
vt 1.0000000 0.0000000
vt 0.0000000 0.0000000
vt 0.0000000 1.0000000
vt 1.0000000 1.0000000
vt 1.0000000 0.0000000
vt 0.0000000 0.0000000
vt 0.0000000 1.0000000
vt 1.0000000 1.0000000
vt 1.0000000 0.0000000
vt 0.0000000 0.0000000
vt 0.0000000 1.0000000
vt 1.0000000 1.0000000
vt 1.0000000 0.0000000
vt 0.0000000 0.0000000
vt 0.0000000 1.0000000
vt 1.0000000 1.0000000
vt 1.0000000 0.0000000
vt 0.0000000 0.0000000
vt 0.0000000 1.0000000
vt 1.0000000 1.0000000
vt 1.0000000 0.0000000
vt 0.0000000 0.0000000
vt 0.0000000 1.0000000
vt 1.0000000 1.0000000
vt 1.0000000 0.0000000
vt 0.0000000 0.0000000
vt 0.0000000 1.0000000
vt 1.0000000 1.0000000
vt 1.0000000 0.0000000
vt 0.0000000 0.0000000
vt 0.0000000 1.0000000
vt 1.0000000 1.0000000
vt 1.0000000 0.0000000
vt 0.0000000 0.0000000
vt 0.0000000 1.0000000
vt 1.0000000 1.0000000
vt 1.0000000 0.0000000
vt 0.0000000 0.0000000
vt 0.0000000 1.0000000
vt 1.0000000 1.0000000
vt 1.0000000 0.0000000
vt 0.0000000 0.0000000
vt 0.0000000 1.0000000
vt 1.0000000 1.0000000
vt 1.0000000 0.0000000
vt 0.0000000 0.0000000
vt 0.0000000 1.0000000
vt 1.0000000 1.0000000
vt 1.0000000 0.0000000
vt 0.0000000 0.0000000
vt 0.0000000 1.0000000
vt 1.0000000 1.0000000
vt 1.0000000 0.0000000
vt 0.0000000 0.0000000
vt 0.0000000 1.0000000
vt 1.0000000 1.0000000
vt 1.0000000 0.0000000
vt 0.0000000 0.0000000
vt 0.0000000 1.0000000
vt 1.0000000 1.0000000
vt 1.0000000 0.0000000
vt 0.0000000 0.0000000
vt 0.0000000 1.0000000
vt 1.0000000 1.0000000
vt 1.0000000 0.0000000
vt 0.0000000 0.0000000
vt 0.0000000 1.0000000
vt 1.0000000 1.0000000
vt 1.0000000 0.0000000
vt 0.0000000 0.0000000
vt 0.0000000 1.0000000
vt 1.0000000 1.0000000
vt 1.0000000 0.0000000
vt 0.0000000 0.0000000
vt 0.0000000 1.0000000
vt 1.0000000 1.0000000
vt 1.0000000 0.0000000
vt 0.0000000 0.0000000
vt 0.0000000 1.0000000
vt 1.0000000 1.0000000
vt 1.0000000 0.0000000
vt 0.0000000 0.0000000
vt 0.0000000 1.0000000
vt 1.0000000 1.0000000
vt 1.0000000 0.0000000
vt 0.0000000 0.0000000
vt 0.0000000 1.0000000
vt 1.0000000 1.0000000
vt 1.0000000 0.0000000
vt 0.0000000 0.0000000
vt 0.0000000 1.0000000
vt 1.0000000 1.0000000
vt 1.0000000 0.0000000
vt 0.0000000 0.0000000
vt 0.0000000 1.0000000
vt 1.0000000 1.0000000
vt 1.0000000 0.0000000
vt 0.0000000 0.0000000
vt 0.0000000 1.0000000
vt 1.0000000 1.0000000
vt 1.0000000 0.0000000
vt 0.0000000 0.0000000
vt 0.0000000 1.0000000
vt 1.0000000 1.0000000
vt 1.0000000 0.0000000
vt 0.0000000 0.0000000
vt 0.0000000 1.0000000
vt 1.0000000 1.0000000
vt 1.0000000 0.0000000
vt 0.0000000 0.0000000
vt 0.0000000 1.0000000
vt 1.0000000 1.0000000
vt 1.0000000 0.0000000
vt 0.0000000 0.0000000
vt 0.0000000 1.0000000
vt 1.0000000 1.0000000
vt 1.0000000 0.0000000
vt 0.0000000 0.0000000
vt 0.0000000 1.0000000
vt 1.0000000 1.0000000
vt 1.0000000 0.0000000
vt 0.0000000 0.0000000
vt 0.0000000 1.0000000
vt 1.0000000 1.0000000
vt 1.0000000 0.0000000
vt 0.0000000 0.0000000
vt 0.0000000 1.0000000
vt 1.0000000 1.0000000
vt 1.0000000 0.0000000
vt 0.0000000 0.0000000
vt 0.0000000 1.0000000
vt 1.0000000 1.0000000
vt 1.0000000 0.0000000
vt 0.0000000 0.0000000
vt 0.0000000 1.0000000
vt 1.0000000 1.0000000
vt 1.0000000 0.0000000
vt 0.0000000 0.0000000
vt 0.0000000 1.0000000
vt 1.0000000 1.0000000
vt 1.0000000 0.0000000
vt 0.0000000 0.0000000
vt 0.0000000 1.0000000
vt 1.0000000 1.0000000
vt 1.0000000 0.0000000
vt 0.0000000 0.0000000
vt 0.0000000 1.0000000
vt 1.0000000 1.0000000
vt 1.0000000 0.0000000
vt 0.0000000 0.0000000
vt 0.0000000 1.0000000
vt 1.0000000 1.0000000
vt 1.0000000 0.0000000
vt 0.0000000 0.0000000
vt 0.0000000 1.0000000
vt 1.0000000 1.0000000
vt 1.0000000 0.0000000
vt 0.0000000 0.0000000
vt 0.0000000 1.0000000
vt 1.0000000 1.0000000
vt 1.0000000 0.0000000
vt 0.0000000 0.0000000
vt 0.0000000 1.0000000
vt 1.0000000 1.0000000
vt 1.0000000 0.0000000
vt 0.0000000 0.0000000
vt 0.0000000 1.0000000
vt 1.0000000 1.0000000
vt 1.0000000 0.0000000
vt 0.0000000 0.0000000
vt 0.0000000 1.0000000
vt 1.0000000 1.0000000
vt 1.0000000 0.0000000
vt 0.0000000 0.0000000
vt 0.0000000 1.0000000
vt 1.0000000 1.0000000
vt 1.0000000 0.0000000
vt 0.0000000 0.0000000
vt 0.0000000 1.0000000
vt 1.0000000 1.0000000
vt 1.0000000 0.0000000
vt 0.0000000 0.0000000
vt 0.0000000 1.0000000
vt 1.0000000 1.0000000
vt 1.0000000 0.0000000
vt 0.0000000 0.0000000
vt 0.0000000 1.0000000
vt 1.0000000 1.0000000
vt 1.0000000 0.0000000
vt 0.0000000 0.0000000
vt 0.0000000 1.0000000
vt 1.0000000 1.0000000
vt 1.0000000 0.0000000
vt 0.0000000 0.0000000
vt 0.0000000 1.0000000
vt 1.0000000 1.0000000
vt 1.0000000 0.0000000
vt 0.0000000 0.0000000
vt 0.5000000 1.0000000
vt 0.5000000 0.0000000
vt 0.0000000 0.5000000
vt 0.2000000 0.5000000
vt 0.4000000 0.5000000
vt 0.6000000 0.5000000
vt 0.8000000 0.5000000
vt 0.0000000 1.0000000
vt 1.0000000 1.0000000
vt 1.0000000 0.0000000
vt 0.0000000 0.0000000
vt 0.0000000 1.0000000
vt 1.0000000 1.0000000
vt 1.0000000 0.0000000
vt 0.0000000 0.0000000
vt 0.0000000 1.0000000
vt 1.0000000 1.0000000
vt 1.0000000 0.0000000
vt 0.0000000 0.0000000
vt 0.0000000 1.0000000
vt 1.0000000 1.0000000
vt 1.0000000 0.0000000
vt 0.0000000 0.0000000
vt 0.0000000 1.0000000
vt 1.0000000 1.0000000
vt 1.0000000 0.0000000
vt 0.0000000 0.0000000
vt 0.0000000 1.0000000
vt 1.0000000 1.0000000
vt 1.0000000 0.0000000
vt 0.0000000 0.0000000
vt 0.0000000 1.0000000
vt 1.0000000 1.0000000
vt 1.0000000 0.0000000
vt 0.0000000 0.0000000
vt 0.0000000 1.0000000
vt 1.0000000 1.0000000
vt 1.0000000 0.0000000
vt 0.0000000 0.0000000
vt 0.0000000 1.0000000
vt 1.0000000 1.0000000
vt 1.0000000 0.0000000
vt 0.0000000 0.0000000
vt 0.0000000 1.0000000
vt 1.0000000 1.0000000
vt 1.0000000 0.0000000
vt 0.0000000 0.0000000
vt 0.0000000 1.0000000
vt 1.0000000 1.0000000
vt 1.0000000 0.0000000
vt 0.0000000 0.0000000
vt 0.0000000 1.0000000
vt 1.0000000 1.0000000
vt 1.0000000 0.0000000
vt 0.0000000 0.0000000
vt 0.0000000 1.0000000
vt 1.0000000 1.0000000
vt 1.0000000 0.0000000
vt 0.0000000 0.0000000
vt 0.0000000 1.0000000
vt 1.0000000 1.0000000
vt 1.0000000 0.0000000
vt 0.0000000 0.0000000
vt 0.0000000 1.0000000
vt 1.0000000 1.0000000
vt 1.0000000 0.0000000
vt 0.0000000 0.0000000
vt 0.0000000 1.0000000
vt 1.0000000 1.0000000
vt 1.0000000 0.0000000
vt 0.0000000 0.0000000
vt 0.0000000 1.0000000
vt 1.0000000 1.0000000
vt 1.0000000 0.0000000
vt 0.0000000 0.0000000
vt 0.0000000 1.0000000
vt 1.0000000 1.0000000
vt 1.0000000 0.0000000
vt 0.0000000 0.0000000
vt 0.0000000 1.0000000
vt 1.0000000 1.0000000
vt 1.0000000 0.0000000
vt 0.0000000 0.0000000
vt 0.0000000 1.0000000
vt 1.0000000 1.0000000
vt 1.0000000 0.0000000
vt 0.0000000 0.0000000
vt 0.0000000 1.0000000
vt 1.0000000 1.0000000
vt 1.0000000 0.0000000
vt 0.0000000 0.0000000
vt 0.0000000 1.0000000
vt 1.0000000 1.0000000
vt 1.0000000 0.0000000
vt 0.0000000 0.0000000
vt 0.0000000 1.0000000
vt 1.0000000 1.0000000
vt 1.0000000 0.0000000
vt 0.0000000 0.0000000
vt 0.0000000 1.0000000
vt 1.0000000 1.0000000
vt 1.0000000 0.0000000
vt 0.0000000 0.0000000
vt 0.0000000 1.0000000
vt 1.0000000 1.0000000
vt 1.0000000 0.0000000
vt 0.0000000 0.0000000
vt 0.0000000 1.0000000
vt 1.0000000 1.0000000
vt 1.0000000 0.0000000
vt 0.0000000 0.0000000
vt 0.0000000 1.0000000
vt 1.0000000 1.0000000
vt 1.0000000 0.0000000
vt 0.0000000 0.0000000
vt 0.0000000 1.0000000
vt 1.0000000 1.0000000
vt 1.0000000 0.0000000
vt 0.0000000 0.0000000
vt 0.0000000 1.0000000
vt 1.0000000 1.0000000
vt 1.0000000 0.0000000
vt 0.0000000 0.0000000
vt 0.0000000 1.0000000
vt 1.0000000 1.0000000
vt 1.0000000 0.0000000
vt 0.0000000 0.0000000
vt 0.0000000 1.0000000
vt 1.0000000 1.0000000
vt 1.0000000 0.0000000
vt 0.0000000 0.0000000
vt 0.0000000 1.0000000
vt 1.0000000 1.0000000
vt 1.0000000 0.0000000
vt 0.0000000 0.0000000
vt 0.0000000 1.0000000
vt 1.0000000 1.0000000
vt 1.0000000 0.0000000
vt 0.0000000 0.0000000
vt 0.0000000 1.0000000
vt 1.0000000 1.0000000
vt 1.0000000 0.0000000
vt 0.0000000 0.0000000
vt 0.0000000 1.0000000
vt 1.0000000 1.0000000
vt 1.0000000 0.0000000
vt 0.0000000 0.0000000
vt 0.0000000 1.0000000
vt 1.0000000 1.0000000
vt 1.0000000 0.0000000
vt 0.0000000 0.0000000
vt 0.5000000 1.0000000
vt 0.5000000 0.0000000
vt 0.0000000 0.5000000
vt 0.2500000 0.5000000
vt 0.5000000 0.5000000
vt 0.7500000 0.5000000
vt 0.5000000 1.0000000
vt 0.5000000 0.0000000
vt 0.0000000 0.5000000
vt 0.2500000 0.5000000
vt 0.5000000 0.5000000
vt 0.7500000 0.5000000
vt 0.5000000 1.0000000
vt 0.5000000 0.0000000
vt 0.0000000 0.5000000
vt 0.2500000 0.5000000
vt 0.5000000 0.5000000
vt 0.7500000 0.5000000
vt 0.5000000 1.0000000
vt 0.5000000 0.0000000
vt 0.0000000 0.5000000
vt 0.2500000 0.5000000
vt 0.5000000 0.5000000
vt 0.7500000 0.5000000
vt 0.5000000 1.0000000
vt 0.5000000 0.0000000
vt 0.0000000 0.5000000
vt 0.2500000 0.5000000
vt 0.5000000 0.5000000
vt 0.7500000 0.5000000
vn 0.0000000 0.0000000 1.0000000
vn 0.0000000 0.0000000 1.0000000
vn 0.0000000 0.0000000 1.0000000
vn 0.0000000 0.0000000 1.0000000
vn 0.0000000 0.0000000 -1.0000000
vn 0.0000000 0.0000000 -1.0000000
vn 0.0000000 0.0000000 -1.0000000
vn 0.0000000 0.0000000 -1.0000000
vn 1.0000000 0.0000000 0.0000000
vn 1.0000000 0.0000000 0.0000000
vn 1.0000000 0.0000000 0.0000000
vn 1.0000000 0.0000000 0.0000000
vn -1.0000000 0.0000000 0.0000000
vn -1.0000000 0.0000000 0.0000000
vn -1.0000000 0.0000000 0.0000000
vn -1.0000000 0.0000000 0.0000000
vn 0.0000000 1.0000000 0.0000000
vn 0.0000000 1.0000000 0.0000000
vn 0.0000000 1.0000000 0.0000000
vn 0.0000000 1.0000000 0.0000000
vn 0.0000000 -1.0000000 0.0000000
vn 0.0000000 -1.0000000 0.0000000
vn 0.0000000 -1.0000000 0.0000000
vn 0.0000000 -1.0000000 0.0000000
vn 0.0000000 0.0000000 1.0000000
vn 0.0000000 0.0000000 1.0000000
vn 0.0000000 0.0000000 1.0000000
vn 0.0000000 0.0000000 1.0000000
vn 0.0000000 0.0000000 -1.0000000
vn 0.0000000 0.0000000 -1.0000000
vn 0.0000000 0.0000000 -1.0000000
vn 0.0000000 0.0000000 -1.0000000
vn 1.0000000 0.0000000 0.0000000
vn 1.0000000 0.0000000 0.0000000
vn 1.0000000 0.0000000 0.0000000
vn 1.0000000 0.0000000 0.0000000
vn -1.0000000 0.0000000 0.0000000
vn -1.0000000 0.0000000 0.0000000
vn -1.0000000 0.0000000 0.0000000
vn -1.0000000 0.0000000 0.0000000
vn 0.0000000 1.0000000 0.0000000
vn 0.0000000 1.0000000 0.0000000
vn 0.0000000 1.0000000 0.0000000
vn 0.0000000 1.0000000 0.0000000
vn 0.0000000 -1.0000000 0.0000000
vn 0.0000000 -1.0000000 0.0000000
vn 0.0000000 -1.0000000 0.0000000
vn 0.0000000 -1.0000000 0.0000000
vn 0.0000000 0.0000000 1.0000000
vn 0.0000000 0.0000000 1.0000000
vn 0.0000000 0.0000000 1.0000000
vn 0.0000000 0.0000000 1.0000000
vn 0.0000000 0.0000000 -1.0000000
vn 0.0000000 0.0000000 -1.0000000
vn 0.0000000 0.0000000 -1.0000000
vn 0.0000000 0.0000000 -1.0000000
vn 1.0000000 0.0000000 0.0000000
vn 1.0000000 0.0000000 0.0000000
vn 1.0000000 0.0000000 0.0000000
vn 1.0000000 0.0000000 0.0000000
vn -1.0000000 0.0000000 0.0000000
vn -1.0000000 0.0000000 0.0000000
vn -1.0000000 0.0000000 0.0000000
vn -1.0000000 0.0000000 0.0000000
vn 0.0000000 1.0000000 0.0000000
vn 0.0000000 1.0000000 0.0000000
vn 0.0000000 1.0000000 0.0000000
vn 0.0000000 1.0000000 0.0000000
vn 0.0000000 -1.0000000 0.0000000
vn 0.0000000 -1.0000000 0.0000000
vn 0.0000000 -1.0000000 0.0000000
vn 0.0000000 -1.0000000 0.0000000
vn 0.0000000 0.0000000 1.0000000
vn 0.0000000 0.0000000 1.0000000
vn 0.0000000 0.0000000 1.0000000
vn 0.0000000 0.0000000 1.0000000
vn 0.0000000 0.0000000 -1.0000000
vn 0.0000000 0.0000000 -1.0000000
vn 0.0000000 0.0000000 -1.0000000
vn 0.0000000 0.0000000 -1.0000000
vn 1.0000000 0.0000000 0.0000000
vn 1.0000000 0.0000000 0.0000000
vn 1.0000000 0.0000000 0.0000000
vn 1.0000000 0.0000000 0.0000000
vn -1.0000000 0.0000000 0.0000000
vn -1.0000000 0.0000000 0.0000000
vn -1.0000000 0.0000000 0.0000000
vn -1.0000000 0.0000000 0.0000000
vn 0.0000000 1.0000000 0.0000000
vn 0.0000000 1.0000000 0.0000000
vn 0.0000000 1.0000000 0.0000000
vn 0.0000000 1.0000000 0.0000000
vn 0.0000000 -1.0000000 0.0000000
vn 0.0000000 -1.0000000 0.0000000
vn 0.0000000 -1.0000000 0.0000000
vn 0.0000000 -1.0000000 0.0000000
vn 0.0000000 0.0000000 1.0000000
vn 0.0000000 0.0000000 1.0000000
vn 0.0000000 0.0000000 1.0000000
vn 0.0000000 0.0000000 1.0000000
vn 0.0000000 0.0000000 -1.0000000
vn 0.0000000 0.0000000 -1.0000000
vn 0.0000000 0.0000000 -1.0000000
vn 0.0000000 0.0000000 -1.0000000
vn 1.0000000 0.0000000 0.0000000
vn 1.0000000 0.0000000 0.0000000
vn 1.0000000 0.0000000 0.0000000
vn 1.0000000 0.0000000 0.0000000
vn -1.0000000 0.0000000 0.0000000
vn -1.0000000 0.0000000 0.0000000
vn -1.0000000 0.0000000 0.0000000
vn -1.0000000 0.0000000 0.0000000
vn 0.0000000 1.0000000 0.0000000
vn 0.0000000 1.0000000 0.0000000
vn 0.0000000 1.0000000 0.0000000
vn 0.0000000 1.0000000 0.0000000
vn 0.0000000 -1.0000000 0.0000000
vn 0.0000000 -1.0000000 0.0000000
vn 0.0000000 -1.0000000 0.0000000
vn 0.0000000 -1.0000000 0.0000000
vn 0.0000000 0.0000000 1.0000000
vn 0.0000000 0.0000000 1.0000000
vn 0.0000000 0.0000000 1.0000000
vn 0.0000000 0.0000000 1.0000000
vn 0.0000000 0.0000000 -1.0000000
vn 0.0000000 0.0000000 -1.0000000
vn 0.0000000 0.0000000 -1.0000000
vn 0.0000000 0.0000000 -1.0000000
vn 1.0000000 0.0000000 0.0000000
vn 1.0000000 0.0000000 0.0000000
vn 1.0000000 0.0000000 0.0000000
vn 1.0000000 0.0000000 0.0000000
vn -1.0000000 0.0000000 0.0000000
vn -1.0000000 0.0000000 0.0000000
vn -1.0000000 0.0000000 0.0000000
vn -1.0000000 0.0000000 0.0000000
vn 0.0000000 1.0000000 0.0000000
vn 0.0000000 1.0000000 0.0000000
vn 0.0000000 1.0000000 0.0000000
vn 0.0000000 1.0000000 0.0000000
vn 0.0000000 -1.0000000 0.0000000
vn 0.0000000 -1.0000000 0.0000000
vn 0.0000000 -1.0000000 0.0000000
vn 0.0000000 -1.0000000 0.0000000
vn 0.0000000 0.0000000 1.0000000
vn 0.0000000 0.0000000 1.0000000
vn 0.0000000 0.0000000 1.0000000
vn 0.0000000 0.0000000 1.0000000
vn 0.0000000 0.0000000 -1.0000000
vn 0.0000000 0.0000000 -1.0000000
vn 0.0000000 0.0000000 -1.0000000
vn 0.0000000 0.0000000 -1.0000000
vn 1.0000000 0.0000000 0.0000000
vn 1.0000000 0.0000000 0.0000000
vn 1.0000000 0.0000000 0.0000000
vn 1.0000000 0.0000000 0.0000000
vn -1.0000000 0.0000000 0.0000000
vn -1.0000000 0.0000000 0.0000000
vn -1.0000000 0.0000000 0.0000000
vn -1.0000000 0.0000000 0.0000000
vn 0.0000000 1.0000000 0.0000000
vn 0.0000000 1.0000000 0.0000000
vn 0.0000000 1.0000000 0.0000000
vn 0.0000000 1.0000000 0.0000000
vn 0.0000000 -1.0000000 0.0000000
vn 0.0000000 -1.0000000 0.0000000
vn 0.0000000 -1.0000000 0.0000000
vn 0.0000000 -1.0000000 0.0000000
vn 0.0000000 0.0000000 1.0000000
vn 0.0000000 0.0000000 1.0000000
vn 0.0000000 0.0000000 1.0000000
vn 0.0000000 0.0000000 1.0000000
vn 0.0000000 0.0000000 -1.0000000
vn 0.0000000 0.0000000 -1.0000000
vn 0.0000000 0.0000000 -1.0000000
vn 0.0000000 0.0000000 -1.0000000
vn 1.0000000 0.0000000 0.0000000
vn 1.0000000 0.0000000 0.0000000
vn 1.0000000 0.0000000 0.0000000
vn 1.0000000 0.0000000 0.0000000
vn -1.0000000 0.0000000 0.0000000
vn -1.0000000 0.0000000 0.0000000
vn -1.0000000 0.0000000 0.0000000
vn -1.0000000 0.0000000 0.0000000
vn 0.0000000 1.0000000 0.0000000
vn 0.0000000 1.0000000 0.0000000
vn 0.0000000 1.0000000 0.0000000
vn 0.0000000 1.0000000 0.0000000
vn 0.0000000 -1.0000000 0.0000000
vn 0.0000000 -1.0000000 0.0000000
vn 0.0000000 -1.0000000 0.0000000
vn 0.0000000 -1.0000000 0.0000000
vn 0.0000000 -1.0000000 0.0000000
vn 0.0000000 1.0000000 0.0000000
vn 1.0000000 0.0000000 0.0000000
vn 0.3090170 0.0000000 0.9510565
vn -0.8090170 0.0000000 0.5877853
vn -0.8090170 0.0000000 -0.5877853
vn 0.3090170 0.0000000 -0.9510565
vn 0.0000000 0.0000000 1.0000000
vn 0.0000000 0.0000000 1.0000000
vn 0.0000000 0.0000000 1.0000000
vn 0.0000000 0.0000000 1.0000000
vn 0.0000000 0.0000000 -1.0000000
vn 0.0000000 0.0000000 -1.0000000
vn 0.0000000 0.0000000 -1.0000000
vn 0.0000000 0.0000000 -1.0000000
vn 1.0000000 0.0000000 0.0000000
vn 1.0000000 0.0000000 0.0000000
vn 1.0000000 0.0000000 0.0000000
vn 1.0000000 0.0000000 0.0000000
vn -1.0000000 0.0000000 0.0000000
vn -1.0000000 0.0000000 0.0000000
vn -1.0000000 0.0000000 0.0000000
vn -1.0000000 0.0000000 0.0000000
vn 0.0000000 1.0000000 0.0000000
vn 0.0000000 1.0000000 0.0000000
vn 0.0000000 1.0000000 0.0000000
vn 0.0000000 1.0000000 0.0000000
vn 0.0000000 -1.0000000 0.0000000
vn 0.0000000 -1.0000000 0.0000000
vn 0.0000000 -1.0000000 0.0000000
vn 0.0000000 -1.0000000 0.0000000
vn 0.0000000 0.0000000 1.0000000
vn 0.0000000 0.0000000 1.0000000
vn 0.0000000 0.0000000 1.0000000
vn 0.0000000 0.0000000 1.0000000
vn 0.0000000 0.0000000 -1.0000000
vn 0.0000000 0.0000000 -1.0000000
vn 0.0000000 0.0000000 -1.0000000
vn 0.0000000 0.0000000 -1.0000000
vn 1.0000000 0.0000000 0.0000000
vn 1.0000000 0.0000000 0.0000000
vn 1.0000000 0.0000000 0.0000000
vn 1.0000000 0.0000000 0.0000000
vn -1.0000000 0.0000000 0.0000000
vn -1.0000000 0.0000000 0.0000000
vn -1.0000000 0.0000000 0.0000000
vn -1.0000000 0.0000000 0.0000000
vn 0.0000000 1.0000000 0.0000000
vn 0.0000000 1.0000000 0.0000000
vn 0.0000000 1.0000000 0.0000000
vn 0.0000000 1.0000000 0.0000000
vn 0.0000000 -1.0000000 0.0000000
vn 0.0000000 -1.0000000 0.0000000
vn 0.0000000 -1.0000000 0.0000000
vn 0.0000000 -1.0000000 0.0000000
vn 0.0000000 0.0000000 1.0000000
vn 0.0000000 0.0000000 1.0000000
vn 0.0000000 0.0000000 1.0000000
vn 0.0000000 0.0000000 1.0000000
vn 0.0000000 0.0000000 -1.0000000
vn 0.0000000 0.0000000 -1.0000000
vn 0.0000000 0.0000000 -1.0000000
vn 0.0000000 0.0000000 -1.0000000
vn 1.0000000 0.0000000 0.0000000
vn 1.0000000 0.0000000 0.0000000
vn 1.0000000 0.0000000 0.0000000
vn 1.0000000 0.0000000 0.0000000
vn -1.0000000 0.0000000 0.0000000
vn -1.0000000 0.0000000 0.0000000
vn -1.0000000 0.0000000 0.0000000
vn -1.0000000 0.0000000 0.0000000
vn 0.0000000 1.0000000 0.0000000
vn 0.0000000 1.0000000 0.0000000
vn 0.0000000 1.0000000 0.0000000
vn 0.0000000 1.0000000 0.0000000
vn 0.0000000 -1.0000000 0.0000000
vn 0.0000000 -1.0000000 0.0000000
vn 0.0000000 -1.0000000 0.0000000
vn 0.0000000 -1.0000000 0.0000000
vn 0.0000000 0.0000000 1.0000000
vn 0.0000000 0.0000000 1.0000000
vn 0.0000000 0.0000000 1.0000000
vn 0.0000000 0.0000000 1.0000000
vn 0.0000000 0.0000000 -1.0000000
vn 0.0000000 0.0000000 -1.0000000
vn 0.0000000 0.0000000 -1.0000000
vn 0.0000000 0.0000000 -1.0000000
vn 1.0000000 0.0000000 0.0000000
vn 1.0000000 0.0000000 0.0000000
vn 1.0000000 0.0000000 0.0000000
vn 1.0000000 0.0000000 0.0000000
vn -1.0000000 0.0000000 0.0000000
vn -1.0000000 0.0000000 0.0000000
vn -1.0000000 0.0000000 0.0000000
vn -1.0000000 0.0000000 0.0000000
vn 0.0000000 1.0000000 0.0000000
vn 0.0000000 1.0000000 0.0000000
vn 0.0000000 1.0000000 0.0000000
vn 0.0000000 1.0000000 0.0000000
vn 0.0000000 -1.0000000 0.0000000
vn 0.0000000 -1.0000000 0.0000000
vn 0.0000000 -1.0000000 0.0000000
vn 0.0000000 -1.0000000 0.0000000
vn 0.0000000 0.0000000 1.0000000
vn 0.0000000 0.0000000 1.0000000
vn 0.0000000 0.0000000 1.0000000
vn 0.0000000 0.0000000 1.0000000
vn 0.0000000 0.0000000 -1.0000000
vn 0.0000000 0.0000000 -1.0000000
vn 0.0000000 0.0000000 -1.0000000
vn 0.0000000 0.0000000 -1.0000000
vn 1.0000000 0.0000000 0.0000000
vn 1.0000000 0.0000000 0.0000000
vn 1.0000000 0.0000000 0.0000000
vn 1.0000000 0.0000000 0.0000000
vn -1.0000000 0.0000000 0.0000000
vn -1.0000000 0.0000000 0.0000000
vn -1.0000000 0.0000000 0.0000000
vn -1.0000000 0.0000000 0.0000000
vn 0.0000000 1.0000000 0.0000000
vn 0.0000000 1.0000000 0.0000000
vn 0.0000000 1.0000000 0.0000000
vn 0.0000000 1.0000000 0.0000000
vn 0.0000000 -1.0000000 0.0000000
vn 0.0000000 -1.0000000 0.0000000
vn 0.0000000 -1.0000000 0.0000000
vn 0.0000000 -1.0000000 0.0000000
vn 0.0000000 0.0000000 1.0000000
vn 0.0000000 0.0000000 1.0000000
vn 0.0000000 0.0000000 1.0000000
vn 0.0000000 0.0000000 1.0000000
vn 0.0000000 0.0000000 -1.0000000
vn 0.0000000 0.0000000 -1.0000000
vn 0.0000000 0.0000000 -1.0000000
vn 0.0000000 0.0000000 -1.0000000
vn 1.0000000 0.0000000 0.0000000
vn 1.0000000 0.0000000 0.0000000
vn 1.0000000 0.0000000 0.0000000
vn 1.0000000 0.0000000 0.0000000
vn -1.0000000 0.0000000 0.0000000
vn -1.0000000 0.0000000 0.0000000
vn -1.0000000 0.0000000 0.0000000
vn -1.0000000 0.0000000 0.0000000
vn 0.0000000 1.0000000 0.0000000
vn 0.0000000 1.0000000 0.0000000
vn 0.0000000 1.0000000 0.0000000
vn 0.0000000 1.0000000 0.0000000
vn 0.0000000 -1.0000000 0.0000000
vn 0.0000000 -1.0000000 0.0000000
vn 0.0000000 -1.0000000 0.0000000
vn 0.0000000 -1.0000000 0.0000000
vn 0.0000000 0.0000000 1.0000000
vn 0.0000000 0.0000000 1.0000000
vn 0.0000000 0.0000000 1.0000000
vn 0.0000000 0.0000000 1.0000000
vn 0.0000000 0.0000000 -1.0000000
vn 0.0000000 0.0000000 -1.0000000
vn 0.0000000 0.0000000 -1.0000000
vn 0.0000000 0.0000000 -1.0000000
vn 1.0000000 0.0000000 0.0000000
vn 1.0000000 0.0000000 0.0000000
vn 1.0000000 0.0000000 0.0000000
vn 1.0000000 0.0000000 0.0000000
vn -1.0000000 0.0000000 0.0000000
vn -1.0000000 0.0000000 0.0000000
vn -1.0000000 0.0000000 0.0000000
vn -1.0000000 0.0000000 0.0000000
vn 0.0000000 1.0000000 0.0000000
vn 0.0000000 1.0000000 0.0000000
vn 0.0000000 1.0000000 0.0000000
vn 0.0000000 1.0000000 0.0000000
vn 0.0000000 -1.0000000 0.0000000
vn 0.0000000 -1.0000000 0.0000000
vn 0.0000000 -1.0000000 0.0000000
vn 0.0000000 -1.0000000 0.0000000
vn 0.0000000 0.0000000 1.0000000
vn 0.0000000 0.0000000 1.0000000
vn 0.0000000 0.0000000 1.0000000
vn 0.0000000 0.0000000 1.0000000
vn 0.0000000 0.0000000 -1.0000000
vn 0.0000000 0.0000000 -1.0000000
vn 0.0000000 0.0000000 -1.0000000
vn 0.0000000 0.0000000 -1.0000000
vn 1.0000000 0.0000000 0.0000000
vn 1.0000000 0.0000000 0.0000000
vn 1.0000000 0.0000000 0.0000000
vn 1.0000000 0.0000000 0.0000000
vn -1.0000000 0.0000000 0.0000000
vn -1.0000000 0.0000000 0.0000000
vn -1.0000000 0.0000000 0.0000000
vn -1.0000000 0.0000000 0.0000000
vn 0.0000000 1.0000000 0.0000000
vn 0.0000000 1.0000000 0.0000000
vn 0.0000000 1.0000000 0.0000000
vn 0.0000000 1.0000000 0.0000000
vn 0.0000000 -1.0000000 0.0000000
vn 0.0000000 -1.0000000 0.0000000
vn 0.0000000 -1.0000000 0.0000000
vn 0.0000000 -1.0000000 0.0000000
vn 0.0000000 0.0000000 1.0000000
vn 0.0000000 0.0000000 1.0000000
vn 0.0000000 0.0000000 1.0000000
vn 0.0000000 0.0000000 1.0000000
vn 0.0000000 0.0000000 -1.0000000
vn 0.0000000 0.0000000 -1.0000000
vn 0.0000000 0.0000000 -1.0000000
vn 0.0000000 0.0000000 -1.0000000
vn 1.0000000 0.0000000 0.0000000
vn 1.0000000 0.0000000 0.0000000
vn 1.0000000 0.0000000 0.0000000
vn 1.0000000 0.0000000 0.0000000
vn -1.0000000 0.0000000 0.0000000
vn -1.0000000 0.0000000 0.0000000
vn -1.0000000 0.0000000 0.0000000
vn -1.0000000 0.0000000 0.0000000
vn 0.0000000 1.0000000 0.0000000
vn 0.0000000 1.0000000 0.0000000
vn 0.0000000 1.0000000 0.0000000
vn 0.0000000 1.0000000 0.0000000
vn 0.0000000 -1.0000000 0.0000000
vn 0.0000000 -1.0000000 0.0000000
vn 0.0000000 -1.0000000 0.0000000
vn 0.0000000 -1.0000000 0.0000000
vn 0.0000000 0.0000000 1.0000000
vn 0.0000000 0.0000000 1.0000000
vn 0.0000000 0.0000000 1.0000000
vn 0.0000000 0.0000000 1.0000000
vn 0.0000000 0.0000000 -1.0000000
vn 0.0000000 0.0000000 -1.0000000
vn 0.0000000 0.0000000 -1.0000000
vn 0.0000000 0.0000000 -1.0000000
vn 1.0000000 0.0000000 0.0000000
vn 1.0000000 0.0000000 0.0000000
vn 1.0000000 0.0000000 0.0000000
vn 1.0000000 0.0000000 0.0000000
vn -1.0000000 0.0000000 0.0000000
vn -1.0000000 0.0000000 0.0000000
vn -1.0000000 0.0000000 0.0000000
vn -1.0000000 0.0000000 0.0000000
vn 0.0000000 1.0000000 0.0000000
vn 0.0000000 1.0000000 0.0000000
vn 0.0000000 1.0000000 0.0000000
vn 0.0000000 1.0000000 0.0000000
vn 0.0000000 -1.0000000 0.0000000
vn 0.0000000 -1.0000000 0.0000000
vn 0.0000000 -1.0000000 0.0000000
vn 0.0000000 -1.0000000 0.0000000
vn 0.0000000 -1.0000000 0.0000000
vn 0.0000000 1.0000000 0.0000000
vn 1.0000000 0.0000000 0.0000000
vn 0.3090170 0.0000000 0.9510565
vn -0.8090170 0.0000000 0.5877853
vn -0.8090170 0.0000000 -0.5877853
vn 0.3090170 0.0000000 -0.9510565
vn 0.0000000 0.0000000 1.0000000
vn 0.0000000 0.0000000 1.0000000
vn 0.0000000 0.0000000 1.0000000
vn 0.0000000 0.0000000 1.0000000
vn 0.0000000 0.0000000 -1.0000000
vn 0.0000000 0.0000000 -1.0000000
vn 0.0000000 0.0000000 -1.0000000
vn 0.0000000 0.0000000 -1.0000000
vn 1.0000000 0.0000000 0.0000000
vn 1.0000000 0.0000000 0.0000000
vn 1.0000000 0.0000000 0.0000000
vn 1.0000000 0.0000000 0.0000000
vn -1.0000000 0.0000000 0.0000000
vn -1.0000000 0.0000000 0.0000000
vn -1.0000000 0.0000000 0.0000000
vn -1.0000000 0.0000000 0.0000000
vn 0.0000000 1.0000000 0.0000000
vn 0.0000000 1.0000000 0.0000000
vn 0.0000000 1.0000000 0.0000000
vn 0.0000000 1.0000000 0.0000000
vn 0.0000000 -1.0000000 0.0000000
vn 0.0000000 -1.0000000 0.0000000
vn 0.0000000 -1.0000000 0.0000000
vn 0.0000000 -1.0000000 0.0000000
vn 0.0000000 0.0000000 1.0000000
vn 0.0000000 0.0000000 1.0000000
vn 0.0000000 0.0000000 1.0000000
vn 0.0000000 0.0000000 1.0000000
vn 0.0000000 0.0000000 -1.0000000
vn 0.0000000 0.0000000 -1.0000000
vn 0.0000000 0.0000000 -1.0000000
vn 0.0000000 0.0000000 -1.0000000
vn 1.0000000 0.0000000 0.0000000
vn 1.0000000 0.0000000 0.0000000
vn 1.0000000 0.0000000 0.0000000
vn 1.0000000 0.0000000 0.0000000
vn -1.0000000 0.0000000 0.0000000
vn -1.0000000 0.0000000 0.0000000
vn -1.0000000 0.0000000 0.0000000
vn -1.0000000 0.0000000 0.0000000
vn 0.0000000 1.0000000 0.0000000
vn 0.0000000 1.0000000 0.0000000
vn 0.0000000 1.0000000 0.0000000
vn 0.0000000 1.0000000 0.0000000
vn 0.0000000 -1.0000000 0.0000000
vn 0.0000000 -1.0000000 0.0000000
vn 0.0000000 -1.0000000 0.0000000
vn 0.0000000 -1.0000000 0.0000000
vn 0.0000000 0.0000000 1.0000000
vn 0.0000000 0.0000000 1.0000000
vn 0.0000000 0.0000000 1.0000000
vn 0.0000000 0.0000000 1.0000000
vn 0.0000000 0.0000000 -1.0000000
vn 0.0000000 0.0000000 -1.0000000
vn 0.0000000 0.0000000 -1.0000000
vn 0.0000000 0.0000000 -1.0000000
vn 1.0000000 0.0000000 0.0000000
vn 1.0000000 0.0000000 0.0000000
vn 1.0000000 0.0000000 0.0000000
vn 1.0000000 0.0000000 0.0000000
vn -1.0000000 0.0000000 0.0000000
vn -1.0000000 0.0000000 0.0000000
vn -1.0000000 0.0000000 0.0000000
vn -1.0000000 0.0000000 0.0000000
vn 0.0000000 1.0000000 0.0000000
vn 0.0000000 1.0000000 0.0000000
vn 0.0000000 1.0000000 0.0000000
vn 0.0000000 1.0000000 0.0000000
vn 0.0000000 -1.0000000 0.0000000
vn 0.0000000 -1.0000000 0.0000000
vn 0.0000000 -1.0000000 0.0000000
vn 0.0000000 -1.0000000 0.0000000
vn 0.0000000 0.0000000 1.0000000
vn 0.0000000 0.0000000 1.0000000
vn 0.0000000 0.0000000 1.0000000
vn 0.0000000 0.0000000 1.0000000
vn 0.0000000 0.0000000 -1.0000000
vn 0.0000000 0.0000000 -1.0000000
vn 0.0000000 0.0000000 -1.0000000
vn 0.0000000 0.0000000 -1.0000000
vn 1.0000000 0.0000000 0.0000000
vn 1.0000000 0.0000000 0.0000000
vn 1.0000000 0.0000000 0.0000000
vn 1.0000000 0.0000000 0.0000000
vn -1.0000000 0.0000000 0.0000000
vn -1.0000000 0.0000000 0.0000000
vn -1.0000000 0.0000000 0.0000000
vn -1.0000000 0.0000000 0.0000000
vn 0.0000000 1.0000000 0.0000000
vn 0.0000000 1.0000000 0.0000000
vn 0.0000000 1.0000000 0.0000000
vn 0.0000000 1.0000000 0.0000000
vn 0.0000000 -1.0000000 0.0000000
vn 0.0000000 -1.0000000 0.0000000
vn 0.0000000 -1.0000000 0.0000000
vn 0.0000000 -1.0000000 0.0000000
vn 0.0000000 0.0000000 1.0000000
vn 0.0000000 0.0000000 1.0000000
vn 0.0000000 0.0000000 1.0000000
vn 0.0000000 0.0000000 1.0000000
vn 0.0000000 0.0000000 -1.0000000
vn 0.0000000 0.0000000 -1.0000000
vn 0.0000000 0.0000000 -1.0000000
vn 0.0000000 0.0000000 -1.0000000
vn 1.0000000 0.0000000 0.0000000
vn 1.0000000 0.0000000 0.0000000
vn 1.0000000 0.0000000 0.0000000
vn 1.0000000 0.0000000 0.0000000
vn -1.0000000 0.0000000 0.0000000
vn -1.0000000 0.0000000 0.0000000
vn -1.0000000 0.0000000 0.0000000
vn -1.0000000 0.0000000 0.0000000
vn 0.0000000 1.0000000 0.0000000
vn 0.0000000 1.0000000 0.0000000
vn 0.0000000 1.0000000 0.0000000
vn 0.0000000 1.0000000 0.0000000
vn 0.0000000 -1.0000000 0.0000000
vn 0.0000000 -1.0000000 0.0000000
vn 0.0000000 -1.0000000 0.0000000
vn 0.0000000 -1.0000000 0.0000000
vn 0.0000000 0.0000000 1.0000000
vn 0.0000000 0.0000000 1.0000000
vn 0.0000000 0.0000000 1.0000000
vn 0.0000000 0.0000000 1.0000000
vn 0.0000000 0.0000000 -1.0000000
vn 0.0000000 0.0000000 -1.0000000
vn 0.0000000 0.0000000 -1.0000000
vn 0.0000000 0.0000000 -1.0000000
vn 1.0000000 0.0000000 0.0000000
vn 1.0000000 0.0000000 0.0000000
vn 1.0000000 0.0000000 0.0000000
vn 1.0000000 0.0000000 0.0000000
vn -1.0000000 0.0000000 0.0000000
vn -1.0000000 0.0000000 0.0000000
vn -1.0000000 0.0000000 0.0000000
vn -1.0000000 0.0000000 0.0000000
vn 0.0000000 1.0000000 0.0000000
vn 0.0000000 1.0000000 0.0000000
vn 0.0000000 1.0000000 0.0000000
vn 0.0000000 1.0000000 0.0000000
vn 0.0000000 -1.0000000 0.0000000
vn 0.0000000 -1.0000000 0.0000000
vn 0.0000000 -1.0000000 0.0000000
vn 0.0000000 -1.0000000 0.0000000
vn 0.0000000 -1.0000000 0.0000000
vn 0.0000000 1.0000000 0.0000000
vn 1.0000000 0.0000000 0.0000000
vn 0.0000000 0.0000000 1.0000000
vn -1.0000000 0.0000000 0.0000000
vn -0.0000000 0.0000000 -1.0000000
vn 0.0000000 -1.0000000 0.0000000
vn 0.0000000 1.0000000 0.0000000
vn 1.0000000 0.0000000 0.0000000
vn 0.0000000 0.0000000 1.0000000
vn -1.0000000 0.0000000 0.0000000
vn -0.0000000 0.0000000 -1.0000000
vn 0.0000000 -1.0000000 0.0000000
vn 0.0000000 1.0000000 0.0000000
vn 1.0000000 0.0000000 0.0000000
vn 0.0000000 0.0000000 1.0000000
vn -1.0000000 0.0000000 0.0000000
vn -0.0000000 0.0000000 -1.0000000
vn 0.0000000 -1.0000000 0.0000000
vn 0.0000000 1.0000000 0.0000000
vn 1.0000000 0.0000000 0.0000000
vn 0.0000000 0.0000000 1.0000000
vn -1.0000000 0.0000000 0.0000000
vn -0.0000000 0.0000000 -1.0000000
vn 0.0000000 -1.0000000 0.0000000
vn 0.0000000 1.0000000 0.0000000
vn 1.0000000 0.0000000 0.0000000
vn 0.0000000 0.0000000 1.0000000
vn -1.0000000 0.0000000 0.0000000
vn -0.0000000 0.0000000 -1.0000000
usemtl Stone
s off
f 1/1/1 2/2/2 3/3/3
f 1/1/1 3/3/3 4/4/4
f 5/5/5 6/6/6 7/7/7
f 5/5/5 7/7/7 8/8/8
f 9/9/9 10/10/10 11/11/11
f 9/9/9 11/11/11 12/12/12
f 13/13/13 14/14/14 15/15/15
f 13/13/13 15/15/15 16/16/16
f 17/17/17 18/18/18 19/19/19
f 17/17/17 19/19/19 20/20/20
f 21/21/21 22/22/22 23/23/23
f 21/21/21 23/23/23 24/24/24
f 97/97/97 98/98/98 99/99/99
f 97/97/97 99/99/99 100/100/100
f 101/101/101 102/102/102 103/103/103
f 101/101/101 103/103/103 104/104/104
f 105/105/105 106/106/106 107/107/107
f 105/105/105 107/107/107 108/108/108
f 109/109/109 110/110/110 111/111/111
f 109/109/109 111/111/111 112/112/112
f 113/113/113 114/114/114 115/115/115
f 113/113/113 115/115/115 116/116/116
f 117/117/117 118/118/118 119/119/119
f 117/117/117 119/119/119 120/120/120
f 200/200/200 201/201/201 202/202/202
f 200/200/200 202/202/202 203/203/203
f 204/204/204 205/205/205 206/206/206
f 204/204/204 206/206/206 207/207/207
f 208/208/208 209/209/209 210/210/210
f 208/208/208 210/210/210 211/211/211
f 212/212/212 213/213/213 214/214/214
f 212/212/212 214/214/214 215/215/215
f 216/216/216 217/217/217 218/218/218
f 216/216/216 218/218/218 219/219/219
f 220/220/220 221/221/221 222/222/222
f 220/220/220 222/222/222 223/223/223
f 248/248/248 249/249/249 250/250/250
f 248/248/248 250/250/250 251/251/251
f 252/252/252 253/253/253 254/254/254
f 252/252/252 254/254/254 255/255/255
f 256/256/256 257/257/257 258/258/258
f 256/256/256 258/258/258 259/259/259
f 260/260/260 261/261/261 262/262/262
f 260/260/260 262/262/262 263/263/263
f 264/264/264 265/265/265 266/266/266
f 264/264/264 266/266/266 267/267/267
f 268/268/268 269/269/269 270/270/270
f 268/268/268 270/270/270 271/271/271
f 344/344/344 345/345/345 346/346/346
f 344/344/344 346/346/346 347/347/347
f 348/348/348 349/349/349 350/350/350
f 348/348/348 350/350/350 351/351/351
f 352/352/352 353/353/353 354/354/354
f 352/352/352 354/354/354 355/355/355
f 356/356/356 357/357/357 358/358/358
f 356/356/356 358/358/358 359/359/359
f 360/360/360 361/361/361 362/362/362
f 360/360/360 362/362/362 363/363/363
f 364/364/364 365/365/365 366/366/366
f 364/364/364 366/366/366 367/367/367
f 447/447/447 448/448/448 449/449/449
f 447/447/447 449/449/449 450/450/450
f 451/451/451 452/452/452 453/453/453
f 451/451/451 453/453/453 454/454/454
f 455/455/455 456/456/456 457/457/457
f 455/455/455 457/457/457 458/458/458
f 459/459/459 460/460/460 461/461/461
f 459/459/459 461/461/461 462/462/462
f 463/463/463 464/464/464 465/465/465
f 463/463/463 465/465/465 466/466/466
f 467/467/467 468/468/468 469/469/469
f 467/467/467 469/469/469 470/470/470
f 495/495/495 496/496/496 497/497/497
f 495/495/495 497/497/497 498/498/498
f 499/499/499 500/500/500 501/501/501
f 499/499/499 501/501/501 502/502/502
f 503/503/503 504/504/504 505/505/505
f 503/503/503 505/505/505 506/506/506
f 507/507/507 508/508/508 509/509/509
f 507/507/507 509/509/509 510/510/510
f 511/511/511 512/512/512 513/513/513
f 511/511/511 513/513/513 514/514/514
f 515/515/515 516/516/516 517/517/517
f 515/515/515 517/517/517 518/518/518
usemtl StoneLight
s off
f 25/25/25 26/26/26 27/27/27
f 25/25/25 27/27/27 28/28/28
f 29/29/29 30/30/30 31/31/31
f 29/29/29 31/31/31 32/32/32
f 33/33/33 34/34/34 35/35/35
f 33/33/33 35/35/35 36/36/36
f 37/37/37 38/38/38 39/39/39
f 37/37/37 39/39/39 40/40/40
f 41/41/41 42/42/42 43/43/43
f 41/41/41 43/43/43 44/44/44
f 45/45/45 46/46/46 47/47/47
f 45/45/45 47/47/47 48/48/48
f 121/121/121 122/122/122 123/123/123
f 121/121/121 123/123/123 124/124/124
f 125/125/125 126/126/126 127/127/127
f 125/125/125 127/127/127 128/128/128
f 129/129/129 130/130/130 131/131/131
f 129/129/129 131/131/131 132/132/132
f 133/133/133 134/134/134 135/135/135
f 133/133/133 135/135/135 136/136/136
f 137/137/137 138/138/138 139/139/139
f 137/137/137 139/139/139 140/140/140
f 141/141/141 142/142/142 143/143/143
f 141/141/141 143/143/143 144/144/144
f 224/224/224 225/225/225 226/226/226
f 224/224/224 226/226/226 227/227/227
f 228/228/228 229/229/229 230/230/230
f 228/228/228 230/230/230 231/231/231
f 232/232/232 233/233/233 234/234/234
f 232/232/232 234/234/234 235/235/235
f 236/236/236 237/237/237 238/238/238
f 236/236/236 238/238/238 239/239/239
f 240/240/240 241/241/241 242/242/242
f 240/240/240 242/242/242 243/243/243
f 244/244/244 245/245/245 246/246/246
f 244/244/244 246/246/246 247/247/247
f 272/272/272 273/273/273 274/274/274
f 272/272/272 274/274/274 275/275/275
f 276/276/276 277/277/277 278/278/278
f 276/276/276 278/278/278 279/279/279
f 280/280/280 281/281/281 282/282/282
f 280/280/280 282/282/282 283/283/283
f 284/284/284 285/285/285 286/286/286
f 284/284/284 286/286/286 287/287/287
f 288/288/288 289/289/289 290/290/290
f 288/288/288 290/290/290 291/291/291
f 292/292/292 293/293/293 294/294/294
f 292/292/292 294/294/294 295/295/295
f 368/368/368 369/369/369 370/370/370
f 368/368/368 370/370/370 371/371/371
f 372/372/372 373/373/373 374/374/374
f 372/372/372 374/374/374 375/375/375
f 376/376/376 377/377/377 378/378/378
f 376/376/376 378/378/378 379/379/379
f 380/380/380 381/381/381 382/382/382
f 380/380/380 382/382/382 383/383/383
f 384/384/384 385/385/385 386/386/386
f 384/384/384 386/386/386 387/387/387
f 388/388/388 389/389/389 390/390/390
f 388/388/388 390/390/390 391/391/391
f 471/471/471 472/472/472 473/473/473
f 471/471/471 473/473/473 474/474/474
f 475/475/475 476/476/476 477/477/477
f 475/475/475 477/477/477 478/478/478
f 479/479/479 480/480/480 481/481/481
f 479/479/479 481/481/481 482/482/482
f 483/483/483 484/484/484 485/485/485
f 483/483/483 485/485/485 486/486/486
f 487/487/487 488/488/488 489/489/489
f 487/487/487 489/489/489 490/490/490
f 491/491/491 492/492/492 493/493/493
f 491/491/491 493/493/493 494/494/494
f 543/543/543 544/544/544 545/545/545
f 543/543/543 545/545/545 546/546/546
f 547/547/547 548/548/548 549/549/549
f 547/547/547 549/549/549 550/550/550
f 551/551/551 552/552/552 553/553/553
f 551/551/551 553/553/553 554/554/554
f 555/555/555 556/556/556 557/557/557
f 555/555/555 557/557/557 558/558/558
f 559/559/559 560/560/560 561/561/561
f 559/559/559 561/561/561 562/562/562
f 563/563/563 564/564/564 565/565/565
f 563/563/563 565/565/565 566/566/566
f 567/567/567 568/568/568 569/569/569
f 567/567/567 569/569/569 570/570/570
f 571/571/571 572/572/572 573/573/573
f 571/571/571 573/573/573 574/574/574
f 575/575/575 576/576/576 577/577/577
f 575/575/575 577/577/577 578/578/578
f 579/579/579 580/580/580 581/581/581
f 579/579/579 581/581/581 582/582/582
f 583/583/583 584/584/584 585/585/585
f 583/583/583 585/585/585 586/586/586
f 587/587/587 588/588/588 589/589/589
f 587/587/587 589/589/589 590/590/590
usemtl StoneDark
s off
f 49/49/49 50/50/50 51/51/51
f 49/49/49 51/51/51 52/52/52
f 53/53/53 54/54/54 55/55/55
f 53/53/53 55/55/55 56/56/56
f 57/57/57 58/58/58 59/59/59
f 57/57/57 59/59/59 60/60/60
f 61/61/61 62/62/62 63/63/63
f 61/61/61 63/63/63 64/64/64
f 65/65/65 66/66/66 67/67/67
f 65/65/65 67/67/67 68/68/68
f 69/69/69 70/70/70 71/71/71
f 69/69/69 71/71/71 72/72/72
f 73/73/73 74/74/74 75/75/75
f 73/73/73 75/75/75 76/76/76
f 77/77/77 78/78/78 79/79/79
f 77/77/77 79/79/79 80/80/80
f 81/81/81 82/82/82 83/83/83
f 81/81/81 83/83/83 84/84/84
f 85/85/85 86/86/86 87/87/87
f 85/85/85 87/87/87 88/88/88
f 89/89/89 90/90/90 91/91/91
f 89/89/89 91/91/91 92/92/92
f 93/93/93 94/94/94 95/95/95
f 93/93/93 95/95/95 96/96/96
f 296/296/296 297/297/297 298/298/298
f 296/296/296 298/298/298 299/299/299
f 300/300/300 301/301/301 302/302/302
f 300/300/300 302/302/302 303/303/303
f 304/304/304 305/305/305 306/306/306
f 304/304/304 306/306/306 307/307/307
f 308/308/308 309/309/309 310/310/310
f 308/308/308 310/310/310 311/311/311
f 312/312/312 313/313/313 314/314/314
f 312/312/312 314/314/314 315/315/315
f 316/316/316 317/317/317 318/318/318
f 316/316/316 318/318/318 319/319/319
f 320/320/320 321/321/321 322/322/322
f 320/320/320 322/322/322 323/323/323
f 324/324/324 325/325/325 326/326/326
f 324/324/324 326/326/326 327/327/327
f 328/328/328 329/329/329 330/330/330
f 328/328/328 330/330/330 331/331/331
f 332/332/332 333/333/333 334/334/334
f 332/332/332 334/334/334 335/335/335
f 336/336/336 337/337/337 338/338/338
f 336/336/336 338/338/338 339/339/339
f 340/340/340 341/341/341 342/342/342
f 340/340/340 342/342/342 343/343/343
f 519/519/519 520/520/520 521/521/521
f 519/519/519 521/521/521 522/522/522
f 523/523/523 524/524/524 525/525/525
f 523/523/523 525/525/525 526/526/526
f 527/527/527 528/528/528 529/529/529
f 527/527/527 529/529/529 530/530/530
f 531/531/531 532/532/532 533/533/533
f 531/531/531 533/533/533 534/534/534
f 535/535/535 536/536/536 537/537/537
f 535/535/535 537/537/537 538/538/538
f 539/539/539 540/540/540 541/541/541
f 539/539/539 541/541/541 542/542/542
usemtl Banner
s off
f 145/145/145 146/146/146 147/147/147
f 145/145/145 147/147/147 148/148/148
f 149/149/149 150/150/150 151/151/151
f 149/149/149 151/151/151 152/152/152
f 153/153/153 154/154/154 155/155/155
f 153/153/153 155/155/155 156/156/156
f 157/157/157 158/158/158 159/159/159
f 157/157/157 159/159/159 160/160/160
f 161/161/161 162/162/162 163/163/163
f 161/161/161 163/163/163 164/164/164
f 165/165/165 166/166/166 167/167/167
f 165/165/165 167/167/167 168/168/168
f 392/392/392 393/393/393 394/394/394
f 392/392/392 394/394/394 395/395/395
f 396/396/396 397/397/397 398/398/398
f 396/396/396 398/398/398 399/399/399
f 400/400/400 401/401/401 402/402/402
f 400/400/400 402/402/402 403/403/403
f 404/404/404 405/405/405 406/406/406
f 404/404/404 406/406/406 407/407/407
f 408/408/408 409/409/409 410/410/410
f 408/408/408 410/410/410 411/411/411
f 412/412/412 413/413/413 414/414/414
f 412/412/412 414/414/414 415/415/415
usemtl Gold
s off
f 169/169/169 170/170/170 171/171/171
f 169/169/169 171/171/171 172/172/172
f 173/173/173 174/174/174 175/175/175
f 173/173/173 175/175/175 176/176/176
f 177/177/177 178/178/178 179/179/179
f 177/177/177 179/179/179 180/180/180
f 181/181/181 182/182/182 183/183/183
f 181/181/181 183/183/183 184/184/184
f 185/185/185 186/186/186 187/187/187
f 185/185/185 187/187/187 188/188/188
f 189/189/189 190/190/190 191/191/191
f 189/189/189 191/191/191 192/192/192
f 416/416/416 417/417/417 418/418/418
f 416/416/416 418/418/418 419/419/419
f 420/420/420 421/421/421 422/422/422
f 420/420/420 422/422/422 423/423/423
f 424/424/424 425/425/425 426/426/426
f 424/424/424 426/426/426 427/427/427
f 428/428/428 429/429/429 430/430/430
f 428/428/428 430/430/430 431/431/431
f 432/432/432 433/433/433 434/434/434
f 432/432/432 434/434/434 435/435/435
f 436/436/436 437/437/437 438/438/438
f 436/436/436 438/438/438 439/439/439
usemtl GateGlow
s off
f 195/195/195 194/194/194 196/196/196
f 196/196/196 193/193/193 195/195/195
f 196/196/196 194/194/194 197/197/197
f 197/197/197 193/193/193 196/196/196
f 197/197/197 194/194/194 198/198/198
f 198/198/198 193/193/193 197/197/197
f 198/198/198 194/194/194 199/199/199
f 199/199/199 193/193/193 198/198/198
f 199/199/199 194/194/194 195/195/195
f 195/195/195 193/193/193 199/199/199
f 442/442/442 441/441/441 443/443/443
f 443/443/443 440/440/440 442/442/442
f 443/443/443 441/441/441 444/444/444
f 444/444/444 440/440/440 443/443/443
f 444/444/444 441/441/441 445/445/445
f 445/445/445 440/440/440 444/444/444
f 445/445/445 441/441/441 446/446/446
f 446/446/446 440/440/440 445/445/445
f 446/446/446 441/441/441 442/442/442
f 442/442/442 440/440/440 446/446/446
f 593/593/593 592/592/592 594/594/594
f 594/594/594 591/591/591 593/593/593
f 594/594/594 592/592/592 595/595/595
f 595/595/595 591/591/591 594/594/594
f 595/595/595 592/592/592 596/596/596
f 596/596/596 591/591/591 595/595/595
f 596/596/596 592/592/592 593/593/593
f 593/593/593 591/591/591 596/596/596
f 599/599/599 598/598/598 600/600/600
f 600/600/600 597/597/597 599/599/599
f 600/600/600 598/598/598 601/601/601
f 601/601/601 597/597/597 600/600/600
f 601/601/601 598/598/598 602/602/602
f 602/602/602 597/597/597 601/601/601
f 602/602/602 598/598/598 599/599/599
f 599/599/599 597/597/597 602/602/602
f 605/605/605 604/604/604 606/606/606
f 606/606/606 603/603/603 605/605/605
f 606/606/606 604/604/604 607/607/607
f 607/607/607 603/603/603 606/606/606
f 607/607/607 604/604/604 608/608/608
f 608/608/608 603/603/603 607/607/607
f 608/608/608 604/604/604 605/605/605
f 605/605/605 603/603/603 608/608/608
f 611/611/611 610/610/610 612/612/612
f 612/612/612 609/609/609 611/611/611
f 612/612/612 610/610/610 613/613/613
f 613/613/613 609/609/609 612/612/612
f 613/613/613 610/610/610 614/614/614
f 614/614/614 609/609/609 613/613/613
f 614/614/614 610/610/610 611/611/611
f 611/611/611 609/609/609 614/614/614
f 617/617/617 616/616/616 618/618/618
f 618/618/618 615/615/615 617/617/617
f 618/618/618 616/616/616 619/619/619
f 619/619/619 615/615/615 618/618/618
f 619/619/619 616/616/616 620/620/620
f 620/620/620 615/615/615 619/619/619
f 620/620/620 616/616/616 617/617/617
f 617/617/617 615/615/615 620/620/620
