mtllib copy_memory_station.mtl
o CopyMemoryStation
g BaseShadow
usemtl StationShadow
v 3.0000 0.0000 0.0000
v 2.8532 0.0000 0.5099
v 2.4271 0.0000 0.9698
v 1.7634 0.0000 1.3349
v 0.9271 0.0000 1.5692
v 0.0000 0.0000 1.6500
v -0.9271 0.0000 1.5692
v -1.7634 0.0000 1.3349
v -2.4271 0.0000 0.9698
v -2.8532 0.0000 0.5099
v -3.0000 0.0000 0.0000
v -2.8532 0.0000 -0.5099
v -2.4271 0.0000 -0.9698
v -1.7634 0.0000 -1.3349
v -0.9271 0.0000 -1.5692
v -0.0000 0.0000 -1.6500
v 0.9271 0.0000 -1.5692
v 1.7634 0.0000 -1.3349
v 2.4271 0.0000 -0.9698
v 2.8532 0.0000 -0.5099
v 3.0000 0.3400 0.0000
v 2.8532 0.3400 0.5099
v 2.4271 0.3400 0.9698
v 1.7634 0.3400 1.3349
v 0.9271 0.3400 1.5692
v 0.0000 0.3400 1.6500
v -0.9271 0.3400 1.5692
v -1.7634 0.3400 1.3349
v -2.4271 0.3400 0.9698
v -2.8532 0.3400 0.5099
v -3.0000 0.3400 0.0000
v -2.8532 0.3400 -0.5099
v -2.4271 0.3400 -0.9698
v -1.7634 0.3400 -1.3349
v -0.9271 0.3400 -1.5692
v -0.0000 0.3400 -1.6500
v 0.9271 0.3400 -1.5692
v 1.7634 0.3400 -1.3349
v 2.4271 0.3400 -0.9698
v 2.8532 0.3400 -0.5099
v 0.0000 0.0000 0.0000
v 0.0000 0.3400 0.0000
f 41 2 1
f 42 21 22
f 1 2 22 21
f 41 3 2
f 42 22 23
f 2 3 23 22
f 41 4 3
f 42 23 24
f 3 4 24 23
f 41 5 4
f 42 24 25
f 4 5 25 24
f 41 6 5
f 42 25 26
f 5 6 26 25
f 41 7 6
f 42 26 27
f 6 7 27 26
f 41 8 7
f 42 27 28
f 7 8 28 27
f 41 9 8
f 42 28 29
f 8 9 29 28
f 41 10 9
f 42 29 30
f 9 10 30 29
f 41 11 10
f 42 30 31
f 10 11 31 30
f 41 12 11
f 42 31 32
f 11 12 32 31
f 41 13 12
f 42 32 33
f 12 13 33 32
f 41 14 13
f 42 33 34
f 13 14 34 33
f 41 15 14
f 42 34 35
f 14 15 35 34
f 41 16 15
f 42 35 36
f 15 16 36 35
f 41 17 16
f 42 36 37
f 16 17 37 36
f 41 18 17
f 42 37 38
f 17 18 38 37
f 41 19 18
f 42 38 39
f 18 19 39 38
f 41 20 19
f 42 39 40
f 19 20 40 39
f 41 1 20
f 42 40 21
f 20 1 21 40
g BasePearl
usemtl StationPearl
v 2.8600 0.3400 0.0000
v 2.7200 0.3400 0.4666
v 2.3138 0.3400 0.8876
v 1.6811 0.3400 1.2216
v 0.8838 0.3400 1.4361
v 0.0000 0.3400 1.5100
v -0.8838 0.3400 1.4361
v -1.6811 0.3400 1.2216
v -2.3138 0.3400 0.8876
v -2.7200 0.3400 0.4666
v -2.8600 0.3400 0.0000
v -2.7200 0.3400 -0.4666
v -2.3138 0.3400 -0.8876
v -1.6811 0.3400 -1.2216
v -0.8838 0.3400 -1.4361
v -0.0000 0.3400 -1.5100
v 0.8838 0.3400 -1.4361
v 1.6811 0.3400 -1.2216
v 2.3138 0.3400 -0.8876
v 2.7200 0.3400 -0.4666
v 2.8600 0.5400 0.0000
v 2.7200 0.5400 0.4666
v 2.3138 0.5400 0.8876
v 1.6811 0.5400 1.2216
v 0.8838 0.5400 1.4361
v 0.0000 0.5400 1.5100
v -0.8838 0.5400 1.4361
v -1.6811 0.5400 1.2216
v -2.3138 0.5400 0.8876
v -2.7200 0.5400 0.4666
v -2.8600 0.5400 0.0000
v -2.7200 0.5400 -0.4666
v -2.3138 0.5400 -0.8876
v -1.6811 0.5400 -1.2216
v -0.8838 0.5400 -1.4361
v -0.0000 0.5400 -1.5100
v 0.8838 0.5400 -1.4361
v 1.6811 0.5400 -1.2216
v 2.3138 0.5400 -0.8876
v 2.7200 0.5400 -0.4666
v 0.0000 0.3400 0.0000
v 0.0000 0.5400 0.0000
f 83 44 43
f 84 63 64
f 43 44 64 63
f 83 45 44
f 84 64 65
f 44 45 65 64
f 83 46 45
f 84 65 66
f 45 46 66 65
f 83 47 46
f 84 66 67
f 46 47 67 66
f 83 48 47
f 84 67 68
f 47 48 68 67
f 83 49 48
f 84 68 69
f 48 49 69 68
f 83 50 49
f 84 69 70
f 49 50 70 69
f 83 51 50
f 84 70 71
f 50 51 71 70
f 83 52 51
f 84 71 72
f 51 52 72 71
f 83 53 52
f 84 72 73
f 52 53 73 72
f 83 54 53
f 84 73 74
f 53 54 74 73
f 83 55 54
f 84 74 75
f 54 55 75 74
f 83 56 55
f 84 75 76
f 55 56 76 75
f 83 57 56
f 84 76 77
f 56 57 77 76
f 83 58 57
f 84 77 78
f 57 58 78 77
f 83 59 58
f 84 78 79
f 58 59 79 78
f 83 60 59
f 84 79 80
f 59 60 80 79
f 83 61 60
f 84 80 81
f 60 61 81 80
f 83 62 61
f 84 81 82
f 61 62 82 81
f 83 43 62
f 84 82 63
f 62 43 63 82
g GoldTrim
usemtl StationGold
v 2.7800 0.5400 0.0000
v 2.6439 0.5400 0.4419
v 2.2491 0.5400 0.8405
v 1.6340 0.5400 1.1569
v 0.8591 0.5400 1.3600
v 0.0000 0.5400 1.4300
v -0.8591 0.5400 1.3600
v -1.6340 0.5400 1.1569
v -2.2491 0.5400 0.8405
v -2.6439 0.5400 0.4419
v -2.7800 0.5400 0.0000
v -2.6439 0.5400 -0.4419
v -2.2491 0.5400 -0.8405
v -1.6340 0.5400 -1.1569
v -0.8591 0.5400 -1.3600
v -0.0000 0.5400 -1.4300
v 0.8591 0.5400 -1.3600
v 1.6340 0.5400 -1.1569
v 2.2491 0.5400 -0.8405
v 2.6439 0.5400 -0.4419
v 2.7800 0.6400 0.0000
v 2.6439 0.6400 0.4419
v 2.2491 0.6400 0.8405
v 1.6340 0.6400 1.1569
v 0.8591 0.6400 1.3600
v 0.0000 0.6400 1.4300
v -0.8591 0.6400 1.3600
v -1.6340 0.6400 1.1569
v -2.2491 0.6400 0.8405
v -2.6439 0.6400 0.4419
v -2.7800 0.6400 0.0000
v -2.6439 0.6400 -0.4419
v -2.2491 0.6400 -0.8405
v -1.6340 0.6400 -1.1569
v -0.8591 0.6400 -1.3600
v -0.0000 0.6400 -1.4300
v 0.8591 0.6400 -1.3600
v 1.6340 0.6400 -1.1569
v 2.2491 0.6400 -0.8405
v 2.6439 0.6400 -0.4419
v 0.0000 0.5400 0.0000
v 0.0000 0.6400 0.0000
f 125 86 85
f 126 105 106
f 85 86 106 105
f 125 87 86
f 126 106 107
f 86 87 107 106
f 125 88 87
f 126 107 108
f 87 88 108 107
f 125 89 88
f 126 108 109
f 88 89 109 108
f 125 90 89
f 126 109 110
f 89 90 110 109
f 125 91 90
f 126 110 111
f 90 91 111 110
f 125 92 91
f 126 111 112
f 91 92 112 111
f 125 93 92
f 126 112 113
f 92 93 113 112
f 125 94 93
f 126 113 114
f 93 94 114 113
f 125 95 94
f 126 114 115
f 94 95 115 114
f 125 96 95
f 126 115 116
f 95 96 116 115
f 125 97 96
f 126 116 117
f 96 97 117 116
f 125 98 97
f 126 117 118
f 97 98 118 117
f 125 99 98
f 126 118 119
f 98 99 119 118
f 125 100 99
f 126 119 120
f 99 100 120 119
f 125 101 100
f 126 120 121
f 100 101 121 120
f 125 102 101
f 126 121 122
f 101 102 122 121
f 125 103 102
f 126 122 123
f 102 103 123 122
f 125 104 103
f 126 123 124
f 103 104 124 123
f 125 85 104
f 126 124 105
f 104 85 105 124
g UpperPearl
usemtl StationPearl
v 2.6200 0.6400 -0.0200
v 2.4918 0.6400 0.3786
v 2.1196 0.6400 0.7382
v 1.5400 0.6400 1.0236
v 0.8096 0.6400 1.2069
v 0.0000 0.6400 1.2700
v -0.8096 0.6400 1.2069
v -1.5400 0.6400 1.0236
v -2.1196 0.6400 0.7382
v -2.4918 0.6400 0.3786
v -2.6200 0.6400 -0.0200
v -2.4918 0.6400 -0.4186
v -2.1196 0.6400 -0.7782
v -1.5400 0.6400 -1.0636
v -0.8096 0.6400 -1.2469
v -0.0000 0.6400 -1.3100
v 0.8096 0.6400 -1.2469
v 1.5400 0.6400 -1.0636
v 2.1196 0.6400 -0.7782
v 2.4918 0.6400 -0.4186
v 2.6200 0.7200 -0.0200
v 2.4918 0.7200 0.3786
v 2.1196 0.7200 0.7382
v 1.5400 0.7200 1.0236
v 0.8096 0.7200 1.2069
v 0.0000 0.7200 1.2700
v -0.8096 0.7200 1.2069
v -1.5400 0.7200 1.0236
v -2.1196 0.7200 0.7382
v -2.4918 0.7200 0.3786
v -2.6200 0.7200 -0.0200
v -2.4918 0.7200 -0.4186
v -2.1196 0.7200 -0.7782
v -1.5400 0.7200 -1.0636
v -0.8096 0.7200 -1.2469
v -0.0000 0.7200 -1.3100
v 0.8096 0.7200 -1.2469
v 1.5400 0.7200 -1.0636
v 2.1196 0.7200 -0.7782
v 2.4918 0.7200 -0.4186
v 0.0000 0.6400 -0.0200
v 0.0000 0.7200 -0.0200
f 167 128 127
f 168 147 148
f 127 128 148 147
f 167 129 128
f 168 148 149
f 128 129 149 148
f 167 130 129
f 168 149 150
f 129 130 150 149
f 167 131 130
f 168 150 151
f 130 131 151 150
f 167 132 131
f 168 151 152
f 131 132 152 151
f 167 133 132
f 168 152 153
f 132 133 153 152
f 167 134 133
f 168 153 154
f 133 134 154 153
f 167 135 134
f 168 154 155
f 134 135 155 154
f 167 136 135
f 168 155 156
f 135 136 156 155
f 167 137 136
f 168 156 157
f 136 137 157 156
f 167 138 137
f 168 157 158
f 137 138 158 157
f 167 139 138
f 168 158 159
f 138 139 159 158
f 167 140 139
f 168 159 160
f 139 140 160 159
f 167 141 140
f 168 160 161
f 140 141 161 160
f 167 142 141
f 168 161 162
f 141 142 162 161
f 167 143 142
f 168 162 163
f 142 143 163 162
f 167 144 143
f 168 163 164
f 143 144 164 163
f 167 145 144
f 168 164 165
f 144 145 165 164
f 167 146 145
f 168 165 166
f 145 146 166 165
f 167 127 146
f 168 166 147
f 146 127 147 166
g SocketA_Gold
usemtl StationGold
v -0.9500 0.7200 -0.1800
v -1.0033 0.7200 0.0879
v -1.1550 0.7200 0.3150
v -1.3821 0.7200 0.4667
v -1.6500 0.7200 0.5200
v -1.9179 0.7200 0.4667
v -2.1450 0.7200 0.3150
v -2.2967 0.7200 0.0879
v -2.3500 0.7200 -0.1800
v -2.2967 0.7200 -0.4479
v -2.1450 0.7200 -0.6750
v -1.9179 0.7200 -0.8267
v -1.6500 0.7200 -0.8800
v -1.3821 0.7200 -0.8267
v -1.1550 0.7200 -0.6750
v -1.0033 0.7200 -0.4479
v -0.9500 0.8000 -0.1800
v -1.0033 0.8000 0.0879
v -1.1550 0.8000 0.3150
v -1.3821 0.8000 0.4667
v -1.6500 0.8000 0.5200
v -1.9179 0.8000 0.4667
v -2.1450 0.8000 0.3150
v -2.2967 0.8000 0.0879
v -2.3500 0.8000 -0.1800
v -2.2967 0.8000 -0.4479
v -2.1450 0.8000 -0.6750
v -1.9179 0.8000 -0.8267
v -1.6500 0.8000 -0.8800
v -1.3821 0.8000 -0.8267
v -1.1550 0.8000 -0.6750
v -1.0033 0.8000 -0.4479
v -1.6500 0.7200 -0.1800
v -1.6500 0.8000 -0.1800
f 201 170 169
f 202 185 186
f 169 170 186 185
f 201 171 170
f 202 186 187
f 170 171 187 186
f 201 172 171
f 202 187 188
f 171 172 188 187
f 201 173 172
f 202 188 189
f 172 173 189 188
f 201 174 173
f 202 189 190
f 173 174 190 189
f 201 175 174
f 202 190 191
f 174 175 191 190
f 201 176 175
f 202 191 192
f 175 176 192 191
f 201 177 176
f 202 192 193
f 176 177 193 192
f 201 178 177
f 202 193 194
f 177 178 194 193
f 201 179 178
f 202 194 195
f 178 179 195 194
f 201 180 179
f 202 195 196
f 179 180 196 195
f 201 181 180
f 202 196 197
f 180 181 197 196
f 201 182 181
f 202 197 198
f 181 182 198 197
f 201 183 182
f 202 198 199
f 182 183 199 198
f 201 184 183
f 202 199 200
f 183 184 200 199
f 201 169 184
f 202 200 185
f 184 169 185 200
g SocketA_Inset
usemtl StationCoral
v -1.1000 0.8000 -0.1800
v -1.1419 0.8000 0.0305
v -1.2611 0.8000 0.2089
v -1.4395 0.8000 0.3281
v -1.6500 0.8000 0.3700
v -1.8605 0.8000 0.3281
v -2.0389 0.8000 0.2089
v -2.1581 0.8000 0.0305
v -2.2000 0.8000 -0.1800
v -2.1581 0.8000 -0.3905
v -2.0389 0.8000 -0.5689
v -1.8605 0.8000 -0.6881
v -1.6500 0.8000 -0.7300
v -1.4395 0.8000 -0.6881
v -1.2611 0.8000 -0.5689
v -1.1419 0.8000 -0.3905
v -1.1000 0.8600 -0.1800
v -1.1419 0.8600 0.0305
v -1.2611 0.8600 0.2089
v -1.4395 0.8600 0.3281
v -1.6500 0.8600 0.3700
v -1.8605 0.8600 0.3281
v -2.0389 0.8600 0.2089
v -2.1581 0.8600 0.0305
v -2.2000 0.8600 -0.1800
v -2.1581 0.8600 -0.3905
v -2.0389 0.8600 -0.5689
v -1.8605 0.8600 -0.6881
v -1.6500 0.8600 -0.7300
v -1.4395 0.8600 -0.6881
v -1.2611 0.8600 -0.5689
v -1.1419 0.8600 -0.3905
v -1.6500 0.8000 -0.1800
v -1.6500 0.8600 -0.1800
f 235 204 203
f 236 219 220
f 203 204 220 219
f 235 205 204
f 236 220 221
f 204 205 221 220
f 235 206 205
f 236 221 222
f 205 206 222 221
f 235 207 206
f 236 222 223
f 206 207 223 222
f 235 208 207
f 236 223 224
f 207 208 224 223
f 235 209 208
f 236 224 225
f 208 209 225 224
f 235 210 209
f 236 225 226
f 209 210 226 225
f 235 211 210
f 236 226 227
f 210 211 227 226
f 235 212 211
f 236 227 228
f 211 212 228 227
f 235 213 212
f 236 228 229
f 212 213 229 228
f 235 214 213
f 236 229 230
f 213 214 230 229
f 235 215 214
f 236 230 231
f 214 215 231 230
f 235 216 215
f 236 231 232
f 215 216 232 231
f 235 217 216
f 236 232 233
f 216 217 233 232
f 235 218 217
f 236 233 234
f 217 218 234 233
f 235 203 218
f 236 234 219
f 218 203 219 234
g SocketB_Gold
usemtl StationGold
v 0.7000 0.7200 -0.1800
v 0.6467 0.7200 0.0879
v 0.4950 0.7200 0.3150
v 0.2679 0.7200 0.4667
v 0.0000 0.7200 0.5200
v -0.2679 0.7200 0.4667
v -0.4950 0.7200 0.3150
v -0.6467 0.7200 0.0879
v -0.7000 0.7200 -0.1800
v -0.6467 0.7200 -0.4479
v -0.4950 0.7200 -0.6750
v -0.2679 0.7200 -0.8267
v -0.0000 0.7200 -0.8800
v 0.2679 0.7200 -0.8267
v 0.4950 0.7200 -0.6750
v 0.6467 0.7200 -0.4479
v 0.7000 0.8000 -0.1800
v 0.6467 0.8000 0.0879
v 0.4950 0.8000 0.3150
v 0.2679 0.8000 0.4667
v 0.0000 0.8000 0.5200
v -0.2679 0.8000 0.4667
v -0.4950 0.8000 0.3150
v -0.6467 0.8000 0.0879
v -0.7000 0.8000 -0.1800
v -0.6467 0.8000 -0.4479
v -0.4950 0.8000 -0.6750
v -0.2679 0.8000 -0.8267
v -0.0000 0.8000 -0.8800
v 0.2679 0.8000 -0.8267
v 0.4950 0.8000 -0.6750
v 0.6467 0.8000 -0.4479
v 0.0000 0.7200 -0.1800
v 0.0000 0.8000 -0.1800
f 269 238 237
f 270 253 254
f 237 238 254 253
f 269 239 238
f 270 254 255
f 238 239 255 254
f 269 240 239
f 270 255 256
f 239 240 256 255
f 269 241 240
f 270 256 257
f 240 241 257 256
f 269 242 241
f 270 257 258
f 241 242 258 257
f 269 243 242
f 270 258 259
f 242 243 259 258
f 269 244 243
f 270 259 260
f 243 244 260 259
f 269 245 244
f 270 260 261
f 244 245 261 260
f 269 246 245
f 270 261 262
f 245 246 262 261
f 269 247 246
f 270 262 263
f 246 247 263 262
f 269 248 247
f 270 263 264
f 247 248 264 263
f 269 249 248
f 270 264 265
f 248 249 265 264
f 269 250 249
f 270 265 266
f 249 250 266 265
f 269 251 250
f 270 266 267
f 250 251 267 266
f 269 252 251
f 270 267 268
f 251 252 268 267
f 269 237 252
f 270 268 253
f 252 237 253 268
g SocketB_Inset
usemtl StationViolet
v 0.5500 0.8000 -0.1800
v 0.5081 0.8000 0.0305
v 0.3889 0.8000 0.2089
v 0.2105 0.8000 0.3281
v 0.0000 0.8000 0.3700
v -0.2105 0.8000 0.3281
v -0.3889 0.8000 0.2089
v -0.5081 0.8000 0.0305
v -0.5500 0.8000 -0.1800
v -0.5081 0.8000 -0.3905
v -0.3889 0.8000 -0.5689
v -0.2105 0.8000 -0.6881
v -0.0000 0.8000 -0.7300
v 0.2105 0.8000 -0.6881
v 0.3889 0.8000 -0.5689
v 0.5081 0.8000 -0.3905
v 0.5500 0.8600 -0.1800
v 0.5081 0.8600 0.0305
v 0.3889 0.8600 0.2089
v 0.2105 0.8600 0.3281
v 0.0000 0.8600 0.3700
v -0.2105 0.8600 0.3281
v -0.3889 0.8600 0.2089
v -0.5081 0.8600 0.0305
v -0.5500 0.8600 -0.1800
v -0.5081 0.8600 -0.3905
v -0.3889 0.8600 -0.5689
v -0.2105 0.8600 -0.6881
v -0.0000 0.8600 -0.7300
v 0.2105 0.8600 -0.6881
v 0.3889 0.8600 -0.5689
v 0.5081 0.8600 -0.3905
v 0.0000 0.8000 -0.1800
v 0.0000 0.8600 -0.1800
f 303 272 271
f 304 287 288
f 271 272 288 287
f 303 273 272
f 304 288 289
f 272 273 289 288
f 303 274 273
f 304 289 290
f 273 274 290 289
f 303 275 274
f 304 290 291
f 274 275 291 290
f 303 276 275
f 304 291 292
f 275 276 292 291
f 303 277 276
f 304 292 293
f 276 277 293 292
f 303 278 277
f 304 293 294
f 277 278 294 293
f 303 279 278
f 304 294 295
f 278 279 295 294
f 303 280 279
f 304 295 296
f 279 280 296 295
f 303 281 280
f 304 296 297
f 280 281 297 296
f 303 282 281
f 304 297 298
f 281 282 298 297
f 303 283 282
f 304 298 299
f 282 283 299 298
f 303 284 283
f 304 299 300
f 283 284 300 299
f 303 285 284
f 304 300 301
f 284 285 301 300
f 303 286 285
f 304 301 302
f 285 286 302 301
f 303 271 286
f 304 302 287
f 286 271 287 302
g SocketC_Gold
usemtl StationGold
v 2.3500 0.7200 -0.1800
v 2.2967 0.7200 0.0879
v 2.1450 0.7200 0.3150
v 1.9179 0.7200 0.4667
v 1.6500 0.7200 0.5200
v 1.3821 0.7200 0.4667
v 1.1550 0.7200 0.3150
v 1.0033 0.7200 0.0879
v 0.9500 0.7200 -0.1800
v 1.0033 0.7200 -0.4479
v 1.1550 0.7200 -0.6750
v 1.3821 0.7200 -0.8267
v 1.6500 0.7200 -0.8800
v 1.9179 0.7200 -0.8267
v 2.1450 0.7200 -0.6750
v 2.2967 0.7200 -0.4479
v 2.3500 0.8000 -0.1800
v 2.2967 0.8000 0.0879
v 2.1450 0.8000 0.3150
v 1.9179 0.8000 0.4667
v 1.6500 0.8000 0.5200
v 1.3821 0.8000 0.4667
v 1.1550 0.8000 0.3150
v 1.0033 0.8000 0.0879
v 0.9500 0.8000 -0.1800
v 1.0033 0.8000 -0.4479
v 1.1550 0.8000 -0.6750
v 1.3821 0.8000 -0.8267
v 1.6500 0.8000 -0.8800
v 1.9179 0.8000 -0.8267
v 2.1450 0.8000 -0.6750
v 2.2967 0.8000 -0.4479
v 1.6500 0.7200 -0.1800
v 1.6500 0.8000 -0.1800
f 337 306 305
f 338 321 322
f 305 306 322 321
f 337 307 306
f 338 322 323
f 306 307 323 322
f 337 308 307
f 338 323 324
f 307 308 324 323
f 337 309 308
f 338 324 325
f 308 309 325 324
f 337 310 309
f 338 325 326
f 309 310 326 325
f 337 311 310
f 338 326 327
f 310 311 327 326
f 337 312 311
f 338 327 328
f 311 312 328 327
f 337 313 312
f 338 328 329
f 312 313 329 328
f 337 314 313
f 338 329 330
f 313 314 330 329
f 337 315 314
f 338 330 331
f 314 315 331 330
f 337 316 315
f 338 331 332
f 315 316 332 331
f 337 317 316
f 338 332 333
f 316 317 333 332
f 337 318 317
f 338 333 334
f 317 318 334 333
f 337 319 318
f 338 334 335
f 318 319 335 334
f 337 320 319
f 338 335 336
f 319 320 336 335
f 337 305 320
f 338 336 321
f 320 305 321 336
g SocketC_Inset
usemtl StationAqua
v 2.2000 0.8000 -0.1800
v 2.1581 0.8000 0.0305
v 2.0389 0.8000 0.2089
v 1.8605 0.8000 0.3281
v 1.6500 0.8000 0.3700
v 1.4395 0.8000 0.3281
v 1.2611 0.8000 0.2089
v 1.1419 0.8000 0.0305
v 1.1000 0.8000 -0.1800
v 1.1419 0.8000 -0.3905
v 1.2611 0.8000 -0.5689
v 1.4395 0.8000 -0.6881
v 1.6500 0.8000 -0.7300
v 1.8605 0.8000 -0.6881
v 2.0389 0.8000 -0.5689
v 2.1581 0.8000 -0.3905
v 2.2000 0.8600 -0.1800
v 2.1581 0.8600 0.0305
v 2.0389 0.8600 0.2089
v 1.8605 0.8600 0.3281
v 1.6500 0.8600 0.3700
v 1.4395 0.8600 0.3281
v 1.2611 0.8600 0.2089
v 1.1419 0.8600 0.0305
v 1.1000 0.8600 -0.1800
v 1.1419 0.8600 -0.3905
v 1.2611 0.8600 -0.5689
v 1.4395 0.8600 -0.6881
v 1.6500 0.8600 -0.7300
v 1.8605 0.8600 -0.6881
v 2.0389 0.8600 -0.5689
v 2.1581 0.8600 -0.3905
v 1.6500 0.8000 -0.1800
v 1.6500 0.8600 -0.1800
f 371 340 339
f 372 355 356
f 339 340 356 355
f 371 341 340
f 372 356 357
f 340 341 357 356
f 371 342 341
f 372 357 358
f 341 342 358 357
f 371 343 342
f 372 358 359
f 342 343 359 358
f 371 344 343
f 372 359 360
f 343 344 360 359
f 371 345 344
f 372 360 361
f 344 345 361 360
f 371 346 345
f 372 361 362
f 345 346 362 361
f 371 347 346
f 372 362 363
f 346 347 363 362
f 371 348 347
f 372 363 364
f 347 348 364 363
f 371 349 348
f 372 364 365
f 348 349 365 364
f 371 350 349
f 372 365 366
f 349 350 366 365
f 371 351 350
f 372 366 367
f 350 351 367 366
f 371 352 351
f 372 367 368
f 351 352 368 367
f 371 353 352
f 372 368 369
f 352 353 369 368
f 371 354 353
f 372 369 370
f 353 354 370 369
f 371 339 354
f 372 370 355
f 354 339 355 370
g MemoryReservoir
usemtl StationShadow
v 0.4800 0.7200 0.9000
v 0.4435 0.7200 1.0837
v 0.3394 0.7200 1.2394
v 0.1837 0.7200 1.3435
v 0.0000 0.7200 1.3800
v -0.1837 0.7200 1.3435
v -0.3394 0.7200 1.2394
v -0.4435 0.7200 1.0837
v -0.4800 0.7200 0.9000
v -0.4435 0.7200 0.7163
v -0.3394 0.7200 0.5606
v -0.1837 0.7200 0.4565
v -0.0000 0.7200 0.4200
v 0.1837 0.7200 0.4565
v 0.3394 0.7200 0.5606
v 0.4435 0.7200 0.7163
v 0.4800 1.1600 0.9000
v 0.4435 1.1600 1.0837
v 0.3394 1.1600 1.2394
v 0.1837 1.1600 1.3435
v 0.0000 1.1600 1.3800
v -0.1837 1.1600 1.3435
v -0.3394 1.1600 1.2394
v -0.4435 1.1600 1.0837
v -0.4800 1.1600 0.9000
v -0.4435 1.1600 0.7163
v -0.3394 1.1600 0.5606
v -0.1837 1.1600 0.4565
v -0.0000 1.1600 0.4200
v 0.1837 1.1600 0.4565
v 0.3394 1.1600 0.5606
v 0.4435 1.1600 0.7163
v 0.0000 0.7200 0.9000
v 0.0000 1.1600 0.9000
f 405 374 373
f 406 389 390
f 373 374 390 389
f 405 375 374
f 406 390 391
f 374 375 391 390
f 405 376 375
f 406 391 392
f 375 376 392 391
f 405 377 376
f 406 392 393
f 376 377 393 392
f 405 378 377
f 406 393 394
f 377 378 394 393
f 405 379 378
f 406 394 395
f 378 379 395 394
f 405 380 379
f 406 395 396
f 379 380 396 395
f 405 381 380
f 406 396 397
f 380 381 397 396
f 405 382 381
f 406 397 398
f 381 382 398 397
f 405 383 382
f 406 398 399
f 382 383 399 398
f 405 384 383
f 406 399 400
f 383 384 400 399
f 405 385 384
f 406 400 401
f 384 385 401 400
f 405 386 385
f 406 401 402
f 385 386 402 401
f 405 387 386
f 406 402 403
f 386 387 403 402
f 405 388 387
f 406 403 404
f 387 388 404 403
f 405 373 388
f 406 404 389
f 388 373 389 404
g MemoryReservoirTrim
usemtl StationGold
v 0.3800 1.1600 0.9000
v 0.3511 1.1600 1.0454
v 0.2687 1.1600 1.1687
v 0.1454 1.1600 1.2511
v 0.0000 1.1600 1.2800
v -0.1454 1.1600 1.2511
v -0.2687 1.1600 1.1687
v -0.3511 1.1600 1.0454
v -0.3800 1.1600 0.9000
v -0.3511 1.1600 0.7546
v -0.2687 1.1600 0.6313
v -0.1454 1.1600 0.5489
v -0.0000 1.1600 0.5200
v 0.1454 1.1600 0.5489
v 0.2687 1.1600 0.6313
v 0.3511 1.1600 0.7546
v 0.3800 1.2800 0.9000
v 0.3511 1.2800 1.0454
v 0.2687 1.2800 1.1687
v 0.1454 1.2800 1.2511
v 0.0000 1.2800 1.2800
v -0.1454 1.2800 1.2511
v -0.2687 1.2800 1.1687
v -0.3511 1.2800 1.0454
v -0.3800 1.2800 0.9000
v -0.3511 1.2800 0.7546
v -0.2687 1.2800 0.6313
v -0.1454 1.2800 0.5489
v -0.0000 1.2800 0.5200
v 0.1454 1.2800 0.5489
v 0.2687 1.2800 0.6313
v 0.3511 1.2800 0.7546
v 0.0000 1.1600 0.9000
v 0.0000 1.2800 0.9000
f 439 408 407
f 440 423 424
f 407 408 424 423
f 439 409 408
f 440 424 425
f 408 409 425 424
f 439 410 409
f 440 425 426
f 409 410 426 425
f 439 411 410
f 440 426 427
f 410 411 427 426
f 439 412 411
f 440 427 428
f 411 412 428 427
f 439 413 412
f 440 428 429
f 412 413 429 428
f 439 414 413
f 440 429 430
f 413 414 430 429
f 439 415 414
f 440 430 431
f 414 415 431 430
f 439 416 415
f 440 431 432
f 415 416 432 431
f 439 417 416
f 440 432 433
f 416 417 433 432
f 439 418 417
f 440 433 434
f 417 418 434 433
f 439 419 418
f 440 434 435
f 418 419 435 434
f 439 420 419
f 440 435 436
f 419 420 436 435
f 439 421 420
f 440 436 437
f 420 421 437 436
f 439 422 421
f 440 437 438
f 421 422 438 437
f 439 407 422
f 440 438 423
f 422 407 423 438
g MemoryReservoirCap
usemtl StationViolet
v 0.2700 1.2800 0.9000
v 0.2338 1.2800 1.0350
v 0.1350 1.2800 1.1338
v 0.0000 1.2800 1.1700
v -0.1350 1.2800 1.1338
v -0.2338 1.2800 1.0350
v -0.2700 1.2800 0.9000
v -0.2338 1.2800 0.7650
v -0.1350 1.2800 0.6662
v -0.0000 1.2800 0.6300
v 0.1350 1.2800 0.6662
v 0.2338 1.2800 0.7650
v 0.2700 1.4600 0.9000
v 0.2338 1.4600 1.0350
v 0.1350 1.4600 1.1338
v 0.0000 1.4600 1.1700
v -0.1350 1.4600 1.1338
v -0.2338 1.4600 1.0350
v -0.2700 1.4600 0.9000
v -0.2338 1.4600 0.7650
v -0.1350 1.4600 0.6662
v -0.0000 1.4600 0.6300
v 0.1350 1.4600 0.6662
v 0.2338 1.4600 0.7650
v 0.0000 1.2800 0.9000
v 0.0000 1.4600 0.9000
f 465 442 441
f 466 453 454
f 441 442 454 453
f 465 443 442
f 466 454 455
f 442 443 455 454
f 465 444 443
f 466 455 456
f 443 444 456 455
f 465 445 444
f 466 456 457
f 444 445 457 456
f 465 446 445
f 466 457 458
f 445 446 458 457
f 465 447 446
f 466 458 459
f 446 447 459 458
f 465 448 447
f 466 459 460
f 447 448 460 459
f 465 449 448
f 466 460 461
f 448 449 461 460
f 465 450 449
f 466 461 462
f 449 450 462 461
f 465 451 450
f 466 462 463
f 450 451 463 462
f 465 452 451
f 466 463 464
f 451 452 464 463
f 465 441 452
f 466 464 453
f 452 441 453 464
