# Blender 4.4.1
# www.blender.org
mtllib map_tutorial_02.mtl
o 天井
v 0.000000 -11.822594 -23.150856
v 0.000000 68.177406 -23.150856
v 2.926355 -11.822594 -22.862635
v 2.926355 68.177406 -22.862635
v 5.740252 -11.822594 -22.009048
v 5.740252 68.177406 -22.009048
v 8.333553 -11.822594 -20.622900
v 8.333553 68.177406 -20.622900
v 10.606602 -11.822594 -18.757456
v 10.606602 68.177406 -18.757456
v 12.472044 -11.822594 -16.484409
v 12.472044 68.177406 -16.484409
v 13.858192 -11.822594 -13.891108
v 13.858192 68.177406 -13.891108
v 14.711779 -11.822594 -11.077210
v 14.711779 68.177406 -11.077210
v 15.000000 -11.822594 -8.150856
v 15.000000 68.177406 -8.150856
v 14.711779 -11.822594 -5.224501
v 14.711779 68.177406 -5.224501
v 13.858192 -11.822594 -2.410604
v 13.858192 68.177406 -2.410604
v 12.472044 -11.822594 0.182698
v 12.472044 68.177406 0.182698
v 10.606602 -11.822594 2.455746
v 10.606602 68.177406 2.455746
v 8.333553 -11.822594 4.321188
v 8.333553 68.177406 4.321188
v 5.740252 -11.822594 5.707336
v 5.740252 68.177406 5.707336
v 2.926355 -11.822594 6.560923
v 2.926355 68.177406 6.560923
v 0.000000 -11.822594 6.849144
v 0.000000 68.177406 6.849144
v -2.926355 -11.822594 6.560923
v -2.926355 68.177406 6.560923
v -5.740252 -11.822594 5.707336
v -5.740252 68.177406 5.707336
v -8.333553 -11.822594 4.321188
v -8.333553 68.177406 4.321188
v -10.606602 -11.822594 2.455746
v -10.606602 68.177406 2.455746
v -12.472044 -11.822594 0.182698
v -12.472044 68.177406 0.182698
v -13.858192 -11.822594 -2.410604
v -13.858192 68.177406 -2.410604
v -14.711779 -11.822594 -5.224501
v -14.711779 68.177406 -5.224501
v -15.000000 -11.822594 -8.150856
v -15.000000 68.177406 -8.150856
v -14.711779 -11.822594 -11.077210
v -14.711779 68.177406 -11.077210
v -13.858192 -11.822594 -13.891108
v -13.858192 68.177406 -13.891108
v -12.472044 -11.822594 -16.484409
v -12.472044 68.177406 -16.484409
v -10.606602 -11.822594 -18.757456
v -10.606602 68.177406 -18.757456
v -8.333553 -11.822594 -20.622900
v -8.333553 68.177406 -20.622900
v -5.740252 -11.822594 -22.009048
v -5.740252 68.177406 -22.009048
v -2.926355 -11.822594 -22.862635
v -2.926355 68.177406 -22.862635
v -40.000000 -16.822594 31.849144
v -40.000000 -11.822594 31.849144
v -40.000000 -16.822594 -28.150854
v -40.000000 -11.822594 -28.150854
v 40.000000 -16.822594 31.849144
v 40.000000 -11.822594 31.849144
v 40.000000 -16.822594 -28.150854
v 40.000000 -11.822594 -28.150854
v -14.711779 -16.822594 -11.077209
v -13.858192 -16.822594 -13.891106
v -8.333553 -16.822594 -20.622898
v -10.606602 -16.822594 -18.757456
v -12.472045 -16.822594 -16.484409
v 0.000000 -16.822594 -23.150854
v -2.926355 -16.822594 -22.862635
v 2.926355 -16.822594 -22.862635
v -5.740252 -16.822594 -22.009048
v 8.333553 -16.822594 4.321188
v 8.333553 -16.822594 -20.622898
v 10.606602 -16.822594 2.455746
v 10.606602 -16.822594 -18.757456
v 13.858192 -16.822594 -2.410604
v 13.858192 -16.822594 -13.891106
v 15.000000 -16.822594 -8.150855
v 14.711779 -16.822594 -5.224501
v 14.711779 -16.822594 -11.077209
v 12.472045 -16.822594 0.182698
v 12.472045 -16.822594 -16.484409
v 5.740252 -16.822594 5.707336
v 5.740252 -16.822594 -22.009048
v -15.000000 -16.822594 -8.150855
v -12.472045 -16.822594 0.182698
v -13.858192 -16.822594 -2.410604
v -14.711779 -16.822594 -5.224501
v -5.740252 -16.822594 5.707336
v -8.333553 -16.822594 4.321188
v 2.926355 -16.822594 6.560923
v 0.000000 -16.822594 6.849144
v -2.926355 -16.822594 6.560923
v -10.606602 -16.822594 2.455746
v -14.711779 -11.822594 -5.224501
v -15.000000 -11.822594 -8.150855
v -13.858192 -11.822594 -13.891106
v -13.858192 -11.822594 -2.410604
v -14.711779 -11.822594 -11.077209
v -12.472045 -11.822594 0.182698
v -8.333553 -11.822594 -20.622898
v -10.606602 -11.822594 2.455746
v -10.606602 -11.822594 -18.757456
v -8.333553 -11.822594 4.321188
v -12.472045 -11.822594 -16.484409
v -5.740252 -11.822594 5.707336
v 0.000000 -11.822594 -23.150854
v 2.926355 -11.822594 -22.862635
v -2.926355 -11.822594 -22.862635
v 8.333553 -11.822594 -20.622898
v 10.606602 -11.822594 -18.757456
v 13.858192 -11.822594 -13.891106
v 14.711779 -11.822594 -11.077209
v 12.472045 -11.822594 -16.484409
v 5.740252 -11.822594 -22.009048
v -5.740252 -11.822594 -22.009048
v 0.000000 -11.822594 6.849144
v -2.926355 -11.822594 6.560923
v 2.926355 -11.822594 6.560923
v 5.740252 -11.822594 5.707336
v 10.606602 -11.822594 2.455746
v 12.472045 -11.822594 0.182698
v 15.000000 -11.822594 -8.150855
v 14.711779 -11.822594 -5.224501
v 13.858192 -11.822594 -2.410604
v 8.333553 -11.822594 4.321188
vn -0.1951 -0.0000 0.9808
vn -0.0000 -0.0000 1.0000
vn -0.3827 -0.0000 0.9239
vn -0.5556 -0.0000 0.8315
vn -0.7071 -0.0000 0.7071
vn -0.8315 -0.0000 0.5556
vn -0.9239 -0.0000 0.3827
vn -0.9808 -0.0000 0.1951
vn -1.0000 -0.0000 -0.0000
vn -0.9808 -0.0000 -0.1951
vn -0.9239 -0.0000 -0.3827
vn -0.8315 -0.0000 -0.5556
vn -0.7071 -0.0000 -0.7071
vn -0.5556 -0.0000 -0.8315
vn -0.3827 -0.0000 -0.9239
vn -0.1951 -0.0000 -0.9808
vn -0.0000 -0.0000 -1.0000
vn 0.1951 -0.0000 -0.9808
vn 0.3827 -0.0000 -0.9239
vn 0.5556 -0.0000 -0.8315
vn 0.7071 -0.0000 -0.7071
vn 0.8315 -0.0000 -0.5556
vn 0.9239 -0.0000 -0.3827
vn 0.9808 -0.0000 -0.1951
vn 1.0000 -0.0000 -0.0000
vn 0.9808 -0.0000 0.1951
vn 0.9239 -0.0000 0.3827
vn 0.8315 -0.0000 0.5556
vn 0.7071 -0.0000 0.7071
vn 0.5556 -0.0000 0.8315
vn 0.3827 -0.0000 0.9239
vn -0.0000 -1.0000 -0.0000
vn 0.1951 -0.0000 0.9808
vn -0.0000 1.0000 -0.0000
vt 0.968750 0.500000
vt 1.000000 1.000000
vt 1.000000 0.500000
vt 0.937500 0.500000
vt 0.968750 1.000000
vt 0.906250 0.500000
vt 0.937500 1.000000
vt 0.875000 0.500000
vt 0.906250 1.000000
vt 0.843750 0.500000
vt 0.875000 1.000000
vt 0.812500 0.500000
vt 0.843750 1.000000
vt 0.781250 0.500000
vt 0.812500 1.000000
vt 0.750000 0.500000
vt 0.781250 1.000000
vt 0.718750 0.500000
vt 0.750000 1.000000
vt 0.687500 0.500000
vt 0.718750 1.000000
vt 0.656250 0.500000
vt 0.687500 1.000000
vt 0.625000 0.500000
vt 0.656250 1.000000
vt 0.593750 0.500000
vt 0.625000 1.000000
vt 0.562500 0.500000
vt 0.593750 1.000000
vt 0.531250 0.500000
vt 0.562500 1.000000
vt 0.500000 0.500000
vt 0.531250 1.000000
vt 0.468750 0.500000
vt 0.500000 1.000000
vt 0.437500 0.500000
vt 0.468750 1.000000
vt 0.406250 0.500000
vt 0.437500 1.000000
vt 0.375000 0.500000
vt 0.406250 1.000000
vt 0.343750 0.500000
vt 0.375000 1.000000
vt 0.312500 0.500000
vt 0.343750 1.000000
vt 0.281250 0.500000
vt 0.312500 1.000000
vt 0.250000 0.500000
vt 0.281250 1.000000
vt 0.218750 0.500000
vt 0.250000 1.000000
vt 0.187500 0.500000
vt 0.218750 1.000000
vt 0.156250 0.500000
vt 0.187500 1.000000
vt 0.125000 0.500000
vt 0.156250 1.000000
vt 0.093750 0.500000
vt 0.125000 1.000000
vt 0.062500 0.500000
vt 0.093750 1.000000
vt 0.080294 0.419706
vt 0.250000 0.490000
vt 0.250000 0.010000
vt 0.031250 0.500000
vt 0.062500 1.000000
vt 0.000000 0.500000
vt 0.031250 1.000000
vt 0.625000 0.000000
vt 0.375000 0.250000
vt 0.375000 0.000000
vt 0.625000 0.250000
vt 0.375000 0.750000
vt 0.625000 0.750000
vt 0.250000 0.520833
vt 0.125000 0.750000
vt 0.240855 0.644632
vt 0.250000 0.645833
vt 0.740855 0.644632
vt 0.750000 0.645833
vt 0.750000 0.520833
vt 1.000000 0.555555
vt 0.968750 0.586805
vt 1.000000 0.586805
vt 0.968750 0.555555
vt 0.937500 0.586805
vt 0.937500 0.555555
vt 0.906250 0.586805
vt 0.875000 0.555555
vt 0.906250 0.555555
vt 0.843750 0.555555
vt 0.875000 0.586805
vt 0.812500 0.555555
vt 0.843750 0.586805
vt 0.781250 0.555555
vt 0.812500 0.586805
vt 0.750000 0.555555
vt 0.781250 0.586805
vt 0.718750 0.555555
vt 0.750000 0.586805
vt 0.687500 0.555555
vt 0.718750 0.586805
vt 0.656250 0.555555
vt 0.687500 0.586805
vt 0.625000 0.555555
vt 0.656250 0.586805
vt 0.593750 0.555555
vt 0.625000 0.586805
vt 0.562500 0.555555
vt 0.593750 0.586805
vt 0.531250 0.555555
vt 0.562500 0.586805
vt 0.500000 0.555555
vt 0.531250 0.586805
vt 0.468750 0.555555
vt 0.500000 0.586805
vt 0.437500 0.555555
vt 0.468750 0.586805
vt 0.406250 0.555555
vt 0.437500 0.586805
vt 0.375000 0.586805
vt 0.406250 0.586805
vt 0.375000 0.555555
vt 0.343750 0.586805
vt 0.343750 0.555555
vt 0.312500 0.586805
vt 0.312500 0.555555
vt 0.281250 0.586805
vt 0.281250 0.555555
vt 0.250000 0.586805
vt 0.250000 0.555555
vt 0.218750 0.586805
vt 0.218750 0.555555
vt 0.187500 0.586805
vt 0.187500 0.555555
vt 0.156250 0.586805
vt 0.156250 0.555555
vt 0.125000 0.586805
vt 0.125000 0.555555
vt 0.093750 0.586805
vt 0.093750 0.555555
vt 0.062500 0.586805
vt 0.062500 0.555555
vt 0.031250 0.586805
vt 0.031250 0.555555
vt 0.000000 0.586805
vt 0.296822 0.485388
vt 0.419706 0.419706
vt 0.341844 0.471731
vt 0.383337 0.449553
vt 0.449553 0.383337
vt 0.471731 0.341844
vt 0.485388 0.296822
vt 0.490000 0.250000
vt 0.485388 0.203178
vt 0.419706 0.080294
vt 0.471731 0.158156
vt 0.449553 0.116663
vt 0.383337 0.050447
vt 0.341844 0.028269
vt 0.296822 0.014612
vt 0.203178 0.014612
vt 0.080294 0.080294
vt 0.158156 0.028269
vt 0.116663 0.050447
vt 0.050447 0.116663
vt 0.028269 0.158156
vt 0.014612 0.203178
vt 0.010000 0.250000
vt 0.014612 0.296822
vt 0.028269 0.341844
vt 0.050447 0.383337
vt 0.116663 0.449553
vt 0.158156 0.471731
vt 0.203178 0.485388
vt 0.000000 1.000000
vt 0.216854 0.539139
vt 0.211025 0.548610
vt 0.288975 0.548610
vt 0.283146 0.539139
vt 0.276042 0.531367
vt 0.223958 0.531366
vt 0.232062 0.525591
vt 0.267938 0.525591
vt 0.259145 0.522034
vt 0.240855 0.522034
vt 0.293307 0.559416
vt 0.204026 0.595526
vt 0.206693 0.559416
vt 0.204026 0.571140
vt 0.295974 0.571140
vt 0.295974 0.595526
vt 0.296875 0.583333
vt 0.203125 0.583333
vt 0.206693 0.607251
vt 0.293307 0.607251
vt 0.288975 0.618056
vt 0.211025 0.618057
vt 0.216854 0.627528
vt 0.283146 0.627527
vt 0.276042 0.635300
vt 0.223958 0.635300
vt 0.232062 0.641076
vt 0.267938 0.641076
vt 0.259145 0.644632
vt 0.788975 0.548610
vt 0.793307 0.559416
vt 0.875000 0.750000
vt 0.795974 0.595526
vt 0.795974 0.571140
vt 0.704026 0.595526
vt 0.711025 0.548610
vt 0.706693 0.559416
vt 0.704026 0.571140
vt 0.796875 0.583333
vt 0.703125 0.583333
vt 0.706693 0.607251
vt 0.793307 0.607251
vt 0.788975 0.618056
vt 0.711025 0.618057
vt 0.716854 0.627528
vt 0.783146 0.627527
vt 0.776042 0.635300
vt 0.723958 0.635300
vt 0.732062 0.641076
vt 0.767938 0.641076
vt 0.759145 0.644632
vt 0.716854 0.539139
vt 0.783146 0.539139
vt 0.776042 0.531367
vt 0.723958 0.531366
vt 0.732062 0.525591
vt 0.767938 0.525591
vt 0.759145 0.522034
vt 0.740855 0.522034
vt 0.000000 0.555555
s 1
f 3/1/1 2/2/2 1/3/2
f 5/4/3 4/5/1 3/1/1
f 7/6/4 6/7/3 5/4/3
f 9/8/5 8/9/4 7/6/4
f 11/10/6 10/11/5 9/8/5
f 13/12/7 12/13/6 11/10/6
f 15/14/8 14/15/7 13/12/7
f 17/16/9 16/17/8 15/14/8
f 19/18/10 18/19/9 17/16/9
f 21/20/11 20/21/10 19/18/10
f 23/22/12 22/23/11 21/20/11
f 25/24/13 24/25/12 23/22/12
f 27/26/14 26/27/13 25/24/13
f 29/28/15 28/29/14 27/26/14
f 31/30/16 30/31/15 29/28/15
f 33/32/17 32/33/16 31/30/16
f 35/34/18 34/35/17 33/32/17
f 37/36/19 36/37/18 35/34/18
f 39/38/20 38/39/19 37/36/19
f 41/40/21 40/41/20 39/38/20
f 43/42/22 42/43/21 41/40/21
f 45/44/23 44/45/22 43/42/22
f 47/46/24 46/47/23 45/44/23
f 49/48/25 48/49/24 47/46/24
f 51/50/26 50/51/25 49/48/25
f 53/52/27 52/53/26 51/50/26
f 55/54/28 54/55/27 53/52/27
f 57/56/29 56/57/28 55/54/28
f 59/58/30 58/59/29 57/56/29
f 61/60/31 60/61/30 59/58/30
s 0
f 58/62/32 2/63/32 34/64/32
s 1
f 63/65/33 62/66/31 61/60/31
f 1/67/2 64/68/33 63/65/33
s 0
f 66/69/9 67/70/9 65/71/9
f 68/72/17 71/40/17 67/70/17
f 72/24/25 69/73/25 71/40/25
f 70/74/2 65/43/2 69/73/2
f 67/56/32 71/40/32 78/75/32
f 65/76/32 103/77/32 102/78/32
f 70/74/34 129/79/34 127/80/34
f 72/24/34 68/8/34 117/81/34
s 1
f 78/82/2 118/83/1 117/84/2
f 80/85/1 125/86/3 118/83/1
f 94/87/3 120/88/4 125/86/3
f 85/89/5 120/88/4 83/90/4
f 92/91/6 121/92/5 85/89/5
f 87/93/7 124/94/6 92/91/6
f 90/95/8 122/96/7 87/93/7
f 88/97/9 123/98/8 90/95/8
f 89/99/10 133/100/9 88/97/9
f 86/101/11 134/102/10 89/99/10
f 91/103/12 135/104/11 86/101/11
f 84/105/13 132/106/12 91/103/12
f 82/107/14 131/108/13 84/105/13
f 93/109/15 136/110/14 82/107/14
f 101/111/16 130/112/15 93/109/15
f 102/113/17 129/114/16 101/111/16
f 103/115/18 127/116/17 102/113/17
f 99/117/19 128/118/18 103/115/18
f 100/119/20 116/120/19 99/117/19
f 100/119/20 112/121/21 114/122/20
f 104/123/21 110/124/22 112/121/21
f 96/125/22 108/126/23 110/124/22
f 97/127/23 105/128/24 108/126/23
f 98/129/24 106/130/25 105/128/24
f 95/131/25 109/132/26 106/130/25
f 73/133/26 107/134/27 109/132/26
f 74/135/27 115/136/28 107/134/27
f 77/137/28 113/138/29 115/136/28
f 76/139/29 111/140/30 113/138/29
f 75/141/30 126/142/31 111/140/30
f 81/143/31 119/144/33 126/142/31
f 79/145/33 117/146/2 119/144/33
f 3/1/1 4/5/1 2/2/2
f 5/4/3 6/7/3 4/5/1
f 7/6/4 8/9/4 6/7/3
f 9/8/5 10/11/5 8/9/4
f 11/10/6 12/13/6 10/11/5
f 13/12/7 14/15/7 12/13/6
f 15/14/8 16/17/8 14/15/7
f 17/16/9 18/19/9 16/17/8
f 19/18/10 20/21/10 18/19/9
f 21/20/11 22/23/11 20/21/10
f 23/22/12 24/25/12 22/23/11
f 25/24/13 26/27/13 24/25/12
f 27/26/14 28/29/14 26/27/13
f 29/28/15 30/31/15 28/29/14
f 31/30/16 32/33/16 30/31/15
f 33/32/17 34/35/17 32/33/16
f 35/34/18 36/37/18 34/35/17
f 37/36/19 38/39/19 36/37/18
f 39/38/20 40/41/20 38/39/19
f 41/40/21 42/43/21 40/41/20
f 43/42/22 44/45/22 42/43/21
f 45/44/23 46/47/23 44/45/22
f 47/46/24 48/49/24 46/47/23
f 49/48/25 50/51/25 48/49/24
f 51/50/26 52/53/26 50/51/25
f 53/52/27 54/55/27 52/53/26
f 55/54/28 56/57/28 54/55/27
f 57/56/29 58/59/29 56/57/28
f 59/58/30 60/61/30 58/59/29
f 61/60/31 62/66/31 60/61/30
s 0
f 2/63/32 4/147/32 10/148/32
f 4/147/32 6/149/32 10/148/32
f 6/149/32 8/150/32 10/148/32
f 10/148/32 12/151/32 14/152/32
f 14/152/32 16/153/32 10/148/32
f 16/153/32 18/154/32 10/148/32
f 18/154/32 20/155/32 26/156/32
f 20/155/32 22/157/32 26/156/32
f 22/157/32 24/158/32 26/156/32
f 26/156/32 28/159/32 30/160/32
f 30/160/32 32/161/32 26/156/32
f 32/161/32 34/64/32 26/156/32
f 34/64/32 36/162/32 42/163/32
f 36/162/32 38/164/32 42/163/32
f 38/164/32 40/165/32 42/163/32
f 42/163/32 44/166/32 46/167/32
f 46/167/32 48/168/32 42/163/32
f 48/168/32 50/169/32 42/163/32
f 50/169/32 52/170/32 58/62/32
f 52/170/32 54/171/32 58/62/32
f 54/171/32 56/172/32 58/62/32
f 58/62/32 60/173/32 62/174/32
f 62/174/32 64/175/32 58/62/32
f 64/175/32 2/63/32 58/62/32
f 2/63/32 10/148/32 34/64/32
f 10/148/32 18/154/32 34/64/32
f 18/154/32 26/156/32 34/64/32
f 34/64/32 42/163/32 50/169/32
f 50/169/32 58/62/32 34/64/32
s 1
f 63/65/33 64/68/33 62/66/31
f 1/67/2 2/176/2 64/68/33
s 0
f 66/69/9 68/72/9 67/70/9
f 68/72/17 72/24/17 71/40/17
f 72/24/25 70/74/25 69/73/25
f 70/74/2 66/27/2 65/43/2
f 76/177/32 77/178/32 67/56/32
f 71/40/32 92/179/32 85/180/32
f 71/40/32 85/180/32 83/181/32
f 75/182/32 76/177/32 67/56/32
f 81/183/32 75/182/32 67/56/32
f 71/40/32 83/181/32 94/184/32
f 71/40/32 94/184/32 80/185/32
f 79/186/32 81/183/32 67/56/32
f 71/40/32 80/185/32 78/75/32
f 78/75/32 79/186/32 67/56/32
f 87/187/32 92/179/32 71/40/32
f 65/76/32 67/56/32 98/188/32
f 67/56/32 77/178/32 74/189/32
f 67/56/32 74/189/32 73/190/32
f 87/187/32 71/40/32 90/191/32
f 71/40/32 69/73/32 89/192/32
f 90/191/32 71/40/32 88/193/32
f 88/193/32 71/40/32 89/192/32
f 67/56/32 73/190/32 95/194/32
f 67/56/32 95/194/32 98/188/32
f 65/76/32 98/188/32 97/195/32
f 86/196/32 89/192/32 69/73/32
f 91/197/32 86/196/32 69/73/32
f 65/76/32 97/195/32 96/198/32
f 65/76/32 96/198/32 104/199/32
f 84/200/32 91/197/32 69/73/32
f 82/201/32 84/200/32 69/73/32
f 65/76/32 104/199/32 100/202/32
f 65/76/32 100/202/32 99/203/32
f 82/201/32 69/73/32 93/204/32
f 69/73/32 65/76/32 102/78/32
f 93/204/32 69/73/32 101/205/32
f 101/205/32 69/73/32 102/78/32
f 65/76/32 99/203/32 103/77/32
f 115/206/34 68/8/34 107/207/34
f 68/8/34 66/208/34 105/209/34
f 107/207/34 68/8/34 109/210/34
f 70/74/34 72/24/34 134/211/34
f 72/24/34 124/212/34 122/213/34
f 72/24/34 122/213/34 123/214/34
f 109/210/34 68/8/34 106/215/34
f 106/215/34 68/8/34 105/209/34
f 72/24/34 123/214/34 133/216/34
f 72/24/34 133/216/34 134/211/34
f 70/74/34 134/211/34 135/217/34
f 108/218/34 105/209/34 66/208/34
f 110/219/34 108/218/34 66/208/34
f 70/74/34 135/217/34 132/220/34
f 70/74/34 132/220/34 131/221/34
f 112/222/34 110/219/34 66/208/34
f 114/223/34 112/222/34 66/208/34
f 70/74/34 131/221/34 136/224/34
f 70/74/34 136/224/34 130/225/34
f 114/223/34 66/208/34 116/226/34
f 66/208/34 70/74/34 127/80/34
f 116/226/34 66/208/34 128/227/34
f 128/227/34 66/208/34 127/80/34
f 70/74/34 130/225/34 129/79/34
f 121/228/34 124/212/34 72/24/34
f 68/8/34 115/206/34 113/229/34
f 68/8/34 113/229/34 111/230/34
f 120/231/34 121/228/34 72/24/34
f 125/232/34 120/231/34 72/24/34
f 68/8/34 111/230/34 126/233/34
f 68/8/34 126/233/34 119/234/34
f 118/235/34 125/232/34 72/24/34
f 68/8/34 119/234/34 117/81/34
f 117/81/34 118/235/34 72/24/34
s 1
f 78/82/2 80/85/1 118/83/1
f 80/85/1 94/87/3 125/86/3
f 94/87/3 83/90/4 120/88/4
f 85/89/5 121/92/5 120/88/4
f 92/91/6 124/94/6 121/92/5
f 87/93/7 122/96/7 124/94/6
f 90/95/8 123/98/8 122/96/7
f 88/97/9 133/100/9 123/98/8
f 89/99/10 134/102/10 133/100/9
f 86/101/11 135/104/11 134/102/10
f 91/103/12 132/106/12 135/104/11
f 84/105/13 131/108/13 132/106/12
f 82/107/14 136/110/14 131/108/13
f 93/109/15 130/112/15 136/110/14
f 101/111/16 129/114/16 130/112/15
f 102/113/17 127/116/17 129/114/16
f 103/115/18 128/118/18 127/116/17
f 99/117/19 116/120/19 128/118/18
f 100/119/20 114/122/20 116/120/19
f 100/119/20 104/123/21 112/121/21
f 104/123/21 96/125/22 110/124/22
f 96/125/22 97/127/23 108/126/23
f 97/127/23 98/129/24 105/128/24
f 98/129/24 95/131/25 106/130/25
f 95/131/25 73/133/26 109/132/26
f 73/133/26 74/135/27 107/134/27
f 74/135/27 77/137/28 115/136/28
f 77/137/28 76/139/29 113/138/29
f 76/139/29 75/141/30 111/140/30
f 75/141/30 81/143/31 126/142/31
f 81/143/31 79/145/33 119/144/33
f 79/145/33 78/236/2 117/146/2
