# Blender 4.4.1
# www.blender.org
mtllib map_under_equipment_04.mtl
o 台座下側装置_04
v 0.000000 1.049898 -12.020520
v 0.000000 2.051066 -9.660428
v 2.345087 1.049898 -11.789549
v 1.884656 2.051066 -9.474806
v 4.600054 1.049898 -11.105513
v 3.696886 2.051066 -8.925072
v 6.678243 1.049898 -9.994697
v 5.367047 2.051066 -8.032352
v 8.499791 1.049898 -8.499791
v 6.830954 2.051066 -6.830954
v 9.994697 1.049898 -6.678243
v 8.032352 2.051066 -5.367046
v 11.105513 1.049898 -4.600054
v 8.925072 2.051066 -3.696886
v 11.789549 1.049898 -2.345087
v 9.474806 2.051066 -1.884656
v 12.020520 1.049898 0.000000
v 9.660428 2.051066 0.000000
v 11.789549 1.049898 2.345087
v 9.474806 2.051066 1.884656
v 11.105513 1.049898 4.600054
v 8.925072 2.051066 3.696886
v 9.994697 1.049898 6.678243
v 8.032352 2.051066 5.367046
v 8.499791 1.049898 8.499791
v 6.830954 2.051066 6.830954
v 6.678243 1.049898 9.994697
v 5.367047 2.051066 8.032352
v 4.600054 1.049898 11.105513
v 3.696886 2.051066 8.925072
v 2.345087 1.049898 11.789549
v 1.884656 2.051066 9.474806
v 0.000000 1.049898 12.020520
v 0.000000 2.051066 9.660428
v -2.345087 1.049898 11.789549
v -1.884656 2.051066 9.474806
v -4.600054 1.049898 11.105513
v -3.696886 2.051066 8.925072
v -6.678243 1.049898 9.994697
v -5.367046 2.051066 8.032352
v -8.499791 1.049898 8.499791
v -6.830954 2.051066 6.830954
v -9.994697 1.049898 6.678243
v -8.032352 2.051066 5.367046
v -11.105513 1.049898 4.600054
v -8.925072 2.051066 3.696886
v -11.789549 1.049898 2.345087
v -9.474806 2.051066 1.884656
v -12.020520 1.049898 0.000000
v -9.660428 2.051066 0.000000
v -11.789549 1.049898 -2.345087
v -9.474806 2.051066 -1.884656
v -11.105513 1.049898 -4.600054
v -8.925072 2.051066 -3.696886
v -9.994697 1.049898 -6.678243
v -8.032352 2.051066 -5.367046
v -8.499791 1.049898 -8.499791
v -6.830954 2.051066 -6.830954
v -6.678243 1.049898 -9.994697
v -5.367046 2.051066 -8.032352
v -4.600054 1.049898 -11.105513
v -3.696886 2.051066 -8.925072
v -2.345087 1.049898 -11.789549
v -1.884656 2.051066 -9.474806
v 0.000000 -8.982250 -5.135000
v 0.000000 1.287749 -5.135000
v 1.001789 -8.982250 -5.036332
v 1.001789 1.287749 -5.036332
v 1.965079 -8.982250 -4.744121
v 1.965079 1.287749 -4.744121
v 2.852853 -8.982250 -4.269596
v 2.852853 1.287749 -4.269596
v 3.630993 -8.982250 -3.630993
v 3.630993 1.287749 -3.630993
v 4.269596 -8.982250 -2.852853
v 4.269596 1.287749 -2.852853
v 4.744121 -8.982250 -1.965079
v 4.744121 1.287749 -1.965079
v 5.036332 -8.982250 -1.001789
v 5.036332 1.287749 -1.001789
v 5.135000 -8.982250 0.000000
v 5.135000 1.287749 0.000000
v 5.036332 -8.982250 1.001789
v 5.036332 1.287749 1.001789
v 4.744121 -8.982250 1.965079
v 4.744121 1.287749 1.965079
v 4.269596 -8.982250 2.852853
v 4.269596 1.287749 2.852853
v 3.630993 -8.982250 3.630993
v 3.630993 1.287749 3.630993
v 2.852853 -8.982250 4.269596
v 2.852853 1.287749 4.269596
v 1.965079 -8.982250 4.744121
v 1.965079 1.287749 4.744121
v 1.001789 -8.982250 5.036332
v 1.001789 1.287749 5.036332
v 0.000000 -8.982250 5.135000
v 0.000000 1.287749 5.135000
v -1.001789 -8.982250 5.036332
v -1.001789 1.287749 5.036332
v -1.965079 -8.982250 4.744121
v -1.965079 1.287749 4.744121
v -2.852853 -8.982250 4.269596
v -2.852853 1.287749 4.269596
v -3.630993 -8.982250 3.630993
v -3.630993 1.287749 3.630993
v -4.269596 -8.982250 2.852853
v -4.269596 1.287749 2.852853
v -4.744121 -8.982250 1.965079
v -4.744121 1.287749 1.965079
v -5.036332 -8.982250 1.001789
v -5.036332 1.287749 1.001789
v -5.135000 -8.982250 0.000000
v -5.135000 1.287749 0.000000
v -5.036332 -8.982250 -1.001789
v -5.036332 1.287749 -1.001789
v -4.744121 -8.982250 -1.965079
v -4.744121 1.287749 -1.965079
v -4.269596 -8.982250 -2.852853
v -4.269596 1.287749 -2.852853
v -3.630993 -8.982250 -3.630993
v -3.630993 1.287749 -3.630993
v -2.852853 -8.982250 -4.269596
v -2.852853 1.287749 -4.269596
v -1.965079 -8.982250 -4.744121
v -1.965079 1.287749 -4.744121
v -1.001789 -8.982250 -5.036332
v -1.001789 1.287749 -5.036332
vn -0.0000 0.9206 -0.3905
vn 0.0762 0.9206 -0.3830
vn 0.1494 0.9206 -0.3608
vn 0.2170 0.9206 -0.3247
vn 0.2761 0.9206 -0.2761
vn 0.3247 0.9206 -0.2170
vn 0.3608 0.9206 -0.1494
vn 0.3830 0.9206 -0.0762
vn 0.3905 0.9206 -0.0000
vn 0.3830 0.9206 0.0762
vn 0.3608 0.9206 0.1494
vn 0.3247 0.9206 0.2170
vn 0.2761 0.9206 0.2761
vn 0.2170 0.9206 0.3247
vn 0.1494 0.9206 0.3608
vn 0.0762 0.9206 0.3830
vn -0.0000 0.9206 0.3905
vn -0.0762 0.9206 0.3830
vn -0.1494 0.9206 0.3608
vn -0.2170 0.9206 0.3247
vn -0.2761 0.9206 0.2761
vn -0.3247 0.9206 0.2170
vn -0.3608 0.9206 0.1494
vn -0.3830 0.9206 0.0762
vn -0.3905 0.9206 -0.0000
vn -0.3830 0.9206 -0.0762
vn -0.3608 0.9206 -0.1494
vn -0.3247 0.9206 -0.2170
vn -0.2761 0.9206 -0.2761
vn -0.2170 0.9206 -0.3247
vn -0.1494 0.9206 -0.3608
vn -0.0000 1.0000 -0.0000
vn -0.0762 0.9206 -0.3830
vn -0.0000 -1.0000 -0.0000
vn -0.0000 -0.0000 -1.0000
vn 0.1951 -0.0000 -0.9808
vn 0.3827 -0.0000 -0.9239
vn 0.5556 -0.0000 -0.8315
vn 0.7071 -0.0000 -0.7071
vn 0.8315 -0.0000 -0.5556
vn 0.9239 -0.0000 -0.3827
vn 0.9808 -0.0000 -0.1951
vn 1.0000 -0.0000 -0.0000
vn 0.9808 -0.0000 0.1951
vn 0.9239 -0.0000 0.3827
vn 0.8315 -0.0000 0.5556
vn 0.7071 -0.0000 0.7071
vn 0.5556 -0.0000 0.8315
vn 0.3827 -0.0000 0.9239
vn 0.1951 -0.0000 0.9808
vn -0.0000 -0.0000 1.0000
vn -0.1951 -0.0000 0.9808
vn -0.3827 -0.0000 0.9239
vn -0.5556 -0.0000 0.8315
vn -0.7071 -0.0000 0.7071
vn -0.8315 -0.0000 0.5556
vn -0.9239 -0.0000 0.3827
vn -0.9808 -0.0000 0.1951
vn -1.0000 -0.0000 -0.0000
vn -0.9808 -0.0000 -0.1951
vn -0.9239 -0.0000 -0.3827
vn -0.8315 -0.0000 -0.5556
vn -0.7071 -0.0000 -0.7071
vn -0.5556 -0.0000 -0.8315
vn -0.3827 -0.0000 -0.9239
vn -0.1951 -0.0000 -0.9808
vt 1.000000 0.500000
vt 1.000000 1.000000
vt 0.968750 1.000000
vt 0.968750 0.500000
vt 0.937500 1.000000
vt 0.937500 0.500000
vt 0.906250 1.000000
vt 0.906250 0.500000
vt 0.875000 1.000000
vt 0.875000 0.500000
vt 0.843750 1.000000
vt 0.843750 0.500000
vt 0.812500 1.000000
vt 0.812500 0.500000
vt 0.781250 1.000000
vt 0.781250 0.500000
vt 0.750000 1.000000
vt 0.750000 0.500000
vt 0.718750 1.000000
vt 0.718750 0.500000
vt 0.687500 1.000000
vt 0.687500 0.500000
vt 0.656250 1.000000
vt 0.656250 0.500000
vt 0.625000 1.000000
vt 0.625000 0.500000
vt 0.593750 1.000000
vt 0.593750 0.500000
vt 0.562500 1.000000
vt 0.562500 0.500000
vt 0.531250 1.000000
vt 0.531250 0.500000
vt 0.500000 1.000000
vt 0.500000 0.500000
vt 0.468750 1.000000
vt 0.468750 0.500000
vt 0.437500 1.000000
vt 0.437500 0.500000
vt 0.406250 1.000000
vt 0.406250 0.500000
vt 0.375000 1.000000
vt 0.375000 0.500000
vt 0.343750 1.000000
vt 0.343750 0.500000
vt 0.312500 1.000000
vt 0.312500 0.500000
vt 0.281250 1.000000
vt 0.281250 0.500000
vt 0.250000 1.000000
vt 0.250000 0.500000
vt 0.218750 1.000000
vt 0.218750 0.500000
vt 0.187500 1.000000
vt 0.187500 0.500000
vt 0.156250 1.000000
vt 0.156250 0.500000
vt 0.125000 1.000000
vt 0.125000 0.500000
vt 0.093750 1.000000
vt 0.093750 0.500000
vt 0.062500 1.000000
vt 0.062500 0.500000
vt 0.296822 0.485388
vt 0.250000 0.490000
vt 0.203178 0.485388
vt 0.158156 0.471731
vt 0.116663 0.449553
vt 0.080294 0.419706
vt 0.050447 0.383337
vt 0.028269 0.341844
vt 0.014612 0.296822
vt 0.010000 0.250000
vt 0.014612 0.203178
vt 0.028269 0.158156
vt 0.050447 0.116663
vt 0.080294 0.080294
vt 0.116663 0.050447
vt 0.158156 0.028269
vt 0.203178 0.014612
vt 0.250000 0.010000
vt 0.296822 0.014612
vt 0.341844 0.028269
vt 0.383337 0.050447
vt 0.419706 0.080294
vt 0.449553 0.116663
vt 0.471731 0.158156
vt 0.485388 0.203178
vt 0.490000 0.250000
vt 0.485388 0.296822
vt 0.471731 0.341844
vt 0.449553 0.383337
vt 0.419706 0.419706
vt 0.383337 0.449553
vt 0.341844 0.471731
vt 0.031250 1.000000
vt 0.031250 0.500000
vt 0.000000 1.000000
vt 0.000000 0.500000
vt 0.750000 0.490000
vt 0.796822 0.485388
vt 0.841844 0.471731
vt 0.883337 0.449553
vt 0.919706 0.419706
vt 0.949553 0.383337
vt 0.971731 0.341844
vt 0.985388 0.296822
vt 0.990000 0.250000
vt 0.985388 0.203178
vt 0.971731 0.158156
vt 0.949553 0.116663
vt 0.919706 0.080294
vt 0.883337 0.050447
vt 0.841844 0.028269
vt 0.796822 0.014612
vt 0.750000 0.010000
vt 0.703178 0.014612
vt 0.658156 0.028269
vt 0.616663 0.050447
vt 0.580294 0.080294
vt 0.550447 0.116663
vt 0.528269 0.158156
vt 0.514612 0.203178
vt 0.510000 0.250000
vt 0.514612 0.296822
vt 0.528269 0.341844
vt 0.550447 0.383337
vt 0.580294 0.419706
vt 0.616663 0.449553
vt 0.658156 0.471731
vt 0.703178 0.485388
s 1
f 1/1/1 2/2/1 4/3/2 3/4/2
f 3/4/2 4/3/2 6/5/3 5/6/3
f 5/6/3 6/5/3 8/7/4 7/8/4
f 7/8/4 8/7/4 10/9/5 9/10/5
f 9/10/5 10/9/5 12/11/6 11/12/6
f 11/12/6 12/11/6 14/13/7 13/14/7
f 13/14/7 14/13/7 16/15/8 15/16/8
f 15/16/8 16/15/8 18/17/9 17/18/9
f 17/18/9 18/17/9 20/19/10 19/20/10
f 19/20/10 20/19/10 22/21/11 21/22/11
f 21/22/11 22/21/11 24/23/12 23/24/12
f 23/24/12 24/23/12 26/25/13 25/26/13
f 25/26/13 26/25/13 28/27/14 27/28/14
f 27/28/14 28/27/14 30/29/15 29/30/15
f 29/30/15 30/29/15 32/31/16 31/32/16
f 31/32/16 32/31/16 34/33/17 33/34/17
f 33/34/17 34/33/17 36/35/18 35/36/18
f 35/36/18 36/35/18 38/37/19 37/38/19
f 37/38/19 38/37/19 40/39/20 39/40/20
f 39/40/20 40/39/20 42/41/21 41/42/21
f 41/42/21 42/41/21 44/43/22 43/44/22
f 43/44/22 44/43/22 46/45/23 45/46/23
f 45/46/23 46/45/23 48/47/24 47/48/24
f 47/48/24 48/47/24 50/49/25 49/50/25
f 49/50/25 50/49/25 52/51/26 51/52/26
f 51/52/26 52/51/26 54/53/27 53/54/27
f 53/54/27 54/53/27 56/55/28 55/56/28
f 55/56/28 56/55/28 58/57/29 57/58/29
f 57/58/29 58/57/29 60/59/30 59/60/30
f 59/60/30 60/59/30 62/61/31 61/62/31
s 0
f 4/63/32 2/64/32 64/65/32 62/66/32 60/67/32 58/68/32 56/69/32 54/70/32 52/71/32 50/72/32 48/73/32 46/74/32 44/75/32 42/76/32 40/77/32 38/78/32 36/79/32 34/80/32 32/81/32 30/82/32 28/83/32 26/84/32 24/85/32 22/86/32 20/87/32 18/88/32 16/89/32 14/90/32 12/91/32 10/92/32 8/93/32 6/94/32
s 1
f 61/62/31 62/61/31 64/95/33 63/96/33
f 63/96/33 64/95/33 2/97/1 1/98/1
s 0
f 1/99/34 3/100/34 5/101/34 7/102/34 9/103/34 11/104/34 13/105/34 15/106/34 17/107/34 19/108/34 21/109/34 23/110/34 25/111/34 27/112/34 29/113/34 31/114/34 33/115/34 35/116/34 37/117/34 39/118/34 41/119/34 43/120/34 45/121/34 47/122/34 49/123/34 51/124/34 53/125/34 55/126/34 57/127/34 59/128/34 61/129/34 63/130/34
s 1
f 65/1/35 66/2/35 68/3/36 67/4/36
f 67/4/36 68/3/36 70/5/37 69/6/37
f 69/6/37 70/5/37 72/7/38 71/8/38
f 71/8/38 72/7/38 74/9/39 73/10/39
f 73/10/39 74/9/39 76/11/40 75/12/40
f 75/12/40 76/11/40 78/13/41 77/14/41
f 77/14/41 78/13/41 80/15/42 79/16/42
f 79/16/42 80/15/42 82/17/43 81/18/43
f 81/18/43 82/17/43 84/19/44 83/20/44
f 83/20/44 84/19/44 86/21/45 85/22/45
f 85/22/45 86/21/45 88/23/46 87/24/46
f 87/24/46 88/23/46 90/25/47 89/26/47
f 89/26/47 90/25/47 92/27/48 91/28/48
f 91/28/48 92/27/48 94/29/49 93/30/49
f 93/30/49 94/29/49 96/31/50 95/32/50
f 95/32/50 96/31/50 98/33/51 97/34/51
f 97/34/51 98/33/51 100/35/52 99/36/52
f 99/36/52 100/35/52 102/37/53 101/38/53
f 101/38/53 102/37/53 104/39/54 103/40/54
f 103/40/54 104/39/54 106/41/55 105/42/55
f 105/42/55 106/41/55 108/43/56 107/44/56
f 107/44/56 108/43/56 110/45/57 109/46/57
f 109/46/57 110/45/57 112/47/58 111/48/58
f 111/48/58 112/47/58 114/49/59 113/50/59
f 113/50/59 114/49/59 116/51/60 115/52/60
f 115/52/60 116/51/60 118/53/61 117/54/61
f 117/54/61 118/53/61 120/55/62 119/56/62
f 119/56/62 120/55/62 122/57/63 121/58/63
f 121/58/63 122/57/63 124/59/64 123/60/64
f 123/60/64 124/59/64 126/61/65 125/62/65
f 125/62/65 126/61/65 128/95/66 127/96/66
f 127/96/66 128/95/66 66/97/35 65/98/35
