# Blender 4.4.1
# www.blender.org
mtllib boom_1.mtl
o 円柱.001
v 2.000000 1.000000 0.500000
v -2.000000 1.000000 0.500000
v 2.000000 0.902455 0.490393
v -2.000000 0.902455 0.490393
v 2.000000 0.808658 0.461940
v -2.000000 0.808658 0.461940
v 2.000000 0.722215 0.415735
v -2.000000 0.722215 0.415735
v 2.000000 0.646447 0.353553
v -2.000000 0.646447 0.353553
v 2.000000 0.584265 0.277785
v -2.000000 0.584265 0.277785
v 2.000000 0.538060 0.191342
v -2.000000 0.538060 0.191342
v 2.000000 0.509607 0.097545
v -2.000000 0.509607 0.097545
v 2.000000 0.500000 0.000000
v -2.000000 0.500000 0.000000
v 2.000000 0.509607 -0.097545
v -2.000000 0.509607 -0.097545
v 2.000000 0.538060 -0.191342
v -2.000000 0.538060 -0.191342
v 2.000000 0.584265 -0.277785
v -2.000000 0.584265 -0.277785
v 2.000000 0.646447 -0.353553
v -2.000000 0.646447 -0.353553
v 2.000000 0.722215 -0.415735
v -2.000000 0.722215 -0.415735
v 2.000000 0.808658 -0.461940
v -2.000000 0.808658 -0.461940
v 2.000000 0.902455 -0.490393
v -2.000000 0.902455 -0.490393
v 2.000000 1.000000 -0.500000
v -2.000000 1.000000 -0.500000
v 2.000000 1.097545 -0.490393
v -2.000000 1.097545 -0.490393
v 2.000000 1.191342 -0.461940
v -2.000000 1.191342 -0.461940
v 2.000000 1.277785 -0.415735
v -2.000000 1.277785 -0.415735
v 2.000000 1.353554 -0.353553
v -2.000000 1.353553 -0.353553
v 2.000000 1.415735 -0.277785
v -2.000000 1.415735 -0.277785
v 2.000000 1.461940 -0.191342
v -2.000000 1.461940 -0.191342
v 2.000000 1.490393 -0.097545
v -2.000000 1.490393 -0.097545
v 2.000000 1.500000 0.000000
v -2.000000 1.500000 0.000000
v 2.000000 1.490393 0.097545
v -2.000000 1.490393 0.097545
v 2.000000 1.461940 0.191342
v -2.000000 1.461940 0.191342
v 2.000000 1.415735 0.277785
v -2.000000 1.415735 0.277785
v 2.000000 1.353554 0.353553
v -2.000000 1.353553 0.353553
v 2.000000 1.277785 0.415735
v -2.000000 1.277785 0.415735
v 2.000000 1.191342 0.461940
v -2.000000 1.191342 0.461940
v 2.000000 1.097545 0.490393
v -2.000000 1.097545 0.490393
v 2.000000 0.000000 0.500000
v -2.000000 -0.000000 0.500000
v 2.000000 -0.097545 0.490393
v -2.000000 -0.097545 0.490393
v 2.000000 -0.191342 0.461940
v -2.000000 -0.191342 0.461940
v 2.000000 -0.277785 0.415735
v -2.000000 -0.277785 0.415735
v 2.000000 -0.353553 0.353553
v -2.000000 -0.353554 0.353553
v 2.000000 -0.415735 0.277785
v -2.000000 -0.415735 0.277785
v 2.000000 -0.461940 0.191342
v -2.000000 -0.461940 0.191342
v 2.000000 -0.490393 0.097545
v -2.000000 -0.490393 0.097545
v 2.000000 -0.500000 0.000000
v -2.000000 -0.500000 0.000000
v 2.000000 -0.490393 -0.097545
v -2.000000 -0.490393 -0.097545
v 2.000000 -0.461940 -0.191342
v -2.000000 -0.461940 -0.191342
v 2.000000 -0.415735 -0.277785
v -2.000000 -0.415735 -0.277785
v 2.000000 -0.353553 -0.353553
v -2.000000 -0.353554 -0.353553
v 2.000000 -0.277785 -0.415735
v -2.000000 -0.277785 -0.415735
v 2.000000 -0.191342 -0.461940
v -2.000000 -0.191342 -0.461940
v 2.000000 -0.097545 -0.490393
v -2.000000 -0.097545 -0.490393
v 2.000000 0.000000 -0.500000
v -2.000000 -0.000000 -0.500000
v 2.000000 0.097545 -0.490393
v -2.000000 0.097545 -0.490393
v 2.000000 0.191342 -0.461940
v -2.000000 0.191342 -0.461940
v 2.000000 0.277785 -0.415735
v -2.000000 0.277785 -0.415735
v 2.000000 0.353553 -0.353553
v -2.000000 0.353553 -0.353553
v 2.000000 0.415735 -0.277785
v -2.000000 0.415735 -0.277785
v 2.000000 0.461940 -0.191342
v -2.000000 0.461940 -0.191342
v 2.000000 0.490393 -0.097545
v -2.000000 0.490393 -0.097545
v 2.000000 0.500000 0.000000
v -2.000000 0.500000 0.000000
v 2.000000 0.490393 0.097545
v -2.000000 0.490393 0.097545
v 2.000000 0.461940 0.191342
v -2.000000 0.461940 0.191342
v 2.000000 0.415735 0.277785
v -2.000000 0.415735 0.277785
v 2.000000 0.353553 0.353553
v -2.000000 0.353553 0.353553
v 2.000000 0.277785 0.415735
v -2.000000 0.277785 0.415735
v 2.000000 0.191342 0.461940
v -2.000000 0.191342 0.461940
v 2.000000 0.097545 0.490393
v -2.000000 0.097545 0.490393
v 2.000000 0.500000 -0.386002
v -2.000000 0.500000 -0.386002
v 2.000000 0.402455 -0.395610
v -2.000000 0.402455 -0.395610
v 2.000000 0.308658 -0.424063
v -2.000000 0.308658 -0.424063
v 2.000000 0.222215 -0.470268
v -2.000000 0.222215 -0.470268
v 2.000000 0.146447 -0.532449
v -2.000000 0.146447 -0.532449
v 2.000000 0.084265 -0.608217
v -2.000000 0.084265 -0.608217
v 2.000000 0.038060 -0.694661
v -2.000000 0.038060 -0.694661
v 2.000000 0.009607 -0.788457
v -2.000000 0.009607 -0.788457
v 2.000000 0.000000 -0.886002
v -2.000000 -0.000000 -0.886002
v 2.000000 0.009607 -0.983548
v -2.000000 0.009607 -0.983548
v 2.000000 0.038060 -1.077344
v -2.000000 0.038060 -1.077344
v 2.000000 0.084265 -1.163788
v -2.000000 0.084265 -1.163788
v 2.000000 0.146447 -1.239556
v -2.000000 0.146447 -1.239556
v 2.000000 0.222215 -1.301737
v -2.000000 0.222215 -1.301737
v 2.000000 0.308658 -1.347942
v -2.000000 0.308658 -1.347942
v 2.000000 0.402455 -1.376395
v -2.000000 0.402455 -1.376395
v 2.000000 0.500000 -1.386003
v -2.000000 0.500000 -1.386003
v 2.000000 0.597545 -1.376395
v -2.000000 0.597545 -1.376395
v 2.000000 0.691342 -1.347942
v -2.000000 0.691342 -1.347942
v 2.000000 0.777785 -1.301737
v -2.000000 0.777785 -1.301737
v 2.000000 0.853553 -1.239556
v -2.000000 0.853553 -1.239556
v 2.000000 0.915735 -1.163788
v -2.000000 0.915735 -1.163788
v 2.000000 0.961940 -1.077344
v -2.000000 0.961940 -1.077344
v 2.000000 0.990393 -0.983548
v -2.000000 0.990393 -0.983548
v 2.000000 1.000000 -0.886002
v -2.000000 1.000000 -0.886002
v 2.000000 0.990393 -0.788457
v -2.000000 0.990393 -0.788457
v 2.000000 0.961940 -0.694661
v -2.000000 0.961940 -0.694661
v 2.000000 0.915735 -0.608217
v -2.000000 0.915735 -0.608217
v 2.000000 0.853553 -0.532449
v -2.000000 0.853553 -0.532449
v 2.000000 0.777785 -0.470268
v -2.000000 0.777785 -0.470268
v 2.000000 0.691342 -0.424063
v -2.000000 0.691342 -0.424063
v 2.000000 0.597545 -0.395610
v -2.000000 0.597545 -0.395610
v 2.000000 0.500000 1.386002
v -2.000000 0.500000 1.386002
v 2.000000 0.402455 1.376395
v -2.000000 0.402455 1.376395
v 2.000000 0.308658 1.347942
v -2.000000 0.308658 1.347942
v 2.000000 0.222215 1.301737
v -2.000000 0.222215 1.301737
v 2.000000 0.146447 1.239555
v -2.000000 0.146447 1.239555
v 2.000000 0.084265 1.163787
v -2.000000 0.084265 1.163787
v 2.000000 0.038060 1.077344
v -2.000000 0.038060 1.077344
v 2.000000 0.009607 0.983547
v -2.000000 0.009607 0.983547
v 2.000000 0.000000 0.886002
v -2.000000 -0.000000 0.886002
v 2.000000 0.009607 0.788457
v -2.000000 0.009607 0.788457
v 2.000000 0.038060 0.694660
v -2.000000 0.038060 0.694660
v 2.000000 0.084265 0.608217
v -2.000000 0.084265 0.608217
v 2.000000 0.146447 0.532449
v -2.000000 0.146447 0.532449
v 2.000000 0.222215 0.470267
v -2.000000 0.222215 0.470267
v 2.000000 0.308658 0.424062
v -2.000000 0.308658 0.424062
v 2.000000 0.402455 0.395609
v -2.000000 0.402455 0.395609
v 2.000000 0.500000 0.386002
v -2.000000 0.500000 0.386002
v 2.000000 0.597545 0.395609
v -2.000000 0.597545 0.395609
v 2.000000 0.691342 0.424062
v -2.000000 0.691342 0.424062
v 2.000000 0.777785 0.470267
v -2.000000 0.777785 0.470267
v 2.000000 0.853553 0.532449
v -2.000000 0.853553 0.532449
v 2.000000 0.915735 0.608217
v -2.000000 0.915735 0.608217
v 2.000000 0.961940 0.694660
v -2.000000 0.961940 0.694660
v 2.000000 0.990393 0.788457
v -2.000000 0.990393 0.788457
v 2.000000 1.000000 0.886002
v -2.000000 1.000000 0.886002
v 2.000000 0.990393 0.983547
v -2.000000 0.990393 0.983547
v 2.000000 0.961940 1.077344
v -2.000000 0.961940 1.077344
v 2.000000 0.915735 1.163787
v -2.000000 0.915735 1.163787
v 2.000000 0.853553 1.239555
v -2.000000 0.853553 1.239555
v 2.000000 0.777785 1.301737
v -2.000000 0.777785 1.301737
v 2.000000 0.691342 1.347942
v -2.000000 0.691342 1.347942
v 2.000000 0.597545 1.376395
v -2.000000 0.597545 1.376395
v 2.000000 -0.500000 1.386002
v -2.000000 -0.500000 1.386002
v 2.000000 -0.597545 1.376395
v -2.000000 -0.597545 1.376395
v 2.000000 -0.691342 1.347942
v -2.000000 -0.691342 1.347942
v 2.000000 -0.777785 1.301737
v -2.000000 -0.777785 1.301737
v 2.000000 -0.853553 1.239555
v -2.000000 -0.853554 1.239555
v 2.000000 -0.915735 1.163787
v -2.000000 -0.915735 1.163787
v 2.000000 -0.961940 1.077344
v -2.000000 -0.961940 1.077344
v 2.000000 -0.990393 0.983547
v -2.000000 -0.990393 0.983547
v 2.000000 -1.000000 0.886002
v -2.000000 -1.000000 0.886002
v 2.000000 -0.990393 0.788457
v -2.000000 -0.990393 0.788457
v 2.000000 -0.961940 0.694660
v -2.000000 -0.961940 0.694660
v 2.000000 -0.915735 0.608217
v -2.000000 -0.915735 0.608217
v 2.000000 -0.853553 0.532449
v -2.000000 -0.853554 0.532449
v 2.000000 -0.777785 0.470267
v -2.000000 -0.777785 0.470267
v 2.000000 -0.691342 0.424062
v -2.000000 -0.691342 0.424062
v 2.000000 -0.597545 0.395609
v -2.000000 -0.597545 0.395609
v 2.000000 -0.500000 0.386002
v -2.000000 -0.500000 0.386002
v 2.000000 -0.402455 0.395609
v -2.000000 -0.402455 0.395609
v 2.000000 -0.308658 0.424062
v -2.000000 -0.308658 0.424062
v 2.000000 -0.222215 0.470267
v -2.000000 -0.222215 0.470267
v 2.000000 -0.146446 0.532449
v -2.000000 -0.146447 0.532449
v 2.000000 -0.084265 0.608217
v -2.000000 -0.084265 0.608217
v 2.000000 -0.038060 0.694660
v -2.000000 -0.038060 0.694660
v 2.000000 -0.009607 0.788457
v -2.000000 -0.009607 0.788457
v 2.000000 0.000000 0.886002
v -2.000000 -0.000000 0.886002
v 2.000000 -0.009607 0.983547
v -2.000000 -0.009607 0.983547
v 2.000000 -0.038060 1.077344
v -2.000000 -0.038060 1.077344
v 2.000000 -0.084265 1.163787
v -2.000000 -0.084265 1.163787
v 2.000000 -0.146446 1.239555
v -2.000000 -0.146447 1.239555
v 2.000000 -0.222215 1.301737
v -2.000000 -0.222215 1.301737
v 2.000000 -0.308658 1.347942
v -2.000000 -0.308658 1.347942
v 2.000000 -0.402455 1.376395
v -2.000000 -0.402455 1.376395
v 2.000000 -1.000000 0.500000
v -2.000000 -1.000000 0.500000
v 2.000000 -1.097545 0.490393
v -2.000000 -1.097545 0.490393
v 2.000000 -1.191342 0.461940
v -2.000000 -1.191342 0.461940
v 2.000000 -1.277785 0.415735
v -2.000000 -1.277785 0.415735
v 2.000000 -1.353553 0.353553
v -2.000000 -1.353553 0.353553
v 2.000000 -1.415735 0.277785
v -2.000000 -1.415735 0.277785
v 2.000000 -1.461940 0.191342
v -2.000000 -1.461940 0.191342
v 2.000000 -1.490393 0.097545
v -2.000000 -1.490393 0.097545
v 2.000000 -1.500000 0.000000
v -2.000000 -1.500000 0.000000
v 2.000000 -1.490393 -0.097545
v -2.000000 -1.490393 -0.097545
v 2.000000 -1.461940 -0.191342
v -2.000000 -1.461940 -0.191342
v 2.000000 -1.415735 -0.277785
v -2.000000 -1.415735 -0.277785
v 2.000000 -1.353553 -0.353553
v -2.000000 -1.353553 -0.353553
v 2.000000 -1.277785 -0.415735
v -2.000000 -1.277785 -0.415735
v 2.000000 -1.191342 -0.461940
v -2.000000 -1.191342 -0.461940
v 2.000000 -1.097545 -0.490393
v -2.000000 -1.097545 -0.490393
v 2.000000 -1.000000 -0.500000
v -2.000000 -1.000000 -0.500000
v 2.000000 -0.902455 -0.490393
v -2.000000 -0.902455 -0.490393
v 2.000000 -0.808658 -0.461940
v -2.000000 -0.808658 -0.461940
v 2.000000 -0.722215 -0.415735
v -2.000000 -0.722215 -0.415735
v 2.000000 -0.646446 -0.353553
v -2.000000 -0.646447 -0.353553
v 2.000000 -0.584265 -0.277785
v -2.000000 -0.584265 -0.277785
v 2.000000 -0.538060 -0.191342
v -2.000000 -0.538060 -0.191342
v 2.000000 -0.509607 -0.097545
v -2.000000 -0.509607 -0.097545
v 2.000000 -0.500000 0.000000
v -2.000000 -0.500000 0.000000
v 2.000000 -0.509607 0.097545
v -2.000000 -0.509607 0.097545
v 2.000000 -0.538060 0.191342
v -2.000000 -0.538060 0.191342
v 2.000000 -0.584265 0.277785
v -2.000000 -0.584265 0.277785
v 2.000000 -0.646446 0.353553
v -2.000000 -0.646447 0.353553
v 2.000000 -0.722215 0.415735
v -2.000000 -0.722215 0.415735
v 2.000000 -0.808658 0.461940
v -2.000000 -0.808658 0.461940
v 2.000000 -0.902455 0.490393
v -2.000000 -0.902455 0.490393
v 2.000000 -0.500000 -0.386002
v -2.000000 -0.500000 -0.386002
v 2.000000 -0.597545 -0.395609
v -2.000000 -0.597545 -0.395609
v 2.000000 -0.691342 -0.424062
v -2.000000 -0.691342 -0.424062
v 2.000000 -0.777785 -0.470267
v -2.000000 -0.777785 -0.470267
v 2.000000 -0.853553 -0.532449
v -2.000000 -0.853554 -0.532449
v 2.000000 -0.915735 -0.608217
v -2.000000 -0.915735 -0.608217
v 2.000000 -0.961940 -0.694660
v -2.000000 -0.961940 -0.694660
v 2.000000 -0.990393 -0.788457
v -2.000000 -0.990393 -0.788457
v 2.000000 -1.000000 -0.886002
v -2.000000 -1.000000 -0.886002
v 2.000000 -0.990393 -0.983547
v -2.000000 -0.990393 -0.983547
v 2.000000 -0.961940 -1.077344
v -2.000000 -0.961940 -1.077344
v 2.000000 -0.915735 -1.163787
v -2.000000 -0.915735 -1.163787
v 2.000000 -0.853553 -1.239555
v -2.000000 -0.853554 -1.239555
v 2.000000 -0.777785 -1.301737
v -2.000000 -0.777785 -1.301737
v 2.000000 -0.691342 -1.347942
v -2.000000 -0.691342 -1.347942
v 2.000000 -0.597545 -1.376395
v -2.000000 -0.597545 -1.376395
v 2.000000 -0.500000 -1.386002
v -2.000000 -0.500000 -1.386002
v 2.000000 -0.402455 -1.376395
v -2.000000 -0.402455 -1.376395
v 2.000000 -0.308658 -1.347942
v -2.000000 -0.308658 -1.347942
v 2.000000 -0.222215 -1.301737
v -2.000000 -0.222215 -1.301737
v 2.000000 -0.146446 -1.239555
v -2.000000 -0.146447 -1.239555
v 2.000000 -0.084265 -1.163787
v -2.000000 -0.084265 -1.163787
v 2.000000 -0.038060 -1.077344
v -2.000000 -0.038060 -1.077344
v 2.000000 -0.009607 -0.983547
v -2.000000 -0.009607 -0.983547
v 2.000000 0.000000 -0.886002
v -2.000000 -0.000000 -0.886002
v 2.000000 -0.009607 -0.788457
v -2.000000 -0.009607 -0.788457
v 2.000000 -0.038060 -0.694660
v -2.000000 -0.038060 -0.694660
v 2.000000 -0.084265 -0.608217
v -2.000000 -0.084265 -0.608217
v 2.000000 -0.146446 -0.532449
v -2.000000 -0.146447 -0.532449
v 2.000000 -0.222215 -0.470267
v -2.000000 -0.222215 -0.470267
v 2.000000 -0.308658 -0.424062
v -2.000000 -0.308658 -0.424062
v 2.000000 -0.402455 -0.395609
v -2.000000 -0.402455 -0.395609
v -0.112358 -0.141116 -1.850596
v 0.562455 0.107866 -1.850596
v -0.112358 -0.141116 -1.822835
v 0.562455 0.107866 -1.822835
v -0.173514 0.049304 -1.850596
v 0.553413 0.136017 -1.850596
v -0.173514 0.049304 -1.822835
v 0.553413 0.136017 -1.822835
v 0.257787 -0.056952 -1.867842
v -0.584127 0.422701 -1.867842
v 0.257787 -0.056952 -1.840081
v -0.584127 0.422701 -1.840081
v 0.143885 -0.221348 -1.867842
v -0.600966 0.398397 -1.867842
v 0.143885 -0.221348 -1.840081
v -0.600966 0.398397 -1.840081
vn -0.0000 -0.0000 1.0000
vn -0.0000 -0.1951 0.9808
vn -0.0000 -0.3827 0.9239
vn -0.0000 -0.5556 0.8315
vn -0.0000 -0.7071 0.7071
vn -0.0000 -0.8315 0.5556
vn -0.0000 -0.9239 0.3827
vn -0.0000 -0.9808 0.1951
vn -0.0000 -1.0000 -0.0000
vn -0.0000 -0.9808 -0.1951
vn -0.0000 -0.9239 -0.3827
vn -0.0000 -0.8315 -0.5556
vn -0.0000 -0.7071 -0.7071
vn -0.0000 -0.5556 -0.8315
vn -0.0000 -0.3827 -0.9239
vn -0.0000 -0.1951 -0.9808
vn -0.0000 -0.0000 -1.0000
vn -0.0000 0.1951 -0.9808
vn -0.0000 0.3827 -0.9239
vn -0.0000 0.5556 -0.8315
vn -0.0000 0.7071 -0.7071
vn -0.0000 0.8315 -0.5556
vn -0.0000 0.9239 -0.3827
vn -0.0000 0.9808 -0.1951
vn -0.0000 1.0000 -0.0000
vn -0.0000 0.9808 0.1951
vn -0.0000 0.9239 0.3827
vn -0.0000 0.8315 0.5556
vn -0.0000 0.7071 0.7071
vn -0.0000 0.5556 0.8315
vn -0.0000 0.3827 0.9239
vn -1.0000 -0.0000 -0.0000
vn -0.0000 0.1951 0.9808
vn 1.0000 -0.0000 -0.0000
vn 0.3462 -0.9382 -0.0000
vn -0.1184 0.9930 -0.0000
vn -0.9521 -0.3058 -0.0000
vn 0.9521 0.3058 -0.0000
vn 0.4950 0.8689 -0.0000
vn -0.6396 -0.7687 -0.0000
vn 0.8220 -0.5695 -0.0000
vn -0.8220 0.5695 -0.0000
vt 1.000000 1.000000
vt 0.968750 0.500000
vt 1.000000 0.500000
vt 0.968750 1.000000
vt 0.937500 0.500000
vt 0.937500 1.000000
vt 0.906250 0.500000
vt 0.906250 1.000000
vt 0.875000 0.500000
vt 0.875000 1.000000
vt 0.843750 0.500000
vt 0.843750 1.000000
vt 0.812500 0.500000
vt 0.812500 1.000000
vt 0.781250 0.500000
vt 0.781250 1.000000
vt 0.750000 0.500000
vt 0.750000 1.000000
vt 0.718750 0.500000
vt 0.718750 1.000000
vt 0.687500 0.500000
vt 0.687500 1.000000
vt 0.656250 0.500000
vt 0.656250 1.000000
vt 0.625000 0.500000
vt 0.625000 1.000000
vt 0.593750 0.500000
vt 0.593750 1.000000
vt 0.562500 0.500000
vt 0.562500 1.000000
vt 0.531250 0.500000
vt 0.531250 1.000000
vt 0.500000 0.500000
vt 0.500000 1.000000
vt 0.468750 0.500000
vt 0.468750 1.000000
vt 0.437500 0.500000
vt 0.437500 1.000000
vt 0.406250 0.500000
vt 0.406250 1.000000
vt 0.375000 0.500000
vt 0.375000 1.000000
vt 0.343750 0.500000
vt 0.343750 1.000000
vt 0.312500 0.500000
vt 0.312500 1.000000
vt 0.281250 0.500000
vt 0.281250 1.000000
vt 0.250000 0.500000
vt 0.250000 1.000000
vt 0.218750 0.500000
vt 0.218750 1.000000
vt 0.187500 0.500000
vt 0.187500 1.000000
vt 0.156250 0.500000
vt 0.156250 1.000000
vt 0.125000 0.500000
vt 0.125000 1.000000
vt 0.093750 0.500000
vt 0.093750 1.000000
vt 0.062500 0.500000
vt 0.158156 0.028269
vt 0.471731 0.158156
vt 0.341844 0.471731
vt 0.062500 1.000000
vt 0.031250 0.500000
vt 0.031250 1.000000
vt 0.000000 0.500000
vt 0.796822 0.014612
vt 0.514612 0.203178
vt 0.703178 0.485388
vt 0.471731 0.341844
vt 0.028269 0.341844
vt 0.341844 0.028269
vt 0.550447 0.383337
vt 0.625000 0.000000
vt 0.375000 0.250000
vt 0.375000 0.000000
vt 0.625000 0.250000
vt 0.375000 0.750000
vt 0.125000 0.750000
vt 0.625000 0.750000
vt 0.296822 0.485388
vt 0.250000 0.490000
vt 0.203178 0.485388
vt 0.158156 0.471731
vt 0.116663 0.449553
vt 0.080294 0.419706
vt 0.050447 0.383337
vt 0.014612 0.296822
vt 0.010000 0.250000
vt 0.014612 0.203178
vt 0.028269 0.158156
vt 0.050447 0.116663
vt 0.080294 0.080294
vt 0.116663 0.050447
vt 0.203178 0.014612
vt 0.250000 0.010000
vt 0.296822 0.014612
vt 0.383337 0.050447
vt 0.419706 0.080294
vt 0.449553 0.116663
vt 0.485388 0.203178
vt 0.490000 0.250000
vt 0.485388 0.296822
vt 0.449553 0.383337
vt 0.419706 0.419706
vt 0.383337 0.449553
vt 0.000000 1.000000
vt 0.750000 0.490000
vt 0.796822 0.485388
vt 0.841844 0.471731
vt 0.883337 0.449553
vt 0.919706 0.419706
vt 0.949553 0.383337
vt 0.971731 0.341844
vt 0.985388 0.296822
vt 0.990000 0.250000
vt 0.985388 0.203178
vt 0.971731 0.158156
vt 0.949553 0.116663
vt 0.919706 0.080294
vt 0.883337 0.050447
vt 0.841844 0.028269
vt 0.750000 0.010000
vt 0.703178 0.014612
vt 0.658156 0.028269
vt 0.616663 0.050447
vt 0.580294 0.080294
vt 0.550447 0.116663
vt 0.528269 0.158156
vt 0.510000 0.250000
vt 0.514612 0.296822
vt 0.528269 0.341844
vt 0.580294 0.419706
vt 0.616663 0.449553
vt 0.658156 0.471731
vt 0.875000 0.750000
s 1
f 2/1/1 3/2/2 1/3/1
f 4/4/2 5/5/3 3/2/2
f 6/6/3 7/7/4 5/5/3
f 8/8/4 9/9/5 7/7/4
f 10/10/5 11/11/6 9/9/5
f 12/12/6 13/13/7 11/11/6
f 14/14/7 15/15/8 13/13/7
f 16/16/8 17/17/9 15/15/8
f 18/18/9 19/19/10 17/17/9
f 20/20/10 21/21/11 19/19/10
f 22/22/11 23/23/12 21/21/11
f 24/24/12 25/25/13 23/23/12
f 26/26/13 27/27/14 25/25/13
f 28/28/14 29/29/15 27/27/14
f 30/30/15 31/31/16 29/29/15
f 32/32/16 33/33/17 31/31/16
f 34/34/17 35/35/18 33/33/17
f 36/36/18 37/37/19 35/35/18
f 38/38/19 39/39/20 37/37/19
f 40/40/20 41/41/21 39/39/20
f 42/42/21 43/43/22 41/41/21
f 44/44/22 45/45/23 43/43/22
f 46/46/23 47/47/24 45/45/23
f 48/48/24 49/49/25 47/47/24
f 50/50/25 51/51/26 49/49/25
f 52/52/26 53/53/27 51/51/26
f 54/54/27 55/55/28 53/53/27
f 56/56/28 57/57/29 55/55/28
f 58/58/29 59/59/30 57/57/29
f 60/60/30 61/61/31 59/59/30
s 0
f 38/62/32 22/63/32 6/64/32
s 1
f 62/65/31 63/66/33 61/61/31
f 64/67/33 1/68/1 63/66/33
s 0
f 31/69/34 47/70/34 63/71/34
s 1
f 66/1/1 67/2/2 65/3/1
f 68/4/2 69/5/3 67/2/2
f 70/6/3 71/7/4 69/5/3
f 72/8/4 73/9/5 71/7/4
f 74/10/5 75/11/6 73/9/5
f 76/12/6 77/13/7 75/11/6
f 78/14/7 79/15/8 77/13/7
f 80/16/8 81/17/9 79/15/8
f 82/18/9 83/19/10 81/17/9
f 84/20/10 85/21/11 83/19/10
f 86/22/11 87/23/12 85/21/11
f 88/24/12 89/25/13 87/23/12
f 90/26/13 91/27/14 89/25/13
f 92/28/14 93/29/15 91/27/14
f 94/30/15 95/31/16 93/29/15
f 96/32/16 97/33/17 95/31/16
f 98/34/17 99/35/18 97/33/17
f 100/36/18 101/37/19 99/35/18
f 102/38/19 103/39/20 101/37/19
f 104/40/20 105/41/21 103/39/20
f 106/42/21 107/43/22 105/41/21
f 108/44/22 109/45/23 107/43/22
f 110/46/23 111/47/24 109/45/23
f 112/48/24 113/49/25 111/47/24
f 114/50/25 115/51/26 113/49/25
f 116/52/26 117/53/27 115/51/26
f 118/54/27 119/55/28 117/53/27
f 120/56/28 121/57/29 119/55/28
f 122/58/29 123/59/30 121/57/29
f 124/60/30 125/61/31 123/59/30
s 0
f 78/72/32 70/64/32 102/62/32
s 1
f 126/65/31 127/66/33 125/61/31
f 128/67/33 65/68/1 127/66/33
s 0
f 95/69/34 111/70/34 127/71/34
s 1
f 130/1/1 131/2/2 129/3/1
f 132/4/2 133/5/3 131/2/2
f 134/6/3 135/7/4 133/5/3
f 136/8/4 137/9/5 135/7/4
f 138/10/5 139/11/6 137/9/5
f 140/12/6 141/13/7 139/11/6
f 142/14/7 143/15/8 141/13/7
f 144/16/8 145/17/9 143/15/8
f 146/18/9 147/19/10 145/17/9
f 148/20/10 149/21/11 147/19/10
f 150/22/11 151/23/12 149/21/11
f 152/24/12 153/25/13 151/23/12
f 154/26/13 155/27/14 153/25/13
f 156/28/14 157/29/15 155/27/14
f 158/30/15 159/31/16 157/29/15
f 160/32/16 161/33/17 159/31/16
f 162/34/17 163/35/18 161/33/17
f 164/36/18 165/37/19 163/35/18
f 166/38/19 167/39/20 165/37/19
f 168/40/20 169/41/21 167/39/20
f 170/42/21 171/43/22 169/41/21
f 172/44/22 173/45/23 171/43/22
f 174/46/23 175/47/24 173/45/23
f 176/48/24 177/49/25 175/47/24
f 178/50/25 179/51/26 177/49/25
f 180/52/26 181/53/27 179/51/26
f 182/54/27 183/55/28 181/53/27
f 184/56/28 185/57/29 183/55/28
f 186/58/29 187/59/30 185/57/29
f 188/60/30 189/61/31 187/59/30
s 0
f 182/73/32 166/62/32 150/63/32
s 1
f 190/65/31 191/66/33 189/61/31
f 192/67/33 129/68/1 191/66/33
s 0
f 159/69/34 175/70/34 191/71/34
s 1
f 194/1/1 195/2/2 193/3/1
f 196/4/2 197/5/3 195/2/2
f 198/6/3 199/7/4 197/5/3
f 200/8/4 201/9/5 199/7/4
f 202/10/5 203/11/6 201/9/5
f 204/12/6 205/13/7 203/11/6
f 206/14/7 207/15/8 205/13/7
f 208/16/8 209/17/9 207/15/8
f 210/18/9 211/19/10 209/17/9
f 212/20/10 213/21/11 211/19/10
f 214/22/11 215/23/12 213/21/11
f 216/24/12 217/25/13 215/23/12
f 218/26/13 219/27/14 217/25/13
f 220/28/14 221/29/15 219/27/14
f 222/30/15 223/31/16 221/29/15
f 224/32/16 225/33/17 223/31/16
f 226/34/17 227/35/18 225/33/17
f 228/36/18 229/37/19 227/35/18
f 230/38/19 231/39/20 229/37/19
f 232/40/20 233/41/21 231/39/20
f 234/42/21 235/43/22 233/41/21
f 236/44/22 237/45/23 235/43/22
f 238/46/23 239/47/24 237/45/23
f 240/48/24 241/49/25 239/47/24
f 242/50/25 243/51/26 241/49/25
f 244/52/26 245/53/27 243/51/26
f 246/54/27 247/55/28 245/53/27
f 248/56/28 249/57/29 247/55/28
f 250/58/29 251/59/30 249/57/29
f 252/60/30 253/61/31 251/59/30
s 0
f 246/73/32 230/62/32 214/63/32
s 1
f 254/65/31 255/66/33 253/61/31
f 256/67/33 193/68/1 255/66/33
s 0
f 223/69/34 239/70/34 255/71/34
s 1
f 258/1/1 259/2/2 257/3/1
f 260/4/2 261/5/3 259/2/2
f 262/6/3 263/7/4 261/5/3
f 264/8/4 265/9/5 263/7/4
f 266/10/5 267/11/6 265/9/5
f 268/12/6 269/13/7 267/11/6
f 270/14/7 271/15/8 269/13/7
f 272/16/8 273/17/9 271/15/8
f 274/18/9 275/19/10 273/17/9
f 276/20/10 277/21/11 275/19/10
f 278/22/11 279/23/12 277/21/11
f 280/24/12 281/25/13 279/23/12
f 282/26/13 283/27/14 281/25/13
f 284/28/14 285/29/15 283/27/14
f 286/30/15 287/31/16 285/29/15
f 288/32/16 289/33/17 287/31/16
f 290/34/17 291/35/18 289/33/17
f 292/36/18 293/37/19 291/35/18
f 294/38/19 295/39/20 293/37/19
f 296/40/20 297/41/21 295/39/20
f 298/42/21 299/43/22 297/41/21
f 300/44/22 301/45/23 299/43/22
f 302/46/23 303/47/24 301/45/23
f 304/48/24 305/49/25 303/47/24
f 306/50/25 307/51/26 305/49/25
f 308/52/26 309/53/27 307/51/26
f 310/54/27 311/55/28 309/53/27
f 312/56/28 313/57/29 311/55/28
f 314/58/29 315/59/30 313/57/29
f 316/60/30 317/61/31 315/59/30
s 0
f 286/74/32 278/63/32 262/64/32
s 1
f 318/65/31 319/66/33 317/61/31
f 320/67/33 257/68/1 319/66/33
s 0
f 303/70/34 311/75/34 319/71/34
s 1
f 322/1/1 323/2/2 321/3/1
f 324/4/2 325/5/3 323/2/2
f 326/6/3 327/7/4 325/5/3
f 328/8/4 329/9/5 327/7/4
f 330/10/5 331/11/6 329/9/5
f 332/12/6 333/13/7 331/11/6
f 334/14/7 335/15/8 333/13/7
f 336/16/8 337/17/9 335/15/8
f 338/18/9 339/19/10 337/17/9
f 340/20/10 341/21/11 339/19/10
f 342/22/11 343/23/12 341/21/11
f 344/24/12 345/25/13 343/23/12
f 346/26/13 347/27/14 345/25/13
f 348/28/14 349/29/15 347/27/14
f 350/30/15 351/31/16 349/29/15
f 352/32/16 353/33/17 351/31/16
f 354/34/17 355/35/18 353/33/17
f 356/36/18 357/37/19 355/35/18
f 358/38/19 359/39/20 357/37/19
f 360/40/20 361/41/21 359/39/20
f 362/42/21 363/43/22 361/41/21
f 364/44/22 365/45/23 363/43/22
f 366/46/23 367/47/24 365/45/23
f 368/48/24 369/49/25 367/47/24
f 370/50/25 371/51/26 369/49/25
f 372/52/26 373/53/27 371/51/26
f 374/54/27 375/55/28 373/53/27
f 376/56/28 377/57/29 375/55/28
f 378/58/29 379/59/30 377/57/29
f 380/60/30 381/61/31 379/59/30
s 0
f 326/64/32 374/73/32 358/62/32
s 1
f 382/65/31 383/66/33 381/61/31
f 384/67/33 321/68/1 383/66/33
s 0
f 375/75/34 383/71/34 351/69/34
s 1
f 386/1/1 387/2/2 385/3/1
f 388/4/2 389/5/3 387/2/2
f 390/6/3 391/7/4 389/5/3
f 392/8/4 393/9/5 391/7/4
f 394/10/5 395/11/6 393/9/5
f 396/12/6 397/13/7 395/11/6
f 398/14/7 399/15/8 397/13/7
f 400/16/8 401/17/9 399/15/8
f 402/18/9 403/19/10 401/17/9
f 404/20/10 405/21/11 403/19/10
f 406/22/11 407/23/12 405/21/11
f 408/24/12 409/25/13 407/23/12
f 410/26/13 411/27/14 409/25/13
f 412/28/14 413/29/15 411/27/14
f 414/30/15 415/31/16 413/29/15
f 416/32/16 417/33/17 415/31/16
f 418/34/17 419/35/18 417/33/17
f 420/36/18 421/37/19 419/35/18
f 422/38/19 423/39/20 421/37/19
f 424/40/20 425/41/21 423/39/20
f 426/42/21 427/43/22 425/41/21
f 428/44/22 429/45/23 427/43/22
f 430/46/23 431/47/24 429/45/23
f 432/48/24 433/49/25 431/47/24
f 434/50/25 435/51/26 433/49/25
f 436/52/26 437/53/27 435/51/26
f 438/54/27 439/55/28 437/53/27
f 440/56/28 441/57/29 439/55/28
f 442/58/29 443/59/30 441/57/29
f 444/60/30 445/61/31 443/59/30
s 0
f 414/74/32 406/63/32 390/64/32
s 1
f 446/65/31 447/66/33 445/61/31
f 448/67/33 385/68/1 447/66/33
s 0
f 439/75/34 447/71/34 415/69/34
f 450/76/35 451/77/35 449/78/35
f 452/79/1 455/41/1 451/77/1
f 456/25/36 453/80/36 455/41/36
f 453/80/17 450/26/17 449/42/17
f 455/41/37 449/81/37 451/57/37
f 452/9/38 454/82/38 456/25/38
f 458/76/39 459/77/39 457/78/39
f 459/77/1 464/25/1 463/41/1
f 464/25/40 461/80/40 463/41/40
f 462/82/17 457/42/17 461/80/17
f 463/41/41 457/81/41 459/57/41
f 460/9/42 462/82/42 464/25/42
s 1
f 2/1/1 4/4/2 3/2/2
f 4/4/2 6/6/3 5/5/3
f 6/6/3 8/8/4 7/7/4
f 8/8/4 10/10/5 9/9/5
f 10/10/5 12/12/6 11/11/6
f 12/12/6 14/14/7 13/13/7
f 14/14/7 16/16/8 15/15/8
f 16/16/8 18/18/9 17/17/9
f 18/18/9 20/20/10 19/19/10
f 20/20/10 22/22/11 21/21/11
f 22/22/11 24/24/12 23/23/12
f 24/24/12 26/26/13 25/25/13
f 26/26/13 28/28/14 27/27/14
f 28/28/14 30/30/15 29/29/15
f 30/30/15 32/32/16 31/31/16
f 32/32/16 34/34/17 33/33/17
f 34/34/17 36/36/18 35/35/18
f 36/36/18 38/38/19 37/37/19
f 38/38/19 40/40/20 39/39/20
f 40/40/20 42/42/21 41/41/21
f 42/42/21 44/44/22 43/43/22
f 44/44/22 46/46/23 45/45/23
f 46/46/23 48/48/24 47/47/24
f 48/48/24 50/50/25 49/49/25
f 50/50/25 52/52/26 51/51/26
f 52/52/26 54/54/27 53/53/27
f 54/54/27 56/56/28 55/55/28
f 56/56/28 58/58/29 57/57/29
f 58/58/29 60/60/30 59/59/30
f 60/60/30 62/65/31 61/61/31
s 0
f 6/64/32 4/83/32 2/84/32
f 2/84/32 64/85/32 6/64/32
f 64/85/32 62/86/32 6/64/32
f 62/86/32 60/87/32 58/88/32
f 58/88/32 56/89/32 54/73/32
f 54/73/32 52/90/32 50/91/32
f 50/91/32 48/92/32 54/73/32
f 48/92/32 46/93/32 54/73/32
f 46/93/32 44/94/32 42/95/32
f 42/95/32 40/96/32 38/62/32
f 38/62/32 36/97/32 30/74/32
f 36/97/32 34/98/32 30/74/32
f 34/98/32 32/99/32 30/74/32
f 30/74/32 28/100/32 26/101/32
f 26/101/32 24/102/32 22/63/32
f 22/63/32 20/103/32 14/72/32
f 20/103/32 18/104/32 14/72/32
f 18/104/32 16/105/32 14/72/32
f 14/72/32 12/106/32 10/107/32
f 10/107/32 8/108/32 6/64/32
f 62/86/32 58/88/32 6/64/32
f 58/88/32 54/73/32 6/64/32
f 46/93/32 42/95/32 54/73/32
f 42/95/32 38/62/32 54/73/32
f 30/74/32 26/101/32 38/62/32
f 26/101/32 22/63/32 38/62/32
f 14/72/32 10/107/32 22/63/32
f 10/107/32 6/64/32 22/63/32
f 6/64/32 54/73/32 38/62/32
s 1
f 62/65/31 64/67/33 63/66/33
f 64/67/33 2/109/1 1/68/1
s 0
f 63/71/34 1/110/34 3/111/34
f 3/111/34 5/112/34 7/113/34
f 7/113/34 9/114/34 11/115/34
f 11/115/34 13/116/34 15/117/34
f 15/117/34 17/118/34 19/119/34
f 19/119/34 21/120/34 23/121/34
f 23/121/34 25/122/34 27/123/34
f 27/123/34 29/124/34 31/69/34
f 31/69/34 33/125/34 35/126/34
f 35/126/34 37/127/34 39/128/34
f 39/128/34 41/129/34 43/130/34
f 43/130/34 45/131/34 47/70/34
f 47/70/34 49/132/34 51/133/34
f 51/133/34 53/134/34 55/75/34
f 55/75/34 57/135/34 59/136/34
f 59/136/34 61/137/34 63/71/34
f 63/71/34 3/111/34 15/117/34
f 3/111/34 7/113/34 15/117/34
f 7/113/34 11/115/34 15/117/34
f 15/117/34 19/119/34 31/69/34
f 19/119/34 23/121/34 31/69/34
f 23/121/34 27/123/34 31/69/34
f 31/69/34 35/126/34 47/70/34
f 35/126/34 39/128/34 47/70/34
f 39/128/34 43/130/34 47/70/34
f 47/70/34 51/133/34 63/71/34
f 51/133/34 55/75/34 63/71/34
f 55/75/34 59/136/34 63/71/34
f 63/71/34 15/117/34 31/69/34
s 1
f 66/1/1 68/4/2 67/2/2
f 68/4/2 70/6/3 69/5/3
f 70/6/3 72/8/4 71/7/4
f 72/8/4 74/10/5 73/9/5
f 74/10/5 76/12/6 75/11/6
f 76/12/6 78/14/7 77/13/7
f 78/14/7 80/16/8 79/15/8
f 80/16/8 82/18/9 81/17/9
f 82/18/9 84/20/10 83/19/10
f 84/20/10 86/22/11 85/21/11
f 86/22/11 88/24/12 87/23/12
f 88/24/12 90/26/13 89/25/13
f 90/26/13 92/28/14 91/27/14
f 92/28/14 94/30/15 93/29/15
f 94/30/15 96/32/16 95/31/16
f 96/32/16 98/34/17 97/33/17
f 98/34/17 100/36/18 99/35/18
f 100/36/18 102/38/19 101/37/19
f 102/38/19 104/40/20 103/39/20
f 104/40/20 106/42/21 105/41/21
f 106/42/21 108/44/22 107/43/22
f 108/44/22 110/46/23 109/45/23
f 110/46/23 112/48/24 111/47/24
f 112/48/24 114/50/25 113/49/25
f 114/50/25 116/52/26 115/51/26
f 116/52/26 118/54/27 117/53/27
f 118/54/27 120/56/28 119/55/28
f 120/56/28 122/58/29 121/57/29
f 122/58/29 124/60/30 123/59/30
f 124/60/30 126/65/31 125/61/31
s 0
f 70/64/32 68/83/32 66/84/32
f 66/84/32 128/85/32 70/64/32
f 128/85/32 126/86/32 70/64/32
f 126/86/32 124/87/32 122/88/32
f 122/88/32 120/89/32 126/86/32
f 120/89/32 118/73/32 126/86/32
f 118/73/32 116/90/32 110/93/32
f 116/90/32 114/91/32 110/93/32
f 114/91/32 112/92/32 110/93/32
f 110/93/32 108/94/32 102/62/32
f 108/94/32 106/95/32 102/62/32
f 106/95/32 104/96/32 102/62/32
f 102/62/32 100/97/32 98/98/32
f 98/98/32 96/99/32 102/62/32
f 96/99/32 94/74/32 102/62/32
f 94/74/32 92/100/32 90/101/32
f 90/101/32 88/102/32 94/74/32
f 88/102/32 86/63/32 94/74/32
f 86/63/32 84/103/32 82/104/32
f 82/104/32 80/105/32 78/72/32
f 78/72/32 76/106/32 70/64/32
f 76/106/32 74/107/32 70/64/32
f 74/107/32 72/108/32 70/64/32
f 86/63/32 82/104/32 78/72/32
f 70/64/32 126/86/32 118/73/32
f 118/73/32 110/93/32 70/64/32
f 110/93/32 102/62/32 70/64/32
f 102/62/32 94/74/32 86/63/32
f 86/63/32 78/72/32 102/62/32
s 1
f 126/65/31 128/67/33 127/66/33
f 128/67/33 66/109/1 65/68/1
s 0
f 127/71/34 65/110/34 67/111/34
f 67/111/34 69/112/34 71/113/34
f 71/113/34 73/114/34 75/115/34
f 75/115/34 77/116/34 79/117/34
f 79/117/34 81/118/34 87/121/34
f 81/118/34 83/119/34 87/121/34
f 83/119/34 85/120/34 87/121/34
f 87/121/34 89/122/34 91/123/34
f 91/123/34 93/124/34 95/69/34
f 95/69/34 97/125/34 99/126/34
f 99/126/34 101/127/34 103/128/34
f 103/128/34 105/129/34 107/130/34
f 107/130/34 109/131/34 111/70/34
f 111/70/34 113/132/34 115/133/34
f 115/133/34 117/134/34 119/75/34
f 119/75/34 121/135/34 123/136/34
f 123/136/34 125/137/34 127/71/34
f 127/71/34 67/111/34 71/113/34
f 71/113/34 75/115/34 127/71/34
f 75/115/34 79/117/34 127/71/34
f 87/121/34 91/123/34 95/69/34
f 95/69/34 99/126/34 111/70/34
f 99/126/34 103/128/34 111/70/34
f 103/128/34 107/130/34 111/70/34
f 111/70/34 115/133/34 119/75/34
f 119/75/34 123/136/34 127/71/34
f 79/117/34 87/121/34 127/71/34
f 87/121/34 95/69/34 127/71/34
f 111/70/34 119/75/34 127/71/34
s 1
f 130/1/1 132/4/2 131/2/2
f 132/4/2 134/6/3 133/5/3
f 134/6/3 136/8/4 135/7/4
f 136/8/4 138/10/5 137/9/5
f 138/10/5 140/12/6 139/11/6
f 140/12/6 142/14/7 141/13/7
f 142/14/7 144/16/8 143/15/8
f 144/16/8 146/18/9 145/17/9
f 146/18/9 148/20/10 147/19/10
f 148/20/10 150/22/11 149/21/11
f 150/22/11 152/24/12 151/23/12
f 152/24/12 154/26/13 153/25/13
f 154/26/13 156/28/14 155/27/14
f 156/28/14 158/30/15 157/29/15
f 158/30/15 160/32/16 159/31/16
f 160/32/16 162/34/17 161/33/17
f 162/34/17 164/36/18 163/35/18
f 164/36/18 166/38/19 165/37/19
f 166/38/19 168/40/20 167/39/20
f 168/40/20 170/42/21 169/41/21
f 170/42/21 172/44/22 171/43/22
f 172/44/22 174/46/23 173/45/23
f 174/46/23 176/48/24 175/47/24
f 176/48/24 178/50/25 177/49/25
f 178/50/25 180/52/26 179/51/26
f 180/52/26 182/54/27 181/53/27
f 182/54/27 184/56/28 183/55/28
f 184/56/28 186/58/29 185/57/29
f 186/58/29 188/60/30 187/59/30
f 188/60/30 190/65/31 189/61/31
s 0
f 134/64/32 132/83/32 190/86/32
f 132/83/32 130/84/32 190/86/32
f 130/84/32 192/85/32 190/86/32
f 190/86/32 188/87/32 186/88/32
f 186/88/32 184/89/32 182/73/32
f 182/73/32 180/90/32 174/93/32
f 180/90/32 178/91/32 174/93/32
f 178/91/32 176/92/32 174/93/32
f 174/93/32 172/94/32 170/95/32
f 170/95/32 168/96/32 166/62/32
f 166/62/32 164/97/32 162/98/32
f 162/98/32 160/99/32 166/62/32
f 160/99/32 158/74/32 166/62/32
f 158/74/32 156/100/32 154/101/32
f 154/101/32 152/102/32 158/74/32
f 152/102/32 150/63/32 158/74/32
f 150/63/32 148/103/32 146/104/32
f 146/104/32 144/105/32 150/63/32
f 144/105/32 142/72/32 150/63/32
f 142/72/32 140/106/32 134/64/32
f 140/106/32 138/107/32 134/64/32
f 138/107/32 136/108/32 134/64/32
f 190/86/32 186/88/32 182/73/32
f 174/93/32 170/95/32 182/73/32
f 170/95/32 166/62/32 182/73/32
f 134/64/32 190/86/32 182/73/32
f 166/62/32 158/74/32 150/63/32
f 150/63/32 142/72/32 134/64/32
f 134/64/32 182/73/32 150/63/32
s 1
f 190/65/31 192/67/33 191/66/33
f 192/67/33 130/109/1 129/68/1
s 0
f 191/71/34 129/110/34 131/111/34
f 131/111/34 133/112/34 135/113/34
f 135/113/34 137/114/34 139/115/34
f 139/115/34 141/116/34 143/117/34
f 143/117/34 145/118/34 147/119/34
f 147/119/34 149/120/34 151/121/34
f 151/121/34 153/122/34 159/69/34
f 153/122/34 155/123/34 159/69/34
f 155/123/34 157/124/34 159/69/34
f 159/69/34 161/125/34 163/126/34
f 163/126/34 165/127/34 167/128/34
f 167/128/34 169/129/34 175/70/34
f 169/129/34 171/130/34 175/70/34
f 171/130/34 173/131/34 175/70/34
f 175/70/34 177/132/34 179/133/34
f 179/133/34 181/134/34 183/75/34
f 183/75/34 185/135/34 191/71/34
f 185/135/34 187/136/34 191/71/34
f 187/136/34 189/137/34 191/71/34
f 191/71/34 131/111/34 143/117/34
f 131/111/34 135/113/34 143/117/34
f 135/113/34 139/115/34 143/117/34
f 143/117/34 147/119/34 151/121/34
f 159/69/34 163/126/34 167/128/34
f 175/70/34 179/133/34 191/71/34
f 179/133/34 183/75/34 191/71/34
f 143/117/34 151/121/34 159/69/34
f 159/69/34 167/128/34 175/70/34
f 191/71/34 143/117/34 159/69/34
s 1
f 194/1/1 196/4/2 195/2/2
f 196/4/2 198/6/3 197/5/3
f 198/6/3 200/8/4 199/7/4
f 200/8/4 202/10/5 201/9/5
f 202/10/5 204/12/6 203/11/6
f 204/12/6 206/14/7 205/13/7
f 206/14/7 208/16/8 207/15/8
f 208/16/8 210/18/9 209/17/9
f 210/18/9 212/20/10 211/19/10
f 212/20/10 214/22/11 213/21/11
f 214/22/11 216/24/12 215/23/12
f 216/24/12 218/26/13 217/25/13
f 218/26/13 220/28/14 219/27/14
f 220/28/14 222/30/15 221/29/15
f 222/30/15 224/32/16 223/31/16
f 224/32/16 226/34/17 225/33/17
f 226/34/17 228/36/18 227/35/18
f 228/36/18 230/38/19 229/37/19
f 230/38/19 232/40/20 231/39/20
f 232/40/20 234/42/21 233/41/21
f 234/42/21 236/44/22 235/43/22
f 236/44/22 238/46/23 237/45/23
f 238/46/23 240/48/24 239/47/24
f 240/48/24 242/50/25 241/49/25
f 242/50/25 244/52/26 243/51/26
f 244/52/26 246/54/27 245/53/27
f 246/54/27 248/56/28 247/55/28
f 248/56/28 250/58/29 249/57/29
f 250/58/29 252/60/30 251/59/30
f 252/60/30 254/65/31 253/61/31
s 0
f 198/64/32 196/83/32 254/86/32
f 196/83/32 194/84/32 254/86/32
f 194/84/32 256/85/32 254/86/32
f 254/86/32 252/87/32 250/88/32
f 250/88/32 248/89/32 246/73/32
f 246/73/32 244/90/32 242/91/32
f 242/91/32 240/92/32 246/73/32
f 240/92/32 238/93/32 246/73/32
f 238/93/32 236/94/32 234/95/32
f 234/95/32 232/96/32 230/62/32
f 230/62/32 228/97/32 226/98/32
f 226/98/32 224/99/32 230/62/32
f 224/99/32 222/74/32 230/62/32
f 222/74/32 220/100/32 214/63/32
f 220/100/32 218/101/32 214/63/32
f 218/101/32 216/102/32 214/63/32
f 214/63/32 212/103/32 210/104/32
f 210/104/32 208/105/32 214/63/32
f 208/105/32 206/72/32 214/63/32
f 206/72/32 204/106/32 198/64/32
f 204/106/32 202/107/32 198/64/32
f 202/107/32 200/108/32 198/64/32
f 254/86/32 250/88/32 246/73/32
f 238/93/32 234/95/32 246/73/32
f 234/95/32 230/62/32 246/73/32
f 198/64/32 254/86/32 246/73/32
f 230/62/32 222/74/32 214/63/32
f 214/63/32 206/72/32 198/64/32
f 198/64/32 246/73/32 214/63/32
s 1
f 254/65/31 256/67/33 255/66/33
f 256/67/33 194/109/1 193/68/1
s 0
f 255/71/34 193/110/34 195/111/34
f 195/111/34 197/112/34 199/113/34
f 199/113/34 201/114/34 203/115/34
f 203/115/34 205/116/34 207/117/34
f 207/117/34 209/118/34 211/119/34
f 211/119/34 213/120/34 215/121/34
f 215/121/34 217/122/34 219/123/34
f 219/123/34 221/124/34 223/69/34
f 223/69/34 225/125/34 227/126/34
f 227/126/34 229/127/34 231/128/34
f 231/128/34 233/129/34 239/70/34
f 233/129/34 235/130/34 239/70/34
f 235/130/34 237/131/34 239/70/34
f 239/70/34 241/132/34 243/133/34
f 243/133/34 245/134/34 247/75/34
f 247/75/34 249/135/34 255/71/34
f 249/135/34 251/136/34 255/71/34
f 251/136/34 253/137/34 255/71/34
f 255/71/34 195/111/34 199/113/34
f 199/113/34 203/115/34 255/71/34
f 203/115/34 207/117/34 255/71/34
f 207/117/34 211/119/34 215/121/34
f 215/121/34 219/123/34 223/69/34
f 223/69/34 227/126/34 239/70/34
f 227/126/34 231/128/34 239/70/34
f 239/70/34 243/133/34 255/71/34
f 243/133/34 247/75/34 255/71/34
f 207/117/34 215/121/34 223/69/34
f 255/71/34 207/117/34 223/69/34
s 1
f 258/1/1 260/4/2 259/2/2
f 260/4/2 262/6/3 261/5/3
f 262/6/3 264/8/4 263/7/4
f 264/8/4 266/10/5 265/9/5
f 266/10/5 268/12/6 267/11/6
f 268/12/6 270/14/7 269/13/7
f 270/14/7 272/16/8 271/15/8
f 272/16/8 274/18/9 273/17/9
f 274/18/9 276/20/10 275/19/10
f 276/20/10 278/22/11 277/21/11
f 278/22/11 280/24/12 279/23/12
f 280/24/12 282/26/13 281/25/13
f 282/26/13 284/28/14 283/27/14
f 284/28/14 286/30/15 285/29/15
f 286/30/15 288/32/16 287/31/16
f 288/32/16 290/34/17 289/33/17
f 290/34/17 292/36/18 291/35/18
f 292/36/18 294/38/19 293/37/19
f 294/38/19 296/40/20 295/39/20
f 296/40/20 298/42/21 297/41/21
f 298/42/21 300/44/22 299/43/22
f 300/44/22 302/46/23 301/45/23
f 302/46/23 304/48/24 303/47/24
f 304/48/24 306/50/25 305/49/25
f 306/50/25 308/52/26 307/51/26
f 308/52/26 310/54/27 309/53/27
f 310/54/27 312/56/28 311/55/28
f 312/56/28 314/58/29 313/57/29
f 314/58/29 316/60/30 315/59/30
f 316/60/30 318/65/31 317/61/31
s 0
f 262/64/32 260/83/32 258/84/32
f 258/84/32 320/85/32 262/64/32
f 320/85/32 318/86/32 262/64/32
f 318/86/32 316/87/32 314/88/32
f 314/88/32 312/89/32 318/86/32
f 312/89/32 310/73/32 318/86/32
f 310/73/32 308/90/32 306/91/32
f 306/91/32 304/92/32 302/93/32
f 302/93/32 300/94/32 298/95/32
f 298/95/32 296/96/32 302/93/32
f 296/96/32 294/62/32 302/93/32
f 294/62/32 292/97/32 290/98/32
f 290/98/32 288/99/32 294/62/32
f 288/99/32 286/74/32 294/62/32
f 286/74/32 284/100/32 282/101/32
f 282/101/32 280/102/32 286/74/32
f 280/102/32 278/63/32 286/74/32
f 278/63/32 276/103/32 274/104/32
f 274/104/32 272/105/32 270/72/32
f 270/72/32 268/106/32 262/64/32
f 268/106/32 266/107/32 262/64/32
f 266/107/32 264/108/32 262/64/32
f 310/73/32 306/91/32 294/62/32
f 306/91/32 302/93/32 294/62/32
f 278/63/32 274/104/32 262/64/32
f 274/104/32 270/72/32 262/64/32
f 262/64/32 318/86/32 294/62/32
f 318/86/32 310/73/32 294/62/32
f 294/62/32 286/74/32 262/64/32
s 1
f 318/65/31 320/67/33 319/66/33
f 320/67/33 258/109/1 257/68/1
s 0
f 319/71/34 257/110/34 259/111/34
f 259/111/34 261/112/34 263/113/34
f 263/113/34 265/114/34 267/115/34
f 267/115/34 269/116/34 271/117/34
f 271/117/34 273/118/34 279/121/34
f 273/118/34 275/119/34 279/121/34
f 275/119/34 277/120/34 279/121/34
f 279/121/34 281/122/34 283/123/34
f 283/123/34 285/124/34 287/69/34
f 287/69/34 289/125/34 291/126/34
f 291/126/34 293/127/34 295/128/34
f 295/128/34 297/129/34 299/130/34
f 299/130/34 301/131/34 303/70/34
f 303/70/34 305/132/34 311/75/34
f 305/132/34 307/133/34 311/75/34
f 307/133/34 309/134/34 311/75/34
f 311/75/34 313/135/34 315/136/34
f 315/136/34 317/137/34 319/71/34
f 319/71/34 259/111/34 263/113/34
f 263/113/34 267/115/34 319/71/34
f 267/115/34 271/117/34 319/71/34
f 279/121/34 283/123/34 287/69/34
f 287/69/34 291/126/34 295/128/34
f 295/128/34 299/130/34 303/70/34
f 311/75/34 315/136/34 319/71/34
f 271/117/34 279/121/34 319/71/34
f 279/121/34 287/69/34 319/71/34
f 287/69/34 295/128/34 319/71/34
f 295/128/34 303/70/34 319/71/34
s 1
f 322/1/1 324/4/2 323/2/2
f 324/4/2 326/6/3 325/5/3
f 326/6/3 328/8/4 327/7/4
f 328/8/4 330/10/5 329/9/5
f 330/10/5 332/12/6 331/11/6
f 332/12/6 334/14/7 333/13/7
f 334/14/7 336/16/8 335/15/8
f 336/16/8 338/18/9 337/17/9
f 338/18/9 340/20/10 339/19/10
f 340/20/10 342/22/11 341/21/11
f 342/22/11 344/24/12 343/23/12
f 344/24/12 346/26/13 345/25/13
f 346/26/13 348/28/14 347/27/14
f 348/28/14 350/30/15 349/29/15
f 350/30/15 352/32/16 351/31/16
f 352/32/16 354/34/17 353/33/17
f 354/34/17 356/36/18 355/35/18
f 356/36/18 358/38/19 357/37/19
f 358/38/19 360/40/20 359/39/20
f 360/40/20 362/42/21 361/41/21
f 362/42/21 364/44/22 363/43/22
f 364/44/22 366/46/23 365/45/23
f 366/46/23 368/48/24 367/47/24
f 368/48/24 370/50/25 369/49/25
f 370/50/25 372/52/26 371/51/26
f 372/52/26 374/54/27 373/53/27
f 374/54/27 376/56/28 375/55/28
f 376/56/28 378/58/29 377/57/29
f 378/58/29 380/60/30 379/59/30
f 380/60/30 382/65/31 381/61/31
s 0
f 326/64/32 324/83/32 322/84/32
f 322/84/32 384/85/32 326/64/32
f 384/85/32 382/86/32 326/64/32
f 382/86/32 380/87/32 378/88/32
f 378/88/32 376/89/32 382/86/32
f 376/89/32 374/73/32 382/86/32
f 374/73/32 372/90/32 370/91/32
f 370/91/32 368/92/32 366/93/32
f 366/93/32 364/94/32 358/62/32
f 364/94/32 362/95/32 358/62/32
f 362/95/32 360/96/32 358/62/32
f 358/62/32 356/97/32 350/74/32
f 356/97/32 354/98/32 350/74/32
f 354/98/32 352/99/32 350/74/32
f 350/74/32 348/100/32 346/101/32
f 346/101/32 344/102/32 342/63/32
f 342/63/32 340/103/32 338/104/32
f 338/104/32 336/105/32 334/72/32
f 334/72/32 332/106/32 330/107/32
f 330/107/32 328/108/32 326/64/32
f 374/73/32 370/91/32 358/62/32
f 370/91/32 366/93/32 358/62/32
f 350/74/32 346/101/32 342/63/32
f 342/63/32 338/104/32 334/72/32
f 334/72/32 330/107/32 342/63/32
f 330/107/32 326/64/32 342/63/32
f 326/64/32 382/86/32 374/73/32
f 358/62/32 350/74/32 326/64/32
f 350/74/32 342/63/32 326/64/32
s 1
f 382/65/31 384/67/33 383/66/33
f 384/67/33 322/109/1 321/68/1
s 0
f 383/71/34 321/110/34 323/111/34
f 323/111/34 325/112/34 383/71/34
f 325/112/34 327/113/34 383/71/34
f 327/113/34 329/114/34 335/117/34
f 329/114/34 331/115/34 335/117/34
f 331/115/34 333/116/34 335/117/34
f 335/117/34 337/118/34 343/121/34
f 337/118/34 339/119/34 343/121/34
f 339/119/34 341/120/34 343/121/34
f 343/121/34 345/122/34 351/69/34
f 345/122/34 347/123/34 351/69/34
f 347/123/34 349/124/34 351/69/34
f 351/69/34 353/125/34 355/126/34
f 355/126/34 357/127/34 359/128/34
f 359/128/34 361/129/34 363/130/34
f 363/130/34 365/131/34 367/70/34
f 367/70/34 369/132/34 375/75/34
f 369/132/34 371/133/34 375/75/34
f 371/133/34 373/134/34 375/75/34
f 375/75/34 377/135/34 379/136/34
f 379/136/34 381/137/34 383/71/34
f 351/69/34 355/126/34 359/128/34
f 359/128/34 363/130/34 351/69/34
f 363/130/34 367/70/34 351/69/34
f 375/75/34 379/136/34 383/71/34
f 383/71/34 327/113/34 351/69/34
f 327/113/34 335/117/34 351/69/34
f 335/117/34 343/121/34 351/69/34
f 367/70/34 375/75/34 351/69/34
s 1
f 386/1/1 388/4/2 387/2/2
f 388/4/2 390/6/3 389/5/3
f 390/6/3 392/8/4 391/7/4
f 392/8/4 394/10/5 393/9/5
f 394/10/5 396/12/6 395/11/6
f 396/12/6 398/14/7 397/13/7
f 398/14/7 400/16/8 399/15/8
f 400/16/8 402/18/9 401/17/9
f 402/18/9 404/20/10 403/19/10
f 404/20/10 406/22/11 405/21/11
f 406/22/11 408/24/12 407/23/12
f 408/24/12 410/26/13 409/25/13
f 410/26/13 412/28/14 411/27/14
f 412/28/14 414/30/15 413/29/15
f 414/30/15 416/32/16 415/31/16
f 416/32/16 418/34/17 417/33/17
f 418/34/17 420/36/18 419/35/18
f 420/36/18 422/38/19 421/37/19
f 422/38/19 424/40/20 423/39/20
f 424/40/20 426/42/21 425/41/21
f 426/42/21 428/44/22 427/43/22
f 428/44/22 430/46/23 429/45/23
f 430/46/23 432/48/24 431/47/24
f 432/48/24 434/50/25 433/49/25
f 434/50/25 436/52/26 435/51/26
f 436/52/26 438/54/27 437/53/27
f 438/54/27 440/56/28 439/55/28
f 440/56/28 442/58/29 441/57/29
f 442/58/29 444/60/30 443/59/30
f 444/60/30 446/65/31 445/61/31
s 0
f 390/64/32 388/83/32 386/84/32
f 386/84/32 448/85/32 390/64/32
f 448/85/32 446/86/32 390/64/32
f 446/86/32 444/87/32 442/88/32
f 442/88/32 440/89/32 446/86/32
f 440/89/32 438/73/32 446/86/32
f 438/73/32 436/90/32 434/91/32
f 434/91/32 432/92/32 430/93/32
f 430/93/32 428/94/32 422/62/32
f 428/94/32 426/95/32 422/62/32
f 426/95/32 424/96/32 422/62/32
f 422/62/32 420/97/32 418/98/32
f 418/98/32 416/99/32 422/62/32
f 416/99/32 414/74/32 422/62/32
f 414/74/32 412/100/32 410/101/32
f 410/101/32 408/102/32 414/74/32
f 408/102/32 406/63/32 414/74/32
f 406/63/32 404/103/32 402/104/32
f 402/104/32 400/105/32 398/72/32
f 398/72/32 396/106/32 394/107/32
f 394/107/32 392/108/32 398/72/32
f 392/108/32 390/64/32 398/72/32
f 438/73/32 434/91/32 422/62/32
f 434/91/32 430/93/32 422/62/32
f 406/63/32 402/104/32 390/64/32
f 402/104/32 398/72/32 390/64/32
f 390/64/32 446/86/32 422/62/32
f 446/86/32 438/73/32 422/62/32
f 422/62/32 414/74/32 390/64/32
s 1
f 446/65/31 448/67/33 447/66/33
f 448/67/33 386/109/1 385/68/1
s 0
f 447/71/34 385/110/34 387/111/34
f 387/111/34 389/112/34 391/113/34
f 391/113/34 393/114/34 395/115/34
f 395/115/34 397/116/34 399/117/34
f 399/117/34 401/118/34 407/121/34
f 401/118/34 403/119/34 407/121/34
f 403/119/34 405/120/34 407/121/34
f 407/121/34 409/122/34 411/123/34
f 411/123/34 413/124/34 415/69/34
f 415/69/34 417/125/34 419/126/34
f 419/126/34 421/127/34 423/128/34
f 423/128/34 425/129/34 427/130/34
f 427/130/34 429/131/34 431/70/34
f 431/70/34 433/132/34 439/75/34
f 433/132/34 435/133/34 439/75/34
f 435/133/34 437/134/34 439/75/34
f 439/75/34 441/135/34 443/136/34
f 443/136/34 445/137/34 447/71/34
f 447/71/34 387/111/34 391/113/34
f 391/113/34 395/115/34 399/117/34
f 407/121/34 411/123/34 415/69/34
f 415/69/34 419/126/34 423/128/34
f 423/128/34 427/130/34 415/69/34
f 427/130/34 431/70/34 415/69/34
f 439/75/34 443/136/34 447/71/34
f 447/71/34 391/113/34 415/69/34
f 391/113/34 399/117/34 415/69/34
f 399/117/34 407/121/34 415/69/34
f 431/70/34 439/75/34 415/69/34
f 450/76/35 452/79/35 451/77/35
f 452/79/1 456/25/1 455/41/1
f 456/25/36 454/82/36 453/80/36
f 453/80/17 454/82/17 450/26/17
f 455/41/37 453/80/37 449/81/37
f 452/9/38 450/138/38 454/82/38
f 458/76/39 460/79/39 459/77/39
f 459/77/1 460/79/1 464/25/1
f 464/25/40 462/82/40 461/80/40
f 462/82/17 458/26/17 457/42/17
f 463/41/41 461/80/41 457/81/41
f 460/9/42 458/138/42 462/82/42
