mtllib star_observatory.mtl
o star_observatory
v 3.200000 -0.350000 0.000000
v 3.200000 -0.080000 0.000000
v 3.138513 -0.350000 0.624289
v 3.138513 -0.080000 0.624289
v 2.956415 -0.350000 1.224587
v 2.956415 -0.080000 1.224587
v 2.660703 -0.350000 1.777825
v 2.660703 -0.080000 1.777825
v 2.262742 -0.350000 2.262742
v 2.262742 -0.080000 2.262742
v 1.777825 -0.350000 2.660703
v 1.777825 -0.080000 2.660703
v 1.224587 -0.350000 2.956415
v 1.224587 -0.080000 2.956415
v 0.624289 -0.350000 3.138513
v 0.624289 -0.080000 3.138513
v 0.000000 -0.350000 3.200000
v 0.000000 -0.080000 3.200000
v -0.624289 -0.350000 3.138513
v -0.624289 -0.080000 3.138513
v -1.224587 -0.350000 2.956415
v -1.224587 -0.080000 2.956415
v -1.777825 -0.350000 2.660703
v -1.777825 -0.080000 2.660703
v -2.262742 -0.350000 2.262742
v -2.262742 -0.080000 2.262742
v -2.660703 -0.350000 1.777825
v -2.660703 -0.080000 1.777825
v -2.956415 -0.350000 1.224587
v -2.956415 -0.080000 1.224587
v -3.138513 -0.350000 0.624289
v -3.138513 -0.080000 0.624289
v -3.200000 -0.350000 0.000000
v -3.200000 -0.080000 0.000000
v -3.138513 -0.350000 -0.624289
v -3.138513 -0.080000 -0.624289
v -2.956415 -0.350000 -1.224587
v -2.956415 -0.080000 -1.224587
v -2.660703 -0.350000 -1.777825
v -2.660703 -0.080000 -1.777825
v -2.262742 -0.350000 -2.262742
v -2.262742 -0.080000 -2.262742
v -1.777825 -0.350000 -2.660703
v -1.777825 -0.080000 -2.660703
v -1.224587 -0.350000 -2.956415
v -1.224587 -0.080000 -2.956415
v -0.624289 -0.350000 -3.138513
v -0.624289 -0.080000 -3.138513
v -0.000000 -0.350000 -3.200000
v -0.000000 -0.080000 -3.200000
v 0.624289 -0.350000 -3.138513
v 0.624289 -0.080000 -3.138513
v 1.224587 -0.350000 -2.956415
v 1.224587 -0.080000 -2.956415
v 1.777825 -0.350000 -2.660703
v 1.777825 -0.080000 -2.660703
v 2.262742 -0.350000 -2.262742
v 2.262742 -0.080000 -2.262742
v 2.660703 -0.350000 -1.777825
v 2.660703 -0.080000 -1.777825
v 2.956415 -0.350000 -1.224587
v 2.956415 -0.080000 -1.224587
v 3.138513 -0.350000 -0.624289
v 3.138513 -0.080000 -0.624289
v 0.000000 -0.350000 0.000000
v 0.000000 -0.080000 0.000000
v 2.850000 -0.080000 0.000000
v 2.850000 0.020000 0.000000
v 2.795238 -0.080000 0.556007
v 2.795238 0.020000 0.556007
v 2.633057 -0.080000 1.090648
v 2.633057 0.020000 1.090648
v 2.369688 -0.080000 1.583375
v 2.369688 0.020000 1.583375
v 2.015254 -0.080000 2.015254
v 2.015254 0.020000 2.015254
v 1.583375 -0.080000 2.369688
v 1.583375 0.020000 2.369688
v 1.090648 -0.080000 2.633057
v 1.090648 0.020000 2.633057
v 0.556007 -0.080000 2.795238
v 0.556007 0.020000 2.795238
v 0.000000 -0.080000 2.850000
v 0.000000 0.020000 2.850000
v -0.556007 -0.080000 2.795238
v -0.556007 0.020000 2.795238
v -1.090648 -0.080000 2.633057
v -1.090648 0.020000 2.633057
v -1.583375 -0.080000 2.369688
v -1.583375 0.020000 2.369688
v -2.015254 -0.080000 2.015254
v -2.015254 0.020000 2.015254
v -2.369688 -0.080000 1.583375
v -2.369688 0.020000 1.583375
v -2.633057 -0.080000 1.090648
v -2.633057 0.020000 1.090648
v -2.795238 -0.080000 0.556007
v -2.795238 0.020000 0.556007
v -2.850000 -0.080000 0.000000
v -2.850000 0.020000 0.000000
v -2.795238 -0.080000 -0.556007
v -2.795238 0.020000 -0.556007
v -2.633057 -0.080000 -1.090648
v -2.633057 0.020000 -1.090648
v -2.369688 -0.080000 -1.583375
v -2.369688 0.020000 -1.583375
v -2.015254 -0.080000 -2.015254
v -2.015254 0.020000 -2.015254
v -1.583375 -0.080000 -2.369688
v -1.583375 0.020000 -2.369688
v -1.090648 -0.080000 -2.633057
v -1.090648 0.020000 -2.633057
v -0.556007 -0.080000 -2.795238
v -0.556007 0.020000 -2.795238
v -0.000000 -0.080000 -2.850000
v -0.000000 0.020000 -2.850000
v 0.556007 -0.080000 -2.795238
v 0.556007 0.020000 -2.795238
v 1.090648 -0.080000 -2.633057
v 1.090648 0.020000 -2.633057
v 1.583375 -0.080000 -2.369688
v 1.583375 0.020000 -2.369688
v 2.015254 -0.080000 -2.015254
v 2.015254 0.020000 -2.015254
v 2.369688 -0.080000 -1.583375
v 2.369688 0.020000 -1.583375
v 2.633057 -0.080000 -1.090648
v 2.633057 0.020000 -1.090648
v 2.795238 -0.080000 -0.556007
v 2.795238 0.020000 -0.556007
v 0.000000 -0.080000 0.000000
v 0.000000 0.020000 0.000000
v -1.890000 0.000000 0.000000
v -1.890000 0.280000 0.000000
v -1.925015 0.000000 0.176034
v -1.925015 0.280000 0.176034
v -2.024731 0.000000 0.325269
v -2.024731 0.280000 0.325269
v -2.173966 0.000000 0.424985
v -2.173966 0.280000 0.424985
v -2.350000 0.000000 0.460000
v -2.350000 0.280000 0.460000
v -2.526034 0.000000 0.424985
v -2.526034 0.280000 0.424985
v -2.675269 0.000000 0.325269
v -2.675269 0.280000 0.325269
v -2.774985 0.000000 0.176034
v -2.774985 0.280000 0.176034
v -2.810000 0.000000 0.000000
v -2.810000 0.280000 0.000000
v -2.774985 0.000000 -0.176034
v -2.774985 0.280000 -0.176034
v -2.675269 0.000000 -0.325269
v -2.675269 0.280000 -0.325269
v -2.526034 0.000000 -0.424985
v -2.526034 0.280000 -0.424985
v -2.350000 0.000000 -0.460000
v -2.350000 0.280000 -0.460000
v -2.173966 0.000000 -0.424985
v -2.173966 0.280000 -0.424985
v -2.024731 0.000000 -0.325269
v -2.024731 0.280000 -0.325269
v -1.925015 0.000000 -0.176034
v -1.925015 0.280000 -0.176034
v -2.350000 0.000000 0.000000
v -2.350000 0.280000 0.000000
v -2.010000 0.280000 0.000000
v -2.010000 2.620000 0.000000
v -2.035881 0.280000 0.130112
v -2.035881 2.620000 0.130112
v -2.109584 0.280000 0.240416
v -2.109584 2.620000 0.240416
v -2.219888 0.280000 0.314119
v -2.219888 2.620000 0.314119
v -2.350000 0.280000 0.340000
v -2.350000 2.620000 0.340000
v -2.480112 0.280000 0.314119
v -2.480112 2.620000 0.314119
v -2.590416 0.280000 0.240416
v -2.590416 2.620000 0.240416
v -2.664119 0.280000 0.130112
v -2.664119 2.620000 0.130112
v -2.690000 0.280000 0.000000
v -2.690000 2.620000 0.000000
v -2.664119 0.280000 -0.130112
v -2.664119 2.620000 -0.130112
v -2.590416 0.280000 -0.240416
v -2.590416 2.620000 -0.240416
v -2.480112 0.280000 -0.314119
v -2.480112 2.620000 -0.314119
v -2.350000 0.280000 -0.340000
v -2.350000 2.620000 -0.340000
v -2.219888 0.280000 -0.314119
v -2.219888 2.620000 -0.314119
v -2.109584 0.280000 -0.240416
v -2.109584 2.620000 -0.240416
v -2.035881 0.280000 -0.130112
v -2.035881 2.620000 -0.130112
v -2.350000 0.280000 0.000000
v -2.350000 2.620000 0.000000
v -1.910000 2.620000 0.000000
v -1.910000 2.860000 0.000000
v -1.943493 2.620000 0.168381
v -1.943493 2.860000 0.168381
v -2.038873 2.620000 0.311127
v -2.038873 2.860000 0.311127
v -2.181619 2.620000 0.406507
v -2.181619 2.860000 0.406507
v -2.350000 2.620000 0.440000
v -2.350000 2.860000 0.440000
v -2.518381 2.620000 0.406507
v -2.518381 2.860000 0.406507
v -2.661127 2.620000 0.311127
v -2.661127 2.860000 0.311127
v -2.756507 2.620000 0.168381
v -2.756507 2.860000 0.168381
v -2.790000 2.620000 0.000000
v -2.790000 2.860000 0.000000
v -2.756507 2.620000 -0.168381
v -2.756507 2.860000 -0.168381
v -2.661127 2.620000 -0.311127
v -2.661127 2.860000 -0.311127
v -2.518381 2.620000 -0.406507
v -2.518381 2.860000 -0.406507
v -2.350000 2.620000 -0.440000
v -2.350000 2.860000 -0.440000
v -2.181619 2.620000 -0.406507
v -2.181619 2.860000 -0.406507
v -2.038873 2.620000 -0.311127
v -2.038873 2.860000 -0.311127
v -1.943493 2.620000 -0.168381
v -1.943493 2.860000 -0.168381
v -2.350000 2.620000 0.000000
v -2.350000 2.860000 0.000000
v 2.810000 0.000000 0.000000
v 2.810000 0.280000 0.000000
v 2.774985 0.000000 0.176034
v 2.774985 0.280000 0.176034
v 2.675269 0.000000 0.325269
v 2.675269 0.280000 0.325269
v 2.526034 0.000000 0.424985
v 2.526034 0.280000 0.424985
v 2.350000 0.000000 0.460000
v 2.350000 0.280000 0.460000
v 2.173966 0.000000 0.424985
v 2.173966 0.280000 0.424985
v 2.024731 0.000000 0.325269
v 2.024731 0.280000 0.325269
v 1.925015 0.000000 0.176034
v 1.925015 0.280000 0.176034
v 1.890000 0.000000 0.000000
v 1.890000 0.280000 0.000000
v 1.925015 0.000000 -0.176034
v 1.925015 0.280000 -0.176034
v 2.024731 0.000000 -0.325269
v 2.024731 0.280000 -0.325269
v 2.173966 0.000000 -0.424985
v 2.173966 0.280000 -0.424985
v 2.350000 0.000000 -0.460000
v 2.350000 0.280000 -0.460000
v 2.526034 0.000000 -0.424985
v 2.526034 0.280000 -0.424985
v 2.675269 0.000000 -0.325269
v 2.675269 0.280000 -0.325269
v 2.774985 0.000000 -0.176034
v 2.774985 0.280000 -0.176034
v 2.350000 0.000000 0.000000
v 2.350000 0.280000 0.000000
v 2.690000 0.280000 0.000000
v 2.690000 2.620000 0.000000
v 2.664119 0.280000 0.130112
v 2.664119 2.620000 0.130112
v 2.590416 0.280000 0.240416
v 2.590416 2.620000 0.240416
v 2.480112 0.280000 0.314119
v 2.480112 2.620000 0.314119
v 2.350000 0.280000 0.340000
v 2.350000 2.620000 0.340000
v 2.219888 0.280000 0.314119
v 2.219888 2.620000 0.314119
v 2.109584 0.280000 0.240416
v 2.109584 2.620000 0.240416
v 2.035881 0.280000 0.130112
v 2.035881 2.620000 0.130112
v 2.010000 0.280000 0.000000
v 2.010000 2.620000 0.000000
v 2.035881 0.280000 -0.130112
v 2.035881 2.620000 -0.130112
v 2.109584 0.280000 -0.240416
v 2.109584 2.620000 -0.240416
v 2.219888 0.280000 -0.314119
v 2.219888 2.620000 -0.314119
v 2.350000 0.280000 -0.340000
v 2.350000 2.620000 -0.340000
v 2.480112 0.280000 -0.314119
v 2.480112 2.620000 -0.314119
v 2.590416 0.280000 -0.240416
v 2.590416 2.620000 -0.240416
v 2.664119 0.280000 -0.130112
v 2.664119 2.620000 -0.130112
v 2.350000 0.280000 0.000000
v 2.350000 2.620000 0.000000
v 2.790000 2.620000 0.000000
v 2.790000 2.860000 0.000000
v 2.756507 2.620000 0.168381
v 2.756507 2.860000 0.168381
v 2.661127 2.620000 0.311127
v 2.661127 2.860000 0.311127
v 2.518381 2.620000 0.406507
v 2.518381 2.860000 0.406507
v 2.350000 2.620000 0.440000
v 2.350000 2.860000 0.440000
v 2.181619 2.620000 0.406507
v 2.181619 2.860000 0.406507
v 2.038873 2.620000 0.311127
v 2.038873 2.860000 0.311127
v 1.943493 2.620000 0.168381
v 1.943493 2.860000 0.168381
v 1.910000 2.620000 0.000000
v 1.910000 2.860000 0.000000
v 1.943493 2.620000 -0.168381
v 1.943493 2.860000 -0.168381
v 2.038873 2.620000 -0.311127
v 2.038873 2.860000 -0.311127
v 2.181619 2.620000 -0.406507
v 2.181619 2.860000 -0.406507
v 2.350000 2.620000 -0.440000
v 2.350000 2.860000 -0.440000
v 2.518381 2.620000 -0.406507
v 2.518381 2.860000 -0.406507
v 2.661127 2.620000 -0.311127
v 2.661127 2.860000 -0.311127
v 2.756507 2.620000 -0.168381
v 2.756507 2.860000 -0.168381
v 2.350000 2.620000 0.000000
v 2.350000 2.860000 0.000000
v 2.610000 2.620000 0.000000
v 2.533848 2.620000 0.183848
v 2.350000 2.620000 0.260000
v 2.166152 2.620000 0.183848
v 2.090000 2.620000 0.000000
v 2.166152 2.620000 -0.183848
v 2.350000 2.620000 -0.260000
v 2.533848 2.620000 -0.183848
v 2.593589 2.912227 0.000000
v 2.517915 2.903701 0.183848
v 2.335224 2.883117 0.260000
v 2.152532 2.862532 0.183848
v 2.076859 2.854006 0.000000
v 2.152532 2.862532 -0.183848
v 2.335224 2.883117 -0.260000
v 2.517915 2.903701 -0.183848
v 2.544562 3.200780 0.000000
v 2.470319 3.183834 0.183848
v 2.291081 3.142924 0.260000
v 2.111842 3.102014 0.183848
v 2.037599 3.085069 0.000000
v 2.111842 3.102014 -0.183848
v 2.291081 3.142924 -0.260000
v 2.470319 3.183834 -0.183848
v 2.463535 3.482028 0.000000
v 2.391657 3.456877 0.183848
v 2.218126 3.396156 0.260000
v 2.044595 3.335435 0.183848
v 1.972716 3.310283 0.000000
v 2.044595 3.335435 -0.183848
v 2.218126 3.396156 -0.260000
v 2.391657 3.456877 -0.183848
v 2.351529 3.752437 0.000000
v 2.282918 3.719395 0.183848
v 2.117277 3.639627 0.260000
v 1.951636 3.559858 0.183848
v 1.883025 3.526817 0.000000
v 1.951636 3.559858 -0.183848
v 2.117277 3.639627 -0.260000
v 2.282918 3.719395 -0.183848
v 2.209950 4.008604 0.000000
v 2.145470 3.968088 0.183848
v 1.989802 3.870275 0.260000
v 1.834134 3.772462 0.183848
v 1.769654 3.731947 0.000000
v 1.834134 3.772462 -0.183848
v 1.989802 3.870275 -0.260000
v 2.145470 3.968088 -0.183848
v 2.040580 4.247308 0.000000
v 1.981042 4.199828 0.183848
v 1.837304 4.085201 0.260000
v 1.693566 3.970574 0.183848
v 1.634028 3.923094 0.000000
v 1.693566 3.970574 -0.183848
v 1.837304 4.085201 -0.260000
v 1.981042 4.199828 -0.183848
v 1.845549 4.465549 0.000000
v 1.791701 4.411701 0.183848
v 1.661701 4.281701 0.260000
v 1.531701 4.151701 0.183848
v 1.477853 4.097853 0.000000
v 1.531701 4.151701 -0.183848
v 1.661701 4.281701 -0.260000
v 1.791701 4.411701 -0.183848
v 1.627308 4.660580 0.000000
v 1.579828 4.601042 0.183848
v 1.465201 4.457304 0.260000
v 1.350574 4.313566 0.183848
v 1.303094 4.254028 0.000000
v 1.350574 4.313566 -0.183848
v 1.465201 4.457304 -0.260000
v 1.579828 4.601042 -0.183848
v 1.388604 4.829950 0.000000
v 1.348088 4.765470 0.183848
v 1.250275 4.609802 0.260000
v 1.152462 4.454134 0.183848
v 1.111947 4.389654 0.000000
v 1.152462 4.454134 -0.183848
v 1.250275 4.609802 -0.260000
v 1.348088 4.765470 -0.183848
v 1.132437 4.971529 0.000000
v 1.099395 4.902918 0.183848
v 1.019627 4.737277 0.260000
v 0.939858 4.571636 0.183848
v 0.906817 4.503025 0.000000
v 0.939858 4.571636 -0.183848
v 1.019627 4.737277 -0.260000
v 1.099395 4.902918 -0.183848
v 0.862028 5.083535 0.000000
v 0.836877 5.011657 0.183848
v 0.776156 4.838126 0.260000
v 0.715435 4.664595 0.183848
v 0.690283 4.592716 0.000000
v 0.715435 4.664595 -0.183848
v 0.776156 4.838126 -0.260000
v 0.836877 5.011657 -0.183848
v 0.580780 5.164562 0.000000
v 0.563834 5.090319 0.183848
v 0.522924 4.911081 0.260000
v 0.482014 4.731842 0.183848
v 0.465069 4.657599 0.000000
v 0.482014 4.731842 -0.183848
v 0.522924 4.911081 -0.260000
v 0.563834 5.090319 -0.183848
v 0.292227 5.213589 0.000000
v 0.283701 5.137915 0.183848
v 0.263117 4.955224 0.260000
v 0.242532 4.772532 0.183848
v 0.234006 4.696859 0.000000
v 0.242532 4.772532 -0.183848
v 0.263117 4.955224 -0.260000
v 0.283701 5.137915 -0.183848
v 0.000000 5.230000 0.000000
v 0.000000 5.153848 0.183848
v 0.000000 4.970000 0.260000
v 0.000000 4.786152 0.183848
v 0.000000 4.710000 0.000000
v 0.000000 4.786152 -0.183848
v 0.000000 4.970000 -0.260000
v 0.000000 5.153848 -0.183848
v -0.292227 5.213589 0.000000
v -0.283701 5.137915 0.183848
v -0.263117 4.955224 0.260000
v -0.242532 4.772532 0.183848
v -0.234006 4.696859 0.000000
v -0.242532 4.772532 -0.183848
v -0.263117 4.955224 -0.260000
v -0.283701 5.137915 -0.183848
v -0.580780 5.164562 0.000000
v -0.563834 5.090319 0.183848
v -0.522924 4.911081 0.260000
v -0.482014 4.731842 0.183848
v -0.465069 4.657599 0.000000
v -0.482014 4.731842 -0.183848
v -0.522924 4.911081 -0.260000
v -0.563834 5.090319 -0.183848
v -0.862028 5.083535 0.000000
v -0.836877 5.011657 0.183848
v -0.776156 4.838126 0.260000
v -0.715435 4.664595 0.183848
v -0.690283 4.592716 0.000000
v -0.715435 4.664595 -0.183848
v -0.776156 4.838126 -0.260000
v -0.836877 5.011657 -0.183848
v -1.132437 4.971529 0.000000
v -1.099395 4.902918 0.183848
v -1.019627 4.737277 0.260000
v -0.939858 4.571636 0.183848
v -0.906817 4.503025 0.000000
v -0.939858 4.571636 -0.183848
v -1.019627 4.737277 -0.260000
v -1.099395 4.902918 -0.183848
v -1.388604 4.829950 0.000000
v -1.348088 4.765470 0.183848
v -1.250275 4.609802 0.260000
v -1.152462 4.454134 0.183848
v -1.111947 4.389654 0.000000
v -1.152462 4.454134 -0.183848
v -1.250275 4.609802 -0.260000
v -1.348088 4.765470 -0.183848
v -1.627308 4.660580 0.000000
v -1.579828 4.601042 0.183848
v -1.465201 4.457304 0.260000
v -1.350574 4.313566 0.183848
v -1.303094 4.254028 0.000000
v -1.350574 4.313566 -0.183848
v -1.465201 4.457304 -0.260000
v -1.579828 4.601042 -0.183848
v -1.845549 4.465549 0.000000
v -1.791701 4.411701 0.183848
v -1.661701 4.281701 0.260000
v -1.531701 4.151701 0.183848
v -1.477853 4.097853 0.000000
v -1.531701 4.151701 -0.183848
v -1.661701 4.281701 -0.260000
v -1.791701 4.411701 -0.183848
v -2.040580 4.247308 0.000000
v -1.981042 4.199828 0.183848
v -1.837304 4.085201 0.260000
v -1.693566 3.970574 0.183848
v -1.634028 3.923094 0.000000
v -1.693566 3.970574 -0.183848
v -1.837304 4.085201 -0.260000
v -1.981042 4.199828 -0.183848
v -2.209950 4.008604 0.000000
v -2.145470 3.968088 0.183848
v -1.989802 3.870275 0.260000
v -1.834134 3.772462 0.183848
v -1.769654 3.731947 0.000000
v -1.834134 3.772462 -0.183848
v -1.989802 3.870275 -0.260000
v -2.145470 3.968088 -0.183848
v -2.351529 3.752437 0.000000
v -2.282918 3.719395 0.183848
v -2.117277 3.639627 0.260000
v -1.951636 3.559858 0.183848
v -1.883025 3.526817 0.000000
v -1.951636 3.559858 -0.183848
v -2.117277 3.639627 -0.260000
v -2.282918 3.719395 -0.183848
v -2.463535 3.482028 0.000000
v -2.391657 3.456877 0.183848
v -2.218126 3.396156 0.260000
v -2.044595 3.335435 0.183848
v -1.972716 3.310283 0.000000
v -2.044595 3.335435 -0.183848
v -2.218126 3.396156 -0.260000
v -2.391657 3.456877 -0.183848
v -2.544562 3.200780 0.000000
v -2.470319 3.183834 0.183848
v -2.291081 3.142924 0.260000
v -2.111842 3.102014 0.183848
v -2.037599 3.085069 0.000000
v -2.111842 3.102014 -0.183848
v -2.291081 3.142924 -0.260000
v -2.470319 3.183834 -0.183848
v -2.593589 2.912227 0.000000
v -2.517915 2.903701 0.183848
v -2.335224 2.883117 0.260000
v -2.152532 2.862532 0.183848
v -2.076859 2.854006 0.000000
v -2.152532 2.862532 -0.183848
v -2.335224 2.883117 -0.260000
v -2.517915 2.903701 -0.183848
v -2.610000 2.620000 0.000000
v -2.533848 2.620000 0.183848
v -2.350000 2.620000 0.260000
v -2.166152 2.620000 0.183848
v -2.090000 2.620000 0.000000
v -2.166152 2.620000 -0.183848
v -2.350000 2.620000 -0.260000
v -2.533848 2.620000 -0.183848
v 2.060000 2.620000 0.000000
v 2.020000 2.620000 0.069282
v 1.940000 2.620000 0.069282
v 1.900000 2.620000 0.000000
v 1.940000 2.620000 -0.069282
v 2.020000 2.620000 -0.069282
v 2.047047 2.850647 0.000000
v 2.007299 2.846168 0.069282
v 1.927802 2.837211 0.069282
v 1.888053 2.832733 0.000000
v 1.927802 2.837211 -0.069282
v 2.007299 2.846168 -0.069282
v 2.008351 3.078393 0.000000
v 1.969354 3.069492 0.069282
v 1.891360 3.051691 0.069282
v 1.852363 3.042790 0.000000
v 1.891360 3.051691 -0.069282
v 1.969354 3.069492 -0.069282
v 1.944400 3.300375 0.000000
v 1.906644 3.287164 0.069282
v 1.831134 3.260741 0.069282
v 1.793378 3.247530 0.000000
v 1.831134 3.260741 -0.069282
v 1.906644 3.287164 -0.069282
v 1.855996 3.513801 0.000000
v 1.819957 3.496445 0.069282
v 1.747880 3.461734 0.069282
v 1.711841 3.444379 0.000000
v 1.747880 3.461734 -0.069282
v 1.819957 3.496445 -0.069282
v 1.744252 3.715986 0.000000
v 1.710383 3.694705 0.069282
v 1.642645 3.652142 0.069282
v 1.608776 3.630861 0.000000
v 1.642645 3.652142 -0.069282
v 1.710383 3.694705 -0.069282
v 1.610573 3.904389 0.000000
v 1.579300 3.879449 0.069282
v 1.516753 3.829570 0.069282
v 1.485480 3.804631 0.000000
v 1.516753 3.829570 -0.069282
v 1.579300 3.879449 -0.069282
v 1.456640 4.076640 0.000000
v 1.428356 4.048356 0.069282
v 1.371787 3.991787 0.069282
v 1.343503 3.963503 0.000000
v 1.371787 3.991787 -0.069282
v 1.428356 4.048356 -0.069282
v 1.284389 4.230573 0.000000
v 1.259449 4.199300 0.069282
v 1.209570 4.136753 0.069282
v 1.184631 4.105480 0.000000
v 1.209570 4.136753 -0.069282
v 1.259449 4.199300 -0.069282
v 1.095986 4.364252 0.000000
v 1.074705 4.330383 0.069282
v 1.032142 4.262645 0.069282
v 1.010861 4.228776 0.000000
v 1.032142 4.262645 -0.069282
v 1.074705 4.330383 -0.069282
v 0.893801 4.475996 0.000000
v 0.876445 4.439957 0.069282
v 0.841734 4.367880 0.069282
v 0.824379 4.331841 0.000000
v 0.841734 4.367880 -0.069282
v 0.876445 4.439957 -0.069282
v 0.680375 4.564400 0.000000
v 0.667164 4.526644 0.069282
v 0.640741 4.451134 0.069282
v 0.627530 4.413378 0.000000
v 0.640741 4.451134 -0.069282
v 0.667164 4.526644 -0.069282
v 0.458393 4.628351 0.000000
v 0.449492 4.589354 0.069282
v 0.431691 4.511360 0.069282
v 0.422790 4.472363 0.000000
v 0.431691 4.511360 -0.069282
v 0.449492 4.589354 -0.069282
v 0.230647 4.667047 0.000000
v 0.226168 4.627299 0.069282
v 0.217211 4.547802 0.069282
v 0.212733 4.508053 0.000000
v 0.217211 4.547802 -0.069282
v 0.226168 4.627299 -0.069282
v 0.000000 4.680000 0.000000
v 0.000000 4.640000 0.069282
v 0.000000 4.560000 0.069282
v 0.000000 4.520000 0.000000
v 0.000000 4.560000 -0.069282
v 0.000000 4.640000 -0.069282
v -0.230647 4.667047 0.000000
v -0.226168 4.627299 0.069282
v -0.217211 4.547802 0.069282
v -0.212733 4.508053 0.000000
v -0.217211 4.547802 -0.069282
v -0.226168 4.627299 -0.069282
v -0.458393 4.628351 0.000000
v -0.449492 4.589354 0.069282
v -0.431691 4.511360 0.069282
v -0.422790 4.472363 0.000000
v -0.431691 4.511360 -0.069282
v -0.449492 4.589354 -0.069282
v -0.680375 4.564400 0.000000
v -0.667164 4.526644 0.069282
v -0.640741 4.451134 0.069282
v -0.627530 4.413378 0.000000
v -0.640741 4.451134 -0.069282
v -0.667164 4.526644 -0.069282
v -0.893801 4.475996 0.000000
v -0.876445 4.439957 0.069282
v -0.841734 4.367880 0.069282
v -0.824379 4.331841 0.000000
v -0.841734 4.367880 -0.069282
v -0.876445 4.439957 -0.069282
v -1.095986 4.364252 0.000000
v -1.074705 4.330383 0.069282
v -1.032142 4.262645 0.069282
v -1.010861 4.228776 0.000000
v -1.032142 4.262645 -0.069282
v -1.074705 4.330383 -0.069282
v -1.284389 4.230573 0.000000
v -1.259449 4.199300 0.069282
v -1.209570 4.136753 0.069282
v -1.184631 4.105480 0.000000
v -1.209570 4.136753 -0.069282
v -1.259449 4.199300 -0.069282
v -1.456640 4.076640 0.000000
v -1.428356 4.048356 0.069282
v -1.371787 3.991787 0.069282
v -1.343503 3.963503 0.000000
v -1.371787 3.991787 -0.069282
v -1.428356 4.048356 -0.069282
v -1.610573 3.904389 0.000000
v -1.579300 3.879449 0.069282
v -1.516753 3.829570 0.069282
v -1.485480 3.804631 0.000000
v -1.516753 3.829570 -0.069282
v -1.579300 3.879449 -0.069282
v -1.744252 3.715986 0.000000
v -1.710383 3.694705 0.069282
v -1.642645 3.652142 0.069282
v -1.608776 3.630861 0.000000
v -1.642645 3.652142 -0.069282
v -1.710383 3.694705 -0.069282
v -1.855996 3.513801 0.000000
v -1.819957 3.496445 0.069282
v -1.747880 3.461734 0.069282
v -1.711841 3.444379 0.000000
v -1.747880 3.461734 -0.069282
v -1.819957 3.496445 -0.069282
v -1.944400 3.300375 0.000000
v -1.906644 3.287164 0.069282
v -1.831134 3.260741 0.069282
v -1.793378 3.247530 0.000000
v -1.831134 3.260741 -0.069282
v -1.906644 3.287164 -0.069282
v -2.008351 3.078393 0.000000
v -1.969354 3.069492 0.069282
v -1.891360 3.051691 0.069282
v -1.852363 3.042790 0.000000
v -1.891360 3.051691 -0.069282
v -1.969354 3.069492 -0.069282
v -2.047047 2.850647 0.000000
v -2.007299 2.846168 0.069282
v -1.927802 2.837211 0.069282
v -1.888053 2.832733 0.000000
v -1.927802 2.837211 -0.069282
v -2.007299 2.846168 -0.069282
v -2.060000 2.620000 0.000000
v -2.020000 2.620000 0.069282
v -1.940000 2.620000 0.069282
v -1.900000 2.620000 0.000000
v -1.940000 2.620000 -0.069282
v -2.020000 2.620000 -0.069282
v 0.000000 5.920000 -0.150000
v -0.226532 5.411795 -0.150000
v -0.779866 5.353394 -0.150000
v -0.366537 4.980905 -0.150000
v -0.481984 4.436606 -0.150000
v -0.000000 4.714600 -0.150000
v 0.481984 4.436606 -0.150000
v 0.366537 4.980905 -0.150000
v 0.779866 5.353394 -0.150000
v 0.226532 5.411795 -0.150000
v 0.000000 5.920000 0.150000
v -0.226532 5.411795 0.150000
v -0.779866 5.353394 0.150000
v -0.366537 4.980905 0.150000
v -0.481984 4.436606 0.150000
v -0.000000 4.714600 0.150000
v 0.481984 4.436606 0.150000
v 0.366537 4.980905 0.150000
v 0.779866 5.353394 0.150000
v 0.226532 5.411795 0.150000
v 0.000000 5.100000 0.150000
v 0.000000 5.100000 -0.150000
usemtl obs_stone
f 1 3 4 2
f 66 2 4
f 65 3 1
f 3 5 6 4
f 66 4 6
f 65 5 3
f 5 7 8 6
f 66 6 8
f 65 7 5
f 7 9 10 8
f 66 8 10
f 65 9 7
f 9 11 12 10
f 66 10 12
f 65 11 9
f 11 13 14 12
f 66 12 14
f 65 13 11
f 13 15 16 14
f 66 14 16
f 65 15 13
f 15 17 18 16
f 66 16 18
f 65 17 15
f 17 19 20 18
f 66 18 20
f 65 19 17
f 19 21 22 20
f 66 20 22
f 65 21 19
f 21 23 24 22
f 66 22 24
f 65 23 21
f 23 25 26 24
f 66 24 26
f 65 25 23
f 25 27 28 26
f 66 26 28
f 65 27 25
f 27 29 30 28
f 66 28 30
f 65 29 27
f 29 31 32 30
f 66 30 32
f 65 31 29
f 31 33 34 32
f 66 32 34
f 65 33 31
f 33 35 36 34
f 66 34 36
f 65 35 33
f 35 37 38 36
f 66 36 38
f 65 37 35
f 37 39 40 38
f 66 38 40
f 65 39 37
f 39 41 42 40
f 66 40 42
f 65 41 39
f 41 43 44 42
f 66 42 44
f 65 43 41
f 43 45 46 44
f 66 44 46
f 65 45 43
f 45 47 48 46
f 66 46 48
f 65 47 45
f 47 49 50 48
f 66 48 50
f 65 49 47
f 49 51 52 50
f 66 50 52
f 65 51 49
f 51 53 54 52
f 66 52 54
f 65 53 51
f 53 55 56 54
f 66 54 56
f 65 55 53
f 55 57 58 56
f 66 56 58
f 65 57 55
f 57 59 60 58
f 66 58 60
f 65 59 57
f 59 61 62 60
f 66 60 62
f 65 61 59
f 61 63 64 62
f 66 62 64
f 65 63 61
f 63 1 2 64
f 66 64 2
f 65 1 63
usemtl obs_aqua
f 67 69 70 68
f 132 68 70
f 131 69 67
f 69 71 72 70
f 132 70 72
f 131 71 69
f 71 73 74 72
f 132 72 74
f 131 73 71
f 73 75 76 74
f 132 74 76
f 131 75 73
f 75 77 78 76
f 132 76 78
f 131 77 75
f 77 79 80 78
f 132 78 80
f 131 79 77
f 79 81 82 80
f 132 80 82
f 131 81 79
f 81 83 84 82
f 132 82 84
f 131 83 81
f 83 85 86 84
f 132 84 86
f 131 85 83
f 85 87 88 86
f 132 86 88
f 131 87 85
f 87 89 90 88
f 132 88 90
f 131 89 87
f 89 91 92 90
f 132 90 92
f 131 91 89
f 91 93 94 92
f 132 92 94
f 131 93 91
f 93 95 96 94
f 132 94 96
f 131 95 93
f 95 97 98 96
f 132 96 98
f 131 97 95
f 97 99 100 98
f 132 98 100
f 131 99 97
f 99 101 102 100
f 132 100 102
f 131 101 99
f 101 103 104 102
f 132 102 104
f 131 103 101
f 103 105 106 104
f 132 104 106
f 131 105 103
f 105 107 108 106
f 132 106 108
f 131 107 105
f 107 109 110 108
f 132 108 110
f 131 109 107
f 109 111 112 110
f 132 110 112
f 131 111 109
f 111 113 114 112
f 132 112 114
f 131 113 111
f 113 115 116 114
f 132 114 116
f 131 115 113
f 115 117 118 116
f 132 116 118
f 131 117 115
f 117 119 120 118
f 132 118 120
f 131 119 117
f 119 121 122 120
f 132 120 122
f 131 121 119
f 121 123 124 122
f 132 122 124
f 131 123 121
f 123 125 126 124
f 132 124 126
f 131 125 123
f 125 127 128 126
f 132 126 128
f 131 127 125
f 127 129 130 128
f 132 128 130
f 131 129 127
f 129 67 68 130
f 132 130 68
f 131 67 129
usemtl obs_gold
f 133 135 136 134
f 166 134 136
f 165 135 133
f 135 137 138 136
f 166 136 138
f 165 137 135
f 137 139 140 138
f 166 138 140
f 165 139 137
f 139 141 142 140
f 166 140 142
f 165 141 139
f 141 143 144 142
f 166 142 144
f 165 143 141
f 143 145 146 144
f 166 144 146
f 165 145 143
f 145 147 148 146
f 166 146 148
f 165 147 145
f 147 149 150 148
f 166 148 150
f 165 149 147
f 149 151 152 150
f 166 150 152
f 165 151 149
f 151 153 154 152
f 166 152 154
f 165 153 151
f 153 155 156 154
f 166 154 156
f 165 155 153
f 155 157 158 156
f 166 156 158
f 165 157 155
f 157 159 160 158
f 166 158 160
f 165 159 157
f 159 161 162 160
f 166 160 162
f 165 161 159
f 161 163 164 162
f 166 162 164
f 165 163 161
f 163 133 134 164
f 166 164 134
f 165 133 163
usemtl obs_stone
f 167 169 170 168
f 200 168 170
f 199 169 167
f 169 171 172 170
f 200 170 172
f 199 171 169
f 171 173 174 172
f 200 172 174
f 199 173 171
f 173 175 176 174
f 200 174 176
f 199 175 173
f 175 177 178 176
f 200 176 178
f 199 177 175
f 177 179 180 178
f 200 178 180
f 199 179 177
f 179 181 182 180
f 200 180 182
f 199 181 179
f 181 183 184 182
f 200 182 184
f 199 183 181
f 183 185 186 184
f 200 184 186
f 199 185 183
f 185 187 188 186
f 200 186 188
f 199 187 185
f 187 189 190 188
f 200 188 190
f 199 189 187
f 189 191 192 190
f 200 190 192
f 199 191 189
f 191 193 194 192
f 200 192 194
f 199 193 191
f 193 195 196 194
f 200 194 196
f 199 195 193
f 195 197 198 196
f 200 196 198
f 199 197 195
f 197 167 168 198
f 200 198 168
f 199 167 197
usemtl obs_gold
f 201 203 204 202
f 234 202 204
f 233 203 201
f 203 205 206 204
f 234 204 206
f 233 205 203
f 205 207 208 206
f 234 206 208
f 233 207 205
f 207 209 210 208
f 234 208 210
f 233 209 207
f 209 211 212 210
f 234 210 212
f 233 211 209
f 211 213 214 212
f 234 212 214
f 233 213 211
f 213 215 216 214
f 234 214 216
f 233 215 213
f 215 217 218 216
f 234 216 218
f 233 217 215
f 217 219 220 218
f 234 218 220
f 233 219 217
f 219 221 222 220
f 234 220 222
f 233 221 219
f 221 223 224 222
f 234 222 224
f 233 223 221
f 223 225 226 224
f 234 224 226
f 233 225 223
f 225 227 228 226
f 234 226 228
f 233 227 225
f 227 229 230 228
f 234 228 230
f 233 229 227
f 229 231 232 230
f 234 230 232
f 233 231 229
f 231 201 202 232
f 234 232 202
f 233 201 231
f 235 237 238 236
f 268 236 238
f 267 237 235
f 237 239 240 238
f 268 238 240
f 267 239 237
f 239 241 242 240
f 268 240 242
f 267 241 239
f 241 243 244 242
f 268 242 244
f 267 243 241
f 243 245 246 244
f 268 244 246
f 267 245 243
f 245 247 248 246
f 268 246 248
f 267 247 245
f 247 249 250 248
f 268 248 250
f 267 249 247
f 249 251 252 250
f 268 250 252
f 267 251 249
f 251 253 254 252
f 268 252 254
f 267 253 251
f 253 255 256 254
f 268 254 256
f 267 255 253
f 255 257 258 256
f 268 256 258
f 267 257 255
f 257 259 260 258
f 268 258 260
f 267 259 257
f 259 261 262 260
f 268 260 262
f 267 261 259
f 261 263 264 262
f 268 262 264
f 267 263 261
f 263 265 266 264
f 268 264 266
f 267 265 263
f 265 235 236 266
f 268 266 236
f 267 235 265
usemtl obs_stone
f 269 271 272 270
f 302 270 272
f 301 271 269
f 271 273 274 272
f 302 272 274
f 301 273 271
f 273 275 276 274
f 302 274 276
f 301 275 273
f 275 277 278 276
f 302 276 278
f 301 277 275
f 277 279 280 278
f 302 278 280
f 301 279 277
f 279 281 282 280
f 302 280 282
f 301 281 279
f 281 283 284 282
f 302 282 284
f 301 283 281
f 283 285 286 284
f 302 284 286
f 301 285 283
f 285 287 288 286
f 302 286 288
f 301 287 285
f 287 289 290 288
f 302 288 290
f 301 289 287
f 289 291 292 290
f 302 290 292
f 301 291 289
f 291 293 294 292
f 302 292 294
f 301 293 291
f 293 295 296 294
f 302 294 296
f 301 295 293
f 295 297 298 296
f 302 296 298
f 301 297 295
f 297 299 300 298
f 302 298 300
f 301 299 297
f 299 269 270 300
f 302 300 270
f 301 269 299
usemtl obs_gold
f 303 305 306 304
f 336 304 306
f 335 305 303
f 305 307 308 306
f 336 306 308
f 335 307 305
f 307 309 310 308
f 336 308 310
f 335 309 307
f 309 311 312 310
f 336 310 312
f 335 311 309
f 311 313 314 312
f 336 312 314
f 335 313 311
f 313 315 316 314
f 336 314 316
f 335 315 313
f 315 317 318 316
f 336 316 318
f 335 317 315
f 317 319 320 318
f 336 318 320
f 335 319 317
f 319 321 322 320
f 336 320 322
f 335 321 319
f 321 323 324 322
f 336 322 324
f 335 323 321
f 323 325 326 324
f 336 324 326
f 335 325 323
f 325 327 328 326
f 336 326 328
f 335 327 325
f 327 329 330 328
f 336 328 330
f 335 329 327
f 329 331 332 330
f 336 330 332
f 335 331 329
f 331 333 334 332
f 336 332 334
f 335 333 331
f 333 303 304 334
f 336 334 304
f 335 303 333
usemtl obs_stone
f 337 345 346 338
f 338 346 347 339
f 339 347 348 340
f 340 348 349 341
f 341 349 350 342
f 342 350 351 343
f 343 351 352 344
f 344 352 345 337
f 345 353 354 346
f 346 354 355 347
f 347 355 356 348
f 348 356 357 349
f 349 357 358 350
f 350 358 359 351
f 351 359 360 352
f 352 360 353 345
f 353 361 362 354
f 354 362 363 355
f 355 363 364 356
f 356 364 365 357
f 357 365 366 358
f 358 366 367 359
f 359 367 368 360
f 360 368 361 353
f 361 369 370 362
f 362 370 371 363
f 363 371 372 364
f 364 372 373 365
f 365 373 374 366
f 366 374 375 367
f 367 375 376 368
f 368 376 369 361
f 369 377 378 370
f 370 378 379 371
f 371 379 380 372
f 372 380 381 373
f 373 381 382 374
f 374 382 383 375
f 375 383 384 376
f 376 384 377 369
f 377 385 386 378
f 378 386 387 379
f 379 387 388 380
f 380 388 389 381
f 381 389 390 382
f 382 390 391 383
f 383 391 392 384
f 384 392 385 377
f 385 393 394 386
f 386 394 395 387
f 387 395 396 388
f 388 396 397 389
f 389 397 398 390
f 390 398 399 391
f 391 399 400 392
f 392 400 393 385
f 393 401 402 394
f 394 402 403 395
f 395 403 404 396
f 396 404 405 397
f 397 405 406 398
f 398 406 407 399
f 399 407 408 400
f 400 408 401 393
f 401 409 410 402
f 402 410 411 403
f 403 411 412 404
f 404 412 413 405
f 405 413 414 406
f 406 414 415 407
f 407 415 416 408
f 408 416 409 401
f 409 417 418 410
f 410 418 419 411
f 411 419 420 412
f 412 420 421 413
f 413 421 422 414
f 414 422 423 415
f 415 423 424 416
f 416 424 417 409
f 417 425 426 418
f 418 426 427 419
f 419 427 428 420
f 420 428 429 421
f 421 429 430 422
f 422 430 431 423
f 423 431 432 424
f 424 432 425 417
f 425 433 434 426
f 426 434 435 427
f 427 435 436 428
f 428 436 437 429
f 429 437 438 430
f 430 438 439 431
f 431 439 440 432
f 432 440 433 425
f 433 441 442 434
f 434 442 443 435
f 435 443 444 436
f 436 444 445 437
f 437 445 446 438
f 438 446 447 439
f 439 447 448 440
f 440 448 441 433
f 441 449 450 442
f 442 450 451 443
f 443 451 452 444
f 444 452 453 445
f 445 453 454 446
f 446 454 455 447
f 447 455 456 448
f 448 456 449 441
f 449 457 458 450
f 450 458 459 451
f 451 459 460 452
f 452 460 461 453
f 453 461 462 454
f 454 462 463 455
f 455 463 464 456
f 456 464 457 449
f 457 465 466 458
f 458 466 467 459
f 459 467 468 460
f 460 468 469 461
f 461 469 470 462
f 462 470 471 463
f 463 471 472 464
f 464 472 465 457
f 465 473 474 466
f 466 474 475 467
f 467 475 476 468
f 468 476 477 469
f 469 477 478 470
f 470 478 479 471
f 471 479 480 472
f 472 480 473 465
f 473 481 482 474
f 474 482 483 475
f 475 483 484 476
f 476 484 485 477
f 477 485 486 478
f 478 486 487 479
f 479 487 488 480
f 480 488 481 473
f 481 489 490 482
f 482 490 491 483
f 483 491 492 484
f 484 492 493 485
f 485 493 494 486
f 486 494 495 487
f 487 495 496 488
f 488 496 489 481
f 489 497 498 490
f 490 498 499 491
f 491 499 500 492
f 492 500 501 493
f 493 501 502 494
f 494 502 503 495
f 495 503 504 496
f 496 504 497 489
f 497 505 506 498
f 498 506 507 499
f 499 507 508 500
f 500 508 509 501
f 501 509 510 502
f 502 510 511 503
f 503 511 512 504
f 504 512 505 497
f 505 513 514 506
f 506 514 515 507
f 507 515 516 508
f 508 516 517 509
f 509 517 518 510
f 510 518 519 511
f 511 519 520 512
f 512 520 513 505
f 513 521 522 514
f 514 522 523 515
f 515 523 524 516
f 516 524 525 517
f 517 525 526 518
f 518 526 527 519
f 519 527 528 520
f 520 528 521 513
f 521 529 530 522
f 522 530 531 523
f 523 531 532 524
f 524 532 533 525
f 525 533 534 526
f 526 534 535 527
f 527 535 536 528
f 528 536 529 521
f 529 537 538 530
f 530 538 539 531
f 531 539 540 532
f 532 540 541 533
f 533 541 542 534
f 534 542 543 535
f 535 543 544 536
f 536 544 537 529
f 537 545 546 538
f 538 546 547 539
f 539 547 548 540
f 540 548 549 541
f 541 549 550 542
f 542 550 551 543
f 543 551 552 544
f 544 552 545 537
f 545 553 554 546
f 546 554 555 547
f 547 555 556 548
f 548 556 557 549
f 549 557 558 550
f 550 558 559 551
f 551 559 560 552
f 552 560 553 545
f 553 561 562 554
f 554 562 563 555
f 555 563 564 556
f 556 564 565 557
f 557 565 566 558
f 558 566 567 559
f 559 567 568 560
f 560 568 561 553
usemtl obs_aqua
f 569 575 576 570
f 570 576 577 571
f 571 577 578 572
f 572 578 579 573
f 573 579 580 574
f 574 580 575 569
f 575 581 582 576
f 576 582 583 577
f 577 583 584 578
f 578 584 585 579
f 579 585 586 580
f 580 586 581 575
f 581 587 588 582
f 582 588 589 583
f 583 589 590 584
f 584 590 591 585
f 585 591 592 586
f 586 592 587 581
f 587 593 594 588
f 588 594 595 589
f 589 595 596 590
f 590 596 597 591
f 591 597 598 592
f 592 598 593 587
f 593 599 600 594
f 594 600 601 595
f 595 601 602 596
f 596 602 603 597
f 597 603 604 598
f 598 604 599 593
f 599 605 606 600
f 600 606 607 601
f 601 607 608 602
f 602 608 609 603
f 603 609 610 604
f 604 610 605 599
f 605 611 612 606
f 606 612 613 607
f 607 613 614 608
f 608 614 615 609
f 609 615 616 610
f 610 616 611 605
f 611 617 618 612
f 612 618 619 613
f 613 619 620 614
f 614 620 621 615
f 615 621 622 616
f 616 622 617 611
f 617 623 624 618
f 618 624 625 619
f 619 625 626 620
f 620 626 627 621
f 621 627 628 622
f 622 628 623 617
f 623 629 630 624
f 624 630 631 625
f 625 631 632 626
f 626 632 633 627
f 627 633 634 628
f 628 634 629 623
f 629 635 636 630
f 630 636 637 631
f 631 637 638 632
f 632 638 639 633
f 633 639 640 634
f 634 640 635 629
f 635 641 642 636
f 636 642 643 637
f 637 643 644 638
f 638 644 645 639
f 639 645 646 640
f 640 646 641 635
f 641 647 648 642
f 642 648 649 643
f 643 649 650 644
f 644 650 651 645
f 645 651 652 646
f 646 652 647 641
f 647 653 654 648
f 648 654 655 649
f 649 655 656 650
f 650 656 657 651
f 651 657 658 652
f 652 658 653 647
f 653 659 660 654
f 654 660 661 655
f 655 661 662 656
f 656 662 663 657
f 657 663 664 658
f 658 664 659 653
f 659 665 666 660
f 660 666 667 661
f 661 667 668 662
f 662 668 669 663
f 663 669 670 664
f 664 670 665 659
f 665 671 672 666
f 666 672 673 667
f 667 673 674 668
f 668 674 675 669
f 669 675 676 670
f 670 676 671 665
f 671 677 678 672
f 672 678 679 673
f 673 679 680 674
f 674 680 681 675
f 675 681 682 676
f 676 682 677 671
f 677 683 684 678
f 678 684 685 679
f 679 685 686 680
f 680 686 687 681
f 681 687 688 682
f 682 688 683 677
f 683 689 690 684
f 684 690 691 685
f 685 691 692 686
f 686 692 693 687
f 687 693 694 688
f 688 694 689 683
f 689 695 696 690
f 690 696 697 691
f 691 697 698 692
f 692 698 699 693
f 693 699 700 694
f 694 700 695 689
f 695 701 702 696
f 696 702 703 697
f 697 703 704 698
f 698 704 705 699
f 699 705 706 700
f 700 706 701 695
f 701 707 708 702
f 702 708 709 703
f 703 709 710 704
f 704 710 711 705
f 705 711 712 706
f 706 712 707 701
f 707 713 714 708
f 708 714 715 709
f 709 715 716 710
f 710 716 717 711
f 711 717 718 712
f 712 718 713 707
f 713 719 720 714
f 714 720 721 715
f 715 721 722 716
f 716 722 723 717
f 717 723 724 718
f 718 724 719 713
f 719 725 726 720
f 720 726 727 721
f 721 727 728 722
f 722 728 729 723
f 723 729 730 724
f 724 730 725 719
f 725 731 732 726
f 726 732 733 727
f 727 733 734 728
f 728 734 735 729
f 729 735 736 730
f 730 736 731 725
f 731 737 738 732
f 732 738 739 733
f 733 739 740 734
f 734 740 741 735
f 735 741 742 736
f 736 742 737 731
usemtl obs_gold
f 743 744 754 753
f 744 745 755 754
f 745 746 756 755
f 746 747 757 756
f 747 748 758 757
f 748 749 759 758
f 749 750 760 759
f 750 751 761 760
f 751 752 762 761
f 752 743 753 762
usemtl obs_gold
f 763 753 754
f 763 754 755
f 763 755 756
f 763 756 757
f 763 757 758
f 763 758 759
f 763 759 760
f 763 760 761
f 763 761 762
f 763 762 753
usemtl obs_gold
f 764 744 743
f 764 745 744
f 764 746 745
f 764 747 746
f 764 748 747
f 764 749 748
f 764 750 749
f 764 751 750
f 764 752 751
f 764 743 752
