{
	"asset":{
		"generator":"Khronos glTF Blender I/O v4.4.56",
		"version":"2.0"
	},
	"extensionsUsed":[
		"KHR_materials_unlit"
	],
	"scene":0,
	"scenes":[
		{
			"name":"Scene",
			"nodes":[
				12
			]
		}
	],
	"nodes":[
		{
			"name":"Rock1",
			"translation":[
				3.9124717712402344,
				0,
				0
			]
		},
		{
			"mesh":0,
			"name":"Rock2_blinn3_0"
		},
		{
			"children":[
				1
			],
			"name":"Rock2",
			"translation":[
				-6.3961381912231445,
				0,
				0
			]
		},
		{
			"name":"Rock3",
			"translation":[
				-0.8426971435546875,
				0,
				3.0107274055480957
			]
		},
		{
			"name":"Rock4",
			"translation":[
				0.4416990280151367,
				0,
				3.0343356132507324
			]
		},
		{
			"name":"Rock5",
			"translation":[
				1.8541345596313477,
				0,
				3.0240635871887207
			]
		},
		{
			"name":"Rock6",
			"translation":[
				1.0819826126098633,
				0,
				0
			]
		},
		{
			"name":"Rock7",
			"translation":[
				-2.0399937629699707,
				0,
				0
			]
		},
		{
			"name":"Rock8",
			"translation":[
				3.8330154418945312,
				0,
				3.0385260581970215
			]
		},
		{
			"children":[
				0,
				2,
				3,
				4,
				5,
				6,
				7,
				8
			],
			"name":"ModelSet",
			"scale":[
				70,
				69.99999237060547,
				69.99999237060547
			],
			"translation":[
				609.1334838867188,
				59.4478759765625,
				-27.71357536315918
			]
		},
		{
			"children":[
				9
			],
			"name":"RootNode"
		},
		{
			"children":[
				10
			],
			"name":"Sketchfab_Stone.fbx",
			"rotation":[
				0.70710688829422,
				0,
				0,
				0.7071066498756409
			],
			"scale":[
				0.009999999776482582,
				0.010000000707805157,
				0.010000000707805157
			]
		},
		{
			"children":[
				11
			],
			"name":"Sketchfab_model",
			"rotation":[
				-0.70710688829422,
				0,
				0,
				0.7071066498756409
			]
		}
	],
	"materials":[
		{
			"doubleSided":true,
			"extensions":{
				"KHR_materials_unlit":{}
			},
			"name":"blinn3",
			"pbrMetallicRoughness":{
				"baseColorTexture":{
					"index":0
				},
				"metallicFactor":0,
				"roughnessFactor":0.9
			}
		}
	],
	"meshes":[
		{
			"name":"Rock2_blinn3_0",
			"primitives":[
				{
					"attributes":{
						"POSITION":0,
						"NORMAL":1,
						"TEXCOORD_0":2,
						"TEXCOORD_1":3
					},
					"indices":4,
					"material":0
				}
			]
		}
	],
	"textures":[
		{
			"sampler":0,
			"source":0
		}
	],
	"images":[
		{
			"mimeType":"image/png",
			"name":"blinn3_baseColor",
			"uri":"blinn3_baseColor.png"
		}
	],
	"accessors":[
		{
			"bufferView":0,
			"componentType":5126,
			"count":607,
			"max":[
				-6.127281188964844,
				1.79766845703125,
				1.417850375175476
			],
			"min":[
				-11.276532173156738,
				-0.8841639161109924,
				-0.6260338425636292
			],
			"type":"VEC3"
		},
		{
			"bufferView":1,
			"componentType":5126,
			"count":607,
			"type":"VEC3"
		},
		{
			"bufferView":2,
			"componentType":5126,
			"count":607,
			"type":"VEC2"
		},
		{
			"bufferView":3,
			"componentType":5126,
			"count":607,
			"type":"VEC2"
		},
		{
			"bufferView":4,
			"componentType":5123,
			"count":2472,
			"type":"SCALAR"
		}
	],
	"bufferViews":[
		{
			"buffer":0,
			"byteLength":7284,
			"byteOffset":0,
			"target":34962
		},
		{
			"buffer":0,
			"byteLength":7284,
			"byteOffset":7284,
			"target":34962
		},
		{
			"buffer":0,
			"byteLength":4856,
			"byteOffset":14568,
			"target":34962
		},
		{
			"buffer":0,
			"byteLength":4856,
			"byteOffset":19424,
			"target":34962
		},
		{
			"buffer":0,
			"byteLength":4944,
			"byteOffset":24280,
			"target":34963
		}
	],
	"samplers":[
		{
			"magFilter":9729,
			"minFilter":9987
		}
	],
	"buffers":[
		{
			"byteLength":29224,
			"uri":"rock4.bin"
		}
	]
}
