# Blender 4.4.1
# www.blender.org
mtllib enemy_core2.mtl
o enemy_core2
v -0.182148 -0.867278 0.000000
v 0.218132 -0.564856 -0.117365
v 0.232709 -0.471230 0.058176
v 0.165540 -0.486475 -0.266713
v 0.131878 -0.237855 0.055122
v -0.097650 -0.301403 -0.246005
v 0.176308 -0.322089 -0.022019
v 0.000025 -0.599821 0.298017
v -0.148810 -0.685731 -0.209497
v -0.090421 -0.658427 -0.237631
v -0.101914 -0.685731 -0.209497
v -0.132262 -0.720588 -0.186201
v -0.168015 -0.877513 0.000000
v -0.059231 -0.874422 0.083387
v -0.000638 -0.851270 0.098860
v -0.380182 -0.507807 -0.167771
v -0.288221 -0.477460 -0.237176
v -0.338684 -0.502958 -0.209497
v -0.093221 -0.340871 -0.298017
v -0.119568 -0.366105 -0.298017
v -0.454735 -0.516443 -0.092459
v -0.448371 -0.515886 -0.099104
v -0.179052 -0.423368 -0.298017
v -0.251590 -0.459018 -0.257242
v -0.086903 -0.649997 -0.246317
v -0.024651 -0.575507 -0.298017
v 0.097918 -0.503363 -0.298017
v 0.195502 -0.445946 0.283269
v 0.071332 -0.685731 0.209497
v 0.084390 -0.648534 0.247824
v 0.139327 -0.485335 -0.289347
v -0.482485 -0.540066 -0.043649
v -0.441837 -0.610270 -0.017045
v -0.428739 -0.632123 -0.008433
v -0.415994 -0.652377 0.000000
v -0.151184 -0.698659 0.194579
v -0.034929 -0.370642 0.298017
v -0.079041 -0.645459 0.250993
v -0.020393 -0.579702 0.298017
v -0.142699 -0.698604 0.200893
v -0.132027 -0.685731 0.209497
v -0.473395 -0.532308 -0.059656
v 0.078749 -0.451963 -0.298017
v 0.121685 -0.479944 -0.298017
v 0.182529 -0.419992 0.298017
v 0.175834 -0.404549 0.298017
v 0.124802 -0.287250 0.298017
v -0.101914 -0.685731 -0.209497
v -0.101914 -0.685731 -0.209497
v -0.132262 -0.720588 -0.186201
v -0.132262 -0.720588 -0.186201
v -0.090421 -0.658427 -0.237631
v -0.168015 -0.877513 0.000000
v -0.168015 -0.877513 0.000000
v -0.059231 -0.874422 0.083387
v -0.059231 -0.874422 0.083387
v -0.000638 -0.851270 0.098860
v -0.288221 -0.477460 -0.237176
v -0.338684 -0.502958 -0.209497
v -0.338684 -0.502958 -0.209497
v -0.380182 -0.507807 -0.167771
v -0.093221 -0.340871 -0.298017
v -0.119568 -0.366105 -0.298017
v -0.448371 -0.515886 -0.099104
v -0.448371 -0.515886 -0.099104
v -0.454735 -0.516443 -0.092459
v -0.179052 -0.423368 -0.298017
v -0.179052 -0.423368 -0.298017
v -0.251590 -0.459018 -0.257242
v -0.086903 -0.649997 -0.246317
v -0.086903 -0.649997 -0.246317
v -0.024651 -0.575507 -0.298017
v -0.024651 -0.575507 -0.298017
v 0.097918 -0.503363 -0.298017
v 0.097918 -0.503363 -0.298017
v 0.195502 -0.445946 0.283269
v 0.084390 -0.648534 0.247824
v 0.084390 -0.648534 0.247824
v 0.071332 -0.685731 0.209497
v 0.071332 -0.685731 0.209497
v 0.139327 -0.485335 -0.289347
v -0.034929 -0.370642 0.298017
v -0.020393 -0.579702 0.298017
v -0.020393 -0.579702 0.298017
v -0.482485 -0.540066 -0.043649
v -0.441837 -0.610270 -0.017045
v -0.441837 -0.610270 -0.017045
v -0.428739 -0.632123 -0.008433
v -0.428739 -0.632123 -0.008433
v -0.415994 -0.652377 0.000000
v -0.415994 -0.652377 0.000000
v -0.151184 -0.698659 0.194579
v -0.151184 -0.698659 0.194579
v -0.142699 -0.698604 0.200893
v -0.142699 -0.698604 0.200893
v -0.132027 -0.685731 0.209497
v -0.132027 -0.685731 0.209497
v -0.079041 -0.645459 0.250993
v -0.079041 -0.645459 0.250993
v -0.473395 -0.532308 -0.059656
v 0.124802 -0.287250 0.298017
v 0.078749 -0.451963 -0.298017
v 0.121685 -0.479944 -0.298017
v 0.121685 -0.479944 -0.298017
v 0.182529 -0.419992 0.298017
v 0.182529 -0.419992 0.298017
v 0.175834 -0.404549 0.298017
v -0.182148 -0.867278 0.000000
v -0.182148 -0.867278 0.000000
v -0.182148 -0.867278 0.000000
v 0.000025 -0.599821 0.298017
v 0.000025 -0.599821 0.298017
v 0.000025 -0.599821 0.298017
v -0.148810 -0.685731 -0.209497
v -0.148810 -0.685731 -0.209497
v -0.148810 -0.685731 -0.209497
v -0.148810 -0.685731 -0.209497
v -0.148810 -0.685731 -0.209497
vn -0.0000 -0.5557 0.8314
vn -0.5950 0.6124 -0.5205
vn -0.5913 0.6174 -0.5188
vn -0.5937 0.6167 -0.5170
vn -0.0000 -0.0000 1.0000
vn -0.0000 -0.7176 0.6964
vn 0.9481 0.2411 -0.2073
vn -0.5963 -0.0415 0.8017
vn 0.8450 -0.4977 0.1955
vn -0.4565 0.8746 0.1634
vn -0.4565 0.8744 0.1645
vn 0.4702 0.7215 -0.5082
vn 0.9467 0.2466 -0.2073
vn 0.9135 0.3959 0.0938
vn 0.9123 0.3955 0.1064
vn 0.9117 0.3966 0.1072
vn 0.4851 0.7158 -0.5022
vn -0.4591 -0.6339 0.6224
vn -0.5424 -0.5902 0.5978
vn -0.0000 -0.0000 -1.0000
vn -0.3308 -0.3357 0.8820
vn 0.4290 -0.7296 -0.5326
vn 0.3308 -0.3358 0.8819
vn -0.4591 -0.6339 -0.6224
vn -0.5424 -0.5902 -0.5978
vn -0.0000 -0.7176 -0.6964
vn -0.3255 -0.3339 -0.8846
vn -0.3308 -0.3357 -0.8820
vn -0.5748 -0.5592 -0.5974
vn -0.0000 -0.5557 -0.8314
vn -0.5486 -0.5699 -0.6118
vn 0.4671 0.7231 -0.5089
vn 0.3308 -0.3358 -0.8819
vn -0.3281 -0.3348 -0.8833
vn -0.3193 -0.3317 -0.8877
vn 0.4290 -0.7289 -0.5336
vn -0.5937 0.6167 -0.5169
vn -0.0000 0.0014 1.0000
vn -0.5964 -0.0415 0.8016
vn 0.8449 -0.4979 0.1954
vn 0.8447 -0.4982 0.1956
vn 0.8452 -0.4977 0.1950
vn -0.4566 0.8744 0.1645
vn 0.4289 -0.7297 -0.5326
vn 0.4289 -0.7297 -0.5325
vn 0.4292 -0.7296 -0.5324
vn 0.4293 -0.7294 -0.5326
vn 0.4672 0.7231 -0.5087
vn 0.4290 -0.7288 -0.5336
vt 0.000000 0.000000
vt 0.604348 0.000000
vt 0.564474 0.077975
vt 0.357524 0.000000
vt 0.509301 0.000000
vt 0.507814 0.507814
vt 1.000000 0.507814
vt 0.696162 0.640020
vt 0.357524 0.357524
vt 1.000000 0.000000
vt 1.000000 1.000000
vt 0.983476 0.188305
vt 0.643633 0.466281
vt 0.359783 0.359450
vt 0.777249 0.000000
vt 0.398258 0.254710
vt 1.000000 0.858921
vt 0.938023 0.938023
vt 0.943246 0.943246
vt 0.121266 0.121266
vt 0.981296 0.458199
vt 0.875640 0.875640
vt 0.896037 0.066769
vt 0.828990 0.000000
vt 0.829965 0.829965
vt 0.663383 0.000000
vt 0.709067 0.253618
vt 0.672270 0.135860
vt 0.875640 0.000000
vt 1.000000 0.490699
vt 0.942044 0.501821
vt 0.229005 0.011732
vt 0.159740 0.032300
vt 0.141079 0.000000
vt 0.878868 0.719231
vt 0.604348 0.604348
vt 0.121266 0.000000
vt 0.943246 0.000000
vt 0.974390 0.143388
vt 0.991066 0.230319
vt 0.685833 0.475789
vt 0.674151 0.481079
vt 0.521332 0.432417
vt 1.000000 0.336617
vt 0.228652 0.209709
vt 0.171010 0.000000
vt 1.000000 0.938023
vt 1.000000 0.277865
vt 0.829965 0.000000
vt 1.000000 0.222752
vt 0.477812 0.000000
vt 0.712814 0.070421
vt 0.851292 0.282183
vt 0.722135 0.000000
vt 1.000000 0.522188
vt 0.504301 0.287620
s 1
f 55/1/1 80/1/1 96/1/1
s 0
f 58/2/2 59/3/2 61/4/2
f 6/1/3 62/5/3 63/6/3
f 63/7/4 69/8/4 61/9/4
s 1
f 101/1/5 83/1/5 105/1/5
f 79/1/6 111/1/6 98/1/6
s 0
f 3/10/7 2/11/7 4/1/7
f 88/12/8 41/13/8 84/14/8
f 2/11/9 76/15/9 29/16/9
f 5/1/10 66/17/10 100/18/10
f 5/10/11 85/19/11 37/20/11
f 4/10/12 103/21/12 102/22/12
f 7/10/13 3/11/13 4/1/13
f 5/10/14 3/11/14 7/1/14
f 106/23/15 3/11/15 5/1/15
f 47/24/16 107/25/16 5/1/16
f 4/11/17 5/1/17 7/10/17
s 1
f 56/1/18 93/1/18 108/1/18
f 109/1/19 36/1/19 91/1/19
f 104/1/20 73/1/20 20/1/20
f 39/1/21 38/1/21 8/1/21
s 0
f 57/26/22 53/27/22 48/28/22
s 1
f 28/1/23 113/1/23 30/1/23
f 110/1/24 51/1/24 13/1/24
f 35/1/25 115/1/25 1/1/25
f 116/1/26 10/1/26 49/1/26
f 24/1/27 72/1/28 71/1/28
f 87/1/29 42/1/29 21/1/29
f 9/1/30 11/1/30 12/1/30
f 16/1/31 118/1/31 33/1/31
s 0
f 6/11/32 102/29/32 62/30/32
s 1
f 31/1/33 75/1/33 44/1/33
f 117/1/34 17/1/35 24/1/27
s 0
f 2/10/36 25/31/36 27/32/36
s 1
f 96/1/1 95/1/1 55/1/1
f 55/1/1 15/1/1 80/1/1
s 0
f 61/9/37 64/33/37 66/34/37
f 66/34/4 6/10/4 63/7/4
f 63/7/4 67/35/4 69/8/4
f 69/8/4 58/36/4 61/9/4
f 61/9/4 66/34/4 63/7/4
s 1
f 105/1/5 46/1/38 101/1/5
f 101/1/5 82/1/5 83/1/5
f 83/1/5 112/1/5 105/1/5
f 98/1/6 97/1/6 79/1/6
f 79/1/6 78/1/6 111/1/6
s 0
f 84/14/8 37/37/8 85/38/8
f 85/38/39 86/39/39 88/12/39
f 88/12/8 90/40/8 92/41/8
f 92/41/8 94/42/8 41/13/8
f 41/13/8 99/43/8 84/14/8
f 84/14/8 85/38/8 88/12/8
f 88/12/8 92/41/8 41/13/8
f 29/16/40 57/44/40 2/11/40
f 2/11/41 3/1/41 76/15/41
f 76/15/42 77/45/42 29/16/42
f 5/1/10 6/10/10 66/17/10
f 37/20/11 47/46/11 5/10/11
f 5/10/43 100/47/43 85/19/43
f 102/22/12 5/1/12 4/10/12
f 4/10/12 81/48/12 103/21/12
f 5/1/15 107/49/15 106/23/15
f 106/23/15 76/50/15 3/11/15
s 1
f 108/1/18 54/1/18 56/1/18
f 56/1/18 40/1/18 93/1/18
f 19/1/20 43/1/20 104/1/20
f 104/1/20 74/1/20 73/1/20
f 73/1/20 68/1/20 20/1/20
f 20/1/20 19/1/20 104/1/20
s 0
f 52/51/44 2/1/44 57/26/44
f 57/26/45 14/52/45 53/27/45
f 53/27/46 50/53/46 48/28/46
f 48/28/47 52/51/47 57/26/47
s 1
f 28/1/23 45/1/23 113/1/23
f 110/1/24 114/1/24 51/1/24
f 35/1/25 89/1/25 115/1/25
f 116/1/26 70/1/26 10/1/26
f 71/1/28 117/1/34 24/1/27
f 24/1/27 23/1/28 72/1/28
f 21/1/29 65/1/29 87/1/29
f 87/1/29 32/1/29 42/1/29
f 33/1/31 22/1/31 16/1/31
f 16/1/31 60/1/31 118/1/31
f 118/1/31 34/1/31 33/1/31
s 0
f 6/11/48 5/1/48 102/29/48
s 1
f 117/1/34 18/1/35 17/1/35
s 0
f 81/54/49 4/10/49 2/10/49
f 2/10/36 52/55/36 25/31/36
f 25/31/36 26/56/36 27/32/36
f 27/32/49 81/54/49 2/10/49
