mtllib portal_gate.mtl
v -1.725000 0.000000 -0.310000
v 1.725000 0.000000 -0.310000
v 1.725000 0.220000 -0.310000
v -1.725000 0.220000 -0.310000
v 1.725000 0.000000 0.310000
v -1.725000 0.000000 0.310000
v -1.725000 0.220000 0.310000
v 1.725000 0.220000 0.310000
v -1.725000 0.000000 0.310000
v -1.725000 0.000000 -0.310000
v -1.725000 0.220000 -0.310000
v -1.725000 0.220000 0.310000
v 1.725000 0.000000 -0.310000
v 1.725000 0.000000 0.310000
v 1.725000 0.220000 0.310000
v 1.725000 0.220000 -0.310000
v -1.725000 0.220000 -0.310000
v 1.725000 0.220000 -0.310000
v 1.725000 0.220000 0.310000
v -1.725000 0.220000 0.310000
v -1.725000 0.000000 0.310000
v 1.725000 0.000000 0.310000
v 1.725000 0.000000 -0.310000
v -1.725000 0.000000 -0.310000
v -1.660000 0.100000 -0.260000
v -1.240000 0.100000 -0.260000
v -1.240000 1.580000 -0.260000
v -1.660000 1.580000 -0.260000
v -1.240000 0.100000 0.260000
v -1.660000 0.100000 0.260000
v -1.660000 1.580000 0.260000
v -1.240000 1.580000 0.260000
v -1.660000 0.100000 0.260000
v -1.660000 0.100000 -0.260000
v -1.660000 1.580000 -0.260000
v -1.660000 1.580000 0.260000
v -1.240000 0.100000 -0.260000
v -1.240000 0.100000 0.260000
v -1.240000 1.580000 0.260000
v -1.240000 1.580000 -0.260000
v -1.660000 1.580000 -0.260000
v -1.240000 1.580000 -0.260000
v -1.240000 1.580000 0.260000
v -1.660000 1.580000 0.260000
v -1.660000 0.100000 0.260000
v -1.240000 0.100000 0.260000
v -1.240000 0.100000 -0.260000
v -1.660000 0.100000 -0.260000
v 1.240000 0.100000 -0.260000
v 1.660000 0.100000 -0.260000
v 1.660000 1.580000 -0.260000
v 1.240000 1.580000 -0.260000
v 1.660000 0.100000 0.260000
v 1.240000 0.100000 0.260000
v 1.240000 1.580000 0.260000
v 1.660000 1.580000 0.260000
v 1.240000 0.100000 0.260000
v 1.240000 0.100000 -0.260000
v 1.240000 1.580000 -0.260000
v 1.240000 1.580000 0.260000
v 1.660000 0.100000 -0.260000
v 1.660000 0.100000 0.260000
v 1.660000 1.580000 0.260000
v 1.660000 1.580000 -0.260000
v 1.240000 1.580000 -0.260000
v 1.660000 1.580000 -0.260000
v 1.660000 1.580000 0.260000
v 1.240000 1.580000 0.260000
v 1.240000 0.100000 0.260000
v 1.660000 0.100000 0.260000
v 1.660000 0.100000 -0.260000
v 1.240000 0.100000 -0.260000
v -1.770000 1.530000 -0.290000
v -1.130000 1.530000 -0.290000
v -1.130000 1.750000 -0.290000
v -1.770000 1.750000 -0.290000
v -1.130000 1.530000 0.290000
v -1.770000 1.530000 0.290000
v -1.770000 1.750000 0.290000
v -1.130000 1.750000 0.290000
v -1.770000 1.530000 0.290000
v -1.770000 1.530000 -0.290000
v -1.770000 1.750000 -0.290000
v -1.770000 1.750000 0.290000
v -1.130000 1.530000 -0.290000
v -1.130000 1.530000 0.290000
v -1.130000 1.750000 0.290000
v -1.130000 1.750000 -0.290000
v -1.770000 1.750000 -0.290000
v -1.130000 1.750000 -0.290000
v -1.130000 1.750000 0.290000
v -1.770000 1.750000 0.290000
v -1.770000 1.530000 0.290000
v -1.130000 1.530000 0.290000
v -1.130000 1.530000 -0.290000
v -1.770000 1.530000 -0.290000
v 1.130000 1.530000 -0.290000
v 1.770000 1.530000 -0.290000
v 1.770000 1.750000 -0.290000
v 1.130000 1.750000 -0.290000
v 1.770000 1.530000 0.290000
v 1.130000 1.530000 0.290000
v 1.130000 1.750000 0.290000
v 1.770000 1.750000 0.290000
v 1.130000 1.530000 0.290000
v 1.130000 1.530000 -0.290000
v 1.130000 1.750000 -0.290000
v 1.130000 1.750000 0.290000
v 1.770000 1.530000 -0.290000
v 1.770000 1.530000 0.290000
v 1.770000 1.750000 0.290000
v 1.770000 1.750000 -0.290000
v 1.130000 1.750000 -0.290000
v 1.770000 1.750000 -0.290000
v 1.770000 1.750000 0.290000
v 1.130000 1.750000 0.290000
v 1.130000 1.530000 0.290000
v 1.770000 1.530000 0.290000
v 1.770000 1.530000 -0.290000
v 1.130000 1.530000 -0.290000
v 1.467477 1.671365 -0.270000
v 1.332618 2.005151 -0.270000
v 1.017376 1.877785 -0.270000
v 1.152234 1.543999 -0.270000
v 1.332618 2.005151 0.270000
v 1.467477 1.671365 0.270000
v 1.152234 1.543999 0.270000
v 1.017376 1.877785 0.270000
v 1.467477 1.671365 0.270000
v 1.467477 1.671365 -0.270000
v 1.152234 1.543999 -0.270000
v 1.152234 1.543999 0.270000
v 1.332618 2.005151 -0.270000
v 1.332618 2.005151 0.270000
v 1.017376 1.877785 0.270000
v 1.017376 1.877785 -0.270000
v 1.152234 1.543999 -0.270000
v 1.017376 1.877785 -0.270000
v 1.017376 1.877785 0.270000
v 1.152234 1.543999 0.270000
v 1.467477 1.671365 0.270000
v 1.332618 2.005151 0.270000
v 1.332618 2.005151 -0.270000
v 1.467477 1.671365 -0.270000
v 1.364428 1.899838 -0.270000
v 1.168358 2.201759 -0.270000
v 0.883210 2.016582 -0.270000
v 1.079280 1.714661 -0.270000
v 1.168358 2.201759 0.270000
v 1.364428 1.899838 0.270000
v 1.079280 1.714661 0.270000
v 0.883210 2.016582 0.270000
v 1.364428 1.899838 0.270000
v 1.364428 1.899838 -0.270000
v 1.079280 1.714661 -0.270000
v 1.079280 1.714661 0.270000
v 1.168358 2.201759 -0.270000
v 1.168358 2.201759 0.270000
v 0.883210 2.016582 0.270000
v 0.883210 2.016582 -0.270000
v 1.079280 1.714661 -0.270000
v 0.883210 2.016582 -0.270000
v 0.883210 2.016582 0.270000
v 1.079280 1.714661 0.270000
v 1.364428 1.899838 0.270000
v 1.168358 2.201759 0.270000
v 1.168358 2.201759 -0.270000
v 1.364428 1.899838 -0.270000
v 1.211242 2.108842 -0.270000
v 0.961165 2.367804 -0.270000
v 0.716589 2.131620 -0.270000
v 0.966666 1.872658 -0.270000
v 0.961165 2.367804 0.270000
v 1.211242 2.108842 0.270000
v 0.966666 1.872658 0.270000
v 0.716589 2.131620 0.270000
v 1.211242 2.108842 0.270000
v 1.211242 2.108842 -0.270000
v 0.966666 1.872658 -0.270000
v 0.966666 1.872658 0.270000
v 0.961165 2.367804 -0.270000
v 0.961165 2.367804 0.270000
v 0.716589 2.131620 0.270000
v 0.716589 2.131620 -0.270000
v 0.966666 1.872658 -0.270000
v 0.716589 2.131620 -0.270000
v 0.716589 2.131620 0.270000
v 0.966666 1.872658 0.270000
v 1.211242 2.108842 0.270000
v 0.961165 2.367804 0.270000
v 0.961165 2.367804 -0.270000
v 1.211242 2.108842 -0.270000
v 1.013548 2.290696 -0.270000
v 0.718653 2.497184 -0.270000
v 0.523637 2.218672 -0.270000
v 0.818532 2.012185 -0.270000
v 0.718653 2.497184 0.270000
v 1.013548 2.290696 0.270000
v 0.818532 2.012185 0.270000
v 0.523637 2.218672 0.270000
v 1.013548 2.290696 0.270000
v 1.013548 2.290696 -0.270000
v 0.818532 2.012185 -0.270000
v 0.818532 2.012185 0.270000
v 0.718653 2.497184 -0.270000
v 0.718653 2.497184 0.270000
v 0.523637 2.218672 0.270000
v 0.523637 2.218672 -0.270000
v 0.818532 2.012185 -0.270000
v 0.523637 2.218672 -0.270000
v 0.523637 2.218672 0.270000
v 0.818532 2.012185 0.270000
v 1.013548 2.290696 0.270000
v 0.718653 2.497184 0.270000
v 0.718653 2.497184 -0.270000
v 1.013548 2.290696 -0.270000
v 0.778611 2.438719 -0.270000
v 0.449734 2.585144 -0.270000
v 0.311444 2.274539 -0.270000
v 0.640320 2.128114 -0.270000
v 0.449734 2.585144 0.270000
v 0.778611 2.438719 0.270000
v 0.640320 2.128114 0.270000
v 0.311444 2.274539 0.270000
v 0.778611 2.438719 0.270000
v 0.778611 2.438719 -0.270000
v 0.640320 2.128114 -0.270000
v 0.640320 2.128114 0.270000
v 0.449734 2.585144 -0.270000
v 0.449734 2.585144 0.270000
v 0.311444 2.274539 0.270000
v 0.311444 2.274539 -0.270000
v 0.640320 2.128114 -0.270000
v 0.311444 2.274539 -0.270000
v 0.311444 2.274539 0.270000
v 0.640320 2.128114 0.270000
v 0.778611 2.438719 0.270000
v 0.449734 2.585144 0.270000
v 0.449734 2.585144 -0.270000
v 0.778611 2.438719 -0.270000
v 0.515063 2.547471 -0.270000
v 0.164289 2.628454 -0.270000
v 0.087806 2.297168 -0.270000
v 0.438579 2.216186 -0.270000
v 0.164289 2.628454 0.270000
v 0.515063 2.547471 0.270000
v 0.438579 2.216186 0.270000
v 0.087806 2.297168 0.270000
v 0.515063 2.547471 0.270000
v 0.515063 2.547471 -0.270000
v 0.438579 2.216186 -0.270000
v 0.438579 2.216186 0.270000
v 0.164289 2.628454 -0.270000
v 0.164289 2.628454 0.270000
v 0.087806 2.297168 0.270000
v 0.087806 2.297168 -0.270000
v 0.438579 2.216186 -0.270000
v 0.087806 2.297168 -0.270000
v 0.087806 2.297168 0.270000
v 0.438579 2.216186 0.270000
v 0.515063 2.547471 0.270000
v 0.164289 2.628454 0.270000
v 0.164289 2.628454 -0.270000
v 0.515063 2.547471 -0.270000
v 0.232589 2.612957 -0.270000
v -0.127192 2.625520 -0.270000
v -0.139058 2.285728 -0.270000
v 0.220723 2.273164 -0.270000
v -0.127192 2.625520 0.270000
v 0.232589 2.612957 0.270000
v 0.220723 2.273164 0.270000
v -0.139058 2.285728 0.270000
v 0.232589 2.612957 0.270000
v 0.232589 2.612957 -0.270000
v 0.220723 2.273164 -0.270000
v 0.220723 2.273164 0.270000
v -0.127192 2.625520 -0.270000
v -0.127192 2.625520 0.270000
v -0.139058 2.285728 0.270000
v -0.139058 2.285728 -0.270000
v 0.220723 2.273164 -0.270000
v -0.139058 2.285728 -0.270000
v -0.139058 2.285728 0.270000
v 0.220723 2.273164 0.270000
v 0.232589 2.612957 0.270000
v -0.127192 2.625520 0.270000
v -0.127192 2.625520 -0.270000
v 0.232589 2.612957 -0.270000
v -0.058432 2.632769 -0.270000
v -0.414000 2.576452 -0.270000
v -0.360812 2.240638 -0.270000
v -0.005244 2.296955 -0.270000
v -0.414000 2.576452 0.270000
v -0.058432 2.632769 0.270000
v -0.005244 2.296955 0.270000
v -0.360812 2.240638 0.270000
v -0.058432 2.632769 0.270000
v -0.058432 2.632769 -0.270000
v -0.005244 2.296955 -0.270000
v -0.005244 2.296955 0.270000
v -0.414000 2.576452 -0.270000
v -0.414000 2.576452 0.270000
v -0.360812 2.240638 0.270000
v -0.360812 2.240638 -0.270000
v -0.005244 2.296955 -0.270000
v -0.360812 2.240638 -0.270000
v -0.360812 2.240638 0.270000
v -0.005244 2.296955 0.270000
v -0.058432 2.632769 0.270000
v -0.414000 2.576452 0.270000
v -0.414000 2.576452 -0.270000
v -0.058432 2.632769 -0.270000
v -0.347306 2.606179 -0.270000
v -0.685595 2.483052 -0.270000
v -0.569308 2.163557 -0.270000
v -0.231019 2.286684 -0.270000
v -0.685595 2.483052 0.270000
v -0.347306 2.606179 0.270000
v -0.231019 2.286684 0.270000
v -0.569308 2.163557 0.270000
v -0.347306 2.606179 0.270000
v -0.347306 2.606179 -0.270000
v -0.231019 2.286684 -0.270000
v -0.231019 2.286684 0.270000
v -0.685595 2.483052 -0.270000
v -0.685595 2.483052 0.270000
v -0.569308 2.163557 0.270000
v -0.569308 2.163557 -0.270000
v -0.231019 2.286684 -0.270000
v -0.569308 2.163557 -0.270000
v -0.569308 2.163557 0.270000
v -0.231019 2.286684 0.270000
v -0.347306 2.606179 0.270000
v -0.685595 2.483052 0.270000
v -0.685595 2.483052 -0.270000
v -0.347306 2.606179 -0.270000
v -0.623417 2.534166 -0.270000
v -0.931998 2.348752 -0.270000
v -0.756885 2.057315 -0.270000
v -0.448304 2.242729 -0.270000
v -0.931998 2.348752 0.270000
v -0.623417 2.534166 0.270000
v -0.448304 2.242729 0.270000
v -0.756885 2.057315 0.270000
v -0.623417 2.534166 0.270000
v -0.623417 2.534166 -0.270000
v -0.448304 2.242729 -0.270000
v -0.448304 2.242729 0.270000
v -0.931998 2.348752 -0.270000
v -0.931998 2.348752 0.270000
v -0.756885 2.057315 0.270000
v -0.756885 2.057315 -0.270000
v -0.448304 2.242729 -0.270000
v -0.756885 2.057315 -0.270000
v -0.756885 2.057315 0.270000
v -0.448304 2.242729 0.270000
v -0.623417 2.534166 0.270000
v -0.931998 2.348752 0.270000
v -0.931998 2.348752 -0.270000
v -0.623417 2.534166 -0.270000
v -0.876621 2.419375 -0.270000
v -1.144153 2.178488 -0.270000
v -0.916649 1.925818 -0.270000
v -0.649117 2.166705 -0.270000
v -1.144153 2.178488 0.270000
v -0.876621 2.419375 0.270000
v -0.649117 2.166705 0.270000
v -0.916649 1.925818 0.270000
v -0.876621 2.419375 0.270000
v -0.876621 2.419375 -0.270000
v -0.649117 2.166705 -0.270000
v -0.649117 2.166705 0.270000
v -1.144153 2.178488 -0.270000
v -1.144153 2.178488 0.270000
v -0.916649 1.925818 0.270000
v -0.916649 1.925818 -0.270000
v -0.649117 2.166705 -0.270000
v -0.916649 1.925818 -0.270000
v -0.916649 1.925818 0.270000
v -0.649117 2.166705 0.270000
v -0.876621 2.419375 0.270000
v -1.144153 2.178488 0.270000
v -1.144153 2.178488 -0.270000
v -0.876621 2.419375 -0.270000
v -1.097613 2.266023 -0.270000
v -1.314266 1.978514 -0.270000
v -1.042730 1.773897 -0.270000
v -0.826077 2.061406 -0.270000
v -1.314266 1.978514 0.270000
v -1.097613 2.266023 0.270000
v -0.826077 2.061406 0.270000
v -1.042730 1.773897 0.270000
v -1.097613 2.266023 0.270000
v -1.097613 2.266023 -0.270000
v -0.826077 2.061406 -0.270000
v -0.826077 2.061406 0.270000
v -1.314266 1.978514 -0.270000
v -1.314266 1.978514 0.270000
v -1.042730 1.773897 0.270000
v -1.042730 1.773897 -0.270000
v -0.826077 2.061406 -0.270000
v -1.042730 1.773897 -0.270000
v -1.042730 1.773897 0.270000
v -0.826077 2.061406 0.270000
v -1.097613 2.266023 0.270000
v -1.314266 1.978514 0.270000
v -1.314266 1.978514 -0.270000
v -1.097613 2.266023 -0.270000
v -1.278272 2.079747 -0.270000
v -1.436086 1.756181 -0.270000
v -1.130496 1.607135 -0.270000
v -0.972682 1.930701 -0.270000
v -1.436086 1.756181 0.270000
v -1.278272 2.079747 0.270000
v -0.972682 1.930701 0.270000
v -1.130496 1.607135 0.270000
v -1.278272 2.079747 0.270000
v -1.278272 2.079747 -0.270000
v -0.972682 1.930701 -0.270000
v -0.972682 1.930701 0.270000
v -1.436086 1.756181 -0.270000
v -1.436086 1.756181 0.270000
v -1.130496 1.607135 0.270000
v -1.130496 1.607135 -0.270000
v -0.972682 1.930701 -0.270000
v -1.130496 1.607135 -0.270000
v -1.130496 1.607135 0.270000
v -0.972682 1.930701 0.270000
v -1.278272 2.079747 0.270000
v -1.436086 1.756181 0.270000
v -1.436086 1.756181 -0.270000
v -1.278272 2.079747 -0.270000
v -1.575000 0.230000 -0.350000
v 1.575000 0.230000 -0.350000
v 1.575000 0.330000 -0.350000
v -1.575000 0.330000 -0.350000
v 1.575000 0.230000 -0.270000
v -1.575000 0.230000 -0.270000
v -1.575000 0.330000 -0.270000
v 1.575000 0.330000 -0.270000
v -1.575000 0.230000 -0.270000
v -1.575000 0.230000 -0.350000
v -1.575000 0.330000 -0.350000
v -1.575000 0.330000 -0.270000
v 1.575000 0.230000 -0.350000
v 1.575000 0.230000 -0.270000
v 1.575000 0.330000 -0.270000
v 1.575000 0.330000 -0.350000
v -1.575000 0.330000 -0.350000
v 1.575000 0.330000 -0.350000
v 1.575000 0.330000 -0.270000
v -1.575000 0.330000 -0.270000
v -1.575000 0.230000 -0.270000
v 1.575000 0.230000 -0.270000
v 1.575000 0.230000 -0.350000
v -1.575000 0.230000 -0.350000
v 1.315937 1.759791 -0.350000
v 1.156316 2.059993 -0.350000
v 1.085681 2.022436 -0.350000
v 1.245301 1.722233 -0.350000
v 1.156316 2.059993 -0.270000
v 1.315937 1.759791 -0.270000
v 1.245301 1.722233 -0.270000
v 1.085681 2.022436 -0.270000
v 1.315937 1.759791 -0.270000
v 1.315937 1.759791 -0.350000
v 1.245301 1.722233 -0.350000
v 1.245301 1.722233 -0.270000
v 1.156316 2.059993 -0.350000
v 1.156316 2.059993 -0.270000
v 1.085681 2.022436 -0.270000
v 1.085681 2.022436 -0.350000
v 1.245301 1.722233 -0.350000
v 1.085681 2.022436 -0.350000
v 1.085681 2.022436 -0.270000
v 1.245301 1.722233 -0.270000
v 1.315937 1.759791 -0.270000
v 1.156316 2.059993 -0.270000
v 1.156316 2.059993 -0.350000
v 1.315937 1.759791 -0.350000
v 1.168123 1.996167 -0.350000
v 0.945063 2.252769 -0.350000
v 0.884687 2.200284 -0.350000
v 1.107747 1.943683 -0.350000
v 0.945063 2.252769 -0.270000
v 1.168123 1.996167 -0.270000
v 1.107747 1.943683 -0.270000
v 0.884687 2.200284 -0.270000
v 1.168123 1.996167 -0.270000
v 1.168123 1.996167 -0.350000
v 1.107747 1.943683 -0.350000
v 1.107747 1.943683 -0.270000
v 0.945063 2.252769 -0.350000
v 0.945063 2.252769 -0.270000
v 0.884687 2.200284 -0.270000
v 0.884687 2.200284 -0.350000
v 1.107747 1.943683 -0.350000
v 0.884687 2.200284 -0.350000
v 0.884687 2.200284 -0.270000
v 1.107747 1.943683 -0.270000
v 1.168123 1.996167 -0.270000
v 0.945063 2.252769 -0.270000
v 0.945063 2.252769 -0.350000
v 1.168123 1.996167 -0.350000
v 0.960432 2.200446 -0.350000
v 0.685366 2.400293 -0.350000
v 0.638344 2.335572 -0.350000
v 0.913409 2.135725 -0.350000
v 0.685366 2.400293 -0.270000
v 0.960432 2.200446 -0.270000
v 0.913409 2.135725 -0.270000
v 0.638344 2.335572 -0.270000
v 0.960432 2.200446 -0.270000
v 0.960432 2.200446 -0.350000
v 0.913409 2.135725 -0.350000
v 0.913409 2.135725 -0.270000
v 0.685366 2.400293 -0.350000
v 0.685366 2.400293 -0.270000
v 0.638344 2.335572 -0.270000
v 0.638344 2.335572 -0.350000
v 0.913409 2.135725 -0.350000
v 0.638344 2.335572 -0.350000
v 0.638344 2.335572 -0.270000
v 0.913409 2.135725 -0.270000
v 0.960432 2.200446 -0.270000
v 0.685366 2.400293 -0.270000
v 0.685366 2.400293 -0.350000
v 0.960432 2.200446 -0.350000
v 0.703509 2.362156 -0.350000
v 0.390538 2.495005 -0.350000
v 0.359279 2.421364 -0.350000
v 0.672251 2.288516 -0.350000
v 0.390538 2.495005 -0.270000
v 0.703509 2.362156 -0.270000
v 0.672251 2.288516 -0.270000
v 0.359279 2.421364 -0.270000
v 0.703509 2.362156 -0.270000
v 0.703509 2.362156 -0.350000
v 0.672251 2.288516 -0.350000
v 0.672251 2.288516 -0.270000
v 0.390538 2.495005 -0.350000
v 0.390538 2.495005 -0.270000
v 0.359279 2.421364 -0.270000
v 0.359279 2.421364 -0.350000
v 0.672251 2.288516 -0.350000
v 0.359279 2.421364 -0.350000
v 0.359279 2.421364 -0.270000
v 0.672251 2.288516 -0.270000
v 0.703509 2.362156 -0.270000
v 0.390538 2.495005 -0.270000
v 0.390538 2.495005 -0.350000
v 0.703509 2.362156 -0.350000
v 0.410525 2.473009 -0.350000
v 0.075690 2.532049 -0.350000
v 0.061798 2.453264 -0.350000
v 0.396633 2.394224 -0.350000
v 0.075690 2.532049 -0.270000
v 0.410525 2.473009 -0.270000
v 0.396633 2.394224 -0.270000
v 0.061798 2.453264 -0.270000
v 0.410525 2.473009 -0.270000
v 0.410525 2.473009 -0.350000
v 0.396633 2.394224 -0.350000
v 0.396633 2.394224 -0.270000
v 0.075690 2.532049 -0.350000
v 0.075690 2.532049 -0.270000
v 0.061798 2.453264 -0.270000
v 0.061798 2.453264 -0.350000
v 0.396633 2.394224 -0.350000
v 0.061798 2.453264 -0.350000
v 0.061798 2.453264 -0.270000
v 0.396633 2.394224 -0.270000
v 0.410525 2.473009 -0.270000
v 0.075690 2.532049 -0.270000
v 0.075690 2.532049 -0.350000
v 0.410525 2.473009 -0.350000
v 0.096497 2.527321 -0.350000
v -0.243037 2.509527 -0.350000
v -0.238850 2.429636 -0.350000
v 0.100684 2.447431 -0.350000
v -0.243037 2.509527 -0.270000
v 0.096497 2.527321 -0.270000
v 0.100684 2.447431 -0.270000
v -0.238850 2.429636 -0.270000
v 0.096497 2.527321 -0.270000
v 0.096497 2.527321 -0.350000
v 0.100684 2.447431 -0.350000
v 0.100684 2.447431 -0.270000
v -0.243037 2.509527 -0.350000
v -0.243037 2.509527 -0.270000
v -0.238850 2.429636 -0.270000
v -0.238850 2.429636 -0.350000
v 0.100684 2.447431 -0.350000
v -0.238850 2.429636 -0.350000
v -0.238850 2.429636 -0.270000
v 0.100684 2.447431 -0.270000
v 0.096497 2.527321 -0.270000
v -0.243037 2.509527 -0.270000
v -0.243037 2.509527 -0.350000
v 0.096497 2.527321 -0.350000
v -0.222478 2.522309 -0.350000
v -0.549307 2.428593 -0.350000
v -0.527256 2.351692 -0.350000
v -0.200427 2.445408 -0.350000
v -0.549307 2.428593 -0.270000
v -0.222478 2.522309 -0.270000
v -0.200427 2.445408 -0.270000
v -0.527256 2.351692 -0.270000
v -0.222478 2.522309 -0.270000
v -0.222478 2.522309 -0.350000
v -0.200427 2.445408 -0.350000
v -0.200427 2.445408 -0.270000
v -0.549307 2.428593 -0.350000
v -0.549307 2.428593 -0.270000
v -0.527256 2.351692 -0.270000
v -0.527256 2.351692 -0.350000
v -0.200427 2.445408 -0.350000
v -0.527256 2.351692 -0.350000
v -0.527256 2.351692 -0.270000
v -0.200427 2.445408 -0.270000
v -0.222478 2.522309 -0.270000
v -0.549307 2.428593 -0.270000
v -0.549307 2.428593 -0.350000
v -0.222478 2.522309 -0.350000
v -0.530048 2.458230 -0.350000
v -0.827419 2.293395 -0.350000
v -0.788634 2.223425 -0.350000
v -0.491263 2.388261 -0.350000
v -0.827419 2.293395 -0.270000
v -0.530048 2.458230 -0.270000
v -0.491263 2.388261 -0.270000
v -0.788634 2.223425 -0.270000
v -0.530048 2.458230 -0.270000
v -0.530048 2.458230 -0.350000
v -0.491263 2.388261 -0.350000
v -0.491263 2.388261 -0.270000
v -0.827419 2.293395 -0.350000
v -0.827419 2.293395 -0.270000
v -0.788634 2.223425 -0.270000
v -0.788634 2.223425 -0.350000
v -0.491263 2.388261 -0.350000
v -0.788634 2.223425 -0.350000
v -0.788634 2.223425 -0.270000
v -0.491263 2.388261 -0.270000
v -0.530048 2.458230 -0.270000
v -0.827419 2.293395 -0.270000
v -0.827419 2.293395 -0.350000
v -0.530048 2.458230 -0.350000
v -0.810448 2.338369 -0.350000
v -1.063117 2.110864 -0.350000
v -1.009587 2.051413 -0.350000
v -0.756918 2.278917 -0.350000
v -1.063117 2.110864 -0.270000
v -0.810448 2.338369 -0.270000
v -0.756918 2.278917 -0.270000
v -1.009587 2.051413 -0.270000
v -0.810448 2.338369 -0.270000
v -0.810448 2.338369 -0.350000
v -0.756918 2.278917 -0.350000
v -0.756918 2.278917 -0.270000
v -1.063117 2.110864 -0.350000
v -1.063117 2.110864 -0.270000
v -1.009587 2.051413 -0.270000
v -1.009587 2.051413 -0.350000
v -0.756918 2.278917 -0.350000
v -1.009587 2.051413 -0.350000
v -1.009587 2.051413 -0.270000
v -0.756918 2.278917 -0.270000
v -0.810448 2.338369 -0.270000
v -1.063117 2.110864 -0.270000
v -1.063117 2.110864 -0.350000
v -0.810448 2.338369 -0.350000
v -1.049305 2.168869 -0.350000
v -1.244321 1.890357 -0.350000
v -1.178789 1.844471 -0.350000
v -0.983773 2.122983 -0.350000
v -1.244321 1.890357 -0.270000
v -1.049305 2.168869 -0.270000
v -0.983773 2.122983 -0.270000
v -1.178789 1.844471 -0.270000
v -1.049305 2.168869 -0.270000
v -1.049305 2.168869 -0.350000
v -0.983773 2.122983 -0.350000
v -0.983773 2.122983 -0.270000
v -1.244321 1.890357 -0.350000
v -1.244321 1.890357 -0.270000
v -1.178789 1.844471 -0.270000
v -1.178789 1.844471 -0.350000
v -0.983773 2.122983 -0.350000
v -1.178789 1.844471 -0.350000
v -1.178789 1.844471 -0.270000
v -0.983773 2.122983 -0.270000
v -1.049305 2.168869 -0.270000
v -1.244321 1.890357 -0.270000
v -1.244321 1.890357 -0.350000
v -1.049305 2.168869 -0.350000
v 0.000000 1.180000 -0.340000
v 0.980000 1.180000 -0.340000
v 0.977902 1.242133 -0.340000
v 0.971616 1.304000 -0.340000
v 0.961170 1.365336 -0.340000
v 0.946607 1.425878 -0.340000
v 0.927992 1.485367 -0.340000
v 0.905402 1.543549 -0.340000
v 0.878935 1.600174 -0.340000
v 0.848705 1.655000 -0.340000
v 0.814840 1.707792 -0.340000
v 0.777486 1.758323 -0.340000
v 0.736803 1.806379 -0.340000
v 0.692965 1.851751 -0.340000
v 0.646159 1.894248 -0.340000
v 0.596586 1.933686 -0.340000
v 0.544459 1.969896 -0.340000
v 0.490000 2.002724 -0.340000
v 0.433443 2.032029 -0.340000
v 0.375030 2.057686 -0.340000
v 0.315011 2.079584 -0.340000
v 0.253643 2.097630 -0.340000
v 0.191189 2.111746 -0.340000
v 0.127916 2.121873 -0.340000
v 0.064095 2.127966 -0.340000
v 0.000000 2.130000 -0.340000
v -0.064095 2.127966 -0.340000
v -0.127916 2.121873 -0.340000
v -0.191189 2.111746 -0.340000
v -0.253643 2.097630 -0.340000
v -0.315011 2.079584 -0.340000
v -0.375030 2.057686 -0.340000
v -0.433443 2.032029 -0.340000
v -0.490000 2.002724 -0.340000
v -0.544459 1.969896 -0.340000
v -0.596586 1.933686 -0.340000
v -0.646159 1.894248 -0.340000
v -0.692965 1.851751 -0.340000
v -0.736803 1.806379 -0.340000
v -0.777486 1.758323 -0.340000
v -0.814840 1.707792 -0.340000
v -0.848705 1.655000 -0.340000
v -0.878935 1.600174 -0.340000
v -0.905402 1.543549 -0.340000
v -0.927992 1.485367 -0.340000
v -0.946607 1.425878 -0.340000
v -0.961170 1.365336 -0.340000
v -0.971616 1.304000 -0.340000
v -0.977902 1.242133 -0.340000
v -0.980000 1.180000 -0.340000
v -0.977902 1.117867 -0.340000
v -0.971616 1.056000 -0.340000
v -0.961170 0.994664 -0.340000
v -0.946607 0.934122 -0.340000
v -0.927992 0.874633 -0.340000
v -0.905402 0.816451 -0.340000
v -0.878935 0.759826 -0.340000
v -0.848705 0.705000 -0.340000
v -0.814840 0.652208 -0.340000
v -0.777486 0.601677 -0.340000
v -0.736803 0.553621 -0.340000
v -0.692965 0.508249 -0.340000
v -0.646159 0.465752 -0.340000
v -0.596586 0.426314 -0.340000
v -0.544459 0.390104 -0.340000
v -0.490000 0.357276 -0.340000
v -0.433443 0.327971 -0.340000
v -0.375030 0.302314 -0.340000
v -0.315011 0.280416 -0.340000
v -0.253643 0.262370 -0.340000
v -0.191189 0.248254 -0.340000
v -0.127916 0.238127 -0.340000
v -0.064095 0.232034 -0.340000
v -0.000000 0.230000 -0.340000
v 0.064095 0.232034 -0.340000
v 0.127916 0.238127 -0.340000
v 0.191189 0.248254 -0.340000
v 0.253643 0.262370 -0.340000
v 0.315011 0.280416 -0.340000
v 0.375030 0.302314 -0.340000
v 0.433443 0.327971 -0.340000
v 0.490000 0.357276 -0.340000
v 0.544459 0.390104 -0.340000
v 0.596586 0.426314 -0.340000
v 0.646159 0.465752 -0.340000
v 0.692965 0.508249 -0.340000
v 0.736803 0.553621 -0.340000
v 0.777486 0.601677 -0.340000
v 0.814840 0.652208 -0.340000
v 0.848705 0.705000 -0.340000
v 0.878935 0.759826 -0.340000
v 0.905402 0.816451 -0.340000
v 0.927992 0.874633 -0.340000
v 0.946607 0.934122 -0.340000
v 0.961170 0.994664 -0.340000
v 0.971616 1.056000 -0.340000
v 0.977902 1.117867 -0.340000
v 0.980000 1.180000 -0.340000
vt 0.000000 0.000000
vt 1.000000 0.000000
vt 1.000000 1.000000
vt 0.000000 1.000000
vt 0.000000 0.000000
vt 1.000000 0.000000
vt 1.000000 1.000000
vt 0.000000 1.000000
vt 0.000000 0.000000
vt 1.000000 0.000000
vt 1.000000 1.000000
vt 0.000000 1.000000
vt 0.000000 0.000000
vt 1.000000 0.000000
vt 1.000000 1.000000
vt 0.000000 1.000000
vt 0.000000 0.000000
vt 1.000000 0.000000
vt 1.000000 1.000000
vt 0.000000 1.000000
vt 0.000000 0.000000
vt 1.000000 0.000000
vt 1.000000 1.000000
vt 0.000000 1.000000
vt 0.000000 0.000000
vt 1.000000 0.000000
vt 1.000000 1.000000
vt 0.000000 1.000000
vt 0.000000 0.000000
vt 1.000000 0.000000
vt 1.000000 1.000000
vt 0.000000 1.000000
vt 0.000000 0.000000
vt 1.000000 0.000000
vt 1.000000 1.000000
vt 0.000000 1.000000
vt 0.000000 0.000000
vt 1.000000 0.000000
vt 1.000000 1.000000
vt 0.000000 1.000000
vt 0.000000 0.000000
vt 1.000000 0.000000
vt 1.000000 1.000000
vt 0.000000 1.000000
vt 0.000000 0.000000
vt 1.000000 0.000000
vt 1.000000 1.000000
vt 0.000000 1.000000
vt 0.000000 0.000000
vt 1.000000 0.000000
vt 1.000000 1.000000
vt 0.000000 1.000000
vt 0.000000 0.000000
vt 1.000000 0.000000
vt 1.000000 1.000000
vt 0.000000 1.000000
vt 0.000000 0.000000
vt 1.000000 0.000000
vt 1.000000 1.000000
vt 0.000000 1.000000
vt 0.000000 0.000000
vt 1.000000 0.000000
vt 1.000000 1.000000
vt 0.000000 1.000000
vt 0.000000 0.000000
vt 1.000000 0.000000
vt 1.000000 1.000000
vt 0.000000 1.000000
vt 0.000000 0.000000
vt 1.000000 0.000000
vt 1.000000 1.000000
vt 0.000000 1.000000
vt 0.000000 0.000000
vt 1.000000 0.000000
vt 1.000000 1.000000
vt 0.000000 1.000000
vt 0.000000 0.000000
vt 1.000000 0.000000
vt 1.000000 1.000000
vt 0.000000 1.000000
vt 0.000000 0.000000
vt 1.000000 0.000000
vt 1.000000 1.000000
vt 0.000000 1.000000
vt 0.000000 0.000000
vt 1.000000 0.000000
vt 1.000000 1.000000
vt 0.000000 1.000000
vt 0.000000 0.000000
vt 1.000000 0.000000
vt 1.000000 1.000000
vt 0.000000 1.000000
vt 0.000000 0.000000
vt 1.000000 0.000000
vt 1.000000 1.000000
vt 0.000000 1.000000
vt 0.000000 0.000000
vt 1.000000 0.000000
vt 1.000000 1.000000
vt 0.000000 1.000000
vt 0.000000 0.000000
vt 1.000000 0.000000
vt 1.000000 1.000000
vt 0.000000 1.000000
vt 0.000000 0.000000
vt 1.000000 0.000000
vt 1.000000 1.000000
vt 0.000000 1.000000
vt 0.000000 0.000000
vt 1.000000 0.000000
vt 1.000000 1.000000
vt 0.000000 1.000000
vt 0.000000 0.000000
vt 1.000000 0.000000
vt 1.000000 1.000000
vt 0.000000 1.000000
vt 0.000000 0.000000
vt 1.000000 0.000000
vt 1.000000 1.000000
vt 0.000000 1.000000
vt 0.000000 0.000000
vt 1.000000 0.000000
vt 1.000000 1.000000
vt 0.000000 1.000000
vt 0.000000 0.000000
vt 1.000000 0.000000
vt 1.000000 1.000000
vt 0.000000 1.000000
vt 0.000000 0.000000
vt 1.000000 0.000000
vt 1.000000 1.000000
vt 0.000000 1.000000
vt 0.000000 0.000000
vt 1.000000 0.000000
vt 1.000000 1.000000
vt 0.000000 1.000000
vt 0.000000 0.000000
vt 1.000000 0.000000
vt 1.000000 1.000000
vt 0.000000 1.000000
vt 0.000000 0.000000
vt 1.000000 0.000000
vt 1.000000 1.000000
vt 0.000000 1.000000
vt 0.000000 0.000000
vt 1.000000 0.000000
vt 1.000000 1.000000
vt 0.000000 1.000000
vt 0.000000 0.000000
vt 1.000000 0.000000
vt 1.000000 1.000000
vt 0.000000 1.000000
vt 0.000000 0.000000
vt 1.000000 0.000000
vt 1.000000 1.000000
vt 0.000000 1.000000
vt 0.000000 0.000000
vt 1.000000 0.000000
vt 1.000000 1.000000
vt 0.000000 1.000000
vt 0.000000 0.000000
vt 1.000000 0.000000
vt 1.000000 1.000000
vt 0.000000 1.000000
vt 0.000000 0.000000
vt 1.000000 0.000000
vt 1.000000 1.000000
vt 0.000000 1.000000
vt 0.000000 0.000000
vt 1.000000 0.000000
vt 1.000000 1.000000
vt 0.000000 1.000000
vt 0.000000 0.000000
vt 1.000000 0.000000
vt 1.000000 1.000000
vt 0.000000 1.000000
vt 0.000000 0.000000
vt 1.000000 0.000000
vt 1.000000 1.000000
vt 0.000000 1.000000
vt 0.000000 0.000000
vt 1.000000 0.000000
vt 1.000000 1.000000
vt 0.000000 1.000000
vt 0.000000 0.000000
vt 1.000000 0.000000
vt 1.000000 1.000000
vt 0.000000 1.000000
vt 0.000000 0.000000
vt 1.000000 0.000000
vt 1.000000 1.000000
vt 0.000000 1.000000
vt 0.000000 0.000000
vt 1.000000 0.000000
vt 1.000000 1.000000
vt 0.000000 1.000000
vt 0.000000 0.000000
vt 1.000000 0.000000
vt 1.000000 1.000000
vt 0.000000 1.000000
vt 0.000000 0.000000
vt 1.000000 0.000000
vt 1.000000 1.000000
vt 0.000000 1.000000
vt 0.000000 0.000000
vt 1.000000 0.000000
vt 1.000000 1.000000
vt 0.000000 1.000000
vt 0.000000 0.000000
vt 1.000000 0.000000
vt 1.000000 1.000000
vt 0.000000 1.000000
vt 0.000000 0.000000
vt 1.000000 0.000000
vt 1.000000 1.000000
vt 0.000000 1.000000
vt 0.000000 0.000000
vt 1.000000 0.000000
vt 1.000000 1.000000
vt 0.000000 1.000000
vt 0.000000 0.000000
vt 1.000000 0.000000
vt 1.000000 1.000000
vt 0.000000 1.000000
vt 0.000000 0.000000
vt 1.000000 0.000000
vt 1.000000 1.000000
vt 0.000000 1.000000
vt 0.000000 0.000000
vt 1.000000 0.000000
vt 1.000000 1.000000
vt 0.000000 1.000000
vt 0.000000 0.000000
vt 1.000000 0.000000
vt 1.000000 1.000000
vt 0.000000 1.000000
vt 0.000000 0.000000
vt 1.000000 0.000000
vt 1.000000 1.000000
vt 0.000000 1.000000
vt 0.000000 0.000000
vt 1.000000 0.000000
vt 1.000000 1.000000
vt 0.000000 1.000000
vt 0.000000 0.000000
vt 1.000000 0.000000
vt 1.000000 1.000000
vt 0.000000 1.000000
vt 0.000000 0.000000
vt 1.000000 0.000000
vt 1.000000 1.000000
vt 0.000000 1.000000
vt 0.000000 0.000000
vt 1.000000 0.000000
vt 1.000000 1.000000
vt 0.000000 1.000000
vt 0.000000 0.000000
vt 1.000000 0.000000
vt 1.000000 1.000000
vt 0.000000 1.000000
vt 0.000000 0.000000
vt 1.000000 0.000000
vt 1.000000 1.000000
vt 0.000000 1.000000
vt 0.000000 0.000000
vt 1.000000 0.000000
vt 1.000000 1.000000
vt 0.000000 1.000000
vt 0.000000 0.000000
vt 1.000000 0.000000
vt 1.000000 1.000000
vt 0.000000 1.000000
vt 0.000000 0.000000
vt 1.000000 0.000000
vt 1.000000 1.000000
vt 0.000000 1.000000
vt 0.000000 0.000000
vt 1.000000 0.000000
vt 1.000000 1.000000
vt 0.000000 1.000000
vt 0.000000 0.000000
vt 1.000000 0.000000
vt 1.000000 1.000000
vt 0.000000 1.000000
vt 0.000000 0.000000
vt 1.000000 0.000000
vt 1.000000 1.000000
vt 0.000000 1.000000
vt 0.000000 0.000000
vt 1.000000 0.000000
vt 1.000000 1.000000
vt 0.000000 1.000000
vt 0.000000 0.000000
vt 1.000000 0.000000
vt 1.000000 1.000000
vt 0.000000 1.000000
vt 0.000000 0.000000
vt 1.000000 0.000000
vt 1.000000 1.000000
vt 0.000000 1.000000
vt 0.000000 0.000000
vt 1.000000 0.000000
vt 1.000000 1.000000
vt 0.000000 1.000000
vt 0.000000 0.000000
vt 1.000000 0.000000
vt 1.000000 1.000000
vt 0.000000 1.000000
vt 0.000000 0.000000
vt 1.000000 0.000000
vt 1.000000 1.000000
vt 0.000000 1.000000
vt 0.000000 0.000000
vt 1.000000 0.000000
vt 1.000000 1.000000
vt 0.000000 1.000000
vt 0.000000 0.000000
vt 1.000000 0.000000
vt 1.000000 1.000000
vt 0.000000 1.000000
vt 0.000000 0.000000
vt 1.000000 0.000000
vt 1.000000 1.000000
vt 0.000000 1.000000
vt 0.000000 0.000000
vt 1.000000 0.000000
vt 1.000000 1.000000
vt 0.000000 1.000000
vt 0.000000 0.000000
vt 1.000000 0.000000
vt 1.000000 1.000000
vt 0.000000 1.000000
vt 0.000000 0.000000
vt 1.000000 0.000000
vt 1.000000 1.000000
vt 0.000000 1.000000
vt 0.000000 0.000000
vt 1.000000 0.000000
vt 1.000000 1.000000
vt 0.000000 1.000000
vt 0.000000 0.000000
vt 1.000000 0.000000
vt 1.000000 1.000000
vt 0.000000 1.000000
vt 0.000000 0.000000
vt 1.000000 0.000000
vt 1.000000 1.000000
vt 0.000000 1.000000
vt 0.000000 0.000000
vt 1.000000 0.000000
vt 1.000000 1.000000
vt 0.000000 1.000000
vt 0.000000 0.000000
vt 1.000000 0.000000
vt 1.000000 1.000000
vt 0.000000 1.000000
vt 0.000000 0.000000
vt 1.000000 0.000000
vt 1.000000 1.000000
vt 0.000000 1.000000
vt 0.000000 0.000000
vt 1.000000 0.000000
vt 1.000000 1.000000
vt 0.000000 1.000000
vt 0.000000 0.000000
vt 1.000000 0.000000
vt 1.000000 1.000000
vt 0.000000 1.000000
vt 0.000000 0.000000
vt 1.000000 0.000000
vt 1.000000 1.000000
vt 0.000000 1.000000
vt 0.000000 0.000000
vt 1.000000 0.000000
vt 1.000000 1.000000
vt 0.000000 1.000000
vt 0.000000 0.000000
vt 1.000000 0.000000
vt 1.000000 1.000000
vt 0.000000 1.000000
vt 0.000000 0.000000
vt 1.000000 0.000000
vt 1.000000 1.000000
vt 0.000000 1.000000
vt 0.000000 0.000000
vt 1.000000 0.000000
vt 1.000000 1.000000
vt 0.000000 1.000000
vt 0.000000 0.000000
vt 1.000000 0.000000
vt 1.000000 1.000000
vt 0.000000 1.000000
vt 0.000000 0.000000
vt 1.000000 0.000000
vt 1.000000 1.000000
vt 0.000000 1.000000
vt 0.000000 0.000000
vt 1.000000 0.000000
vt 1.000000 1.000000
vt 0.000000 1.000000
vt 0.000000 0.000000
vt 1.000000 0.000000
vt 1.000000 1.000000
vt 0.000000 1.000000
vt 0.000000 0.000000
vt 1.000000 0.000000
vt 1.000000 1.000000
vt 0.000000 1.000000
vt 0.000000 0.000000
vt 1.000000 0.000000
vt 1.000000 1.000000
vt 0.000000 1.000000
vt 0.000000 0.000000
vt 1.000000 0.000000
vt 1.000000 1.000000
vt 0.000000 1.000000
vt 0.000000 0.000000
vt 1.000000 0.000000
vt 1.000000 1.000000
vt 0.000000 1.000000
vt 0.000000 0.000000
vt 1.000000 0.000000
vt 1.000000 1.000000
vt 0.000000 1.000000
vt 0.000000 0.000000
vt 1.000000 0.000000
vt 1.000000 1.000000
vt 0.000000 1.000000
vt 0.000000 0.000000
vt 1.000000 0.000000
vt 1.000000 1.000000
vt 0.000000 1.000000
vt 0.000000 0.000000
vt 1.000000 0.000000
vt 1.000000 1.000000
vt 0.000000 1.000000
vt 0.000000 0.000000
vt 1.000000 0.000000
vt 1.000000 1.000000
vt 0.000000 1.000000
vt 0.000000 0.000000
vt 1.000000 0.000000
vt 1.000000 1.000000
vt 0.000000 1.000000
vt 0.000000 0.000000
vt 1.000000 0.000000
vt 1.000000 1.000000
vt 0.000000 1.000000
vt 0.000000 0.000000
vt 1.000000 0.000000
vt 1.000000 1.000000
vt 0.000000 1.000000
vt 0.000000 0.000000
vt 1.000000 0.000000
vt 1.000000 1.000000
vt 0.000000 1.000000
vt 0.000000 0.000000
vt 1.000000 0.000000
vt 1.000000 1.000000
vt 0.000000 1.000000
vt 0.000000 0.000000
vt 1.000000 0.000000
vt 1.000000 1.000000
vt 0.000000 1.000000
vt 0.000000 0.000000
vt 1.000000 0.000000
vt 1.000000 1.000000
vt 0.000000 1.000000
vt 0.000000 0.000000
vt 1.000000 0.000000
vt 1.000000 1.000000
vt 0.000000 1.000000
vt 0.000000 0.000000
vt 1.000000 0.000000
vt 1.000000 1.000000
vt 0.000000 1.000000
vt 0.000000 0.000000
vt 1.000000 0.000000
vt 1.000000 1.000000
vt 0.000000 1.000000
vt 0.000000 0.000000
vt 1.000000 0.000000
vt 1.000000 1.000000
vt 0.000000 1.000000
vt 0.000000 0.000000
vt 1.000000 0.000000
vt 1.000000 1.000000
vt 0.000000 1.000000
vt 0.000000 0.000000
vt 1.000000 0.000000
vt 1.000000 1.000000
vt 0.000000 1.000000
vt 0.000000 0.000000
vt 1.000000 0.000000
vt 1.000000 1.000000
vt 0.000000 1.000000
vt 0.000000 0.000000
vt 1.000000 0.000000
vt 1.000000 1.000000
vt 0.000000 1.000000
vt 0.000000 0.000000
vt 1.000000 0.000000
vt 1.000000 1.000000
vt 0.000000 1.000000
vt 0.000000 0.000000
vt 1.000000 0.000000
vt 1.000000 1.000000
vt 0.000000 1.000000
vt 0.000000 0.000000
vt 1.000000 0.000000
vt 1.000000 1.000000
vt 0.000000 1.000000
vt 0.000000 0.000000
vt 1.000000 0.000000
vt 1.000000 1.000000
vt 0.000000 1.000000
vt 0.000000 0.000000
vt 1.000000 0.000000
vt 1.000000 1.000000
vt 0.000000 1.000000
vt 0.000000 0.000000
vt 1.000000 0.000000
vt 1.000000 1.000000
vt 0.000000 1.000000
vt 0.000000 0.000000
vt 1.000000 0.000000
vt 1.000000 1.000000
vt 0.000000 1.000000
vt 0.000000 0.000000
vt 1.000000 0.000000
vt 1.000000 1.000000
vt 0.000000 1.000000
vt 0.000000 0.000000
vt 1.000000 0.000000
vt 1.000000 1.000000
vt 0.000000 1.000000
vt 0.000000 0.000000
vt 1.000000 0.000000
vt 1.000000 1.000000
vt 0.000000 1.000000
vt 0.000000 0.000000
vt 1.000000 0.000000
vt 1.000000 1.000000
vt 0.000000 1.000000
vt 0.000000 0.000000
vt 1.000000 0.000000
vt 1.000000 1.000000
vt 0.000000 1.000000
vt 0.000000 0.000000
vt 1.000000 0.000000
vt 1.000000 1.000000
vt 0.000000 1.000000
vt 0.000000 0.000000
vt 1.000000 0.000000
vt 1.000000 1.000000
vt 0.000000 1.000000
vt 0.000000 0.000000
vt 1.000000 0.000000
vt 1.000000 1.000000
vt 0.000000 1.000000
vt 0.000000 0.000000
vt 1.000000 0.000000
vt 1.000000 1.000000
vt 0.000000 1.000000
vt 0.000000 0.000000
vt 1.000000 0.000000
vt 1.000000 1.000000
vt 0.000000 1.000000
vt 0.000000 0.000000
vt 1.000000 0.000000
vt 1.000000 1.000000
vt 0.000000 1.000000
vt 0.000000 0.000000
vt 1.000000 0.000000
vt 1.000000 1.000000
vt 0.000000 1.000000
vt 0.000000 0.000000
vt 1.000000 0.000000
vt 1.000000 1.000000
vt 0.000000 1.000000
vt 0.000000 0.000000
vt 1.000000 0.000000
vt 1.000000 1.000000
vt 0.000000 1.000000
vt 0.000000 0.000000
vt 1.000000 0.000000
vt 1.000000 1.000000
vt 0.000000 1.000000
vt 0.000000 0.000000
vt 1.000000 0.000000
vt 1.000000 1.000000
vt 0.000000 1.000000
vt 0.000000 0.000000
vt 1.000000 0.000000
vt 1.000000 1.000000
vt 0.000000 1.000000
vt 0.000000 0.000000
vt 1.000000 0.000000
vt 1.000000 1.000000
vt 0.000000 1.000000
vt 0.000000 0.000000
vt 1.000000 0.000000
vt 1.000000 1.000000
vt 0.000000 1.000000
vt 0.000000 0.000000
vt 1.000000 0.000000
vt 1.000000 1.000000
vt 0.000000 1.000000
vt 0.000000 0.000000
vt 1.000000 0.000000
vt 1.000000 1.000000
vt 0.000000 1.000000
vt 0.000000 0.000000
vt 1.000000 0.000000
vt 1.000000 1.000000
vt 0.000000 1.000000
vt 0.000000 0.000000
vt 1.000000 0.000000
vt 1.000000 1.000000
vt 0.000000 1.000000
vt 0.000000 0.000000
vt 1.000000 0.000000
vt 1.000000 1.000000
vt 0.000000 1.000000
vt 0.000000 0.000000
vt 1.000000 0.000000
vt 1.000000 1.000000
vt 0.000000 1.000000
vt 0.000000 0.000000
vt 1.000000 0.000000
vt 1.000000 1.000000
vt 0.000000 1.000000
vt 0.000000 0.000000
vt 1.000000 0.000000
vt 1.000000 1.000000
vt 0.000000 1.000000
vt 0.000000 0.000000
vt 1.000000 0.000000
vt 1.000000 1.000000
vt 0.000000 1.000000
vt 0.000000 0.000000
vt 1.000000 0.000000
vt 1.000000 1.000000
vt 0.000000 1.000000
vt 0.000000 0.000000
vt 1.000000 0.000000
vt 1.000000 1.000000
vt 0.000000 1.000000
vt 0.000000 0.000000
vt 1.000000 0.000000
vt 1.000000 1.000000
vt 0.000000 1.000000
vt 0.000000 0.000000
vt 1.000000 0.000000
vt 1.000000 1.000000
vt 0.000000 1.000000
vt 0.000000 0.000000
vt 1.000000 0.000000
vt 1.000000 1.000000
vt 0.000000 1.000000
vt 0.000000 0.000000
vt 1.000000 0.000000
vt 1.000000 1.000000
vt 0.000000 1.000000
vt 0.000000 0.000000
vt 1.000000 0.000000
vt 1.000000 1.000000
vt 0.000000 1.000000
vt 0.000000 0.000000
vt 1.000000 0.000000
vt 1.000000 1.000000
vt 0.000000 1.000000
vt 0.000000 0.000000
vt 1.000000 0.000000
vt 1.000000 1.000000
vt 0.000000 1.000000
vt 0.000000 0.000000
vt 1.000000 0.000000
vt 1.000000 1.000000
vt 0.000000 1.000000
vt 0.000000 0.000000
vt 1.000000 0.000000
vt 1.000000 1.000000
vt 0.000000 1.000000
vt 0.000000 0.000000
vt 1.000000 0.000000
vt 1.000000 1.000000
vt 0.000000 1.000000
vt 0.000000 0.000000
vt 1.000000 0.000000
vt 1.000000 1.000000
vt 0.000000 1.000000
vt 0.000000 0.000000
vt 1.000000 0.000000
vt 1.000000 1.000000
vt 0.000000 1.000000
vt 0.500000 0.500000
vt 1.000000 0.500000
vt 0.998929 0.467298
vt 0.995722 0.434737
vt 0.990393 0.402455
vt 0.982963 0.370590
vt 0.973465 0.339280
vt 0.961940 0.308658
vt 0.948436 0.278856
vt 0.933013 0.250000
vt 0.915735 0.222215
vt 0.896677 0.195619
vt 0.875920 0.170327
vt 0.853553 0.146447
vt 0.829673 0.124080
vt 0.804381 0.103323
vt 0.777785 0.084265
vt 0.750000 0.066987
vt 0.721144 0.051564
vt 0.691342 0.038060
vt 0.660720 0.026535
vt 0.629410 0.017037
vt 0.597545 0.009607
vt 0.565263 0.004278
vt 0.532702 0.001071
vt 0.500000 0.000000
vt 0.467298 0.001071
vt 0.434737 0.004278
vt 0.402455 0.009607
vt 0.370590 0.017037
vt 0.339280 0.026535
vt 0.308658 0.038060
vt 0.278856 0.051564
vt 0.250000 0.066987
vt 0.222215 0.084265
vt 0.195619 0.103323
vt 0.170327 0.124080
vt 0.146447 0.146447
vt 0.124080 0.170327
vt 0.103323 0.195619
vt 0.084265 0.222215
vt 0.066987 0.250000
vt 0.051564 0.278856
vt 0.038060 0.308658
vt 0.026535 0.339280
vt 0.017037 0.370590
vt 0.009607 0.402455
vt 0.004278 0.434737
vt 0.001071 0.467298
vt 0.000000 0.500000
vt 0.001071 0.532702
vt 0.004278 0.565263
vt 0.009607 0.597545
vt 0.017037 0.629410
vt 0.026535 0.660720
vt 0.038060 0.691342
vt 0.051564 0.721144
vt 0.066987 0.750000
vt 0.084265 0.777785
vt 0.103323 0.804381
vt 0.124080 0.829673
vt 0.146447 0.853553
vt 0.170327 0.875920
vt 0.195619 0.896677
vt 0.222215 0.915735
vt 0.250000 0.933013
vt 0.278856 0.948436
vt 0.308658 0.961940
vt 0.339280 0.973465
vt 0.370590 0.982963
vt 0.402455 0.990393
vt 0.434737 0.995722
vt 0.467298 0.998929
vt 0.500000 1.000000
vt 0.532702 0.998929
vt 0.565263 0.995722
vt 0.597545 0.990393
vt 0.629410 0.982963
vt 0.660720 0.973465
vt 0.691342 0.961940
vt 0.721144 0.948436
vt 0.750000 0.933013
vt 0.777785 0.915735
vt 0.804381 0.896677
vt 0.829673 0.875920
vt 0.853553 0.853553
vt 0.875920 0.829673
vt 0.896677 0.804381
vt 0.915735 0.777785
vt 0.933013 0.750000
vt 0.948436 0.721144
vt 0.961940 0.691342
vt 0.973465 0.660720
vt 0.982963 0.629410
vt 0.990393 0.597545
vt 0.995722 0.565263
vt 0.998929 0.532702
vt 1.000000 0.500000
vn 0.000000 0.000000 1.000000
vn 0.000000 0.000000 -1.000000
vn 1.000000 -0.000000 0.000000
vn -1.000000 0.000000 0.000000
vn 0.000000 -1.000000 0.000000
vn -0.000000 1.000000 0.000000
vn 0.000000 0.000000 1.000000
vn 0.000000 0.000000 -1.000000
vn 1.000000 -0.000000 0.000000
vn -1.000000 0.000000 0.000000
vn 0.000000 -1.000000 0.000000
vn -0.000000 1.000000 0.000000
vn 0.000000 0.000000 1.000000
vn 0.000000 0.000000 -1.000000
vn 1.000000 -0.000000 0.000000
vn -1.000000 0.000000 0.000000
vn 0.000000 -1.000000 0.000000
vn -0.000000 1.000000 0.000000
vn 0.000000 0.000000 1.000000
vn 0.000000 0.000000 -1.000000
vn 1.000000 -0.000000 0.000000
vn -1.000000 0.000000 0.000000
vn 0.000000 -1.000000 0.000000
vn -0.000000 1.000000 0.000000
vn 0.000000 0.000000 1.000000
vn 0.000000 0.000000 -1.000000
vn 1.000000 -0.000000 0.000000
vn -1.000000 0.000000 0.000000
vn 0.000000 -1.000000 0.000000
vn -0.000000 1.000000 0.000000
vn 0.000000 0.000000 1.000000
vn 0.000000 -0.000000 -1.000000
vn -0.374607 0.927184 0.000000
vn 0.374607 -0.927184 0.000000
vn 0.927184 0.374607 -0.000000
vn -0.927184 -0.374607 -0.000000
vn 0.000000 0.000000 1.000000
vn 0.000000 -0.000000 -1.000000
vn -0.544639 0.838671 0.000000
vn 0.544639 -0.838671 0.000000
vn 0.838671 0.544639 -0.000000
vn -0.838671 -0.544639 -0.000000
vn 0.000000 0.000000 1.000000
vn 0.000000 -0.000000 -1.000000
vn -0.694658 0.719340 0.000000
vn 0.694658 -0.719340 0.000000
vn 0.719340 0.694658 -0.000000
vn -0.719340 -0.694658 -0.000000
vn 0.000000 0.000000 1.000000
vn 0.000000 -0.000000 -1.000000
vn -0.819152 0.573576 0.000000
vn 0.819152 -0.573576 0.000000
vn 0.573576 0.819152 -0.000000
vn -0.573576 -0.819152 -0.000000
vn 0.000000 0.000000 1.000000
vn 0.000000 -0.000000 -1.000000
vn -0.913545 0.406737 0.000000
vn 0.913545 -0.406737 0.000000
vn 0.406737 0.913545 -0.000000
vn -0.406737 -0.913545 -0.000000
vn 0.000000 0.000000 1.000000
vn 0.000000 -0.000000 -1.000000
vn -0.974370 0.224951 0.000000
vn 0.974370 -0.224951 0.000000
vn 0.224951 0.974370 -0.000000
vn -0.224951 -0.974370 -0.000000
vn 0.000000 0.000000 1.000000
vn 0.000000 -0.000000 -1.000000
vn -0.999391 0.034899 0.000000
vn 0.999391 -0.034899 0.000000
vn 0.034899 0.999391 -0.000000
vn -0.034899 -0.999391 -0.000000
vn 0.000000 0.000000 1.000000
vn 0.000000 0.000000 -1.000000
vn -0.987688 -0.156434 -0.000000
vn 0.987688 0.156434 -0.000000
vn -0.156434 0.987688 0.000000
vn 0.156434 -0.987688 0.000000
vn 0.000000 0.000000 1.000000
vn 0.000000 0.000000 -1.000000
vn -0.939693 -0.342020 -0.000000
vn 0.939693 0.342020 -0.000000
vn -0.342020 0.939693 0.000000
vn 0.342020 -0.939693 0.000000
vn 0.000000 0.000000 1.000000
vn 0.000000 0.000000 -1.000000
vn -0.857167 -0.515038 -0.000000
vn 0.857167 0.515038 -0.000000
vn -0.515038 0.857167 0.000000
vn 0.515038 -0.857167 0.000000
vn 0.000000 0.000000 1.000000
vn 0.000000 0.000000 -1.000000
vn -0.743145 -0.669131 -0.000000
vn 0.743145 0.669131 -0.000000
vn -0.669131 0.743145 0.000000
vn 0.669131 -0.743145 0.000000
vn 0.000000 0.000000 1.000000
vn 0.000000 0.000000 -1.000000
vn -0.601815 -0.798636 -0.000000
vn 0.601815 0.798636 -0.000000
vn -0.798636 0.601815 0.000000
vn 0.798636 -0.601815 0.000000
vn 0.000000 0.000000 1.000000
vn 0.000000 0.000000 -1.000000
vn -0.438371 -0.898794 -0.000000
vn 0.438371 0.898794 -0.000000
vn -0.898794 0.438371 0.000000
vn 0.898794 -0.438371 0.000000
vn 0.000000 0.000000 1.000000
vn 0.000000 0.000000 -1.000000
vn 1.000000 -0.000000 0.000000
vn -1.000000 0.000000 0.000000
vn 0.000000 -1.000000 0.000000
vn -0.000000 1.000000 0.000000
vn 0.000000 0.000000 1.000000
vn 0.000000 -0.000000 -1.000000
vn -0.469472 0.882948 0.000000
vn 0.469472 -0.882948 0.000000
vn 0.882948 0.469472 -0.000000
vn -0.882948 -0.469472 -0.000000
vn 0.000000 0.000000 1.000000
vn 0.000000 -0.000000 -1.000000
vn -0.656059 0.754710 0.000000
vn 0.656059 -0.754710 0.000000
vn 0.754710 0.656059 -0.000000
vn -0.754710 -0.656059 -0.000000
vn 0.000000 0.000000 1.000000
vn 0.000000 -0.000000 -1.000000
vn -0.809017 0.587785 0.000000
vn 0.809017 -0.587785 0.000000
vn 0.587785 0.809017 -0.000000
vn -0.587785 -0.809017 -0.000000
vn 0.000000 0.000000 1.000000
vn 0.000000 -0.000000 -1.000000
vn -0.920505 0.390731 0.000000
vn 0.920505 -0.390731 0.000000
vn 0.390731 0.920505 -0.000000
vn -0.390731 -0.920505 -0.000000
vn 0.000000 0.000000 1.000000
vn 0.000000 -0.000000 -1.000000
vn -0.984808 0.173648 0.000000
vn 0.984808 -0.173648 0.000000
vn 0.173648 0.984808 -0.000000
vn -0.173648 -0.984808 -0.000000
vn 0.000000 0.000000 1.000000
vn 0.000000 0.000000 -1.000000
vn -0.998630 -0.052336 -0.000000
vn 0.998630 0.052336 -0.000000
vn -0.052336 0.998630 0.000000
vn 0.052336 -0.998630 0.000000
vn 0.000000 0.000000 1.000000
vn 0.000000 0.000000 -1.000000
vn -0.961262 -0.275637 -0.000000
vn 0.961262 0.275637 -0.000000
vn -0.275637 0.961262 0.000000
vn 0.275637 -0.961262 0.000000
vn 0.000000 0.000000 1.000000
vn 0.000000 0.000000 -1.000000
vn -0.874620 -0.484810 -0.000000
vn 0.874620 0.484810 -0.000000
vn -0.484810 0.874620 0.000000
vn 0.484810 -0.874620 0.000000
vn 0.000000 0.000000 1.000000
vn 0.000000 0.000000 -1.000000
vn -0.743145 -0.669131 -0.000000
vn 0.743145 0.669131 -0.000000
vn -0.669131 0.743145 0.000000
vn 0.669131 -0.743145 0.000000
vn 0.000000 0.000000 1.000000
vn 0.000000 0.000000 -1.000000
vn -0.573576 -0.819152 -0.000000
vn 0.573576 0.819152 -0.000000
vn -0.819152 0.573576 0.000000
vn 0.819152 -0.573576 0.000000
vn 0.000000 0.000000 -1.000000
usemtl stone
f 1/1/1 2/2/1 3/3/1 4/4/1
f 5/5/2 6/6/2 7/7/2 8/8/2
f 9/9/3 10/10/3 11/11/3 12/12/3
f 13/13/4 14/14/4 15/15/4 16/16/4
f 17/17/5 18/18/5 19/19/5 20/20/5
f 21/21/6 22/22/6 23/23/6 24/24/6
f 25/25/7 26/26/7 27/27/7 28/28/7
f 29/29/8 30/30/8 31/31/8 32/32/8
f 33/33/9 34/34/9 35/35/9 36/36/9
f 37/37/10 38/38/10 39/39/10 40/40/10
f 41/41/11 42/42/11 43/43/11 44/44/11
f 45/45/12 46/46/12 47/47/12 48/48/12
f 49/49/13 50/50/13 51/51/13 52/52/13
f 53/53/14 54/54/14 55/55/14 56/56/14
f 57/57/15 58/58/15 59/59/15 60/60/15
f 61/61/16 62/62/16 63/63/16 64/64/16
f 65/65/17 66/66/17 67/67/17 68/68/17
f 69/69/18 70/70/18 71/71/18 72/72/18
f 73/73/19 74/74/19 75/75/19 76/76/19
f 77/77/20 78/78/20 79/79/20 80/80/20
f 81/81/21 82/82/21 83/83/21 84/84/21
f 85/85/22 86/86/22 87/87/22 88/88/22
f 89/89/23 90/90/23 91/91/23 92/92/23
f 93/93/24 94/94/24 95/95/24 96/96/24
f 97/97/25 98/98/25 99/99/25 100/100/25
f 101/101/26 102/102/26 103/103/26 104/104/26
f 105/105/27 106/106/27 107/107/27 108/108/27
f 109/109/28 110/110/28 111/111/28 112/112/28
f 113/113/29 114/114/29 115/115/29 116/116/29
f 117/117/30 118/118/30 119/119/30 120/120/30
f 121/121/31 122/122/31 123/123/31 124/124/31
f 125/125/32 126/126/32 127/127/32 128/128/32
f 129/129/33 130/130/33 131/131/33 132/132/33
f 133/133/34 134/134/34 135/135/34 136/136/34
f 137/137/35 138/138/35 139/139/35 140/140/35
f 141/141/36 142/142/36 143/143/36 144/144/36
f 145/145/37 146/146/37 147/147/37 148/148/37
f 149/149/38 150/150/38 151/151/38 152/152/38
f 153/153/39 154/154/39 155/155/39 156/156/39
f 157/157/40 158/158/40 159/159/40 160/160/40
f 161/161/41 162/162/41 163/163/41 164/164/41
f 165/165/42 166/166/42 167/167/42 168/168/42
f 169/169/43 170/170/43 171/171/43 172/172/43
f 173/173/44 174/174/44 175/175/44 176/176/44
f 177/177/45 178/178/45 179/179/45 180/180/45
f 181/181/46 182/182/46 183/183/46 184/184/46
f 185/185/47 186/186/47 187/187/47 188/188/47
f 189/189/48 190/190/48 191/191/48 192/192/48
f 193/193/49 194/194/49 195/195/49 196/196/49
f 197/197/50 198/198/50 199/199/50 200/200/50
f 201/201/51 202/202/51 203/203/51 204/204/51
f 205/205/52 206/206/52 207/207/52 208/208/52
f 209/209/53 210/210/53 211/211/53 212/212/53
f 213/213/54 214/214/54 215/215/54 216/216/54
f 217/217/55 218/218/55 219/219/55 220/220/55
f 221/221/56 222/222/56 223/223/56 224/224/56
f 225/225/57 226/226/57 227/227/57 228/228/57
f 229/229/58 230/230/58 231/231/58 232/232/58
f 233/233/59 234/234/59 235/235/59 236/236/59
f 237/237/60 238/238/60 239/239/60 240/240/60
f 241/241/61 242/242/61 243/243/61 244/244/61
f 245/245/62 246/246/62 247/247/62 248/248/62
f 249/249/63 250/250/63 251/251/63 252/252/63
f 253/253/64 254/254/64 255/255/64 256/256/64
f 257/257/65 258/258/65 259/259/65 260/260/65
f 261/261/66 262/262/66 263/263/66 264/264/66
f 265/265/67 266/266/67 267/267/67 268/268/67
f 269/269/68 270/270/68 271/271/68 272/272/68
f 273/273/69 274/274/69 275/275/69 276/276/69
f 277/277/70 278/278/70 279/279/70 280/280/70
f 281/281/71 282/282/71 283/283/71 284/284/71
f 285/285/72 286/286/72 287/287/72 288/288/72
f 289/289/73 290/290/73 291/291/73 292/292/73
f 293/293/74 294/294/74 295/295/74 296/296/74
f 297/297/75 298/298/75 299/299/75 300/300/75
f 301/301/76 302/302/76 303/303/76 304/304/76
f 305/305/77 306/306/77 307/307/77 308/308/77
f 309/309/78 310/310/78 311/311/78 312/312/78
f 313/313/79 314/314/79 315/315/79 316/316/79
f 317/317/80 318/318/80 319/319/80 320/320/80
f 321/321/81 322/322/81 323/323/81 324/324/81
f 325/325/82 326/326/82 327/327/82 328/328/82
f 329/329/83 330/330/83 331/331/83 332/332/83
f 333/333/84 334/334/84 335/335/84 336/336/84
f 337/337/85 338/338/85 339/339/85 340/340/85
f 341/341/86 342/342/86 343/343/86 344/344/86
f 345/345/87 346/346/87 347/347/87 348/348/87
f 349/349/88 350/350/88 351/351/88 352/352/88
f 353/353/89 354/354/89 355/355/89 356/356/89
f 357/357/90 358/358/90 359/359/90 360/360/90
f 361/361/91 362/362/91 363/363/91 364/364/91
f 365/365/92 366/366/92 367/367/92 368/368/92
f 369/369/93 370/370/93 371/371/93 372/372/93
f 373/373/94 374/374/94 375/375/94 376/376/94
f 377/377/95 378/378/95 379/379/95 380/380/95
f 381/381/96 382/382/96 383/383/96 384/384/96
f 385/385/97 386/386/97 387/387/97 388/388/97
f 389/389/98 390/390/98 391/391/98 392/392/98
f 393/393/99 394/394/99 395/395/99 396/396/99
f 397/397/100 398/398/100 399/399/100 400/400/100
f 401/401/101 402/402/101 403/403/101 404/404/101
f 405/405/102 406/406/102 407/407/102 408/408/102
f 409/409/103 410/410/103 411/411/103 412/412/103
f 413/413/104 414/414/104 415/415/104 416/416/104
f 417/417/105 418/418/105 419/419/105 420/420/105
f 421/421/106 422/422/106 423/423/106 424/424/106
f 425/425/107 426/426/107 427/427/107 428/428/107
f 429/429/108 430/430/108 431/431/108 432/432/108
usemtl gold
f 433/433/109 434/434/109 435/435/109 436/436/109
f 437/437/110 438/438/110 439/439/110 440/440/110
f 441/441/111 442/442/111 443/443/111 444/444/111
f 445/445/112 446/446/112 447/447/112 448/448/112
f 449/449/113 450/450/113 451/451/113 452/452/113
f 453/453/114 454/454/114 455/455/114 456/456/114
f 457/457/115 458/458/115 459/459/115 460/460/115
f 461/461/116 462/462/116 463/463/116 464/464/116
f 465/465/117 466/466/117 467/467/117 468/468/117
f 469/469/118 470/470/118 471/471/118 472/472/118
f 473/473/119 474/474/119 475/475/119 476/476/119
f 477/477/120 478/478/120 479/479/120 480/480/120
f 481/481/121 482/482/121 483/483/121 484/484/121
f 485/485/122 486/486/122 487/487/122 488/488/122
f 489/489/123 490/490/123 491/491/123 492/492/123
f 493/493/124 494/494/124 495/495/124 496/496/124
f 497/497/125 498/498/125 499/499/125 500/500/125
f 501/501/126 502/502/126 503/503/126 504/504/126
f 505/505/127 506/506/127 507/507/127 508/508/127
f 509/509/128 510/510/128 511/511/128 512/512/128
f 513/513/129 514/514/129 515/515/129 516/516/129
f 517/517/130 518/518/130 519/519/130 520/520/130
f 521/521/131 522/522/131 523/523/131 524/524/131
f 525/525/132 526/526/132 527/527/132 528/528/132
f 529/529/133 530/530/133 531/531/133 532/532/133
f 533/533/134 534/534/134 535/535/134 536/536/134
f 537/537/135 538/538/135 539/539/135 540/540/135
f 541/541/136 542/542/136 543/543/136 544/544/136
f 545/545/137 546/546/137 547/547/137 548/548/137
f 549/549/138 550/550/138 551/551/138 552/552/138
f 553/553/139 554/554/139 555/555/139 556/556/139
f 557/557/140 558/558/140 559/559/140 560/560/140
f 561/561/141 562/562/141 563/563/141 564/564/141
f 565/565/142 566/566/142 567/567/142 568/568/142
f 569/569/143 570/570/143 571/571/143 572/572/143
f 573/573/144 574/574/144 575/575/144 576/576/144
f 577/577/145 578/578/145 579/579/145 580/580/145
f 581/581/146 582/582/146 583/583/146 584/584/146
f 585/585/147 586/586/147 587/587/147 588/588/147
f 589/589/148 590/590/148 591/591/148 592/592/148
f 593/593/149 594/594/149 595/595/149 596/596/149
f 597/597/150 598/598/150 599/599/150 600/600/150
f 601/601/151 602/602/151 603/603/151 604/604/151
f 605/605/152 606/606/152 607/607/152 608/608/152
f 609/609/153 610/610/153 611/611/153 612/612/153
f 613/613/154 614/614/154 615/615/154 616/616/154
f 617/617/155 618/618/155 619/619/155 620/620/155
f 621/621/156 622/622/156 623/623/156 624/624/156
f 625/625/157 626/626/157 627/627/157 628/628/157
f 629/629/158 630/630/158 631/631/158 632/632/158
f 633/633/159 634/634/159 635/635/159 636/636/159
f 637/637/160 638/638/160 639/639/160 640/640/160
f 641/641/161 642/642/161 643/643/161 644/644/161
f 645/645/162 646/646/162 647/647/162 648/648/162
f 649/649/163 650/650/163 651/651/163 652/652/163
f 653/653/164 654/654/164 655/655/164 656/656/164
f 657/657/165 658/658/165 659/659/165 660/660/165
f 661/661/166 662/662/166 663/663/166 664/664/166
f 665/665/167 666/666/167 667/667/167 668/668/167
f 669/669/168 670/670/168 671/671/168 672/672/168
f 673/673/169 674/674/169 675/675/169 676/676/169
f 677/677/170 678/678/170 679/679/170 680/680/170
f 681/681/171 682/682/171 683/683/171 684/684/171
f 685/685/172 686/686/172 687/687/172 688/688/172
f 689/689/173 690/690/173 691/691/173 692/692/173
f 693/693/174 694/694/174 695/695/174 696/696/174
usemtl portal
f 697/697/175 698/698/175 699/699/175
f 697/697/175 699/699/175 700/700/175
f 697/697/175 700/700/175 701/701/175
f 697/697/175 701/701/175 702/702/175
f 697/697/175 702/702/175 703/703/175
f 697/697/175 703/703/175 704/704/175
f 697/697/175 704/704/175 705/705/175
f 697/697/175 705/705/175 706/706/175
f 697/697/175 706/706/175 707/707/175
f 697/697/175 707/707/175 708/708/175
f 697/697/175 708/708/175 709/709/175
f 697/697/175 709/709/175 710/710/175
f 697/697/175 710/710/175 711/711/175
f 697/697/175 711/711/175 712/712/175
f 697/697/175 712/712/175 713/713/175
f 697/697/175 713/713/175 714/714/175
f 697/697/175 714/714/175 715/715/175
f 697/697/175 715/715/175 716/716/175
f 697/697/175 716/716/175 717/717/175
f 697/697/175 717/717/175 718/718/175
f 697/697/175 718/718/175 719/719/175
f 697/697/175 719/719/175 720/720/175
f 697/697/175 720/720/175 721/721/175
f 697/697/175 721/721/175 722/722/175
f 697/697/175 722/722/175 723/723/175
f 697/697/175 723/723/175 724/724/175
f 697/697/175 724/724/175 725/725/175
f 697/697/175 725/725/175 726/726/175
f 697/697/175 726/726/175 727/727/175
f 697/697/175 727/727/175 728/728/175
f 697/697/175 728/728/175 729/729/175
f 697/697/175 729/729/175 730/730/175
f 697/697/175 730/730/175 731/731/175
f 697/697/175 731/731/175 732/732/175
f 697/697/175 732/732/175 733/733/175
f 697/697/175 733/733/175 734/734/175
f 697/697/175 734/734/175 735/735/175
f 697/697/175 735/735/175 736/736/175
f 697/697/175 736/736/175 737/737/175
f 697/697/175 737/737/175 738/738/175
f 697/697/175 738/738/175 739/739/175
f 697/697/175 739/739/175 740/740/175
f 697/697/175 740/740/175 741/741/175
f 697/697/175 741/741/175 742/742/175
f 697/697/175 742/742/175 743/743/175
f 697/697/175 743/743/175 744/744/175
f 697/697/175 744/744/175 745/745/175
f 697/697/175 745/745/175 746/746/175
f 697/697/175 746/746/175 747/747/175
f 697/697/175 747/747/175 748/748/175
f 697/697/175 748/748/175 749/749/175
f 697/697/175 749/749/175 750/750/175
f 697/697/175 750/750/175 751/751/175
f 697/697/175 751/751/175 752/752/175
f 697/697/175 752/752/175 753/753/175
f 697/697/175 753/753/175 754/754/175
f 697/697/175 754/754/175 755/755/175
f 697/697/175 755/755/175 756/756/175
f 697/697/175 756/756/175 757/757/175
f 697/697/175 757/757/175 758/758/175
f 697/697/175 758/758/175 759/759/175
f 697/697/175 759/759/175 760/760/175
f 697/697/175 760/760/175 761/761/175
f 697/697/175 761/761/175 762/762/175
f 697/697/175 762/762/175 763/763/175
f 697/697/175 763/763/175 764/764/175
f 697/697/175 764/764/175 765/765/175
f 697/697/175 765/765/175 766/766/175
f 697/697/175 766/766/175 767/767/175
f 697/697/175 767/767/175 768/768/175
f 697/697/175 768/768/175 769/769/175
f 697/697/175 769/769/175 770/770/175
f 697/697/175 770/770/175 771/771/175
f 697/697/175 771/771/175 772/772/175
f 697/697/175 772/772/175 773/773/175
f 697/697/175 773/773/175 774/774/175
f 697/697/175 774/774/175 775/775/175
f 697/697/175 775/775/175 776/776/175
f 697/697/175 776/776/175 777/777/175
f 697/697/175 777/777/175 778/778/175
f 697/697/175 778/778/175 779/779/175
f 697/697/175 779/779/175 780/780/175
f 697/697/175 780/780/175 781/781/175
f 697/697/175 781/781/175 782/782/175
f 697/697/175 782/782/175 783/783/175
f 697/697/175 783/783/175 784/784/175
f 697/697/175 784/784/175 785/785/175
f 697/697/175 785/785/175 786/786/175
f 697/697/175 786/786/175 787/787/175
f 697/697/175 787/787/175 788/788/175
f 697/697/175 788/788/175 789/789/175
f 697/697/175 789/789/175 790/790/175
f 697/697/175 790/790/175 791/791/175
f 697/697/175 791/791/175 792/792/175
f 697/697/175 792/792/175 793/793/175
f 697/697/175 793/793/175 794/794/175
