# Blender 4.4.1
# www.blender.org
mtllib enemy_core16.mtl
o enemy_core16
v 0.640356 0.210577 0.079580
v 0.688619 0.910359 0.000000
v 0.915238 0.770274 0.000000
v 1.095711 0.419223 0.000000
v 0.598475 0.707643 -0.209497
v 0.866346 0.331467 -0.209497
v 0.439191 0.910674 -0.060222
v 0.574783 0.920603 0.018136
v 0.545345 0.947914 0.000000
v 0.411115 0.896828 -0.076050
v 0.736597 0.734953 0.118147
v 0.658752 0.843195 0.069411
v 0.856425 0.276179 0.202697
v 0.866969 0.337061 0.206826
v 0.867627 0.328293 0.207493
v 0.862033 0.275025 0.197483
v 0.891529 0.269054 0.170091
v 1.052539 0.229515 0.000000
v 0.928370 0.177747 -0.112443
v 0.896304 0.165863 -0.137086
v 0.601199 0.650861 -0.231469
v 0.571023 0.702487 -0.217856
v 0.721752 0.414443 -0.259320
v 0.815935 0.136567 -0.198987
v 0.777803 0.271386 -0.243078
v 0.811131 0.159179 -0.209497
v 0.574783 0.920603 0.018136
v 0.545345 0.947914 0.000000
v 0.545345 0.947914 0.000000
v 0.439191 0.910674 -0.060222
v 0.439191 0.910674 -0.060222
v 0.658752 0.843195 0.069411
v 0.658752 0.843195 0.069411
v 1.095711 0.419223 0.000000
v 1.095711 0.419223 0.000000
v 1.095711 0.419223 0.000000
v 0.867627 0.328293 0.207493
v 0.867627 0.328293 0.207493
v 0.867627 0.328293 0.207493
v 0.736597 0.734953 0.118147
v 0.736597 0.734953 0.118147
v 0.856425 0.276179 0.202697
v 0.866969 0.337061 0.206826
v 0.866969 0.337061 0.206826
v 0.862033 0.275025 0.197483
v 0.928370 0.177747 -0.112443
v 0.928370 0.177747 -0.112443
v 0.896304 0.165863 -0.137086
v 1.052539 0.229515 0.000000
v 1.052539 0.229515 0.000000
v 0.891529 0.269054 0.170091
v 0.891529 0.269054 0.170091
v 0.601199 0.650861 -0.231469
v 0.601199 0.650861 -0.231469
v 0.571023 0.702487 -0.217856
v 0.571023 0.702487 -0.217856
v 0.721752 0.414443 -0.259320
v 0.721752 0.414443 -0.259320
v 0.411115 0.896828 -0.076050
v 0.815935 0.136567 -0.198987
v 0.811131 0.159179 -0.209497
v 0.811131 0.159179 -0.209497
v 0.777803 0.271386 -0.243078
v 0.777803 0.271386 -0.243078
v 0.688619 0.910359 0.000000
v 0.688619 0.910359 0.000000
v 0.688619 0.910359 0.000000
v 0.915238 0.770274 0.000000
v 0.915238 0.770274 0.000000
v 0.915238 0.770274 0.000000
v 0.915238 0.770274 0.000000
v 0.915238 0.770274 0.000000
v 0.598475 0.707643 -0.209497
v 0.598475 0.707643 -0.209497
v 0.598475 0.707643 -0.209497
v 0.598475 0.707643 -0.209497
v 0.866346 0.331467 -0.209497
v 0.866346 0.331467 -0.209497
v 0.866346 0.331467 -0.209497
v 0.866346 0.331467 -0.209497
v 0.866346 0.331467 -0.209497
vn -0.5019 0.0330 0.8643
vn 0.1037 -0.9418 0.3199
vn 0.1047 -0.9422 0.3182
vn -0.5015 0.0286 0.8647
vn 0.1016 -0.9437 0.3147
vn 0.1753 0.6687 0.7225
vn 0.3627 0.5868 0.7239
vn 0.5806 0.2945 0.7591
vn 0.6258 0.1724 0.7607
vn 0.6457 0.1059 0.7562
vn 0.6983 -0.1589 0.6980
vn 0.4723 0.3363 0.8147
vn 0.6431 -0.2061 0.7375
vn 0.6432 -0.2061 0.7375
vn 0.1753 0.6687 -0.7225
vn 0.3627 0.5868 -0.7239
vn 0.5792 0.2978 -0.7589
vn 0.6983 -0.1589 -0.6980
vn 0.3390 0.0261 -0.9404
vn 0.1099 0.6433 -0.7577
vn 0.4729 0.3367 -0.8142
vn 0.4723 0.3363 -0.8147
vn 0.4729 0.3368 -0.8142
vn 0.6431 -0.2061 -0.7375
vn 0.4739 0.3375 -0.8133
vn 0.4319 -0.1384 -0.8912
vn 0.2088 0.3616 -0.9086
vn -0.8268 -0.3719 -0.4221
vn -0.5013 0.0282 0.8648
vn -0.5020 0.0282 0.8644
vn -0.5017 0.0284 0.8646
vn -0.5017 0.0283 0.8646
vn 0.5792 0.2978 0.7589
vn -0.8267 -0.3719 -0.4222
vn -0.8266 -0.3719 -0.4224
vn -0.8265 -0.3717 -0.4227
vn -0.8268 -0.3719 -0.4220
vn -0.8267 -0.3718 -0.4223
vt 0.226284 0.000000
vt 0.395187 0.228938
vt 0.038035 0.000000
vt 1.000000 0.000000
vt 1.000000 0.438448
vt 0.541103 0.000000
vt 0.506945 0.000000
vt 0.815848 0.386482
vt 0.438448 0.438448
vt 0.474297 0.095484
vt 0.038035 0.038035
vt 0.000000 0.000000
vt 0.651055 0.000000
vt 0.506945 0.506945
vt 0.709729 0.226919
vt 0.383113 0.053658
vt 0.697336 0.662918
vt 0.570353 0.074311
vt 0.496873 0.434972
vt 0.458897 0.000000
vt 0.477699 0.086788
vt 0.636168 0.357878
vt 0.420863 0.302910
vt 0.226284 0.226284
vt 0.014200 0.000000
vt 0.651055 0.651055
vt 0.985800 0.000000
vt 0.647897 0.215492
vt 0.879382 0.680849
s 0
f 27/1/1 28/2/1 30/3/1
f 1/4/2 45/5/2 42/6/2
f 48/7/3 49/8/3 45/9/3
f 43/10/4 30/11/4 1/12/4
f 60/13/5 48/14/5 1/12/5
s 1
f 65/12/6 8/12/6 33/12/6
f 66/12/7 41/12/7 68/12/7
f 34/12/8 44/12/9 37/12/10
f 35/12/11 52/12/11 50/12/11
f 14/12/12 72/12/12 11/12/12
f 15/12/13 16/12/14 17/12/13
f 9/12/15 73/12/15 31/12/15
f 2/12/16 70/12/16 74/12/16
f 71/12/17 36/12/17 77/12/17
f 78/12/18 18/12/18 47/12/18
f 58/12/19 79/12/19 63/12/19
f 7/12/20 56/12/20 10/12/20
f 76/12/21 3/12/22 80/12/23
f 24/12/24 81/12/24 19/12/24
f 80/12/23 54/12/25 76/12/21
f 64/12/26 6/12/26 62/12/26
f 53/12/27 55/12/27 5/12/27
s 0
f 22/15/28 23/16/28 26/17/28
f 45/9/3 1/12/3 48/7/3
f 48/7/3 46/18/3 49/8/3
f 49/8/3 51/19/3 45/9/3
f 42/20/29 38/21/29 43/10/29
f 43/10/30 40/22/30 32/23/30
f 32/23/31 27/24/31 30/11/31
f 30/11/4 59/25/4 1/12/4
f 1/12/29 42/20/29 43/10/29
f 43/10/32 32/23/32 30/11/32
s 1
f 65/12/6 29/12/6 8/12/6
f 66/12/7 12/12/7 41/12/7
f 34/12/8 69/12/33 44/12/9
f 35/12/11 39/12/11 52/12/11
f 15/12/13 13/12/14 16/12/14
f 9/12/15 67/12/15 73/12/15
f 78/12/18 4/12/18 18/12/18
f 7/12/20 75/12/20 56/12/20
f 19/12/24 20/12/24 24/12/24
f 24/12/24 61/12/24 81/12/24
f 80/12/23 57/12/25 54/12/25
s 0
f 26/17/34 60/26/34 1/12/34
f 1/12/35 59/27/35 22/15/35
f 22/15/36 21/28/36 23/16/36
f 23/16/37 25/29/37 26/17/37
f 26/17/38 1/12/38 22/15/38
