mtllib galaxy_comet_arch.mtl
o galaxy_comet_arch
v -4.550000 0.000000 -0.750000
v -3.450000 0.000000 -0.750000
v -3.450000 3.200000 -0.750000
v -4.550000 3.200000 -0.750000
v -4.550000 0.000000 0.750000
v -3.450000 0.000000 0.750000
v -3.450000 3.200000 0.750000
v -4.550000 3.200000 0.750000
usemtl pearl
f 1 2 3 4
f 5 8 7 6
f 1 5 6 2
f 2 6 7 3
f 3 7 8 4
f 5 1 4 8
v 3.450000 0.000000 -0.750000
v 4.550000 0.000000 -0.750000
v 4.550000 3.200000 -0.750000
v 3.450000 3.200000 -0.750000
v 3.450000 0.000000 0.750000
v 4.550000 0.000000 0.750000
v 4.550000 3.200000 0.750000
v 3.450000 3.200000 0.750000
usemtl pearl
f 9 10 11 12
f 13 16 15 14
f 9 13 14 10
f 10 14 15 11
f 11 15 16 12
f 13 9 12 16
v -2.750000 0.000000 0.000000
v -2.750000 0.500000 0.000000
v -2.825384 0.000000 0.427525
v -2.825384 0.500000 0.427525
v -3.042444 0.000000 0.803485
v -3.042444 0.500000 0.803485
v -3.375000 0.000000 1.082532
v -3.375000 0.500000 1.082532
v -3.782940 0.000000 1.231010
v -3.782940 0.500000 1.231010
v -4.217060 0.000000 1.231010
v -4.217060 0.500000 1.231010
v -4.625000 0.000000 1.082532
v -4.625000 0.500000 1.082532
v -4.957556 0.000000 0.803485
v -4.957556 0.500000 0.803485
v -5.174616 0.000000 0.427525
v -5.174616 0.500000 0.427525
v -5.250000 0.000000 0.000000
v -5.250000 0.500000 0.000000
v -5.174616 0.000000 -0.427525
v -5.174616 0.500000 -0.427525
v -4.957556 0.000000 -0.803485
v -4.957556 0.500000 -0.803485
v -4.625000 0.000000 -1.082532
v -4.625000 0.500000 -1.082532
v -4.217060 0.000000 -1.231010
v -4.217060 0.500000 -1.231010
v -3.782940 0.000000 -1.231010
v -3.782940 0.500000 -1.231010
v -3.375000 0.000000 -1.082532
v -3.375000 0.500000 -1.082532
v -3.042444 0.000000 -0.803485
v -3.042444 0.500000 -0.803485
v -2.825384 0.000000 -0.427525
v -2.825384 0.500000 -0.427525
v -4.000000 0.000000 0.000000
v -4.000000 0.500000 0.000000
usemtl gold
f 17 19 20 18
f 19 21 22 20
f 21 23 24 22
f 23 25 26 24
f 25 27 28 26
f 27 29 30 28
f 29 31 32 30
f 31 33 34 32
f 33 35 36 34
f 35 37 38 36
f 37 39 40 38
f 39 41 42 40
f 41 43 44 42
f 43 45 46 44
f 45 47 48 46
f 47 49 50 48
f 49 51 52 50
f 51 17 18 52
usemtl violet
f 53 19 17
f 54 18 20
f 53 21 19
f 54 20 22
f 53 23 21
f 54 22 24
f 53 25 23
f 54 24 26
f 53 27 25
f 54 26 28
f 53 29 27
f 54 28 30
f 53 31 29
f 54 30 32
f 53 33 31
f 54 32 34
f 53 35 33
f 54 34 36
f 53 37 35
f 54 36 38
f 53 39 37
f 54 38 40
f 53 41 39
f 54 40 42
f 53 43 41
f 54 42 44
f 53 45 43
f 54 44 46
f 53 47 45
f 54 46 48
f 53 49 47
f 54 48 50
f 53 51 49
f 54 50 52
f 53 17 51
f 54 52 18
v 5.250000 0.000000 0.000000
v 5.250000 0.500000 0.000000
v 5.174616 0.000000 0.427525
v 5.174616 0.500000 0.427525
v 4.957556 0.000000 0.803485
v 4.957556 0.500000 0.803485
v 4.625000 0.000000 1.082532
v 4.625000 0.500000 1.082532
v 4.217060 0.000000 1.231010
v 4.217060 0.500000 1.231010
v 3.782940 0.000000 1.231010
v 3.782940 0.500000 1.231010
v 3.375000 0.000000 1.082532
v 3.375000 0.500000 1.082532
v 3.042444 0.000000 0.803485
v 3.042444 0.500000 0.803485
v 2.825384 0.000000 0.427525
v 2.825384 0.500000 0.427525
v 2.750000 0.000000 0.000000
v 2.750000 0.500000 0.000000
v 2.825384 0.000000 -0.427525
v 2.825384 0.500000 -0.427525
v 3.042444 0.000000 -0.803485
v 3.042444 0.500000 -0.803485
v 3.375000 0.000000 -1.082532
v 3.375000 0.500000 -1.082532
v 3.782940 0.000000 -1.231010
v 3.782940 0.500000 -1.231010
v 4.217060 0.000000 -1.231010
v 4.217060 0.500000 -1.231010
v 4.625000 0.000000 -1.082532
v 4.625000 0.500000 -1.082532
v 4.957556 0.000000 -0.803485
v 4.957556 0.500000 -0.803485
v 5.174616 0.000000 -0.427525
v 5.174616 0.500000 -0.427525
v 4.000000 0.000000 0.000000
v 4.000000 0.500000 0.000000
usemtl gold
f 55 57 58 56
f 57 59 60 58
f 59 61 62 60
f 61 63 64 62
f 63 65 66 64
f 65 67 68 66
f 67 69 70 68
f 69 71 72 70
f 71 73 74 72
f 73 75 76 74
f 75 77 78 76
f 77 79 80 78
f 79 81 82 80
f 81 83 84 82
f 83 85 86 84
f 85 87 88 86
f 87 89 90 88
f 89 55 56 90
usemtl violet
f 91 57 55
f 92 56 58
f 91 59 57
f 92 58 60
f 91 61 59
f 92 60 62
f 91 63 61
f 92 62 64
f 91 65 63
f 92 64 66
f 91 67 65
f 92 66 68
f 91 69 67
f 92 68 70
f 91 71 69
f 92 70 72
f 91 73 71
f 92 72 74
f 91 75 73
f 92 74 76
f 91 77 75
f 92 76 78
f 91 79 77
f 92 78 80
f 91 81 79
f 92 80 82
f 91 83 81
f 92 82 84
f 91 85 83
f 92 84 86
f 91 87 85
f 92 86 88
f 91 89 87
f 92 88 90
f 91 55 89
f 92 90 56
v 4.630000 4.450000 0.000000
v 4.518701 4.450000 0.268701
v 4.250000 4.450000 0.380000
v 3.981299 4.450000 0.268701
v 3.870000 4.450000 0.000000
v 3.981299 4.450000 -0.268701
v 4.250000 4.450000 -0.380000
v 4.518701 4.450000 -0.268701
v 4.541036 5.353268 0.000000
v 4.431875 5.331555 0.268701
v 4.168337 5.279134 0.380000
v 3.904800 5.226713 0.268701
v 3.795639 5.205000 0.000000
v 3.904800 5.226713 -0.268701
v 4.168337 5.279134 -0.380000
v 4.431875 5.331555 -0.268701
v 4.277562 6.221824 0.000000
v 4.174735 6.179232 0.268701
v 3.926488 6.076405 0.380000
v 3.678241 5.973577 0.268701
v 3.575414 5.930985 0.000000
v 3.678241 5.973577 -0.268701
v 3.926488 6.076405 -0.380000
v 4.174735 6.179232 -0.268701
v 3.849704 7.022290 0.000000
v 3.757162 6.960456 0.268701
v 3.533746 6.811173 0.380000
v 3.310329 6.661891 0.268701
v 3.217787 6.600057 0.000000
v 3.310329 6.661891 -0.268701
v 3.533746 6.811173 -0.380000
v 3.757162 6.960456 -0.268701
v 3.273904 7.723904 0.000000
v 3.195204 7.645204 0.268701
v 3.005204 7.455204 0.380000
v 2.815204 7.265204 0.268701
v 2.736503 7.186503 0.000000
v 2.815204 7.265204 -0.268701
v 3.005204 7.455204 -0.380000
v 3.195204 7.645204 -0.268701
v 2.572290 8.299704 0.000000
v 2.510456 8.207162 0.268701
v 2.361173 7.983746 0.380000
v 2.211891 7.760329 0.268701
v 2.150057 7.667787 0.000000
v 2.211891 7.760329 -0.268701
v 2.361173 7.983746 -0.380000
v 2.510456 8.207162 -0.268701
v 1.771824 8.727562 0.000000
v 1.729232 8.624735 0.268701
v 1.626405 8.376488 0.380000
v 1.523577 8.128241 0.268701
v 1.480985 8.025414 0.000000
v 1.523577 8.128241 -0.268701
v 1.626405 8.376488 -0.380000
v 1.729232 8.624735 -0.268701
v 0.903268 8.991036 0.000000
v 0.881555 8.881875 0.268701
v 0.829134 8.618337 0.380000
v 0.776713 8.354800 0.268701
v 0.755000 8.245639 0.000000
v 0.776713 8.354800 -0.268701
v 0.829134 8.618337 -0.380000
v 0.881555 8.881875 -0.268701
v 0.000000 9.080000 0.000000
v 0.000000 8.968701 0.268701
v 0.000000 8.700000 0.380000
v 0.000000 8.431299 0.268701
v 0.000000 8.320000 0.000000
v 0.000000 8.431299 -0.268701
v 0.000000 8.700000 -0.380000
v 0.000000 8.968701 -0.268701
v -0.903268 8.991036 0.000000
v -0.881555 8.881875 0.268701
v -0.829134 8.618337 0.380000
v -0.776713 8.354800 0.268701
v -0.755000 8.245639 0.000000
v -0.776713 8.354800 -0.268701
v -0.829134 8.618337 -0.380000
v -0.881555 8.881875 -0.268701
v -1.771824 8.727562 0.000000
v -1.729232 8.624735 0.268701
v -1.626405 8.376488 0.380000
v -1.523577 8.128241 0.268701
v -1.480985 8.025414 0.000000
v -1.523577 8.128241 -0.268701
v -1.626405 8.376488 -0.380000
v -1.729232 8.624735 -0.268701
v -2.572290 8.299704 0.000000
v -2.510456 8.207162 0.268701
v -2.361173 7.983746 0.380000
v -2.211891 7.760329 0.268701
v -2.150057 7.667787 0.000000
v -2.211891 7.760329 -0.268701
v -2.361173 7.983746 -0.380000
v -2.510456 8.207162 -0.268701
v -3.273904 7.723904 0.000000
v -3.195204 7.645204 0.268701
v -3.005204 7.455204 0.380000
v -2.815204 7.265204 0.268701
v -2.736503 7.186503 0.000000
v -2.815204 7.265204 -0.268701
v -3.005204 7.455204 -0.380000
v -3.195204 7.645204 -0.268701
v -3.849704 7.022290 0.000000
v -3.757162 6.960456 0.268701
v -3.533746 6.811173 0.380000
v -3.310329 6.661891 0.268701
v -3.217787 6.600057 0.000000
v -3.310329 6.661891 -0.268701
v -3.533746 6.811173 -0.380000
v -3.757162 6.960456 -0.268701
v -4.277562 6.221824 0.000000
v -4.174735 6.179232 0.268701
v -3.926488 6.076405 0.380000
v -3.678241 5.973577 0.268701
v -3.575414 5.930985 0.000000
v -3.678241 5.973577 -0.268701
v -3.926488 6.076405 -0.380000
v -4.174735 6.179232 -0.268701
v -4.541036 5.353268 0.000000
v -4.431875 5.331555 0.268701
v -4.168337 5.279134 0.380000
v -3.904800 5.226713 0.268701
v -3.795639 5.205000 0.000000
v -3.904800 5.226713 -0.268701
v -4.168337 5.279134 -0.380000
v -4.431875 5.331555 -0.268701
v -4.630000 4.450000 0.000000
v -4.518701 4.450000 0.268701
v -4.250000 4.450000 0.380000
v -3.981299 4.450000 0.268701
v -3.870000 4.450000 0.000000
v -3.981299 4.450000 -0.268701
v -4.250000 4.450000 -0.380000
v -4.518701 4.450000 -0.268701
v -4.541036 3.546732 0.000000
v -4.431875 3.568445 0.268701
v -4.168337 3.620866 0.380000
v -3.904800 3.673287 0.268701
v -3.795639 3.695000 0.000000
v -3.904800 3.673287 -0.268701
v -4.168337 3.620866 -0.380000
v -4.431875 3.568445 -0.268701
v -4.277562 2.678176 0.000000
v -4.174735 2.720768 0.268701
v -3.926488 2.823595 0.380000
v -3.678241 2.926423 0.268701
v -3.575414 2.969015 0.000000
v -3.678241 2.926423 -0.268701
v -3.926488 2.823595 -0.380000
v -4.174735 2.720768 -0.268701
v -3.849704 1.877710 0.000000
v -3.757162 1.939544 0.268701
v -3.533746 2.088827 0.380000
v -3.310329 2.238109 0.268701
v -3.217787 2.299943 0.000000
v -3.310329 2.238109 -0.268701
v -3.533746 2.088827 -0.380000
v -3.757162 1.939544 -0.268701
v -3.273904 1.176096 0.000000
v -3.195204 1.254796 0.268701
v -3.005204 1.444796 0.380000
v -2.815204 1.634796 0.268701
v -2.736503 1.713497 0.000000
v -2.815204 1.634796 -0.268701
v -3.005204 1.444796 -0.380000
v -3.195204 1.254796 -0.268701
v -2.572290 0.600296 0.000000
v -2.510456 0.692838 0.268701
v -2.361173 0.916254 0.380000
v -2.211891 1.139671 0.268701
v -2.150057 1.232213 0.000000
v -2.211891 1.139671 -0.268701
v -2.361173 0.916254 -0.380000
v -2.510456 0.692838 -0.268701
v -1.771824 0.172438 0.000000
v -1.729232 0.275265 0.268701
v -1.626405 0.523512 0.380000
v -1.523577 0.771759 0.268701
v -1.480985 0.874586 0.000000
v -1.523577 0.771759 -0.268701
v -1.626405 0.523512 -0.380000
v -1.729232 0.275265 -0.268701
v -0.903268 -0.091036 0.000000
v -0.881555 0.018125 0.268701
v -0.829134 0.281663 0.380000
v -0.776713 0.545200 0.268701
v -0.755000 0.654361 0.000000
v -0.776713 0.545200 -0.268701
v -0.829134 0.281663 -0.380000
v -0.881555 0.018125 -0.268701
v 0.000000 -0.180000 0.000000
v 0.000000 -0.068701 0.268701
v 0.000000 0.200000 0.380000
v 0.000000 0.468701 0.268701
v 0.000000 0.580000 0.000000
v 0.000000 0.468701 -0.268701
v 0.000000 0.200000 -0.380000
v 0.000000 -0.068701 -0.268701
v 0.903268 -0.091036 0.000000
v 0.881555 0.018125 0.268701
v 0.829134 0.281663 0.380000
v 0.776713 0.545200 0.268701
v 0.755000 0.654361 0.000000
v 0.776713 0.545200 -0.268701
v 0.829134 0.281663 -0.380000
v 0.881555 0.018125 -0.268701
v 1.771824 0.172438 0.000000
v 1.729232 0.275265 0.268701
v 1.626405 0.523512 0.380000
v 1.523577 0.771759 0.268701
v 1.480985 0.874586 0.000000
v 1.523577 0.771759 -0.268701
v 1.626405 0.523512 -0.380000
v 1.729232 0.275265 -0.268701
v 2.572290 0.600296 0.000000
v 2.510456 0.692838 0.268701
v 2.361173 0.916254 0.380000
v 2.211891 1.139671 0.268701
v 2.150057 1.232213 0.000000
v 2.211891 1.139671 -0.268701
v 2.361173 0.916254 -0.380000
v 2.510456 0.692838 -0.268701
v 3.273904 1.176096 0.000000
v 3.195204 1.254796 0.268701
v 3.005204 1.444796 0.380000
v 2.815204 1.634796 0.268701
v 2.736503 1.713497 0.000000
v 2.815204 1.634796 -0.268701
v 3.005204 1.444796 -0.380000
v 3.195204 1.254796 -0.268701
v 3.849704 1.877710 0.000000
v 3.757162 1.939544 0.268701
v 3.533746 2.088827 0.380000
v 3.310329 2.238109 0.268701
v 3.217787 2.299943 0.000000
v 3.310329 2.238109 -0.268701
v 3.533746 2.088827 -0.380000
v 3.757162 1.939544 -0.268701
v 4.277562 2.678176 0.000000
v 4.174735 2.720768 0.268701
v 3.926488 2.823595 0.380000
v 3.678241 2.926423 0.268701
v 3.575414 2.969015 0.000000
v 3.678241 2.926423 -0.268701
v 3.926488 2.823595 -0.380000
v 4.174735 2.720768 -0.268701
v 4.541036 3.546732 0.000000
v 4.431875 3.568445 0.268701
v 4.168337 3.620866 0.380000
v 3.904800 3.673287 0.268701
v 3.795639 3.695000 0.000000
v 3.904800 3.673287 -0.268701
v 4.168337 3.620866 -0.380000
v 4.431875 3.568445 -0.268701
usemtl aqua
f 93 101 102 94
f 94 102 103 95
f 95 103 104 96
f 96 104 105 97
f 97 105 106 98
f 98 106 107 99
f 99 107 108 100
f 100 108 101 93
f 101 109 110 102
f 102 110 111 103
f 103 111 112 104
f 104 112 113 105
f 105 113 114 106
f 106 114 115 107
f 107 115 116 108
f 108 116 109 101
f 109 117 118 110
f 110 118 119 111
f 111 119 120 112
f 112 120 121 113
f 113 121 122 114
f 114 122 123 115
f 115 123 124 116
f 116 124 117 109
f 117 125 126 118
f 118 126 127 119
f 119 127 128 120
f 120 128 129 121
f 121 129 130 122
f 122 130 131 123
f 123 131 132 124
f 124 132 125 117
f 125 133 134 126
f 126 134 135 127
f 127 135 136 128
f 128 136 137 129
f 129 137 138 130
f 130 138 139 131
f 131 139 140 132
f 132 140 133 125
f 133 141 142 134
f 134 142 143 135
f 135 143 144 136
f 136 144 145 137
f 137 145 146 138
f 138 146 147 139
f 139 147 148 140
f 140 148 141 133
f 141 149 150 142
f 142 150 151 143
f 143 151 152 144
f 144 152 153 145
f 145 153 154 146
f 146 154 155 147
f 147 155 156 148
f 148 156 149 141
f 149 157 158 150
f 150 158 159 151
f 151 159 160 152
f 152 160 161 153
f 153 161 162 154
f 154 162 163 155
f 155 163 164 156
f 156 164 157 149
f 157 165 166 158
f 158 166 167 159
f 159 167 168 160
f 160 168 169 161
f 161 169 170 162
f 162 170 171 163
f 163 171 172 164
f 164 172 165 157
f 165 173 174 166
f 166 174 175 167
f 167 175 176 168
f 168 176 177 169
f 169 177 178 170
f 170 178 179 171
f 171 179 180 172
f 172 180 173 165
f 173 181 182 174
f 174 182 183 175
f 175 183 184 176
f 176 184 185 177
f 177 185 186 178
f 178 186 187 179
f 179 187 188 180
f 180 188 181 173
f 181 189 190 182
f 182 190 191 183
f 183 191 192 184
f 184 192 193 185
f 185 193 194 186
f 186 194 195 187
f 187 195 196 188
f 188 196 189 181
f 189 197 198 190
f 190 198 199 191
f 191 199 200 192
f 192 200 201 193
f 193 201 202 194
f 194 202 203 195
f 195 203 204 196
f 196 204 197 189
f 197 205 206 198
f 198 206 207 199
f 199 207 208 200
f 200 208 209 201
f 201 209 210 202
f 202 210 211 203
f 203 211 212 204
f 204 212 205 197
f 205 213 214 206
f 206 214 215 207
f 207 215 216 208
f 208 216 217 209
f 209 217 218 210
f 210 218 219 211
f 211 219 220 212
f 212 220 213 205
f 213 221 222 214
f 214 222 223 215
f 215 223 224 216
f 216 224 225 217
f 217 225 226 218
f 218 226 227 219
f 219 227 228 220
f 220 228 221 213
f 221 229 230 222
f 222 230 231 223
f 223 231 232 224
f 224 232 233 225
f 225 233 234 226
f 226 234 235 227
f 227 235 236 228
f 228 236 229 221
f 229 237 238 230
f 230 238 239 231
f 231 239 240 232
f 232 240 241 233
f 233 241 242 234
f 234 242 243 235
f 235 243 244 236
f 236 244 237 229
f 237 245 246 238
f 238 246 247 239
f 239 247 248 240
f 240 248 249 241
f 241 249 250 242
f 242 250 251 243
f 243 251 252 244
f 244 252 245 237
f 245 253 254 246
f 246 254 255 247
f 247 255 256 248
f 248 256 257 249
f 249 257 258 250
f 250 258 259 251
f 251 259 260 252
f 252 260 253 245
f 253 261 262 254
f 254 262 263 255
f 255 263 264 256
f 256 264 265 257
f 257 265 266 258
f 258 266 267 259
f 259 267 268 260
f 260 268 261 253
f 261 269 270 262
f 262 270 271 263
f 263 271 272 264
f 264 272 273 265
f 265 273 274 266
f 266 274 275 267
f 267 275 276 268
f 268 276 269 261
f 269 277 278 270
f 270 278 279 271
f 271 279 280 272
f 272 280 281 273
f 273 281 282 274
f 274 282 283 275
f 275 283 284 276
f 276 284 277 269
f 277 285 286 278
f 278 286 287 279
f 279 287 288 280
f 280 288 289 281
f 281 289 290 282
f 282 290 291 283
f 283 291 292 284
f 284 292 285 277
f 285 293 294 286
f 286 294 295 287
f 287 295 296 288
f 288 296 297 289
f 289 297 298 290
f 290 298 299 291
f 291 299 300 292
f 292 300 293 285
f 293 301 302 294
f 294 302 303 295
f 295 303 304 296
f 296 304 305 297
f 297 305 306 298
f 298 306 307 299
f 299 307 308 300
f 300 308 301 293
f 301 309 310 302
f 302 310 311 303
f 303 311 312 304
f 304 312 313 305
f 305 313 314 306
f 306 314 315 307
f 307 315 316 308
f 308 316 309 301
f 309 317 318 310
f 310 318 319 311
f 311 319 320 312
f 312 320 321 313
f 313 321 322 314
f 314 322 323 315
f 315 323 324 316
f 316 324 317 309
f 317 325 326 318
f 318 326 327 319
f 319 327 328 320
f 320 328 329 321
f 321 329 330 322
f 322 330 331 323
f 323 331 332 324
f 324 332 325 317
f 325 333 334 326
f 326 334 335 327
f 327 335 336 328
f 328 336 337 329
f 329 337 338 330
f 330 338 339 331
f 331 339 340 332
f 332 340 333 325
f 333 341 342 334
f 334 342 343 335
f 335 343 344 336
f 336 344 345 337
f 337 345 346 338
f 338 346 347 339
f 339 347 348 340
f 340 348 341 333
f 341 93 94 342
f 342 94 95 343
f 343 95 96 344
f 344 96 97 345
f 345 97 98 346
f 346 98 99 347
f 347 99 100 348
f 348 100 93 341
v 4.870000 4.450000 0.000000
v 4.810000 4.450000 0.103923
v 4.690000 4.450000 0.103923
v 4.630000 4.450000 0.000000
v 4.690000 4.450000 -0.103923
v 4.810000 4.450000 -0.103923
v 4.776424 5.400090 0.000000
v 4.717577 5.388384 0.103923
v 4.599883 5.364974 0.103923
v 4.541036 5.353268 0.000000
v 4.599883 5.364974 -0.103923
v 4.717577 5.388384 -0.103923
v 4.499293 6.313668 0.000000
v 4.443861 6.290707 0.103923
v 4.332995 6.244785 0.103923
v 4.277562 6.221824 0.000000
v 4.332995 6.244785 -0.103923
v 4.443861 6.290707 -0.103923
v 4.049257 7.155627 0.000000
v 3.999369 7.122293 0.103923
v 3.899592 7.055624 0.103923
v 3.849704 7.022290 0.000000
v 3.899592 7.055624 -0.103923
v 3.999369 7.122293 -0.103923
v 3.443610 7.893610 0.000000
v 3.401184 7.851184 0.103923
v 3.316331 7.766331 0.103923
v 3.273904 7.723904 0.000000
v 3.316331 7.766331 -0.103923
v 3.401184 7.851184 -0.103923
v 2.705627 8.499257 0.000000
v 2.672293 8.449369 0.103923
v 2.605624 8.349592 0.103923
v 2.572290 8.299704 0.000000
v 2.605624 8.349592 -0.103923
v 2.672293 8.449369 -0.103923
v 1.863668 8.949293 0.000000
v 1.840707 8.893861 0.103923
v 1.794785 8.782995 0.103923
v 1.771824 8.727562 0.000000
v 1.794785 8.782995 -0.103923
v 1.840707 8.893861 -0.103923
v 0.950090 9.226424 0.000000
v 0.938384 9.167577 0.103923
v 0.914974 9.049883 0.103923
v 0.903268 8.991036 0.000000
v 0.914974 9.049883 -0.103923
v 0.938384 9.167577 -0.103923
v 0.000000 9.320000 0.000000
v 0.000000 9.260000 0.103923
v 0.000000 9.140000 0.103923
v 0.000000 9.080000 0.000000
v 0.000000 9.140000 -0.103923
v 0.000000 9.260000 -0.103923
v -0.950090 9.226424 0.000000
v -0.938384 9.167577 0.103923
v -0.914974 9.049883 0.103923
v -0.903268 8.991036 0.000000
v -0.914974 9.049883 -0.103923
v -0.938384 9.167577 -0.103923
v -1.863668 8.949293 0.000000
v -1.840707 8.893861 0.103923
v -1.794785 8.782995 0.103923
v -1.771824 8.727562 0.000000
v -1.794785 8.782995 -0.103923
v -1.840707 8.893861 -0.103923
v -2.705627 8.499257 0.000000
v -2.672293 8.449369 0.103923
v -2.605624 8.349592 0.103923
v -2.572290 8.299704 0.000000
v -2.605624 8.349592 -0.103923
v -2.672293 8.449369 -0.103923
v -3.443610 7.893610 0.000000
v -3.401184 7.851184 0.103923
v -3.316331 7.766331 0.103923
v -3.273904 7.723904 0.000000
v -3.316331 7.766331 -0.103923
v -3.401184 7.851184 -0.103923
v -4.049257 7.155627 0.000000
v -3.999369 7.122293 0.103923
v -3.899592 7.055624 0.103923
v -3.849704 7.022290 0.000000
v -3.899592 7.055624 -0.103923
v -3.999369 7.122293 -0.103923
v -4.499293 6.313668 0.000000
v -4.443861 6.290707 0.103923
v -4.332995 6.244785 0.103923
v -4.277562 6.221824 0.000000
v -4.332995 6.244785 -0.103923
v -4.443861 6.290707 -0.103923
v -4.776424 5.400090 0.000000
v -4.717577 5.388384 0.103923
v -4.599883 5.364974 0.103923
v -4.541036 5.353268 0.000000
v -4.599883 5.364974 -0.103923
v -4.717577 5.388384 -0.103923
v -4.870000 4.450000 0.000000
v -4.810000 4.450000 0.103923
v -4.690000 4.450000 0.103923
v -4.630000 4.450000 0.000000
v -4.690000 4.450000 -0.103923
v -4.810000 4.450000 -0.103923
v -4.776424 3.499910 0.000000
v -4.717577 3.511616 0.103923
v -4.599883 3.535026 0.103923
v -4.541036 3.546732 0.000000
v -4.599883 3.535026 -0.103923
v -4.717577 3.511616 -0.103923
v -4.499293 2.586332 0.000000
v -4.443861 2.609293 0.103923
v -4.332995 2.655215 0.103923
v -4.277562 2.678176 0.000000
v -4.332995 2.655215 -0.103923
v -4.443861 2.609293 -0.103923
v -4.049257 1.744373 0.000000
v -3.999369 1.777707 0.103923
v -3.899592 1.844376 0.103923
v -3.849704 1.877710 0.000000
v -3.899592 1.844376 -0.103923
v -3.999369 1.777707 -0.103923
v -3.443610 1.006390 0.000000
v -3.401184 1.048816 0.103923
v -3.316331 1.133669 0.103923
v -3.273904 1.176096 0.000000
v -3.316331 1.133669 -0.103923
v -3.401184 1.048816 -0.103923
v -2.705627 0.400743 0.000000
v -2.672293 0.450631 0.103923
v -2.605624 0.550408 0.103923
v -2.572290 0.600296 0.000000
v -2.605624 0.550408 -0.103923
v -2.672293 0.450631 -0.103923
v -1.863668 -0.049293 0.000000
v -1.840707 0.006139 0.103923
v -1.794785 0.117005 0.103923
v -1.771824 0.172438 0.000000
v -1.794785 0.117005 -0.103923
v -1.840707 0.006139 -0.103923
v -0.950090 -0.326424 0.000000
v -0.938384 -0.267577 0.103923
v -0.914974 -0.149883 0.103923
v -0.903268 -0.091036 0.000000
v -0.914974 -0.149883 -0.103923
v -0.938384 -0.267577 -0.103923
v 0.000000 -0.420000 0.000000
v 0.000000 -0.360000 0.103923
v 0.000000 -0.240000 0.103923
v 0.000000 -0.180000 0.000000
v 0.000000 -0.240000 -0.103923
v 0.000000 -0.360000 -0.103923
v 0.950090 -0.326424 0.000000
v 0.938384 -0.267577 0.103923
v 0.914974 -0.149883 0.103923
v 0.903268 -0.091036 0.000000
v 0.914974 -0.149883 -0.103923
v 0.938384 -0.267577 -0.103923
v 1.863668 -0.049293 0.000000
v 1.840707 0.006139 0.103923
v 1.794785 0.117005 0.103923
v 1.771824 0.172438 0.000000
v 1.794785 0.117005 -0.103923
v 1.840707 0.006139 -0.103923
v 2.705627 0.400743 0.000000
v 2.672293 0.450631 0.103923
v 2.605624 0.550408 0.103923
v 2.572290 0.600296 0.000000
v 2.605624 0.550408 -0.103923
v 2.672293 0.450631 -0.103923
v 3.443610 1.006390 0.000000
v 3.401184 1.048816 0.103923
v 3.316331 1.133669 0.103923
v 3.273904 1.176096 0.000000
v 3.316331 1.133669 -0.103923
v 3.401184 1.048816 -0.103923
v 4.049257 1.744373 0.000000
v 3.999369 1.777707 0.103923
v 3.899592 1.844376 0.103923
v 3.849704 1.877710 0.000000
v 3.899592 1.844376 -0.103923
v 3.999369 1.777707 -0.103923
v 4.499293 2.586332 0.000000
v 4.443861 2.609293 0.103923
v 4.332995 2.655215 0.103923
v 4.277562 2.678176 0.000000
v 4.332995 2.655215 -0.103923
v 4.443861 2.609293 -0.103923
v 4.776424 3.499910 0.000000
v 4.717577 3.511616 0.103923
v 4.599883 3.535026 0.103923
v 4.541036 3.546732 0.000000
v 4.599883 3.535026 -0.103923
v 4.717577 3.511616 -0.103923
usemtl gold
f 349 355 356 350
f 350 356 357 351
f 351 357 358 352
f 352 358 359 353
f 353 359 360 354
f 354 360 355 349
f 355 361 362 356
f 356 362 363 357
f 357 363 364 358
f 358 364 365 359
f 359 365 366 360
f 360 366 361 355
f 361 367 368 362
f 362 368 369 363
f 363 369 370 364
f 364 370 371 365
f 365 371 372 366
f 366 372 367 361
f 367 373 374 368
f 368 374 375 369
f 369 375 376 370
f 370 376 377 371
f 371 377 378 372
f 372 378 373 367
f 373 379 380 374
f 374 380 381 375
f 375 381 382 376
f 376 382 383 377
f 377 383 384 378
f 378 384 379 373
f 379 385 386 380
f 380 386 387 381
f 381 387 388 382
f 382 388 389 383
f 383 389 390 384
f 384 390 385 379
f 385 391 392 386
f 386 392 393 387
f 387 393 394 388
f 388 394 395 389
f 389 395 396 390
f 390 396 391 385
f 391 397 398 392
f 392 398 399 393
f 393 399 400 394
f 394 400 401 395
f 395 401 402 396
f 396 402 397 391
f 397 403 404 398
f 398 404 405 399
f 399 405 406 400
f 400 406 407 401
f 401 407 408 402
f 402 408 403 397
f 403 409 410 404
f 404 410 411 405
f 405 411 412 406
f 406 412 413 407
f 407 413 414 408
f 408 414 409 403
f 409 415 416 410
f 410 416 417 411
f 411 417 418 412
f 412 418 419 413
f 413 419 420 414
f 414 420 415 409
f 415 421 422 416
f 416 422 423 417
f 417 423 424 418
f 418 424 425 419
f 419 425 426 420
f 420 426 421 415
f 421 427 428 422
f 422 428 429 423
f 423 429 430 424
f 424 430 431 425
f 425 431 432 426
f 426 432 427 421
f 427 433 434 428
f 428 434 435 429
f 429 435 436 430
f 430 436 437 431
f 431 437 438 432
f 432 438 433 427
f 433 439 440 434
f 434 440 441 435
f 435 441 442 436
f 436 442 443 437
f 437 443 444 438
f 438 444 439 433
f 439 445 446 440
f 440 446 447 441
f 441 447 448 442
f 442 448 449 443
f 443 449 450 444
f 444 450 445 439
f 445 451 452 446
f 446 452 453 447
f 447 453 454 448
f 448 454 455 449
f 449 455 456 450
f 450 456 451 445
f 451 457 458 452
f 452 458 459 453
f 453 459 460 454
f 454 460 461 455
f 455 461 462 456
f 456 462 457 451
f 457 463 464 458
f 458 464 465 459
f 459 465 466 460
f 460 466 467 461
f 461 467 468 462
f 462 468 463 457
f 463 469 470 464
f 464 470 471 465
f 465 471 472 466
f 466 472 473 467
f 467 473 474 468
f 468 474 469 463
f 469 475 476 470
f 470 476 477 471
f 471 477 478 472
f 472 478 479 473
f 473 479 480 474
f 474 480 475 469
f 475 481 482 476
f 476 482 483 477
f 477 483 484 478
f 478 484 485 479
f 479 485 486 480
f 480 486 481 475
f 481 487 488 482
f 482 488 489 483
f 483 489 490 484
f 484 490 491 485
f 485 491 492 486
f 486 492 487 481
f 487 493 494 488
f 488 494 495 489
f 489 495 496 490
f 490 496 497 491
f 491 497 498 492
f 492 498 493 487
f 493 499 500 494
f 494 500 501 495
f 495 501 502 496
f 496 502 503 497
f 497 503 504 498
f 498 504 499 493
f 499 505 506 500
f 500 506 507 501
f 501 507 508 502
f 502 508 509 503
f 503 509 510 504
f 504 510 505 499
f 505 511 512 506
f 506 512 513 507
f 507 513 514 508
f 508 514 515 509
f 509 515 516 510
f 510 516 511 505
f 511 517 518 512
f 512 518 519 513
f 513 519 520 514
f 514 520 521 515
f 515 521 522 516
f 516 522 517 511
f 517 523 524 518
f 518 524 525 519
f 519 525 526 520
f 520 526 527 521
f 521 527 528 522
f 522 528 523 517
f 523 529 530 524
f 524 530 531 525
f 525 531 532 526
f 526 532 533 527
f 527 533 534 528
f 528 534 529 523
f 529 535 536 530
f 530 536 537 531
f 531 537 538 532
f 532 538 539 533
f 533 539 540 534
f 534 540 535 529
f 535 349 350 536
f 536 350 351 537
f 537 351 352 538
f 538 352 353 539
f 539 353 354 540
f 540 354 349 535
v 0.000000 8.490000 -1.350000
v 0.000000 8.810000 -1.350000
v 0.340915 8.490000 -0.469230
v 0.340915 8.810000 -0.469230
v 1.283926 8.490000 -0.417173
v 1.283926 8.810000 -0.417173
v 0.551613 8.490000 0.179230
v 0.551613 8.810000 0.179230
v 0.793510 8.490000 1.092173
v 0.793510 8.810000 1.092173
v 0.000000 8.490000 0.580000
v 0.000000 8.810000 0.580000
v -0.793510 8.490000 1.092173
v -0.793510 8.810000 1.092173
v -0.551613 8.490000 0.179230
v -0.551613 8.810000 0.179230
v -1.283926 8.490000 -0.417173
v -1.283926 8.810000 -0.417173
v -0.340915 8.490000 -0.469230
v -0.340915 8.810000 -0.469230
v 0.000000 8.490000 0.000000
v 0.000000 8.810000 0.000000
usemtl violet
f 541 543 544 542
f 543 545 546 544
f 545 547 548 546
f 547 549 550 548
f 549 551 552 550
f 551 553 554 552
f 553 555 556 554
f 555 557 558 556
f 557 559 560 558
f 559 541 542 560
usemtl gold
f 561 543 541
f 562 542 544
f 561 545 543
f 562 544 546
f 561 547 545
f 562 546 548
f 561 549 547
f 562 548 550
f 561 551 549
f 562 550 552
f 561 553 551
f 562 552 554
f 561 555 553
f 562 554 556
f 561 557 555
f 562 556 558
f 561 559 557
f 562 558 560
f 561 541 559
f 562 560 542
