# Generated by tools/model_lod_builder.ps1
# Source: saka.obj
# Ratio: 0.25
mtllib saka.mtl
v -1 -1 -1
v -1 -1 1
v -1 1 -1
v -1 1 1
v 1 -0.964989 -1
v 1 -0.96769 1
vt 0.625000 0.000000
vt 0.375000 0.250000
vt 0.375000 0.000000
vt 0.625000 0.500000
vt 0.375000 0.500000
vt 0.625000 0.750000
vt 0.375000 0.750000
vt 0.375000 1.000000
vt 0.125000 0.750000
vt 0.125000 0.500000
vt 0.875000 0.750000
vt 0.625000 0.250000
vt 0.625000 1.000000
vt 0.875000 0.500000
vn -1.0000 -0.0000 -0.0000
vn -0.0000 -0.0000 -1.0000
vn 1.0000 -0.0000 -0.0000
vn -0.0000 -0.0000 1.0000
vn -0.0000 -1.0000 -0.0000
vn 0.6954 0.7186 0.0019
vn 0.6944 0.7196 -0.0000
o 立方体
s 0
f 4/1/1 1/2/1 2/3/1
f 5/5/5 2/9/5 1/10/5
f 5/4/6 4/11/6 6/6/6
f 4/1/1 3/12/1 1/2/1
f 1/2/2 3/12/2 5/4/2
f 6/6/4 4/13/4 2/8/4
f 5/5/5 6/7/5 2/9/5
f 5/4/7 3/14/7 4/11/7
