# Blender 4.4.1
# www.blender.org
mtllib map_wall_02.mtl
o 立方体.006
v -108.931030 78.000000 30.345245
v -108.931030 80.000000 30.345245
v -110.345245 78.000000 28.931030
v -110.345245 80.000000 28.931030
v 29.033394 78.000000 -107.619179
v 29.033394 80.000000 -107.619179
v 27.619179 78.000000 -109.033394
v 27.619179 80.000000 -109.033394
v -79.064240 78.000000 80.478455
v -79.064240 80.000000 80.478455
v -80.478455 78.000000 79.064240
v -80.478455 80.000000 79.064240
v 80.138138 78.000000 -78.723923
v 80.138138 80.000000 -78.723923
v 78.723923 78.000000 -80.138138
v 78.723923 80.000000 -80.138138
v -78.338089 78.000000 -76.923874
v -78.338089 80.000000 -76.923874
v -76.923874 78.000000 -78.338089
v -76.923874 80.000000 -78.338089
v 77.367577 78.000000 78.781792
v 77.367577 80.000000 78.781792
v 78.781792 78.000000 77.367577
v 78.781792 80.000000 77.367577
v -55.614552 78.000000 97.028778
v -55.614552 80.000000 97.028778
v -57.028767 78.000000 95.614563
v -57.028767 80.000000 95.614563
v 100.845123 78.000000 -59.430897
v 100.845123 80.000000 -59.430897
v 99.430908 78.000000 -60.845112
v 99.430908 80.000000 -60.845112
v -27.885895 78.000000 109.300110
v -27.885895 80.000000 109.300110
v -29.300102 78.000000 107.885895
v -29.300102 80.000000 107.885895
v 110.099609 78.000000 -28.685394
v 110.099609 80.000000 -28.685394
v 108.685394 78.000000 -30.099602
v 108.685394 80.000000 -30.099602
v 12.282406 78.000000 109.131821
v 12.282406 80.000000 109.131821
v 10.868191 78.000000 107.717606
v 10.868191 80.000000 107.717606
v 119.443665 78.000000 1.970566
v 119.443665 80.000000 1.970566
v 118.029449 78.000000 0.556351
v 118.029449 80.000000 0.556351
v -99.169762 78.000000 60.583977
v -99.169762 80.000000 60.583977
v -100.583977 78.000000 59.169762
v -100.583977 80.000000 59.169762
v 56.942230 78.000000 -95.528015
v 56.942230 80.000000 -95.528015
v 55.528015 78.000000 -96.942230
v 55.528015 80.000000 -96.942230
v -118.128708 78.000000 -0.457085
v -118.128708 80.000000 -0.457085
v -119.542923 78.000000 -1.871300
v -119.542923 80.000000 -1.871300
v -10.809223 78.000000 -107.776566
v -10.809223 80.000000 -107.776566
v -12.223436 78.000000 -109.190781
v -12.223436 80.000000 -109.190781
v -55.159267 78.000000 -93.745056
v -55.159267 80.000000 -93.745056
v -53.745052 78.000000 -95.159271
v -53.745052 80.000000 -95.159271
v 97.008118 78.000000 58.422333
v 97.008118 80.000000 58.422333
v 98.422333 78.000000 57.008118
v 98.422333 80.000000 57.008118
v -29.205656 78.000000 -107.791443
v -29.205656 80.000000 -107.791443
v -27.791441 78.000000 -109.205658
v -27.791441 80.000000 -109.205658
v 108.262695 78.000000 29.676903
v 108.262695 80.000000 29.676903
v 109.676910 78.000000 28.262688
v 109.676910 80.000000 28.262688
v 10.546436 78.000000 -108.039352
v 10.546436 80.000000 -108.039352
v 11.960648 78.000000 -109.453560
v 11.960648 80.000000 -109.453560
v 118.194305 78.000000 -0.391472
v 118.194305 80.000000 -0.391472
v 119.608521 78.000000 -1.805683
v 119.608521 80.000000 -1.805683
v -98.242615 78.000000 -56.828400
v -98.242615 80.000000 -56.828400
v -96.828400 78.000000 -58.242615
v -96.828400 80.000000 -58.242615
v 53.405106 78.000000 94.819321
v 53.405106 80.000000 94.819321
v 54.819321 78.000000 93.405106
v 54.819321 80.000000 93.405106
v -108.921387 78.000000 -27.507174
v -108.921387 80.000000 -27.507174
v -107.507172 78.000000 -28.921389
v -107.507172 80.000000 -28.921389
v 28.371132 78.000000 109.785339
v 28.371132 80.000000 109.785339
v 29.785347 78.000000 108.371124
v 29.785347 80.000000 108.371124
v -119.679756 78.000000 1.734451
v -119.679756 80.000000 1.734451
v -118.265541 78.000000 0.320244
v -118.265541 80.000000 0.320244
v -12.240177 78.000000 109.174026
v -12.240177 80.000000 109.174026
v -10.825966 78.000000 107.759827
v -10.825966 80.000000 107.759827
v -118.337639 78.000000 1.000000
v -118.337639 80.000000 1.000000
v -118.337639 78.000000 -1.000000
v -118.337639 80.000000 -1.000000
v 118.157593 78.000000 1.000008
v 118.157593 80.000000 1.000008
v 118.157608 78.000000 -0.999996
v 118.157608 80.000000 -0.999996
v -111.156471 78.000000 -19.000002
v -111.156471 80.000000 -19.000002
v -111.156479 78.000000 -21.000004
v -111.156479 80.000000 -21.000004
v 112.083618 78.000000 -18.999985
v 112.083618 80.000000 -18.999985
v 112.083618 78.000000 -20.999985
v 112.083618 80.000000 -20.999985
v -103.739319 78.000000 -39.000004
v -103.739319 80.000000 -39.000004
v -103.739319 78.000000 -41.000008
v -103.739319 80.000000 -41.000008
v 106.021515 78.000000 -39.000000
v 106.021515 80.000000 -39.000000
v 106.021515 78.000000 -41.000000
v 106.021515 80.000000 -41.000000
v -96.322166 78.000000 -59.000008
v -96.322166 80.000000 -59.000008
v -96.322159 78.000000 -61.000011
v -96.322159 80.000000 -61.000011
v 99.745468 78.000000 -58.999989
v 99.745468 80.000000 -58.999989
v 99.745468 78.000000 -61.000000
v 99.745468 80.000000 -61.000000
v -75.354431 78.000000 -79.000000
v -75.354431 80.000000 -79.000000
v -75.354431 78.000000 -81.000000
v -75.354431 80.000000 -81.000000
v 79.633560 78.000000 -79.000000
v 79.633560 80.000000 -79.000000
v 79.633553 78.000000 -80.999992
v 79.633553 80.000000 -80.999992
v -45.891251 78.000000 -99.000008
v -45.891251 80.000000 -99.000008
v -45.891251 78.000000 -101.000008
v -45.891251 80.000000 -101.000008
v 51.990150 78.000000 -99.000008
v 51.990150 80.000000 -99.000008
v 51.990143 78.000000 -101.000000
v 51.990143 80.000000 -101.000000
v -112.452095 78.000000 21.000008
v -112.452095 80.000000 21.000008
v -112.452087 78.000000 19.000000
v -112.452087 80.000000 19.000000
v 111.085144 78.000000 21.000008
v 111.085144 80.000000 21.000008
v 111.085159 78.000000 19.000004
v 111.085159 80.000000 19.000004
v -105.885101 78.000000 41.000000
v -105.885101 80.000000 41.000000
v -105.885101 78.000000 39.000000
v -105.885101 80.000000 39.000000
v 103.893845 78.000000 41.000015
v 103.893845 80.000000 41.000015
v 103.893829 78.000000 39.000008
v 103.893829 80.000000 39.000008
v -99.998489 78.000000 61.000000
v -99.998489 80.000000 61.000000
v -99.998482 78.000000 58.999992
v -99.998482 80.000000 58.999992
v 96.374054 78.000000 61.000015
v 96.374054 80.000000 61.000015
v 96.374054 78.000000 59.000015
v 96.374054 80.000000 59.000015
v -79.931274 78.000000 81.000000
v -79.931274 80.000000 81.000000
v -79.931274 78.000000 79.000000
v -79.931274 80.000000 79.000000
v 75.059593 78.000000 81.000008
v 75.059593 80.000000 81.000008
v 75.059578 78.000000 79.000008
v 75.059578 80.000000 79.000008
v -51.860840 78.000000 101.000015
v -51.860840 80.000000 101.000015
v -51.860844 78.000000 99.000015
v -51.860844 80.000000 99.000015
v 45.998260 78.000000 101.000015
v 45.998260 80.000000 101.000015
v 45.998260 78.000000 99.000015
v 45.998260 80.000000 99.000015
vn -0.7071 -0.0000 -0.7071
vn 0.7071 -0.0000 0.7071
vn -0.0000 -1.0000 -0.0000
vn 0.7071 -0.0000 -0.7071
vn -0.7071 -0.0000 0.7071
vn -0.0000 -0.0000 -1.0000
vn -0.0000 -0.0000 1.0000
vt 0.625000 0.250000
vt 0.375000 0.500000
vt 0.375000 0.250000
vt 0.625000 0.750000
vt 0.375000 1.000000
vt 0.375000 0.750000
vt 0.125000 0.750000
vt 0.125000 0.500000
vt 0.625000 0.500000
vt 0.625000 1.000000
s 0
f 4/1/1 7/2/1 3/3/1
f 6/4/2 1/5/2 5/6/2
f 7/2/3 1/7/3 3/8/3
f 12/1/1 15/2/1 11/3/1
f 14/4/2 9/5/2 13/6/2
f 15/2/3 9/7/3 11/8/3
f 20/1/4 23/2/4 19/3/4
f 22/4/5 17/5/5 21/6/5
f 23/2/3 17/7/3 19/8/3
f 28/1/1 31/2/1 27/3/1
f 30/4/2 25/5/2 29/6/2
f 31/2/3 25/7/3 27/8/3
f 36/1/1 39/2/1 35/3/1
f 38/4/2 33/5/2 37/6/2
f 39/2/3 33/7/3 35/8/3
f 44/1/1 47/2/1 43/3/1
f 46/4/2 41/5/2 45/6/2
f 47/2/3 41/7/3 43/8/3
f 52/1/1 55/2/1 51/3/1
f 54/4/2 49/5/2 53/6/2
f 55/2/3 49/7/3 51/8/3
f 60/1/1 63/2/1 59/3/1
f 62/4/2 57/5/2 61/6/2
f 63/2/3 57/7/3 59/8/3
f 68/1/4 71/2/4 67/3/4
f 70/4/5 65/5/5 69/6/5
f 71/2/3 65/7/3 67/8/3
f 76/1/4 79/2/4 75/3/4
f 78/4/5 73/5/5 77/6/5
f 79/2/3 73/7/3 75/8/3
f 84/1/4 87/2/4 83/3/4
f 86/4/5 81/5/5 85/6/5
f 83/8/3 85/6/3 81/7/3
f 92/1/4 95/2/4 91/3/4
f 94/4/5 89/5/5 93/6/5
f 95/2/3 89/7/3 91/8/3
f 100/1/4 103/2/4 99/3/4
f 102/4/5 97/5/5 101/6/5
f 103/2/3 97/7/3 99/8/3
f 108/1/4 111/2/4 107/3/4
f 110/4/5 105/5/5 109/6/5
f 107/8/3 109/6/3 105/7/3
f 116/1/6 119/2/6 115/3/6
f 118/4/7 113/5/7 117/6/7
f 119/2/3 113/7/3 115/8/3
f 124/1/6 127/2/6 123/3/6
f 126/4/7 121/5/7 125/6/7
f 127/2/3 121/7/3 123/8/3
f 132/1/6 135/2/6 131/3/6
f 134/4/7 129/5/7 133/6/7
f 135/2/3 129/7/3 131/8/3
f 140/1/6 143/2/6 139/3/6
f 142/4/7 137/5/7 141/6/7
f 143/2/3 137/7/3 139/8/3
f 148/1/6 151/2/6 147/3/6
f 150/4/7 145/5/7 149/6/7
f 151/2/3 145/7/3 147/8/3
f 156/1/6 159/2/6 155/3/6
f 158/4/7 153/5/7 157/6/7
f 159/2/3 153/7/3 155/8/3
f 164/1/6 167/2/6 163/3/6
f 166/4/7 161/5/7 165/6/7
f 163/8/3 165/6/3 161/7/3
f 172/1/6 175/2/6 171/3/6
f 174/4/7 169/5/7 173/6/7
f 175/2/3 169/7/3 171/8/3
f 180/1/6 183/2/6 179/3/6
f 182/4/7 177/5/7 181/6/7
f 179/8/3 181/6/3 177/7/3
f 188/1/6 191/2/6 187/3/6
f 190/4/7 185/5/7 189/6/7
f 191/2/3 185/7/3 187/8/3
f 196/1/6 199/2/6 195/3/6
f 198/4/7 193/5/7 197/6/7
f 199/2/3 193/7/3 195/8/3
f 4/1/1 8/9/1 7/2/1
f 6/4/2 2/10/2 1/5/2
f 7/2/3 5/6/3 1/7/3
f 12/1/1 16/9/1 15/2/1
f 14/4/2 10/10/2 9/5/2
f 15/2/3 13/6/3 9/7/3
f 20/1/4 24/9/4 23/2/4
f 22/4/5 18/10/5 17/5/5
f 23/2/3 21/6/3 17/7/3
f 28/1/1 32/9/1 31/2/1
f 30/4/2 26/10/2 25/5/2
f 31/2/3 29/6/3 25/7/3
f 36/1/1 40/9/1 39/2/1
f 38/4/2 34/10/2 33/5/2
f 39/2/3 37/6/3 33/7/3
f 44/1/1 48/9/1 47/2/1
f 46/4/2 42/10/2 41/5/2
f 47/2/3 45/6/3 41/7/3
f 52/1/1 56/9/1 55/2/1
f 54/4/2 50/10/2 49/5/2
f 55/2/3 53/6/3 49/7/3
f 60/1/1 64/9/1 63/2/1
f 62/4/2 58/10/2 57/5/2
f 63/2/3 61/6/3 57/7/3
f 68/1/4 72/9/4 71/2/4
f 70/4/5 66/10/5 65/5/5
f 71/2/3 69/6/3 65/7/3
f 76/1/4 80/9/4 79/2/4
f 78/4/5 74/10/5 73/5/5
f 79/2/3 77/6/3 73/7/3
f 84/1/4 88/9/4 87/2/4
f 86/4/5 82/10/5 81/5/5
f 83/8/3 87/2/3 85/6/3
f 92/1/4 96/9/4 95/2/4
f 94/4/5 90/10/5 89/5/5
f 95/2/3 93/6/3 89/7/3
f 100/1/4 104/9/4 103/2/4
f 102/4/5 98/10/5 97/5/5
f 103/2/3 101/6/3 97/7/3
f 108/1/4 112/9/4 111/2/4
f 110/4/5 106/10/5 105/5/5
f 107/8/3 111/2/3 109/6/3
f 116/1/6 120/9/6 119/2/6
f 118/4/7 114/10/7 113/5/7
f 119/2/3 117/6/3 113/7/3
f 124/1/6 128/9/6 127/2/6
f 126/4/7 122/10/7 121/5/7
f 127/2/3 125/6/3 121/7/3
f 132/1/6 136/9/6 135/2/6
f 134/4/7 130/10/7 129/5/7
f 135/2/3 133/6/3 129/7/3
f 140/1/6 144/9/6 143/2/6
f 142/4/7 138/10/7 137/5/7
f 143/2/3 141/6/3 137/7/3
f 148/1/6 152/9/6 151/2/6
f 150/4/7 146/10/7 145/5/7
f 151/2/3 149/6/3 145/7/3
f 156/1/6 160/9/6 159/2/6
f 158/4/7 154/10/7 153/5/7
f 159/2/3 157/6/3 153/7/3
f 164/1/6 168/9/6 167/2/6
f 166/4/7 162/10/7 161/5/7
f 163/8/3 167/2/3 165/6/3
f 172/1/6 176/9/6 175/2/6
f 174/4/7 170/10/7 169/5/7
f 175/2/3 173/6/3 169/7/3
f 180/1/6 184/9/6 183/2/6
f 182/4/7 178/10/7 177/5/7
f 179/8/3 183/2/3 181/6/3
f 188/1/6 192/9/6 191/2/6
f 190/4/7 186/10/7 185/5/7
f 191/2/3 189/6/3 185/7/3
f 196/1/6 200/9/6 199/2/6
f 198/4/7 194/10/7 193/5/7
f 199/2/3 197/6/3 193/7/3
