# Blender 4.4.1
# www.blender.org
mtllib enemy_core7.mtl
o enemy_core7
v 0.219341 -0.565755 -0.118676
v 0.000000 -0.999188 0.000000
v 0.166366 -0.486954 -0.268212
v 0.182148 -0.867278 0.000000
v 0.000025 -0.599821 -0.298017
v 0.148810 -0.685731 -0.209497
v -0.025013 -0.579289 -0.296442
v -0.067763 -0.630370 -0.260966
v 0.144435 -0.486219 -0.287094
v 0.091957 -0.509236 -0.298017
v -0.165589 -0.879270 0.000000
v -0.130698 -0.723883 -0.183998
v -0.040252 -0.869057 0.086972
v -0.058372 -0.876232 0.082177
v -0.097690 -0.685731 -0.209497
v -0.081561 -0.646914 -0.249493
v 0.178881 -0.495327 -0.270705
v 0.218595 -0.531840 -0.241906
v 0.264833 -0.574046 -0.209497
v 0.172070 -0.489188 -0.275597
v 0.000872 -0.852885 0.097781
v 0.325117 -0.651968 -0.082861
v 0.336601 -0.667170 -0.057431
v 0.172736 -0.816025 0.059144
v 0.067830 -0.856309 0.095492
v 0.021608 -0.853621 0.097289
v 0.333117 -0.679009 -0.048904
v 0.313020 -0.747008 0.000000
v -0.025013 -0.579289 -0.296442
v -0.025013 -0.579289 -0.296442
v -0.067763 -0.630370 -0.260966
v 0.144435 -0.486219 -0.287094
v 0.091957 -0.509236 -0.298017
v 0.091957 -0.509236 -0.298017
v -0.097690 -0.685731 -0.209497
v -0.097690 -0.685731 -0.209497
v -0.081561 -0.646914 -0.249493
v -0.081561 -0.646914 -0.249493
v -0.130698 -0.723883 -0.183998
v -0.130698 -0.723883 -0.183998
v -0.165589 -0.879270 0.000000
v -0.165589 -0.879270 0.000000
v -0.058372 -0.876232 0.082177
v -0.058372 -0.876232 0.082177
v -0.040252 -0.869057 0.086972
v 0.178881 -0.495327 -0.270705
v 0.218595 -0.531840 -0.241906
v 0.264833 -0.574046 -0.209497
v 0.264833 -0.574046 -0.209497
v 0.172070 -0.489188 -0.275597
v 0.000025 -0.599821 -0.298017
v 0.000025 -0.599821 -0.298017
v 0.000025 -0.599821 -0.298017
v 0.000872 -0.852885 0.097781
v 0.325117 -0.651968 -0.082861
v 0.325117 -0.651968 -0.082861
v 0.336601 -0.667170 -0.057431
v 0.067830 -0.856309 0.095492
v 0.067830 -0.856309 0.095492
v 0.021608 -0.853621 0.097289
v 0.172736 -0.816025 0.059144
v 0.172736 -0.816025 0.059144
v 0.313020 -0.747008 0.000000
v 0.313020 -0.747008 0.000000
v 0.333117 -0.679009 -0.048904
v 0.000000 -0.999188 0.000000
v 0.000000 -0.999188 0.000000
v 0.000000 -0.999188 0.000000
v 0.000000 -0.999188 0.000000
v 0.000000 -0.999188 0.000000
v 0.182148 -0.867278 0.000000
v 0.182148 -0.867278 0.000000
v 0.182148 -0.867278 0.000000
v 0.148810 -0.685731 -0.209497
v 0.148810 -0.685731 -0.209497
v 0.148810 -0.685731 -0.209497
v 0.148810 -0.685731 -0.209497
v 0.148810 -0.685731 -0.209497
vn -0.4304 0.7294 0.5317
vn -0.4308 0.7312 0.5289
vn -0.4297 0.7284 0.5337
vn -0.0000 -0.5557 -0.8314
vn 0.5721 0.7951 0.2013
vn 0.1716 0.9718 -0.1615
vn -0.4272 0.7286 0.5353
vn 0.0399 0.5819 0.8123
vn -0.4591 -0.6339 0.6224
vn 0.4591 -0.6339 0.6224
vn 0.5424 -0.5902 0.5978
vn -0.0000 -0.7176 -0.6964
vn -0.4591 -0.6339 -0.6224
vn 0.0649 0.5700 0.8191
vn -0.3308 -0.3357 -0.8820
vn 0.4591 -0.6339 -0.6224
vn 0.5424 -0.5902 -0.5978
vn -0.0000 -0.5557 0.8314
vn 0.5721 0.7916 0.2147
vn 0.5486 -0.5699 -0.6118
vn 0.3308 -0.3358 -0.8819
vn 0.3282 -0.3348 -0.8833
vn 0.3264 -0.3342 -0.8842
vn 0.3194 -0.3318 -0.8877
vn -0.0343 0.0348 -0.9988
vn -0.5430 0.5907 0.5968
vn 0.0650 0.5699 0.8192
vn 0.0650 0.5699 0.8191
vn 0.0003 -0.5555 0.8315
vn 0.5726 0.7914 0.2142
vn 0.5682 0.7935 0.2177
vn 0.5723 0.7915 0.2144
vn 0.5720 0.7916 0.2148
vt 1.000000 0.351823
vt 0.733984 0.000000
vt 1.000000 0.000000
vt 0.373915 0.088272
vt 0.000000 0.000000
vt 0.237365 0.000000
vt 0.892071 0.266001
vt 0.255189 0.000000
vt 1.000000 0.266016
vt 1.000000 0.907813
vt 1.000000 1.000000
vt 0.968777 0.968777
vt 0.907813 0.907813
vt 1.000000 0.762635
vt 0.255189 0.255189
vt 0.338745 0.000000
vt 0.661255 0.000000
vt 0.595893 0.595893
vt 1.000000 0.677936
vt 1.000000 0.595893
vt 0.846610 0.364722
vt 0.322064 0.000000
vt 0.770698 0.670695
vt 0.351823 0.351823
vt 0.839803 0.287029
vt 0.449195 0.203556
vt 0.266626 0.024192
vt 0.976414 0.274260
vt 0.732913 0.108194
vt 0.765490 0.765490
vt 0.941157 0.542632
vt 0.292632 0.047276
vt 0.510726 0.329721
vt 1.000000 0.968777
s 0
f 29/1/1 31/2/1 3/3/1
f 33/4/2 3/5/2 32/6/2
f 35/7/3 45/8/3 31/9/3
s 1
f 40/5/4 74/5/4 68/5/4
s 0
f 50/10/5 3/11/5 46/12/5
f 3/11/6 50/13/6 32/14/6
f 1/3/7 45/15/7 54/16/7
f 54/17/8 60/18/8 1/5/8
s 1
f 44/5/9 42/5/9 66/5/9
f 71/5/10 59/5/10 67/5/10
f 72/5/11 63/5/11 62/5/11
f 77/5/12 38/5/12 52/5/12
f 69/5/13 11/5/13 12/5/13
s 0
f 57/19/14 60/20/14 24/21/14
s 1
f 51/5/15 8/5/15 30/5/15
f 75/5/16 73/5/16 2/5/16
f 56/5/17 27/5/17 4/5/17
f 14/5/18 25/5/18 21/5/18
s 0
f 57/22/19 47/23/19 3/11/19
s 1
f 49/5/20 22/5/20 78/5/20
f 9/5/21 17/5/21 6/5/22
f 18/5/23 19/5/24 6/5/22
f 10/5/25 5/5/25 7/5/25
s 0
f 33/4/2 29/24/2 3/5/2
f 35/7/3 39/25/3 41/26/3
f 41/26/3 43/27/3 45/8/3
f 45/8/3 3/3/3 31/9/3
f 31/9/3 37/28/3 35/7/3
f 35/7/3 41/26/3 45/8/3
s 1
f 40/5/4 36/5/4 74/5/4
s 0
f 1/3/7 3/11/7 45/15/7
s 1
f 71/5/10 61/5/10 59/5/10
f 77/5/12 15/5/12 38/5/12
s 0
f 64/29/26 65/30/26 57/19/26
f 57/19/27 1/3/27 60/20/27
f 60/20/28 58/31/28 24/21/28
f 24/21/14 64/29/14 57/19/14
s 1
f 51/5/15 16/5/15 8/5/15
f 4/5/17 76/5/17 56/5/17
f 56/5/17 23/5/17 27/5/17
f 27/5/17 28/5/17 4/5/17
f 21/5/18 13/5/29 14/5/18
f 14/5/18 70/5/18 25/5/18
f 25/5/18 26/5/18 21/5/18
s 0
f 3/11/30 1/5/30 57/22/30
f 57/22/31 55/32/31 48/33/31
f 47/23/32 46/34/32 3/11/32
f 57/22/33 48/33/33 47/23/33
s 1
f 53/5/21 34/5/21 9/5/21
f 9/5/21 20/5/21 17/5/21
f 17/5/21 18/5/23 6/5/22
f 6/5/22 53/5/21 9/5/21
