{
	"asset":{
		"generator":"Khronos glTF Blender I/O v4.4.56",
		"version":"2.0"
	},
	"scene":0,
	"scenes":[
		{
			"name":"Scene",
			"nodes":[
				7
			]
		}
	],
	"nodes":[
		{
			"name":"Cylinder001",
			"rotation":[
				-0.7071068286895752,
				0,
				0,
				0.7071068286895752
			],
			"scale":[
				2.5399999618530273,
				2.5399997234344482,
				2.5399997234344482
			],
			"translation":[
				-18.622379302978516,
				70.44841003417969,
				38.22603988647461
			]
		},
		{
			"mesh":0,
			"name":"Cylinder002_Material #26_0"
		},
		{
			"children":[
				1
			],
			"name":"Object_8",
			"translation":[
				0,
				0,
				-5.019686222076416
			]
		},
		{
			"children":[
				2
			],
			"name":"Cylinder002",
			"rotation":[
				0,
				-0.7071066498756409,
				0,
				0.70710688829422
			],
			"scale":[
				2.5399997234344482,
				2.5399997234344482,
				2.5399999618530273
			],
			"translation":[
				12.045856475830078,
				89.85948181152344,
				-8.283220291137695
			]
		},
		{
			"name":"Sphere001",
			"rotation":[
				0,
				-0.7071066498756409,
				0,
				0.70710688829422
			],
			"scale":[
				2.5399997234344482,
				2.5399997234344482,
				2.5399999618530273
			],
			"translation":[
				0,
				73.09591674804688,
				-9.011822700500488
			]
		},
		{
			"children":[
				0,
				3,
				4
			],
			"name":"RootNode"
		},
		{
			"children":[
				5
			],
			"name":"64f46592fd63480399990943332b0bc1.fbx",
			"rotation":[
				0.70710688829422,
				0,
				0,
				0.7071066498756409
			],
			"scale":[
				0.009999999776482582,
				0.010000000707805157,
				0.010000000707805157
			]
		},
		{
			"children":[
				6
			],
			"name":"Sketchfab_model",
			"rotation":[
				-0.70710688829422,
				0,
				0,
				0.7071066498756409
			]
		}
	],
	"materials":[
		{
			"doubleSided":true,
			"name":"Material_26",
			"pbrMetallicRoughness":{
				"baseColorTexture":{
					"index":0
				},
				"metallicFactor":0,
				"roughnessFactor":0.6000000238418579
			}
		}
	],
	"meshes":[
		{
			"name":"Cylinder002_Material #26_0",
			"primitives":[
				{
					"attributes":{
						"POSITION":0,
						"NORMAL":1,
						"TEXCOORD_0":2
					},
					"indices":3,
					"material":0
				}
			]
		}
	],
	"textures":[
		{
			"sampler":0,
			"source":0
		}
	],
	"images":[
		{
			"mimeType":"image/png",
			"name":"Material_25_baseColor",
			"uri":"Material_25_baseColor.png"
		}
	],
	"accessors":[
		{
			"bufferView":0,
			"componentType":5126,
			"count":208,
			"max":[
				4.921259880065918,
				32.6658935546875,
				10.0393705368042
			],
			"min":[
				-4.921259880065918,
				-3.8771963119506836,
				0
			],
			"type":"VEC3"
		},
		{
			"bufferView":1,
			"componentType":5126,
			"count":208,
			"type":"VEC3"
		},
		{
			"bufferView":2,
			"componentType":5126,
			"count":208,
			"type":"VEC2"
		},
		{
			"bufferView":3,
			"componentType":5123,
			"count":768,
			"type":"SCALAR"
		}
	],
	"bufferViews":[
		{
			"buffer":0,
			"byteLength":2496,
			"byteOffset":0,
			"target":34962
		},
		{
			"buffer":0,
			"byteLength":2496,
			"byteOffset":2496,
			"target":34962
		},
		{
			"buffer":0,
			"byteLength":1664,
			"byteOffset":4992,
			"target":34962
		},
		{
			"buffer":0,
			"byteLength":1536,
			"byteOffset":6656,
			"target":34963
		}
	],
	"samplers":[
		{
			"magFilter":9729,
			"minFilter":9987
		}
	],
	"buffers":[
		{
			"byteLength":8192,
			"uri":"leverBou.bin"
		}
	]
}
