mtllib star_garden_glass_panel.mtl
o star_garden_glass_panel
v -0.500000 0.500000 0.080000
v 0.500000 0.500000 0.080000
v 0.500000 0.500000 -0.080000
v -0.500000 0.500000 -0.080000
v -0.500000 -0.500000 -0.080000
v 0.500000 -0.500000 -0.080000
v 0.500000 -0.500000 0.080000
v -0.500000 -0.500000 0.080000
v -0.500000 0.500000 -0.080000
v 0.500000 0.500000 -0.080000
v 0.500000 -0.500000 -0.080000
v -0.500000 -0.500000 -0.080000
v 0.500000 0.500000 0.080000
v -0.500000 0.500000 0.080000
v -0.500000 -0.500000 0.080000
v 0.500000 -0.500000 0.080000
v -0.500000 0.500000 0.080000
v -0.500000 0.500000 -0.080000
v -0.500000 -0.500000 -0.080000
v -0.500000 -0.500000 0.080000
v 0.500000 0.500000 -0.080000
v 0.500000 0.500000 0.080000
v 0.500000 -0.500000 0.080000
v 0.500000 -0.500000 -0.080000
vt -0.040000 0.006400
vt 0.040000 0.006400
vt 0.040000 -0.006400
vt -0.040000 -0.006400
vt -0.040000 -0.006400
vt 0.040000 -0.006400
vt 0.040000 0.006400
vt -0.040000 0.006400
vt -0.040000 0.040000
vt 0.040000 0.040000
vt 0.040000 -0.040000
vt -0.040000 -0.040000
vt 0.040000 0.040000
vt -0.040000 0.040000
vt -0.040000 -0.040000
vt 0.040000 -0.040000
vt 0.006400 0.040000
vt -0.006400 0.040000
vt -0.006400 -0.040000
vt 0.006400 -0.040000
vt -0.006400 0.040000
vt 0.006400 0.040000
vt 0.006400 -0.040000
vt -0.006400 -0.040000
vn -0.000000 1.000000 0.000000
vn 0.000000 -1.000000 0.000000
vn 0.000000 0.000000 -1.000000
vn 0.000000 0.000000 1.000000
vn -1.000000 0.000000 -0.000000
vn 1.000000 0.000000 -0.000000
usemtl garden_mechanism
f 1/1/1 2/2/1 3/3/1 4/4/1
usemtl ruin_cap
f 5/5/2 6/6/2 7/7/2 8/8/2
f 9/9/3 10/10/3 11/11/3 12/12/3
f 13/13/4 14/14/4 15/15/4 16/16/4
f 17/17/5 18/18/5 19/19/5 20/20/5
f 21/21/6 22/22/6 23/23/6 24/24/6
