# Blender 4.4.1
# www.blender.org
mtllib map_wall_01.mtl
o 外側壁
v 33.267155 -50.000000 107.468811
v -39.505684 -50.000000 107.504326
v 33.267155 80.000000 107.468811
v 93.333076 -50.000000 66.383858
v 93.333076 80.000000 66.383858
v -33.267155 -50.000000 -107.468811
v -93.333076 -50.000000 -66.383858
v -33.267155 80.000000 -107.468811
v 39.505684 -50.000000 -107.504326
v -93.333076 80.000000 -66.383858
v -117.748940 80.000000 0.057465
v -97.188713 80.000000 66.476845
v -39.505684 80.000000 107.504326
v -97.188713 -50.000000 66.476845
v -117.748940 -50.000000 0.057465
v 39.505684 80.000000 -107.504326
v 97.188713 -50.000000 -66.476845
v 97.188713 80.000000 -66.476845
v 117.748940 -50.000000 -0.057465
v 117.748940 80.000000 -0.057465
v 10.000000 15.687441 107.480164
v -2.734441 15.687441 107.486382
v 10.000000 38.436001 107.480164
v 10.000000 45.687439 107.480164
v -10.000000 15.687441 107.489929
v -10.000000 45.687439 107.489929
vn -0.0000 1.0000 -0.0000
vn -0.0005 -0.0000 -1.0000
vn -0.5646 -0.0000 -0.8254
vn 0.5646 -0.0000 0.8254
vn 0.0005 -0.0000 1.0000
vn 0.9386 -0.0000 0.3449
vn -0.0000 -1.0000 -0.0000
vn 0.5796 -0.0000 -0.8149
vn 0.9553 -0.0000 -0.2957
vn -0.5796 -0.0000 0.8149
vn -0.9553 -0.0000 0.2957
vn -0.9386 -0.0000 -0.3449
vt -0.000000 0.500000
vt 0.500000 0.500000
vt 0.900000 0.500000
vt 0.968028 0.752644
vt 1.000000 0.500000
vt 0.950529 0.752644
vt 0.100000 1.000000
vt -0.000000 1.000000
vt 0.100000 0.500000
vt 0.600000 0.500000
vt 0.600000 1.000000
vt 0.500000 1.000000
vt 0.400000 0.500000
vt 0.700000 1.000000
vt 0.391068 0.055836
vt 0.478254 0.324164
vt 0.478254 0.175836
vt 0.250000 0.010000
vt 0.250000 0.490000
vt 0.391068 0.444164
vt 1.000000 1.000000
vt 0.940545 0.868029
vt 0.900000 1.000000
vt 0.800000 0.500000
vt 0.800000 1.000000
vt 0.700000 0.500000
vt 0.400000 1.000000
vt 0.300000 0.500000
vt 0.300000 1.000000
vt 0.200000 0.500000
vt 0.200000 1.000000
vt 0.021746 0.324164
vt 0.108932 0.055836
vt 0.021746 0.175836
vt 0.108932 0.444164
vt 0.968028 0.840138
vt 0.940545 0.752644
vt 0.968028 0.868029
s 0
f 1/1/1 6/2/1 2/3/1
f 21/4/2 1/5/2 22/6/2
f 5/7/3 1/1/3 3/8/3
f 4/9/1 6/2/1 1/1/1
f 5/7/3 4/9/3 1/1/3
f 7/10/1 2/3/1 6/2/1
f 10/11/4 7/10/4 6/2/4
f 10/11/4 6/2/4 8/12/4
f 8/12/5 6/2/5 9/13/5
f 6/2/1 4/9/1 9/13/1
f 11/14/6 7/10/6 10/11/6
f 10/15/7 12/16/7 11/17/7
f 8/18/7 3/19/7 10/15/7
f 12/16/7 10/15/7 13/20/7
f 13/20/7 10/15/7 3/19/7
f 3/21/2 26/22/2 13/23/2
f 13/23/8 2/3/8 14/24/8
f 13/23/8 14/24/8 12/25/8
f 2/3/1 15/26/1 14/24/1
f 12/25/9 14/24/9 15/26/9
f 11/14/6 15/26/6 7/10/6
f 15/26/1 2/3/1 7/10/1
f 8/12/5 9/13/5 16/27/5
f 16/27/10 9/13/10 17/28/10
f 9/13/1 4/9/1 17/28/1
f 16/27/10 17/28/10 18/29/10
f 18/29/11 17/28/11 19/30/11
f 17/28/1 4/9/1 19/30/1
f 18/29/11 19/30/11 20/31/11
f 20/31/12 19/30/12 4/9/12
f 20/32/7 16/33/7 18/34/7
f 20/31/12 4/9/12 5/7/12
f 5/35/7 16/33/7 20/32/7
f 16/33/7 3/19/7 8/18/7
f 3/19/7 16/33/7 5/35/7
f 22/6/2 1/5/2 2/3/2
f 1/5/2 21/4/2 3/21/2
f 3/21/2 21/4/2 23/36/2
f 2/3/2 25/37/2 22/6/2
f 2/3/2 13/23/2 25/37/2
f 25/37/2 13/23/2 26/22/2
f 24/38/2 3/21/2 23/36/2
f 26/22/2 3/21/2 24/38/2
f 12/25/9 15/26/9 11/14/9
