# Blender 4.4.1
# www.blender.org
mtllib os.mtl
o Cube
v 0.000000 0.964776 0.000000
v 0.000000 -0.367105 0.000000
v 0.000000 -1.009784 -4.389245
v 0.000000 -1.156600 4.389245
v 0.177410 -0.000000 0.000000
v -0.177410 -0.000000 0.000000
vn -0.9798 -0.1802 -0.0871
vn 0.9803 -0.1803 0.0811
vn -0.9803 -0.1803 0.0811
vn 0.9798 -0.1802 -0.0871
vn 0.8976 0.4338 0.0780
vn -0.8986 0.4342 -0.0636
vn 0.8986 0.4342 -0.0636
vn -0.8976 0.4338 0.0780
vt 0.498456 0.496970
vt -0.003407 0.615164
vt 0.500279 0.385582
vt 0.494345 0.496527
vt -0.003408 0.614721
vt 0.492522 0.385139
vt 0.996209 0.615164
vt 0.996209 0.614721
vt 0.495040 0.542779
vt 0.497762 0.543222
s 0
usemtl 
f 5/1/1 4/2/1 1/3/1
f 6/4/2 3/5/2 1/6/2
f 3/7/3 5/1/3 1/3/3
f 4/8/4 6/4/4 1/6/4
f 2/9/5 6/4/5 4/8/5
f 2/10/6 5/1/6 3/7/6
f 2/9/7 3/5/7 6/4/7
f 2/10/8 4/2/8 5/1/8
o Cube.001
v 0.003847 1.003075 -0.001509
v 0.003847 -0.377432 -0.001509
v 0.003847 -1.043575 -4.551002
v 0.003847 -1.195750 4.547985
v 0.187734 0.003076 -0.001509
v -0.180039 0.003076 -0.001509
vn 0.9798 0.1802 0.0871
vn -0.9803 0.1803 -0.0811
vn 0.9803 0.1803 -0.0811
vn -0.9798 0.1802 0.0871
vn -0.8976 -0.4338 -0.0780
vn 0.8986 -0.4342 0.0636
vn -0.8986 -0.4342 0.0636
vn 0.8976 -0.4338 -0.0780
vt 0.494345 0.496409
vt 0.492522 0.385021
vt 0.996209 0.614603
vt 0.498456 0.496223
vt 0.500279 0.384836
vt 0.996209 0.614418
vt -0.003408 0.614603
vt -0.003407 0.614418
vt 0.497762 0.542476
vt 0.495040 0.542661
s 0
usemtl マテリアル
f 11/11/9 7/12/9 10/13/9
f 12/14/10 7/15/10 9/16/10
f 9/17/11 7/12/11 11/11/11
f 10/18/12 7/15/12 12/14/12
f 8/19/13 10/18/13 12/14/13
f 8/20/14 9/17/14 11/11/14
f 8/19/15 12/14/15 9/16/15
f 8/20/16 11/11/16 10/13/16
