# Blender 4.4.1
# www.blender.org
mtllib sword.mtl
o 立方体
v 0.132178 -0.055085 0.017000
v 0.132178 0.055085 0.017000
v 0.132178 -0.055085 -0.017000
v 0.132178 0.055085 -0.017000
v 0.252178 -0.000000 0.017000
v 0.252178 -0.000000 -0.017000
v 0.132178 -0.000000 0.017000
v 0.132178 -0.000000 -0.017000
v 0.192178 -0.055085 -0.017000
v 0.192178 0.055085 -0.017000
v 0.192178 -0.055085 0.017000
v 0.192178 0.055085 0.017000
v 0.192178 -0.000000 0.017000
v 0.192178 -0.000000 -0.017000
v -0.131468 0.000000 -0.016322
v 0.117300 -0.000000 -0.016322
v -0.131468 -0.004923 -0.016008
v 0.117300 -0.004923 -0.016008
v -0.131468 -0.009656 -0.015079
v 0.117300 -0.009656 -0.015079
v -0.131468 -0.014018 -0.013571
v 0.117300 -0.014018 -0.013571
v -0.131468 -0.017842 -0.011541
v 0.117300 -0.017842 -0.011541
v -0.131468 -0.020980 -0.009068
v 0.117300 -0.020980 -0.009068
v -0.131468 -0.023311 -0.006246
v 0.117300 -0.023311 -0.006246
v -0.131468 -0.024747 -0.003184
v 0.117300 -0.024747 -0.003184
v -0.131468 -0.025232 0.000000
v 0.117300 -0.025232 0.000000
v -0.131468 -0.024747 0.003184
v 0.117300 -0.024747 0.003184
v -0.131468 -0.023311 0.006246
v 0.117300 -0.023311 0.006246
v -0.131468 -0.020980 0.009068
v 0.117300 -0.020980 0.009068
v -0.131468 -0.017842 0.011541
v 0.117300 -0.017842 0.011541
v -0.131468 -0.014018 0.013571
v 0.117300 -0.014018 0.013571
v -0.131468 -0.009656 0.015079
v 0.117300 -0.009656 0.015079
v -0.131468 -0.004923 0.016008
v 0.117300 -0.004923 0.016008
v -0.131468 0.000000 0.016322
v 0.117300 -0.000000 0.016322
v -0.131468 0.004923 0.016008
v 0.117300 0.004923 0.016008
v -0.131468 0.009656 0.015079
v 0.117300 0.009656 0.015079
v -0.131468 0.014018 0.013571
v 0.117300 0.014018 0.013571
v -0.131468 0.017842 0.011541
v 0.117300 0.017842 0.011541
v -0.131468 0.020980 0.009068
v 0.117300 0.020980 0.009068
v -0.131468 0.023311 0.006246
v 0.117300 0.023311 0.006246
v -0.131468 0.024747 0.003184
v 0.117300 0.024747 0.003184
v -0.131468 0.025232 0.000000
v 0.117300 0.025232 0.000000
v -0.131468 0.024747 -0.003184
v 0.117300 0.024747 -0.003184
v -0.131468 0.023311 -0.006246
v 0.117300 0.023311 -0.006246
v -0.131468 0.020980 -0.009068
v 0.117300 0.020980 -0.009068
v -0.131468 0.017842 -0.011541
v 0.117300 0.017842 -0.011541
v -0.131468 0.014018 -0.013571
v 0.117300 0.014018 -0.013571
v -0.131468 0.009656 -0.015079
v 0.117300 0.009656 -0.015079
v -0.131468 0.004923 -0.016008
v 0.117300 0.004923 -0.016008
v 0.192417 -0.050000 0.000000
v 0.192417 -0.025000 0.014666
v 0.767065 -0.050000 0.000000
v 0.192417 -0.025000 -0.014666
v 0.767065 -0.025000 0.014666
v 0.836137 0.000000 0.014666
v 0.767065 0.000000 0.014666
v 0.767065 0.025000 0.014666
v 0.192417 0.000000 0.014666
v 0.192417 0.025000 0.014666
v 0.192417 0.050000 0.000000
v 0.767065 0.050000 0.000000
v 0.767065 0.025000 -0.014666
v 0.892610 0.000000 0.000000
v 0.836137 0.000000 -0.014666
v 0.767065 -0.025000 -0.014666
v 0.767065 0.000000 -0.014666
v 0.192417 0.000000 -0.014666
v 0.192417 0.025000 -0.014666
v 0.111603 -0.125241 0.020888
v 0.111603 -0.125241 -0.020888
v 0.111603 0.000000 0.020888
v 0.133183 -0.125241 0.020888
v 0.133183 0.000000 0.020888
v 0.133183 -0.125241 -0.020888
v 0.154763 -0.125241 -0.020888
v 0.133183 0.000000 -0.020888
v 0.111603 0.000000 -0.020888
v 0.154763 -0.125241 0.020888
v 0.111603 0.125241 -0.020888
v 0.111603 0.125241 0.020888
v 0.133183 0.125241 -0.020888
v 0.154763 0.125241 -0.020888
v 0.154763 0.125241 0.020888
v 0.133183 0.125241 0.020888
v -0.143541 0.000000 -0.019094
v -0.143541 -0.006126 -0.018727
v -0.120667 -0.000000 -0.019094
v -0.143541 0.006126 -0.018727
v -0.120667 0.006126 -0.018727
v -0.143541 0.000000 0.019094
v -0.143541 -0.006126 0.018727
v -0.143541 -0.012016 0.017641
v -0.120667 -0.006126 0.018727
v -0.143541 -0.012016 -0.017641
v -0.120667 -0.012016 -0.017641
v -0.143541 -0.017445 -0.015876
v -0.120667 -0.006126 -0.018727
v -0.120667 -0.000000 0.019094
v -0.120667 0.006126 0.018727
v -0.143541 0.006126 0.018727
v -0.143541 0.012016 0.017641
v -0.120667 0.012016 0.017641
v -0.120667 0.017445 0.015876
v -0.143541 0.017445 0.015876
v -0.120667 0.012016 -0.017641
v -0.120667 0.017445 -0.015876
v -0.120667 0.022203 -0.013501
v -0.143541 0.017445 -0.015876
v -0.143541 0.012016 -0.017641
v -0.143541 0.022203 -0.013501
v -0.143541 0.026108 -0.010608
v -0.120667 0.026108 -0.010608
v -0.143541 0.022203 0.013501
v -0.120667 0.022203 0.013501
v -0.143541 0.026108 0.010608
v -0.120667 0.026108 0.010608
v -0.143541 0.029010 0.007307
v -0.120667 0.029010 0.007307
v -0.143541 0.030797 0.003725
v -0.143541 0.029010 -0.007307
v -0.143541 0.030797 -0.003725
v -0.120667 0.029010 -0.007307
v -0.120667 0.030797 -0.003725
v -0.120667 0.031400 0.000000
v -0.120667 0.030797 0.003725
v -0.143541 0.031400 0.000000
v -0.120667 -0.017445 -0.015876
v -0.143541 -0.022203 -0.013501
v -0.143541 -0.022203 0.013501
v -0.143541 -0.017445 0.015876
v -0.120667 -0.017445 0.015876
v -0.120667 -0.022203 0.013501
v -0.120667 -0.026108 0.010608
v -0.120667 -0.022203 -0.013501
v -0.120667 -0.026108 -0.010608
v -0.143541 -0.026108 -0.010608
v -0.143541 -0.029010 -0.007307
v -0.143541 -0.026108 0.010608
v -0.143541 -0.029010 0.007307
v -0.120667 -0.029010 0.007307
v -0.120667 -0.030797 0.003725
v -0.120667 -0.030797 -0.003725
v -0.120667 -0.029010 -0.007307
v -0.143541 -0.030797 -0.003725
v -0.143541 -0.031400 0.000000
v -0.143541 -0.030797 0.003725
v -0.120667 -0.031400 0.000000
v -0.120667 -0.012016 0.017641
vn -0.0000 -0.0000 -1.0000
vn -0.0000 -0.0000 1.0000
vn 0.6763 -0.7366 -0.0000
vn -0.0000 1.0000 -0.0000
vn 0.6763 0.7366 -0.0000
vn -0.0000 -1.0000 -0.0000
vn -0.0000 -0.1283 -0.9917
vn -0.0000 -0.2603 -0.9655
vn -0.0000 -0.3990 -0.9169
vn -0.0000 -0.5462 -0.8377
vn -0.0000 -0.6989 -0.7152
vn -0.0000 -0.8448 -0.5350
vn -0.0000 -0.9569 -0.2906
vn -0.0000 -0.9569 0.2906
vn -0.0000 -0.8448 0.5350
vn -0.0000 -0.6989 0.7152
vn -0.0000 -0.5462 0.8377
vn -0.0000 -0.3990 0.9169
vn -0.0000 -0.2603 0.9655
vn -0.0000 -0.1283 0.9917
vn -0.0000 0.1283 0.9917
vn -0.0000 0.2603 0.9655
vn -0.0000 0.3990 0.9169
vn -0.0000 0.5462 0.8377
vn -0.0000 0.6989 0.7152
vn -0.0000 0.8448 0.5350
vn -0.0000 0.9569 0.2906
vn -0.0000 0.9569 -0.2906
vn -0.0000 0.8448 -0.5350
vn -0.0000 0.6989 -0.7152
vn -0.0000 0.5462 -0.8377
vn -0.0000 0.3990 -0.9169
vn -0.0000 0.2603 -0.9655
vn -0.0000 0.1283 -0.9917
vn -0.0000 -0.5060 0.8625
vn -0.0000 -0.5060 -0.8625
vn 0.1801 -0.4977 0.8484
vn -0.0000 0.5060 0.8625
vn 0.1801 0.4977 0.8484
vn -0.0000 0.5060 -0.8625
vn 0.1801 0.4977 -0.8484
vn 0.2126 0.5337 -0.8185
vn 0.2126 0.5337 0.8185
vn 0.1801 -0.4977 -0.8484
vn 0.2126 -0.5337 -0.8185
vn 0.2126 -0.5337 0.8185
vn -1.0000 -0.0000 -0.0000
vn 0.9855 0.1698 -0.0000
vn 0.9855 -0.1698 -0.0000
vn -0.0000 -0.1208 -0.9927
vn -0.0000 0.1208 -0.9927
vn -0.0000 -0.2458 0.9693
vn -0.0000 -0.1208 0.9927
vn -0.0000 -0.2458 -0.9693
vn -0.0000 -0.3789 -0.9255
vn 1.0000 -0.0000 -0.0000
vn -0.0000 0.1208 0.9927
vn -0.0000 0.2458 0.9693
vn -0.0000 0.3789 0.9255
vn -0.0000 0.5229 -0.8524
vn -0.0000 0.3789 -0.9255
vn -0.0000 0.2458 -0.9693
vn -0.0000 0.6770 -0.7360
vn -0.0000 0.5229 0.8524
vn -0.0000 0.6770 0.7360
vn -0.0000 0.8299 0.5579
vn -0.0000 0.9518 0.3066
vn -0.0000 0.9518 -0.3066
vn -0.0000 0.8299 -0.5579
vn -0.0000 -0.5229 -0.8524
vn -0.0000 -0.5229 0.8524
vn -0.0000 -0.3789 0.9255
vn -0.0000 -0.6770 0.7360
vn -0.0000 -0.6770 -0.7360
vn -0.0000 -0.8299 -0.5579
vn -0.0000 -0.8299 0.5579
vn -0.0000 -0.9518 0.3066
vn -0.0000 -0.9518 -0.3066
vt 0.658047 0.426317
vt 0.658047 0.348310
vt 0.743015 0.426317
vt 0.658047 0.300161
vt 0.573079 0.222154
vt 0.658047 0.222154
vt 0.773393 0.095998
vt 0.658047 0.144146
vt 0.658047 0.095998
vt 0.573079 0.144146
vt 0.573079 0.348310
vt 0.658047 0.017990
vt 0.743015 0.017990
vt 0.573079 0.017990
vt 0.573079 0.095998
vt 0.743015 0.222154
vt 0.773393 0.300161
vt 0.773393 0.348310
vt 0.573079 0.426317
vt 0.573079 0.300161
vt 0.773393 0.144146
vt 0.731872 0.462298
vt 0.738044 0.773575
vt 0.731872 0.773575
vt 0.573079 0.462298
vt 0.579115 0.773575
vt 0.573079 0.773575
vt 0.579115 0.462298
vt 0.584890 0.773575
vt 0.584890 0.462298
vt 0.590307 0.773575
vt 0.590307 0.462298
vt 0.595306 0.773575
vt 0.595306 0.462298
vt 0.599887 0.773575
vt 0.599887 0.462298
vt 0.604118 0.773575
vt 0.604118 0.462298
vt 0.608148 0.773575
vt 0.608148 0.462298
vt 0.612179 0.773575
vt 0.612179 0.462298
vt 0.616410 0.773575
vt 0.616410 0.462298
vt 0.620990 0.773575
vt 0.620990 0.462298
vt 0.625990 0.773575
vt 0.631406 0.462298
vt 0.631406 0.773575
vt 0.637182 0.773575
vt 0.637182 0.462298
vt 0.643218 0.773575
vt 0.643218 0.462298
vt 0.649390 0.773575
vt 0.649390 0.462298
vt 0.655562 0.773575
vt 0.655562 0.462298
vt 0.661597 0.773575
vt 0.661597 0.462298
vt 0.667373 0.773575
vt 0.672790 0.462298
vt 0.672790 0.773575
vt 0.677789 0.773575
vt 0.677789 0.462298
vt 0.682369 0.773575
vt 0.682369 0.462298
vt 0.686601 0.773575
vt 0.686601 0.462298
vt 0.690631 0.773575
vt 0.690631 0.462298
vt 0.694661 0.773575
vt 0.694661 0.462298
vt 0.698893 0.773575
vt 0.698893 0.462298
vt 0.703473 0.773575
vt 0.703473 0.462298
vt 0.708472 0.773575
vt 0.708472 0.462298
vt 0.713889 0.773575
vt 0.713889 0.462298
vt 0.719665 0.773575
vt 0.719665 0.462298
vt 0.725700 0.773575
vt 0.725700 0.462298
vt 0.738044 0.462298
vt 0.625990 0.462298
vt 0.667373 0.462298
vt 0.086602 0.184867
vt 0.085941 0.981992
vt 0.045388 0.981956
vt 0.306062 0.981972
vt 0.346181 0.182613
vt 0.346380 0.981962
vt 0.046337 0.182589
vt 0.120908 0.982010
vt 0.121155 0.096376
vt 0.155664 0.184894
vt 0.121133 0.185184
vt 0.155875 0.982010
vt 0.195994 0.182651
vt 0.196193 0.982000
vt 0.236312 0.182641
vt 0.181323 0.067783
vt 0.224353 0.156181
vt 0.121165 0.017990
vt 0.270963 0.108161
vt 0.017990 0.156124
vt 0.061019 0.067759
vt 0.305863 0.182623
vt 0.271087 0.182632
vt 0.247868 0.132374
vt 0.271287 0.981981
vt 0.236511 0.981990
vt 0.484962 0.223646
vt 0.434497 0.223646
vt 0.434497 0.197578
vt 0.484962 0.374936
vt 0.511030 0.374936
vt 0.484962 0.197578
vt 0.511030 0.223646
vt 0.434497 0.374936
vt 0.408429 0.223646
vt 0.434497 0.171510
vt 0.484962 0.171510
vt 0.408429 0.374936
vt 0.382361 0.223646
vt 0.434497 0.017990
vt 0.484962 0.017990
vt 0.537098 0.223646
vt 0.434497 0.526226
vt 0.484962 0.526226
vt 0.434497 0.552294
vt 0.408429 0.526226
vt 0.484962 0.578362
vt 0.434497 0.578362
vt 0.382361 0.526226
vt 0.484962 0.552294
vt 0.511030 0.526226
vt 0.537098 0.526226
vt 0.484962 0.731882
vt 0.434497 0.731882
vt 0.815276 0.494981
vt 0.815276 0.501622
vt 0.774818 0.504045
vt 0.840029 0.494981
vt 0.840029 0.662281
vt 0.840029 0.668922
vt 0.815276 0.668922
vt 0.814483 0.488388
vt 0.774025 0.497452
vt 0.815276 0.662281
vt 0.814483 0.508055
vt 0.776372 0.510338
vt 0.815276 0.568829
vt 0.840029 0.575311
vt 0.815276 0.575311
vt 0.815276 0.581952
vt 0.840029 0.501622
vt 0.815276 0.508104
vt 0.840029 0.508104
vt 0.815276 0.514281
vt 0.812928 0.514034
vt 0.881280 0.497452
vt 0.840821 0.508055
vt 0.880487 0.504045
vt 0.840029 0.581952
vt 0.815276 0.588593
vt 0.881280 0.490811
vt 0.840029 0.588593
vt 0.774025 0.490811
vt 0.840029 0.595074
vt 0.774818 0.484378
vt 0.815276 0.595074
vt 0.880487 0.484378
vt 0.840821 0.488388
vt 0.815276 0.601252
vt 0.844633 0.476345
vt 0.878932 0.478399
vt 0.840029 0.601252
vt 0.842376 0.482095
vt 0.847506 0.471359
vt 0.840029 0.643868
vt 0.840029 0.649622
vt 0.815276 0.649622
vt 0.815276 0.655800
vt 0.840029 0.655799
vt 0.810671 0.476345
vt 0.812928 0.482095
vt 0.776372 0.478400
vt 0.807798 0.471359
vt 0.815276 0.643868
vt 0.804420 0.467328
vt 0.778630 0.473106
vt 0.840029 0.638608
vt 0.815276 0.638608
vt 0.815276 0.607006
vt 0.840029 0.607006
vt 0.815276 0.612266
vt 0.781502 0.468701
vt 0.840029 0.612266
vt 0.815276 0.617022
vt 0.784881 0.465353
vt 0.840029 0.617022
vt 0.815276 0.621353
vt 0.788634 0.463191
vt 0.800667 0.464407
vt 0.796682 0.462709
vt 0.840029 0.629521
vt 0.815276 0.633852
vt 0.815276 0.629521
vt 0.840029 0.633852
vt 0.858623 0.462709
vt 0.862686 0.462298
vt 0.866670 0.463191
vt 0.840029 0.625437
vt 0.854638 0.464407
vt 0.870424 0.465353
vt 0.840029 0.621353
vt 0.815276 0.625437
vt 0.792619 0.462298
vt 0.850884 0.467328
vt 0.873802 0.468701
vt 0.876675 0.473106
vt 0.840029 0.514281
vt 0.815276 0.520036
vt 0.810671 0.519327
vt 0.781502 0.521074
vt 0.778630 0.516088
vt 0.840029 0.556897
vt 0.815276 0.562652
vt 0.815276 0.556897
vt 0.840029 0.562652
vt 0.873802 0.521074
vt 0.870424 0.525105
vt 0.844633 0.519327
vt 0.840029 0.551638
vt 0.876675 0.516088
vt 0.842376 0.514034
vt 0.840029 0.520036
vt 0.815276 0.525295
vt 0.847506 0.523732
vt 0.840029 0.525295
vt 0.807798 0.523733
vt 0.784881 0.525105
vt 0.815276 0.530051
vt 0.804420 0.527080
vt 0.788634 0.528026
vt 0.840029 0.546882
vt 0.815276 0.551638
vt 0.815276 0.546882
vt 0.866670 0.528026
vt 0.862686 0.529724
vt 0.854638 0.529242
vt 0.840029 0.542550
vt 0.850884 0.527080
vt 0.840029 0.530051
vt 0.815276 0.534383
vt 0.840029 0.534383
vt 0.800667 0.529242
vt 0.815276 0.538466
vt 0.796682 0.530135
vt 0.792619 0.529724
vt 0.840029 0.538466
vt 0.815276 0.542550
vt 0.858623 0.530135
vt 0.878932 0.510338
vt 0.840029 0.568829
s 0
usemtl マテリアル
f 14/1/1 10/2/1 6/3/1
f 12/4/2 7/5/2 13/6/2
f 6/7/3 11/8/3 9/9/3
f 13/6/2 1/10/2 11/8/2
f 4/11/4 12/4/4 10/2/4
f 9/9/1 14/12/1 6/13/1
f 8/14/1 9/9/1 3/15/1
f 5/16/2 13/6/2 11/8/2
f 10/2/5 5/17/5 6/18/5
f 5/16/2 12/4/2 13/6/2
f 4/11/1 14/1/1 8/19/1
f 9/9/6 1/10/6 3/15/6
f 12/4/2 2/20/2 7/5/2
f 6/7/3 5/21/3 11/8/3
f 13/6/2 7/5/2 1/10/2
f 4/11/4 2/20/4 12/4/4
f 8/14/1 14/12/1 9/9/1
f 10/2/5 12/4/5 5/17/5
f 4/11/1 10/2/1 14/1/1
f 9/9/6 11/8/6 1/10/6
s 1
f 16/22/1 17/23/7 15/24/1
f 18/25/7 19/26/8 17/27/7
f 20/28/8 21/29/9 19/26/8
f 22/30/9 23/31/10 21/29/9
f 24/32/10 25/33/11 23/31/10
f 26/34/11 27/35/12 25/33/11
f 28/36/12 29/37/13 27/35/12
f 30/38/13 31/39/6 29/37/13
f 32/40/6 33/41/14 31/39/6
f 34/42/14 35/43/15 33/41/14
f 36/44/15 37/45/16 35/43/15
f 38/46/16 39/47/17 37/45/16
f 39/47/17 42/48/18 41/49/18
f 42/48/18 43/50/19 41/49/18
f 44/51/19 45/52/20 43/50/19
f 46/53/20 47/54/2 45/52/20
f 48/55/2 49/56/21 47/54/2
f 50/57/21 51/58/22 49/56/21
f 52/59/22 53/60/23 51/58/22
f 53/60/23 56/61/24 55/62/24
f 56/61/24 57/63/25 55/62/24
f 58/64/25 59/65/26 57/63/25
f 60/66/26 61/67/27 59/65/26
f 62/68/27 63/69/4 61/67/27
f 64/70/4 65/71/28 63/69/4
f 66/72/28 67/73/29 65/71/28
f 68/74/29 69/75/30 67/73/29
f 70/76/30 71/77/31 69/75/30
f 72/78/31 73/79/32 71/77/31
f 74/80/32 75/81/33 73/79/32
f 76/82/33 77/83/34 75/81/33
f 78/84/34 15/24/1 77/83/34
f 16/22/1 18/85/7 17/23/7
f 18/25/7 20/28/8 19/26/8
f 20/28/8 22/30/9 21/29/9
f 22/30/9 24/32/10 23/31/10
f 24/32/10 26/34/11 25/33/11
f 26/34/11 28/36/12 27/35/12
f 28/36/12 30/38/13 29/37/13
f 30/38/13 32/40/6 31/39/6
f 32/40/6 34/42/14 33/41/14
f 34/42/14 36/44/15 35/43/15
f 36/44/15 38/46/16 37/45/16
f 38/46/16 40/86/17 39/47/17
f 39/47/17 40/86/17 42/48/18
f 42/48/18 44/51/19 43/50/19
f 44/51/19 46/53/20 45/52/20
f 46/53/20 48/55/2 47/54/2
f 48/55/2 50/57/21 49/56/21
f 50/57/21 52/59/22 51/58/22
f 52/59/22 54/87/23 53/60/23
f 53/60/23 54/87/23 56/61/24
f 56/61/24 58/64/25 57/63/25
f 58/64/25 60/66/26 59/65/26
f 60/66/26 62/68/27 61/67/27
f 62/68/27 64/70/4 63/69/4
f 64/70/4 66/72/28 65/71/28
f 66/72/28 68/74/29 67/73/29
f 68/74/29 70/76/30 69/75/30
f 70/76/30 72/78/31 71/77/31
f 72/78/31 74/80/32 73/79/32
f 74/80/32 76/82/33 75/81/33
f 76/82/33 78/84/34 77/83/34
f 78/84/34 16/22/1 15/24/1
s 0
f 83/88/35 80/89/35 79/90/35
f 82/91/36 81/92/36 79/93/36
f 83/88/35 79/90/35 81/94/35
f 87/95/2 80/89/2 83/88/2
f 84/96/37 83/88/37 81/94/37
f 86/97/2 83/88/2 84/96/2
f 86/97/4 85/98/4 83/88/4
f 87/95/2 83/88/2 85/98/2
f 86/97/2 87/95/2 85/98/2
f 86/97/2 88/99/2 87/95/2
f 90/100/38 89/101/38 88/99/38
f 90/100/38 88/99/38 86/97/38
f 90/100/39 86/97/39 84/96/39
f 89/101/40 90/100/40 91/102/40
f 93/103/41 91/104/41 90/100/41
f 93/103/42 90/100/42 92/105/42
f 90/100/43 84/96/43 92/105/43
f 91/104/1 93/103/1 94/106/1
f 81/94/44 94/107/44 93/108/44
f 81/94/45 93/108/45 92/105/45
f 82/91/36 94/109/36 81/92/36
f 82/91/1 95/110/1 94/109/1
f 91/104/1 94/106/1 95/111/1
f 82/91/1 96/112/1 95/110/1
f 97/113/1 95/110/1 96/112/1
f 97/113/1 91/102/1 95/110/1
f 89/101/40 91/102/40 97/113/40
f 84/96/46 81/94/46 92/105/46
f 98/114/6 99/115/6 103/116/6
f 99/115/47 98/114/47 100/117/47
f 102/118/2 100/117/2 98/114/2
f 101/119/6 98/114/6 103/116/6
f 102/118/2 98/114/2 101/120/2
f 106/121/1 103/122/1 99/115/1
f 103/116/6 104/123/6 107/124/6
f 103/122/1 105/125/1 104/126/1
f 106/121/1 105/125/1 103/122/1
f 103/116/6 107/124/6 101/119/6
f 105/127/48 107/124/48 104/123/48
f 105/127/48 102/128/48 107/124/48
f 107/129/2 102/118/2 101/120/2
f 106/121/47 99/115/47 100/117/47
f 108/130/1 105/125/1 106/121/1
f 100/117/47 108/130/47 106/121/47
f 100/117/47 109/131/47 108/130/47
f 110/132/4 108/130/4 109/131/4
f 108/130/1 110/133/1 105/125/1
f 112/134/4 111/135/4 110/132/4
f 105/125/1 110/133/1 111/136/1
f 113/137/4 112/134/4 110/132/4
f 110/132/4 109/131/4 113/137/4
f 113/138/2 109/131/2 100/117/2
f 102/118/2 112/139/2 113/138/2
f 113/138/2 100/117/2 102/118/2
f 111/135/49 112/134/49 102/140/49
f 111/135/49 102/140/49 105/141/49
f 114/142/47 115/143/47 120/144/47
s 1
f 116/145/1 115/143/50 114/142/1
f 118/146/51 116/147/1 114/148/1
s 0
f 117/149/47 114/142/47 119/150/47
s 1
f 118/146/51 114/148/1 117/151/51
s 0
f 120/144/47 119/150/47 114/142/47
f 120/144/47 123/152/47 121/153/47
s 1
f 121/154/52 122/155/53 120/156/53
f 122/155/53 119/157/2 120/156/53
s 0
f 115/143/47 123/152/47 120/144/47
s 1
f 126/158/50 123/159/54 115/143/50
f 126/158/50 124/160/54 123/159/54
f 124/160/54 125/161/55 123/159/54
s 0
f 123/152/47 125/162/47 121/153/47
f 126/158/56 116/145/56 127/163/56
s 1
f 116/145/1 126/158/50 115/143/50
s 0
f 124/164/56 126/158/56 122/165/56
f 127/163/56 122/165/56 126/158/56
s 1
f 122/155/53 127/166/2 119/157/2
f 127/166/2 129/167/57 119/157/2
s 0
f 128/168/56 127/163/56 116/145/56
s 1
f 127/166/2 128/169/57 129/167/57
s 0
f 119/150/47 129/170/47 117/149/47
s 1
f 129/167/57 128/169/57 131/171/58
s 0
f 129/170/47 130/172/47 117/149/47
s 1
f 129/167/57 131/171/58 130/173/58
s 0
f 131/174/56 128/168/56 118/175/56
s 1
f 131/171/58 133/176/59 130/173/58
s 0
f 131/174/56 135/177/56 132/178/56
s 1
f 131/171/58 132/179/59 133/176/59
s 0
f 118/175/56 134/180/56 131/174/56
f 134/180/56 135/177/56 131/174/56
f 135/177/56 136/181/56 132/178/56
s 1
f 136/182/60 135/183/61 137/184/61
f 135/183/61 138/185/62 137/184/61
f 135/183/61 134/186/62 138/185/62
s 0
f 137/187/47 138/188/47 133/189/47
s 1
f 134/186/62 117/151/51 138/185/62
s 0
f 117/149/47 130/172/47 138/188/47
f 130/172/47 133/189/47 138/188/47
f 139/190/47 137/187/47 133/189/47
s 1
f 136/182/60 137/184/61 139/191/60
s 0
f 140/192/47 139/190/47 142/193/47
s 1
f 141/194/63 139/191/60 140/195/63
f 141/194/63 136/182/60 139/191/60
s 0
f 133/189/47 142/193/47 139/190/47
s 1
f 132/179/59 142/196/64 133/176/59
f 132/179/59 143/197/64 142/196/64
f 143/197/64 144/198/65 142/196/64
s 0
f 142/193/47 144/199/47 140/192/47
s 1
f 143/197/64 145/200/65 144/198/65
f 145/200/65 146/201/66 144/198/65
s 0
f 144/199/47 146/202/47 140/192/47
s 1
f 145/200/65 147/203/66 146/201/66
f 147/203/66 148/204/67 146/201/66
s 0
f 146/202/47 148/205/47 149/206/47
f 140/192/47 146/202/47 149/206/47
f 150/207/47 149/206/47 148/205/47
s 1
f 152/208/68 149/209/69 150/210/68
f 152/208/68 151/211/69 149/209/69
f 151/211/69 140/195/63 149/209/69
s 0
f 152/212/56 153/213/56 154/214/56
s 1
f 153/215/4 152/208/68 150/210/68
s 0
f 151/216/56 152/212/56 147/217/56
f 147/217/56 152/212/56 154/214/56
s 1
f 147/203/66 154/218/67 148/204/67
f 154/218/67 155/219/4 148/204/67
f 154/218/67 153/215/4 155/219/4
s 0
f 148/205/47 155/220/47 150/207/47
s 1
f 153/215/4 150/210/68 155/219/4
s 0
f 141/221/56 151/216/56 145/222/56
s 1
f 151/211/69 141/194/63 140/195/63
s 0
f 147/217/56 145/222/56 151/216/56
f 143/223/56 141/221/56 145/222/56
f 143/223/56 132/178/56 136/181/56
f 136/181/56 141/221/56 143/223/56
s 1
f 134/186/62 118/146/51 117/151/51
s 0
f 116/145/56 118/175/56 128/168/56
s 1
f 124/160/54 156/224/55 125/161/55
f 156/224/55 157/225/70 125/161/55
s 0
f 125/162/47 157/226/47 158/227/47
f 159/228/47 121/153/47 125/162/47
f 158/227/47 159/228/47 125/162/47
s 1
f 161/229/71 159/230/72 158/231/71
f 161/229/71 160/232/72 159/230/72
f 160/232/72 121/154/52 159/230/72
s 0
f 161/233/56 162/234/56 163/235/56
s 1
f 162/236/73 161/229/71 158/231/71
s 0
f 160/237/56 161/233/56 156/238/56
f 163/235/56 156/238/56 161/233/56
s 1
f 156/224/55 163/239/70 157/225/70
f 163/239/70 165/240/74 157/225/70
s 0
f 163/235/56 162/234/56 164/241/56
s 1
f 163/239/70 164/242/74 165/240/74
s 0
f 157/226/47 165/243/47 167/244/47
s 1
f 164/242/74 166/245/75 165/240/74
s 0
f 165/243/47 166/246/47 167/244/47
f 167/244/47 166/246/47 168/247/47
s 1
f 169/248/76 167/249/73 168/250/76
f 169/248/76 162/236/73 167/249/73
f 162/236/73 158/231/71 167/249/73
s 0
f 167/244/47 158/227/47 157/226/47
f 169/251/56 170/252/56 171/253/56
s 1
f 170/254/77 169/248/76 168/250/76
s 0
f 162/234/56 169/251/56 164/241/56
f 172/255/56 164/241/56 169/251/56
f 171/253/56 172/255/56 169/251/56
s 1
f 164/242/74 172/256/75 166/245/75
f 172/256/75 173/257/78 166/245/75
f 172/256/75 171/258/78 173/257/78
s 0
f 166/246/47 173/259/47 168/247/47
s 1
f 171/258/78 174/260/6 173/257/78
s 0
f 173/259/47 174/261/47 175/262/47
f 175/262/47 168/247/47 173/259/47
s 1
f 176/263/6 175/264/77 174/260/6
f 176/263/6 170/254/77 175/264/77
f 170/254/77 168/250/76 175/264/77
s 0
f 170/252/56 176/265/56 171/253/56
s 1
f 171/258/78 176/263/6 174/260/6
s 0
f 177/266/56 160/237/56 124/164/56
s 1
f 160/232/72 177/267/52 121/154/52
s 0
f 124/164/56 160/237/56 156/238/56
s 1
f 121/154/52 177/267/52 122/155/53
s 0
f 122/165/56 177/266/56 124/164/56
