# Blender 4.4.1
# www.blender.org
mtllib sword_blade.mtl
o 円柱.001
v -0.135499 0.037996 0.000000
v 0.681947 0.018998 -0.008104
v -0.135499 0.018998 -0.008104
v -0.135499 0.018998 0.008104
v 0.681947 0.037996 0.000000
v 0.764147 0.000000 -0.008104
v 0.764147 0.000000 0.008104
v 0.681947 0.018998 0.008104
v 0.831352 0.000000 0.000000
v 0.681947 -0.037996 0.000000
v -0.135499 -0.018998 -0.008104
v -0.135499 -0.037996 0.000000
v 0.681947 -0.018998 -0.008104
v 0.681947 -0.018998 0.008104
v 0.681947 0.000000 0.008104
v -0.135499 -0.018998 0.008104
v -0.135499 -0.000000 0.008104
v 0.681947 0.000000 -0.008104
v -0.135499 -0.000000 -0.008104
vn -0.0000 0.3924 -0.9198
vn -0.0000 0.3924 0.9198
vn 0.0903 0.3908 -0.9161
vn 0.1083 0.4259 -0.8983
vn 0.0903 0.3908 0.9161
vn 0.1083 0.4259 0.8983
vn 0.1083 -0.4259 0.8983
vn 0.1083 -0.4259 -0.8983
vn -0.0000 -0.3924 -0.9198
vn -0.0000 -0.3924 0.9198
vn 0.0903 -0.3908 -0.9161
vn 0.0903 -0.3908 0.9160
vn -0.0000 -0.0000 1.0000
vn -0.0001 -1.0000 -0.0000
vn 0.0001 1.0000 -0.0000
vn -0.0000 1.0000 -0.0000
vn -0.0000 -0.0000 -1.0000
vn 0.0001 -1.0000 -0.0000
vn -0.0000 -1.0000 -0.0000
vt 0.000000 0.000000
s 1
f 2/1/1 3/1/1 1/1/1
f 2/1/1 1/1/1 5/1/1
f 4/1/2 5/1/2 1/1/2
f 4/1/2 8/1/2 5/1/2
f 6/1/3 2/1/3 5/1/3
f 6/1/4 5/1/4 9/1/4
f 5/1/5 8/1/5 7/1/5
f 5/1/6 7/1/6 9/1/6
f 7/1/7 10/1/7 9/1/7
f 10/1/8 6/1/8 9/1/8
f 10/1/9 12/1/9 11/1/9
f 10/1/9 11/1/9 13/1/9
f 12/1/10 10/1/10 14/1/10
f 10/1/11 13/1/11 6/1/11
f 7/1/12 14/1/12 10/1/12
f 12/1/10 14/1/10 16/1/10
f 14/1/13 7/1/13 8/1/13
s 0
f 14/1/14 8/1/15 15/1/16
s 1
f 16/1/13 14/1/13 15/1/13
f 16/1/13 15/1/13 17/1/13
f 4/1/13 17/1/13 15/1/13
f 4/1/13 15/1/13 8/1/13
f 13/1/17 2/1/17 6/1/17
s 0
f 13/1/18 18/1/19 2/1/19
s 1
f 13/1/17 19/1/17 18/1/17
f 13/1/17 11/1/17 19/1/17
f 19/1/17 3/1/17 2/1/17
f 19/1/17 2/1/17 18/1/17
