# Blender 4.4.1
# www.blender.org
mtllib Player_rightArm.mtl
o 右腕
v -0.315884 0.005537 0.098057
v -0.439419 -0.208455 0.096216
v -0.387207 0.046719 0.096994
v -0.510741 -0.167272 0.095153
v -0.313429 0.005537 -0.066656
v -0.436964 -0.208455 -0.068497
v -0.384752 0.046719 -0.067719
v -0.508286 -0.167272 -0.069560
vn 0.4999 0.8660 0.0075
vn -0.8659 0.5000 -0.0129
vn 0.0149 -0.0000 -0.9999
vn -0.4999 -0.8660 -0.0075
vn -0.0149 -0.0000 0.9999
vn 0.8659 -0.5000 0.0129
vt 0.315233 0.799687
vt 0.291851 0.846452
vt 0.291851 0.799687
vt 0.432145 0.799687
vt 0.385380 0.729540
vt 0.432145 0.729540
vt 0.385380 0.799687
vt 0.361998 0.729540
vt 0.315233 0.729540
vt 0.291851 0.682776
vt 0.315233 0.682776
vt 0.291851 0.729540
vt 0.315233 0.846452
vt 0.361998 0.799687
s 0
usemtl Material
f 1/1/1 7/2/1 3/3/1
f 3/4/2 8/5/2 4/6/2
f 7/7/3 6/8/3 8/5/3
f 2/9/4 8/10/4 6/11/4
f 1/1/5 4/12/5 2/9/5
f 6/8/6 1/1/6 2/9/6
f 1/1/1 5/13/1 7/2/1
f 3/4/2 7/7/2 8/5/2
f 7/7/3 5/14/3 6/8/3
f 2/9/4 4/12/4 8/10/4
f 1/1/5 3/3/5 4/12/5
f 6/8/6 5/14/6 1/1/6
