# Blender 4.4.1
# www.blender.org
mtllib enemy_core12.mtl
o enemy_core12
v 0.640146 0.209106 0.079758
v 0.570651 0.098630 0.117413
v 0.635086 -0.096147 0.009188
v 0.636474 -0.096593 0.036478
v 1.000229 -0.000346 0.000000
v 0.564172 0.050423 0.153704
v 0.626406 -0.087107 0.030121
v 0.735297 -0.077445 0.209497
v 0.729206 -0.146187 0.157009
v 0.758485 -0.164397 0.110985
v 0.718308 -0.137261 0.174920
v 0.707998 -0.108016 0.209497
v 0.686165 -0.070441 0.230310
v 0.677112 -0.055911 0.236680
v 0.711585 -0.145682 -0.174164
v 0.728442 -0.154815 -0.150422
v 0.829180 -0.208196 0.000000
v 0.683595 0.049116 0.254213
v 0.840839 0.251876 0.209497
v 0.855920 0.274320 0.202617
v 0.641998 0.000719 0.261436
v 0.708619 -0.143666 -0.178689
v 0.710821 -0.126474 -0.191171
v 0.715997 -0.117055 -0.194242
v 0.729996 -0.093333 -0.201062
v 0.740049 -0.076062 -0.205740
v 0.734574 -0.085607 -0.203265
v 0.815594 0.134395 -0.198678
v 0.895947 0.164494 -0.137015
v 0.892370 0.266969 0.168775
v 1.052166 0.227878 0.000000
v 0.928819 0.176635 -0.111740
v 0.729206 -0.146187 0.157009
v 0.729206 -0.146187 0.157009
v 0.758485 -0.164397 0.110985
v 0.707998 -0.108016 0.209497
v 0.707998 -0.108016 0.209497
v 0.686165 -0.070441 0.230310
v 0.686165 -0.070441 0.230310
v 0.677112 -0.055911 0.236680
v 0.718308 -0.137261 0.174920
v 0.829180 -0.208196 0.000000
v 0.829180 -0.208196 0.000000
v 0.728442 -0.154815 -0.150422
v 0.728442 -0.154815 -0.150422
v 0.683595 0.049116 0.254213
v 0.683595 0.049116 0.254213
v 0.840839 0.251876 0.209497
v 0.840839 0.251876 0.209497
v 0.855920 0.274320 0.202617
v 0.641998 0.000719 0.261436
v 0.711585 -0.145682 -0.174164
v 0.708619 -0.143666 -0.178689
v 0.710821 -0.126474 -0.191171
v 0.715997 -0.117055 -0.194242
v 0.729996 -0.093333 -0.201062
v 0.740049 -0.076062 -0.205740
v 0.740049 -0.076062 -0.205740
v 0.815594 0.134395 -0.198678
v 0.734574 -0.085607 -0.203265
v 0.734574 -0.085607 -0.203265
v 0.895947 0.164494 -0.137015
v 0.928819 0.176635 -0.111740
v 0.928819 0.176635 -0.111740
v 0.892370 0.266969 0.168775
v 0.892370 0.266969 0.168775
v 1.052166 0.227878 0.000000
v 1.052166 0.227878 0.000000
v 1.000229 -0.000346 0.000000
v 1.000229 -0.000346 0.000000
v 1.000229 -0.000346 0.000000
v 1.000229 -0.000346 0.000000
v 1.000229 -0.000346 0.000000
v 0.735297 -0.077445 0.209497
v 0.735297 -0.077445 0.209497
v 0.735297 -0.077445 0.209497
v 0.735297 -0.077445 0.209497
v 0.735297 -0.077445 0.209497
vn -0.5492 -0.8318 0.0803
vn -0.7571 -0.5924 0.2753
vn -0.7439 -0.6162 0.2587
vn -0.5220 -0.8528 0.0126
vn -0.4974 -0.8672 0.0254
vn -0.6934 -0.7202 0.0235
vn -0.9343 -0.1232 -0.3345
vn -0.7585 -0.5907 0.2754
vn -0.9349 -0.1245 -0.3323
vn -0.5325 0.5541 0.6399
vn -0.5550 -0.8318 -0.0068
vn -0.7950 0.2578 -0.5492
vn -0.7722 0.2937 -0.5634
vn -0.7705 0.2955 -0.5648
vn -0.1070 0.9413 -0.3200
vn -0.1043 0.9426 -0.3171
vn 0.6983 -0.1589 0.6980
vn 0.6199 -0.5102 0.5962
vn 0.6431 -0.2061 0.7375
vn 0.4319 -0.1384 0.8912
vn 0.5865 -0.5237 0.6179
vn 0.3356 -0.2997 0.8931
vn 0.3627 -0.1752 0.9153
vn 0.6983 -0.1589 -0.6980
vn 0.6199 -0.5102 -0.5962
vn 0.6431 -0.2061 -0.7375
vn 0.5865 -0.5237 -0.6179
vn -0.4978 -0.8669 0.0263
vn -0.5010 -0.8651 0.0229
vn -0.9344 -0.1235 -0.3341
vn -0.5330 0.5534 0.6400
vn -0.5328 0.5534 0.6402
vn -0.5321 0.5539 0.6404
vn -0.5321 0.5534 0.6408
vt 0.000000 0.000000
vt 0.386583 0.328228
vt 0.432459 0.432459
vt 0.349794 0.000000
vt 1.000000 0.454989
vt 0.739125 0.303226
vt 1.000000 0.000000
vt 0.454989 0.454989
vt 1.000000 0.336087
vt 1.000000 1.000000
vt 0.365341 0.330788
vt 0.597481 0.311883
vt 0.878441 0.000000
vt 1.000000 0.650206
vt 0.995972 0.646819
vt 0.541304 0.000000
vt 0.227040 0.227040
vt 1.000000 0.354716
vt 1.000000 0.794297
vt 0.121559 0.000000
vt 1.000000 0.791687
vt 0.794297 0.794297
vt 0.650364 0.000000
vt 0.791861 0.762693
vt 0.791687 0.791687
vt 0.349636 0.000000
vt 1.000000 0.506428
vt 0.530554 0.076290
vt 0.576983 0.497265
vt 0.239416 0.000000
vt 0.455711 0.085714
vt 1.000000 0.760584
vt 0.336087 0.336087
vt 1.000000 0.227040
vt 0.555036 0.555036
vt 1.000000 0.555036
vt 0.582491 0.066823
vt 0.791538 0.727103
vt 0.506428 0.506428
vt 0.458696 0.000000
vt 0.843474 0.439264
s 0
f 4/1/1 33/2/1 41/3/1
f 40/4/2 41/5/2 36/6/2
f 4/7/3 41/8/3 7/1/3
f 3/1/4 52/9/4 4/10/4
f 4/10/5 44/11/5 42/12/5
f 3/7/6 4/10/6 7/1/6
f 3/7/7 2/1/7 54/13/7
f 40/14/8 6/1/8 7/7/8
f 2/7/9 7/10/9 6/1/9
f 6/7/10 46/15/10 50/16/10
f 53/17/11 52/18/11 3/10/11
f 2/7/12 55/19/12 54/20/12
f 2/1/13 56/21/13 55/22/13
f 59/23/14 60/24/14 56/25/14
f 59/26/15 1/7/15 62/27/15
f 1/1/16 65/28/16 63/29/16
s 1
f 69/1/17 68/1/17 66/1/17
f 70/1/18 34/1/18 10/1/18
f 49/1/19 5/1/19 30/1/19
f 76/1/20 19/1/20 47/1/20
f 11/1/21 77/1/21 37/1/21
f 39/1/22 12/1/22 78/1/22
f 8/1/23 21/1/23 14/1/23
f 31/1/24 71/1/24 64/1/24
f 58/1/25 17/1/25 45/1/25
f 26/1/26 29/1/26 32/1/26
f 16/1/27 22/1/27 24/1/27
s 0
f 4/1/28 35/30/28 33/2/28
f 36/6/2 38/31/2 40/4/2
f 40/4/2 7/7/2 41/5/2
f 42/12/5 35/32/5 4/10/5
f 4/10/29 52/33/29 44/11/29
f 54/13/7 53/34/7 3/7/7
f 3/7/30 7/10/30 2/1/30
f 40/14/8 51/35/8 6/1/8
f 1/10/31 2/1/31 6/7/31
f 6/7/32 51/36/32 46/15/32
f 46/15/33 48/37/33 50/16/33
f 50/16/34 1/10/34 6/7/34
f 2/1/13 1/7/13 56/21/13
f 56/25/14 1/1/14 59/23/14
f 59/23/14 57/38/14 60/24/14
f 63/29/16 62/39/16 1/1/16
f 1/1/16 50/40/16 65/28/16
f 65/28/16 67/41/16 63/29/16
s 1
f 10/1/18 43/1/18 70/1/18
f 70/1/18 74/1/18 34/1/18
f 30/1/19 20/1/19 49/1/19
f 49/1/19 75/1/19 5/1/19
f 11/1/21 9/1/21 77/1/21
f 14/1/23 13/1/23 8/1/23
f 8/1/23 18/1/23 21/1/23
f 45/1/25 61/1/25 58/1/25
f 58/1/25 72/1/25 17/1/25
f 32/1/26 73/1/26 26/1/26
f 26/1/26 28/1/26 29/1/26
f 25/1/27 27/1/27 16/1/27
f 16/1/27 15/1/27 22/1/27
f 22/1/27 23/1/27 24/1/27
f 24/1/27 25/1/27 16/1/27
