# Blender 4.4.1
# www.blender.org
mtllib sword_effect1.mtl
o 円柱
v 1.000000 -0.002456 0.000000
v 0.980785 -0.002456 -0.195090
v 0.923880 -0.002456 -0.382683
v -0.923880 -0.002456 -0.382684
v -0.980785 -0.002456 -0.195090
v -1.000000 -0.002456 -0.000000
v -0.980785 -0.002456 0.195090
v -0.923880 -0.002456 0.382683
v -0.831470 -0.002456 0.555570
v -0.707107 -0.002456 0.707107
v -0.555570 -0.002456 0.831470
v -0.382684 -0.002456 0.923880
v -0.195090 -0.002456 0.980785
v -0.000000 -0.002456 1.000000
v 0.195090 -0.002456 0.980785
v 0.382683 -0.002456 0.923880
v 0.555570 -0.002456 0.831470
v 0.707107 -0.002456 0.707107
v 0.831470 -0.002456 0.555570
v 0.923880 -0.002456 0.382684
v 0.980785 -0.002456 0.195090
v 0.429452 0.101627 0.004409
v 0.421200 0.101627 -0.079373
v 0.396762 0.101627 -0.159935
v -0.396762 0.101627 -0.159935
v -0.421200 0.101627 -0.079373
v -0.429452 0.101627 0.004409
v -0.421200 0.101627 0.088191
v -0.396762 0.101627 0.168753
v -0.357076 0.101627 0.242999
v -0.303668 0.101627 0.308077
v -0.238591 0.101627 0.361485
v -0.164344 0.101627 0.401171
v -0.083782 0.101627 0.425609
v -0.000000 0.101627 0.433861
v 0.083782 0.101627 0.425609
v 0.164344 0.101627 0.401171
v 0.238591 0.101627 0.361485
v 0.303668 0.101627 0.308077
v 0.357076 0.101627 0.242999
v 0.396762 0.101627 0.168753
v 0.421200 0.101627 0.088191
vn 0.1795 0.9838 -0.0001
vn 0.1757 0.9838 -0.0350
vn 0.1722 0.9837 -0.0522
vn -0.1722 0.9837 -0.0522
vn -0.1757 0.9838 -0.0350
vn -0.1795 0.9838 -0.0001
vn -0.1763 0.9837 0.0350
vn -0.1663 0.9837 0.0688
vn -0.1499 0.9836 0.1001
vn -0.1276 0.9836 0.1275
vn -0.1004 0.9836 0.1501
vn -0.0692 0.9835 0.1669
vn -0.0353 0.9835 0.1773
vn -0.0000 0.9835 0.1808
vn 0.0353 0.9835 0.1773
vn 0.0692 0.9835 0.1669
vn 0.1004 0.9836 0.1501
vn 0.1276 0.9836 0.1275
vn 0.1499 0.9836 0.1001
vn 0.1663 0.9837 0.0688
vn 0.1763 0.9837 0.0350
vn 0.1795 0.9838 0.0001
vn 0.1758 0.9838 -0.0349
vn -0.1758 0.9838 -0.0349
vn -0.1795 0.9838 0.0001
vn -0.1763 0.9837 0.0352
vn -0.1662 0.9837 0.0690
vn -0.1498 0.9836 0.1002
vn -0.1275 0.9836 0.1276
vn -0.1003 0.9836 0.1502
vn -0.0691 0.9835 0.1670
vn 0.0691 0.9835 0.1670
vn 0.1003 0.9836 0.1502
vn 0.1275 0.9836 0.1276
vn 0.1498 0.9836 0.1002
vn 0.1662 0.9837 0.0690
vn 0.1763 0.9837 0.0352
vt 0.649598 0.202279
vt 0.337501 0.999453
vt 0.311556 0.999453
vt 0.600075 0.230871
vt 0.253419 0.431012
vt 0.129943 0.999453
vt 0.103998 0.999453
vt 0.203897 0.459604
vt 0.285612 0.999453
vt 0.550553 0.259462
vt 0.078053 0.999453
vt 0.154374 0.488196
vt 0.259667 0.999453
vt 0.501031 0.288054
vt 0.897209 0.059320
vt 0.467225 0.999453
vt 0.441280 0.999453
vt 0.847687 0.087912
vt 0.052109 0.999453
vt 0.104852 0.516788
vt 0.233722 0.999453
vt 0.451508 0.316646
vt 0.415335 0.999453
vt 0.798165 0.116504
vt 0.026164 0.999453
vt 0.055330 0.545379
vt 0.207777 0.999453
vt 0.401986 0.345237
vt 0.389391 0.999453
vt 0.748642 0.145095
vt 0.000219 0.999453
vt 0.005808 0.573971
vt 0.181833 0.999453
vt 0.352464 0.373829
vt 0.363446 0.999453
vt 0.699120 0.173687
vt 0.996254 0.002137
vt 0.519114 0.999453
vt 0.493170 0.999453
vt 0.946732 0.030728
vt 0.155888 0.999453
vt 0.302941 0.402421
s 1
f 17/1/17 38/2/33 37/3/32 16/4/16
f 9/5/9 30/6/28 29/7/27 8/8/8
f 16/4/16 37/3/32 36/9/15 15/10/15
f 8/8/8 29/7/27 28/11/26 7/12/7
f 15/10/15 36/9/15 35/13/14 14/14/14
f 1/15/1 22/16/22 42/17/37 21/18/21
f 7/12/7 28/11/26 27/19/25 6/20/6
f 14/14/14 35/13/14 34/21/13 13/22/13
f 21/18/21 42/17/37 41/23/36 20/24/20
f 6/20/6 27/19/25 26/25/24 5/26/5
f 13/22/13 34/21/13 33/27/31 12/28/12
f 20/24/20 41/23/36 40/29/35 19/30/19
f 5/26/5 26/25/24 25/31/4 4/32/4
f 12/28/12 33/27/31 32/33/30 11/34/11
f 19/30/19 40/29/35 39/35/34 18/36/18
f 3/37/3 24/38/3 23/39/23 2/40/2
f 11/34/11 32/33/30 31/41/29 10/42/10
f 18/36/18 39/35/34 38/2/33 17/1/17
f 2/40/2 23/39/23 22/16/22 1/15/1
f 10/42/10 31/41/29 30/6/28 9/5/9
o 円柱.001
v 1.000000 -0.002613 0.000000
v 0.980785 -0.002613 -0.195090
v 0.923880 -0.002613 -0.382683
v -0.923880 -0.002614 -0.382684
v -0.980785 -0.002614 -0.195090
v -1.000000 -0.002614 -0.000000
v -0.980785 -0.002614 0.195090
v -0.923880 -0.002614 0.382683
v -0.831470 -0.002614 0.555570
v -0.707107 -0.002614 0.707107
v -0.555570 -0.002614 0.831470
v -0.382684 -0.002614 0.923880
v -0.195090 -0.002614 0.980785
v -0.000000 -0.002614 1.000000
v 0.195090 -0.002614 0.980785
v 0.382683 -0.002613 0.923880
v 0.555570 -0.002613 0.831470
v 0.707107 -0.002613 0.707107
v 0.831470 -0.002613 0.555570
v 0.923880 -0.002613 0.382684
v 0.980785 -0.002613 0.195090
v 0.429452 0.101469 0.004409
v 0.421200 0.101469 -0.079373
v 0.396762 0.101469 -0.159935
v -0.396762 0.101469 -0.159935
v -0.421200 0.101469 -0.079373
v -0.429452 0.101469 0.004409
v -0.421200 0.101469 0.088191
v -0.396762 0.101469 0.168753
v -0.357076 0.101469 0.242999
v -0.303668 0.101469 0.308077
v -0.238591 0.101469 0.361485
v -0.164344 0.101469 0.401171
v -0.083782 0.101469 0.425609
v -0.000000 0.101469 0.433861
v 0.083782 0.101469 0.425609
v 0.164344 0.101469 0.401171
v 0.238591 0.101469 0.361485
v 0.303668 0.101469 0.308077
v 0.357076 0.101469 0.242999
v 0.396762 0.101469 0.168753
v 0.421200 0.101469 0.088191
vn -0.1795 -0.9838 0.0001
vn -0.1757 -0.9838 0.0350
vn -0.1722 -0.9837 0.0522
vn 0.1722 -0.9837 0.0522
vn 0.1757 -0.9838 0.0350
vn 0.1795 -0.9838 0.0001
vn 0.1763 -0.9837 -0.0350
vn 0.1663 -0.9837 -0.0688
vn 0.1499 -0.9836 -0.1001
vn 0.1276 -0.9836 -0.1275
vn 0.1004 -0.9836 -0.1501
vn 0.0692 -0.9835 -0.1669
vn 0.0353 -0.9835 -0.1773
vn -0.0000 -0.9835 -0.1808
vn -0.0353 -0.9835 -0.1773
vn -0.0692 -0.9835 -0.1669
vn -0.1004 -0.9836 -0.1501
vn -0.1276 -0.9836 -0.1275
vn -0.1499 -0.9836 -0.1001
vn -0.1663 -0.9837 -0.0688
vn -0.1763 -0.9837 -0.0350
vn -0.1795 -0.9838 -0.0001
vn -0.1758 -0.9838 0.0349
vn 0.1758 -0.9838 0.0349
vn 0.1795 -0.9838 -0.0001
vn 0.1763 -0.9837 -0.0352
vn 0.1662 -0.9837 -0.0690
vn 0.1498 -0.9836 -0.1002
vn 0.1275 -0.9836 -0.1276
vn 0.1003 -0.9836 -0.1502
vn 0.0691 -0.9835 -0.1670
vn -0.0691 -0.9835 -0.1670
vn -0.1003 -0.9836 -0.1502
vn -0.1275 -0.9836 -0.1276
vn -0.1498 -0.9836 -0.1002
vn -0.1662 -0.9837 -0.0690
vn -0.1763 -0.9837 -0.0352
vt 0.649598 0.202279
vt 0.600075 0.230871
vt 0.311556 0.999453
vt 0.337501 0.999453
vt 0.253419 0.431012
vt 0.203897 0.459604
vt 0.103998 0.999453
vt 0.129943 0.999453
vt 0.550553 0.259462
vt 0.285612 0.999453
vt 0.154374 0.488196
vt 0.078053 0.999453
vt 0.501031 0.288054
vt 0.259667 0.999453
vt 0.897209 0.059320
vt 0.847687 0.087912
vt 0.441280 0.999453
vt 0.467225 0.999453
vt 0.104852 0.516788
vt 0.052109 0.999453
vt 0.451508 0.316646
vt 0.233722 0.999453
vt 0.798165 0.116504
vt 0.415335 0.999453
vt 0.055330 0.545379
vt 0.026164 0.999453
vt 0.401986 0.345237
vt 0.207777 0.999453
vt 0.748642 0.145095
vt 0.389391 0.999453
vt 0.005808 0.573971
vt 0.000219 0.999453
vt 0.352464 0.373829
vt 0.181833 0.999453
vt 0.699120 0.173687
vt 0.363446 0.999453
vt 0.996254 0.002137
vt 0.946732 0.030728
vt 0.493170 0.999453
vt 0.519114 0.999453
vt 0.302941 0.402421
vt 0.155888 0.999453
s 1
f 59/43/54 58/44/53 79/45/69 80/46/70
f 51/47/46 50/48/45 71/49/64 72/50/65
f 58/44/53 57/51/52 78/52/52 79/45/69
f 50/48/45 49/53/44 70/54/63 71/49/64
f 57/51/52 56/55/51 77/56/51 78/52/52
f 43/57/38 63/58/58 84/59/74 64/60/59
f 49/53/44 48/61/43 69/62/62 70/54/63
f 56/55/51 55/63/50 76/64/50 77/56/51
f 63/58/58 62/65/57 83/66/73 84/59/74
f 48/61/43 47/67/42 68/68/61 69/62/62
f 55/63/50 54/69/49 75/70/68 76/64/50
f 62/65/57 61/71/56 82/72/72 83/66/73
f 47/67/42 46/73/41 67/74/41 68/68/61
f 54/69/49 53/75/48 74/76/67 75/70/68
f 61/71/56 60/77/55 81/78/71 82/72/72
f 45/79/40 44/80/39 65/81/60 66/82/40
f 53/75/48 52/83/47 73/84/66 74/76/67
f 60/77/55 59/43/54 80/46/70 81/78/71
f 44/80/39 43/57/38 64/60/59 65/81/60
f 52/83/47 51/47/46 72/50/65 73/84/66
