mtllib stage_select_gate_island.mtl
o stage_select_gate_island
v 0.000000 0.000000 0.000000
v 14.578012 0.000000 2.416456
v 14.583276 0.000000 0.000000
v 0.000000 0.000000 0.000000
v 13.719001 0.000000 4.735497
v 14.578012 0.000000 2.416456
v 0.000000 0.000000 0.000000
v 12.010310 0.000000 6.687527
v 13.719001 0.000000 4.735497
v 0.000000 0.000000 0.000000
v 9.949043 0.000000 8.290869
v 12.010310 0.000000 6.687527
v 0.000000 0.000000 0.000000
v 7.813101 0.000000 9.744276
v 9.949043 0.000000 8.290869
v 0.000000 0.000000 0.000000
v 5.443614 0.000000 10.951705
v 7.813101 0.000000 9.744276
v 0.000000 0.000000 0.000000
v 2.772319 0.000000 11.614490
v 5.443614 0.000000 10.951705
v 0.000000 0.000000 0.000000
v 0.000000 0.000000 11.761011
v 2.772319 0.000000 11.614490
v 0.000000 0.000000 0.000000
v -2.787938 0.000000 11.679925
v 0.000000 0.000000 11.761011
v 0.000000 0.000000 0.000000
v -5.633402 0.000000 11.333530
v -2.787938 0.000000 11.679925
v 0.000000 0.000000 0.000000
v -8.305458 0.000000 10.358330
v -5.633402 0.000000 11.333530
v 0.000000 0.000000 0.000000
v -10.422957 0.000000 8.685798
v -8.305458 0.000000 10.358330
v 0.000000 0.000000 0.000000
v -11.982656 0.000000 6.672129
v -10.422957 0.000000 8.685798
v 0.000000 0.000000 0.000000
v -13.238574 0.000000 4.569664
v -11.982656 0.000000 6.672129
v 0.000000 0.000000 0.000000
v -14.097690 0.000000 2.336837
v -13.238574 0.000000 4.569664
v 0.000000 0.000000 0.000000
v -14.216724 0.000000 0.000000
v -14.097690 0.000000 2.336837
v 0.000000 0.000000 0.000000
v -13.668604 0.000000 -2.265712
v -14.216724 0.000000 0.000000
v 0.000000 0.000000 0.000000
v -12.888729 0.000000 -4.448905
v -13.668604 0.000000 -2.265712
v 0.000000 0.000000 0.000000
v -11.936015 0.000000 -6.646158
v -12.888729 0.000000 -4.448905
v 0.000000 0.000000 0.000000
v -10.415633 0.000000 -8.679694
v -11.936015 0.000000 -6.646158
v 0.000000 0.000000 0.000000
v -8.187322 0.000000 -10.210994
v -10.415633 0.000000 -8.679694
v 0.000000 0.000000 0.000000
v -5.577669 0.000000 -11.221404
v -8.187322 0.000000 -10.210994
v 0.000000 0.000000 0.000000
v -2.846283 0.000000 -11.924357
v -5.577669 0.000000 -11.221404
v 0.000000 0.000000 0.000000
v -0.000000 0.000000 -12.238989
v -2.846283 0.000000 -11.924357
v 0.000000 0.000000 0.000000
v 2.830663 0.000000 -11.858922
v -0.000000 0.000000 -12.238989
v 0.000000 0.000000 0.000000
v 5.387880 0.000000 -10.839578
v 2.830663 0.000000 -11.858922
v 0.000000 0.000000 0.000000
v 7.694965 0.000000 -9.596940
v 5.387880 0.000000 -10.839578
v 0.000000 0.000000 0.000000
v 9.941718 0.000000 -8.284765
v 7.694965 0.000000 -9.596940
v 0.000000 0.000000 0.000000
v 11.963669 0.000000 -6.661556
v 9.941718 0.000000 -8.284765
v 0.000000 0.000000 0.000000
v 13.369157 0.000000 -4.614738
v 11.963669 0.000000 -6.661556
v 0.000000 0.000000 0.000000
v 14.148927 0.000000 -2.345330
v 13.369157 0.000000 -4.614738
v 0.000000 0.000000 0.000000
v 14.583276 0.000000 -0.000000
v 14.148927 0.000000 -2.345330
v 14.583276 0.000000 0.000000
v 14.578012 0.000000 2.416456
v 15.185429 -0.320000 2.517141
v 15.190912 -0.320000 0.000000
v 14.578012 0.000000 2.416456
v 13.719001 0.000000 4.735497
v 14.290626 -0.320000 4.932809
v 15.185429 -0.320000 2.517141
v 13.719001 0.000000 4.735497
v 12.010310 0.000000 6.687527
v 12.510740 -0.320000 6.966174
v 14.290626 -0.320000 4.932809
v 12.010310 0.000000 6.687527
v 9.949043 0.000000 8.290869
v 10.363586 -0.320000 8.636322
v 12.510740 -0.320000 6.966174
v 9.949043 0.000000 8.290869
v 7.813101 0.000000 9.744276
v 8.138647 -0.320000 10.150288
v 10.363586 -0.320000 8.636322
v 7.813101 0.000000 9.744276
v 5.443614 0.000000 10.951705
v 5.670431 -0.320000 11.408026
v 8.138647 -0.320000 10.150288
v 5.443614 0.000000 10.951705
v 2.772319 0.000000 11.614490
v 2.887832 -0.320000 12.098427
v 5.670431 -0.320000 11.408026
v 2.772319 0.000000 11.614490
v 0.000000 0.000000 11.761011
v 0.000000 -0.320000 12.251053
v 2.887832 -0.320000 12.098427
v 0.000000 0.000000 11.761011
v -2.787938 0.000000 11.679925
v -2.904102 -0.320000 12.166589
v 0.000000 -0.320000 12.251053
v -2.787938 0.000000 11.679925
v -5.633402 0.000000 11.333530
v -5.868128 -0.320000 11.805761
v -2.904102 -0.320000 12.166589
v -5.633402 0.000000 11.333530
v -8.305458 0.000000 10.358330
v -8.651519 -0.320000 10.789927
v -5.868128 -0.320000 11.805761
v -8.305458 0.000000 10.358330
v -10.422957 0.000000 8.685798
v -10.857247 -0.320000 9.047706
v -8.651519 -0.320000 10.789927
v -10.422957 0.000000 8.685798
v -11.982656 0.000000 6.672129
v -12.481934 -0.320000 6.950134
v -10.857247 -0.320000 9.047706
v -11.982656 0.000000 6.672129
v -13.238574 0.000000 4.569664
v -13.790181 -0.320000 4.760067
v -12.481934 -0.320000 6.950134
v -13.238574 0.000000 4.569664
v -14.097690 0.000000 2.336837
v -14.685093 -0.320000 2.434206
v -13.790181 -0.320000 4.760067
v -14.097690 0.000000 2.336837
v -14.216724 0.000000 0.000000
v -14.809088 -0.320000 0.000000
v -14.685093 -0.320000 2.434206
v -14.216724 0.000000 0.000000
v -13.668604 0.000000 -2.265712
v -14.238129 -0.320000 -2.360117
v -14.809088 -0.320000 0.000000
v -13.668604 0.000000 -2.265712
v -12.888729 0.000000 -4.448905
v -13.425760 -0.320000 -4.634276
v -14.238129 -0.320000 -2.360117
v -12.888729 0.000000 -4.448905
v -11.936015 0.000000 -6.646158
v -12.433349 -0.320000 -6.923082
v -13.425760 -0.320000 -4.634276
v -11.936015 0.000000 -6.646158
v -10.415633 0.000000 -8.679694
v -10.849617 -0.320000 -9.041348
v -12.433349 -0.320000 -6.923082
v -10.415633 0.000000 -8.679694
v -8.187322 0.000000 -10.210994
v -8.528460 -0.320000 -10.636453
v -10.849617 -0.320000 -9.041348
v -8.187322 0.000000 -10.210994
v -5.577669 0.000000 -11.221404
v -5.810072 -0.320000 -11.688962
v -8.528460 -0.320000 -10.636453
v -5.577669 0.000000 -11.221404
v -2.846283 0.000000 -11.924357
v -2.964878 -0.320000 -12.421205
v -5.810072 -0.320000 -11.688962
v -2.846283 0.000000 -11.924357
v -0.000000 0.000000 -12.238989
v -0.000000 -0.320000 -12.748947
v -2.964878 -0.320000 -12.421205
v -0.000000 0.000000 -12.238989
v 2.830663 0.000000 -11.858922
v 2.948608 -0.320000 -12.353043
v -0.000000 -0.320000 -12.748947
v 2.830663 0.000000 -11.858922
v 5.387880 0.000000 -10.839578
v 5.612375 -0.320000 -11.291227
v 2.948608 -0.320000 -12.353043
v 5.387880 0.000000 -10.839578
v 7.694965 0.000000 -9.596940
v 8.015588 -0.320000 -9.996813
v 5.612375 -0.320000 -11.291227
v 7.694965 0.000000 -9.596940
v 9.941718 0.000000 -8.284765
v 10.355957 -0.320000 -8.629964
v 8.015588 -0.320000 -9.996813
v 9.941718 0.000000 -8.284765
v 11.963669 0.000000 -6.661556
v 12.462155 -0.320000 -6.939121
v 10.355957 -0.320000 -8.629964
v 11.963669 0.000000 -6.661556
v 13.369157 0.000000 -4.614738
v 13.926205 -0.320000 -4.807019
v 12.462155 -0.320000 -6.939121
v 13.369157 0.000000 -4.614738
v 14.148927 0.000000 -2.345330
v 14.738465 -0.320000 -2.443052
v 13.926205 -0.320000 -4.807019
v 14.148927 0.000000 -2.345330
v 14.583276 0.000000 -0.000000
v 15.190912 -0.320000 -0.000000
v 14.738465 -0.320000 -2.443052
v 15.190912 -0.320000 0.000000
v 15.185429 -0.320000 2.517141
v 15.489138 -1.050000 2.567484
v 15.494730 -1.050000 0.000000
v 15.185429 -0.320000 2.517141
v 14.290626 -0.320000 4.932809
v 14.576439 -1.050000 5.031466
v 15.489138 -1.050000 2.567484
v 14.290626 -0.320000 4.932809
v 12.510740 -0.320000 6.966174
v 12.760954 -1.050000 7.105498
v 14.576439 -1.050000 5.031466
v 12.510740 -0.320000 6.966174
v 10.363586 -0.320000 8.636322
v 10.570858 -1.050000 8.809048
v 12.760954 -1.050000 7.105498
v 10.363586 -0.320000 8.636322
v 8.138647 -0.320000 10.150288
v 8.301420 -1.050000 10.353294
v 10.570858 -1.050000 8.809048
v 8.138647 -0.320000 10.150288
v 5.670431 -0.320000 11.408026
v 5.783840 -1.050000 11.636187
v 8.301420 -1.050000 10.353294
v 5.670431 -0.320000 11.408026
v 2.887832 -0.320000 12.098427
v 2.945589 -1.050000 12.340395
v 5.783840 -1.050000 11.636187
v 2.887832 -0.320000 12.098427
v 0.000000 -0.320000 12.251053
v 0.000000 -1.050000 12.496074
v 2.945589 -1.050000 12.340395
v 0.000000 -0.320000 12.251053
v -2.904102 -0.320000 12.166589
v -2.962184 -1.050000 12.409920
v 0.000000 -1.050000 12.496074
v -2.904102 -0.320000 12.166589
v -5.868128 -0.320000 11.805761
v -5.985490 -1.050000 12.041876
v -2.962184 -1.050000 12.409920
v -5.868128 -0.320000 11.805761
v -8.651519 -0.320000 10.789927
v -8.824549 -1.050000 11.005726
v -5.985490 -1.050000 12.041876
v -8.651519 -0.320000 10.789927
v -10.857247 -0.320000 9.047706
v -11.074392 -1.050000 9.228660
v -8.824549 -1.050000 11.005726
v -10.857247 -0.320000 9.047706
v -12.481934 -0.320000 6.950134
v -12.731572 -1.050000 7.089137
v -11.074392 -1.050000 9.228660
v -12.481934 -0.320000 6.950134
v -13.790181 -0.320000 4.760067
v -14.065984 -1.050000 4.855268
v -12.731572 -1.050000 7.089137
v -13.790181 -0.320000 4.760067
v -14.685093 -0.320000 2.434206
v -14.978795 -1.050000 2.482890
v -14.065984 -1.050000 4.855268
v -14.685093 -0.320000 2.434206
v -14.809088 -0.320000 0.000000
v -15.105270 -1.050000 0.000000
v -14.978795 -1.050000 2.482890
v -14.809088 -0.320000 0.000000
v -14.238129 -0.320000 -2.360117
v -14.522892 -1.050000 -2.407319
v -15.105270 -1.050000 0.000000
v -14.238129 -0.320000 -2.360117
v -13.425760 -0.320000 -4.634276
v -13.694275 -1.050000 -4.726962
v -14.522892 -1.050000 -2.407319
v -13.425760 -0.320000 -4.634276
v -12.433349 -0.320000 -6.923082
v -12.682016 -1.050000 -7.061543
v -13.694275 -1.050000 -4.726962
v -12.433349 -0.320000 -6.923082
v -10.849617 -0.320000 -9.041348
v -11.066610 -1.050000 -9.222175
v -12.682016 -1.050000 -7.061543
v -10.849617 -0.320000 -9.041348
v -8.528460 -0.320000 -10.636453
v -8.699030 -1.050000 -10.849182
v -11.066610 -1.050000 -9.222175
v -8.528460 -0.320000 -10.636453
v -5.810072 -0.320000 -11.688962
v -5.926273 -1.050000 -11.922741
v -8.699030 -1.050000 -10.849182
v -5.810072 -0.320000 -11.688962
v -2.964878 -0.320000 -12.421205
v -3.024175 -1.050000 -12.669629
v -5.926273 -1.050000 -11.922741
v -2.964878 -0.320000 -12.421205
v -0.000000 -0.320000 -12.748947
v -0.000000 -1.050000 -13.003926
v -3.024175 -1.050000 -12.669629
v -0.000000 -0.320000 -12.748947
v 2.948608 -0.320000 -12.353043
v 3.007580 -1.050000 -12.600104
v -0.000000 -1.050000 -13.003926
v 2.948608 -0.320000 -12.353043
v 5.612375 -0.320000 -11.291227
v 5.724623 -1.050000 -11.517052
v 3.007580 -1.050000 -12.600104
v 5.612375 -0.320000 -11.291227
v 8.015588 -0.320000 -9.996813
v 8.175900 -1.050000 -10.196749
v 5.724623 -1.050000 -11.517052
v 8.015588 -0.320000 -9.996813
v 10.355957 -0.320000 -8.629964
v 10.563076 -1.050000 -8.802563
v 8.175900 -1.050000 -10.196749
v 10.355957 -0.320000 -8.629964
v 12.462155 -0.320000 -6.939121
v 12.711398 -1.050000 -7.077904
v 10.563076 -1.050000 -8.802563
v 12.462155 -0.320000 -6.939121
v 13.926205 -0.320000 -4.807019
v 14.204729 -1.050000 -4.903160
v 12.711398 -1.050000 -7.077904
v 13.926205 -0.320000 -4.807019
v 14.738465 -0.320000 -2.443052
v 15.033234 -1.050000 -2.491914
v 14.204729 -1.050000 -4.903160
v 14.738465 -0.320000 -2.443052
v 15.190912 -0.320000 -0.000000
v 15.494730 -1.050000 -0.000000
v 15.033234 -1.050000 -2.491914
v 15.494730 -1.050000 0.000000
v 15.489138 -1.050000 2.567484
v 14.881721 -3.100000 2.466799
v 14.887094 -3.100000 0.000000
v 15.489138 -1.050000 2.567484
v 14.576439 -1.050000 5.031466
v 14.004814 -3.100000 4.834153
v 14.881721 -3.100000 2.466799
v 14.576439 -1.050000 5.031466
v 12.760954 -1.050000 7.105498
v 12.260525 -3.100000 6.826851
v 14.004814 -3.100000 4.834153
v 12.760954 -1.050000 7.105498
v 10.570858 -1.050000 8.809048
v 10.156314 -3.100000 8.463595
v 12.260525 -3.100000 6.826851
v 10.570858 -1.050000 8.809048
v 8.301420 -1.050000 10.353294
v 7.975874 -3.100000 9.947282
v 10.156314 -3.100000 8.463595
v 8.301420 -1.050000 10.353294
v 5.783840 -1.050000 11.636187
v 5.557022 -3.100000 11.179866
v 7.975874 -3.100000 9.947282
v 5.783840 -1.050000 11.636187
v 2.945589 -1.050000 12.340395
v 2.830075 -3.100000 11.856458
v 5.557022 -3.100000 11.179866
v 2.945589 -1.050000 12.340395
v 0.000000 -1.050000 12.496074
v 0.000000 -3.100000 12.006032
v 2.830075 -3.100000 11.856458
v 0.000000 -1.050000 12.496074
v -2.962184 -1.050000 12.409920
v -2.846020 -3.100000 11.923257
v 0.000000 -3.100000 12.006032
v -2.962184 -1.050000 12.409920
v -5.985490 -1.050000 12.041876
v -5.750765 -3.100000 11.569646
v -2.846020 -3.100000 11.923257
v -5.985490 -1.050000 12.041876
v -8.824549 -1.050000 11.005726
v -8.478488 -3.100000 10.574129
v -5.750765 -3.100000 11.569646
v -8.824549 -1.050000 11.005726
v -11.074392 -1.050000 9.228660
v -10.640102 -3.100000 8.866752
v -8.478488 -3.100000 10.574129
v -11.074392 -1.050000 9.228660
v -12.731572 -1.050000 7.089137
v -12.232295 -3.100000 6.811132
v -10.640102 -3.100000 8.866752
v -12.731572 -1.050000 7.089137
v -14.065984 -1.050000 4.855268
v -13.514377 -3.100000 4.664865
v -12.232295 -3.100000 6.811132
v -14.065984 -1.050000 4.855268
v -14.978795 -1.050000 2.482890
v -14.391391 -3.100000 2.385521
v -13.514377 -3.100000 4.664865
v -14.978795 -1.050000 2.482890
v -15.105270 -1.050000 0.000000
v -14.512906 -3.100000 0.000000
v -14.391391 -3.100000 2.385521
v -15.105270 -1.050000 0.000000
v -14.522892 -1.050000 -2.407319
v -13.953366 -3.100000 -2.312914
v -14.512906 -3.100000 0.000000
v -14.522892 -1.050000 -2.407319
v -13.694275 -1.050000 -4.726962
v -13.157245 -3.100000 -4.541591
v -13.953366 -3.100000 -2.312914
v -13.694275 -1.050000 -4.726962
v -12.682016 -1.050000 -7.061543
v -12.184682 -3.100000 -6.784620
v -13.157245 -3.100000 -4.541591
v -12.682016 -1.050000 -7.061543
v -11.066610 -1.050000 -9.222175
v -10.632625 -3.100000 -8.860521
v -12.184682 -3.100000 -6.784620
v -11.066610 -1.050000 -9.222175
v -8.699030 -1.050000 -10.849182
v -8.357891 -3.100000 -10.423723
v -10.632625 -3.100000 -8.860521
v -8.699030 -1.050000 -10.849182
v -5.926273 -1.050000 -11.922741
v -5.693871 -3.100000 -11.455183
v -8.357891 -3.100000 -10.423723
v -5.926273 -1.050000 -11.922741
v -3.024175 -1.050000 -12.669629
v -2.905580 -3.100000 -12.172781
v -5.693871 -3.100000 -11.455183
v -3.024175 -1.050000 -12.669629
v -0.000000 -1.050000 -13.003926
v -0.000000 -3.100000 -12.493968
v -2.905580 -3.100000 -12.172781
v -0.000000 -1.050000 -13.003926
v 3.007580 -1.050000 -12.600104
v 2.889636 -3.100000 -12.105982
v -0.000000 -3.100000 -12.493968
v 3.007580 -1.050000 -12.600104
v 5.724623 -1.050000 -11.517052
v 5.500128 -3.100000 -11.065403
v 2.889636 -3.100000 -12.105982
v 5.724623 -1.050000 -11.517052
v 8.175900 -1.050000 -10.196749
v 7.855276 -3.100000 -9.796877
v 5.500128 -3.100000 -11.065403
v 8.175900 -1.050000 -10.196749
v 10.563076 -1.050000 -8.802563
v 10.148837 -3.100000 -8.457365
v 7.855276 -3.100000 -9.796877
v 10.563076 -1.050000 -8.802563
v 12.711398 -1.050000 -7.077904
v 12.212912 -3.100000 -6.800339
v 10.148837 -3.100000 -8.457365
v 12.711398 -1.050000 -7.077904
v 14.204729 -1.050000 -4.903160
v 13.647681 -3.100000 -4.710879
v 12.212912 -3.100000 -6.800339
v 14.204729 -1.050000 -4.903160
v 15.033234 -1.050000 -2.491914
v 14.443696 -3.100000 -2.394191
v 13.647681 -3.100000 -4.710879
v 15.033234 -1.050000 -2.491914
v 15.494730 -1.050000 -0.000000
v 14.887094 -3.100000 -0.000000
v 14.443696 -3.100000 -2.394191
v 14.887094 -3.100000 0.000000
v 14.881721 -3.100000 2.466799
v 13.818741 -5.550000 2.290599
v 13.823730 -5.550000 0.000000
v 14.881721 -3.100000 2.466799
v 14.004814 -3.100000 4.834153
v 13.004470 -5.550000 4.488857
v 13.818741 -5.550000 2.290599
v 14.004814 -3.100000 4.834153
v 12.260525 -3.100000 6.826851
v 11.384773 -5.550000 6.339218
v 13.004470 -5.550000 4.488857
v 12.260525 -3.100000 6.826851
v 10.156314 -3.100000 8.463595
v 9.430863 -5.550000 7.859053
v 11.384773 -5.550000 6.339218
v 10.156314 -3.100000 8.463595
v 7.975874 -3.100000 9.947282
v 7.406168 -5.550000 9.236762
v 9.430863 -5.550000 7.859053
v 7.975874 -3.100000 9.947282
v 5.557022 -3.100000 11.179866
v 5.160092 -5.550000 10.381304
v 7.406168 -5.550000 9.236762
v 5.557022 -3.100000 11.179866
v 2.830075 -3.100000 11.856458
v 2.627927 -5.550000 11.009568
v 5.160092 -5.550000 10.381304
v 2.830075 -3.100000 11.856458
v 0.000000 -3.100000 12.006032
v 0.000000 -5.550000 11.148458
v 2.627927 -5.550000 11.009568
v 0.000000 -3.100000 12.006032
v -2.846020 -3.100000 11.923257
v -2.642733 -5.550000 11.071596
v 0.000000 -5.550000 11.148458
v -2.846020 -3.100000 11.923257
v -5.750765 -3.100000 11.569646
v -5.339996 -5.550000 10.743242
v -2.642733 -5.550000 11.071596
v -5.750765 -3.100000 11.569646
v -8.478488 -3.100000 10.574129
v -7.872882 -5.550000 9.818834
v -5.339996 -5.550000 10.743242
v -8.478488 -3.100000 10.574129
v -10.640102 -3.100000 8.866752
v -9.880095 -5.550000 8.233412
v -7.872882 -5.550000 9.818834
v -10.640102 -3.100000 8.866752
v -12.232295 -3.100000 6.811132
v -11.358560 -5.550000 6.324622
v -9.880095 -5.550000 8.233412
v -12.232295 -3.100000 6.811132
v -13.514377 -3.100000 4.664865
v -12.549065 -5.550000 4.331661
v -11.358560 -5.550000 6.324622
v -13.514377 -3.100000 4.664865
v -14.391391 -3.100000 2.385521
v -13.363435 -5.550000 2.215127
v -12.549065 -5.550000 4.331661
v -14.391391 -3.100000 2.385521
v -14.512906 -3.100000 0.000000
v -13.476270 -5.550000 0.000000
v -13.363435 -5.550000 2.215127
v -14.512906 -3.100000 0.000000
v -13.953366 -3.100000 -2.312914
v -12.956697 -5.550000 -2.147706
v -13.476270 -5.550000 0.000000
v -13.953366 -3.100000 -2.312914
v -13.157245 -3.100000 -4.541591
v -12.217441 -5.550000 -4.217192
v -12.956697 -5.550000 -2.147706
v -13.157245 -3.100000 -4.541591
v -12.184682 -3.100000 -6.784620
v -11.314347 -5.550000 -6.300004
v -12.217441 -5.550000 -4.217192
v -12.184682 -3.100000 -6.784620
v -10.632625 -3.100000 -8.860521
v -9.873152 -5.550000 -8.227627
v -11.314347 -5.550000 -6.300004
v -10.632625 -3.100000 -8.860521
v -8.357891 -3.100000 -10.423723
v -7.760899 -5.550000 -9.679172
v -9.873152 -5.550000 -8.227627
v -8.357891 -3.100000 -10.423723
v -5.693871 -3.100000 -11.455183
v -5.287165 -5.550000 -10.636956
v -7.760899 -5.550000 -9.679172
v -5.693871 -3.100000 -11.455183
v -2.905580 -3.100000 -12.172781
v -2.698039 -5.550000 -11.303297
v -5.287165 -5.550000 -10.636956
v -2.905580 -3.100000 -12.172781
v -0.000000 -3.100000 -12.493968
v -0.000000 -5.550000 -11.601542
v -2.698039 -5.550000 -11.303297
v -0.000000 -3.100000 -12.493968
v 2.889636 -3.100000 -12.105982
v 2.683233 -5.550000 -11.241269
v -0.000000 -5.550000 -11.601542
v 2.889636 -3.100000 -12.105982
v 5.500128 -3.100000 -11.065403
v 5.107262 -5.550000 -10.275017
v 2.683233 -5.550000 -11.241269
v 5.500128 -3.100000 -11.065403
v 7.855276 -3.100000 -9.796877
v 7.294185 -5.550000 -9.097100
v 5.107262 -5.550000 -10.275017
v 7.855276 -3.100000 -9.796877
v 10.148837 -3.100000 -8.457365
v 9.423920 -5.550000 -7.853267
v 7.294185 -5.550000 -9.097100
v 10.148837 -3.100000 -8.457365
v 12.212912 -3.100000 -6.800339
v 11.340561 -5.550000 -6.314600
v 9.423920 -5.550000 -7.853267
v 12.212912 -3.100000 -6.800339
v 13.647681 -3.100000 -4.710879
v 12.672847 -5.550000 -4.374387
v 11.340561 -5.550000 -6.314600
v 13.647681 -3.100000 -4.710879
v 14.443696 -3.100000 -2.394191
v 13.412003 -5.550000 -2.223178
v 12.672847 -5.550000 -4.374387
v 14.443696 -3.100000 -2.394191
v 14.887094 -3.100000 -0.000000
v 13.823730 -5.550000 -0.000000
v 13.412003 -5.550000 -2.223178
v 13.823730 -5.550000 0.000000
v 13.818741 -5.550000 2.290599
v 12.755761 -7.200000 2.114399
v 12.760366 -7.200000 0.000000
v 13.818741 -5.550000 2.290599
v 13.004470 -5.550000 4.488857
v 12.004126 -7.200000 4.143560
v 12.755761 -7.200000 2.114399
v 13.004470 -5.550000 4.488857
v 11.384773 -5.550000 6.339218
v 10.509021 -7.200000 5.851586
v 12.004126 -7.200000 4.143560
v 11.384773 -5.550000 6.339218
v 9.430863 -5.550000 7.859053
v 8.705412 -7.200000 7.254510
v 10.509021 -7.200000 5.851586
v 9.430863 -5.550000 7.859053
v 7.406168 -5.550000 9.236762
v 6.836463 -7.200000 8.526242
v 8.705412 -7.200000 7.254510
v 7.406168 -5.550000 9.236762
v 5.160092 -5.550000 10.381304
v 4.763162 -7.200000 9.582742
v 6.836463 -7.200000 8.526242
v 5.160092 -5.550000 10.381304
v 2.627927 -5.550000 11.009568
v 2.425779 -7.200000 10.162678
v 4.763162 -7.200000 9.582742
v 2.627927 -5.550000 11.009568
v 0.000000 -5.550000 11.148458
v 0.000000 -7.200000 10.290885
v 2.425779 -7.200000 10.162678
v 0.000000 -5.550000 11.148458
v -2.642733 -5.550000 11.071596
v -2.439446 -7.200000 10.219934
v 0.000000 -7.200000 10.290885
v -2.642733 -5.550000 11.071596
v -5.339996 -5.550000 10.743242
v -4.929227 -7.200000 9.916839
v -2.439446 -7.200000 10.219934
v -5.339996 -5.550000 10.743242
v -7.872882 -5.550000 9.818834
v -7.267276 -7.200000 9.063539
v -4.929227 -7.200000 9.916839
v -7.872882 -5.550000 9.818834
v -9.880095 -5.550000 8.233412
v -9.120087 -7.200000 7.600073
v -7.267276 -7.200000 9.063539
v -9.880095 -5.550000 8.233412
v -11.358560 -5.550000 6.324622
v -10.484824 -7.200000 5.838113
v -9.120087 -7.200000 7.600073
v -11.358560 -5.550000 6.324622
v -12.549065 -5.550000 4.331661
v -11.583752 -7.200000 3.998456
v -10.484824 -7.200000 5.838113
v -12.549065 -5.550000 4.331661
v -13.363435 -5.550000 2.215127
v -12.335478 -7.200000 2.044733
v -11.583752 -7.200000 3.998456
v -13.363435 -5.550000 2.215127
v -13.476270 -5.550000 0.000000
v -12.439634 -7.200000 0.000000
v -12.335478 -7.200000 2.044733
v -13.476270 -5.550000 0.000000
v -12.956697 -5.550000 -2.147706
v -11.960028 -7.200000 -1.982498
v -12.439634 -7.200000 0.000000
v -12.956697 -5.550000 -2.147706
v -12.217441 -5.550000 -4.217192
v -11.277638 -7.200000 -3.892792
v -11.960028 -7.200000 -1.982498
v -12.217441 -5.550000 -4.217192
v -11.314347 -5.550000 -6.300004
v -10.444013 -7.200000 -5.815389
v -11.277638 -7.200000 -3.892792
v -11.314347 -5.550000 -6.300004
v -9.873152 -5.550000 -8.227627
v -9.113679 -7.200000 -7.594732
v -10.444013 -7.200000 -5.815389
v -9.873152 -5.550000 -8.227627
v -7.760899 -5.550000 -9.679172
v -7.163907 -7.200000 -8.934620
v -9.113679 -7.200000 -7.594732
v -7.760899 -5.550000 -9.679172
v -5.287165 -5.550000 -10.636956
v -4.880460 -7.200000 -9.818728
v -7.163907 -7.200000 -8.934620
v -5.287165 -5.550000 -10.636956
v -2.698039 -5.550000 -11.303297
v -2.490497 -7.200000 -10.433812
v -4.880460 -7.200000 -9.818728
v -2.698039 -5.550000 -11.303297
v -0.000000 -5.550000 -11.601542
v -0.000000 -7.200000 -10.709115
v -2.490497 -7.200000 -10.433812
v -0.000000 -5.550000 -11.601542
v 2.683233 -5.550000 -11.241269
v 2.476830 -7.200000 -10.376556
v -0.000000 -7.200000 -10.709115
v 2.683233 -5.550000 -11.241269
v 5.107262 -5.550000 -10.275017
v 4.714395 -7.200000 -9.484631
v 2.476830 -7.200000 -10.376556
v 5.107262 -5.550000 -10.275017
v 7.294185 -5.550000 -9.097100
v 6.733094 -7.200000 -8.397323
v 4.714395 -7.200000 -9.484631
v 7.294185 -5.550000 -9.097100
v 9.423920 -5.550000 -7.853267
v 8.699003 -7.200000 -7.249170
v 6.733094 -7.200000 -8.397323
v 9.423920 -5.550000 -7.853267
v 11.340561 -5.550000 -6.314600
v 10.468210 -7.200000 -5.828862
v 8.699003 -7.200000 -7.249170
v 11.340561 -5.550000 -6.314600
v 12.672847 -5.550000 -4.374387
v 11.698012 -7.200000 -4.037896
v 10.468210 -7.200000 -5.828862
v 12.672847 -5.550000 -4.374387
v 13.412003 -5.550000 -2.223178
v 12.380311 -7.200000 -2.052164
v 11.698012 -7.200000 -4.037896
v 13.412003 -5.550000 -2.223178
v 13.823730 -5.550000 -0.000000
v 12.760366 -7.200000 -0.000000
v 12.380311 -7.200000 -2.052164
v 0.000000 -7.200000 0.000000
v 12.760366 -7.200000 0.000000
v 12.755761 -7.200000 2.114399
v 0.000000 -7.200000 0.000000
v 12.755761 -7.200000 2.114399
v 12.004126 -7.200000 4.143560
v 0.000000 -7.200000 0.000000
v 12.004126 -7.200000 4.143560
v 10.509021 -7.200000 5.851586
v 0.000000 -7.200000 0.000000
v 10.509021 -7.200000 5.851586
v 8.705412 -7.200000 7.254510
v 0.000000 -7.200000 0.000000
v 8.705412 -7.200000 7.254510
v 6.836463 -7.200000 8.526242
v 0.000000 -7.200000 0.000000
v 6.836463 -7.200000 8.526242
v 4.763162 -7.200000 9.582742
v 0.000000 -7.200000 0.000000
v 4.763162 -7.200000 9.582742
v 2.425779 -7.200000 10.162678
v 0.000000 -7.200000 0.000000
v 2.425779 -7.200000 10.162678
v 0.000000 -7.200000 10.290885
v 0.000000 -7.200000 0.000000
v 0.000000 -7.200000 10.290885
v -2.439446 -7.200000 10.219934
v 0.000000 -7.200000 0.000000
v -2.439446 -7.200000 10.219934
v -4.929227 -7.200000 9.916839
v 0.000000 -7.200000 0.000000
v -4.929227 -7.200000 9.916839
v -7.267276 -7.200000 9.063539
v 0.000000 -7.200000 0.000000
v -7.267276 -7.200000 9.063539
v -9.120087 -7.200000 7.600073
v 0.000000 -7.200000 0.000000
v -9.120087 -7.200000 7.600073
v -10.484824 -7.200000 5.838113
v 0.000000 -7.200000 0.000000
v -10.484824 -7.200000 5.838113
v -11.583752 -7.200000 3.998456
v 0.000000 -7.200000 0.000000
v -11.583752 -7.200000 3.998456
v -12.335478 -7.200000 2.044733
v 0.000000 -7.200000 0.000000
v -12.335478 -7.200000 2.044733
v -12.439634 -7.200000 0.000000
v 0.000000 -7.200000 0.000000
v -12.439634 -7.200000 0.000000
v -11.960028 -7.200000 -1.982498
v 0.000000 -7.200000 0.000000
v -11.960028 -7.200000 -1.982498
v -11.277638 -7.200000 -3.892792
v 0.000000 -7.200000 0.000000
v -11.277638 -7.200000 -3.892792
v -10.444013 -7.200000 -5.815389
v 0.000000 -7.200000 0.000000
v -10.444013 -7.200000 -5.815389
v -9.113679 -7.200000 -7.594732
v 0.000000 -7.200000 0.000000
v -9.113679 -7.200000 -7.594732
v -7.163907 -7.200000 -8.934620
v 0.000000 -7.200000 0.000000
v -7.163907 -7.200000 -8.934620
v -4.880460 -7.200000 -9.818728
v 0.000000 -7.200000 0.000000
v -4.880460 -7.200000 -9.818728
v -2.490497 -7.200000 -10.433812
v 0.000000 -7.200000 0.000000
v -2.490497 -7.200000 -10.433812
v -0.000000 -7.200000 -10.709115
v 0.000000 -7.200000 0.000000
v -0.000000 -7.200000 -10.709115
v 2.476830 -7.200000 -10.376556
v 0.000000 -7.200000 0.000000
v 2.476830 -7.200000 -10.376556
v 4.714395 -7.200000 -9.484631
v 0.000000 -7.200000 0.000000
v 4.714395 -7.200000 -9.484631
v 6.733094 -7.200000 -8.397323
v 0.000000 -7.200000 0.000000
v 6.733094 -7.200000 -8.397323
v 8.699003 -7.200000 -7.249170
v 0.000000 -7.200000 0.000000
v 8.699003 -7.200000 -7.249170
v 10.468210 -7.200000 -5.828862
v 0.000000 -7.200000 0.000000
v 10.468210 -7.200000 -5.828862
v 11.698012 -7.200000 -4.037896
v 0.000000 -7.200000 0.000000
v 11.698012 -7.200000 -4.037896
v 12.380311 -7.200000 -2.052164
v 0.000000 -7.200000 0.000000
v 12.380311 -7.200000 -2.052164
v 12.760366 -7.200000 -0.000000
vt 0.500000 0.500000
vt 0.985934 0.596658
vt 0.986109 0.500000
vt 0.500000 0.500000
vt 0.957300 0.689420
vt 0.985934 0.596658
vt 0.500000 0.500000
vt 0.900344 0.767501
vt 0.957300 0.689420
vt 0.500000 0.500000
vt 0.831635 0.831635
vt 0.900344 0.767501
vt 0.500000 0.500000
vt 0.760437 0.889771
vt 0.831635 0.831635
vt 0.500000 0.500000
vt 0.681454 0.938068
vt 0.760437 0.889771
vt 0.500000 0.500000
vt 0.592411 0.964580
vt 0.681454 0.938068
vt 0.500000 0.500000
vt 0.500000 0.970440
vt 0.592411 0.964580
vt 0.500000 0.500000
vt 0.407069 0.967197
vt 0.500000 0.970440
vt 0.500000 0.500000
vt 0.312220 0.953341
vt 0.407069 0.967197
vt 0.500000 0.500000
vt 0.223151 0.914333
vt 0.312220 0.953341
vt 0.500000 0.500000
vt 0.152568 0.847432
vt 0.223151 0.914333
vt 0.500000 0.500000
vt 0.100578 0.766885
vt 0.152568 0.847432
vt 0.500000 0.500000
vt 0.058714 0.682787
vt 0.100578 0.766885
vt 0.500000 0.500000
vt 0.030077 0.593473
vt 0.058714 0.682787
vt 0.500000 0.500000
vt 0.026109 0.500000
vt 0.030077 0.593473
vt 0.500000 0.500000
vt 0.044380 0.409372
vt 0.026109 0.500000
vt 0.500000 0.500000
vt 0.070376 0.322044
vt 0.044380 0.409372
vt 0.500000 0.500000
vt 0.102133 0.234154
vt 0.070376 0.322044
vt 0.500000 0.500000
vt 0.152812 0.152812
vt 0.102133 0.234154
vt 0.500000 0.500000
vt 0.227089 0.091560
vt 0.152812 0.152812
vt 0.500000 0.500000
vt 0.314078 0.051144
vt 0.227089 0.091560
vt 0.500000 0.500000
vt 0.405124 0.023026
vt 0.314078 0.051144
vt 0.500000 0.500000
vt 0.500000 0.010440
vt 0.405124 0.023026
vt 0.500000 0.500000
vt 0.594355 0.025643
vt 0.500000 0.010440
vt 0.500000 0.500000
vt 0.679596 0.066417
vt 0.594355 0.025643
vt 0.500000 0.500000
vt 0.756499 0.116122
vt 0.679596 0.066417
vt 0.500000 0.500000
vt 0.831391 0.168609
vt 0.756499 0.116122
vt 0.500000 0.500000
vt 0.898789 0.233538
vt 0.831391 0.168609
vt 0.500000 0.500000
vt 0.945639 0.315410
vt 0.898789 0.233538
vt 0.500000 0.500000
vt 0.971631 0.406187
vt 0.945639 0.315410
vt 0.500000 0.500000
vt 0.986109 0.500000
vt 0.971631 0.406187
vt 0.000000 0.000000
vt 0.031250 0.000000
vt 0.031250 1.000000
vt 0.000000 1.000000
vt 0.031250 0.000000
vt 0.062500 0.000000
vt 0.062500 1.000000
vt 0.031250 1.000000
vt 0.062500 0.000000
vt 0.093750 0.000000
vt 0.093750 1.000000
vt 0.062500 1.000000
vt 0.093750 0.000000
vt 0.125000 0.000000
vt 0.125000 1.000000
vt 0.093750 1.000000
vt 0.125000 0.000000
vt 0.156250 0.000000
vt 0.156250 1.000000
vt 0.125000 1.000000
vt 0.156250 0.000000
vt 0.187500 0.000000
vt 0.187500 1.000000
vt 0.156250 1.000000
vt 0.187500 0.000000
vt 0.218750 0.000000
vt 0.218750 1.000000
vt 0.187500 1.000000
vt 0.218750 0.000000
vt 0.250000 0.000000
vt 0.250000 1.000000
vt 0.218750 1.000000
vt 0.250000 0.000000
vt 0.281250 0.000000
vt 0.281250 1.000000
vt 0.250000 1.000000
vt 0.281250 0.000000
vt 0.312500 0.000000
vt 0.312500 1.000000
vt 0.281250 1.000000
vt 0.312500 0.000000
vt 0.343750 0.000000
vt 0.343750 1.000000
vt 0.312500 1.000000
vt 0.343750 0.000000
vt 0.375000 0.000000
vt 0.375000 1.000000
vt 0.343750 1.000000
vt 0.375000 0.000000
vt 0.406250 0.000000
vt 0.406250 1.000000
vt 0.375000 1.000000
vt 0.406250 0.000000
vt 0.437500 0.000000
vt 0.437500 1.000000
vt 0.406250 1.000000
vt 0.437500 0.000000
vt 0.468750 0.000000
vt 0.468750 1.000000
vt 0.437500 1.000000
vt 0.468750 0.000000
vt 0.500000 0.000000
vt 0.500000 1.000000
vt 0.468750 1.000000
vt 0.500000 0.000000
vt 0.531250 0.000000
vt 0.531250 1.000000
vt 0.500000 1.000000
vt 0.531250 0.000000
vt 0.562500 0.000000
vt 0.562500 1.000000
vt 0.531250 1.000000
vt 0.562500 0.000000
vt 0.593750 0.000000
vt 0.593750 1.000000
vt 0.562500 1.000000
vt 0.593750 0.000000
vt 0.625000 0.000000
vt 0.625000 1.000000
vt 0.593750 1.000000
vt 0.625000 0.000000
vt 0.656250 0.000000
vt 0.656250 1.000000
vt 0.625000 1.000000
vt 0.656250 0.000000
vt 0.687500 0.000000
vt 0.687500 1.000000
vt 0.656250 1.000000
vt 0.687500 0.000000
vt 0.718750 0.000000
vt 0.718750 1.000000
vt 0.687500 1.000000
vt 0.718750 0.000000
vt 0.750000 0.000000
vt 0.750000 1.000000
vt 0.718750 1.000000
vt 0.750000 0.000000
vt 0.781250 0.000000
vt 0.781250 1.000000
vt 0.750000 1.000000
vt 0.781250 0.000000
vt 0.812500 0.000000
vt 0.812500 1.000000
vt 0.781250 1.000000
vt 0.812500 0.000000
vt 0.843750 0.000000
vt 0.843750 1.000000
vt 0.812500 1.000000
vt 0.843750 0.000000
vt 0.875000 0.000000
vt 0.875000 1.000000
vt 0.843750 1.000000
vt 0.875000 0.000000
vt 0.906250 0.000000
vt 0.906250 1.000000
vt 0.875000 1.000000
vt 0.906250 0.000000
vt 0.937500 0.000000
vt 0.937500 1.000000
vt 0.906250 1.000000
vt 0.937500 0.000000
vt 0.968750 0.000000
vt 0.968750 1.000000
vt 0.937500 1.000000
vt 0.968750 0.000000
vt 1.000000 0.000000
vt 1.000000 1.000000
vt 0.968750 1.000000
vt 0.000000 0.000000
vt 0.031250 0.000000
vt 0.031250 1.000000
vt 0.000000 1.000000
vt 0.031250 0.000000
vt 0.062500 0.000000
vt 0.062500 1.000000
vt 0.031250 1.000000
vt 0.062500 0.000000
vt 0.093750 0.000000
vt 0.093750 1.000000
vt 0.062500 1.000000
vt 0.093750 0.000000
vt 0.125000 0.000000
vt 0.125000 1.000000
vt 0.093750 1.000000
vt 0.125000 0.000000
vt 0.156250 0.000000
vt 0.156250 1.000000
vt 0.125000 1.000000
vt 0.156250 0.000000
vt 0.187500 0.000000
vt 0.187500 1.000000
vt 0.156250 1.000000
vt 0.187500 0.000000
vt 0.218750 0.000000
vt 0.218750 1.000000
vt 0.187500 1.000000
vt 0.218750 0.000000
vt 0.250000 0.000000
vt 0.250000 1.000000
vt 0.218750 1.000000
vt 0.250000 0.000000
vt 0.281250 0.000000
vt 0.281250 1.000000
vt 0.250000 1.000000
vt 0.281250 0.000000
vt 0.312500 0.000000
vt 0.312500 1.000000
vt 0.281250 1.000000
vt 0.312500 0.000000
vt 0.343750 0.000000
vt 0.343750 1.000000
vt 0.312500 1.000000
vt 0.343750 0.000000
vt 0.375000 0.000000
vt 0.375000 1.000000
vt 0.343750 1.000000
vt 0.375000 0.000000
vt 0.406250 0.000000
vt 0.406250 1.000000
vt 0.375000 1.000000
vt 0.406250 0.000000
vt 0.437500 0.000000
vt 0.437500 1.000000
vt 0.406250 1.000000
vt 0.437500 0.000000
vt 0.468750 0.000000
vt 0.468750 1.000000
vt 0.437500 1.000000
vt 0.468750 0.000000
vt 0.500000 0.000000
vt 0.500000 1.000000
vt 0.468750 1.000000
vt 0.500000 0.000000
vt 0.531250 0.000000
vt 0.531250 1.000000
vt 0.500000 1.000000
vt 0.531250 0.000000
vt 0.562500 0.000000
vt 0.562500 1.000000
vt 0.531250 1.000000
vt 0.562500 0.000000
vt 0.593750 0.000000
vt 0.593750 1.000000
vt 0.562500 1.000000
vt 0.593750 0.000000
vt 0.625000 0.000000
vt 0.625000 1.000000
vt 0.593750 1.000000
vt 0.625000 0.000000
vt 0.656250 0.000000
vt 0.656250 1.000000
vt 0.625000 1.000000
vt 0.656250 0.000000
vt 0.687500 0.000000
vt 0.687500 1.000000
vt 0.656250 1.000000
vt 0.687500 0.000000
vt 0.718750 0.000000
vt 0.718750 1.000000
vt 0.687500 1.000000
vt 0.718750 0.000000
vt 0.750000 0.000000
vt 0.750000 1.000000
vt 0.718750 1.000000
vt 0.750000 0.000000
vt 0.781250 0.000000
vt 0.781250 1.000000
vt 0.750000 1.000000
vt 0.781250 0.000000
vt 0.812500 0.000000
vt 0.812500 1.000000
vt 0.781250 1.000000
vt 0.812500 0.000000
vt 0.843750 0.000000
vt 0.843750 1.000000
vt 0.812500 1.000000
vt 0.843750 0.000000
vt 0.875000 0.000000
vt 0.875000 1.000000
vt 0.843750 1.000000
vt 0.875000 0.000000
vt 0.906250 0.000000
vt 0.906250 1.000000
vt 0.875000 1.000000
vt 0.906250 0.000000
vt 0.937500 0.000000
vt 0.937500 1.000000
vt 0.906250 1.000000
vt 0.937500 0.000000
vt 0.968750 0.000000
vt 0.968750 1.000000
vt 0.937500 1.000000
vt 0.968750 0.000000
vt 1.000000 0.000000
vt 1.000000 1.000000
vt 0.968750 1.000000
vt 0.000000 0.000000
vt 0.031250 0.000000
vt 0.031250 1.000000
vt 0.000000 1.000000
vt 0.031250 0.000000
vt 0.062500 0.000000
vt 0.062500 1.000000
vt 0.031250 1.000000
vt 0.062500 0.000000
vt 0.093750 0.000000
vt 0.093750 1.000000
vt 0.062500 1.000000
vt 0.093750 0.000000
vt 0.125000 0.000000
vt 0.125000 1.000000
vt 0.093750 1.000000
vt 0.125000 0.000000
vt 0.156250 0.000000
vt 0.156250 1.000000
vt 0.125000 1.000000
vt 0.156250 0.000000
vt 0.187500 0.000000
vt 0.187500 1.000000
vt 0.156250 1.000000
vt 0.187500 0.000000
vt 0.218750 0.000000
vt 0.218750 1.000000
vt 0.187500 1.000000
vt 0.218750 0.000000
vt 0.250000 0.000000
vt 0.250000 1.000000
vt 0.218750 1.000000
vt 0.250000 0.000000
vt 0.281250 0.000000
vt 0.281250 1.000000
vt 0.250000 1.000000
vt 0.281250 0.000000
vt 0.312500 0.000000
vt 0.312500 1.000000
vt 0.281250 1.000000
vt 0.312500 0.000000
vt 0.343750 0.000000
vt 0.343750 1.000000
vt 0.312500 1.000000
vt 0.343750 0.000000
vt 0.375000 0.000000
vt 0.375000 1.000000
vt 0.343750 1.000000
vt 0.375000 0.000000
vt 0.406250 0.000000
vt 0.406250 1.000000
vt 0.375000 1.000000
vt 0.406250 0.000000
vt 0.437500 0.000000
vt 0.437500 1.000000
vt 0.406250 1.000000
vt 0.437500 0.000000
vt 0.468750 0.000000
vt 0.468750 1.000000
vt 0.437500 1.000000
vt 0.468750 0.000000
vt 0.500000 0.000000
vt 0.500000 1.000000
vt 0.468750 1.000000
vt 0.500000 0.000000
vt 0.531250 0.000000
vt 0.531250 1.000000
vt 0.500000 1.000000
vt 0.531250 0.000000
vt 0.562500 0.000000
vt 0.562500 1.000000
vt 0.531250 1.000000
vt 0.562500 0.000000
vt 0.593750 0.000000
vt 0.593750 1.000000
vt 0.562500 1.000000
vt 0.593750 0.000000
vt 0.625000 0.000000
vt 0.625000 1.000000
vt 0.593750 1.000000
vt 0.625000 0.000000
vt 0.656250 0.000000
vt 0.656250 1.000000
vt 0.625000 1.000000
vt 0.656250 0.000000
vt 0.687500 0.000000
vt 0.687500 1.000000
vt 0.656250 1.000000
vt 0.687500 0.000000
vt 0.718750 0.000000
vt 0.718750 1.000000
vt 0.687500 1.000000
vt 0.718750 0.000000
vt 0.750000 0.000000
vt 0.750000 1.000000
vt 0.718750 1.000000
vt 0.750000 0.000000
vt 0.781250 0.000000
vt 0.781250 1.000000
vt 0.750000 1.000000
vt 0.781250 0.000000
vt 0.812500 0.000000
vt 0.812500 1.000000
vt 0.781250 1.000000
vt 0.812500 0.000000
vt 0.843750 0.000000
vt 0.843750 1.000000
vt 0.812500 1.000000
vt 0.843750 0.000000
vt 0.875000 0.000000
vt 0.875000 1.000000
vt 0.843750 1.000000
vt 0.875000 0.000000
vt 0.906250 0.000000
vt 0.906250 1.000000
vt 0.875000 1.000000
vt 0.906250 0.000000
vt 0.937500 0.000000
vt 0.937500 1.000000
vt 0.906250 1.000000
vt 0.937500 0.000000
vt 0.968750 0.000000
vt 0.968750 1.000000
vt 0.937500 1.000000
vt 0.968750 0.000000
vt 1.000000 0.000000
vt 1.000000 1.000000
vt 0.968750 1.000000
vt 0.000000 0.000000
vt 0.031250 0.000000
vt 0.031250 1.000000
vt 0.000000 1.000000
vt 0.031250 0.000000
vt 0.062500 0.000000
vt 0.062500 1.000000
vt 0.031250 1.000000
vt 0.062500 0.000000
vt 0.093750 0.000000
vt 0.093750 1.000000
vt 0.062500 1.000000
vt 0.093750 0.000000
vt 0.125000 0.000000
vt 0.125000 1.000000
vt 0.093750 1.000000
vt 0.125000 0.000000
vt 0.156250 0.000000
vt 0.156250 1.000000
vt 0.125000 1.000000
vt 0.156250 0.000000
vt 0.187500 0.000000
vt 0.187500 1.000000
vt 0.156250 1.000000
vt 0.187500 0.000000
vt 0.218750 0.000000
vt 0.218750 1.000000
vt 0.187500 1.000000
vt 0.218750 0.000000
vt 0.250000 0.000000
vt 0.250000 1.000000
vt 0.218750 1.000000
vt 0.250000 0.000000
vt 0.281250 0.000000
vt 0.281250 1.000000
vt 0.250000 1.000000
vt 0.281250 0.000000
vt 0.312500 0.000000
vt 0.312500 1.000000
vt 0.281250 1.000000
vt 0.312500 0.000000
vt 0.343750 0.000000
vt 0.343750 1.000000
vt 0.312500 1.000000
vt 0.343750 0.000000
vt 0.375000 0.000000
vt 0.375000 1.000000
vt 0.343750 1.000000
vt 0.375000 0.000000
vt 0.406250 0.000000
vt 0.406250 1.000000
vt 0.375000 1.000000
vt 0.406250 0.000000
vt 0.437500 0.000000
vt 0.437500 1.000000
vt 0.406250 1.000000
vt 0.437500 0.000000
vt 0.468750 0.000000
vt 0.468750 1.000000
vt 0.437500 1.000000
vt 0.468750 0.000000
vt 0.500000 0.000000
vt 0.500000 1.000000
vt 0.468750 1.000000
vt 0.500000 0.000000
vt 0.531250 0.000000
vt 0.531250 1.000000
vt 0.500000 1.000000
vt 0.531250 0.000000
vt 0.562500 0.000000
vt 0.562500 1.000000
vt 0.531250 1.000000
vt 0.562500 0.000000
vt 0.593750 0.000000
vt 0.593750 1.000000
vt 0.562500 1.000000
vt 0.593750 0.000000
vt 0.625000 0.000000
vt 0.625000 1.000000
vt 0.593750 1.000000
vt 0.625000 0.000000
vt 0.656250 0.000000
vt 0.656250 1.000000
vt 0.625000 1.000000
vt 0.656250 0.000000
vt 0.687500 0.000000
vt 0.687500 1.000000
vt 0.656250 1.000000
vt 0.687500 0.000000
vt 0.718750 0.000000
vt 0.718750 1.000000
vt 0.687500 1.000000
vt 0.718750 0.000000
vt 0.750000 0.000000
vt 0.750000 1.000000
vt 0.718750 1.000000
vt 0.750000 0.000000
vt 0.781250 0.000000
vt 0.781250 1.000000
vt 0.750000 1.000000
vt 0.781250 0.000000
vt 0.812500 0.000000
vt 0.812500 1.000000
vt 0.781250 1.000000
vt 0.812500 0.000000
vt 0.843750 0.000000
vt 0.843750 1.000000
vt 0.812500 1.000000
vt 0.843750 0.000000
vt 0.875000 0.000000
vt 0.875000 1.000000
vt 0.843750 1.000000
vt 0.875000 0.000000
vt 0.906250 0.000000
vt 0.906250 1.000000
vt 0.875000 1.000000
vt 0.906250 0.000000
vt 0.937500 0.000000
vt 0.937500 1.000000
vt 0.906250 1.000000
vt 0.937500 0.000000
vt 0.968750 0.000000
vt 0.968750 1.000000
vt 0.937500 1.000000
vt 0.968750 0.000000
vt 1.000000 0.000000
vt 1.000000 1.000000
vt 0.968750 1.000000
vt 0.000000 0.000000
vt 0.031250 0.000000
vt 0.031250 1.000000
vt 0.000000 1.000000
vt 0.031250 0.000000
vt 0.062500 0.000000
vt 0.062500 1.000000
vt 0.031250 1.000000
vt 0.062500 0.000000
vt 0.093750 0.000000
vt 0.093750 1.000000
vt 0.062500 1.000000
vt 0.093750 0.000000
vt 0.125000 0.000000
vt 0.125000 1.000000
vt 0.093750 1.000000
vt 0.125000 0.000000
vt 0.156250 0.000000
vt 0.156250 1.000000
vt 0.125000 1.000000
vt 0.156250 0.000000
vt 0.187500 0.000000
vt 0.187500 1.000000
vt 0.156250 1.000000
vt 0.187500 0.000000
vt 0.218750 0.000000
vt 0.218750 1.000000
vt 0.187500 1.000000
vt 0.218750 0.000000
vt 0.250000 0.000000
vt 0.250000 1.000000
vt 0.218750 1.000000
vt 0.250000 0.000000
vt 0.281250 0.000000
vt 0.281250 1.000000
vt 0.250000 1.000000
vt 0.281250 0.000000
vt 0.312500 0.000000
vt 0.312500 1.000000
vt 0.281250 1.000000
vt 0.312500 0.000000
vt 0.343750 0.000000
vt 0.343750 1.000000
vt 0.312500 1.000000
vt 0.343750 0.000000
vt 0.375000 0.000000
vt 0.375000 1.000000
vt 0.343750 1.000000
vt 0.375000 0.000000
vt 0.406250 0.000000
vt 0.406250 1.000000
vt 0.375000 1.000000
vt 0.406250 0.000000
vt 0.437500 0.000000
vt 0.437500 1.000000
vt 0.406250 1.000000
vt 0.437500 0.000000
vt 0.468750 0.000000
vt 0.468750 1.000000
vt 0.437500 1.000000
vt 0.468750 0.000000
vt 0.500000 0.000000
vt 0.500000 1.000000
vt 0.468750 1.000000
vt 0.500000 0.000000
vt 0.531250 0.000000
vt 0.531250 1.000000
vt 0.500000 1.000000
vt 0.531250 0.000000
vt 0.562500 0.000000
vt 0.562500 1.000000
vt 0.531250 1.000000
vt 0.562500 0.000000
vt 0.593750 0.000000
vt 0.593750 1.000000
vt 0.562500 1.000000
vt 0.593750 0.000000
vt 0.625000 0.000000
vt 0.625000 1.000000
vt 0.593750 1.000000
vt 0.625000 0.000000
vt 0.656250 0.000000
vt 0.656250 1.000000
vt 0.625000 1.000000
vt 0.656250 0.000000
vt 0.687500 0.000000
vt 0.687500 1.000000
vt 0.656250 1.000000
vt 0.687500 0.000000
vt 0.718750 0.000000
vt 0.718750 1.000000
vt 0.687500 1.000000
vt 0.718750 0.000000
vt 0.750000 0.000000
vt 0.750000 1.000000
vt 0.718750 1.000000
vt 0.750000 0.000000
vt 0.781250 0.000000
vt 0.781250 1.000000
vt 0.750000 1.000000
vt 0.781250 0.000000
vt 0.812500 0.000000
vt 0.812500 1.000000
vt 0.781250 1.000000
vt 0.812500 0.000000
vt 0.843750 0.000000
vt 0.843750 1.000000
vt 0.812500 1.000000
vt 0.843750 0.000000
vt 0.875000 0.000000
vt 0.875000 1.000000
vt 0.843750 1.000000
vt 0.875000 0.000000
vt 0.906250 0.000000
vt 0.906250 1.000000
vt 0.875000 1.000000
vt 0.906250 0.000000
vt 0.937500 0.000000
vt 0.937500 1.000000
vt 0.906250 1.000000
vt 0.937500 0.000000
vt 0.968750 0.000000
vt 0.968750 1.000000
vt 0.937500 1.000000
vt 0.968750 0.000000
vt 1.000000 0.000000
vt 1.000000 1.000000
vt 0.968750 1.000000
vt 0.500000 0.500000
vt 1.006364 0.500000
vt 1.006181 0.600686
vt 0.500000 0.500000
vt 1.006181 0.600686
vt 0.976354 0.697312
vt 0.500000 0.500000
vt 0.976354 0.697312
vt 0.917025 0.778647
vt 0.500000 0.500000
vt 0.917025 0.778647
vt 0.845453 0.845453
vt 0.500000 0.500000
vt 0.845453 0.845453
vt 0.771288 0.906012
vt 0.500000 0.500000
vt 0.771288 0.906012
vt 0.689014 0.956321
vt 0.500000 0.500000
vt 0.689014 0.956321
vt 0.596261 0.983937
vt 0.500000 0.500000
vt 0.596261 0.983937
vt 0.500000 0.990042
vt 0.500000 0.500000
vt 0.500000 0.990042
vt 0.403197 0.986664
vt 0.500000 0.500000
vt 0.403197 0.986664
vt 0.304396 0.972230
vt 0.500000 0.500000
vt 0.304396 0.972230
vt 0.211616 0.931597
vt 0.500000 0.500000
vt 0.211616 0.931597
vt 0.138092 0.861908
vt 0.500000 0.500000
vt 0.138092 0.861908
vt 0.083936 0.778005
vt 0.500000 0.500000
vt 0.083936 0.778005
vt 0.040327 0.690403
vt 0.500000 0.500000
vt 0.040327 0.690403
vt 0.010497 0.597368
vt 0.500000 0.500000
vt 0.010497 0.597368
vt 0.006364 0.500000
vt 0.500000 0.500000
vt 0.006364 0.500000
vt 0.025396 0.405595
vt 0.500000 0.500000
vt 0.025396 0.405595
vt 0.052475 0.314629
vt 0.500000 0.500000
vt 0.052475 0.314629
vt 0.085555 0.223077
vt 0.500000 0.500000
vt 0.085555 0.223077
vt 0.138346 0.138346
vt 0.500000 0.500000
vt 0.138346 0.138346
vt 0.215718 0.074542
vt 0.500000 0.500000
vt 0.215718 0.074542
vt 0.306331 0.032442
vt 0.500000 0.500000
vt 0.306331 0.032442
vt 0.401171 0.003152
vt 0.500000 0.500000
vt 0.401171 0.003152
vt 0.500000 -0.009958
vt 0.500000 0.500000
vt 0.500000 -0.009958
vt 0.598287 0.005878
vt 0.500000 0.500000
vt 0.598287 0.005878
vt 0.687079 0.048351
vt 0.500000 0.500000
vt 0.687079 0.048351
vt 0.767186 0.100127
vt 0.500000 0.500000
vt 0.767186 0.100127
vt 0.845199 0.154801
vt 0.500000 0.500000
vt 0.845199 0.154801
vt 0.915405 0.222435
vt 0.500000 0.500000
vt 0.915405 0.222435
vt 0.964207 0.307719
vt 0.500000 0.500000
vt 0.964207 0.307719
vt 0.991282 0.402278
vt 0.500000 0.500000
vt 0.991282 0.402278
vt 1.006364 0.500000
vn 0.000000 1.000000 0.000000
vn 0.000000 1.000000 0.000000
vn 0.000000 1.000000 0.000000
vn 0.000000 1.000000 0.000000
vn 0.000000 1.000000 0.000000
vn 0.000000 1.000000 0.000000
vn 0.000000 1.000000 0.000000
vn 0.000000 1.000000 0.000000
vn 0.000000 1.000000 0.000000
vn 0.000000 1.000000 0.000000
vn 0.000000 1.000000 0.000000
vn 0.000000 1.000000 0.000000
vn 0.000000 1.000000 0.000000
vn 0.000000 1.000000 0.000000
vn 0.000000 1.000000 0.000000
vn 0.000000 1.000000 0.000000
vn 0.000000 1.000000 0.000000
vn 0.000000 1.000000 0.000000
vn 0.000000 1.000000 0.000000
vn 0.000000 1.000000 0.000000
vn 0.000000 1.000000 0.000000
vn 0.000000 1.000000 0.000000
vn 0.000000 1.000000 0.000000
vn 0.000000 1.000000 0.000000
vn 0.000000 1.000000 -0.000000
vn 0.000000 1.000000 -0.000000
vn 0.000000 1.000000 -0.000000
vn 0.000000 1.000000 0.000000
vn 0.000000 1.000000 0.000000
vn 0.000000 1.000000 0.000000
vn 0.000000 1.000000 0.000000
vn 0.000000 1.000000 0.000000
vn 0.000000 1.000000 0.000000
vn 0.000000 1.000000 0.000000
vn 0.000000 1.000000 0.000000
vn 0.000000 1.000000 0.000000
vn 0.000000 1.000000 0.000000
vn 0.000000 1.000000 0.000000
vn 0.000000 1.000000 0.000000
vn 0.000000 1.000000 0.000000
vn 0.000000 1.000000 0.000000
vn 0.000000 1.000000 0.000000
vn 0.000000 1.000000 0.000000
vn 0.000000 1.000000 0.000000
vn 0.000000 1.000000 0.000000
vn 0.000000 1.000000 0.000000
vn 0.000000 1.000000 0.000000
vn 0.000000 1.000000 0.000000
vn 0.000000 1.000000 0.000000
vn 0.000000 1.000000 0.000000
vn 0.000000 1.000000 0.000000
vn 0.000000 1.000000 0.000000
vn 0.000000 1.000000 0.000000
vn 0.000000 1.000000 0.000000
vn 0.000000 1.000000 0.000000
vn 0.000000 1.000000 0.000000
vn 0.000000 1.000000 0.000000
vn 0.000000 1.000000 0.000000
vn 0.000000 1.000000 0.000000
vn 0.000000 1.000000 0.000000
vn 0.000000 1.000000 0.000000
vn 0.000000 1.000000 0.000000
vn 0.000000 1.000000 0.000000
vn 0.000000 1.000000 0.000000
vn 0.000000 1.000000 0.000000
vn 0.000000 1.000000 0.000000
vn 0.000000 1.000000 0.000000
vn 0.000000 1.000000 0.000000
vn 0.000000 1.000000 0.000000
vn 0.000000 1.000000 0.000000
vn 0.000000 1.000000 0.000000
vn 0.000000 1.000000 0.000000
vn 0.000000 1.000000 0.000000
vn 0.000000 1.000000 0.000000
vn 0.000000 1.000000 0.000000
vn 0.000000 1.000000 0.000000
vn 0.000000 1.000000 0.000000
vn 0.000000 1.000000 0.000000
vn 0.000000 1.000000 0.000000
vn 0.000000 1.000000 0.000000
vn 0.000000 1.000000 0.000000
vn 0.000000 1.000000 0.000000
vn 0.000000 1.000000 0.000000
vn 0.000000 1.000000 0.000000
vn 0.000000 1.000000 0.000000
vn 0.000000 1.000000 0.000000
vn 0.000000 1.000000 0.000000
vn 0.000000 1.000000 0.000000
vn 0.000000 1.000000 0.000000
vn 0.000000 1.000000 0.000000
vn 0.000000 1.000000 0.000000
vn 0.000000 1.000000 0.000000
vn 0.000000 1.000000 0.000000
vn 0.000000 1.000000 0.000000
vn 0.000000 1.000000 0.000000
vn 0.000000 1.000000 0.000000
vn 0.465964 0.884803 0.001015
vn 0.465964 0.884803 0.001015
vn 0.465964 0.884803 0.001015
vn 0.465964 0.884803 0.001015
vn 0.438684 0.883828 0.162496
vn 0.438684 0.883828 0.162496
vn 0.438684 0.883828 0.162496
vn 0.438684 0.883828 0.162496
vn 0.373280 0.868273 0.326747
vn 0.373280 0.868273 0.326747
vn 0.373280 0.868273 0.326747
vn 0.373280 0.868273 0.326747
vn 0.318579 0.854846 0.409567
vn 0.318579 0.854846 0.409567
vn 0.318579 0.854846 0.409567
vn 0.318579 0.854846 0.409567
vn 0.295329 0.851123 0.434018
vn 0.295329 0.851123 0.434018
vn 0.295329 0.851123 0.434018
vn 0.295329 0.851123 0.434018
vn 0.241460 0.846856 0.473848
vn 0.241460 0.846856 0.473848
vn 0.241460 0.846856 0.473848
vn 0.241460 0.846856 0.473848
vn 0.130270 0.841047 0.525042
vn 0.130270 0.841047 0.525042
vn 0.130270 0.841047 0.525042
vn 0.130270 0.841047 0.525042
vn 0.028885 0.836943 0.546528
vn 0.028885 0.836943 0.546528
vn 0.028885 0.836943 0.546528
vn 0.028885 0.836943 0.546528
vn -0.015900 0.837186 0.546687
vn -0.015900 0.837186 0.546687
vn -0.015900 0.837186 0.546687
vn -0.015900 0.837186 0.546687
vn -0.065407 0.840860 0.537286
vn -0.065407 0.840860 0.537286
vn -0.065407 0.840860 0.537286
vn -0.065407 0.840860 0.537286
vn -0.178664 0.853480 0.489542
vn -0.178664 0.853480 0.489542
vn -0.178664 0.853480 0.489542
vn -0.178664 0.853480 0.489542
vn -0.310364 0.865607 0.392935
vn -0.310364 0.865607 0.392935
vn -0.310364 0.865607 0.392935
vn -0.310364 0.865607 0.392935
vn -0.389636 0.870117 0.301795
vn -0.389636 0.870117 0.301795
vn -0.389636 0.870117 0.301795
vn -0.389636 0.870117 0.301795
vn -0.419594 0.872421 0.250646
vn -0.419594 0.872421 0.250646
vn -0.419594 0.872421 0.250646
vn -0.419594 0.872421 0.250646
vn -0.448962 0.876694 0.172745
vn -0.448962 0.876694 0.172745
vn -0.448962 0.876694 0.172745
vn -0.448962 0.876694 0.172745
vn -0.475152 0.879571 0.024204
vn -0.475152 0.879571 0.024204
vn -0.475152 0.879571 0.024204
vn -0.475152 0.879571 0.024204
vn -0.472180 0.874070 -0.114230
vn -0.472180 0.874070 -0.114230
vn -0.472180 0.874070 -0.114230
vn -0.472180 0.874070 -0.114230
vn -0.462181 0.871281 -0.165099
vn -0.462181 0.871281 -0.165099
vn -0.462181 0.871281 -0.165099
vn -0.462181 0.871281 -0.165099
vn -0.451268 0.870673 -0.195667
vn -0.451268 0.870673 -0.195667
vn -0.451268 0.870673 -0.195667
vn -0.451268 0.870673 -0.195667
vn -0.395156 0.869809 -0.295440
vn -0.395156 0.869809 -0.295440
vn -0.395156 0.869809 -0.295440
vn -0.395156 0.869809 -0.295440
vn -0.287215 0.861874 -0.417948
vn -0.287215 0.861874 -0.417948
vn -0.287215 0.861874 -0.417948
vn -0.287215 0.861874 -0.417948
vn -0.189251 0.851627 -0.488791
vn -0.189251 0.851627 -0.488791
vn -0.189251 0.851627 -0.488791
vn -0.189251 0.851627 -0.488791
vn -0.132333 0.847405 -0.514192
vn -0.132333 0.847405 -0.514192
vn -0.132333 0.847405 -0.514192
vn -0.132333 0.847405 -0.514192
vn -0.058654 0.845586 -0.530607
vn -0.058654 0.845586 -0.530607
vn -0.058654 0.845586 -0.530607
vn -0.058654 0.845586 -0.530607
vn 0.071185 0.844895 -0.530174
vn 0.071185 0.844895 -0.530174
vn 0.071185 0.844895 -0.530174
vn 0.071185 0.844895 -0.530174
vn 0.198847 0.843572 -0.498845
vn 0.198847 0.843572 -0.498845
vn 0.198847 0.843572 -0.498845
vn 0.198847 0.843572 -0.498845
vn 0.254145 0.844259 -0.471845
vn 0.254145 0.844259 -0.471845
vn 0.254145 0.844259 -0.471845
vn 0.254145 0.844259 -0.471845
vn 0.269180 0.845644 -0.460899
vn 0.269180 0.845644 -0.460899
vn 0.269180 0.845644 -0.460899
vn 0.269180 0.845644 -0.460899
vn 0.324239 0.855420 -0.403889
vn 0.324239 0.855420 -0.403889
vn 0.324239 0.855420 -0.403889
vn 0.324239 0.855420 -0.403889
vn 0.404604 0.871267 -0.277830
vn 0.404604 0.871267 -0.277830
vn 0.404604 0.871267 -0.277830
vn 0.404604 0.871267 -0.277830
vn 0.451303 0.878794 -0.155068
vn 0.451303 0.878794 -0.155068
vn 0.451303 0.878794 -0.155068
vn 0.451303 0.878794 -0.155068
vn 0.464239 0.881527 -0.085976
vn 0.464239 0.881527 -0.085976
vn 0.464239 0.881527 -0.085976
vn 0.464239 0.881527 -0.085976
vn 0.923231 0.384239 0.002011
vn 0.923231 0.384239 0.002011
vn 0.923231 0.384239 0.002011
vn 0.923231 0.384239 0.002011
vn 0.866392 0.382585 0.320926
vn 0.866392 0.382585 0.320926
vn 0.866392 0.382585 0.320926
vn 0.866392 0.382585 0.320926
vn 0.702531 0.358166 0.614954
vn 0.702531 0.358166 0.614954
vn 0.702531 0.358166 0.614954
vn 0.702531 0.358166 0.614954
vn 0.577478 0.339628 0.742410
vn 0.577478 0.339628 0.742410
vn 0.577478 0.339628 0.742410
vn 0.577478 0.339628 0.742410
vn 0.530092 0.334838 0.779029
vn 0.530092 0.334838 0.779029
vn 0.530092 0.334838 0.779029
vn 0.530092 0.334838 0.779029
vn 0.428667 0.329519 0.841226
vn 0.428667 0.329519 0.841226
vn 0.428667 0.329519 0.841226
vn 0.428667 0.329519 0.841226
vn 0.227941 0.322549 0.918697
vn 0.227941 0.322549 0.918697
vn 0.227941 0.322549 0.918697
vn 0.227941 0.322549 0.918697
vn 0.050042 0.317801 0.946836
vn 0.050042 0.317801 0.946836
vn 0.050042 0.317801 0.946836
vn 0.050042 0.317801 0.946836
vn -0.027562 0.318079 0.947664
vn -0.027562 0.318079 0.947664
vn -0.027562 0.318079 0.947664
vn -0.027562 0.318079 0.947664
vn -0.114394 0.322330 0.939690
vn -0.114394 0.322330 0.939690
vn -0.114394 0.322330 0.939690
vn -0.114394 0.322330 0.939690
vn -0.322683 0.337854 0.884155
vn -0.322683 0.337854 0.884155
vn -0.322683 0.337854 0.884155
vn -0.322683 0.337854 0.884155
vn -0.579621 0.354316 0.733825
vn -0.579621 0.354316 0.733825
vn -0.579621 0.354316 0.733825
vn -0.579621 0.354316 0.733825
vn -0.737309 0.360881 0.571087
vn -0.737309 0.360881 0.571087
vn -0.737309 0.360881 0.571087
vn -0.737309 0.360881 0.571087
vn -0.799486 0.364338 0.477577
vn -0.799486 0.364338 0.477577
vn -0.799486 0.364338 0.477577
vn -0.799486 0.364338 0.477577
vn -0.866712 0.370945 0.333481
vn -0.866712 0.370945 0.333481
vn -0.866712 0.370945 0.333481
vn -0.866712 0.370945 0.333481
vn -0.925604 0.375544 0.047149
vn -0.925604 0.375544 0.047149
vn -0.925604 0.375544 0.047149
vn -0.925604 0.375544 0.047149
vn -0.904194 0.366857 -0.218742
vn -0.904194 0.366857 -0.218742
vn -0.904194 0.366857 -0.218742
vn -0.904194 0.366857 -0.218742
vn -0.877624 0.362620 -0.313502
vn -0.877624 0.362620 -0.313502
vn -0.877624 0.362620 -0.313502
vn -0.877624 0.362620 -0.313502
vn -0.855347 0.361710 -0.370873
vn -0.855347 0.361710 -0.370873
vn -0.855347 0.361710 -0.370873
vn -0.855347 0.361710 -0.370873
vn -0.747071 0.360424 -0.558551
vn -0.747071 0.360424 -0.558551
vn -0.747071 0.360424 -0.558551
vn -0.747071 0.360424 -0.558551
vn -0.530736 0.349070 -0.772314
vn -0.530736 0.349070 -0.772314
vn -0.530736 0.349070 -0.772314
vn -0.530736 0.349070 -0.772314
vn -0.340138 0.335479 -0.878499
vn -0.340138 0.335479 -0.878499
vn -0.340138 0.335479 -0.878499
vn -0.340138 0.335479 -0.878499
vn -0.235261 0.330193 -0.914125
vn -0.235261 0.330193 -0.914125
vn -0.235261 0.330193 -0.914125
vn -0.235261 0.330193 -0.914125
vn -0.103795 0.327969 -0.938969
vn -0.103795 0.327969 -0.938969
vn -0.103795 0.327969 -0.938969
vn -0.103795 0.327969 -0.938969
vn 0.125752 0.327132 -0.936574
vn 0.125752 0.327132 -0.936574
vn 0.125752 0.327132 -0.936574
vn 0.125752 0.327132 -0.936574
vn 0.350111 0.325541 -0.878320
vn 0.350111 0.325541 -0.878320
vn 0.350111 0.325541 -0.878320
vn 0.350111 0.325541 -0.878320
vn 0.448241 0.326365 -0.832205
vn 0.448241 0.326365 -0.832205
vn 0.448241 0.326365 -0.832205
vn 0.448241 0.326365 -0.832205
vn 0.476414 0.328040 -0.815733
vn 0.476414 0.328040 -0.815733
vn 0.476414 0.328040 -0.815733
vn 0.476414 0.328040 -0.815733
vn 0.588642 0.340378 -0.733242
vn 0.588642 0.340378 -0.733242
vn 0.588642 0.340378 -0.733242
vn 0.588642 0.340378 -0.733242
vn 0.768260 0.362598 -0.527541
vn 0.768260 0.362598 -0.527541
vn 0.768260 0.362598 -0.527541
vn 0.768260 0.362598 -0.527541
vn 0.876986 0.374291 -0.301333
vn 0.876986 0.374291 -0.301333
vn 0.876986 0.374291 -0.301333
vn 0.876986 0.374291 -0.301333
vn 0.910027 0.378744 -0.168535
vn 0.910027 0.378744 -0.168535
vn 0.910027 0.378744 -0.168535
vn 0.910027 0.378744 -0.168535
vn 0.958767 -0.284186 0.002088
vn 0.958767 -0.284186 0.002088
vn 0.958767 -0.284186 0.002088
vn 0.958767 -0.284186 0.002088
vn 0.899437 -0.282867 0.333166
vn 0.899437 -0.282867 0.333166
vn 0.899437 -0.282867 0.333166
vn 0.899437 -0.282867 0.333166
vn 0.725847 -0.263550 0.635364
vn 0.725847 -0.263550 0.635364
vn 0.725847 -0.263550 0.635364
vn 0.725847 -0.263550 0.635364
vn 0.594624 -0.249064 0.764453
vn 0.594624 -0.249064 0.764453
vn 0.594624 -0.249064 0.764453
vn 0.594624 -0.249064 0.764453
vn 0.545372 -0.245344 0.801484
vn 0.545372 -0.245344 0.801484
vn 0.545372 -0.245344 0.801484
vn 0.545372 -0.245344 0.801484
vn 0.440617 -0.241224 0.864678
vn 0.440617 -0.241224 0.864678
vn 0.440617 -0.241224 0.864678
vn 0.440617 -0.241224 0.864678
vn 0.234019 -0.235843 0.943193
vn 0.234019 -0.235843 0.943193
vn 0.234019 -0.235843 0.943193
vn 0.234019 -0.235843 0.943193
vn 0.051336 -0.232188 0.971315
vn 0.051336 -0.232188 0.971315
vn 0.051336 -0.232188 0.971315
vn 0.051336 -0.232188 0.971315
vn -0.028276 -0.232402 0.972209
vn -0.028276 -0.232402 0.972209
vn -0.028276 -0.232402 0.972209
vn -0.028276 -0.232402 0.972209
vn -0.117440 -0.235674 0.964710
vn -0.117440 -0.235674 0.964710
vn -0.117440 -0.235674 0.964710
vn -0.117440 -0.235674 0.964710
vn -0.332160 -0.247685 0.910122
vn -0.332160 -0.247685 0.910122
vn -0.332160 -0.247685 0.910122
vn -0.332160 -0.247685 0.910122
vn -0.598427 -0.260529 0.757634
vn -0.598427 -0.260529 0.757634
vn -0.598427 -0.260529 0.757634
vn -0.598427 -0.260529 0.757634
vn -0.762171 -0.265685 0.590344
vn -0.762171 -0.265685 0.590344
vn -0.762171 -0.265685 0.590344
vn -0.762171 -0.265685 0.590344
vn -0.826991 -0.268407 0.494007
vn -0.826991 -0.268407 0.494007
vn -0.826991 -0.268407 0.494007
vn -0.826991 -0.268407 0.494007
vn -0.897680 -0.273625 0.345397
vn -0.897680 -0.273625 0.345397
vn -0.897680 -0.273625 0.345397
vn -0.897680 -0.273625 0.345397
vn -0.959548 -0.277269 0.048878
vn -0.959548 -0.277269 0.048878
vn -0.959548 -0.277269 0.048878
vn -0.959548 -0.277269 0.048878
vn -0.935756 -0.270394 -0.226378
vn -0.935756 -0.270394 -0.226378
vn -0.935756 -0.270394 -0.226378
vn -0.935756 -0.270394 -0.226378
vn -0.907518 -0.267053 -0.324181
vn -0.907518 -0.267053 -0.324181
vn -0.907518 -0.267053 -0.324181
vn -0.907518 -0.267053 -0.324181
vn -0.884330 -0.266337 -0.383440
vn -0.884330 -0.266337 -0.383440
vn -0.884330 -0.266337 -0.383440
vn -0.884330 -0.266337 -0.383440
vn -0.772196 -0.265325 -0.577336
vn -0.772196 -0.265325 -0.577336
vn -0.772196 -0.265325 -0.577336
vn -0.772196 -0.265325 -0.577336
vn -0.547426 -0.256423 -0.796600
vn -0.547426 -0.256423 -0.796600
vn -0.547426 -0.256423 -0.796600
vn -0.547426 -0.256423 -0.796600
vn -0.349982 -0.245841 -0.903922
vn -0.349982 -0.245841 -0.903922
vn -0.349982 -0.245841 -0.903922
vn -0.349982 -0.245841 -0.903922
vn -0.241847 -0.241746 -0.939718
vn -0.241847 -0.241746 -0.939718
vn -0.241847 -0.241746 -0.939718
vn -0.241847 -0.241746 -0.939718
vn -0.106660 -0.240026 -0.964889
vn -0.106660 -0.240026 -0.964889
vn -0.106660 -0.240026 -0.964889
vn -0.106660 -0.240026 -0.964889
vn 0.129205 -0.239379 -0.962291
vn 0.129205 -0.239379 -0.962291
vn 0.129205 -0.239379 -0.962291
vn 0.129205 -0.239379 -0.962291
vn 0.359627 -0.238151 -0.902193
vn 0.359627 -0.238151 -0.902193
vn 0.359627 -0.238151 -0.902193
vn 0.359627 -0.238151 -0.902193
vn 0.460489 -0.238787 -0.854945
vn 0.460489 -0.238787 -0.854945
vn 0.460489 -0.238787 -0.854945
vn 0.460489 -0.238787 -0.854945
vn 0.489571 -0.240081 -0.838261
vn 0.489571 -0.240081 -0.838261
vn 0.489571 -0.240081 -0.838261
vn 0.489571 -0.240081 -0.838261
vn 0.606201 -0.249647 -0.755114
vn 0.606201 -0.249647 -0.755114
vn 0.606201 -0.249647 -0.755114
vn 0.606201 -0.249647 -0.755114
vn 0.794426 -0.267036 -0.545508
vn 0.794426 -0.267036 -0.545508
vn 0.794426 -0.267036 -0.545508
vn 0.794426 -0.267036 -0.545508
vn 0.908921 -0.276275 -0.312306
vn 0.908921 -0.276275 -0.312306
vn 0.908921 -0.276275 -0.312306
vn 0.908921 -0.276275 -0.312306
vn 0.944003 -0.279810 -0.174827
vn 0.944003 -0.279810 -0.174827
vn 0.944003 -0.279810 -0.174827
vn 0.944003 -0.279810 -0.174827
vn 0.917322 -0.398142 0.001998
vn 0.917322 -0.398142 0.001998
vn 0.917322 -0.398142 0.001998
vn 0.917322 -0.398142 0.001998
vn 0.860894 -0.396449 0.318889
vn 0.860894 -0.396449 0.318889
vn 0.860894 -0.396449 0.318889
vn 0.860894 -0.396449 0.318889
vn 0.698618 -0.371436 0.611529
vn 0.698618 -0.371436 0.611529
vn 0.698618 -0.371436 0.611529
vn 0.698618 -0.371436 0.611529
vn 0.574584 -0.352409 0.738689
vn 0.574584 -0.352409 0.738689
vn 0.574584 -0.352409 0.738689
vn 0.574584 -0.352409 0.738689
vn 0.527510 -0.347487 0.775233
vn 0.527510 -0.347487 0.775233
vn 0.527510 -0.347487 0.775233
vn 0.527510 -0.347487 0.775233
vn 0.426644 -0.342020 0.837256
vn 0.426644 -0.342020 0.837256
vn 0.426644 -0.342020 0.837256
vn 0.426644 -0.342020 0.837256
vn 0.226910 -0.334851 0.914542
vn 0.226910 -0.334851 0.914542
vn 0.226910 -0.334851 0.914542
vn 0.226910 -0.334851 0.914542
vn 0.049822 -0.329965 0.942677
vn 0.049822 -0.329965 0.942677
vn 0.049822 -0.329965 0.942677
vn 0.049822 -0.329965 0.942677
vn -0.027441 -0.330251 0.943494
vn -0.027441 -0.330251 0.943494
vn -0.027441 -0.330251 0.943494
vn -0.027441 -0.330251 0.943494
vn -0.113877 -0.334625 0.935445
vn -0.113877 -0.334625 0.935445
vn -0.113877 -0.334625 0.935445
vn -0.113877 -0.334625 0.935445
vn -0.321083 -0.350586 0.879770
vn -0.321083 -0.350586 0.879770
vn -0.321083 -0.350586 0.879770
vn -0.321083 -0.350586 0.879770
vn -0.576462 -0.367487 0.729826
vn -0.576462 -0.367487 0.729826
vn -0.576462 -0.367487 0.729826
vn -0.576462 -0.367487 0.729826
vn -0.733141 -0.374220 0.567859
vn -0.733141 -0.374220 0.567859
vn -0.733141 -0.374220 0.567859
vn -0.733141 -0.374220 0.567859
vn -0.794880 -0.377764 0.474826
vn -0.794880 -0.377764 0.474826
vn -0.794880 -0.377764 0.474826
vn -0.794880 -0.377764 0.474826
vn -0.861538 -0.384534 0.331491
vn -0.861538 -0.384534 0.331491
vn -0.861538 -0.384534 0.331491
vn -0.861538 -0.384534 0.331491
vn -0.919942 -0.389243 0.046860
vn -0.919942 -0.389243 0.046860
vn -0.919942 -0.389243 0.046860
vn -0.919942 -0.389243 0.046860
vn -0.898914 -0.380346 -0.217465
vn -0.898914 -0.380346 -0.217465
vn -0.898914 -0.380346 -0.217465
vn -0.898914 -0.380346 -0.217465
vn -0.872615 -0.376002 -0.311713
vn -0.872615 -0.376002 -0.311713
vn -0.872615 -0.376002 -0.311713
vn -0.872615 -0.376002 -0.311713
vn -0.850490 -0.375070 -0.368767
vn -0.850490 -0.375070 -0.368767
vn -0.850490 -0.375070 -0.368767
vn -0.850490 -0.375070 -0.368767
vn -0.742859 -0.373752 -0.555402
vn -0.742859 -0.373752 -0.555402
vn -0.742859 -0.373752 -0.555402
vn -0.742859 -0.373752 -0.555402
vn -0.527928 -0.362104 -0.768227
vn -0.527928 -0.362104 -0.768227
vn -0.527928 -0.362104 -0.768227
vn -0.527928 -0.362104 -0.768227
vn -0.338475 -0.348145 -0.874202
vn -0.338475 -0.348145 -0.874202
vn -0.338475 -0.348145 -0.874202
vn -0.338475 -0.348145 -0.874202
vn -0.234146 -0.342713 -0.909793
vn -0.234146 -0.342713 -0.909793
vn -0.234146 -0.342713 -0.909793
vn -0.234146 -0.342713 -0.909793
vn -0.103310 -0.340426 -0.934579
vn -0.103310 -0.340426 -0.934579
vn -0.103310 -0.340426 -0.934579
vn -0.103310 -0.340426 -0.934579
vn 0.125167 -0.339565 -0.932217
vn 0.125167 -0.339565 -0.932217
vn 0.125167 -0.339565 -0.932217
vn 0.125167 -0.339565 -0.932217
vn 0.348498 -0.337929 -0.874273
vn 0.348498 -0.337929 -0.874273
vn 0.348498 -0.337929 -0.874273
vn 0.348498 -0.337929 -0.874273
vn 0.446166 -0.338776 -0.828352
vn 0.446166 -0.338776 -0.828352
vn 0.446166 -0.338776 -0.828352
vn 0.446166 -0.338776 -0.828352
vn 0.474185 -0.340499 -0.811917
vn 0.474185 -0.340499 -0.811917
vn 0.474185 -0.340499 -0.811917
vn 0.474185 -0.340499 -0.811917
vn 0.585679 -0.353179 -0.729551
vn 0.585679 -0.353179 -0.729551
vn 0.585679 -0.353179 -0.729551
vn 0.585679 -0.353179 -0.729551
vn 0.763876 -0.375981 -0.524531
vn 0.763876 -0.375981 -0.524531
vn 0.763876 -0.375981 -0.524531
vn 0.763876 -0.375981 -0.524531
vn 0.871657 -0.387960 -0.299502
vn 0.871657 -0.387960 -0.299502
vn 0.871657 -0.387960 -0.299502
vn 0.871657 -0.387960 -0.299502
vn 0.904366 -0.392518 -0.167486
vn 0.904366 -0.392518 -0.167486
vn 0.904366 -0.392518 -0.167486
vn 0.904366 -0.392518 -0.167486
vn 0.840563 -0.541711 0.001831
vn 0.840563 -0.541711 0.001831
vn 0.840563 -0.541711 0.001831
vn 0.840563 -0.541711 0.001831
vn 0.789393 -0.539776 0.292404
vn 0.789393 -0.539776 0.292404
vn 0.789393 -0.539776 0.292404
vn 0.789393 -0.539776 0.292404
vn 0.646920 -0.510712 0.566275
vn 0.646920 -0.510712 0.566275
vn 0.646920 -0.510712 0.566275
vn 0.646920 -0.510712 0.566275
vn 0.535890 -0.488035 0.688944
vn 0.535890 -0.488035 0.688944
vn 0.535890 -0.488035 0.688944
vn 0.535890 -0.488035 0.688944
vn 0.492876 -0.482090 0.724336
vn 0.492876 -0.482090 0.724336
vn 0.492876 -0.482090 0.724336
vn 0.492876 -0.482090 0.724336
vn 0.399425 -0.475449 0.783842
vn 0.399425 -0.475449 0.783842
vn 0.399425 -0.475449 0.783842
vn 0.399425 -0.475449 0.783842
vn 0.212980 -0.466681 0.858399
vn 0.212980 -0.466681 0.858399
vn 0.212980 -0.466681 0.858399
vn 0.212980 -0.466681 0.858399
vn 0.046844 -0.460666 0.886337
vn 0.046844 -0.460666 0.886337
vn 0.046844 -0.460666 0.886337
vn 0.046844 -0.460666 0.886337
vn -0.025798 -0.461019 0.887015
vn -0.025798 -0.461019 0.887015
vn -0.025798 -0.461019 0.887015
vn -0.025798 -0.461019 0.887015
vn -0.106895 -0.466403 0.878090
vn -0.106895 -0.466403 0.878090
vn -0.106895 -0.466403 0.878090
vn -0.106895 -0.466403 0.878090
vn -0.299662 -0.485837 0.821076
vn -0.299662 -0.485837 0.821076
vn -0.299662 -0.485837 0.821076
vn -0.299662 -0.485837 0.821076
vn -0.534609 -0.506046 0.676839
vn -0.534609 -0.506046 0.676839
vn -0.534609 -0.506046 0.676839
vn -0.534609 -0.506046 0.676839
vn -0.678161 -0.513990 0.525274
vn -0.678161 -0.513990 0.525274
vn -0.678161 -0.513990 0.525274
vn -0.678161 -0.513990 0.525274
vn -0.734262 -0.518146 0.438615
vn -0.734262 -0.518146 0.438615
vn -0.734262 -0.518146 0.438615
vn -0.734262 -0.518146 0.438615
vn -0.793734 -0.526038 0.305402
vn -0.793734 -0.526038 0.305402
vn -0.793734 -0.526038 0.305402
vn -0.793734 -0.526038 0.305402
vn -0.845967 -0.531491 0.043092
vn -0.845967 -0.531491 0.043092
vn -0.845967 -0.531491 0.043092
vn -0.845967 -0.531491 0.043092
vn -0.829528 -0.521163 -0.200679
vn -0.829528 -0.521163 -0.200679
vn -0.829528 -0.521163 -0.200679
vn -0.829528 -0.521163 -0.200679
vn -0.806620 -0.516082 -0.288139
vn -0.806620 -0.516082 -0.288139
vn -0.806620 -0.516082 -0.288139
vn -0.806620 -0.516082 -0.288139
vn -0.786452 -0.514988 -0.341000
vn -0.786452 -0.514988 -0.341000
vn -0.786452 -0.514988 -0.341000
vn -0.786452 -0.514988 -0.341000
vn -0.687274 -0.513439 -0.513843
vn -0.687274 -0.513439 -0.513843
vn -0.687274 -0.513439 -0.513843
vn -0.687274 -0.513439 -0.513843
vn -0.490598 -0.499651 -0.713907
vn -0.490598 -0.499651 -0.713907
vn -0.490598 -0.499651 -0.713907
vn -0.490598 -0.499651 -0.713907
vn -0.316176 -0.482887 -0.816610
vn -0.316176 -0.482887 -0.816610
vn -0.316176 -0.482887 -0.816610
vn -0.316176 -0.482887 -0.816610
vn -0.219153 -0.476292 -0.851538
vn -0.219153 -0.476292 -0.851538
vn -0.219153 -0.476292 -0.851538
vn -0.219153 -0.476292 -0.851538
vn -0.096774 -0.473505 -0.875459
vn -0.096774 -0.473505 -0.875459
vn -0.096774 -0.473505 -0.875459
vn -0.096774 -0.473505 -0.875459
vn 0.117285 -0.472454 -0.873517
vn 0.117285 -0.472454 -0.873517
vn 0.117285 -0.472454 -0.873517
vn 0.117285 -0.472454 -0.873517
vn 0.326745 -0.470453 -0.819702
vn 0.326745 -0.470453 -0.819702
vn 0.326745 -0.470453 -0.819702
vn 0.326745 -0.470453 -0.819702
vn 0.418190 -0.471489 -0.776412
vn 0.418190 -0.471489 -0.776412
vn 0.418190 -0.471489 -0.776412
vn 0.418190 -0.471489 -0.776412
vn 0.444177 -0.473594 -0.760536
vn 0.444177 -0.473594 -0.760536
vn 0.444177 -0.473594 -0.760536
vn 0.444177 -0.473594 -0.760536
vn 0.546082 -0.488963 -0.680228
vn 0.546082 -0.488963 -0.680228
vn 0.546082 -0.488963 -0.680228
vn 0.546082 -0.488963 -0.680228
vn 0.706110 -0.516057 -0.484865
vn 0.706110 -0.516057 -0.484865
vn 0.706110 -0.516057 -0.484865
vn 0.706110 -0.516057 -0.484865
vn 0.801972 -0.530008 -0.275558
vn 0.801972 -0.530008 -0.275558
vn 0.801972 -0.530008 -0.275558
vn 0.801972 -0.530008 -0.275558
vn 0.830561 -0.535266 -0.153818
vn 0.830561 -0.535266 -0.153818
vn 0.830561 -0.535266 -0.153818
vn 0.830561 -0.535266 -0.153818
vn 0.000000 -1.000000 0.000000
vn 0.000000 -1.000000 0.000000
vn 0.000000 -1.000000 0.000000
vn 0.000000 -1.000000 0.000000
vn 0.000000 -1.000000 0.000000
vn 0.000000 -1.000000 0.000000
vn 0.000000 -1.000000 0.000000
vn 0.000000 -1.000000 0.000000
vn 0.000000 -1.000000 0.000000
vn 0.000000 -1.000000 0.000000
vn 0.000000 -1.000000 0.000000
vn 0.000000 -1.000000 0.000000
vn 0.000000 -1.000000 0.000000
vn 0.000000 -1.000000 0.000000
vn 0.000000 -1.000000 0.000000
vn 0.000000 -1.000000 0.000000
vn 0.000000 -1.000000 0.000000
vn 0.000000 -1.000000 0.000000
vn 0.000000 -1.000000 0.000000
vn 0.000000 -1.000000 0.000000
vn 0.000000 -1.000000 0.000000
vn 0.000000 -1.000000 0.000000
vn 0.000000 -1.000000 0.000000
vn 0.000000 -1.000000 0.000000
vn 0.000000 -1.000000 0.000000
vn 0.000000 -1.000000 0.000000
vn 0.000000 -1.000000 0.000000
vn 0.000000 -1.000000 0.000000
vn 0.000000 -1.000000 0.000000
vn 0.000000 -1.000000 0.000000
vn 0.000000 -1.000000 0.000000
vn 0.000000 -1.000000 0.000000
vn 0.000000 -1.000000 0.000000
vn 0.000000 -1.000000 0.000000
vn 0.000000 -1.000000 0.000000
vn 0.000000 -1.000000 0.000000
vn 0.000000 -1.000000 0.000000
vn 0.000000 -1.000000 0.000000
vn 0.000000 -1.000000 0.000000
vn 0.000000 -1.000000 0.000000
vn 0.000000 -1.000000 0.000000
vn 0.000000 -1.000000 0.000000
vn 0.000000 -1.000000 0.000000
vn 0.000000 -1.000000 0.000000
vn 0.000000 -1.000000 0.000000
vn 0.000000 -1.000000 0.000000
vn 0.000000 -1.000000 0.000000
vn 0.000000 -1.000000 0.000000
vn -0.000000 -1.000000 0.000000
vn -0.000000 -1.000000 0.000000
vn -0.000000 -1.000000 0.000000
vn 0.000000 -1.000000 0.000000
vn 0.000000 -1.000000 0.000000
vn 0.000000 -1.000000 0.000000
vn 0.000000 -1.000000 0.000000
vn 0.000000 -1.000000 0.000000
vn 0.000000 -1.000000 0.000000
vn 0.000000 -1.000000 0.000000
vn 0.000000 -1.000000 0.000000
vn 0.000000 -1.000000 0.000000
vn 0.000000 -1.000000 0.000000
vn 0.000000 -1.000000 0.000000
vn 0.000000 -1.000000 0.000000
vn 0.000000 -1.000000 0.000000
vn 0.000000 -1.000000 0.000000
vn 0.000000 -1.000000 0.000000
vn 0.000000 -1.000000 0.000000
vn 0.000000 -1.000000 0.000000
vn 0.000000 -1.000000 0.000000
vn 0.000000 -1.000000 0.000000
vn 0.000000 -1.000000 0.000000
vn 0.000000 -1.000000 0.000000
vn 0.000000 -1.000000 -0.000000
vn 0.000000 -1.000000 -0.000000
vn 0.000000 -1.000000 -0.000000
vn 0.000000 -1.000000 0.000000
vn 0.000000 -1.000000 0.000000
vn 0.000000 -1.000000 0.000000
vn 0.000000 -1.000000 0.000000
vn 0.000000 -1.000000 0.000000
vn 0.000000 -1.000000 0.000000
vn 0.000000 -1.000000 0.000000
vn 0.000000 -1.000000 0.000000
vn 0.000000 -1.000000 0.000000
vn 0.000000 -1.000000 0.000000
vn 0.000000 -1.000000 0.000000
vn 0.000000 -1.000000 0.000000
vn 0.000000 -1.000000 0.000000
vn 0.000000 -1.000000 0.000000
vn 0.000000 -1.000000 0.000000
vn 0.000000 -1.000000 0.000000
vn 0.000000 -1.000000 0.000000
vn 0.000000 -1.000000 0.000000
vn 0.000000 -1.000000 0.000000
vn 0.000000 -1.000000 0.000000
vn 0.000000 -1.000000 0.000000
s off
usemtl GrassTop
f 1/1/1 2/2/2 3/3/3
f 4/4/4 5/5/5 6/6/6
f 7/7/7 8/8/8 9/9/9
f 10/10/10 11/11/11 12/12/12
f 13/13/13 14/14/14 15/15/15
f 16/16/16 17/17/17 18/18/18
f 19/19/19 20/20/20 21/21/21
f 22/22/22 23/23/23 24/24/24
f 25/25/25 26/26/26 27/27/27
f 28/28/28 29/29/29 30/30/30
f 31/31/31 32/32/32 33/33/33
f 34/34/34 35/35/35 36/36/36
f 37/37/37 38/38/38 39/39/39
f 40/40/40 41/41/41 42/42/42
f 43/43/43 44/44/44 45/45/45
f 46/46/46 47/47/47 48/48/48
f 49/49/49 50/50/50 51/51/51
f 52/52/52 53/53/53 54/54/54
f 55/55/55 56/56/56 57/57/57
f 58/58/58 59/59/59 60/60/60
f 61/61/61 62/62/62 63/63/63
f 64/64/64 65/65/65 66/66/66
f 67/67/67 68/68/68 69/69/69
f 70/70/70 71/71/71 72/72/72
f 73/73/73 74/74/74 75/75/75
f 76/76/76 77/77/77 78/78/78
f 79/79/79 80/80/80 81/81/81
f 82/82/82 83/83/83 84/84/84
f 85/85/85 86/86/86 87/87/87
f 88/88/88 89/89/89 90/90/90
f 91/91/91 92/92/92 93/93/93
f 94/94/94 95/95/95 96/96/96
usemtl GrassEdge
f 97/97/97 98/98/98 99/99/99
f 97/97/97 99/99/99 100/100/100
f 101/101/101 102/102/102 103/103/103
f 101/101/101 103/103/103 104/104/104
f 105/105/105 106/106/106 107/107/107
f 105/105/105 107/107/107 108/108/108
f 109/109/109 110/110/110 111/111/111
f 109/109/109 111/111/111 112/112/112
f 113/113/113 114/114/114 115/115/115
f 113/113/113 115/115/115 116/116/116
f 117/117/117 118/118/118 119/119/119
f 117/117/117 119/119/119 120/120/120
f 121/121/121 122/122/122 123/123/123
f 121/121/121 123/123/123 124/124/124
f 125/125/125 126/126/126 127/127/127
f 125/125/125 127/127/127 128/128/128
f 129/129/129 130/130/130 131/131/131
f 129/129/129 131/131/131 132/132/132
f 133/133/133 134/134/134 135/135/135
f 133/133/133 135/135/135 136/136/136
f 137/137/137 138/138/138 139/139/139
f 137/137/137 139/139/139 140/140/140
f 141/141/141 142/142/142 143/143/143
f 141/141/141 143/143/143 144/144/144
f 145/145/145 146/146/146 147/147/147
f 145/145/145 147/147/147 148/148/148
f 149/149/149 150/150/150 151/151/151
f 149/149/149 151/151/151 152/152/152
f 153/153/153 154/154/154 155/155/155
f 153/153/153 155/155/155 156/156/156
f 157/157/157 158/158/158 159/159/159
f 157/157/157 159/159/159 160/160/160
f 161/161/161 162/162/162 163/163/163
f 161/161/161 163/163/163 164/164/164
f 165/165/165 166/166/166 167/167/167
f 165/165/165 167/167/167 168/168/168
f 169/169/169 170/170/170 171/171/171
f 169/169/169 171/171/171 172/172/172
f 173/173/173 174/174/174 175/175/175
f 173/173/173 175/175/175 176/176/176
f 177/177/177 178/178/178 179/179/179
f 177/177/177 179/179/179 180/180/180
f 181/181/181 182/182/182 183/183/183
f 181/181/181 183/183/183 184/184/184
f 185/185/185 186/186/186 187/187/187
f 185/185/185 187/187/187 188/188/188
f 189/189/189 190/190/190 191/191/191
f 189/189/189 191/191/191 192/192/192
f 193/193/193 194/194/194 195/195/195
f 193/193/193 195/195/195 196/196/196
f 197/197/197 198/198/198 199/199/199
f 197/197/197 199/199/199 200/200/200
f 201/201/201 202/202/202 203/203/203
f 201/201/201 203/203/203 204/204/204
f 205/205/205 206/206/206 207/207/207
f 205/205/205 207/207/207 208/208/208
f 209/209/209 210/210/210 211/211/211
f 209/209/209 211/211/211 212/212/212
f 213/213/213 214/214/214 215/215/215
f 213/213/213 215/215/215 216/216/216
f 217/217/217 218/218/218 219/219/219
f 217/217/217 219/219/219 220/220/220
f 221/221/221 222/222/222 223/223/223
f 221/221/221 223/223/223 224/224/224
usemtl SandRim
f 225/225/225 226/226/226 227/227/227
f 225/225/225 227/227/227 228/228/228
f 229/229/229 230/230/230 231/231/231
f 229/229/229 231/231/231 232/232/232
f 233/233/233 234/234/234 235/235/235
f 233/233/233 235/235/235 236/236/236
f 237/237/237 238/238/238 239/239/239
f 237/237/237 239/239/239 240/240/240
f 241/241/241 242/242/242 243/243/243
f 241/241/241 243/243/243 244/244/244
f 245/245/245 246/246/246 247/247/247
f 245/245/245 247/247/247 248/248/248
f 249/249/249 250/250/250 251/251/251
f 249/249/249 251/251/251 252/252/252
f 253/253/253 254/254/254 255/255/255
f 253/253/253 255/255/255 256/256/256
f 257/257/257 258/258/258 259/259/259
f 257/257/257 259/259/259 260/260/260
f 261/261/261 262/262/262 263/263/263
f 261/261/261 263/263/263 264/264/264
f 265/265/265 266/266/266 267/267/267
f 265/265/265 267/267/267 268/268/268
f 269/269/269 270/270/270 271/271/271
f 269/269/269 271/271/271 272/272/272
f 273/273/273 274/274/274 275/275/275
f 273/273/273 275/275/275 276/276/276
f 277/277/277 278/278/278 279/279/279
f 277/277/277 279/279/279 280/280/280
f 281/281/281 282/282/282 283/283/283
f 281/281/281 283/283/283 284/284/284
f 285/285/285 286/286/286 287/287/287
f 285/285/285 287/287/287 288/288/288
f 289/289/289 290/290/290 291/291/291
f 289/289/289 291/291/291 292/292/292
f 293/293/293 294/294/294 295/295/295
f 293/293/293 295/295/295 296/296/296
f 297/297/297 298/298/298 299/299/299
f 297/297/297 299/299/299 300/300/300
f 301/301/301 302/302/302 303/303/303
f 301/301/301 303/303/303 304/304/304
f 305/305/305 306/306/306 307/307/307
f 305/305/305 307/307/307 308/308/308
f 309/309/309 310/310/310 311/311/311
f 309/309/309 311/311/311 312/312/312
f 313/313/313 314/314/314 315/315/315
f 313/313/313 315/315/315 316/316/316
f 317/317/317 318/318/318 319/319/319
f 317/317/317 319/319/319 320/320/320
f 321/321/321 322/322/322 323/323/323
f 321/321/321 323/323/323 324/324/324
f 325/325/325 326/326/326 327/327/327
f 325/325/325 327/327/327 328/328/328
f 329/329/329 330/330/330 331/331/331
f 329/329/329 331/331/331 332/332/332
f 333/333/333 334/334/334 335/335/335
f 333/333/333 335/335/335 336/336/336
f 337/337/337 338/338/338 339/339/339
f 337/337/337 339/339/339 340/340/340
f 341/341/341 342/342/342 343/343/343
f 341/341/341 343/343/343 344/344/344
f 345/345/345 346/346/346 347/347/347
f 345/345/345 347/347/347 348/348/348
f 349/349/349 350/350/350 351/351/351
f 349/349/349 351/351/351 352/352/352
usemtl CliffWarm
f 353/353/353 354/354/354 355/355/355
f 353/353/353 355/355/355 356/356/356
f 357/357/357 358/358/358 359/359/359
f 357/357/357 359/359/359 360/360/360
f 361/361/361 362/362/362 363/363/363
f 361/361/361 363/363/363 364/364/364
f 365/365/365 366/366/366 367/367/367
f 365/365/365 367/367/367 368/368/368
f 369/369/369 370/370/370 371/371/371
f 369/369/369 371/371/371 372/372/372
f 373/373/373 374/374/374 375/375/375
f 373/373/373 375/375/375 376/376/376
f 377/377/377 378/378/378 379/379/379
f 377/377/377 379/379/379 380/380/380
f 381/381/381 382/382/382 383/383/383
f 381/381/381 383/383/383 384/384/384
f 385/385/385 386/386/386 387/387/387
f 385/385/385 387/387/387 388/388/388
f 389/389/389 390/390/390 391/391/391
f 389/389/389 391/391/391 392/392/392
f 393/393/393 394/394/394 395/395/395
f 393/393/393 395/395/395 396/396/396
f 397/397/397 398/398/398 399/399/399
f 397/397/397 399/399/399 400/400/400
f 401/401/401 402/402/402 403/403/403
f 401/401/401 403/403/403 404/404/404
f 405/405/405 406/406/406 407/407/407
f 405/405/405 407/407/407 408/408/408
f 409/409/409 410/410/410 411/411/411
f 409/409/409 411/411/411 412/412/412
f 413/413/413 414/414/414 415/415/415
f 413/413/413 415/415/415 416/416/416
f 417/417/417 418/418/418 419/419/419
f 417/417/417 419/419/419 420/420/420
f 421/421/421 422/422/422 423/423/423
f 421/421/421 423/423/423 424/424/424
f 425/425/425 426/426/426 427/427/427
f 425/425/425 427/427/427 428/428/428
f 429/429/429 430/430/430 431/431/431
f 429/429/429 431/431/431 432/432/432
f 433/433/433 434/434/434 435/435/435
f 433/433/433 435/435/435 436/436/436
f 437/437/437 438/438/438 439/439/439
f 437/437/437 439/439/439 440/440/440
f 441/441/441 442/442/442 443/443/443
f 441/441/441 443/443/443 444/444/444
f 445/445/445 446/446/446 447/447/447
f 445/445/445 447/447/447 448/448/448
f 449/449/449 450/450/450 451/451/451
f 449/449/449 451/451/451 452/452/452
f 453/453/453 454/454/454 455/455/455
f 453/453/453 455/455/455 456/456/456
f 457/457/457 458/458/458 459/459/459
f 457/457/457 459/459/459 460/460/460
f 461/461/461 462/462/462 463/463/463
f 461/461/461 463/463/463 464/464/464
f 465/465/465 466/466/466 467/467/467
f 465/465/465 467/467/467 468/468/468
f 469/469/469 470/470/470 471/471/471
f 469/469/469 471/471/471 472/472/472
f 473/473/473 474/474/474 475/475/475
f 473/473/473 475/475/475 476/476/476
f 477/477/477 478/478/478 479/479/479
f 477/477/477 479/479/479 480/480/480
usemtl CliffDeep
f 481/481/481 482/482/482 483/483/483
f 481/481/481 483/483/483 484/484/484
f 485/485/485 486/486/486 487/487/487
f 485/485/485 487/487/487 488/488/488
f 489/489/489 490/490/490 491/491/491
f 489/489/489 491/491/491 492/492/492
f 493/493/493 494/494/494 495/495/495
f 493/493/493 495/495/495 496/496/496
f 497/497/497 498/498/498 499/499/499
f 497/497/497 499/499/499 500/500/500
f 501/501/501 502/502/502 503/503/503
f 501/501/501 503/503/503 504/504/504
f 505/505/505 506/506/506 507/507/507
f 505/505/505 507/507/507 508/508/508
f 509/509/509 510/510/510 511/511/511
f 509/509/509 511/511/511 512/512/512
f 513/513/513 514/514/514 515/515/515
f 513/513/513 515/515/515 516/516/516
f 517/517/517 518/518/518 519/519/519
f 517/517/517 519/519/519 520/520/520
f 521/521/521 522/522/522 523/523/523
f 521/521/521 523/523/523 524/524/524
f 525/525/525 526/526/526 527/527/527
f 525/525/525 527/527/527 528/528/528
f 529/529/529 530/530/530 531/531/531
f 529/529/529 531/531/531 532/532/532
f 533/533/533 534/534/534 535/535/535
f 533/533/533 535/535/535 536/536/536
f 537/537/537 538/538/538 539/539/539
f 537/537/537 539/539/539 540/540/540
f 541/541/541 542/542/542 543/543/543
f 541/541/541 543/543/543 544/544/544
f 545/545/545 546/546/546 547/547/547
f 545/545/545 547/547/547 548/548/548
f 549/549/549 550/550/550 551/551/551
f 549/549/549 551/551/551 552/552/552
f 553/553/553 554/554/554 555/555/555
f 553/553/553 555/555/555 556/556/556
f 557/557/557 558/558/558 559/559/559
f 557/557/557 559/559/559 560/560/560
f 561/561/561 562/562/562 563/563/563
f 561/561/561 563/563/563 564/564/564
f 565/565/565 566/566/566 567/567/567
f 565/565/565 567/567/567 568/568/568
f 569/569/569 570/570/570 571/571/571
f 569/569/569 571/571/571 572/572/572
f 573/573/573 574/574/574 575/575/575
f 573/573/573 575/575/575 576/576/576
f 577/577/577 578/578/578 579/579/579
f 577/577/577 579/579/579 580/580/580
f 581/581/581 582/582/582 583/583/583
f 581/581/581 583/583/583 584/584/584
f 585/585/585 586/586/586 587/587/587
f 585/585/585 587/587/587 588/588/588
f 589/589/589 590/590/590 591/591/591
f 589/589/589 591/591/591 592/592/592
f 593/593/593 594/594/594 595/595/595
f 593/593/593 595/595/595 596/596/596
f 597/597/597 598/598/598 599/599/599
f 597/597/597 599/599/599 600/600/600
f 601/601/601 602/602/602 603/603/603
f 601/601/601 603/603/603 604/604/604
f 605/605/605 606/606/606 607/607/607
f 605/605/605 607/607/607 608/608/608
usemtl UnderwaterStone
f 609/609/609 610/610/610 611/611/611
f 609/609/609 611/611/611 612/612/612
f 613/613/613 614/614/614 615/615/615
f 613/613/613 615/615/615 616/616/616
f 617/617/617 618/618/618 619/619/619
f 617/617/617 619/619/619 620/620/620
f 621/621/621 622/622/622 623/623/623
f 621/621/621 623/623/623 624/624/624
f 625/625/625 626/626/626 627/627/627
f 625/625/625 627/627/627 628/628/628
f 629/629/629 630/630/630 631/631/631
f 629/629/629 631/631/631 632/632/632
f 633/633/633 634/634/634 635/635/635
f 633/633/633 635/635/635 636/636/636
f 637/637/637 638/638/638 639/639/639
f 637/637/637 639/639/639 640/640/640
f 641/641/641 642/642/642 643/643/643
f 641/641/641 643/643/643 644/644/644
f 645/645/645 646/646/646 647/647/647
f 645/645/645 647/647/647 648/648/648
f 649/649/649 650/650/650 651/651/651
f 649/649/649 651/651/651 652/652/652
f 653/653/653 654/654/654 655/655/655
f 653/653/653 655/655/655 656/656/656
f 657/657/657 658/658/658 659/659/659
f 657/657/657 659/659/659 660/660/660
f 661/661/661 662/662/662 663/663/663
f 661/661/661 663/663/663 664/664/664
f 665/665/665 666/666/666 667/667/667
f 665/665/665 667/667/667 668/668/668
f 669/669/669 670/670/670 671/671/671
f 669/669/669 671/671/671 672/672/672
f 673/673/673 674/674/674 675/675/675
f 673/673/673 675/675/675 676/676/676
f 677/677/677 678/678/678 679/679/679
f 677/677/677 679/679/679 680/680/680
f 681/681/681 682/682/682 683/683/683
f 681/681/681 683/683/683 684/684/684
f 685/685/685 686/686/686 687/687/687
f 685/685/685 687/687/687 688/688/688
f 689/689/689 690/690/690 691/691/691
f 689/689/689 691/691/691 692/692/692
f 693/693/693 694/694/694 695/695/695
f 693/693/693 695/695/695 696/696/696
f 697/697/697 698/698/698 699/699/699
f 697/697/697 699/699/699 700/700/700
f 701/701/701 702/702/702 703/703/703
f 701/701/701 703/703/703 704/704/704
f 705/705/705 706/706/706 707/707/707
f 705/705/705 707/707/707 708/708/708
f 709/709/709 710/710/710 711/711/711
f 709/709/709 711/711/711 712/712/712
f 713/713/713 714/714/714 715/715/715
f 713/713/713 715/715/715 716/716/716
f 717/717/717 718/718/718 719/719/719
f 717/717/717 719/719/719 720/720/720
f 721/721/721 722/722/722 723/723/723
f 721/721/721 723/723/723 724/724/724
f 725/725/725 726/726/726 727/727/727
f 725/725/725 727/727/727 728/728/728
f 729/729/729 730/730/730 731/731/731
f 729/729/729 731/731/731 732/732/732
f 733/733/733 734/734/734 735/735/735
f 733/733/733 735/735/735 736/736/736
f 737/737/737 738/738/738 739/739/739
f 740/740/740 741/741/741 742/742/742
f 743/743/743 744/744/744 745/745/745
f 746/746/746 747/747/747 748/748/748
f 749/749/749 750/750/750 751/751/751
f 752/752/752 753/753/753 754/754/754
f 755/755/755 756/756/756 757/757/757
f 758/758/758 759/759/759 760/760/760
f 761/761/761 762/762/762 763/763/763
f 764/764/764 765/765/765 766/766/766
f 767/767/767 768/768/768 769/769/769
f 770/770/770 771/771/771 772/772/772
f 773/773/773 774/774/774 775/775/775
f 776/776/776 777/777/777 778/778/778
f 779/779/779 780/780/780 781/781/781
f 782/782/782 783/783/783 784/784/784
f 785/785/785 786/786/786 787/787/787
f 788/788/788 789/789/789 790/790/790
f 791/791/791 792/792/792 793/793/793
f 794/794/794 795/795/795 796/796/796
f 797/797/797 798/798/798 799/799/799
f 800/800/800 801/801/801 802/802/802
f 803/803/803 804/804/804 805/805/805
f 806/806/806 807/807/807 808/808/808
f 809/809/809 810/810/810 811/811/811
f 812/812/812 813/813/813 814/814/814
f 815/815/815 816/816/816 817/817/817
f 818/818/818 819/819/819 820/820/820
f 821/821/821 822/822/822 823/823/823
f 824/824/824 825/825/825 826/826/826
f 827/827/827 828/828/828 829/829/829
f 830/830/830 831/831/831 832/832/832
