mtllib prism_crystal_fragment_b.mtl
o PrismCrystalFragmentB
v 0.000000 0.480000 0.050000
v 0.000000 -0.420000 -0.030000
v 0.380000 0.020000 0.040000
v -0.040000 0.060000 0.270000
v -0.340000 -0.040000 -0.120000
v 0.060000 0.000000 -0.310000
vn 0.472710 0.373145 0.798315
vn -0.784699 0.344625 0.515249
vn -0.409421 0.514102 -0.753706
vn 0.614969 0.520888 -0.592022
vn 0.391028 -0.464147 0.794773
vn -0.654051 -0.439363 0.615774
vn -0.333743 -0.489425 -0.805654
vn 0.661224 -0.479236 -0.577162
usemtl PrismFragment
f 1//1 4//1 3//1
f 1//2 5//2 4//2
f 1//3 6//3 5//3
f 1//4 3//4 6//4
f 2//5 3//5 4//5
f 2//6 4//6 5//6
f 2//7 5//7 6//7
f 2//8 6//8 3//8
