{
	"asset":{
		"generator":"Khronos glTF Blender I/O v4.4.56",
		"version":"2.0"
	},
	"scene":0,
	"scenes":[
		{
			"name":"Scene",
			"nodes":[
				7
			]
		}
	],
	"nodes":[
		{
			"mesh":0,
			"name":"defaultMaterial.002"
		},
		{
			"children":[
				0
			],
			"name":"polySurface52"
		},
		{
			"mesh":1,
			"name":"defaultMaterial.001"
		},
		{
			"children":[
				2
			],
			"name":"polySurface53"
		},
		{
			"mesh":2,
			"name":"defaultMaterial"
		},
		{
			"children":[
				4
			],
			"name":"polySurface54"
		},
		{
			"children":[
				1,
				3,
				5
			],
			"name":"Collada visual scene group",
			"rotation":[
				0.70710688829422,
				0,
				0,
				0.7071066498756409
			]
		},
		{
			"children":[
				6
			],
			"name":"Sketchfab_model",
			"rotation":[
				-0.70710688829422,
				0,
				0,
				0.7071066498756409
			]
		}
	],
	"materials":[
		{
			"doubleSided":true,
			"name":"lambert4",
			"normalTexture":{
				"index":0
			},
			"occlusionTexture":{
				"index":1
			},
			"pbrMetallicRoughness":{
				"baseColorTexture":{
					"index":2
				},
				"metallicRoughnessTexture":{
					"index":1
				},
				"roughnessFactor":0.5748856663703918
			}
		}
	],
	"meshes":[
		{
			"name":"defaultMaterial.002",
			"primitives":[
				{
					"attributes":{
						"POSITION":0,
						"NORMAL":1,
						"TEXCOORD_0":2
					},
					"indices":3,
					"material":0
				}
			]
		},
		{
			"name":"defaultMaterial.001",
			"primitives":[
				{
					"attributes":{
						"POSITION":4,
						"NORMAL":5,
						"TEXCOORD_0":6
					},
					"indices":3,
					"material":0
				}
			]
		},
		{
			"name":"defaultMaterial",
			"primitives":[
				{
					"attributes":{
						"POSITION":7,
						"NORMAL":8,
						"TEXCOORD_0":9
					},
					"indices":3,
					"material":0
				}
			]
		}
	],
	"textures":[
		{
			"sampler":0,
			"source":0
		},
		{
			"sampler":0,
			"source":1
		},
		{
			"sampler":0,
			"source":2
		}
	],
	"images":[
		{
			"mimeType":"image/jpeg",
			"name":"lambert4_normal",
			"uri":"lambert4_normal.jpg"
		},
		{
			"mimeType":"image/png",
			"name":"lambert4_metallicRoughness",
			"uri":"lambert4_metallicRoughness.png"
		},
		{
			"mimeType":"image/jpeg",
			"name":"lambert4_baseColor",
			"uri":"lambert4_baseColor.jpg"
		}
	],
	"accessors":[
		{
			"bufferView":0,
			"componentType":5126,
			"count":205,
			"max":[
				1,
				0.5011240243911743,
				0.46027201414108276
			],
			"min":[
				-1,
				-0.5011240243911743,
				-0.46027201414108276
			],
			"type":"VEC3"
		},
		{
			"bufferView":1,
			"componentType":5126,
			"count":205,
			"type":"VEC3"
		},
		{
			"bufferView":2,
			"componentType":5126,
			"count":205,
			"type":"VEC2"
		},
		{
			"bufferView":3,
			"componentType":5123,
			"count":882,
			"type":"SCALAR"
		},
		{
			"bufferView":4,
			"componentType":5126,
			"count":205,
			"max":[
				1,
				1.0953199863433838,
				-0.43102800846099854
			],
			"min":[
				-1,
				0.09307599812746048,
				-1.3515700101852417
			],
			"type":"VEC3"
		},
		{
			"bufferView":5,
			"componentType":5126,
			"count":205,
			"type":"VEC3"
		},
		{
			"bufferView":6,
			"componentType":5126,
			"count":205,
			"type":"VEC2"
		},
		{
			"bufferView":7,
			"componentType":5126,
			"count":205,
			"max":[
				1,
				1.689520001411438,
				-1.3223299980163574
			],
			"min":[
				-1,
				0.6872760057449341,
				-2.2428700923919678
			],
			"type":"VEC3"
		},
		{
			"bufferView":8,
			"componentType":5126,
			"count":205,
			"type":"VEC3"
		},
		{
			"bufferView":9,
			"componentType":5126,
			"count":205,
			"type":"VEC2"
		}
	],
	"bufferViews":[
		{
			"buffer":0,
			"byteLength":2460,
			"byteOffset":0,
			"target":34962
		},
		{
			"buffer":0,
			"byteLength":2460,
			"byteOffset":2460,
			"target":34962
		},
		{
			"buffer":0,
			"byteLength":1640,
			"byteOffset":4920,
			"target":34962
		},
		{
			"buffer":0,
			"byteLength":1764,
			"byteOffset":6560,
			"target":34963
		},
		{
			"buffer":0,
			"byteLength":2460,
			"byteOffset":8324,
			"target":34962
		},
		{
			"buffer":0,
			"byteLength":2460,
			"byteOffset":10784,
			"target":34962
		},
		{
			"buffer":0,
			"byteLength":1640,
			"byteOffset":13244,
			"target":34962
		},
		{
			"buffer":0,
			"byteLength":2460,
			"byteOffset":14884,
			"target":34962
		},
		{
			"buffer":0,
			"byteLength":2460,
			"byteOffset":17344,
			"target":34962
		},
		{
			"buffer":0,
			"byteLength":1640,
			"byteOffset":19804,
			"target":34962
		}
	],
	"samplers":[
		{
			"magFilter":9729,
			"minFilter":9987
		}
	],
	"buffers":[
		{
			"byteLength":21444,
			"uri":"stairs.bin"
		}
	]
}
