mtllib galaxy_beacon.mtl
o galaxy_beacon
v 2.700000 0.000000 0.000000
v 2.700000 0.400000 0.000000
v 2.608000 0.000000 0.698811
v 2.608000 0.400000 0.698811
v 2.338269 0.000000 1.350000
v 2.338269 0.400000 1.350000
v 1.909188 0.000000 1.909188
v 1.909188 0.400000 1.909188
v 1.350000 0.000000 2.338269
v 1.350000 0.400000 2.338269
v 0.698811 0.000000 2.608000
v 0.698811 0.400000 2.608000
v 0.000000 0.000000 2.700000
v 0.000000 0.400000 2.700000
v -0.698811 0.000000 2.608000
v -0.698811 0.400000 2.608000
v -1.350000 0.000000 2.338269
v -1.350000 0.400000 2.338269
v -1.909188 0.000000 1.909188
v -1.909188 0.400000 1.909188
v -2.338269 0.000000 1.350000
v -2.338269 0.400000 1.350000
v -2.608000 0.000000 0.698811
v -2.608000 0.400000 0.698811
v -2.700000 0.000000 0.000000
v -2.700000 0.400000 0.000000
v -2.608000 0.000000 -0.698811
v -2.608000 0.400000 -0.698811
v -2.338269 0.000000 -1.350000
v -2.338269 0.400000 -1.350000
v -1.909188 0.000000 -1.909188
v -1.909188 0.400000 -1.909188
v -1.350000 0.000000 -2.338269
v -1.350000 0.400000 -2.338269
v -0.698811 0.000000 -2.608000
v -0.698811 0.400000 -2.608000
v 0.000000 0.000000 -2.700000
v 0.000000 0.400000 -2.700000
v 0.698811 0.000000 -2.608000
v 0.698811 0.400000 -2.608000
v 1.350000 0.000000 -2.338269
v 1.350000 0.400000 -2.338269
v 1.909188 0.000000 -1.909188
v 1.909188 0.400000 -1.909188
v 2.338269 0.000000 -1.350000
v 2.338269 0.400000 -1.350000
v 2.608000 0.000000 -0.698811
v 2.608000 0.400000 -0.698811
v 0.000000 0.000000 0.000000
v 0.000000 0.400000 0.000000
usemtl gold
f 1 3 4 2
f 3 5 6 4
f 5 7 8 6
f 7 9 10 8
f 9 11 12 10
f 11 13 14 12
f 13 15 16 14
f 15 17 18 16
f 17 19 20 18
f 19 21 22 20
f 21 23 24 22
f 23 25 26 24
f 25 27 28 26
f 27 29 30 28
f 29 31 32 30
f 31 33 34 32
f 33 35 36 34
f 35 37 38 36
f 37 39 40 38
f 39 41 42 40
f 41 43 44 42
f 43 45 46 44
f 45 47 48 46
f 47 1 2 48
usemtl pearl
f 49 3 1
f 50 2 4
f 49 5 3
f 50 4 6
f 49 7 5
f 50 6 8
f 49 9 7
f 50 8 10
f 49 11 9
f 50 10 12
f 49 13 11
f 50 12 14
f 49 15 13
f 50 14 16
f 49 17 15
f 50 16 18
f 49 19 17
f 50 18 20
f 49 21 19
f 50 20 22
f 49 23 21
f 50 22 24
f 49 25 23
f 50 24 26
f 49 27 25
f 50 26 28
f 49 29 27
f 50 28 30
f 49 31 29
f 50 30 32
f 49 33 31
f 50 32 34
f 49 35 33
f 50 34 36
f 49 37 35
f 50 36 38
f 49 39 37
f 50 38 40
f 49 41 39
f 50 40 42
f 49 43 41
f 50 42 44
f 49 45 43
f 50 44 46
f 49 47 45
f 50 46 48
f 49 1 47
f 50 48 2
v 1.450000 0.300000 0.000000
v 1.450000 2.700000 0.000000
v 1.379032 0.300000 0.448075
v 1.379032 2.700000 0.448075
v 1.173075 0.300000 0.852289
v 1.173075 2.700000 0.852289
v 0.852289 0.300000 1.173075
v 0.852289 2.700000 1.173075
v 0.448075 0.300000 1.379032
v 0.448075 2.700000 1.379032
v 0.000000 0.300000 1.450000
v 0.000000 2.700000 1.450000
v -0.448075 0.300000 1.379032
v -0.448075 2.700000 1.379032
v -0.852289 0.300000 1.173075
v -0.852289 2.700000 1.173075
v -1.173075 0.300000 0.852289
v -1.173075 2.700000 0.852289
v -1.379032 0.300000 0.448075
v -1.379032 2.700000 0.448075
v -1.450000 0.300000 0.000000
v -1.450000 2.700000 0.000000
v -1.379032 0.300000 -0.448075
v -1.379032 2.700000 -0.448075
v -1.173075 0.300000 -0.852289
v -1.173075 2.700000 -0.852289
v -0.852289 0.300000 -1.173075
v -0.852289 2.700000 -1.173075
v -0.448075 0.300000 -1.379032
v -0.448075 2.700000 -1.379032
v 0.000000 0.300000 -1.450000
v 0.000000 2.700000 -1.450000
v 0.448075 0.300000 -1.379032
v 0.448075 2.700000 -1.379032
v 0.852289 0.300000 -1.173075
v 0.852289 2.700000 -1.173075
v 1.173075 0.300000 -0.852289
v 1.173075 2.700000 -0.852289
v 1.379032 0.300000 -0.448075
v 1.379032 2.700000 -0.448075
v 0.000000 0.300000 0.000000
v 0.000000 2.700000 0.000000
usemtl pearl
f 51 53 54 52
f 53 55 56 54
f 55 57 58 56
f 57 59 60 58
f 59 61 62 60
f 61 63 64 62
f 63 65 66 64
f 65 67 68 66
f 67 69 70 68
f 69 71 72 70
f 71 73 74 72
f 73 75 76 74
f 75 77 78 76
f 77 79 80 78
f 79 81 82 80
f 81 83 84 82
f 83 85 86 84
f 85 87 88 86
f 87 89 90 88
f 89 51 52 90
usemtl aqua
f 91 53 51
f 92 52 54
f 91 55 53
f 92 54 56
f 91 57 55
f 92 56 58
f 91 59 57
f 92 58 60
f 91 61 59
f 92 60 62
f 91 63 61
f 92 62 64
f 91 65 63
f 92 64 66
f 91 67 65
f 92 66 68
f 91 69 67
f 92 68 70
f 91 71 69
f 92 70 72
f 91 73 71
f 92 72 74
f 91 75 73
f 92 74 76
f 91 77 75
f 92 76 78
f 91 79 77
f 92 78 80
f 91 81 79
f 92 80 82
f 91 83 81
f 92 82 84
f 91 85 83
f 92 84 86
f 91 87 85
f 92 86 88
f 91 89 87
f 92 88 90
f 91 51 89
f 92 90 52
v 0.620000 2.700000 0.000000
v 0.620000 5.900000 0.000000
v 0.572805 2.700000 0.237264
v 0.572805 5.900000 0.237264
v 0.438406 2.700000 0.438406
v 0.438406 5.900000 0.438406
v 0.237264 2.700000 0.572805
v 0.237264 5.900000 0.572805
v 0.000000 2.700000 0.620000
v 0.000000 5.900000 0.620000
v -0.237264 2.700000 0.572805
v -0.237264 5.900000 0.572805
v -0.438406 2.700000 0.438406
v -0.438406 5.900000 0.438406
v -0.572805 2.700000 0.237264
v -0.572805 5.900000 0.237264
v -0.620000 2.700000 0.000000
v -0.620000 5.900000 0.000000
v -0.572805 2.700000 -0.237264
v -0.572805 5.900000 -0.237264
v -0.438406 2.700000 -0.438406
v -0.438406 5.900000 -0.438406
v -0.237264 2.700000 -0.572805
v -0.237264 5.900000 -0.572805
v 0.000000 2.700000 -0.620000
v 0.000000 5.900000 -0.620000
v 0.237264 2.700000 -0.572805
v 0.237264 5.900000 -0.572805
v 0.438406 2.700000 -0.438406
v 0.438406 5.900000 -0.438406
v 0.572805 2.700000 -0.237264
v 0.572805 5.900000 -0.237264
v 0.000000 2.700000 0.000000
v 0.000000 5.900000 0.000000
usemtl gold
f 93 95 96 94
f 95 97 98 96
f 97 99 100 98
f 99 101 102 100
f 101 103 104 102
f 103 105 106 104
f 105 107 108 106
f 107 109 110 108
f 109 111 112 110
f 111 113 114 112
f 113 115 116 114
f 115 117 118 116
f 117 119 120 118
f 119 121 122 120
f 121 123 124 122
f 123 93 94 124
usemtl pearl
f 125 95 93
f 126 94 96
f 125 97 95
f 126 96 98
f 125 99 97
f 126 98 100
f 125 101 99
f 126 100 102
f 125 103 101
f 126 102 104
f 125 105 103
f 126 104 106
f 125 107 105
f 126 106 108
f 125 109 107
f 126 108 110
f 125 111 109
f 126 110 112
f 125 113 111
f 126 112 114
f 125 115 113
f 126 114 116
f 125 117 115
f 126 116 118
f 125 119 117
f 126 118 120
f 125 121 119
f 126 120 122
f 125 123 121
f 126 122 124
f 125 93 123
f 126 124 94
v 2.140000 3.100000 0.000000
v 2.070000 3.221244 0.000000
v 1.930000 3.221244 0.000000
v 1.860000 3.100000 0.000000
v 1.930000 2.978756 0.000000
v 2.070000 2.978756 0.000000
v 2.067081 3.100000 0.553873
v 1.999466 3.221244 0.535755
v 1.864237 3.221244 0.499521
v 1.796622 3.100000 0.481403
v 1.864237 2.978756 0.499521
v 1.999466 2.978756 0.535755
v 1.853294 3.100000 1.070000
v 1.792673 3.221244 1.035000
v 1.671429 3.221244 0.965000
v 1.610807 3.100000 0.930000
v 1.671429 2.978756 0.965000
v 1.792673 2.978756 1.035000
v 1.513209 3.100000 1.513209
v 1.463711 3.221244 1.463711
v 1.364716 3.221244 1.364716
v 1.315219 3.100000 1.315219
v 1.364716 2.978756 1.364716
v 1.463711 2.978756 1.463711
v 1.070000 3.100000 1.853294
v 1.035000 3.221244 1.792673
v 0.965000 3.221244 1.671429
v 0.930000 3.100000 1.610807
v 0.965000 2.978756 1.671429
v 1.035000 2.978756 1.792673
v 0.553873 3.100000 2.067081
v 0.535755 3.221244 1.999466
v 0.499521 3.221244 1.864237
v 0.481403 3.100000 1.796622
v 0.499521 2.978756 1.864237
v 0.535755 2.978756 1.999466
v 0.000000 3.100000 2.140000
v 0.000000 3.221244 2.070000
v 0.000000 3.221244 1.930000
v 0.000000 3.100000 1.860000
v 0.000000 2.978756 1.930000
v 0.000000 2.978756 2.070000
v -0.553873 3.100000 2.067081
v -0.535755 3.221244 1.999466
v -0.499521 3.221244 1.864237
v -0.481403 3.100000 1.796622
v -0.499521 2.978756 1.864237
v -0.535755 2.978756 1.999466
v -1.070000 3.100000 1.853294
v -1.035000 3.221244 1.792673
v -0.965000 3.221244 1.671429
v -0.930000 3.100000 1.610807
v -0.965000 2.978756 1.671429
v -1.035000 2.978756 1.792673
v -1.513209 3.100000 1.513209
v -1.463711 3.221244 1.463711
v -1.364716 3.221244 1.364716
v -1.315219 3.100000 1.315219
v -1.364716 2.978756 1.364716
v -1.463711 2.978756 1.463711
v -1.853294 3.100000 1.070000
v -1.792673 3.221244 1.035000
v -1.671429 3.221244 0.965000
v -1.610807 3.100000 0.930000
v -1.671429 2.978756 0.965000
v -1.792673 2.978756 1.035000
v -2.067081 3.100000 0.553873
v -1.999466 3.221244 0.535755
v -1.864237 3.221244 0.499521
v -1.796622 3.100000 0.481403
v -1.864237 2.978756 0.499521
v -1.999466 2.978756 0.535755
v -2.140000 3.100000 0.000000
v -2.070000 3.221244 0.000000
v -1.930000 3.221244 0.000000
v -1.860000 3.100000 0.000000
v -1.930000 2.978756 0.000000
v -2.070000 2.978756 0.000000
v -2.067081 3.100000 -0.553873
v -1.999466 3.221244 -0.535755
v -1.864237 3.221244 -0.499521
v -1.796622 3.100000 -0.481403
v -1.864237 2.978756 -0.499521
v -1.999466 2.978756 -0.535755
v -1.853294 3.100000 -1.070000
v -1.792673 3.221244 -1.035000
v -1.671429 3.221244 -0.965000
v -1.610807 3.100000 -0.930000
v -1.671429 2.978756 -0.965000
v -1.792673 2.978756 -1.035000
v -1.513209 3.100000 -1.513209
v -1.463711 3.221244 -1.463711
v -1.364716 3.221244 -1.364716
v -1.315219 3.100000 -1.315219
v -1.364716 2.978756 -1.364716
v -1.463711 2.978756 -1.463711
v -1.070000 3.100000 -1.853294
v -1.035000 3.221244 -1.792673
v -0.965000 3.221244 -1.671429
v -0.930000 3.100000 -1.610807
v -0.965000 2.978756 -1.671429
v -1.035000 2.978756 -1.792673
v -0.553873 3.100000 -2.067081
v -0.535755 3.221244 -1.999466
v -0.499521 3.221244 -1.864237
v -0.481403 3.100000 -1.796622
v -0.499521 2.978756 -1.864237
v -0.535755 2.978756 -1.999466
v 0.000000 3.100000 -2.140000
v 0.000000 3.221244 -2.070000
v 0.000000 3.221244 -1.930000
v 0.000000 3.100000 -1.860000
v 0.000000 2.978756 -1.930000
v 0.000000 2.978756 -2.070000
v 0.553873 3.100000 -2.067081
v 0.535755 3.221244 -1.999466
v 0.499521 3.221244 -1.864237
v 0.481403 3.100000 -1.796622
v 0.499521 2.978756 -1.864237
v 0.535755 2.978756 -1.999466
v 1.070000 3.100000 -1.853294
v 1.035000 3.221244 -1.792673
v 0.965000 3.221244 -1.671429
v 0.930000 3.100000 -1.610807
v 0.965000 2.978756 -1.671429
v 1.035000 2.978756 -1.792673
v 1.513209 3.100000 -1.513209
v 1.463711 3.221244 -1.463711
v 1.364716 3.221244 -1.364716
v 1.315219 3.100000 -1.315219
v 1.364716 2.978756 -1.364716
v 1.463711 2.978756 -1.463711
v 1.853294 3.100000 -1.070000
v 1.792673 3.221244 -1.035000
v 1.671429 3.221244 -0.965000
v 1.610807 3.100000 -0.930000
v 1.671429 2.978756 -0.965000
v 1.792673 2.978756 -1.035000
v 2.067081 3.100000 -0.553873
v 1.999466 3.221244 -0.535755
v 1.864237 3.221244 -0.499521
v 1.796622 3.100000 -0.481403
v 1.864237 2.978756 -0.499521
v 1.999466 2.978756 -0.535755
usemtl aqua
f 127 133 134 128
f 128 134 135 129
f 129 135 136 130
f 130 136 137 131
f 131 137 138 132
f 132 138 133 127
f 133 139 140 134
f 134 140 141 135
f 135 141 142 136
f 136 142 143 137
f 137 143 144 138
f 138 144 139 133
f 139 145 146 140
f 140 146 147 141
f 141 147 148 142
f 142 148 149 143
f 143 149 150 144
f 144 150 145 139
f 145 151 152 146
f 146 152 153 147
f 147 153 154 148
f 148 154 155 149
f 149 155 156 150
f 150 156 151 145
f 151 157 158 152
f 152 158 159 153
f 153 159 160 154
f 154 160 161 155
f 155 161 162 156
f 156 162 157 151
f 157 163 164 158
f 158 164 165 159
f 159 165 166 160
f 160 166 167 161
f 161 167 168 162
f 162 168 163 157
f 163 169 170 164
f 164 170 171 165
f 165 171 172 166
f 166 172 173 167
f 167 173 174 168
f 168 174 169 163
f 169 175 176 170
f 170 176 177 171
f 171 177 178 172
f 172 178 179 173
f 173 179 180 174
f 174 180 175 169
f 175 181 182 176
f 176 182 183 177
f 177 183 184 178
f 178 184 185 179
f 179 185 186 180
f 180 186 181 175
f 181 187 188 182
f 182 188 189 183
f 183 189 190 184
f 184 190 191 185
f 185 191 192 186
f 186 192 187 181
f 187 193 194 188
f 188 194 195 189
f 189 195 196 190
f 190 196 197 191
f 191 197 198 192
f 192 198 193 187
f 193 199 200 194
f 194 200 201 195
f 195 201 202 196
f 196 202 203 197
f 197 203 204 198
f 198 204 199 193
f 199 205 206 200
f 200 206 207 201
f 201 207 208 202
f 202 208 209 203
f 203 209 210 204
f 204 210 205 199
f 205 211 212 206
f 206 212 213 207
f 207 213 214 208
f 208 214 215 209
f 209 215 216 210
f 210 216 211 205
f 211 217 218 212
f 212 218 219 213
f 213 219 220 214
f 214 220 221 215
f 215 221 222 216
f 216 222 217 211
f 217 223 224 218
f 218 224 225 219
f 219 225 226 220
f 220 226 227 221
f 221 227 228 222
f 222 228 223 217
f 223 229 230 224
f 224 230 231 225
f 225 231 232 226
f 226 232 233 227
f 227 233 234 228
f 228 234 229 223
f 229 235 236 230
f 230 236 237 231
f 231 237 238 232
f 232 238 239 233
f 233 239 240 234
f 234 240 235 229
f 235 241 242 236
f 236 242 243 237
f 237 243 244 238
f 238 244 245 239
f 239 245 246 240
f 240 246 241 235
f 241 247 248 242
f 242 248 249 243
f 243 249 250 244
f 244 250 251 245
f 245 251 252 246
f 246 252 247 241
f 247 253 254 248
f 248 254 255 249
f 249 255 256 250
f 250 256 257 251
f 251 257 258 252
f 252 258 253 247
f 253 259 260 254
f 254 260 261 255
f 255 261 262 256
f 256 262 263 257
f 257 263 264 258
f 258 264 259 253
f 259 265 266 260
f 260 266 267 261
f 261 267 268 262
f 262 268 269 263
f 263 269 270 264
f 264 270 265 259
f 265 127 128 266
f 266 128 129 267
f 267 129 130 268
f 268 130 131 269
f 269 131 132 270
f 270 132 127 265
v 1.570000 5.600000 0.000000
v 1.510000 5.703923 0.000000
v 1.390000 5.703923 0.000000
v 1.330000 5.600000 0.000000
v 1.390000 5.496077 0.000000
v 1.510000 5.496077 0.000000
v 1.516504 5.600000 0.406346
v 1.458548 5.703923 0.390817
v 1.342637 5.703923 0.359758
v 1.284681 5.600000 0.344229
v 1.342637 5.496077 0.359758
v 1.458548 5.496077 0.390817
v 1.359660 5.600000 0.785000
v 1.307698 5.703923 0.755000
v 1.203775 5.703923 0.695000
v 1.151814 5.600000 0.665000
v 1.203775 5.496077 0.695000
v 1.307698 5.496077 0.755000
v 1.110158 5.600000 1.110158
v 1.067731 5.703923 1.067731
v 0.982878 5.703923 0.982878
v 0.940452 5.600000 0.940452
v 0.982878 5.496077 0.982878
v 1.067731 5.496077 1.067731
v 0.785000 5.600000 1.359660
v 0.755000 5.703923 1.307698
v 0.695000 5.703923 1.203775
v 0.665000 5.600000 1.151814
v 0.695000 5.496077 1.203775
v 0.755000 5.496077 1.307698
v 0.406346 5.600000 1.516504
v 0.390817 5.703923 1.458548
v 0.359758 5.703923 1.342637
v 0.344229 5.600000 1.284681
v 0.359758 5.496077 1.342637
v 0.390817 5.496077 1.458548
v 0.000000 5.600000 1.570000
v 0.000000 5.703923 1.510000
v 0.000000 5.703923 1.390000
v 0.000000 5.600000 1.330000
v 0.000000 5.496077 1.390000
v 0.000000 5.496077 1.510000
v -0.406346 5.600000 1.516504
v -0.390817 5.703923 1.458548
v -0.359758 5.703923 1.342637
v -0.344229 5.600000 1.284681
v -0.359758 5.496077 1.342637
v -0.390817 5.496077 1.458548
v -0.785000 5.600000 1.359660
v -0.755000 5.703923 1.307698
v -0.695000 5.703923 1.203775
v -0.665000 5.600000 1.151814
v -0.695000 5.496077 1.203775
v -0.755000 5.496077 1.307698
v -1.110158 5.600000 1.110158
v -1.067731 5.703923 1.067731
v -0.982878 5.703923 0.982878
v -0.940452 5.600000 0.940452
v -0.982878 5.496077 0.982878
v -1.067731 5.496077 1.067731
v -1.359660 5.600000 0.785000
v -1.307698 5.703923 0.755000
v -1.203775 5.703923 0.695000
v -1.151814 5.600000 0.665000
v -1.203775 5.496077 0.695000
v -1.307698 5.496077 0.755000
v -1.516504 5.600000 0.406346
v -1.458548 5.703923 0.390817
v -1.342637 5.703923 0.359758
v -1.284681 5.600000 0.344229
v -1.342637 5.496077 0.359758
v -1.458548 5.496077 0.390817
v -1.570000 5.600000 0.000000
v -1.510000 5.703923 0.000000
v -1.390000 5.703923 0.000000
v -1.330000 5.600000 0.000000
v -1.390000 5.496077 0.000000
v -1.510000 5.496077 0.000000
v -1.516504 5.600000 -0.406346
v -1.458548 5.703923 -0.390817
v -1.342637 5.703923 -0.359758
v -1.284681 5.600000 -0.344229
v -1.342637 5.496077 -0.359758
v -1.458548 5.496077 -0.390817
v -1.359660 5.600000 -0.785000
v -1.307698 5.703923 -0.755000
v -1.203775 5.703923 -0.695000
v -1.151814 5.600000 -0.665000
v -1.203775 5.496077 -0.695000
v -1.307698 5.496077 -0.755000
v -1.110158 5.600000 -1.110158
v -1.067731 5.703923 -1.067731
v -0.982878 5.703923 -0.982878
v -0.940452 5.600000 -0.940452
v -0.982878 5.496077 -0.982878
v -1.067731 5.496077 -1.067731
v -0.785000 5.600000 -1.359660
v -0.755000 5.703923 -1.307698
v -0.695000 5.703923 -1.203775
v -0.665000 5.600000 -1.151814
v -0.695000 5.496077 -1.203775
v -0.755000 5.496077 -1.307698
v -0.406346 5.600000 -1.516504
v -0.390817 5.703923 -1.458548
v -0.359758 5.703923 -1.342637
v -0.344229 5.600000 -1.284681
v -0.359758 5.496077 -1.342637
v -0.390817 5.496077 -1.458548
v 0.000000 5.600000 -1.570000
v 0.000000 5.703923 -1.510000
v 0.000000 5.703923 -1.390000
v 0.000000 5.600000 -1.330000
v 0.000000 5.496077 -1.390000
v 0.000000 5.496077 -1.510000
v 0.406346 5.600000 -1.516504
v 0.390817 5.703923 -1.458548
v 0.359758 5.703923 -1.342637
v 0.344229 5.600000 -1.284681
v 0.359758 5.496077 -1.342637
v 0.390817 5.496077 -1.458548
v 0.785000 5.600000 -1.359660
v 0.755000 5.703923 -1.307698
v 0.695000 5.703923 -1.203775
v 0.665000 5.600000 -1.151814
v 0.695000 5.496077 -1.203775
v 0.755000 5.496077 -1.307698
v 1.110158 5.600000 -1.110158
v 1.067731 5.703923 -1.067731
v 0.982878 5.703923 -0.982878
v 0.940452 5.600000 -0.940452
v 0.982878 5.496077 -0.982878
v 1.067731 5.496077 -1.067731
v 1.359660 5.600000 -0.785000
v 1.307698 5.703923 -0.755000
v 1.203775 5.703923 -0.695000
v 1.151814 5.600000 -0.665000
v 1.203775 5.496077 -0.695000
v 1.307698 5.496077 -0.755000
v 1.516504 5.600000 -0.406346
v 1.458548 5.703923 -0.390817
v 1.342637 5.703923 -0.359758
v 1.284681 5.600000 -0.344229
v 1.342637 5.496077 -0.359758
v 1.458548 5.496077 -0.390817
usemtl gold
f 271 277 278 272
f 272 278 279 273
f 273 279 280 274
f 274 280 281 275
f 275 281 282 276
f 276 282 277 271
f 277 283 284 278
f 278 284 285 279
f 279 285 286 280
f 280 286 287 281
f 281 287 288 282
f 282 288 283 277
f 283 289 290 284
f 284 290 291 285
f 285 291 292 286
f 286 292 293 287
f 287 293 294 288
f 288 294 289 283
f 289 295 296 290
f 290 296 297 291
f 291 297 298 292
f 292 298 299 293
f 293 299 300 294
f 294 300 295 289
f 295 301 302 296
f 296 302 303 297
f 297 303 304 298
f 298 304 305 299
f 299 305 306 300
f 300 306 301 295
f 301 307 308 302
f 302 308 309 303
f 303 309 310 304
f 304 310 311 305
f 305 311 312 306
f 306 312 307 301
f 307 313 314 308
f 308 314 315 309
f 309 315 316 310
f 310 316 317 311
f 311 317 318 312
f 312 318 313 307
f 313 319 320 314
f 314 320 321 315
f 315 321 322 316
f 316 322 323 317
f 317 323 324 318
f 318 324 319 313
f 319 325 326 320
f 320 326 327 321
f 321 327 328 322
f 322 328 329 323
f 323 329 330 324
f 324 330 325 319
f 325 331 332 326
f 326 332 333 327
f 327 333 334 328
f 328 334 335 329
f 329 335 336 330
f 330 336 331 325
f 331 337 338 332
f 332 338 339 333
f 333 339 340 334
f 334 340 341 335
f 335 341 342 336
f 336 342 337 331
f 337 343 344 338
f 338 344 345 339
f 339 345 346 340
f 340 346 347 341
f 341 347 348 342
f 342 348 343 337
f 343 349 350 344
f 344 350 351 345
f 345 351 352 346
f 346 352 353 347
f 347 353 354 348
f 348 354 349 343
f 349 355 356 350
f 350 356 357 351
f 351 357 358 352
f 352 358 359 353
f 353 359 360 354
f 354 360 355 349
f 355 361 362 356
f 356 362 363 357
f 357 363 364 358
f 358 364 365 359
f 359 365 366 360
f 360 366 361 355
f 361 367 368 362
f 362 368 369 363
f 363 369 370 364
f 364 370 371 365
f 365 371 372 366
f 366 372 367 361
f 367 373 374 368
f 368 374 375 369
f 369 375 376 370
f 370 376 377 371
f 371 377 378 372
f 372 378 373 367
f 373 379 380 374
f 374 380 381 375
f 375 381 382 376
f 376 382 383 377
f 377 383 384 378
f 378 384 379 373
f 379 385 386 380
f 380 386 387 381
f 381 387 388 382
f 382 388 389 383
f 383 389 390 384
f 384 390 385 379
f 385 391 392 386
f 386 392 393 387
f 387 393 394 388
f 388 394 395 389
f 389 395 396 390
f 390 396 391 385
f 391 397 398 392
f 392 398 399 393
f 393 399 400 394
f 394 400 401 395
f 395 401 402 396
f 396 402 397 391
f 397 403 404 398
f 398 404 405 399
f 399 405 406 400
f 400 406 407 401
f 401 407 408 402
f 402 408 403 397
f 403 409 410 404
f 404 410 411 405
f 405 411 412 406
f 406 412 413 407
f 407 413 414 408
f 408 414 409 403
f 409 271 272 410
f 410 272 273 411
f 411 273 274 412
f 412 274 275 413
f 413 275 276 414
f 414 276 271 409
v 0.000000 5.940000 -1.600000
v 0.000000 6.260000 -1.600000
v 0.399694 5.940000 -0.550132
v 0.399694 6.260000 -0.550132
v 1.521690 5.940000 -0.494427
v 1.521690 6.260000 -0.494427
v 0.646718 5.940000 0.210132
v 0.646718 6.260000 0.210132
v 0.940456 5.940000 1.294427
v 0.940456 6.260000 1.294427
v 0.000000 5.940000 0.680000
v 0.000000 6.260000 0.680000
v -0.940456 5.940000 1.294427
v -0.940456 6.260000 1.294427
v -0.646718 5.940000 0.210132
v -0.646718 6.260000 0.210132
v -1.521690 5.940000 -0.494427
v -1.521690 6.260000 -0.494427
v -0.399694 5.940000 -0.550132
v -0.399694 6.260000 -0.550132
v 0.000000 5.940000 0.000000
v 0.000000 6.260000 0.000000
usemtl violet
f 415 417 418 416
f 417 419 420 418
f 419 421 422 420
f 421 423 424 422
f 423 425 426 424
f 425 427 428 426
f 427 429 430 428
f 429 431 432 430
f 431 433 434 432
f 433 415 416 434
usemtl gold
f 435 417 415
f 436 416 418
f 435 419 417
f 436 418 420
f 435 421 419
f 436 420 422
f 435 423 421
f 436 422 424
f 435 425 423
f 436 424 426
f 435 427 425
f 436 426 428
f 435 429 427
f 436 428 430
f 435 431 429
f 436 430 432
f 435 433 431
f 436 432 434
f 435 415 433
f 436 434 416
