{
	"asset":{
		"generator":"Khronos glTF Blender I/O v4.4.56",
		"version":"2.0"
	},
	"scene":0,
	"scenes":[
		{
			"name":"Scene",
			"nodes":[
				4,
				9
			]
		}
	],
	"nodes":[
		{
			"name":"Cube.001_1"
		},
		{
			"name":"Cube.002_2"
		},
		{
			"name":"Cube_0"
		},
		{
			"children":[
				0,
				1,
				2
			],
			"name":"GLTF_SceneRootNode",
			"rotation":[
				0.70710688829422,
				0,
				0,
				0.7071066498756409
			]
		},
		{
			"children":[
				3
			],
			"name":"root"
		},
		{
			"mesh":0,
			"name":"Star_Star_0"
		},
		{
			"children":[
				5
			],
			"name":"Star",
			"rotation":[
				-0.70710688829422,
				0,
				0,
				0.7071066498756409
			],
			"scale":[
				100,
				99.99999237060547,
				99.99999237060547
			]
		},
		{
			"children":[
				6
			],
			"name":"RootNode"
		},
		{
			"children":[
				7
			],
			"name":"037754053a0b43d8bd494290884e5758.fbx",
			"rotation":[
				0.70710688829422,
				0,
				0,
				0.7071066498756409
			],
			"scale":[
				0.009999999776482582,
				0.010000000707805157,
				0.010000000707805157
			]
		},
		{
			"children":[
				8
			],
			"name":"Sketchfab_model",
			"rotation":[
				-0.70710688829422,
				0,
				0,
				0.7071066498756409
			]
		}
	],
	"materials":[
		{
			"doubleSided":true,
			"name":"Star",
			"normalTexture":{
				"index":0
			},
			"pbrMetallicRoughness":{
				"baseColorTexture":{
					"index":1
				},
				"metallicRoughnessTexture":{
					"index":2
				}
			}
		}
	],
	"meshes":[
		{
			"name":"Star_Star_0",
			"primitives":[
				{
					"attributes":{
						"POSITION":0,
						"NORMAL":1,
						"TEXCOORD_0":2,
						"TEXCOORD_1":3,
						"TEXCOORD_2":4
					},
					"indices":5,
					"material":0
				}
			]
		}
	],
	"textures":[
		{
			"sampler":0,
			"source":0
		},
		{
			"sampler":0,
			"source":1
		},
		{
			"sampler":0,
			"source":2
		}
	],
	"images":[
		{
			"mimeType":"image/png",
			"name":"Star_normal",
			"uri":"Star_normal.png"
		},
		{
			"mimeType":"image/png",
			"name":"Star_baseColor",
			"uri":"Star_baseColor.png"
		},
		{
			"mimeType":"image/png",
			"name":"Star_metallicRoughness",
			"uri":"Star_metallicRoughness.png"
		}
	],
	"accessors":[
		{
			"bufferView":0,
			"componentType":5126,
			"count":100,
			"max":[
				28.618574142456055,
				5.73111629486084,
				30.09134864807129
			],
			"min":[
				-28.618576049804688,
				-5.73111629486084,
				-24.344417572021484
			],
			"type":"VEC3"
		},
		{
			"bufferView":1,
			"componentType":5126,
			"count":100,
			"type":"VEC3"
		},
		{
			"bufferView":2,
			"componentType":5126,
			"count":100,
			"type":"VEC2"
		},
		{
			"bufferView":3,
			"componentType":5126,
			"count":100,
			"type":"VEC2"
		},
		{
			"bufferView":4,
			"componentType":5126,
			"count":100,
			"type":"VEC2"
		},
		{
			"bufferView":5,
			"componentType":5123,
			"count":120,
			"type":"SCALAR"
		}
	],
	"bufferViews":[
		{
			"buffer":0,
			"byteLength":1200,
			"byteOffset":0,
			"target":34962
		},
		{
			"buffer":0,
			"byteLength":1200,
			"byteOffset":1200,
			"target":34962
		},
		{
			"buffer":0,
			"byteLength":800,
			"byteOffset":2400,
			"target":34962
		},
		{
			"buffer":0,
			"byteLength":800,
			"byteOffset":3200,
			"target":34962
		},
		{
			"buffer":0,
			"byteLength":800,
			"byteOffset":4000,
			"target":34962
		},
		{
			"buffer":0,
			"byteLength":240,
			"byteOffset":4800,
			"target":34963
		}
	],
	"samplers":[
		{
			"magFilter":9729,
			"minFilter":9987
		}
	],
	"buffers":[
		{
			"byteLength":5040,
			"uri":"star.bin"
		}
	]
}
