mtllib stage4_astral_keep.mtl
o stage4_astral_keep
g arrival_floor
usemtl keep_floor
v -10 -1 -8
v 10 -1 -8
v 10 0 -8
v -10 0 -8
v -10 -1 10
v 10 -1 10
v 10 0 10
v -10 0 10
f 1 2 3 4
f 5 8 7 6
f 1 5 6 2
f 4 3 7 8
f 1 4 8 5
f 2 6 7 3
g lower_passage_floor
usemtl keep_floor
v -3 -0.8 10
v 3 -0.8 10
v 3 0 10
v -3 0 10
v -3 -0.8 22
v 3 -0.8 22
v 3 0 22
v -3 0 22
f 9 10 11 12
f 13 16 15 14
f 9 13 14 10
f 12 11 15 16
f 9 12 16 13
f 10 14 15 11
g observatory_floor
usemtl keep_floor
v -14 -1 22
v 14 -1 22
v 14 0 22
v -14 0 22
v -14 -1 46
v 14 -1 46
v 14 0 46
v -14 0 46
f 17 18 19 20
f 21 24 23 22
f 17 21 22 18
f 20 19 23 24
f 17 20 24 21
f 18 22 23 19
g arrival_wall_left
usemtl keep_wall
v -10.8 0 -8
v -10 0 -8
v -10 9 -8
v -10.8 9 -8
v -10.8 0 10
v -10 0 10
v -10 9 10
v -10.8 9 10
f 25 26 27 28
f 29 32 31 30
f 25 29 30 26
f 28 27 31 32
f 25 28 32 29
f 26 30 31 27
g arrival_wall_right
usemtl keep_wall
v 10 0 -8
v 10.8 0 -8
v 10.8 9 -8
v 10 9 -8
v 10 0 10
v 10.8 0 10
v 10.8 9 10
v 10 9 10
f 33 34 35 36
f 37 40 39 38
f 33 37 38 34
f 36 35 39 40
f 33 36 40 37
f 34 38 39 35
g arrival_front_left
usemtl keep_wall
v -10 0 -8.8
v -3 0 -8.8
v -3 7 -8.8
v -10 7 -8.8
v -10 0 -8
v -3 0 -8
v -3 7 -8
v -10 7 -8
f 41 42 43 44
f 45 48 47 46
f 41 45 46 42
f 44 43 47 48
f 41 44 48 45
f 42 46 47 43
g arrival_front_right
usemtl keep_wall
v 3 0 -8.8
v 10 0 -8.8
v 10 7 -8.8
v 3 7 -8.8
v 3 0 -8
v 10 0 -8
v 10 7 -8
v 3 7 -8
f 49 50 51 52
f 53 56 55 54
f 49 53 54 50
f 52 51 55 56
f 49 52 56 53
f 50 54 55 51
g arrival_back_left
usemtl keep_wall
v -10 0 9.6
v -3 0 9.6
v -3 8 9.6
v -10 8 9.6
v -10 0 10.4
v -3 0 10.4
v -3 8 10.4
v -10 8 10.4
f 57 58 59 60
f 61 64 63 62
f 57 61 62 58
f 60 59 63 64
f 57 60 64 61
f 58 62 63 59
g arrival_back_right
usemtl keep_wall
v 3 0 9.6
v 10 0 9.6
v 10 8 9.6
v 3 8 9.6
v 3 0 10.4
v 10 0 10.4
v 10 8 10.4
v 3 8 10.4
f 65 66 67 68
f 69 72 71 70
f 65 69 70 66
f 68 67 71 72
f 65 68 72 69
f 66 70 71 67
g arrival_back_arch
usemtl keep_trim
v -3 5.2 9.5
v 3 5.2 9.5
v 3 8 9.5
v -3 8 9.5
v -3 5.2 10.5
v 3 5.2 10.5
v 3 8 10.5
v -3 8 10.5
f 73 74 75 76
f 77 80 79 78
f 73 77 78 74
f 76 75 79 80
f 73 76 80 77
f 74 78 79 75
g passage_wall_left
usemtl keep_shadow
v -3.8 0 10
v -3 0 10
v -3 4.4 10
v -3.8 4.4 10
v -3.8 0 22
v -3 0 22
v -3 4.4 22
v -3.8 4.4 22
f 81 82 83 84
f 85 88 87 86
f 81 85 86 82
f 84 83 87 88
f 81 84 88 85
f 82 86 87 83
g passage_wall_right
usemtl keep_shadow
v 3 0 10
v 3.8 0 10
v 3.8 4.4 10
v 3 4.4 10
v 3 0 22
v 3.8 0 22
v 3.8 4.4 22
v 3 4.4 22
f 89 90 91 92
f 93 96 95 94
f 89 93 94 90
f 92 91 95 96
f 89 92 96 93
f 90 94 95 91
g passage_cap_left
usemtl keep_wall
v -10 4.4 10
v -3 4.4 10
v -3 8 10
v -10 8 10
v -10 4.4 22
v -3 4.4 22
v -3 8 22
v -10 8 22
f 97 98 99 100
f 101 104 103 102
f 97 101 102 98
f 100 99 103 104
f 97 100 104 101
f 98 102 103 99
g passage_cap_right
usemtl keep_wall
v 3 4.4 10
v 10 4.4 10
v 10 8 10
v 3 8 10
v 3 4.4 22
v 10 4.4 22
v 10 8 22
v 3 8 22
f 105 106 107 108
f 109 112 111 110
f 105 109 110 106
f 108 107 111 112
f 105 108 112 109
f 106 110 111 107
g arrival_balcony_left
usemtl keep_floor
v -10 5.7 -5
v -4 5.7 -5
v -4 6.2 -5
v -10 6.2 -5
v -10 5.7 9.5
v -4 5.7 9.5
v -4 6.2 9.5
v -10 6.2 9.5
f 113 114 115 116
f 117 120 119 118
f 113 117 118 114
f 116 115 119 120
f 113 116 120 117
f 114 118 119 115
g arrival_balcony_right
usemtl keep_floor
v 4 5.7 -5
v 10 5.7 -5
v 10 6.2 -5
v 4 6.2 -5
v 4 5.7 9.5
v 10 5.7 9.5
v 10 6.2 9.5
v 4 6.2 9.5
f 121 122 123 124
f 125 128 127 126
f 121 125 126 122
f 124 123 127 128
f 121 124 128 125
f 122 126 127 123
g arrival_goal_bridge
usemtl keep_floor
v -4 5.7 4
v 4 5.7 4
v 4 6.2 4
v -4 6.2 4
v -4 5.7 8
v 4 5.7 8
v 4 6.2 8
v -4 6.2 8
f 129 130 131 132
f 133 136 135 134
f 129 133 134 130
f 132 131 135 136
f 129 132 136 133
f 130 134 135 131
g upper_return_gallery
usemtl keep_floor
v -10 5.7 9.5
v -4 5.7 9.5
v -4 6.2 9.5
v -10 6.2 9.5
v -10 5.7 22
v -4 5.7 22
v -4 6.2 22
v -10 6.2 22
f 137 138 139 140
f 141 144 143 142
f 137 141 142 138
f 140 139 143 144
f 137 140 144 141
f 138 142 143 139
g gallery_outer_rail
usemtl keep_trim
v -10 6.2 9.5
v -9.55 6.2 9.5
v -9.55 7.35 9.5
v -10 7.35 9.5
v -10 6.2 22
v -9.55 6.2 22
v -9.55 7.35 22
v -10 7.35 22
f 145 146 147 148
f 149 152 151 150
f 145 149 150 146
f 148 147 151 152
f 145 148 152 149
f 146 150 151 147
g goal_bridge_rail_north
usemtl keep_trim
v -4 6.2 7.55
v 4 6.2 7.55
v 4 7.2 7.55
v -4 7.2 7.55
v -4 6.2 8
v 4 6.2 8
v 4 7.2 8
v -4 7.2 8
f 153 154 155 156
f 157 160 159 158
f 153 157 158 154
f 156 155 159 160
f 153 156 160 157
f 154 158 159 155
g goal_bridge_rail_south_left
usemtl keep_trim
v -4 6.2 4
v -1.4 6.2 4
v -1.4 7.2 4
v -4 7.2 4
v -4 6.2 4.45
v -1.4 6.2 4.45
v -1.4 7.2 4.45
v -4 7.2 4.45
f 161 162 163 164
f 165 168 167 166
f 161 165 166 162
f 164 163 167 168
f 161 164 168 165
f 162 166 167 163
g goal_bridge_rail_south_right
usemtl keep_trim
v 1.4 6.2 4
v 4 6.2 4
v 4 7.2 4
v 1.4 7.2 4
v 1.4 6.2 4.45
v 4 6.2 4.45
v 4 7.2 4.45
v 1.4 7.2 4.45
f 169 170 171 172
f 173 176 175 174
f 169 173 174 170
f 172 171 175 176
f 169 172 176 173
f 170 174 175 171
g observatory_wall_left
usemtl keep_wall
v -14.8 0 22
v -14 0 22
v -14 10 22
v -14.8 10 22
v -14.8 0 46
v -14 0 46
v -14 10 46
v -14.8 10 46
f 177 178 179 180
f 181 184 183 182
f 177 181 182 178
f 180 179 183 184
f 177 180 184 181
f 178 182 183 179
g observatory_wall_right
usemtl keep_wall
v 14 0 22
v 14.8 0 22
v 14.8 10 22
v 14 10 22
v 14 0 46
v 14.8 0 46
v 14.8 10 46
v 14 10 46
f 185 186 187 188
f 189 192 191 190
f 185 189 190 186
f 188 187 191 192
f 185 188 192 189
f 186 190 191 187
g observatory_front_left
usemtl keep_wall
v -14 0 21.6
v -3 0 21.6
v -3 9 21.6
v -14 9 21.6
v -14 0 22.4
v -3 0 22.4
v -3 9 22.4
v -14 9 22.4
f 193 194 195 196
f 197 200 199 198
f 193 197 198 194
f 196 195 199 200
f 193 196 200 197
f 194 198 199 195
g observatory_front_right
usemtl keep_wall
v 3 0 21.6
v 14 0 21.6
v 14 9 21.6
v 3 9 21.6
v 3 0 22.4
v 14 0 22.4
v 14 9 22.4
v 3 9 22.4
f 201 202 203 204
f 205 208 207 206
f 201 205 206 202
f 204 203 207 208
f 201 204 208 205
f 202 206 207 203
g observatory_front_arch
usemtl keep_trim
v -3 5.2 21.5
v 3 5.2 21.5
v 3 9 21.5
v -3 9 21.5
v -3 5.2 22.5
v 3 5.2 22.5
v 3 9 22.5
v -3 9 22.5
f 209 210 211 212
f 213 216 215 214
f 209 213 214 210
f 212 211 215 216
f 209 212 216 213
f 210 214 215 211
g observatory_back_left
usemtl keep_wall
v -14 0 45.6
v -5 0 45.6
v -5 8 45.6
v -14 8 45.6
v -14 0 46.4
v -5 0 46.4
v -5 8 46.4
v -14 8 46.4
f 217 218 219 220
f 221 224 223 222
f 217 221 222 218
f 220 219 223 224
f 217 220 224 221
f 218 222 223 219
g observatory_back_right
usemtl keep_wall
v 5 0 45.6
v 14 0 45.6
v 14 8 45.6
v 5 8 45.6
v 5 0 46.4
v 14 0 46.4
v 14 8 46.4
v 5 8 46.4
f 225 226 227 228
f 229 232 231 230
f 225 229 230 226
f 228 227 231 232
f 225 228 232 229
f 226 230 231 227
g observatory_back_crown
usemtl keep_trim
v -5 6.8 45.5
v 5 6.8 45.5
v 5 10 45.5
v -5 10 45.5
v -5 6.8 46.5
v 5 6.8 46.5
v 5 10 46.5
v -5 10 46.5
f 233 234 235 236
f 237 240 239 238
f 233 237 238 234
f 236 235 239 240
f 233 236 240 237
f 234 238 239 235
g east_ramp
usemtl keep_floor
v 7 -0.15000000000000002 42
v 11 -0.15000000000000002 42
v 11 0.35 42
v 7 0.35 42
v 7 2.85 29
v 11 2.85 29
v 11 3.35 29
v 7 3.35 29
f 241 242 243 244
f 245 248 247 246
f 241 245 246 242
f 244 243 247 248
f 241 244 248 245
f 242 246 247 243
g mid_east_landing
usemtl keep_floor
v 7 2.85 25
v 14 2.85 25
v 14 3.35 25
v 7 3.35 25
v 7 2.85 30
v 14 2.85 30
v 14 3.35 30
v 7 3.35 30
f 249 250 251 252
f 253 256 255 254
f 249 253 254 250
f 252 251 255 256
f 249 252 256 253
f 250 254 255 251
g north_ramp
usemtl keep_floor
v 9 2.85 25
v 9 2.85 29
v 9 3.35 29
v 9 3.35 25
v -9 5.65 25
v -9 5.65 29
v -9 6.15 29
v -9 6.15 25
f 257 258 259 260
f 261 264 263 262
f 257 261 262 258
f 260 259 263 264
f 257 260 264 261
f 258 262 263 259
g upper_west_balcony
usemtl keep_floor
v -14 5.65 22
v -7 5.65 22
v -7 6.15 22
v -14 6.15 22
v -14 5.65 42
v -7 5.65 42
v -7 6.15 42
v -14 6.15 42
f 265 266 267 268
f 269 272 271 270
f 265 269 270 266
f 268 267 271 272
f 265 268 272 269
f 266 270 271 267
g upper_back_balcony
usemtl keep_floor
v -9 5.65 40
v 11 5.65 40
v 11 6.15 40
v -9 6.15 40
v -9 5.65 46
v 11 5.65 46
v 11 6.15 46
v -9 6.15 46
f 273 274 275 276
f 277 280 279 278
f 273 277 278 274
f 276 275 279 280
f 273 276 280 277
f 274 278 279 275
g east_ramp_outer_rail
usemtl keep_trim
v 10.55 0.4999999999999999 42
v 11 0.4999999999999999 42
v 11 1.15 42
v 10.55 1.15 42
v 10.55 3.5000000000000004 29
v 11 3.5000000000000004 29
v 11 4.15 29
v 10.55 4.15 29
f 281 282 283 284
f 285 288 287 286
f 281 285 286 282
f 284 283 287 288
f 281 284 288 285
f 282 286 287 283
g north_ramp_outer_rail
usemtl keep_trim
v 9 3.5000000000000004 28.55
v 9 3.5000000000000004 29
v 9 4.15 29
v 9 4.15 28.55
v -9 6.3 28.55
v -9 6.3 29
v -9 6.95 29
v -9 6.95 28.55
f 289 290 291 292
f 293 296 295 294
f 289 293 294 290
f 292 291 295 296
f 289 292 296 293
f 290 294 295 291
g west_balcony_rail
usemtl keep_trim
v -14 6.15 22
v -13.55 6.15 22
v -13.55 7.3 22
v -14 7.3 22
v -14 6.15 42
v -13.55 6.15 42
v -13.55 7.3 42
v -14 7.3 42
f 297 298 299 300
f 301 304 303 302
f 297 301 302 298
f 300 299 303 304
f 297 300 304 301
f 298 302 303 299
g back_balcony_rail
usemtl keep_trim
v -9 6.15 45.55
v 11 6.15 45.55
v 11 7.3 45.55
v -9 7.3 45.55
v -9 6.15 46
v 11 6.15 46
v 11 7.3 46
v -9 7.3 46
f 305 306 307 308
f 309 312 311 310
f 305 309 310 306
f 308 307 311 312
f 305 308 312 309
f 306 310 311 307
g orrery_pedestal
usemtl keep_shadow
v -3 0 31
v 3 0 31
v 3 1.1 31
v -3 1.1 31
v -3 0 37
v 3 0 37
v 3 1.1 37
v -3 1.1 37
f 313 314 315 316
f 317 320 319 318
f 313 317 318 314
f 316 315 319 320
f 313 316 320 317
f 314 318 319 315
g orrery_core
usemtl keep_glow
v -1.2 1.1 32.8
v 1.2 1.1 32.8
v 1.2 8.8 32.8
v -1.2 8.8 32.8
v -1.2 1.1 35.2
v 1.2 1.1 35.2
v 1.2 8.8 35.2
v -1.2 8.8 35.2
f 321 322 323 324
f 325 328 327 326
f 321 325 326 322
f 324 323 327 328
f 321 324 328 325
f 322 326 327 323
g column_nw
usemtl keep_trim
v -7 0 25
v -6.2 0 25
v -6.2 9 25
v -7 9 25
v -7 0 25.8
v -6.2 0 25.8
v -6.2 9 25.8
v -7 9 25.8
f 329 330 331 332
f 333 336 335 334
f 329 333 334 330
f 332 331 335 336
f 329 332 336 333
f 330 334 335 331
g column_ne
usemtl keep_trim
v 6.2 0 25
v 7 0 25
v 7 9 25
v 6.2 9 25
v 6.2 0 25.8
v 7 0 25.8
v 7 9 25.8
v 6.2 9 25.8
f 337 338 339 340
f 341 344 343 342
f 337 341 342 338
f 340 339 343 344
f 337 340 344 341
f 338 342 343 339
g column_sw
usemtl keep_trim
v -7 0 42.2
v -6.2 0 42.2
v -6.2 9 42.2
v -7 9 42.2
v -7 0 43
v -6.2 0 43
v -6.2 9 43
v -7 9 43
f 345 346 347 348
f 349 352 351 350
f 345 349 350 346
f 348 347 351 352
f 345 348 352 349
f 346 350 351 347
g column_se
usemtl keep_trim
v 6.2 0 42.2
v 7 0 42.2
v 7 9 42.2
v 6.2 9 42.2
v 6.2 0 43
v 7 0 43
v 7 9 43
v 6.2 9 43
f 353 354 355 356
f 357 360 359 358
f 353 357 358 354
f 356 355 359 360
f 353 356 360 357
f 354 358 359 355
g lower_route_glow
usemtl keep_glow
v -0.18 0.02 -7
v 0.18 0.02 -7
v 0.18 0.09 -7
v -0.18 0.09 -7
v -0.18 0.02 22
v 0.18 0.02 22
v 0.18 0.09 22
v -0.18 0.09 22
f 361 362 363 364
f 365 368 367 366
f 361 365 366 362
f 364 363 367 368
f 361 364 368 365
f 362 366 367 363
g observatory_route_glow
usemtl keep_glow
v -0.18 0.02 22
v 0.18 0.02 22
v 0.18 0.09 22
v -0.18 0.09 22
v -0.18 0.02 31
v 0.18 0.02 31
v 0.18 0.09 31
v -0.18 0.09 31
f 369 370 371 372
f 373 376 375 374
f 369 373 374 370
f 372 371 375 376
f 369 372 376 373
f 370 374 375 371
g goal_glow
usemtl keep_glow
v -1.2 6.21 5.2
v 1.2 6.21 5.2
v 1.2 6.29 5.2
v -1.2 6.29 5.2
v -1.2 6.21 6.8
v 1.2 6.21 6.8
v 1.2 6.29 6.8
v -1.2 6.29 6.8
f 377 378 379 380
f 381 384 383 382
f 377 381 382 378
f 380 379 383 384
f 377 380 384 381
f 378 382 383 379

