# Blender 4.4.1
# www.blender.org
mtllib bridge_02.mtl
o 柵
v 9.661946 0.182944 4.123240
v 9.661946 0.182944 3.876760
v 9.661946 1.382170 4.123240
v 9.815915 0.182944 4.123240
v 9.815915 1.382170 4.123240
v 9.815915 0.182944 3.876760
v 9.815915 1.382170 3.876760
v 9.661946 1.382170 3.876760
v 9.661946 0.182944 0.123240
v 9.661946 0.182944 -0.123240
v 9.661946 1.382170 0.123240
v 9.815915 0.182944 0.123240
v 9.815915 1.382170 0.123240
v 9.815915 0.182944 -0.123240
v 9.815915 1.382170 -0.123240
v 9.661946 1.382170 -0.123240
v 9.661946 0.182944 -3.876760
v 9.661946 0.182944 -4.123240
v 9.661946 1.382170 -3.876760
v 9.815915 0.182944 -3.876760
v 9.815915 1.382170 -3.876760
v 9.815915 0.182944 -4.123240
v 9.815915 1.382170 -4.123240
v 9.661946 1.382170 -4.123240
v 9.661946 0.182944 -5.876760
v 9.661946 0.182944 -6.123240
v 9.661946 1.382170 -5.876760
v 9.815915 0.182944 -5.876760
v 9.815915 1.382170 -5.876760
v 9.815915 0.182944 -6.123240
v 9.815915 1.382170 -6.123240
v 9.661946 1.382170 -6.123240
v 9.661946 0.182944 2.123240
v 9.661946 0.182944 1.876760
v 9.661946 1.382170 2.123240
v 9.815915 0.182944 2.123240
v 9.815915 1.382170 2.123240
v 9.815915 0.182944 1.876760
v 9.815915 1.382170 1.876760
v 9.661946 1.382170 1.876760
v 9.661946 0.182944 -1.876760
v 9.661946 0.182944 -2.123240
v 9.661946 1.382170 -1.876760
v 9.815915 0.182944 -1.876760
v 9.815915 1.382170 -1.876760
v 9.815915 0.182944 -2.123240
v 9.815915 1.382170 -2.123240
v 9.661946 1.382170 -2.123240
v -9.815914 0.182944 -5.876760
v -9.815914 0.182944 -6.123240
v -9.815914 1.382170 -5.876760
v -9.661945 0.182944 -5.876760
v -9.661945 1.382170 -5.876760
v -9.661945 0.182944 -6.123240
v -9.661945 1.382170 -6.123240
v -9.815914 1.382170 -6.123240
v 9.743151 1.692300 -7.009928
v 9.791924 1.687496 -7.009928
v 9.743151 1.692299 7.009928
v 9.694378 1.687496 -7.009928
v 9.694378 1.687496 7.009928
v 9.647480 1.673269 7.009928
v 9.604259 1.650167 7.009928
v 9.647480 1.673270 -7.009928
v 9.512180 1.537970 7.009928
v 9.838821 1.673269 7.009928
v 9.791924 1.687496 7.009928
v 9.838821 1.673270 -7.009928
v 9.882042 1.650167 7.009928
v 9.882042 1.650167 -7.009928
v 9.974121 1.537970 7.009928
v 9.974121 1.346629 7.009928
v 9.988346 1.393527 7.009928
v 9.974121 1.346629 -7.009928
v 9.951019 1.303407 7.009928
v 9.951019 1.303407 -7.009928
v 9.838821 1.211330 7.009928
v 9.882042 1.234432 7.009928
v 9.919928 1.265523 7.009928
v 9.993151 1.442299 7.009928
v 9.647480 1.211330 7.009928
v 9.694378 1.197103 7.009928
v 9.647480 1.211330 -7.009928
v 9.604259 1.234432 7.009928
v 9.604259 1.234433 -7.009928
v 9.512180 1.346629 7.009928
v 9.535282 1.303407 7.009928
v 9.512180 1.346629 -7.009928
v 9.497955 1.393527 7.009928
v 9.497955 1.393528 -7.009928
v 9.493151 1.442299 7.009928
v 9.566374 1.265523 7.009928
v 9.566374 1.265523 -7.009928
v 9.535282 1.303407 -7.009928
v 9.493151 1.442300 -7.009928
v 9.497955 1.491072 7.009928
v 9.497955 1.491073 -7.009928
v 9.512180 1.537971 -7.009928
v 9.535282 1.581193 -7.009928
v 9.535282 1.581192 7.009928
v 9.566374 1.619077 -7.009928
v 9.604259 1.650167 -7.009928
v 9.566374 1.619076 7.009928
v 9.791924 1.197104 -7.009928
v 9.743151 1.192300 -7.009928
v 9.694378 1.197104 -7.009928
v 9.743151 1.192299 7.009928
v 9.791924 1.197103 7.009928
v 9.838821 1.211330 -7.009928
v 9.882042 1.234433 -7.009928
v 9.988346 1.491073 -7.009928
v 9.974121 1.537971 -7.009928
v 9.988346 1.491072 7.009928
v 9.993151 1.442300 -7.009928
v 9.988346 1.393528 -7.009928
v 9.951019 1.581193 -7.009928
v 9.951019 1.581192 7.009928
v 9.919928 1.619076 7.009928
v 9.919928 1.619077 -7.009928
v 9.919928 1.265523 -7.009928
v -9.743149 1.692300 -7.009928
v -9.694378 1.687496 -7.009928
v -9.743149 1.692299 7.009928
v -9.791924 1.687496 -7.009928
v -9.791924 1.687496 7.009928
v -9.838821 1.673269 7.009928
v -9.882042 1.650167 7.009928
v -9.838821 1.673270 -7.009928
v -9.974119 1.537970 7.009928
v -9.647480 1.673269 7.009928
v -9.694378 1.687496 7.009928
v -9.647480 1.673270 -7.009928
v -9.604258 1.650167 7.009928
v -9.604258 1.650167 -7.009928
v -9.512180 1.537970 7.009928
v -9.512180 1.346629 7.009928
v -9.497953 1.393527 7.009928
v -9.512180 1.346629 -7.009928
v -9.535282 1.303407 7.009928
v -9.535282 1.303407 -7.009928
v -9.647480 1.211330 7.009928
v -9.604258 1.234432 7.009928
v -9.566372 1.265523 7.009928
v -9.493149 1.442299 7.009928
v -9.838821 1.211330 7.009928
v -9.791924 1.197103 7.009928
v -9.838821 1.211330 -7.009928
v -9.882042 1.234432 7.009928
v -9.882042 1.234433 -7.009928
v -9.974119 1.346629 7.009928
v -9.951017 1.303407 7.009928
v -9.974119 1.346629 -7.009928
v -9.988346 1.393527 7.009928
v -9.988346 1.393528 -7.009928
v -9.993149 1.442299 7.009928
v -9.919926 1.265523 7.009928
v -9.919926 1.265523 -7.009928
v -9.951017 1.303407 -7.009928
v -9.993149 1.442300 -7.009928
v -9.988346 1.491072 7.009928
v -9.988346 1.491073 -7.009928
v -9.974119 1.537971 -7.009928
v -9.951017 1.581193 -7.009928
v -9.951017 1.581192 7.009928
v -9.919926 1.619077 -7.009928
v -9.882042 1.650167 -7.009928
v -9.919926 1.619076 7.009928
v -9.694378 1.197104 -7.009928
v -9.743149 1.192300 -7.009928
v -9.791924 1.197104 -7.009928
v -9.743149 1.192299 7.009928
v -9.694378 1.197103 7.009928
v -9.647480 1.211330 -7.009928
v -9.604258 1.234433 -7.009928
v -9.497953 1.491073 -7.009928
v -9.512180 1.537971 -7.009928
v -9.497953 1.491072 7.009928
v -9.493149 1.442300 -7.009928
v -9.497953 1.393528 -7.009928
v -9.535282 1.581193 -7.009928
v -9.535282 1.581192 7.009928
v -9.566372 1.619076 7.009928
v -9.566372 1.619077 -7.009928
v -9.566372 1.265523 -7.009928
v 9.661945 0.182944 6.123240
v 9.661945 0.182944 5.876760
v 9.661945 1.382170 6.123240
v 9.815914 0.182944 6.123240
v 9.815914 1.382170 6.123240
v 9.815914 0.182944 5.876760
v 9.815914 1.382170 5.876760
v 9.661945 1.382170 5.876760
v 9.688931 0.826098 7.000000
v 9.688931 0.926098 7.000000
v 9.688931 0.826098 -7.000000
v 9.688931 0.926098 -7.000000
v 9.788929 0.826098 7.000000
v 9.788929 0.926098 7.000000
v 9.788929 0.826098 -7.000000
v 9.788929 0.926098 -7.000000
v 9.688931 0.498008 7.000000
v 9.688931 0.598008 7.000000
v 9.688931 0.498008 -7.000000
v 9.688931 0.598008 -7.000000
v 9.788929 0.498008 7.000000
v 9.788929 0.598008 7.000000
v 9.788929 0.498008 -7.000000
v 9.788929 0.598008 -7.000000
v -9.815914 0.182944 0.123240
v -9.815914 0.182944 -0.123240
v -9.815914 1.382170 0.123240
v -9.661945 0.182944 0.123240
v -9.661945 1.382170 0.123240
v -9.661945 0.182944 -0.123240
v -9.661945 1.382170 -0.123240
v -9.815914 1.382170 -0.123240
v -9.815914 0.182944 2.123240
v -9.815914 0.182944 1.876760
v -9.815914 1.382170 2.123240
v -9.661945 0.182944 2.123240
v -9.661945 1.382170 2.123240
v -9.661945 0.182944 1.876760
v -9.661945 1.382170 1.876760
v -9.815914 1.382170 1.876760
v -9.815914 0.182944 4.123240
v -9.815914 0.182944 3.876760
v -9.815914 1.382170 4.123240
v -9.661945 0.182944 4.123240
v -9.661945 1.382170 4.123240
v -9.661945 0.182944 3.876760
v -9.661945 1.382170 3.876760
v -9.815914 1.382170 3.876760
v -9.815914 0.182944 6.123240
v -9.815914 0.182944 5.876760
v -9.815914 1.382170 6.123240
v -9.661945 0.182944 6.123240
v -9.661945 1.382170 6.123240
v -9.661945 0.182944 5.876760
v -9.661945 1.382170 5.876760
v -9.815914 1.382170 5.876760
v -9.815914 0.182944 -1.876760
v -9.815914 0.182944 -2.123240
v -9.815914 1.382170 -1.876760
v -9.661945 0.182944 -1.876760
v -9.661945 1.382170 -1.876760
v -9.661945 0.182944 -2.123240
v -9.661945 1.382170 -2.123240
v -9.815914 1.382170 -2.123240
v -9.815914 0.182944 -3.876760
v -9.815914 0.182944 -4.123240
v -9.815914 1.382170 -3.876760
v -9.661945 0.182944 -3.876760
v -9.661945 1.382170 -3.876760
v -9.661945 0.182944 -4.123240
v -9.661945 1.382170 -4.123240
v -9.815914 1.382170 -4.123240
v -9.788929 0.826098 7.000000
v -9.788929 0.926098 7.000000
v -9.788929 0.826098 -7.000000
v -9.788929 0.926098 -7.000000
v -9.688931 0.826098 7.000000
v -9.688931 0.926098 7.000000
v -9.688931 0.826098 -7.000000
v -9.688931 0.926098 -7.000000
v -9.788929 0.498008 7.000000
v -9.788929 0.598008 7.000000
v -9.788929 0.498008 -7.000000
v -9.788929 0.598008 -7.000000
v -9.688931 0.498008 7.000000
v -9.688931 0.598008 7.000000
v -9.688931 0.498008 -7.000000
v -9.688931 0.598008 -7.000000
vn -0.0000 -1.0000 -0.0000
vn -1.0000 -0.0000 -0.0000
vn -0.0000 -0.0000 1.0000
vn -0.0000 -0.0000 -1.0000
vn 1.0000 -0.0000 -0.0000
vn -0.0000 1.0000 -0.0000
vn 0.1951 0.9808 -0.0000
vn -0.1951 0.9808 -0.0000
vn -0.3827 0.9239 -0.0000
vn -0.0000 0.0001 1.0000
vn -0.5556 0.8315 -0.0000
vn 0.3827 0.9239 -0.0000
vn 0.5556 0.8315 -0.0000
vn 0.9808 -0.1951 -0.0000
vn 0.9239 -0.3827 -0.0000
vn 0.8315 -0.5556 -0.0000
vn -0.1951 -0.9808 -0.0000
vn -0.3827 -0.9239 -0.0000
vn -0.5556 -0.8315 -0.0000
vn -0.8315 -0.5556 -0.0000
vn -0.9239 -0.3827 -0.0000
vn -0.9808 -0.1951 -0.0000
vn -0.7071 -0.7071 -0.0000
vn -0.0000 -0.0001 -1.0000
vn -0.9808 0.1951 -0.0000
vn -0.9239 0.3827 -0.0000
vn -0.8315 0.5556 -0.0000
vn -0.7071 0.7071 -0.0000
vn -0.0000 0.0001 -1.0000
vn -0.0000 -0.0001 1.0000
vn 0.1951 -0.9808 -0.0000
vn 0.3827 -0.9239 -0.0000
vn 0.9239 0.3827 -0.0000
vn 0.9808 0.1951 -0.0000
vn 0.8315 0.5556 -0.0000
vn 0.7071 0.7071 -0.0000
vn 0.7071 -0.7071 -0.0000
vn 0.5556 -0.8315 -0.0000
vn -0.0000 -0.0002 -1.0000
vn -0.0000 0.0003 -1.0000
vt 0.375000 0.500000
vt 0.125000 0.750000
vt 0.125000 0.500000
vt 0.625000 0.000000
vt 0.375000 0.250000
vt 0.375000 0.000000
vt 0.625000 0.750000
vt 0.625000 1.000000
vt 0.375000 1.000000
vt 0.375000 0.750000
vt 0.625000 0.250000
vt 0.625000 0.500000
vt 0.875000 0.500000
vt 0.875000 0.750000
vt 0.703178 0.485388
vt 0.750000 0.490000
vt 0.796822 0.485388
vt 1.000000 1.000000
vt 0.968750 0.500000
vt 1.000000 0.500000
vt 0.031250 1.000000
vt 0.000000 1.000000
vt 0.000000 0.500000
vt 0.031250 0.500000
vt 0.062500 1.000000
vt 0.250000 0.490000
vt 0.203178 0.485388
vt 0.158156 0.471731
vt 0.116663 0.449553
vt 0.028269 0.341844
vt 0.093750 1.000000
vt 0.062500 0.500000
vt 0.341844 0.471731
vt 0.296822 0.485388
vt 0.968750 1.000000
vt 0.937500 1.000000
vt 0.937500 0.500000
vt 0.906250 0.500000
vt 0.383337 0.449553
vt 0.471731 0.341844
vt 0.906250 1.000000
vt 0.471731 0.158156
vt 0.485388 0.203178
vt 0.490000 0.250000
vt 0.718750 1.000000
vt 0.687500 1.000000
vt 0.687500 0.500000
vt 0.656250 0.500000
vt 0.419706 0.080294
vt 0.449553 0.116663
vt 0.656250 1.000000
vt 0.158156 0.028269
vt 0.341844 0.028269
vt 0.383337 0.050447
vt 0.203178 0.014612
vt 0.468750 1.000000
vt 0.437500 1.000000
vt 0.437500 0.500000
vt 0.406250 0.500000
vt 0.116663 0.050447
vt 0.028269 0.158156
vt 0.406250 1.000000
vt 0.050447 0.116663
vt 0.080294 0.080294
vt 0.343750 1.000000
vt 0.312500 1.000000
vt 0.312500 0.500000
vt 0.281250 0.500000
vt 0.010000 0.250000
vt 0.014612 0.203178
vt 0.281250 1.000000
vt 0.343750 0.500000
vt 0.616663 0.050447
vt 0.580294 0.080294
vt 0.550447 0.116663
vt 0.528269 0.158156
vt 0.250000 1.000000
vt 0.250000 0.500000
vt 0.218750 0.500000
vt 0.014612 0.296822
vt 0.218750 1.000000
vt 0.514612 0.203178
vt 0.510000 0.250000
vt 0.514612 0.296822
vt 0.187500 0.500000
vt 0.528269 0.341844
vt 0.187500 1.000000
vt 0.156250 0.500000
vt 0.550447 0.383337
vt 0.156250 1.000000
vt 0.580294 0.419706
vt 0.616663 0.449553
vt 0.125000 1.000000
vt 0.093750 0.500000
vt 0.658156 0.471731
vt 0.080294 0.419706
vt 0.050447 0.383337
vt 0.703178 0.014612
vt 0.658156 0.028269
vt 0.796822 0.014612
vt 0.750000 0.010000
vt 0.500000 1.000000
vt 0.468750 0.500000
vt 0.500000 0.500000
vt 0.250000 0.010000
vt 0.296822 0.014612
vt 0.531250 1.000000
vt 0.562500 1.000000
vt 0.531250 0.500000
vt 0.883337 0.050447
vt 0.841844 0.028269
vt 0.562500 0.500000
vt 0.985388 0.296822
vt 0.883337 0.449553
vt 0.971731 0.341844
vt 0.812500 1.000000
vt 0.781250 0.500000
vt 0.812500 0.500000
vt 0.781250 1.000000
vt 0.750000 0.500000
vt 0.990000 0.250000
vt 0.985388 0.203178
vt 0.971731 0.158156
vt 0.949553 0.116663
vt 0.750000 1.000000
vt 0.718750 0.500000
vt 0.485388 0.296822
vt 0.949553 0.383337
vt 0.843750 1.000000
vt 0.843750 0.500000
vt 0.449553 0.383337
vt 0.419706 0.419706
vt 0.875000 1.000000
vt 0.919706 0.419706
vt 0.919706 0.080294
vt 0.593750 0.500000
vt 0.593750 1.000000
vt 0.841844 0.471731
s 0
f 6/1/1 1/2/1 2/3/1
f 3/4/2 2/5/2 1/6/2
f 5/7/3 3/8/3 1/9/3
f 6/1/1 4/10/1 1/2/1
f 5/7/3 1/9/3 4/10/3
f 8/11/4 6/1/4 2/5/4
f 8/11/4 7/12/4 6/1/4
f 7/12/5 4/10/5 6/1/5
f 8/13/6 3/14/6 5/7/6
f 3/4/2 8/11/2 2/5/2
f 8/13/6 5/7/6 7/12/6
f 7/12/5 5/7/5 4/10/5
f 14/1/1 9/2/1 10/3/1
f 11/4/2 10/5/2 9/6/2
f 13/7/3 11/8/3 9/9/3
f 14/1/1 12/10/1 9/2/1
f 13/7/3 9/9/3 12/10/3
f 16/11/4 14/1/4 10/5/4
f 16/11/4 15/12/4 14/1/4
f 15/12/5 12/10/5 14/1/5
f 16/13/6 11/14/6 13/7/6
f 11/4/2 16/11/2 10/5/2
f 16/13/6 13/7/6 15/12/6
f 15/12/5 13/7/5 12/10/5
f 22/1/1 17/2/1 18/3/1
f 19/4/2 18/5/2 17/6/2
f 21/7/3 19/8/3 17/9/3
f 22/1/1 20/10/1 17/2/1
f 21/7/3 17/9/3 20/10/3
f 24/11/4 22/1/4 18/5/4
f 24/11/4 23/12/4 22/1/4
f 23/12/5 20/10/5 22/1/5
f 24/13/6 19/14/6 21/7/6
f 19/4/2 24/11/2 18/5/2
f 24/13/6 21/7/6 23/12/6
f 23/12/5 21/7/5 20/10/5
f 30/1/1 25/2/1 26/3/1
f 27/4/2 26/5/2 25/6/2
f 29/7/3 27/8/3 25/9/3
f 30/1/1 28/10/1 25/2/1
f 29/7/3 25/9/3 28/10/3
f 32/11/4 30/1/4 26/5/4
f 32/11/4 31/12/4 30/1/4
f 31/12/5 28/10/5 30/1/5
f 32/13/6 27/14/6 29/7/6
f 27/4/2 32/11/2 26/5/2
f 32/13/6 29/7/6 31/12/6
f 31/12/5 29/7/5 28/10/5
f 38/1/1 33/2/1 34/3/1
f 35/4/2 34/5/2 33/6/2
f 37/7/3 35/8/3 33/9/3
f 38/1/1 36/10/1 33/2/1
f 37/7/3 33/9/3 36/10/3
f 40/11/4 38/1/4 34/5/4
f 40/11/4 39/12/4 38/1/4
f 39/12/5 36/10/5 38/1/5
f 40/13/6 35/14/6 37/7/6
f 35/4/2 40/11/2 34/5/2
f 40/13/6 37/7/6 39/12/6
f 39/12/5 37/7/5 36/10/5
f 46/1/1 41/2/1 42/3/1
f 43/4/2 42/5/2 41/6/2
f 45/7/3 43/8/3 41/9/3
f 46/1/1 44/10/1 41/2/1
f 45/7/3 41/9/3 44/10/3
f 48/11/4 46/1/4 42/5/4
f 48/11/4 47/12/4 46/1/4
f 47/12/5 44/10/5 46/1/5
f 48/13/6 43/14/6 45/7/6
f 43/4/2 48/11/2 42/5/2
f 48/13/6 45/7/6 47/12/6
f 47/12/5 45/7/5 44/10/5
f 54/1/1 49/2/1 50/3/1
f 51/4/2 50/5/2 49/6/2
f 53/7/3 51/8/3 49/9/3
f 54/1/1 52/10/1 49/2/1
f 53/7/3 49/9/3 52/10/3
f 56/11/4 54/1/4 50/5/4
f 56/11/4 55/12/4 54/1/4
f 55/12/5 52/10/5 54/1/5
f 56/13/6 51/14/6 53/7/6
f 51/4/2 56/11/2 50/5/2
f 56/13/6 53/7/6 55/12/6
f 55/12/5 53/7/5 52/10/5
f 60/15/4 57/16/4 58/17/4
s 1
f 59/18/6 58/19/7 57/20/6
f 61/21/8 59/22/6 57/23/6
f 61/21/8 57/23/6 60/24/8
f 62/25/9 61/21/8 60/24/8
s 0
f 59/26/10 61/27/10 62/28/10
f 62/28/3 63/29/3 65/30/3
s 1
f 63/31/11 62/25/9 64/32/9
f 62/25/9 60/24/8 64/32/9
s 0
f 66/33/3 59/26/3 62/28/3
f 66/33/3 62/28/3 65/30/3
f 66/33/10 67/34/10 59/26/10
s 1
f 67/35/7 66/36/12 68/37/12
f 66/36/12 70/38/13 68/37/12
s 0
f 69/39/3 66/33/3 71/40/3
s 1
f 66/36/12 69/41/13 70/38/13
s 0
f 72/42/3 71/40/3 66/33/3
f 66/33/3 65/30/3 72/42/3
f 72/42/3 73/43/3 80/44/3
s 1
f 73/45/14 72/46/15 74/47/15
f 72/46/15 76/48/16 74/47/15
s 0
f 79/49/3 75/50/3 72/42/3
s 1
f 72/46/15 75/51/16 76/48/16
s 0
f 81/52/3 77/53/3 72/42/3
f 77/53/3 78/54/3 72/42/3
f 78/54/3 79/49/3 72/42/3
f 72/42/3 80/44/3 71/40/3
f 65/30/3 81/52/3 72/42/3
f 81/52/3 82/55/3 77/53/3
s 1
f 82/56/17 81/57/18 83/58/18
f 81/57/18 85/59/19 83/58/18
s 0
f 84/60/3 81/52/3 86/61/3
s 1
f 81/57/18 84/62/19 85/59/19
s 0
f 65/30/3 86/61/3 81/52/3
f 86/61/3 87/63/3 92/64/3
s 1
f 87/65/20 86/66/21 88/67/21
f 86/66/21 90/68/22 88/67/21
s 0
f 91/69/3 89/70/3 86/61/3
s 1
f 86/66/21 89/71/22 90/68/22
s 0
f 65/30/3 91/69/3 86/61/3
f 92/64/3 84/60/3 86/61/3
s 1
f 84/62/19 92/9/23 93/1/23
f 92/9/23 94/72/20 93/1/23
f 92/9/23 87/65/20 94/72/20
s 0
f 85/73/24 93/74/24 94/75/24
s 1
f 87/65/20 88/67/21 94/72/20
s 0
f 94/75/4 88/76/4 85/73/4
s 1
f 84/62/19 93/1/23 85/59/19
f 89/71/22 91/77/2 95/78/2
f 91/77/2 97/79/25 95/78/2
s 0
f 65/30/3 96/80/3 91/69/3
s 1
f 91/77/2 96/81/25 97/79/25
s 0
f 90/82/4 95/83/4 97/84/4
s 1
f 96/81/25 98/85/26 97/79/25
s 0
f 97/84/4 98/86/4 90/82/4
s 1
f 96/81/25 65/87/26 98/85/26
f 65/87/26 99/88/27 98/85/26
s 0
f 98/86/4 99/89/4 90/82/4
s 1
f 65/87/26 100/90/27 99/88/27
f 100/90/27 101/3/28 99/88/27
s 0
f 99/89/29 101/91/29 102/92/29
f 99/89/4 102/92/4 90/82/4
s 1
f 103/93/28 102/94/11 101/3/28
f 103/93/28 63/31/11 102/94/11
f 63/31/11 64/32/9 102/94/11
s 0
f 102/92/4 64/95/4 60/15/4
f 102/92/4 60/15/4 90/82/4
f 103/96/3 100/97/3 65/30/3
s 1
f 100/90/27 103/93/28 101/3/28
s 0
f 63/29/3 103/96/3 65/30/3
s 1
f 89/71/22 95/78/2 90/68/22
s 0
f 88/76/4 90/82/4 85/73/4
f 85/73/4 90/82/4 60/15/4
f 106/98/4 83/99/4 85/73/4
f 104/100/4 85/73/4 60/15/4
f 104/100/29 105/101/29 85/73/29
f 105/101/4 106/98/4 85/73/4
s 1
f 107/102/1 106/103/17 105/104/1
f 107/102/1 82/56/17 106/103/17
f 82/56/17 83/58/18 106/103/17
s 0
f 107/105/30 108/106/30 77/53/30
s 1
f 108/107/31 107/102/1 105/104/1
s 0
f 82/55/3 107/105/3 77/53/3
s 1
f 77/108/32 108/107/31 104/109/31
f 108/107/31 105/104/1 104/109/31
s 0
f 110/110/4 109/111/4 104/100/4
s 1
f 77/108/32 104/109/31 109/112/32
s 0
f 110/110/4 104/100/4 111/113/4
f 70/114/4 111/113/4 104/100/4
f 60/15/4 70/114/4 104/100/4
f 112/115/4 111/113/4 70/114/4
s 1
f 71/116/33 111/117/34 112/118/33
f 71/116/33 113/119/34 111/117/34
f 113/119/34 114/120/5 111/117/34
s 0
f 111/113/4 114/121/4 115/122/4
f 115/122/4 74/123/4 111/113/4
f 74/123/4 76/124/4 111/113/4
f 76/124/4 110/110/4 111/113/4
s 1
f 80/125/5 115/126/14 114/120/5
f 80/125/5 73/45/14 115/126/14
f 73/45/14 74/47/15 115/126/14
f 113/119/34 80/125/5 114/120/5
s 0
f 80/44/3 113/127/3 71/40/3
f 116/128/4 112/115/4 70/114/4
s 1
f 117/129/35 112/118/33 116/130/35
f 117/129/35 71/116/33 112/118/33
s 0
f 71/40/3 117/131/3 118/132/3
s 1
f 118/133/36 117/129/35 116/130/35
s 0
f 118/132/3 69/39/3 71/40/3
s 1
f 69/41/13 118/133/36 119/13/36
f 118/133/36 116/130/35 119/13/36
s 0
f 70/114/29 119/134/29 116/128/29
s 1
f 69/41/13 119/13/36 70/38/13
s 0
f 76/124/24 120/135/24 110/110/24
s 1
f 79/8/37 110/136/38 120/12/37
f 79/8/37 78/137/38 110/136/38
f 78/137/38 109/112/32 110/136/38
f 75/51/16 120/12/37 76/48/16
f 75/51/16 79/8/37 120/12/37
f 78/137/38 77/108/32 109/112/32
s 0
f 68/138/4 70/114/4 60/15/4
f 58/17/39 68/138/39 60/15/39
s 1
f 67/35/7 68/37/12 58/19/7
f 59/18/6 67/35/7 58/19/7
s 0
f 124/15/40 121/16/40 122/17/40
s 1
f 123/18/6 122/19/7 121/20/6
f 125/21/8 123/22/6 121/23/6
f 125/21/8 121/23/6 124/24/8
f 126/25/9 125/21/8 124/24/8
s 0
f 123/26/30 125/27/30 126/28/30
f 126/28/3 127/29/3 129/30/3
s 1
f 127/31/11 126/25/9 128/32/9
f 126/25/9 124/24/8 128/32/9
s 0
f 130/33/3 123/26/3 126/28/3
f 130/33/3 126/28/3 129/30/3
f 130/33/3 131/34/3 123/26/3
s 1
f 131/35/7 130/36/12 132/37/12
f 130/36/12 134/38/13 132/37/12
s 0
f 133/39/3 130/33/3 135/40/3
s 1
f 130/36/12 133/41/13 134/38/13
s 0
f 136/42/3 135/40/3 130/33/3
f 130/33/3 129/30/3 136/42/3
f 136/42/3 137/43/3 144/44/3
s 1
f 137/45/14 136/46/15 138/47/15
f 136/46/15 140/48/16 138/47/15
s 0
f 143/49/3 139/50/3 136/42/3
s 1
f 136/46/15 139/51/16 140/48/16
s 0
f 145/52/3 141/53/3 136/42/3
f 141/53/3 142/54/3 136/42/3
f 142/54/3 143/49/3 136/42/3
f 136/42/3 144/44/3 135/40/3
f 129/30/3 145/52/3 136/42/3
f 145/52/3 146/55/3 141/53/3
s 1
f 146/56/17 145/57/18 147/58/18
f 145/57/18 149/59/19 147/58/18
s 0
f 148/60/3 145/52/3 150/61/3
s 1
f 145/57/18 148/62/19 149/59/19
s 0
f 129/30/3 150/61/3 145/52/3
f 150/61/3 151/63/3 156/64/3
s 1
f 151/65/20 150/66/21 152/67/21
f 150/66/21 154/68/22 152/67/21
s 0
f 155/69/3 153/70/3 150/61/3
s 1
f 150/66/21 153/71/22 154/68/22
s 0
f 129/30/3 155/69/3 150/61/3
f 156/64/3 148/60/3 150/61/3
s 1
f 148/62/19 156/9/23 157/1/23
f 156/9/23 158/72/20 157/1/23
f 156/9/23 151/65/20 158/72/20
s 0
f 149/73/24 157/74/24 158/75/24
s 1
f 151/65/20 152/67/21 158/72/20
s 0
f 158/75/4 152/76/4 149/73/4
s 1
f 148/62/19 157/1/23 149/59/19
f 153/71/22 155/77/2 159/78/2
f 155/77/2 161/79/25 159/78/2
s 0
f 129/30/3 160/80/3 155/69/3
s 1
f 155/77/2 160/81/25 161/79/25
s 0
f 154/82/4 159/83/4 161/84/4
s 1
f 160/81/25 162/85/26 161/79/25
s 0
f 161/84/4 162/86/4 154/82/4
s 1
f 160/81/25 129/87/26 162/85/26
f 129/87/26 163/88/27 162/85/26
s 0
f 162/86/4 163/89/4 154/82/4
s 1
f 129/87/26 164/90/27 163/88/27
f 164/90/27 165/3/28 163/88/27
s 0
f 163/89/29 165/91/29 166/92/29
f 163/89/4 166/92/4 154/82/4
s 1
f 167/93/28 166/94/11 165/3/28
f 167/93/28 127/31/11 166/94/11
f 127/31/11 128/32/9 166/94/11
s 0
f 166/92/4 128/95/4 124/15/4
f 166/92/4 124/15/4 154/82/4
f 167/96/3 164/97/3 129/30/3
s 1
f 164/90/27 167/93/28 165/3/28
s 0
f 127/29/3 167/96/3 129/30/3
s 1
f 153/71/22 159/78/2 154/68/22
s 0
f 152/76/4 154/82/4 149/73/4
f 149/73/4 154/82/4 124/15/4
f 170/98/4 147/99/4 149/73/4
f 168/100/4 149/73/4 124/15/4
f 168/100/29 169/101/29 149/73/29
f 169/101/4 170/98/4 149/73/4
s 1
f 171/102/1 170/103/17 169/104/1
f 171/102/1 146/56/17 170/103/17
f 146/56/17 147/58/18 170/103/17
s 0
f 171/105/3 172/106/3 141/53/3
s 1
f 172/107/31 171/102/1 169/104/1
s 0
f 146/55/3 171/105/3 141/53/3
s 1
f 141/108/32 172/107/31 168/109/31
f 172/107/31 169/104/1 168/109/31
s 0
f 174/110/4 173/111/4 168/100/4
s 1
f 141/108/32 168/109/31 173/112/32
s 0
f 174/110/4 168/100/4 175/113/4
f 134/114/4 175/113/4 168/100/4
f 124/15/4 134/114/4 168/100/4
f 176/115/4 175/113/4 134/114/4
s 1
f 135/116/33 175/117/34 176/118/33
f 135/116/33 177/119/34 175/117/34
f 177/119/34 178/120/5 175/117/34
s 0
f 175/113/4 178/121/4 179/122/4
f 179/122/4 138/123/4 175/113/4
f 138/123/4 140/124/4 175/113/4
f 140/124/4 174/110/4 175/113/4
s 1
f 144/125/5 179/126/14 178/120/5
f 144/125/5 137/45/14 179/126/14
f 137/45/14 138/47/15 179/126/14
f 177/119/34 144/125/5 178/120/5
s 0
f 144/44/3 177/127/3 135/40/3
f 180/128/4 176/115/4 134/114/4
s 1
f 181/129/35 176/118/33 180/130/35
f 181/129/35 135/116/33 176/118/33
s 0
f 135/40/3 181/131/3 182/132/3
s 1
f 182/133/36 181/129/35 180/130/35
s 0
f 182/132/3 133/39/3 135/40/3
s 1
f 133/41/13 182/133/36 183/13/36
f 182/133/36 180/130/35 183/13/36
s 0
f 134/114/29 183/134/29 180/128/29
s 1
f 133/41/13 183/13/36 134/38/13
s 0
f 140/124/24 184/135/24 174/110/24
s 1
f 143/8/37 174/136/38 184/12/37
f 143/8/37 142/137/38 174/136/38
f 142/137/38 173/112/32 174/136/38
f 139/51/16 184/12/37 140/48/16
f 139/51/16 143/8/37 184/12/37
f 142/137/38 141/108/32 173/112/32
s 0
f 132/138/4 134/114/4 124/15/4
f 122/17/39 132/138/39 124/15/39
s 1
f 131/35/7 132/37/12 122/19/7
f 123/18/6 131/35/7 122/19/7
s 0
f 190/1/1 185/2/1 186/3/1
f 187/4/2 186/5/2 185/6/2
f 189/7/3 187/8/3 185/9/3
f 190/1/1 188/10/1 185/2/1
f 189/7/3 185/9/3 188/10/3
f 192/11/4 190/1/4 186/5/4
f 192/11/4 191/12/4 190/1/4
f 191/12/5 188/10/5 190/1/5
f 192/13/6 187/14/6 189/7/6
f 187/4/2 192/11/2 186/5/2
f 192/13/6 189/7/6 191/12/6
f 191/12/5 189/7/5 188/10/5
f 194/4/2 195/5/2 193/6/2
f 196/11/4 199/1/4 195/5/4
f 200/12/5 197/10/5 199/1/5
f 198/7/3 193/9/3 197/10/3
f 199/1/1 193/2/1 195/3/1
f 196/13/6 198/7/6 200/12/6
f 202/4/2 203/5/2 201/6/2
f 204/11/4 207/1/4 203/5/4
f 208/12/5 205/10/5 207/1/5
f 206/7/3 201/9/3 205/10/3
f 207/1/1 201/2/1 203/3/1
f 204/13/6 206/7/6 208/12/6
f 214/1/1 209/2/1 210/3/1
f 211/4/2 210/5/2 209/6/2
f 213/7/3 211/8/3 209/9/3
f 214/1/1 212/10/1 209/2/1
f 213/7/3 209/9/3 212/10/3
f 216/11/4 214/1/4 210/5/4
f 216/11/4 215/12/4 214/1/4
f 215/12/5 212/10/5 214/1/5
f 216/13/6 211/14/6 213/7/6
f 211/4/2 216/11/2 210/5/2
f 216/13/6 213/7/6 215/12/6
f 215/12/5 213/7/5 212/10/5
f 222/1/1 217/2/1 218/3/1
f 219/4/2 218/5/2 217/6/2
f 221/7/3 219/8/3 217/9/3
f 222/1/1 220/10/1 217/2/1
f 221/7/3 217/9/3 220/10/3
f 224/11/4 222/1/4 218/5/4
f 224/11/4 223/12/4 222/1/4
f 223/12/5 220/10/5 222/1/5
f 224/13/6 219/14/6 221/7/6
f 219/4/2 224/11/2 218/5/2
f 224/13/6 221/7/6 223/12/6
f 223/12/5 221/7/5 220/10/5
f 230/1/1 225/2/1 226/3/1
f 227/4/2 226/5/2 225/6/2
f 229/7/3 227/8/3 225/9/3
f 230/1/1 228/10/1 225/2/1
f 229/7/3 225/9/3 228/10/3
f 232/11/4 230/1/4 226/5/4
f 232/11/4 231/12/4 230/1/4
f 231/12/5 228/10/5 230/1/5
f 232/13/6 227/14/6 229/7/6
f 227/4/2 232/11/2 226/5/2
f 232/13/6 229/7/6 231/12/6
f 231/12/5 229/7/5 228/10/5
f 238/1/1 233/2/1 234/3/1
f 235/4/2 234/5/2 233/6/2
f 237/7/3 235/8/3 233/9/3
f 238/1/1 236/10/1 233/2/1
f 237/7/3 233/9/3 236/10/3
f 240/11/4 238/1/4 234/5/4
f 240/11/4 239/12/4 238/1/4
f 239/12/5 236/10/5 238/1/5
f 240/13/6 235/14/6 237/7/6
f 235/4/2 240/11/2 234/5/2
f 240/13/6 237/7/6 239/12/6
f 239/12/5 237/7/5 236/10/5
f 246/1/1 241/2/1 242/3/1
f 243/4/2 242/5/2 241/6/2
f 245/7/3 243/8/3 241/9/3
f 246/1/1 244/10/1 241/2/1
f 245/7/3 241/9/3 244/10/3
f 248/11/4 246/1/4 242/5/4
f 248/11/4 247/12/4 246/1/4
f 247/12/5 244/10/5 246/1/5
f 248/13/6 243/14/6 245/7/6
f 243/4/2 248/11/2 242/5/2
f 248/13/6 245/7/6 247/12/6
f 247/12/5 245/7/5 244/10/5
f 254/1/1 249/2/1 250/3/1
f 251/4/2 250/5/2 249/6/2
f 253/7/3 251/8/3 249/9/3
f 254/1/1 252/10/1 249/2/1
f 253/7/3 249/9/3 252/10/3
f 256/11/4 254/1/4 250/5/4
f 256/11/4 255/12/4 254/1/4
f 255/12/5 252/10/5 254/1/5
f 256/13/6 251/14/6 253/7/6
f 251/4/2 256/11/2 250/5/2
f 256/13/6 253/7/6 255/12/6
f 255/12/5 253/7/5 252/10/5
f 258/4/2 259/5/2 257/6/2
f 260/11/4 263/1/4 259/5/4
f 264/12/5 261/10/5 263/1/5
f 262/7/3 257/9/3 261/10/3
f 263/1/1 257/2/1 259/3/1
f 260/13/6 262/7/6 264/12/6
f 266/4/2 267/5/2 265/6/2
f 268/11/4 271/1/4 267/5/4
f 272/12/5 269/10/5 271/1/5
f 270/7/3 265/9/3 269/10/3
f 271/1/1 265/2/1 267/3/1
f 268/13/6 270/7/6 272/12/6
f 194/4/2 196/11/2 195/5/2
f 196/11/4 200/12/4 199/1/4
f 200/12/5 198/7/5 197/10/5
f 198/7/3 194/8/3 193/9/3
f 199/1/1 197/10/1 193/2/1
f 196/13/6 194/14/6 198/7/6
f 202/4/2 204/11/2 203/5/2
f 204/11/4 208/12/4 207/1/4
f 208/12/5 206/7/5 205/10/5
f 206/7/3 202/8/3 201/9/3
f 207/1/1 205/10/1 201/2/1
f 204/13/6 202/14/6 206/7/6
f 258/4/2 260/11/2 259/5/2
f 260/11/4 264/12/4 263/1/4
f 264/12/5 262/7/5 261/10/5
f 262/7/3 258/8/3 257/9/3
f 263/1/1 261/10/1 257/2/1
f 260/13/6 258/14/6 262/7/6
f 266/4/2 268/11/2 267/5/2
f 268/11/4 272/12/4 271/1/4
f 272/12/5 270/7/5 269/10/5
f 270/7/3 266/8/3 265/9/3
f 271/1/1 269/10/1 265/2/1
f 268/13/6 266/14/6 270/7/6
