mtllib star_garden_gimmick_platform.mtl
o star_garden_gimmick_platform
v -5.800000 0.000000 5.000000
v 5.800000 0.000000 5.000000
v 5.800000 0.000000 -5.000000
v -5.800000 0.000000 -5.000000
v -5.800000 -1.100000 -5.000000
v 5.800000 -1.100000 -5.000000
v 5.800000 -1.100000 5.000000
v -5.800000 -1.100000 5.000000
v -5.800000 0.000000 -5.000000
v 5.800000 0.000000 -5.000000
v 5.800000 -1.100000 -5.000000
v -5.800000 -1.100000 -5.000000
v 5.800000 0.000000 5.000000
v -5.800000 0.000000 5.000000
v -5.800000 -1.100000 5.000000
v 5.800000 -1.100000 5.000000
v -5.800000 0.000000 5.000000
v -5.800000 0.000000 -5.000000
v -5.800000 -1.100000 -5.000000
v -5.800000 -1.100000 5.000000
v 5.800000 0.000000 -5.000000
v 5.800000 0.000000 5.000000
v 5.800000 -1.100000 5.000000
v 5.800000 -1.100000 -5.000000
v -5.150000 0.260000 4.350000
v 5.150000 0.260000 4.350000
v 5.150000 0.260000 -4.350000
v -5.150000 0.260000 -4.350000
v -5.150000 0.000000 -4.350000
v 5.150000 0.000000 -4.350000
v 5.150000 0.000000 4.350000
v -5.150000 0.000000 4.350000
v -5.150000 0.260000 -4.350000
v 5.150000 0.260000 -4.350000
v 5.150000 0.000000 -4.350000
v -5.150000 0.000000 -4.350000
v 5.150000 0.260000 4.350000
v -5.150000 0.260000 4.350000
v -5.150000 0.000000 4.350000
v 5.150000 0.000000 4.350000
v -5.150000 0.260000 4.350000
v -5.150000 0.260000 -4.350000
v -5.150000 0.000000 -4.350000
v -5.150000 0.000000 4.350000
v 5.150000 0.260000 -4.350000
v 5.150000 0.260000 4.350000
v 5.150000 0.000000 4.350000
v 5.150000 0.000000 -4.350000
v -5.220000 0.840000 -3.580000
v -4.380000 0.840000 -3.580000
v -4.380000 0.840000 -4.420000
v -5.220000 0.840000 -4.420000
v -5.220000 0.000000 -4.420000
v -4.380000 0.000000 -4.420000
v -4.380000 0.000000 -3.580000
v -5.220000 0.000000 -3.580000
v -5.220000 0.840000 -4.420000
v -4.380000 0.840000 -4.420000
v -4.380000 0.000000 -4.420000
v -5.220000 0.000000 -4.420000
v -4.380000 0.840000 -3.580000
v -5.220000 0.840000 -3.580000
v -5.220000 0.000000 -3.580000
v -4.380000 0.000000 -3.580000
v -5.220000 0.840000 -3.580000
v -5.220000 0.840000 -4.420000
v -5.220000 0.000000 -4.420000
v -5.220000 0.000000 -3.580000
v -4.380000 0.840000 -4.420000
v -4.380000 0.840000 -3.580000
v -4.380000 0.000000 -3.580000
v -4.380000 0.000000 -4.420000
v 4.380000 0.840000 -3.580000
v 5.220000 0.840000 -3.580000
v 5.220000 0.840000 -4.420000
v 4.380000 0.840000 -4.420000
v 4.380000 0.000000 -4.420000
v 5.220000 0.000000 -4.420000
v 5.220000 0.000000 -3.580000
v 4.380000 0.000000 -3.580000
v 4.380000 0.840000 -4.420000
v 5.220000 0.840000 -4.420000
v 5.220000 0.000000 -4.420000
v 4.380000 0.000000 -4.420000
v 5.220000 0.840000 -3.580000
v 4.380000 0.840000 -3.580000
v 4.380000 0.000000 -3.580000
v 5.220000 0.000000 -3.580000
v 4.380000 0.840000 -3.580000
v 4.380000 0.840000 -4.420000
v 4.380000 0.000000 -4.420000
v 4.380000 0.000000 -3.580000
v 5.220000 0.840000 -4.420000
v 5.220000 0.840000 -3.580000
v 5.220000 0.000000 -3.580000
v 5.220000 0.000000 -4.420000
v -5.220000 0.840000 4.420000
v -4.380000 0.840000 4.420000
v -4.380000 0.840000 3.580000
v -5.220000 0.840000 3.580000
v -5.220000 0.000000 3.580000
v -4.380000 0.000000 3.580000
v -4.380000 0.000000 4.420000
v -5.220000 0.000000 4.420000
v -5.220000 0.840000 3.580000
v -4.380000 0.840000 3.580000
v -4.380000 0.000000 3.580000
v -5.220000 0.000000 3.580000
v -4.380000 0.840000 4.420000
v -5.220000 0.840000 4.420000
v -5.220000 0.000000 4.420000
v -4.380000 0.000000 4.420000
v -5.220000 0.840000 4.420000
v -5.220000 0.840000 3.580000
v -5.220000 0.000000 3.580000
v -5.220000 0.000000 4.420000
v -4.380000 0.840000 3.580000
v -4.380000 0.840000 4.420000
v -4.380000 0.000000 4.420000
v -4.380000 0.000000 3.580000
v 4.380000 0.840000 4.420000
v 5.220000 0.840000 4.420000
v 5.220000 0.840000 3.580000
v 4.380000 0.840000 3.580000
v 4.380000 0.000000 3.580000
v 5.220000 0.000000 3.580000
v 5.220000 0.000000 4.420000
v 4.380000 0.000000 4.420000
v 4.380000 0.840000 3.580000
v 5.220000 0.840000 3.580000
v 5.220000 0.000000 3.580000
v 4.380000 0.000000 3.580000
v 5.220000 0.840000 4.420000
v 4.380000 0.840000 4.420000
v 4.380000 0.000000 4.420000
v 5.220000 0.000000 4.420000
v 4.380000 0.840000 4.420000
v 4.380000 0.840000 3.580000
v 4.380000 0.000000 3.580000
v 4.380000 0.000000 4.420000
v 5.220000 0.840000 3.580000
v 5.220000 0.840000 4.420000
v 5.220000 0.000000 4.420000
v 5.220000 0.000000 3.580000
vt -0.464000 0.400000
vt 0.464000 0.400000
vt 0.464000 -0.400000
vt -0.464000 -0.400000
vt -0.464000 -0.400000
vt 0.464000 -0.400000
vt 0.464000 0.400000
vt -0.464000 0.400000
vt -0.464000 0.000000
vt 0.464000 0.000000
vt 0.464000 -0.088000
vt -0.464000 -0.088000
vt 0.464000 0.000000
vt -0.464000 0.000000
vt -0.464000 -0.088000
vt 0.464000 -0.088000
vt 0.400000 0.000000
vt -0.400000 0.000000
vt -0.400000 -0.088000
vt 0.400000 -0.088000
vt -0.400000 0.000000
vt 0.400000 0.000000
vt 0.400000 -0.088000
vt -0.400000 -0.088000
vt -0.412000 0.348000
vt 0.412000 0.348000
vt 0.412000 -0.348000
vt -0.412000 -0.348000
vt -0.412000 -0.348000
vt 0.412000 -0.348000
vt 0.412000 0.348000
vt -0.412000 0.348000
vt -0.412000 0.020800
vt 0.412000 0.020800
vt 0.412000 0.000000
vt -0.412000 0.000000
vt 0.412000 0.020800
vt -0.412000 0.020800
vt -0.412000 0.000000
vt 0.412000 0.000000
vt 0.348000 0.020800
vt -0.348000 0.020800
vt -0.348000 0.000000
vt 0.348000 0.000000
vt -0.348000 0.020800
vt 0.348000 0.020800
vt 0.348000 0.000000
vt -0.348000 0.000000
vt -0.417600 -0.286400
vt -0.350400 -0.286400
vt -0.350400 -0.353600
vt -0.417600 -0.353600
vt -0.417600 -0.353600
vt -0.350400 -0.353600
vt -0.350400 -0.286400
vt -0.417600 -0.286400
vt -0.417600 0.067200
vt -0.350400 0.067200
vt -0.350400 0.000000
vt -0.417600 0.000000
vt -0.350400 0.067200
vt -0.417600 0.067200
vt -0.417600 0.000000
vt -0.350400 0.000000
vt -0.286400 0.067200
vt -0.353600 0.067200
vt -0.353600 0.000000
vt -0.286400 0.000000
vt -0.353600 0.067200
vt -0.286400 0.067200
vt -0.286400 0.000000
vt -0.353600 0.000000
vt 0.350400 -0.286400
vt 0.417600 -0.286400
vt 0.417600 -0.353600
vt 0.350400 -0.353600
vt 0.350400 -0.353600
vt 0.417600 -0.353600
vt 0.417600 -0.286400
vt 0.350400 -0.286400
vt 0.350400 0.067200
vt 0.417600 0.067200
vt 0.417600 0.000000
vt 0.350400 0.000000
vt 0.417600 0.067200
vt 0.350400 0.067200
vt 0.350400 0.000000
vt 0.417600 0.000000
vt -0.286400 0.067200
vt -0.353600 0.067200
vt -0.353600 0.000000
vt -0.286400 0.000000
vt -0.353600 0.067200
vt -0.286400 0.067200
vt -0.286400 0.000000
vt -0.353600 0.000000
vt -0.417600 0.353600
vt -0.350400 0.353600
vt -0.350400 0.286400
vt -0.417600 0.286400
vt -0.417600 0.286400
vt -0.350400 0.286400
vt -0.350400 0.353600
vt -0.417600 0.353600
vt -0.417600 0.067200
vt -0.350400 0.067200
vt -0.350400 0.000000
vt -0.417600 0.000000
vt -0.350400 0.067200
vt -0.417600 0.067200
vt -0.417600 0.000000
vt -0.350400 0.000000
vt 0.353600 0.067200
vt 0.286400 0.067200
vt 0.286400 0.000000
vt 0.353600 0.000000
vt 0.286400 0.067200
vt 0.353600 0.067200
vt 0.353600 0.000000
vt 0.286400 0.000000
vt 0.350400 0.353600
vt 0.417600 0.353600
vt 0.417600 0.286400
vt 0.350400 0.286400
vt 0.350400 0.286400
vt 0.417600 0.286400
vt 0.417600 0.353600
vt 0.350400 0.353600
vt 0.350400 0.067200
vt 0.417600 0.067200
vt 0.417600 0.000000
vt 0.350400 0.000000
vt 0.417600 0.067200
vt 0.350400 0.067200
vt 0.350400 0.000000
vt 0.417600 0.000000
vt 0.353600 0.067200
vt 0.286400 0.067200
vt 0.286400 0.000000
vt 0.353600 0.000000
vt 0.286400 0.067200
vt 0.353600 0.067200
vt 0.353600 0.000000
vt 0.286400 0.000000
vn -0.000000 1.000000 0.000000
vn 0.000000 -1.000000 0.000000
vn 0.000000 0.000000 -1.000000
vn 0.000000 0.000000 1.000000
vn -1.000000 0.000000 -0.000000
vn 1.000000 0.000000 -0.000000
vn -0.000000 1.000000 0.000000
vn 0.000000 -1.000000 0.000000
vn 0.000000 0.000000 -1.000000
vn 0.000000 0.000000 1.000000
vn -1.000000 0.000000 -0.000000
vn 1.000000 0.000000 -0.000000
vn -0.000000 1.000000 0.000000
vn 0.000000 -1.000000 0.000000
vn 0.000000 0.000000 -1.000000
vn 0.000000 0.000000 1.000000
vn -1.000000 0.000000 -0.000000
vn 1.000000 0.000000 -0.000000
vn -0.000000 1.000000 0.000000
vn 0.000000 -1.000000 0.000000
vn 0.000000 0.000000 -1.000000
vn 0.000000 0.000000 1.000000
vn -1.000000 0.000000 -0.000000
vn 1.000000 0.000000 -0.000000
vn -0.000000 1.000000 0.000000
vn 0.000000 -1.000000 0.000000
vn 0.000000 0.000000 -1.000000
vn 0.000000 0.000000 1.000000
vn -1.000000 0.000000 -0.000000
vn 1.000000 0.000000 -0.000000
vn -0.000000 1.000000 0.000000
vn 0.000000 -1.000000 0.000000
vn 0.000000 0.000000 -1.000000
vn 0.000000 0.000000 1.000000
vn -1.000000 0.000000 -0.000000
vn 1.000000 0.000000 -0.000000
usemtl ruin_path
f 1/1/1 2/2/1 3/3/1 4/4/1
usemtl garden_underside
f 5/5/2 6/6/2 7/7/2 8/8/2
usemtl ruin_stone
f 9/9/3 10/10/3 11/11/3 12/12/3
f 13/13/4 14/14/4 15/15/4 16/16/4
f 17/17/5 18/18/5 19/19/5 20/20/5
f 21/21/6 22/22/6 23/23/6 24/24/6
usemtl garden_mechanism
f 25/25/7 26/26/7 27/27/7 28/28/7
usemtl ruin_cap
f 29/29/8 30/30/8 31/31/8 32/32/8
f 33/33/9 34/34/9 35/35/9 36/36/9
f 37/37/10 38/38/10 39/39/10 40/40/10
f 41/41/11 42/42/11 43/43/11 44/44/11
f 45/45/12 46/46/12 47/47/12 48/48/12
usemtl goal_dais
f 49/49/13 50/50/13 51/51/13 52/52/13
usemtl ruin_stone
f 53/53/14 54/54/14 55/55/14 56/56/14
f 57/57/15 58/58/15 59/59/15 60/60/15
f 61/61/16 62/62/16 63/63/16 64/64/16
f 65/65/17 66/66/17 67/67/17 68/68/17
f 69/69/18 70/70/18 71/71/18 72/72/18
usemtl goal_dais
f 73/73/19 74/74/19 75/75/19 76/76/19
usemtl ruin_stone
f 77/77/20 78/78/20 79/79/20 80/80/20
f 81/81/21 82/82/21 83/83/21 84/84/21
f 85/85/22 86/86/22 87/87/22 88/88/22
f 89/89/23 90/90/23 91/91/23 92/92/23
f 93/93/24 94/94/24 95/95/24 96/96/24
usemtl goal_dais
f 97/97/25 98/98/25 99/99/25 100/100/25
usemtl ruin_stone
f 101/101/26 102/102/26 103/103/26 104/104/26
f 105/105/27 106/106/27 107/107/27 108/108/27
f 109/109/28 110/110/28 111/111/28 112/112/28
f 113/113/29 114/114/29 115/115/29 116/116/29
f 117/117/30 118/118/30 119/119/30 120/120/30
usemtl goal_dais
f 121/121/31 122/122/31 123/123/31 124/124/31
usemtl ruin_stone
f 125/125/32 126/126/32 127/127/32 128/128/32
f 129/129/33 130/130/33 131/131/33 132/132/33
f 133/133/34 134/134/34 135/135/34 136/136/34
f 137/137/35 138/138/35 139/139/35 140/140/35
f 141/141/36 142/142/36 143/143/36 144/144/36
