# Blender 4.4.1
# www.blender.org
mtllib enemy_core8.mtl
o enemy_core8
v -0.440480 -0.629875 0.000000
v -0.148810 -0.685731 0.209497
v -0.419220 -0.649412 0.000000
v -0.430307 -0.631823 -0.007307
v -0.441653 -0.612925 -0.014737
v -0.150823 -0.696695 0.196845
v -0.143623 -0.696657 0.202195
v -0.134567 -0.685731 0.209497
v -0.081075 -0.642044 0.251529
v -0.089510 -0.651502 0.244766
v -0.483443 -0.540891 -0.041954
v -0.023228 -0.576908 0.298017
v -0.038119 -0.371669 0.298017
v -0.532954 -0.534820 0.000000
v -0.450619 -0.483411 0.127338
v -0.207193 -0.395640 0.298017
v -0.271730 -0.414594 0.266598
v -0.393967 -0.449742 0.209497
v -0.150823 -0.696695 0.196845
v -0.150823 -0.696695 0.196845
v -0.143623 -0.696657 0.202195
v -0.143623 -0.696657 0.202195
v -0.419220 -0.649412 0.000000
v -0.419220 -0.649412 0.000000
v -0.430307 -0.631823 -0.007307
v -0.430307 -0.631823 -0.007307
v -0.441653 -0.612925 -0.014737
v -0.441653 -0.612925 -0.014737
v -0.081075 -0.642044 0.251529
v -0.089510 -0.651502 0.244766
v -0.089510 -0.651502 0.244766
v -0.134567 -0.685731 0.209497
v -0.134567 -0.685731 0.209497
v -0.023228 -0.576908 0.298017
v -0.023228 -0.576908 0.298017
v -0.038119 -0.371669 0.298017
v -0.483443 -0.540891 -0.041954
v -0.207193 -0.395640 0.298017
v -0.207193 -0.395640 0.298017
v -0.271730 -0.414594 0.266598
v -0.532954 -0.534820 0.000000
v -0.532954 -0.534820 0.000000
v -0.450619 -0.483411 0.127338
v -0.450619 -0.483411 0.127338
v -0.393967 -0.449742 0.209497
v -0.393967 -0.449742 0.209497
v -0.148810 -0.685731 0.209497
v -0.148810 -0.685731 0.209497
v -0.148810 -0.685731 0.209497
v -0.148810 -0.685731 0.209497
v -0.148810 -0.685731 0.209497
v -0.440480 -0.629875 0.000000
v -0.440480 -0.629875 0.000000
v -0.440480 -0.629875 0.000000
v -0.440480 -0.629875 0.000000
v -0.440480 -0.629875 0.000000
vn -0.1341 0.9460 -0.2952
vn -0.4591 -0.6339 0.6224
vn -0.5424 -0.5902 0.5978
vn -0.0000 -0.7176 0.6964
vn -0.3308 -0.3357 0.8820
vn -0.3249 -0.3336 0.8849
vn -0.5748 -0.5592 0.5974
vn -0.0000 -0.5557 0.8314
vn -0.5486 -0.5699 0.6118
vn -0.0000 -0.0000 1.0000
vn -0.3281 -0.3348 0.8833
vn -0.3193 -0.3317 0.8877
vn -0.5424 -0.5902 -0.5978
vn -0.5748 -0.5592 -0.5974
vn -0.5486 -0.5699 -0.6118
vn 0.5957 0.0423 -0.8021
vn -0.3308 -0.3362 0.8818
vn 0.5958 0.0432 -0.8020
vn 0.6031 0.0491 -0.7961
vn 0.5957 0.0425 -0.8021
vt 1.000000 0.121259
vt 0.908693 0.840333
vt 0.790323 0.334663
vt 0.000000 0.000000
vt 0.767725 0.000000
vt 0.826449 0.134491
vt 0.058334 0.000000
vt 0.831788 0.196910
vt 0.852224 0.121111
vt 1.000000 0.941667
vt 0.834870 0.532972
vt 0.878741 0.000000
vt 0.879710 0.637317
vt 0.782348 0.021820
vt 0.817445 0.106604
vt 0.835181 0.131534
vt 0.372368 0.149755
vt 0.312330 0.119896
vt 0.248517 0.087588
s 0
f 13/1/1 41/2/1 45/3/1
s 1
f 47/4/2 19/4/2 21/4/2
f 48/4/3 23/4/3 20/4/3
f 32/4/4 31/4/4 49/4/4
f 30/4/5 35/4/5 17/4/6
f 53/4/7 44/4/7 42/4/7
f 2/4/8 22/4/8 33/4/8
f 51/4/9 15/4/9 1/4/9
f 36/4/10 16/4/10 34/4/10
f 50/4/11 17/4/6 18/4/12
f 25/4/13 24/4/13 54/4/13
f 28/4/14 14/4/14 37/4/14
f 56/4/15 27/4/15 26/4/15
s 0
f 9/5/16 6/6/16 11/7/16
f 40/8/1 38/9/1 13/1/1
f 13/1/1 11/10/1 41/2/1
f 41/2/1 43/11/1 45/3/1
f 45/3/1 40/8/1 13/1/1
s 1
f 48/4/3 52/4/3 23/4/3
f 17/4/6 50/4/11 30/4/5
f 30/4/5 29/4/17 35/4/5
f 35/4/5 39/4/5 17/4/6
f 51/4/9 46/4/9 15/4/9
f 28/4/14 55/4/14 14/4/14
s 0
f 13/12/18 12/13/18 9/5/18
f 9/5/16 10/14/16 8/15/16
f 8/15/16 7/16/16 6/6/16
f 6/6/16 3/17/16 4/18/16
f 4/18/19 5/19/19 11/7/19
f 11/7/18 13/12/18 9/5/18
f 9/5/16 8/15/16 6/6/16
f 6/6/20 4/18/20 11/7/20
