# Blender 4.4.1
# www.blender.org
mtllib map_floor_06.mtl
o 四角6
v 16.828426 -2.159910 14.707108
v 14.707107 -2.159910 16.828430
v 16.828426 0.840088 14.707108
v 13.292894 -2.159910 11.171576
v 11.171574 -2.159910 13.292896
v 13.292894 0.840088 11.171576
v 11.171574 0.840088 13.292896
v 14.707107 0.840088 16.828430
vn 0.7071 -0.0000 0.7071
vn 0.7071 -0.0000 -0.7071
vn -0.0000 1.0000 -0.0000
vn -0.7071 -0.0000 0.7071
vn -0.0000 -1.0000 -0.0000
vn -0.7071 -0.0000 -0.7071
vt 0.625000 0.000000
vt 0.375000 0.250000
vt 0.375000 0.000000
vt 0.625000 0.750000
vt 0.375000 1.000000
vt 0.375000 0.750000
vt 0.875000 0.500000
vt 0.625000 0.500000
vt 0.625000 0.250000
vt 0.375000 0.500000
vt 0.625000 1.000000
vt 0.875000 0.750000
s 0
f 3/1/1 2/2/1 1/3/1
f 6/4/2 1/5/2 4/6/2
f 8/7/3 6/4/3 7/8/3
f 8/9/4 5/10/4 2/2/4
f 3/1/1 8/9/1 2/2/1
f 6/4/2 3/11/2 1/5/2
f 8/7/3 3/12/3 6/4/3
f 8/9/4 7/8/4 5/10/4
f 1/5/5 2/2/5 4/6/5
f 5/10/5 4/6/5 2/2/5
f 6/4/6 5/10/6 7/8/6
f 6/4/6 4/6/6 5/10/6
