# Blender 4.4.1
# www.blender.org
mtllib map_floor_04.mtl
o 円の床
v 0.000000 0.000000 -20.000000
v -0.000000 2.000000 -16.348087
v 3.901806 0.000000 -19.615705
v 3.189354 2.000000 -16.033962
v 7.653669 0.000000 -18.477591
v 6.256142 2.000000 -15.103662
v 11.111404 0.000000 -16.629393
v 9.082510 2.000000 -13.592937
v 14.142136 0.000000 -14.142136
v 11.559843 2.000000 -11.559843
v 16.629393 0.000000 -11.111404
v 13.592937 2.000000 -9.082510
v 18.477591 0.000000 -7.653669
v 15.103662 2.000000 -6.256142
v 19.615705 0.000000 -3.901806
v 16.033962 2.000000 -3.189354
v 20.000000 0.000000 0.000000
v 16.348087 2.000000 -0.000000
v 19.615705 0.000000 3.901806
v 16.033962 2.000000 3.189354
v 18.477591 0.000000 7.653669
v 15.103662 2.000000 6.256142
v 16.629393 0.000000 11.111404
v 13.592937 2.000000 9.082510
v 14.142136 0.000000 14.142136
v 11.559843 2.000000 11.559843
v 11.111404 0.000000 16.629393
v 9.082510 2.000000 13.592937
v 7.653669 0.000000 18.477591
v 6.256142 2.000000 15.103662
v 3.901806 0.000000 19.615705
v 3.189354 2.000000 16.033962
v 0.000000 0.000000 20.000000
v -0.000000 2.000000 16.348087
v -3.901806 0.000000 19.615705
v -3.189354 2.000000 16.033962
v -7.653669 0.000000 18.477591
v -6.256142 2.000000 15.103662
v -11.111404 0.000000 16.629393
v -9.082510 2.000000 13.592937
v -14.142136 0.000000 14.142136
v -11.559843 2.000000 11.559843
v -16.629393 0.000000 11.111404
v -13.592937 2.000000 9.082510
v -18.477591 0.000000 7.653669
v -15.103662 2.000000 6.256142
v -19.615705 0.000000 3.901806
v -16.033962 2.000000 3.189354
v -20.000000 0.000000 0.000000
v -16.348087 2.000000 -0.000000
v -19.615705 0.000000 -3.901806
v -16.033962 2.000000 -3.189354
v -18.477591 0.000000 -7.653669
v -15.103662 2.000000 -6.256142
v -16.629393 0.000000 -11.111404
v -13.592937 2.000000 -9.082510
v -14.142136 0.000000 -14.142136
v -11.559843 2.000000 -11.559843
v -11.111404 0.000000 -16.629393
v -9.082510 2.000000 -13.592937
v -7.653669 0.000000 -18.477591
v -6.256142 2.000000 -15.103662
v -3.901806 0.000000 -19.615705
v -3.189354 2.000000 -16.033962
vn -0.0000 0.8771 -0.4803
vn 0.0937 0.8771 -0.4711
vn 0.1838 0.8771 -0.4438
vn 0.2669 0.8771 -0.3994
vn 0.3397 0.8771 -0.3397
vn 0.3994 0.8771 -0.2669
vn 0.4438 0.8771 -0.1838
vn 0.4711 0.8771 -0.0937
vn 0.4803 0.8771 -0.0000
vn 0.4711 0.8771 0.0937
vn 0.4438 0.8771 0.1838
vn 0.3994 0.8771 0.2669
vn 0.3397 0.8771 0.3397
vn 0.2669 0.8771 0.3994
vn 0.1838 0.8771 0.4438
vn 0.0937 0.8771 0.4711
vn -0.0000 0.8771 0.4803
vn -0.0937 0.8771 0.4711
vn -0.1838 0.8771 0.4438
vn -0.2669 0.8771 0.3994
vn -0.3397 0.8771 0.3397
vn -0.3994 0.8771 0.2669
vn -0.4438 0.8771 0.1838
vn -0.4711 0.8771 0.0937
vn -0.4803 0.8771 -0.0000
vn -0.4711 0.8771 -0.0937
vn -0.4438 0.8771 -0.1838
vn -0.3994 0.8771 -0.2669
vn -0.3397 0.8771 -0.3397
vn -0.2669 0.8771 -0.3994
vn -0.1838 0.8771 -0.4438
vn -0.0000 1.0000 -0.0000
vn -0.0937 0.8771 -0.4711
vt 1.000000 1.000000
vt 0.968750 0.500000
vt 1.000000 0.500000
vt 0.937500 1.000000
vt 0.937500 0.500000
vt 0.906250 1.000000
vt 0.906250 0.500000
vt 0.875000 0.500000
vt 0.875000 1.000000
vt 0.843750 0.500000
vt 0.843750 1.000000
vt 0.812500 0.500000
vt 0.812500 1.000000
vt 0.781250 0.500000
vt 0.750000 1.000000
vt 0.750000 0.500000
vt 0.718750 0.500000
vt 0.687500 1.000000
vt 0.687500 0.500000
vt 0.656250 1.000000
vt 0.656250 0.500000
vt 0.625000 0.500000
vt 0.625000 1.000000
vt 0.593750 0.500000
vt 0.593750 1.000000
vt 0.562500 0.500000
vt 0.562500 1.000000
vt 0.531250 0.500000
vt 0.500000 1.000000
vt 0.500000 0.500000
vt 0.468750 0.500000
vt 0.437500 1.000000
vt 0.437500 0.500000
vt 0.406250 1.000000
vt 0.406250 0.500000
vt 0.375000 0.500000
vt 0.375000 1.000000
vt 0.343750 0.500000
vt 0.343750 1.000000
vt 0.312500 0.500000
vt 0.312500 1.000000
vt 0.281250 0.500000
vt 0.250000 1.000000
vt 0.250000 0.500000
vt 0.218750 0.500000
vt 0.187500 1.000000
vt 0.187500 0.500000
vt 0.156250 1.000000
vt 0.156250 0.500000
vt 0.125000 0.500000
vt 0.125000 1.000000
vt 0.093750 0.500000
vt 0.093750 1.000000
vt 0.062500 0.500000
vt 0.158156 0.028269
vt 0.471731 0.158156
vt 0.341844 0.471731
vt 0.062500 1.000000
vt 0.031250 0.500000
vt 0.000000 1.000000
vt 0.000000 0.500000
vt 0.968750 1.000000
vt 0.781250 1.000000
vt 0.718750 1.000000
vt 0.531250 1.000000
vt 0.468750 1.000000
vt 0.281250 1.000000
vt 0.218750 1.000000
vt 0.296822 0.485388
vt 0.250000 0.490000
vt 0.203178 0.485388
vt 0.158156 0.471731
vt 0.116663 0.449553
vt 0.080294 0.419706
vt 0.050447 0.383337
vt 0.028269 0.341844
vt 0.014612 0.296822
vt 0.010000 0.250000
vt 0.014612 0.203178
vt 0.028269 0.158156
vt 0.050447 0.116663
vt 0.080294 0.080294
vt 0.116663 0.050447
vt 0.203178 0.014612
vt 0.341844 0.028269
vt 0.250000 0.010000
vt 0.296822 0.014612
vt 0.383337 0.050447
vt 0.419706 0.080294
vt 0.449553 0.116663
vt 0.485388 0.203178
vt 0.490000 0.250000
vt 0.485388 0.296822
vt 0.471731 0.341844
vt 0.449553 0.383337
vt 0.419706 0.419706
vt 0.383337 0.449553
vt 0.031250 1.000000
s 1
f 2/1/1 3/2/2 1/3/1
f 3/2/2 6/4/3 5/5/3
f 5/5/3 8/6/4 7/7/4
f 8/6/4 9/8/5 7/7/4
f 10/9/5 11/10/6 9/8/5
f 12/11/6 13/12/7 11/10/6
f 14/13/7 15/14/8 13/12/7
f 15/14/8 18/15/9 17/16/9
f 18/15/9 19/17/10 17/16/9
f 19/17/10 22/18/11 21/19/11
f 21/19/11 24/20/12 23/21/12
f 24/20/12 25/22/13 23/21/12
f 26/23/13 27/24/14 25/22/13
f 28/25/14 29/26/15 27/24/14
f 30/27/15 31/28/16 29/26/15
f 31/28/16 34/29/17 33/30/17
f 34/29/17 35/31/18 33/30/17
f 35/31/18 38/32/19 37/33/19
f 37/33/19 40/34/20 39/35/20
f 40/34/20 41/36/21 39/35/20
f 42/37/21 43/38/22 41/36/21
f 44/39/22 45/40/23 43/38/22
f 46/41/23 47/42/24 45/40/23
f 47/42/24 50/43/25 49/44/25
f 50/43/25 51/45/26 49/44/25
f 51/45/26 54/46/27 53/47/27
f 53/47/27 56/48/28 55/49/28
f 56/48/28 57/50/29 55/49/28
f 58/51/29 59/52/30 57/50/29
f 60/53/30 61/54/31 59/52/30
s 0
f 38/55/32 22/56/32 6/57/32
s 1
f 62/58/31 63/59/33 61/54/31
f 63/59/33 2/60/1 1/61/1
f 2/1/1 4/62/2 3/2/2
f 3/2/2 4/62/2 6/4/3
f 5/5/3 6/4/3 8/6/4
f 8/6/4 10/9/5 9/8/5
f 10/9/5 12/11/6 11/10/6
f 12/11/6 14/13/7 13/12/7
f 14/13/7 16/63/8 15/14/8
f 15/14/8 16/63/8 18/15/9
f 18/15/9 20/64/10 19/17/10
f 19/17/10 20/64/10 22/18/11
f 21/19/11 22/18/11 24/20/12
f 24/20/12 26/23/13 25/22/13
f 26/23/13 28/25/14 27/24/14
f 28/25/14 30/27/15 29/26/15
f 30/27/15 32/65/16 31/28/16
f 31/28/16 32/65/16 34/29/17
f 34/29/17 36/66/18 35/31/18
f 35/31/18 36/66/18 38/32/19
f 37/33/19 38/32/19 40/34/20
f 40/34/20 42/37/21 41/36/21
f 42/37/21 44/39/22 43/38/22
f 44/39/22 46/41/23 45/40/23
f 46/41/23 48/67/24 47/42/24
f 47/42/24 48/67/24 50/43/25
f 50/43/25 52/68/26 51/45/26
f 51/45/26 52/68/26 54/46/27
f 53/47/27 54/46/27 56/48/28
f 56/48/28 58/51/29 57/50/29
f 58/51/29 60/53/30 59/52/30
f 60/53/30 62/58/31 61/54/31
s 0
f 6/57/32 4/69/32 2/70/32
f 2/70/32 64/71/32 6/57/32
f 64/71/32 62/72/32 6/57/32
f 62/72/32 60/73/32 58/74/32
f 58/74/32 56/75/32 62/72/32
f 56/75/32 54/76/32 62/72/32
f 54/76/32 52/77/32 50/78/32
f 50/78/32 48/79/32 54/76/32
f 48/79/32 46/80/32 54/76/32
f 46/80/32 44/81/32 42/82/32
f 42/82/32 40/83/32 46/80/32
f 40/83/32 38/55/32 46/80/32
f 38/55/32 36/84/32 30/85/32
f 36/84/32 34/86/32 30/85/32
f 34/86/32 32/87/32 30/85/32
f 30/85/32 28/88/32 22/56/32
f 28/88/32 26/89/32 22/56/32
f 26/89/32 24/90/32 22/56/32
f 22/56/32 20/91/32 18/92/32
f 18/92/32 16/93/32 22/56/32
f 16/93/32 14/94/32 22/56/32
f 14/94/32 12/95/32 10/96/32
f 10/96/32 8/97/32 14/94/32
f 8/97/32 6/57/32 14/94/32
f 6/57/32 62/72/32 54/76/32
f 54/76/32 46/80/32 38/55/32
f 38/55/32 30/85/32 22/56/32
f 22/56/32 14/94/32 6/57/32
f 6/57/32 54/76/32 38/55/32
s 1
f 62/58/31 64/98/33 63/59/33
f 63/59/33 64/98/33 2/60/1
