mtllib magma_vent.mtl
o magma_vent
v 3.400000 0.720000 0.000000
v 3.141190 0.720000 1.301124
v 3.141190 0.000000 1.301124
v 3.400000 0.000000 0.000000
v 3.141190 0.720000 1.301124
v 2.404163 0.720000 2.404163
v 2.404163 0.000000 2.404163
v 3.141190 0.000000 1.301124
v 2.404163 0.720000 2.404163
v 1.301124 0.720000 3.141190
v 1.301124 0.000000 3.141190
v 2.404163 0.000000 2.404163
v 1.301124 0.720000 3.141190
v 0.000000 0.720000 3.400000
v 0.000000 0.000000 3.400000
v 1.301124 0.000000 3.141190
v 0.000000 0.720000 3.400000
v -1.301124 0.720000 3.141190
v -1.301124 0.000000 3.141190
v 0.000000 0.000000 3.400000
v -1.301124 0.720000 3.141190
v -2.404163 0.720000 2.404163
v -2.404163 0.000000 2.404163
v -1.301124 0.000000 3.141190
v -2.404163 0.720000 2.404163
v -3.141190 0.720000 1.301124
v -3.141190 0.000000 1.301124
v -2.404163 0.000000 2.404163
v -3.141190 0.720000 1.301124
v -3.400000 0.720000 0.000000
v -3.400000 0.000000 0.000000
v -3.141190 0.000000 1.301124
v -3.400000 0.720000 0.000000
v -3.141190 0.720000 -1.301124
v -3.141190 0.000000 -1.301124
v -3.400000 0.000000 0.000000
v -3.141190 0.720000 -1.301124
v -2.404163 0.720000 -2.404163
v -2.404163 0.000000 -2.404163
v -3.141190 0.000000 -1.301124
v -2.404163 0.720000 -2.404163
v -1.301124 0.720000 -3.141190
v -1.301124 0.000000 -3.141190
v -2.404163 0.000000 -2.404163
v -1.301124 0.720000 -3.141190
v -0.000000 0.720000 -3.400000
v -0.000000 0.000000 -3.400000
v -1.301124 0.000000 -3.141190
v -0.000000 0.720000 -3.400000
v 1.301124 0.720000 -3.141190
v 1.301124 0.000000 -3.141190
v -0.000000 0.000000 -3.400000
v 1.301124 0.720000 -3.141190
v 2.404163 0.720000 -2.404163
v 2.404163 0.000000 -2.404163
v 1.301124 0.000000 -3.141190
v 2.404163 0.720000 -2.404163
v 3.141190 0.720000 -1.301124
v 3.141190 0.000000 -1.301124
v 2.404163 0.000000 -2.404163
v 3.141190 0.720000 -1.301124
v 3.400000 0.720000 0.000000
v 3.400000 0.000000 0.000000
v 3.141190 0.000000 -1.301124
v 2.050000 0.000000 0.000000
v 1.893953 0.000000 0.784501
v 1.893953 0.720000 0.784501
v 2.050000 0.720000 0.000000
v 1.893953 0.000000 0.784501
v 1.449569 0.000000 1.449569
v 1.449569 0.720000 1.449569
v 1.893953 0.720000 0.784501
v 1.449569 0.000000 1.449569
v 0.784501 0.000000 1.893953
v 0.784501 0.720000 1.893953
v 1.449569 0.720000 1.449569
v 0.784501 0.000000 1.893953
v 0.000000 0.000000 2.050000
v 0.000000 0.720000 2.050000
v 0.784501 0.720000 1.893953
v 0.000000 0.000000 2.050000
v -0.784501 0.000000 1.893953
v -0.784501 0.720000 1.893953
v 0.000000 0.720000 2.050000
v -0.784501 0.000000 1.893953
v -1.449569 0.000000 1.449569
v -1.449569 0.720000 1.449569
v -0.784501 0.720000 1.893953
v -1.449569 0.000000 1.449569
v -1.893953 0.000000 0.784501
v -1.893953 0.720000 0.784501
v -1.449569 0.720000 1.449569
v -1.893953 0.000000 0.784501
v -2.050000 0.000000 0.000000
v -2.050000 0.720000 0.000000
v -1.893953 0.720000 0.784501
v -2.050000 0.000000 0.000000
v -1.893953 0.000000 -0.784501
v -1.893953 0.720000 -0.784501
v -2.050000 0.720000 0.000000
v -1.893953 0.000000 -0.784501
v -1.449569 0.000000 -1.449569
v -1.449569 0.720000 -1.449569
v -1.893953 0.720000 -0.784501
v -1.449569 0.000000 -1.449569
v -0.784501 0.000000 -1.893953
v -0.784501 0.720000 -1.893953
v -1.449569 0.720000 -1.449569
v -0.784501 0.000000 -1.893953
v -0.000000 0.000000 -2.050000
v -0.000000 0.720000 -2.050000
v -0.784501 0.720000 -1.893953
v -0.000000 0.000000 -2.050000
v 0.784501 0.000000 -1.893953
v 0.784501 0.720000 -1.893953
v -0.000000 0.720000 -2.050000
v 0.784501 0.000000 -1.893953
v 1.449569 0.000000 -1.449569
v 1.449569 0.720000 -1.449569
v 0.784501 0.720000 -1.893953
v 1.449569 0.000000 -1.449569
v 1.893953 0.000000 -0.784501
v 1.893953 0.720000 -0.784501
v 1.449569 0.720000 -1.449569
v 1.893953 0.000000 -0.784501
v 2.050000 0.000000 0.000000
v 2.050000 0.720000 0.000000
v 1.893953 0.720000 -0.784501
v 2.050000 0.720000 0.000000
v 1.893953 0.720000 0.784501
v 3.141190 0.720000 1.301124
v 3.400000 0.720000 0.000000
v 3.400000 0.000000 0.000000
v 3.141190 0.000000 1.301124
v 1.893953 0.000000 0.784501
v 2.050000 0.000000 0.000000
v 1.893953 0.720000 0.784501
v 1.449569 0.720000 1.449569
v 2.404163 0.720000 2.404163
v 3.141190 0.720000 1.301124
v 3.141190 0.000000 1.301124
v 2.404163 0.000000 2.404163
v 1.449569 0.000000 1.449569
v 1.893953 0.000000 0.784501
v 1.449569 0.720000 1.449569
v 0.784501 0.720000 1.893953
v 1.301124 0.720000 3.141190
v 2.404163 0.720000 2.404163
v 2.404163 0.000000 2.404163
v 1.301124 0.000000 3.141190
v 0.784501 0.000000 1.893953
v 1.449569 0.000000 1.449569
v 0.784501 0.720000 1.893953
v 0.000000 0.720000 2.050000
v 0.000000 0.720000 3.400000
v 1.301124 0.720000 3.141190
v 1.301124 0.000000 3.141190
v 0.000000 0.000000 3.400000
v 0.000000 0.000000 2.050000
v 0.784501 0.000000 1.893953
v 0.000000 0.720000 2.050000
v -0.784501 0.720000 1.893953
v -1.301124 0.720000 3.141190
v 0.000000 0.720000 3.400000
v 0.000000 0.000000 3.400000
v -1.301124 0.000000 3.141190
v -0.784501 0.000000 1.893953
v 0.000000 0.000000 2.050000
v -0.784501 0.720000 1.893953
v -1.449569 0.720000 1.449569
v -2.404163 0.720000 2.404163
v -1.301124 0.720000 3.141190
v -1.301124 0.000000 3.141190
v -2.404163 0.000000 2.404163
v -1.449569 0.000000 1.449569
v -0.784501 0.000000 1.893953
v -1.449569 0.720000 1.449569
v -1.893953 0.720000 0.784501
v -3.141190 0.720000 1.301124
v -2.404163 0.720000 2.404163
v -2.404163 0.000000 2.404163
v -3.141190 0.000000 1.301124
v -1.893953 0.000000 0.784501
v -1.449569 0.000000 1.449569
v -1.893953 0.720000 0.784501
v -2.050000 0.720000 0.000000
v -3.400000 0.720000 0.000000
v -3.141190 0.720000 1.301124
v -3.141190 0.000000 1.301124
v -3.400000 0.000000 0.000000
v -2.050000 0.000000 0.000000
v -1.893953 0.000000 0.784501
v -2.050000 0.720000 0.000000
v -1.893953 0.720000 -0.784501
v -3.141190 0.720000 -1.301124
v -3.400000 0.720000 0.000000
v -3.400000 0.000000 0.000000
v -3.141190 0.000000 -1.301124
v -1.893953 0.000000 -0.784501
v -2.050000 0.000000 0.000000
v -1.893953 0.720000 -0.784501
v -1.449569 0.720000 -1.449569
v -2.404163 0.720000 -2.404163
v -3.141190 0.720000 -1.301124
v -3.141190 0.000000 -1.301124
v -2.404163 0.000000 -2.404163
v -1.449569 0.000000 -1.449569
v -1.893953 0.000000 -0.784501
v -1.449569 0.720000 -1.449569
v -0.784501 0.720000 -1.893953
v -1.301124 0.720000 -3.141190
v -2.404163 0.720000 -2.404163
v -2.404163 0.000000 -2.404163
v -1.301124 0.000000 -3.141190
v -0.784501 0.000000 -1.893953
v -1.449569 0.000000 -1.449569
v -0.784501 0.720000 -1.893953
v -0.000000 0.720000 -2.050000
v -0.000000 0.720000 -3.400000
v -1.301124 0.720000 -3.141190
v -1.301124 0.000000 -3.141190
v -0.000000 0.000000 -3.400000
v -0.000000 0.000000 -2.050000
v -0.784501 0.000000 -1.893953
v -0.000000 0.720000 -2.050000
v 0.784501 0.720000 -1.893953
v 1.301124 0.720000 -3.141190
v -0.000000 0.720000 -3.400000
v -0.000000 0.000000 -3.400000
v 1.301124 0.000000 -3.141190
v 0.784501 0.000000 -1.893953
v -0.000000 0.000000 -2.050000
v 0.784501 0.720000 -1.893953
v 1.449569 0.720000 -1.449569
v 2.404163 0.720000 -2.404163
v 1.301124 0.720000 -3.141190
v 1.301124 0.000000 -3.141190
v 2.404163 0.000000 -2.404163
v 1.449569 0.000000 -1.449569
v 0.784501 0.000000 -1.893953
v 1.449569 0.720000 -1.449569
v 1.893953 0.720000 -0.784501
v 3.141190 0.720000 -1.301124
v 2.404163 0.720000 -2.404163
v 2.404163 0.000000 -2.404163
v 3.141190 0.000000 -1.301124
v 1.893953 0.000000 -0.784501
v 1.449569 0.000000 -1.449569
v 1.893953 0.720000 -0.784501
v 2.050000 0.720000 0.000000
v 3.400000 0.720000 0.000000
v 3.141190 0.720000 -1.301124
v 3.141190 0.000000 -1.301124
v 3.400000 0.000000 0.000000
v 2.050000 0.000000 0.000000
v 1.893953 0.000000 -0.784501
v 2.020000 0.500000 0.000000
v 1.866237 0.500000 0.773021
v 1.866237 0.220000 0.773021
v 2.020000 0.220000 0.000000
v 1.866237 0.500000 0.773021
v 1.428356 0.500000 1.428356
v 1.428356 0.220000 1.428356
v 1.866237 0.220000 0.773021
v 1.428356 0.500000 1.428356
v 0.773021 0.500000 1.866237
v 0.773021 0.220000 1.866237
v 1.428356 0.220000 1.428356
v 0.773021 0.500000 1.866237
v 0.000000 0.500000 2.020000
v 0.000000 0.220000 2.020000
v 0.773021 0.220000 1.866237
v 0.000000 0.500000 2.020000
v -0.773021 0.500000 1.866237
v -0.773021 0.220000 1.866237
v 0.000000 0.220000 2.020000
v -0.773021 0.500000 1.866237
v -1.428356 0.500000 1.428356
v -1.428356 0.220000 1.428356
v -0.773021 0.220000 1.866237
v -1.428356 0.500000 1.428356
v -1.866237 0.500000 0.773021
v -1.866237 0.220000 0.773021
v -1.428356 0.220000 1.428356
v -1.866237 0.500000 0.773021
v -2.020000 0.500000 0.000000
v -2.020000 0.220000 0.000000
v -1.866237 0.220000 0.773021
v -2.020000 0.500000 0.000000
v -1.866237 0.500000 -0.773021
v -1.866237 0.220000 -0.773021
v -2.020000 0.220000 0.000000
v -1.866237 0.500000 -0.773021
v -1.428356 0.500000 -1.428356
v -1.428356 0.220000 -1.428356
v -1.866237 0.220000 -0.773021
v -1.428356 0.500000 -1.428356
v -0.773021 0.500000 -1.866237
v -0.773021 0.220000 -1.866237
v -1.428356 0.220000 -1.428356
v -0.773021 0.500000 -1.866237
v -0.000000 0.500000 -2.020000
v -0.000000 0.220000 -2.020000
v -0.773021 0.220000 -1.866237
v -0.000000 0.500000 -2.020000
v 0.773021 0.500000 -1.866237
v 0.773021 0.220000 -1.866237
v -0.000000 0.220000 -2.020000
v 0.773021 0.500000 -1.866237
v 1.428356 0.500000 -1.428356
v 1.428356 0.220000 -1.428356
v 0.773021 0.220000 -1.866237
v 1.428356 0.500000 -1.428356
v 1.866237 0.500000 -0.773021
v 1.866237 0.220000 -0.773021
v 1.428356 0.220000 -1.428356
v 1.866237 0.500000 -0.773021
v 2.020000 0.500000 0.000000
v 2.020000 0.220000 0.000000
v 1.866237 0.220000 -0.773021
v 1.866237 0.500000 0.773021
v 2.020000 0.500000 0.000000
v 0.000000 0.500000 0.000000
v 0.000000 0.220000 0.000000
v 2.020000 0.220000 0.000000
v 1.866237 0.220000 0.773021
v 1.428356 0.500000 1.428356
v 1.866237 0.500000 0.773021
v 0.000000 0.500000 0.000000
v 0.000000 0.220000 0.000000
v 1.866237 0.220000 0.773021
v 1.428356 0.220000 1.428356
v 0.773021 0.500000 1.866237
v 1.428356 0.500000 1.428356
v 0.000000 0.500000 0.000000
v 0.000000 0.220000 0.000000
v 1.428356 0.220000 1.428356
v 0.773021 0.220000 1.866237
v 0.000000 0.500000 2.020000
v 0.773021 0.500000 1.866237
v 0.000000 0.500000 0.000000
v 0.000000 0.220000 0.000000
v 0.773021 0.220000 1.866237
v 0.000000 0.220000 2.020000
v -0.773021 0.500000 1.866237
v 0.000000 0.500000 2.020000
v 0.000000 0.500000 0.000000
v 0.000000 0.220000 0.000000
v 0.000000 0.220000 2.020000
v -0.773021 0.220000 1.866237
v -1.428356 0.500000 1.428356
v -0.773021 0.500000 1.866237
v 0.000000 0.500000 0.000000
v 0.000000 0.220000 0.000000
v -0.773021 0.220000 1.866237
v -1.428356 0.220000 1.428356
v -1.866237 0.500000 0.773021
v -1.428356 0.500000 1.428356
v 0.000000 0.500000 0.000000
v 0.000000 0.220000 0.000000
v -1.428356 0.220000 1.428356
v -1.866237 0.220000 0.773021
v -2.020000 0.500000 0.000000
v -1.866237 0.500000 0.773021
v 0.000000 0.500000 0.000000
v 0.000000 0.220000 0.000000
v -1.866237 0.220000 0.773021
v -2.020000 0.220000 0.000000
v -1.866237 0.500000 -0.773021
v -2.020000 0.500000 0.000000
v 0.000000 0.500000 0.000000
v 0.000000 0.220000 0.000000
v -2.020000 0.220000 0.000000
v -1.866237 0.220000 -0.773021
v -1.428356 0.500000 -1.428356
v -1.866237 0.500000 -0.773021
v 0.000000 0.500000 0.000000
v 0.000000 0.220000 0.000000
v -1.866237 0.220000 -0.773021
v -1.428356 0.220000 -1.428356
v -0.773021 0.500000 -1.866237
v -1.428356 0.500000 -1.428356
v 0.000000 0.500000 0.000000
v 0.000000 0.220000 0.000000
v -1.428356 0.220000 -1.428356
v -0.773021 0.220000 -1.866237
v -0.000000 0.500000 -2.020000
v -0.773021 0.500000 -1.866237
v 0.000000 0.500000 0.000000
v 0.000000 0.220000 0.000000
v -0.773021 0.220000 -1.866237
v -0.000000 0.220000 -2.020000
v 0.773021 0.500000 -1.866237
v -0.000000 0.500000 -2.020000
v 0.000000 0.500000 0.000000
v 0.000000 0.220000 0.000000
v -0.000000 0.220000 -2.020000
v 0.773021 0.220000 -1.866237
v 1.428356 0.500000 -1.428356
v 0.773021 0.500000 -1.866237
v 0.000000 0.500000 0.000000
v 0.000000 0.220000 0.000000
v 0.773021 0.220000 -1.866237
v 1.428356 0.220000 -1.428356
v 1.866237 0.500000 -0.773021
v 1.428356 0.500000 -1.428356
v 0.000000 0.500000 0.000000
v 0.000000 0.220000 0.000000
v 1.428356 0.220000 -1.428356
v 1.866237 0.220000 -0.773021
v 2.020000 0.500000 0.000000
v 1.866237 0.500000 -0.773021
v 0.000000 0.500000 0.000000
v 0.000000 0.220000 0.000000
v 1.866237 0.220000 -0.773021
v 2.020000 0.220000 0.000000
v 2.132973 1.145000 -0.077794
v 3.456063 1.145000 0.190409
v 3.456063 0.295000 0.190409
v 2.132973 0.295000 -0.077794
v 1.934303 0.295000 0.902272
v 3.257393 0.295000 1.170476
v 3.257393 1.145000 1.170476
v 1.934303 1.145000 0.902272
v 2.132973 0.295000 -0.077794
v 1.934303 0.295000 0.902272
v 1.934303 1.145000 0.902272
v 2.132973 1.145000 -0.077794
v 3.257393 0.295000 1.170476
v 3.456063 0.295000 0.190409
v 3.456063 1.145000 0.190409
v 3.257393 1.145000 1.170476
v 2.132973 1.145000 -0.077794
v 1.934303 1.145000 0.902272
v 3.257393 1.145000 1.170476
v 3.456063 1.145000 0.190409
v 2.132973 0.295000 -0.077794
v 3.456063 0.295000 0.190409
v 3.257393 0.295000 1.170476
v 1.934303 0.295000 0.902272
v 1.563249 1.215000 1.453231
v 2.309166 1.215000 2.578445
v 2.309166 0.225000 2.578445
v 1.563249 0.225000 1.453231
v 0.729756 0.225000 2.005762
v 1.475674 0.225000 3.130976
v 1.475674 1.215000 3.130976
v 0.729756 1.215000 2.005762
v 1.563249 0.225000 1.453231
v 0.729756 0.225000 2.005762
v 0.729756 1.215000 2.005762
v 1.563249 1.215000 1.453231
v 1.475674 0.225000 3.130976
v 2.309166 0.225000 2.578445
v 2.309166 1.215000 2.578445
v 1.475674 1.215000 3.130976
v 1.563249 1.215000 1.453231
v 0.729756 1.215000 2.005762
v 1.475674 1.215000 3.130976
v 2.309166 1.215000 2.578445
v 1.563249 0.225000 1.453231
v 2.309166 0.225000 2.578445
v 1.475674 0.225000 3.130976
v 0.729756 0.225000 2.005762
v 0.077794 1.285000 2.132973
v -0.190409 1.285000 3.456063
v -0.190409 0.155000 3.456063
v 0.077794 0.155000 2.132973
v -0.902272 0.155000 1.934303
v -1.170476 0.155000 3.257393
v -1.170476 1.285000 3.257393
v -0.902272 1.285000 1.934303
v 0.077794 0.155000 2.132973
v -0.902272 0.155000 1.934303
v -0.902272 1.285000 1.934303
v 0.077794 1.285000 2.132973
v -1.170476 0.155000 3.257393
v -0.190409 0.155000 3.456063
v -0.190409 1.285000 3.456063
v -1.170476 1.285000 3.257393
v 0.077794 1.285000 2.132973
v -0.902272 1.285000 1.934303
v -1.170476 1.285000 3.257393
v -0.190409 1.285000 3.456063
v 0.077794 0.155000 2.132973
v -0.190409 0.155000 3.456063
v -1.170476 0.155000 3.257393
v -0.902272 0.155000 1.934303
v -1.453231 1.145000 1.563249
v -2.578445 1.145000 2.309166
v -2.578445 0.295000 2.309166
v -1.453231 0.295000 1.563249
v -2.005762 0.295000 0.729756
v -3.130976 0.295000 1.475674
v -3.130976 1.145000 1.475674
v -2.005762 1.145000 0.729756
v -1.453231 0.295000 1.563249
v -2.005762 0.295000 0.729756
v -2.005762 1.145000 0.729756
v -1.453231 1.145000 1.563249
v -3.130976 0.295000 1.475674
v -2.578445 0.295000 2.309166
v -2.578445 1.145000 2.309166
v -3.130976 1.145000 1.475674
v -1.453231 1.145000 1.563249
v -2.005762 1.145000 0.729756
v -3.130976 1.145000 1.475674
v -2.578445 1.145000 2.309166
v -1.453231 0.295000 1.563249
v -2.578445 0.295000 2.309166
v -3.130976 0.295000 1.475674
v -2.005762 0.295000 0.729756
v -2.132973 1.215000 0.077794
v -3.456063 1.215000 -0.190409
v -3.456063 0.225000 -0.190409
v -2.132973 0.225000 0.077794
v -1.934303 0.225000 -0.902272
v -3.257393 0.225000 -1.170476
v -3.257393 1.215000 -1.170476
v -1.934303 1.215000 -0.902272
v -2.132973 0.225000 0.077794
v -1.934303 0.225000 -0.902272
v -1.934303 1.215000 -0.902272
v -2.132973 1.215000 0.077794
v -3.257393 0.225000 -1.170476
v -3.456063 0.225000 -0.190409
v -3.456063 1.215000 -0.190409
v -3.257393 1.215000 -1.170476
v -2.132973 1.215000 0.077794
v -1.934303 1.215000 -0.902272
v -3.257393 1.215000 -1.170476
v -3.456063 1.215000 -0.190409
v -2.132973 0.225000 0.077794
v -3.456063 0.225000 -0.190409
v -3.257393 0.225000 -1.170476
v -1.934303 0.225000 -0.902272
v -1.563249 1.285000 -1.453231
v -2.309166 1.285000 -2.578445
v -2.309166 0.155000 -2.578445
v -1.563249 0.155000 -1.453231
v -0.729756 0.155000 -2.005762
v -1.475674 0.155000 -3.130976
v -1.475674 1.285000 -3.130976
v -0.729756 1.285000 -2.005762
v -1.563249 0.155000 -1.453231
v -0.729756 0.155000 -2.005762
v -0.729756 1.285000 -2.005762
v -1.563249 1.285000 -1.453231
v -1.475674 0.155000 -3.130976
v -2.309166 0.155000 -2.578445
v -2.309166 1.285000 -2.578445
v -1.475674 1.285000 -3.130976
v -1.563249 1.285000 -1.453231
v -0.729756 1.285000 -2.005762
v -1.475674 1.285000 -3.130976
v -2.309166 1.285000 -2.578445
v -1.563249 0.155000 -1.453231
v -2.309166 0.155000 -2.578445
v -1.475674 0.155000 -3.130976
v -0.729756 0.155000 -2.005762
v -0.077794 1.145000 -2.132973
v 0.190409 1.145000 -3.456063
v 0.190409 0.295000 -3.456063
v -0.077794 0.295000 -2.132973
v 0.902272 0.295000 -1.934303
v 1.170476 0.295000 -3.257393
v 1.170476 1.145000 -3.257393
v 0.902272 1.145000 -1.934303
v -0.077794 0.295000 -2.132973
v 0.902272 0.295000 -1.934303
v 0.902272 1.145000 -1.934303
v -0.077794 1.145000 -2.132973
v 1.170476 0.295000 -3.257393
v 0.190409 0.295000 -3.456063
v 0.190409 1.145000 -3.456063
v 1.170476 1.145000 -3.257393
v -0.077794 1.145000 -2.132973
v 0.902272 1.145000 -1.934303
v 1.170476 1.145000 -3.257393
v 0.190409 1.145000 -3.456063
v -0.077794 0.295000 -2.132973
v 0.190409 0.295000 -3.456063
v 1.170476 0.295000 -3.257393
v 0.902272 0.295000 -1.934303
v 1.453231 1.215000 -1.563249
v 2.578445 1.215000 -2.309166
v 2.578445 0.225000 -2.309166
v 1.453231 0.225000 -1.563249
v 2.005762 0.225000 -0.729756
v 3.130976 0.225000 -1.475674
v 3.130976 1.215000 -1.475674
v 2.005762 1.215000 -0.729756
v 1.453231 0.225000 -1.563249
v 2.005762 0.225000 -0.729756
v 2.005762 1.215000 -0.729756
v 1.453231 1.215000 -1.563249
v 3.130976 0.225000 -1.475674
v 2.578445 0.225000 -2.309166
v 2.578445 1.215000 -2.309166
v 3.130976 1.215000 -1.475674
v 1.453231 1.215000 -1.563249
v 2.005762 1.215000 -0.729756
v 3.130976 1.215000 -1.475674
v 2.578445 1.215000 -2.309166
v 1.453231 0.225000 -1.563249
v 2.578445 0.225000 -2.309166
v 3.130976 0.225000 -1.475674
v 2.005762 0.225000 -0.729756
vt 0.000000 0.000000
vt 0.062500 0.000000
vt 0.062500 1.000000
vt 0.000000 1.000000
vt 0.062500 0.000000
vt 0.125000 0.000000
vt 0.125000 1.000000
vt 0.062500 1.000000
vt 0.125000 0.000000
vt 0.187500 0.000000
vt 0.187500 1.000000
vt 0.125000 1.000000
vt 0.187500 0.000000
vt 0.250000 0.000000
vt 0.250000 1.000000
vt 0.187500 1.000000
vt 0.250000 0.000000
vt 0.312500 0.000000
vt 0.312500 1.000000
vt 0.250000 1.000000
vt 0.312500 0.000000
vt 0.375000 0.000000
vt 0.375000 1.000000
vt 0.312500 1.000000
vt 0.375000 0.000000
vt 0.437500 0.000000
vt 0.437500 1.000000
vt 0.375000 1.000000
vt 0.437500 0.000000
vt 0.500000 0.000000
vt 0.500000 1.000000
vt 0.437500 1.000000
vt 0.500000 0.000000
vt 0.562500 0.000000
vt 0.562500 1.000000
vt 0.500000 1.000000
vt 0.562500 0.000000
vt 0.625000 0.000000
vt 0.625000 1.000000
vt 0.562500 1.000000
vt 0.625000 0.000000
vt 0.687500 0.000000
vt 0.687500 1.000000
vt 0.625000 1.000000
vt 0.687500 0.000000
vt 0.750000 0.000000
vt 0.750000 1.000000
vt 0.687500 1.000000
vt 0.750000 0.000000
vt 0.812500 0.000000
vt 0.812500 1.000000
vt 0.750000 1.000000
vt 0.812500 0.000000
vt 0.875000 0.000000
vt 0.875000 1.000000
vt 0.812500 1.000000
vt 0.875000 0.000000
vt 0.937500 0.000000
vt 0.937500 1.000000
vt 0.875000 1.000000
vt 0.937500 0.000000
vt 1.000000 0.000000
vt 1.000000 1.000000
vt 0.937500 1.000000
vt 0.000000 1.000000
vt 0.062500 1.000000
vt 0.062500 0.000000
vt 0.000000 0.000000
vt 0.062500 1.000000
vt 0.125000 1.000000
vt 0.125000 0.000000
vt 0.062500 0.000000
vt 0.125000 1.000000
vt 0.187500 1.000000
vt 0.187500 0.000000
vt 0.125000 0.000000
vt 0.187500 1.000000
vt 0.250000 1.000000
vt 0.250000 0.000000
vt 0.187500 0.000000
vt 0.250000 1.000000
vt 0.312500 1.000000
vt 0.312500 0.000000
vt 0.250000 0.000000
vt 0.312500 1.000000
vt 0.375000 1.000000
vt 0.375000 0.000000
vt 0.312500 0.000000
vt 0.375000 1.000000
vt 0.437500 1.000000
vt 0.437500 0.000000
vt 0.375000 0.000000
vt 0.437500 1.000000
vt 0.500000 1.000000
vt 0.500000 0.000000
vt 0.437500 0.000000
vt 0.500000 1.000000
vt 0.562500 1.000000
vt 0.562500 0.000000
vt 0.500000 0.000000
vt 0.562500 1.000000
vt 0.625000 1.000000
vt 0.625000 0.000000
vt 0.562500 0.000000
vt 0.625000 1.000000
vt 0.687500 1.000000
vt 0.687500 0.000000
vt 0.625000 0.000000
vt 0.687500 1.000000
vt 0.750000 1.000000
vt 0.750000 0.000000
vt 0.687500 0.000000
vt 0.750000 1.000000
vt 0.812500 1.000000
vt 0.812500 0.000000
vt 0.750000 0.000000
vt 0.812500 1.000000
vt 0.875000 1.000000
vt 0.875000 0.000000
vt 0.812500 0.000000
vt 0.875000 1.000000
vt 0.937500 1.000000
vt 0.937500 0.000000
vt 0.875000 0.000000
vt 0.937500 1.000000
vt 1.000000 1.000000
vt 1.000000 0.000000
vt 0.937500 0.000000
vt 0.571750 0.500000
vt 0.566288 0.472542
vt 0.609942 0.454461
vt 0.619000 0.500000
vt 0.619000 0.500000
vt 0.609942 0.454461
vt 0.566288 0.472542
vt 0.571750 0.500000
vt 0.566288 0.472542
vt 0.550735 0.449265
vt 0.584146 0.415854
vt 0.609942 0.454461
vt 0.609942 0.454461
vt 0.584146 0.415854
vt 0.550735 0.449265
vt 0.566288 0.472542
vt 0.550735 0.449265
vt 0.527458 0.433712
vt 0.545539 0.390058
vt 0.584146 0.415854
vt 0.584146 0.415854
vt 0.545539 0.390058
vt 0.527458 0.433712
vt 0.550735 0.449265
vt 0.527458 0.433712
vt 0.500000 0.428250
vt 0.500000 0.381000
vt 0.545539 0.390058
vt 0.545539 0.390058
vt 0.500000 0.381000
vt 0.500000 0.428250
vt 0.527458 0.433712
vt 0.500000 0.428250
vt 0.472542 0.433712
vt 0.454461 0.390058
vt 0.500000 0.381000
vt 0.500000 0.381000
vt 0.454461 0.390058
vt 0.472542 0.433712
vt 0.500000 0.428250
vt 0.472542 0.433712
vt 0.449265 0.449265
vt 0.415854 0.415854
vt 0.454461 0.390058
vt 0.454461 0.390058
vt 0.415854 0.415854
vt 0.449265 0.449265
vt 0.472542 0.433712
vt 0.449265 0.449265
vt 0.433712 0.472542
vt 0.390058 0.454461
vt 0.415854 0.415854
vt 0.415854 0.415854
vt 0.390058 0.454461
vt 0.433712 0.472542
vt 0.449265 0.449265
vt 0.433712 0.472542
vt 0.428250 0.500000
vt 0.381000 0.500000
vt 0.390058 0.454461
vt 0.390058 0.454461
vt 0.381000 0.500000
vt 0.428250 0.500000
vt 0.433712 0.472542
vt 0.428250 0.500000
vt 0.433712 0.527458
vt 0.390058 0.545539
vt 0.381000 0.500000
vt 0.381000 0.500000
vt 0.390058 0.545539
vt 0.433712 0.527458
vt 0.428250 0.500000
vt 0.433712 0.527458
vt 0.449265 0.550735
vt 0.415854 0.584146
vt 0.390058 0.545539
vt 0.390058 0.545539
vt 0.415854 0.584146
vt 0.449265 0.550735
vt 0.433712 0.527458
vt 0.449265 0.550735
vt 0.472542 0.566288
vt 0.454461 0.609942
vt 0.415854 0.584146
vt 0.415854 0.584146
vt 0.454461 0.609942
vt 0.472542 0.566288
vt 0.449265 0.550735
vt 0.472542 0.566288
vt 0.500000 0.571750
vt 0.500000 0.619000
vt 0.454461 0.609942
vt 0.454461 0.609942
vt 0.500000 0.619000
vt 0.500000 0.571750
vt 0.472542 0.566288
vt 0.500000 0.571750
vt 0.527458 0.566288
vt 0.545539 0.609942
vt 0.500000 0.619000
vt 0.500000 0.619000
vt 0.545539 0.609942
vt 0.527458 0.566288
vt 0.500000 0.571750
vt 0.527458 0.566288
vt 0.550735 0.550735
vt 0.584146 0.584146
vt 0.545539 0.609942
vt 0.545539 0.609942
vt 0.584146 0.584146
vt 0.550735 0.550735
vt 0.527458 0.566288
vt 0.550735 0.550735
vt 0.566288 0.527458
vt 0.609942 0.545539
vt 0.584146 0.584146
vt 0.584146 0.584146
vt 0.609942 0.545539
vt 0.566288 0.527458
vt 0.550735 0.550735
vt 0.566288 0.527458
vt 0.571750 0.500000
vt 0.619000 0.500000
vt 0.609942 0.545539
vt 0.609942 0.545539
vt 0.619000 0.500000
vt 0.571750 0.500000
vt 0.566288 0.527458
vt 0.000000 0.000000
vt 0.062500 0.000000
vt 0.062500 1.000000
vt 0.000000 1.000000
vt 0.062500 0.000000
vt 0.125000 0.000000
vt 0.125000 1.000000
vt 0.062500 1.000000
vt 0.125000 0.000000
vt 0.187500 0.000000
vt 0.187500 1.000000
vt 0.125000 1.000000
vt 0.187500 0.000000
vt 0.250000 0.000000
vt 0.250000 1.000000
vt 0.187500 1.000000
vt 0.250000 0.000000
vt 0.312500 0.000000
vt 0.312500 1.000000
vt 0.250000 1.000000
vt 0.312500 0.000000
vt 0.375000 0.000000
vt 0.375000 1.000000
vt 0.312500 1.000000
vt 0.375000 0.000000
vt 0.437500 0.000000
vt 0.437500 1.000000
vt 0.375000 1.000000
vt 0.437500 0.000000
vt 0.500000 0.000000
vt 0.500000 1.000000
vt 0.437500 1.000000
vt 0.500000 0.000000
vt 0.562500 0.000000
vt 0.562500 1.000000
vt 0.500000 1.000000
vt 0.562500 0.000000
vt 0.625000 0.000000
vt 0.625000 1.000000
vt 0.562500 1.000000
vt 0.625000 0.000000
vt 0.687500 0.000000
vt 0.687500 1.000000
vt 0.625000 1.000000
vt 0.687500 0.000000
vt 0.750000 0.000000
vt 0.750000 1.000000
vt 0.687500 1.000000
vt 0.750000 0.000000
vt 0.812500 0.000000
vt 0.812500 1.000000
vt 0.750000 1.000000
vt 0.812500 0.000000
vt 0.875000 0.000000
vt 0.875000 1.000000
vt 0.812500 1.000000
vt 0.875000 0.000000
vt 0.937500 0.000000
vt 0.937500 1.000000
vt 0.875000 1.000000
vt 0.937500 0.000000
vt 1.000000 0.000000
vt 1.000000 1.000000
vt 0.937500 1.000000
vt 0.565318 0.472944
vt 0.570700 0.500000
vt 0.500000 0.500000
vt 0.500000 0.500000
vt 0.570700 0.500000
vt 0.565318 0.472944
vt 0.549992 0.450008
vt 0.565318 0.472944
vt 0.500000 0.500000
vt 0.500000 0.500000
vt 0.565318 0.472944
vt 0.549992 0.450008
vt 0.527056 0.434682
vt 0.549992 0.450008
vt 0.500000 0.500000
vt 0.500000 0.500000
vt 0.549992 0.450008
vt 0.527056 0.434682
vt 0.500000 0.429300
vt 0.527056 0.434682
vt 0.500000 0.500000
vt 0.500000 0.500000
vt 0.527056 0.434682
vt 0.500000 0.429300
vt 0.472944 0.434682
vt 0.500000 0.429300
vt 0.500000 0.500000
vt 0.500000 0.500000
vt 0.500000 0.429300
vt 0.472944 0.434682
vt 0.450008 0.450008
vt 0.472944 0.434682
vt 0.500000 0.500000
vt 0.500000 0.500000
vt 0.472944 0.434682
vt 0.450008 0.450008
vt 0.434682 0.472944
vt 0.450008 0.450008
vt 0.500000 0.500000
vt 0.500000 0.500000
vt 0.450008 0.450008
vt 0.434682 0.472944
vt 0.429300 0.500000
vt 0.434682 0.472944
vt 0.500000 0.500000
vt 0.500000 0.500000
vt 0.434682 0.472944
vt 0.429300 0.500000
vt 0.434682 0.527056
vt 0.429300 0.500000
vt 0.500000 0.500000
vt 0.500000 0.500000
vt 0.429300 0.500000
vt 0.434682 0.527056
vt 0.450008 0.549992
vt 0.434682 0.527056
vt 0.500000 0.500000
vt 0.500000 0.500000
vt 0.434682 0.527056
vt 0.450008 0.549992
vt 0.472944 0.565318
vt 0.450008 0.549992
vt 0.500000 0.500000
vt 0.500000 0.500000
vt 0.450008 0.549992
vt 0.472944 0.565318
vt 0.500000 0.570700
vt 0.472944 0.565318
vt 0.500000 0.500000
vt 0.500000 0.500000
vt 0.472944 0.565318
vt 0.500000 0.570700
vt 0.527056 0.565318
vt 0.500000 0.570700
vt 0.500000 0.500000
vt 0.500000 0.500000
vt 0.500000 0.570700
vt 0.527056 0.565318
vt 0.549992 0.549992
vt 0.527056 0.565318
vt 0.500000 0.500000
vt 0.500000 0.500000
vt 0.527056 0.565318
vt 0.549992 0.549992
vt 0.565318 0.527056
vt 0.549992 0.549992
vt 0.500000 0.500000
vt 0.500000 0.500000
vt 0.549992 0.549992
vt 0.565318 0.527056
vt 0.570700 0.500000
vt 0.565318 0.527056
vt 0.500000 0.500000
vt 0.500000 0.500000
vt 0.565318 0.527056
vt 0.570700 0.500000
vt 0.574654 0.502723
vt 0.620962 0.493336
vt 0.620962 0.493336
vt 0.574654 0.502723
vt 0.567701 0.468420
vt 0.614009 0.459033
vt 0.614009 0.459033
vt 0.567701 0.468420
vt 0.574654 0.502723
vt 0.567701 0.468420
vt 0.567701 0.468420
vt 0.574654 0.502723
vt 0.614009 0.459033
vt 0.620962 0.493336
vt 0.620962 0.493336
vt 0.614009 0.459033
vt 0.574654 0.502723
vt 0.567701 0.468420
vt 0.614009 0.459033
vt 0.620962 0.493336
vt 0.574654 0.502723
vt 0.620962 0.493336
vt 0.614009 0.459033
vt 0.567701 0.468420
vt 0.554714 0.449137
vt 0.580821 0.409754
vt 0.580821 0.409754
vt 0.554714 0.449137
vt 0.525541 0.429798
vt 0.551649 0.390416
vt 0.551649 0.390416
vt 0.525541 0.429798
vt 0.554714 0.449137
vt 0.525541 0.429798
vt 0.525541 0.429798
vt 0.554714 0.449137
vt 0.551649 0.390416
vt 0.580821 0.409754
vt 0.580821 0.409754
vt 0.551649 0.390416
vt 0.554714 0.449137
vt 0.525541 0.429798
vt 0.551649 0.390416
vt 0.580821 0.409754
vt 0.554714 0.449137
vt 0.580821 0.409754
vt 0.551649 0.390416
vt 0.525541 0.429798
vt 0.502723 0.425346
vt 0.493336 0.379038
vt 0.493336 0.379038
vt 0.502723 0.425346
vt 0.468420 0.432299
vt 0.459033 0.385991
vt 0.459033 0.385991
vt 0.468420 0.432299
vt 0.502723 0.425346
vt 0.468420 0.432299
vt 0.468420 0.432299
vt 0.502723 0.425346
vt 0.459033 0.385991
vt 0.493336 0.379038
vt 0.493336 0.379038
vt 0.459033 0.385991
vt 0.502723 0.425346
vt 0.468420 0.432299
vt 0.459033 0.385991
vt 0.493336 0.379038
vt 0.502723 0.425346
vt 0.493336 0.379038
vt 0.459033 0.385991
vt 0.468420 0.432299
vt 0.449137 0.445286
vt 0.409754 0.419179
vt 0.409754 0.419179
vt 0.449137 0.445286
vt 0.429798 0.474459
vt 0.390416 0.448351
vt 0.390416 0.448351
vt 0.429798 0.474459
vt 0.449137 0.445286
vt 0.429798 0.474459
vt 0.429798 0.474459
vt 0.449137 0.445286
vt 0.390416 0.448351
vt 0.409754 0.419179
vt 0.409754 0.419179
vt 0.390416 0.448351
vt 0.449137 0.445286
vt 0.429798 0.474459
vt 0.390416 0.448351
vt 0.409754 0.419179
vt 0.449137 0.445286
vt 0.409754 0.419179
vt 0.390416 0.448351
vt 0.429798 0.474459
vt 0.425346 0.497277
vt 0.379038 0.506664
vt 0.379038 0.506664
vt 0.425346 0.497277
vt 0.432299 0.531580
vt 0.385991 0.540967
vt 0.385991 0.540967
vt 0.432299 0.531580
vt 0.425346 0.497277
vt 0.432299 0.531580
vt 0.432299 0.531580
vt 0.425346 0.497277
vt 0.385991 0.540967
vt 0.379038 0.506664
vt 0.379038 0.506664
vt 0.385991 0.540967
vt 0.425346 0.497277
vt 0.432299 0.531580
vt 0.385991 0.540967
vt 0.379038 0.506664
vt 0.425346 0.497277
vt 0.379038 0.506664
vt 0.385991 0.540967
vt 0.432299 0.531580
vt 0.445286 0.550863
vt 0.419179 0.590246
vt 0.419179 0.590246
vt 0.445286 0.550863
vt 0.474459 0.570202
vt 0.448351 0.609584
vt 0.448351 0.609584
vt 0.474459 0.570202
vt 0.445286 0.550863
vt 0.474459 0.570202
vt 0.474459 0.570202
vt 0.445286 0.550863
vt 0.448351 0.609584
vt 0.419179 0.590246
vt 0.419179 0.590246
vt 0.448351 0.609584
vt 0.445286 0.550863
vt 0.474459 0.570202
vt 0.448351 0.609584
vt 0.419179 0.590246
vt 0.445286 0.550863
vt 0.419179 0.590246
vt 0.448351 0.609584
vt 0.474459 0.570202
vt 0.497277 0.574654
vt 0.506664 0.620962
vt 0.506664 0.620962
vt 0.497277 0.574654
vt 0.531580 0.567701
vt 0.540967 0.614009
vt 0.540967 0.614009
vt 0.531580 0.567701
vt 0.497277 0.574654
vt 0.531580 0.567701
vt 0.531580 0.567701
vt 0.497277 0.574654
vt 0.540967 0.614009
vt 0.506664 0.620962
vt 0.506664 0.620962
vt 0.540967 0.614009
vt 0.497277 0.574654
vt 0.531580 0.567701
vt 0.540967 0.614009
vt 0.506664 0.620962
vt 0.497277 0.574654
vt 0.506664 0.620962
vt 0.540967 0.614009
vt 0.531580 0.567701
vt 0.550863 0.554714
vt 0.590246 0.580821
vt 0.590246 0.580821
vt 0.550863 0.554714
vt 0.570202 0.525541
vt 0.609584 0.551649
vt 0.609584 0.551649
vt 0.570202 0.525541
vt 0.550863 0.554714
vt 0.570202 0.525541
vt 0.570202 0.525541
vt 0.550863 0.554714
vt 0.609584 0.551649
vt 0.590246 0.580821
vt 0.590246 0.580821
vt 0.609584 0.551649
vt 0.550863 0.554714
vt 0.570202 0.525541
vt 0.609584 0.551649
vt 0.590246 0.580821
vt 0.550863 0.554714
vt 0.590246 0.580821
vt 0.609584 0.551649
vt 0.570202 0.525541
vn 0.980785 0.000000 0.195090
vn 0.980785 0.000000 0.195090
vn 0.980785 0.000000 0.195090
vn 0.980785 0.000000 0.195090
vn 0.831470 0.000000 0.555570
vn 0.831470 0.000000 0.555570
vn 0.831470 0.000000 0.555570
vn 0.831470 0.000000 0.555570
vn 0.555570 0.000000 0.831470
vn 0.555570 0.000000 0.831470
vn 0.555570 0.000000 0.831470
vn 0.555570 0.000000 0.831470
vn 0.195090 0.000000 0.980785
vn 0.195090 0.000000 0.980785
vn 0.195090 0.000000 0.980785
vn 0.195090 0.000000 0.980785
vn -0.195090 0.000000 0.980785
vn -0.195090 0.000000 0.980785
vn -0.195090 0.000000 0.980785
vn -0.195090 0.000000 0.980785
vn -0.555570 0.000000 0.831470
vn -0.555570 0.000000 0.831470
vn -0.555570 0.000000 0.831470
vn -0.555570 0.000000 0.831470
vn -0.831470 0.000000 0.555570
vn -0.831470 0.000000 0.555570
vn -0.831470 0.000000 0.555570
vn -0.831470 0.000000 0.555570
vn -0.980785 0.000000 0.195090
vn -0.980785 0.000000 0.195090
vn -0.980785 0.000000 0.195090
vn -0.980785 0.000000 0.195090
vn -0.980785 0.000000 -0.195090
vn -0.980785 0.000000 -0.195090
vn -0.980785 0.000000 -0.195090
vn -0.980785 0.000000 -0.195090
vn -0.831470 0.000000 -0.555570
vn -0.831470 0.000000 -0.555570
vn -0.831470 0.000000 -0.555570
vn -0.831470 0.000000 -0.555570
vn -0.555570 0.000000 -0.831470
vn -0.555570 0.000000 -0.831470
vn -0.555570 0.000000 -0.831470
vn -0.555570 0.000000 -0.831470
vn -0.195090 0.000000 -0.980785
vn -0.195090 0.000000 -0.980785
vn -0.195090 0.000000 -0.980785
vn -0.195090 0.000000 -0.980785
vn 0.195090 0.000000 -0.980785
vn 0.195090 0.000000 -0.980785
vn 0.195090 0.000000 -0.980785
vn 0.195090 0.000000 -0.980785
vn 0.555570 0.000000 -0.831470
vn 0.555570 0.000000 -0.831470
vn 0.555570 0.000000 -0.831470
vn 0.555570 0.000000 -0.831470
vn 0.831470 0.000000 -0.555570
vn 0.831470 0.000000 -0.555570
vn 0.831470 0.000000 -0.555570
vn 0.831470 0.000000 -0.555570
vn 0.980785 0.000000 -0.195090
vn 0.980785 0.000000 -0.195090
vn 0.980785 0.000000 -0.195090
vn 0.980785 0.000000 -0.195090
vn -0.980785 0.000000 -0.195090
vn -0.980785 0.000000 -0.195090
vn -0.980785 0.000000 -0.195090
vn -0.980785 0.000000 -0.195090
vn -0.831470 0.000000 -0.555570
vn -0.831470 0.000000 -0.555570
vn -0.831470 0.000000 -0.555570
vn -0.831470 0.000000 -0.555570
vn -0.555570 0.000000 -0.831470
vn -0.555570 0.000000 -0.831470
vn -0.555570 0.000000 -0.831470
vn -0.555570 0.000000 -0.831470
vn -0.195090 0.000000 -0.980785
vn -0.195090 0.000000 -0.980785
vn -0.195090 0.000000 -0.980785
vn -0.195090 0.000000 -0.980785
vn 0.195090 0.000000 -0.980785
vn 0.195090 0.000000 -0.980785
vn 0.195090 0.000000 -0.980785
vn 0.195090 0.000000 -0.980785
vn 0.555570 0.000000 -0.831470
vn 0.555570 0.000000 -0.831470
vn 0.555570 0.000000 -0.831470
vn 0.555570 0.000000 -0.831470
vn 0.831470 0.000000 -0.555570
vn 0.831470 0.000000 -0.555570
vn 0.831470 0.000000 -0.555570
vn 0.831470 0.000000 -0.555570
vn 0.980785 0.000000 -0.195090
vn 0.980785 0.000000 -0.195090
vn 0.980785 0.000000 -0.195090
vn 0.980785 0.000000 -0.195090
vn 0.980785 0.000000 0.195090
vn 0.980785 0.000000 0.195090
vn 0.980785 0.000000 0.195090
vn 0.980785 0.000000 0.195090
vn 0.831470 0.000000 0.555570
vn 0.831470 0.000000 0.555570
vn 0.831470 0.000000 0.555570
vn 0.831470 0.000000 0.555570
vn 0.555570 0.000000 0.831470
vn 0.555570 0.000000 0.831470
vn 0.555570 0.000000 0.831470
vn 0.555570 0.000000 0.831470
vn 0.195090 0.000000 0.980785
vn 0.195090 0.000000 0.980785
vn 0.195090 0.000000 0.980785
vn 0.195090 0.000000 0.980785
vn -0.195090 0.000000 0.980785
vn -0.195090 0.000000 0.980785
vn -0.195090 0.000000 0.980785
vn -0.195090 0.000000 0.980785
vn -0.555570 0.000000 0.831470
vn -0.555570 0.000000 0.831470
vn -0.555570 0.000000 0.831470
vn -0.555570 0.000000 0.831470
vn -0.831470 0.000000 0.555570
vn -0.831470 0.000000 0.555570
vn -0.831470 0.000000 0.555570
vn -0.831470 0.000000 0.555570
vn -0.980785 0.000000 0.195090
vn -0.980785 0.000000 0.195090
vn -0.980785 0.000000 0.195090
vn -0.980785 0.000000 0.195090
vn 0.000000 1.000000 -0.000000
vn 0.000000 1.000000 -0.000000
vn 0.000000 1.000000 -0.000000
vn 0.000000 1.000000 -0.000000
vn 0.000000 -1.000000 0.000000
vn 0.000000 -1.000000 0.000000
vn 0.000000 -1.000000 0.000000
vn 0.000000 -1.000000 0.000000
vn 0.000000 1.000000 -0.000000
vn 0.000000 1.000000 -0.000000
vn 0.000000 1.000000 -0.000000
vn 0.000000 1.000000 -0.000000
vn 0.000000 -1.000000 0.000000
vn 0.000000 -1.000000 0.000000
vn 0.000000 -1.000000 0.000000
vn 0.000000 -1.000000 0.000000
vn 0.000000 1.000000 0.000000
vn 0.000000 1.000000 0.000000
vn 0.000000 1.000000 0.000000
vn 0.000000 1.000000 0.000000
vn -0.000000 -1.000000 0.000000
vn -0.000000 -1.000000 0.000000
vn -0.000000 -1.000000 0.000000
vn -0.000000 -1.000000 0.000000
vn 0.000000 1.000000 0.000000
vn 0.000000 1.000000 0.000000
vn 0.000000 1.000000 0.000000
vn 0.000000 1.000000 0.000000
vn -0.000000 -1.000000 0.000000
vn -0.000000 -1.000000 0.000000
vn -0.000000 -1.000000 0.000000
vn -0.000000 -1.000000 0.000000
vn 0.000000 1.000000 0.000000
vn 0.000000 1.000000 0.000000
vn 0.000000 1.000000 0.000000
vn 0.000000 1.000000 0.000000
vn 0.000000 -1.000000 0.000000
vn 0.000000 -1.000000 0.000000
vn 0.000000 -1.000000 0.000000
vn 0.000000 -1.000000 0.000000
vn 0.000000 1.000000 0.000000
vn 0.000000 1.000000 0.000000
vn 0.000000 1.000000 0.000000
vn 0.000000 1.000000 0.000000
vn 0.000000 -1.000000 0.000000
vn 0.000000 -1.000000 0.000000
vn 0.000000 -1.000000 0.000000
vn 0.000000 -1.000000 0.000000
vn 0.000000 1.000000 0.000000
vn 0.000000 1.000000 0.000000
vn 0.000000 1.000000 0.000000
vn 0.000000 1.000000 0.000000
vn 0.000000 -1.000000 -0.000000
vn 0.000000 -1.000000 -0.000000
vn 0.000000 -1.000000 -0.000000
vn 0.000000 -1.000000 -0.000000
vn 0.000000 1.000000 0.000000
vn 0.000000 1.000000 0.000000
vn 0.000000 1.000000 0.000000
vn 0.000000 1.000000 0.000000
vn 0.000000 -1.000000 -0.000000
vn 0.000000 -1.000000 -0.000000
vn 0.000000 -1.000000 -0.000000
vn 0.000000 -1.000000 -0.000000
vn 0.000000 1.000000 0.000000
vn 0.000000 1.000000 0.000000
vn 0.000000 1.000000 0.000000
vn 0.000000 1.000000 0.000000
vn 0.000000 -1.000000 0.000000
vn 0.000000 -1.000000 0.000000
vn 0.000000 -1.000000 0.000000
vn 0.000000 -1.000000 0.000000
vn 0.000000 1.000000 0.000000
vn 0.000000 1.000000 0.000000
vn 0.000000 1.000000 0.000000
vn 0.000000 1.000000 0.000000
vn 0.000000 -1.000000 0.000000
vn 0.000000 -1.000000 0.000000
vn 0.000000 -1.000000 0.000000
vn 0.000000 -1.000000 0.000000
vn 0.000000 1.000000 0.000000
vn 0.000000 1.000000 0.000000
vn 0.000000 1.000000 0.000000
vn 0.000000 1.000000 0.000000
vn 0.000000 -1.000000 0.000000
vn 0.000000 -1.000000 0.000000
vn 0.000000 -1.000000 0.000000
vn 0.000000 -1.000000 0.000000
vn 0.000000 1.000000 0.000000
vn 0.000000 1.000000 0.000000
vn 0.000000 1.000000 0.000000
vn 0.000000 1.000000 0.000000
vn 0.000000 -1.000000 0.000000
vn 0.000000 -1.000000 0.000000
vn 0.000000 -1.000000 0.000000
vn 0.000000 -1.000000 0.000000
vn -0.000000 1.000000 0.000000
vn -0.000000 1.000000 0.000000
vn -0.000000 1.000000 0.000000
vn -0.000000 1.000000 0.000000
vn 0.000000 -1.000000 0.000000
vn 0.000000 -1.000000 0.000000
vn 0.000000 -1.000000 0.000000
vn 0.000000 -1.000000 0.000000
vn -0.000000 1.000000 0.000000
vn -0.000000 1.000000 0.000000
vn -0.000000 1.000000 0.000000
vn -0.000000 1.000000 0.000000
vn 0.000000 -1.000000 0.000000
vn 0.000000 -1.000000 0.000000
vn 0.000000 -1.000000 0.000000
vn 0.000000 -1.000000 0.000000
vn 0.000000 1.000000 0.000000
vn 0.000000 1.000000 0.000000
vn 0.000000 1.000000 0.000000
vn 0.000000 1.000000 0.000000
vn 0.000000 -1.000000 0.000000
vn 0.000000 -1.000000 0.000000
vn 0.000000 -1.000000 0.000000
vn 0.000000 -1.000000 0.000000
vn 0.000000 1.000000 0.000000
vn 0.000000 1.000000 0.000000
vn 0.000000 1.000000 0.000000
vn 0.000000 1.000000 0.000000
vn 0.000000 -1.000000 0.000000
vn 0.000000 -1.000000 0.000000
vn 0.000000 -1.000000 0.000000
vn 0.000000 -1.000000 0.000000
vn 0.980785 0.000000 0.195090
vn 0.980785 0.000000 0.195090
vn 0.980785 0.000000 0.195090
vn 0.980785 0.000000 0.195090
vn 0.831470 0.000000 0.555570
vn 0.831470 0.000000 0.555570
vn 0.831470 0.000000 0.555570
vn 0.831470 0.000000 0.555570
vn 0.555570 0.000000 0.831470
vn 0.555570 0.000000 0.831470
vn 0.555570 0.000000 0.831470
vn 0.555570 0.000000 0.831470
vn 0.195090 0.000000 0.980785
vn 0.195090 0.000000 0.980785
vn 0.195090 0.000000 0.980785
vn 0.195090 0.000000 0.980785
vn -0.195090 0.000000 0.980785
vn -0.195090 0.000000 0.980785
vn -0.195090 0.000000 0.980785
vn -0.195090 0.000000 0.980785
vn -0.555570 0.000000 0.831470
vn -0.555570 0.000000 0.831470
vn -0.555570 0.000000 0.831470
vn -0.555570 0.000000 0.831470
vn -0.831470 0.000000 0.555570
vn -0.831470 0.000000 0.555570
vn -0.831470 0.000000 0.555570
vn -0.831470 0.000000 0.555570
vn -0.980785 0.000000 0.195090
vn -0.980785 0.000000 0.195090
vn -0.980785 0.000000 0.195090
vn -0.980785 0.000000 0.195090
vn -0.980785 0.000000 -0.195090
vn -0.980785 0.000000 -0.195090
vn -0.980785 0.000000 -0.195090
vn -0.980785 0.000000 -0.195090
vn -0.831470 0.000000 -0.555570
vn -0.831470 0.000000 -0.555570
vn -0.831470 0.000000 -0.555570
vn -0.831470 0.000000 -0.555570
vn -0.555570 0.000000 -0.831470
vn -0.555570 0.000000 -0.831470
vn -0.555570 0.000000 -0.831470
vn -0.555570 0.000000 -0.831470
vn -0.195090 0.000000 -0.980785
vn -0.195090 0.000000 -0.980785
vn -0.195090 0.000000 -0.980785
vn -0.195090 0.000000 -0.980785
vn 0.195090 0.000000 -0.980785
vn 0.195090 0.000000 -0.980785
vn 0.195090 0.000000 -0.980785
vn 0.195090 0.000000 -0.980785
vn 0.555570 0.000000 -0.831470
vn 0.555570 0.000000 -0.831470
vn 0.555570 0.000000 -0.831470
vn 0.555570 0.000000 -0.831470
vn 0.831470 0.000000 -0.555570
vn 0.831470 0.000000 -0.555570
vn 0.831470 0.000000 -0.555570
vn 0.831470 0.000000 -0.555570
vn 0.980785 0.000000 -0.195090
vn 0.980785 0.000000 -0.195090
vn 0.980785 0.000000 -0.195090
vn 0.980785 0.000000 -0.195090
vn 0.000000 1.000000 0.000000
vn 0.000000 1.000000 0.000000
vn 0.000000 1.000000 0.000000
vn 0.000000 -1.000000 0.000000
vn 0.000000 -1.000000 0.000000
vn 0.000000 -1.000000 0.000000
vn 0.000000 1.000000 0.000000
vn 0.000000 1.000000 0.000000
vn 0.000000 1.000000 0.000000
vn 0.000000 -1.000000 0.000000
vn 0.000000 -1.000000 0.000000
vn 0.000000 -1.000000 0.000000
vn 0.000000 1.000000 0.000000
vn 0.000000 1.000000 0.000000
vn 0.000000 1.000000 0.000000
vn 0.000000 -1.000000 0.000000
vn 0.000000 -1.000000 0.000000
vn 0.000000 -1.000000 0.000000
vn 0.000000 1.000000 0.000000
vn 0.000000 1.000000 0.000000
vn 0.000000 1.000000 0.000000
vn 0.000000 -1.000000 0.000000
vn 0.000000 -1.000000 0.000000
vn 0.000000 -1.000000 0.000000
vn -0.000000 1.000000 0.000000
vn -0.000000 1.000000 0.000000
vn -0.000000 1.000000 0.000000
vn 0.000000 -1.000000 0.000000
vn 0.000000 -1.000000 0.000000
vn 0.000000 -1.000000 0.000000
vn -0.000000 1.000000 0.000000
vn -0.000000 1.000000 0.000000
vn -0.000000 1.000000 0.000000
vn 0.000000 -1.000000 0.000000
vn 0.000000 -1.000000 0.000000
vn 0.000000 -1.000000 0.000000
vn -0.000000 1.000000 0.000000
vn -0.000000 1.000000 0.000000
vn -0.000000 1.000000 0.000000
vn 0.000000 -1.000000 0.000000
vn 0.000000 -1.000000 0.000000
vn 0.000000 -1.000000 0.000000
vn -0.000000 1.000000 0.000000
vn -0.000000 1.000000 0.000000
vn -0.000000 1.000000 0.000000
vn 0.000000 -1.000000 0.000000
vn 0.000000 -1.000000 0.000000
vn 0.000000 -1.000000 0.000000
vn 0.000000 1.000000 -0.000000
vn 0.000000 1.000000 -0.000000
vn 0.000000 1.000000 -0.000000
vn -0.000000 -1.000000 0.000000
vn -0.000000 -1.000000 0.000000
vn -0.000000 -1.000000 0.000000
vn 0.000000 1.000000 -0.000000
vn 0.000000 1.000000 -0.000000
vn 0.000000 1.000000 -0.000000
vn 0.000000 -1.000000 0.000000
vn 0.000000 -1.000000 0.000000
vn 0.000000 -1.000000 0.000000
vn 0.000000 1.000000 -0.000000
vn 0.000000 1.000000 -0.000000
vn 0.000000 1.000000 -0.000000
vn 0.000000 -1.000000 0.000000
vn 0.000000 -1.000000 0.000000
vn 0.000000 -1.000000 0.000000
vn 0.000000 1.000000 -0.000000
vn 0.000000 1.000000 -0.000000
vn 0.000000 1.000000 -0.000000
vn 0.000000 -1.000000 0.000000
vn 0.000000 -1.000000 0.000000
vn 0.000000 -1.000000 0.000000
vn 0.000000 1.000000 0.000000
vn 0.000000 1.000000 0.000000
vn 0.000000 1.000000 0.000000
vn 0.000000 -1.000000 -0.000000
vn 0.000000 -1.000000 -0.000000
vn 0.000000 -1.000000 -0.000000
vn 0.000000 1.000000 0.000000
vn 0.000000 1.000000 0.000000
vn 0.000000 1.000000 0.000000
vn 0.000000 -1.000000 0.000000
vn 0.000000 -1.000000 0.000000
vn 0.000000 -1.000000 0.000000
vn 0.000000 1.000000 0.000000
vn 0.000000 1.000000 0.000000
vn 0.000000 1.000000 0.000000
vn 0.000000 -1.000000 0.000000
vn 0.000000 -1.000000 0.000000
vn 0.000000 -1.000000 0.000000
vn 0.000000 1.000000 0.000000
vn 0.000000 1.000000 0.000000
vn 0.000000 1.000000 0.000000
vn 0.000000 -1.000000 0.000000
vn 0.000000 -1.000000 0.000000
vn 0.000000 -1.000000 0.000000
vn 0.198669 0.000000 -0.980067
vn 0.198669 0.000000 -0.980067
vn 0.198669 0.000000 -0.980067
vn 0.198669 0.000000 -0.980067
vn -0.198669 0.000000 0.980067
vn -0.198669 0.000000 0.980067
vn -0.198669 0.000000 0.980067
vn -0.198669 0.000000 0.980067
vn -0.980067 0.000000 -0.198669
vn -0.980067 0.000000 -0.198669
vn -0.980067 0.000000 -0.198669
vn -0.980067 0.000000 -0.198669
vn 0.980067 0.000000 0.198669
vn 0.980067 0.000000 0.198669
vn 0.980067 0.000000 0.198669
vn 0.980067 0.000000 0.198669
vn 0.000000 1.000000 -0.000000
vn 0.000000 1.000000 -0.000000
vn 0.000000 1.000000 -0.000000
vn 0.000000 1.000000 -0.000000
vn 0.000000 -1.000000 0.000000
vn 0.000000 -1.000000 0.000000
vn 0.000000 -1.000000 0.000000
vn 0.000000 -1.000000 0.000000
vn 0.833492 0.000000 -0.552531
vn 0.833492 0.000000 -0.552531
vn 0.833492 0.000000 -0.552531
vn 0.833492 0.000000 -0.552531
vn -0.833492 0.000000 0.552531
vn -0.833492 0.000000 0.552531
vn -0.833492 0.000000 0.552531
vn -0.833492 0.000000 0.552531
vn -0.552531 0.000000 -0.833492
vn -0.552531 0.000000 -0.833492
vn -0.552531 0.000000 -0.833492
vn -0.552531 0.000000 -0.833492
vn 0.552531 0.000000 0.833492
vn 0.552531 0.000000 0.833492
vn 0.552531 0.000000 0.833492
vn 0.552531 0.000000 0.833492
vn 0.000000 1.000000 0.000000
vn 0.000000 1.000000 0.000000
vn 0.000000 1.000000 0.000000
vn 0.000000 1.000000 0.000000
vn 0.000000 -1.000000 0.000000
vn 0.000000 -1.000000 0.000000
vn 0.000000 -1.000000 0.000000
vn 0.000000 -1.000000 0.000000
vn 0.980067 0.000000 0.198669
vn 0.980067 0.000000 0.198669
vn 0.980067 0.000000 0.198669
vn 0.980067 0.000000 0.198669
vn -0.980067 0.000000 -0.198669
vn -0.980067 0.000000 -0.198669
vn -0.980067 0.000000 -0.198669
vn -0.980067 0.000000 -0.198669
vn 0.198669 0.000000 -0.980067
vn 0.198669 0.000000 -0.980067
vn 0.198669 0.000000 -0.980067
vn 0.198669 0.000000 -0.980067
vn -0.198669 0.000000 0.980067
vn -0.198669 0.000000 0.980067
vn -0.198669 0.000000 0.980067
vn -0.198669 0.000000 0.980067
vn 0.000000 1.000000 0.000000
vn 0.000000 1.000000 0.000000
vn 0.000000 1.000000 0.000000
vn 0.000000 1.000000 0.000000
vn 0.000000 -1.000000 0.000000
vn 0.000000 -1.000000 0.000000
vn 0.000000 -1.000000 0.000000
vn 0.000000 -1.000000 0.000000
vn 0.552531 0.000000 0.833492
vn 0.552531 0.000000 0.833492
vn 0.552531 0.000000 0.833492
vn 0.552531 0.000000 0.833492
vn -0.552531 0.000000 -0.833492
vn -0.552531 0.000000 -0.833492
vn -0.552531 0.000000 -0.833492
vn -0.552531 0.000000 -0.833492
vn 0.833492 0.000000 -0.552531
vn 0.833492 0.000000 -0.552531
vn 0.833492 0.000000 -0.552531
vn 0.833492 0.000000 -0.552531
vn -0.833492 0.000000 0.552531
vn -0.833492 0.000000 0.552531
vn -0.833492 0.000000 0.552531
vn -0.833492 0.000000 0.552531
vn 0.000000 1.000000 0.000000
vn 0.000000 1.000000 0.000000
vn 0.000000 1.000000 0.000000
vn 0.000000 1.000000 0.000000
vn -0.000000 -1.000000 0.000000
vn -0.000000 -1.000000 0.000000
vn -0.000000 -1.000000 0.000000
vn -0.000000 -1.000000 0.000000
vn -0.198669 0.000000 0.980067
vn -0.198669 0.000000 0.980067
vn -0.198669 0.000000 0.980067
vn -0.198669 0.000000 0.980067
vn 0.198669 0.000000 -0.980067
vn 0.198669 0.000000 -0.980067
vn 0.198669 0.000000 -0.980067
vn 0.198669 0.000000 -0.980067
vn 0.980067 0.000000 0.198669
vn 0.980067 0.000000 0.198669
vn 0.980067 0.000000 0.198669
vn 0.980067 0.000000 0.198669
vn -0.980067 0.000000 -0.198669
vn -0.980067 0.000000 -0.198669
vn -0.980067 0.000000 -0.198669
vn -0.980067 0.000000 -0.198669
vn 0.000000 1.000000 0.000000
vn 0.000000 1.000000 0.000000
vn 0.000000 1.000000 0.000000
vn 0.000000 1.000000 0.000000
vn 0.000000 -1.000000 0.000000
vn 0.000000 -1.000000 0.000000
vn 0.000000 -1.000000 0.000000
vn 0.000000 -1.000000 0.000000
vn -0.833492 0.000000 0.552531
vn -0.833492 0.000000 0.552531
vn -0.833492 0.000000 0.552531
vn -0.833492 0.000000 0.552531
vn 0.833492 0.000000 -0.552531
vn 0.833492 0.000000 -0.552531
vn 0.833492 0.000000 -0.552531
vn 0.833492 0.000000 -0.552531
vn 0.552531 0.000000 0.833492
vn 0.552531 0.000000 0.833492
vn 0.552531 0.000000 0.833492
vn 0.552531 0.000000 0.833492
vn -0.552531 0.000000 -0.833492
vn -0.552531 0.000000 -0.833492
vn -0.552531 0.000000 -0.833492
vn -0.552531 0.000000 -0.833492
vn 0.000000 1.000000 0.000000
vn 0.000000 1.000000 0.000000
vn 0.000000 1.000000 0.000000
vn 0.000000 1.000000 0.000000
vn 0.000000 -1.000000 -0.000000
vn 0.000000 -1.000000 -0.000000
vn 0.000000 -1.000000 -0.000000
vn 0.000000 -1.000000 -0.000000
vn -0.980067 0.000000 -0.198669
vn -0.980067 0.000000 -0.198669
vn -0.980067 0.000000 -0.198669
vn -0.980067 0.000000 -0.198669
vn 0.980067 0.000000 0.198669
vn 0.980067 0.000000 0.198669
vn 0.980067 0.000000 0.198669
vn 0.980067 0.000000 0.198669
vn -0.198669 0.000000 0.980067
vn -0.198669 0.000000 0.980067
vn -0.198669 0.000000 0.980067
vn -0.198669 0.000000 0.980067
vn 0.198669 0.000000 -0.980067
vn 0.198669 0.000000 -0.980067
vn 0.198669 0.000000 -0.980067
vn 0.198669 0.000000 -0.980067
vn -0.000000 1.000000 0.000000
vn -0.000000 1.000000 0.000000
vn -0.000000 1.000000 0.000000
vn -0.000000 1.000000 0.000000
vn 0.000000 -1.000000 0.000000
vn 0.000000 -1.000000 0.000000
vn 0.000000 -1.000000 0.000000
vn 0.000000 -1.000000 0.000000
vn -0.552531 0.000000 -0.833492
vn -0.552531 0.000000 -0.833492
vn -0.552531 0.000000 -0.833492
vn -0.552531 0.000000 -0.833492
vn 0.552531 0.000000 0.833492
vn 0.552531 0.000000 0.833492
vn 0.552531 0.000000 0.833492
vn 0.552531 0.000000 0.833492
vn -0.833492 0.000000 0.552531
vn -0.833492 0.000000 0.552531
vn -0.833492 0.000000 0.552531
vn -0.833492 0.000000 0.552531
vn 0.833492 0.000000 -0.552531
vn 0.833492 0.000000 -0.552531
vn 0.833492 0.000000 -0.552531
vn 0.833492 0.000000 -0.552531
vn 0.000000 1.000000 0.000000
vn 0.000000 1.000000 0.000000
vn 0.000000 1.000000 0.000000
vn 0.000000 1.000000 0.000000
vn 0.000000 -1.000000 0.000000
vn 0.000000 -1.000000 0.000000
vn 0.000000 -1.000000 0.000000
vn 0.000000 -1.000000 0.000000
usemtl basalt_side
f 1/1/1 2/2/2 3/3/3 4/4/4
f 5/5/5 6/6/6 7/7/7 8/8/8
f 9/9/9 10/10/10 11/11/11 12/12/12
f 13/13/13 14/14/14 15/15/15 16/16/16
f 17/17/17 18/18/18 19/19/19 20/20/20
f 21/21/21 22/22/22 23/23/23 24/24/24
f 25/25/25 26/26/26 27/27/27 28/28/28
f 29/29/29 30/30/30 31/31/31 32/32/32
f 33/33/33 34/34/34 35/35/35 36/36/36
f 37/37/37 38/38/38 39/39/39 40/40/40
f 41/41/41 42/42/42 43/43/43 44/44/44
f 45/45/45 46/46/46 47/47/47 48/48/48
f 49/49/49 50/50/50 51/51/51 52/52/52
f 53/53/53 54/54/54 55/55/55 56/56/56
f 57/57/57 58/58/58 59/59/59 60/60/60
f 61/61/61 62/62/62 63/63/63 64/64/64
f 65/65/65 66/66/66 67/67/67 68/68/68
f 69/69/69 70/70/70 71/71/71 72/72/72
f 73/73/73 74/74/74 75/75/75 76/76/76
f 77/77/77 78/78/78 79/79/79 80/80/80
f 81/81/81 82/82/82 83/83/83 84/84/84
f 85/85/85 86/86/86 87/87/87 88/88/88
f 89/89/89 90/90/90 91/91/91 92/92/92
f 93/93/93 94/94/94 95/95/95 96/96/96
f 97/97/97 98/98/98 99/99/99 100/100/100
f 101/101/101 102/102/102 103/103/103 104/104/104
f 105/105/105 106/106/106 107/107/107 108/108/108
f 109/109/109 110/110/110 111/111/111 112/112/112
f 113/113/113 114/114/114 115/115/115 116/116/116
f 117/117/117 118/118/118 119/119/119 120/120/120
f 121/121/121 122/122/122 123/123/123 124/124/124
f 125/125/125 126/126/126 127/127/127 128/128/128
f 129/129/129 130/130/130 131/131/131 132/132/132
f 133/133/133 134/134/134 135/135/135 136/136/136
f 137/137/137 138/138/138 139/139/139 140/140/140
f 141/141/141 142/142/142 143/143/143 144/144/144
f 145/145/145 146/146/146 147/147/147 148/148/148
f 149/149/149 150/150/150 151/151/151 152/152/152
f 153/153/153 154/154/154 155/155/155 156/156/156
f 157/157/157 158/158/158 159/159/159 160/160/160
f 161/161/161 162/162/162 163/163/163 164/164/164
f 165/165/165 166/166/166 167/167/167 168/168/168
f 169/169/169 170/170/170 171/171/171 172/172/172
f 173/173/173 174/174/174 175/175/175 176/176/176
f 177/177/177 178/178/178 179/179/179 180/180/180
f 181/181/181 182/182/182 183/183/183 184/184/184
f 185/185/185 186/186/186 187/187/187 188/188/188
f 189/189/189 190/190/190 191/191/191 192/192/192
f 193/193/193 194/194/194 195/195/195 196/196/196
f 197/197/197 198/198/198 199/199/199 200/200/200
f 201/201/201 202/202/202 203/203/203 204/204/204
f 205/205/205 206/206/206 207/207/207 208/208/208
f 209/209/209 210/210/210 211/211/211 212/212/212
f 213/213/213 214/214/214 215/215/215 216/216/216
f 217/217/217 218/218/218 219/219/219 220/220/220
f 221/221/221 222/222/222 223/223/223 224/224/224
f 225/225/225 226/226/226 227/227/227 228/228/228
f 229/229/229 230/230/230 231/231/231 232/232/232
f 233/233/233 234/234/234 235/235/235 236/236/236
f 237/237/237 238/238/238 239/239/239 240/240/240
f 241/241/241 242/242/242 243/243/243 244/244/244
f 245/245/245 246/246/246 247/247/247 248/248/248
f 249/249/249 250/250/250 251/251/251 252/252/252
f 253/253/253 254/254/254 255/255/255 256/256/256
usemtl magma
f 257/257/257 258/258/258 259/259/259 260/260/260
f 261/261/261 262/262/262 263/263/263 264/264/264
f 265/265/265 266/266/266 267/267/267 268/268/268
f 269/269/269 270/270/270 271/271/271 272/272/272
f 273/273/273 274/274/274 275/275/275 276/276/276
f 277/277/277 278/278/278 279/279/279 280/280/280
f 281/281/281 282/282/282 283/283/283 284/284/284
f 285/285/285 286/286/286 287/287/287 288/288/288
f 289/289/289 290/290/290 291/291/291 292/292/292
f 293/293/293 294/294/294 295/295/295 296/296/296
f 297/297/297 298/298/298 299/299/299 300/300/300
f 301/301/301 302/302/302 303/303/303 304/304/304
f 305/305/305 306/306/306 307/307/307 308/308/308
f 309/309/309 310/310/310 311/311/311 312/312/312
f 313/313/313 314/314/314 315/315/315 316/316/316
f 317/317/317 318/318/318 319/319/319 320/320/320
f 321/321/321 322/322/322 323/323/323
f 324/324/324 325/325/325 326/326/326
f 327/327/327 328/328/328 329/329/329
f 330/330/330 331/331/331 332/332/332
f 333/333/333 334/334/334 335/335/335
f 336/336/336 337/337/337 338/338/338
f 339/339/339 340/340/340 341/341/341
f 342/342/342 343/343/343 344/344/344
f 345/345/345 346/346/346 347/347/347
f 348/348/348 349/349/349 350/350/350
f 351/351/351 352/352/352 353/353/353
f 354/354/354 355/355/355 356/356/356
f 357/357/357 358/358/358 359/359/359
f 360/360/360 361/361/361 362/362/362
f 363/363/363 364/364/364 365/365/365
f 366/366/366 367/367/367 368/368/368
f 369/369/369 370/370/370 371/371/371
f 372/372/372 373/373/373 374/374/374
f 375/375/375 376/376/376 377/377/377
f 378/378/378 379/379/379 380/380/380
f 381/381/381 382/382/382 383/383/383
f 384/384/384 385/385/385 386/386/386
f 387/387/387 388/388/388 389/389/389
f 390/390/390 391/391/391 392/392/392
f 393/393/393 394/394/394 395/395/395
f 396/396/396 397/397/397 398/398/398
f 399/399/399 400/400/400 401/401/401
f 402/402/402 403/403/403 404/404/404
f 405/405/405 406/406/406 407/407/407
f 408/408/408 409/409/409 410/410/410
f 411/411/411 412/412/412 413/413/413
f 414/414/414 415/415/415 416/416/416
usemtl basalt_top
f 417/417/417 418/418/418 419/419/419 420/420/420
f 421/421/421 422/422/422 423/423/423 424/424/424
f 425/425/425 426/426/426 427/427/427 428/428/428
f 429/429/429 430/430/430 431/431/431 432/432/432
f 433/433/433 434/434/434 435/435/435 436/436/436
f 437/437/437 438/438/438 439/439/439 440/440/440
usemtl obsidian
f 441/441/441 442/442/442 443/443/443 444/444/444
f 445/445/445 446/446/446 447/447/447 448/448/448
f 449/449/449 450/450/450 451/451/451 452/452/452
f 453/453/453 454/454/454 455/455/455 456/456/456
f 457/457/457 458/458/458 459/459/459 460/460/460
f 461/461/461 462/462/462 463/463/463 464/464/464
usemtl basalt_top
f 465/465/465 466/466/466 467/467/467 468/468/468
f 469/469/469 470/470/470 471/471/471 472/472/472
f 473/473/473 474/474/474 475/475/475 476/476/476
f 477/477/477 478/478/478 479/479/479 480/480/480
f 481/481/481 482/482/482 483/483/483 484/484/484
f 485/485/485 486/486/486 487/487/487 488/488/488
usemtl obsidian
f 489/489/489 490/490/490 491/491/491 492/492/492
f 493/493/493 494/494/494 495/495/495 496/496/496
f 497/497/497 498/498/498 499/499/499 500/500/500
f 501/501/501 502/502/502 503/503/503 504/504/504
f 505/505/505 506/506/506 507/507/507 508/508/508
f 509/509/509 510/510/510 511/511/511 512/512/512
usemtl basalt_top
f 513/513/513 514/514/514 515/515/515 516/516/516
f 517/517/517 518/518/518 519/519/519 520/520/520
f 521/521/521 522/522/522 523/523/523 524/524/524
f 525/525/525 526/526/526 527/527/527 528/528/528
f 529/529/529 530/530/530 531/531/531 532/532/532
f 533/533/533 534/534/534 535/535/535 536/536/536
usemtl obsidian
f 537/537/537 538/538/538 539/539/539 540/540/540
f 541/541/541 542/542/542 543/543/543 544/544/544
f 545/545/545 546/546/546 547/547/547 548/548/548
f 549/549/549 550/550/550 551/551/551 552/552/552
f 553/553/553 554/554/554 555/555/555 556/556/556
f 557/557/557 558/558/558 559/559/559 560/560/560
usemtl basalt_top
f 561/561/561 562/562/562 563/563/563 564/564/564
f 565/565/565 566/566/566 567/567/567 568/568/568
f 569/569/569 570/570/570 571/571/571 572/572/572
f 573/573/573 574/574/574 575/575/575 576/576/576
f 577/577/577 578/578/578 579/579/579 580/580/580
f 581/581/581 582/582/582 583/583/583 584/584/584
usemtl obsidian
f 585/585/585 586/586/586 587/587/587 588/588/588
f 589/589/589 590/590/590 591/591/591 592/592/592
f 593/593/593 594/594/594 595/595/595 596/596/596
f 597/597/597 598/598/598 599/599/599 600/600/600
f 601/601/601 602/602/602 603/603/603 604/604/604
f 605/605/605 606/606/606 607/607/607 608/608/608
