mtllib star_hook_anchor.mtl
o star_hook_anchor
v 1.050000 0.000000 0.000000
v 1.011924 0.000000 0.091924
v 0.920000 0.000000 0.130000
v 0.828076 0.000000 0.091924
v 0.790000 0.000000 0.000000
v 0.828076 0.000000 -0.091924
v 0.920000 0.000000 -0.130000
v 1.011924 0.000000 -0.091924
v 1.029825 0.204845 0.000000
v 0.992480 0.197417 0.091924
v 0.902322 0.179483 0.130000
v 0.812165 0.161550 0.091924
v 0.774820 0.154121 0.000000
v 0.812165 0.161550 -0.091924
v 0.902322 0.179483 -0.130000
v 0.992480 0.197417 -0.091924
v 0.970074 0.401818 0.000000
v 0.934896 0.387247 0.091924
v 0.849969 0.352069 0.130000
v 0.765043 0.316891 0.091924
v 0.729865 0.302320 0.000000
v 0.765043 0.316891 -0.091924
v 0.849969 0.352069 -0.130000
v 0.934896 0.387247 -0.091924
v 0.873043 0.583349 0.000000
v 0.841384 0.562195 0.091924
v 0.764952 0.511125 0.130000
v 0.688520 0.460054 0.091924
v 0.656861 0.438900 0.000000
v 0.688520 0.460054 -0.091924
v 0.764952 0.511125 -0.130000
v 0.841384 0.562195 -0.091924
v 0.742462 0.742462 0.000000
v 0.715538 0.715538 0.091924
v 0.650538 0.650538 0.130000
v 0.585538 0.585538 0.091924
v 0.558614 0.558614 0.000000
v 0.585538 0.585538 -0.091924
v 0.650538 0.650538 -0.130000
v 0.715538 0.715538 -0.091924
v 0.583349 0.873043 0.000000
v 0.562195 0.841384 0.091924
v 0.511125 0.764952 0.130000
v 0.460054 0.688520 0.091924
v 0.438900 0.656861 0.000000
v 0.460054 0.688520 -0.091924
v 0.511125 0.764952 -0.130000
v 0.562195 0.841384 -0.091924
v 0.401818 0.970074 0.000000
v 0.387247 0.934896 0.091924
v 0.352069 0.849969 0.130000
v 0.316891 0.765043 0.091924
v 0.302320 0.729865 0.000000
v 0.316891 0.765043 -0.091924
v 0.352069 0.849969 -0.130000
v 0.387247 0.934896 -0.091924
v 0.204845 1.029825 0.000000
v 0.197417 0.992480 0.091924
v 0.179483 0.902322 0.130000
v 0.161550 0.812165 0.091924
v 0.154121 0.774820 0.000000
v 0.161550 0.812165 -0.091924
v 0.179483 0.902322 -0.130000
v 0.197417 0.992480 -0.091924
v 0.000000 1.050000 0.000000
v 0.000000 1.011924 0.091924
v 0.000000 0.920000 0.130000
v 0.000000 0.828076 0.091924
v 0.000000 0.790000 0.000000
v 0.000000 0.828076 -0.091924
v 0.000000 0.920000 -0.130000
v 0.000000 1.011924 -0.091924
v -0.204845 1.029825 0.000000
v -0.197417 0.992480 0.091924
v -0.179483 0.902322 0.130000
v -0.161550 0.812165 0.091924
v -0.154121 0.774820 0.000000
v -0.161550 0.812165 -0.091924
v -0.179483 0.902322 -0.130000
v -0.197417 0.992480 -0.091924
v -0.401818 0.970074 0.000000
v -0.387247 0.934896 0.091924
v -0.352069 0.849969 0.130000
v -0.316891 0.765043 0.091924
v -0.302320 0.729865 0.000000
v -0.316891 0.765043 -0.091924
v -0.352069 0.849969 -0.130000
v -0.387247 0.934896 -0.091924
v -0.583349 0.873043 0.000000
v -0.562195 0.841384 0.091924
v -0.511125 0.764952 0.130000
v -0.460054 0.688520 0.091924
v -0.438900 0.656861 0.000000
v -0.460054 0.688520 -0.091924
v -0.511125 0.764952 -0.130000
v -0.562195 0.841384 -0.091924
v -0.742462 0.742462 0.000000
v -0.715538 0.715538 0.091924
v -0.650538 0.650538 0.130000
v -0.585538 0.585538 0.091924
v -0.558614 0.558614 0.000000
v -0.585538 0.585538 -0.091924
v -0.650538 0.650538 -0.130000
v -0.715538 0.715538 -0.091924
v -0.873043 0.583349 0.000000
v -0.841384 0.562195 0.091924
v -0.764952 0.511125 0.130000
v -0.688520 0.460054 0.091924
v -0.656861 0.438900 0.000000
v -0.688520 0.460054 -0.091924
v -0.764952 0.511125 -0.130000
v -0.841384 0.562195 -0.091924
v -0.970074 0.401818 0.000000
v -0.934896 0.387247 0.091924
v -0.849969 0.352069 0.130000
v -0.765043 0.316891 0.091924
v -0.729865 0.302320 0.000000
v -0.765043 0.316891 -0.091924
v -0.849969 0.352069 -0.130000
v -0.934896 0.387247 -0.091924
v -1.029825 0.204845 0.000000
v -0.992480 0.197417 0.091924
v -0.902322 0.179483 0.130000
v -0.812165 0.161550 0.091924
v -0.774820 0.154121 0.000000
v -0.812165 0.161550 -0.091924
v -0.902322 0.179483 -0.130000
v -0.992480 0.197417 -0.091924
v -1.050000 0.000000 0.000000
v -1.011924 0.000000 0.091924
v -0.920000 0.000000 0.130000
v -0.828076 0.000000 0.091924
v -0.790000 0.000000 0.000000
v -0.828076 0.000000 -0.091924
v -0.920000 0.000000 -0.130000
v -1.011924 0.000000 -0.091924
v -1.029825 -0.204845 0.000000
v -0.992480 -0.197417 0.091924
v -0.902322 -0.179483 0.130000
v -0.812165 -0.161550 0.091924
v -0.774820 -0.154121 0.000000
v -0.812165 -0.161550 -0.091924
v -0.902322 -0.179483 -0.130000
v -0.992480 -0.197417 -0.091924
v -0.970074 -0.401818 0.000000
v -0.934896 -0.387247 0.091924
v -0.849969 -0.352069 0.130000
v -0.765043 -0.316891 0.091924
v -0.729865 -0.302320 0.000000
v -0.765043 -0.316891 -0.091924
v -0.849969 -0.352069 -0.130000
v -0.934896 -0.387247 -0.091924
v -0.873043 -0.583349 0.000000
v -0.841384 -0.562195 0.091924
v -0.764952 -0.511125 0.130000
v -0.688520 -0.460054 0.091924
v -0.656861 -0.438900 0.000000
v -0.688520 -0.460054 -0.091924
v -0.764952 -0.511125 -0.130000
v -0.841384 -0.562195 -0.091924
v -0.742462 -0.742462 0.000000
v -0.715538 -0.715538 0.091924
v -0.650538 -0.650538 0.130000
v -0.585538 -0.585538 0.091924
v -0.558614 -0.558614 0.000000
v -0.585538 -0.585538 -0.091924
v -0.650538 -0.650538 -0.130000
v -0.715538 -0.715538 -0.091924
v -0.583349 -0.873043 0.000000
v -0.562195 -0.841384 0.091924
v -0.511125 -0.764952 0.130000
v -0.460054 -0.688520 0.091924
v -0.438900 -0.656861 0.000000
v -0.460054 -0.688520 -0.091924
v -0.511125 -0.764952 -0.130000
v -0.562195 -0.841384 -0.091924
v -0.401818 -0.970074 0.000000
v -0.387247 -0.934896 0.091924
v -0.352069 -0.849969 0.130000
v -0.316891 -0.765043 0.091924
v -0.302320 -0.729865 0.000000
v -0.316891 -0.765043 -0.091924
v -0.352069 -0.849969 -0.130000
v -0.387247 -0.934896 -0.091924
v -0.204845 -1.029825 0.000000
v -0.197417 -0.992480 0.091924
v -0.179483 -0.902322 0.130000
v -0.161550 -0.812165 0.091924
v -0.154121 -0.774820 0.000000
v -0.161550 -0.812165 -0.091924
v -0.179483 -0.902322 -0.130000
v -0.197417 -0.992480 -0.091924
v -0.000000 -1.050000 0.000000
v -0.000000 -1.011924 0.091924
v -0.000000 -0.920000 0.130000
v -0.000000 -0.828076 0.091924
v -0.000000 -0.790000 0.000000
v -0.000000 -0.828076 -0.091924
v -0.000000 -0.920000 -0.130000
v -0.000000 -1.011924 -0.091924
v 0.204845 -1.029825 0.000000
v 0.197417 -0.992480 0.091924
v 0.179483 -0.902322 0.130000
v 0.161550 -0.812165 0.091924
v 0.154121 -0.774820 0.000000
v 0.161550 -0.812165 -0.091924
v 0.179483 -0.902322 -0.130000
v 0.197417 -0.992480 -0.091924
v 0.401818 -0.970074 0.000000
v 0.387247 -0.934896 0.091924
v 0.352069 -0.849969 0.130000
v 0.316891 -0.765043 0.091924
v 0.302320 -0.729865 0.000000
v 0.316891 -0.765043 -0.091924
v 0.352069 -0.849969 -0.130000
v 0.387247 -0.934896 -0.091924
v 0.583349 -0.873043 0.000000
v 0.562195 -0.841384 0.091924
v 0.511125 -0.764952 0.130000
v 0.460054 -0.688520 0.091924
v 0.438900 -0.656861 0.000000
v 0.460054 -0.688520 -0.091924
v 0.511125 -0.764952 -0.130000
v 0.562195 -0.841384 -0.091924
v 0.742462 -0.742462 0.000000
v 0.715538 -0.715538 0.091924
v 0.650538 -0.650538 0.130000
v 0.585538 -0.585538 0.091924
v 0.558614 -0.558614 0.000000
v 0.585538 -0.585538 -0.091924
v 0.650538 -0.650538 -0.130000
v 0.715538 -0.715538 -0.091924
v 0.873043 -0.583349 0.000000
v 0.841384 -0.562195 0.091924
v 0.764952 -0.511125 0.130000
v 0.688520 -0.460054 0.091924
v 0.656861 -0.438900 0.000000
v 0.688520 -0.460054 -0.091924
v 0.764952 -0.511125 -0.130000
v 0.841384 -0.562195 -0.091924
v 0.970074 -0.401818 0.000000
v 0.934896 -0.387247 0.091924
v 0.849969 -0.352069 0.130000
v 0.765043 -0.316891 0.091924
v 0.729865 -0.302320 0.000000
v 0.765043 -0.316891 -0.091924
v 0.849969 -0.352069 -0.130000
v 0.934896 -0.387247 -0.091924
v 1.029825 -0.204845 0.000000
v 0.992480 -0.197417 0.091924
v 0.902322 -0.179483 0.130000
v 0.812165 -0.161550 0.091924
v 0.774820 -0.154121 0.000000
v 0.812165 -0.161550 -0.091924
v 0.902322 -0.179483 -0.130000
v 0.992480 -0.197417 -0.091924
v 0.000000 0.620000 -0.100000
v -0.182213 0.250795 -0.100000
v -0.589655 0.191591 -0.100000
v -0.294828 -0.095795 -0.100000
v -0.364427 -0.501591 -0.100000
v -0.000000 -0.310000 -0.100000
v 0.364427 -0.501591 -0.100000
v 0.294828 -0.095795 -0.100000
v 0.589655 0.191591 -0.100000
v 0.182213 0.250795 -0.100000
v 0.000000 0.620000 0.100000
v -0.182213 0.250795 0.100000
v -0.589655 0.191591 0.100000
v -0.294828 -0.095795 0.100000
v -0.364427 -0.501591 0.100000
v -0.000000 -0.310000 0.100000
v 0.364427 -0.501591 0.100000
v 0.294828 -0.095795 0.100000
v 0.589655 0.191591 0.100000
v 0.182213 0.250795 0.100000
v 0.160000 -0.180000 0.000000
v 0.160000 0.180000 0.000000
v 0.138564 -0.180000 0.080000
v 0.138564 0.180000 0.080000
v 0.080000 -0.180000 0.138564
v 0.080000 0.180000 0.138564
v 0.000000 -0.180000 0.160000
v 0.000000 0.180000 0.160000
v -0.080000 -0.180000 0.138564
v -0.080000 0.180000 0.138564
v -0.138564 -0.180000 0.080000
v -0.138564 0.180000 0.080000
v -0.160000 -0.180000 0.000000
v -0.160000 0.180000 0.000000
v -0.138564 -0.180000 -0.080000
v -0.138564 0.180000 -0.080000
v -0.080000 -0.180000 -0.138564
v -0.080000 0.180000 -0.138564
v -0.000000 -0.180000 -0.160000
v -0.000000 0.180000 -0.160000
v 0.080000 -0.180000 -0.138564
v 0.080000 0.180000 -0.138564
v 0.138564 -0.180000 -0.080000
v 0.138564 0.180000 -0.080000
v 0.000000 -0.180000 0.000000
v 0.000000 0.180000 0.000000
v 0.000000 -0.000000 0.100000
v 0.000000 -0.000000 -0.100000
usemtl hook_ring
f 1 9 10 2
f 2 10 11 3
f 3 11 12 4
f 4 12 13 5
f 5 13 14 6
f 6 14 15 7
f 7 15 16 8
f 8 16 9 1
f 9 17 18 10
f 10 18 19 11
f 11 19 20 12
f 12 20 21 13
f 13 21 22 14
f 14 22 23 15
f 15 23 24 16
f 16 24 17 9
f 17 25 26 18
f 18 26 27 19
f 19 27 28 20
f 20 28 29 21
f 21 29 30 22
f 22 30 31 23
f 23 31 32 24
f 24 32 25 17
f 25 33 34 26
f 26 34 35 27
f 27 35 36 28
f 28 36 37 29
f 29 37 38 30
f 30 38 39 31
f 31 39 40 32
f 32 40 33 25
f 33 41 42 34
f 34 42 43 35
f 35 43 44 36
f 36 44 45 37
f 37 45 46 38
f 38 46 47 39
f 39 47 48 40
f 40 48 41 33
f 41 49 50 42
f 42 50 51 43
f 43 51 52 44
f 44 52 53 45
f 45 53 54 46
f 46 54 55 47
f 47 55 56 48
f 48 56 49 41
f 49 57 58 50
f 50 58 59 51
f 51 59 60 52
f 52 60 61 53
f 53 61 62 54
f 54 62 63 55
f 55 63 64 56
f 56 64 57 49
f 57 65 66 58
f 58 66 67 59
f 59 67 68 60
f 60 68 69 61
f 61 69 70 62
f 62 70 71 63
f 63 71 72 64
f 64 72 65 57
f 65 73 74 66
f 66 74 75 67
f 67 75 76 68
f 68 76 77 69
f 69 77 78 70
f 70 78 79 71
f 71 79 80 72
f 72 80 73 65
f 73 81 82 74
f 74 82 83 75
f 75 83 84 76
f 76 84 85 77
f 77 85 86 78
f 78 86 87 79
f 79 87 88 80
f 80 88 81 73
f 81 89 90 82
f 82 90 91 83
f 83 91 92 84
f 84 92 93 85
f 85 93 94 86
f 86 94 95 87
f 87 95 96 88
f 88 96 89 81
f 89 97 98 90
f 90 98 99 91
f 91 99 100 92
f 92 100 101 93
f 93 101 102 94
f 94 102 103 95
f 95 103 104 96
f 96 104 97 89
f 97 105 106 98
f 98 106 107 99
f 99 107 108 100
f 100 108 109 101
f 101 109 110 102
f 102 110 111 103
f 103 111 112 104
f 104 112 105 97
f 105 113 114 106
f 106 114 115 107
f 107 115 116 108
f 108 116 117 109
f 109 117 118 110
f 110 118 119 111
f 111 119 120 112
f 112 120 113 105
f 113 121 122 114
f 114 122 123 115
f 115 123 124 116
f 116 124 125 117
f 117 125 126 118
f 118 126 127 119
f 119 127 128 120
f 120 128 121 113
f 121 129 130 122
f 122 130 131 123
f 123 131 132 124
f 124 132 133 125
f 125 133 134 126
f 126 134 135 127
f 127 135 136 128
f 128 136 129 121
f 129 137 138 130
f 130 138 139 131
f 131 139 140 132
f 132 140 141 133
f 133 141 142 134
f 134 142 143 135
f 135 143 144 136
f 136 144 137 129
f 137 145 146 138
f 138 146 147 139
f 139 147 148 140
f 140 148 149 141
f 141 149 150 142
f 142 150 151 143
f 143 151 152 144
f 144 152 145 137
f 145 153 154 146
f 146 154 155 147
f 147 155 156 148
f 148 156 157 149
f 149 157 158 150
f 150 158 159 151
f 151 159 160 152
f 152 160 153 145
f 153 161 162 154
f 154 162 163 155
f 155 163 164 156
f 156 164 165 157
f 157 165 166 158
f 158 166 167 159
f 159 167 168 160
f 160 168 161 153
f 161 169 170 162
f 162 170 171 163
f 163 171 172 164
f 164 172 173 165
f 165 173 174 166
f 166 174 175 167
f 167 175 176 168
f 168 176 169 161
f 169 177 178 170
f 170 178 179 171
f 171 179 180 172
f 172 180 181 173
f 173 181 182 174
f 174 182 183 175
f 175 183 184 176
f 176 184 177 169
f 177 185 186 178
f 178 186 187 179
f 179 187 188 180
f 180 188 189 181
f 181 189 190 182
f 182 190 191 183
f 183 191 192 184
f 184 192 185 177
f 185 193 194 186
f 186 194 195 187
f 187 195 196 188
f 188 196 197 189
f 189 197 198 190
f 190 198 199 191
f 191 199 200 192
f 192 200 193 185
f 193 201 202 194
f 194 202 203 195
f 195 203 204 196
f 196 204 205 197
f 197 205 206 198
f 198 206 207 199
f 199 207 208 200
f 200 208 201 193
f 201 209 210 202
f 202 210 211 203
f 203 211 212 204
f 204 212 213 205
f 205 213 214 206
f 206 214 215 207
f 207 215 216 208
f 208 216 209 201
f 209 217 218 210
f 210 218 219 211
f 211 219 220 212
f 212 220 221 213
f 213 221 222 214
f 214 222 223 215
f 215 223 224 216
f 216 224 217 209
f 217 225 226 218
f 218 226 227 219
f 219 227 228 220
f 220 228 229 221
f 221 229 230 222
f 222 230 231 223
f 223 231 232 224
f 224 232 225 217
f 225 233 234 226
f 226 234 235 227
f 227 235 236 228
f 228 236 237 229
f 229 237 238 230
f 230 238 239 231
f 231 239 240 232
f 232 240 233 225
f 233 241 242 234
f 234 242 243 235
f 235 243 244 236
f 236 244 245 237
f 237 245 246 238
f 238 246 247 239
f 239 247 248 240
f 240 248 241 233
f 241 249 250 242
f 242 250 251 243
f 243 251 252 244
f 244 252 253 245
f 245 253 254 246
f 246 254 255 247
f 247 255 256 248
f 248 256 249 241
f 249 1 2 250
f 250 2 3 251
f 251 3 4 252
f 252 4 5 253
f 253 5 6 254
f 254 6 7 255
f 255 7 8 256
f 256 8 1 249
usemtl hook_star
f 257 258 268 267
f 258 259 269 268
f 259 260 270 269
f 260 261 271 270
f 261 262 272 271
f 262 263 273 272
f 263 264 274 273
f 264 265 275 274
f 265 266 276 275
f 266 257 267 276
usemtl hook_core
f 277 279 280 278
f 302 278 280
f 301 279 277
f 279 281 282 280
f 302 280 282
f 301 281 279
f 281 283 284 282
f 302 282 284
f 301 283 281
f 283 285 286 284
f 302 284 286
f 301 285 283
f 285 287 288 286
f 302 286 288
f 301 287 285
f 287 289 290 288
f 302 288 290
f 301 289 287
f 289 291 292 290
f 302 290 292
f 301 291 289
f 291 293 294 292
f 302 292 294
f 301 293 291
f 293 295 296 294
f 302 294 296
f 301 295 293
f 295 297 298 296
f 302 296 298
f 301 297 295
f 297 299 300 298
f 302 298 300
f 301 299 297
f 299 277 278 300
f 302 300 278
f 301 277 299
usemtl hook_star
f 303 267 268
f 303 268 269
f 303 269 270
f 303 270 271
f 303 271 272
f 303 272 273
f 303 273 274
f 303 274 275
f 303 275 276
f 303 276 267
usemtl hook_star
f 304 258 257
f 304 259 258
f 304 260 259
f 304 261 260
f 304 262 261
f 304 263 262
f 304 264 263
f 304 265 264
f 304 266 265
f 304 257 266
