# Blender 4.4.1
# www.blender.org
mtllib map_equipment_door_02.mtl
o 扉2
v -12.499999 -2.050000 -12.615978
v -12.499999 -0.050000 -12.615978
v -12.996855 -2.050000 -8.615978
v -12.996855 -0.050000 -8.615978
v -14.499999 -2.050000 -12.615978
v -14.499999 -0.050000 -12.615978
v -14.003145 -2.050000 -8.615978
v -14.003145 -0.050000 -8.615978
v -13.004233 -2.052696 -12.615978
v -13.004233 -0.052696 -12.615978
v -13.004234 -2.052696 -24.615978
v -13.004234 -0.052696 -24.615978
v 13.004235 -2.052696 -12.615978
v 13.004235 -0.052696 -12.615978
v 13.004234 -2.052696 -24.615978
v 13.004234 -0.052696 -24.615978
v 2.499972 -2.050000 -12.615978
v 2.499972 -0.050000 -12.615978
v 2.003117 -2.050000 -8.615978
v 2.003117 -0.050000 -8.615978
v 0.499972 -2.050000 -12.615978
v 0.499972 -0.050000 -12.615978
v 0.996826 -2.050000 -8.615978
v 0.996826 -0.050000 -8.615978
v 5.500000 -2.050000 -12.615978
v 5.500000 -0.050000 -12.615978
v 5.003146 -2.050000 -8.615978
v 5.003146 -0.050000 -8.615978
v 3.500001 -2.050000 -12.615978
v 3.500001 -0.050000 -12.615978
v 3.996855 -2.050000 -8.615978
v 3.996855 -0.050000 -8.615978
v 8.500001 -2.050000 -12.615978
v 8.500001 -0.050000 -12.615978
v 8.003145 -2.050000 -8.615978
v 8.003145 -0.050000 -8.615978
v 6.500000 -2.050000 -12.615978
v 6.500000 -0.050000 -12.615978
v 6.996855 -2.050000 -8.615978
v 6.996855 -0.050000 -8.615978
v 11.500001 -2.050000 -12.615978
v 11.500001 -0.050000 -12.615978
v 11.003145 -2.050000 -8.615978
v 11.003145 -0.050000 -8.615978
v 9.500001 -2.050000 -12.615978
v 9.500001 -0.050000 -12.615978
v 9.996855 -2.050000 -8.615978
v 9.996855 -0.050000 -8.615978
v 14.500001 -2.050000 -12.615978
v 14.500001 -0.050000 -12.615978
v 14.003145 -2.050000 -8.615978
v 14.003145 -0.050000 -8.615978
v 12.500001 -2.050000 -12.615978
v 12.500001 -0.050000 -12.615978
v 12.996855 -2.050000 -8.615978
v 12.996855 -0.050000 -8.615978
v -0.499999 -2.050000 -12.615978
v -0.499999 -0.050000 -12.615978
v -0.996854 -2.050000 -8.615978
v -0.996854 -0.050000 -8.615978
v -2.499999 -2.050000 -12.615978
v -2.499999 -0.050000 -12.615978
v -2.003145 -2.050000 -8.615978
v -2.003145 -0.050000 -8.615978
v -3.499999 -2.050000 -12.615978
v -3.499999 -0.050000 -12.615978
v -3.996855 -2.050000 -8.615978
v -3.996855 -0.050000 -8.615978
v -5.500000 -2.050000 -12.615978
v -5.500000 -0.050000 -12.615978
v -5.003145 -2.050000 -8.615978
v -5.003145 -0.050000 -8.615978
v -6.500000 -2.050000 -12.615978
v -6.500000 -0.050000 -12.615978
v -6.996855 -2.050000 -8.615978
v -6.996855 -0.050000 -8.615978
v -8.499999 -2.050000 -12.615978
v -8.499999 -0.050000 -12.615978
v -8.003144 -2.050000 -8.615978
v -8.003144 -0.050000 -8.615978
v -9.499999 -2.050000 -12.615978
v -9.499999 -0.050000 -12.615978
v -9.996856 -2.050000 -8.615978
v -9.996856 -0.050000 -8.615978
v -11.499999 -2.050000 -12.615978
v -11.499999 -0.050000 -12.615978
v -11.003144 -2.050000 -8.615978
v -11.003144 -0.050000 -8.615978
vn 0.9924 -0.0000 0.1233
vn -0.0000 -0.0000 1.0000
vn -0.9924 -0.0000 0.1233
vn -0.0000 -0.0000 -1.0000
vn -0.0000 -1.0000 -0.0000
vn -0.0000 1.0000 -0.0000
vn -1.0000 -0.0000 -0.0000
vn 1.0000 -0.0000 -0.0000
vt 0.625000 0.000000
vt 0.375000 0.250000
vt 0.375000 0.000000
vt 0.625000 0.250000
vt 0.375000 0.500000
vt 0.625000 0.500000
vt 0.375000 0.750000
vt 0.625000 0.750000
vt 0.375000 1.000000
vt 0.125000 0.500000
vt 0.125000 0.750000
vt 0.875000 0.500000
vt 0.625000 1.000000
vt 0.875000 0.750000
s 0
f 2/1/1 3/2/1 1/3/1
f 4/4/2 7/5/2 3/2/2
f 8/6/3 5/7/3 7/5/3
f 6/8/4 1/9/4 5/7/4
f 3/10/5 5/7/5 1/11/5
f 4/12/6 6/8/6 8/6/6
f 10/1/7 11/2/7 9/3/7
f 12/4/4 15/5/4 11/2/4
f 16/6/8 13/7/8 15/5/8
f 14/8/2 9/9/2 13/7/2
f 15/5/5 9/11/5 11/10/5
f 12/12/6 14/8/6 16/6/6
f 18/1/1 19/2/1 17/3/1
f 20/4/2 23/5/2 19/2/2
f 24/6/3 21/7/3 23/5/3
f 22/8/4 17/9/4 21/7/4
f 19/10/5 21/7/5 17/11/5
f 20/12/6 22/8/6 24/6/6
f 26/1/1 27/2/1 25/3/1
f 28/4/2 31/5/2 27/2/2
f 32/6/3 29/7/3 31/5/3
f 30/8/4 25/9/4 29/7/4
f 31/5/5 25/11/5 27/10/5
f 28/12/6 30/8/6 32/6/6
f 34/1/1 35/2/1 33/3/1
f 36/4/2 39/5/2 35/2/2
f 40/6/3 37/7/3 39/5/3
f 38/8/4 33/9/4 37/7/4
f 35/10/5 37/7/5 33/11/5
f 36/12/6 38/8/6 40/6/6
f 42/1/1 43/2/1 41/3/1
f 44/4/2 47/5/2 43/2/2
f 48/6/3 45/7/3 47/5/3
f 46/8/4 41/9/4 45/7/4
f 43/10/5 45/7/5 41/11/5
f 44/12/6 46/8/6 48/6/6
f 50/1/1 51/2/1 49/3/1
f 52/4/2 55/5/2 51/2/2
f 56/6/3 53/7/3 55/5/3
f 54/8/4 49/9/4 53/7/4
f 51/10/5 53/7/5 49/11/5
f 52/12/6 54/8/6 56/6/6
f 58/1/1 59/2/1 57/3/1
f 60/4/2 63/5/2 59/2/2
f 64/6/3 61/7/3 63/5/3
f 62/8/4 57/9/4 61/7/4
f 59/10/5 61/7/5 57/11/5
f 60/12/6 62/8/6 64/6/6
f 66/1/1 67/2/1 65/3/1
f 68/4/2 71/5/2 67/2/2
f 72/6/3 69/7/3 71/5/3
f 70/8/4 65/9/4 69/7/4
f 71/5/5 65/11/5 67/10/5
f 68/12/6 70/8/6 72/6/6
f 74/1/1 75/2/1 73/3/1
f 76/4/2 79/5/2 75/2/2
f 80/6/3 77/7/3 79/5/3
f 78/8/4 73/9/4 77/7/4
f 79/5/5 73/11/5 75/10/5
f 76/12/6 78/8/6 80/6/6
f 82/1/1 83/2/1 81/3/1
f 84/4/2 87/5/2 83/2/2
f 88/6/3 85/7/3 87/5/3
f 86/8/4 81/9/4 85/7/4
f 83/10/5 85/7/5 81/11/5
f 84/12/6 86/8/6 88/6/6
f 2/1/1 4/4/1 3/2/1
f 4/4/2 8/6/2 7/5/2
f 8/6/3 6/8/3 5/7/3
f 6/8/4 2/13/4 1/9/4
f 3/10/5 7/5/5 5/7/5
f 4/12/6 2/14/6 6/8/6
f 10/1/7 12/4/7 11/2/7
f 12/4/4 16/6/4 15/5/4
f 16/6/8 14/8/8 13/7/8
f 14/8/2 10/13/2 9/9/2
f 15/5/5 13/7/5 9/11/5
f 12/12/6 10/14/6 14/8/6
f 18/1/1 20/4/1 19/2/1
f 20/4/2 24/6/2 23/5/2
f 24/6/3 22/8/3 21/7/3
f 22/8/4 18/13/4 17/9/4
f 19/10/5 23/5/5 21/7/5
f 20/12/6 18/14/6 22/8/6
f 26/1/1 28/4/1 27/2/1
f 28/4/2 32/6/2 31/5/2
f 32/6/3 30/8/3 29/7/3
f 30/8/4 26/13/4 25/9/4
f 31/5/5 29/7/5 25/11/5
f 28/12/6 26/14/6 30/8/6
f 34/1/1 36/4/1 35/2/1
f 36/4/2 40/6/2 39/5/2
f 40/6/3 38/8/3 37/7/3
f 38/8/4 34/13/4 33/9/4
f 35/10/5 39/5/5 37/7/5
f 36/12/6 34/14/6 38/8/6
f 42/1/1 44/4/1 43/2/1
f 44/4/2 48/6/2 47/5/2
f 48/6/3 46/8/3 45/7/3
f 46/8/4 42/13/4 41/9/4
f 43/10/5 47/5/5 45/7/5
f 44/12/6 42/14/6 46/8/6
f 50/1/1 52/4/1 51/2/1
f 52/4/2 56/6/2 55/5/2
f 56/6/3 54/8/3 53/7/3
f 54/8/4 50/13/4 49/9/4
f 51/10/5 55/5/5 53/7/5
f 52/12/6 50/14/6 54/8/6
f 58/1/1 60/4/1 59/2/1
f 60/4/2 64/6/2 63/5/2
f 64/6/3 62/8/3 61/7/3
f 62/8/4 58/13/4 57/9/4
f 59/10/5 63/5/5 61/7/5
f 60/12/6 58/14/6 62/8/6
f 66/1/1 68/4/1 67/2/1
f 68/4/2 72/6/2 71/5/2
f 72/6/3 70/8/3 69/7/3
f 70/8/4 66/13/4 65/9/4
f 71/5/5 69/7/5 65/11/5
f 68/12/6 66/14/6 70/8/6
f 74/1/1 76/4/1 75/2/1
f 76/4/2 80/6/2 79/5/2
f 80/6/3 78/8/3 77/7/3
f 78/8/4 74/13/4 73/9/4
f 79/5/5 77/7/5 73/11/5
f 76/12/6 74/14/6 78/8/6
f 82/1/1 84/4/1 83/2/1
f 84/4/2 88/6/2 87/5/2
f 88/6/3 86/8/3 85/7/3
f 86/8/4 82/13/4 81/9/4
f 83/10/5 87/5/5 85/7/5
f 84/12/6 82/14/6 86/8/6
