# Blender 4.4.1
# www.blender.org
mtllib enemy_core18.mtl
o enemy_core18
v 0.219039 -0.566213 -0.116270
v 0.233460 -0.472588 0.058242
v 0.148810 -0.685731 0.209497
v 0.001925 -0.850866 0.099130
v 0.023451 -0.852378 0.098119
v 0.172536 -0.814934 0.060402
v 0.068470 -0.854961 0.096393
v 0.338279 -0.669025 -0.054077
v 0.316019 -0.744253 0.000000
v 0.196528 -0.447429 0.282320
v 0.086028 -0.649480 0.246850
v 0.073353 -0.685731 0.209497
v 0.032874 -0.779181 0.147040
v 0.371705 -0.643046 0.049399
v 0.353928 -0.566370 0.136761
v 0.380492 -0.685003 0.000000
v 0.308226 -0.532276 0.209497
v 0.241415 -0.481518 0.252504
v 0.001925 -0.850866 0.099130
v 0.023451 -0.852378 0.098119
v 0.172536 -0.814934 0.060402
v 0.172536 -0.814934 0.060402
v 0.068470 -0.854961 0.096393
v 0.068470 -0.854961 0.096393
v 0.338279 -0.669025 -0.054077
v 0.316019 -0.744253 0.000000
v 0.316019 -0.744253 0.000000
v 0.196528 -0.447429 0.282320
v 0.086028 -0.649480 0.246850
v 0.086028 -0.649480 0.246850
v 0.073353 -0.685731 0.209497
v 0.073353 -0.685731 0.209497
v 0.032874 -0.779181 0.147040
v 0.371705 -0.643046 0.049399
v 0.371705 -0.643046 0.049399
v 0.353928 -0.566370 0.136761
v 0.380492 -0.685003 0.000000
v 0.380492 -0.685003 0.000000
v 0.308226 -0.532276 0.209497
v 0.308226 -0.532276 0.209497
v 0.241415 -0.481518 0.252504
v 0.148810 -0.685731 0.209497
v 0.148810 -0.685731 0.209497
v 0.148810 -0.685731 0.209497
v 0.148810 -0.685731 0.209497
v 0.148810 -0.685731 0.209497
vn -0.0782 -0.5630 -0.8228
vn -0.0641 -0.5699 -0.8192
vn -0.8457 0.4967 -0.1952
vn -0.8456 0.4963 -0.1964
vn 0.7094 0.5950 -0.3778
vn 0.7097 0.5942 -0.3784
vn 0.6096 0.7926 0.0115
vn 0.4591 -0.6339 0.6224
vn 0.5424 -0.5902 0.5978
vn -0.0000 -0.5557 0.8314
vn -0.0000 -0.7176 0.6964
vn 0.5486 -0.5699 0.6118
vn 0.3261 -0.3341 0.8843
vn 0.3308 -0.3358 0.8819
vn 0.3282 -0.3348 0.8833
vn 0.3194 -0.3318 0.8877
vn 0.5424 -0.5902 -0.5978
vt 0.340585 0.000000
vt 1.000000 0.000000
vt 1.000000 0.591897
vt 0.591897 0.591897
vt 0.327556 0.000000
vt 0.589324 0.375874
vt 0.700405 0.424287
vt 0.540265 0.365182
vt 0.583654 0.583654
vt 0.000000 0.000000
vt 1.000000 0.604561
vt 0.323838 0.000000
vt 1.000000 0.672444
vt 0.604561 0.604561
vt 0.851180 0.565637
vt 0.676162 0.000000
vt 1.000000 0.774282
vt 0.902969 0.589961
vt 0.625606 0.544741
vt 0.500833 0.122882
vt 0.225718 0.000000
vt 1.000000 0.583654
vt 1.000000 0.659415
vt 1.000000 1.000000
vt 0.757998 0.319896
s 0
f 19/1/1 1/2/1 20/3/1
f 20/4/2 25/5/2 21/6/2
f 2/2/3 31/7/3 29/8/3
f 1/2/4 33/9/4 2/10/4
f 34/11/5 2/10/5 36/12/5
f 25/13/6 34/14/6 37/15/6
f 36/16/7 28/17/7 41/18/7
s 1
f 42/10/8 24/10/8 22/10/8
f 6/10/9 38/10/9 35/10/9
f 5/10/10 44/10/10 13/10/10
f 12/10/11 45/10/11 30/10/11
f 46/10/12 15/10/12 40/10/12
f 18/10/13 11/10/14 3/10/15
f 18/10/13 3/10/15 17/10/16
f 16/10/17 9/10/17 8/10/17
s 0
f 21/6/2 23/19/2 20/4/2
f 20/4/2 1/10/2 25/5/2
f 25/5/2 26/20/2 21/6/2
f 29/8/3 28/21/3 2/2/3
f 2/2/3 33/22/3 31/7/3
f 1/2/4 19/23/4 33/9/4
f 34/11/5 1/24/5 2/10/5
f 25/13/6 1/24/6 34/14/6
f 41/18/7 39/25/7 36/16/7
f 36/16/7 2/2/7 28/17/7
s 1
f 35/10/9 43/10/9 6/10/9
f 6/10/9 27/10/9 38/10/9
f 13/10/10 4/10/10 5/10/10
f 5/10/10 7/10/10 44/10/10
f 44/10/10 32/10/10 13/10/10
f 46/10/12 14/10/12 15/10/12
f 18/10/13 10/10/14 11/10/14
