mtllib star_garden_collapse_platform.mtl
o star_garden_collapse_platform
v -5.800000 0.000000 5.000000
v 5.800000 0.000000 5.000000
v 5.800000 0.000000 -5.000000
v -5.800000 0.000000 -5.000000
v -5.800000 -1.040000 -5.000000
v 5.800000 -1.040000 -5.000000
v 5.800000 -1.040000 5.000000
v -5.800000 -1.040000 5.000000
v -5.800000 0.000000 -5.000000
v 5.800000 0.000000 -5.000000
v 5.800000 -1.040000 -5.000000
v -5.800000 -1.040000 -5.000000
v 5.800000 0.000000 5.000000
v -5.800000 0.000000 5.000000
v -5.800000 -1.040000 5.000000
v 5.800000 -1.040000 5.000000
v -5.800000 0.000000 5.000000
v -5.800000 0.000000 -5.000000
v -5.800000 -1.040000 -5.000000
v -5.800000 -1.040000 5.000000
v 5.800000 0.000000 -5.000000
v 5.800000 0.000000 5.000000
v 5.800000 -1.040000 5.000000
v 5.800000 -1.040000 -5.000000
v -5.470000 0.380000 4.350000
v -2.030000 0.380000 4.350000
v -2.030000 0.380000 -4.350000
v -5.470000 0.380000 -4.350000
v -5.470000 0.000000 -4.350000
v -2.030000 0.000000 -4.350000
v -2.030000 0.000000 4.350000
v -5.470000 0.000000 4.350000
v -5.470000 0.380000 -4.350000
v -2.030000 0.380000 -4.350000
v -2.030000 0.000000 -4.350000
v -5.470000 0.000000 -4.350000
v -2.030000 0.380000 4.350000
v -5.470000 0.380000 4.350000
v -5.470000 0.000000 4.350000
v -2.030000 0.000000 4.350000
v -5.470000 0.380000 4.350000
v -5.470000 0.380000 -4.350000
v -5.470000 0.000000 -4.350000
v -5.470000 0.000000 4.350000
v -2.030000 0.380000 -4.350000
v -2.030000 0.380000 4.350000
v -2.030000 0.000000 4.350000
v -2.030000 0.000000 -4.350000
v -1.720000 0.380000 4.350000
v 1.720000 0.380000 4.350000
v 1.720000 0.380000 -4.350000
v -1.720000 0.380000 -4.350000
v -1.720000 0.000000 -4.350000
v 1.720000 0.000000 -4.350000
v 1.720000 0.000000 4.350000
v -1.720000 0.000000 4.350000
v -1.720000 0.380000 -4.350000
v 1.720000 0.380000 -4.350000
v 1.720000 0.000000 -4.350000
v -1.720000 0.000000 -4.350000
v 1.720000 0.380000 4.350000
v -1.720000 0.380000 4.350000
v -1.720000 0.000000 4.350000
v 1.720000 0.000000 4.350000
v -1.720000 0.380000 4.350000
v -1.720000 0.380000 -4.350000
v -1.720000 0.000000 -4.350000
v -1.720000 0.000000 4.350000
v 1.720000 0.380000 -4.350000
v 1.720000 0.380000 4.350000
v 1.720000 0.000000 4.350000
v 1.720000 0.000000 -4.350000
v 2.030000 0.380000 4.350000
v 5.470000 0.380000 4.350000
v 5.470000 0.380000 -4.350000
v 2.030000 0.380000 -4.350000
v 2.030000 0.000000 -4.350000
v 5.470000 0.000000 -4.350000
v 5.470000 0.000000 4.350000
v 2.030000 0.000000 4.350000
v 2.030000 0.380000 -4.350000
v 5.470000 0.380000 -4.350000
v 5.470000 0.000000 -4.350000
v 2.030000 0.000000 -4.350000
v 5.470000 0.380000 4.350000
v 2.030000 0.380000 4.350000
v 2.030000 0.000000 4.350000
v 5.470000 0.000000 4.350000
v 2.030000 0.380000 4.350000
v 2.030000 0.380000 -4.350000
v 2.030000 0.000000 -4.350000
v 2.030000 0.000000 4.350000
v 5.470000 0.380000 -4.350000
v 5.470000 0.380000 4.350000
v 5.470000 0.000000 4.350000
v 5.470000 0.000000 -4.350000
v -5.165079 0.400000 -2.724074
v -3.765079 0.400000 -1.524074
v -3.634921 0.400000 -1.675926
v -5.034921 0.400000 -2.875926
v -5.034921 0.350000 -2.875926
v -3.634921 0.350000 -1.675926
v -3.765079 0.350000 -1.524074
v -5.165079 0.350000 -2.724074
v -5.034921 0.400000 -2.875926
v -3.634921 0.400000 -1.675926
v -3.634921 0.350000 -1.675926
v -5.034921 0.350000 -2.875926
v -3.765079 0.400000 -1.524074
v -5.165079 0.400000 -2.724074
v -5.165079 0.350000 -2.724074
v -3.765079 0.350000 -1.524074
v -5.165079 0.400000 -2.724074
v -5.034921 0.400000 -2.875926
v -5.034921 0.350000 -2.875926
v -5.165079 0.350000 -2.724074
v -3.634921 0.400000 -1.675926
v -3.765079 0.400000 -1.524074
v -3.765079 0.350000 -1.524074
v -3.634921 0.350000 -1.675926
v -3.794174 0.400000 -1.633634
v -4.294174 0.400000 -0.233634
v -4.105826 0.400000 -0.166366
v -3.605826 0.400000 -1.566366
v -3.605826 0.350000 -1.566366
v -4.105826 0.350000 -0.166366
v -4.294174 0.350000 -0.233634
v -3.794174 0.350000 -1.633634
v -3.605826 0.400000 -1.566366
v -4.105826 0.400000 -0.166366
v -4.105826 0.350000 -0.166366
v -3.605826 0.350000 -1.566366
v -4.294174 0.400000 -0.233634
v -3.794174 0.400000 -1.633634
v -3.794174 0.350000 -1.633634
v -4.294174 0.350000 -0.233634
v -3.794174 0.400000 -1.633634
v -3.605826 0.400000 -1.566366
v -3.605826 0.350000 -1.566366
v -3.794174 0.350000 -1.633634
v -4.105826 0.400000 -0.166366
v -4.294174 0.400000 -0.233634
v -4.294174 0.350000 -0.233634
v -4.105826 0.350000 -0.166366
v -4.257668 0.400000 -0.118303
v -2.557668 0.400000 1.081697
v -2.442332 0.400000 0.918303
v -4.142332 0.400000 -0.281697
v -4.142332 0.350000 -0.281697
v -2.442332 0.350000 0.918303
v -2.557668 0.350000 1.081697
v -4.257668 0.350000 -0.118303
v -4.142332 0.400000 -0.281697
v -2.442332 0.400000 0.918303
v -2.442332 0.350000 0.918303
v -4.142332 0.350000 -0.281697
v -2.557668 0.400000 1.081697
v -4.257668 0.400000 -0.118303
v -4.257668 0.350000 -0.118303
v -2.557668 0.350000 1.081697
v -4.257668 0.400000 -0.118303
v -4.142332 0.400000 -0.281697
v -4.142332 0.350000 -0.281697
v -4.257668 0.350000 -0.118303
v -2.442332 0.400000 0.918303
v -2.557668 0.400000 1.081697
v -2.557668 0.350000 1.081697
v -2.442332 0.350000 0.918303
v -2.597014 0.400000 0.975746
v -3.097014 0.400000 2.975746
v -2.902986 0.400000 3.024254
v -2.402986 0.400000 1.024254
v -2.402986 0.350000 1.024254
v -2.902986 0.350000 3.024254
v -3.097014 0.350000 2.975746
v -2.597014 0.350000 0.975746
v -2.402986 0.400000 1.024254
v -2.902986 0.400000 3.024254
v -2.902986 0.350000 3.024254
v -2.402986 0.350000 1.024254
v -3.097014 0.400000 2.975746
v -2.597014 0.400000 0.975746
v -2.597014 0.350000 0.975746
v -3.097014 0.350000 2.975746
v -2.597014 0.400000 0.975746
v -2.402986 0.400000 1.024254
v -2.402986 0.350000 1.024254
v -2.597014 0.350000 0.975746
v -2.902986 0.400000 3.024254
v -3.097014 0.400000 2.975746
v -3.097014 0.350000 2.975746
v -2.902986 0.350000 3.024254
v -0.885896 0.400000 -3.531284
v 0.314104 0.400000 -2.031284
v 0.485896 0.400000 -2.168716
v -0.714104 0.400000 -3.668716
v -0.714104 0.350000 -3.668716
v 0.485896 0.350000 -2.168716
v 0.314104 0.350000 -2.031284
v -0.885896 0.350000 -3.531284
v -0.714104 0.400000 -3.668716
v 0.485896 0.400000 -2.168716
v 0.485896 0.350000 -2.168716
v -0.714104 0.350000 -3.668716
v 0.314104 0.400000 -2.031284
v -0.885896 0.400000 -3.531284
v -0.885896 0.350000 -3.531284
v 0.314104 0.350000 -2.031284
v -0.885896 0.400000 -3.531284
v -0.714104 0.400000 -3.668716
v -0.714104 0.350000 -3.668716
v -0.885896 0.350000 -3.531284
v 0.485896 0.400000 -2.168716
v 0.314104 0.400000 -2.031284
v 0.314104 0.350000 -2.031284
v 0.485896 0.350000 -2.168716
v 0.307470 0.400000 -2.159483
v -0.592530 0.400000 -0.759483
v -0.407470 0.400000 -0.640517
v 0.492530 0.400000 -2.040517
v 0.492530 0.350000 -2.040517
v -0.407470 0.350000 -0.640517
v -0.592530 0.350000 -0.759483
v 0.307470 0.350000 -2.159483
v 0.492530 0.400000 -2.040517
v -0.407470 0.400000 -0.640517
v -0.407470 0.350000 -0.640517
v 0.492530 0.350000 -2.040517
v -0.592530 0.400000 -0.759483
v 0.307470 0.400000 -2.159483
v 0.307470 0.350000 -2.159483
v -0.592530 0.350000 -0.759483
v 0.307470 0.400000 -2.159483
v 0.492530 0.400000 -2.040517
v 0.492530 0.350000 -2.040517
v 0.307470 0.350000 -2.159483
v -0.407470 0.400000 -0.640517
v -0.592530 0.400000 -0.759483
v -0.592530 0.350000 -0.759483
v -0.407470 0.350000 -0.640517
v -0.577782 0.400000 -0.622218
v 0.922218 0.400000 0.877782
v 1.077782 0.400000 0.722218
v -0.422218 0.400000 -0.777782
v -0.422218 0.350000 -0.777782
v 1.077782 0.350000 0.722218
v 0.922218 0.350000 0.877782
v -0.577782 0.350000 -0.622218
v -0.422218 0.400000 -0.777782
v 1.077782 0.400000 0.722218
v 1.077782 0.350000 0.722218
v -0.422218 0.350000 -0.777782
v 0.922218 0.400000 0.877782
v -0.577782 0.400000 -0.622218
v -0.577782 0.350000 -0.622218
v 0.922218 0.350000 0.877782
v -0.577782 0.400000 -0.622218
v -0.422218 0.400000 -0.777782
v -0.422218 0.350000 -0.777782
v -0.577782 0.350000 -0.622218
v 1.077782 0.400000 0.722218
v 0.922218 0.400000 0.877782
v 0.922218 0.350000 0.877782
v 1.077782 0.350000 0.722218
v 0.894532 0.400000 0.768750
v 0.094532 0.400000 3.468750
v 0.305468 0.400000 3.531250
v 1.105468 0.400000 0.831250
v 1.105468 0.350000 0.831250
v 0.305468 0.350000 3.531250
v 0.094532 0.350000 3.468750
v 0.894532 0.350000 0.768750
v 1.105468 0.400000 0.831250
v 0.305468 0.400000 3.531250
v 0.305468 0.350000 3.531250
v 1.105468 0.350000 0.831250
v 0.094532 0.400000 3.468750
v 0.894532 0.400000 0.768750
v 0.894532 0.350000 0.768750
v 0.094532 0.350000 3.468750
v 0.894532 0.400000 0.768750
v 1.105468 0.400000 0.831250
v 1.105468 0.350000 0.831250
v 0.894532 0.350000 0.768750
v 0.305468 0.400000 3.531250
v 0.094532 0.400000 3.468750
v 0.094532 0.350000 3.468750
v 0.305468 0.350000 3.531250
v 2.724074 0.400000 -3.134921
v 3.924074 0.400000 -1.734921
v 4.075926 0.400000 -1.865079
v 2.875926 0.400000 -3.265079
v 2.875926 0.350000 -3.265079
v 4.075926 0.350000 -1.865079
v 3.924074 0.350000 -1.734921
v 2.724074 0.350000 -3.134921
v 2.875926 0.400000 -3.265079
v 4.075926 0.400000 -1.865079
v 4.075926 0.350000 -1.865079
v 2.875926 0.350000 -3.265079
v 3.924074 0.400000 -1.734921
v 2.724074 0.400000 -3.134921
v 2.724074 0.350000 -3.134921
v 3.924074 0.350000 -1.734921
v 2.724074 0.400000 -3.134921
v 2.875926 0.400000 -3.265079
v 2.875926 0.350000 -3.265079
v 2.724074 0.350000 -3.134921
v 4.075926 0.400000 -1.865079
v 3.924074 0.400000 -1.734921
v 3.924074 0.350000 -1.734921
v 4.075926 0.350000 -1.865079
v 3.911765 0.400000 -1.847059
v 3.111765 0.400000 -0.347059
v 3.288235 0.400000 -0.252941
v 4.088235 0.400000 -1.752941
v 4.088235 0.350000 -1.752941
v 3.288235 0.350000 -0.252941
v 3.111765 0.350000 -0.347059
v 3.911765 0.350000 -1.847059
v 4.088235 0.400000 -1.752941
v 3.288235 0.400000 -0.252941
v 3.288235 0.350000 -0.252941
v 4.088235 0.350000 -1.752941
v 3.111765 0.400000 -0.347059
v 3.911765 0.400000 -1.847059
v 3.911765 0.350000 -1.847059
v 3.111765 0.350000 -0.347059
v 3.911765 0.400000 -1.847059
v 4.088235 0.400000 -1.752941
v 4.088235 0.350000 -1.752941
v 3.911765 0.350000 -1.847059
v 3.288235 0.400000 -0.252941
v 3.111765 0.400000 -0.347059
v 3.111765 0.350000 -0.347059
v 3.288235 0.350000 -0.252941
v 3.122807 0.400000 -0.236429
v 4.522807 0.400000 1.463571
v 4.677193 0.400000 1.336429
v 3.277193 0.400000 -0.363571
v 3.277193 0.350000 -0.363571
v 4.677193 0.350000 1.336429
v 4.522807 0.350000 1.463571
v 3.122807 0.350000 -0.236429
v 3.277193 0.400000 -0.363571
v 4.677193 0.400000 1.336429
v 4.677193 0.350000 1.336429
v 3.277193 0.350000 -0.363571
v 4.522807 0.400000 1.463571
v 3.122807 0.400000 -0.236429
v 3.122807 0.350000 -0.236429
v 4.522807 0.350000 1.463571
v 3.122807 0.400000 -0.236429
v 3.277193 0.400000 -0.363571
v 3.277193 0.350000 -0.363571
v 3.122807 0.350000 -0.236429
v 4.677193 0.400000 1.336429
v 4.522807 0.400000 1.463571
v 4.522807 0.350000 1.463571
v 4.677193 0.350000 1.336429
v 4.512378 0.400000 1.351808
v 3.412378 0.400000 3.351808
v 3.587622 0.400000 3.448192
v 4.687622 0.400000 1.448192
v 4.687622 0.350000 1.448192
v 3.587622 0.350000 3.448192
v 3.412378 0.350000 3.351808
v 4.512378 0.350000 1.351808
v 4.687622 0.400000 1.448192
v 3.587622 0.400000 3.448192
v 3.587622 0.350000 3.448192
v 4.687622 0.350000 1.448192
v 3.412378 0.400000 3.351808
v 4.512378 0.400000 1.351808
v 4.512378 0.350000 1.351808
v 3.412378 0.350000 3.351808
v 4.512378 0.400000 1.351808
v 4.687622 0.400000 1.448192
v 4.687622 0.350000 1.448192
v 4.512378 0.350000 1.351808
v 3.587622 0.400000 3.448192
v 3.412378 0.400000 3.351808
v 3.412378 0.350000 3.351808
v 3.587622 0.350000 3.448192
vt -0.464000 0.400000
vt 0.464000 0.400000
vt 0.464000 -0.400000
vt -0.464000 -0.400000
vt -0.464000 -0.400000
vt 0.464000 -0.400000
vt 0.464000 0.400000
vt -0.464000 0.400000
vt -0.464000 0.000000
vt 0.464000 0.000000
vt 0.464000 -0.083200
vt -0.464000 -0.083200
vt 0.464000 0.000000
vt -0.464000 0.000000
vt -0.464000 -0.083200
vt 0.464000 -0.083200
vt 0.400000 0.000000
vt -0.400000 0.000000
vt -0.400000 -0.083200
vt 0.400000 -0.083200
vt -0.400000 0.000000
vt 0.400000 0.000000
vt 0.400000 -0.083200
vt -0.400000 -0.083200
vt -0.437600 0.348000
vt -0.162400 0.348000
vt -0.162400 -0.348000
vt -0.437600 -0.348000
vt -0.437600 -0.348000
vt -0.162400 -0.348000
vt -0.162400 0.348000
vt -0.437600 0.348000
vt -0.437600 0.030400
vt -0.162400 0.030400
vt -0.162400 0.000000
vt -0.437600 0.000000
vt -0.162400 0.030400
vt -0.437600 0.030400
vt -0.437600 0.000000
vt -0.162400 0.000000
vt 0.348000 0.030400
vt -0.348000 0.030400
vt -0.348000 0.000000
vt 0.348000 0.000000
vt -0.348000 0.030400
vt 0.348000 0.030400
vt 0.348000 0.000000
vt -0.348000 0.000000
vt -0.137600 0.348000
vt 0.137600 0.348000
vt 0.137600 -0.348000
vt -0.137600 -0.348000
vt -0.137600 -0.348000
vt 0.137600 -0.348000
vt 0.137600 0.348000
vt -0.137600 0.348000
vt -0.137600 0.030400
vt 0.137600 0.030400
vt 0.137600 0.000000
vt -0.137600 0.000000
vt 0.137600 0.030400
vt -0.137600 0.030400
vt -0.137600 0.000000
vt 0.137600 0.000000
vt 0.348000 0.030400
vt -0.348000 0.030400
vt -0.348000 0.000000
vt 0.348000 0.000000
vt -0.348000 0.030400
vt 0.348000 0.030400
vt 0.348000 0.000000
vt -0.348000 0.000000
vt 0.162400 0.348000
vt 0.437600 0.348000
vt 0.437600 -0.348000
vt 0.162400 -0.348000
vt 0.162400 -0.348000
vt 0.437600 -0.348000
vt 0.437600 0.348000
vt 0.162400 0.348000
vt 0.162400 0.030400
vt 0.437600 0.030400
vt 0.437600 0.000000
vt 0.162400 0.000000
vt 0.437600 0.030400
vt 0.162400 0.030400
vt 0.162400 0.000000
vt 0.437600 0.000000
vt 0.348000 0.030400
vt -0.348000 0.030400
vt -0.348000 0.000000
vt 0.348000 0.000000
vt -0.348000 0.030400
vt 0.348000 0.030400
vt 0.348000 0.000000
vt -0.348000 0.000000
vt -0.413206 -0.217926
vt -0.301206 -0.121926
vt -0.290794 -0.134074
vt -0.402794 -0.230074
vt -0.402794 -0.230074
vt -0.290794 -0.134074
vt -0.301206 -0.121926
vt -0.413206 -0.217926
vt -0.402794 0.032000
vt -0.290794 0.032000
vt -0.290794 0.028000
vt -0.402794 0.028000
vt -0.301206 0.032000
vt -0.413206 0.032000
vt -0.413206 0.028000
vt -0.301206 0.028000
vt -0.217926 0.032000
vt -0.230074 0.032000
vt -0.230074 0.028000
vt -0.217926 0.028000
vt -0.134074 0.032000
vt -0.121926 0.032000
vt -0.121926 0.028000
vt -0.134074 0.028000
vt -0.303534 -0.130691
vt -0.343534 -0.018691
vt -0.328466 -0.013309
vt -0.288466 -0.125309
vt -0.288466 -0.125309
vt -0.328466 -0.013309
vt -0.343534 -0.018691
vt -0.303534 -0.130691
vt -0.125309 0.032000
vt -0.013309 0.032000
vt -0.013309 0.028000
vt -0.125309 0.028000
vt -0.018691 0.032000
vt -0.130691 0.032000
vt -0.130691 0.028000
vt -0.018691 0.028000
vt -0.303534 0.032000
vt -0.288466 0.032000
vt -0.288466 0.028000
vt -0.303534 0.028000
vt -0.328466 0.032000
vt -0.343534 0.032000
vt -0.343534 0.028000
vt -0.328466 0.028000
vt -0.340613 -0.009464
vt -0.204613 0.086536
vt -0.195387 0.073464
vt -0.331387 -0.022536
vt -0.331387 -0.022536
vt -0.195387 0.073464
vt -0.204613 0.086536
vt -0.340613 -0.009464
vt -0.331387 0.032000
vt -0.195387 0.032000
vt -0.195387 0.028000
vt -0.331387 0.028000
vt -0.204613 0.032000
vt -0.340613 0.032000
vt -0.340613 0.028000
vt -0.204613 0.028000
vt -0.009464 0.032000
vt -0.022536 0.032000
vt -0.022536 0.028000
vt -0.009464 0.028000
vt 0.073464 0.032000
vt 0.086536 0.032000
vt 0.086536 0.028000
vt 0.073464 0.028000
vt -0.207761 0.078060
vt -0.247761 0.238060
vt -0.232239 0.241940
vt -0.192239 0.081940
vt -0.192239 0.081940
vt -0.232239 0.241940
vt -0.247761 0.238060
vt -0.207761 0.078060
vt 0.081940 0.032000
vt 0.241940 0.032000
vt 0.241940 0.028000
vt 0.081940 0.028000
vt 0.238060 0.032000
vt 0.078060 0.032000
vt 0.078060 0.028000
vt 0.238060 0.028000
vt -0.207761 0.032000
vt -0.192239 0.032000
vt -0.192239 0.028000
vt -0.207761 0.028000
vt -0.232239 0.032000
vt -0.247761 0.032000
vt -0.247761 0.028000
vt -0.232239 0.028000
vt -0.070872 -0.282503
vt 0.025128 -0.162503
vt 0.038872 -0.173497
vt -0.057128 -0.293497
vt -0.057128 -0.293497
vt 0.038872 -0.173497
vt 0.025128 -0.162503
vt -0.070872 -0.282503
vt -0.293497 0.032000
vt -0.173497 0.032000
vt -0.173497 0.028000
vt -0.293497 0.028000
vt -0.162503 0.032000
vt -0.282503 0.032000
vt -0.282503 0.028000
vt -0.162503 0.028000
vt -0.070872 0.032000
vt -0.057128 0.032000
vt -0.057128 0.028000
vt -0.070872 0.028000
vt 0.038872 0.032000
vt 0.025128 0.032000
vt 0.025128 0.028000
vt 0.038872 0.028000
vt 0.024598 -0.172759
vt -0.047402 -0.060759
vt -0.032598 -0.051241
vt 0.039402 -0.163241
vt 0.039402 -0.163241
vt -0.032598 -0.051241
vt -0.047402 -0.060759
vt 0.024598 -0.172759
vt -0.163241 0.032000
vt -0.051241 0.032000
vt -0.051241 0.028000
vt -0.163241 0.028000
vt -0.060759 0.032000
vt -0.172759 0.032000
vt -0.172759 0.028000
vt -0.060759 0.028000
vt 0.024598 0.032000
vt 0.039402 0.032000
vt 0.039402 0.028000
vt 0.024598 0.028000
vt -0.032598 0.032000
vt -0.047402 0.032000
vt -0.047402 0.028000
vt -0.032598 0.028000
vt -0.046223 -0.049777
vt 0.073777 0.070223
vt 0.086223 0.057777
vt -0.033777 -0.062223
vt -0.033777 -0.062223
vt 0.086223 0.057777
vt 0.073777 0.070223
vt -0.046223 -0.049777
vt -0.062223 0.032000
vt 0.057777 0.032000
vt 0.057777 0.028000
vt -0.062223 0.028000
vt 0.070223 0.032000
vt -0.049777 0.032000
vt -0.049777 0.028000
vt 0.070223 0.028000
vt -0.049777 0.032000
vt -0.062223 0.032000
vt -0.062223 0.028000
vt -0.049777 0.028000
vt 0.086223 0.032000
vt 0.073777 0.032000
vt 0.073777 0.028000
vt 0.086223 0.028000
vt 0.071563 0.061500
vt 0.007563 0.277500
vt 0.024437 0.282500
vt 0.088437 0.066500
vt 0.088437 0.066500
vt 0.024437 0.282500
vt 0.007563 0.277500
vt 0.071563 0.061500
vt 0.066500 0.032000
vt 0.282500 0.032000
vt 0.282500 0.028000
vt 0.066500 0.028000
vt 0.277500 0.032000
vt 0.061500 0.032000
vt 0.061500 0.028000
vt 0.277500 0.028000
vt 0.071563 0.032000
vt 0.088437 0.032000
vt 0.088437 0.028000
vt 0.071563 0.028000
vt 0.024437 0.032000
vt 0.007563 0.032000
vt 0.007563 0.028000
vt 0.024437 0.028000
vt 0.217926 -0.250794
vt 0.313926 -0.138794
vt 0.326074 -0.149206
vt 0.230074 -0.261206
vt 0.230074 -0.261206
vt 0.326074 -0.149206
vt 0.313926 -0.138794
vt 0.217926 -0.250794
vt -0.261206 0.032000
vt -0.149206 0.032000
vt -0.149206 0.028000
vt -0.261206 0.028000
vt -0.138794 0.032000
vt -0.250794 0.032000
vt -0.250794 0.028000
vt -0.138794 0.028000
vt 0.217926 0.032000
vt 0.230074 0.032000
vt 0.230074 0.028000
vt 0.217926 0.028000
vt 0.326074 0.032000
vt 0.313926 0.032000
vt 0.313926 0.028000
vt 0.326074 0.028000
vt 0.312941 -0.147765
vt 0.248941 -0.027765
vt 0.263059 -0.020235
vt 0.327059 -0.140235
vt 0.327059 -0.140235
vt 0.263059 -0.020235
vt 0.248941 -0.027765
vt 0.312941 -0.147765
vt -0.140235 0.032000
vt -0.020235 0.032000
vt -0.020235 0.028000
vt -0.140235 0.028000
vt -0.027765 0.032000
vt -0.147765 0.032000
vt -0.147765 0.028000
vt -0.027765 0.028000
vt 0.312941 0.032000
vt 0.327059 0.032000
vt 0.327059 0.028000
vt 0.312941 0.028000
vt 0.263059 0.032000
vt 0.248941 0.032000
vt 0.248941 0.028000
vt 0.263059 0.028000
vt 0.249825 -0.018914
vt 0.361825 0.117086
vt 0.374175 0.106914
vt 0.262175 -0.029086
vt 0.262175 -0.029086
vt 0.374175 0.106914
vt 0.361825 0.117086
vt 0.249825 -0.018914
vt -0.029086 0.032000
vt 0.106914 0.032000
vt 0.106914 0.028000
vt -0.029086 0.028000
vt 0.117086 0.032000
vt -0.018914 0.032000
vt -0.018914 0.028000
vt 0.117086 0.028000
vt 0.249825 0.032000
vt 0.262175 0.032000
vt 0.262175 0.028000
vt 0.249825 0.028000
vt 0.374175 0.032000
vt 0.361825 0.032000
vt 0.361825 0.028000
vt 0.374175 0.028000
vt 0.360990 0.108145
vt 0.272990 0.268145
vt 0.287010 0.275855
vt 0.375010 0.115855
vt 0.375010 0.115855
vt 0.287010 0.275855
vt 0.272990 0.268145
vt 0.360990 0.108145
vt 0.115855 0.032000
vt 0.275855 0.032000
vt 0.275855 0.028000
vt 0.115855 0.028000
vt 0.268145 0.032000
vt 0.108145 0.032000
vt 0.108145 0.028000
vt 0.268145 0.028000
vt 0.360990 0.032000
vt 0.375010 0.032000
vt 0.375010 0.028000
vt 0.360990 0.028000
vt 0.287010 0.032000
vt 0.272990 0.032000
vt 0.272990 0.028000
vt 0.287010 0.028000
vn -0.000000 1.000000 0.000000
vn 0.000000 -1.000000 0.000000
vn 0.000000 0.000000 -1.000000
vn 0.000000 0.000000 1.000000
vn -1.000000 0.000000 -0.000000
vn 1.000000 0.000000 -0.000000
vn -0.000000 1.000000 0.000000
vn 0.000000 -1.000000 0.000000
vn 0.000000 0.000000 -1.000000
vn 0.000000 0.000000 1.000000
vn -1.000000 0.000000 -0.000000
vn 1.000000 0.000000 -0.000000
vn -0.000000 1.000000 0.000000
vn 0.000000 -1.000000 0.000000
vn 0.000000 0.000000 -1.000000
vn 0.000000 0.000000 1.000000
vn -1.000000 0.000000 -0.000000
vn 1.000000 0.000000 -0.000000
vn -0.000000 1.000000 0.000000
vn 0.000000 -1.000000 0.000000
vn 0.000000 0.000000 -1.000000
vn 0.000000 0.000000 1.000000
vn -1.000000 0.000000 -0.000000
vn 1.000000 0.000000 -0.000000
vn 0.000000 1.000000 0.000000
vn 0.000000 -1.000000 0.000000
vn 0.650791 0.000000 -0.759257
vn -0.650791 0.000000 0.759257
vn -0.759257 0.000000 -0.650791
vn 0.759257 0.000000 0.650791
vn 0.000000 1.000000 0.000000
vn 0.000000 -1.000000 0.000000
vn 0.941742 0.000000 0.336336
vn -0.941742 0.000000 -0.336336
vn 0.336336 0.000000 -0.941742
vn -0.336336 0.000000 0.941742
vn 0.000000 1.000000 0.000000
vn 0.000000 -1.000000 0.000000
vn 0.576683 0.000000 -0.816968
vn -0.576683 0.000000 0.816968
vn -0.816968 0.000000 -0.576683
vn 0.816968 0.000000 0.576683
vn 0.000000 1.000000 0.000000
vn 0.000000 -1.000000 0.000000
vn 0.970143 0.000000 0.242536
vn -0.970143 0.000000 -0.242536
vn 0.242536 0.000000 -0.970143
vn -0.242536 0.000000 0.970143
vn 0.000000 1.000000 0.000000
vn 0.000000 -1.000000 0.000000
vn 0.780869 0.000000 -0.624695
vn -0.780869 0.000000 0.624695
vn -0.624695 0.000000 -0.780869
vn 0.624695 0.000000 0.780869
vn 0.000000 1.000000 0.000000
vn 0.000000 -1.000000 0.000000
vn 0.841178 0.000000 0.540758
vn -0.841178 0.000000 -0.540758
vn 0.540758 0.000000 -0.841178
vn -0.540758 0.000000 0.841178
vn 0.000000 1.000000 0.000000
vn 0.000000 -1.000000 0.000000
vn 0.707107 0.000000 -0.707107
vn -0.707107 0.000000 0.707107
vn -0.707107 0.000000 -0.707107
vn 0.707107 0.000000 0.707107
vn 0.000000 1.000000 0.000000
vn 0.000000 -1.000000 0.000000
vn 0.958798 0.000000 0.284088
vn -0.958798 0.000000 -0.284088
vn 0.284088 0.000000 -0.958798
vn -0.284088 0.000000 0.958798
vn 0.000000 1.000000 0.000000
vn 0.000000 -1.000000 0.000000
vn 0.759257 0.000000 -0.650791
vn -0.759257 0.000000 0.650791
vn -0.650791 0.000000 -0.759257
vn 0.650791 0.000000 0.759257
vn 0.000000 1.000000 0.000000
vn 0.000000 -1.000000 0.000000
vn 0.882353 0.000000 0.470588
vn -0.882353 0.000000 -0.470588
vn 0.470588 0.000000 -0.882353
vn -0.470588 0.000000 0.882353
vn 0.000000 1.000000 0.000000
vn 0.000000 -1.000000 0.000000
vn 0.771930 0.000000 -0.635707
vn -0.771930 0.000000 0.635707
vn -0.635707 0.000000 -0.771930
vn 0.635707 0.000000 0.771930
vn 0.000000 1.000000 0.000000
vn 0.000000 -1.000000 0.000000
vn 0.876216 0.000000 0.481919
vn -0.876216 0.000000 -0.481919
vn 0.481919 0.000000 -0.876216
vn -0.481919 0.000000 0.876216
usemtl ruin_path
f 1/1/1 2/2/1 3/3/1 4/4/1
usemtl garden_underside
f 5/5/2 6/6/2 7/7/2 8/8/2
usemtl ruin_stone
f 9/9/3 10/10/3 11/11/3 12/12/3
f 13/13/4 14/14/4 15/15/4 16/16/4
f 17/17/5 18/18/5 19/19/5 20/20/5
f 21/21/6 22/22/6 23/23/6 24/24/6
usemtl garden_mechanism
f 25/25/7 26/26/7 27/27/7 28/28/7
usemtl ruin_cap
f 29/29/8 30/30/8 31/31/8 32/32/8
f 33/33/9 34/34/9 35/35/9 36/36/9
f 37/37/10 38/38/10 39/39/10 40/40/10
f 41/41/11 42/42/11 43/43/11 44/44/11
f 45/45/12 46/46/12 47/47/12 48/48/12
usemtl garden_mechanism
f 49/49/13 50/50/13 51/51/13 52/52/13
usemtl ruin_cap
f 53/53/14 54/54/14 55/55/14 56/56/14
f 57/57/15 58/58/15 59/59/15 60/60/15
f 61/61/16 62/62/16 63/63/16 64/64/16
f 65/65/17 66/66/17 67/67/17 68/68/17
f 69/69/18 70/70/18 71/71/18 72/72/18
usemtl garden_mechanism
f 73/73/19 74/74/19 75/75/19 76/76/19
usemtl ruin_cap
f 77/77/20 78/78/20 79/79/20 80/80/20
f 81/81/21 82/82/21 83/83/21 84/84/21
f 85/85/22 86/86/22 87/87/22 88/88/22
f 89/89/23 90/90/23 91/91/23 92/92/23
f 93/93/24 94/94/24 95/95/24 96/96/24
usemtl hazard_dark
f 97/97/25 98/98/25 99/99/25 100/100/25
f 101/101/26 102/102/26 103/103/26 104/104/26
f 105/105/27 106/106/27 107/107/27 108/108/27
f 109/109/28 110/110/28 111/111/28 112/112/28
f 113/113/29 114/114/29 115/115/29 116/116/29
f 117/117/30 118/118/30 119/119/30 120/120/30
f 121/121/31 122/122/31 123/123/31 124/124/31
f 125/125/32 126/126/32 127/127/32 128/128/32
f 129/129/33 130/130/33 131/131/33 132/132/33
f 133/133/34 134/134/34 135/135/34 136/136/34
f 137/137/35 138/138/35 139/139/35 140/140/35
f 141/141/36 142/142/36 143/143/36 144/144/36
f 145/145/37 146/146/37 147/147/37 148/148/37
f 149/149/38 150/150/38 151/151/38 152/152/38
f 153/153/39 154/154/39 155/155/39 156/156/39
f 157/157/40 158/158/40 159/159/40 160/160/40
f 161/161/41 162/162/41 163/163/41 164/164/41
f 165/165/42 166/166/42 167/167/42 168/168/42
f 169/169/43 170/170/43 171/171/43 172/172/43
f 173/173/44 174/174/44 175/175/44 176/176/44
f 177/177/45 178/178/45 179/179/45 180/180/45
f 181/181/46 182/182/46 183/183/46 184/184/46
f 185/185/47 186/186/47 187/187/47 188/188/47
f 189/189/48 190/190/48 191/191/48 192/192/48
f 193/193/49 194/194/49 195/195/49 196/196/49
f 197/197/50 198/198/50 199/199/50 200/200/50
f 201/201/51 202/202/51 203/203/51 204/204/51
f 205/205/52 206/206/52 207/207/52 208/208/52
f 209/209/53 210/210/53 211/211/53 212/212/53
f 213/213/54 214/214/54 215/215/54 216/216/54
f 217/217/55 218/218/55 219/219/55 220/220/55
f 221/221/56 222/222/56 223/223/56 224/224/56
f 225/225/57 226/226/57 227/227/57 228/228/57
f 229/229/58 230/230/58 231/231/58 232/232/58
f 233/233/59 234/234/59 235/235/59 236/236/59
f 237/237/60 238/238/60 239/239/60 240/240/60
f 241/241/61 242/242/61 243/243/61 244/244/61
f 245/245/62 246/246/62 247/247/62 248/248/62
f 249/249/63 250/250/63 251/251/63 252/252/63
f 253/253/64 254/254/64 255/255/64 256/256/64
f 257/257/65 258/258/65 259/259/65 260/260/65
f 261/261/66 262/262/66 263/263/66 264/264/66
f 265/265/67 266/266/67 267/267/67 268/268/67
f 269/269/68 270/270/68 271/271/68 272/272/68
f 273/273/69 274/274/69 275/275/69 276/276/69
f 277/277/70 278/278/70 279/279/70 280/280/70
f 281/281/71 282/282/71 283/283/71 284/284/71
f 285/285/72 286/286/72 287/287/72 288/288/72
f 289/289/73 290/290/73 291/291/73 292/292/73
f 293/293/74 294/294/74 295/295/74 296/296/74
f 297/297/75 298/298/75 299/299/75 300/300/75
f 301/301/76 302/302/76 303/303/76 304/304/76
f 305/305/77 306/306/77 307/307/77 308/308/77
f 309/309/78 310/310/78 311/311/78 312/312/78
f 313/313/79 314/314/79 315/315/79 316/316/79
f 317/317/80 318/318/80 319/319/80 320/320/80
f 321/321/81 322/322/81 323/323/81 324/324/81
f 325/325/82 326/326/82 327/327/82 328/328/82
f 329/329/83 330/330/83 331/331/83 332/332/83
f 333/333/84 334/334/84 335/335/84 336/336/84
f 337/337/85 338/338/85 339/339/85 340/340/85
f 341/341/86 342/342/86 343/343/86 344/344/86
f 345/345/87 346/346/87 347/347/87 348/348/87
f 349/349/88 350/350/88 351/351/88 352/352/88
f 353/353/89 354/354/89 355/355/89 356/356/89
f 357/357/90 358/358/90 359/359/90 360/360/90
f 361/361/91 362/362/91 363/363/91 364/364/91
f 365/365/92 366/366/92 367/367/92 368/368/92
f 369/369/93 370/370/93 371/371/93 372/372/93
f 373/373/94 374/374/94 375/375/94 376/376/94
f 377/377/95 378/378/95 379/379/95 380/380/95
f 381/381/96 382/382/96 383/383/96 384/384/96
