# Blender 4.4.1
# www.blender.org
mtllib enemy_core3.mtl
o enemy_core3
v -0.098588 -0.300425 -0.244879
v 0.130801 -0.236449 0.055890
v -0.109341 0.332145 -0.070920
v 0.233325 0.089327 0.278536
v -0.094811 0.382872 -0.038934
v 0.032048 0.432981 0.133439
v -0.526285 -0.047656 0.298017
v -0.339365 -0.265405 0.298017
v -0.735297 -0.077445 0.209497
v -0.457160 -0.388912 0.209497
v -0.591127 -0.475024 0.000000
v -0.457315 -0.516415 -0.090003
v 0.104752 -0.295547 0.298017
v 0.047013 -0.325665 0.298017
v -0.036808 -0.369189 0.298017
v -0.483706 -0.538809 -0.043650
v -0.535186 -0.532526 0.000000
v -0.450851 -0.480053 0.130258
v -0.209238 -0.393625 0.298017
v -0.272792 -0.412252 0.267091
v -0.396141 -0.447649 0.209497
v -0.639946 -0.362200 0.058633
v -0.709087 -0.179843 0.147579
v -0.741863 -0.092012 0.190205
v -0.731463 -0.120714 0.176459
v 0.124605 -0.285126 0.298017
v 0.202314 -0.019059 0.298017
v 0.232208 0.083768 0.298017
v -0.624582 0.155875 0.298017
v -0.528578 0.263188 0.298017
v -0.741331 -0.075689 0.204725
v -0.738523 -0.067380 0.209497
v -0.700464 0.007782 0.239609
v -0.026998 0.461248 0.298017
v -0.051432 0.458593 0.298017
v -0.388159 0.419621 0.298017
v 0.155430 0.195833 0.298017
v -0.457315 -0.516415 -0.090003
v -0.483706 -0.538809 -0.043650
v -0.591127 -0.475024 0.000000
v -0.591127 -0.475024 0.000000
v 0.104752 -0.295547 0.298017
v 0.047013 -0.325665 0.298017
v -0.036808 -0.369189 0.298017
v -0.450851 -0.480053 0.130258
v -0.450851 -0.480053 0.130258
v -0.396141 -0.447649 0.209497
v -0.396141 -0.447649 0.209497
v -0.535186 -0.532526 0.000000
v -0.535186 -0.532526 0.000000
v -0.209238 -0.393625 0.298017
v -0.209238 -0.393625 0.298017
v -0.272792 -0.412252 0.267091
v -0.639946 -0.362200 0.058633
v -0.639946 -0.362200 0.058633
v -0.709087 -0.179843 0.147579
v -0.741863 -0.092012 0.190205
v -0.731463 -0.120714 0.176459
v -0.731463 -0.120714 0.176459
v 0.124605 -0.285126 0.298017
v 0.202314 -0.019059 0.298017
v 0.232208 0.083768 0.298017
v -0.741331 -0.075689 0.204725
v -0.741331 -0.075689 0.204725
v -0.738523 -0.067380 0.209497
v -0.738523 -0.067380 0.209497
v -0.700464 0.007782 0.239609
v -0.700464 0.007782 0.239609
v -0.624582 0.155875 0.298017
v -0.624582 0.155875 0.298017
v -0.528578 0.263188 0.298017
v -0.051432 0.458593 0.298017
v -0.026998 0.461248 0.298017
v -0.388159 0.419621 0.298017
v 0.155430 0.195833 0.298017
v -0.735297 -0.077445 0.209497
v -0.735297 -0.077445 0.209497
v -0.735297 -0.077445 0.209497
v -0.735297 -0.077445 0.209497
v -0.735297 -0.077445 0.209497
v -0.526285 -0.047656 0.298017
v -0.526285 -0.047656 0.298017
v -0.526285 -0.047656 0.298017
v -0.457160 -0.388912 0.209497
v -0.457160 -0.388912 0.209497
v -0.457160 -0.388912 0.209497
v -0.457160 -0.388912 0.209497
v -0.457160 -0.388912 0.209497
v -0.339365 -0.265405 0.298017
v -0.339365 -0.265405 0.298017
vn 0.4563 -0.8748 -0.1630
vn 0.4549 -0.8760 -0.1601
vn 0.1341 -0.9462 0.2944
vn -0.4957 0.2224 -0.8395
vn 0.7471 0.1880 -0.6376
vn 0.7626 0.1828 -0.6205
vn 0.4585 -0.8735 -0.1639
vn 0.9594 -0.2802 -0.0318
vn 0.9600 -0.2791 -0.0246
vn -0.6042 0.5405 -0.5855
vn -0.0000 -0.0000 1.0000
vn -0.1057 0.9730 -0.2050
vn 0.7644 0.1872 -0.6170
vn 0.7633 0.1832 -0.6195
vn -0.1126 0.9725 -0.2040
vn 0.8084 0.5556 0.1946
vn 0.8076 0.5533 0.2042
vn -0.6199 -0.5102 0.5962
vn -0.3355 -0.2996 0.8931
vn -0.3627 -0.1752 0.9153
vn -0.6432 -0.2061 0.7375
vn -0.3507 -0.3011 0.8868
vn -0.3223 -0.3328 0.8862
vn -0.3252 -0.3338 0.8848
vn -0.3308 -0.3357 0.8820
vn -0.5748 -0.5592 0.5974
vn -0.6037 0.5419 -0.5847
vn -0.4318 -0.1384 0.8913
vn -0.5865 -0.5237 0.6179
vn -0.5486 -0.5699 0.6118
vn -0.4962 0.2214 -0.8395
vn -0.3193 -0.3317 0.8877
vn -0.5748 -0.5592 -0.5974
vn 0.4564 -0.8748 -0.1627
vn -0.0000 -0.0003 1.0000
vn -0.6038 0.5417 -0.5848
vn -0.5859 -0.5232 0.6189
vn -0.4997 0.2193 -0.8380
vn -0.4959 0.2217 -0.8396
vt 0.000000 0.000000
vt 1.000000 0.119953
vt 1.000000 0.951877
vt 1.000000 0.121725
vt 0.951877 0.951877
vt 0.119953 0.119953
vt 0.929086 0.827422
vt 0.121725 0.121725
vt 0.355382 0.172294
vt 1.000000 0.000000
vt 0.171635 0.171635
vt 0.142540 0.055762
vt 1.000000 1.000000
vt 1.000000 0.083738
vt 1.000000 0.281941
vt 0.829933 0.829933
vt 0.281555 0.000000
vt 0.281941 0.281941
vt 0.933760 0.826780
vt 0.701169 0.617968
vt 0.129489 0.129489
vt 0.130090 0.130090
vt 1.000000 0.129489
vt 1.000000 0.720109
vt 0.720109 0.720109
vt 1.000000 0.718445
vt 1.000000 0.130090
vt 0.119785 0.119785
vt 0.171635 0.000000
vt 1.000000 0.865776
vt 0.684759 0.419223
vt 0.865776 0.865776
vt 0.916262 0.000000
vt 0.533399 0.305350
vt 0.684785 0.502556
vt 0.946093 0.946093
vt 0.261973 0.100518
vt 0.129046 0.000000
vt 0.829933 0.000000
vt 0.297900 0.249006
vt 0.119785 0.000000
vt 1.000000 0.870954
vt 0.907105 0.805432
vt 0.233451 0.000000
vt 0.766549 0.000000
vt 0.814249 0.399899
s 0
f 1/1/1 43/2/1 39/3/1
f 44/4/2 39/5/2 43/6/2
f 49/7/3 44/8/3 53/9/3
f 3/10/4 23/11/4 58/12/4
f 3/1/5 5/10/5 1/13/5
f 5/1/6 2/10/6 1/13/6
f 2/1/7 42/14/7 1/13/7
f 2/1/8 61/15/8 60/16/8
f 4/1/9 62/17/9 61/18/9
f 3/10/10 63/19/10 67/20/10
s 1
f 52/1/11 26/1/11 73/1/11
s 0
f 35/21/12 6/10/12 5/13/12
f 6/1/13 4/10/13 5/13/13
f 4/1/14 2/10/14 5/13/14
f 36/22/15 35/23/15 5/13/15
f 6/1/16 75/24/16 4/13/16
f 75/25/17 62/26/17 4/13/17
s 1
f 24/1/18 76/1/18 64/1/18
f 81/1/19 77/1/19 84/1/19
f 68/1/20 83/1/20 29/1/20
f 66/1/21 31/1/21 79/1/21
f 7/1/22 85/1/22 90/1/22
f 8/1/23 20/1/24 19/1/25
f 86/1/26 41/1/26 50/1/26
s 0
f 36/27/27 3/13/27 71/28/27
s 1
f 9/1/28 33/1/28 32/1/28
f 55/1/29 80/1/29 25/1/29
f 87/1/30 18/1/30 48/1/30
s 0
f 23/29/31 38/30/31 40/31/31
s 1
f 8/1/23 21/1/32 20/1/24
f 11/1/33 16/1/33 17/1/33
s 0
f 39/3/34 38/32/34 1/1/34
f 1/1/1 42/33/1 43/2/1
f 47/34/3 45/35/3 49/7/3
f 49/7/3 39/36/3 44/8/3
f 44/8/3 51/37/3 53/9/3
f 53/9/3 47/34/3 49/7/3
f 58/12/4 57/38/4 3/10/4
f 3/10/4 1/13/4 23/11/4
f 2/1/7 60/39/7 42/14/7
f 2/1/8 4/10/8 61/15/8
f 69/40/10 71/41/10 3/10/10
f 3/10/10 57/42/10 63/19/10
f 63/19/10 65/43/10 67/20/10
f 67/20/10 69/40/10 3/10/10
s 1
f 72/1/11 74/1/11 30/1/11
f 30/1/11 70/1/11 82/1/11
f 82/1/11 89/1/11 52/1/11
f 52/1/11 15/1/11 14/1/11
f 14/1/11 13/1/35 26/1/11
f 26/1/11 27/1/11 28/1/11
f 28/1/11 37/1/11 73/1/11
f 73/1/11 72/1/11 30/1/11
f 30/1/11 82/1/11 52/1/11
f 52/1/11 14/1/11 26/1/11
f 26/1/11 28/1/11 73/1/11
f 73/1/11 30/1/11 52/1/11
s 0
f 35/21/12 34/44/12 6/10/12
f 6/1/16 34/45/16 75/24/16
s 1
f 24/1/18 59/1/18 76/1/18
f 68/1/20 78/1/20 83/1/20
f 50/1/26 46/1/26 86/1/26
f 86/1/26 54/1/26 41/1/26
s 0
f 36/27/36 5/10/36 3/13/36
s 1
f 25/1/29 56/1/37 55/1/29
f 55/1/29 10/1/29 80/1/29
s 0
f 40/31/38 22/46/38 23/29/38
f 23/29/39 1/10/39 38/30/39
s 1
f 8/1/23 88/1/32 21/1/32
f 11/1/33 12/1/33 16/1/33
