mtllib galaxy_orbit_platform.mtl
o galaxy_orbit_platform
v 2.650000 -0.360000 0.000000
v 2.650000 0.260000 0.000000
v 2.559703 -0.360000 0.685870
v 2.559703 0.260000 0.685870
v 2.294967 -0.360000 1.325000
v 2.294967 0.260000 1.325000
v 1.873833 -0.360000 1.873833
v 1.873833 0.260000 1.873833
v 1.325000 -0.360000 2.294967
v 1.325000 0.260000 2.294967
v 0.685870 -0.360000 2.559703
v 0.685870 0.260000 2.559703
v 0.000000 -0.360000 2.650000
v 0.000000 0.260000 2.650000
v -0.685870 -0.360000 2.559703
v -0.685870 0.260000 2.559703
v -1.325000 -0.360000 2.294967
v -1.325000 0.260000 2.294967
v -1.873833 -0.360000 1.873833
v -1.873833 0.260000 1.873833
v -2.294967 -0.360000 1.325000
v -2.294967 0.260000 1.325000
v -2.559703 -0.360000 0.685870
v -2.559703 0.260000 0.685870
v -2.650000 -0.360000 0.000000
v -2.650000 0.260000 0.000000
v -2.559703 -0.360000 -0.685870
v -2.559703 0.260000 -0.685870
v -2.294967 -0.360000 -1.325000
v -2.294967 0.260000 -1.325000
v -1.873833 -0.360000 -1.873833
v -1.873833 0.260000 -1.873833
v -1.325000 -0.360000 -2.294967
v -1.325000 0.260000 -2.294967
v -0.685870 -0.360000 -2.559703
v -0.685870 0.260000 -2.559703
v 0.000000 -0.360000 -2.650000
v 0.000000 0.260000 -2.650000
v 0.685870 -0.360000 -2.559703
v 0.685870 0.260000 -2.559703
v 1.325000 -0.360000 -2.294967
v 1.325000 0.260000 -2.294967
v 1.873833 -0.360000 -1.873833
v 1.873833 0.260000 -1.873833
v 2.294967 -0.360000 -1.325000
v 2.294967 0.260000 -1.325000
v 2.559703 -0.360000 -0.685870
v 2.559703 0.260000 -0.685870
v 0.000000 -0.360000 0.000000
v 0.000000 0.260000 0.000000
usemtl violet
f 1 3 4 2
f 3 5 6 4
f 5 7 8 6
f 7 9 10 8
f 9 11 12 10
f 11 13 14 12
f 13 15 16 14
f 15 17 18 16
f 17 19 20 18
f 19 21 22 20
f 21 23 24 22
f 23 25 26 24
f 25 27 28 26
f 27 29 30 28
f 29 31 32 30
f 31 33 34 32
f 33 35 36 34
f 35 37 38 36
f 37 39 40 38
f 39 41 42 40
f 41 43 44 42
f 43 45 46 44
f 45 47 48 46
f 47 1 2 48
usemtl pearl
f 49 3 1
f 50 2 4
f 49 5 3
f 50 4 6
f 49 7 5
f 50 6 8
f 49 9 7
f 50 8 10
f 49 11 9
f 50 10 12
f 49 13 11
f 50 12 14
f 49 15 13
f 50 14 16
f 49 17 15
f 50 16 18
f 49 19 17
f 50 18 20
f 49 21 19
f 50 20 22
f 49 23 21
f 50 22 24
f 49 25 23
f 50 24 26
f 49 27 25
f 50 26 28
f 49 29 27
f 50 28 30
f 49 31 29
f 50 30 32
f 49 33 31
f 50 32 34
f 49 35 33
f 50 34 36
f 49 37 35
f 50 36 38
f 49 39 37
f 50 38 40
f 49 41 39
f 50 40 42
f 49 43 41
f 50 42 44
f 49 45 43
f 50 44 46
f 49 47 45
f 50 46 48
f 49 1 47
f 50 48 2
v 2.360000 0.250000 0.000000
v 2.360000 0.450000 0.000000
v 2.279585 0.250000 0.610813
v 2.279585 0.450000 0.610813
v 2.043820 0.250000 1.180000
v 2.043820 0.450000 1.180000
v 1.668772 0.250000 1.668772
v 1.668772 0.450000 1.668772
v 1.180000 0.250000 2.043820
v 1.180000 0.450000 2.043820
v 0.610813 0.250000 2.279585
v 0.610813 0.450000 2.279585
v 0.000000 0.250000 2.360000
v 0.000000 0.450000 2.360000
v -0.610813 0.250000 2.279585
v -0.610813 0.450000 2.279585
v -1.180000 0.250000 2.043820
v -1.180000 0.450000 2.043820
v -1.668772 0.250000 1.668772
v -1.668772 0.450000 1.668772
v -2.043820 0.250000 1.180000
v -2.043820 0.450000 1.180000
v -2.279585 0.250000 0.610813
v -2.279585 0.450000 0.610813
v -2.360000 0.250000 0.000000
v -2.360000 0.450000 0.000000
v -2.279585 0.250000 -0.610813
v -2.279585 0.450000 -0.610813
v -2.043820 0.250000 -1.180000
v -2.043820 0.450000 -1.180000
v -1.668772 0.250000 -1.668772
v -1.668772 0.450000 -1.668772
v -1.180000 0.250000 -2.043820
v -1.180000 0.450000 -2.043820
v -0.610813 0.250000 -2.279585
v -0.610813 0.450000 -2.279585
v 0.000000 0.250000 -2.360000
v 0.000000 0.450000 -2.360000
v 0.610813 0.250000 -2.279585
v 0.610813 0.450000 -2.279585
v 1.180000 0.250000 -2.043820
v 1.180000 0.450000 -2.043820
v 1.668772 0.250000 -1.668772
v 1.668772 0.450000 -1.668772
v 2.043820 0.250000 -1.180000
v 2.043820 0.450000 -1.180000
v 2.279585 0.250000 -0.610813
v 2.279585 0.450000 -0.610813
v 0.000000 0.250000 0.000000
v 0.000000 0.450000 0.000000
usemtl gold
f 51 53 54 52
f 53 55 56 54
f 55 57 58 56
f 57 59 60 58
f 59 61 62 60
f 61 63 64 62
f 63 65 66 64
f 65 67 68 66
f 67 69 70 68
f 69 71 72 70
f 71 73 74 72
f 73 75 76 74
f 75 77 78 76
f 77 79 80 78
f 79 81 82 80
f 81 83 84 82
f 83 85 86 84
f 85 87 88 86
f 87 89 90 88
f 89 91 92 90
f 91 93 94 92
f 93 95 96 94
f 95 97 98 96
f 97 51 52 98
usemtl aqua
f 99 53 51
f 100 52 54
f 99 55 53
f 100 54 56
f 99 57 55
f 100 56 58
f 99 59 57
f 100 58 60
f 99 61 59
f 100 60 62
f 99 63 61
f 100 62 64
f 99 65 63
f 100 64 66
f 99 67 65
f 100 66 68
f 99 69 67
f 100 68 70
f 99 71 69
f 100 70 72
f 99 73 71
f 100 72 74
f 99 75 73
f 100 74 76
f 99 77 75
f 100 76 78
f 99 79 77
f 100 78 80
f 99 81 79
f 100 80 82
f 99 83 81
f 100 82 84
f 99 85 83
f 100 84 86
f 99 87 85
f 100 86 88
f 99 89 87
f 100 88 90
f 99 91 89
f 100 90 92
f 99 93 91
f 100 92 94
f 99 95 93
f 100 94 96
f 99 97 95
f 100 96 98
f 99 51 97
f 100 98 52
v 0.000000 0.455000 -1.450000
v 0.000000 0.605000 -1.450000
v 0.370305 0.455000 -0.509681
v 0.370305 0.605000 -0.509681
v 1.379032 0.455000 -0.448075
v 1.379032 0.605000 -0.448075
v 0.599166 0.455000 0.194681
v 0.599166 0.605000 0.194681
v 0.852289 0.455000 1.173075
v 0.852289 0.605000 1.173075
v 0.000000 0.455000 0.630000
v 0.000000 0.605000 0.630000
v -0.852289 0.455000 1.173075
v -0.852289 0.605000 1.173075
v -0.599166 0.455000 0.194681
v -0.599166 0.605000 0.194681
v -1.379032 0.455000 -0.448075
v -1.379032 0.605000 -0.448075
v -0.370305 0.455000 -0.509681
v -0.370305 0.605000 -0.509681
v 0.000000 0.455000 0.000000
v 0.000000 0.605000 0.000000
usemtl aqua
f 101 103 104 102
f 103 105 106 104
f 105 107 108 106
f 107 109 110 108
f 109 111 112 110
f 111 113 114 112
f 113 115 116 114
f 115 117 118 116
f 117 119 120 118
f 119 101 102 120
usemtl pearl
f 121 103 101
f 122 102 104
f 121 105 103
f 122 104 106
f 121 107 105
f 122 106 108
f 121 109 107
f 122 108 110
f 121 111 109
f 122 110 112
f 121 113 111
f 122 112 114
f 121 115 113
f 122 114 116
f 121 117 115
f 122 116 118
f 121 119 117
f 122 118 120
f 121 101 119
f 122 120 102
v 2.200000 0.430000 0.000000
v 2.160000 0.499282 0.000000
v 2.080000 0.499282 0.000000
v 2.040000 0.430000 0.000000
v 2.080000 0.360718 0.000000
v 2.160000 0.360718 0.000000
v 2.125037 0.430000 0.569402
v 2.086400 0.499282 0.559049
v 2.009126 0.499282 0.538344
v 1.970489 0.430000 0.527991
v 2.009126 0.360718 0.538344
v 2.086400 0.360718 0.559049
v 1.905256 0.430000 1.100000
v 1.870615 0.499282 1.080000
v 1.801333 0.499282 1.040000
v 1.766692 0.430000 1.020000
v 1.801333 0.360718 1.040000
v 1.870615 0.360718 1.080000
v 1.555635 0.430000 1.555635
v 1.527351 0.499282 1.527351
v 1.470782 0.499282 1.470782
v 1.442498 0.430000 1.442498
v 1.470782 0.360718 1.470782
v 1.527351 0.360718 1.527351
v 1.100000 0.430000 1.905256
v 1.080000 0.499282 1.870615
v 1.040000 0.499282 1.801333
v 1.020000 0.430000 1.766692
v 1.040000 0.360718 1.801333
v 1.080000 0.360718 1.870615
v 0.569402 0.430000 2.125037
v 0.559049 0.499282 2.086400
v 0.538344 0.499282 2.009126
v 0.527991 0.430000 1.970489
v 0.538344 0.360718 2.009126
v 0.559049 0.360718 2.086400
v 0.000000 0.430000 2.200000
v 0.000000 0.499282 2.160000
v 0.000000 0.499282 2.080000
v 0.000000 0.430000 2.040000
v 0.000000 0.360718 2.080000
v 0.000000 0.360718 2.160000
v -0.569402 0.430000 2.125037
v -0.559049 0.499282 2.086400
v -0.538344 0.499282 2.009126
v -0.527991 0.430000 1.970489
v -0.538344 0.360718 2.009126
v -0.559049 0.360718 2.086400
v -1.100000 0.430000 1.905256
v -1.080000 0.499282 1.870615
v -1.040000 0.499282 1.801333
v -1.020000 0.430000 1.766692
v -1.040000 0.360718 1.801333
v -1.080000 0.360718 1.870615
v -1.555635 0.430000 1.555635
v -1.527351 0.499282 1.527351
v -1.470782 0.499282 1.470782
v -1.442498 0.430000 1.442498
v -1.470782 0.360718 1.470782
v -1.527351 0.360718 1.527351
v -1.905256 0.430000 1.100000
v -1.870615 0.499282 1.080000
v -1.801333 0.499282 1.040000
v -1.766692 0.430000 1.020000
v -1.801333 0.360718 1.040000
v -1.870615 0.360718 1.080000
v -2.125037 0.430000 0.569402
v -2.086400 0.499282 0.559049
v -2.009126 0.499282 0.538344
v -1.970489 0.430000 0.527991
v -2.009126 0.360718 0.538344
v -2.086400 0.360718 0.559049
v -2.200000 0.430000 0.000000
v -2.160000 0.499282 0.000000
v -2.080000 0.499282 0.000000
v -2.040000 0.430000 0.000000
v -2.080000 0.360718 0.000000
v -2.160000 0.360718 0.000000
v -2.125037 0.430000 -0.569402
v -2.086400 0.499282 -0.559049
v -2.009126 0.499282 -0.538344
v -1.970489 0.430000 -0.527991
v -2.009126 0.360718 -0.538344
v -2.086400 0.360718 -0.559049
v -1.905256 0.430000 -1.100000
v -1.870615 0.499282 -1.080000
v -1.801333 0.499282 -1.040000
v -1.766692 0.430000 -1.020000
v -1.801333 0.360718 -1.040000
v -1.870615 0.360718 -1.080000
v -1.555635 0.430000 -1.555635
v -1.527351 0.499282 -1.527351
v -1.470782 0.499282 -1.470782
v -1.442498 0.430000 -1.442498
v -1.470782 0.360718 -1.470782
v -1.527351 0.360718 -1.527351
v -1.100000 0.430000 -1.905256
v -1.080000 0.499282 -1.870615
v -1.040000 0.499282 -1.801333
v -1.020000 0.430000 -1.766692
v -1.040000 0.360718 -1.801333
v -1.080000 0.360718 -1.870615
v -0.569402 0.430000 -2.125037
v -0.559049 0.499282 -2.086400
v -0.538344 0.499282 -2.009126
v -0.527991 0.430000 -1.970489
v -0.538344 0.360718 -2.009126
v -0.559049 0.360718 -2.086400
v 0.000000 0.430000 -2.200000
v 0.000000 0.499282 -2.160000
v 0.000000 0.499282 -2.080000
v 0.000000 0.430000 -2.040000
v 0.000000 0.360718 -2.080000
v 0.000000 0.360718 -2.160000
v 0.569402 0.430000 -2.125037
v 0.559049 0.499282 -2.086400
v 0.538344 0.499282 -2.009126
v 0.527991 0.430000 -1.970489
v 0.538344 0.360718 -2.009126
v 0.559049 0.360718 -2.086400
v 1.100000 0.430000 -1.905256
v 1.080000 0.499282 -1.870615
v 1.040000 0.499282 -1.801333
v 1.020000 0.430000 -1.766692
v 1.040000 0.360718 -1.801333
v 1.080000 0.360718 -1.870615
v 1.555635 0.430000 -1.555635
v 1.527351 0.499282 -1.527351
v 1.470782 0.499282 -1.470782
v 1.442498 0.430000 -1.442498
v 1.470782 0.360718 -1.470782
v 1.527351 0.360718 -1.527351
v 1.905256 0.430000 -1.100000
v 1.870615 0.499282 -1.080000
v 1.801333 0.499282 -1.040000
v 1.766692 0.430000 -1.020000
v 1.801333 0.360718 -1.040000
v 1.870615 0.360718 -1.080000
v 2.125037 0.430000 -0.569402
v 2.086400 0.499282 -0.559049
v 2.009126 0.499282 -0.538344
v 1.970489 0.430000 -0.527991
v 2.009126 0.360718 -0.538344
v 2.086400 0.360718 -0.559049
usemtl gold
f 123 129 130 124
f 124 130 131 125
f 125 131 132 126
f 126 132 133 127
f 127 133 134 128
f 128 134 129 123
f 129 135 136 130
f 130 136 137 131
f 131 137 138 132
f 132 138 139 133
f 133 139 140 134
f 134 140 135 129
f 135 141 142 136
f 136 142 143 137
f 137 143 144 138
f 138 144 145 139
f 139 145 146 140
f 140 146 141 135
f 141 147 148 142
f 142 148 149 143
f 143 149 150 144
f 144 150 151 145
f 145 151 152 146
f 146 152 147 141
f 147 153 154 148
f 148 154 155 149
f 149 155 156 150
f 150 156 157 151
f 151 157 158 152
f 152 158 153 147
f 153 159 160 154
f 154 160 161 155
f 155 161 162 156
f 156 162 163 157
f 157 163 164 158
f 158 164 159 153
f 159 165 166 160
f 160 166 167 161
f 161 167 168 162
f 162 168 169 163
f 163 169 170 164
f 164 170 165 159
f 165 171 172 166
f 166 172 173 167
f 167 173 174 168
f 168 174 175 169
f 169 175 176 170
f 170 176 171 165
f 171 177 178 172
f 172 178 179 173
f 173 179 180 174
f 174 180 181 175
f 175 181 182 176
f 176 182 177 171
f 177 183 184 178
f 178 184 185 179
f 179 185 186 180
f 180 186 187 181
f 181 187 188 182
f 182 188 183 177
f 183 189 190 184
f 184 190 191 185
f 185 191 192 186
f 186 192 193 187
f 187 193 194 188
f 188 194 189 183
f 189 195 196 190
f 190 196 197 191
f 191 197 198 192
f 192 198 199 193
f 193 199 200 194
f 194 200 195 189
f 195 201 202 196
f 196 202 203 197
f 197 203 204 198
f 198 204 205 199
f 199 205 206 200
f 200 206 201 195
f 201 207 208 202
f 202 208 209 203
f 203 209 210 204
f 204 210 211 205
f 205 211 212 206
f 206 212 207 201
f 207 213 214 208
f 208 214 215 209
f 209 215 216 210
f 210 216 217 211
f 211 217 218 212
f 212 218 213 207
f 213 219 220 214
f 214 220 221 215
f 215 221 222 216
f 216 222 223 217
f 217 223 224 218
f 218 224 219 213
f 219 225 226 220
f 220 226 227 221
f 221 227 228 222
f 222 228 229 223
f 223 229 230 224
f 224 230 225 219
f 225 231 232 226
f 226 232 233 227
f 227 233 234 228
f 228 234 235 229
f 229 235 236 230
f 230 236 231 225
f 231 237 238 232
f 232 238 239 233
f 233 239 240 234
f 234 240 241 235
f 235 241 242 236
f 236 242 237 231
f 237 243 244 238
f 238 244 245 239
f 239 245 246 240
f 240 246 247 241
f 241 247 248 242
f 242 248 243 237
f 243 249 250 244
f 244 250 251 245
f 245 251 252 246
f 246 252 253 247
f 247 253 254 248
f 248 254 249 243
f 249 255 256 250
f 250 256 257 251
f 251 257 258 252
f 252 258 259 253
f 253 259 260 254
f 254 260 255 249
f 255 261 262 256
f 256 262 263 257
f 257 263 264 258
f 258 264 265 259
f 259 265 266 260
f 260 266 261 255
f 261 123 124 262
f 262 124 125 263
f 263 125 126 264
f 264 126 127 265
f 265 127 128 266
f 266 128 123 261
