# Blender 4.4.1
# www.blender.org
mtllib map_top_equipment_03.mtl
o 台座上側装置_03
v -0.000001 29.094145 -6.781445
v -1.322995 29.094145 -6.651141
v -0.000001 28.294144 -6.781445
v 1.322994 29.094145 -6.651140
v 1.322994 28.294144 -6.651140
v -0.000000 29.094145 -4.876377
v -0.951334 29.094145 -4.782679
v 0.951334 29.094145 -4.782679
v -0.000001 28.294144 -5.737219
v 1.119276 28.294144 -5.626981
v 2.195539 28.294144 -5.300499
v 2.595146 28.294144 -6.265238
v 3.767568 28.294144 -5.638565
v 2.595146 29.094145 -6.265238
v 3.187428 28.294144 -4.770324
v 4.056826 28.294144 -4.056826
v 2.709169 29.094145 -4.054559
v 4.795205 28.294144 -4.795205
v 1.866109 29.094145 -4.505185
v 5.638564 28.294144 -3.767569
v 4.795205 29.094145 -4.795205
v 3.767568 29.094145 -5.638565
v 3.448119 29.094145 -3.448119
v 4.054558 29.094145 -2.709170
v 4.505184 29.094145 -1.866109
v 4.770323 28.294144 -3.187428
v 5.638564 29.094145 -3.767569
v 5.300498 28.294144 -2.195539
v 5.626980 28.294144 -1.119276
v 6.265237 28.294144 -2.595147
v 6.651140 28.294144 -1.322994
v 6.265237 29.094143 -2.595147
v 6.651140 29.094143 -1.322994
v 6.781444 29.094143 0.000000
v 6.781444 28.294144 0.000000
v 4.782678 29.094145 -0.951334
v 4.876377 29.094145 -0.000000
v 4.782679 29.094145 0.951334
v 5.737219 28.294144 -0.000000
v 6.651140 29.094143 1.322994
v 5.626980 28.294144 1.119276
v 5.300498 28.294144 2.195539
v 6.651140 28.294144 1.322994
v 6.265237 28.294144 2.595146
v 5.638565 28.294144 3.767569
v 6.265237 29.094143 2.595146
v 4.770323 28.294144 3.187428
v 4.056826 28.294144 4.056827
v 4.054559 29.094145 2.709170
v 4.505184 29.094145 1.866109
v 3.448118 29.094145 3.448120
v 4.795205 29.094145 4.795205
v 5.638565 29.094145 3.767569
v 4.795205 28.294144 4.795205
v 3.767568 28.294144 5.638565
v 3.187428 28.294144 4.770323
v 2.195539 28.294144 5.300499
v 2.709170 29.094145 4.054559
v 2.595146 28.294144 6.265238
v 1.866109 29.094145 4.505185
v 0.951334 29.094145 4.782679
v 2.595146 29.094145 6.265238
v 1.322994 29.094145 6.651141
v 3.767568 29.094145 5.638565
v 1.322994 28.294144 6.651141
v -0.000000 28.294144 6.781445
v -0.000000 29.094145 6.781445
v 1.119276 28.294144 5.626981
v -0.000000 28.294144 5.737219
v -1.119276 28.294144 5.626981
v -0.000000 29.094145 4.876377
v -1.322994 28.294144 6.651141
v -0.951334 29.094145 4.782679
v -1.322994 29.094145 6.651141
v -1.866109 29.094145 4.505185
v -2.195539 28.294146 5.300499
v -2.595147 28.294146 6.265238
v -3.187429 28.294146 4.770324
v -3.767570 28.294146 5.638565
v -2.709170 29.094145 4.054559
v -3.448120 29.094145 3.448119
v -4.795206 29.094145 4.795205
v -3.767570 29.094145 5.638565
v -2.595147 29.094145 6.265238
v -4.056827 28.294146 4.056826
v -4.770325 28.294146 3.187428
v -4.795206 28.294146 4.795205
v -5.638566 28.294146 3.767569
v -4.054560 29.094145 2.709170
v -4.505186 29.094145 1.866109
v -5.638566 29.094145 3.767569
v -5.300499 28.294146 2.195539
v -5.626982 28.294146 1.119276
v -6.265238 28.294146 2.595147
v -4.782680 29.094145 0.951334
v -4.876378 29.094145 0.000000
v -6.781446 29.094147 0.000000
v -6.651142 29.094147 1.322994
v -5.737220 28.294146 0.000000
v -5.626982 28.294146 -1.119276
v -6.781446 28.294146 0.000000
v -6.651142 28.294146 -1.322994
v -6.265238 28.294146 -2.595147
v -6.651142 29.094147 -1.322994
v -6.265238 29.094147 -2.595147
v -4.782680 29.094145 -0.951334
v -4.505186 29.094145 -1.866109
v -5.300500 28.294146 -2.195539
v -4.770325 28.294146 -3.187428
v -4.054560 29.094145 -2.709170
v -3.448120 29.094145 -3.448120
v -4.795206 29.094145 -4.795205
v -5.638566 29.094145 -3.767569
v -4.056827 28.294146 -4.056827
v -3.187429 28.294146 -4.770324
v -5.638566 28.294146 -3.767569
v -4.795206 28.294146 -4.795205
v -2.709171 29.094145 -4.054559
v -1.866110 29.094145 -4.505185
v -3.767570 29.094145 -5.638566
v -2.195540 28.294146 -5.300499
v -1.119277 28.294144 -5.626981
v -2.595147 28.294146 -6.265238
v -1.322995 28.294144 -6.651141
v -2.595147 29.094145 -6.265238
v -3.767570 28.294146 -5.638566
v -6.651142 28.294146 1.322994
v -6.265238 29.094147 2.595147
vn -0.0000 1.0000 -0.0000
vn -0.0000 -0.0000 -1.0000
vn -0.1951 -0.0000 -0.9808
vn 0.1951 -0.0000 -0.9808
vn -0.0000 -0.7325 0.6807
vn 0.1328 -0.7325 0.6677
vn -0.1328 -0.7325 0.6677
vn -0.0000 -1.0000 -0.0000
vn -0.2605 -0.7325 0.6289
vn 0.5556 -0.0000 -0.8315
vn 0.3827 -0.0000 -0.9239
vn -0.3782 -0.7325 0.5660
vn -0.4814 -0.7325 0.4814
vn 0.8315 -0.0000 -0.5556
vn 0.7071 -0.0000 -0.7071
vn -0.5660 -0.7325 0.3782
vn -0.6289 -0.7325 0.2605
vn -0.6677 -0.7325 0.1328
vn 0.9808 -0.0000 -0.1951
vn 0.9239 -0.0000 -0.3827
vn 1.0000 -0.0000 -0.0000
vn -0.6807 -0.7325 -0.0000
vn -0.6677 -0.7325 -0.1328
vn -0.6289 -0.7325 -0.2605
vn 0.8315 -0.0000 0.5556
vn 0.9239 -0.0000 0.3827
vn 0.9808 -0.0000 0.1951
vn -0.5660 -0.7325 -0.3782
vn -0.4814 -0.7325 -0.4814
vn 0.7071 -0.0000 0.7071
vn 0.5556 -0.0000 0.8315
vn -0.3782 -0.7325 -0.5660
vn -0.2605 -0.7325 -0.6289
vn -0.1328 -0.7325 -0.6677
vn 0.1951 -0.0000 0.9808
vn 0.3827 -0.0000 0.9239
vn -0.0000 -0.0000 1.0000
vn -0.0000 -0.7325 -0.6807
vn 0.1328 -0.7325 -0.6677
vn 0.2605 -0.7325 -0.6289
vn 0.3782 -0.7325 -0.5660
vn 0.4814 -0.7325 -0.4814
vn 0.5660 -0.7325 -0.3782
vn 0.6289 -0.7325 -0.2605
vn 0.6677 -0.7325 -0.1328
vn 0.6807 -0.7325 -0.0000
vn 0.6677 -0.7325 0.1328
vn -0.9239 -0.0000 -0.3827
vn -0.9808 -0.0000 -0.1951
vn -1.0000 -0.0000 -0.0000
vn 0.6289 -0.7325 0.2605
vn 0.5660 -0.7325 0.3782
vn 0.4814 -0.7325 0.4814
vn 0.3782 -0.7325 0.5660
vn 0.2605 -0.7325 0.6289
vn -0.3827 -0.0000 -0.9239
vn -0.5556 -0.0000 -0.8315
vn -0.7071 -0.0000 -0.7071
vn -0.8315 -0.0000 -0.5556
vn -0.9808 -0.0000 0.1951
vn -0.9239 -0.0000 0.3827
vn -0.8315 -0.0000 0.5556
vn -0.7071 -0.0000 0.7071
vn -0.5556 -0.0000 0.8315
vn -0.3827 -0.0000 0.9239
vn -0.1951 -0.0000 0.9808
vt 0.000000 0.500000
vt 0.968750 0.500000
vt 0.394712 0.500000
vt 1.000000 1.000000
vt 1.000000 0.500000
vt 0.031250 1.000000
vt 0.000000 1.000000
vt 0.031250 0.500000
vt 1.000000 0.987600
vt 1.000000 0.512400
vt 0.968750 0.512400
vt 0.574038 0.500000
vt 0.274434 0.500000
vt 0.000000 0.512400
vt 0.031250 0.987600
vt 0.031250 0.512400
vt 0.000000 0.987600
vt 0.172298 0.437588
vt 0.210388 0.449143
vt 0.158156 0.471731
vt 0.062500 0.987600
vt 0.250000 0.453044
vt 0.203178 0.485388
vt 0.116663 0.449553
vt 0.137195 0.418825
vt 0.093750 1.000000
vt 0.062500 1.000000
vt 0.062500 0.500000
vt 0.093750 0.512400
vt 0.093750 0.987600
vt 0.125000 0.987600
vt 0.080294 0.419706
vt 0.106426 0.393574
vt 0.062500 0.512400
vt 0.229686 0.500000
vt 0.220723 0.500000
vt 0.050447 0.383337
vt 0.156250 1.000000
vt 0.125000 1.000000
vt 0.125000 0.500000
vt 0.093750 0.500000
vt 0.227066 0.500000
vt 0.125000 0.512400
vt 0.156250 0.512400
vt 0.240794 0.500000
vt 0.187500 0.987600
vt 0.187500 0.512400
vt 0.258575 0.500000
vt 0.156250 0.500000
vt 0.156250 0.987600
vt 0.028269 0.341844
vt 0.050857 0.289612
vt 0.062412 0.327702
vt 0.218750 0.987600
vt 0.081175 0.362805
vt 0.014612 0.296822
vt 0.218750 1.000000
vt 0.187500 1.000000
vt 0.187500 0.500000
vt 0.218750 0.500000
vt 0.250000 0.500000
vt 0.278812 0.500000
vt 0.250000 1.000000
vt 0.218750 0.512400
vt 0.250000 0.512400
vt 0.300653 0.500000
vt 0.323593 0.500000
vt 0.281250 0.500000
vt 0.281250 0.987600
vt 0.281250 0.512400
vt 0.250000 0.987600
vt 0.312500 0.987600
vt 0.028269 0.158156
vt 0.062412 0.172298
vt 0.050857 0.210388
vt 0.046956 0.250000
vt 0.014612 0.203178
vt 0.050447 0.116663
vt 0.081175 0.137195
vt 0.343750 1.000000
vt 0.312500 1.000000
vt 0.312500 0.500000
vt 0.281250 1.000000
vt 0.343750 0.512400
vt 0.343750 0.987600
vt 0.375000 0.987600
vt 0.106426 0.106426
vt 0.343750 0.500000
vt 0.347314 0.500000
vt 0.371597 0.500000
vt 0.312500 0.512400
vt 0.375000 0.500000
vt 0.396288 0.500000
vt 0.375000 0.512400
vt 0.375000 1.000000
vt 0.080294 0.080294
vt 0.116663 0.050447
vt 0.137195 0.081175
vt 0.406250 1.000000
vt 0.406250 0.987600
vt 0.437500 0.987600
vt 0.437500 0.512400
vt 0.158156 0.028269
vt 0.172298 0.062412
vt 0.406250 0.512400
vt 0.421266 0.500000
vt 0.446436 0.500000
vt 0.437500 0.500000
vt 0.468750 0.512400
vt 0.471717 0.500000
vt 0.468750 0.500000
vt 0.468750 1.000000
vt 0.437500 1.000000
vt 0.406250 0.500000
vt 0.203178 0.014612
vt 0.250000 0.010000
vt 0.250000 0.046956
vt 0.500000 0.500000
vt 0.500000 1.000000
vt 0.210388 0.050857
vt 0.500000 0.987600
vt 0.531250 0.987600
vt 0.531250 0.512400
vt 0.296822 0.014612
vt 0.289612 0.050857
vt 0.468750 0.987600
vt 0.500000 0.512400
vt 0.522314 0.500000
vt 0.531250 0.500000
vt 0.547484 0.500000
vt 0.562500 0.987600
vt 0.562500 0.512400
vt 0.497033 0.500000
vt 0.341844 0.028269
vt 0.327702 0.062412
vt 0.383337 0.050447
vt 0.593750 0.987600
vt 0.593750 0.512400
vt 0.362805 0.081175
vt 0.572462 0.500000
vt 0.562500 0.500000
vt 0.625000 0.987600
vt 0.625000 0.512400
vt 0.625000 0.500000
vt 0.597153 0.500000
vt 0.593750 0.500000
vt 0.656250 0.987600
vt 0.656250 0.512400
vt 0.418825 0.137195
vt 0.393574 0.106426
vt 0.449553 0.116663
vt 0.419706 0.080294
vt 0.656250 0.500000
vt 0.621436 0.500000
vt 0.645157 0.500000
vt 0.687500 0.987600
vt 0.687500 0.512400
vt 0.471731 0.158156
vt 0.449143 0.210388
vt 0.437588 0.172298
vt 0.718750 0.512400
vt 0.718750 0.987600
vt 0.718750 0.500000
vt 0.668097 0.500000
vt 0.750000 0.987600
vt 0.750000 0.512400
vt 0.750000 0.500000
vt 0.689938 0.500000
vt 0.485388 0.296822
vt 0.449143 0.289612
vt 0.453044 0.250000
vt 0.781250 0.987600
vt 0.490000 0.250000
vt 0.471731 0.341844
vt 0.812500 1.000000
vt 0.781250 1.000000
vt 0.781250 0.500000
vt 0.750000 1.000000
vt 0.812500 0.500000
vt 0.710176 0.500000
vt 0.781250 0.512400
vt 0.812500 0.987600
vt 0.812500 0.512400
vt 0.727956 0.500000
vt 0.418825 0.362805
vt 0.437588 0.327702
vt 0.843750 0.987600
vt 0.843750 0.512400
vt 0.843750 0.500000
vt 0.741684 0.500000
vt 0.875000 0.987600
vt 0.875000 0.512400
vt 0.875000 0.500000
vt 0.748027 0.500000
vt 0.362805 0.418825
vt 0.393574 0.393574
vt 0.419706 0.419706
vt 0.906250 0.512400
vt 0.906250 0.987600
vt 0.449553 0.383337
vt 0.906250 0.500000
vt 0.739064 0.500000
vt 0.937500 0.987600
vt 0.937500 0.512400
vt 0.694316 0.500000
vt 0.968750 0.987600
vt 0.289612 0.449143
vt 0.327702 0.437588
vt 0.341844 0.471731
vt 0.296822 0.485388
vt 0.968750 1.000000
vt 0.937500 1.000000
vt 0.937500 0.500000
vt 0.383337 0.449553
vt 0.906250 1.000000
vt 0.875000 1.000000
vt 0.250000 0.490000
vt 0.843750 1.000000
vt 0.485388 0.203178
vt 0.718750 1.000000
vt 0.687500 0.500000
vt 0.687500 1.000000
vt 0.656250 1.000000
vt 0.625000 1.000000
vt 0.593750 1.000000
vt 0.562500 1.000000
vt 0.531250 1.000000
vt 0.010000 0.250000
s 0
f 1/1/1 2/2/1 6/3/1
s 1
f 3/4/2 2/2/3 1/5/2
f 5/6/4 3/7/2 1/1/2
s 0
f 4/8/1 1/1/1 6/3/1
s 1
f 5/6/4 1/1/2 4/8/4
f 9/9/5 6/10/5 7/11/6
s 0
f 6/3/1 2/2/1 7/12/1
f 6/3/1 8/13/1 4/8/1
s 1
f 6/14/5 10/15/7 8/16/7
f 6/14/5 9/17/5 10/15/7
s 0
f 11/18/8 10/19/8 12/20/8
s 1
f 11/21/9 8/16/7 10/15/7
s 0
f 9/22/8 5/23/8 10/19/8
f 5/23/8 12/20/8 10/19/8
f 12/20/8 13/24/8 15/25/8
s 1
f 13/26/10 12/27/11 14/28/11
f 12/27/11 4/8/4 14/28/11
f 12/27/11 5/6/4 4/8/4
s 0
f 15/25/8 11/18/8 12/20/8
s 1
f 17/29/12 15/30/12 16/31/13
s 0
f 15/25/8 18/32/8 16/33/8
s 1
f 19/34/9 11/21/9 15/30/12
f 19/34/9 15/30/12 17/29/12
s 0
f 13/24/8 18/32/8 15/25/8
s 1
f 11/21/9 19/34/9 8/16/7
s 0
f 8/13/1 19/35/1 4/8/1
f 17/36/1 14/28/1 19/35/1
f 14/28/1 4/8/1 19/35/1
f 18/32/8 20/37/8 16/33/8
s 1
f 20/38/14 18/39/15 21/40/15
f 18/39/15 22/41/10 21/40/15
f 18/39/15 13/26/10 22/41/10
s 0
f 21/40/1 22/41/1 23/42/1
s 1
f 13/26/10 14/28/11 22/41/10
s 0
f 22/41/1 14/28/1 17/36/1
f 23/42/1 22/41/1 17/36/1
s 1
f 17/29/12 16/31/13 23/43/13
f 24/44/16 23/43/13 16/31/13
s 0
f 24/45/1 21/40/1 23/42/1
s 1
f 28/46/17 25/47/17 24/44/16
s 0
f 24/45/1 25/48/1 27/49/1
s 1
f 24/44/16 16/31/13 26/50/16
f 28/46/17 24/44/16 26/50/16
s 0
f 27/49/1 21/40/1 24/45/1
f 30/51/8 29/52/8 28/53/8
s 1
f 29/54/18 25/47/17 28/46/17
s 0
f 30/51/8 28/53/8 26/55/8
f 30/51/8 31/56/8 29/52/8
s 1
f 31/57/19 30/58/20 32/59/20
f 32/59/20 30/58/20 20/38/14
s 0
f 20/37/8 30/51/8 26/55/8
f 33/60/1 32/59/1 25/48/1
s 1
f 31/57/19 32/59/20 33/60/19
s 0
f 32/59/1 27/49/1 25/48/1
s 1
f 32/59/20 20/38/14 27/49/14
s 0
f 34/61/1 33/60/1 36/62/1
s 1
f 35/63/21 33/60/19 34/61/21
f 35/63/21 31/57/19 33/60/19
s 0
f 25/48/1 36/62/1 33/60/1
s 1
f 29/54/18 36/64/18 25/47/17
f 37/65/22 36/64/18 29/54/18
s 0
f 34/61/1 36/62/1 37/66/1
f 37/66/1 38/67/1 40/68/1
s 1
f 37/65/22 41/69/23 38/70/23
f 37/65/22 39/71/22 41/69/23
f 37/65/22 29/54/18 39/71/22
s 0
f 40/68/1 34/61/1 37/66/1
s 1
f 38/70/23 41/69/23 42/72/24
s 0
f 44/73/8 42/74/8 41/75/8
f 39/76/8 43/77/8 41/75/8
f 43/77/8 44/73/8 41/75/8
f 44/73/8 45/78/8 47/79/8
s 1
f 45/80/25 44/81/26 46/82/26
f 44/81/26 40/68/27 46/82/26
f 44/81/26 43/83/27 40/68/27
s 0
f 44/73/8 47/79/8 42/74/8
s 1
f 49/84/28 47/85/28 48/86/29
s 0
f 45/78/8 48/87/8 47/79/8
s 1
f 42/72/24 47/85/28 49/84/28
s 0
f 53/88/1 50/89/1 49/90/1
s 1
f 42/72/24 49/84/28 50/91/24
s 0
f 52/92/1 49/90/1 51/93/1
s 1
f 49/84/28 48/86/29 51/94/29
s 0
f 52/92/1 53/88/1 49/90/1
s 1
f 54/95/30 53/88/25 52/92/30
f 54/95/30 45/80/25 53/88/25
f 45/80/25 46/82/26 53/88/25
s 0
f 53/88/1 46/82/1 50/89/1
f 54/96/8 55/97/8 56/98/8
s 1
f 55/99/31 54/95/30 52/92/30
s 0
f 45/78/8 54/96/8 48/87/8
f 54/96/8 56/98/8 48/87/8
s 1
f 56/100/32 57/101/33 60/102/33
s 0
f 59/103/8 57/104/8 56/98/8
s 1
f 48/86/29 56/100/32 58/105/32
f 56/100/32 60/102/33 58/105/32
s 0
f 55/97/8 59/103/8 56/98/8
f 58/106/1 60/107/1 62/108/1
s 1
f 61/109/34 60/102/33 57/101/33
s 0
f 60/107/1 61/110/1 62/108/1
f 63/111/1 62/108/1 61/110/1
s 1
f 65/112/35 62/108/36 63/111/35
f 65/112/35 59/113/36 62/108/36
f 59/113/36 64/114/31 62/108/36
s 0
f 62/108/1 64/114/1 58/106/1
f 65/115/8 66/116/8 69/117/8
s 1
f 67/118/37 66/119/37 65/112/35
f 67/118/37 65/112/35 63/111/35
s 0
f 59/103/8 65/115/8 68/120/8
f 65/115/8 69/117/8 68/120/8
s 1
f 69/121/38 70/122/39 73/123/39
s 0
f 69/117/8 72/124/8 70/125/8
s 1
f 69/121/38 61/109/34 68/126/34
f 69/121/38 71/127/38 61/109/34
f 69/121/38 73/123/39 71/127/38
s 0
f 66/116/8 72/124/8 69/117/8
f 73/128/1 74/129/1 67/118/1
f 74/129/1 73/128/1 75/130/1
s 1
f 73/123/39 76/131/40 75/132/40
s 0
f 73/128/1 67/118/1 71/133/1
s 1
f 73/123/39 70/122/39 76/131/40
s 0
f 77/134/8 76/135/8 70/125/8
f 76/135/8 77/134/8 79/136/8
s 1
f 76/131/40 78/137/41 80/138/41
s 0
f 76/135/8 79/136/8 78/139/8
s 1
f 76/131/40 80/138/41 75/132/40
s 0
f 80/140/1 84/141/1 75/130/1
s 1
f 85/142/42 81/143/42 80/138/41
s 0
f 82/144/1 80/140/1 81/145/1
s 1
f 85/142/42 80/138/41 78/137/41
s 0
f 82/144/1 83/146/1 80/140/1
f 83/146/1 84/141/1 80/140/1
s 1
f 85/142/42 86/147/43 89/148/43
s 0
f 86/149/8 85/150/8 88/151/8
f 78/139/8 87/152/8 85/150/8
s 1
f 85/142/42 89/148/43 81/143/42
s 0
f 87/152/8 88/151/8 85/150/8
f 91/153/1 81/145/1 89/154/1
f 91/153/1 89/154/1 90/155/1
s 1
f 89/148/43 92/156/44 90/157/44
f 89/148/43 86/147/43 92/156/44
s 0
f 94/158/8 93/159/8 92/160/8
s 1
f 95/161/45 92/156/44 93/162/45
s 0
f 92/160/8 86/149/8 88/151/8
s 1
f 95/161/45 90/157/44 92/156/44
s 0
f 88/151/8 94/158/8 92/160/8
f 98/163/1 90/155/1 95/164/1
s 1
f 99/165/46 96/166/46 95/161/45
s 0
f 97/167/1 95/164/1 96/168/1
s 1
f 99/165/46 95/161/45 93/162/45
s 0
f 97/167/1 98/163/1 95/164/1
f 102/169/8 100/170/8 99/171/8
s 1
f 100/172/47 96/166/46 99/165/46
s 0
f 93/159/8 101/173/8 99/171/8
f 101/173/8 102/169/8 99/171/8
f 102/169/8 103/174/8 100/170/8
s 1
f 103/175/48 102/176/49 104/177/49
f 102/176/49 97/167/50 104/177/49
f 102/176/49 101/178/50 97/167/50
s 0
f 105/179/1 104/177/1 106/180/1
s 1
f 103/175/48 104/177/49 105/179/48
s 0
f 104/177/1 97/167/1 96/168/1
f 104/177/1 96/168/1 106/180/1
s 1
f 100/172/47 106/181/47 96/166/46
f 108/182/51 107/183/51 106/181/47
s 0
f 105/179/1 106/180/1 107/184/1
s 1
f 108/182/51 106/181/47 100/172/47
s 0
f 109/185/8 108/186/8 103/174/8
f 103/174/8 108/186/8 100/170/8
s 1
f 108/182/51 109/187/52 110/188/52
f 108/182/51 110/188/52 107/183/51
s 0
f 113/189/1 107/184/1 110/190/1
s 1
f 114/191/53 111/192/53 110/188/52
s 0
f 112/193/1 110/190/1 111/194/1
s 1
f 114/191/53 110/188/52 109/187/52
s 0
f 112/193/1 113/189/1 110/190/1
f 115/195/8 114/196/8 117/197/8
s 1
f 118/198/54 114/191/53 115/199/54
s 0
f 116/200/8 114/196/8 109/185/8
s 1
f 118/198/54 111/192/53 114/191/53
s 0
f 116/200/8 117/197/8 114/196/8
f 120/201/1 111/194/1 118/202/1
s 1
f 121/203/55 119/204/55 118/198/54
s 0
f 120/201/1 118/202/1 119/205/1
s 1
f 121/203/55 118/198/54 115/199/54
f 121/203/55 122/206/6 7/11/6
s 0
f 122/207/8 121/208/8 123/209/8
f 121/208/8 115/195/8 123/209/8
s 1
f 121/203/55 7/11/6 119/204/55
s 0
f 123/209/8 124/210/8 122/207/8
s 1
f 2/2/3 124/211/3 123/212/56
f 123/212/56 120/201/57 125/213/56
f 2/2/3 123/212/56 125/213/56
s 0
f 126/214/8 123/209/8 115/195/8
s 1
f 123/212/56 126/215/57 120/201/57
f 126/215/57 112/193/58 120/201/57
s 0
f 117/197/8 126/214/8 115/195/8
s 1
f 126/215/57 117/216/58 112/193/58
s 0
f 2/2/1 125/213/1 7/12/1
f 125/213/1 120/201/1 119/205/1
f 7/12/1 125/213/1 119/205/1
f 124/210/8 3/217/8 9/22/8
s 1
f 3/4/2 124/211/3 2/2/3
s 0
f 124/210/8 9/22/8 122/207/8
s 1
f 9/9/5 7/11/6 122/206/6
s 0
f 120/201/1 112/193/1 111/194/1
s 1
f 117/216/58 113/189/59 112/193/58
f 117/216/58 116/218/59 113/189/59
f 113/189/59 116/218/59 103/175/48
s 0
f 103/174/8 116/200/8 109/185/8
f 113/189/1 105/179/1 107/184/1
s 1
f 113/189/59 103/175/48 105/179/48
f 101/178/50 98/163/60 97/167/50
s 0
f 127/219/8 101/173/8 93/159/8
s 1
f 101/178/50 127/220/60 98/163/60
f 127/220/60 128/221/61 98/163/60
s 0
f 94/158/8 127/219/8 93/159/8
s 1
f 127/220/60 94/222/61 128/221/61
s 0
f 98/163/1 128/221/1 90/155/1
s 1
f 94/222/61 91/153/62 128/221/61
s 0
f 128/221/1 91/153/1 90/155/1
s 1
f 94/222/61 88/223/62 91/153/62
f 88/223/62 82/144/63 91/153/62
s 0
f 91/153/1 82/144/1 81/145/1
s 1
f 88/223/62 87/224/63 82/144/63
f 87/224/63 83/146/64 82/144/63
s 0
f 79/136/8 87/152/8 78/139/8
s 1
f 87/224/63 79/225/64 83/146/64
f 79/225/64 84/141/65 83/146/64
f 79/225/64 77/226/65 84/141/65
f 77/226/65 74/129/66 84/141/65
s 0
f 84/141/1 74/129/1 75/130/1
f 72/124/8 77/134/8 70/125/8
s 1
f 77/226/65 72/227/66 74/129/66
f 74/129/66 72/227/66 66/119/37
f 74/129/66 66/119/37 67/118/37
s 0
f 71/133/1 63/111/1 61/110/1
f 67/118/1 63/111/1 71/133/1
f 59/103/8 68/120/8 57/104/8
s 1
f 61/109/34 57/101/33 68/126/34
f 59/113/36 55/99/31 64/114/31
f 55/99/31 52/92/30 64/114/31
s 0
f 64/114/1 52/92/1 51/93/1
f 64/114/1 51/93/1 58/106/1
s 1
f 48/86/29 58/105/32 51/94/29
s 0
f 46/82/1 38/67/1 50/89/1
s 1
f 38/70/23 42/72/24 50/91/24
s 0
f 46/82/1 40/68/1 38/67/1
s 1
f 43/83/27 34/61/21 40/68/27
s 0
f 35/228/8 43/77/8 39/76/8
s 1
f 43/83/27 35/63/21 34/61/21
s 0
f 31/56/8 39/76/8 29/52/8
f 31/56/8 35/228/8 39/76/8
s 1
f 20/38/14 21/40/15 27/49/14
s 0
f 16/33/8 20/37/8 26/55/8
f 3/217/8 5/23/8 9/22/8
