# Blender 4.4.1
# www.blender.org
mtllib Player_rightFoot.mtl
o 右足
v 0.254205 -0.414670 -0.332214
v 0.254205 -0.497035 -0.332214
v 0.402448 -0.414670 -0.260378
v 0.402448 -0.497035 -0.260378
v 0.074617 -0.414670 0.038393
v 0.074617 -0.497035 0.038393
v 0.222860 -0.414670 0.110229
v 0.222860 -0.497035 0.110229
vn -0.0000 1.0000 -0.0000
vn 0.8999 -0.0000 0.4361
vn -0.4361 -0.0000 0.8999
vn -0.0000 -1.0000 -0.0000
vn 0.4361 -0.0000 -0.8999
vn -0.8999 -0.0000 -0.4361
vt 0.806262 0.669074
vt 0.715839 0.632905
vt 0.806262 0.632905
vt 0.589247 0.632905
vt 0.607331 0.542482
vt 0.607331 0.632905
vt 0.697754 0.669074
vt 0.697754 0.632905
vt 0.607331 0.669074
vt 0.589247 0.669074
vt 0.589247 0.759497
vt 0.607331 0.759497
vt 0.715839 0.669074
vt 0.589247 0.542482
s 0
usemtl Material
f 1/1/1 7/2/1 3/3/1
f 3/4/2 8/5/2 4/6/2
f 7/2/3 6/7/3 8/8/3
f 2/9/4 8/8/4 6/7/4
f 1/10/5 4/6/5 2/9/5
f 5/11/6 2/9/6 6/12/6
f 1/1/1 5/13/1 7/2/1
f 3/4/2 7/14/2 8/5/2
f 7/2/3 5/13/3 6/7/3
f 2/9/4 4/6/4 8/8/4
f 1/10/5 3/4/5 4/6/5
f 5/11/6 1/10/6 2/9/6
