{
	"asset":{
		"generator":"Khronos glTF Blender I/O v4.4.56",
		"version":"2.0"
	},
	"extensionsUsed":[
		"KHR_materials_unlit"
	],
	"scene":0,
	"scenes":[
		{
			"name":"Scene",
			"nodes":[
				8
			]
		}
	],
	"nodes":[
		{
			"mesh":0,
			"name":"Object_6"
		},
		{
			"children":[
				0
			],
			"name":"Cube.001_1"
		},
		{
			"mesh":1,
			"name":"Object_8"
		},
		{
			"children":[
				2
			],
			"name":"Cube.002_2"
		},
		{
			"mesh":2,
			"name":"Object_4"
		},
		{
			"children":[
				4
			],
			"name":"Cube_0"
		},
		{
			"children":[
				1,
				3,
				5
			],
			"name":"GLTF_SceneRootNode",
			"rotation":[
				0.70710688829422,
				0,
				0,
				0.7071066498756409
			]
		},
		{
			"children":[
				6
			],
			"name":"root"
		},
		{
			"children":[
				7
			],
			"name":"Sketchfab_model",
			"rotation":[
				-0.70710688829422,
				0,
				0,
				0.7071066498756409
			]
		}
	],
	"materials":[
		{
			"doubleSided":true,
			"extensions":{
				"KHR_materials_unlit":{}
			},
			"name":"Material.008",
			"pbrMetallicRoughness":{
				"baseColorFactor":[
					0.800000011920929,
					0.4967989921569824,
					0,
					1
				],
				"metallicFactor":0,
				"roughnessFactor":0.9
			}
		},
		{
			"extensions":{
				"KHR_materials_unlit":{}
			},
			"name":"Material.009",
			"pbrMetallicRoughness":{
				"baseColorFactor":[
					0.800000011920929,
					0.2833470106124878,
					0,
					1
				],
				"metallicFactor":0,
				"roughnessFactor":0.9
			}
		}
	],
	"meshes":[
		{
			"name":"Object_1",
			"primitives":[
				{
					"attributes":{
						"POSITION":0,
						"NORMAL":1,
						"TEXCOORD_0":2
					},
					"indices":3,
					"material":0
				}
			]
		},
		{
			"name":"Object_2",
			"primitives":[
				{
					"attributes":{
						"POSITION":4,
						"NORMAL":5,
						"TEXCOORD_0":6
					},
					"indices":3
				}
			]
		},
		{
			"name":"Object_0",
			"primitives":[
				{
					"attributes":{
						"POSITION":7,
						"NORMAL":8,
						"TEXCOORD_0":9
					},
					"indices":10,
					"material":1
				}
			]
		}
	],
	"accessors":[
		{
			"bufferView":0,
			"componentType":5126,
			"count":142,
			"max":[
				0.45818421244621277,
				0.42501822113990784,
				0.4660056531429291
			],
			"min":[
				-0.456304669380188,
				-0.7783206701278687,
				-0.4309183359146118
			],
			"type":"VEC3"
		},
		{
			"bufferView":1,
			"componentType":5126,
			"count":142,
			"type":"VEC3"
		},
		{
			"bufferView":2,
			"componentType":5126,
			"count":142,
			"type":"VEC2"
		},
		{
			"bufferView":3,
			"componentType":5123,
			"count":672,
			"type":"SCALAR"
		},
		{
			"bufferView":4,
			"componentType":5126,
			"count":142,
			"max":[
				0.714248538017273,
				0.8692643642425537,
				0.7045078277587891
			],
			"min":[
				-0.7118811011314392,
				-0.8983718156814575,
				-0.6829195618629456
			],
			"type":"VEC3"
		},
		{
			"bufferView":5,
			"componentType":5126,
			"count":142,
			"type":"VEC3"
		},
		{
			"bufferView":6,
			"componentType":5126,
			"count":142,
			"type":"VEC2"
		},
		{
			"bufferView":7,
			"componentType":5126,
			"count":142,
			"max":[
				0.6871070861816406,
				0.8434475064277649,
				0.6771856546401978
			],
			"min":[
				-0.6847739815711975,
				-0.87102872133255,
				-0.6561543345451355
			],
			"type":"VEC3"
		},
		{
			"bufferView":8,
			"componentType":5126,
			"count":142,
			"type":"VEC3"
		},
		{
			"bufferView":9,
			"componentType":5126,
			"count":142,
			"type":"VEC2"
		},
		{
			"bufferView":10,
			"componentType":5123,
			"count":672,
			"type":"SCALAR"
		}
	],
	"bufferViews":[
		{
			"buffer":0,
			"byteLength":1704,
			"byteOffset":0,
			"target":34962
		},
		{
			"buffer":0,
			"byteLength":1704,
			"byteOffset":1704,
			"target":34962
		},
		{
			"buffer":0,
			"byteLength":1136,
			"byteOffset":3408,
			"target":34962
		},
		{
			"buffer":0,
			"byteLength":1344,
			"byteOffset":4544,
			"target":34963
		},
		{
			"buffer":0,
			"byteLength":1704,
			"byteOffset":5888,
			"target":34962
		},
		{
			"buffer":0,
			"byteLength":1704,
			"byteOffset":7592,
			"target":34962
		},
		{
			"buffer":0,
			"byteLength":1136,
			"byteOffset":9296,
			"target":34962
		},
		{
			"buffer":0,
			"byteLength":1704,
			"byteOffset":10432,
			"target":34962
		},
		{
			"buffer":0,
			"byteLength":1704,
			"byteOffset":12136,
			"target":34962
		},
		{
			"buffer":0,
			"byteLength":1136,
			"byteOffset":13840,
			"target":34962
		},
		{
			"buffer":0,
			"byteLength":1344,
			"byteOffset":14976,
			"target":34963
		}
	],
	"buffers":[
		{
			"byteLength":16320,
			"uri":"flame.bin"
		}
	]
}
