{
	"asset":{
		"generator":"Khronos glTF Blender I/O v4.4.56",
		"version":"2.0"
	},
	"scene":0,
	"scenes":[
		{
			"name":"Scene",
			"nodes":[
				0
			]
		}
	],
	"nodes":[
		{
			"mesh":0,
			"name":"\u5186",
			"scale":[
				0.9742390513420105,
				0.9742390513420105,
				0.9742390513420105
			],
			"translation":[
				0.02493138611316681,
				-0.01249114889651537,
				-0.018824273720383644
			]
		}
	],
	"meshes":[
		{
			"name":"\u5186.003",
			"primitives":[
				{
					"attributes":{
						"POSITION":0,
						"NORMAL":1,
						"TEXCOORD_0":2
					},
					"indices":3
				}
			]
		}
	],
	"accessors":[
		{
			"bufferView":0,
			"componentType":5126,
			"count":34,
			"max":[
				0.8948769569396973,
				0.06777050346136093,
				1.0152639150619507
			],
			"min":[
				-0.9361908435821533,
				0.06777050346136093,
				0.0997299998998642
			],
			"type":"VEC3"
		},
		{
			"bufferView":1,
			"componentType":5126,
			"count":34,
			"type":"VEC3"
		},
		{
			"bufferView":2,
			"componentType":5126,
			"count":34,
			"type":"VEC2"
		},
		{
			"bufferView":3,
			"componentType":5123,
			"count":96,
			"type":"SCALAR"
		}
	],
	"bufferViews":[
		{
			"buffer":0,
			"byteLength":408,
			"byteOffset":0,
			"target":34962
		},
		{
			"buffer":0,
			"byteLength":408,
			"byteOffset":408,
			"target":34962
		},
		{
			"buffer":0,
			"byteLength":272,
			"byteOffset":816,
			"target":34962
		},
		{
			"buffer":0,
			"byteLength":192,
			"byteOffset":1088,
			"target":34963
		}
	],
	"buffers":[
		{
			"byteLength":1280,
			"uri":"Semicircle.bin"
		}
	]
}
