# Blender 4.4.1
# www.blender.org
mtllib map_under_equipment_03.mtl
o 台座下側装置_03
v 0.000000 5.023057 -6.781445
v 1.322994 5.023057 -6.651141
v 0.000000 5.623057 -6.781445
v -1.322994 5.023057 -6.651141
v -1.322994 5.623057 -6.651141
v 0.000000 5.023057 -4.876377
v 0.951334 5.023057 -4.782679
v -0.951334 5.023057 -4.782679
v 0.000000 5.623057 -5.737220
v 1.119276 5.623057 -5.626981
v -1.119276 5.623057 -5.626981
v -2.195539 5.623057 -5.300499
v -2.595147 5.623057 -6.265238
v -3.767569 5.623057 -5.638565
v -2.595147 5.023057 -6.265238
v -3.187428 5.623057 -4.770324
v -4.056827 5.623057 -4.056827
v -2.709170 5.023057 -4.054559
v -4.795205 5.623057 -4.795205
v -5.638565 5.623057 -3.767569
v -4.795205 5.023057 -4.795205
v -3.767569 5.023057 -5.638565
v -3.448119 5.023057 -3.448119
v -4.054559 5.023057 -2.709170
v -4.505185 5.023057 -1.866109
v -4.770324 5.623057 -3.187428
v -5.638565 5.023057 -3.767569
v -5.300499 5.623057 -2.195539
v -5.626981 5.623057 -1.119276
v -6.265238 5.623057 -2.595147
v -4.782679 5.023057 -0.951334
v -4.876377 5.023057 0.000000
v -6.781445 5.023057 0.000000
v -6.651141 5.023057 -1.322994
v -6.651141 5.623057 -1.322994
v -6.265238 5.023057 -2.595147
v -6.781445 5.623057 0.000000
v -6.651141 5.623057 1.322994
v -5.737220 5.623057 0.000000
v -5.626981 5.623057 1.119276
v -5.300499 5.623057 2.195539
v -4.782679 5.023057 0.951334
v -6.265238 5.623057 2.595147
v -5.638565 5.623057 3.767569
v -6.265238 5.023057 2.595147
v -6.651141 5.023057 1.322994
v -4.770324 5.623057 3.187428
v -4.056827 5.623057 4.056827
v -4.054559 5.023057 2.709170
v -4.505185 5.023057 1.866109
v -3.448119 5.023057 3.448119
v -4.795205 5.023057 4.795205
v -5.638565 5.023057 3.767569
v -4.795205 5.623057 4.795205
v -3.767569 5.623057 5.638565
v -3.187428 5.623057 4.770324
v -2.195539 5.623057 5.300499
v -2.709170 5.023057 4.054559
v -2.595147 5.623057 6.265238
v -1.322994 5.623057 6.651141
v -2.595147 5.023057 6.265238
v -3.767569 5.023057 5.638565
v -1.119276 5.623057 5.626981
v 0.000000 5.623057 5.737220
v -0.951334 5.023057 4.782679
v 0.000000 5.023057 4.876377
v 0.951334 5.023057 4.782679
v 0.000000 5.023057 6.781445
v -1.322994 5.023057 6.651141
v 1.119276 5.623057 5.626981
v 2.195539 5.623057 5.300499
v 1.322994 5.623057 6.651141
v 2.595147 5.623057 6.265238
v 3.767569 5.623057 5.638565
v 2.595147 5.023057 6.265238
v 1.322994 5.023057 6.651141
v 1.866109 5.023057 4.505185
v 2.709170 5.023057 4.054559
v 3.448119 5.023057 3.448119
v 3.187428 5.623057 4.770324
v 4.795205 5.023057 4.795205
v 3.767569 5.023057 5.638565
v 4.056827 5.623057 4.056827
v 4.770324 5.623057 3.187428
v 4.795205 5.623057 4.795205
v 5.638565 5.623057 3.767569
v 4.054559 5.023057 2.709170
v 4.505185 5.023057 1.866109
v 5.638565 5.023057 3.767569
v 5.300499 5.623057 2.195539
v 5.626981 5.623057 1.119276
v 6.265238 5.623057 2.595147
v 4.782679 5.023057 0.951334
v 4.876377 5.023057 0.000000
v 6.781445 5.023057 0.000000
v 6.651141 5.023057 1.322994
v 6.651141 5.623057 1.322994
v 6.265238 5.023057 2.595147
v 6.781445 5.623057 0.000000
v 6.651141 5.623057 -1.322994
v 5.737220 5.623057 0.000000
v 5.626981 5.623057 -1.119276
v 5.300499 5.623057 -2.195539
v 4.782679 5.023057 -0.951334
v 6.265238 5.623057 -2.595147
v 5.638565 5.623057 -3.767569
v 6.265238 5.023057 -2.595147
v 6.651141 5.023057 -1.322994
v 4.770324 5.623057 -3.187428
v 4.056827 5.623057 -4.056827
v 4.054559 5.023057 -2.709170
v 4.505185 5.023057 -1.866109
v 3.448119 5.023057 -3.448119
v 4.795205 5.023057 -4.795205
v 5.638565 5.023057 -3.767569
v 4.795205 5.623057 -4.795205
v 3.767569 5.623057 -5.638565
v 3.187428 5.623057 -4.770324
v 2.195539 5.623057 -5.300499
v 2.709170 5.023057 -4.054559
v 2.595147 5.623057 -6.265238
v 1.322994 5.623057 -6.651141
v 2.595147 5.023057 -6.265238
v 3.767569 5.023057 -5.638565
v 1.866109 5.023057 -4.505185
v 0.000000 5.623057 6.781445
v -1.866109 5.023057 4.505185
v -1.866109 5.023057 -4.505185
vn -0.0000 -0.0000 -1.0000
vn 0.1951 -0.0000 -0.9808
vn -0.0000 -1.0000 -0.0000
vn -0.1951 -0.0000 -0.9808
vn -0.0000 0.8204 0.5718
vn -0.1116 0.8204 0.5608
vn 0.1116 0.8204 0.5608
vn 0.2188 0.8204 0.5283
vn -0.0000 1.0000 -0.0000
vn -0.5556 -0.0000 -0.8315
vn -0.3827 -0.0000 -0.9239
vn 0.3177 0.8204 0.4754
vn 0.4043 0.8204 0.4043
vn -0.8315 -0.0000 -0.5556
vn -0.7071 -0.0000 -0.7071
vn 0.4754 0.8204 0.3177
vn 0.5283 0.8204 0.2188
vn 0.5608 0.8204 0.1116
vn 0.5718 0.8204 -0.0000
vn -1.0000 -0.0000 -0.0000
vn -0.9808 -0.0000 -0.1951
vn -0.9239 -0.0000 -0.3827
vn -0.9808 -0.0000 0.1951
vn 0.5608 0.8204 -0.1116
vn 0.5283 0.8204 -0.2188
vn -0.8315 -0.0000 0.5556
vn -0.9239 -0.0000 0.3827
vn 0.4754 0.8204 -0.3177
vn 0.4043 0.8204 -0.4043
vn -0.7071 -0.0000 0.7071
vn -0.5556 -0.0000 0.8315
vn 0.3177 0.8204 -0.4754
vn 0.2188 0.8204 -0.5283
vn -0.1951 -0.0000 0.9808
vn -0.3827 -0.0000 0.9239
vn -0.0000 0.8204 -0.5718
vn 0.1116 0.8204 -0.5608
vn -0.1116 0.8204 -0.5608
vn -0.2188 0.8204 -0.5283
vn 0.5556 -0.0000 0.8315
vn 0.3827 -0.0000 0.9239
vn 0.1951 -0.0000 0.9808
vn -0.0000 -0.0000 1.0000
vn -0.3177 0.8204 -0.4754
vn -0.4043 0.8204 -0.4043
vn -0.4754 0.8204 -0.3177
vn -0.5283 0.8204 -0.2188
vn -0.5608 0.8204 -0.1116
vn -0.5718 0.8204 -0.0000
vn 1.0000 -0.0000 -0.0000
vn 0.9808 -0.0000 0.1951
vn 0.9239 -0.0000 0.3827
vn 0.9808 -0.0000 -0.1951
vn -0.5608 0.8204 0.1116
vn -0.5283 0.8204 0.2188
vn 0.8315 -0.0000 -0.5556
vn 0.9239 -0.0000 -0.3827
vn -0.4754 0.8204 0.3177
vn -0.4043 0.8204 0.4043
vn 0.7071 -0.0000 -0.7071
vn 0.5556 -0.0000 -0.8315
vn -0.2188 0.8204 0.5283
vn -0.3177 0.8204 0.4754
vn 0.3827 -0.0000 -0.9239
vn 0.8315 -0.0000 0.5556
vn 0.7071 -0.0000 0.7071
vt 1.000000 1.000000
vt 0.968750 0.500000
vt 1.000000 0.500000
vt 0.000000 0.500000
vt 0.394712 0.500000
vt 0.031250 1.000000
vt 0.000000 1.000000
vt 0.031250 0.500000
vt 0.574038 0.500000
vt 1.000000 0.512400
vt 0.968750 0.512400
vt 0.968750 0.987600
vt 0.000000 0.512400
vt 0.031250 0.987600
vt 0.031250 0.512400
vt 0.274434 0.500000
vt 1.000000 0.987600
vt 0.000000 0.987600
vt 0.062500 0.987600
vt 0.172298 0.437588
vt 0.210388 0.449143
vt 0.158156 0.471731
vt 0.250000 0.453044
vt 0.203178 0.485388
vt 0.093750 1.000000
vt 0.062500 1.000000
vt 0.062500 0.500000
vt 0.116663 0.449553
vt 0.137195 0.418825
vt 0.080294 0.419706
vt 0.106426 0.393574
vt 0.093750 0.512400
vt 0.093750 0.987600
vt 0.125000 0.987600
vt 0.156250 1.000000
vt 0.125000 1.000000
vt 0.125000 0.500000
vt 0.050447 0.383337
vt 0.093750 0.500000
vt 0.227066 0.500000
vt 0.220723 0.500000
vt 0.125000 0.512400
vt 0.240794 0.500000
vt 0.156250 0.512400
vt 0.258575 0.500000
vt 0.156250 0.500000
vt 0.187500 0.987600
vt 0.187500 0.512400
vt 0.156250 0.987600
vt 0.218750 0.512400
vt 0.218750 0.987600
vt 0.028269 0.341844
vt 0.050857 0.289612
vt 0.062412 0.327702
vt 0.081175 0.362805
vt 0.278812 0.500000
vt 0.218750 0.500000
vt 0.250000 0.500000
vt 0.300653 0.500000
vt 0.250000 0.512400
vt 0.250000 1.000000
vt 0.218750 1.000000
vt 0.187500 0.500000
vt 0.281250 1.000000
vt 0.010000 0.250000
vt 0.014612 0.203178
vt 0.046956 0.250000
vt 0.014612 0.296822
vt 0.050857 0.210388
vt 0.250000 0.987600
vt 0.281250 0.987600
vt 0.028269 0.158156
vt 0.062412 0.172298
vt 0.281250 0.512400
vt 0.312500 0.987600
vt 0.343750 1.000000
vt 0.312500 1.000000
vt 0.312500 0.500000
vt 0.050447 0.116663
vt 0.081175 0.137195
vt 0.281250 0.500000
vt 0.106426 0.106426
vt 0.343750 0.512400
vt 0.343750 0.987600
vt 0.375000 0.987600
vt 0.312500 0.512400
vt 0.343750 0.500000
vt 0.347314 0.500000
vt 0.371597 0.500000
vt 0.375000 0.512400
vt 0.375000 0.500000
vt 0.396288 0.500000
vt 0.375000 1.000000
vt 0.406250 1.000000
vt 0.080294 0.080294
vt 0.116663 0.050447
vt 0.137195 0.081175
vt 0.158156 0.028269
vt 0.172298 0.062412
vt 0.406250 0.512400
vt 0.406250 0.987600
vt 0.437500 0.987600
vt 0.468750 1.000000
vt 0.437500 1.000000
vt 0.437500 0.500000
vt 0.203178 0.014612
vt 0.210388 0.050857
vt 0.406250 0.500000
vt 0.500000 0.512400
vt 0.468750 0.987600
vt 0.500000 0.987600
vt 0.250000 0.046956
vt 0.468750 0.512400
vt 0.497033 0.500000
vt 0.468750 0.500000
vt 0.471717 0.500000
vt 0.522314 0.500000
vt 0.500000 0.500000
vt 0.531250 0.987600
vt 0.531250 0.512400
vt 0.341844 0.028269
vt 0.327702 0.062412
vt 0.289612 0.050857
vt 0.562500 0.987600
vt 0.296822 0.014612
vt 0.593750 1.000000
vt 0.562500 1.000000
vt 0.562500 0.500000
vt 0.383337 0.050447
vt 0.531250 0.500000
vt 0.531250 1.000000
vt 0.547484 0.500000
vt 0.562500 0.512400
vt 0.593750 0.512400
vt 0.572462 0.500000
vt 0.625000 0.500000
vt 0.597153 0.500000
vt 0.625000 0.987600
vt 0.625000 0.512400
vt 0.593750 0.987600
vt 0.593750 0.500000
vt 0.418825 0.137195
vt 0.393574 0.106426
vt 0.449553 0.116663
vt 0.656250 0.987600
vt 0.656250 0.512400
vt 0.362805 0.081175
vt 0.419706 0.080294
vt 0.656250 0.500000
vt 0.621436 0.500000
vt 0.687500 0.987600
vt 0.687500 0.512400
vt 0.645157 0.500000
vt 0.718750 0.512400
vt 0.718750 0.987600
vt 0.471731 0.158156
vt 0.449143 0.210388
vt 0.437588 0.172298
vt 0.718750 0.500000
vt 0.668097 0.500000
vt 0.750000 0.500000
vt 0.689938 0.500000
vt 0.750000 0.512400
vt 0.750000 1.000000
vt 0.718750 1.000000
vt 0.687500 0.500000
vt 0.781250 1.000000
vt 0.490000 0.250000
vt 0.485388 0.296822
vt 0.453044 0.250000
vt 0.485388 0.203178
vt 0.781250 0.987600
vt 0.750000 0.987600
vt 0.449143 0.289612
vt 0.812500 0.987600
vt 0.781250 0.512400
vt 0.471731 0.341844
vt 0.437588 0.327702
vt 0.843750 1.000000
vt 0.812500 1.000000
vt 0.812500 0.500000
vt 0.449553 0.383337
vt 0.418825 0.362805
vt 0.781250 0.500000
vt 0.843750 0.987600
vt 0.843750 0.512400
vt 0.875000 0.987600
vt 0.393574 0.393574
vt 0.812500 0.512400
vt 0.843750 0.500000
vt 0.727956 0.500000
vt 0.741684 0.500000
vt 0.875000 0.500000
vt 0.748027 0.500000
vt 0.875000 0.512400
vt 0.875000 1.000000
vt 0.906250 1.000000
vt 0.419706 0.419706
vt 0.383337 0.449553
vt 0.362805 0.418825
vt 0.937500 0.987600
vt 0.906250 0.512400
vt 0.906250 0.987600
vt 0.327702 0.437588
vt 0.341844 0.471731
vt 0.968750 1.000000
vt 0.937500 1.000000
vt 0.937500 0.500000
vt 0.296822 0.485388
vt 0.289612 0.449143
vt 0.906250 0.500000
vt 0.694316 0.500000
vt 0.739064 0.500000
vt 0.937500 0.512400
vt 0.250000 0.490000
vt 0.710176 0.500000
vt 0.687500 1.000000
vt 0.656250 1.000000
vt 0.625000 1.000000
vt 0.500000 1.000000
vt 0.250000 0.010000
vt 0.446436 0.500000
vt 0.437500 0.512400
vt 0.421266 0.500000
vt 0.323593 0.500000
vt 0.187500 1.000000
vt 0.062500 0.512400
vt 0.229686 0.500000
s 1
f 3/1/1 2/2/2 1/3/1
s 0
f 1/4/3 2/2/3 6/5/3
s 1
f 5/6/4 3/7/1 1/4/1
f 5/6/4 1/4/1 4/8/4
s 0
f 4/8/3 1/4/3 6/5/3
f 6/5/3 2/2/3 7/9/3
s 1
f 6/10/5 7/11/6 10/12/6
f 6/13/5 11/14/7 8/15/7
s 0
f 6/5/3 8/16/3 4/8/3
s 1
f 6/10/5 10/12/6 9/17/5
f 6/13/5 9/18/5 11/14/7
f 12/19/8 8/15/7 11/14/7
s 0
f 12/20/9 11/21/9 13/22/9
f 9/23/9 5/24/9 11/21/9
f 5/24/9 13/22/9 11/21/9
s 1
f 14/25/10 13/26/11 15/27/11
s 0
f 13/22/9 14/28/9 16/29/9
s 1
f 13/26/11 4/8/4 15/27/11
f 13/26/11 5/6/4 4/8/4
s 0
f 16/29/9 12/20/9 13/22/9
f 16/29/9 19/30/9 17/31/9
s 1
f 18/32/12 16/33/12 17/34/13
f 12/19/8 16/33/12 18/32/12
s 0
f 14/28/9 19/30/9 16/29/9
s 1
f 20/35/14 19/36/15 21/37/15
s 0
f 19/30/9 20/38/9 17/31/9
s 1
f 19/36/15 22/39/10 21/37/15
f 19/36/15 14/25/10 22/39/10
s 0
f 21/37/3 22/39/3 23/40/3
s 1
f 14/25/10 15/27/11 22/39/10
s 0
f 22/39/3 15/27/3 18/41/3
f 23/40/3 22/39/3 18/41/3
s 1
f 18/32/12 17/34/13 23/42/13
s 0
f 24/43/3 21/37/3 23/40/3
s 1
f 24/44/16 23/42/13 17/34/13
s 0
f 24/43/3 25/45/3 27/46/3
s 1
f 28/47/17 25/48/17 24/44/16
f 28/47/17 24/44/16 26/49/16
f 24/44/16 17/34/13 26/49/16
s 0
f 27/46/3 21/37/3 24/43/3
s 1
f 31/50/18 28/47/17 29/51/18
s 0
f 30/52/9 29/53/9 28/54/9
f 30/52/9 28/54/9 26/55/9
s 1
f 31/50/18 25/48/17 28/47/17
s 0
f 25/45/3 31/56/3 34/57/3
f 33/58/3 31/56/3 32/59/3
s 1
f 32/60/19 31/50/18 29/51/18
s 0
f 33/58/3 34/57/3 31/56/3
s 1
f 37/61/20 34/57/21 33/58/20
f 35/62/21 36/63/22 34/57/21
f 37/61/20 35/62/21 34/57/21
s 0
f 34/57/3 36/63/3 25/45/3
s 1
f 38/64/23 37/61/20 33/58/20
s 0
f 37/65/9 38/66/9 39/67/9
f 35/68/9 37/65/9 39/67/9
f 39/67/9 38/66/9 40/69/9
s 1
f 32/60/19 39/70/19 40/71/24
f 32/60/19 29/51/18 39/70/19
s 0
f 35/68/9 39/67/9 29/53/9
f 43/72/9 41/73/9 40/69/9
s 1
f 42/74/24 40/71/24 41/75/25
f 32/60/19 40/71/24 42/74/24
s 0
f 38/66/9 43/72/9 40/69/9
s 1
f 44/76/26 43/77/27 45/78/27
s 0
f 43/72/9 44/79/9 47/80/9
s 1
f 43/77/27 46/81/23 45/78/27
f 43/77/27 38/64/23 46/81/23
s 0
f 43/72/9 47/80/9 41/73/9
f 44/79/9 48/82/9 47/80/9
s 1
f 49/83/28 47/84/28 48/85/29
f 41/75/25 47/84/28 49/83/28
f 41/75/25 49/83/28 50/86/25
s 0
f 53/87/3 50/88/3 49/89/3
s 1
f 49/83/28 48/85/29 51/90/29
s 0
f 52/91/3 49/89/3 51/92/3
f 52/91/3 53/87/3 49/89/3
s 1
f 54/93/30 53/87/26 52/91/30
f 44/76/26 45/78/27 53/87/26
f 54/93/30 44/76/26 53/87/26
s 0
f 53/87/3 45/78/3 50/88/3
s 1
f 55/94/31 54/93/30 52/91/30
s 0
f 54/95/9 55/96/9 56/97/9
f 44/79/9 54/95/9 48/82/9
f 54/95/9 56/97/9 48/82/9
f 59/98/9 57/99/9 56/97/9
s 1
f 58/100/32 56/101/32 57/102/33
f 48/85/29 56/101/32 58/100/32
s 0
f 55/96/9 59/98/9 56/97/9
s 1
f 60/103/34 59/104/35 61/105/35
s 0
f 59/98/9 60/106/9 63/107/9
s 1
f 59/104/35 62/108/31 61/105/35
f 59/104/35 55/94/31 62/108/31
s 0
f 59/98/9 63/107/9 57/99/9
s 1
f 66/109/36 63/110/37 64/111/36
s 0
f 60/106/9 64/112/9 63/107/9
s 1
f 65/113/37 57/102/33 63/110/37
f 66/109/36 65/113/37 63/110/37
s 0
f 66/114/3 69/115/3 65/116/3
f 67/117/3 68/118/3 66/114/3
s 1
f 70/119/38 67/120/38 66/109/36
f 70/119/38 66/109/36 64/111/36
s 0
f 68/118/3 69/115/3 66/114/3
f 73/121/9 71/122/9 70/123/9
s 1
f 67/120/38 70/119/38 71/124/39
s 0
f 64/112/9 72/125/9 70/123/9
f 72/125/9 73/121/9 70/123/9
s 1
f 74/126/40 73/127/41 75/128/41
s 0
f 71/122/9 73/121/9 74/129/9
s 1
f 73/127/41 76/130/42 75/128/41
f 73/127/41 72/131/42 76/130/42
s 0
f 75/128/3 76/130/3 77/132/3
s 1
f 72/131/42 68/118/43 76/130/42
s 0
f 67/117/3 76/130/3 68/118/3
f 76/130/3 67/117/3 77/132/3
s 1
f 67/120/38 71/124/39 77/133/39
f 71/124/39 78/134/44 77/133/39
s 0
f 78/135/3 75/128/3 77/132/3
f 81/136/3 78/135/3 79/137/3
s 1
f 83/138/45 79/139/45 78/134/44
f 83/138/45 78/134/44 80/140/44
f 71/124/39 80/140/44 78/134/44
s 0
f 81/136/3 82/141/3 78/135/3
f 82/141/3 75/128/3 78/135/3
f 84/142/9 83/143/9 86/144/9
s 1
f 83/138/45 84/145/46 87/146/46
s 0
f 80/147/9 85/148/9 83/143/9
s 1
f 83/138/45 87/146/46 79/139/45
s 0
f 85/148/9 86/144/9 83/143/9
f 89/149/3 79/137/3 87/150/3
s 1
f 87/146/46 90/151/47 88/152/47
s 0
f 89/149/3 87/150/3 88/153/3
s 1
f 87/146/46 84/145/46 90/151/47
f 93/154/48 90/151/47 91/155/48
s 0
f 92/156/9 91/157/9 90/158/9
f 90/158/9 84/142/9 86/144/9
s 1
f 93/154/48 88/152/47 90/151/47
s 0
f 86/144/9 92/156/9 90/158/9
f 96/159/3 88/153/3 93/160/3
f 95/161/3 93/160/3 94/162/3
s 1
f 94/163/49 93/154/48 91/155/48
s 0
f 95/161/3 96/159/3 93/160/3
s 1
f 99/164/50 96/159/51 95/161/50
f 97/165/51 98/166/52 96/159/51
f 99/164/50 97/165/51 96/159/51
s 0
f 96/159/3 98/166/3 88/153/3
s 1
f 100/167/53 99/164/50 95/161/50
s 0
f 99/168/9 100/169/9 101/170/9
f 97/171/9 99/168/9 91/157/9
f 91/157/9 99/168/9 101/170/9
s 1
f 102/172/54 94/163/49 101/173/49
s 0
f 100/169/9 102/174/9 101/170/9
s 1
f 94/163/49 91/155/48 101/173/49
f 103/175/55 104/176/54 102/172/54
s 0
f 105/177/9 103/178/9 102/174/9
s 1
f 102/172/54 104/176/54 94/163/49
s 0
f 100/169/9 105/177/9 102/174/9
s 1
f 106/179/56 105/180/57 107/181/57
s 0
f 105/177/9 106/182/9 109/183/9
s 1
f 105/180/57 108/184/53 107/181/57
f 105/180/57 100/167/53 108/184/53
s 0
f 109/183/9 103/178/9 105/177/9
s 1
f 103/175/55 109/185/58 111/186/58
f 110/187/59 111/186/58 109/185/58
s 0
f 106/182/9 110/188/9 109/183/9
s 1
f 103/175/55 111/186/58 112/189/55
s 0
f 115/190/3 112/191/3 111/192/3
f 114/193/3 111/192/3 113/194/3
s 1
f 110/187/59 113/195/59 111/186/58
s 0
f 114/193/3 115/190/3 111/192/3
s 1
f 116/196/60 115/190/56 114/193/60
f 106/179/56 107/181/57 115/190/56
f 116/196/60 106/179/56 115/190/56
s 0
f 115/190/3 107/181/3 112/191/3
s 1
f 117/197/61 116/196/60 114/193/60
s 0
f 116/198/9 117/199/9 118/200/9
f 106/182/9 116/198/9 110/188/9
f 118/200/9 110/188/9 116/198/9
s 1
f 119/201/62 120/202/63 118/203/63
s 0
f 119/204/9 118/200/9 121/205/9
s 1
f 120/202/63 110/187/59 118/203/63
s 0
f 117/199/9 121/205/9 118/200/9
s 1
f 122/206/2 121/207/64 123/208/64
s 0
f 121/205/9 122/209/9 10/210/9
s 1
f 121/207/64 124/211/61 123/208/64
f 121/207/64 117/197/61 124/211/61
s 0
f 10/210/9 119/204/9 121/205/9
f 123/208/3 124/211/3 125/212/3
s 1
f 117/197/61 114/193/60 124/211/61
s 0
f 124/211/3 114/193/3 113/194/3
f 124/211/3 120/213/3 125/212/3
f 124/211/3 113/194/3 120/213/3
s 1
f 119/201/62 125/214/62 120/202/63
f 119/201/62 7/11/6 125/214/62
s 0
f 7/9/3 123/208/3 125/212/3
s 1
f 122/206/2 123/208/64 2/2/2
s 0
f 2/2/3 123/208/3 7/9/3
s 1
f 3/1/1 122/206/2 2/2/2
s 0
f 122/209/9 3/215/9 9/23/9
f 122/209/9 9/23/9 10/210/9
s 1
f 120/202/63 113/195/59 110/187/59
f 119/201/62 10/12/6 7/11/6
s 0
f 107/181/3 104/216/3 112/191/3
s 1
f 103/175/55 112/189/55 104/176/54
s 0
f 107/181/3 108/184/3 104/216/3
s 1
f 100/167/53 95/161/50 108/184/53
s 0
f 108/184/3 95/161/3 94/162/3
f 108/184/3 94/162/3 104/216/3
s 1
f 92/217/52 89/149/65 98/166/52
f 97/165/51 92/217/52 98/166/52
s 0
f 98/166/3 89/149/3 88/153/3
f 92/156/9 97/171/9 91/157/9
s 1
f 92/217/52 86/218/65 89/149/65
f 86/218/65 81/136/66 89/149/65
s 0
f 89/149/3 81/136/3 79/137/3
s 1
f 86/218/65 85/219/66 81/136/66
f 85/219/66 82/141/40 81/136/66
f 85/219/66 74/126/40 82/141/40
s 0
f 74/129/9 85/148/9 80/147/9
s 1
f 74/126/40 75/128/41 82/141/40
s 0
f 71/122/9 74/129/9 80/147/9
s 1
f 72/131/42 126/220/43 68/118/43
s 0
f 126/221/9 72/125/9 64/112/9
s 1
f 126/220/43 69/115/34 68/118/43
f 126/220/43 60/103/34 69/115/34
s 0
f 60/106/9 126/221/9 64/112/9
s 1
f 60/103/34 61/105/35 69/115/34
s 0
f 69/115/3 61/105/3 65/116/3
f 127/222/3 65/116/3 61/105/3
s 1
f 65/113/37 127/223/33 57/102/33
s 0
f 58/224/3 127/222/3 61/105/3
s 1
f 58/100/32 57/102/33 127/223/33
s 0
f 61/105/3 62/108/3 58/224/3
s 1
f 55/94/31 52/91/30 62/108/31
s 0
f 62/108/3 52/91/3 51/92/3
f 62/108/3 51/92/3 58/224/3
s 1
f 48/85/29 58/100/32 51/90/29
f 42/74/24 41/75/25 50/86/25
s 0
f 45/78/3 42/225/3 50/88/3
f 45/78/3 46/81/3 42/225/3
s 1
f 38/64/23 33/58/20 46/81/23
s 0
f 46/81/3 33/58/3 32/59/3
f 32/59/3 42/225/3 46/81/3
s 1
f 30/226/22 27/46/14 36/63/22
f 35/62/21 30/226/22 36/63/22
s 0
f 36/63/3 27/46/3 25/45/3
f 30/52/9 35/68/9 29/53/9
s 1
f 30/226/22 20/35/14 27/46/14
s 0
f 20/38/9 30/52/9 26/55/9
s 1
f 20/35/14 21/37/15 27/46/14
s 0
f 17/31/9 20/38/9 26/55/9
s 1
f 12/19/8 18/32/12 128/227/8
s 0
f 18/41/3 15/27/3 128/228/3
f 8/16/3 128/228/3 4/8/3
s 1
f 12/19/8 128/227/8 8/15/7
s 0
f 15/27/3 4/8/3 128/228/3
f 3/215/9 5/24/9 9/23/9
