# Blender 4.4.1
# www.blender.org
mtllib map_floor_01.mtl
o ボス戦の床.01
v -28.701263 -50.000000 -69.290970
v -14.000000 -8.000000 14.000000
v 28.701256 -50.000000 -69.290970
v -28.701263 -2.000000 -69.290970
v -14.000000 -8.000000 -14.000000
v -69.290970 -50.000000 -28.701256
v -69.290970 -50.000000 28.701262
v 14.000000 -8.000000 14.000000
v -69.290970 -2.000000 -28.701256
v -69.290970 -2.000000 28.701262
v 14.000000 -8.000000 -14.000000
v -28.701256 -2.000000 69.290970
v 28.701263 -2.000000 69.290970
v -28.701256 -50.000000 69.290970
v 28.701263 -50.000000 69.290970
v 69.290970 -50.000000 28.701256
v 69.290970 -50.000000 -28.701262
v 69.290970 -2.000000 28.701256
v 69.290970 -2.000000 -28.701262
v 28.701256 -2.000000 -69.290970
v -14.000000 -2.000000 14.000000
v -14.000000 -2.000000 5.798990
v 14.000000 -2.000000 14.000000
v 14.000000 -2.000000 -5.798990
v 14.000000 -2.000000 -14.000000
v -14.000000 -2.000000 -14.000000
v -28.701263 -2.000000 -69.290970
v 28.701256 -2.000000 -69.290970
v -28.701263 0.056901 -69.290970
v -69.290970 -2.000000 -28.701256
v -69.290970 0.056901 -28.701256
v -60.839218 -2.000000 -25.657129
v -25.609898 -2.000000 -60.890156
v 25.609915 -2.000000 -60.890144
v -25.608990 -2.000000 -60.887352
v -13.101698 -2.000000 -39.017975
v -25.609898 0.056901 -60.890156
v 25.609915 0.056901 -60.890144
v 25.657129 0.056901 -60.839218
v 13.101706 0.056901 -39.017975
v 28.701256 0.056901 -69.290970
v 13.101706 -2.000000 -39.017975
v 25.657129 -2.000000 -60.839218
v 18.325577 -2.000000 -36.854179
v 13.101704 -2.000000 39.017975
v 36.854179 -2.000000 18.325569
v 36.854179 -2.000000 -18.325567
v 39.017975 -2.000000 -13.101698
v 60.890156 -2.000000 -25.609896
v 39.017975 -2.000000 13.101708
v 39.017975 0.056901 -13.101698
v 60.887348 -2.000000 -25.608984
v 60.890156 0.056901 -25.609896
v 60.887348 0.056901 -25.608984
v 60.890144 0.056901 25.609917
v 69.290970 0.056901 -28.701262
v 69.290970 0.056901 28.701256
v 60.890144 -2.000000 25.609917
v 60.839211 -2.000000 25.657122
v 69.290970 -2.000000 28.701256
v 39.017975 0.056901 13.101708
v 60.839211 0.056901 25.657122
v 18.325577 0.056901 -36.854179
v 36.854179 0.056901 18.325569
v 18.325573 0.056901 36.854179
v 18.325573 -2.000000 36.854179
v 25.608994 -2.000000 60.887348
v 25.609905 -2.000000 60.890156
v 25.608994 0.056901 60.887348
v 25.609905 0.056901 60.890156
v 13.101704 0.056901 39.017975
v -13.101702 0.056901 39.017971
v -13.101698 0.056901 -39.017975
v -13.101702 -2.000000 39.017971
v -25.609907 -2.000000 60.890152
v -25.657124 -2.000000 60.839218
v -18.325571 -2.000000 36.854179
v -18.325569 -2.000000 -36.854179
v -36.854179 -2.000000 -18.325573
v -18.325569 0.056901 -36.854179
v -39.017975 -2.000000 13.101700
v -39.017971 -2.000000 -13.101705
v -25.608990 0.056901 -60.887352
v -60.839218 0.056901 -25.657129
v -60.890152 0.056901 -25.609913
v -36.854179 0.056901 -18.325573
v -39.017971 0.056901 -13.101705
v -39.017975 0.056901 13.101700
v -36.854179 0.056901 18.325569
v -60.887344 0.056901 25.608994
v -18.325571 0.056901 36.854179
v -36.854179 -2.000000 18.325569
v -60.887344 -2.000000 25.608994
v -60.890156 -2.000000 25.609901
v -60.890152 -2.000000 -25.609913
v -60.890156 0.056901 25.609901
v -69.290970 -2.000000 28.701262
v -28.701256 -2.000000 69.290970
v -69.290970 0.000000 28.701262
v -28.701256 0.056901 69.290970
v -25.657124 0.056901 60.839218
v -25.609907 0.056901 60.890152
v 28.701263 0.056901 69.290970
v 28.701263 -2.000000 69.290970
v 36.854179 0.056901 -18.325567
v 69.290970 -2.000000 -28.701262
v 4.701011 -2.000000 14.000000
v -4.701005 -2.000000 -14.000000
v 13.101705 -2.000000 14.000000
v 13.101705 -2.000000 -14.000000
v 14.000000 -2.000000 14.000000
v 14.000000 -2.000000 -14.000000
v 4.701011 0.056901 14.000000
v -4.701005 0.056901 -14.000000
v -13.101701 0.056901 14.000000
v -13.101699 0.056901 -14.000000
v -2.738915 0.056901 -14.000000
v 8.859063 0.056901 14.000000
v -14.000000 -2.000000 14.000000
v -14.000000 -2.000000 -14.000000
v 2.738920 -2.000000 14.000000
v -8.859058 -2.000000 -14.000000
v -14.000000 0.056901 14.000000
v -14.000000 0.056901 -14.000000
v 14.000000 0.056901 -14.000000
v 14.000000 0.056901 14.000000
v -49.497475 -50.000000 48.083260
v -49.497475 0.000000 48.083260
v -49.621838 -50.000000 48.234798
v -49.621838 0.000000 48.234798
v -49.714249 0.000000 48.407684
v -49.771152 0.000000 48.595280
v -49.714249 -50.000000 48.407684
v -49.771152 -50.000000 48.595280
v -49.790367 -50.000000 48.790367
v -49.790367 0.000000 48.790367
v -49.771152 0.000000 48.985455
v -49.771152 -50.000000 48.985455
v -49.714249 0.000000 49.173050
v -49.621834 0.000000 49.345932
v -49.714249 -50.000000 49.173050
v -49.621834 -50.000000 49.345932
v -49.497475 -50.000000 49.497475
v -49.497475 0.000000 49.497475
v -49.345932 0.000000 49.621834
v -49.345932 -50.000000 49.621834
v -49.173050 0.000000 49.714249
v -48.985455 0.000000 49.771152
v -49.173050 -50.000000 49.714249
v -48.985455 -50.000000 49.771152
v -48.790367 -50.000000 49.790367
v -48.790367 0.000000 49.790367
v -48.595280 0.000000 49.771152
v -48.595280 -50.000000 49.771152
v -48.407684 0.000000 49.714249
v -48.234798 0.000000 49.621838
v -48.407684 -50.000000 49.714249
v -48.234798 -50.000000 49.621838
v -48.083260 -50.000000 49.497475
v -48.083260 0.000000 49.497475
v 48.083260 -50.000000 49.497475
v 48.083260 0.000000 49.497475
v 48.234802 -50.000000 49.621834
v 48.234802 0.000000 49.621834
v 48.407692 0.000000 49.714249
v 48.595280 0.000000 49.771152
v 48.407692 -50.000000 49.714249
v 48.595280 -50.000000 49.771152
v 48.790367 -50.000000 49.790367
v 48.790367 0.000000 49.790367
v 48.985458 0.000000 49.771149
v 48.985458 -50.000000 49.771149
v 49.173050 0.000000 49.714249
v 49.345947 0.000000 49.621834
v 49.173050 -50.000000 49.714249
v 49.345947 -50.000000 49.621834
v 49.497475 -50.000000 49.497475
v 49.497475 0.000000 49.497475
v 49.621841 0.000000 49.345940
v 49.621841 -50.000000 49.345940
v 49.714249 0.000000 49.173050
v 49.771152 0.000000 48.985455
v 49.714249 -50.000000 49.173050
v 49.771152 -50.000000 48.985455
v 49.790367 -50.000000 48.790367
v 49.790367 0.000000 48.790367
v 49.771156 0.000000 48.595276
v 49.771156 -50.000000 48.595276
v 49.714252 0.000000 48.407688
v 49.621841 0.000000 48.234795
v 49.714252 -50.000000 48.407688
v 49.621841 -50.000000 48.234795
v 49.497475 -50.000000 48.083260
v 49.497475 0.000000 48.083260
v 49.497471 -50.000000 -48.083263
v 49.497471 0.000000 -48.083263
v 49.621838 -50.000000 -48.234806
v 49.621838 0.000000 -48.234806
v 49.714249 0.000000 -48.407692
v 49.771149 0.000000 -48.595284
v 49.714249 -50.000000 -48.407692
v 49.771149 -50.000000 -48.595284
v 49.790363 -50.000000 -48.790371
v 49.790363 0.000000 -48.790371
v 49.771145 0.000000 -48.985462
v 49.771145 -50.000000 -48.985462
v 49.714252 0.000000 -49.173061
v 49.621838 0.000000 -49.345943
v 49.714252 -50.000000 -49.173061
v 49.621838 -50.000000 -49.345943
v 49.497471 -50.000000 -49.497478
v 49.497471 0.000000 -49.497478
v 49.345936 0.000000 -49.621845
v 49.345936 -50.000000 -49.621845
v 49.173054 0.000000 -49.714260
v 48.985451 0.000000 -49.771156
v 49.173054 -50.000000 -49.714260
v 48.985451 -50.000000 -49.771156
v 48.790363 -50.000000 -49.790371
v 48.790363 0.000000 -49.790371
v 48.595276 0.000000 -49.771156
v 48.595276 -50.000000 -49.771156
v 48.407684 0.000000 -49.714256
v 48.234798 0.000000 -49.621845
v 48.407684 -50.000000 -49.714256
v 48.234798 -50.000000 -49.621845
v 48.083256 -50.000000 -49.497478
v 48.083256 0.000000 -49.497478
v -48.083260 -50.000000 -49.497475
v -48.083260 0.000000 -49.497475
v -48.234795 -50.000000 -49.621841
v -48.234795 0.000000 -49.621841
v -48.407688 0.000000 -49.714252
v -48.595276 0.000000 -49.771156
v -48.407688 -50.000000 -49.714252
v -48.595276 -50.000000 -49.771156
v -48.790367 -50.000000 -49.790367
v -48.790367 0.000000 -49.790367
v -48.985455 0.000000 -49.771152
v -48.985455 -50.000000 -49.771152
v -49.173050 0.000000 -49.714249
v -49.345940 0.000000 -49.621841
v -49.173050 -50.000000 -49.714249
v -49.345940 -50.000000 -49.621841
v -49.497475 -50.000000 -49.497475
v -49.497475 0.000000 -49.497475
v -49.621834 0.000000 -49.345947
v -49.621834 -50.000000 -49.345947
v -49.714249 0.000000 -49.173050
v -49.771149 0.000000 -48.985458
v -49.714249 -50.000000 -49.173050
v -49.771149 -50.000000 -48.985458
v -49.790367 -50.000000 -48.790367
v -49.790367 0.000000 -48.790367
v -49.771152 0.000000 -48.595280
v -49.771152 -50.000000 -48.595280
v -49.714249 0.000000 -48.407692
v -49.621834 0.000000 -48.234802
v -49.714249 -50.000000 -48.407692
v -49.621834 -50.000000 -48.234802
v -49.497475 -50.000000 -48.083260
v -49.497475 0.000000 -48.083260
v 48.790367 -0.500000 50.204582
v 13.435029 -0.500002 14.849242
v 48.803959 -0.304909 50.190990
v 13.448618 -0.304911 14.835653
v 13.488853 -0.117317 14.795419
v 13.554200 0.055569 14.730071
v 48.844196 -0.117313 50.150753
v 48.909538 0.055573 50.085411
v 48.997475 0.207108 49.997475
v 13.642135 0.207106 14.642137
v 13.749287 0.331470 14.534985
v 49.104630 0.331470 49.890320
v 13.871538 0.423878 14.412733
v 14.004186 0.480785 14.280086
v 49.226875 0.423882 49.768074
v 49.359531 0.480785 49.635418
v 49.497475 0.500002 49.497475
v 14.142136 0.500000 14.142136
v 14.280086 0.480785 14.004186
v 49.635426 0.480785 49.359524
v 14.412733 0.423878 13.871538
v 14.534985 0.331470 13.749287
v 49.768074 0.423882 49.226875
v 49.890324 0.331470 49.104626
v 49.997475 0.207108 48.997475
v 14.642137 0.207106 13.642135
v 14.730071 0.055569 13.554200
v 50.085415 0.055573 48.909534
v 14.795419 -0.117317 13.488853
v 14.835658 -0.304911 13.448613
v 50.150757 -0.117313 48.844193
v 50.190998 -0.304909 48.803951
v 50.204582 -0.500000 48.790367
v 14.849242 -0.500002 13.435029
v -50.204582 -0.500000 48.790367
v -14.849242 -0.500002 13.435029
v -50.190994 -0.304909 48.803955
v -14.835655 -0.304911 13.448616
v -14.795417 -0.117317 13.488854
v -14.730073 0.055569 13.554198
v -50.150757 -0.117313 48.844193
v -50.085411 0.055573 48.909538
v -49.997475 0.207108 48.997475
v -14.642136 0.207106 13.642136
v -14.534983 0.331470 13.749289
v -49.890324 0.331470 49.104626
v -14.412734 0.423878 13.871537
v -14.280086 0.480785 14.004186
v -49.768074 0.423882 49.226875
v -49.635426 0.480785 49.359524
v -49.497475 0.500002 49.497475
v -14.142136 0.500000 14.142136
v -14.004186 0.480785 14.280086
v -49.359524 0.480785 49.635426
v -13.871537 0.423878 14.412734
v -13.749289 0.331470 14.534983
v -49.226875 0.423882 49.768074
v -49.104626 0.331470 49.890324
v -48.997475 0.207108 49.997475
v -13.642136 0.207106 14.642136
v -13.554198 0.055569 14.730073
v -48.909538 0.055573 50.085411
v -13.488854 -0.117317 14.795417
v -13.448616 -0.304911 14.835655
v -48.844193 -0.117313 50.150757
v -48.803955 -0.304909 50.190994
v -48.790367 -0.500000 50.204582
v -13.435029 -0.500002 14.849242
v 50.204578 -0.500000 -48.790371
v 14.849241 -0.500002 -13.435030
v 50.190990 -0.304909 -48.803959
v 14.835654 -0.304911 -13.448617
v 14.795416 -0.117317 -13.488855
v 14.730072 0.055569 -13.554199
v 50.150753 -0.117313 -48.844196
v 50.085407 0.055573 -48.909542
v 49.997471 0.207108 -48.997478
v 14.642135 0.207106 -13.642137
v 14.534982 0.331470 -13.749290
v 49.890316 0.331470 -49.104633
v 14.412732 0.423878 -13.871539
v 14.280084 0.480785 -14.004188
v 49.768070 0.423882 -49.226879
v 49.635422 0.480785 -49.359528
v 49.497471 0.500002 -49.497478
v 14.142135 0.500000 -14.142137
v 14.004185 0.480785 -14.280087
v 49.359520 0.480785 -49.635429
v 13.871536 0.423878 -14.412735
v 13.749287 0.331470 -14.534985
v 49.226871 0.423882 -49.768078
v 49.104622 0.331470 -49.890327
v 48.997471 0.207108 -49.997478
v 13.642135 0.207106 -14.642137
v 13.554196 0.055569 -14.730075
v 48.909531 0.055573 -50.085419
v 13.488853 -0.117317 -14.795419
v 13.448614 -0.304911 -14.835657
v 48.844189 -0.117313 -50.150761
v 48.803951 -0.304909 -50.190998
v 48.790363 -0.500000 -50.204586
v 13.435028 -0.500002 -14.849243
v -48.790367 -0.500000 -50.204582
v -13.435029 -0.500002 -14.849242
v -48.803951 -0.304909 -50.190998
v -13.448613 -0.304911 -14.835658
v -13.488853 -0.117317 -14.795419
v -13.554200 0.055569 -14.730071
v -48.844193 -0.117313 -50.150757
v -48.909534 0.055573 -50.085415
v -48.997475 0.207108 -49.997475
v -13.642135 0.207106 -14.642137
v -13.749287 0.331470 -14.534985
v -49.104626 0.331470 -49.890324
v -13.871538 0.423878 -14.412733
v -14.004186 0.480785 -14.280086
v -49.226875 0.423882 -49.768074
v -49.359524 0.480785 -49.635426
v -49.497475 0.500002 -49.497475
v -14.142136 0.500000 -14.142136
v -14.280086 0.480785 -14.004186
v -49.635418 0.480785 -49.359531
v -14.412733 0.423878 -13.871538
v -14.534985 0.331470 -13.749287
v -49.768074 0.423882 -49.226875
v -49.890320 0.331470 -49.104630
v -49.997475 0.207108 -48.997475
v -14.642137 0.207106 -13.642135
v -14.730071 0.055569 -13.554200
v -50.085411 0.055573 -48.909538
v -14.795419 -0.117317 -13.488853
v -14.835653 -0.304911 -13.448618
v -50.150753 -0.117313 -48.844196
v -50.190990 -0.304909 -48.803959
v -50.204582 -0.500000 -48.790367
v -14.849242 -0.500002 -13.435029
vn -0.0000 -0.0000 -1.0000
vn -0.7071 -0.0000 -0.7071
vn -1.0000 -0.0000 -0.0000
vn -0.0000 1.0000 -0.0000
vn -0.7071 -0.0000 0.7071
vn -0.0000 -0.0000 1.0000
vn 0.7071 -0.0000 0.7071
vn 1.0000 -0.0000 -0.0000
vn 0.7071 -0.0000 -0.7071
vn -0.0000 -1.0000 -0.0000
vn -0.0001 -1.0000 -0.0000
vn 0.8681 -0.0000 -0.4964
vn -0.8681 -0.0000 -0.4964
vn 0.4964 -0.0000 0.8681
vn 0.4964 -0.0000 -0.8681
vn -0.2923 -0.0000 0.9563
vn 0.9570 -0.0000 -0.2900
vn -0.8681 -0.0000 0.4964
vn 0.8681 -0.0000 0.4964
vn -0.9570 -0.0000 0.2900
vn 0.2923 -0.0000 -0.9563
vn -0.4964 -0.0000 0.8681
vn 0.2900 -0.0000 0.9570
vn -0.4964 -0.0000 -0.8681
vn -0.0010 1.0000 -0.0004
vn -0.0004 1.0000 0.0010
vn -0.0068 1.0000 -0.0000
vn -0.0050 1.0000 0.0050
vn -0.9563 -0.0000 -0.2923
vn 0.9563 -0.0000 0.2923
vn -0.2900 -0.0000 -0.9570
vn -0.8315 -0.0000 -0.5556
vn -0.7730 -0.0000 -0.6344
vn -0.9239 -0.0000 -0.3827
vn -0.9808 -0.0000 -0.1951
vn -0.9808 -0.0000 0.1951
vn -0.9239 -0.0000 0.3827
vn -0.8315 -0.0000 0.5556
vn -0.5556 -0.0000 0.8315
vn -0.3827 -0.0000 0.9239
vn -0.1951 -0.0000 0.9808
vn 0.1951 -0.0000 0.9808
vn 0.3827 -0.0000 0.9239
vn 0.5556 -0.0000 0.8315
vn 0.6344 -0.0000 0.7730
vn -0.6344 -0.0000 0.7730
vn 0.8315 -0.0000 0.5556
vn 0.9239 -0.0000 0.3827
vn 0.9808 -0.0000 0.1951
vn 0.9808 -0.0000 -0.1951
vn 0.9239 -0.0000 -0.3827
vn 0.8315 -0.0000 -0.5556
vn 0.7730 -0.0000 -0.6344
vn 0.7730 -0.0000 0.6344
vn 0.9239 -0.0000 0.3826
vn 0.9808 -0.0000 -0.1950
vn 0.9239 -0.0000 -0.3826
vn 0.8314 -0.0000 -0.5556
vn 0.5556 -0.0000 -0.8315
vn 0.3827 -0.0000 -0.9239
vn 0.1951 -0.0000 -0.9808
vn -0.1951 -0.0000 -0.9808
vn -0.3827 -0.0000 -0.9239
vn -0.5556 -0.0000 -0.8315
vn -0.6344 -0.0000 -0.7730
vn 0.6344 -0.0000 -0.7730
vn -0.7730 -0.0000 0.6344
vn -0.6935 0.1951 0.6935
vn -0.7037 0.0980 0.7037
vn -0.7037 0.0981 0.7037
vn -0.6533 0.3827 0.6533
vn -0.5879 0.5556 0.5879
vn -0.5000 0.7071 0.5000
vn -0.3928 0.8315 0.3928
vn -0.2706 0.9239 0.2706
vn -0.3929 0.8315 0.3929
vn -0.1380 0.9808 0.1380
vn -0.1379 0.9808 0.1379
vn 0.1380 0.9808 -0.1380
vn 0.2706 0.9239 -0.2706
vn 0.1379 0.9808 -0.1379
vn 0.3929 0.8315 -0.3929
vn 0.5000 0.7071 -0.5000
vn 0.5879 0.5556 -0.5879
vn 0.6533 0.3827 -0.6533
vn 0.6935 0.1951 -0.6935
vn 0.7037 0.0980 -0.7037
vn -0.6935 0.1951 -0.6935
vn -0.7037 0.0980 -0.7037
vn -0.6533 0.3827 -0.6533
vn -0.5879 0.5556 -0.5879
vn -0.5000 0.7071 -0.5000
vn -0.3928 0.8315 -0.3928
vn -0.2706 0.9239 -0.2706
vn -0.3929 0.8315 -0.3929
vn -0.1380 0.9808 -0.1380
vn 0.1380 0.9808 0.1380
vn 0.2706 0.9239 0.2706
vn 0.1379 0.9808 0.1379
vn 0.3929 0.8315 0.3929
vn 0.3928 0.8315 0.3928
vn 0.5000 0.7071 0.5000
vn 0.5879 0.5556 0.5879
vn 0.6533 0.3827 0.6533
vn 0.6935 0.1951 0.6935
vn 0.7037 0.0980 0.7037
vn -0.1379 0.9808 -0.1379
vn -0.7037 0.0981 -0.7037
vn 0.3928 0.8315 -0.3928
vn -0.7071 0.0001 -0.7071
vn 0.7071 0.0001 0.7071
vn 0.7071 0.0001 -0.7071
vn 0.7071 -0.0001 -0.7071
vt 1.000000 1.000000
vt 0.875000 0.500000
vt 1.000000 0.500000
vt 0.125000 1.000000
vt 0.000000 0.500000
vt 0.125000 0.500000
vt 0.250000 1.000000
vt 0.250000 0.500000
vt 0.010000 0.250000
vt 0.419706 0.080294
vt 0.191466 0.225754
vt 0.375000 1.000000
vt 0.375000 0.500000
vt 0.500000 1.000000
vt 0.500000 0.500000
vt 0.625000 1.000000
vt 0.625000 0.500000
vt 0.750000 1.000000
vt 0.750000 0.500000
vt 0.875000 1.000000
vt 0.000000 1.000000
vt 0.490000 0.250000
vt 0.419706 0.419706
vt 0.250000 0.490000
vt 0.080294 0.419706
vt 0.225754 0.308534
vt 0.080294 0.080294
vt 0.250000 0.010000
vt 0.375000 0.250000
vt 0.475000 0.250000
vt 0.475000 0.073223
vt 0.475000 0.500000
vt 0.375000 0.750000
vt 0.475000 0.750000
vt 0.475000 0.573223
vt 0.125000 0.750000
vt 0.748852 0.461378
vt 0.750000 0.490000
vt 0.919706 0.419706
vt 0.601553 0.400356
vt 0.580294 0.419706
vt 0.900279 0.398655
vt 0.575509 0.250000
vt 0.425711 0.000000
vt 0.425711 0.250000
vt 0.748851 0.461369
vt 0.759047 0.381397
vt 0.575509 1.000000
vt 0.425711 0.750000
vt 0.425711 1.000000
vt 0.575509 0.000000
vt 0.248852 0.461378
vt 0.400279 0.398655
vt 0.400356 0.398447
vt 0.336515 0.349309
vt 0.425711 0.500000
vt 0.575509 0.500000
vt 0.836515 0.349309
vt 0.753246 0.297147
vt 0.740953 0.118603
vt 0.746754 0.202853
vt 0.771590 0.192566
vt 0.900356 0.398447
vt 0.849309 0.336515
vt 0.881397 0.259047
vt 0.836515 0.150691
vt 0.808534 0.274246
vt 0.881397 0.240953
vt 0.961369 0.251149
vt 0.961378 0.251148
vt 0.425711 1.000000
vt 0.575509 0.750000
vt 0.849309 0.163485
vt 0.381397 0.240953
vt 0.461378 0.251148
vt 0.461369 0.251149
vt 0.398655 0.099721
vt 0.898655 0.099721
vt 0.898447 0.099644
vt 0.919706 0.080294
vt 0.398447 0.099644
vt 0.349309 0.163485
vt 0.349309 0.336515
vt 0.336515 0.150691
vt 0.575509 0.500000
vt 0.259047 0.118603
vt 0.577626 1.000000
vt 0.759047 0.118603
vt 0.751149 0.038631
vt 0.423629 0.250000
vt 0.751148 0.038622
vt 0.577626 0.000000
vt 0.423629 0.000000
vt 0.577626 0.250000
vt 0.251149 0.038631
vt 0.251148 0.038622
vt 0.240953 0.118603
vt 0.163485 0.150691
vt 0.246754 0.202853
vt 0.194122 0.224654
vt 0.259047 0.381397
vt 0.228410 0.307434
vt 0.253246 0.297147
vt 0.259047 0.294744
vt 0.259047 0.197762
vt 0.663485 0.150691
vt 0.740953 0.381397
vt 0.691466 0.225754
vt 0.599721 0.101345
vt 0.599644 0.101553
vt 0.650691 0.163485
vt 0.650691 0.336515
vt 0.663485 0.349309
vt 0.618602 0.259047
vt 0.740953 0.302238
vt 0.740953 0.205256
vt 0.577626 0.000000
vt 0.101553 0.400356
vt 0.248851 0.461369
vt 0.240953 0.381397
vt 0.101345 0.400279
vt 0.150691 0.336515
vt 0.163485 0.349309
vt 0.423629 1.000000
vt 0.118603 0.259047
vt 0.118603 0.240953
vt 0.038631 0.248851
vt 0.150691 0.163485
vt 0.618603 0.240953
vt 0.538631 0.248851
vt 0.538622 0.248852
vt 0.601345 0.400279
vt 0.510000 0.250000
vt 0.580294 0.080294
vt 0.099644 0.101553
vt 0.038622 0.248852
vt 0.099721 0.101345
vt 0.750000 0.010000
vt 0.191466 0.225754
vt 0.225754 0.308534
vt 0.308534 0.274246
vt 0.274246 0.191466
vt 0.575509 0.750000
vt 0.381397 0.259047
vt 0.990000 0.250000
vt 0.475000 0.000000
vt 0.509282 0.250000
vt 0.509282 0.000000
vt 0.509282 0.333027
vt 0.509282 0.258021
vt 0.475000 0.295901
vt 0.509282 0.500000
vt 0.475000 0.850545
vt 0.509282 0.991979
vt 0.509282 0.833027
vt 0.031250 1.000000
vt 0.031250 0.500000
vt 0.062500 1.000000
vt 0.093750 1.000000
vt 0.062500 0.500000
vt 0.093750 0.500000
vt 0.156250 1.000000
vt 0.187500 1.000000
vt 0.156250 0.500000
vt 0.218750 1.000000
vt 0.187500 0.500000
vt 0.218750 0.500000
vt 0.281250 1.000000
vt 0.312500 1.000000
vt 0.281250 0.500000
vt 0.343750 1.000000
vt 0.312500 0.500000
vt 0.343750 0.500000
vt 0.406250 1.000000
vt 0.437500 1.000000
vt 0.406250 0.500000
vt 0.468750 1.000000
vt 0.437500 0.500000
vt 0.468750 0.500000
vt 0.375000 0.000000
vt 0.475000 1.000000
vt 0.475000 0.491979
vt 0.509282 0.350545
vt 0.475000 0.333027
vt 0.509282 0.750000
vt 0.475000 0.758020
vt 0.509282 0.795901
vt 0.475000 0.833027
vt 0.509282 1.000000
vt 0.298491 0.250000
vt 0.274246 0.191466
vt 0.201509 0.250000
vt 0.308534 0.274246
vt 0.805878 0.275346
vt 0.774246 0.191466
vt 0.725754 0.308534
s 0
f 4/1/1 3/2/1 1/3/1
f 9/4/2 1/5/2 6/6/2
f 10/7/3 6/6/3 7/8/3
f 10/9/4 18/10/4 21/11/4
f 12/12/5 7/8/5 14/13/5
f 13/14/6 14/13/6 15/15/6
f 18/16/7 15/15/7 16/17/7
f 19/18/8 16/17/8 17/19/8
f 20/20/9 17/19/9 3/2/9
f 4/1/1 20/20/1 3/2/1
f 9/4/2 4/21/2 1/5/2
f 10/7/3 9/4/3 6/6/3
f 19/22/4 20/23/4 4/24/4
f 4/24/4 9/25/4 19/22/4
f 19/22/4 9/25/4 26/26/4
f 10/9/4 12/27/4 13/28/4
f 13/28/4 18/10/4 10/9/4
f 12/12/5 10/7/5 7/8/5
f 13/14/6 12/12/6 14/13/6
f 18/16/7 13/14/7 15/15/7
f 19/18/8 18/16/8 16/17/8
f 20/20/9 19/18/9 17/19/9
f 5/29/8 26/30/8 22/31/8
f 5/29/6 25/32/6 26/30/6
f 8/33/3 23/34/3 24/35/3
f 2/12/1 23/34/1 8/33/1
f 2/36/4 11/13/4 5/6/4
f 33/37/10 27/38/10 28/39/10
f 29/1/1 28/2/1 27/3/1
f 31/4/2 29/21/2 27/5/2
f 32/40/10 30/41/10 27/38/10
f 31/4/2 27/5/2 30/6/2
f 33/37/10 32/40/10 27/38/10
f 34/42/10 33/37/10 28/39/10
f 38/43/6 33/44/6 34/45/6
f 35/46/10 33/37/10 36/47/10
f 33/37/11 35/46/11 32/40/11
f 37/48/12 36/49/12 33/50/12
f 38/43/6 37/51/6 33/44/6
f 37/52/4 38/53/4 41/23/4
f 39/54/4 38/53/4 40/55/4
f 38/53/4 39/54/4 41/23/4
f 38/43/13 42/56/13 40/57/13
f 38/43/13 34/45/13 42/56/13
f 40/57/1 42/56/1 36/49/1
f 42/58/10 108/59/10 36/47/10
f 45/60/10 107/61/10 109/62/10
f 42/58/10 34/42/10 43/63/10
f 42/58/10 43/63/10 44/64/10
f 42/58/10 44/64/10 47/65/10
f 42/58/10 46/66/10 112/67/10
f 42/58/10 48/68/10 46/66/10
f 47/65/10 48/68/10 42/58/10
f 52/69/10 49/70/10 48/68/10
f 53/48/14 48/49/14 49/71/14
f 51/72/8 50/56/8 48/49/8
f 48/68/10 50/73/10 46/66/10
f 53/48/14 51/72/14 48/49/14
f 47/65/10 52/69/10 48/68/10
f 51/74/4 53/75/4 54/76/4
f 39/54/4 54/76/4 53/75/4
f 53/75/4 55/77/4 57/10/4
f 53/51/3 58/45/3 55/43/3
f 53/51/3 49/44/3 58/45/3
f 39/54/4 53/75/4 56/22/4
f 53/75/4 57/10/4 56/22/4
f 58/78/10 59/79/10 50/73/10
f 59/79/10 58/78/10 60/80/10
f 60/80/10 58/78/10 49/70/10
f 61/57/15 58/45/15 50/56/15
f 61/57/15 55/43/15 58/45/15
f 62/81/4 55/77/4 61/82/4
f 51/72/8 61/57/8 50/56/8
f 61/82/4 51/74/4 63/83/4
f 64/84/4 62/81/4 61/82/4
f 64/84/4 61/82/4 63/83/4
f 64/72/7 65/85/7 66/56/7
f 65/86/4 64/84/4 63/83/4
f 62/87/16 64/72/16 46/49/16
f 64/72/7 66/56/7 46/49/7
f 46/66/10 66/88/10 45/60/10
f 66/88/10 67/89/10 45/60/10
f 65/85/17 67/90/17 66/56/17
f 67/89/10 68/91/10 45/60/10
f 68/91/10 67/89/10 59/79/10
f 62/92/2 59/93/2 67/90/2
f 65/85/17 69/94/17 67/90/17
f 62/92/2 67/90/2 69/94/2
f 62/81/4 69/95/4 70/96/4
f 71/97/4 70/96/4 69/95/4
f 71/97/4 69/95/4 65/86/4
f 71/72/6 72/57/6 74/56/6
f 72/98/4 113/99/4 115/100/4
f 73/101/4 116/102/4 114/103/4
f 71/72/18 68/71/18 70/48/18
f 71/72/18 45/49/18 68/71/18
f 71/72/6 74/56/6 45/49/6
f 73/101/4 114/103/4 117/104/4
f 118/105/4 71/97/4 65/86/4
f 74/106/10 78/107/10 119/108/10
f 75/109/10 76/110/10 74/106/10
f 72/57/19 75/45/19 74/56/19
f 76/110/10 77/111/10 74/106/10
f 78/107/10 74/106/10 77/111/10
f 80/85/2 78/56/2 79/49/2
f 82/112/10 79/113/10 78/107/10
f 83/94/20 35/90/20 78/56/20
f 78/107/10 35/46/10 36/47/10
f 83/94/20 78/56/20 80/85/20
f 77/111/10 81/114/10 78/107/10
f 81/114/10 82/112/10 78/107/10
f 36/47/10 122/115/10 78/107/10
f 45/60/10 121/116/10 107/61/10
f 83/94/7 84/117/7 32/93/7
f 84/118/4 83/119/4 37/52/4
f 73/101/4 37/52/4 83/119/4
f 73/101/4 83/119/4 80/120/4
f 83/94/7 32/93/7 35/90/7
f 84/118/4 85/121/4 87/122/4
f 31/25/4 85/121/4 84/118/4
f 86/123/4 84/118/4 87/122/4
f 86/72/21 32/124/21 84/87/21
f 84/118/4 37/52/4 29/24/4
f 29/24/4 31/25/4 84/118/4
f 85/43/22 82/56/22 87/57/22
f 87/122/4 88/125/4 89/126/4
f 87/57/3 81/49/3 88/72/3
f 87/57/3 82/56/3 81/49/3
f 86/123/4 87/122/4 89/126/4
f 89/85/23 90/94/23 93/90/23
f 88/125/4 90/127/4 89/126/4
f 89/126/4 91/128/4 72/98/4
f 89/85/5 77/49/5 91/72/5
f 89/85/5 92/56/5 77/49/5
f 89/85/23 93/90/23 92/56/23
f 86/123/4 89/126/4 72/98/4
f 92/129/10 93/130/10 81/114/10
f 94/131/10 93/130/10 76/110/10
f 93/130/10 94/131/10 81/114/10
f 90/94/9 76/93/9 93/90/9
f 88/72/24 81/49/24 94/71/24
f 30/41/10 95/132/10 94/131/10
f 85/43/8 94/44/8 95/45/8
f 85/43/8 96/51/8 94/44/8
f 88/72/24 94/71/24 96/48/24
f 97/133/10 30/41/10 94/131/10
f 97/133/10 94/131/10 76/110/10
f 76/110/10 98/134/10 97/133/10
f 98/13/5 99/7/5 97/8/5
f 99/7/3 30/6/3 97/8/3
f 99/9/25 100/27/25 101/135/25
f 98/13/5 100/12/5 99/7/5
f 99/7/3 31/4/3 30/6/3
f 85/121/26 31/25/26 99/9/26
f 96/136/27 85/121/27 99/9/27
f 101/135/28 96/136/28 99/9/28
f 101/135/4 102/137/4 72/98/4
f 100/27/4 102/137/4 101/135/4
f 90/94/9 101/92/9 76/93/9
f 101/135/4 90/127/4 96/136/4
f 91/128/4 101/135/4 72/98/4
f 91/72/29 76/124/29 101/87/29
f 70/96/4 102/137/4 100/27/4
f 70/51/1 75/45/1 102/43/1
f 72/57/19 102/43/19 75/45/19
f 70/96/4 100/27/4 103/28/4
f 103/14/6 100/12/6 98/13/6
f 57/10/4 62/81/4 103/28/4
f 57/16/7 103/14/7 104/15/7
f 103/14/6 98/13/6 104/15/6
f 62/81/4 70/96/4 103/28/4
f 60/80/10 104/138/10 59/79/10
f 57/16/7 104/15/7 60/17/7
f 104/138/10 98/134/10 68/91/10
f 104/138/10 68/91/10 59/79/10
f 76/110/10 75/109/10 98/134/10
f 98/134/10 75/109/10 68/91/10
f 88/125/4 96/136/4 90/127/4
f 95/132/10 32/40/10 82/112/10
f 32/40/10 95/132/10 30/41/10
f 85/43/22 95/45/22 82/56/22
f 77/111/10 92/129/10 81/114/10
f 91/72/29 77/49/29 76/124/29
f 80/120/4 86/123/4 72/98/4
f 80/85/2 79/49/2 86/72/2
f 86/72/21 79/49/21 32/124/21
f 32/40/10 79/113/10 82/112/10
f 80/120/4 123/139/4 124/140/4
f 70/51/1 68/44/1 75/45/1
f 65/86/4 125/141/4 126/142/4
f 40/57/1 36/49/1 73/143/1
f 37/48/12 73/143/12 36/49/12
f 40/55/4 65/86/4 63/83/4
f 63/143/9 105/57/9 47/56/9
f 51/74/4 105/144/4 63/83/4
f 39/87/30 63/143/30 44/49/30
f 63/83/4 39/54/4 40/55/4
f 63/143/9 47/56/9 44/49/9
f 51/74/4 54/76/4 105/144/4
f 54/94/31 47/56/31 105/57/31
f 55/77/4 62/81/4 57/10/4
f 62/87/16 46/49/16 59/124/16
f 106/145/10 60/80/10 49/70/10
f 56/18/8 60/17/8 106/19/8
f 56/18/8 57/16/8 60/17/8
f 43/63/10 28/39/10 106/145/10
f 41/20/9 106/19/9 28/2/9
f 41/20/9 56/18/9 106/19/9
f 49/70/10 43/63/10 106/145/10
f 59/79/10 46/66/10 50/73/10
f 39/54/4 56/22/4 41/23/4
f 39/117/5 52/90/5 54/94/5
f 54/94/31 52/90/31 47/56/31
f 52/69/11 43/63/11 49/70/11
f 39/117/5 43/93/5 52/90/5
f 39/87/30 44/49/30 43/124/30
f 43/63/10 34/42/10 28/39/10
f 29/24/4 37/52/4 41/23/4
f 29/1/1 41/20/1 28/2/1
f 119/146/8 124/147/8 123/148/8
f 114/149/6 116/150/6 122/151/6
f 111/34/3 125/152/3 112/32/3
f 121/153/1 115/154/1 113/155/1
s 1
f 130/156/32 128/21/33 127/5/33
f 130/156/32 127/5/33 129/157/32
f 131/158/34 130/156/32 129/157/32
f 132/159/35 131/158/34 133/160/34
f 131/158/34 129/157/32 133/160/34
f 132/159/35 133/160/34 134/161/35
f 136/4/3 132/159/35 134/161/35
f 136/4/3 134/161/35 135/6/3
f 137/162/36 136/4/3 135/6/3
f 139/163/37 137/162/36 138/164/36
f 137/162/36 135/6/3 138/164/36
f 140/165/38 139/163/37 141/166/37
f 139/163/37 138/164/36 141/166/37
f 140/165/38 141/166/37 142/167/38
f 144/7/5 140/165/38 142/167/38
f 144/7/5 142/167/38 143/8/5
f 145/168/39 144/7/5 143/8/5
f 147/169/40 145/168/39 146/170/39
f 145/168/39 143/8/5 146/170/39
f 148/171/41 147/169/40 149/172/40
f 147/169/40 146/170/39 149/172/40
f 148/171/41 149/172/40 150/173/41
f 152/12/6 148/171/41 150/173/41
f 152/12/6 150/173/41 151/13/6
f 153/174/42 152/12/6 151/13/6
f 155/175/43 153/174/42 154/176/42
f 153/174/42 151/13/6 154/176/42
f 156/177/44 155/175/43 157/178/43
f 155/175/43 154/176/42 157/178/43
f 156/177/44 157/178/43 158/179/44
f 160/14/45 156/177/44 158/179/44
f 160/14/45 158/179/44 159/15/45
f 164/156/39 162/21/46 161/5/46
f 164/156/39 161/5/46 163/157/39
f 165/158/40 164/156/39 163/157/39
f 166/159/41 165/158/40 167/160/40
f 165/158/40 163/157/39 167/160/40
f 166/159/41 167/160/40 168/161/41
f 170/4/6 166/159/41 168/161/41
f 170/4/6 168/161/41 169/6/6
f 171/162/42 170/4/6 169/6/6
f 173/163/43 171/162/42 172/164/42
f 171/162/42 169/6/6 172/164/42
f 174/165/44 173/163/43 175/166/43
f 173/163/43 172/164/42 175/166/43
f 174/165/44 175/166/43 176/167/44
f 178/7/7 174/165/44 176/167/44
f 178/7/7 176/167/44 177/8/7
f 179/168/47 178/7/7 177/8/7
f 181/169/48 179/168/47 180/170/47
f 179/168/47 177/8/7 180/170/47
f 182/171/49 181/169/48 183/172/48
f 181/169/48 180/170/47 183/172/48
f 182/171/49 183/172/48 184/173/49
f 186/12/8 182/171/49 184/173/49
f 186/12/8 184/173/49 185/13/8
f 187/174/50 186/12/8 185/13/8
f 189/175/51 187/174/50 188/176/50
f 187/174/50 185/13/8 188/176/50
f 190/177/52 189/175/51 191/178/51
f 189/175/51 188/176/50 191/178/51
f 190/177/52 191/178/51 192/179/52
f 194/14/53 190/177/52 192/179/52
f 194/14/53 192/179/52 193/15/53
f 198/156/47 196/21/54 195/5/54
f 198/156/47 195/5/54 197/157/47
f 199/158/48 198/156/47 197/157/47
f 200/159/49 199/158/48 201/160/55
f 199/158/48 197/157/47 201/160/55
f 200/159/49 201/160/55 202/161/49
f 204/4/8 200/159/49 202/161/49
f 204/4/8 202/161/49 203/6/8
f 205/162/56 204/4/8 203/6/8
f 207/163/57 205/162/56 206/164/50
f 205/162/56 203/6/8 206/164/50
f 208/165/52 207/163/57 209/166/51
f 207/163/57 206/164/50 209/166/51
f 208/165/52 209/166/51 210/167/58
f 212/7/9 208/165/52 210/167/58
f 212/7/9 210/167/58 211/8/9
f 213/168/59 212/7/9 211/8/9
f 215/169/60 213/168/59 214/170/59
f 213/168/59 211/8/9 214/170/59
f 216/171/61 215/169/60 217/172/60
f 215/169/60 214/170/59 217/172/60
f 216/171/61 217/172/60 218/173/61
f 220/12/1 216/171/61 218/173/61
f 220/12/1 218/173/61 219/13/1
f 221/174/62 220/12/1 219/13/1
f 223/175/63 221/174/62 222/176/62
f 221/174/62 219/13/1 222/176/62
f 224/177/64 223/175/63 225/178/63
f 223/175/63 222/176/62 225/178/63
f 224/177/64 225/178/63 226/179/64
f 228/14/65 224/177/64 226/179/64
f 228/14/65 226/179/64 227/15/65
f 232/156/59 230/21/66 229/5/66
f 232/156/59 229/5/66 231/157/59
f 233/158/60 232/156/59 231/157/59
f 234/159/61 233/158/60 235/160/60
f 233/158/60 231/157/59 235/160/60
f 234/159/61 235/160/60 236/161/61
f 238/4/1 234/159/61 236/161/61
f 238/4/1 236/161/61 237/6/1
f 239/162/62 238/4/1 237/6/1
f 241/163/63 239/162/62 240/164/62
f 239/162/62 237/6/1 240/164/62
f 242/165/64 241/163/63 243/166/63
f 241/163/63 240/164/62 243/166/63
f 242/165/64 243/166/63 244/167/64
f 246/7/2 242/165/64 244/167/64
f 246/7/2 244/167/64 245/8/2
f 247/168/32 246/7/2 245/8/2
f 249/169/34 247/168/32 248/170/32
f 247/168/32 245/8/2 248/170/32
f 250/171/35 249/169/34 251/172/34
f 249/169/34 248/170/32 251/172/34
f 250/171/35 251/172/34 252/173/35
f 254/12/3 250/171/35 252/173/35
f 254/12/3 252/173/35 253/13/3
f 255/174/36 254/12/3 253/13/3
f 257/175/37 255/174/36 256/176/36
f 255/174/36 253/13/3 256/176/36
f 258/177/38 257/175/37 259/178/37
f 257/175/37 256/176/36 259/178/37
f 258/177/38 259/178/37 260/179/38
f 262/14/67 258/177/38 260/179/38
f 262/14/67 260/179/38 261/15/67
f 266/156/68 264/21/69 263/5/70
f 266/156/68 263/5/70 265/157/68
f 267/158/71 266/156/68 265/157/68
f 268/159/72 267/158/71 269/160/71
f 267/158/71 265/157/68 269/160/71
f 268/159/72 269/160/71 270/161/72
f 272/4/73 268/159/72 270/161/72
f 272/4/73 270/161/72 271/6/73
f 273/162/74 272/4/73 271/6/73
f 275/163/75 273/162/74 274/164/76
f 273/162/74 271/6/73 274/164/76
f 276/165/77 275/163/75 277/166/75
f 275/163/75 274/164/76 277/166/75
f 276/165/77 277/166/75 278/167/78
f 280/7/4 276/165/77 278/167/78
f 280/7/4 278/167/78 279/8/4
f 281/168/79 280/7/4 279/8/4
f 283/169/80 281/168/79 282/170/81
f 281/168/79 279/8/4 282/170/81
f 284/171/82 283/169/80 285/172/80
f 283/169/80 282/170/81 285/172/80
f 284/171/82 285/172/80 286/173/82
f 288/12/83 284/171/82 286/173/82
f 288/12/83 286/173/82 287/13/83
f 289/174/84 288/12/83 287/13/83
f 291/175/85 289/174/84 290/176/84
f 289/174/84 287/13/83 290/176/84
f 292/177/86 291/175/85 293/178/85
f 291/175/85 290/176/84 293/178/85
f 292/177/86 293/178/85 294/179/86
f 296/14/87 292/177/86 294/179/86
f 296/14/87 294/179/86 295/15/87
f 300/156/88 298/21/89 297/5/89
f 300/156/88 297/5/89 299/157/88
f 301/158/90 300/156/88 299/157/88
f 302/159/91 301/158/90 303/160/90
f 301/158/90 299/157/88 303/160/90
f 302/159/91 303/160/90 304/161/91
f 306/4/92 302/159/91 304/161/91
f 306/4/92 304/161/91 305/6/92
f 307/162/93 306/4/92 305/6/92
f 309/163/94 307/162/93 308/164/95
f 307/162/93 305/6/92 308/164/95
f 310/165/96 309/163/94 311/166/94
f 309/163/94 308/164/95 311/166/94
f 310/165/96 311/166/94 312/167/96
f 314/7/4 310/165/96 312/167/96
f 314/7/4 312/167/96 313/8/4
f 315/168/97 314/7/4 313/8/4
f 317/169/98 315/168/97 316/170/99
f 315/168/97 313/8/4 316/170/99
f 318/171/100 317/169/98 319/172/98
f 317/169/98 316/170/99 319/172/98
f 318/171/100 319/172/98 320/173/101
f 322/12/102 318/171/100 320/173/101
f 322/12/102 320/173/101 321/13/102
f 323/174/103 322/12/102 321/13/102
f 325/175/104 323/174/103 324/176/103
f 323/174/103 321/13/102 324/176/103
f 326/177/105 325/175/104 327/178/104
f 325/175/104 324/176/103 327/178/104
f 326/177/105 327/178/104 328/179/105
f 330/14/106 326/177/105 328/179/105
f 330/14/106 328/179/105 329/15/106
f 334/156/105 332/21/106 331/5/106
f 334/156/105 331/5/106 333/157/105
f 335/158/104 334/156/105 333/157/105
f 336/159/103 335/158/104 337/160/104
f 335/158/104 333/157/105 337/160/104
f 336/159/103 337/160/104 338/161/103
f 340/4/102 336/159/103 338/161/103
f 340/4/102 338/161/103 339/6/102
f 341/162/101 340/4/102 339/6/102
f 343/163/98 341/162/101 342/164/100
f 341/162/101 339/6/102 342/164/100
f 344/165/97 343/163/98 345/166/98
f 343/163/98 342/164/100 345/166/98
f 344/165/97 345/166/98 346/167/99
f 348/7/4 344/165/97 346/167/99
f 348/7/4 346/167/99 347/8/4
f 349/168/96 348/7/4 347/8/4
f 351/169/94 349/168/96 350/170/107
f 349/168/96 347/8/4 350/170/107
f 352/171/93 351/169/94 353/172/94
f 351/169/94 350/170/107 353/172/94
f 352/171/93 353/172/94 354/173/95
f 356/12/92 352/171/93 354/173/95
f 356/12/92 354/173/95 355/13/92
f 357/174/91 356/12/92 355/13/92
f 359/175/90 357/174/91 358/176/91
f 357/174/91 355/13/92 358/176/91
f 360/177/88 359/175/90 361/178/90
f 359/175/90 358/176/91 361/178/90
f 360/177/88 361/178/90 362/179/88
f 364/14/89 360/177/88 362/179/88
f 364/14/89 362/179/88 363/15/108
f 368/156/86 366/21/87 365/5/87
f 368/156/86 365/5/87 367/157/86
f 369/158/85 368/156/86 367/157/86
f 370/159/84 369/158/85 371/160/85
f 369/158/85 367/157/86 371/160/85
f 370/159/84 371/160/85 372/161/84
f 374/4/83 370/159/84 372/161/84
f 374/4/83 372/161/84 373/6/83
f 375/162/109 374/4/83 373/6/83
f 377/163/80 375/162/109 376/164/82
f 375/162/109 373/6/83 376/164/82
f 378/165/79 377/163/80 379/166/80
f 377/163/80 376/164/82 379/166/80
f 378/165/79 379/166/80 380/167/79
f 382/7/4 378/165/79 380/167/79
f 382/7/4 380/167/79 381/8/4
f 383/168/77 382/7/4 381/8/4
f 385/169/75 383/168/77 384/170/78
f 383/168/77 381/8/4 384/170/78
f 386/171/76 385/169/75 387/172/75
f 385/169/75 384/170/78 387/172/75
f 386/171/76 387/172/75 388/173/76
f 390/12/73 386/171/76 388/173/76
f 390/12/73 388/173/76 389/13/73
f 391/174/72 390/12/73 389/13/73
f 393/175/71 391/174/72 392/176/72
f 391/174/72 389/13/73 392/176/72
f 394/177/68 393/175/71 395/178/71
f 393/175/71 392/176/72 395/178/71
f 394/177/68 395/178/71 396/179/68
f 398/14/70 394/177/68 396/179/68
f 398/14/70 396/179/68 397/15/69
s 0
f 314/7/9 317/169/9 322/12/9
f 280/7/2 283/169/2 289/174/2
f 289/174/2 268/159/2 272/4/2
f 272/4/2 273/162/2 275/163/2
f 275/163/2 276/165/2 280/7/2
f 280/7/2 281/168/2 283/169/2
f 283/169/110 284/171/110 288/12/110
f 288/12/2 289/174/2 283/169/2
f 289/174/2 272/4/2 280/7/2
f 272/4/2 275/163/2 280/7/2
f 348/7/5 351/169/5 356/12/5
f 357/174/5 336/159/5 340/4/5
f 340/4/5 341/162/5 343/163/5
f 343/163/5 344/165/5 348/7/5
f 348/7/5 349/168/5 351/169/5
f 351/169/5 352/171/5 356/12/5
f 356/12/5 357/174/5 340/4/5
f 340/4/5 343/163/5 356/12/5
f 343/163/5 348/7/5 356/12/5
f 382/7/7 385/169/7 391/174/7
f 391/174/7 370/159/7 374/4/7
f 374/4/7 375/162/7 377/163/7
f 377/163/7 378/165/7 382/7/7
f 382/7/7 383/168/7 385/169/7
f 385/169/111 386/171/111 390/12/111
f 390/12/7 391/174/7 385/169/7
f 391/174/7 374/4/7 382/7/7
f 374/4/7 377/163/7 382/7/7
f 323/174/9 302/159/9 322/12/9
f 302/159/9 306/4/9 322/12/9
f 306/4/112 307/162/112 309/163/112
f 309/163/9 310/165/9 314/7/9
f 314/7/9 315/168/9 317/169/9
f 317/169/113 318/171/113 322/12/113
f 306/4/9 309/163/9 322/12/9
f 309/163/9 314/7/9 322/12/9
f 22/31/8 21/146/8 2/180/8
f 2/180/8 5/29/8 22/31/8
f 5/29/6 11/13/6 25/32/6
f 25/32/3 11/13/3 24/35/3
f 11/13/3 8/33/3 24/35/3
f 2/12/1 21/181/1 23/34/1
f 119/146/8 120/30/8 124/147/8
f 110/182/6 112/32/6 125/152/6
f 110/182/6 125/152/6 117/183/6
f 108/184/6 110/182/6 117/183/6
f 108/184/6 117/183/6 114/149/6
f 124/147/6 120/30/6 116/150/6
f 120/30/6 122/151/6 116/150/6
f 122/151/6 108/184/6 114/149/6
f 111/34/3 126/185/3 125/152/3
f 126/185/1 111/34/1 109/186/1
f 126/185/1 109/186/1 118/187/1
f 109/186/1 107/188/1 118/187/1
f 121/153/1 119/181/1 115/154/1
f 119/181/1 123/189/1 115/154/1
f 118/187/1 107/188/1 113/155/1
f 107/188/1 121/153/1 113/155/1
f 18/10/4 19/22/4 24/190/4
f 18/10/4 24/190/4 23/191/4
f 21/11/4 22/192/4 10/9/4
f 18/10/4 23/191/4 21/11/4
f 25/193/4 24/190/4 19/22/4
f 9/25/4 10/9/4 22/192/4
f 26/26/4 25/193/4 19/22/4
f 9/25/4 22/192/4 26/26/4
f 2/36/4 8/33/4 11/13/4
f 42/58/10 110/194/10 108/59/10
f 46/66/10 45/60/10 111/195/10
f 45/60/10 109/62/10 111/195/10
f 112/67/10 110/194/10 42/58/10
f 46/66/10 111/195/10 112/67/10
f 72/98/4 71/97/4 113/99/4
f 118/105/4 113/99/4 71/97/4
f 121/116/10 45/60/10 74/106/10
f 78/107/10 122/115/10 120/196/10
f 119/108/10 121/116/10 74/106/10
f 78/107/10 120/196/10 119/108/10
f 36/47/10 108/59/10 122/115/10
f 124/140/4 116/102/4 80/120/4
f 116/102/4 73/101/4 80/120/4
f 72/98/4 115/100/4 123/139/4
f 80/120/4 72/98/4 123/139/4
f 40/55/4 73/101/4 117/104/4
f 40/55/4 117/104/4 125/141/4
f 126/142/4 118/105/4 65/86/4
f 65/86/4 40/55/4 125/141/4
