{
	"asset":{
		"generator":"Khronos glTF Blender I/O v4.4.56",
		"version":"2.0"
	},
	"scene":0,
	"scenes":[
		{
			"name":"Scene",
			"nodes":[
				8
			]
		}
	],
	"nodes":[
		{
			"mesh":0,
			"name":"\ufffd\ufffd\ufffd\ufffd\ufffd\ufffd_01 - Default_0"
		},
		{
			"mesh":1,
			"name":"\ufffd\ufffd\ufffd\ufffd\ufffd\ufffd_01 - Default_0.001"
		},
		{
			"mesh":2,
			"name":"\ufffd\ufffd\ufffd\ufffd\ufffd\ufffd_01 - Default_0.002"
		},
		{
			"mesh":3,
			"name":"\ufffd\ufffd\ufffd\ufffd\ufffd\ufffd_01 - Default_0.003"
		},
		{
			"children":[
				0,
				1,
				2,
				3
			],
			"name":"\ufffd\ufffd\ufffd\ufffd\ufffd\ufffd",
			"rotation":[
				-0.70710688829422,
				0,
				0,
				0.7071066498756409
			]
		},
		{
			"name":"\ufffd\ufffd\ufffd\ufffd\ufffd\ufffd\ufffd\ufffd\ufffd",
			"rotation":[
				-0.70710688829422,
				0,
				0,
				0.7071066498756409
			]
		},
		{
			"children":[
				4,
				5
			],
			"name":"RootNode"
		},
		{
			"children":[
				6
			],
			"name":"c48b2cf0f09049f8b6b45a9fb85c81d9.fbx",
			"rotation":[
				0.70710688829422,
				0,
				0,
				0.7071066498756409
			],
			"scale":[
				0.010000000707805157,
				0.009999999776482582,
				0.010000000707805157
			]
		},
		{
			"children":[
				7
			],
			"name":"Sketchfab_model",
			"rotation":[
				-0.70710688829422,
				0,
				0,
				0.7071066498756409
			],
			"scale":[
				0.10000000149011612,
				0.09999999403953552,
				0.09999996423721313
			]
		}
	],
	"materials":[
		{
			"doubleSided":true,
			"name":"01_-_Default",
			"pbrMetallicRoughness":{
				"metallicFactor":0,
				"roughnessFactor":0.8929713368415833
			}
		}
	],
	"meshes":[
		{
			"name":"\ufffd\ufffd\ufffd\ufffd\ufffd\ufffd_01 - Default_0",
			"primitives":[
				{
					"attributes":{
						"POSITION":0,
						"NORMAL":1,
						"TEXCOORD_0":2
					},
					"indices":3,
					"material":0
				}
			]
		},
		{
			"name":"\ufffd\ufffd\ufffd\ufffd\ufffd\ufffd_01 - Default_0.001",
			"primitives":[
				{
					"attributes":{
						"POSITION":4,
						"NORMAL":5,
						"TEXCOORD_0":6
					},
					"indices":7,
					"material":0
				}
			]
		},
		{
			"name":"\ufffd\ufffd\ufffd\ufffd\ufffd\ufffd_01 - Default_0.002",
			"primitives":[
				{
					"attributes":{
						"POSITION":8,
						"NORMAL":9,
						"TEXCOORD_0":10
					},
					"indices":11,
					"material":0
				}
			]
		},
		{
			"name":"\ufffd\ufffd\ufffd\ufffd\ufffd\ufffd_01 - Default_0.003",
			"primitives":[
				{
					"attributes":{
						"POSITION":12,
						"NORMAL":13,
						"TEXCOORD_0":14
					},
					"indices":15,
					"material":0
				}
			]
		}
	],
	"accessors":[
		{
			"bufferView":0,
			"componentType":5126,
			"count":57,
			"max":[
				0.5,
				0.49240389466285706,
				19.876113891601562
			],
			"min":[
				-0.5,
				-0.49240392446517944,
				0
			],
			"type":"VEC3"
		},
		{
			"bufferView":1,
			"componentType":5126,
			"count":57,
			"type":"VEC3"
		},
		{
			"bufferView":2,
			"componentType":5126,
			"count":57,
			"type":"VEC2"
		},
		{
			"bufferView":3,
			"componentType":5123,
			"count":216,
			"type":"SCALAR"
		},
		{
			"bufferView":4,
			"componentType":5126,
			"count":18,
			"max":[
				0.5,
				0.49240389466285706,
				0
			],
			"min":[
				-0.5,
				-0.49240392446517944,
				0
			],
			"type":"VEC3"
		},
		{
			"bufferView":5,
			"componentType":5126,
			"count":18,
			"type":"VEC3"
		},
		{
			"bufferView":6,
			"componentType":5126,
			"count":18,
			"type":"VEC2"
		},
		{
			"bufferView":7,
			"componentType":5123,
			"count":48,
			"type":"SCALAR"
		},
		{
			"bufferView":8,
			"componentType":5126,
			"count":17,
			"max":[
				0.5,
				0.49240386486053467,
				19.876113891601562
			],
			"min":[
				-0.5,
				-0.49240392446517944,
				19.876113891601562
			],
			"type":"VEC3"
		},
		{
			"bufferView":9,
			"componentType":5126,
			"count":17,
			"type":"VEC3"
		},
		{
			"bufferView":10,
			"componentType":5126,
			"count":17,
			"type":"VEC2"
		},
		{
			"bufferView":11,
			"componentType":5123,
			"count":45,
			"type":"SCALAR"
		},
		{
			"bufferView":12,
			"componentType":5126,
			"count":3,
			"max":[
				0.2499999850988388,
				0.49240389466285706,
				19.876113891601562
			],
			"min":[
				-0.08682414889335632,
				0.4330127239227295,
				19.876113891601562
			],
			"type":"VEC3"
		},
		{
			"bufferView":13,
			"componentType":5126,
			"count":3,
			"type":"VEC3"
		},
		{
			"bufferView":14,
			"componentType":5126,
			"count":3,
			"type":"VEC2"
		},
		{
			"bufferView":15,
			"componentType":5123,
			"count":3,
			"type":"SCALAR"
		}
	],
	"bufferViews":[
		{
			"buffer":0,
			"byteLength":684,
			"byteOffset":0,
			"target":34962
		},
		{
			"buffer":0,
			"byteLength":684,
			"byteOffset":684,
			"target":34962
		},
		{
			"buffer":0,
			"byteLength":456,
			"byteOffset":1368,
			"target":34962
		},
		{
			"buffer":0,
			"byteLength":432,
			"byteOffset":1824,
			"target":34963
		},
		{
			"buffer":0,
			"byteLength":216,
			"byteOffset":2256,
			"target":34962
		},
		{
			"buffer":0,
			"byteLength":216,
			"byteOffset":2472,
			"target":34962
		},
		{
			"buffer":0,
			"byteLength":144,
			"byteOffset":2688,
			"target":34962
		},
		{
			"buffer":0,
			"byteLength":96,
			"byteOffset":2832,
			"target":34963
		},
		{
			"buffer":0,
			"byteLength":204,
			"byteOffset":2928,
			"target":34962
		},
		{
			"buffer":0,
			"byteLength":204,
			"byteOffset":3132,
			"target":34962
		},
		{
			"buffer":0,
			"byteLength":136,
			"byteOffset":3336,
			"target":34962
		},
		{
			"buffer":0,
			"byteLength":90,
			"byteOffset":3472,
			"target":34963
		},
		{
			"buffer":0,
			"byteLength":36,
			"byteOffset":3564,
			"target":34962
		},
		{
			"buffer":0,
			"byteLength":36,
			"byteOffset":3600,
			"target":34962
		},
		{
			"buffer":0,
			"byteLength":24,
			"byteOffset":3636,
			"target":34962
		},
		{
			"buffer":0,
			"byteLength":6,
			"byteOffset":3660,
			"target":34963
		}
	],
	"buffers":[
		{
			"byteLength":3668,
			"uri":"flagBou.bin"
		}
	]
}
