# Blender 4.4.1
# www.blender.org
mtllib bridge.mtl
o 立方体
v -10.000000 -0.250000 7.000000
v -10.000000 0.250000 7.000000
v -10.000000 -0.250000 -7.000000
v -10.000000 0.250000 -7.000000
v 10.000000 -0.250000 7.000000
v 10.000000 0.250000 7.000000
v 10.000000 -0.250000 -7.000000
v 10.000000 0.250000 -7.000000
v 9.743151 1.692300 -7.009927
v 9.743151 1.692299 7.009927
v 9.791924 1.687496 -7.009927
v 9.791924 1.687496 7.009927
v 9.838821 1.673270 -7.009927
v 9.838821 1.673269 7.009927
v 9.882043 1.650167 -7.009927
v 9.882043 1.650167 7.009927
v 9.919928 1.619077 -7.009927
v 9.919928 1.619076 7.009927
v 9.951018 1.581193 -7.009927
v 9.951018 1.581192 7.009927
v 9.974120 1.537971 -7.009927
v 9.974120 1.537970 7.009927
v 9.988347 1.491073 -7.009927
v 9.988347 1.491072 7.009927
v 9.993151 1.442300 -7.009927
v 9.993151 1.442299 7.009927
v 9.988347 1.393528 -7.009927
v 9.988347 1.393527 7.009927
v 9.974120 1.346629 -7.009927
v 9.974120 1.346629 7.009927
v 9.951018 1.303407 -7.009927
v 9.951018 1.303407 7.009927
v 9.919928 1.265523 -7.009927
v 9.919928 1.265523 7.009927
v 9.882043 1.234433 -7.009927
v 9.882043 1.234432 7.009927
v 9.838821 1.211330 -7.009927
v 9.838821 1.211330 7.009927
v 9.791924 1.197104 -7.009927
v 9.791924 1.197103 7.009927
v 9.743151 1.192300 -7.009927
v 9.743151 1.192299 7.009927
v 9.694378 1.197104 -7.009927
v 9.694378 1.197103 7.009927
v 9.647480 1.211330 -7.009927
v 9.647480 1.211330 7.009927
v 9.604259 1.234433 -7.009927
v 9.604259 1.234432 7.009927
v 9.566374 1.265523 -7.009927
v 9.566374 1.265523 7.009927
v 9.535283 1.303407 -7.009927
v 9.535283 1.303407 7.009927
v 9.512181 1.346629 -7.009927
v 9.512181 1.346629 7.009927
v 9.497954 1.393528 -7.009927
v 9.497954 1.393527 7.009927
v 9.493151 1.442300 -7.009927
v 9.493151 1.442299 7.009927
v 9.497954 1.491073 -7.009927
v 9.497954 1.491072 7.009927
v 9.512181 1.537971 -7.009927
v 9.512181 1.537970 7.009927
v 9.535283 1.581193 -7.009927
v 9.535283 1.581192 7.009927
v 9.566374 1.619077 -7.009927
v 9.566374 1.619076 7.009927
v 9.604259 1.650167 -7.009927
v 9.604259 1.650167 7.009927
v 9.647480 1.673270 -7.009927
v 9.647480 1.673269 7.009927
v 9.694378 1.687496 -7.009927
v 9.694378 1.687496 7.009927
v -9.743150 1.692300 -7.009927
v -9.743150 1.692299 7.009927
v -9.694377 1.687496 -7.009927
v -9.694377 1.687496 7.009927
v -9.647479 1.673270 -7.009927
v -9.647479 1.673269 7.009927
v -9.604258 1.650167 -7.009927
v -9.604258 1.650167 7.009927
v -9.566373 1.619077 -7.009927
v -9.566373 1.619076 7.009927
v -9.535282 1.581193 -7.009927
v -9.535282 1.581192 7.009927
v -9.512180 1.537971 -7.009927
v -9.512180 1.537970 7.009927
v -9.497953 1.491073 -7.009927
v -9.497953 1.491072 7.009927
v -9.493150 1.442300 -7.009927
v -9.493150 1.442299 7.009927
v -9.497953 1.393528 -7.009927
v -9.497953 1.393527 7.009927
v -9.512180 1.346629 -7.009927
v -9.512180 1.346629 7.009927
v -9.535282 1.303407 -7.009927
v -9.535282 1.303407 7.009927
v -9.566373 1.265523 -7.009927
v -9.566373 1.265523 7.009927
v -9.604258 1.234433 -7.009927
v -9.604258 1.234432 7.009927
v -9.647479 1.211330 -7.009927
v -9.647479 1.211330 7.009927
v -9.694377 1.197104 -7.009927
v -9.694377 1.197103 7.009927
v -9.743150 1.192300 -7.009927
v -9.743150 1.192299 7.009927
v -9.791923 1.197104 -7.009927
v -9.791923 1.197103 7.009927
v -9.838820 1.211330 -7.009927
v -9.838820 1.211330 7.009927
v -9.882042 1.234433 -7.009927
v -9.882042 1.234432 7.009927
v -9.919927 1.265523 -7.009927
v -9.919927 1.265523 7.009927
v -9.951017 1.303407 -7.009927
v -9.951017 1.303407 7.009927
v -9.974119 1.346629 -7.009927
v -9.974119 1.346629 7.009927
v -9.988346 1.393528 -7.009927
v -9.988346 1.393527 7.009927
v -9.993150 1.442300 -7.009927
v -9.993150 1.442299 7.009927
v -9.988346 1.491073 -7.009927
v -9.988346 1.491072 7.009927
v -9.974119 1.537971 -7.009927
v -9.974119 1.537970 7.009927
v -9.951017 1.581193 -7.009927
v -9.951017 1.581192 7.009927
v -9.919927 1.619077 -7.009927
v -9.919927 1.619076 7.009927
v -9.882042 1.650167 -7.009927
v -9.882042 1.650167 7.009927
v -9.838820 1.673270 -7.009927
v -9.838820 1.673269 7.009927
v -9.791923 1.687496 -7.009927
v -9.791923 1.687496 7.009927
v 9.661946 0.182944 6.895998
v 9.661946 1.382170 6.895998
v 9.661946 0.182944 6.649518
v 9.661946 1.382170 6.649518
v 9.815915 0.182944 6.895998
v 9.815915 1.382170 6.895998
v 9.815915 0.182944 6.649518
v 9.815915 1.382170 6.649518
v -9.815914 0.182944 6.895998
v -9.815914 1.382170 6.895998
v -9.815914 0.182944 6.649518
v -9.815914 1.382170 6.649518
v -9.661945 0.182944 6.895998
v -9.661945 1.382170 6.895998
v -9.661945 0.182944 6.649518
v -9.661945 1.382170 6.649518
v 9.661946 0.182944 0.092432
v 9.661946 1.382170 0.092432
v 9.661946 0.182944 -0.154049
v 9.661946 1.382170 -0.154049
v 9.815915 0.182944 0.092432
v 9.815915 1.382170 0.092432
v 9.815915 0.182944 -0.154049
v 9.815915 1.382170 -0.154049
v 9.661946 0.182944 3.244273
v 9.661946 1.382170 3.244273
v 9.661946 0.182944 2.997792
v 9.661946 1.382170 2.997792
v 9.815915 0.182944 3.244273
v 9.815915 1.382170 3.244273
v 9.815915 0.182944 2.997792
v 9.815915 1.382170 2.997792
v 9.661946 0.182944 -2.865643
v 9.661946 1.382170 -2.865643
v 9.661946 0.182944 -3.112123
v 9.661946 1.382170 -3.112123
v 9.815915 0.182944 -2.865643
v 9.815915 1.382170 -2.865643
v 9.815915 0.182944 -3.112123
v 9.815915 1.382170 -3.112123
v 9.661946 0.182944 -6.646921
v 9.661946 1.382170 -6.646921
v 9.661946 0.182944 -6.893402
v 9.661946 1.382170 -6.893402
v 9.815915 0.182944 -6.646921
v 9.815915 1.382170 -6.646921
v 9.815915 0.182944 -6.893402
v 9.815915 1.382170 -6.893402
v -9.815914 0.182944 -6.646920
v -9.815914 1.382170 -6.646920
v -9.815914 0.182944 -6.893401
v -9.815914 1.382170 -6.893401
v -9.661945 0.182944 -6.646920
v -9.661945 1.382170 -6.646920
v -9.661945 0.182944 -6.893401
v -9.661945 1.382170 -6.893401
v -9.815914 0.182944 -2.865643
v -9.815914 1.382170 -2.865643
v -9.815914 0.182944 -3.112123
v -9.815914 1.382170 -3.112123
v -9.661945 0.182944 -2.865643
v -9.661945 1.382170 -2.865643
v -9.661945 0.182944 -3.112123
v -9.661945 1.382170 -3.112123
v -9.815914 0.182944 0.092432
v -9.815914 1.382170 0.092432
v -9.815914 0.182944 -0.154049
v -9.815914 1.382170 -0.154049
v -9.661945 0.182944 0.092432
v -9.661945 1.382170 0.092432
v -9.661945 0.182944 -0.154049
v -9.661945 1.382170 -0.154049
v -9.812075 0.182944 3.269094
v -9.812075 1.382170 3.269094
v -9.812075 0.182944 3.022613
v -9.812075 1.382170 3.022613
v -9.658106 0.182944 3.269094
v -9.658106 1.382170 3.269094
v -9.658106 0.182944 3.022613
v -9.658106 1.382170 3.022613
vn -1.0000 -0.0000 -0.0000
vn -0.0000 -0.0000 -1.0000
vn 1.0000 -0.0000 -0.0000
vn -0.0000 -0.0000 1.0000
vn -0.0000 -1.0000 -0.0000
vn -0.0000 1.0000 -0.0000
vn 0.1951 0.9808 -0.0000
vn 0.3827 0.9239 -0.0000
vn 0.5556 0.8315 -0.0000
vn 0.7071 0.7071 -0.0000
vn 0.8315 0.5556 -0.0000
vn 0.9239 0.3827 -0.0000
vn 0.9808 0.1951 -0.0000
vn 0.9808 -0.1951 -0.0000
vn 0.9239 -0.3827 -0.0000
vn 0.8315 -0.5556 -0.0000
vn 0.7071 -0.7071 -0.0000
vn 0.5556 -0.8315 -0.0000
vn 0.3827 -0.9239 -0.0000
vn 0.1951 -0.9808 -0.0000
vn -0.1951 -0.9808 -0.0000
vn -0.3827 -0.9239 -0.0000
vn -0.5556 -0.8315 -0.0000
vn -0.7071 -0.7071 -0.0000
vn -0.8315 -0.5556 -0.0000
vn -0.9239 -0.3827 -0.0000
vn -0.9808 -0.1951 -0.0000
vn -0.9808 0.1951 -0.0000
vn -0.9239 0.3827 -0.0000
vn -0.8315 0.5556 -0.0000
vn -0.7071 0.7071 -0.0000
vn -0.5556 0.8315 -0.0000
vn -0.3827 0.9239 -0.0000
vn -0.1951 0.9808 -0.0000
vn -0.0000 0.0001 1.0000
vn -0.0000 -0.0001 1.0000
vn -0.0000 0.0002 -1.0000
vn -0.0000 -0.0001 -1.0000
vn -0.0000 0.0001 -1.0000
vt 0.625000 0.000000
vt 0.375000 0.250000
vt 0.375000 0.000000
vt 0.625000 0.250000
vt 0.375000 0.500000
vt 0.625000 0.500000
vt 0.375000 0.750000
vt 0.625000 0.750000
vt 0.375000 1.000000
vt 0.125000 0.750000
vt 0.125000 0.500000
vt 0.875000 0.500000
vt 1.000000 1.000000
vt 0.968750 0.500000
vt 1.000000 0.500000
vt 0.968750 1.000000
vt 0.937500 0.500000
vt 0.937500 1.000000
vt 0.906250 0.500000
vt 0.906250 1.000000
vt 0.875000 1.000000
vt 0.843750 0.500000
vt 0.843750 1.000000
vt 0.812500 0.500000
vt 0.812500 1.000000
vt 0.781250 0.500000
vt 0.781250 1.000000
vt 0.750000 0.500000
vt 0.750000 1.000000
vt 0.718750 0.500000
vt 0.718750 1.000000
vt 0.687500 0.500000
vt 0.687500 1.000000
vt 0.656250 0.500000
vt 0.656250 1.000000
vt 0.625000 1.000000
vt 0.593750 0.500000
vt 0.593750 1.000000
vt 0.562500 0.500000
vt 0.562500 1.000000
vt 0.531250 0.500000
vt 0.531250 1.000000
vt 0.500000 0.500000
vt 0.500000 1.000000
vt 0.468750 0.500000
vt 0.468750 1.000000
vt 0.437500 0.500000
vt 0.437500 1.000000
vt 0.406250 0.500000
vt 0.406250 1.000000
vt 0.343750 0.500000
vt 0.343750 1.000000
vt 0.312500 0.500000
vt 0.312500 1.000000
vt 0.281250 0.500000
vt 0.281250 1.000000
vt 0.250000 0.500000
vt 0.250000 1.000000
vt 0.218750 0.500000
vt 0.218750 1.000000
vt 0.187500 0.500000
vt 0.187500 1.000000
vt 0.156250 0.500000
vt 0.156250 1.000000
vt 0.125000 1.000000
vt 0.093750 0.500000
vt 0.093750 1.000000
vt 0.062500 0.500000
vt 0.028269 0.341844
vt 0.158156 0.028269
vt 0.471731 0.158156
vt 0.062500 1.000000
vt 0.031250 0.500000
vt 0.031250 1.000000
vt 0.000000 0.500000
vt 0.616663 0.050447
vt 0.514612 0.203178
vt 0.703178 0.485388
vt 0.875000 0.750000
vt 0.341844 0.471731
vt 0.296822 0.485388
vt 0.250000 0.490000
vt 0.203178 0.485388
vt 0.158156 0.471731
vt 0.116663 0.449553
vt 0.080294 0.419706
vt 0.050447 0.383337
vt 0.014612 0.296822
vt 0.010000 0.250000
vt 0.014612 0.203178
vt 0.028269 0.158156
vt 0.050447 0.116663
vt 0.080294 0.080294
vt 0.116663 0.050447
vt 0.203178 0.014612
vt 0.341844 0.028269
vt 0.250000 0.010000
vt 0.296822 0.014612
vt 0.383337 0.050447
vt 0.419706 0.080294
vt 0.449553 0.116663
vt 0.485388 0.203178
vt 0.490000 0.250000
vt 0.485388 0.296822
vt 0.471731 0.341844
vt 0.449553 0.383337
vt 0.419706 0.419706
vt 0.383337 0.449553
vt 0.000000 1.000000
vt 0.750000 0.490000
vt 0.796822 0.485388
vt 0.841844 0.471731
vt 0.883337 0.449553
vt 0.919706 0.419706
vt 0.949553 0.383337
vt 0.971731 0.341844
vt 0.985388 0.296822
vt 0.990000 0.250000
vt 0.985388 0.203178
vt 0.971731 0.158156
vt 0.949553 0.116663
vt 0.919706 0.080294
vt 0.883337 0.050447
vt 0.841844 0.028269
vt 0.796822 0.014612
vt 0.750000 0.010000
vt 0.703178 0.014612
vt 0.658156 0.028269
vt 0.580294 0.080294
vt 0.550447 0.116663
vt 0.528269 0.158156
vt 0.510000 0.250000
vt 0.514612 0.296822
vt 0.528269 0.341844
vt 0.550447 0.383337
vt 0.580294 0.419706
vt 0.616663 0.449553
vt 0.658156 0.471731
s 0
f 2/1/1 3/2/1 1/3/1
f 4/4/2 7/5/2 3/2/2
f 8/6/3 5/7/3 7/5/3
f 6/8/4 1/9/4 5/7/4
f 7/5/5 1/10/5 3/11/5
f 4/12/6 6/8/6 8/6/6
s 1
f 10/13/6 11/14/7 9/15/6
f 12/16/7 13/17/8 11/14/7
f 14/18/8 15/19/9 13/17/8
f 16/20/9 17/12/10 15/19/9
f 18/21/10 19/22/11 17/12/10
f 20/23/11 21/24/12 19/22/11
f 22/25/12 23/26/13 21/24/12
f 24/27/13 25/28/3 23/26/13
f 26/29/3 27/30/14 25/28/3
f 28/31/14 29/32/15 27/30/14
f 30/33/15 31/34/16 29/32/15
f 32/35/16 33/6/17 31/34/16
f 34/36/17 35/37/18 33/6/17
f 36/38/18 37/39/19 35/37/18
f 38/40/19 39/41/20 37/39/19
f 40/42/20 41/43/5 39/41/20
f 42/44/5 43/45/21 41/43/5
f 44/46/21 45/47/22 43/45/21
f 46/48/22 47/49/23 45/47/22
f 48/50/23 49/5/24 47/49/23
f 50/9/24 51/51/25 49/5/24
f 52/52/25 53/53/26 51/51/25
f 54/54/26 55/55/27 53/53/26
f 56/56/27 57/57/1 55/55/27
f 58/58/1 59/59/28 57/57/1
f 60/60/28 61/61/29 59/59/28
f 62/62/29 63/63/30 61/61/29
f 64/64/30 65/11/31 63/63/30
f 66/65/31 67/66/32 65/11/31
f 68/67/32 69/68/33 67/66/32
s 0
f 62/69/4 46/70/4 30/71/4
s 1
f 70/72/33 71/73/34 69/68/33
f 72/74/34 9/75/6 71/73/34
s 0
f 47/76/2 55/77/2 71/78/2
s 1
f 74/13/6 75/14/7 73/15/6
f 76/16/7 77/17/8 75/14/7
f 78/18/8 79/19/9 77/17/8
f 80/20/9 81/12/10 79/19/9
f 82/21/10 83/22/11 81/12/10
f 84/23/11 85/24/12 83/22/11
f 86/25/12 87/26/13 85/24/12
f 88/27/13 89/28/3 87/26/13
f 90/29/3 91/30/14 89/28/3
f 92/31/14 93/32/15 91/30/14
f 94/33/15 95/34/16 93/32/15
f 96/35/16 97/6/17 95/34/16
f 98/36/17 99/37/18 97/6/17
f 100/38/18 101/39/19 99/37/18
f 102/40/19 103/41/20 101/39/19
f 104/42/20 105/43/5 103/41/20
f 106/44/5 107/45/21 105/43/5
f 108/46/21 109/47/22 107/45/21
f 110/48/22 111/49/23 109/47/22
f 112/50/23 113/5/24 111/49/23
f 114/9/24 115/51/25 113/5/24
f 116/52/25 117/53/26 115/51/25
f 118/54/26 119/55/27 117/53/26
f 120/56/27 121/57/1 119/55/27
f 122/58/1 123/59/28 121/57/1
f 124/60/28 125/61/29 123/59/28
f 126/62/29 127/63/30 125/61/29
f 128/64/30 129/11/31 127/63/30
f 130/65/31 131/66/32 129/11/31
f 132/67/32 133/68/33 131/66/32
s 0
f 126/69/4 110/70/4 94/71/4
s 1
f 134/72/33 135/73/34 133/68/33
f 136/74/34 73/75/6 135/73/34
s 0
f 111/76/2 119/77/2 135/78/2
f 138/1/1 139/2/1 137/3/1
f 140/4/2 143/5/2 139/2/2
f 144/6/3 141/7/3 143/5/3
f 142/8/4 137/9/4 141/7/4
f 143/5/5 137/10/5 139/11/5
f 140/12/6 142/8/6 144/6/6
f 146/1/1 147/2/1 145/3/1
f 148/4/2 151/5/2 147/2/2
f 152/6/3 149/7/3 151/5/3
f 150/8/4 145/9/4 149/7/4
f 151/5/5 145/10/5 147/11/5
f 148/12/6 150/8/6 152/6/6
f 154/1/1 155/2/1 153/3/1
f 156/4/2 159/5/2 155/2/2
f 160/6/3 157/7/3 159/5/3
f 158/8/4 153/9/4 157/7/4
f 159/5/5 153/10/5 155/11/5
f 156/12/6 158/8/6 160/6/6
f 162/1/1 163/2/1 161/3/1
f 164/4/2 167/5/2 163/2/2
f 168/6/3 165/7/3 167/5/3
f 166/8/4 161/9/4 165/7/4
f 167/5/5 161/10/5 163/11/5
f 164/12/6 166/8/6 168/6/6
f 170/1/1 171/2/1 169/3/1
f 172/4/2 175/5/2 171/2/2
f 176/6/3 173/7/3 175/5/3
f 174/8/4 169/9/4 173/7/4
f 175/5/5 169/10/5 171/11/5
f 172/12/6 174/8/6 176/6/6
f 178/1/1 179/2/1 177/3/1
f 180/4/2 183/5/2 179/2/2
f 184/6/3 181/7/3 183/5/3
f 182/8/4 177/9/4 181/7/4
f 183/5/5 177/10/5 179/11/5
f 180/12/6 182/8/6 184/6/6
f 186/1/1 187/2/1 185/3/1
f 188/4/2 191/5/2 187/2/2
f 192/6/3 189/7/3 191/5/3
f 190/8/4 185/9/4 189/7/4
f 191/5/5 185/10/5 187/11/5
f 188/12/6 190/8/6 192/6/6
f 194/1/1 195/2/1 193/3/1
f 196/4/2 199/5/2 195/2/2
f 200/6/3 197/7/3 199/5/3
f 198/8/4 193/9/4 197/7/4
f 199/5/5 193/10/5 195/11/5
f 196/12/6 198/8/6 200/6/6
f 202/1/1 203/2/1 201/3/1
f 204/4/2 207/5/2 203/2/2
f 208/6/3 205/7/3 207/5/3
f 206/8/4 201/9/4 205/7/4
f 207/5/5 201/10/5 203/11/5
f 204/12/6 206/8/6 208/6/6
f 210/1/1 211/2/1 209/3/1
f 212/4/2 215/5/2 211/2/2
f 216/6/3 213/7/3 215/5/3
f 214/8/4 209/9/4 213/7/4
f 215/5/5 209/10/5 211/11/5
f 212/12/6 214/8/6 216/6/6
f 2/1/1 4/4/1 3/2/1
f 4/4/2 8/6/2 7/5/2
f 8/6/3 6/8/3 5/7/3
f 6/8/4 2/36/4 1/9/4
f 7/5/5 5/7/5 1/10/5
f 4/12/6 2/79/6 6/8/6
s 1
f 10/13/6 12/16/7 11/14/7
f 12/16/7 14/18/8 13/17/8
f 14/18/8 16/20/9 15/19/9
f 16/20/9 18/21/10 17/12/10
f 18/21/10 20/23/11 19/22/11
f 20/23/11 22/25/12 21/24/12
f 22/25/12 24/27/13 23/26/13
f 24/27/13 26/29/3 25/28/3
f 26/29/3 28/31/14 27/30/14
f 28/31/14 30/33/15 29/32/15
f 30/33/15 32/35/16 31/34/16
f 32/35/16 34/36/17 33/6/17
f 34/36/17 36/38/18 35/37/18
f 36/38/18 38/40/19 37/39/19
f 38/40/19 40/42/20 39/41/20
f 40/42/20 42/44/5 41/43/5
f 42/44/5 44/46/21 43/45/21
f 44/46/21 46/48/22 45/47/22
f 46/48/22 48/50/23 47/49/23
f 48/50/23 50/9/24 49/5/24
f 50/9/24 52/52/25 51/51/25
f 52/52/25 54/54/26 53/53/26
f 54/54/26 56/56/27 55/55/27
f 56/56/27 58/58/1 57/57/1
f 58/58/1 60/60/28 59/59/28
f 60/60/28 62/62/29 61/61/29
f 62/62/29 64/64/30 63/63/30
f 64/64/30 66/65/31 65/11/31
f 66/65/31 68/67/32 67/66/32
f 68/67/32 70/72/33 69/68/33
s 0
f 14/80/4 12/81/4 10/82/4
f 10/82/4 72/83/4 70/84/4
f 70/84/4 68/85/4 62/69/4
f 68/85/4 66/86/4 62/69/4
f 66/86/4 64/87/4 62/69/4
f 62/69/4 60/88/4 58/89/4
f 58/89/4 56/90/4 54/91/4
f 54/91/4 52/92/4 50/93/4
f 50/93/4 48/94/4 54/91/4
f 48/94/4 46/70/4 54/91/4
f 46/70/35 44/95/35 38/96/35
f 44/95/36 42/97/36 38/96/36
f 42/97/4 40/98/4 38/96/4
f 38/96/4 36/99/4 30/71/4
f 36/99/4 34/100/4 30/71/4
f 34/100/4 32/101/4 30/71/4
f 30/71/4 28/102/4 26/103/4
f 26/103/4 24/104/4 22/105/4
f 22/105/4 20/106/4 18/107/4
f 18/107/4 16/108/4 22/105/4
f 16/108/4 14/80/4 22/105/4
f 14/80/4 10/82/4 70/84/4
f 62/69/4 58/89/4 54/91/4
f 30/71/4 26/103/4 22/105/4
f 14/80/4 70/84/4 62/69/4
f 62/69/4 54/91/4 46/70/4
f 46/70/4 38/96/4 30/71/4
f 30/71/4 22/105/4 14/80/4
f 14/80/4 62/69/4 30/71/4
s 1
f 70/72/33 72/74/34 71/73/34
f 72/74/34 10/109/6 9/75/6
s 0
f 71/78/2 9/110/2 11/111/2
f 11/111/37 13/112/37 71/78/37
f 13/112/2 15/113/2 71/78/2
f 15/113/38 17/114/38 19/115/38
f 19/115/2 21/116/2 15/113/2
f 21/116/2 23/117/2 15/113/2
f 23/117/2 25/118/2 27/119/2
f 27/119/2 29/120/2 23/117/2
f 29/120/2 31/121/2 23/117/2
f 31/121/2 33/122/2 35/123/2
f 35/123/38 37/124/38 39/125/38
f 39/125/2 41/126/2 47/76/2
f 41/126/2 43/127/2 47/76/2
f 43/127/38 45/128/38 47/76/38
f 47/76/39 49/129/39 51/130/39
f 51/130/2 53/131/2 47/76/2
f 53/131/2 55/77/2 47/76/2
f 55/77/2 57/132/2 59/133/2
f 59/133/2 61/134/2 55/77/2
f 61/134/2 63/135/2 55/77/2
f 63/135/2 65/136/2 67/137/2
f 67/137/39 69/138/39 71/78/39
f 31/121/2 35/123/2 23/117/2
f 35/123/2 39/125/2 23/117/2
f 63/135/2 67/137/2 55/77/2
f 67/137/2 71/78/2 55/77/2
f 71/78/2 15/113/2 39/125/2
f 15/113/2 23/117/2 39/125/2
f 39/125/2 47/76/2 71/78/2
s 1
f 74/13/6 76/16/7 75/14/7
f 76/16/7 78/18/8 77/17/8
f 78/18/8 80/20/9 79/19/9
f 80/20/9 82/21/10 81/12/10
f 82/21/10 84/23/11 83/22/11
f 84/23/11 86/25/12 85/24/12
f 86/25/12 88/27/13 87/26/13
f 88/27/13 90/29/3 89/28/3
f 90/29/3 92/31/14 91/30/14
f 92/31/14 94/33/15 93/32/15
f 94/33/15 96/35/16 95/34/16
f 96/35/16 98/36/17 97/6/17
f 98/36/17 100/38/18 99/37/18
f 100/38/18 102/40/19 101/39/19
f 102/40/19 104/42/20 103/41/20
f 104/42/20 106/44/5 105/43/5
f 106/44/5 108/46/21 107/45/21
f 108/46/21 110/48/22 109/47/22
f 110/48/22 112/50/23 111/49/23
f 112/50/23 114/9/24 113/5/24
f 114/9/24 116/52/25 115/51/25
f 116/52/25 118/54/26 117/53/26
f 118/54/26 120/56/27 119/55/27
f 120/56/27 122/58/1 121/57/1
f 122/58/1 124/60/28 123/59/28
f 124/60/28 126/62/29 125/61/29
f 126/62/29 128/64/30 127/63/30
f 128/64/30 130/65/31 129/11/31
f 130/65/31 132/67/32 131/66/32
f 132/67/32 134/72/33 133/68/33
s 0
f 78/80/4 76/81/4 74/82/4
f 74/82/4 136/83/4 134/84/4
f 134/84/4 132/85/4 126/69/4
f 132/85/4 130/86/4 126/69/4
f 130/86/4 128/87/4 126/69/4
f 126/69/4 124/88/4 122/89/4
f 122/89/4 120/90/4 118/91/4
f 118/91/4 116/92/4 114/93/4
f 114/93/4 112/94/4 118/91/4
f 112/94/4 110/70/4 118/91/4
f 110/70/35 108/95/35 102/96/35
f 108/95/36 106/97/36 102/96/36
f 106/97/4 104/98/4 102/96/4
f 102/96/4 100/99/4 94/71/4
f 100/99/4 98/100/4 94/71/4
f 98/100/4 96/101/4 94/71/4
f 94/71/4 92/102/4 90/103/4
f 90/103/4 88/104/4 86/105/4
f 86/105/4 84/106/4 82/107/4
f 82/107/4 80/108/4 86/105/4
f 80/108/4 78/80/4 86/105/4
f 78/80/4 74/82/4 134/84/4
f 126/69/4 122/89/4 118/91/4
f 94/71/4 90/103/4 86/105/4
f 78/80/4 134/84/4 126/69/4
f 126/69/4 118/91/4 110/70/4
f 110/70/4 102/96/4 94/71/4
f 94/71/4 86/105/4 78/80/4
f 78/80/4 126/69/4 94/71/4
s 1
f 134/72/33 136/74/34 135/73/34
f 136/74/34 74/109/6 73/75/6
s 0
f 135/78/2 73/110/2 75/111/2
f 75/111/37 77/112/37 135/78/37
f 77/112/2 79/113/2 135/78/2
f 79/113/38 81/114/38 83/115/38
f 83/115/2 85/116/2 79/113/2
f 85/116/2 87/117/2 79/113/2
f 87/117/2 89/118/2 91/119/2
f 91/119/2 93/120/2 87/117/2
f 93/120/2 95/121/2 87/117/2
f 95/121/2 97/122/2 99/123/2
f 99/123/38 101/124/38 103/125/38
f 103/125/2 105/126/2 111/76/2
f 105/126/2 107/127/2 111/76/2
f 107/127/38 109/128/38 111/76/38
f 111/76/39 113/129/39 115/130/39
f 115/130/2 117/131/2 111/76/2
f 117/131/2 119/77/2 111/76/2
f 119/77/2 121/132/2 123/133/2
f 123/133/2 125/134/2 119/77/2
f 125/134/2 127/135/2 119/77/2
f 127/135/2 129/136/2 131/137/2
f 131/137/39 133/138/39 135/78/39
f 95/121/2 99/123/2 87/117/2
f 99/123/2 103/125/2 87/117/2
f 127/135/2 131/137/2 119/77/2
f 131/137/2 135/78/2 119/77/2
f 135/78/2 79/113/2 103/125/2
f 79/113/2 87/117/2 103/125/2
f 103/125/2 111/76/2 135/78/2
f 138/1/1 140/4/1 139/2/1
f 140/4/2 144/6/2 143/5/2
f 144/6/3 142/8/3 141/7/3
f 142/8/4 138/36/4 137/9/4
f 143/5/5 141/7/5 137/10/5
f 140/12/6 138/79/6 142/8/6
f 146/1/1 148/4/1 147/2/1
f 148/4/2 152/6/2 151/5/2
f 152/6/3 150/8/3 149/7/3
f 150/8/4 146/36/4 145/9/4
f 151/5/5 149/7/5 145/10/5
f 148/12/6 146/79/6 150/8/6
f 154/1/1 156/4/1 155/2/1
f 156/4/2 160/6/2 159/5/2
f 160/6/3 158/8/3 157/7/3
f 158/8/4 154/36/4 153/9/4
f 159/5/5 157/7/5 153/10/5
f 156/12/6 154/79/6 158/8/6
f 162/1/1 164/4/1 163/2/1
f 164/4/2 168/6/2 167/5/2
f 168/6/3 166/8/3 165/7/3
f 166/8/4 162/36/4 161/9/4
f 167/5/5 165/7/5 161/10/5
f 164/12/6 162/79/6 166/8/6
f 170/1/1 172/4/1 171/2/1
f 172/4/2 176/6/2 175/5/2
f 176/6/3 174/8/3 173/7/3
f 174/8/4 170/36/4 169/9/4
f 175/5/5 173/7/5 169/10/5
f 172/12/6 170/79/6 174/8/6
f 178/1/1 180/4/1 179/2/1
f 180/4/2 184/6/2 183/5/2
f 184/6/3 182/8/3 181/7/3
f 182/8/4 178/36/4 177/9/4
f 183/5/5 181/7/5 177/10/5
f 180/12/6 178/79/6 182/8/6
f 186/1/1 188/4/1 187/2/1
f 188/4/2 192/6/2 191/5/2
f 192/6/3 190/8/3 189/7/3
f 190/8/4 186/36/4 185/9/4
f 191/5/5 189/7/5 185/10/5
f 188/12/6 186/79/6 190/8/6
f 194/1/1 196/4/1 195/2/1
f 196/4/2 200/6/2 199/5/2
f 200/6/3 198/8/3 197/7/3
f 198/8/4 194/36/4 193/9/4
f 199/5/5 197/7/5 193/10/5
f 196/12/6 194/79/6 198/8/6
f 202/1/1 204/4/1 203/2/1
f 204/4/2 208/6/2 207/5/2
f 208/6/3 206/8/3 205/7/3
f 206/8/4 202/36/4 201/9/4
f 207/5/5 205/7/5 201/10/5
f 204/12/6 202/79/6 206/8/6
f 210/1/1 212/4/1 211/2/1
f 212/4/2 216/6/2 215/5/2
f 216/6/3 214/8/3 213/7/3
f 214/8/4 210/36/4 209/9/4
f 215/5/5 213/7/5 209/10/5
f 212/12/6 210/79/6 214/8/6
