# Blender 4.4.1
# www.blender.org
mtllib enemy_core1.mtl
o enemy_core1
v 0.568975 0.098014 0.116879
v 0.090742 0.483433 0.071181
v 0.624615 -0.086705 0.028638
v 0.177898 -0.320580 -0.023352
v 0.633515 -0.096645 0.006968
v 0.166306 -0.485374 -0.268629
v 0.561984 0.050438 0.153288
v 0.132163 -0.236283 0.054417
v 0.234729 0.089242 0.276087
v -0.097297 -0.300574 -0.246753
v 0.033758 0.433770 0.131838
v -0.108188 0.333308 -0.072665
v -0.093737 0.383052 -0.040840
v 0.526335 -0.047656 -0.298017
v 0.339416 -0.265405 -0.298017
v 0.700922 -0.150016 -0.180612
v 0.706799 -0.143958 -0.180168
v 0.612104 -0.236129 -0.191926
v 0.593864 -0.057283 -0.269410
v 0.628465 -0.079105 -0.249085
v 0.287980 0.189479 -0.298017
v 0.539014 -0.021402 -0.298017
v -0.043677 0.467689 -0.298017
v 0.695728 -0.121755 -0.209497
v 0.709020 -0.126985 -0.192447
v 0.607450 -0.239386 -0.193583
v 0.598824 -0.245385 -0.196687
v -0.049273 0.463947 -0.298017
v -0.057657 0.458406 -0.298017
v 0.563902 -0.269379 -0.209497
v 0.438848 -0.340755 -0.233094
v 0.470646 -0.322384 -0.226754
v 0.421032 -0.351016 -0.236658
v 0.260875 -0.438605 -0.261541
v 0.172179 -0.487643 -0.276144
v 0.143932 -0.484426 -0.287965
v 0.123428 -0.478227 -0.298017
v -0.092833 -0.339109 -0.298017
v -0.086892 0.397754 -0.298017
v -0.075633 0.437924 -0.298017
v -0.072515 0.448485 -0.298017
v 0.700922 -0.150016 -0.180612
v 0.706799 -0.143958 -0.180168
v 0.612104 -0.236129 -0.191926
v 0.539014 -0.021402 -0.298017
v 0.539014 -0.021402 -0.298017
v 0.287980 0.189479 -0.298017
v 0.593864 -0.057283 -0.269410
v 0.593864 -0.057283 -0.269410
v 0.628465 -0.079105 -0.249085
v -0.043677 0.467689 -0.298017
v 0.695728 -0.121755 -0.209497
v 0.695728 -0.121755 -0.209497
v 0.709020 -0.126985 -0.192447
v 0.607450 -0.239386 -0.193583
v 0.598824 -0.245385 -0.196687
v -0.049273 0.463947 -0.298017
v -0.057657 0.458406 -0.298017
v 0.438848 -0.340755 -0.233094
v 0.470646 -0.322384 -0.226754
v 0.470646 -0.322384 -0.226754
v 0.563902 -0.269379 -0.209497
v 0.563902 -0.269379 -0.209497
v 0.421032 -0.351016 -0.236658
v 0.421032 -0.351016 -0.236658
v 0.260875 -0.438605 -0.261541
v 0.172179 -0.487643 -0.276144
v 0.143932 -0.484426 -0.287965
v 0.123428 -0.478227 -0.298017
v 0.123428 -0.478227 -0.298017
v -0.092833 -0.339109 -0.298017
v -0.086892 0.397754 -0.298017
v -0.075633 0.437924 -0.298017
v -0.072515 0.448485 -0.298017
v 0.339416 -0.265405 -0.298017
v 0.339416 -0.265405 -0.298017
v 0.526335 -0.047656 -0.298017
v 0.526335 -0.047656 -0.298017
v 0.526335 -0.047656 -0.298017
vn 0.6380 -0.6493 0.4140
vn 0.6068 -0.6800 0.4115
vn 0.6205 0.7387 -0.2633
vn -0.7627 -0.1834 0.6202
vn 0.9345 0.1216 0.3346
vn 0.9349 0.0868 0.3442
vn 0.3651 -0.7802 0.5079
vn 0.3603 -0.7816 0.5092
vn -0.5482 0.8200 0.1646
vn -0.5440 0.8231 0.1629
vn 0.3548 0.5319 0.7689
vn 0.3571 0.5340 0.7664
vn 0.9339 0.1204 0.3367
vn 0.2234 -0.5978 0.7699
vn 0.3509 -0.7841 0.5120
vn 0.6210 0.7403 -0.2576
vn -0.1759 -0.9720 0.1559
vn 0.3500 -0.7851 0.5110
vn -0.9628 0.2698 -0.0138
vn -0.9590 0.2832 -0.0071
vn -0.5479 0.8204 0.1635
vn -0.7677 -0.1719 0.6173
vn -0.9957 0.0081 -0.0918
vn -0.7612 -0.1837 0.6219
vn 0.3524 0.5288 0.7721
vn 0.2195 -0.5952 0.7730
vn -0.4663 -0.7231 0.5096
vn -0.4655 -0.7243 0.5086
vn 0.2179 -0.5953 0.7734
vn -0.0000 -0.0000 -1.0000
vn 0.5865 -0.5237 -0.6179
vn -0.4670 -0.7259 0.5049
vn 0.3308 -0.3358 -0.8819
vn 0.3224 -0.3328 -0.8862
vn 0.3194 -0.3318 -0.8877
vn 0.3282 -0.3348 -0.8833
vn 0.3356 -0.2997 -0.8931
vn 0.3508 -0.3011 -0.8867
vn 0.3628 -0.1752 -0.9153
vn -0.7630 -0.1837 0.6198
vn 0.9346 0.1200 0.3349
vn 0.6212 0.7403 -0.2572
vn 0.6210 0.7403 -0.2575
vn 0.6210 0.7403 -0.2577
vn 0.3501 -0.7853 0.5107
vn -0.9957 0.0080 -0.0927
vn 0.5864 -0.5239 -0.6178
vn -0.4670 -0.7260 0.5048
vn -0.4670 -0.7259 0.5050
vn 0.3356 -0.2999 -0.8930
vt 1.000000 0.675124
vt 0.225826 0.000000
vt 1.000000 0.000000
vt 0.000000 0.000000
vt 0.571957 0.000000
vt 0.675124 0.675124
vt 1.000000 0.442906
vt 0.830690 0.693694
vt 0.602142 0.440254
vt 0.879679 0.879679
vt 0.794804 0.794804
vt 1.000000 1.000000
vt 0.601553 0.000000
vt 1.000000 0.428043
vt 0.601553 0.601553
vt 0.598606 0.000000
vt 1.000000 0.880106
vt 0.119975 0.000000
vt 0.104820 0.000000
vt 0.717000 0.077603
vt 1.000000 0.401394
vt 0.957886 0.922694
vt 0.442906 0.442906
vt 0.243347 0.000000
vt 0.094346 0.094346
vt 0.898524 0.224920
vt 0.646504 0.646504
vt 1.000000 0.817425
vt 0.181312 0.000000
vt 0.817425 0.817425
vt 1.000000 0.895180
vt 0.836320 0.836320
vt 0.818688 0.000000
vt 0.684905 0.054588
vt 0.756654 0.000000
vt 1.000000 0.873810
vt 1.000000 0.794804
vt 0.119975 0.119975
vt 0.646504 0.000000
vt 0.924096 0.301942
vt 1.000000 0.879680
vt 0.873810 0.873810
vt 0.119894 0.000000
vt 0.094346 0.000000
vt 0.674624 0.604383
vt 1.000000 0.836320
vt 0.504704 0.504704
vt 1.000000 0.504704
s 0
f 42/1/1 43/2/1 5/3/1
f 5/4/2 44/5/2 42/6/2
f 47/7/3 48/8/3 45/9/3
f 8/3/4 12/4/4 10/4/4
f 3/3/5 54/10/5 1/4/5
f 3/4/6 5/3/6 43/11/6
f 5/12/7 55/13/7 44/14/7
f 55/15/8 3/4/8 56/16/8
f 51/17/9 57/18/9 2/3/9
f 2/12/10 58/19/10 11/3/10
f 11/4/11 7/3/11 2/12/11
f 7/4/12 1/3/12 2/12/12
f 1/12/13 7/4/13 3/3/13
f 7/4/14 4/3/14 3/12/14
f 4/4/15 60/20/15 56/21/15
f 52/22/16 47/23/16 2/4/16
f 6/4/17 68/24/17 67/25/17
f 66/26/18 59/27/18 6/4/18
f 12/3/19 73/28/19 72/29/19
f 13/3/20 73/30/20 12/4/20
f 13/4/21 58/31/21 74/32/21
f 13/4/22 12/3/22 11/12/22
f 72/33/23 10/12/23 12/4/23
f 8/4/24 9/3/24 11/12/24
f 11/12/25 9/4/25 7/3/25
f 9/4/26 4/3/26 7/12/26
f 10/3/27 4/12/27 8/4/27
f 6/3/28 4/12/28 10/4/28
f 8/3/29 4/12/29 9/4/29
s 1
f 77/4/30 39/4/30 28/4/30
f 27/4/31 53/4/31 17/4/31
s 0
f 10/3/32 69/34/32 68/35/32
s 1
f 35/4/33 37/4/33 76/4/34
f 65/4/35 34/4/36 76/4/34
f 61/4/37 49/4/37 24/4/37
f 14/4/38 31/4/38 33/4/38
f 22/4/39 19/4/39 79/4/39
s 0
f 47/7/3 50/36/3 48/8/3
f 8/3/40 11/12/40 12/4/40
f 3/3/41 43/37/41 54/10/41
f 5/12/7 3/4/7 55/13/7
f 2/12/10 57/38/10 58/19/10
f 56/21/15 3/12/15 4/4/15
f 4/4/15 59/39/15 60/20/15
f 60/20/15 62/40/15 56/21/15
f 1/3/42 54/41/42 52/22/42
f 52/22/43 50/42/43 47/23/43
f 47/23/44 51/43/44 2/4/44
f 2/4/42 1/3/42 52/22/42
f 6/4/45 67/44/45 66/26/45
f 66/26/18 64/45/18 59/27/18
f 59/27/18 4/4/18 6/4/18
f 13/3/20 74/46/20 73/30/20
f 13/4/21 11/3/21 58/31/21
f 72/33/46 71/47/46 10/12/46
s 1
f 28/4/30 23/4/30 21/4/30
f 21/4/30 46/4/30 77/4/30
f 77/4/30 75/4/30 70/4/30
f 70/4/30 38/4/30 39/4/30
f 39/4/30 40/4/30 41/4/30
f 41/4/30 29/4/30 28/4/30
f 28/4/30 21/4/30 77/4/30
f 77/4/30 70/4/30 39/4/30
f 39/4/30 41/4/30 28/4/30
f 17/4/31 16/4/31 18/4/31
f 18/4/31 26/4/47 27/4/31
f 27/4/31 63/4/31 53/4/31
f 53/4/31 25/4/31 17/4/31
f 17/4/31 18/4/31 27/4/31
s 0
f 68/35/48 6/4/48 10/3/48
f 10/3/49 71/48/49 69/34/49
s 1
f 76/4/34 34/4/36 35/4/33
f 35/4/33 36/4/33 37/4/33
f 24/4/37 30/4/37 61/4/37
f 61/4/37 78/4/37 49/4/37
f 49/4/37 20/4/50 24/4/37
f 33/4/38 15/4/38 14/4/38
f 14/4/38 32/4/38 31/4/38
