# Blender 4.4.1
# www.blender.org
mtllib map_turorial_10.mtl
o エレベーター.003
v -12.000000 0.071481 -1.500000
v -12.000000 0.385782 -1.500000
v -11.707364 0.071481 -1.471178
v -11.707364 0.385782 -1.471178
v -11.425975 0.071481 -1.385819
v -11.425975 0.385782 -1.385819
v -11.166645 0.071481 -1.247204
v -11.166645 0.385782 -1.247204
v -10.939340 0.071481 -1.060660
v -10.939340 0.385782 -1.060660
v -10.752795 0.071481 -0.833355
v -10.752795 0.385782 -0.833355
v -10.614181 0.071481 -0.574025
v -10.614181 0.385782 -0.574025
v -10.528822 0.071481 -0.292636
v -10.528822 0.385782 -0.292636
v -10.500000 0.071481 -0.000000
v -10.500000 0.385782 -0.000000
v -10.528822 0.071481 0.292635
v -10.528822 0.385782 0.292635
v -10.614181 0.071481 0.574025
v -10.614181 0.385782 0.574025
v -10.752795 0.071481 0.833355
v -10.752795 0.385782 0.833355
v -10.939340 0.071481 1.060660
v -10.939340 0.385782 1.060660
v -11.166645 0.071481 1.247204
v -11.166645 0.385782 1.247204
v -11.425975 0.071481 1.385819
v -11.425975 0.385782 1.385819
v -11.707364 0.071481 1.471178
v -11.707364 0.385782 1.471178
v -12.000000 0.071481 1.500000
v -12.000000 0.385782 1.500000
v -12.292636 0.071481 1.471178
v -12.292636 0.385782 1.471178
v -12.574025 0.071481 1.385819
v -12.574025 0.385782 1.385819
v -12.833355 0.071481 1.247204
v -12.833355 0.385782 1.247204
v -13.060660 0.071481 1.060660
v -13.060660 0.385782 1.060660
v -13.247205 0.071481 0.833355
v -13.247205 0.385782 0.833355
v -13.385819 0.071481 0.574025
v -13.385819 0.385782 0.574025
v -13.471178 0.071481 0.292635
v -13.471178 0.385782 0.292635
v -13.500000 0.071481 -0.000000
v -13.500000 0.385782 -0.000000
v -13.471178 0.071481 -0.292636
v -13.471178 0.385782 -0.292636
v -13.385819 0.071481 -0.574025
v -13.385819 0.385782 -0.574025
v -13.247205 0.071481 -0.833355
v -13.247205 0.385782 -0.833355
v -13.060660 0.071481 -1.060660
v -13.060660 0.385782 -1.060660
v -12.833355 0.071481 -1.247204
v -12.833355 0.385782 -1.247204
v -12.574025 0.071481 -1.385819
v -12.574025 0.385782 -1.385819
v -12.292636 0.071481 -1.471178
v -12.292636 0.385782 -1.471178
v 12.000000 0.071481 -1.500000
v 12.000000 0.385782 -1.500000
v 12.292637 0.071481 -1.471178
v 12.292637 0.385782 -1.471178
v 12.574026 0.071481 -1.385819
v 12.574026 0.385782 -1.385819
v 12.833357 0.071481 -1.247204
v 12.833357 0.385782 -1.247204
v 13.060659 0.071481 -1.060660
v 13.060659 0.385782 -1.060660
v 13.247206 0.071481 -0.833355
v 13.247206 0.385782 -0.833355
v 13.385818 0.071481 -0.574025
v 13.385818 0.385782 -0.574025
v 13.471178 0.071481 -0.292636
v 13.471178 0.385782 -0.292636
v 13.500000 0.071481 -0.000000
v 13.500000 0.385782 -0.000000
v 13.471178 0.071481 0.292635
v 13.471178 0.385782 0.292635
v 13.385818 0.071481 0.574025
v 13.385818 0.385782 0.574025
v 13.247206 0.071481 0.833355
v 13.247206 0.385782 0.833355
v 13.060659 0.071481 1.060660
v 13.060659 0.385782 1.060660
v 12.833357 0.071481 1.247204
v 12.833357 0.385782 1.247204
v 12.574026 0.071481 1.385819
v 12.574026 0.385782 1.385819
v 12.292637 0.071481 1.471178
v 12.292637 0.385782 1.471178
v 12.000000 0.071481 1.500000
v 12.000000 0.385782 1.500000
v 11.707365 0.071481 1.471178
v 11.707365 0.385782 1.471178
v 11.425976 0.071481 1.385819
v 11.425976 0.385782 1.385819
v 11.166645 0.071481 1.247204
v 11.166645 0.385782 1.247204
v 10.939341 0.071481 1.060660
v 10.939341 0.385782 1.060660
v 10.752796 0.071481 0.833355
v 10.752796 0.385782 0.833355
v 10.614182 0.071481 0.574025
v 10.614182 0.385782 0.574025
v 10.528822 0.071481 0.292635
v 10.528822 0.385782 0.292635
v 10.500000 0.071481 -0.000000
v 10.500000 0.385782 -0.000000
v 10.528822 0.071481 -0.292636
v 10.528822 0.385782 -0.292636
v 10.614182 0.071481 -0.574025
v 10.614182 0.385782 -0.574025
v 10.752796 0.071481 -0.833355
v 10.752796 0.385782 -0.833355
v 10.939341 0.071481 -1.060660
v 10.939341 0.385782 -1.060660
v 11.166645 0.071481 -1.247204
v 11.166645 0.385782 -1.247204
v 11.425976 0.071481 -1.385819
v 11.425976 0.385782 -1.385819
v 11.707365 0.071481 -1.471178
v 11.707365 0.385782 -1.471178
v -1.500000 0.071481 12.000000
v -1.500000 0.385782 12.000000
v -1.471177 0.071481 11.707364
v -1.471177 0.385782 11.707364
v -1.385819 0.071481 11.425975
v -1.385819 0.385782 11.425975
v -1.247204 0.071481 11.166645
v -1.247204 0.385782 11.166645
v -1.060660 0.071481 10.939340
v -1.060660 0.385782 10.939340
v -0.833355 0.071481 10.752795
v -0.833355 0.385782 10.752795
v -0.574025 0.071481 10.614181
v -0.574025 0.385782 10.614181
v -0.292635 0.071481 10.528822
v -0.292635 0.385782 10.528822
v 0.000000 0.071481 10.500000
v 0.000000 0.385782 10.500000
v 0.292636 0.071481 10.528822
v 0.292636 0.385782 10.528822
v 0.574026 0.071481 10.614181
v 0.574026 0.385782 10.614181
v 0.833356 0.071481 10.752795
v 0.833356 0.385782 10.752795
v 1.060661 0.071481 10.939340
v 1.060661 0.385782 10.939340
v 1.247205 0.071481 11.166645
v 1.247205 0.385782 11.166645
v 1.385820 0.071481 11.425975
v 1.385820 0.385782 11.425975
v 1.471178 0.071481 11.707364
v 1.471178 0.385782 11.707364
v 1.500000 0.071481 12.000000
v 1.500000 0.385782 12.000000
v 1.471179 0.071481 12.292636
v 1.471179 0.385782 12.292636
v 1.385820 0.071481 12.574025
v 1.385820 0.385782 12.574025
v 1.247205 0.071481 12.833355
v 1.247205 0.385782 12.833355
v 1.060661 0.071481 13.060660
v 1.060661 0.385782 13.060660
v 0.833356 0.071481 13.247205
v 0.833356 0.385782 13.247205
v 0.574026 0.071481 13.385819
v 0.574026 0.385782 13.385819
v 0.292636 0.071481 13.471178
v 0.292636 0.385782 13.471178
v 0.000001 0.071481 13.500000
v 0.000001 0.385782 13.500000
v -0.292635 0.071481 13.471178
v -0.292635 0.385782 13.471178
v -0.574025 0.071481 13.385819
v -0.574025 0.385782 13.385819
v -0.833355 0.071481 13.247205
v -0.833355 0.385782 13.247205
v -1.060660 0.071481 13.060660
v -1.060660 0.385782 13.060660
v -1.247204 0.071481 12.833355
v -1.247204 0.385782 12.833355
v -1.385819 0.071481 12.574025
v -1.385819 0.385782 12.574025
v -1.471177 0.071481 12.292636
v -1.471177 0.385782 12.292636
v -1.500000 0.071481 -12.000000
v -1.500000 0.385782 -12.000000
v -1.471179 0.071481 -12.292637
v -1.471179 0.385782 -12.292637
v -1.385820 0.071481 -12.574026
v -1.385820 0.385782 -12.574026
v -1.247205 0.071481 -12.833357
v -1.247205 0.385782 -12.833357
v -1.060661 0.071481 -13.060659
v -1.060661 0.385782 -13.060659
v -0.833356 0.071481 -13.247206
v -0.833356 0.385782 -13.247206
v -0.574026 0.071481 -13.385818
v -0.574026 0.385782 -13.385818
v -0.292636 0.071481 -13.471178
v -0.292636 0.385782 -13.471178
v -0.000001 0.071481 -13.500000
v -0.000001 0.385782 -13.500000
v 0.292635 0.071481 -13.471178
v 0.292635 0.385782 -13.471178
v 0.574025 0.071481 -13.385818
v 0.574025 0.385782 -13.385818
v 0.833355 0.071481 -13.247206
v 0.833355 0.385782 -13.247206
v 1.060660 0.071481 -13.060659
v 1.060660 0.385782 -13.060659
v 1.247204 0.071481 -12.833357
v 1.247204 0.385782 -12.833357
v 1.385819 0.071481 -12.574026
v 1.385819 0.385782 -12.574026
v 1.471177 0.071481 -12.292637
v 1.471177 0.385782 -12.292637
v 1.500000 0.071481 -12.000000
v 1.500000 0.385782 -12.000000
v 1.471177 0.071481 -11.707365
v 1.471177 0.385782 -11.707365
v 1.385819 0.071481 -11.425976
v 1.385819 0.385782 -11.425976
v 1.247204 0.071481 -11.166645
v 1.247204 0.385782 -11.166645
v 1.060660 0.071481 -10.939341
v 1.060660 0.385782 -10.939341
v 0.833355 0.071481 -10.752796
v 0.833355 0.385782 -10.752796
v 0.574025 0.071481 -10.614182
v 0.574025 0.385782 -10.614182
v 0.292635 0.071481 -10.528822
v 0.292635 0.385782 -10.528822
v -0.000000 0.071481 -10.500000
v -0.000000 0.385782 -10.500000
v -0.292636 0.071481 -10.528822
v -0.292636 0.385782 -10.528822
v -0.574026 0.071481 -10.614182
v -0.574026 0.385782 -10.614182
v -0.833356 0.071481 -10.752796
v -0.833356 0.385782 -10.752796
v -1.060661 0.071481 -10.939341
v -1.060661 0.385782 -10.939341
v -1.247205 0.071481 -11.166645
v -1.247205 0.385782 -11.166645
v -1.385820 0.071481 -11.425976
v -1.385820 0.385782 -11.425976
v -1.471178 0.071481 -11.707365
v -1.471178 0.385782 -11.707365
v -9.545941 0.071481 7.424621
v -9.545941 0.385782 7.424621
v -9.318636 0.071481 7.238077
v -9.318636 0.385782 7.238077
v -9.059306 0.071481 7.099462
v -9.059306 0.385782 7.099462
v -8.777917 0.071481 7.014104
v -8.777917 0.385782 7.014104
v -8.485281 0.071481 6.985281
v -8.485281 0.385782 6.985281
v -8.192646 0.071481 7.014103
v -8.192646 0.385782 7.014103
v -7.911256 0.071481 7.099462
v -7.911256 0.385782 7.099462
v -7.651926 0.071481 7.238077
v -7.651926 0.385782 7.238077
v -7.424621 0.071481 7.424621
v -7.424621 0.385782 7.424621
v -7.238077 0.071481 7.651926
v -7.238077 0.385782 7.651926
v -7.099462 0.071481 7.911256
v -7.099462 0.385782 7.911256
v -7.014103 0.071481 8.192646
v -7.014103 0.385782 8.192646
v -6.985281 0.071481 8.485281
v -6.985281 0.385782 8.485281
v -7.014104 0.071481 8.777917
v -7.014104 0.385782 8.777917
v -7.099462 0.071481 9.059306
v -7.099462 0.385782 9.059306
v -7.238077 0.071481 9.318636
v -7.238077 0.385782 9.318636
v -7.424621 0.071481 9.545941
v -7.424621 0.385782 9.545941
v -7.651927 0.071481 9.732487
v -7.651927 0.385782 9.732487
v -7.911256 0.071481 9.871100
v -7.911256 0.385782 9.871100
v -8.192646 0.071481 9.956459
v -8.192646 0.385782 9.956459
v -8.485281 0.071481 9.985281
v -8.485281 0.385782 9.985281
v -8.777917 0.071481 9.956460
v -8.777917 0.385782 9.956460
v -9.059306 0.071481 9.871100
v -9.059306 0.385782 9.871100
v -9.318637 0.071481 9.732486
v -9.318637 0.385782 9.732486
v -9.545941 0.071481 9.545941
v -9.545941 0.385782 9.545941
v -9.732486 0.071481 9.318637
v -9.732486 0.385782 9.318637
v -9.871100 0.071481 9.059306
v -9.871100 0.385782 9.059306
v -9.956460 0.071481 8.777917
v -9.956460 0.385782 8.777917
v -9.985281 0.071481 8.485281
v -9.985281 0.385782 8.485281
v -9.956459 0.071481 8.192646
v -9.956459 0.385782 8.192646
v -9.871100 0.071481 7.911256
v -9.871100 0.385782 7.911256
v -9.732487 0.071481 7.651927
v -9.732487 0.385782 7.651927
v 7.424621 0.071481 -9.545941
v 7.424621 0.385782 -9.545941
v 7.651927 0.071481 -9.732487
v 7.651927 0.385782 -9.732487
v 7.911257 0.071481 -9.871101
v 7.911257 0.385782 -9.871101
v 8.192647 0.071481 -9.956460
v 8.192647 0.385782 -9.956460
v 8.485281 0.071481 -9.985281
v 8.485281 0.385782 -9.985281
v 8.777917 0.071481 -9.956460
v 8.777917 0.385782 -9.956460
v 9.059306 0.071481 -9.871100
v 9.059306 0.385782 -9.871100
v 9.318637 0.071481 -9.732486
v 9.318637 0.385782 -9.732486
v 9.545941 0.071481 -9.545941
v 9.545941 0.385782 -9.545941
v 9.732486 0.071481 -9.318637
v 9.732486 0.385782 -9.318637
v 9.871100 0.071481 -9.059306
v 9.871100 0.385782 -9.059306
v 9.956460 0.071481 -8.777917
v 9.956460 0.385782 -8.777917
v 9.985281 0.071481 -8.485281
v 9.985281 0.385782 -8.485281
v 9.956460 0.071481 -8.192647
v 9.956460 0.385782 -8.192647
v 9.871101 0.071481 -7.911257
v 9.871101 0.385782 -7.911257
v 9.732487 0.071481 -7.651927
v 9.732487 0.385782 -7.651927
v 9.545941 0.071481 -7.424621
v 9.545941 0.385782 -7.424621
v 9.318638 0.071481 -7.238078
v 9.318638 0.385782 -7.238078
v 9.059307 0.071481 -7.099463
v 9.059307 0.385782 -7.099463
v 8.777917 0.071481 -7.014104
v 8.777917 0.385782 -7.014104
v 8.485282 0.071481 -6.985282
v 8.485282 0.385782 -6.985282
v 8.192646 0.071481 -7.014104
v 8.192646 0.385782 -7.014104
v 7.911257 0.071481 -7.099463
v 7.911257 0.385782 -7.099463
v 7.651926 0.071481 -7.238077
v 7.651926 0.385782 -7.238077
v 7.424621 0.071481 -7.424621
v 7.424621 0.385782 -7.424621
v 7.238077 0.071481 -7.651926
v 7.238077 0.385782 -7.651926
v 7.099463 0.071481 -7.911257
v 7.099463 0.385782 -7.911257
v 7.014104 0.071481 -8.192646
v 7.014104 0.385782 -8.192646
v 6.985282 0.071481 -8.485282
v 6.985282 0.385782 -8.485282
v 7.014104 0.071481 -8.777917
v 7.014104 0.385782 -8.777917
v 7.099463 0.071481 -9.059307
v 7.099463 0.385782 -9.059307
v 7.238078 0.071481 -9.318638
v 7.238078 0.385782 -9.318638
v -7.424621 0.071481 -9.545941
v -7.424621 0.385782 -9.545941
v -7.238077 0.071481 -9.318636
v -7.238077 0.385782 -9.318636
v -7.099462 0.071481 -9.059306
v -7.099462 0.385782 -9.059306
v -7.014104 0.071481 -8.777917
v -7.014104 0.385782 -8.777917
v -6.985281 0.071481 -8.485281
v -6.985281 0.385782 -8.485281
v -7.014103 0.071481 -8.192646
v -7.014103 0.385782 -8.192646
v -7.099462 0.071481 -7.911256
v -7.099462 0.385782 -7.911256
v -7.238077 0.071481 -7.651926
v -7.238077 0.385782 -7.651926
v -7.424621 0.071481 -7.424621
v -7.424621 0.385782 -7.424621
v -7.651926 0.071481 -7.238077
v -7.651926 0.385782 -7.238077
v -7.911256 0.071481 -7.099462
v -7.911256 0.385782 -7.099462
v -8.192646 0.071481 -7.014103
v -8.192646 0.385782 -7.014103
v -8.485281 0.071481 -6.985281
v -8.485281 0.385782 -6.985281
v -8.777917 0.071481 -7.014104
v -8.777917 0.385782 -7.014104
v -9.059306 0.071481 -7.099462
v -9.059306 0.385782 -7.099462
v -9.318636 0.071481 -7.238077
v -9.318636 0.385782 -7.238077
v -9.545941 0.071481 -7.424621
v -9.545941 0.385782 -7.424621
v -9.732487 0.071481 -7.651927
v -9.732487 0.385782 -7.651927
v -9.871100 0.071481 -7.911256
v -9.871100 0.385782 -7.911256
v -9.956459 0.071481 -8.192646
v -9.956459 0.385782 -8.192646
v -9.985281 0.071481 -8.485281
v -9.985281 0.385782 -8.485281
v -9.956460 0.071481 -8.777917
v -9.956460 0.385782 -8.777917
v -9.871100 0.071481 -9.059306
v -9.871100 0.385782 -9.059306
v -9.732486 0.071481 -9.318637
v -9.732486 0.385782 -9.318637
v -9.545941 0.071481 -9.545941
v -9.545941 0.385782 -9.545941
v -9.318637 0.071481 -9.732486
v -9.318637 0.385782 -9.732486
v -9.059306 0.071481 -9.871100
v -9.059306 0.385782 -9.871100
v -8.777917 0.071481 -9.956460
v -8.777917 0.385782 -9.956460
v -8.485281 0.071481 -9.985281
v -8.485281 0.385782 -9.985281
v -8.192646 0.071481 -9.956459
v -8.192646 0.385782 -9.956459
v -7.911256 0.071481 -9.871100
v -7.911256 0.385782 -9.871100
v -7.651927 0.071481 -9.732487
v -7.651927 0.385782 -9.732487
v 9.545941 0.071481 7.424621
v 9.545941 0.385782 7.424621
v 9.732487 0.071481 7.651927
v 9.732487 0.385782 7.651927
v 9.871101 0.071481 7.911257
v 9.871101 0.385782 7.911257
v 9.956460 0.071481 8.192647
v 9.956460 0.385782 8.192647
v 9.985281 0.071481 8.485281
v 9.985281 0.385782 8.485281
v 9.956460 0.071481 8.777917
v 9.956460 0.385782 8.777917
v 9.871100 0.071481 9.059306
v 9.871100 0.385782 9.059306
v 9.732486 0.071481 9.318637
v 9.732486 0.385782 9.318637
v 9.545941 0.071481 9.545941
v 9.545941 0.385782 9.545941
v 9.318637 0.071481 9.732486
v 9.318637 0.385782 9.732486
v 9.059306 0.071481 9.871100
v 9.059306 0.385782 9.871100
v 8.777917 0.071481 9.956460
v 8.777917 0.385782 9.956460
v 8.485281 0.071481 9.985281
v 8.485281 0.385782 9.985281
v 8.192647 0.071481 9.956460
v 8.192647 0.385782 9.956460
v 7.911257 0.071481 9.871101
v 7.911257 0.385782 9.871101
v 7.651927 0.071481 9.732487
v 7.651927 0.385782 9.732487
v 7.424621 0.071481 9.545941
v 7.424621 0.385782 9.545941
v 7.238078 0.071481 9.318638
v 7.238078 0.385782 9.318638
v 7.099463 0.071481 9.059307
v 7.099463 0.385782 9.059307
v 7.014104 0.071481 8.777917
v 7.014104 0.385782 8.777917
v 6.985282 0.071481 8.485282
v 6.985282 0.385782 8.485282
v 7.014104 0.071481 8.192646
v 7.014104 0.385782 8.192646
v 7.099463 0.071481 7.911257
v 7.099463 0.385782 7.911257
v 7.238077 0.071481 7.651926
v 7.238077 0.385782 7.651926
v 7.424621 0.071481 7.424621
v 7.424621 0.385782 7.424621
v 7.651926 0.071481 7.238077
v 7.651926 0.385782 7.238077
v 7.911257 0.071481 7.099463
v 7.911257 0.385782 7.099463
v 8.192646 0.071481 7.014104
v 8.192646 0.385782 7.014104
v 8.485282 0.071481 6.985282
v 8.485282 0.385782 6.985282
v 8.777917 0.071481 7.014104
v 8.777917 0.385782 7.014104
v 9.059307 0.071481 7.099463
v 9.059307 0.385782 7.099463
v 9.318638 0.071481 7.238078
v 9.318638 0.385782 7.238078
v 0.000000 0.071481 -9.429025
v 0.000000 0.385781 -9.429025
v 1.839512 0.071481 -9.247849
v 1.839512 0.385781 -9.247849
v 3.608332 0.071481 -8.711283
v 3.608332 0.385781 -8.711283
v 5.238485 0.071481 -7.839948
v 5.238485 0.385782 -7.839948
v 6.667327 0.071481 -6.667327
v 6.667327 0.385782 -6.667327
v 7.839948 0.071481 -5.238485
v 7.839948 0.385782 -5.238485
v 8.711283 0.071481 -3.608332
v 8.711283 0.385782 -3.608332
v 9.247849 0.071481 -1.839512
v 9.247849 0.385782 -1.839512
v 9.429025 0.071481 -0.000000
v 9.429025 0.385782 -0.000000
v 9.247849 0.071481 1.839512
v 9.247849 0.385782 1.839512
v 8.711283 0.071482 3.608332
v 8.711283 0.385782 3.608332
v 7.839948 0.071482 5.238485
v 7.839948 0.385783 5.238485
v 6.667327 0.071482 6.667327
v 6.667327 0.385783 6.667327
v 5.238485 0.071482 7.839948
v 5.238485 0.385783 7.839948
v 3.608332 0.071482 8.711283
v 3.608332 0.385783 8.711283
v 1.839512 0.071482 9.247849
v 1.839512 0.385783 9.247849
v 0.000000 0.071482 9.429025
v 0.000000 0.385783 9.429025
v -1.839512 0.071482 9.247849
v -1.839512 0.385783 9.247849
v -3.608332 0.071482 8.711283
v -3.608332 0.385783 8.711283
v -5.238485 0.071482 7.839948
v -5.238485 0.385783 7.839948
v -6.667327 0.071482 6.667327
v -6.667327 0.385783 6.667327
v -7.839948 0.071482 5.238485
v -7.839948 0.385783 5.238485
v -8.711283 0.071482 3.608332
v -8.711283 0.385782 3.608332
v -9.247849 0.071481 1.839512
v -9.247849 0.385782 1.839512
v -9.429025 0.071481 -0.000000
v -9.429025 0.385782 -0.000000
v -9.247849 0.071481 -1.839512
v -9.247849 0.385782 -1.839512
v -8.711283 0.071481 -3.608332
v -8.711283 0.385782 -3.608332
v -7.839948 0.071481 -5.238485
v -7.839948 0.385782 -5.238485
v -6.667327 0.071481 -6.667327
v -6.667327 0.385782 -6.667327
v -5.238485 0.071481 -7.839948
v -5.238485 0.385782 -7.839948
v -3.608332 0.071481 -8.711283
v -3.608332 0.385781 -8.711283
v -1.839512 0.071481 -9.247849
v -1.839512 0.385781 -9.247849
vn -0.0000 -0.0000 -1.0000
vn 0.1951 -0.0000 -0.9808
vn 0.3827 -0.0000 -0.9239
vn 0.5556 -0.0000 -0.8315
vn 0.7071 -0.0000 -0.7071
vn 0.8315 -0.0000 -0.5556
vn 0.9239 -0.0000 -0.3827
vn 0.9808 -0.0000 -0.1951
vn 1.0000 -0.0000 -0.0000
vn 0.9808 -0.0000 0.1951
vn 0.9239 -0.0000 0.3827
vn 0.8315 -0.0000 0.5556
vn 0.7071 -0.0000 0.7071
vn 0.5556 -0.0000 0.8315
vn 0.3827 -0.0000 0.9239
vn 0.1951 -0.0000 0.9808
vn -0.0000 -0.0000 1.0000
vn -0.1951 -0.0000 0.9808
vn -0.3827 -0.0000 0.9239
vn -0.5556 -0.0000 0.8315
vn -0.7071 -0.0000 0.7071
vn -0.8315 -0.0000 0.5556
vn -0.9239 -0.0000 0.3827
vn -0.9808 -0.0000 0.1951
vn -1.0000 -0.0000 -0.0000
vn -0.9808 -0.0000 -0.1951
vn -0.9239 -0.0000 -0.3827
vn -0.8315 -0.0000 -0.5556
vn -0.7071 -0.0000 -0.7071
vn -0.5556 -0.0000 -0.8315
vn -0.3827 -0.0000 -0.9239
vn -0.0000 1.0000 -0.0000
vn -0.1951 -0.0000 -0.9808
vt 1.000000 1.000000
vt 0.968750 0.500000
vt 1.000000 0.500000
vt 0.968750 1.000000
vt 0.937500 0.500000
vt 0.937500 1.000000
vt 0.906250 0.500000
vt 0.906250 1.000000
vt 0.875000 0.500000
vt 0.875000 1.000000
vt 0.843750 0.500000
vt 0.843750 1.000000
vt 0.812500 0.500000
vt 0.812500 1.000000
vt 0.781250 0.500000
vt 0.781250 1.000000
vt 0.750000 0.500000
vt 0.750000 1.000000
vt 0.718750 0.500000
vt 0.718750 1.000000
vt 0.687500 0.500000
vt 0.687500 1.000000
vt 0.656250 0.500000
vt 0.656250 1.000000
vt 0.625000 0.500000
vt 0.625000 1.000000
vt 0.593750 0.500000
vt 0.593750 1.000000
vt 0.562500 0.500000
vt 0.562500 1.000000
vt 0.531250 0.500000
vt 0.531250 1.000000
vt 0.500000 0.500000
vt 0.500000 1.000000
vt 0.468750 0.500000
vt 0.468750 1.000000
vt 0.437500 0.500000
vt 0.437500 1.000000
vt 0.406250 0.500000
vt 0.406250 1.000000
vt 0.375000 0.500000
vt 0.375000 1.000000
vt 0.343750 0.500000
vt 0.343750 1.000000
vt 0.312500 0.500000
vt 0.312500 1.000000
vt 0.281250 0.500000
vt 0.281250 1.000000
vt 0.250000 0.500000
vt 0.250000 1.000000
vt 0.218750 0.500000
vt 0.218750 1.000000
vt 0.187500 0.500000
vt 0.187500 1.000000
vt 0.156250 0.500000
vt 0.156250 1.000000
vt 0.125000 0.500000
vt 0.125000 1.000000
vt 0.093750 0.500000
vt 0.093750 1.000000
vt 0.062500 0.500000
vt 0.158156 0.028269
vt 0.471731 0.158156
vt 0.341844 0.471731
vt 0.062500 1.000000
vt 0.031250 0.500000
vt 0.031250 1.000000
vt 0.000000 0.500000
vt 0.296822 0.485388
vt 0.250000 0.490000
vt 0.203178 0.485388
vt 0.158156 0.471731
vt 0.116663 0.449553
vt 0.080294 0.419706
vt 0.050447 0.383337
vt 0.028269 0.341844
vt 0.014612 0.296822
vt 0.010000 0.250000
vt 0.014612 0.203178
vt 0.028269 0.158156
vt 0.050447 0.116663
vt 0.080294 0.080294
vt 0.116663 0.050447
vt 0.203178 0.014612
vt 0.341844 0.028269
vt 0.250000 0.010000
vt 0.296822 0.014612
vt 0.383337 0.050447
vt 0.419706 0.080294
vt 0.449553 0.116663
vt 0.485388 0.203178
vt 0.471731 0.341844
vt 0.490000 0.250000
vt 0.485388 0.296822
vt 0.449553 0.383337
vt 0.419706 0.419706
vt 0.383337 0.449553
vt 0.000000 1.000000
s 1
f 2/1/1 3/2/2 1/3/1
f 4/4/2 5/5/3 3/2/2
f 6/6/3 7/7/4 5/5/3
f 8/8/4 9/9/5 7/7/4
f 10/10/5 11/11/6 9/9/5
f 12/12/6 13/13/7 11/11/6
f 14/14/7 15/15/8 13/13/7
f 16/16/8 17/17/9 15/15/8
f 18/18/9 19/19/10 17/17/9
f 20/20/10 21/21/11 19/19/10
f 22/22/11 23/23/12 21/21/11
f 24/24/12 25/25/13 23/23/12
f 26/26/13 27/27/14 25/25/13
f 28/28/14 29/29/15 27/27/14
f 30/30/15 31/31/16 29/29/15
f 32/32/16 33/33/17 31/31/16
f 34/34/17 35/35/18 33/33/17
f 36/36/18 37/37/19 35/35/18
f 38/38/19 39/39/20 37/37/19
f 40/40/20 41/41/21 39/39/20
f 42/42/21 43/43/22 41/41/21
f 44/44/22 45/45/23 43/43/22
f 46/46/23 47/47/24 45/45/23
f 48/48/24 49/49/25 47/47/24
f 50/50/25 51/51/26 49/49/25
f 52/52/26 53/53/27 51/51/26
f 54/54/27 55/55/28 53/53/27
f 56/56/28 57/57/29 55/55/28
f 58/58/29 59/59/30 57/57/29
f 60/60/30 61/61/31 59/59/30
f 38/62/32 22/63/32 6/64/32
f 62/65/31 63/66/33 61/61/31
f 64/67/33 1/68/1 63/66/33
f 2/1/1 4/4/2 3/2/2
f 4/4/2 6/6/3 5/5/3
f 6/6/3 8/8/4 7/7/4
f 8/8/4 10/10/5 9/9/5
f 10/10/5 12/12/6 11/11/6
f 12/12/6 14/14/7 13/13/7
f 14/14/7 16/16/8 15/15/8
f 16/16/8 18/18/9 17/17/9
f 18/18/9 20/20/10 19/19/10
f 20/20/10 22/22/11 21/21/11
f 22/22/11 24/24/12 23/23/12
f 24/24/12 26/26/13 25/25/13
f 26/26/13 28/28/14 27/27/14
f 28/28/14 30/30/15 29/29/15
f 30/30/15 32/32/16 31/31/16
f 32/32/16 34/34/17 33/33/17
f 34/34/17 36/36/18 35/35/18
f 36/36/18 38/38/19 37/37/19
f 38/38/19 40/40/20 39/39/20
f 40/40/20 42/42/21 41/41/21
f 42/42/21 44/44/22 43/43/22
f 44/44/22 46/46/23 45/45/23
f 46/46/23 48/48/24 47/47/24
f 48/48/24 50/50/25 49/49/25
f 50/50/25 52/52/26 51/51/26
f 52/52/26 54/54/27 53/53/27
f 54/54/27 56/56/28 55/55/28
f 56/56/28 58/58/29 57/57/29
f 58/58/29 60/60/30 59/59/30
f 60/60/30 62/65/31 61/61/31
f 6/64/32 4/69/32 2/70/32
f 2/70/32 64/71/32 6/64/32
f 64/71/32 62/72/32 6/64/32
f 62/72/32 60/73/32 58/74/32
f 58/74/32 56/75/32 54/76/32
f 54/76/32 52/77/32 50/78/32
f 50/78/32 48/79/32 54/76/32
f 48/79/32 46/80/32 54/76/32
f 46/80/32 44/81/32 42/82/32
f 42/82/32 40/83/32 38/62/32
f 38/62/32 36/84/32 30/85/32
f 36/84/32 34/86/32 30/85/32
f 34/86/32 32/87/32 30/85/32
f 30/85/32 28/88/32 26/89/32
f 26/89/32 24/90/32 22/63/32
f 22/63/32 20/91/32 14/92/32
f 20/91/32 18/93/32 14/92/32
f 18/93/32 16/94/32 14/92/32
f 14/92/32 12/95/32 10/96/32
f 10/96/32 8/97/32 6/64/32
f 62/72/32 58/74/32 6/64/32
f 58/74/32 54/76/32 6/64/32
f 46/80/32 42/82/32 54/76/32
f 42/82/32 38/62/32 54/76/32
f 30/85/32 26/89/32 38/62/32
f 26/89/32 22/63/32 38/62/32
f 14/92/32 10/96/32 22/63/32
f 10/96/32 6/64/32 22/63/32
f 6/64/32 54/76/32 38/62/32
f 62/65/31 64/67/33 63/66/33
f 64/67/33 2/98/1 1/68/1
f 66/1/1 67/2/2 65/3/1
f 68/4/2 69/5/3 67/2/2
f 70/6/3 71/7/4 69/5/3
f 72/8/4 73/9/5 71/7/4
f 74/10/5 75/11/6 73/9/5
f 76/12/6 77/13/7 75/11/6
f 78/14/7 79/15/8 77/13/7
f 80/16/8 81/17/9 79/15/8
f 82/18/9 83/19/10 81/17/9
f 84/20/10 85/21/11 83/19/10
f 86/22/11 87/23/12 85/21/11
f 88/24/12 89/25/13 87/23/12
f 90/26/13 91/27/14 89/25/13
f 92/28/14 93/29/15 91/27/14
f 94/30/15 95/31/16 93/29/15
f 96/32/16 97/33/17 95/31/16
f 98/34/17 99/35/18 97/33/17
f 100/36/18 101/37/19 99/35/18
f 102/38/19 103/39/20 101/37/19
f 104/40/20 105/41/21 103/39/20
f 106/42/21 107/43/22 105/41/21
f 108/44/22 109/45/23 107/43/22
f 110/46/23 111/47/24 109/45/23
f 112/48/24 113/49/25 111/47/24
f 114/50/25 115/51/26 113/49/25
f 116/52/26 117/53/27 115/51/26
f 118/54/27 119/55/28 117/53/27
f 120/56/28 121/57/29 119/55/28
f 122/58/29 123/59/30 121/57/29
f 124/60/30 125/61/31 123/59/30
f 102/62/32 86/63/32 70/64/32
f 126/65/31 127/66/33 125/61/31
f 128/67/33 65/68/1 127/66/33
f 66/1/1 68/4/2 67/2/2
f 68/4/2 70/6/3 69/5/3
f 70/6/3 72/8/4 71/7/4
f 72/8/4 74/10/5 73/9/5
f 74/10/5 76/12/6 75/11/6
f 76/12/6 78/14/7 77/13/7
f 78/14/7 80/16/8 79/15/8
f 80/16/8 82/18/9 81/17/9
f 82/18/9 84/20/10 83/19/10
f 84/20/10 86/22/11 85/21/11
f 86/22/11 88/24/12 87/23/12
f 88/24/12 90/26/13 89/25/13
f 90/26/13 92/28/14 91/27/14
f 92/28/14 94/30/15 93/29/15
f 94/30/15 96/32/16 95/31/16
f 96/32/16 98/34/17 97/33/17
f 98/34/17 100/36/18 99/35/18
f 100/36/18 102/38/19 101/37/19
f 102/38/19 104/40/20 103/39/20
f 104/40/20 106/42/21 105/41/21
f 106/42/21 108/44/22 107/43/22
f 108/44/22 110/46/23 109/45/23
f 110/46/23 112/48/24 111/47/24
f 112/48/24 114/50/25 113/49/25
f 114/50/25 116/52/26 115/51/26
f 116/52/26 118/54/27 117/53/27
f 118/54/27 120/56/28 119/55/28
f 120/56/28 122/58/29 121/57/29
f 122/58/29 124/60/30 123/59/30
f 124/60/30 126/65/31 125/61/31
f 70/64/32 68/69/32 66/70/32
f 66/70/32 128/71/32 70/64/32
f 128/71/32 126/72/32 70/64/32
f 126/72/32 124/73/32 122/74/32
f 122/74/32 120/75/32 118/76/32
f 118/76/32 116/77/32 114/78/32
f 114/78/32 112/79/32 118/76/32
f 112/79/32 110/80/32 118/76/32
f 110/80/32 108/81/32 106/82/32
f 106/82/32 104/83/32 102/62/32
f 102/62/32 100/84/32 94/85/32
f 100/84/32 98/86/32 94/85/32
f 98/86/32 96/87/32 94/85/32
f 94/85/32 92/88/32 90/89/32
f 90/89/32 88/90/32 86/63/32
f 86/63/32 84/91/32 78/92/32
f 84/91/32 82/93/32 78/92/32
f 82/93/32 80/94/32 78/92/32
f 78/92/32 76/95/32 74/96/32
f 74/96/32 72/97/32 70/64/32
f 126/72/32 122/74/32 70/64/32
f 122/74/32 118/76/32 70/64/32
f 110/80/32 106/82/32 118/76/32
f 106/82/32 102/62/32 118/76/32
f 94/85/32 90/89/32 102/62/32
f 90/89/32 86/63/32 102/62/32
f 78/92/32 74/96/32 86/63/32
f 74/96/32 70/64/32 86/63/32
f 70/64/32 118/76/32 102/62/32
f 126/65/31 128/67/33 127/66/33
f 128/67/33 66/98/1 65/68/1
f 130/1/25 131/2/26 129/3/25
f 132/4/26 133/5/27 131/2/26
f 134/6/27 135/7/28 133/5/27
f 136/8/28 137/9/29 135/7/28
f 138/10/29 139/11/30 137/9/29
f 140/12/30 141/13/31 139/11/30
f 142/14/31 143/15/33 141/13/31
f 144/16/33 145/17/1 143/15/33
f 146/18/1 147/19/2 145/17/1
f 148/20/2 149/21/3 147/19/2
f 150/22/3 151/23/4 149/21/3
f 152/24/4 153/25/5 151/23/4
f 154/26/5 155/27/6 153/25/5
f 156/28/6 157/29/7 155/27/6
f 158/30/7 159/31/8 157/29/7
f 160/32/8 161/33/9 159/31/8
f 162/34/9 163/35/10 161/33/9
f 164/36/10 165/37/11 163/35/10
f 166/38/11 167/39/12 165/37/11
f 168/40/12 169/41/13 167/39/12
f 170/42/13 171/43/14 169/41/13
f 172/44/14 173/45/15 171/43/14
f 174/46/15 175/47/16 173/45/15
f 176/48/16 177/49/17 175/47/16
f 178/50/17 179/51/18 177/49/17
f 180/52/18 181/53/19 179/51/18
f 182/54/19 183/55/20 181/53/19
f 184/56/20 185/57/21 183/55/20
f 186/58/21 187/59/22 185/57/21
f 188/60/22 189/61/23 187/59/22
f 166/62/32 150/63/32 134/64/32
f 190/65/23 191/66/24 189/61/23
f 192/67/24 129/68/25 191/66/24
f 130/1/25 132/4/26 131/2/26
f 132/4/26 134/6/27 133/5/27
f 134/6/27 136/8/28 135/7/28
f 136/8/28 138/10/29 137/9/29
f 138/10/29 140/12/30 139/11/30
f 140/12/30 142/14/31 141/13/31
f 142/14/31 144/16/33 143/15/33
f 144/16/33 146/18/1 145/17/1
f 146/18/1 148/20/2 147/19/2
f 148/20/2 150/22/3 149/21/3
f 150/22/3 152/24/4 151/23/4
f 152/24/4 154/26/5 153/25/5
f 154/26/5 156/28/6 155/27/6
f 156/28/6 158/30/7 157/29/7
f 158/30/7 160/32/8 159/31/8
f 160/32/8 162/34/9 161/33/9
f 162/34/9 164/36/10 163/35/10
f 164/36/10 166/38/11 165/37/11
f 166/38/11 168/40/12 167/39/12
f 168/40/12 170/42/13 169/41/13
f 170/42/13 172/44/14 171/43/14
f 172/44/14 174/46/15 173/45/15
f 174/46/15 176/48/16 175/47/16
f 176/48/16 178/50/17 177/49/17
f 178/50/17 180/52/18 179/51/18
f 180/52/18 182/54/19 181/53/19
f 182/54/19 184/56/20 183/55/20
f 184/56/20 186/58/21 185/57/21
f 186/58/21 188/60/22 187/59/22
f 188/60/22 190/65/23 189/61/23
f 134/64/32 132/69/32 130/70/32
f 130/70/32 192/71/32 134/64/32
f 192/71/32 190/72/32 134/64/32
f 190/72/32 188/73/32 186/74/32
f 186/74/32 184/75/32 182/76/32
f 182/76/32 180/77/32 178/78/32
f 178/78/32 176/79/32 182/76/32
f 176/79/32 174/80/32 182/76/32
f 174/80/32 172/81/32 170/82/32
f 170/82/32 168/83/32 166/62/32
f 166/62/32 164/84/32 158/85/32
f 164/84/32 162/86/32 158/85/32
f 162/86/32 160/87/32 158/85/32
f 158/85/32 156/88/32 154/89/32
f 154/89/32 152/90/32 150/63/32
f 150/63/32 148/91/32 142/92/32
f 148/91/32 146/93/32 142/92/32
f 146/93/32 144/94/32 142/92/32
f 142/92/32 140/95/32 138/96/32
f 138/96/32 136/97/32 134/64/32
f 190/72/32 186/74/32 134/64/32
f 186/74/32 182/76/32 134/64/32
f 174/80/32 170/82/32 182/76/32
f 170/82/32 166/62/32 182/76/32
f 158/85/32 154/89/32 166/62/32
f 154/89/32 150/63/32 166/62/32
f 142/92/32 138/96/32 150/63/32
f 138/96/32 134/64/32 150/63/32
f 134/64/32 182/76/32 166/62/32
f 190/65/23 192/67/24 191/66/24
f 192/67/24 130/98/25 129/68/25
f 194/1/25 195/2/26 193/3/25
f 196/4/26 197/5/27 195/2/26
f 198/6/27 199/7/28 197/5/27
f 200/8/28 201/9/29 199/7/28
f 202/10/29 203/11/30 201/9/29
f 204/12/30 205/13/31 203/11/30
f 206/14/31 207/15/33 205/13/31
f 208/16/33 209/17/1 207/15/33
f 210/18/1 211/19/2 209/17/1
f 212/20/2 213/21/3 211/19/2
f 214/22/3 215/23/4 213/21/3
f 216/24/4 217/25/5 215/23/4
f 218/26/5 219/27/6 217/25/5
f 220/28/6 221/29/7 219/27/6
f 222/30/7 223/31/8 221/29/7
f 224/32/8 225/33/9 223/31/8
f 226/34/9 227/35/10 225/33/9
f 228/36/10 229/37/11 227/35/10
f 230/38/11 231/39/12 229/37/11
f 232/40/12 233/41/13 231/39/12
f 234/42/13 235/43/14 233/41/13
f 236/44/14 237/45/15 235/43/14
f 238/46/15 239/47/16 237/45/15
f 240/48/16 241/49/17 239/47/16
f 242/50/17 243/51/18 241/49/17
f 244/52/18 245/53/19 243/51/18
f 246/54/19 247/55/20 245/53/19
f 248/56/20 249/57/21 247/55/20
f 250/58/21 251/59/22 249/57/21
f 252/60/22 253/61/23 251/59/22
f 230/62/32 214/63/32 198/64/32
f 254/65/23 255/66/24 253/61/23
f 256/67/24 193/68/25 255/66/24
f 194/1/25 196/4/26 195/2/26
f 196/4/26 198/6/27 197/5/27
f 198/6/27 200/8/28 199/7/28
f 200/8/28 202/10/29 201/9/29
f 202/10/29 204/12/30 203/11/30
f 204/12/30 206/14/31 205/13/31
f 206/14/31 208/16/33 207/15/33
f 208/16/33 210/18/1 209/17/1
f 210/18/1 212/20/2 211/19/2
f 212/20/2 214/22/3 213/21/3
f 214/22/3 216/24/4 215/23/4
f 216/24/4 218/26/5 217/25/5
f 218/26/5 220/28/6 219/27/6
f 220/28/6 222/30/7 221/29/7
f 222/30/7 224/32/8 223/31/8
f 224/32/8 226/34/9 225/33/9
f 226/34/9 228/36/10 227/35/10
f 228/36/10 230/38/11 229/37/11
f 230/38/11 232/40/12 231/39/12
f 232/40/12 234/42/13 233/41/13
f 234/42/13 236/44/14 235/43/14
f 236/44/14 238/46/15 237/45/15
f 238/46/15 240/48/16 239/47/16
f 240/48/16 242/50/17 241/49/17
f 242/50/17 244/52/18 243/51/18
f 244/52/18 246/54/19 245/53/19
f 246/54/19 248/56/20 247/55/20
f 248/56/20 250/58/21 249/57/21
f 250/58/21 252/60/22 251/59/22
f 252/60/22 254/65/23 253/61/23
f 198/64/32 196/69/32 194/70/32
f 194/70/32 256/71/32 198/64/32
f 256/71/32 254/72/32 198/64/32
f 254/72/32 252/73/32 250/74/32
f 250/74/32 248/75/32 246/76/32
f 246/76/32 244/77/32 242/78/32
f 242/78/32 240/79/32 246/76/32
f 240/79/32 238/80/32 246/76/32
f 238/80/32 236/81/32 234/82/32
f 234/82/32 232/83/32 230/62/32
f 230/62/32 228/84/32 222/85/32
f 228/84/32 226/86/32 222/85/32
f 226/86/32 224/87/32 222/85/32
f 222/85/32 220/88/32 218/89/32
f 218/89/32 216/90/32 214/63/32
f 214/63/32 212/91/32 206/92/32
f 212/91/32 210/93/32 206/92/32
f 210/93/32 208/94/32 206/92/32
f 206/92/32 204/95/32 202/96/32
f 202/96/32 200/97/32 198/64/32
f 254/72/32 250/74/32 198/64/32
f 250/74/32 246/76/32 198/64/32
f 238/80/32 234/82/32 246/76/32
f 234/82/32 230/62/32 246/76/32
f 222/85/32 218/89/32 230/62/32
f 218/89/32 214/63/32 230/62/32
f 206/92/32 202/96/32 214/63/32
f 202/96/32 198/64/32 214/63/32
f 198/64/32 246/76/32 230/62/32
f 254/65/23 256/67/24 255/66/24
f 256/67/24 194/98/25 193/68/25
f 258/1/29 259/2/30 257/3/29
f 260/4/30 261/5/31 259/2/30
f 262/6/31 263/7/33 261/5/31
f 264/8/33 265/9/1 263/7/33
f 266/10/1 267/11/2 265/9/1
f 268/12/2 269/13/3 267/11/2
f 270/14/3 271/15/4 269/13/3
f 272/16/4 273/17/5 271/15/4
f 274/18/5 275/19/6 273/17/5
f 276/20/6 277/21/7 275/19/6
f 278/22/7 279/23/8 277/21/7
f 280/24/8 281/25/9 279/23/8
f 282/26/9 283/27/10 281/25/9
f 284/28/10 285/29/11 283/27/10
f 286/30/11 287/31/12 285/29/11
f 288/32/12 289/33/13 287/31/12
f 290/34/13 291/35/14 289/33/13
f 292/36/14 293/37/15 291/35/14
f 294/38/15 295/39/16 293/37/15
f 296/40/16 297/41/17 295/39/16
f 298/42/17 299/43/18 297/41/17
f 300/44/18 301/45/19 299/43/18
f 302/46/19 303/47/20 301/45/19
f 304/48/20 305/49/21 303/47/20
f 306/50/21 307/51/22 305/49/21
f 308/52/22 309/53/23 307/51/22
f 310/54/23 311/55/24 309/53/23
f 312/56/24 313/57/25 311/55/24
f 314/58/25 315/59/26 313/57/25
f 316/60/26 317/61/27 315/59/26
f 294/62/32 278/63/32 262/64/32
f 318/65/27 319/66/28 317/61/27
f 320/67/28 257/68/29 319/66/28
f 258/1/29 260/4/30 259/2/30
f 260/4/30 262/6/31 261/5/31
f 262/6/31 264/8/33 263/7/33
f 264/8/33 266/10/1 265/9/1
f 266/10/1 268/12/2 267/11/2
f 268/12/2 270/14/3 269/13/3
f 270/14/3 272/16/4 271/15/4
f 272/16/4 274/18/5 273/17/5
f 274/18/5 276/20/6 275/19/6
f 276/20/6 278/22/7 277/21/7
f 278/22/7 280/24/8 279/23/8
f 280/24/8 282/26/9 281/25/9
f 282/26/9 284/28/10 283/27/10
f 284/28/10 286/30/11 285/29/11
f 286/30/11 288/32/12 287/31/12
f 288/32/12 290/34/13 289/33/13
f 290/34/13 292/36/14 291/35/14
f 292/36/14 294/38/15 293/37/15
f 294/38/15 296/40/16 295/39/16
f 296/40/16 298/42/17 297/41/17
f 298/42/17 300/44/18 299/43/18
f 300/44/18 302/46/19 301/45/19
f 302/46/19 304/48/20 303/47/20
f 304/48/20 306/50/21 305/49/21
f 306/50/21 308/52/22 307/51/22
f 308/52/22 310/54/23 309/53/23
f 310/54/23 312/56/24 311/55/24
f 312/56/24 314/58/25 313/57/25
f 314/58/25 316/60/26 315/59/26
f 316/60/26 318/65/27 317/61/27
f 262/64/32 260/69/32 258/70/32
f 258/70/32 320/71/32 262/64/32
f 320/71/32 318/72/32 262/64/32
f 318/72/32 316/73/32 314/74/32
f 314/74/32 312/75/32 310/76/32
f 310/76/32 308/77/32 306/78/32
f 306/78/32 304/79/32 310/76/32
f 304/79/32 302/80/32 310/76/32
f 302/80/32 300/81/32 298/82/32
f 298/82/32 296/83/32 294/62/32
f 294/62/32 292/84/32 286/85/32
f 292/84/32 290/86/32 286/85/32
f 290/86/32 288/87/32 286/85/32
f 286/85/32 284/88/32 282/89/32
f 282/89/32 280/90/32 278/63/32
f 278/63/32 276/91/32 270/92/32
f 276/91/32 274/93/32 270/92/32
f 274/93/32 272/94/32 270/92/32
f 270/92/32 268/95/32 266/96/32
f 266/96/32 264/97/32 262/64/32
f 318/72/32 314/74/32 262/64/32
f 314/74/32 310/76/32 262/64/32
f 302/80/32 298/82/32 310/76/32
f 298/82/32 294/62/32 310/76/32
f 286/85/32 282/89/32 294/62/32
f 282/89/32 278/63/32 294/62/32
f 270/92/32 266/96/32 278/63/32
f 266/96/32 262/64/32 278/63/32
f 262/64/32 310/76/32 294/62/32
f 318/65/27 320/67/28 319/66/28
f 320/67/28 258/98/29 257/68/29
f 322/1/29 323/2/30 321/3/29
f 324/4/30 325/5/31 323/2/30
f 326/6/31 327/7/33 325/5/31
f 328/8/33 329/9/1 327/7/33
f 330/10/1 331/11/2 329/9/1
f 332/12/2 333/13/3 331/11/2
f 334/14/3 335/15/4 333/13/3
f 336/16/4 337/17/5 335/15/4
f 338/18/5 339/19/6 337/17/5
f 340/20/6 341/21/7 339/19/6
f 342/22/7 343/23/8 341/21/7
f 344/24/8 345/25/9 343/23/8
f 346/26/9 347/27/10 345/25/9
f 348/28/10 349/29/11 347/27/10
f 350/30/11 351/31/12 349/29/11
f 352/32/12 353/33/13 351/31/12
f 354/34/13 355/35/14 353/33/13
f 356/36/14 357/37/15 355/35/14
f 358/38/15 359/39/16 357/37/15
f 360/40/16 361/41/17 359/39/16
f 362/42/17 363/43/18 361/41/17
f 364/44/18 365/45/19 363/43/18
f 366/46/19 367/47/20 365/45/19
f 368/48/20 369/49/21 367/47/20
f 370/50/21 371/51/22 369/49/21
f 372/52/22 373/53/23 371/51/22
f 374/54/23 375/55/24 373/53/23
f 376/56/24 377/57/25 375/55/24
f 378/58/25 379/59/26 377/57/25
f 380/60/26 381/61/27 379/59/26
f 358/62/32 342/63/32 326/64/32
f 382/65/27 383/66/28 381/61/27
f 384/67/28 321/68/29 383/66/28
f 322/1/29 324/4/30 323/2/30
f 324/4/30 326/6/31 325/5/31
f 326/6/31 328/8/33 327/7/33
f 328/8/33 330/10/1 329/9/1
f 330/10/1 332/12/2 331/11/2
f 332/12/2 334/14/3 333/13/3
f 334/14/3 336/16/4 335/15/4
f 336/16/4 338/18/5 337/17/5
f 338/18/5 340/20/6 339/19/6
f 340/20/6 342/22/7 341/21/7
f 342/22/7 344/24/8 343/23/8
f 344/24/8 346/26/9 345/25/9
f 346/26/9 348/28/10 347/27/10
f 348/28/10 350/30/11 349/29/11
f 350/30/11 352/32/12 351/31/12
f 352/32/12 354/34/13 353/33/13
f 354/34/13 356/36/14 355/35/14
f 356/36/14 358/38/15 357/37/15
f 358/38/15 360/40/16 359/39/16
f 360/40/16 362/42/17 361/41/17
f 362/42/17 364/44/18 363/43/18
f 364/44/18 366/46/19 365/45/19
f 366/46/19 368/48/20 367/47/20
f 368/48/20 370/50/21 369/49/21
f 370/50/21 372/52/22 371/51/22
f 372/52/22 374/54/23 373/53/23
f 374/54/23 376/56/24 375/55/24
f 376/56/24 378/58/25 377/57/25
f 378/58/25 380/60/26 379/59/26
f 380/60/26 382/65/27 381/61/27
f 326/64/32 324/69/32 322/70/32
f 322/70/32 384/71/32 326/64/32
f 384/71/32 382/72/32 326/64/32
f 382/72/32 380/73/32 378/74/32
f 378/74/32 376/75/32 374/76/32
f 374/76/32 372/77/32 370/78/32
f 370/78/32 368/79/32 374/76/32
f 368/79/32 366/80/32 374/76/32
f 366/80/32 364/81/32 362/82/32
f 362/82/32 360/83/32 358/62/32
f 358/62/32 356/84/32 350/85/32
f 356/84/32 354/86/32 350/85/32
f 354/86/32 352/87/32 350/85/32
f 350/85/32 348/88/32 346/89/32
f 346/89/32 344/90/32 342/63/32
f 342/63/32 340/91/32 334/92/32
f 340/91/32 338/93/32 334/92/32
f 338/93/32 336/94/32 334/92/32
f 334/92/32 332/95/32 330/96/32
f 330/96/32 328/97/32 326/64/32
f 382/72/32 378/74/32 326/64/32
f 378/74/32 374/76/32 326/64/32
f 366/80/32 362/82/32 374/76/32
f 362/82/32 358/62/32 374/76/32
f 350/85/32 346/89/32 358/62/32
f 346/89/32 342/63/32 358/62/32
f 334/92/32 330/96/32 342/63/32
f 330/96/32 326/64/32 342/63/32
f 326/64/32 374/76/32 358/62/32
f 382/65/27 384/67/28 383/66/28
f 384/67/28 322/98/29 321/68/29
f 386/1/5 387/2/6 385/3/5
f 388/4/6 389/5/7 387/2/6
f 390/6/7 391/7/8 389/5/7
f 392/8/8 393/9/9 391/7/8
f 394/10/9 395/11/10 393/9/9
f 396/12/10 397/13/11 395/11/10
f 398/14/11 399/15/12 397/13/11
f 400/16/12 401/17/13 399/15/12
f 402/18/13 403/19/14 401/17/13
f 404/20/14 405/21/15 403/19/14
f 406/22/15 407/23/16 405/21/15
f 408/24/16 409/25/17 407/23/16
f 410/26/17 411/27/18 409/25/17
f 412/28/18 413/29/19 411/27/18
f 414/30/19 415/31/20 413/29/19
f 416/32/20 417/33/21 415/31/20
f 418/34/21 419/35/22 417/33/21
f 420/36/22 421/37/23 419/35/22
f 422/38/23 423/39/24 421/37/23
f 424/40/24 425/41/25 423/39/24
f 426/42/25 427/43/26 425/41/25
f 428/44/26 429/45/27 427/43/26
f 430/46/27 431/47/28 429/45/27
f 432/48/28 433/49/29 431/47/28
f 434/50/29 435/51/30 433/49/29
f 436/52/30 437/53/31 435/51/30
f 438/54/31 439/55/33 437/53/31
f 440/56/33 441/57/1 439/55/33
f 442/58/1 443/59/2 441/57/1
f 444/60/2 445/61/3 443/59/2
f 422/62/32 406/63/32 390/64/32
f 446/65/3 447/66/4 445/61/3
f 448/67/4 385/68/5 447/66/4
f 386/1/5 388/4/6 387/2/6
f 388/4/6 390/6/7 389/5/7
f 390/6/7 392/8/8 391/7/8
f 392/8/8 394/10/9 393/9/9
f 394/10/9 396/12/10 395/11/10
f 396/12/10 398/14/11 397/13/11
f 398/14/11 400/16/12 399/15/12
f 400/16/12 402/18/13 401/17/13
f 402/18/13 404/20/14 403/19/14
f 404/20/14 406/22/15 405/21/15
f 406/22/15 408/24/16 407/23/16
f 408/24/16 410/26/17 409/25/17
f 410/26/17 412/28/18 411/27/18
f 412/28/18 414/30/19 413/29/19
f 414/30/19 416/32/20 415/31/20
f 416/32/20 418/34/21 417/33/21
f 418/34/21 420/36/22 419/35/22
f 420/36/22 422/38/23 421/37/23
f 422/38/23 424/40/24 423/39/24
f 424/40/24 426/42/25 425/41/25
f 426/42/25 428/44/26 427/43/26
f 428/44/26 430/46/27 429/45/27
f 430/46/27 432/48/28 431/47/28
f 432/48/28 434/50/29 433/49/29
f 434/50/29 436/52/30 435/51/30
f 436/52/30 438/54/31 437/53/31
f 438/54/31 440/56/33 439/55/33
f 440/56/33 442/58/1 441/57/1
f 442/58/1 444/60/2 443/59/2
f 444/60/2 446/65/3 445/61/3
f 390/64/32 388/69/32 386/70/32
f 386/70/32 448/71/32 390/64/32
f 448/71/32 446/72/32 390/64/32
f 446/72/32 444/73/32 442/74/32
f 442/74/32 440/75/32 438/76/32
f 438/76/32 436/77/32 434/78/32
f 434/78/32 432/79/32 438/76/32
f 432/79/32 430/80/32 438/76/32
f 430/80/32 428/81/32 426/82/32
f 426/82/32 424/83/32 422/62/32
f 422/62/32 420/84/32 414/85/32
f 420/84/32 418/86/32 414/85/32
f 418/86/32 416/87/32 414/85/32
f 414/85/32 412/88/32 410/89/32
f 410/89/32 408/90/32 406/63/32
f 406/63/32 404/91/32 398/92/32
f 404/91/32 402/93/32 398/92/32
f 402/93/32 400/94/32 398/92/32
f 398/92/32 396/95/32 394/96/32
f 394/96/32 392/97/32 390/64/32
f 446/72/32 442/74/32 390/64/32
f 442/74/32 438/76/32 390/64/32
f 430/80/32 426/82/32 438/76/32
f 426/82/32 422/62/32 438/76/32
f 414/85/32 410/89/32 422/62/32
f 410/89/32 406/63/32 422/62/32
f 398/92/32 394/96/32 406/63/32
f 394/96/32 390/64/32 406/63/32
f 390/64/32 438/76/32 422/62/32
f 446/65/3 448/67/4 447/66/4
f 448/67/4 386/98/5 385/68/5
f 450/1/5 451/2/6 449/3/5
f 452/4/6 453/5/7 451/2/6
f 454/6/7 455/7/8 453/5/7
f 456/8/8 457/9/9 455/7/8
f 458/10/9 459/11/10 457/9/9
f 460/12/10 461/13/11 459/11/10
f 462/14/11 463/15/12 461/13/11
f 464/16/12 465/17/13 463/15/12
f 466/18/13 467/19/14 465/17/13
f 468/20/14 469/21/15 467/19/14
f 470/22/15 471/23/16 469/21/15
f 472/24/16 473/25/17 471/23/16
f 474/26/17 475/27/18 473/25/17
f 476/28/18 477/29/19 475/27/18
f 478/30/19 479/31/20 477/29/19
f 480/32/20 481/33/21 479/31/20
f 482/34/21 483/35/22 481/33/21
f 484/36/22 485/37/23 483/35/22
f 486/38/23 487/39/24 485/37/23
f 488/40/24 489/41/25 487/39/24
f 490/42/25 491/43/26 489/41/25
f 492/44/26 493/45/27 491/43/26
f 494/46/27 495/47/28 493/45/27
f 496/48/28 497/49/29 495/47/28
f 498/50/29 499/51/30 497/49/29
f 500/52/30 501/53/31 499/51/30
f 502/54/31 503/55/33 501/53/31
f 504/56/33 505/57/1 503/55/33
f 506/58/1 507/59/2 505/57/1
f 508/60/2 509/61/3 507/59/2
f 486/62/32 470/63/32 454/64/32
f 510/65/3 511/66/4 509/61/3
f 512/67/4 449/68/5 511/66/4
f 450/1/5 452/4/6 451/2/6
f 452/4/6 454/6/7 453/5/7
f 454/6/7 456/8/8 455/7/8
f 456/8/8 458/10/9 457/9/9
f 458/10/9 460/12/10 459/11/10
f 460/12/10 462/14/11 461/13/11
f 462/14/11 464/16/12 463/15/12
f 464/16/12 466/18/13 465/17/13
f 466/18/13 468/20/14 467/19/14
f 468/20/14 470/22/15 469/21/15
f 470/22/15 472/24/16 471/23/16
f 472/24/16 474/26/17 473/25/17
f 474/26/17 476/28/18 475/27/18
f 476/28/18 478/30/19 477/29/19
f 478/30/19 480/32/20 479/31/20
f 480/32/20 482/34/21 481/33/21
f 482/34/21 484/36/22 483/35/22
f 484/36/22 486/38/23 485/37/23
f 486/38/23 488/40/24 487/39/24
f 488/40/24 490/42/25 489/41/25
f 490/42/25 492/44/26 491/43/26
f 492/44/26 494/46/27 493/45/27
f 494/46/27 496/48/28 495/47/28
f 496/48/28 498/50/29 497/49/29
f 498/50/29 500/52/30 499/51/30
f 500/52/30 502/54/31 501/53/31
f 502/54/31 504/56/33 503/55/33
f 504/56/33 506/58/1 505/57/1
f 506/58/1 508/60/2 507/59/2
f 508/60/2 510/65/3 509/61/3
f 454/64/32 452/69/32 450/70/32
f 450/70/32 512/71/32 454/64/32
f 512/71/32 510/72/32 454/64/32
f 510/72/32 508/73/32 506/74/32
f 506/74/32 504/75/32 502/76/32
f 502/76/32 500/77/32 498/78/32
f 498/78/32 496/79/32 502/76/32
f 496/79/32 494/80/32 502/76/32
f 494/80/32 492/81/32 490/82/32
f 490/82/32 488/83/32 486/62/32
f 486/62/32 484/84/32 478/85/32
f 484/84/32 482/86/32 478/85/32
f 482/86/32 480/87/32 478/85/32
f 478/85/32 476/88/32 474/89/32
f 474/89/32 472/90/32 470/63/32
f 470/63/32 468/91/32 462/92/32
f 468/91/32 466/93/32 462/92/32
f 466/93/32 464/94/32 462/92/32
f 462/92/32 460/95/32 458/96/32
f 458/96/32 456/97/32 454/64/32
f 510/72/32 506/74/32 454/64/32
f 506/74/32 502/76/32 454/64/32
f 494/80/32 490/82/32 502/76/32
f 490/82/32 486/62/32 502/76/32
f 478/85/32 474/89/32 486/62/32
f 474/89/32 470/63/32 486/62/32
f 462/92/32 458/96/32 470/63/32
f 458/96/32 454/64/32 470/63/32
f 454/64/32 502/76/32 486/62/32
f 510/65/3 512/67/4 511/66/4
f 512/67/4 450/98/5 449/68/5
f 514/1/1 515/2/2 513/3/1
f 516/4/2 517/5/3 515/2/2
f 518/6/3 519/7/4 517/5/3
f 520/8/4 521/9/5 519/7/4
f 522/10/5 523/11/6 521/9/5
f 524/12/6 525/13/7 523/11/6
f 526/14/7 527/15/8 525/13/7
f 528/16/8 529/17/9 527/15/8
f 530/18/9 531/19/10 529/17/9
f 532/20/10 533/21/11 531/19/10
f 534/22/11 535/23/12 533/21/11
f 536/24/12 537/25/13 535/23/12
f 538/26/13 539/27/14 537/25/13
f 540/28/14 541/29/15 539/27/14
f 542/30/15 543/31/16 541/29/15
f 544/32/16 545/33/17 543/31/16
f 546/34/17 547/35/18 545/33/17
f 548/36/18 549/37/19 547/35/18
f 550/38/19 551/39/20 549/37/19
f 552/40/20 553/41/21 551/39/20
f 554/42/21 555/43/22 553/41/21
f 556/44/22 557/45/23 555/43/22
f 558/46/23 559/47/24 557/45/23
f 560/48/24 561/49/25 559/47/24
f 562/50/25 563/51/26 561/49/25
f 564/52/26 565/53/27 563/51/26
f 566/54/27 567/55/28 565/53/27
f 568/56/28 569/57/29 567/55/28
f 570/58/29 571/59/30 569/57/29
f 572/60/30 573/61/31 571/59/30
f 550/62/32 534/63/32 518/64/32
f 574/65/31 575/66/33 573/61/31
f 576/67/33 513/68/1 575/66/33
f 514/1/1 516/4/2 515/2/2
f 516/4/2 518/6/3 517/5/3
f 518/6/3 520/8/4 519/7/4
f 520/8/4 522/10/5 521/9/5
f 522/10/5 524/12/6 523/11/6
f 524/12/6 526/14/7 525/13/7
f 526/14/7 528/16/8 527/15/8
f 528/16/8 530/18/9 529/17/9
f 530/18/9 532/20/10 531/19/10
f 532/20/10 534/22/11 533/21/11
f 534/22/11 536/24/12 535/23/12
f 536/24/12 538/26/13 537/25/13
f 538/26/13 540/28/14 539/27/14
f 540/28/14 542/30/15 541/29/15
f 542/30/15 544/32/16 543/31/16
f 544/32/16 546/34/17 545/33/17
f 546/34/17 548/36/18 547/35/18
f 548/36/18 550/38/19 549/37/19
f 550/38/19 552/40/20 551/39/20
f 552/40/20 554/42/21 553/41/21
f 554/42/21 556/44/22 555/43/22
f 556/44/22 558/46/23 557/45/23
f 558/46/23 560/48/24 559/47/24
f 560/48/24 562/50/25 561/49/25
f 562/50/25 564/52/26 563/51/26
f 564/52/26 566/54/27 565/53/27
f 566/54/27 568/56/28 567/55/28
f 568/56/28 570/58/29 569/57/29
f 570/58/29 572/60/30 571/59/30
f 572/60/30 574/65/31 573/61/31
f 518/64/32 516/69/32 514/70/32
f 514/70/32 576/71/32 518/64/32
f 576/71/32 574/72/32 518/64/32
f 574/72/32 572/73/32 570/74/32
f 570/74/32 568/75/32 566/76/32
f 566/76/32 564/77/32 562/78/32
f 562/78/32 560/79/32 566/76/32
f 560/79/32 558/80/32 566/76/32
f 558/80/32 556/81/32 554/82/32
f 554/82/32 552/83/32 550/62/32
f 550/62/32 548/84/32 542/85/32
f 548/84/32 546/86/32 542/85/32
f 546/86/32 544/87/32 542/85/32
f 542/85/32 540/88/32 538/89/32
f 538/89/32 536/90/32 534/63/32
f 534/63/32 532/91/32 526/92/32
f 532/91/32 530/93/32 526/92/32
f 530/93/32 528/94/32 526/92/32
f 526/92/32 524/95/32 522/96/32
f 522/96/32 520/97/32 518/64/32
f 574/72/32 570/74/32 518/64/32
f 570/74/32 566/76/32 518/64/32
f 558/80/32 554/82/32 566/76/32
f 554/82/32 550/62/32 566/76/32
f 542/85/32 538/89/32 550/62/32
f 538/89/32 534/63/32 550/62/32
f 526/92/32 522/96/32 534/63/32
f 522/96/32 518/64/32 534/63/32
f 518/64/32 566/76/32 550/62/32
f 574/65/31 576/67/33 575/66/33
f 576/67/33 514/98/1 513/68/1
