mtllib star_garden_sinking_platform.mtl
o star_garden_sinking_platform
v -5.800000 0.000000 5.000000
v 5.800000 0.000000 5.000000
v 5.800000 0.000000 -5.000000
v -5.800000 0.000000 -5.000000
v -5.800000 -1.440000 -5.000000
v 5.800000 -1.440000 -5.000000
v 5.800000 -1.440000 5.000000
v -5.800000 -1.440000 5.000000
v -5.800000 0.000000 -5.000000
v 5.800000 0.000000 -5.000000
v 5.800000 -1.440000 -5.000000
v -5.800000 -1.440000 -5.000000
v 5.800000 0.000000 5.000000
v -5.800000 0.000000 5.000000
v -5.800000 -1.440000 5.000000
v 5.800000 -1.440000 5.000000
v -5.800000 0.000000 5.000000
v -5.800000 0.000000 -5.000000
v -5.800000 -1.440000 -5.000000
v -5.800000 -1.440000 5.000000
v 5.800000 0.000000 -5.000000
v 5.800000 0.000000 5.000000
v 5.800000 -1.440000 5.000000
v 5.800000 -1.440000 -5.000000
v -5.100000 0.520000 4.300000
v 5.100000 0.520000 4.300000
v 5.100000 0.520000 -4.300000
v -5.100000 0.520000 -4.300000
v -5.100000 0.000000 -4.300000
v 5.100000 0.000000 -4.300000
v 5.100000 0.000000 4.300000
v -5.100000 0.000000 4.300000
v -5.100000 0.520000 -4.300000
v 5.100000 0.520000 -4.300000
v 5.100000 0.000000 -4.300000
v -5.100000 0.000000 -4.300000
v 5.100000 0.520000 4.300000
v -5.100000 0.520000 4.300000
v -5.100000 0.000000 4.300000
v 5.100000 0.000000 4.300000
v -5.100000 0.520000 4.300000
v -5.100000 0.520000 -4.300000
v -5.100000 0.000000 -4.300000
v -5.100000 0.000000 4.300000
v 5.100000 0.520000 -4.300000
v 5.100000 0.520000 4.300000
v 5.100000 0.000000 4.300000
v 5.100000 0.000000 -4.300000
v 3.950000 0.520000 0.000000
v 3.756673 0.520000 1.004305
v 3.338208 0.520000 0.868338
v 3.510000 0.520000 0.000000
v 3.756673 0.495000 1.004305
v 3.950000 0.495000 0.000000
v 3.510000 0.495000 0.000000
v 3.338208 0.495000 0.868338
v 3.756673 0.520000 1.004305
v 3.950000 0.520000 0.000000
v 3.950000 0.495000 0.000000
v 3.756673 0.495000 1.004305
v 3.510000 0.520000 0.000000
v 3.338208 0.520000 0.868338
v 3.338208 0.495000 0.868338
v 3.510000 0.495000 0.000000
v 3.756673 0.520000 1.004305
v 3.195617 0.520000 1.910302
v 2.839650 0.520000 1.651677
v 3.338208 0.520000 0.868338
v 3.195617 0.495000 1.910302
v 3.756673 0.495000 1.004305
v 3.338208 0.495000 0.868338
v 2.839650 0.495000 1.651677
v 3.195617 0.520000 1.910302
v 3.756673 0.520000 1.004305
v 3.756673 0.495000 1.004305
v 3.195617 0.495000 1.910302
v 3.338208 0.520000 0.868338
v 2.839650 0.520000 1.651677
v 2.839650 0.495000 1.651677
v 3.338208 0.495000 0.868338
v 3.195617 0.520000 1.910302
v 2.321752 0.520000 2.629305
v 2.063126 0.520000 2.273338
v 2.839650 0.520000 1.651677
v 2.321752 0.495000 2.629305
v 3.195617 0.495000 1.910302
v 2.839650 0.495000 1.651677
v 2.063126 0.495000 2.273338
v 2.321752 0.520000 2.629305
v 3.195617 0.520000 1.910302
v 3.195617 0.495000 1.910302
v 2.321752 0.495000 2.629305
v 2.839650 0.520000 1.651677
v 2.063126 0.520000 2.273338
v 2.063126 0.495000 2.273338
v 2.839650 0.495000 1.651677
v 2.321752 0.520000 2.629305
v 1.220617 0.520000 3.090934
v 1.084650 0.520000 2.672469
v 2.063126 0.520000 2.273338
v 1.220617 0.495000 3.090934
v 2.321752 0.495000 2.629305
v 2.063126 0.495000 2.273338
v 1.084650 0.495000 2.672469
v 1.220617 0.520000 3.090934
v 2.321752 0.520000 2.629305
v 2.321752 0.495000 2.629305
v 1.220617 0.495000 3.090934
v 2.063126 0.520000 2.273338
v 1.084650 0.520000 2.672469
v 1.084650 0.495000 2.672469
v 2.063126 0.495000 2.273338
v 1.220617 0.520000 3.090934
v 0.000000 0.520000 3.250000
v 0.000000 0.520000 2.810000
v 1.084650 0.520000 2.672469
v 0.000000 0.495000 3.250000
v 1.220617 0.495000 3.090934
v 1.084650 0.495000 2.672469
v 0.000000 0.495000 2.810000
v 0.000000 0.520000 3.250000
v 1.220617 0.520000 3.090934
v 1.220617 0.495000 3.090934
v 0.000000 0.495000 3.250000
v 1.084650 0.520000 2.672469
v 0.000000 0.520000 2.810000
v 0.000000 0.495000 2.810000
v 1.084650 0.495000 2.672469
v 0.000000 0.520000 3.250000
v -1.220617 0.520000 3.090934
v -1.084650 0.520000 2.672469
v 0.000000 0.520000 2.810000
v -1.220617 0.495000 3.090934
v 0.000000 0.495000 3.250000
v 0.000000 0.495000 2.810000
v -1.084650 0.495000 2.672469
v -1.220617 0.520000 3.090934
v 0.000000 0.520000 3.250000
v 0.000000 0.495000 3.250000
v -1.220617 0.495000 3.090934
v 0.000000 0.520000 2.810000
v -1.084650 0.520000 2.672469
v -1.084650 0.495000 2.672469
v 0.000000 0.495000 2.810000
v -1.220617 0.520000 3.090934
v -2.321752 0.520000 2.629305
v -2.063126 0.520000 2.273338
v -1.084650 0.520000 2.672469
v -2.321752 0.495000 2.629305
v -1.220617 0.495000 3.090934
v -1.084650 0.495000 2.672469
v -2.063126 0.495000 2.273338
v -2.321752 0.520000 2.629305
v -1.220617 0.520000 3.090934
v -1.220617 0.495000 3.090934
v -2.321752 0.495000 2.629305
v -1.084650 0.520000 2.672469
v -2.063126 0.520000 2.273338
v -2.063126 0.495000 2.273338
v -1.084650 0.495000 2.672469
v -2.321752 0.520000 2.629305
v -3.195617 0.520000 1.910302
v -2.839650 0.520000 1.651677
v -2.063126 0.520000 2.273338
v -3.195617 0.495000 1.910302
v -2.321752 0.495000 2.629305
v -2.063126 0.495000 2.273338
v -2.839650 0.495000 1.651677
v -3.195617 0.520000 1.910302
v -2.321752 0.520000 2.629305
v -2.321752 0.495000 2.629305
v -3.195617 0.495000 1.910302
v -2.063126 0.520000 2.273338
v -2.839650 0.520000 1.651677
v -2.839650 0.495000 1.651677
v -2.063126 0.495000 2.273338
v -3.195617 0.520000 1.910302
v -3.756673 0.520000 1.004305
v -3.338208 0.520000 0.868338
v -2.839650 0.520000 1.651677
v -3.756673 0.495000 1.004305
v -3.195617 0.495000 1.910302
v -2.839650 0.495000 1.651677
v -3.338208 0.495000 0.868338
v -3.756673 0.520000 1.004305
v -3.195617 0.520000 1.910302
v -3.195617 0.495000 1.910302
v -3.756673 0.495000 1.004305
v -2.839650 0.520000 1.651677
v -3.338208 0.520000 0.868338
v -3.338208 0.495000 0.868338
v -2.839650 0.495000 1.651677
v -3.756673 0.520000 1.004305
v -3.950000 0.520000 0.000000
v -3.510000 0.520000 0.000000
v -3.338208 0.520000 0.868338
v -3.950000 0.495000 0.000000
v -3.756673 0.495000 1.004305
v -3.338208 0.495000 0.868338
v -3.510000 0.495000 0.000000
v -3.950000 0.520000 0.000000
v -3.756673 0.520000 1.004305
v -3.756673 0.495000 1.004305
v -3.950000 0.495000 0.000000
v -3.338208 0.520000 0.868338
v -3.510000 0.520000 0.000000
v -3.510000 0.495000 0.000000
v -3.338208 0.495000 0.868338
v -3.950000 0.520000 0.000000
v -3.756673 0.520000 -1.004305
v -3.338208 0.520000 -0.868338
v -3.510000 0.520000 0.000000
v -3.756673 0.495000 -1.004305
v -3.950000 0.495000 0.000000
v -3.510000 0.495000 0.000000
v -3.338208 0.495000 -0.868338
v -3.756673 0.520000 -1.004305
v -3.950000 0.520000 0.000000
v -3.950000 0.495000 0.000000
v -3.756673 0.495000 -1.004305
v -3.510000 0.520000 0.000000
v -3.338208 0.520000 -0.868338
v -3.338208 0.495000 -0.868338
v -3.510000 0.495000 0.000000
v -3.756673 0.520000 -1.004305
v -3.195617 0.520000 -1.910302
v -2.839650 0.520000 -1.651677
v -3.338208 0.520000 -0.868338
v -3.195617 0.495000 -1.910302
v -3.756673 0.495000 -1.004305
v -3.338208 0.495000 -0.868338
v -2.839650 0.495000 -1.651677
v -3.195617 0.520000 -1.910302
v -3.756673 0.520000 -1.004305
v -3.756673 0.495000 -1.004305
v -3.195617 0.495000 -1.910302
v -3.338208 0.520000 -0.868338
v -2.839650 0.520000 -1.651677
v -2.839650 0.495000 -1.651677
v -3.338208 0.495000 -0.868338
v -3.195617 0.520000 -1.910302
v -2.321752 0.520000 -2.629305
v -2.063126 0.520000 -2.273338
v -2.839650 0.520000 -1.651677
v -2.321752 0.495000 -2.629305
v -3.195617 0.495000 -1.910302
v -2.839650 0.495000 -1.651677
v -2.063126 0.495000 -2.273338
v -2.321752 0.520000 -2.629305
v -3.195617 0.520000 -1.910302
v -3.195617 0.495000 -1.910302
v -2.321752 0.495000 -2.629305
v -2.839650 0.520000 -1.651677
v -2.063126 0.520000 -2.273338
v -2.063126 0.495000 -2.273338
v -2.839650 0.495000 -1.651677
v -2.321752 0.520000 -2.629305
v -1.220617 0.520000 -3.090934
v -1.084650 0.520000 -2.672469
v -2.063126 0.520000 -2.273338
v -1.220617 0.495000 -3.090934
v -2.321752 0.495000 -2.629305
v -2.063126 0.495000 -2.273338
v -1.084650 0.495000 -2.672469
v -1.220617 0.520000 -3.090934
v -2.321752 0.520000 -2.629305
v -2.321752 0.495000 -2.629305
v -1.220617 0.495000 -3.090934
v -2.063126 0.520000 -2.273338
v -1.084650 0.520000 -2.672469
v -1.084650 0.495000 -2.672469
v -2.063126 0.495000 -2.273338
v -1.220617 0.520000 -3.090934
v -0.000000 0.520000 -3.250000
v -0.000000 0.520000 -2.810000
v -1.084650 0.520000 -2.672469
v -0.000000 0.495000 -3.250000
v -1.220617 0.495000 -3.090934
v -1.084650 0.495000 -2.672469
v -0.000000 0.495000 -2.810000
v -0.000000 0.520000 -3.250000
v -1.220617 0.520000 -3.090934
v -1.220617 0.495000 -3.090934
v -0.000000 0.495000 -3.250000
v -1.084650 0.520000 -2.672469
v -0.000000 0.520000 -2.810000
v -0.000000 0.495000 -2.810000
v -1.084650 0.495000 -2.672469
v -0.000000 0.520000 -3.250000
v 1.220617 0.520000 -3.090934
v 1.084650 0.520000 -2.672469
v -0.000000 0.520000 -2.810000
v 1.220617 0.495000 -3.090934
v -0.000000 0.495000 -3.250000
v -0.000000 0.495000 -2.810000
v 1.084650 0.495000 -2.672469
v 1.220617 0.520000 -3.090934
v -0.000000 0.520000 -3.250000
v -0.000000 0.495000 -3.250000
v 1.220617 0.495000 -3.090934
v -0.000000 0.520000 -2.810000
v 1.084650 0.520000 -2.672469
v 1.084650 0.495000 -2.672469
v -0.000000 0.495000 -2.810000
v 1.220617 0.520000 -3.090934
v 2.321752 0.520000 -2.629305
v 2.063126 0.520000 -2.273338
v 1.084650 0.520000 -2.672469
v 2.321752 0.495000 -2.629305
v 1.220617 0.495000 -3.090934
v 1.084650 0.495000 -2.672469
v 2.063126 0.495000 -2.273338
v 2.321752 0.520000 -2.629305
v 1.220617 0.520000 -3.090934
v 1.220617 0.495000 -3.090934
v 2.321752 0.495000 -2.629305
v 1.084650 0.520000 -2.672469
v 2.063126 0.520000 -2.273338
v 2.063126 0.495000 -2.273338
v 1.084650 0.495000 -2.672469
v 2.321752 0.520000 -2.629305
v 3.195617 0.520000 -1.910302
v 2.839650 0.520000 -1.651677
v 2.063126 0.520000 -2.273338
v 3.195617 0.495000 -1.910302
v 2.321752 0.495000 -2.629305
v 2.063126 0.495000 -2.273338
v 2.839650 0.495000 -1.651677
v 3.195617 0.520000 -1.910302
v 2.321752 0.520000 -2.629305
v 2.321752 0.495000 -2.629305
v 3.195617 0.495000 -1.910302
v 2.063126 0.520000 -2.273338
v 2.839650 0.520000 -1.651677
v 2.839650 0.495000 -1.651677
v 2.063126 0.495000 -2.273338
v 3.195617 0.520000 -1.910302
v 3.756673 0.520000 -1.004305
v 3.338208 0.520000 -0.868338
v 2.839650 0.520000 -1.651677
v 3.756673 0.495000 -1.004305
v 3.195617 0.495000 -1.910302
v 2.839650 0.495000 -1.651677
v 3.338208 0.495000 -0.868338
v 3.756673 0.520000 -1.004305
v 3.195617 0.520000 -1.910302
v 3.195617 0.495000 -1.910302
v 3.756673 0.495000 -1.004305
v 2.839650 0.520000 -1.651677
v 3.338208 0.520000 -0.868338
v 3.338208 0.495000 -0.868338
v 2.839650 0.495000 -1.651677
v 3.756673 0.520000 -1.004305
v 3.950000 0.520000 -0.000000
v 3.510000 0.520000 -0.000000
v 3.338208 0.520000 -0.868338
v 3.950000 0.495000 -0.000000
v 3.756673 0.495000 -1.004305
v 3.338208 0.495000 -0.868338
v 3.510000 0.495000 -0.000000
v 3.950000 0.520000 -0.000000
v 3.756673 0.520000 -1.004305
v 3.756673 0.495000 -1.004305
v 3.950000 0.495000 -0.000000
v 3.338208 0.520000 -0.868338
v 3.510000 0.520000 -0.000000
v 3.510000 0.495000 -0.000000
v 3.338208 0.495000 -0.868338
v -0.000000 0.515000 0.000000
v 2.150000 0.515000 0.000000
v 1.861955 0.515000 0.875000
v 1.861955 0.490000 0.875000
v 2.150000 0.490000 0.000000
v -0.000000 0.490000 0.000000
v 1.861955 0.515000 0.875000
v 2.150000 0.515000 0.000000
v 2.150000 0.490000 0.000000
v 1.861955 0.490000 0.875000
v -0.000000 0.515000 0.000000
v 1.861955 0.515000 0.875000
v 1.075000 0.515000 1.515544
v 1.075000 0.490000 1.515544
v 1.861955 0.490000 0.875000
v -0.000000 0.490000 0.000000
v 1.075000 0.515000 1.515544
v 1.861955 0.515000 0.875000
v 1.861955 0.490000 0.875000
v 1.075000 0.490000 1.515544
v -0.000000 0.515000 0.000000
v 1.075000 0.515000 1.515544
v 0.000000 0.515000 1.750000
v 0.000000 0.490000 1.750000
v 1.075000 0.490000 1.515544
v -0.000000 0.490000 0.000000
v 0.000000 0.515000 1.750000
v 1.075000 0.515000 1.515544
v 1.075000 0.490000 1.515544
v 0.000000 0.490000 1.750000
v -0.000000 0.515000 0.000000
v 0.000000 0.515000 1.750000
v -1.075000 0.515000 1.515544
v -1.075000 0.490000 1.515544
v 0.000000 0.490000 1.750000
v -0.000000 0.490000 0.000000
v -1.075000 0.515000 1.515544
v 0.000000 0.515000 1.750000
v 0.000000 0.490000 1.750000
v -1.075000 0.490000 1.515544
v -0.000000 0.515000 0.000000
v -1.075000 0.515000 1.515544
v -1.861955 0.515000 0.875000
v -1.861955 0.490000 0.875000
v -1.075000 0.490000 1.515544
v -0.000000 0.490000 0.000000
v -1.861955 0.515000 0.875000
v -1.075000 0.515000 1.515544
v -1.075000 0.490000 1.515544
v -1.861955 0.490000 0.875000
v -0.000000 0.515000 0.000000
v -1.861955 0.515000 0.875000
v -2.150000 0.515000 0.000000
v -2.150000 0.490000 0.000000
v -1.861955 0.490000 0.875000
v -0.000000 0.490000 0.000000
v -2.150000 0.515000 0.000000
v -1.861955 0.515000 0.875000
v -1.861955 0.490000 0.875000
v -2.150000 0.490000 0.000000
v -0.000000 0.515000 0.000000
v -2.150000 0.515000 0.000000
v -1.861955 0.515000 -0.875000
v -1.861955 0.490000 -0.875000
v -2.150000 0.490000 0.000000
v -0.000000 0.490000 0.000000
v -1.861955 0.515000 -0.875000
v -2.150000 0.515000 0.000000
v -2.150000 0.490000 0.000000
v -1.861955 0.490000 -0.875000
v -0.000000 0.515000 0.000000
v -1.861955 0.515000 -0.875000
v -1.075000 0.515000 -1.515544
v -1.075000 0.490000 -1.515544
v -1.861955 0.490000 -0.875000
v -0.000000 0.490000 0.000000
v -1.075000 0.515000 -1.515544
v -1.861955 0.515000 -0.875000
v -1.861955 0.490000 -0.875000
v -1.075000 0.490000 -1.515544
v -0.000000 0.515000 0.000000
v -1.075000 0.515000 -1.515544
v -0.000000 0.515000 -1.750000
v -0.000000 0.490000 -1.750000
v -1.075000 0.490000 -1.515544
v -0.000000 0.490000 0.000000
v -0.000000 0.515000 -1.750000
v -1.075000 0.515000 -1.515544
v -1.075000 0.490000 -1.515544
v -0.000000 0.490000 -1.750000
v -0.000000 0.515000 0.000000
v -0.000000 0.515000 -1.750000
v 1.075000 0.515000 -1.515544
v 1.075000 0.490000 -1.515544
v -0.000000 0.490000 -1.750000
v -0.000000 0.490000 0.000000
v 1.075000 0.515000 -1.515544
v -0.000000 0.515000 -1.750000
v -0.000000 0.490000 -1.750000
v 1.075000 0.490000 -1.515544
v -0.000000 0.515000 0.000000
v 1.075000 0.515000 -1.515544
v 1.861955 0.515000 -0.875000
v 1.861955 0.490000 -0.875000
v 1.075000 0.490000 -1.515544
v -0.000000 0.490000 0.000000
v 1.861955 0.515000 -0.875000
v 1.075000 0.515000 -1.515544
v 1.075000 0.490000 -1.515544
v 1.861955 0.490000 -0.875000
v -0.000000 0.515000 0.000000
v 1.861955 0.515000 -0.875000
v 2.150000 0.515000 0.000000
v 2.150000 0.490000 0.000000
v 1.861955 0.490000 -0.875000
v -0.000000 0.490000 0.000000
v 2.150000 0.515000 0.000000
v 1.861955 0.515000 -0.875000
v 1.861955 0.490000 -0.875000
v 2.150000 0.490000 0.000000
v -3.950000 0.520000 0.000000
v -4.550000 0.520000 -0.290000
v -3.350000 0.520000 -0.290000
v -3.350000 0.495000 -0.290000
v -4.550000 0.495000 -0.290000
v -3.950000 0.495000 0.000000
v -3.350000 0.520000 -0.290000
v -4.550000 0.520000 -0.290000
v -4.550000 0.495000 -0.290000
v -3.350000 0.495000 -0.290000
v -3.950000 0.520000 0.000000
v -3.350000 0.520000 -0.290000
v -3.350000 0.520000 0.290000
v -3.350000 0.495000 0.290000
v -3.350000 0.495000 -0.290000
v -3.950000 0.495000 0.000000
v -3.350000 0.520000 0.290000
v -3.350000 0.520000 -0.290000
v -3.350000 0.495000 -0.290000
v -3.350000 0.495000 0.290000
v -3.950000 0.520000 0.000000
v -3.350000 0.520000 0.290000
v -4.550000 0.520000 0.290000
v -4.550000 0.495000 0.290000
v -3.350000 0.495000 0.290000
v -3.950000 0.495000 0.000000
v -4.550000 0.520000 0.290000
v -3.350000 0.520000 0.290000
v -3.350000 0.495000 0.290000
v -4.550000 0.495000 0.290000
v -3.950000 0.520000 0.000000
v -4.550000 0.520000 0.290000
v -4.550000 0.520000 -0.290000
v -4.550000 0.495000 -0.290000
v -4.550000 0.495000 0.290000
v -3.950000 0.495000 0.000000
v -4.550000 0.520000 -0.290000
v -4.550000 0.520000 0.290000
v -4.550000 0.495000 0.290000
v -4.550000 0.495000 -0.290000
v -3.083333 0.520000 0.000000
v -3.350000 0.520000 -0.725000
v -2.550000 0.520000 0.000000
v -2.550000 0.495000 0.000000
v -3.350000 0.495000 -0.725000
v -3.083333 0.495000 0.000000
v -2.550000 0.520000 0.000000
v -3.350000 0.520000 -0.725000
v -3.350000 0.495000 -0.725000
v -2.550000 0.495000 0.000000
v -3.083333 0.520000 0.000000
v -2.550000 0.520000 0.000000
v -3.350000 0.520000 0.725000
v -3.350000 0.495000 0.725000
v -2.550000 0.495000 0.000000
v -3.083333 0.495000 0.000000
v -3.350000 0.520000 0.725000
v -2.550000 0.520000 0.000000
v -2.550000 0.495000 0.000000
v -3.350000 0.495000 0.725000
v -3.083333 0.520000 0.000000
v -3.350000 0.520000 0.725000
v -3.350000 0.520000 -0.725000
v -3.350000 0.495000 -0.725000
v -3.350000 0.495000 0.725000
v -3.083333 0.495000 0.000000
v -3.350000 0.520000 -0.725000
v -3.350000 0.520000 0.725000
v -3.350000 0.495000 0.725000
v -3.350000 0.495000 -0.725000
v 3.950000 0.520000 0.000000
v 4.550000 0.520000 0.290000
v 3.350000 0.520000 0.290000
v 3.350000 0.495000 0.290000
v 4.550000 0.495000 0.290000
v 3.950000 0.495000 0.000000
v 3.350000 0.520000 0.290000
v 4.550000 0.520000 0.290000
v 4.550000 0.495000 0.290000
v 3.350000 0.495000 0.290000
v 3.950000 0.520000 0.000000
v 3.350000 0.520000 0.290000
v 3.350000 0.520000 -0.290000
v 3.350000 0.495000 -0.290000
v 3.350000 0.495000 0.290000
v 3.950000 0.495000 0.000000
v 3.350000 0.520000 -0.290000
v 3.350000 0.520000 0.290000
v 3.350000 0.495000 0.290000
v 3.350000 0.495000 -0.290000
v 3.950000 0.520000 0.000000
v 3.350000 0.520000 -0.290000
v 4.550000 0.520000 -0.290000
v 4.550000 0.495000 -0.290000
v 3.350000 0.495000 -0.290000
v 3.950000 0.495000 0.000000
v 4.550000 0.520000 -0.290000
v 3.350000 0.520000 -0.290000
v 3.350000 0.495000 -0.290000
v 4.550000 0.495000 -0.290000
v 3.950000 0.520000 0.000000
v 4.550000 0.520000 -0.290000
v 4.550000 0.520000 0.290000
v 4.550000 0.495000 0.290000
v 4.550000 0.495000 -0.290000
v 3.950000 0.495000 0.000000
v 4.550000 0.520000 0.290000
v 4.550000 0.520000 -0.290000
v 4.550000 0.495000 -0.290000
v 4.550000 0.495000 0.290000
v 3.083333 0.520000 -0.000000
v 3.350000 0.520000 0.725000
v 2.550000 0.520000 -0.000000
v 2.550000 0.495000 -0.000000
v 3.350000 0.495000 0.725000
v 3.083333 0.495000 -0.000000
v 2.550000 0.520000 -0.000000
v 3.350000 0.520000 0.725000
v 3.350000 0.495000 0.725000
v 2.550000 0.495000 -0.000000
v 3.083333 0.520000 -0.000000
v 2.550000 0.520000 -0.000000
v 3.350000 0.520000 -0.725000
v 3.350000 0.495000 -0.725000
v 2.550000 0.495000 -0.000000
v 3.083333 0.495000 -0.000000
v 3.350000 0.520000 -0.725000
v 2.550000 0.520000 -0.000000
v 2.550000 0.495000 -0.000000
v 3.350000 0.495000 -0.725000
v 3.083333 0.520000 -0.000000
v 3.350000 0.520000 -0.725000
v 3.350000 0.520000 0.725000
v 3.350000 0.495000 0.725000
v 3.350000 0.495000 -0.725000
v 3.083333 0.495000 -0.000000
v 3.350000 0.520000 0.725000
v 3.350000 0.520000 -0.725000
v 3.350000 0.495000 -0.725000
v 3.350000 0.495000 0.725000
v -0.000000 0.520000 -3.250000
v 0.290000 0.520000 -3.850000
v 0.290000 0.520000 -2.650000
v 0.290000 0.495000 -2.650000
v 0.290000 0.495000 -3.850000
v -0.000000 0.495000 -3.250000
v 0.290000 0.520000 -2.650000
v 0.290000 0.520000 -3.850000
v 0.290000 0.495000 -3.850000
v 0.290000 0.495000 -2.650000
v -0.000000 0.520000 -3.250000
v 0.290000 0.520000 -2.650000
v -0.290000 0.520000 -2.650000
v -0.290000 0.495000 -2.650000
v 0.290000 0.495000 -2.650000
v -0.000000 0.495000 -3.250000
v -0.290000 0.520000 -2.650000
v 0.290000 0.520000 -2.650000
v 0.290000 0.495000 -2.650000
v -0.290000 0.495000 -2.650000
v -0.000000 0.520000 -3.250000
v -0.290000 0.520000 -2.650000
v -0.290000 0.520000 -3.850000
v -0.290000 0.495000 -3.850000
v -0.290000 0.495000 -2.650000
v -0.000000 0.495000 -3.250000
v -0.290000 0.520000 -3.850000
v -0.290000 0.520000 -2.650000
v -0.290000 0.495000 -2.650000
v -0.290000 0.495000 -3.850000
v -0.000000 0.520000 -3.250000
v -0.290000 0.520000 -3.850000
v 0.290000 0.520000 -3.850000
v 0.290000 0.495000 -3.850000
v -0.290000 0.495000 -3.850000
v -0.000000 0.495000 -3.250000
v 0.290000 0.520000 -3.850000
v -0.290000 0.520000 -3.850000
v -0.290000 0.495000 -3.850000
v 0.290000 0.495000 -3.850000
v 0.000000 0.520000 -2.383333
v 0.725000 0.520000 -2.650000
v 0.000000 0.520000 -1.850000
v 0.000000 0.495000 -1.850000
v 0.725000 0.495000 -2.650000
v 0.000000 0.495000 -2.383333
v 0.000000 0.520000 -1.850000
v 0.725000 0.520000 -2.650000
v 0.725000 0.495000 -2.650000
v 0.000000 0.495000 -1.850000
v 0.000000 0.520000 -2.383333
v 0.000000 0.520000 -1.850000
v -0.725000 0.520000 -2.650000
v -0.725000 0.495000 -2.650000
v 0.000000 0.495000 -1.850000
v 0.000000 0.495000 -2.383333
v -0.725000 0.520000 -2.650000
v 0.000000 0.520000 -1.850000
v 0.000000 0.495000 -1.850000
v -0.725000 0.495000 -2.650000
v 0.000000 0.520000 -2.383333
v -0.725000 0.520000 -2.650000
v 0.725000 0.520000 -2.650000
v 0.725000 0.495000 -2.650000
v -0.725000 0.495000 -2.650000
v 0.000000 0.495000 -2.383333
v 0.725000 0.520000 -2.650000
v -0.725000 0.520000 -2.650000
v -0.725000 0.495000 -2.650000
v 0.725000 0.495000 -2.650000
v -0.000000 0.520000 3.250000
v -0.290000 0.520000 3.850000
v -0.290000 0.520000 2.650000
v -0.290000 0.495000 2.650000
v -0.290000 0.495000 3.850000
v -0.000000 0.495000 3.250000
v -0.290000 0.520000 2.650000
v -0.290000 0.520000 3.850000
v -0.290000 0.495000 3.850000
v -0.290000 0.495000 2.650000
v -0.000000 0.520000 3.250000
v -0.290000 0.520000 2.650000
v 0.290000 0.520000 2.650000
v 0.290000 0.495000 2.650000
v -0.290000 0.495000 2.650000
v -0.000000 0.495000 3.250000
v 0.290000 0.520000 2.650000
v -0.290000 0.520000 2.650000
v -0.290000 0.495000 2.650000
v 0.290000 0.495000 2.650000
v -0.000000 0.520000 3.250000
v 0.290000 0.520000 2.650000
v 0.290000 0.520000 3.850000
v 0.290000 0.495000 3.850000
v 0.290000 0.495000 2.650000
v -0.000000 0.495000 3.250000
v 0.290000 0.520000 3.850000
v 0.290000 0.520000 2.650000
v 0.290000 0.495000 2.650000
v 0.290000 0.495000 3.850000
v -0.000000 0.520000 3.250000
v 0.290000 0.520000 3.850000
v -0.290000 0.520000 3.850000
v -0.290000 0.495000 3.850000
v 0.290000 0.495000 3.850000
v -0.000000 0.495000 3.250000
v -0.290000 0.520000 3.850000
v 0.290000 0.520000 3.850000
v 0.290000 0.495000 3.850000
v -0.290000 0.495000 3.850000
v 0.000000 0.520000 2.383333
v -0.725000 0.520000 2.650000
v 0.000000 0.520000 1.850000
v 0.000000 0.495000 1.850000
v -0.725000 0.495000 2.650000
v 0.000000 0.495000 2.383333
v 0.000000 0.520000 1.850000
v -0.725000 0.520000 2.650000
v -0.725000 0.495000 2.650000
v 0.000000 0.495000 1.850000
v 0.000000 0.520000 2.383333
v 0.000000 0.520000 1.850000
v 0.725000 0.520000 2.650000
v 0.725000 0.495000 2.650000
v 0.000000 0.495000 1.850000
v 0.000000 0.495000 2.383333
v 0.725000 0.520000 2.650000
v 0.000000 0.520000 1.850000
v 0.000000 0.495000 1.850000
v 0.725000 0.495000 2.650000
v 0.000000 0.520000 2.383333
v 0.725000 0.520000 2.650000
v -0.725000 0.520000 2.650000
v -0.725000 0.495000 2.650000
v 0.725000 0.495000 2.650000
v 0.000000 0.495000 2.383333
v -0.725000 0.520000 2.650000
v 0.725000 0.520000 2.650000
v 0.725000 0.495000 2.650000
v -0.725000 0.495000 2.650000
v -4.860000 0.000000 -3.140000
v -3.940000 0.000000 -3.140000
v -3.940000 0.000000 -4.060000
v -4.860000 0.000000 -4.060000
v -4.860000 -1.100000 -4.060000
v -3.940000 -1.100000 -4.060000
v -3.940000 -1.100000 -3.140000
v -4.860000 -1.100000 -3.140000
v -4.860000 0.000000 -4.060000
v -3.940000 0.000000 -4.060000
v -3.940000 -1.100000 -4.060000
v -4.860000 -1.100000 -4.060000
v -3.940000 0.000000 -3.140000
v -4.860000 0.000000 -3.140000
v -4.860000 -1.100000 -3.140000
v -3.940000 -1.100000 -3.140000
v -4.860000 0.000000 -3.140000
v -4.860000 0.000000 -4.060000
v -4.860000 -1.100000 -4.060000
v -4.860000 -1.100000 -3.140000
v -3.940000 0.000000 -4.060000
v -3.940000 0.000000 -3.140000
v -3.940000 -1.100000 -3.140000
v -3.940000 -1.100000 -4.060000
v 3.940000 0.000000 -3.140000
v 4.860000 0.000000 -3.140000
v 4.860000 0.000000 -4.060000
v 3.940000 0.000000 -4.060000
v 3.940000 -1.100000 -4.060000
v 4.860000 -1.100000 -4.060000
v 4.860000 -1.100000 -3.140000
v 3.940000 -1.100000 -3.140000
v 3.940000 0.000000 -4.060000
v 4.860000 0.000000 -4.060000
v 4.860000 -1.100000 -4.060000
v 3.940000 -1.100000 -4.060000
v 4.860000 0.000000 -3.140000
v 3.940000 0.000000 -3.140000
v 3.940000 -1.100000 -3.140000
v 4.860000 -1.100000 -3.140000
v 3.940000 0.000000 -3.140000
v 3.940000 0.000000 -4.060000
v 3.940000 -1.100000 -4.060000
v 3.940000 -1.100000 -3.140000
v 4.860000 0.000000 -4.060000
v 4.860000 0.000000 -3.140000
v 4.860000 -1.100000 -3.140000
v 4.860000 -1.100000 -4.060000
v -4.860000 0.000000 4.060000
v -3.940000 0.000000 4.060000
v -3.940000 0.000000 3.140000
v -4.860000 0.000000 3.140000
v -4.860000 -1.100000 3.140000
v -3.940000 -1.100000 3.140000
v -3.940000 -1.100000 4.060000
v -4.860000 -1.100000 4.060000
v -4.860000 0.000000 3.140000
v -3.940000 0.000000 3.140000
v -3.940000 -1.100000 3.140000
v -4.860000 -1.100000 3.140000
v -3.940000 0.000000 4.060000
v -4.860000 0.000000 4.060000
v -4.860000 -1.100000 4.060000
v -3.940000 -1.100000 4.060000
v -4.860000 0.000000 4.060000
v -4.860000 0.000000 3.140000
v -4.860000 -1.100000 3.140000
v -4.860000 -1.100000 4.060000
v -3.940000 0.000000 3.140000
v -3.940000 0.000000 4.060000
v -3.940000 -1.100000 4.060000
v -3.940000 -1.100000 3.140000
v 3.940000 0.000000 4.060000
v 4.860000 0.000000 4.060000
v 4.860000 0.000000 3.140000
v 3.940000 0.000000 3.140000
v 3.940000 -1.100000 3.140000
v 4.860000 -1.100000 3.140000
v 4.860000 -1.100000 4.060000
v 3.940000 -1.100000 4.060000
v 3.940000 0.000000 3.140000
v 4.860000 0.000000 3.140000
v 4.860000 -1.100000 3.140000
v 3.940000 -1.100000 3.140000
v 4.860000 0.000000 4.060000
v 3.940000 0.000000 4.060000
v 3.940000 -1.100000 4.060000
v 4.860000 -1.100000 4.060000
v 3.940000 0.000000 4.060000
v 3.940000 0.000000 3.140000
v 3.940000 -1.100000 3.140000
v 3.940000 -1.100000 4.060000
v 4.860000 0.000000 3.140000
v 4.860000 0.000000 4.060000
v 4.860000 -1.100000 4.060000
v 4.860000 -1.100000 3.140000
vt -0.464000 0.400000
vt 0.464000 0.400000
vt 0.464000 -0.400000
vt -0.464000 -0.400000
vt -0.464000 -0.400000
vt 0.464000 -0.400000
vt 0.464000 0.400000
vt -0.464000 0.400000
vt -0.464000 0.000000
vt 0.464000 0.000000
vt 0.464000 -0.115200
vt -0.464000 -0.115200
vt 0.464000 0.000000
vt -0.464000 0.000000
vt -0.464000 -0.115200
vt 0.464000 -0.115200
vt 0.400000 0.000000
vt -0.400000 0.000000
vt -0.400000 -0.115200
vt 0.400000 -0.115200
vt -0.400000 0.000000
vt 0.400000 0.000000
vt 0.400000 -0.115200
vt -0.400000 -0.115200
vt -0.408000 0.344000
vt 0.408000 0.344000
vt 0.408000 -0.344000
vt -0.408000 -0.344000
vt -0.408000 -0.344000
vt 0.408000 -0.344000
vt 0.408000 0.344000
vt -0.408000 0.344000
vt -0.408000 0.041600
vt 0.408000 0.041600
vt 0.408000 0.000000
vt -0.408000 0.000000
vt 0.408000 0.041600
vt -0.408000 0.041600
vt -0.408000 0.000000
vt 0.408000 0.000000
vt 0.344000 0.041600
vt -0.344000 0.041600
vt -0.344000 0.000000
vt 0.344000 0.000000
vt -0.344000 0.041600
vt 0.344000 0.041600
vt 0.344000 0.000000
vt -0.344000 0.000000
vt 0.316000 0.000000
vt 0.300534 0.080344
vt 0.267057 0.069467
vt 0.280800 0.000000
vt 0.300534 0.080344
vt 0.316000 0.000000
vt 0.280800 0.000000
vt 0.267057 0.069467
vt 0.080344 0.041600
vt 0.000000 0.041600
vt 0.000000 0.039600
vt 0.080344 0.039600
vt 0.000000 0.041600
vt 0.069467 0.041600
vt 0.069467 0.039600
vt 0.000000 0.039600
vt 0.300534 0.080344
vt 0.255649 0.152824
vt 0.227172 0.132134
vt 0.267057 0.069467
vt 0.255649 0.152824
vt 0.300534 0.080344
vt 0.267057 0.069467
vt 0.227172 0.132134
vt 0.152824 0.041600
vt 0.080344 0.041600
vt 0.080344 0.039600
vt 0.152824 0.039600
vt 0.069467 0.041600
vt 0.132134 0.041600
vt 0.132134 0.039600
vt 0.069467 0.039600
vt 0.255649 0.152824
vt 0.185740 0.210344
vt 0.165050 0.181867
vt 0.227172 0.132134
vt 0.185740 0.210344
vt 0.255649 0.152824
vt 0.227172 0.132134
vt 0.165050 0.181867
vt 0.185740 0.041600
vt 0.255649 0.041600
vt 0.255649 0.039600
vt 0.185740 0.039600
vt 0.227172 0.041600
vt 0.165050 0.041600
vt 0.165050 0.039600
vt 0.227172 0.039600
vt 0.185740 0.210344
vt 0.097649 0.247275
vt 0.086772 0.213798
vt 0.165050 0.181867
vt 0.097649 0.247275
vt 0.185740 0.210344
vt 0.165050 0.181867
vt 0.086772 0.213798
vt 0.097649 0.041600
vt 0.185740 0.041600
vt 0.185740 0.039600
vt 0.097649 0.039600
vt 0.165050 0.041600
vt 0.086772 0.041600
vt 0.086772 0.039600
vt 0.165050 0.039600
vt 0.097649 0.247275
vt 0.000000 0.260000
vt 0.000000 0.224800
vt 0.086772 0.213798
vt 0.000000 0.260000
vt 0.097649 0.247275
vt 0.086772 0.213798
vt 0.000000 0.224800
vt 0.000000 0.041600
vt 0.097649 0.041600
vt 0.097649 0.039600
vt 0.000000 0.039600
vt 0.086772 0.041600
vt 0.000000 0.041600
vt 0.000000 0.039600
vt 0.086772 0.039600
vt 0.000000 0.260000
vt -0.097649 0.247275
vt -0.086772 0.213798
vt 0.000000 0.224800
vt -0.097649 0.247275
vt 0.000000 0.260000
vt 0.000000 0.224800
vt -0.086772 0.213798
vt -0.097649 0.041600
vt 0.000000 0.041600
vt 0.000000 0.039600
vt -0.097649 0.039600
vt 0.000000 0.041600
vt -0.086772 0.041600
vt -0.086772 0.039600
vt 0.000000 0.039600
vt -0.097649 0.247275
vt -0.185740 0.210344
vt -0.165050 0.181867
vt -0.086772 0.213798
vt -0.185740 0.210344
vt -0.097649 0.247275
vt -0.086772 0.213798
vt -0.165050 0.181867
vt -0.185740 0.041600
vt -0.097649 0.041600
vt -0.097649 0.039600
vt -0.185740 0.039600
vt -0.086772 0.041600
vt -0.165050 0.041600
vt -0.165050 0.039600
vt -0.086772 0.039600
vt -0.185740 0.210344
vt -0.255649 0.152824
vt -0.227172 0.132134
vt -0.165050 0.181867
vt -0.255649 0.152824
vt -0.185740 0.210344
vt -0.165050 0.181867
vt -0.227172 0.132134
vt -0.255649 0.041600
vt -0.185740 0.041600
vt -0.185740 0.039600
vt -0.255649 0.039600
vt -0.165050 0.041600
vt -0.227172 0.041600
vt -0.227172 0.039600
vt -0.165050 0.039600
vt -0.255649 0.152824
vt -0.300534 0.080344
vt -0.267057 0.069467
vt -0.227172 0.132134
vt -0.300534 0.080344
vt -0.255649 0.152824
vt -0.227172 0.132134
vt -0.267057 0.069467
vt 0.080344 0.041600
vt 0.152824 0.041600
vt 0.152824 0.039600
vt 0.080344 0.039600
vt 0.132134 0.041600
vt 0.069467 0.041600
vt 0.069467 0.039600
vt 0.132134 0.039600
vt -0.300534 0.080344
vt -0.316000 0.000000
vt -0.280800 0.000000
vt -0.267057 0.069467
vt -0.316000 0.000000
vt -0.300534 0.080344
vt -0.267057 0.069467
vt -0.280800 0.000000
vt 0.000000 0.041600
vt 0.080344 0.041600
vt 0.080344 0.039600
vt 0.000000 0.039600
vt 0.069467 0.041600
vt 0.000000 0.041600
vt 0.000000 0.039600
vt 0.069467 0.039600
vt -0.316000 0.000000
vt -0.300534 -0.080344
vt -0.267057 -0.069467
vt -0.280800 0.000000
vt -0.300534 -0.080344
vt -0.316000 0.000000
vt -0.280800 0.000000
vt -0.267057 -0.069467
vt -0.080344 0.041600
vt 0.000000 0.041600
vt 0.000000 0.039600
vt -0.080344 0.039600
vt 0.000000 0.041600
vt -0.069467 0.041600
vt -0.069467 0.039600
vt 0.000000 0.039600
vt -0.300534 -0.080344
vt -0.255649 -0.152824
vt -0.227172 -0.132134
vt -0.267057 -0.069467
vt -0.255649 -0.152824
vt -0.300534 -0.080344
vt -0.267057 -0.069467
vt -0.227172 -0.132134
vt -0.152824 0.041600
vt -0.080344 0.041600
vt -0.080344 0.039600
vt -0.152824 0.039600
vt -0.069467 0.041600
vt -0.132134 0.041600
vt -0.132134 0.039600
vt -0.069467 0.039600
vt -0.255649 -0.152824
vt -0.185740 -0.210344
vt -0.165050 -0.181867
vt -0.227172 -0.132134
vt -0.185740 -0.210344
vt -0.255649 -0.152824
vt -0.227172 -0.132134
vt -0.165050 -0.181867
vt -0.185740 0.041600
vt -0.255649 0.041600
vt -0.255649 0.039600
vt -0.185740 0.039600
vt -0.227172 0.041600
vt -0.165050 0.041600
vt -0.165050 0.039600
vt -0.227172 0.039600
vt -0.185740 -0.210344
vt -0.097649 -0.247275
vt -0.086772 -0.213798
vt -0.165050 -0.181867
vt -0.097649 -0.247275
vt -0.185740 -0.210344
vt -0.165050 -0.181867
vt -0.086772 -0.213798
vt -0.097649 0.041600
vt -0.185740 0.041600
vt -0.185740 0.039600
vt -0.097649 0.039600
vt -0.165050 0.041600
vt -0.086772 0.041600
vt -0.086772 0.039600
vt -0.165050 0.039600
vt -0.097649 -0.247275
vt -0.000000 -0.260000
vt -0.000000 -0.224800
vt -0.086772 -0.213798
vt -0.000000 -0.260000
vt -0.097649 -0.247275
vt -0.086772 -0.213798
vt -0.000000 -0.224800
vt -0.000000 0.041600
vt -0.097649 0.041600
vt -0.097649 0.039600
vt -0.000000 0.039600
vt -0.086772 0.041600
vt -0.000000 0.041600
vt -0.000000 0.039600
vt -0.086772 0.039600
vt -0.000000 -0.260000
vt 0.097649 -0.247275
vt 0.086772 -0.213798
vt -0.000000 -0.224800
vt 0.097649 -0.247275
vt -0.000000 -0.260000
vt -0.000000 -0.224800
vt 0.086772 -0.213798
vt 0.097649 0.041600
vt -0.000000 0.041600
vt -0.000000 0.039600
vt 0.097649 0.039600
vt -0.000000 0.041600
vt 0.086772 0.041600
vt 0.086772 0.039600
vt -0.000000 0.039600
vt 0.097649 -0.247275
vt 0.185740 -0.210344
vt 0.165050 -0.181867
vt 0.086772 -0.213798
vt 0.185740 -0.210344
vt 0.097649 -0.247275
vt 0.086772 -0.213798
vt 0.165050 -0.181867
vt 0.185740 0.041600
vt 0.097649 0.041600
vt 0.097649 0.039600
vt 0.185740 0.039600
vt 0.086772 0.041600
vt 0.165050 0.041600
vt 0.165050 0.039600
vt 0.086772 0.039600
vt 0.185740 -0.210344
vt 0.255649 -0.152824
vt 0.227172 -0.132134
vt 0.165050 -0.181867
vt 0.255649 -0.152824
vt 0.185740 -0.210344
vt 0.165050 -0.181867
vt 0.227172 -0.132134
vt 0.255649 0.041600
vt 0.185740 0.041600
vt 0.185740 0.039600
vt 0.255649 0.039600
vt 0.165050 0.041600
vt 0.227172 0.041600
vt 0.227172 0.039600
vt 0.165050 0.039600
vt 0.255649 -0.152824
vt 0.300534 -0.080344
vt 0.267057 -0.069467
vt 0.227172 -0.132134
vt 0.300534 -0.080344
vt 0.255649 -0.152824
vt 0.227172 -0.132134
vt 0.267057 -0.069467
vt -0.080344 0.041600
vt -0.152824 0.041600
vt -0.152824 0.039600
vt -0.080344 0.039600
vt -0.132134 0.041600
vt -0.069467 0.041600
vt -0.069467 0.039600
vt -0.132134 0.039600
vt 0.300534 -0.080344
vt 0.316000 -0.000000
vt 0.280800 -0.000000
vt 0.267057 -0.069467
vt 0.316000 -0.000000
vt 0.300534 -0.080344
vt 0.267057 -0.069467
vt 0.280800 -0.000000
vt -0.000000 0.041600
vt -0.080344 0.041600
vt -0.080344 0.039600
vt -0.000000 0.039600
vt -0.069467 0.041600
vt -0.000000 0.041600
vt -0.000000 0.039600
vt -0.069467 0.039600
vt -0.000000 0.000000
vt 0.172000 0.000000
vt 0.148956 0.070000
vt 0.148956 0.070000
vt 0.172000 0.000000
vt -0.000000 0.000000
vt 0.070000 0.041200
vt 0.000000 0.041200
vt 0.000000 0.039200
vt 0.070000 0.039200
vt -0.000000 0.000000
vt 0.148956 0.070000
vt 0.086000 0.121244
vt 0.086000 0.121244
vt 0.148956 0.070000
vt -0.000000 0.000000
vt 0.086000 0.041200
vt 0.148956 0.041200
vt 0.148956 0.039200
vt 0.086000 0.039200
vt -0.000000 0.000000
vt 0.086000 0.121244
vt 0.000000 0.140000
vt 0.000000 0.140000
vt 0.086000 0.121244
vt -0.000000 0.000000
vt 0.000000 0.041200
vt 0.086000 0.041200
vt 0.086000 0.039200
vt 0.000000 0.039200
vt -0.000000 0.000000
vt 0.000000 0.140000
vt -0.086000 0.121244
vt -0.086000 0.121244
vt 0.000000 0.140000
vt -0.000000 0.000000
vt -0.086000 0.041200
vt 0.000000 0.041200
vt 0.000000 0.039200
vt -0.086000 0.039200
vt -0.000000 0.000000
vt -0.086000 0.121244
vt -0.148956 0.070000
vt -0.148956 0.070000
vt -0.086000 0.121244
vt -0.000000 0.000000
vt -0.148956 0.041200
vt -0.086000 0.041200
vt -0.086000 0.039200
vt -0.148956 0.039200
vt -0.000000 0.000000
vt -0.148956 0.070000
vt -0.172000 0.000000
vt -0.172000 0.000000
vt -0.148956 0.070000
vt -0.000000 0.000000
vt 0.000000 0.041200
vt 0.070000 0.041200
vt 0.070000 0.039200
vt 0.000000 0.039200
vt -0.000000 0.000000
vt -0.172000 0.000000
vt -0.148956 -0.070000
vt -0.148956 -0.070000
vt -0.172000 0.000000
vt -0.000000 0.000000
vt -0.070000 0.041200
vt 0.000000 0.041200
vt 0.000000 0.039200
vt -0.070000 0.039200
vt -0.000000 0.000000
vt -0.148956 -0.070000
vt -0.086000 -0.121244
vt -0.086000 -0.121244
vt -0.148956 -0.070000
vt -0.000000 0.000000
vt -0.086000 0.041200
vt -0.148956 0.041200
vt -0.148956 0.039200
vt -0.086000 0.039200
vt -0.000000 0.000000
vt -0.086000 -0.121244
vt -0.000000 -0.140000
vt -0.000000 -0.140000
vt -0.086000 -0.121244
vt -0.000000 0.000000
vt -0.000000 0.041200
vt -0.086000 0.041200
vt -0.086000 0.039200
vt -0.000000 0.039200
vt -0.000000 0.000000
vt -0.000000 -0.140000
vt 0.086000 -0.121244
vt 0.086000 -0.121244
vt -0.000000 -0.140000
vt -0.000000 0.000000
vt 0.086000 0.041200
vt -0.000000 0.041200
vt -0.000000 0.039200
vt 0.086000 0.039200
vt -0.000000 0.000000
vt 0.086000 -0.121244
vt 0.148956 -0.070000
vt 0.148956 -0.070000
vt 0.086000 -0.121244
vt -0.000000 0.000000
vt 0.148956 0.041200
vt 0.086000 0.041200
vt 0.086000 0.039200
vt 0.148956 0.039200
vt -0.000000 0.000000
vt 0.148956 -0.070000
vt 0.172000 0.000000
vt 0.172000 0.000000
vt 0.148956 -0.070000
vt -0.000000 0.000000
vt 0.000000 0.041200
vt -0.070000 0.041200
vt -0.070000 0.039200
vt 0.000000 0.039200
vt -0.316000 0.000000
vt -0.364000 -0.023200
vt -0.268000 -0.023200
vt -0.268000 -0.023200
vt -0.364000 -0.023200
vt -0.316000 0.000000
vt -0.268000 0.041600
vt -0.364000 0.041600
vt -0.364000 0.039600
vt -0.268000 0.039600
vt -0.316000 0.000000
vt -0.268000 -0.023200
vt -0.268000 0.023200
vt -0.268000 0.023200
vt -0.268000 -0.023200
vt -0.316000 0.000000
vt 0.023200 0.041600
vt -0.023200 0.041600
vt -0.023200 0.039600
vt 0.023200 0.039600
vt -0.316000 0.000000
vt -0.268000 0.023200
vt -0.364000 0.023200
vt -0.364000 0.023200
vt -0.268000 0.023200
vt -0.316000 0.000000
vt -0.364000 0.041600
vt -0.268000 0.041600
vt -0.268000 0.039600
vt -0.364000 0.039600
vt -0.316000 0.000000
vt -0.364000 0.023200
vt -0.364000 -0.023200
vt -0.364000 -0.023200
vt -0.364000 0.023200
vt -0.316000 0.000000
vt -0.023200 0.041600
vt 0.023200 0.041600
vt 0.023200 0.039600
vt -0.023200 0.039600
vt -0.246667 0.000000
vt -0.268000 -0.058000
vt -0.204000 0.000000
vt -0.204000 0.000000
vt -0.268000 -0.058000
vt -0.246667 0.000000
vt -0.204000 0.041600
vt -0.268000 0.041600
vt -0.268000 0.039600
vt -0.204000 0.039600
vt -0.246667 0.000000
vt -0.204000 0.000000
vt -0.268000 0.058000
vt -0.268000 0.058000
vt -0.204000 0.000000
vt -0.246667 0.000000
vt -0.268000 0.041600
vt -0.204000 0.041600
vt -0.204000 0.039600
vt -0.268000 0.039600
vt -0.246667 0.000000
vt -0.268000 0.058000
vt -0.268000 -0.058000
vt -0.268000 -0.058000
vt -0.268000 0.058000
vt -0.246667 0.000000
vt -0.058000 0.041600
vt 0.058000 0.041600
vt 0.058000 0.039600
vt -0.058000 0.039600
vt 0.316000 0.000000
vt 0.364000 0.023200
vt 0.268000 0.023200
vt 0.268000 0.023200
vt 0.364000 0.023200
vt 0.316000 0.000000
vt 0.268000 0.041600
vt 0.364000 0.041600
vt 0.364000 0.039600
vt 0.268000 0.039600
vt 0.316000 0.000000
vt 0.268000 0.023200
vt 0.268000 -0.023200
vt 0.268000 -0.023200
vt 0.268000 0.023200
vt 0.316000 0.000000
vt -0.023200 0.041600
vt 0.023200 0.041600
vt 0.023200 0.039600
vt -0.023200 0.039600
vt 0.316000 0.000000
vt 0.268000 -0.023200
vt 0.364000 -0.023200
vt 0.364000 -0.023200
vt 0.268000 -0.023200
vt 0.316000 0.000000
vt 0.364000 0.041600
vt 0.268000 0.041600
vt 0.268000 0.039600
vt 0.364000 0.039600
vt 0.316000 0.000000
vt 0.364000 -0.023200
vt 0.364000 0.023200
vt 0.364000 0.023200
vt 0.364000 -0.023200
vt 0.316000 0.000000
vt 0.023200 0.041600
vt -0.023200 0.041600
vt -0.023200 0.039600
vt 0.023200 0.039600
vt 0.246667 -0.000000
vt 0.268000 0.058000
vt 0.204000 -0.000000
vt 0.204000 -0.000000
vt 0.268000 0.058000
vt 0.246667 -0.000000
vt 0.204000 0.041600
vt 0.268000 0.041600
vt 0.268000 0.039600
vt 0.204000 0.039600
vt 0.246667 -0.000000
vt 0.204000 -0.000000
vt 0.268000 -0.058000
vt 0.268000 -0.058000
vt 0.204000 -0.000000
vt 0.246667 -0.000000
vt 0.268000 0.041600
vt 0.204000 0.041600
vt 0.204000 0.039600
vt 0.268000 0.039600
vt 0.246667 -0.000000
vt 0.268000 -0.058000
vt 0.268000 0.058000
vt 0.268000 0.058000
vt 0.268000 -0.058000
vt 0.246667 -0.000000
vt 0.058000 0.041600
vt -0.058000 0.041600
vt -0.058000 0.039600
vt 0.058000 0.039600
vt -0.000000 -0.260000
vt 0.023200 -0.308000
vt 0.023200 -0.212000
vt 0.023200 -0.212000
vt 0.023200 -0.308000
vt -0.000000 -0.260000
vt -0.212000 0.041600
vt -0.308000 0.041600
vt -0.308000 0.039600
vt -0.212000 0.039600
vt -0.000000 -0.260000
vt 0.023200 -0.212000
vt -0.023200 -0.212000
vt -0.023200 -0.212000
vt 0.023200 -0.212000
vt -0.000000 -0.260000
vt -0.023200 0.041600
vt 0.023200 0.041600
vt 0.023200 0.039600
vt -0.023200 0.039600
vt -0.000000 -0.260000
vt -0.023200 -0.212000
vt -0.023200 -0.308000
vt -0.023200 -0.308000
vt -0.023200 -0.212000
vt -0.000000 -0.260000
vt -0.308000 0.041600
vt -0.212000 0.041600
vt -0.212000 0.039600
vt -0.308000 0.039600
vt -0.000000 -0.260000
vt -0.023200 -0.308000
vt 0.023200 -0.308000
vt 0.023200 -0.308000
vt -0.023200 -0.308000
vt -0.000000 -0.260000
vt 0.023200 0.041600
vt -0.023200 0.041600
vt -0.023200 0.039600
vt 0.023200 0.039600
vt 0.000000 -0.190667
vt 0.058000 -0.212000
vt 0.000000 -0.148000
vt 0.000000 -0.148000
vt 0.058000 -0.212000
vt 0.000000 -0.190667
vt -0.148000 0.041600
vt -0.212000 0.041600
vt -0.212000 0.039600
vt -0.148000 0.039600
vt 0.000000 -0.190667
vt 0.000000 -0.148000
vt -0.058000 -0.212000
vt -0.058000 -0.212000
vt 0.000000 -0.148000
vt 0.000000 -0.190667
vt -0.212000 0.041600
vt -0.148000 0.041600
vt -0.148000 0.039600
vt -0.212000 0.039600
vt 0.000000 -0.190667
vt -0.058000 -0.212000
vt 0.058000 -0.212000
vt 0.058000 -0.212000
vt -0.058000 -0.212000
vt 0.000000 -0.190667
vt 0.058000 0.041600
vt -0.058000 0.041600
vt -0.058000 0.039600
vt 0.058000 0.039600
vt -0.000000 0.260000
vt -0.023200 0.308000
vt -0.023200 0.212000
vt -0.023200 0.212000
vt -0.023200 0.308000
vt -0.000000 0.260000
vt 0.212000 0.041600
vt 0.308000 0.041600
vt 0.308000 0.039600
vt 0.212000 0.039600
vt -0.000000 0.260000
vt -0.023200 0.212000
vt 0.023200 0.212000
vt 0.023200 0.212000
vt -0.023200 0.212000
vt -0.000000 0.260000
vt 0.023200 0.041600
vt -0.023200 0.041600
vt -0.023200 0.039600
vt 0.023200 0.039600
vt -0.000000 0.260000
vt 0.023200 0.212000
vt 0.023200 0.308000
vt 0.023200 0.308000
vt 0.023200 0.212000
vt -0.000000 0.260000
vt 0.308000 0.041600
vt 0.212000 0.041600
vt 0.212000 0.039600
vt 0.308000 0.039600
vt -0.000000 0.260000
vt 0.023200 0.308000
vt -0.023200 0.308000
vt -0.023200 0.308000
vt 0.023200 0.308000
vt -0.000000 0.260000
vt -0.023200 0.041600
vt 0.023200 0.041600
vt 0.023200 0.039600
vt -0.023200 0.039600
vt 0.000000 0.190667
vt -0.058000 0.212000
vt 0.000000 0.148000
vt 0.000000 0.148000
vt -0.058000 0.212000
vt 0.000000 0.190667
vt 0.148000 0.041600
vt 0.212000 0.041600
vt 0.212000 0.039600
vt 0.148000 0.039600
vt 0.000000 0.190667
vt 0.000000 0.148000
vt 0.058000 0.212000
vt 0.058000 0.212000
vt 0.000000 0.148000
vt 0.000000 0.190667
vt 0.212000 0.041600
vt 0.148000 0.041600
vt 0.148000 0.039600
vt 0.212000 0.039600
vt 0.000000 0.190667
vt 0.058000 0.212000
vt -0.058000 0.212000
vt -0.058000 0.212000
vt 0.058000 0.212000
vt 0.000000 0.190667
vt -0.058000 0.041600
vt 0.058000 0.041600
vt 0.058000 0.039600
vt -0.058000 0.039600
vt -0.388800 -0.251200
vt -0.315200 -0.251200
vt -0.315200 -0.324800
vt -0.388800 -0.324800
vt -0.388800 -0.324800
vt -0.315200 -0.324800
vt -0.315200 -0.251200
vt -0.388800 -0.251200
vt -0.388800 0.000000
vt -0.315200 0.000000
vt -0.315200 -0.088000
vt -0.388800 -0.088000
vt -0.315200 0.000000
vt -0.388800 0.000000
vt -0.388800 -0.088000
vt -0.315200 -0.088000
vt -0.251200 0.000000
vt -0.324800 0.000000
vt -0.324800 -0.088000
vt -0.251200 -0.088000
vt -0.324800 0.000000
vt -0.251200 0.000000
vt -0.251200 -0.088000
vt -0.324800 -0.088000
vt 0.315200 -0.251200
vt 0.388800 -0.251200
vt 0.388800 -0.324800
vt 0.315200 -0.324800
vt 0.315200 -0.324800
vt 0.388800 -0.324800
vt 0.388800 -0.251200
vt 0.315200 -0.251200
vt 0.315200 0.000000
vt 0.388800 0.000000
vt 0.388800 -0.088000
vt 0.315200 -0.088000
vt 0.388800 0.000000
vt 0.315200 0.000000
vt 0.315200 -0.088000
vt 0.388800 -0.088000
vt -0.251200 0.000000
vt -0.324800 0.000000
vt -0.324800 -0.088000
vt -0.251200 -0.088000
vt -0.324800 0.000000
vt -0.251200 0.000000
vt -0.251200 -0.088000
vt -0.324800 -0.088000
vt -0.388800 0.324800
vt -0.315200 0.324800
vt -0.315200 0.251200
vt -0.388800 0.251200
vt -0.388800 0.251200
vt -0.315200 0.251200
vt -0.315200 0.324800
vt -0.388800 0.324800
vt -0.388800 0.000000
vt -0.315200 0.000000
vt -0.315200 -0.088000
vt -0.388800 -0.088000
vt -0.315200 0.000000
vt -0.388800 0.000000
vt -0.388800 -0.088000
vt -0.315200 -0.088000
vt 0.324800 0.000000
vt 0.251200 0.000000
vt 0.251200 -0.088000
vt 0.324800 -0.088000
vt 0.251200 0.000000
vt 0.324800 0.000000
vt 0.324800 -0.088000
vt 0.251200 -0.088000
vt 0.315200 0.324800
vt 0.388800 0.324800
vt 0.388800 0.251200
vt 0.315200 0.251200
vt 0.315200 0.251200
vt 0.388800 0.251200
vt 0.388800 0.324800
vt 0.315200 0.324800
vt 0.315200 0.000000
vt 0.388800 0.000000
vt 0.388800 -0.088000
vt 0.315200 -0.088000
vt 0.388800 0.000000
vt 0.315200 0.000000
vt 0.315200 -0.088000
vt 0.388800 -0.088000
vt 0.324800 0.000000
vt 0.251200 0.000000
vt 0.251200 -0.088000
vt 0.324800 -0.088000
vt 0.251200 0.000000
vt 0.324800 0.000000
vt 0.324800 -0.088000
vt 0.251200 -0.088000
vn -0.000000 1.000000 0.000000
vn 0.000000 -1.000000 0.000000
vn 0.000000 0.000000 -1.000000
vn 0.000000 0.000000 1.000000
vn -1.000000 0.000000 -0.000000
vn 1.000000 0.000000 -0.000000
vn -0.000000 1.000000 0.000000
vn 0.000000 -1.000000 0.000000
vn 0.000000 0.000000 -1.000000
vn 0.000000 0.000000 1.000000
vn -1.000000 0.000000 -0.000000
vn 1.000000 0.000000 -0.000000
vn 0.000000 1.000000 0.000000
vn 0.000000 -1.000000 0.000000
vn -0.981972 0.000000 -0.189028
vn 0.980986 0.000000 0.194078
vn 0.000000 1.000000 0.000000
vn 0.000000 -1.000000 0.000000
vn -0.850181 0.000000 -0.526491
vn 0.843627 0.000000 0.536929
vn 0.000000 1.000000 0.000000
vn 0.000000 -1.000000 0.000000
vn -0.635365 0.000000 -0.772212
vn 0.624966 0.000000 0.780652
vn 0.000000 1.000000 0.000000
vn 0.000000 -1.000000 0.000000
vn -0.386629 0.000000 -0.922236
vn 0.377697 0.000000 0.925929
vn 0.000000 1.000000 0.000000
vn 0.000000 -1.000000 0.000000
vn -0.129224 0.000000 -0.991615
vn 0.125791 0.000000 0.992057
vn 0.000000 1.000000 0.000000
vn 0.000000 -1.000000 0.000000
vn 0.129224 0.000000 -0.991615
vn -0.125791 0.000000 0.992057
vn 0.000000 1.000000 0.000000
vn 0.000000 -1.000000 0.000000
vn 0.386629 0.000000 -0.922236
vn -0.377697 0.000000 0.925929
vn 0.000000 1.000000 0.000000
vn 0.000000 -1.000000 0.000000
vn 0.635365 0.000000 -0.772212
vn -0.624966 0.000000 0.780652
vn 0.000000 1.000000 0.000000
vn 0.000000 -1.000000 0.000000
vn 0.850181 0.000000 -0.526491
vn -0.843627 0.000000 0.536929
vn 0.000000 1.000000 0.000000
vn 0.000000 -1.000000 0.000000
vn 0.981972 0.000000 -0.189028
vn -0.980986 0.000000 0.194078
vn 0.000000 1.000000 0.000000
vn 0.000000 -1.000000 0.000000
vn 0.981972 0.000000 0.189028
vn -0.980986 0.000000 -0.194078
vn 0.000000 1.000000 0.000000
vn 0.000000 -1.000000 0.000000
vn 0.850181 0.000000 0.526491
vn -0.843627 0.000000 -0.536929
vn 0.000000 1.000000 0.000000
vn 0.000000 -1.000000 0.000000
vn 0.635365 0.000000 0.772212
vn -0.624966 0.000000 -0.780652
vn 0.000000 1.000000 0.000000
vn 0.000000 -1.000000 0.000000
vn 0.386629 0.000000 0.922236
vn -0.377697 0.000000 -0.925929
vn 0.000000 1.000000 0.000000
vn 0.000000 -1.000000 0.000000
vn 0.129224 0.000000 0.991615
vn -0.125791 0.000000 -0.992057
vn 0.000000 1.000000 0.000000
vn 0.000000 -1.000000 0.000000
vn -0.129224 0.000000 0.991615
vn 0.125791 0.000000 -0.992057
vn 0.000000 1.000000 0.000000
vn 0.000000 -1.000000 0.000000
vn -0.386629 0.000000 0.922236
vn 0.377697 0.000000 -0.925929
vn 0.000000 1.000000 0.000000
vn 0.000000 -1.000000 0.000000
vn -0.635365 0.000000 0.772212
vn 0.624966 0.000000 -0.780652
vn 0.000000 1.000000 0.000000
vn 0.000000 -1.000000 0.000000
vn -0.850181 0.000000 0.526491
vn 0.843627 0.000000 -0.536929
vn 0.000000 1.000000 0.000000
vn 0.000000 -1.000000 0.000000
vn -0.981972 0.000000 0.189028
vn 0.980986 0.000000 -0.194078
vn 0.000000 1.000000 0.000000
vn 0.000000 -1.000000 0.000000
vn -0.949856 0.000000 -0.312688
vn 0.000000 1.000000 0.000000
vn 0.000000 -1.000000 0.000000
vn -0.631271 0.000000 -0.775562
vn 0.000000 1.000000 0.000000
vn 0.000000 -1.000000 0.000000
vn -0.213089 0.000000 -0.977033
vn 0.000000 1.000000 0.000000
vn 0.000000 -1.000000 0.000000
vn 0.213089 0.000000 -0.977033
vn 0.000000 1.000000 0.000000
vn 0.000000 -1.000000 0.000000
vn 0.631271 0.000000 -0.775562
vn 0.000000 1.000000 0.000000
vn 0.000000 -1.000000 0.000000
vn 0.949856 0.000000 -0.312688
vn 0.000000 1.000000 0.000000
vn 0.000000 -1.000000 0.000000
vn 0.949856 0.000000 0.312688
vn 0.000000 1.000000 0.000000
vn 0.000000 -1.000000 0.000000
vn 0.631271 0.000000 0.775562
vn 0.000000 1.000000 0.000000
vn 0.000000 -1.000000 0.000000
vn 0.213089 0.000000 0.977033
vn 0.000000 1.000000 0.000000
vn 0.000000 -1.000000 0.000000
vn -0.213089 0.000000 0.977033
vn 0.000000 1.000000 0.000000
vn 0.000000 -1.000000 0.000000
vn -0.631271 0.000000 0.775562
vn 0.000000 1.000000 0.000000
vn 0.000000 -1.000000 0.000000
vn -0.949856 0.000000 0.312688
vn 0.000000 1.000000 0.000000
vn 0.000000 -1.000000 0.000000
vn 0.000000 0.000000 1.000000
vn 0.000000 1.000000 0.000000
vn 0.000000 -1.000000 0.000000
vn -1.000000 0.000000 -0.000000
vn 0.000000 1.000000 0.000000
vn 0.000000 -1.000000 0.000000
vn 0.000000 0.000000 -1.000000
vn 0.000000 1.000000 0.000000
vn 0.000000 -1.000000 0.000000
vn 1.000000 0.000000 -0.000000
vn 0.000000 1.000000 0.000000
vn 0.000000 -1.000000 0.000000
vn -0.671519 0.000000 0.740987
vn 0.000000 1.000000 0.000000
vn 0.000000 -1.000000 0.000000
vn -0.671519 0.000000 -0.740987
vn 0.000000 1.000000 0.000000
vn 0.000000 -1.000000 0.000000
vn 1.000000 0.000000 -0.000000
vn 0.000000 1.000000 0.000000
vn 0.000000 -1.000000 0.000000
vn 0.000000 0.000000 -1.000000
vn 0.000000 1.000000 0.000000
vn 0.000000 -1.000000 0.000000
vn 1.000000 0.000000 -0.000000
vn 0.000000 1.000000 0.000000
vn 0.000000 -1.000000 0.000000
vn -0.000000 0.000000 1.000000
vn 0.000000 1.000000 0.000000
vn 0.000000 -1.000000 0.000000
vn -1.000000 0.000000 -0.000000
vn 0.000000 1.000000 0.000000
vn 0.000000 -1.000000 0.000000
vn 0.671519 0.000000 -0.740987
vn 0.000000 1.000000 0.000000
vn 0.000000 -1.000000 0.000000
vn 0.671519 0.000000 0.740987
vn 0.000000 1.000000 0.000000
vn 0.000000 -1.000000 0.000000
vn -1.000000 0.000000 -0.000000
vn 0.000000 1.000000 0.000000
vn 0.000000 -1.000000 0.000000
vn -1.000000 0.000000 0.000000
vn 0.000000 1.000000 0.000000
vn 0.000000 -1.000000 0.000000
vn 0.000000 0.000000 -1.000000
vn 0.000000 1.000000 0.000000
vn 0.000000 -1.000000 0.000000
vn 1.000000 0.000000 -0.000000
vn 0.000000 1.000000 0.000000
vn 0.000000 -1.000000 0.000000
vn 0.000000 0.000000 1.000000
vn 0.000000 1.000000 0.000000
vn 0.000000 -1.000000 0.000000
vn -0.740987 0.000000 -0.671519
vn 0.000000 1.000000 0.000000
vn 0.000000 -1.000000 0.000000
vn 0.740987 0.000000 -0.671519
vn 0.000000 1.000000 0.000000
vn 0.000000 -1.000000 0.000000
vn 0.000000 0.000000 1.000000
vn 0.000000 1.000000 0.000000
vn 0.000000 -1.000000 0.000000
vn 1.000000 0.000000 0.000000
vn 0.000000 1.000000 0.000000
vn 0.000000 -1.000000 0.000000
vn 0.000000 0.000000 1.000000
vn 0.000000 1.000000 0.000000
vn 0.000000 -1.000000 0.000000
vn -1.000000 0.000000 -0.000000
vn 0.000000 1.000000 0.000000
vn 0.000000 -1.000000 0.000000
vn 0.000000 0.000000 -1.000000
vn 0.000000 1.000000 0.000000
vn 0.000000 -1.000000 0.000000
vn 0.740987 0.000000 0.671519
vn 0.000000 1.000000 0.000000
vn 0.000000 -1.000000 0.000000
vn -0.740987 0.000000 0.671519
vn 0.000000 1.000000 0.000000
vn 0.000000 -1.000000 0.000000
vn 0.000000 0.000000 -1.000000
vn -0.000000 1.000000 0.000000
vn 0.000000 -1.000000 0.000000
vn 0.000000 0.000000 -1.000000
vn 0.000000 0.000000 1.000000
vn -1.000000 0.000000 -0.000000
vn 1.000000 0.000000 -0.000000
vn -0.000000 1.000000 0.000000
vn 0.000000 -1.000000 0.000000
vn 0.000000 0.000000 -1.000000
vn 0.000000 0.000000 1.000000
vn -1.000000 0.000000 -0.000000
vn 1.000000 0.000000 -0.000000
vn -0.000000 1.000000 0.000000
vn 0.000000 -1.000000 0.000000
vn 0.000000 0.000000 -1.000000
vn 0.000000 0.000000 1.000000
vn -1.000000 0.000000 -0.000000
vn 1.000000 0.000000 -0.000000
vn -0.000000 1.000000 0.000000
vn 0.000000 -1.000000 0.000000
vn 0.000000 0.000000 -1.000000
vn 0.000000 0.000000 1.000000
vn -1.000000 0.000000 -0.000000
vn 1.000000 0.000000 -0.000000
usemtl ruin_stone
f 1/1/1 2/2/1 3/3/1 4/4/1
usemtl garden_underside
f 5/5/2 6/6/2 7/7/2 8/8/2
f 9/9/3 10/10/3 11/11/3 12/12/3
f 13/13/4 14/14/4 15/15/4 16/16/4
f 17/17/5 18/18/5 19/19/5 20/20/5
f 21/21/6 22/22/6 23/23/6 24/24/6
usemtl garden_mechanism
f 25/25/7 26/26/7 27/27/7 28/28/7
usemtl ruin_cap
f 29/29/8 30/30/8 31/31/8 32/32/8
f 33/33/9 34/34/9 35/35/9 36/36/9
f 37/37/10 38/38/10 39/39/10 40/40/10
f 41/41/11 42/42/11 43/43/11 44/44/11
f 45/45/12 46/46/12 47/47/12 48/48/12
usemtl signal_white
f 49/49/13 50/50/13 51/51/13 52/52/13
f 53/53/14 54/54/14 55/55/14 56/56/14
f 57/57/15 58/58/15 59/59/15 60/60/15
f 61/61/16 62/62/16 63/63/16 64/64/16
f 65/65/17 66/66/17 67/67/17 68/68/17
f 69/69/18 70/70/18 71/71/18 72/72/18
f 73/73/19 74/74/19 75/75/19 76/76/19
f 77/77/20 78/78/20 79/79/20 80/80/20
f 81/81/21 82/82/21 83/83/21 84/84/21
f 85/85/22 86/86/22 87/87/22 88/88/22
f 89/89/23 90/90/23 91/91/23 92/92/23
f 93/93/24 94/94/24 95/95/24 96/96/24
f 97/97/25 98/98/25 99/99/25 100/100/25
f 101/101/26 102/102/26 103/103/26 104/104/26
f 105/105/27 106/106/27 107/107/27 108/108/27
f 109/109/28 110/110/28 111/111/28 112/112/28
f 113/113/29 114/114/29 115/115/29 116/116/29
f 117/117/30 118/118/30 119/119/30 120/120/30
f 121/121/31 122/122/31 123/123/31 124/124/31
f 125/125/32 126/126/32 127/127/32 128/128/32
f 129/129/33 130/130/33 131/131/33 132/132/33
f 133/133/34 134/134/34 135/135/34 136/136/34
f 137/137/35 138/138/35 139/139/35 140/140/35
f 141/141/36 142/142/36 143/143/36 144/144/36
f 145/145/37 146/146/37 147/147/37 148/148/37
f 149/149/38 150/150/38 151/151/38 152/152/38
f 153/153/39 154/154/39 155/155/39 156/156/39
f 157/157/40 158/158/40 159/159/40 160/160/40
f 161/161/41 162/162/41 163/163/41 164/164/41
f 165/165/42 166/166/42 167/167/42 168/168/42
f 169/169/43 170/170/43 171/171/43 172/172/43
f 173/173/44 174/174/44 175/175/44 176/176/44
f 177/177/45 178/178/45 179/179/45 180/180/45
f 181/181/46 182/182/46 183/183/46 184/184/46
f 185/185/47 186/186/47 187/187/47 188/188/47
f 189/189/48 190/190/48 191/191/48 192/192/48
f 193/193/49 194/194/49 195/195/49 196/196/49
f 197/197/50 198/198/50 199/199/50 200/200/50
f 201/201/51 202/202/51 203/203/51 204/204/51
f 205/205/52 206/206/52 207/207/52 208/208/52
f 209/209/53 210/210/53 211/211/53 212/212/53
f 213/213/54 214/214/54 215/215/54 216/216/54
f 217/217/55 218/218/55 219/219/55 220/220/55
f 221/221/56 222/222/56 223/223/56 224/224/56
f 225/225/57 226/226/57 227/227/57 228/228/57
f 229/229/58 230/230/58 231/231/58 232/232/58
f 233/233/59 234/234/59 235/235/59 236/236/59
f 237/237/60 238/238/60 239/239/60 240/240/60
f 241/241/61 242/242/61 243/243/61 244/244/61
f 245/245/62 246/246/62 247/247/62 248/248/62
f 249/249/63 250/250/63 251/251/63 252/252/63
f 253/253/64 254/254/64 255/255/64 256/256/64
f 257/257/65 258/258/65 259/259/65 260/260/65
f 261/261/66 262/262/66 263/263/66 264/264/66
f 265/265/67 266/266/67 267/267/67 268/268/67
f 269/269/68 270/270/68 271/271/68 272/272/68
f 273/273/69 274/274/69 275/275/69 276/276/69
f 277/277/70 278/278/70 279/279/70 280/280/70
f 281/281/71 282/282/71 283/283/71 284/284/71
f 285/285/72 286/286/72 287/287/72 288/288/72
f 289/289/73 290/290/73 291/291/73 292/292/73
f 293/293/74 294/294/74 295/295/74 296/296/74
f 297/297/75 298/298/75 299/299/75 300/300/75
f 301/301/76 302/302/76 303/303/76 304/304/76
f 305/305/77 306/306/77 307/307/77 308/308/77
f 309/309/78 310/310/78 311/311/78 312/312/78
f 313/313/79 314/314/79 315/315/79 316/316/79
f 317/317/80 318/318/80 319/319/80 320/320/80
f 321/321/81 322/322/81 323/323/81 324/324/81
f 325/325/82 326/326/82 327/327/82 328/328/82
f 329/329/83 330/330/83 331/331/83 332/332/83
f 333/333/84 334/334/84 335/335/84 336/336/84
f 337/337/85 338/338/85 339/339/85 340/340/85
f 341/341/86 342/342/86 343/343/86 344/344/86
f 345/345/87 346/346/87 347/347/87 348/348/87
f 349/349/88 350/350/88 351/351/88 352/352/88
f 353/353/89 354/354/89 355/355/89 356/356/89
f 357/357/90 358/358/90 359/359/90 360/360/90
f 361/361/91 362/362/91 363/363/91 364/364/91
f 365/365/92 366/366/92 367/367/92 368/368/92
usemtl mechanism_dark
f 369/369/93 370/370/93 371/371/93
usemtl garden_underside
f 372/372/94 373/373/94 374/374/94
usemtl ruin_cap
f 375/375/95 376/376/95 377/377/95 378/378/95
usemtl mechanism_dark
f 379/379/96 380/380/96 381/381/96
usemtl garden_underside
f 382/382/97 383/383/97 384/384/97
usemtl ruin_cap
f 385/385/98 386/386/98 387/387/98 388/388/98
usemtl mechanism_dark
f 389/389/99 390/390/99 391/391/99
usemtl garden_underside
f 392/392/100 393/393/100 394/394/100
usemtl ruin_cap
f 395/395/101 396/396/101 397/397/101 398/398/101
usemtl mechanism_dark
f 399/399/102 400/400/102 401/401/102
usemtl garden_underside
f 402/402/103 403/403/103 404/404/103
usemtl ruin_cap
f 405/405/104 406/406/104 407/407/104 408/408/104
usemtl mechanism_dark
f 409/409/105 410/410/105 411/411/105
usemtl garden_underside
f 412/412/106 413/413/106 414/414/106
usemtl ruin_cap
f 415/415/107 416/416/107 417/417/107 418/418/107
usemtl mechanism_dark
f 419/419/108 420/420/108 421/421/108
usemtl garden_underside
f 422/422/109 423/423/109 424/424/109
usemtl ruin_cap
f 425/425/110 426/426/110 427/427/110 428/428/110
usemtl mechanism_dark
f 429/429/111 430/430/111 431/431/111
usemtl garden_underside
f 432/432/112 433/433/112 434/434/112
usemtl ruin_cap
f 435/435/113 436/436/113 437/437/113 438/438/113
usemtl mechanism_dark
f 439/439/114 440/440/114 441/441/114
usemtl garden_underside
f 442/442/115 443/443/115 444/444/115
usemtl ruin_cap
f 445/445/116 446/446/116 447/447/116 448/448/116
usemtl mechanism_dark
f 449/449/117 450/450/117 451/451/117
usemtl garden_underside
f 452/452/118 453/453/118 454/454/118
usemtl ruin_cap
f 455/455/119 456/456/119 457/457/119 458/458/119
usemtl mechanism_dark
f 459/459/120 460/460/120 461/461/120
usemtl garden_underside
f 462/462/121 463/463/121 464/464/121
usemtl ruin_cap
f 465/465/122 466/466/122 467/467/122 468/468/122
usemtl mechanism_dark
f 469/469/123 470/470/123 471/471/123
usemtl garden_underside
f 472/472/124 473/473/124 474/474/124
usemtl ruin_cap
f 475/475/125 476/476/125 477/477/125 478/478/125
usemtl mechanism_dark
f 479/479/126 480/480/126 481/481/126
usemtl garden_underside
f 482/482/127 483/483/127 484/484/127
usemtl ruin_cap
f 485/485/128 486/486/128 487/487/128 488/488/128
usemtl goal_dais
f 489/489/129 490/490/129 491/491/129
usemtl ruin_cap
f 492/492/130 493/493/130 494/494/130
f 495/495/131 496/496/131 497/497/131 498/498/131
usemtl goal_dais
f 499/499/132 500/500/132 501/501/132
usemtl ruin_cap
f 502/502/133 503/503/133 504/504/133
f 505/505/134 506/506/134 507/507/134 508/508/134
usemtl goal_dais
f 509/509/135 510/510/135 511/511/135
usemtl ruin_cap
f 512/512/136 513/513/136 514/514/136
f 515/515/137 516/516/137 517/517/137 518/518/137
usemtl goal_dais
f 519/519/138 520/520/138 521/521/138
usemtl ruin_cap
f 522/522/139 523/523/139 524/524/139
f 525/525/140 526/526/140 527/527/140 528/528/140
usemtl goal_dais
f 529/529/141 530/530/141 531/531/141
usemtl ruin_cap
f 532/532/142 533/533/142 534/534/142
f 535/535/143 536/536/143 537/537/143 538/538/143
usemtl goal_dais
f 539/539/144 540/540/144 541/541/144
usemtl ruin_cap
f 542/542/145 543/543/145 544/544/145
f 545/545/146 546/546/146 547/547/146 548/548/146
usemtl goal_dais
f 549/549/147 550/550/147 551/551/147
usemtl ruin_cap
f 552/552/148 553/553/148 554/554/148
f 555/555/149 556/556/149 557/557/149 558/558/149
usemtl goal_dais
f 559/559/150 560/560/150 561/561/150
usemtl ruin_cap
f 562/562/151 563/563/151 564/564/151
f 565/565/152 566/566/152 567/567/152 568/568/152
usemtl goal_dais
f 569/569/153 570/570/153 571/571/153
usemtl ruin_cap
f 572/572/154 573/573/154 574/574/154
f 575/575/155 576/576/155 577/577/155 578/578/155
usemtl goal_dais
f 579/579/156 580/580/156 581/581/156
usemtl ruin_cap
f 582/582/157 583/583/157 584/584/157
f 585/585/158 586/586/158 587/587/158 588/588/158
usemtl goal_dais
f 589/589/159 590/590/159 591/591/159
usemtl ruin_cap
f 592/592/160 593/593/160 594/594/160
f 595/595/161 596/596/161 597/597/161 598/598/161
usemtl goal_dais
f 599/599/162 600/600/162 601/601/162
usemtl ruin_cap
f 602/602/163 603/603/163 604/604/163
f 605/605/164 606/606/164 607/607/164 608/608/164
usemtl goal_dais
f 609/609/165 610/610/165 611/611/165
usemtl ruin_cap
f 612/612/166 613/613/166 614/614/166
f 615/615/167 616/616/167 617/617/167 618/618/167
usemtl goal_dais
f 619/619/168 620/620/168 621/621/168
usemtl ruin_cap
f 622/622/169 623/623/169 624/624/169
f 625/625/170 626/626/170 627/627/170 628/628/170
usemtl goal_dais
f 629/629/171 630/630/171 631/631/171
usemtl ruin_cap
f 632/632/172 633/633/172 634/634/172
f 635/635/173 636/636/173 637/637/173 638/638/173
usemtl goal_dais
f 639/639/174 640/640/174 641/641/174
usemtl ruin_cap
f 642/642/175 643/643/175 644/644/175
f 645/645/176 646/646/176 647/647/176 648/648/176
usemtl goal_dais
f 649/649/177 650/650/177 651/651/177
usemtl ruin_cap
f 652/652/178 653/653/178 654/654/178
f 655/655/179 656/656/179 657/657/179 658/658/179
usemtl goal_dais
f 659/659/180 660/660/180 661/661/180
usemtl ruin_cap
f 662/662/181 663/663/181 664/664/181
f 665/665/182 666/666/182 667/667/182 668/668/182
usemtl goal_dais
f 669/669/183 670/670/183 671/671/183
usemtl ruin_cap
f 672/672/184 673/673/184 674/674/184
f 675/675/185 676/676/185 677/677/185 678/678/185
usemtl goal_dais
f 679/679/186 680/680/186 681/681/186
usemtl ruin_cap
f 682/682/187 683/683/187 684/684/187
f 685/685/188 686/686/188 687/687/188 688/688/188
usemtl goal_dais
f 689/689/189 690/690/189 691/691/189
usemtl ruin_cap
f 692/692/190 693/693/190 694/694/190
f 695/695/191 696/696/191 697/697/191 698/698/191
usemtl goal_dais
f 699/699/192 700/700/192 701/701/192
usemtl ruin_cap
f 702/702/193 703/703/193 704/704/193
f 705/705/194 706/706/194 707/707/194 708/708/194
usemtl goal_dais
f 709/709/195 710/710/195 711/711/195
usemtl ruin_cap
f 712/712/196 713/713/196 714/714/196
f 715/715/197 716/716/197 717/717/197 718/718/197
usemtl goal_dais
f 719/719/198 720/720/198 721/721/198
usemtl ruin_cap
f 722/722/199 723/723/199 724/724/199
f 725/725/200 726/726/200 727/727/200 728/728/200
usemtl goal_dais
f 729/729/201 730/730/201 731/731/201
usemtl ruin_cap
f 732/732/202 733/733/202 734/734/202
f 735/735/203 736/736/203 737/737/203 738/738/203
usemtl goal_dais
f 739/739/204 740/740/204 741/741/204
usemtl ruin_cap
f 742/742/205 743/743/205 744/744/205
f 745/745/206 746/746/206 747/747/206 748/748/206
usemtl goal_dais
f 749/749/207 750/750/207 751/751/207
usemtl ruin_cap
f 752/752/208 753/753/208 754/754/208
f 755/755/209 756/756/209 757/757/209 758/758/209
usemtl goal_dais
f 759/759/210 760/760/210 761/761/210
usemtl ruin_cap
f 762/762/211 763/763/211 764/764/211
f 765/765/212 766/766/212 767/767/212 768/768/212
usemtl mechanism_dark
f 769/769/213 770/770/213 771/771/213 772/772/213
usemtl garden_underside
f 773/773/214 774/774/214 775/775/214 776/776/214
f 777/777/215 778/778/215 779/779/215 780/780/215
f 781/781/216 782/782/216 783/783/216 784/784/216
f 785/785/217 786/786/217 787/787/217 788/788/217
f 789/789/218 790/790/218 791/791/218 792/792/218
usemtl mechanism_dark
f 793/793/219 794/794/219 795/795/219 796/796/219
usemtl garden_underside
f 797/797/220 798/798/220 799/799/220 800/800/220
f 801/801/221 802/802/221 803/803/221 804/804/221
f 805/805/222 806/806/222 807/807/222 808/808/222
f 809/809/223 810/810/223 811/811/223 812/812/223
f 813/813/224 814/814/224 815/815/224 816/816/224
usemtl mechanism_dark
f 817/817/225 818/818/225 819/819/225 820/820/225
usemtl garden_underside
f 821/821/226 822/822/226 823/823/226 824/824/226
f 825/825/227 826/826/227 827/827/227 828/828/227
f 829/829/228 830/830/228 831/831/228 832/832/228
f 833/833/229 834/834/229 835/835/229 836/836/229
f 837/837/230 838/838/230 839/839/230 840/840/230
usemtl mechanism_dark
f 841/841/231 842/842/231 843/843/231 844/844/231
usemtl garden_underside
f 845/845/232 846/846/232 847/847/232 848/848/232
f 849/849/233 850/850/233 851/851/233 852/852/233
f 853/853/234 854/854/234 855/855/234 856/856/234
f 857/857/235 858/858/235 859/859/235 860/860/235
f 861/861/236 862/862/236 863/863/236 864/864/236
