mtllib stage_select_hub_island.mtl
o stage_select_hub_island
v 0.000000 0.000000 0.000000
v 27.229111 0.000000 4.642463
v 27.019149 0.000000 0.000000
v 0.000000 0.000000 0.000000
v 25.661150 0.000000 9.110740
v 27.229111 0.000000 4.642463
v 0.000000 0.000000 0.000000
v 22.617081 0.000000 12.953357
v 25.661150 0.000000 9.110740
v 0.000000 0.000000 0.000000
v 18.979265 0.000000 16.267942
v 22.617081 0.000000 12.953357
v 0.000000 0.000000 0.000000
v 14.947109 0.000000 19.174226
v 18.979265 0.000000 16.267942
v 0.000000 0.000000 0.000000
v 10.255060 0.000000 21.221062
v 14.947109 0.000000 19.174226
v 0.000000 0.000000 0.000000
v 5.120226 0.000000 22.063810
v 10.255060 0.000000 21.221062
v 0.000000 0.000000 0.000000
v 0.000000 0.000000 22.185994
v 5.120226 0.000000 22.063810
v 0.000000 0.000000 0.000000
v -5.135245 0.000000 22.128531
v 0.000000 0.000000 22.185994
v 0.000000 0.000000 0.000000
v -10.391262 0.000000 21.502907
v -5.135245 0.000000 22.128531
v 0.000000 0.000000 0.000000
v -15.282557 0.000000 19.604540
v -10.391262 0.000000 21.502907
v 0.000000 0.000000 0.000000
v -19.300972 0.000000 16.543690
v -15.282557 0.000000 19.604540
v 0.000000 0.000000 0.000000
v -22.607506 0.000000 12.947874
v -19.300972 0.000000 16.543690
v 0.000000 0.000000 0.000000
v -25.342391 0.000000 8.997567
v -22.607506 0.000000 12.947874
v 0.000000 0.000000 0.000000
v -26.888218 0.000000 4.584342
v -25.342391 0.000000 8.997567
v 0.000000 0.000000 0.000000
v -26.740851 0.000000 0.000000
v -26.888218 0.000000 4.584342
v 0.000000 0.000000 0.000000
v -25.497905 0.000000 -4.347299
v -26.740851 0.000000 0.000000
v 0.000000 0.000000 0.000000
v -24.006613 0.000000 -8.523313
v -25.497905 0.000000 -4.347299
v 0.000000 0.000000 0.000000
v -22.082725 0.000000 -12.647319
v -24.006613 0.000000 -8.523313
v 0.000000 0.000000 0.000000
v -19.034795 0.000000 -16.315539
v -22.082725 0.000000 -12.647319
v 0.000000 0.000000 0.000000
v -14.920346 0.000000 -19.139894
v -19.034795 0.000000 -16.315539
v 0.000000 0.000000 0.000000
v -10.318001 0.000000 -21.351307
v -14.920346 0.000000 -19.139894
v 0.000000 0.000000 0.000000
v -5.367830 0.000000 -23.130775
v -10.318001 0.000000 -21.351307
v 0.000000 0.000000 0.000000
v -0.000000 0.000000 -23.894006
v -5.367830 0.000000 -23.130775
v 0.000000 0.000000 0.000000
v 5.352811 0.000000 -23.066054
v -0.000000 0.000000 -23.894006
v 0.000000 0.000000 0.000000
v 10.181799 0.000000 -21.069461
v 5.352811 0.000000 -23.066054
v 0.000000 0.000000 0.000000
v 14.584898 0.000000 -18.709580
v 10.181799 0.000000 -21.069461
v 0.000000 0.000000 0.000000
v 18.713089 0.000000 -16.039791
v 14.584898 0.000000 -18.709580
v 0.000000 0.000000 0.000000
v 22.092300 0.000000 -12.652803
v 18.713089 0.000000 -16.039791
v 0.000000 0.000000 0.000000
v 24.325373 0.000000 -8.636485
v 22.092300 0.000000 -12.652803
v 0.000000 0.000000 0.000000
v 25.838798 0.000000 -4.405420
v 24.325373 0.000000 -8.636485
v 0.000000 0.000000 0.000000
v 27.019149 0.000000 -0.000000
v 25.838798 0.000000 -4.405420
v 27.019149 0.000000 0.000000
v 27.229111 0.000000 4.642463
v 28.363658 -0.320000 4.835899
v 28.144946 -0.320000 0.000000
v 27.229111 0.000000 4.642463
v 25.661150 0.000000 9.110740
v 26.730365 -0.320000 9.490354
v 28.363658 -0.320000 4.835899
v 25.661150 0.000000 9.110740
v 22.617081 0.000000 12.953357
v 23.559459 -0.320000 13.493081
v 26.730365 -0.320000 9.490354
v 22.617081 0.000000 12.953357
v 18.979265 0.000000 16.267942
v 19.770068 -0.320000 16.945773
v 23.559459 -0.320000 13.493081
v 18.979265 0.000000 16.267942
v 14.947109 0.000000 19.174226
v 15.569905 -0.320000 19.973152
v 19.770068 -0.320000 16.945773
v 14.947109 0.000000 19.174226
v 10.255060 0.000000 21.221062
v 10.682354 -0.320000 22.105273
v 15.569905 -0.320000 19.973152
v 10.255060 0.000000 21.221062
v 5.120226 0.000000 22.063810
v 5.333568 -0.320000 22.983136
v 10.682354 -0.320000 22.105273
v 5.120226 0.000000 22.063810
v 0.000000 0.000000 22.185994
v 0.000000 -0.320000 23.110410
v 5.333568 -0.320000 22.983136
v 0.000000 0.000000 22.185994
v -5.135245 0.000000 22.128531
v -5.349214 -0.320000 23.050554
v 0.000000 -0.320000 23.110410
v -5.135245 0.000000 22.128531
v -10.391262 0.000000 21.502907
v -10.824231 -0.320000 22.398862
v -5.349214 -0.320000 23.050554
v -10.391262 0.000000 21.502907
v -15.282557 0.000000 19.604540
v -15.919331 -0.320000 20.421396
v -10.824231 -0.320000 22.398862
v -15.282557 0.000000 19.604540
v -19.300972 0.000000 16.543690
v -20.105179 -0.320000 17.233010
v -15.919331 -0.320000 20.421396
v -19.300972 0.000000 16.543690
v -22.607506 0.000000 12.947874
v -23.549486 -0.320000 13.487369
v -20.105179 -0.320000 17.233010
v -22.607506 0.000000 12.947874
v -25.342391 0.000000 8.997567
v -26.398324 -0.320000 9.372466
v -23.549486 -0.320000 13.487369
v -25.342391 0.000000 8.997567
v -26.888218 0.000000 4.584342
v -28.008561 -0.320000 4.775356
v -26.398324 -0.320000 9.372466
v -26.888218 0.000000 4.584342
v -26.740851 0.000000 0.000000
v -27.855054 -0.320000 0.000000
v -28.008561 -0.320000 4.775356
v -26.740851 0.000000 0.000000
v -25.497905 0.000000 -4.347299
v -26.560318 -0.320000 -4.528436
v -27.855054 -0.320000 0.000000
v -25.497905 0.000000 -4.347299
v -24.006613 0.000000 -8.523313
v -25.006889 -0.320000 -8.878451
v -26.560318 -0.320000 -4.528436
v -24.006613 0.000000 -8.523313
v -22.082725 0.000000 -12.647319
v -23.002839 -0.320000 -13.174291
v -25.006889 -0.320000 -8.878451
v -22.082725 0.000000 -12.647319
v -19.034795 0.000000 -16.315539
v -19.827912 -0.320000 -16.995353
v -23.002839 -0.320000 -13.174291
v -19.034795 0.000000 -16.315539
v -14.920346 0.000000 -19.139894
v -15.542028 -0.320000 -19.937390
v -19.827912 -0.320000 -16.995353
v -14.920346 0.000000 -19.139894
v -10.318001 0.000000 -21.351307
v -10.747918 -0.320000 -22.240945
v -15.542028 -0.320000 -19.937390
v -10.318001 0.000000 -21.351307
v -5.367830 0.000000 -23.130775
v -5.591490 -0.320000 -24.094558
v -10.747918 -0.320000 -22.240945
v -5.367830 0.000000 -23.130775
v -0.000000 0.000000 -23.894006
v -0.000000 -0.320000 -24.889590
v -5.591490 -0.320000 -24.094558
v -0.000000 0.000000 -23.894006
v 5.352811 0.000000 -23.066054
v 5.575844 -0.320000 -24.027140
v -0.000000 -0.320000 -24.889590
v 5.352811 0.000000 -23.066054
v 10.181799 0.000000 -21.069461
v 10.606041 -0.320000 -21.947356
v 5.575844 -0.320000 -24.027140
v 10.181799 0.000000 -21.069461
v 14.584898 0.000000 -18.709580
v 15.192603 -0.320000 -19.489146
v 10.606041 -0.320000 -21.947356
v 14.584898 0.000000 -18.709580
v 18.713089 0.000000 -16.039791
v 19.492801 -0.320000 -16.708115
v 15.192603 -0.320000 -19.489146
v 18.713089 0.000000 -16.039791
v 22.092300 0.000000 -12.652803
v 23.012812 -0.320000 -13.180003
v 19.492801 -0.320000 -16.708115
v 22.092300 0.000000 -12.652803
v 24.325373 0.000000 -8.636485
v 25.338930 -0.320000 -8.996339
v 23.012812 -0.320000 -13.180003
v 24.325373 0.000000 -8.636485
v 25.838798 0.000000 -4.405420
v 26.915415 -0.320000 -4.588979
v 25.338930 -0.320000 -8.996339
v 25.838798 0.000000 -4.405420
v 27.019149 0.000000 -0.000000
v 28.144946 -0.320000 -0.000000
v 26.915415 -0.320000 -4.588979
v 28.144946 -0.320000 0.000000
v 28.363658 -0.320000 4.835899
v 28.930931 -1.050000 4.932617
v 28.707845 -1.050000 0.000000
v 28.363658 -0.320000 4.835899
v 26.730365 -0.320000 9.490354
v 27.264972 -1.050000 9.680161
v 28.930931 -1.050000 4.932617
v 26.730365 -0.320000 9.490354
v 23.559459 -0.320000 13.493081
v 24.030649 -1.050000 13.762942
v 27.264972 -1.050000 9.680161
v 23.559459 -0.320000 13.493081
v 19.770068 -0.320000 16.945773
v 20.165469 -1.050000 17.284688
v 24.030649 -1.050000 13.762942
v 19.770068 -0.320000 16.945773
v 15.569905 -0.320000 19.973152
v 15.881304 -1.050000 20.372615
v 20.165469 -1.050000 17.284688
v 15.569905 -0.320000 19.973152
v 10.682354 -0.320000 22.105273
v 10.896001 -1.050000 22.547378
v 15.881304 -1.050000 20.372615
v 10.682354 -0.320000 22.105273
v 5.333568 -0.320000 22.983136
v 5.440240 -1.050000 23.442798
v 10.896001 -1.050000 22.547378
v 5.333568 -0.320000 22.983136
v 0.000000 -0.320000 23.110410
v 0.000000 -1.050000 23.572618
v 5.440240 -1.050000 23.442798
v 0.000000 -0.320000 23.110410
v -5.349214 -0.320000 23.050554
v -5.456198 -1.050000 23.511565
v 0.000000 -1.050000 23.572618
v -5.349214 -0.320000 23.050554
v -10.824231 -0.320000 22.398862
v -11.040716 -1.050000 22.846839
v -5.456198 -1.050000 23.511565
v -10.824231 -0.320000 22.398862
v -15.919331 -0.320000 20.421396
v -16.237717 -1.050000 20.829824
v -11.040716 -1.050000 22.846839
v -15.919331 -0.320000 20.421396
v -20.105179 -0.320000 17.233010
v -20.507282 -1.050000 17.577671
v -16.237717 -1.050000 20.829824
v -20.105179 -0.320000 17.233010
v -23.549486 -0.320000 13.487369
v -24.020476 -1.050000 13.757116
v -20.507282 -1.050000 17.577671
v -23.549486 -0.320000 13.487369
v -26.398324 -0.320000 9.372466
v -26.926290 -1.050000 9.559915
v -24.020476 -1.050000 13.757116
v -26.398324 -0.320000 9.372466
v -28.008561 -0.320000 4.775356
v -28.568732 -1.050000 4.870864
v -26.926290 -1.050000 9.559915
v -28.008561 -0.320000 4.775356
v -27.855054 -0.320000 0.000000
v -28.412155 -1.050000 0.000000
v -28.568732 -1.050000 4.870864
v -27.855054 -0.320000 0.000000
v -26.560318 -0.320000 -4.528436
v -27.091524 -1.050000 -4.619005
v -28.412155 -1.050000 0.000000
v -26.560318 -0.320000 -4.528436
v -25.006889 -0.320000 -8.878451
v -25.507027 -1.050000 -9.056020
v -27.091524 -1.050000 -4.619005
v -25.006889 -0.320000 -8.878451
v -23.002839 -0.320000 -13.174291
v -23.462896 -1.050000 -13.437776
v -25.507027 -1.050000 -9.056020
v -23.002839 -0.320000 -13.174291
v -19.827912 -0.320000 -16.995353
v -20.224470 -1.050000 -17.335260
v -23.462896 -1.050000 -13.437776
v -19.827912 -0.320000 -16.995353
v -15.542028 -0.320000 -19.937390
v -15.852868 -1.050000 -20.336138
v -20.224470 -1.050000 -17.335260
v -15.542028 -0.320000 -19.937390
v -10.747918 -0.320000 -22.240945
v -10.962876 -1.050000 -22.685764
v -15.852868 -1.050000 -20.336138
v -10.747918 -0.320000 -22.240945
v -5.591490 -0.320000 -24.094558
v -5.703320 -1.050000 -24.576449
v -10.962876 -1.050000 -22.685764
v -5.591490 -0.320000 -24.094558
v -0.000000 -0.320000 -24.889590
v -0.000000 -1.050000 -25.387382
v -5.703320 -1.050000 -24.576449
v -0.000000 -0.320000 -24.889590
v 5.575844 -0.320000 -24.027140
v 5.687361 -1.050000 -24.507683
v -0.000000 -1.050000 -25.387382
v 5.575844 -0.320000 -24.027140
v 10.606041 -0.320000 -21.947356
v 10.818162 -1.050000 -22.386303
v 5.687361 -1.050000 -24.507683
v 10.606041 -0.320000 -21.947356
v 15.192603 -0.320000 -19.489146
v 15.496455 -1.050000 -19.878928
v 10.818162 -1.050000 -22.386303
v 15.192603 -0.320000 -19.489146
v 19.492801 -0.320000 -16.708115
v 19.882657 -1.050000 -17.042278
v 15.496455 -1.050000 -19.878928
v 19.492801 -0.320000 -16.708115
v 23.012812 -0.320000 -13.180003
v 23.473069 -1.050000 -13.443603
v 19.882657 -1.050000 -17.042278
v 23.012812 -0.320000 -13.180003
v 25.338930 -0.320000 -8.996339
v 25.845709 -1.050000 -9.176265
v 23.473069 -1.050000 -13.443603
v 25.338930 -0.320000 -8.996339
v 26.915415 -0.320000 -4.588979
v 27.453723 -1.050000 -4.680759
v 25.845709 -1.050000 -9.176265
v 26.915415 -0.320000 -4.588979
v 28.144946 -0.320000 -0.000000
v 28.707845 -1.050000 -0.000000
v 27.453723 -1.050000 -4.680759
v 28.707845 -1.050000 0.000000
v 28.930931 -1.050000 4.932617
v 27.796385 -3.100000 4.739181
v 27.582047 -3.100000 0.000000
v 28.930931 -1.050000 4.932617
v 27.264972 -1.050000 9.680161
v 26.195758 -3.100000 9.300547
v 27.796385 -3.100000 4.739181
v 27.264972 -1.050000 9.680161
v 24.030649 -1.050000 13.762942
v 23.088270 -3.100000 13.223219
v 26.195758 -3.100000 9.300547
v 24.030649 -1.050000 13.762942
v 20.165469 -1.050000 17.284688
v 19.374667 -3.100000 16.606857
v 23.088270 -3.100000 13.223219
v 20.165469 -1.050000 17.284688
v 15.881304 -1.050000 20.372615
v 15.258507 -3.100000 19.573689
v 19.374667 -3.100000 16.606857
v 15.881304 -1.050000 20.372615
v 10.896001 -1.050000 22.547378
v 10.468707 -3.100000 21.663167
v 15.258507 -3.100000 19.573689
v 10.896001 -1.050000 22.547378
v 5.440240 -1.050000 23.442798
v 5.226897 -3.100000 22.523473
v 10.468707 -3.100000 21.663167
v 5.440240 -1.050000 23.442798
v 0.000000 -1.050000 23.572618
v 0.000000 -3.100000 22.648202
v 5.226897 -3.100000 22.523473
v 0.000000 -1.050000 23.572618
v -5.456198 -1.050000 23.511565
v -5.242229 -3.100000 22.589542
v 0.000000 -3.100000 22.648202
v -5.456198 -1.050000 23.511565
v -11.040716 -1.050000 22.846839
v -10.607747 -3.100000 21.950885
v -5.242229 -3.100000 22.589542
v -11.040716 -1.050000 22.846839
v -16.237717 -1.050000 20.829824
v -15.600944 -3.100000 20.012968
v -10.607747 -3.100000 21.950885
v -16.237717 -1.050000 20.829824
v -20.507282 -1.050000 17.577671
v -19.703075 -3.100000 16.888350
v -15.600944 -3.100000 20.012968
v -20.507282 -1.050000 17.577671
v -24.020476 -1.050000 13.757116
v -23.078496 -3.100000 13.217621
v -19.703075 -3.100000 16.888350
v -24.020476 -1.050000 13.757116
v -26.926290 -1.050000 9.559915
v -25.870357 -3.100000 9.185017
v -23.078496 -3.100000 13.217621
v -26.926290 -1.050000 9.559915
v -28.568732 -1.050000 4.870864
v -27.448390 -3.100000 4.679849
v -25.870357 -3.100000 9.185017
v -28.568732 -1.050000 4.870864
v -28.412155 -1.050000 0.000000
v -27.297953 -3.100000 0.000000
v -27.448390 -3.100000 4.679849
v -28.412155 -1.050000 0.000000
v -27.091524 -1.050000 -4.619005
v -26.029112 -3.100000 -4.437868
v -27.297953 -3.100000 0.000000
v -27.091524 -1.050000 -4.619005
v -25.507027 -1.050000 -9.056020
v -24.506751 -3.100000 -8.700882
v -26.029112 -3.100000 -4.437868
v -25.507027 -1.050000 -9.056020
v -23.462896 -1.050000 -13.437776
v -22.542782 -3.100000 -12.910805
v -24.506751 -3.100000 -8.700882
v -23.462896 -1.050000 -13.437776
v -20.224470 -1.050000 -17.335260
v -19.431353 -3.100000 -16.655446
v -22.542782 -3.100000 -12.910805
v -20.224470 -1.050000 -17.335260
v -15.852868 -1.050000 -20.336138
v -15.231187 -3.100000 -19.538642
v -19.431353 -3.100000 -16.655446
v -15.852868 -1.050000 -20.336138
v -10.962876 -1.050000 -22.685764
v -10.532960 -3.100000 -21.796126
v -15.231187 -3.100000 -19.538642
v -10.962876 -1.050000 -22.685764
v -5.703320 -1.050000 -24.576449
v -5.479660 -3.100000 -23.612667
v -10.532960 -3.100000 -21.796126
v -5.703320 -1.050000 -24.576449
v -0.000000 -1.050000 -25.387382
v -0.000000 -3.100000 -24.391798
v -5.479660 -3.100000 -23.612667
v -0.000000 -1.050000 -25.387382
v 5.687361 -1.050000 -24.507683
v 5.464328 -3.100000 -23.546597
v -0.000000 -3.100000 -24.391798
v 5.687361 -1.050000 -24.507683
v 10.818162 -1.050000 -22.386303
v 10.393920 -3.100000 -21.508408
v 5.464328 -3.100000 -23.546597
v 10.818162 -1.050000 -22.386303
v 15.496455 -1.050000 -19.878928
v 14.888750 -3.100000 -19.099363
v 10.393920 -3.100000 -21.508408
v 15.496455 -1.050000 -19.878928
v 19.882657 -1.050000 -17.042278
v 19.102945 -3.100000 -16.373953
v 14.888750 -3.100000 -19.099363
v 19.882657 -1.050000 -17.042278
v 23.473069 -1.050000 -13.443603
v 22.552556 -3.100000 -12.916403
v 19.102945 -3.100000 -16.373953
v 23.473069 -1.050000 -13.443603
v 25.845709 -1.050000 -9.176265
v 24.832151 -3.100000 -8.816412
v 22.552556 -3.100000 -12.916403
v 25.845709 -1.050000 -9.176265
v 27.453723 -1.050000 -4.680759
v 26.377106 -3.100000 -4.497199
v 24.832151 -3.100000 -8.816412
v 27.453723 -1.050000 -4.680759
v 28.707845 -1.050000 -0.000000
v 27.582047 -3.100000 -0.000000
v 26.377106 -3.100000 -4.497199
v 27.582047 -3.100000 0.000000
v 27.796385 -3.100000 4.739181
v 25.810929 -5.550000 4.400668
v 25.611901 -5.550000 0.000000
v 27.796385 -3.100000 4.739181
v 26.195758 -3.100000 9.300547
v 24.324632 -5.550000 8.636222
v 25.810929 -5.550000 4.400668
v 26.195758 -3.100000 9.300547
v 23.088270 -3.100000 13.223219
v 21.439108 -5.550000 12.278703
v 24.324632 -5.550000 8.636222
v 23.088270 -3.100000 13.223219
v 19.374667 -3.100000 16.606857
v 17.990762 -5.550000 15.420653
v 21.439108 -5.550000 12.278703
v 19.374667 -3.100000 16.606857
v 15.258507 -3.100000 19.573689
v 14.168614 -5.550000 18.175568
v 17.990762 -5.550000 15.420653
v 15.258507 -3.100000 19.573689
v 10.468707 -3.100000 21.663167
v 9.720942 -5.550000 20.115798
v 14.168614 -5.550000 18.175568
v 10.468707 -3.100000 21.663167
v 5.226897 -3.100000 22.523473
v 4.853547 -5.550000 20.914653
v 9.720942 -5.550000 20.115798
v 5.226897 -3.100000 22.523473
v 0.000000 -3.100000 22.648202
v 0.000000 -5.550000 21.030473
v 4.853547 -5.550000 20.914653
v 0.000000 -3.100000 22.648202
v -5.242229 -3.100000 22.589542
v -4.867784 -5.550000 20.976004
v 0.000000 -5.550000 21.030473
v -5.242229 -3.100000 22.589542
v -10.607747 -3.100000 21.950885
v -9.850050 -5.550000 20.382964
v -4.867784 -5.550000 20.976004
v -10.607747 -3.100000 21.950885
v -15.600944 -3.100000 20.012968
v -14.486591 -5.550000 18.583470
v -9.850050 -5.550000 20.382964
v -15.600944 -3.100000 20.012968
v -19.703075 -3.100000 16.888350
v -18.295713 -5.550000 15.682039
v -14.486591 -5.550000 18.583470
v -19.703075 -3.100000 16.888350
v -23.078496 -3.100000 13.217621
v -21.430032 -5.550000 12.273505
v -18.295713 -5.550000 15.682039
v -23.078496 -3.100000 13.217621
v -25.870357 -3.100000 9.185017
v -24.022475 -5.550000 8.528944
v -21.430032 -5.550000 12.273505
v -25.870357 -3.100000 9.185017
v -27.448390 -3.100000 4.679849
v -25.487790 -5.550000 4.345574
v -24.022475 -5.550000 8.528944
v -27.448390 -3.100000 4.679849
v -27.297953 -3.100000 0.000000
v -25.348099 -5.550000 0.000000
v -25.487790 -5.550000 4.345574
v -27.297953 -3.100000 0.000000
v -26.029112 -3.100000 -4.437868
v -24.169889 -5.550000 -4.120877
v -25.348099 -5.550000 0.000000
v -26.029112 -3.100000 -4.437868
v -24.506751 -3.100000 -8.700882
v -22.756269 -5.550000 -8.079390
v -24.169889 -5.550000 -4.120877
v -24.506751 -3.100000 -8.700882
v -22.542782 -3.100000 -12.910805
v -20.932583 -5.550000 -11.988604
v -22.756269 -5.550000 -8.079390
v -22.542782 -3.100000 -12.910805
v -19.431353 -3.100000 -16.655446
v -18.043400 -5.550000 -15.465771
v -20.932583 -5.550000 -11.988604
v -19.431353 -3.100000 -16.655446
v -15.231187 -3.100000 -19.538642
v -14.143245 -5.550000 -18.143025
v -18.043400 -5.550000 -15.465771
v -15.231187 -3.100000 -19.538642
v -10.532960 -3.100000 -21.796126
v -9.780605 -5.550000 -20.239260
v -14.143245 -5.550000 -18.143025
v -10.532960 -3.100000 -21.796126
v -5.479660 -3.100000 -23.612667
v -5.088256 -5.550000 -21.926048
v -9.780605 -5.550000 -20.239260
v -5.479660 -3.100000 -23.612667
v -0.000000 -3.100000 -24.391798
v -0.000000 -5.550000 -22.649527
v -5.088256 -5.550000 -21.926048
v -0.000000 -3.100000 -24.391798
v 5.464328 -3.100000 -23.546597
v 5.074018 -5.550000 -21.864697
v -0.000000 -5.550000 -22.649527
v 5.464328 -3.100000 -23.546597
v 10.393920 -3.100000 -21.508408
v 9.651497 -5.550000 -19.972094
v 5.074018 -5.550000 -21.864697
v 10.393920 -3.100000 -21.508408
v 14.888750 -3.100000 -19.099363
v 13.825268 -5.550000 -17.735122
v 9.651497 -5.550000 -19.972094
v 14.888750 -3.100000 -19.099363
v 19.102945 -3.100000 -16.373953
v 17.738449 -5.550000 -15.204385
v 13.825268 -5.550000 -17.735122
v 19.102945 -3.100000 -16.373953
v 22.552556 -3.100000 -12.916403
v 20.941659 -5.550000 -11.993802
v 17.738449 -5.550000 -15.204385
v 22.552556 -3.100000 -12.916403
v 24.832151 -3.100000 -8.816412
v 23.058426 -5.550000 -8.186668
v 20.941659 -5.550000 -11.993802
v 24.832151 -3.100000 -8.816412
v 26.377106 -3.100000 -4.497199
v 24.493027 -5.550000 -4.175971
v 23.058426 -5.550000 -8.186668
v 26.377106 -3.100000 -4.497199
v 27.582047 -3.100000 -0.000000
v 25.611901 -5.550000 -0.000000
v 24.493027 -5.550000 -4.175971
v 25.611901 -5.550000 0.000000
v 25.810929 -5.550000 4.400668
v 23.825472 -7.200000 4.062155
v 23.641755 -7.200000 0.000000
v 25.810929 -5.550000 4.400668
v 24.324632 -5.550000 8.636222
v 22.453507 -7.200000 7.971897
v 23.825472 -7.200000 4.062155
v 24.324632 -5.550000 8.636222
v 21.439108 -5.550000 12.278703
v 19.789946 -7.200000 11.334188
v 22.453507 -7.200000 7.971897
v 21.439108 -5.550000 12.278703
v 17.990762 -5.550000 15.420653
v 16.606857 -7.200000 14.234449
v 19.789946 -7.200000 11.334188
v 17.990762 -5.550000 15.420653
v 14.168614 -5.550000 18.175568
v 13.078721 -7.200000 16.777447
v 16.606857 -7.200000 14.234449
v 14.168614 -5.550000 18.175568
v 9.720942 -5.550000 20.115798
v 8.973178 -7.200000 18.568429
v 13.078721 -7.200000 16.777447
v 9.720942 -5.550000 20.115798
v 4.853547 -5.550000 20.914653
v 4.480197 -7.200000 19.305834
v 8.973178 -7.200000 18.568429
v 4.853547 -5.550000 20.914653
v 0.000000 -5.550000 21.030473
v 0.000000 -7.200000 19.412745
v 4.480197 -7.200000 19.305834
v 0.000000 -5.550000 21.030473
v -4.867784 -5.550000 20.976004
v -4.493339 -7.200000 19.362465
v 0.000000 -7.200000 19.412745
v -4.867784 -5.550000 20.976004
v -9.850050 -5.550000 20.382964
v -9.092354 -7.200000 18.815044
v -4.493339 -7.200000 19.362465
v -9.850050 -5.550000 20.382964
v -14.486591 -5.550000 18.583470
v -13.372238 -7.200000 17.153973
v -9.092354 -7.200000 18.815044
v -14.486591 -5.550000 18.583470
v -18.295713 -5.550000 15.682039
v -16.888350 -7.200000 14.475729
v -13.372238 -7.200000 17.153973
v -18.295713 -5.550000 15.682039
v -21.430032 -5.550000 12.273505
v -19.781568 -7.200000 11.329390
v -16.888350 -7.200000 14.475729
v -21.430032 -5.550000 12.273505
v -24.022475 -5.550000 8.528944
v -22.174592 -7.200000 7.872872
v -19.781568 -7.200000 11.329390
v -24.022475 -5.550000 8.528944
v -25.487790 -5.550000 4.345574
v -23.527191 -7.200000 4.011299
v -22.174592 -7.200000 7.872872
v -25.487790 -5.550000 4.345574
v -25.348099 -5.550000 0.000000
v -23.398245 -7.200000 0.000000
v -23.527191 -7.200000 4.011299
v -25.348099 -5.550000 0.000000
v -24.169889 -5.550000 -4.120877
v -22.310667 -7.200000 -3.803887
v -23.398245 -7.200000 0.000000
v -24.169889 -5.550000 -4.120877
v -22.756269 -5.550000 -8.079390
v -21.005787 -7.200000 -7.457899
v -22.310667 -7.200000 -3.803887
v -22.756269 -5.550000 -8.079390
v -20.932583 -5.550000 -11.988604
v -19.322385 -7.200000 -11.066404
v -21.005787 -7.200000 -7.457899
v -20.932583 -5.550000 -11.988604
v -18.043400 -5.550000 -15.465771
v -16.655446 -7.200000 -14.276096
v -19.322385 -7.200000 -11.066404
v -18.043400 -5.550000 -15.465771
v -14.143245 -5.550000 -18.143025
v -13.055303 -7.200000 -16.747407
v -16.655446 -7.200000 -14.276096
v -14.143245 -5.550000 -18.143025
v -9.780605 -5.550000 -20.239260
v -9.028251 -7.200000 -18.682394
v -13.055303 -7.200000 -16.747407
v -9.780605 -5.550000 -20.239260
v -5.088256 -5.550000 -21.926048
v -4.696851 -7.200000 -20.239429
v -9.028251 -7.200000 -18.682394
v -5.088256 -5.550000 -21.926048
v -0.000000 -5.550000 -22.649527
v -0.000000 -7.200000 -20.907255
v -4.696851 -7.200000 -20.239429
v -0.000000 -5.550000 -22.649527
v 5.074018 -5.550000 -21.864697
v 4.683709 -7.200000 -20.182798
v -0.000000 -7.200000 -20.907255
v 5.074018 -5.550000 -21.864697
v 9.651497 -5.550000 -19.972094
v 8.909074 -7.200000 -18.435779
v 4.683709 -7.200000 -20.182798
v 9.651497 -5.550000 -19.972094
v 13.825268 -5.550000 -17.735122
v 12.761786 -7.200000 -16.370882
v 8.909074 -7.200000 -18.435779
v 13.825268 -5.550000 -17.735122
v 17.738449 -5.550000 -15.204385
v 16.373953 -7.200000 -14.034817
v 12.761786 -7.200000 -16.370882
v 17.738449 -5.550000 -15.204385
v 20.941659 -5.550000 -11.993802
v 19.330762 -7.200000 -11.071202
v 16.373953 -7.200000 -14.034817
v 20.941659 -5.550000 -11.993802
v 23.058426 -5.550000 -8.186668
v 21.284701 -7.200000 -7.556924
v 19.330762 -7.200000 -11.071202
v 23.058426 -5.550000 -8.186668
v 24.493027 -5.550000 -4.175971
v 22.608948 -7.200000 -3.854742
v 21.284701 -7.200000 -7.556924
v 24.493027 -5.550000 -4.175971
v 25.611901 -5.550000 -0.000000
v 23.641755 -7.200000 -0.000000
v 22.608948 -7.200000 -3.854742
v 0.000000 -7.200000 0.000000
v 23.641755 -7.200000 0.000000
v 23.825472 -7.200000 4.062155
v 0.000000 -7.200000 0.000000
v 23.825472 -7.200000 4.062155
v 22.453507 -7.200000 7.971897
v 0.000000 -7.200000 0.000000
v 22.453507 -7.200000 7.971897
v 19.789946 -7.200000 11.334188
v 0.000000 -7.200000 0.000000
v 19.789946 -7.200000 11.334188
v 16.606857 -7.200000 14.234449
v 0.000000 -7.200000 0.000000
v 16.606857 -7.200000 14.234449
v 13.078721 -7.200000 16.777447
v 0.000000 -7.200000 0.000000
v 13.078721 -7.200000 16.777447
v 8.973178 -7.200000 18.568429
v 0.000000 -7.200000 0.000000
v 8.973178 -7.200000 18.568429
v 4.480197 -7.200000 19.305834
v 0.000000 -7.200000 0.000000
v 4.480197 -7.200000 19.305834
v 0.000000 -7.200000 19.412745
v 0.000000 -7.200000 0.000000
v 0.000000 -7.200000 19.412745
v -4.493339 -7.200000 19.362465
v 0.000000 -7.200000 0.000000
v -4.493339 -7.200000 19.362465
v -9.092354 -7.200000 18.815044
v 0.000000 -7.200000 0.000000
v -9.092354 -7.200000 18.815044
v -13.372238 -7.200000 17.153973
v 0.000000 -7.200000 0.000000
v -13.372238 -7.200000 17.153973
v -16.888350 -7.200000 14.475729
v 0.000000 -7.200000 0.000000
v -16.888350 -7.200000 14.475729
v -19.781568 -7.200000 11.329390
v 0.000000 -7.200000 0.000000
v -19.781568 -7.200000 11.329390
v -22.174592 -7.200000 7.872872
v 0.000000 -7.200000 0.000000
v -22.174592 -7.200000 7.872872
v -23.527191 -7.200000 4.011299
v 0.000000 -7.200000 0.000000
v -23.527191 -7.200000 4.011299
v -23.398245 -7.200000 0.000000
v 0.000000 -7.200000 0.000000
v -23.398245 -7.200000 0.000000
v -22.310667 -7.200000 -3.803887
v 0.000000 -7.200000 0.000000
v -22.310667 -7.200000 -3.803887
v -21.005787 -7.200000 -7.457899
v 0.000000 -7.200000 0.000000
v -21.005787 -7.200000 -7.457899
v -19.322385 -7.200000 -11.066404
v 0.000000 -7.200000 0.000000
v -19.322385 -7.200000 -11.066404
v -16.655446 -7.200000 -14.276096
v 0.000000 -7.200000 0.000000
v -16.655446 -7.200000 -14.276096
v -13.055303 -7.200000 -16.747407
v 0.000000 -7.200000 0.000000
v -13.055303 -7.200000 -16.747407
v -9.028251 -7.200000 -18.682394
v 0.000000 -7.200000 0.000000
v -9.028251 -7.200000 -18.682394
v -4.696851 -7.200000 -20.239429
v 0.000000 -7.200000 0.000000
v -4.696851 -7.200000 -20.239429
v -0.000000 -7.200000 -20.907255
v 0.000000 -7.200000 0.000000
v -0.000000 -7.200000 -20.907255
v 4.683709 -7.200000 -20.182798
v 0.000000 -7.200000 0.000000
v 4.683709 -7.200000 -20.182798
v 8.909074 -7.200000 -18.435779
v 0.000000 -7.200000 0.000000
v 8.909074 -7.200000 -18.435779
v 12.761786 -7.200000 -16.370882
v 0.000000 -7.200000 0.000000
v 12.761786 -7.200000 -16.370882
v 16.373953 -7.200000 -14.034817
v 0.000000 -7.200000 0.000000
v 16.373953 -7.200000 -14.034817
v 19.330762 -7.200000 -11.071202
v 0.000000 -7.200000 0.000000
v 19.330762 -7.200000 -11.071202
v 21.284701 -7.200000 -7.556924
v 0.000000 -7.200000 0.000000
v 21.284701 -7.200000 -7.556924
v 22.608948 -7.200000 -3.854742
v 0.000000 -7.200000 0.000000
v 22.608948 -7.200000 -3.854742
v 23.641755 -7.200000 -0.000000
vt 0.500000 0.500000
vt 0.986234 0.596718
vt 0.982485 0.500000
vt 0.500000 0.500000
vt 0.958235 0.689807
vt 0.986234 0.596718
vt 0.500000 0.500000
vt 0.903876 0.769862
vt 0.958235 0.689807
vt 0.500000 0.500000
vt 0.838915 0.838915
vt 0.903876 0.769862
vt 0.500000 0.500000
vt 0.766913 0.899463
vt 0.838915 0.838915
vt 0.500000 0.500000
vt 0.683126 0.942105
vt 0.766913 0.899463
vt 0.500000 0.500000
vt 0.591433 0.959663
vt 0.683126 0.942105
vt 0.500000 0.500000
vt 0.500000 0.962208
vt 0.591433 0.959663
vt 0.500000 0.500000
vt 0.408299 0.961011
vt 0.500000 0.962208
vt 0.500000 0.500000
vt 0.314442 0.947977
vt 0.408299 0.961011
vt 0.500000 0.500000
vt 0.227097 0.908428
vt 0.314442 0.947977
vt 0.500000 0.500000
vt 0.155340 0.844660
vt 0.227097 0.908428
vt 0.500000 0.500000
vt 0.096295 0.769747
vt 0.155340 0.844660
vt 0.500000 0.500000
vt 0.047457 0.687449
vt 0.096295 0.769747
vt 0.500000 0.500000
vt 0.019853 0.595507
vt 0.047457 0.687449
vt 0.500000 0.500000
vt 0.022485 0.500000
vt 0.019853 0.595507
vt 0.500000 0.500000
vt 0.044680 0.409431
vt 0.022485 0.500000
vt 0.500000 0.500000
vt 0.071310 0.322431
vt 0.044680 0.409431
vt 0.500000 0.500000
vt 0.105666 0.236514
vt 0.071310 0.322431
vt 0.500000 0.500000
vt 0.160093 0.160093
vt 0.105666 0.236514
vt 0.500000 0.500000
vt 0.233565 0.101252
vt 0.160093 0.160093
vt 0.500000 0.500000
vt 0.315750 0.055181
vt 0.233565 0.101252
vt 0.500000 0.500000
vt 0.404146 0.018109
vt 0.315750 0.055181
vt 0.500000 0.500000
vt 0.500000 0.002208
vt 0.404146 0.018109
vt 0.500000 0.500000
vt 0.595586 0.019457
vt 0.500000 0.002208
vt 0.500000 0.500000
vt 0.681818 0.061053
vt 0.595586 0.019457
vt 0.500000 0.500000
vt 0.760445 0.110217
vt 0.681818 0.061053
vt 0.500000 0.500000
vt 0.834162 0.165838
vt 0.760445 0.110217
vt 0.500000 0.500000
vt 0.894505 0.236400
vt 0.834162 0.165838
vt 0.500000 0.500000
vt 0.934382 0.320073
vt 0.894505 0.236400
vt 0.500000 0.500000
vt 0.961407 0.408220
vt 0.934382 0.320073
vt 0.500000 0.500000
vt 0.982485 0.500000
vt 0.961407 0.408220
vt 0.000000 0.000000
vt 0.031250 0.000000
vt 0.031250 1.000000
vt 0.000000 1.000000
vt 0.031250 0.000000
vt 0.062500 0.000000
vt 0.062500 1.000000
vt 0.031250 1.000000
vt 0.062500 0.000000
vt 0.093750 0.000000
vt 0.093750 1.000000
vt 0.062500 1.000000
vt 0.093750 0.000000
vt 0.125000 0.000000
vt 0.125000 1.000000
vt 0.093750 1.000000
vt 0.125000 0.000000
vt 0.156250 0.000000
vt 0.156250 1.000000
vt 0.125000 1.000000
vt 0.156250 0.000000
vt 0.187500 0.000000
vt 0.187500 1.000000
vt 0.156250 1.000000
vt 0.187500 0.000000
vt 0.218750 0.000000
vt 0.218750 1.000000
vt 0.187500 1.000000
vt 0.218750 0.000000
vt 0.250000 0.000000
vt 0.250000 1.000000
vt 0.218750 1.000000
vt 0.250000 0.000000
vt 0.281250 0.000000
vt 0.281250 1.000000
vt 0.250000 1.000000
vt 0.281250 0.000000
vt 0.312500 0.000000
vt 0.312500 1.000000
vt 0.281250 1.000000
vt 0.312500 0.000000
vt 0.343750 0.000000
vt 0.343750 1.000000
vt 0.312500 1.000000
vt 0.343750 0.000000
vt 0.375000 0.000000
vt 0.375000 1.000000
vt 0.343750 1.000000
vt 0.375000 0.000000
vt 0.406250 0.000000
vt 0.406250 1.000000
vt 0.375000 1.000000
vt 0.406250 0.000000
vt 0.437500 0.000000
vt 0.437500 1.000000
vt 0.406250 1.000000
vt 0.437500 0.000000
vt 0.468750 0.000000
vt 0.468750 1.000000
vt 0.437500 1.000000
vt 0.468750 0.000000
vt 0.500000 0.000000
vt 0.500000 1.000000
vt 0.468750 1.000000
vt 0.500000 0.000000
vt 0.531250 0.000000
vt 0.531250 1.000000
vt 0.500000 1.000000
vt 0.531250 0.000000
vt 0.562500 0.000000
vt 0.562500 1.000000
vt 0.531250 1.000000
vt 0.562500 0.000000
vt 0.593750 0.000000
vt 0.593750 1.000000
vt 0.562500 1.000000
vt 0.593750 0.000000
vt 0.625000 0.000000
vt 0.625000 1.000000
vt 0.593750 1.000000
vt 0.625000 0.000000
vt 0.656250 0.000000
vt 0.656250 1.000000
vt 0.625000 1.000000
vt 0.656250 0.000000
vt 0.687500 0.000000
vt 0.687500 1.000000
vt 0.656250 1.000000
vt 0.687500 0.000000
vt 0.718750 0.000000
vt 0.718750 1.000000
vt 0.687500 1.000000
vt 0.718750 0.000000
vt 0.750000 0.000000
vt 0.750000 1.000000
vt 0.718750 1.000000
vt 0.750000 0.000000
vt 0.781250 0.000000
vt 0.781250 1.000000
vt 0.750000 1.000000
vt 0.781250 0.000000
vt 0.812500 0.000000
vt 0.812500 1.000000
vt 0.781250 1.000000
vt 0.812500 0.000000
vt 0.843750 0.000000
vt 0.843750 1.000000
vt 0.812500 1.000000
vt 0.843750 0.000000
vt 0.875000 0.000000
vt 0.875000 1.000000
vt 0.843750 1.000000
vt 0.875000 0.000000
vt 0.906250 0.000000
vt 0.906250 1.000000
vt 0.875000 1.000000
vt 0.906250 0.000000
vt 0.937500 0.000000
vt 0.937500 1.000000
vt 0.906250 1.000000
vt 0.937500 0.000000
vt 0.968750 0.000000
vt 0.968750 1.000000
vt 0.937500 1.000000
vt 0.968750 0.000000
vt 1.000000 0.000000
vt 1.000000 1.000000
vt 0.968750 1.000000
vt 0.000000 0.000000
vt 0.031250 0.000000
vt 0.031250 1.000000
vt 0.000000 1.000000
vt 0.031250 0.000000
vt 0.062500 0.000000
vt 0.062500 1.000000
vt 0.031250 1.000000
vt 0.062500 0.000000
vt 0.093750 0.000000
vt 0.093750 1.000000
vt 0.062500 1.000000
vt 0.093750 0.000000
vt 0.125000 0.000000
vt 0.125000 1.000000
vt 0.093750 1.000000
vt 0.125000 0.000000
vt 0.156250 0.000000
vt 0.156250 1.000000
vt 0.125000 1.000000
vt 0.156250 0.000000
vt 0.187500 0.000000
vt 0.187500 1.000000
vt 0.156250 1.000000
vt 0.187500 0.000000
vt 0.218750 0.000000
vt 0.218750 1.000000
vt 0.187500 1.000000
vt 0.218750 0.000000
vt 0.250000 0.000000
vt 0.250000 1.000000
vt 0.218750 1.000000
vt 0.250000 0.000000
vt 0.281250 0.000000
vt 0.281250 1.000000
vt 0.250000 1.000000
vt 0.281250 0.000000
vt 0.312500 0.000000
vt 0.312500 1.000000
vt 0.281250 1.000000
vt 0.312500 0.000000
vt 0.343750 0.000000
vt 0.343750 1.000000
vt 0.312500 1.000000
vt 0.343750 0.000000
vt 0.375000 0.000000
vt 0.375000 1.000000
vt 0.343750 1.000000
vt 0.375000 0.000000
vt 0.406250 0.000000
vt 0.406250 1.000000
vt 0.375000 1.000000
vt 0.406250 0.000000
vt 0.437500 0.000000
vt 0.437500 1.000000
vt 0.406250 1.000000
vt 0.437500 0.000000
vt 0.468750 0.000000
vt 0.468750 1.000000
vt 0.437500 1.000000
vt 0.468750 0.000000
vt 0.500000 0.000000
vt 0.500000 1.000000
vt 0.468750 1.000000
vt 0.500000 0.000000
vt 0.531250 0.000000
vt 0.531250 1.000000
vt 0.500000 1.000000
vt 0.531250 0.000000
vt 0.562500 0.000000
vt 0.562500 1.000000
vt 0.531250 1.000000
vt 0.562500 0.000000
vt 0.593750 0.000000
vt 0.593750 1.000000
vt 0.562500 1.000000
vt 0.593750 0.000000
vt 0.625000 0.000000
vt 0.625000 1.000000
vt 0.593750 1.000000
vt 0.625000 0.000000
vt 0.656250 0.000000
vt 0.656250 1.000000
vt 0.625000 1.000000
vt 0.656250 0.000000
vt 0.687500 0.000000
vt 0.687500 1.000000
vt 0.656250 1.000000
vt 0.687500 0.000000
vt 0.718750 0.000000
vt 0.718750 1.000000
vt 0.687500 1.000000
vt 0.718750 0.000000
vt 0.750000 0.000000
vt 0.750000 1.000000
vt 0.718750 1.000000
vt 0.750000 0.000000
vt 0.781250 0.000000
vt 0.781250 1.000000
vt 0.750000 1.000000
vt 0.781250 0.000000
vt 0.812500 0.000000
vt 0.812500 1.000000
vt 0.781250 1.000000
vt 0.812500 0.000000
vt 0.843750 0.000000
vt 0.843750 1.000000
vt 0.812500 1.000000
vt 0.843750 0.000000
vt 0.875000 0.000000
vt 0.875000 1.000000
vt 0.843750 1.000000
vt 0.875000 0.000000
vt 0.906250 0.000000
vt 0.906250 1.000000
vt 0.875000 1.000000
vt 0.906250 0.000000
vt 0.937500 0.000000
vt 0.937500 1.000000
vt 0.906250 1.000000
vt 0.937500 0.000000
vt 0.968750 0.000000
vt 0.968750 1.000000
vt 0.937500 1.000000
vt 0.968750 0.000000
vt 1.000000 0.000000
vt 1.000000 1.000000
vt 0.968750 1.000000
vt 0.000000 0.000000
vt 0.031250 0.000000
vt 0.031250 1.000000
vt 0.000000 1.000000
vt 0.031250 0.000000
vt 0.062500 0.000000
vt 0.062500 1.000000
vt 0.031250 1.000000
vt 0.062500 0.000000
vt 0.093750 0.000000
vt 0.093750 1.000000
vt 0.062500 1.000000
vt 0.093750 0.000000
vt 0.125000 0.000000
vt 0.125000 1.000000
vt 0.093750 1.000000
vt 0.125000 0.000000
vt 0.156250 0.000000
vt 0.156250 1.000000
vt 0.125000 1.000000
vt 0.156250 0.000000
vt 0.187500 0.000000
vt 0.187500 1.000000
vt 0.156250 1.000000
vt 0.187500 0.000000
vt 0.218750 0.000000
vt 0.218750 1.000000
vt 0.187500 1.000000
vt 0.218750 0.000000
vt 0.250000 0.000000
vt 0.250000 1.000000
vt 0.218750 1.000000
vt 0.250000 0.000000
vt 0.281250 0.000000
vt 0.281250 1.000000
vt 0.250000 1.000000
vt 0.281250 0.000000
vt 0.312500 0.000000
vt 0.312500 1.000000
vt 0.281250 1.000000
vt 0.312500 0.000000
vt 0.343750 0.000000
vt 0.343750 1.000000
vt 0.312500 1.000000
vt 0.343750 0.000000
vt 0.375000 0.000000
vt 0.375000 1.000000
vt 0.343750 1.000000
vt 0.375000 0.000000
vt 0.406250 0.000000
vt 0.406250 1.000000
vt 0.375000 1.000000
vt 0.406250 0.000000
vt 0.437500 0.000000
vt 0.437500 1.000000
vt 0.406250 1.000000
vt 0.437500 0.000000
vt 0.468750 0.000000
vt 0.468750 1.000000
vt 0.437500 1.000000
vt 0.468750 0.000000
vt 0.500000 0.000000
vt 0.500000 1.000000
vt 0.468750 1.000000
vt 0.500000 0.000000
vt 0.531250 0.000000
vt 0.531250 1.000000
vt 0.500000 1.000000
vt 0.531250 0.000000
vt 0.562500 0.000000
vt 0.562500 1.000000
vt 0.531250 1.000000
vt 0.562500 0.000000
vt 0.593750 0.000000
vt 0.593750 1.000000
vt 0.562500 1.000000
vt 0.593750 0.000000
vt 0.625000 0.000000
vt 0.625000 1.000000
vt 0.593750 1.000000
vt 0.625000 0.000000
vt 0.656250 0.000000
vt 0.656250 1.000000
vt 0.625000 1.000000
vt 0.656250 0.000000
vt 0.687500 0.000000
vt 0.687500 1.000000
vt 0.656250 1.000000
vt 0.687500 0.000000
vt 0.718750 0.000000
vt 0.718750 1.000000
vt 0.687500 1.000000
vt 0.718750 0.000000
vt 0.750000 0.000000
vt 0.750000 1.000000
vt 0.718750 1.000000
vt 0.750000 0.000000
vt 0.781250 0.000000
vt 0.781250 1.000000
vt 0.750000 1.000000
vt 0.781250 0.000000
vt 0.812500 0.000000
vt 0.812500 1.000000
vt 0.781250 1.000000
vt 0.812500 0.000000
vt 0.843750 0.000000
vt 0.843750 1.000000
vt 0.812500 1.000000
vt 0.843750 0.000000
vt 0.875000 0.000000
vt 0.875000 1.000000
vt 0.843750 1.000000
vt 0.875000 0.000000
vt 0.906250 0.000000
vt 0.906250 1.000000
vt 0.875000 1.000000
vt 0.906250 0.000000
vt 0.937500 0.000000
vt 0.937500 1.000000
vt 0.906250 1.000000
vt 0.937500 0.000000
vt 0.968750 0.000000
vt 0.968750 1.000000
vt 0.937500 1.000000
vt 0.968750 0.000000
vt 1.000000 0.000000
vt 1.000000 1.000000
vt 0.968750 1.000000
vt 0.000000 0.000000
vt 0.031250 0.000000
vt 0.031250 1.000000
vt 0.000000 1.000000
vt 0.031250 0.000000
vt 0.062500 0.000000
vt 0.062500 1.000000
vt 0.031250 1.000000
vt 0.062500 0.000000
vt 0.093750 0.000000
vt 0.093750 1.000000
vt 0.062500 1.000000
vt 0.093750 0.000000
vt 0.125000 0.000000
vt 0.125000 1.000000
vt 0.093750 1.000000
vt 0.125000 0.000000
vt 0.156250 0.000000
vt 0.156250 1.000000
vt 0.125000 1.000000
vt 0.156250 0.000000
vt 0.187500 0.000000
vt 0.187500 1.000000
vt 0.156250 1.000000
vt 0.187500 0.000000
vt 0.218750 0.000000
vt 0.218750 1.000000
vt 0.187500 1.000000
vt 0.218750 0.000000
vt 0.250000 0.000000
vt 0.250000 1.000000
vt 0.218750 1.000000
vt 0.250000 0.000000
vt 0.281250 0.000000
vt 0.281250 1.000000
vt 0.250000 1.000000
vt 0.281250 0.000000
vt 0.312500 0.000000
vt 0.312500 1.000000
vt 0.281250 1.000000
vt 0.312500 0.000000
vt 0.343750 0.000000
vt 0.343750 1.000000
vt 0.312500 1.000000
vt 0.343750 0.000000
vt 0.375000 0.000000
vt 0.375000 1.000000
vt 0.343750 1.000000
vt 0.375000 0.000000
vt 0.406250 0.000000
vt 0.406250 1.000000
vt 0.375000 1.000000
vt 0.406250 0.000000
vt 0.437500 0.000000
vt 0.437500 1.000000
vt 0.406250 1.000000
vt 0.437500 0.000000
vt 0.468750 0.000000
vt 0.468750 1.000000
vt 0.437500 1.000000
vt 0.468750 0.000000
vt 0.500000 0.000000
vt 0.500000 1.000000
vt 0.468750 1.000000
vt 0.500000 0.000000
vt 0.531250 0.000000
vt 0.531250 1.000000
vt 0.500000 1.000000
vt 0.531250 0.000000
vt 0.562500 0.000000
vt 0.562500 1.000000
vt 0.531250 1.000000
vt 0.562500 0.000000
vt 0.593750 0.000000
vt 0.593750 1.000000
vt 0.562500 1.000000
vt 0.593750 0.000000
vt 0.625000 0.000000
vt 0.625000 1.000000
vt 0.593750 1.000000
vt 0.625000 0.000000
vt 0.656250 0.000000
vt 0.656250 1.000000
vt 0.625000 1.000000
vt 0.656250 0.000000
vt 0.687500 0.000000
vt 0.687500 1.000000
vt 0.656250 1.000000
vt 0.687500 0.000000
vt 0.718750 0.000000
vt 0.718750 1.000000
vt 0.687500 1.000000
vt 0.718750 0.000000
vt 0.750000 0.000000
vt 0.750000 1.000000
vt 0.718750 1.000000
vt 0.750000 0.000000
vt 0.781250 0.000000
vt 0.781250 1.000000
vt 0.750000 1.000000
vt 0.781250 0.000000
vt 0.812500 0.000000
vt 0.812500 1.000000
vt 0.781250 1.000000
vt 0.812500 0.000000
vt 0.843750 0.000000
vt 0.843750 1.000000
vt 0.812500 1.000000
vt 0.843750 0.000000
vt 0.875000 0.000000
vt 0.875000 1.000000
vt 0.843750 1.000000
vt 0.875000 0.000000
vt 0.906250 0.000000
vt 0.906250 1.000000
vt 0.875000 1.000000
vt 0.906250 0.000000
vt 0.937500 0.000000
vt 0.937500 1.000000
vt 0.906250 1.000000
vt 0.937500 0.000000
vt 0.968750 0.000000
vt 0.968750 1.000000
vt 0.937500 1.000000
vt 0.968750 0.000000
vt 1.000000 0.000000
vt 1.000000 1.000000
vt 0.968750 1.000000
vt 0.000000 0.000000
vt 0.031250 0.000000
vt 0.031250 1.000000
vt 0.000000 1.000000
vt 0.031250 0.000000
vt 0.062500 0.000000
vt 0.062500 1.000000
vt 0.031250 1.000000
vt 0.062500 0.000000
vt 0.093750 0.000000
vt 0.093750 1.000000
vt 0.062500 1.000000
vt 0.093750 0.000000
vt 0.125000 0.000000
vt 0.125000 1.000000
vt 0.093750 1.000000
vt 0.125000 0.000000
vt 0.156250 0.000000
vt 0.156250 1.000000
vt 0.125000 1.000000
vt 0.156250 0.000000
vt 0.187500 0.000000
vt 0.187500 1.000000
vt 0.156250 1.000000
vt 0.187500 0.000000
vt 0.218750 0.000000
vt 0.218750 1.000000
vt 0.187500 1.000000
vt 0.218750 0.000000
vt 0.250000 0.000000
vt 0.250000 1.000000
vt 0.218750 1.000000
vt 0.250000 0.000000
vt 0.281250 0.000000
vt 0.281250 1.000000
vt 0.250000 1.000000
vt 0.281250 0.000000
vt 0.312500 0.000000
vt 0.312500 1.000000
vt 0.281250 1.000000
vt 0.312500 0.000000
vt 0.343750 0.000000
vt 0.343750 1.000000
vt 0.312500 1.000000
vt 0.343750 0.000000
vt 0.375000 0.000000
vt 0.375000 1.000000
vt 0.343750 1.000000
vt 0.375000 0.000000
vt 0.406250 0.000000
vt 0.406250 1.000000
vt 0.375000 1.000000
vt 0.406250 0.000000
vt 0.437500 0.000000
vt 0.437500 1.000000
vt 0.406250 1.000000
vt 0.437500 0.000000
vt 0.468750 0.000000
vt 0.468750 1.000000
vt 0.437500 1.000000
vt 0.468750 0.000000
vt 0.500000 0.000000
vt 0.500000 1.000000
vt 0.468750 1.000000
vt 0.500000 0.000000
vt 0.531250 0.000000
vt 0.531250 1.000000
vt 0.500000 1.000000
vt 0.531250 0.000000
vt 0.562500 0.000000
vt 0.562500 1.000000
vt 0.531250 1.000000
vt 0.562500 0.000000
vt 0.593750 0.000000
vt 0.593750 1.000000
vt 0.562500 1.000000
vt 0.593750 0.000000
vt 0.625000 0.000000
vt 0.625000 1.000000
vt 0.593750 1.000000
vt 0.625000 0.000000
vt 0.656250 0.000000
vt 0.656250 1.000000
vt 0.625000 1.000000
vt 0.656250 0.000000
vt 0.687500 0.000000
vt 0.687500 1.000000
vt 0.656250 1.000000
vt 0.687500 0.000000
vt 0.718750 0.000000
vt 0.718750 1.000000
vt 0.687500 1.000000
vt 0.718750 0.000000
vt 0.750000 0.000000
vt 0.750000 1.000000
vt 0.718750 1.000000
vt 0.750000 0.000000
vt 0.781250 0.000000
vt 0.781250 1.000000
vt 0.750000 1.000000
vt 0.781250 0.000000
vt 0.812500 0.000000
vt 0.812500 1.000000
vt 0.781250 1.000000
vt 0.812500 0.000000
vt 0.843750 0.000000
vt 0.843750 1.000000
vt 0.812500 1.000000
vt 0.843750 0.000000
vt 0.875000 0.000000
vt 0.875000 1.000000
vt 0.843750 1.000000
vt 0.875000 0.000000
vt 0.906250 0.000000
vt 0.906250 1.000000
vt 0.875000 1.000000
vt 0.906250 0.000000
vt 0.937500 0.000000
vt 0.937500 1.000000
vt 0.906250 1.000000
vt 0.937500 0.000000
vt 0.968750 0.000000
vt 0.968750 1.000000
vt 0.937500 1.000000
vt 0.968750 0.000000
vt 1.000000 0.000000
vt 1.000000 1.000000
vt 0.968750 1.000000
vt 0.500000 0.500000
vt 1.002588 0.500000
vt 1.006494 0.600748
vt 0.500000 0.500000
vt 1.006494 0.600748
vt 0.977328 0.697716
vt 0.500000 0.500000
vt 0.977328 0.697716
vt 0.920705 0.781106
vt 0.500000 0.500000
vt 0.920705 0.781106
vt 0.853037 0.853037
vt 0.500000 0.500000
vt 0.853037 0.853037
vt 0.778034 0.916107
vt 0.500000 0.500000
vt 0.778034 0.916107
vt 0.690756 0.960527
vt 0.500000 0.500000
vt 0.690756 0.960527
vt 0.595242 0.978815
vt 0.500000 0.500000
vt 0.595242 0.978815
vt 0.500000 0.981467
vt 0.500000 0.500000
vt 0.500000 0.981467
vt 0.404478 0.980220
vt 0.500000 0.500000
vt 0.404478 0.980220
vt 0.306710 0.966643
vt 0.500000 0.500000
vt 0.306710 0.966643
vt 0.215726 0.925446
vt 0.500000 0.500000
vt 0.215726 0.925446
vt 0.140979 0.859021
vt 0.500000 0.500000
vt 0.140979 0.859021
vt 0.079473 0.780987
vt 0.500000 0.500000
vt 0.079473 0.780987
vt 0.028601 0.695260
vt 0.500000 0.500000
vt 0.028601 0.695260
vt -0.000153 0.599487
vt 0.500000 0.500000
vt -0.000153 0.599487
vt 0.002588 0.500000
vt 0.500000 0.500000
vt 0.002588 0.500000
vt 0.025709 0.405658
vt 0.500000 0.500000
vt 0.025709 0.405658
vt 0.053448 0.315032
vt 0.500000 0.500000
vt 0.053448 0.315032
vt 0.089235 0.225536
vt 0.500000 0.500000
vt 0.089235 0.225536
vt 0.145930 0.145930
vt 0.500000 0.500000
vt 0.145930 0.145930
vt 0.222464 0.084638
vt 0.500000 0.500000
vt 0.222464 0.084638
vt 0.308073 0.036647
vt 0.500000 0.500000
vt 0.308073 0.036647
vt 0.400152 -0.001970
vt 0.500000 0.500000
vt 0.400152 -0.001970
vt 0.500000 -0.018533
vt 0.500000 0.500000
vt 0.500000 -0.018533
vt 0.599569 -0.000565
vt 0.500000 0.500000
vt 0.599569 -0.000565
vt 0.689394 0.042763
vt 0.500000 0.500000
vt 0.689394 0.042763
vt 0.771296 0.093976
vt 0.500000 0.500000
vt 0.771296 0.093976
vt 0.848086 0.151914
vt 0.500000 0.500000
vt 0.848086 0.151914
vt 0.910943 0.225417
vt 0.500000 0.500000
vt 0.910943 0.225417
vt 0.952481 0.312576
vt 0.500000 0.500000
vt 0.952481 0.312576
vt 0.980632 0.404396
vt 0.500000 0.500000
vt 0.980632 0.404396
vt 1.002588 0.500000
vn 0.000000 1.000000 0.000000
vn 0.000000 1.000000 0.000000
vn 0.000000 1.000000 0.000000
vn 0.000000 1.000000 0.000000
vn 0.000000 1.000000 0.000000
vn 0.000000 1.000000 0.000000
vn 0.000000 1.000000 0.000000
vn 0.000000 1.000000 0.000000
vn 0.000000 1.000000 0.000000
vn 0.000000 1.000000 0.000000
vn 0.000000 1.000000 0.000000
vn 0.000000 1.000000 0.000000
vn 0.000000 1.000000 0.000000
vn 0.000000 1.000000 0.000000
vn 0.000000 1.000000 0.000000
vn 0.000000 1.000000 0.000000
vn 0.000000 1.000000 0.000000
vn 0.000000 1.000000 0.000000
vn 0.000000 1.000000 0.000000
vn 0.000000 1.000000 0.000000
vn 0.000000 1.000000 0.000000
vn 0.000000 1.000000 0.000000
vn 0.000000 1.000000 0.000000
vn 0.000000 1.000000 0.000000
vn 0.000000 1.000000 -0.000000
vn 0.000000 1.000000 -0.000000
vn 0.000000 1.000000 -0.000000
vn 0.000000 1.000000 0.000000
vn 0.000000 1.000000 0.000000
vn 0.000000 1.000000 0.000000
vn 0.000000 1.000000 0.000000
vn 0.000000 1.000000 0.000000
vn 0.000000 1.000000 0.000000
vn 0.000000 1.000000 0.000000
vn 0.000000 1.000000 0.000000
vn 0.000000 1.000000 0.000000
vn 0.000000 1.000000 0.000000
vn 0.000000 1.000000 0.000000
vn 0.000000 1.000000 0.000000
vn 0.000000 1.000000 0.000000
vn 0.000000 1.000000 0.000000
vn 0.000000 1.000000 0.000000
vn 0.000000 1.000000 0.000000
vn 0.000000 1.000000 0.000000
vn 0.000000 1.000000 0.000000
vn 0.000000 1.000000 0.000000
vn 0.000000 1.000000 0.000000
vn 0.000000 1.000000 0.000000
vn 0.000000 1.000000 0.000000
vn 0.000000 1.000000 0.000000
vn 0.000000 1.000000 0.000000
vn 0.000000 1.000000 0.000000
vn 0.000000 1.000000 0.000000
vn 0.000000 1.000000 0.000000
vn 0.000000 1.000000 0.000000
vn 0.000000 1.000000 0.000000
vn 0.000000 1.000000 0.000000
vn 0.000000 1.000000 0.000000
vn 0.000000 1.000000 0.000000
vn 0.000000 1.000000 0.000000
vn 0.000000 1.000000 0.000000
vn 0.000000 1.000000 0.000000
vn 0.000000 1.000000 0.000000
vn 0.000000 1.000000 0.000000
vn 0.000000 1.000000 0.000000
vn 0.000000 1.000000 0.000000
vn 0.000000 1.000000 0.000000
vn 0.000000 1.000000 0.000000
vn 0.000000 1.000000 0.000000
vn 0.000000 1.000000 0.000000
vn 0.000000 1.000000 0.000000
vn 0.000000 1.000000 0.000000
vn 0.000000 1.000000 0.000000
vn 0.000000 1.000000 0.000000
vn 0.000000 1.000000 0.000000
vn 0.000000 1.000000 0.000000
vn 0.000000 1.000000 0.000000
vn 0.000000 1.000000 0.000000
vn 0.000000 1.000000 0.000000
vn 0.000000 1.000000 0.000000
vn 0.000000 1.000000 0.000000
vn 0.000000 1.000000 0.000000
vn 0.000000 1.000000 0.000000
vn 0.000000 1.000000 0.000000
vn 0.000000 1.000000 0.000000
vn 0.000000 1.000000 0.000000
vn 0.000000 1.000000 0.000000
vn 0.000000 1.000000 0.000000
vn 0.000000 1.000000 0.000000
vn 0.000000 1.000000 0.000000
vn 0.000000 1.000000 0.000000
vn 0.000000 1.000000 0.000000
vn 0.000000 1.000000 0.000000
vn 0.000000 1.000000 0.000000
vn 0.000000 1.000000 0.000000
vn 0.000000 1.000000 0.000000
vn 0.273391 0.961823 -0.012365
vn 0.273391 0.961823 -0.012365
vn 0.273391 0.961823 -0.012365
vn 0.273391 0.961823 -0.012365
vn 0.256137 0.962453 0.089881
vn 0.256137 0.962453 0.089881
vn 0.256137 0.962453 0.089881
vn 0.256137 0.962453 0.089881
vn 0.223859 0.958352 0.177338
vn 0.223859 0.958352 0.177338
vn 0.223859 0.958352 0.177338
vn 0.223859 0.958352 0.177338
vn 0.199179 0.955270 0.218602
vn 0.199179 0.955270 0.218602
vn 0.199179 0.955270 0.218602
vn 0.199179 0.955270 0.218602
vn 0.176244 0.953493 0.244520
vn 0.176244 0.953493 0.244520
vn 0.176244 0.953493 0.244520
vn 0.176244 0.953493 0.244520
vn 0.123964 0.950727 0.284167
vn 0.123964 0.950727 0.284167
vn 0.123964 0.950727 0.284167
vn 0.123964 0.950727 0.284167
vn 0.052106 0.946832 0.317482
vn 0.052106 0.946832 0.317482
vn 0.052106 0.946832 0.317482
vn 0.052106 0.946832 0.317482
vn 0.007806 0.944954 0.327109
vn 0.007806 0.944954 0.327109
vn 0.007806 0.944954 0.327109
vn 0.007806 0.944954 0.327109
vn -0.003660 0.944977 0.327117
vn -0.003660 0.944977 0.327117
vn -0.003660 0.944977 0.327117
vn -0.003660 0.944977 0.327117
vn -0.038059 0.946739 0.319746
vn -0.038059 0.946739 0.319746
vn -0.038059 0.946739 0.319746
vn -0.038059 0.946739 0.319746
vn -0.111088 0.951700 0.286227
vn -0.111088 0.951700 0.286227
vn -0.111088 0.951700 0.286227
vn -0.111088 0.951700 0.286227
vn -0.178881 0.955432 0.234842
vn -0.178881 0.955432 0.234842
vn -0.178881 0.955432 0.234842
vn -0.178881 0.955432 0.234842
vn -0.213000 0.957219 0.195865
vn -0.213000 0.957219 0.195865
vn -0.213000 0.957219 0.195865
vn -0.213000 0.957219 0.195865
vn -0.233261 0.958911 0.161492
vn -0.233261 0.958911 0.161492
vn -0.233261 0.958911 0.161492
vn -0.233261 0.958911 0.161492
vn -0.259169 0.961556 0.090779
vn -0.259169 0.961556 0.090779
vn -0.259169 0.961556 0.090779
vn -0.259169 0.961556 0.090779
vn -0.276031 0.961108 -0.008873
vn -0.276031 0.961108 -0.008873
vn -0.276031 0.961108 -0.008873
vn -0.276031 0.961108 -0.008873
vn -0.275186 0.958166 -0.078679
vn -0.275186 0.958166 -0.078679
vn -0.275186 0.958166 -0.078679
vn -0.275186 0.958166 -0.078679
vn -0.271830 0.957437 -0.097073
vn -0.271830 0.957437 -0.097073
vn -0.271830 0.957437 -0.097073
vn -0.271830 0.957437 -0.097073
vn -0.262672 0.957072 -0.122539
vn -0.262672 0.957072 -0.122539
vn -0.262672 0.957072 -0.122539
vn -0.262672 0.957072 -0.122539
vn -0.225308 0.956132 -0.187209
vn -0.225308 0.956132 -0.187209
vn -0.225308 0.956132 -0.187209
vn -0.225308 0.956132 -0.187209
vn -0.171037 0.953239 -0.249162
vn -0.171037 0.953239 -0.249162
vn -0.171037 0.953239 -0.249162
vn -0.171037 0.953239 -0.249162
vn -0.133440 0.951351 -0.277713
vn -0.133440 0.951351 -0.277713
vn -0.133440 0.951351 -0.277713
vn -0.133440 0.951351 -0.277713
vn -0.104750 0.950850 -0.291397
vn -0.104750 0.950850 -0.291397
vn -0.104750 0.950850 -0.291397
vn -0.104750 0.950850 -0.291397
vn -0.043468 0.951131 -0.305712
vn -0.043468 0.951131 -0.305712
vn -0.043468 0.951131 -0.305712
vn -0.043468 0.951131 -0.305712
vn 0.047278 0.950966 -0.305659
vn 0.047278 0.950966 -0.305659
vn 0.047278 0.950966 -0.305659
vn 0.047278 0.950966 -0.305659
vn 0.119329 0.949981 -0.288611
vn 0.119329 0.949981 -0.288611
vn 0.119329 0.949981 -0.288611
vn 0.119329 0.949981 -0.288611
vn 0.147422 0.950057 -0.275062
vn 0.147422 0.950057 -0.275062
vn 0.147422 0.950057 -0.275062
vn 0.147422 0.950057 -0.275062
vn 0.167850 0.951034 -0.259539
vn 0.167850 0.951034 -0.259539
vn 0.167850 0.951034 -0.259539
vn 0.167850 0.951034 -0.259539
vn 0.211153 0.954481 -0.210669
vn 0.211153 0.954481 -0.210669
vn 0.211153 0.954481 -0.210669
vn 0.211153 0.954481 -0.210669
vn 0.252433 0.957381 -0.140353
vn 0.252433 0.957381 -0.140353
vn 0.252433 0.957381 -0.140353
vn 0.252433 0.957381 -0.140353
vn 0.268510 0.958477 -0.096044
vn 0.268510 0.958477 -0.096044
vn 0.268510 0.958477 -0.096044
vn 0.268510 0.958477 -0.096044
vn 0.272682 0.959326 -0.073060
vn 0.272682 0.959326 -0.073060
vn 0.272682 0.959326 -0.073060
vn 0.272682 0.959326 -0.073060
vn 0.791403 0.610246 -0.035792
vn 0.791403 0.610246 -0.035792
vn 0.791403 0.610246 -0.035792
vn 0.791403 0.610246 -0.035792
vn 0.745062 0.613617 0.261449
vn 0.745062 0.613617 0.261449
vn 0.745062 0.613617 0.261449
vn 0.745062 0.613617 0.261449
vn 0.631447 0.592496 0.500224
vn 0.631447 0.592496 0.500224
vn 0.631447 0.592496 0.500224
vn 0.631447 0.592496 0.500224
vn 0.549688 0.577825 0.603292
vn 0.549688 0.577825 0.603292
vn 0.549688 0.577825 0.603292
vn 0.549688 0.577825 0.603292
vn 0.480519 0.569784 0.666669
vn 0.480519 0.569784 0.666669
vn 0.480519 0.569784 0.666669
vn 0.480519 0.569784 0.666669
vn 0.331853 0.557833 0.760721
vn 0.331853 0.557833 0.760721
vn 0.331853 0.557833 0.760721
vn 0.331853 0.557833 0.760721
vn 0.136100 0.542048 0.829253
vn 0.136100 0.542048 0.829253
vn 0.136100 0.542048 0.829253
vn 0.136100 0.542048 0.829253
vn 0.020157 0.534840 0.844713
vn 0.020157 0.534840 0.844713
vn 0.020157 0.534840 0.844713
vn 0.020157 0.534840 0.844713
vn -0.009454 0.534925 0.844847
vn -0.009454 0.534925 0.844847
vn -0.009454 0.534925 0.844847
vn -0.009454 0.534925 0.844847
vn -0.099353 0.541685 0.834689
vn -0.099353 0.541685 0.834689
vn -0.099353 0.541685 0.834689
vn -0.099353 0.541685 0.834689
vn -0.299281 0.561965 0.771121
vn -0.299281 0.561965 0.771121
vn -0.299281 0.561965 0.771121
vn -0.299281 0.561965 0.771121
vn -0.494225 0.578574 0.648840
vn -0.494225 0.578574 0.648840
vn -0.494225 0.578574 0.648840
vn -0.494225 0.578574 0.648840
vn -0.595939 0.586989 0.547996
vn -0.595939 0.586989 0.547996
vn -0.595939 0.586989 0.547996
vn -0.595939 0.586989 0.547996
vn -0.660654 0.595260 0.457386
vn -0.660654 0.595260 0.457386
vn -0.660654 0.595260 0.457386
vn -0.660654 0.595260 0.457386
vn -0.748700 0.608831 0.262248
vn -0.748700 0.608831 0.262248
vn -0.748700 0.608831 0.262248
vn -0.748700 0.608831 0.262248
vn -0.794694 0.606472 -0.025546
vn -0.794694 0.606472 -0.025546
vn -0.794694 0.606472 -0.025546
vn -0.794694 0.606472 -0.025546
vn -0.775183 0.591582 -0.221634
vn -0.775183 0.591582 -0.221634
vn -0.775183 0.591582 -0.221634
vn -0.775183 0.591582 -0.221634
vn -0.761721 0.588037 -0.272017
vn -0.761721 0.588037 -0.272017
vn -0.761721 0.588037 -0.272017
vn -0.761721 0.588037 -0.272017
vn -0.734146 0.586287 -0.342486
vn -0.734146 0.586287 -0.342486
vn -0.734146 0.586287 -0.342486
vn -0.734146 0.586287 -0.342486
vn -0.625547 0.581834 -0.519768
vn -0.625547 0.581834 -0.519768
vn -0.625547 0.581834 -0.519768
vn -0.625547 0.581834 -0.519768
vn -0.465526 0.568660 -0.678167
vn -0.465526 0.568660 -0.678167
vn -0.465526 0.568660 -0.678167
vn -0.465526 0.568660 -0.678167
vn -0.358677 0.560473 -0.746472
vn -0.358677 0.560473 -0.746472
vn -0.358677 0.560473 -0.746472
vn -0.358677 0.560473 -0.746472
vn -0.280642 0.558349 -0.780696
vn -0.280642 0.558349 -0.780696
vn -0.280642 0.558349 -0.780696
vn -0.280642 0.558349 -0.780696
vn -0.116671 0.559539 -0.820551
vn -0.116671 0.559539 -0.820551
vn -0.116671 0.559539 -0.820551
vn -0.116671 0.559539 -0.820551
vn 0.126761 0.558842 -0.819529
vn 0.126761 0.558842 -0.819529
vn 0.126761 0.558842 -0.819529
vn 0.126761 0.558842 -0.819529
vn 0.317912 0.554720 -0.768907
vn 0.317912 0.554720 -0.768907
vn 0.317912 0.554720 -0.768907
vn 0.317912 0.554720 -0.768907
vn 0.392947 0.555032 -0.733166
vn 0.392947 0.555032 -0.733166
vn 0.392947 0.555032 -0.733166
vn 0.392947 0.555032 -0.733166
vn 0.450234 0.559128 -0.696179
vn 0.450234 0.559128 -0.696179
vn 0.450234 0.559128 -0.696179
vn 0.450234 0.559128 -0.696179
vn 0.579575 0.574217 -0.578245
vn 0.579575 0.574217 -0.578245
vn 0.579575 0.574217 -0.578245
vn 0.579575 0.574217 -0.578245
vn 0.707085 0.587769 -0.393139
vn 0.707085 0.587769 -0.393139
vn 0.707085 0.587769 -0.393139
vn 0.707085 0.587769 -0.393139
vn 0.758084 0.593110 -0.271162
vn 0.758084 0.593110 -0.271162
vn 0.758084 0.593110 -0.271162
vn 0.758084 0.593110 -0.271162
vn 0.774665 0.597340 -0.207557
vn 0.774665 0.597340 -0.207557
vn 0.774665 0.597340 -0.207557
vn 0.774665 0.597340 -0.207557
vn 0.875835 -0.480982 -0.039611
vn 0.875835 -0.480982 -0.039611
vn 0.875835 -0.480982 -0.039611
vn 0.875835 -0.480982 -0.039611
vn 0.825579 -0.484242 0.289704
vn 0.825579 -0.484242 0.289704
vn 0.825579 -0.484242 0.289704
vn 0.825579 -0.484242 0.289704
vn 0.694355 -0.464012 0.550058
vn 0.694355 -0.464012 0.550058
vn 0.694355 -0.464012 0.550058
vn 0.694355 -0.464012 0.550058
vn 0.601382 -0.450225 0.660028
vn 0.601382 -0.450225 0.660028
vn 0.601382 -0.450225 0.660028
vn 0.601382 -0.450225 0.660028
vn 0.524284 -0.442757 0.727388
vn 0.524284 -0.442757 0.727388
vn 0.524284 -0.442757 0.727388
vn 0.524284 -0.442757 0.727388
vn 0.360655 -0.431767 0.826744
vn 0.360655 -0.431767 0.826744
vn 0.360655 -0.431767 0.826744
vn 0.360655 -0.431767 0.826744
vn 0.147171 -0.417445 0.896705
vn 0.147171 -0.417445 0.896705
vn 0.147171 -0.417445 0.896705
vn 0.147171 -0.417445 0.896705
vn 0.021748 -0.410976 0.911387
vn 0.021748 -0.410976 0.911387
vn 0.021748 -0.410976 0.911387
vn 0.021748 -0.410976 0.911387
vn -0.010200 -0.411052 0.911555
vn -0.010200 -0.411052 0.911555
vn -0.010200 -0.411052 0.911555
vn -0.010200 -0.411052 0.911555
vn -0.107422 -0.417118 0.902481
vn -0.107422 -0.417118 0.902481
vn -0.107422 -0.417118 0.902481
vn -0.107422 -0.417118 0.902481
vn -0.325694 -0.435551 0.839177
vn -0.325694 -0.435551 0.839177
vn -0.325694 -0.435551 0.839177
vn -0.325694 -0.435551 0.839177
vn -0.540842 -0.450924 0.710040
vn -0.540842 -0.450924 0.710040
vn -0.540842 -0.450924 0.710040
vn -0.540842 -0.450924 0.710040
vn -0.654046 -0.458812 0.601428
vn -0.654046 -0.458812 0.601428
vn -0.654046 -0.458812 0.601428
vn -0.654046 -0.458812 0.601428
vn -0.727184 -0.466633 0.503445
vn -0.727184 -0.466633 0.503445
vn -0.727184 -0.466633 0.503445
vn -0.727184 -0.466633 0.503445
vn -0.828145 -0.479617 0.290076
vn -0.828145 -0.479617 0.290076
vn -0.828145 -0.479617 0.290076
vn -0.828145 -0.479617 0.290076
vn -0.878261 -0.477347 -0.028232
vn -0.878261 -0.477347 -0.028232
vn -0.878261 -0.477347 -0.028232
vn -0.878261 -0.477347 -0.028232
vn -0.852136 -0.463147 -0.243636
vn -0.852136 -0.463147 -0.243636
vn -0.852136 -0.463147 -0.243636
vn -0.852136 -0.463147 -0.243636
vn -0.836297 -0.459800 -0.298649
vn -0.836297 -0.459800 -0.298649
vn -0.836297 -0.459800 -0.298649
vn -0.836297 -0.459800 -0.298649
vn -0.805531 -0.458151 -0.375788
vn -0.805531 -0.458151 -0.375788
vn -0.805531 -0.458151 -0.375788
vn -0.805531 -0.458151 -0.375788
vn -0.685316 -0.453972 -0.569430
vn -0.685316 -0.453972 -0.569430
vn -0.685316 -0.453972 -0.569430
vn -0.685316 -0.453972 -0.569430
vn -0.507735 -0.441718 -0.739656
vn -0.507735 -0.441718 -0.739656
vn -0.507735 -0.441718 -0.739656
vn -0.507735 -0.441718 -0.739656
vn -0.390143 -0.434183 -0.811957
vn -0.390143 -0.434183 -0.811957
vn -0.390143 -0.434183 -0.811957
vn -0.390143 -0.434183 -0.811957
vn -0.305050 -0.432238 -0.848596
vn -0.305050 -0.432238 -0.848596
vn -0.305050 -0.432238 -0.848596
vn -0.305050 -0.432238 -0.848596
vn -0.126867 -0.433328 -0.892262
vn -0.126867 -0.433328 -0.892262
vn -0.126867 -0.433328 -0.892262
vn -0.126867 -0.433328 -0.892262
vn 0.137808 -0.432689 -0.890948
vn 0.137808 -0.432689 -0.890948
vn 0.137808 -0.432689 -0.890948
vn 0.137808 -0.432689 -0.890948
vn 0.345156 -0.428925 -0.834800
vn 0.345156 -0.428925 -0.834800
vn 0.345156 -0.428925 -0.834800
vn 0.345156 -0.428925 -0.834800
vn 0.426664 -0.429209 -0.796076
vn 0.426664 -0.429209 -0.796076
vn 0.426664 -0.429209 -0.796076
vn 0.426664 -0.429209 -0.796076
vn 0.489516 -0.432951 -0.756920
vn 0.489516 -0.432951 -0.756920
vn 0.489516 -0.432951 -0.756920
vn 0.489516 -0.432951 -0.756920
vn 0.633305 -0.446867 -0.631851
vn 0.633305 -0.446867 -0.631851
vn 0.633305 -0.446867 -0.631851
vn 0.633305 -0.446867 -0.631851
vn 0.776239 -0.459547 -0.431589
vn 0.776239 -0.459547 -0.431589
vn 0.776239 -0.459547 -0.431589
vn 0.776239 -0.459547 -0.431589
vn 0.833790 -0.464593 -0.298241
vn 0.833790 -0.464593 -0.298241
vn 0.833790 -0.464593 -0.298241
vn 0.833790 -0.464593 -0.298241
vn 0.853307 -0.468611 -0.228628
vn 0.853307 -0.468611 -0.228628
vn 0.853307 -0.468611 -0.228628
vn 0.853307 -0.468611 -0.228628
vn 0.778808 -0.626272 -0.035223
vn 0.778808 -0.626272 -0.035223
vn 0.778808 -0.626272 -0.035223
vn 0.778808 -0.626272 -0.035223
vn 0.733077 -0.629622 0.257244
vn 0.733077 -0.629622 0.257244
vn 0.733077 -0.629622 0.257244
vn 0.733077 -0.629622 0.257244
vn 0.621961 -0.608607 0.492709
vn 0.621961 -0.608607 0.492709
vn 0.621961 -0.608607 0.492709
vn 0.621961 -0.608607 0.492709
vn 0.541826 -0.593970 0.594663
vn 0.541826 -0.593970 0.594663
vn 0.541826 -0.593970 0.594663
vn 0.541826 -0.593970 0.594663
vn 0.473832 -0.585934 0.657392
vn 0.473832 -0.585934 0.657392
vn 0.473832 -0.585934 0.657392
vn 0.473832 -0.585934 0.657392
vn 0.327423 -0.573974 0.750565
vn 0.327423 -0.573974 0.750565
vn 0.327423 -0.573974 0.750565
vn 0.327423 -0.573974 0.750565
vn 0.134383 -0.558145 0.818789
vn 0.134383 -0.558145 0.818789
vn 0.134383 -0.558145 0.818789
vn 0.134383 -0.558145 0.818789
vn 0.019910 -0.550906 0.834330
vn 0.019910 -0.550906 0.834330
vn 0.019910 -0.550906 0.834330
vn 0.019910 -0.550906 0.834330
vn -0.009337 -0.550991 0.834459
vn -0.009337 -0.550991 0.834459
vn -0.009337 -0.550991 0.834459
vn -0.009337 -0.550991 0.834459
vn -0.098101 -0.557781 0.824170
vn -0.098101 -0.557781 0.824170
vn -0.098101 -0.557781 0.824170
vn -0.098101 -0.557781 0.824170
vn -0.295227 -0.578111 0.760676
vn -0.295227 -0.578111 0.760676
vn -0.295227 -0.578111 0.760676
vn -0.295227 -0.578111 0.760676
vn -0.487138 -0.594718 0.639536
vn -0.487138 -0.594718 0.639536
vn -0.487138 -0.594718 0.639536
vn -0.487138 -0.594718 0.639536
vn -0.587149 -0.603116 0.539913
vn -0.587149 -0.603116 0.539913
vn -0.587149 -0.603116 0.539913
vn -0.587149 -0.603116 0.539913
vn -0.650639 -0.611361 0.450452
vn -0.650639 -0.611361 0.450452
vn -0.650639 -0.611361 0.450452
vn -0.650639 -0.611361 0.450452
vn -0.736839 -0.624865 0.258094
vn -0.736839 -0.624865 0.258094
vn -0.736839 -0.624865 0.258094
vn -0.736839 -0.624865 0.258094
vn -0.782200 -0.622520 -0.025144
vn -0.782200 -0.622520 -0.025144
vn -0.782200 -0.622520 -0.025144
vn -0.782200 -0.622520 -0.025144
vn -0.763573 -0.607696 -0.218315
vn -0.763573 -0.607696 -0.218315
vn -0.763573 -0.607696 -0.218315
vn -0.763573 -0.607696 -0.218315
vn -0.750446 -0.604162 -0.267991
vn -0.750446 -0.604162 -0.267991
vn -0.750446 -0.604162 -0.267991
vn -0.750446 -0.604162 -0.267991
vn -0.723343 -0.602416 -0.337446
vn -0.723343 -0.602416 -0.337446
vn -0.723343 -0.602416 -0.337446
vn -0.723343 -0.602416 -0.337446
vn -0.616478 -0.597973 -0.512233
vn -0.616478 -0.597973 -0.512233
vn -0.616478 -0.597973 -0.512233
vn -0.616478 -0.597973 -0.512233
vn -0.459073 -0.584811 -0.668766
vn -0.459073 -0.584811 -0.668766
vn -0.459073 -0.584811 -0.668766
vn -0.459073 -0.584811 -0.668766
vn -0.353845 -0.576618 -0.736414
vn -0.353845 -0.576618 -0.736414
vn -0.353845 -0.576618 -0.736414
vn -0.353845 -0.576618 -0.736414
vn -0.276888 -0.574491 -0.770255
vn -0.276888 -0.574491 -0.770255
vn -0.276888 -0.574491 -0.770255
vn -0.276888 -0.574491 -0.770255
vn -0.115104 -0.575683 -0.809531
vn -0.115104 -0.575683 -0.809531
vn -0.115104 -0.575683 -0.809531
vn -0.115104 -0.575683 -0.809531
vn 0.125063 -0.574985 -0.808549
vn 0.125063 -0.574985 -0.808549
vn 0.125063 -0.574985 -0.808549
vn 0.125063 -0.574985 -0.808549
vn 0.313714 -0.570855 -0.758754
vn 0.313714 -0.570855 -0.758754
vn 0.313714 -0.570855 -0.758754
vn 0.313714 -0.570855 -0.758754
vn 0.387753 -0.571168 -0.723474
vn 0.387753 -0.571168 -0.723474
vn 0.387753 -0.571168 -0.723474
vn 0.387753 -0.571168 -0.723474
vn 0.444196 -0.575271 -0.686843
vn 0.444196 -0.575271 -0.686843
vn 0.444196 -0.575271 -0.686843
vn 0.444196 -0.575271 -0.686843
vn 0.571387 -0.590366 -0.570075
vn 0.571387 -0.590366 -0.570075
vn 0.571387 -0.590366 -0.570075
vn 0.571387 -0.590366 -0.570075
vn 0.696628 -0.603895 -0.387325
vn 0.696628 -0.603895 -0.387325
vn 0.696628 -0.603895 -0.387325
vn 0.696628 -0.603895 -0.387325
vn 0.746673 -0.609218 -0.267080
vn 0.746673 -0.609218 -0.267080
vn 0.746673 -0.609218 -0.267080
vn 0.746673 -0.609218 -0.267080
vn 0.762841 -0.613432 -0.204389
vn 0.762841 -0.613432 -0.204389
vn 0.762841 -0.613432 -0.204389
vn 0.762841 -0.613432 -0.204389
vn 0.641798 -0.766324 -0.029026
vn 0.641798 -0.766324 -0.029026
vn 0.641798 -0.766324 -0.029026
vn 0.641798 -0.766324 -0.029026
vn 0.603075 -0.769101 0.211625
vn 0.603075 -0.769101 0.211625
vn 0.603075 -0.769101 0.211625
vn 0.603075 -0.769101 0.211625
vn 0.517180 -0.751445 0.409703
vn 0.517180 -0.751445 0.409703
vn 0.517180 -0.751445 0.409703
vn 0.517180 -0.751445 0.409703
vn 0.453884 -0.738809 0.498146
vn 0.453884 -0.738809 0.498146
vn 0.453884 -0.738809 0.498146
vn 0.453884 -0.738809 0.498146
vn 0.398527 -0.731753 0.552914
vn 0.398527 -0.731753 0.552914
vn 0.398527 -0.731753 0.552914
vn 0.398527 -0.731753 0.552914
vn 0.277029 -0.721092 0.635045
vn 0.277029 -0.721092 0.635045
vn 0.277029 -0.721092 0.635045
vn 0.277029 -0.721092 0.635045
vn 0.114589 -0.706688 0.698185
vn 0.114589 -0.706688 0.698185
vn 0.114589 -0.706688 0.698185
vn 0.114589 -0.706688 0.698185
vn 0.017037 -0.699988 0.713952
vn 0.017037 -0.699988 0.713952
vn 0.017037 -0.699988 0.713952
vn 0.017037 -0.699988 0.713952
vn -0.007990 -0.700067 0.714032
vn -0.007990 -0.700067 0.714032
vn -0.007990 -0.700067 0.714032
vn -0.007990 -0.700067 0.714032
vn -0.083666 -0.706353 0.702898
vn -0.083666 -0.706353 0.702898
vn -0.083666 -0.706353 0.702898
vn -0.083666 -0.706353 0.702898
vn -0.249277 -0.724801 0.642281
vn -0.249277 -0.724801 0.642281
vn -0.249277 -0.724801 0.642281
vn -0.249277 -0.724801 0.642281
vn -0.407920 -0.739462 0.535535
vn -0.407920 -0.739462 0.535535
vn -0.407920 -0.739462 0.535535
vn -0.407920 -0.739462 0.535535
vn -0.489591 -0.746738 0.450204
vn -0.489591 -0.746738 0.450204
vn -0.489591 -0.746738 0.450204
vn -0.489591 -0.746738 0.450204
vn -0.540271 -0.753791 0.374041
vn -0.540271 -0.753791 0.374041
vn -0.540271 -0.753791 0.374041
vn -0.540271 -0.753791 0.374041
vn -0.607649 -0.765154 0.212842
vn -0.607649 -0.765154 0.212842
vn -0.607649 -0.765154 0.212842
vn -0.607649 -0.765154 0.212842
vn -0.645831 -0.763198 -0.020761
vn -0.645831 -0.763198 -0.020761
vn -0.645831 -0.763198 -0.020761
vn -0.645831 -0.763198 -0.020761
vn -0.635227 -0.750667 -0.181619
vn -0.635227 -0.750667 -0.181619
vn -0.635227 -0.750667 -0.181619
vn -0.635227 -0.750667 -0.181619
vn -0.625425 -0.747637 -0.223345
vn -0.625425 -0.747637 -0.223345
vn -0.625425 -0.747637 -0.223345
vn -0.625425 -0.747637 -0.223345
vn -0.603369 -0.746135 -0.281477
vn -0.603369 -0.746135 -0.281477
vn -0.603369 -0.746135 -0.281477
vn -0.603369 -0.746135 -0.281477
vn -0.515382 -0.742293 -0.428232
vn -0.515382 -0.742293 -0.428232
vn -0.515382 -0.742293 -0.428232
vn -0.515382 -0.742293 -0.428232
vn -0.386330 -0.730759 -0.562796
vn -0.386330 -0.730759 -0.562796
vn -0.386330 -0.730759 -0.562796
vn -0.386330 -0.730759 -0.562796
vn -0.298992 -0.723465 -0.622256
vn -0.298992 -0.723465 -0.622256
vn -0.298992 -0.723465 -0.622256
vn -0.298992 -0.723465 -0.622256
vn -0.234212 -0.721556 -0.651538
vn -0.234212 -0.721556 -0.651538
vn -0.234212 -0.721556 -0.651538
vn -0.234212 -0.721556 -0.651538
vn -0.097306 -0.722626 -0.684356
vn -0.097306 -0.722626 -0.684356
vn -0.097306 -0.722626 -0.684356
vn -0.097306 -0.722626 -0.684356
vn 0.105762 -0.722000 -0.683762
vn 0.105762 -0.722000 -0.683762
vn 0.105762 -0.722000 -0.683762
vn 0.105762 -0.722000 -0.683762
vn 0.265840 -0.718280 -0.642964
vn 0.265840 -0.718280 -0.642964
vn 0.265840 -0.718280 -0.642964
vn 0.265840 -0.718280 -0.642964
vn 0.328529 -0.718562 -0.612974
vn 0.328529 -0.718562 -0.612974
vn 0.328529 -0.718562 -0.612974
vn 0.328529 -0.718562 -0.612974
vn 0.375588 -0.722257 -0.580757
vn 0.375588 -0.722257 -0.580757
vn 0.375588 -0.722257 -0.580757
vn 0.375588 -0.722257 -0.580757
vn 0.479514 -0.735655 -0.478413
vn 0.479514 -0.735655 -0.478413
vn 0.479514 -0.735655 -0.478413
vn 0.479514 -0.735655 -0.478413
vn 0.580651 -0.747407 -0.322842
vn 0.580651 -0.747407 -0.322842
vn 0.580651 -0.747407 -0.322842
vn 0.580651 -0.747407 -0.322842
vn 0.620689 -0.751967 -0.222017
vn 0.620689 -0.751967 -0.222017
vn 0.620689 -0.751967 -0.222017
vn 0.620689 -0.751967 -0.222017
vn 0.632773 -0.755549 -0.169540
vn 0.632773 -0.755549 -0.169540
vn 0.632773 -0.755549 -0.169540
vn 0.632773 -0.755549 -0.169540
vn 0.000000 -1.000000 0.000000
vn 0.000000 -1.000000 0.000000
vn 0.000000 -1.000000 0.000000
vn 0.000000 -1.000000 0.000000
vn 0.000000 -1.000000 0.000000
vn 0.000000 -1.000000 0.000000
vn 0.000000 -1.000000 0.000000
vn 0.000000 -1.000000 0.000000
vn 0.000000 -1.000000 0.000000
vn 0.000000 -1.000000 0.000000
vn 0.000000 -1.000000 0.000000
vn 0.000000 -1.000000 0.000000
vn 0.000000 -1.000000 0.000000
vn 0.000000 -1.000000 0.000000
vn 0.000000 -1.000000 0.000000
vn 0.000000 -1.000000 0.000000
vn 0.000000 -1.000000 0.000000
vn 0.000000 -1.000000 0.000000
vn 0.000000 -1.000000 0.000000
vn 0.000000 -1.000000 0.000000
vn 0.000000 -1.000000 0.000000
vn 0.000000 -1.000000 0.000000
vn 0.000000 -1.000000 0.000000
vn 0.000000 -1.000000 0.000000
vn 0.000000 -1.000000 0.000000
vn 0.000000 -1.000000 0.000000
vn 0.000000 -1.000000 0.000000
vn 0.000000 -1.000000 0.000000
vn 0.000000 -1.000000 0.000000
vn 0.000000 -1.000000 0.000000
vn 0.000000 -1.000000 0.000000
vn 0.000000 -1.000000 0.000000
vn 0.000000 -1.000000 0.000000
vn 0.000000 -1.000000 0.000000
vn 0.000000 -1.000000 0.000000
vn 0.000000 -1.000000 0.000000
vn 0.000000 -1.000000 0.000000
vn 0.000000 -1.000000 0.000000
vn 0.000000 -1.000000 0.000000
vn 0.000000 -1.000000 0.000000
vn 0.000000 -1.000000 0.000000
vn 0.000000 -1.000000 0.000000
vn 0.000000 -1.000000 0.000000
vn 0.000000 -1.000000 0.000000
vn 0.000000 -1.000000 0.000000
vn 0.000000 -1.000000 0.000000
vn 0.000000 -1.000000 0.000000
vn 0.000000 -1.000000 0.000000
vn -0.000000 -1.000000 0.000000
vn -0.000000 -1.000000 0.000000
vn -0.000000 -1.000000 0.000000
vn 0.000000 -1.000000 0.000000
vn 0.000000 -1.000000 0.000000
vn 0.000000 -1.000000 0.000000
vn 0.000000 -1.000000 0.000000
vn 0.000000 -1.000000 0.000000
vn 0.000000 -1.000000 0.000000
vn 0.000000 -1.000000 0.000000
vn 0.000000 -1.000000 0.000000
vn 0.000000 -1.000000 0.000000
vn 0.000000 -1.000000 0.000000
vn 0.000000 -1.000000 0.000000
vn 0.000000 -1.000000 0.000000
vn 0.000000 -1.000000 0.000000
vn 0.000000 -1.000000 0.000000
vn 0.000000 -1.000000 0.000000
vn 0.000000 -1.000000 0.000000
vn 0.000000 -1.000000 0.000000
vn 0.000000 -1.000000 0.000000
vn 0.000000 -1.000000 0.000000
vn 0.000000 -1.000000 0.000000
vn 0.000000 -1.000000 0.000000
vn 0.000000 -1.000000 -0.000000
vn 0.000000 -1.000000 -0.000000
vn 0.000000 -1.000000 -0.000000
vn 0.000000 -1.000000 0.000000
vn 0.000000 -1.000000 0.000000
vn 0.000000 -1.000000 0.000000
vn 0.000000 -1.000000 0.000000
vn 0.000000 -1.000000 0.000000
vn 0.000000 -1.000000 0.000000
vn 0.000000 -1.000000 0.000000
vn 0.000000 -1.000000 0.000000
vn 0.000000 -1.000000 0.000000
vn 0.000000 -1.000000 0.000000
vn 0.000000 -1.000000 0.000000
vn 0.000000 -1.000000 0.000000
vn 0.000000 -1.000000 0.000000
vn 0.000000 -1.000000 0.000000
vn 0.000000 -1.000000 0.000000
vn 0.000000 -1.000000 0.000000
vn 0.000000 -1.000000 0.000000
vn 0.000000 -1.000000 0.000000
vn 0.000000 -1.000000 0.000000
vn 0.000000 -1.000000 0.000000
vn 0.000000 -1.000000 0.000000
s off
usemtl GrassTop
f 1/1/1 2/2/2 3/3/3
f 4/4/4 5/5/5 6/6/6
f 7/7/7 8/8/8 9/9/9
f 10/10/10 11/11/11 12/12/12
f 13/13/13 14/14/14 15/15/15
f 16/16/16 17/17/17 18/18/18
f 19/19/19 20/20/20 21/21/21
f 22/22/22 23/23/23 24/24/24
f 25/25/25 26/26/26 27/27/27
f 28/28/28 29/29/29 30/30/30
f 31/31/31 32/32/32 33/33/33
f 34/34/34 35/35/35 36/36/36
f 37/37/37 38/38/38 39/39/39
f 40/40/40 41/41/41 42/42/42
f 43/43/43 44/44/44 45/45/45
f 46/46/46 47/47/47 48/48/48
f 49/49/49 50/50/50 51/51/51
f 52/52/52 53/53/53 54/54/54
f 55/55/55 56/56/56 57/57/57
f 58/58/58 59/59/59 60/60/60
f 61/61/61 62/62/62 63/63/63
f 64/64/64 65/65/65 66/66/66
f 67/67/67 68/68/68 69/69/69
f 70/70/70 71/71/71 72/72/72
f 73/73/73 74/74/74 75/75/75
f 76/76/76 77/77/77 78/78/78
f 79/79/79 80/80/80 81/81/81
f 82/82/82 83/83/83 84/84/84
f 85/85/85 86/86/86 87/87/87
f 88/88/88 89/89/89 90/90/90
f 91/91/91 92/92/92 93/93/93
f 94/94/94 95/95/95 96/96/96
usemtl GrassEdge
f 97/97/97 98/98/98 99/99/99
f 97/97/97 99/99/99 100/100/100
f 101/101/101 102/102/102 103/103/103
f 101/101/101 103/103/103 104/104/104
f 105/105/105 106/106/106 107/107/107
f 105/105/105 107/107/107 108/108/108
f 109/109/109 110/110/110 111/111/111
f 109/109/109 111/111/111 112/112/112
f 113/113/113 114/114/114 115/115/115
f 113/113/113 115/115/115 116/116/116
f 117/117/117 118/118/118 119/119/119
f 117/117/117 119/119/119 120/120/120
f 121/121/121 122/122/122 123/123/123
f 121/121/121 123/123/123 124/124/124
f 125/125/125 126/126/126 127/127/127
f 125/125/125 127/127/127 128/128/128
f 129/129/129 130/130/130 131/131/131
f 129/129/129 131/131/131 132/132/132
f 133/133/133 134/134/134 135/135/135
f 133/133/133 135/135/135 136/136/136
f 137/137/137 138/138/138 139/139/139
f 137/137/137 139/139/139 140/140/140
f 141/141/141 142/142/142 143/143/143
f 141/141/141 143/143/143 144/144/144
f 145/145/145 146/146/146 147/147/147
f 145/145/145 147/147/147 148/148/148
f 149/149/149 150/150/150 151/151/151
f 149/149/149 151/151/151 152/152/152
f 153/153/153 154/154/154 155/155/155
f 153/153/153 155/155/155 156/156/156
f 157/157/157 158/158/158 159/159/159
f 157/157/157 159/159/159 160/160/160
f 161/161/161 162/162/162 163/163/163
f 161/161/161 163/163/163 164/164/164
f 165/165/165 166/166/166 167/167/167
f 165/165/165 167/167/167 168/168/168
f 169/169/169 170/170/170 171/171/171
f 169/169/169 171/171/171 172/172/172
f 173/173/173 174/174/174 175/175/175
f 173/173/173 175/175/175 176/176/176
f 177/177/177 178/178/178 179/179/179
f 177/177/177 179/179/179 180/180/180
f 181/181/181 182/182/182 183/183/183
f 181/181/181 183/183/183 184/184/184
f 185/185/185 186/186/186 187/187/187
f 185/185/185 187/187/187 188/188/188
f 189/189/189 190/190/190 191/191/191
f 189/189/189 191/191/191 192/192/192
f 193/193/193 194/194/194 195/195/195
f 193/193/193 195/195/195 196/196/196
f 197/197/197 198/198/198 199/199/199
f 197/197/197 199/199/199 200/200/200
f 201/201/201 202/202/202 203/203/203
f 201/201/201 203/203/203 204/204/204
f 205/205/205 206/206/206 207/207/207
f 205/205/205 207/207/207 208/208/208
f 209/209/209 210/210/210 211/211/211
f 209/209/209 211/211/211 212/212/212
f 213/213/213 214/214/214 215/215/215
f 213/213/213 215/215/215 216/216/216
f 217/217/217 218/218/218 219/219/219
f 217/217/217 219/219/219 220/220/220
f 221/221/221 222/222/222 223/223/223
f 221/221/221 223/223/223 224/224/224
usemtl SandRim
f 225/225/225 226/226/226 227/227/227
f 225/225/225 227/227/227 228/228/228
f 229/229/229 230/230/230 231/231/231
f 229/229/229 231/231/231 232/232/232
f 233/233/233 234/234/234 235/235/235
f 233/233/233 235/235/235 236/236/236
f 237/237/237 238/238/238 239/239/239
f 237/237/237 239/239/239 240/240/240
f 241/241/241 242/242/242 243/243/243
f 241/241/241 243/243/243 244/244/244
f 245/245/245 246/246/246 247/247/247
f 245/245/245 247/247/247 248/248/248
f 249/249/249 250/250/250 251/251/251
f 249/249/249 251/251/251 252/252/252
f 253/253/253 254/254/254 255/255/255
f 253/253/253 255/255/255 256/256/256
f 257/257/257 258/258/258 259/259/259
f 257/257/257 259/259/259 260/260/260
f 261/261/261 262/262/262 263/263/263
f 261/261/261 263/263/263 264/264/264
f 265/265/265 266/266/266 267/267/267
f 265/265/265 267/267/267 268/268/268
f 269/269/269 270/270/270 271/271/271
f 269/269/269 271/271/271 272/272/272
f 273/273/273 274/274/274 275/275/275
f 273/273/273 275/275/275 276/276/276
f 277/277/277 278/278/278 279/279/279
f 277/277/277 279/279/279 280/280/280
f 281/281/281 282/282/282 283/283/283
f 281/281/281 283/283/283 284/284/284
f 285/285/285 286/286/286 287/287/287
f 285/285/285 287/287/287 288/288/288
f 289/289/289 290/290/290 291/291/291
f 289/289/289 291/291/291 292/292/292
f 293/293/293 294/294/294 295/295/295
f 293/293/293 295/295/295 296/296/296
f 297/297/297 298/298/298 299/299/299
f 297/297/297 299/299/299 300/300/300
f 301/301/301 302/302/302 303/303/303
f 301/301/301 303/303/303 304/304/304
f 305/305/305 306/306/306 307/307/307
f 305/305/305 307/307/307 308/308/308
f 309/309/309 310/310/310 311/311/311
f 309/309/309 311/311/311 312/312/312
f 313/313/313 314/314/314 315/315/315
f 313/313/313 315/315/315 316/316/316
f 317/317/317 318/318/318 319/319/319
f 317/317/317 319/319/319 320/320/320
f 321/321/321 322/322/322 323/323/323
f 321/321/321 323/323/323 324/324/324
f 325/325/325 326/326/326 327/327/327
f 325/325/325 327/327/327 328/328/328
f 329/329/329 330/330/330 331/331/331
f 329/329/329 331/331/331 332/332/332
f 333/333/333 334/334/334 335/335/335
f 333/333/333 335/335/335 336/336/336
f 337/337/337 338/338/338 339/339/339
f 337/337/337 339/339/339 340/340/340
f 341/341/341 342/342/342 343/343/343
f 341/341/341 343/343/343 344/344/344
f 345/345/345 346/346/346 347/347/347
f 345/345/345 347/347/347 348/348/348
f 349/349/349 350/350/350 351/351/351
f 349/349/349 351/351/351 352/352/352
usemtl CliffWarm
f 353/353/353 354/354/354 355/355/355
f 353/353/353 355/355/355 356/356/356
f 357/357/357 358/358/358 359/359/359
f 357/357/357 359/359/359 360/360/360
f 361/361/361 362/362/362 363/363/363
f 361/361/361 363/363/363 364/364/364
f 365/365/365 366/366/366 367/367/367
f 365/365/365 367/367/367 368/368/368
f 369/369/369 370/370/370 371/371/371
f 369/369/369 371/371/371 372/372/372
f 373/373/373 374/374/374 375/375/375
f 373/373/373 375/375/375 376/376/376
f 377/377/377 378/378/378 379/379/379
f 377/377/377 379/379/379 380/380/380
f 381/381/381 382/382/382 383/383/383
f 381/381/381 383/383/383 384/384/384
f 385/385/385 386/386/386 387/387/387
f 385/385/385 387/387/387 388/388/388
f 389/389/389 390/390/390 391/391/391
f 389/389/389 391/391/391 392/392/392
f 393/393/393 394/394/394 395/395/395
f 393/393/393 395/395/395 396/396/396
f 397/397/397 398/398/398 399/399/399
f 397/397/397 399/399/399 400/400/400
f 401/401/401 402/402/402 403/403/403
f 401/401/401 403/403/403 404/404/404
f 405/405/405 406/406/406 407/407/407
f 405/405/405 407/407/407 408/408/408
f 409/409/409 410/410/410 411/411/411
f 409/409/409 411/411/411 412/412/412
f 413/413/413 414/414/414 415/415/415
f 413/413/413 415/415/415 416/416/416
f 417/417/417 418/418/418 419/419/419
f 417/417/417 419/419/419 420/420/420
f 421/421/421 422/422/422 423/423/423
f 421/421/421 423/423/423 424/424/424
f 425/425/425 426/426/426 427/427/427
f 425/425/425 427/427/427 428/428/428
f 429/429/429 430/430/430 431/431/431
f 429/429/429 431/431/431 432/432/432
f 433/433/433 434/434/434 435/435/435
f 433/433/433 435/435/435 436/436/436
f 437/437/437 438/438/438 439/439/439
f 437/437/437 439/439/439 440/440/440
f 441/441/441 442/442/442 443/443/443
f 441/441/441 443/443/443 444/444/444
f 445/445/445 446/446/446 447/447/447
f 445/445/445 447/447/447 448/448/448
f 449/449/449 450/450/450 451/451/451
f 449/449/449 451/451/451 452/452/452
f 453/453/453 454/454/454 455/455/455
f 453/453/453 455/455/455 456/456/456
f 457/457/457 458/458/458 459/459/459
f 457/457/457 459/459/459 460/460/460
f 461/461/461 462/462/462 463/463/463
f 461/461/461 463/463/463 464/464/464
f 465/465/465 466/466/466 467/467/467
f 465/465/465 467/467/467 468/468/468
f 469/469/469 470/470/470 471/471/471
f 469/469/469 471/471/471 472/472/472
f 473/473/473 474/474/474 475/475/475
f 473/473/473 475/475/475 476/476/476
f 477/477/477 478/478/478 479/479/479
f 477/477/477 479/479/479 480/480/480
usemtl CliffDeep
f 481/481/481 482/482/482 483/483/483
f 481/481/481 483/483/483 484/484/484
f 485/485/485 486/486/486 487/487/487
f 485/485/485 487/487/487 488/488/488
f 489/489/489 490/490/490 491/491/491
f 489/489/489 491/491/491 492/492/492
f 493/493/493 494/494/494 495/495/495
f 493/493/493 495/495/495 496/496/496
f 497/497/497 498/498/498 499/499/499
f 497/497/497 499/499/499 500/500/500
f 501/501/501 502/502/502 503/503/503
f 501/501/501 503/503/503 504/504/504
f 505/505/505 506/506/506 507/507/507
f 505/505/505 507/507/507 508/508/508
f 509/509/509 510/510/510 511/511/511
f 509/509/509 511/511/511 512/512/512
f 513/513/513 514/514/514 515/515/515
f 513/513/513 515/515/515 516/516/516
f 517/517/517 518/518/518 519/519/519
f 517/517/517 519/519/519 520/520/520
f 521/521/521 522/522/522 523/523/523
f 521/521/521 523/523/523 524/524/524
f 525/525/525 526/526/526 527/527/527
f 525/525/525 527/527/527 528/528/528
f 529/529/529 530/530/530 531/531/531
f 529/529/529 531/531/531 532/532/532
f 533/533/533 534/534/534 535/535/535
f 533/533/533 535/535/535 536/536/536
f 537/537/537 538/538/538 539/539/539
f 537/537/537 539/539/539 540/540/540
f 541/541/541 542/542/542 543/543/543
f 541/541/541 543/543/543 544/544/544
f 545/545/545 546/546/546 547/547/547
f 545/545/545 547/547/547 548/548/548
f 549/549/549 550/550/550 551/551/551
f 549/549/549 551/551/551 552/552/552
f 553/553/553 554/554/554 555/555/555
f 553/553/553 555/555/555 556/556/556
f 557/557/557 558/558/558 559/559/559
f 557/557/557 559/559/559 560/560/560
f 561/561/561 562/562/562 563/563/563
f 561/561/561 563/563/563 564/564/564
f 565/565/565 566/566/566 567/567/567
f 565/565/565 567/567/567 568/568/568
f 569/569/569 570/570/570 571/571/571
f 569/569/569 571/571/571 572/572/572
f 573/573/573 574/574/574 575/575/575
f 573/573/573 575/575/575 576/576/576
f 577/577/577 578/578/578 579/579/579
f 577/577/577 579/579/579 580/580/580
f 581/581/581 582/582/582 583/583/583
f 581/581/581 583/583/583 584/584/584
f 585/585/585 586/586/586 587/587/587
f 585/585/585 587/587/587 588/588/588
f 589/589/589 590/590/590 591/591/591
f 589/589/589 591/591/591 592/592/592
f 593/593/593 594/594/594 595/595/595
f 593/593/593 595/595/595 596/596/596
f 597/597/597 598/598/598 599/599/599
f 597/597/597 599/599/599 600/600/600
f 601/601/601 602/602/602 603/603/603
f 601/601/601 603/603/603 604/604/604
f 605/605/605 606/606/606 607/607/607
f 605/605/605 607/607/607 608/608/608
usemtl UnderwaterStone
f 609/609/609 610/610/610 611/611/611
f 609/609/609 611/611/611 612/612/612
f 613/613/613 614/614/614 615/615/615
f 613/613/613 615/615/615 616/616/616
f 617/617/617 618/618/618 619/619/619
f 617/617/617 619/619/619 620/620/620
f 621/621/621 622/622/622 623/623/623
f 621/621/621 623/623/623 624/624/624
f 625/625/625 626/626/626 627/627/627
f 625/625/625 627/627/627 628/628/628
f 629/629/629 630/630/630 631/631/631
f 629/629/629 631/631/631 632/632/632
f 633/633/633 634/634/634 635/635/635
f 633/633/633 635/635/635 636/636/636
f 637/637/637 638/638/638 639/639/639
f 637/637/637 639/639/639 640/640/640
f 641/641/641 642/642/642 643/643/643
f 641/641/641 643/643/643 644/644/644
f 645/645/645 646/646/646 647/647/647
f 645/645/645 647/647/647 648/648/648
f 649/649/649 650/650/650 651/651/651
f 649/649/649 651/651/651 652/652/652
f 653/653/653 654/654/654 655/655/655
f 653/653/653 655/655/655 656/656/656
f 657/657/657 658/658/658 659/659/659
f 657/657/657 659/659/659 660/660/660
f 661/661/661 662/662/662 663/663/663
f 661/661/661 663/663/663 664/664/664
f 665/665/665 666/666/666 667/667/667
f 665/665/665 667/667/667 668/668/668
f 669/669/669 670/670/670 671/671/671
f 669/669/669 671/671/671 672/672/672
f 673/673/673 674/674/674 675/675/675
f 673/673/673 675/675/675 676/676/676
f 677/677/677 678/678/678 679/679/679
f 677/677/677 679/679/679 680/680/680
f 681/681/681 682/682/682 683/683/683
f 681/681/681 683/683/683 684/684/684
f 685/685/685 686/686/686 687/687/687
f 685/685/685 687/687/687 688/688/688
f 689/689/689 690/690/690 691/691/691
f 689/689/689 691/691/691 692/692/692
f 693/693/693 694/694/694 695/695/695
f 693/693/693 695/695/695 696/696/696
f 697/697/697 698/698/698 699/699/699
f 697/697/697 699/699/699 700/700/700
f 701/701/701 702/702/702 703/703/703
f 701/701/701 703/703/703 704/704/704
f 705/705/705 706/706/706 707/707/707
f 705/705/705 707/707/707 708/708/708
f 709/709/709 710/710/710 711/711/711
f 709/709/709 711/711/711 712/712/712
f 713/713/713 714/714/714 715/715/715
f 713/713/713 715/715/715 716/716/716
f 717/717/717 718/718/718 719/719/719
f 717/717/717 719/719/719 720/720/720
f 721/721/721 722/722/722 723/723/723
f 721/721/721 723/723/723 724/724/724
f 725/725/725 726/726/726 727/727/727
f 725/725/725 727/727/727 728/728/728
f 729/729/729 730/730/730 731/731/731
f 729/729/729 731/731/731 732/732/732
f 733/733/733 734/734/734 735/735/735
f 733/733/733 735/735/735 736/736/736
f 737/737/737 738/738/738 739/739/739
f 740/740/740 741/741/741 742/742/742
f 743/743/743 744/744/744 745/745/745
f 746/746/746 747/747/747 748/748/748
f 749/749/749 750/750/750 751/751/751
f 752/752/752 753/753/753 754/754/754
f 755/755/755 756/756/756 757/757/757
f 758/758/758 759/759/759 760/760/760
f 761/761/761 762/762/762 763/763/763
f 764/764/764 765/765/765 766/766/766
f 767/767/767 768/768/768 769/769/769
f 770/770/770 771/771/771 772/772/772
f 773/773/773 774/774/774 775/775/775
f 776/776/776 777/777/777 778/778/778
f 779/779/779 780/780/780 781/781/781
f 782/782/782 783/783/783 784/784/784
f 785/785/785 786/786/786 787/787/787
f 788/788/788 789/789/789 790/790/790
f 791/791/791 792/792/792 793/793/793
f 794/794/794 795/795/795 796/796/796
f 797/797/797 798/798/798 799/799/799
f 800/800/800 801/801/801 802/802/802
f 803/803/803 804/804/804 805/805/805
f 806/806/806 807/807/807 808/808/808
f 809/809/809 810/810/810 811/811/811
f 812/812/812 813/813/813 814/814/814
f 815/815/815 816/816/816 817/817/817
f 818/818/818 819/819/819 820/820/820
f 821/821/821 822/822/822 823/823/823
f 824/824/824 825/825/825 826/826/826
f 827/827/827 828/828/828 829/829/829
f 830/830/830 831/831/831 832/832/832
