mtllib discovery_kit.mtl
o discovery_bridge
usemtl garden_stone
v -3 -0.6 -7
v 3 -0.6 -7
v 3 0.2 -7
v -3 0.2 -7
v -3 -0.6 7
v 3 -0.6 7
v 3 0.2 7
v -3 0.2 7
f 1 2 3 4
f 5 8 7 6
f 1 5 6 2
f 4 3 7 8
f 1 4 8 5
f 2 6 7 3
usemtl garden_shadow
v -3.0 0.2 -7
v -2.55 0.2 -7
v -2.55 1.35 -7
v -3.0 1.35 -7
v -3.0 0.2 7
v -2.55 0.2 7
v -2.55 1.35 7
v -3.0 1.35 7
f 9 10 11 12
f 13 16 15 14
f 9 13 14 10
f 12 11 15 16
f 9 12 16 13
f 10 14 15 11
v 2.55 0.2 -7
v 3.0 0.2 -7
v 3.0 1.35 -7
v 2.55 1.35 -7
v 2.55 0.2 7
v 3.0 0.2 7
v 3.0 1.35 7
v 2.55 1.35 7
f 17 18 19 20
f 21 24 23 22
f 17 21 22 18
f 20 19 23 24
f 17 20 24 21
f 18 22 23 19
usemtl garden_glow
v -0.16 0.2 -6.7
v 0.16 0.2 -6.7
v 0.16 0.28 -6.7
v -0.16 0.28 -6.7
v -0.16 0.2 6.7
v 0.16 0.2 6.7
v 0.16 0.28 6.7
v -0.16 0.28 6.7
f 25 26 27 28
f 29 32 31 30
f 25 29 30 26
f 28 27 31 32
f 25 28 32 29
f 26 30 31 27
