mtllib discovery_kit.mtl
o discovery_turn_wall
usemtl garden_stone
v -8 -0.6 -5
v 8 -0.6 -5
v 8 0.35 -5
v -8 0.35 -5
v -8 -0.6 5
v 8 -0.6 5
v 8 0.35 5
v -8 0.35 5
f 1 2 3 4
f 5 8 7 6
f 1 5 6 2
f 4 3 7 8
f 1 4 8 5
f 2 6 7 3
usemtl garden_shadow
v -8 0.35 -0.8
v -5 0.35 -0.8
v -5 7.0 -0.8
v -8 7.0 -0.8
v -8 0.35 0.8
v -5 0.35 0.8
v -5 7.0 0.8
v -8 7.0 0.8
f 9 10 11 12
f 13 16 15 14
f 9 13 14 10
f 12 11 15 16
f 9 12 16 13
f 10 14 15 11
v -5 0.35 -0.8
v 1 0.35 -0.8
v 1 3.6 -0.8
v -5 3.6 -0.8
v -5 0.35 0.8
v 1 0.35 0.8
v 1 3.6 0.8
v -5 3.6 0.8
f 17 18 19 20
f 21 24 23 22
f 17 21 22 18
f 20 19 23 24
f 17 20 24 21
f 18 22 23 19
v -5 5.0 -0.8
v 7.2 5.0 -0.8
v 7.2 7.0 -0.8
v -5 7.0 -0.8
v -5 5.0 0.8
v 7.2 5.0 0.8
v 7.2 7.0 0.8
v -5 7.0 0.8
f 25 26 27 28
f 29 32 31 30
f 25 29 30 26
f 28 27 31 32
f 25 28 32 29
f 26 30 31 27
v 1 0.35 -0.8
v 3 0.35 -0.8
v 3 7.0 -0.8
v 1 7.0 -0.8
v 1 0.35 0.8
v 3 0.35 0.8
v 3 7.0 0.8
v 1 7.0 0.8
f 33 34 35 36
f 37 40 39 38
f 33 37 38 34
f 36 35 39 40
f 33 36 40 37
f 34 38 39 35
v 7.2 0.35 -0.8
v 8 0.35 -0.8
v 8 7.0 -0.8
v 7.2 7.0 -0.8
v 7.2 0.35 0.8
v 8 0.35 0.8
v 8 7.0 0.8
v 7.2 7.0 0.8
f 41 42 43 44
f 45 48 47 46
f 41 45 46 42
f 44 43 47 48
f 41 44 48 45
f 42 46 47 43
usemtl garden_trim
v -5.2 3.5 -1.0
v 1.2 3.5 -1.0
v 1.2 3.75 -1.0
v -5.2 3.75 -1.0
v -5.2 3.5 1.0
v 1.2 3.5 1.0
v 1.2 3.75 1.0
v -5.2 3.75 1.0
f 49 50 51 52
f 53 56 55 54
f 49 53 54 50
f 52 51 55 56
f 49 52 56 53
f 50 54 55 51
