mtllib discovery_kit.mtl
o discovery_terrace
usemtl garden_stone
v -7 -1 -7
v 7 -1 -7
v 7 0.4 -7
v -7 0.4 -7
v -7 -1 7
v 7 -1 7
v 7 0.4 7
v -7 0.4 7
f 1 2 3 4
f 5 8 7 6
f 1 5 6 2
f 4 3 7 8
f 1 4 8 5
f 2 6 7 3
usemtl garden_shadow
v -6.4 0.4 -6.4
v 6.4 0.4 -6.4
v 6.4 0.62 -6.4
v -6.4 0.62 -6.4
v -6.4 0.4 6.4
v 6.4 0.4 6.4
v 6.4 0.62 6.4
v -6.4 0.62 6.4
f 9 10 11 12
f 13 16 15 14
f 9 13 14 10
f 12 11 15 16
f 9 12 16 13
f 10 14 15 11
usemtl garden_trim
v -0.35 0.62 -6.4
v 0.35 0.62 -6.4
v 0.35 0.70 -6.4
v -0.35 0.70 -6.4
v -0.35 0.62 6.4
v 0.35 0.62 6.4
v 0.35 0.70 6.4
v -0.35 0.70 6.4
f 17 18 19 20
f 21 24 23 22
f 17 21 22 18
f 20 19 23 24
f 17 20 24 21
f 18 22 23 19
