mtllib discovery_kit.mtl
o discovery_gallery
usemtl garden_stone
v -6 -0.5 -7
v 6 -0.5 -7
v 6 0.25 -7
v -6 0.25 -7
v -6 -0.5 7
v 6 -0.5 7
v 6 0.25 7
v -6 0.25 7
f 1 2 3 4
f 5 8 7 6
f 1 5 6 2
f 4 3 7 8
f 1 4 8 5
f 2 6 7 3
usemtl garden_shadow
v -6 0.25 1.8
v -1 0.25 1.8
v -1 3.3 1.8
v -6 3.3 1.8
v -6 0.25 2.5
v -1 0.25 2.5
v -1 3.3 2.5
v -6 3.3 2.5
f 9 10 11 12
f 13 16 15 14
f 9 13 14 10
f 12 11 15 16
f 9 12 16 13
f 10 14 15 11
v 1 0.25 1.8
v 6 0.25 1.8
v 6 3.3 1.8
v 1 3.3 1.8
v 1 0.25 2.5
v 6 0.25 2.5
v 6 3.3 2.5
v 1 3.3 2.5
f 17 18 19 20
f 21 24 23 22
f 17 21 22 18
f 20 19 23 24
f 17 20 24 21
f 18 22 23 19
v -6 0.25 -7
v -5.2 0.25 -7
v -5.2 2.4 -7
v -6 2.4 -7
v -6 0.25 7
v -5.2 0.25 7
v -5.2 2.4 7
v -6 2.4 7
f 25 26 27 28
f 29 32 31 30
f 25 29 30 26
f 28 27 31 32
f 25 28 32 29
f 26 30 31 27
usemtl garden_trim
v -5.25 0.25 -6.7
v -4.95 0.25 -6.7
v -4.95 0.38 -6.7
v -5.25 0.38 -6.7
v -5.25 0.25 6.7
v -4.95 0.25 6.7
v -4.95 0.38 6.7
v -5.25 0.38 6.7
f 33 34 35 36
f 37 40 39 38
f 33 37 38 34
f 36 35 39 40
f 33 36 40 37
f 34 38 39 35
usemtl garden_glow
v -1 0.25 2.45
v 1 0.25 2.45
v 1 0.42 2.45
v -1 0.42 2.45
v -1 0.25 2.65
v 1 0.25 2.65
v 1 0.42 2.65
v -1 0.42 2.65
f 41 42 43 44
f 45 48 47 46
f 41 45 46 42
f 44 43 47 48
f 41 44 48 45
f 42 46 47 43
