# Blender 4.4.1
# www.blender.org
mtllib map_tutorial_11.mtl
o 壁
v 40.377377 35.555576 -30.237988
v 40.377377 29.715349 -29.264618
v 40.377377 35.555576 -29.264618
v 11.377377 35.555576 -30.237988
v 11.377377 29.715349 -29.264618
v 11.377377 35.555576 -29.264618
v -11.377399 35.555576 -30.237988
v -11.377399 29.715349 -29.264616
v -11.377399 35.555576 -29.264616
v -40.377399 35.555576 -30.237988
v -40.377399 29.715349 -29.264616
v -40.377399 35.555576 -29.264616
v 39.617199 29.715349 -30.296412
v 39.617199 35.555576 -30.296412
v 40.590569 35.555576 -30.296412
v 39.617203 29.715349 30.296412
v 39.617203 35.555576 30.296412
v 40.590572 35.555576 30.296412
v -40.590580 35.555576 -30.296412
v -39.617214 29.715349 -30.296412
v -39.617214 35.555576 -30.296412
v -40.590580 35.555576 30.296412
v -39.617214 29.715349 30.296412
v -39.617214 35.555576 30.296412
v 39.923431 29.715349 29.480135
v 39.923431 35.555576 29.480135
v 39.923431 35.555576 30.453505
v -39.923435 29.715349 29.480135
v -39.923435 35.555576 29.480135
v -39.923435 35.555576 30.453505
vn -0.0000 -0.0000 1.0000
vn -0.0000 1.0000 -0.0000
vn -1.0000 -0.0000 -0.0000
vn 1.0000 -0.0000 -0.0000
vn -0.0000 -0.0000 -1.0000
vt 0.625000 0.250000
vt 0.375000 0.500000
vt 0.375000 0.250000
vt 0.875000 0.500000
vt 0.625000 0.750000
vt 0.625000 0.500000
vt 0.375000 1.000000
vt 0.375000 0.750000
vt 0.875000 0.750000
vt 0.625000 1.000000
s 0
f 3/1/1 5/2/1 2/3/1
f 3/4/2 4/5/2 6/6/2
f 9/1/1 11/2/1 8/3/1
f 9/4/2 10/5/2 12/6/2
f 17/5/3 13/7/3 16/8/3
f 15/4/2 17/5/2 18/6/2
f 21/1/4 23/2/4 20/3/4
f 21/4/2 22/5/2 24/6/2
f 29/5/5 25/7/5 28/8/5
f 27/4/2 29/5/2 30/6/2
f 3/1/1 6/6/1 5/2/1
f 3/4/2 1/9/2 4/5/2
f 9/1/1 12/6/1 11/2/1
f 9/4/2 7/9/2 10/5/2
f 17/5/3 14/10/3 13/7/3
f 15/4/2 14/9/2 17/5/2
f 21/1/4 24/6/4 23/2/4
f 21/4/2 19/9/2 22/5/2
f 29/5/5 26/10/5 25/7/5
f 27/4/2 26/9/2 29/5/2
