# Blender 4.4.1
# www.blender.org
mtllib skydome.mtl
o 球
v 0.000000 49.039261 -9.754540
v 0.000000 46.193974 -19.134203
v 0.000000 41.573467 -27.778551
v 0.000000 35.355328 -35.355385
v 0.000000 27.778500 -41.573532
v 0.000000 19.134157 -46.194016
v 0.000000 9.754502 -49.039307
v 0.000000 -27.778522 -41.573509
v 0.000000 -35.355354 -35.355358
v 0.000000 -41.573498 -27.778522
v -1.903014 49.039261 -9.567109
v -3.732895 46.193974 -18.766546
v -5.419323 41.573467 -27.244791
v -6.897490 35.355328 -34.676041
v -8.110589 27.778500 -40.774704
v -9.012004 19.134157 -45.306412
v -9.567092 9.754502 -48.097027
v -9.754522 -0.000017 -49.039307
v -9.567092 -9.754532 -48.097027
v -9.012005 -19.134184 -45.306412
v -8.110590 -27.778522 -40.774681
v -6.897490 -35.355354 -34.676014
v -5.419322 -41.573498 -27.244766
v -3.732895 -46.193974 -18.766520
v -1.903014 -49.039265 -9.567079
v -3.732896 49.039261 -9.012021
v -7.322337 46.193974 -17.677700
v -10.630384 41.573467 -25.664032
v -13.529912 35.355328 -32.664116
v -15.909493 27.778500 -38.408928
v -17.677683 19.134157 -42.677708
v -18.766527 9.754504 -45.306412
v -19.134186 -0.000016 -46.194016
v -18.766527 -9.754530 -45.306412
v -17.677683 -19.134184 -42.677708
v -15.909496 -27.778522 -38.408909
v -13.529912 -35.355354 -32.664093
v -10.630383 -41.573498 -25.664005
v -7.322337 -46.193974 -17.677675
v -3.732895 -49.039265 -9.011990
v -5.419324 49.039261 -8.110604
v -10.630385 46.193974 -15.909511
v -15.432925 41.573471 -23.097019
v -19.642389 35.355328 -29.396925
v -23.097000 27.778502 -34.567123
v -25.664015 19.134157 -38.408920
v -27.244770 9.754505 -40.774693
v -27.778530 -0.000015 -41.573513
v -27.244770 -9.754529 -40.774693
v -25.664017 -19.134184 -38.408920
v -23.097006 -27.778521 -34.567101
v -19.642389 -35.355354 -29.396902
v -15.432924 -41.573494 -23.096992
v -10.630386 -46.193974 -15.909485
v -5.419323 -49.039265 -8.110574
v -6.897491 49.039261 -6.897505
v -13.529916 46.193974 -13.529926
v -19.642389 41.573483 -19.642401
v -25.000015 35.355331 -25.000032
v -29.396902 27.778502 -29.396921
v -32.664093 19.134159 -32.664097
v -34.676018 9.754508 -34.676022
v -35.355362 -0.000013 -35.355362
v -34.676018 -9.754526 -34.676022
v -32.664097 -19.134182 -32.664104
v -29.396912 -27.778521 -29.396900
v -25.000015 -35.355350 -25.000010
v -19.642389 -41.573483 -19.642376
v -13.529916 -46.193974 -13.529902
v -6.897491 -49.039265 -6.897473
v -8.110592 49.039261 -5.419337
v -15.909497 46.193974 -10.630399
v -23.097006 41.573483 -15.432935
v -29.396906 35.355343 -19.642399
v -34.567101 27.778502 -23.097010
v -38.408909 19.134165 -25.664021
v -40.774681 9.754509 -27.244772
v -41.573505 -0.000011 -27.778526
v -40.774681 -9.754525 -27.244772
v -38.408916 -19.134178 -25.664017
v -34.567104 -27.778521 -23.096996
v -29.396906 -35.355343 -19.642378
v -23.097002 -41.573483 -15.432911
v -15.909497 -46.193974 -10.630370
v -8.110592 -49.039265 -5.419306
v -9.012006 49.039261 -3.732908
v -17.677685 46.193974 -7.322349
v -25.664015 41.573483 -10.630393
v -32.664093 35.355343 -13.529923
v -38.408905 27.778511 -15.909496
v -42.677692 19.134165 -17.677691
v -45.306393 9.754512 -18.766525
v -46.193996 -0.000008 -19.134178
v -45.306393 -9.754522 -18.766525
v -42.677700 -19.134178 -17.677675
v -38.408909 -27.778511 -15.909484
v -32.664093 -35.355343 -13.529900
v -25.664015 -41.573483 -10.630369
v -17.677687 -46.193974 -7.322320
v -9.012005 -49.039265 -3.732877
v -9.567094 49.039261 -1.903025
v -18.766531 46.193974 -3.732904
v -27.244770 41.573483 -5.419331
v -34.676018 35.355343 -6.897498
v -40.774677 27.778513 -8.110595
v -45.306393 19.134171 -9.012012
v -48.097012 9.754515 -9.567093
v -49.039280 -0.000005 -9.754515
v -48.097012 -9.754520 -9.567086
v -45.306404 -19.134171 -9.011993
v -40.774677 -27.778509 -8.110576
v -34.676018 -35.355343 -6.897479
v -27.244770 -41.573483 -5.419305
v -18.766533 -46.193974 -3.732877
v -9.567093 -49.039265 -1.902995
v -9.754524 49.039261 -0.000011
v -19.134188 46.193974 -0.000008
v -27.778522 41.573483 -0.000007
v -35.355354 35.355343 -0.000008
v -41.573498 27.778513 -0.000004
v -46.193996 19.134171 -0.000005
v -49.039288 9.754518 0.000002
v -50.000015 -0.000002 0.000008
v -49.039288 -9.754517 0.000008
v -46.194004 -19.134171 0.000013
v -41.573498 -27.778509 0.000014
v -35.355354 -35.355343 0.000013
v -27.778522 -41.573483 0.000018
v -19.134190 -46.193974 0.000019
v -9.754523 -49.039265 0.000019
v -9.567094 49.039261 1.903003
v -18.766529 46.193974 3.732888
v -27.244764 41.573483 5.419316
v -34.676014 35.355343 6.897483
v -40.774670 27.778513 8.110585
v -45.306389 19.134171 9.011999
v -48.097008 9.754520 9.567095
v -49.039276 0.000001 9.754530
v -48.097008 -9.754514 9.567101
v -45.306400 -19.134171 9.012020
v -40.774677 -27.778509 8.110604
v -34.676014 -35.355343 6.897502
v -27.244764 -41.573483 5.419341
v -18.766533 -46.193974 3.732915
v -9.567093 -49.039265 1.903032
v -9.012005 49.039261 3.732884
v -17.677685 46.193974 7.322330
v -25.664005 41.573483 10.630377
v -32.664089 35.355343 13.529902
v -38.408897 27.778515 15.909492
v -42.677689 19.134178 17.677677
v -45.306389 9.754523 18.766533
v -46.193981 0.000004 19.134190
v -45.306389 -9.754511 18.766533
v -42.677696 -19.134165 17.677698
v -38.408901 -27.778507 15.909504
v -32.664089 -35.355343 13.529927
v -25.664005 -41.573483 10.630402
v -17.677685 -46.193974 7.322360
v -9.012005 -49.039265 3.732914
v -8.110590 49.039261 5.419312
v -15.909496 46.193974 10.630380
v -23.096996 41.573483 15.432917
v -29.396902 35.355343 19.642380
v -34.567097 27.778524 23.097000
v -38.408901 19.134178 25.664017
v -40.774670 9.754526 27.244780
v -41.573483 0.000006 27.778534
v -40.774670 -9.754508 27.244780
v -38.408909 -19.134165 25.664030
v -34.567101 -27.778500 23.097013
v -29.396902 -35.355343 19.642403
v -23.096996 -41.573483 15.432940
v -15.909496 -46.193974 10.630410
v -8.110589 -49.039265 5.419343
v -6.897490 49.039261 6.897480
v -13.529912 46.193974 13.529911
v -19.642378 41.573483 19.642378
v -25.000013 35.355350 25.000011
v -29.396896 27.778524 29.396900
v -32.664085 19.134182 32.664097
v -34.676010 9.754527 34.676022
v -35.355335 0.000008 35.355362
v -34.676010 -9.754507 34.676022
v -32.664089 -19.134159 32.664108
v -29.396896 -27.778500 29.396921
v -25.000013 -35.355331 25.000034
v -19.642378 -41.573483 19.642405
v -13.529914 -46.193974 13.529937
v -6.897489 -49.039265 6.897510
v -5.419323 49.039261 8.110581
v -10.630384 46.193974 15.909491
v -15.432918 41.573490 23.096994
v -19.642384 35.355354 29.396902
v -23.096992 27.778524 34.567097
v -25.664007 19.134184 38.408916
v -27.244762 9.754530 40.774689
v -27.778502 0.000010 41.573505
v -27.244762 -9.754505 40.774689
v -25.664007 -19.134157 38.408924
v -23.096996 -27.778500 34.567123
v -19.642384 -35.355328 29.396925
v -15.432918 -41.573475 23.097021
v -10.630385 -46.193974 15.909517
v -5.419322 -49.039265 8.110610
v -3.732894 49.039261 9.011995
v -7.322336 46.193974 17.677679
v -10.630378 41.573494 25.664005
v -13.529911 35.355354 32.664093
v -15.909486 27.778526 38.408897
v -17.677677 19.134184 42.677700
v -18.766514 9.754531 45.306404
v -19.134161 0.000012 46.194000
v -18.766514 -9.754504 45.306404
v -17.677675 -19.134157 42.677708
v -15.909486 -27.778498 38.408924
v -13.529911 -35.355328 32.664116
v -10.630378 -41.573471 25.664032
v -7.322337 -46.193974 17.677706
v -3.732894 -49.039265 9.012025
v -1.903013 49.039261 9.567083
v -3.732893 46.193974 18.766527
v -5.419318 41.573494 27.244766
v -6.897491 35.355354 34.676014
v -8.110584 27.778526 40.774666
v -9.012002 19.134184 45.306404
v -9.567084 9.754533 48.097015
v -9.754503 0.000013 49.039284
v -9.567084 -9.754501 48.097015
v -9.011997 -19.134157 45.306412
v -8.110584 -27.778498 40.774696
v -6.897491 -35.355328 34.676041
v -5.419318 -41.573471 27.244791
v -3.732895 -46.193974 18.766552
v -1.903013 -49.039265 9.567113
v -0.000000 49.039261 9.754514
v 0.000001 46.193974 19.134182
v 0.000003 41.573494 27.778519
v -0.000002 35.355354 35.355354
v 0.000001 27.778526 41.573486
v -0.000001 19.134184 46.194008
v 0.000004 9.754533 49.039291
v 0.000013 0.000013 50.000015
v 0.000004 -9.754501 49.039291
v 0.000006 -19.134157 46.194016
v 0.000002 -27.778498 41.573521
v -0.000002 -35.355328 35.355381
v 0.000003 -41.573471 27.778545
v -0.000000 -46.193974 19.134209
v 0.000000 -49.039265 9.754543
v 1.903013 49.039261 9.567083
v 3.732896 46.193974 18.766523
v 5.419323 41.573494 27.244761
v 6.897485 35.355354 34.676010
v 8.110585 27.778526 40.774666
v 9.012000 19.134184 45.306404
v 9.567091 9.754533 48.097012
v 9.754529 0.000013 49.039276
v 9.567091 -9.754501 48.097012
v 9.012008 -19.134157 45.306412
v 8.110587 -27.778498 40.774693
v 6.897485 -35.355328 34.676037
v 5.419323 -41.573471 27.244785
v 3.732894 -46.193974 18.766550
v 1.903013 -49.039265 9.567113
v 3.732894 49.039261 9.011994
v 7.322337 46.193974 17.677677
v 10.630383 41.573494 25.664000
v 13.529904 35.355354 32.664085
v 15.909482 27.778526 38.408894
v 17.677671 19.134184 42.677696
v 18.766520 9.754531 45.306396
v 19.134182 0.000012 46.193981
v 18.766520 -9.754504 45.306396
v 17.677683 -19.134157 42.677708
v 15.909486 -27.778498 38.408924
v 13.529904 -35.355328 32.664112
v 10.630383 -41.573471 25.664026
v 7.322336 -46.193974 17.677702
v 3.732893 -49.039265 9.012024
v 5.419322 49.039261 8.110579
v 10.630385 46.193974 15.909488
v 15.432920 41.573490 23.096987
v 19.642378 35.355354 29.396900
v 23.096991 27.778524 34.567093
v 25.664005 19.134184 38.408913
v 27.244764 9.754530 40.774677
v 27.778521 0.000010 41.573479
v 27.244764 -9.754505 40.774677
v 25.664015 -19.134157 38.408916
v 23.096991 -27.778500 34.567123
v 19.642378 -35.355328 29.396921
v 15.432920 -41.573475 23.097013
v 10.630384 -46.193974 15.909513
v 5.419321 -49.039265 8.110609
v 6.897488 49.039261 6.897479
v 13.529912 46.193974 13.529903
v 19.642378 41.573483 19.642370
v 25.000006 35.355350 25.000010
v 29.396893 27.778524 29.396894
v 32.664082 19.134182 32.664097
v 34.676003 9.754527 34.676010
v 35.355343 0.000008 35.355331
v 34.676003 -9.754507 34.676010
v 32.664093 -19.134159 32.664097
v 29.396896 -27.778500 29.396915
v 25.000006 -35.355331 25.000031
v 19.642378 -41.573483 19.642395
v 13.529911 -46.193974 13.529929
v 6.897487 -49.039265 6.897509
v 8.110587 49.039261 5.419312
v 15.909493 46.193974 10.630372
v 23.096991 41.573483 15.432908
v 29.396896 35.355343 19.642380
v 34.567085 27.778524 23.096996
v 38.408897 19.134178 25.664013
v 40.774666 9.754526 27.244766
v 41.573483 0.000006 27.778498
v 40.774666 -9.754508 27.244766
v 38.408909 -19.134165 25.664015
v 34.567093 -27.778500 23.097010
v 29.396896 -35.355343 19.642401
v 23.096991 -41.573483 15.432932
v 15.909492 -46.193974 10.630403
v 8.110587 -49.039265 5.419342
v 0.000004 50.000000 -0.000009
v 9.012002 49.039261 3.732883
v 17.677677 46.193974 7.322325
v 25.664000 41.573483 10.630369
v 32.664082 35.355343 13.529902
v 38.408894 27.778515 15.909487
v 42.677681 19.134178 17.677675
v 45.306377 9.754523 18.766520
v 46.193970 0.000004 19.134155
v 45.306377 -9.754511 18.766520
v 42.677692 -19.134165 17.677683
v 38.408894 -27.778507 15.909500
v 32.664082 -35.355343 13.529927
v 25.664000 -41.573483 10.630393
v 17.677677 -46.193974 7.322354
v 9.012000 -49.039265 3.732913
v 9.567090 49.039261 1.903002
v 18.766521 46.193974 3.732883
v 27.244759 41.573483 5.419308
v 34.676010 35.355343 6.897483
v 40.774666 27.778513 8.110580
v 45.306389 19.134171 9.011996
v 48.096989 9.754520 9.567083
v 49.039249 0.000001 9.754497
v 48.096989 -9.754514 9.567090
v 45.306389 -19.134171 9.012005
v 40.774666 -27.778509 8.110599
v 34.676010 -35.355343 6.897503
v 27.244759 -41.573483 5.419333
v 18.766520 -46.193974 3.732911
v 9.567088 -49.039265 1.903031
v 9.754519 49.039261 -0.000011
v 19.134180 46.193974 -0.000012
v 27.778511 41.573483 -0.000013
v 35.355350 35.355343 -0.000006
v 41.573483 27.778513 -0.000006
v 46.193993 19.134171 -0.000006
v 49.039268 9.754518 -0.000007
v 49.999985 -0.000002 -0.000019
v 49.039268 -9.754517 -0.000001
v 46.193996 -19.134171 -0.000000
v 41.573483 -27.778509 0.000010
v 35.355350 -35.355343 0.000015
v 27.778511 -41.573483 0.000012
v 19.134176 -46.193974 0.000017
v 9.754519 -49.039265 0.000018
v 9.567090 49.039261 -1.903024
v 18.766520 46.193974 -3.732906
v 27.244755 41.573483 -5.419333
v 34.676003 35.355343 -6.897494
v 40.774658 27.778513 -8.110594
v 45.306381 19.134171 -9.012009
v 48.096989 9.754515 -9.567098
v 49.039242 -0.000005 -9.754535
v 48.096989 -9.754520 -9.567091
v 45.306389 -19.134171 -9.012004
v 40.774658 -27.778509 -8.110578
v 34.676003 -35.355343 -6.897474
v 27.244755 -41.573483 -5.419308
v 18.766518 -46.193974 -3.732877
v 9.567087 -49.039265 -1.902995
v 9.012000 49.039261 -3.732906
v 17.677671 46.193974 -7.322347
v 25.663996 41.573483 -10.630391
v 32.664082 35.355343 -13.529918
v 38.408894 27.778511 -15.909493
v 42.677681 19.134165 -17.677683
v 45.306374 9.754512 -18.766525
v 46.193951 -0.000008 -19.134188
v 45.306374 -9.754522 -18.766525
v 42.677681 -19.134178 -17.677681
v 38.408894 -27.778511 -15.909481
v 32.664082 -35.355343 -13.529894
v 25.663996 -41.573483 -10.630367
v 17.677671 -46.193974 -7.322317
v 9.011999 -49.039265 -3.732875
v 8.110585 49.039261 -5.419334
v 15.909482 46.193974 -10.630396
v 23.096983 41.573483 -15.432930
v 29.396896 35.355343 -19.642391
v 34.567085 27.778502 -23.097000
v 38.408894 19.134165 -25.664011
v 40.774654 9.754509 -27.244770
v 41.573452 -0.000011 -27.778526
v 40.774654 -9.754525 -27.244770
v 38.408894 -19.134178 -25.664017
v 34.567085 -27.778521 -23.096987
v 29.396896 -35.355343 -19.642370
v 23.096983 -41.573483 -15.432906
v 15.909482 -46.193974 -10.630364
v 8.110584 -49.039265 -5.419303
v 6.897485 49.039261 -6.897501
v 13.529902 46.193974 -13.529921
v 19.642366 41.573483 -19.642389
v 25.000006 35.355331 -25.000021
v 29.396893 27.778502 -29.396910
v 32.664082 19.134159 -32.664093
v 34.675991 9.754508 -34.676010
v 35.355309 -0.000013 -35.355347
v 34.675991 -9.754526 -34.676010
v 32.664082 -19.134182 -32.664097
v 29.396893 -27.778521 -29.396887
v 25.000006 -35.355350 -24.999998
v 19.642366 -41.573483 -19.642363
v 13.529902 -46.193974 -13.529893
v 6.897484 -49.039265 -6.897469
v 5.419319 49.039261 -8.110600
v 10.630375 46.193974 -15.909500
v 15.432904 41.573471 -23.097004
v 19.642376 35.355328 -29.396914
v 23.096987 27.778502 -34.567108
v 25.664001 19.134157 -38.408905
v 27.244753 9.754505 -40.774677
v 27.778477 -0.000015 -41.573486
v 27.244753 -9.754529 -40.774677
v 25.664001 -19.134184 -38.408913
v 23.096987 -27.778521 -34.567081
v 19.642376 -35.355354 -29.396891
v 15.432904 -41.573494 -23.096977
v 10.630375 -46.193974 -15.909474
v 5.419318 -49.039265 -8.110568
v 3.732891 49.039261 -9.012013
v 7.322328 46.193974 -17.677689
v 10.630367 41.573467 -25.664011
v 13.529903 35.355328 -32.664101
v 15.909481 27.778500 -38.408909
v 17.677670 19.134157 -42.677692
v 18.766506 9.754504 -45.306393
v 19.134138 -0.000016 -46.193974
v 18.766506 -9.754530 -45.306393
v 17.677670 -19.134184 -42.677696
v 15.909481 -27.778522 -38.408882
v 13.529903 -35.355354 -32.664078
v 10.630367 -41.573498 -25.663984
v 7.322329 -46.193974 -17.677662
v 3.732891 -49.039265 -9.011982
v 1.903010 49.039261 -9.567101
v 3.732888 46.193974 -18.766533
v 5.419311 41.573467 -27.244764
v 6.897484 35.355328 -34.676025
v 8.110581 27.778500 -40.774677
v 9.011994 19.134157 -45.306393
v 9.567076 9.754502 -48.097004
v 9.754484 -0.000017 -49.039253
v 9.567076 -9.754532 -48.097004
v 9.011992 -19.134184 -45.306400
v 8.110581 -27.778522 -40.774651
v 6.897484 -35.355354 -34.675999
v 5.419311 -41.573498 -27.244738
v 3.732889 -46.193974 -18.766506
v 1.903010 -49.039265 -9.567070
v -0.000027 -0.000017 -49.999985
v -0.000011 -9.754532 -49.039276
v -0.000010 -19.134184 -46.194004
v -0.000003 -46.193974 -19.134161
v -0.000001 -49.039265 -9.754499
v 0.000000 -50.000000 0.000019
vn 0.0097 -0.9951 0.0980
vn 0.0097 0.9951 0.0980
vn 0.0975 0.0975 0.9904
vn 0.0286 -0.9565 0.2902
vn 0.0938 0.2890 0.9527
vn 0.0464 -0.8810 0.4709
vn 0.0865 0.4696 0.8786
vn 0.0624 -0.7715 0.6332
vn 0.0759 0.6326 0.7708
vn 0.0759 -0.6326 0.7708
vn 0.0624 0.7715 0.6332
vn 0.0865 -0.4696 0.8786
vn 0.0464 0.8810 0.4709
vn 0.0938 -0.2890 0.9527
vn 0.0286 0.9565 0.2902
vn 0.0975 -0.0975 0.9904
vn 0.2779 -0.2890 0.9161
vn 0.0846 0.9565 0.2790
vn 0.2889 -0.0975 0.9524
vn 0.0286 -0.9951 0.0942
vn 0.0286 0.9951 0.0942
vn 0.2889 0.0975 0.9524
vn 0.0846 -0.9565 0.2790
vn 0.2779 0.2890 0.9161
vn 0.1374 -0.8810 0.4528
vn 0.2563 0.4696 0.8448
vn 0.1847 -0.7715 0.6088
vn 0.2248 0.6326 0.7412
vn 0.2248 -0.6326 0.7412
vn 0.1847 0.7715 0.6088
vn 0.2563 -0.4696 0.8448
vn 0.1374 0.8810 0.4528
vn 0.4162 0.4696 0.7786
vn 0.2999 -0.7715 0.5611
vn 0.3651 0.6326 0.6831
vn 0.3651 -0.6326 0.6831
vn 0.2999 0.7715 0.5611
vn 0.4162 -0.4696 0.7786
vn 0.2230 0.8810 0.4173
vn 0.4513 -0.2890 0.8443
vn 0.1374 0.9565 0.2571
vn 0.4691 -0.0975 0.8777
vn 0.0464 -0.9951 0.0869
vn 0.0464 0.9951 0.0869
vn 0.4691 0.0976 0.8777
vn 0.4691 0.0975 0.8777
vn 0.1374 -0.9565 0.2571
vn 0.4513 0.2890 0.8443
vn 0.2231 -0.8810 0.4173
vn 0.1850 0.9565 0.2254
vn 0.6314 -0.0975 0.7693
vn 0.0625 -0.9951 0.0761
vn 0.0625 0.9951 0.0761
vn 0.6314 0.0975 0.7693
vn 0.1850 -0.9565 0.2254
vn 0.6073 0.2890 0.7400
vn 0.3002 -0.8810 0.3658
vn 0.5601 0.4696 0.6825
vn 0.4036 -0.7715 0.4918
vn 0.4913 0.6326 0.5987
vn 0.4913 -0.6326 0.5987
vn 0.4036 0.7715 0.4918
vn 0.5601 -0.4696 0.6825
vn 0.3002 0.8810 0.3658
vn 0.6073 -0.2890 0.7400
vn 0.5987 0.6326 0.4913
vn 0.5987 -0.6326 0.4913
vn 0.4918 0.7715 0.4036
vn 0.6825 -0.4696 0.5601
vn 0.3658 0.8810 0.3002
vn 0.7400 -0.2890 0.6073
vn 0.2254 0.9565 0.1850
vn 0.7693 -0.0975 0.6314
vn 0.0761 -0.9951 0.0625
vn 0.0761 0.9951 0.0625
vn 0.7693 0.0975 0.6314
vn 0.2254 -0.9565 0.1850
vn 0.7400 0.2890 0.6073
vn 0.3658 -0.8810 0.3002
vn 0.6825 0.4696 0.5601
vn 0.4918 -0.7715 0.4036
vn 0.0869 -0.9951 0.0464
vn 0.0869 0.9951 0.0464
vn 0.8777 0.0975 0.4691
vn 0.2571 -0.9565 0.1374
vn 0.8443 0.2890 0.4513
vn 0.4173 -0.8810 0.2230
vn 0.7786 0.4696 0.4162
vn 0.5611 -0.7715 0.2999
vn 0.6831 0.6326 0.3651
vn 0.6831 -0.6326 0.3651
vn 0.5611 0.7715 0.2999
vn 0.7786 -0.4696 0.4162
vn 0.4173 0.8810 0.2230
vn 0.8443 -0.2890 0.4513
vn 0.2571 0.9565 0.1374
vn 0.8777 -0.0975 0.4691
vn 0.7412 -0.6326 0.2248
vn 0.6088 0.7715 0.1847
vn 0.8448 -0.4696 0.2563
vn 0.4528 0.8810 0.1374
vn 0.9161 -0.2890 0.2779
vn 0.2790 0.9565 0.0846
vn 0.9524 -0.0975 0.2889
vn 0.0942 -0.9951 0.0286
vn 0.0942 0.9951 0.0286
vn 0.9524 0.0975 0.2889
vn 0.2790 -0.9565 0.0846
vn 0.9161 0.2890 0.2779
vn 0.4528 -0.8810 0.1374
vn 0.8448 0.4696 0.2563
vn 0.6088 -0.7715 0.1847
vn 0.7412 0.6326 0.2248
vn 0.9904 0.0975 0.0975
vn 0.2902 -0.9565 0.0286
vn 0.9527 0.2890 0.0938
vn 0.4709 -0.8810 0.0464
vn 0.8786 0.4696 0.0865
vn 0.6332 -0.7715 0.0624
vn 0.7708 0.6326 0.0759
vn 0.7708 -0.6326 0.0759
vn 0.6332 0.7715 0.0624
vn 0.8786 -0.4696 0.0865
vn 0.4709 0.8810 0.0464
vn 0.9527 -0.2890 0.0938
vn 0.2902 0.9565 0.0286
vn 0.9904 -0.0975 0.0976
vn 0.0980 -0.9951 0.0097
vn 0.0980 0.9951 0.0097
vn 0.6332 0.7715 -0.0624
vn 0.8786 -0.4696 -0.0865
vn 0.4709 0.8810 -0.0464
vn 0.9527 -0.2890 -0.0938
vn 0.2902 0.9565 -0.0286
vn 0.9904 -0.0975 -0.0976
vn 0.9904 -0.0975 -0.0975
vn 0.0980 -0.9951 -0.0097
vn 0.0980 0.9951 -0.0097
vn 0.9904 0.0975 -0.0976
vn 0.2902 -0.9565 -0.0286
vn 0.9527 0.2890 -0.0938
vn 0.4709 -0.8810 -0.0464
vn 0.8786 0.4696 -0.0865
vn 0.6332 -0.7715 -0.0624
vn 0.7708 0.6326 -0.0759
vn 0.7708 -0.6326 -0.0759
vn 0.2790 -0.9565 -0.0846
vn 0.9161 0.2890 -0.2779
vn 0.4528 -0.8810 -0.1374
vn 0.8448 0.4696 -0.2563
vn 0.6088 -0.7715 -0.1847
vn 0.7412 0.6326 -0.2248
vn 0.7412 -0.6326 -0.2248
vn 0.6088 0.7715 -0.1847
vn 0.8448 -0.4696 -0.2563
vn 0.4528 0.8810 -0.1374
vn 0.9161 -0.2890 -0.2779
vn 0.2790 0.9565 -0.0846
vn 0.9524 -0.0975 -0.2889
vn 0.0942 -0.9951 -0.0286
vn 0.0942 0.9951 -0.0286
vn 0.9524 0.0975 -0.2889
vn 0.7786 -0.4696 -0.4162
vn 0.4173 0.8810 -0.2230
vn 0.8443 -0.2890 -0.4513
vn 0.2571 0.9565 -0.1374
vn 0.8777 -0.0975 -0.4691
vn 0.0869 -0.9951 -0.0464
vn 0.0869 0.9951 -0.0464
vn 0.8777 0.0975 -0.4691
vn 0.2571 -0.9565 -0.1374
vn 0.8443 0.2890 -0.4513
vn 0.4173 -0.8810 -0.2230
vn 0.7786 0.4696 -0.4162
vn 0.5611 -0.7715 -0.2999
vn 0.6831 0.6326 -0.3651
vn 0.6831 -0.6326 -0.3651
vn 0.5611 0.7715 -0.2999
vn 0.7400 0.2890 -0.6073
vn 0.3658 -0.8810 -0.3002
vn 0.6825 0.4696 -0.5601
vn 0.4918 -0.7715 -0.4036
vn 0.5987 0.6326 -0.4913
vn 0.5987 -0.6326 -0.4913
vn 0.4918 0.7715 -0.4036
vn 0.6825 -0.4696 -0.5601
vn 0.3658 0.8810 -0.3002
vn 0.7400 -0.2890 -0.6073
vn 0.2254 0.9565 -0.1850
vn 0.7693 -0.0975 -0.6314
vn 0.0761 -0.9951 -0.0625
vn 0.0761 0.9951 -0.0625
vn 0.7693 0.0975 -0.6314
vn 0.2254 -0.9565 -0.1850
vn 0.3002 0.8810 -0.3658
vn 0.6073 -0.2890 -0.7400
vn 0.1850 0.9565 -0.2254
vn 0.6314 -0.0975 -0.7693
vn 0.0625 -0.9951 -0.0761
vn 0.0625 0.9951 -0.0761
vn 0.6314 0.0975 -0.7693
vn 0.1850 -0.9565 -0.2254
vn 0.6073 0.2890 -0.7400
vn 0.3002 -0.8810 -0.3658
vn 0.5601 0.4696 -0.6825
vn 0.4036 -0.7715 -0.4918
vn 0.4913 0.6326 -0.5987
vn 0.4913 -0.6326 -0.5987
vn 0.4036 0.7715 -0.4918
vn 0.5601 -0.4696 -0.6825
vn 0.4162 0.4696 -0.7786
vn 0.2999 -0.7715 -0.5611
vn 0.3651 0.6326 -0.6831
vn 0.3651 -0.6326 -0.6831
vn 0.2999 0.7715 -0.5611
vn 0.4162 -0.4696 -0.7786
vn 0.2230 0.8810 -0.4173
vn 0.4513 -0.2890 -0.8443
vn 0.1374 0.9565 -0.2571
vn 0.4691 -0.0975 -0.8777
vn 0.0464 -0.9951 -0.0869
vn 0.0464 0.9951 -0.0869
vn 0.4691 0.0975 -0.8777
vn 0.1374 -0.9565 -0.2571
vn 0.4513 0.2890 -0.8443
vn 0.2230 -0.8810 -0.4173
vn 0.0846 0.9565 -0.2790
vn 0.2889 -0.0975 -0.9524
vn 0.0286 -0.9951 -0.0942
vn 0.0286 0.9951 -0.0942
vn 0.2889 0.0975 -0.9524
vn 0.0846 -0.9565 -0.2790
vn 0.2779 0.2890 -0.9161
vn 0.1374 -0.8810 -0.4528
vn 0.2563 0.4696 -0.8448
vn 0.1847 -0.7715 -0.6088
vn 0.2248 0.6326 -0.7412
vn 0.2248 -0.6326 -0.7412
vn 0.1847 0.7715 -0.6088
vn 0.2563 -0.4696 -0.8448
vn 0.1374 0.8810 -0.4528
vn 0.2779 -0.2890 -0.9161
vn 0.0624 -0.7715 -0.6332
vn 0.0759 0.6326 -0.7708
vn 0.0759 -0.6326 -0.7708
vn 0.0624 0.7715 -0.6332
vn 0.0865 -0.4696 -0.8786
vn 0.0464 0.8810 -0.4709
vn 0.0938 -0.2890 -0.9527
vn 0.0286 0.9565 -0.2902
vn 0.0975 -0.0975 -0.9904
vn 0.0097 -0.9951 -0.0980
vn 0.0097 0.9951 -0.0980
vn 0.0975 0.0975 -0.9904
vn 0.0286 -0.9565 -0.2902
vn 0.0938 0.2890 -0.9527
vn 0.0464 -0.8810 -0.4709
vn 0.0865 0.4696 -0.8786
vn -0.0976 -0.0975 -0.9904
vn -0.0975 -0.0975 -0.9904
vn -0.0097 -0.9951 -0.0980
vn -0.0097 0.9951 -0.0980
vn -0.0976 0.0975 -0.9904
vn -0.0286 -0.9565 -0.2902
vn -0.0938 0.2890 -0.9527
vn -0.0464 -0.8810 -0.4709
vn -0.0865 0.4696 -0.8786
vn -0.0624 -0.7715 -0.6332
vn -0.0759 0.6326 -0.7708
vn -0.0759 -0.6326 -0.7708
vn -0.0624 0.7715 -0.6332
vn -0.0865 -0.4696 -0.8786
vn -0.0464 0.8810 -0.4709
vn -0.0938 -0.2890 -0.9527
vn -0.0286 0.9565 -0.2902
vn -0.2248 0.6326 -0.7412
vn -0.2248 -0.6326 -0.7412
vn -0.1847 0.7715 -0.6088
vn -0.2563 -0.4696 -0.8448
vn -0.1374 0.8810 -0.4528
vn -0.2779 -0.2890 -0.9161
vn -0.0846 0.9565 -0.2790
vn -0.2889 -0.0975 -0.9524
vn -0.0286 -0.9951 -0.0942
vn -0.0286 0.9951 -0.0942
vn -0.2889 0.0975 -0.9524
vn -0.0846 -0.9565 -0.2790
vn -0.2779 0.2890 -0.9161
vn -0.1374 -0.8810 -0.4528
vn -0.2563 0.4696 -0.8448
vn -0.1847 -0.7715 -0.6088
vn -0.0464 -0.9951 -0.0869
vn -0.0464 0.9951 -0.0869
vn -0.4691 0.0975 -0.8777
vn -0.1374 -0.9565 -0.2571
vn -0.4513 0.2890 -0.8443
vn -0.2231 -0.8810 -0.4173
vn -0.4162 0.4696 -0.7786
vn -0.2999 -0.7715 -0.5611
vn -0.3651 0.6326 -0.6831
vn -0.3651 -0.6326 -0.6831
vn -0.2999 0.7715 -0.5611
vn -0.4162 -0.4696 -0.7786
vn -0.2230 0.8810 -0.4173
vn -0.4513 -0.2890 -0.8443
vn -0.1374 0.9565 -0.2571
vn -0.4691 -0.0975 -0.8777
vn -0.4913 -0.6326 -0.5987
vn -0.4036 0.7715 -0.4918
vn -0.5601 -0.4696 -0.6825
vn -0.3002 0.8810 -0.3658
vn -0.6073 -0.2890 -0.7400
vn -0.1850 0.9565 -0.2254
vn -0.6314 -0.0975 -0.7693
vn -0.0625 -0.9951 -0.0761
vn -0.0625 0.9951 -0.0761
vn -0.6314 0.0975 -0.7693
vn -0.1850 -0.9565 -0.2254
vn -0.6073 0.2890 -0.7400
vn -0.3002 -0.8810 -0.3658
vn -0.5601 0.4696 -0.6825
vn -0.4036 -0.7715 -0.4918
vn -0.4913 0.6326 -0.5987
vn -0.7693 0.0975 -0.6314
vn -0.2254 -0.9565 -0.1850
vn -0.7400 0.2890 -0.6073
vn -0.3658 -0.8810 -0.3002
vn -0.6825 0.4696 -0.5601
vn -0.4918 -0.7715 -0.4036
vn -0.5987 0.6326 -0.4913
vn -0.5987 -0.6326 -0.4913
vn -0.4918 0.7715 -0.4036
vn -0.6825 -0.4696 -0.5601
vn -0.3658 0.8810 -0.3002
vn -0.7400 -0.2890 -0.6073
vn -0.2254 0.9565 -0.1850
vn -0.7693 -0.0975 -0.6314
vn -0.0761 -0.9951 -0.0625
vn -0.0761 0.9951 -0.0625
vn -0.5611 0.7715 -0.2999
vn -0.7786 -0.4696 -0.4162
vn -0.4173 0.8810 -0.2230
vn -0.8443 -0.2890 -0.4513
vn -0.2571 0.9565 -0.1374
vn -0.8777 -0.0975 -0.4691
vn -0.0869 -0.9951 -0.0464
vn -0.0869 0.9951 -0.0464
vn -0.8777 0.0975 -0.4691
vn -0.2571 -0.9565 -0.1374
vn -0.8443 0.2890 -0.4513
vn -0.4173 -0.8810 -0.2230
vn -0.7786 0.4696 -0.4162
vn -0.5611 -0.7715 -0.2999
vn -0.6831 0.6326 -0.3651
vn -0.6831 -0.6326 -0.3651
vn -0.9161 0.2890 -0.2779
vn -0.4528 -0.8810 -0.1374
vn -0.8448 0.4696 -0.2563
vn -0.6088 -0.7715 -0.1847
vn -0.7412 0.6326 -0.2248
vn -0.7412 -0.6326 -0.2248
vn -0.6088 0.7715 -0.1847
vn -0.8448 -0.4696 -0.2563
vn -0.4528 0.8810 -0.1374
vn -0.9161 -0.2890 -0.2779
vn -0.2790 0.9565 -0.0846
vn -0.9524 -0.0975 -0.2889
vn -0.0942 -0.9951 -0.0286
vn -0.0942 0.9951 -0.0286
vn -0.9524 0.0975 -0.2889
vn -0.2790 -0.9565 -0.0846
vn -0.4709 0.8810 -0.0464
vn -0.9527 -0.2890 -0.0938
vn -0.2902 0.9565 -0.0286
vn -0.9904 -0.0975 -0.0975
vn -0.0980 -0.9951 -0.0097
vn -0.0980 0.9951 -0.0097
vn -0.9904 0.0975 -0.0975
vn -0.9904 0.0975 -0.0976
vn -0.2902 -0.9565 -0.0286
vn -0.9527 0.2890 -0.0938
vn -0.4709 -0.8810 -0.0464
vn -0.8786 0.4696 -0.0865
vn -0.6332 -0.7715 -0.0624
vn -0.7708 0.6326 -0.0759
vn -0.7708 -0.6326 -0.0759
vn -0.6332 0.7715 -0.0624
vn -0.8786 -0.4696 -0.0865
vn -0.4709 -0.8810 0.0464
vn -0.8786 0.4696 0.0865
vn -0.6332 -0.7715 0.0624
vn -0.7708 0.6326 0.0759
vn -0.7708 -0.6326 0.0759
vn -0.6332 0.7715 0.0624
vn -0.8786 -0.4696 0.0865
vn -0.4709 0.8810 0.0464
vn -0.9527 -0.2890 0.0938
vn -0.2902 0.9565 0.0286
vn -0.9904 -0.0975 0.0976
vn -0.9904 -0.0975 0.0975
vn -0.0980 -0.9951 0.0097
vn -0.0980 0.9951 0.0097
vn -0.9904 0.0975 0.0975
vn -0.2902 -0.9565 0.0286
vn -0.9527 0.2890 0.0938
vn -0.9161 -0.2890 0.2779
vn -0.2790 0.9565 0.0846
vn -0.9524 -0.0975 0.2889
vn -0.0942 -0.9951 0.0286
vn -0.0942 0.9951 0.0286
vn -0.9524 0.0975 0.2889
vn -0.2790 -0.9565 0.0846
vn -0.2790 -0.9566 0.0846
vn -0.9161 0.2890 0.2779
vn -0.4528 -0.8810 0.1374
vn -0.8448 0.4696 0.2563
vn -0.6088 -0.7715 0.1847
vn -0.7412 0.6326 0.2248
vn -0.7412 -0.6326 0.2248
vn -0.6088 0.7715 0.1847
vn -0.8448 -0.4696 0.2563
vn -0.4528 0.8810 0.1374
vn -0.7786 0.4696 0.4162
vn -0.5611 -0.7715 0.2999
vn -0.6831 0.6326 0.3651
vn -0.6831 -0.6326 0.3651
vn -0.5611 0.7715 0.2999
vn -0.7786 -0.4696 0.4162
vn -0.4173 0.8810 0.2230
vn -0.8443 -0.2890 0.4513
vn -0.2571 0.9565 0.1374
vn -0.8777 -0.0975 0.4691
vn -0.0869 -0.9951 0.0464
vn -0.0869 0.9951 0.0464
vn -0.8777 0.0975 0.4691
vn -0.2571 -0.9565 0.1374
vn -0.8443 0.2890 0.4513
vn -0.4173 -0.8810 0.2230
vn -0.2254 0.9565 0.1850
vn -0.7693 -0.0975 0.6314
vn -0.0761 -0.9951 0.0625
vn -0.0761 0.9951 0.0625
vn -0.7693 0.0975 0.6314
vn -0.2254 -0.9565 0.1850
vn -0.7400 0.2890 0.6073
vn -0.3658 -0.8810 0.3002
vn -0.6825 0.4696 0.5601
vn -0.4918 -0.7715 0.4036
vn -0.5987 0.6326 0.4913
vn -0.5987 -0.6326 0.4913
vn -0.4918 0.7715 0.4036
vn -0.6825 -0.4696 0.5601
vn -0.3658 0.8810 0.3002
vn -0.7400 -0.2890 0.6073
vn -0.4036 -0.7715 0.4918
vn -0.4913 0.6326 0.5987
vn -0.4913 -0.6326 0.5987
vn -0.4036 0.7715 0.4918
vn -0.5601 -0.4696 0.6825
vn -0.3002 0.8810 0.3658
vn -0.6073 -0.2890 0.7400
vn -0.1850 0.9565 0.2254
vn -0.6314 -0.0975 0.7693
vn -0.0625 -0.9951 0.0761
vn -0.0625 0.9951 0.0761
vn -0.6314 0.0975 0.7693
vn -0.1850 -0.9565 0.2254
vn -0.6073 0.2890 0.7400
vn -0.3002 -0.8810 0.3658
vn -0.5601 0.4696 0.6825
vn -0.4691 -0.0975 0.8777
vn -0.0464 -0.9951 0.0869
vn -0.0464 0.9951 0.0869
vn -0.4691 0.0975 0.8777
vn -0.1374 -0.9565 0.2571
vn -0.4513 0.2890 0.8443
vn -0.2230 -0.8810 0.4173
vn -0.2231 -0.8810 0.4173
vn -0.4162 0.4696 0.7786
vn -0.2999 -0.7715 0.5611
vn -0.3651 0.6326 0.6831
vn -0.3651 -0.6326 0.6831
vn -0.2999 0.7715 0.5611
vn -0.4162 -0.4696 0.7786
vn -0.2231 0.8810 0.4173
vn -0.2230 0.8810 0.4173
vn -0.4513 -0.2890 0.8443
vn -0.1374 0.9565 0.2571
vn -0.2248 0.6326 0.7412
vn -0.2248 -0.6326 0.7412
vn -0.1847 0.7715 0.6088
vn -0.2563 -0.4696 0.8448
vn -0.1374 0.8810 0.4528
vn -0.2779 -0.2890 0.9161
vn -0.0846 0.9565 0.2790
vn -0.2889 -0.0975 0.9524
vn -0.0286 -0.9951 0.0942
vn -0.0286 0.9951 0.0942
vn -0.2889 0.0975 0.9524
vn -0.0846 -0.9565 0.2790
vn -0.2779 0.2890 0.9161
vn -0.1374 -0.8810 0.4528
vn -0.2563 0.4696 0.8448
vn -0.1847 -0.7715 0.6088
vn -0.0097 0.9951 0.0980
vn -0.0975 0.0975 0.9904
vn -0.0286 -0.9565 0.2902
vn -0.0938 0.2890 0.9527
vn -0.0464 -0.8810 0.4709
vn -0.0865 0.4696 0.8786
vn -0.0624 -0.7715 0.6332
vn -0.0759 0.6326 0.7708
vn -0.0759 -0.6326 0.7708
vn -0.0624 0.7715 0.6332
vn -0.0865 -0.4696 0.8786
vn -0.0464 0.8810 0.4709
vn -0.0938 -0.2890 0.9527
vn -0.0286 0.9565 0.2902
vn -0.0976 -0.0975 0.9904
vn -0.0975 -0.0975 0.9904
vn -0.0097 -0.9951 0.0980
vn 0.0976 -0.0975 0.9904
vn 0.4691 -0.0976 0.8777
vn 0.9904 0.0975 -0.0975
vn -0.0975 0.0975 -0.9904
vn -0.2231 0.8810 -0.4173
vn -0.9904 -0.0975 -0.0976
vt 0.750000 0.937500
vt 0.734375 1.000000
vt 0.718750 0.937500
vt 0.734375 0.000000
vt 0.750000 0.062500
vt 0.718750 0.062500
vt 0.750000 0.500000
vt 0.718750 0.437500
vt 0.750000 0.437500
vt 0.718750 0.875000
vt 0.750000 0.875000
vt 0.718750 0.375000
vt 0.750000 0.375000
vt 0.750000 0.812500
vt 0.718750 0.812500
vt 0.718750 0.312500
vt 0.750000 0.312500
vt 0.718750 0.750000
vt 0.750000 0.750000
vt 0.750000 0.250000
vt 0.718750 0.250000
vt 0.750000 0.687500
vt 0.718750 0.687500
vt 0.718750 0.187500
vt 0.750000 0.187500
vt 0.718750 0.625000
vt 0.750000 0.625000
vt 0.718750 0.125000
vt 0.750000 0.125000
vt 0.718750 0.562500
vt 0.750000 0.562500
vt 0.718750 0.500000
vt 0.687500 0.562500
vt 0.687500 0.062500
vt 0.687500 0.500000
vt 0.703125 1.000000
vt 0.687500 0.937500
vt 0.703125 0.000000
vt 0.687500 0.437500
vt 0.687500 0.875000
vt 0.687500 0.375000
vt 0.687500 0.812500
vt 0.687500 0.312500
vt 0.687500 0.750000
vt 0.687500 0.250000
vt 0.687500 0.687500
vt 0.687500 0.187500
vt 0.687500 0.625000
vt 0.687500 0.125000
vt 0.656250 0.375000
vt 0.656250 0.312500
vt 0.656250 0.750000
vt 0.656250 0.250000
vt 0.656250 0.687500
vt 0.656250 0.187500
vt 0.656250 0.625000
vt 0.656250 0.125000
vt 0.656250 0.562500
vt 0.656250 0.062500
vt 0.656250 0.500000
vt 0.671875 1.000000
vt 0.656250 0.937500
vt 0.671875 0.000000
vt 0.656250 0.437500
vt 0.656250 0.875000
vt 0.656250 0.812500
vt 0.625000 0.062500
vt 0.625000 0.562500
vt 0.625000 0.500000
vt 0.640625 1.000000
vt 0.625000 0.937500
vt 0.640625 0.000000
vt 0.625000 0.437500
vt 0.625000 0.875000
vt 0.625000 0.375000
vt 0.625000 0.812500
vt 0.625000 0.312500
vt 0.625000 0.750000
vt 0.625000 0.250000
vt 0.625000 0.687500
vt 0.625000 0.187500
vt 0.625000 0.625000
vt 0.625000 0.125000
vt 0.593750 0.250000
vt 0.593750 0.687500
vt 0.593750 0.187500
vt 0.593750 0.625000
vt 0.593750 0.125000
vt 0.593750 0.562500
vt 0.593750 0.062500
vt 0.593750 0.500000
vt 0.609375 1.000000
vt 0.593750 0.937500
vt 0.609375 0.000000
vt 0.593750 0.437500
vt 0.593750 0.875000
vt 0.593750 0.375000
vt 0.593750 0.812500
vt 0.593750 0.312500
vt 0.593750 0.750000
vt 0.578125 1.000000
vt 0.562500 0.937500
vt 0.578125 0.000000
vt 0.562500 0.062500
vt 0.562500 0.437500
vt 0.562500 0.875000
vt 0.562500 0.375000
vt 0.562500 0.812500
vt 0.562500 0.312500
vt 0.562500 0.750000
vt 0.562500 0.250000
vt 0.562500 0.687500
vt 0.562500 0.187500
vt 0.562500 0.625000
vt 0.562500 0.125000
vt 0.562500 0.562500
vt 0.562500 0.500000
vt 0.531250 0.750000
vt 0.531250 0.687500
vt 0.531250 0.250000
vt 0.531250 0.187500
vt 0.531250 0.625000
vt 0.531250 0.125000
vt 0.531250 0.562500
vt 0.531250 0.062500
vt 0.531250 0.500000
vt 0.546875 1.000000
vt 0.531250 0.937500
vt 0.546875 0.000000
vt 0.531250 0.437500
vt 0.531250 0.875000
vt 0.531250 0.375000
vt 0.531250 0.812500
vt 0.531250 0.312500
vt 0.500000 0.437500
vt 0.500000 0.875000
vt 0.500000 0.375000
vt 0.500000 0.812500
vt 0.500000 0.312500
vt 0.500000 0.750000
vt 0.500000 0.250000
vt 0.500000 0.687500
vt 0.500000 0.187500
vt 0.500000 0.625000
vt 0.500000 0.125000
vt 0.500000 0.562500
vt 0.500000 0.062500
vt 0.500000 0.500000
vt 0.515625 1.000000
vt 0.500000 0.937500
vt 0.515625 0.000000
vt 0.468750 0.250000
vt 0.468750 0.187500
vt 0.468750 0.625000
vt 0.468750 0.125000
vt 0.468750 0.562500
vt 0.468750 0.062500
vt 0.468750 0.500000
vt 0.484375 1.000000
vt 0.468750 0.937500
vt 0.484375 0.000000
vt 0.468750 0.437500
vt 0.468750 0.875000
vt 0.468750 0.375000
vt 0.468750 0.812500
vt 0.468750 0.312500
vt 0.468750 0.750000
vt 0.468750 0.687500
vt 0.437500 0.937500
vt 0.437500 0.875000
vt 0.437500 0.375000
vt 0.437500 0.812500
vt 0.437500 0.312500
vt 0.437500 0.750000
vt 0.437500 0.250000
vt 0.437500 0.687500
vt 0.437500 0.187500
vt 0.437500 0.625000
vt 0.437500 0.125000
vt 0.437500 0.562500
vt 0.437500 0.062500
vt 0.437500 0.500000
vt 0.453125 1.000000
vt 0.453125 0.000000
vt 0.437500 0.437500
vt 0.406250 0.625000
vt 0.406250 0.125000
vt 0.406250 0.562500
vt 0.406250 0.062500
vt 0.406250 0.500000
vt 0.421875 1.000000
vt 0.406250 0.937500
vt 0.421875 0.000000
vt 0.406250 0.437500
vt 0.406250 0.875000
vt 0.406250 0.375000
vt 0.406250 0.812500
vt 0.406250 0.312500
vt 0.406250 0.750000
vt 0.406250 0.250000
vt 0.406250 0.687500
vt 0.406250 0.187500
vt 0.375000 0.437500
vt 0.375000 0.375000
vt 0.375000 0.812500
vt 0.375000 0.312500
vt 0.375000 0.750000
vt 0.375000 0.250000
vt 0.375000 0.687500
vt 0.375000 0.187500
vt 0.375000 0.625000
vt 0.375000 0.125000
vt 0.375000 0.562500
vt 0.375000 0.062500
vt 0.375000 0.500000
vt 0.390625 1.000000
vt 0.375000 0.937500
vt 0.390625 0.000000
vt 0.375000 0.875000
vt 0.343750 0.125000
vt 0.343750 0.562500
vt 0.343750 0.062500
vt 0.343750 0.500000
vt 0.359375 1.000000
vt 0.343750 0.937500
vt 0.359375 0.000000
vt 0.343750 0.437500
vt 0.343750 0.875000
vt 0.343750 0.375000
vt 0.343750 0.812500
vt 0.343750 0.312500
vt 0.343750 0.750000
vt 0.343750 0.250000
vt 0.343750 0.687500
vt 0.343750 0.187500
vt 0.343750 0.625000
vt 0.312500 0.312500
vt 0.312500 0.812500
vt 0.312500 0.750000
vt 0.312500 0.250000
vt 0.312500 0.687500
vt 0.312500 0.187500
vt 0.312500 0.625000
vt 0.312500 0.125000
vt 0.312500 0.562500
vt 0.312500 0.062500
vt 0.312500 0.500000
vt 0.328125 1.000000
vt 0.312500 0.937500
vt 0.328125 0.000000
vt 0.312500 0.437500
vt 0.312500 0.875000
vt 0.312500 0.375000
vt 0.281250 0.062500
vt 0.281250 0.562500
vt 0.281250 0.500000
vt 0.296875 1.000000
vt 0.281250 0.937500
vt 0.296875 0.000000
vt 0.281250 0.437500
vt 0.281250 0.875000
vt 0.281250 0.375000
vt 0.281250 0.812500
vt 0.281250 0.312500
vt 0.281250 0.750000
vt 0.281250 0.250000
vt 0.281250 0.687500
vt 0.281250 0.187500
vt 0.281250 0.625000
vt 0.281250 0.125000
vt 0.250000 0.750000
vt 0.250000 0.250000
vt 0.250000 0.687500
vt 0.250000 0.187500
vt 0.250000 0.625000
vt 0.250000 0.125000
vt 0.250000 0.562500
vt 0.250000 0.062500
vt 0.250000 0.500000
vt 0.265625 1.000000
vt 0.250000 0.937500
vt 0.265625 0.000000
vt 0.250000 0.437500
vt 0.250000 0.875000
vt 0.250000 0.375000
vt 0.250000 0.812500
vt 0.250000 0.312500
vt 0.218750 0.562500
vt 0.218750 0.500000
vt 0.234375 1.000000
vt 0.218750 0.937500
vt 0.234375 0.000000
vt 0.218750 0.062500
vt 0.218750 0.437500
vt 0.218750 0.875000
vt 0.218750 0.375000
vt 0.218750 0.812500
vt 0.218750 0.312500
vt 0.218750 0.750000
vt 0.218750 0.250000
vt 0.218750 0.687500
vt 0.218750 0.187500
vt 0.218750 0.625000
vt 0.218750 0.125000
vt 0.187500 0.250000
vt 0.187500 0.687500
vt 0.187500 0.187500
vt 0.187500 0.625000
vt 0.187500 0.125000
vt 0.187500 0.562500
vt 0.187500 0.062500
vt 0.187500 0.500000
vt 0.203125 1.000000
vt 0.187500 0.937500
vt 0.203125 0.000000
vt 0.187500 0.437500
vt 0.187500 0.875000
vt 0.187500 0.375000
vt 0.187500 0.812500
vt 0.187500 0.312500
vt 0.187500 0.750000
vt 0.171875 1.000000
vt 0.156250 0.937500
vt 0.171875 0.000000
vt 0.156250 0.062500
vt 0.156250 0.437500
vt 0.156250 0.875000
vt 0.156250 0.375000
vt 0.156250 0.812500
vt 0.156250 0.312500
vt 0.156250 0.750000
vt 0.156250 0.250000
vt 0.156250 0.687500
vt 0.156250 0.187500
vt 0.156250 0.625000
vt 0.156250 0.125000
vt 0.156250 0.562500
vt 0.156250 0.500000
vt 0.125000 0.750000
vt 0.125000 0.687500
vt 0.125000 0.250000
vt 0.125000 0.187500
vt 0.125000 0.625000
vt 0.125000 0.125000
vt 0.125000 0.562500
vt 0.125000 0.062500
vt 0.125000 0.500000
vt 0.140625 1.000000
vt 0.125000 0.937500
vt 0.140625 0.000000
vt 0.125000 0.437500
vt 0.125000 0.875000
vt 0.125000 0.375000
vt 0.125000 0.812500
vt 0.125000 0.312500
vt 0.093750 0.437500
vt 0.093750 0.875000
vt 0.093750 0.375000
vt 0.093750 0.812500
vt 0.093750 0.312500
vt 0.093750 0.750000
vt 0.093750 0.250000
vt 0.093750 0.687500
vt 0.093750 0.187500
vt 0.093750 0.625000
vt 0.093750 0.125000
vt 0.093750 0.562500
vt 0.093750 0.062500
vt 0.093750 0.500000
vt 0.109375 1.000000
vt 0.093750 0.937500
vt 0.109375 0.000000
vt 0.062500 0.250000
vt 0.062500 0.187500
vt 0.062500 0.687500
vt 0.062500 0.625000
vt 0.062500 0.125000
vt 0.062500 0.562500
vt 0.062500 0.062500
vt 0.062500 0.500000
vt 0.078125 1.000000
vt 0.062500 0.937500
vt 0.078125 0.000000
vt 0.062500 0.437500
vt 0.062500 0.875000
vt 0.062500 0.375000
vt 0.062500 0.812500
vt 0.062500 0.312500
vt 0.062500 0.750000
vt 0.031250 0.437500
vt 0.031250 0.375000
vt 0.031250 0.875000
vt 0.031250 0.812500
vt 0.031250 0.312500
vt 0.031250 0.750000
vt 0.031250 0.250000
vt 0.031250 0.687500
vt 0.031250 0.187500
vt 0.031250 0.625000
vt 0.031250 0.125000
vt 0.031250 0.562500
vt 0.031250 0.062500
vt 0.031250 0.500000
vt 0.046875 1.000000
vt 0.031250 0.937500
vt 0.046875 0.000000
vt 0.000000 0.125000
vt 0.000000 0.562500
vt 0.000000 0.062500
vt 0.000000 0.500000
vt 0.015625 1.000000
vt 0.000000 0.937500
vt 0.015625 0.000000
vt 0.000000 0.437500
vt 0.000000 0.875000
vt 0.000000 0.375000
vt 0.000000 0.812500
vt 0.000000 0.312500
vt 0.000000 0.750000
vt 0.000000 0.250000
vt 0.000000 0.687500
vt 0.000000 0.187500
vt 0.000000 0.625000
vt 1.000000 0.875000
vt 0.968750 0.812500
vt 1.000000 0.812500
vt 1.000000 0.375000
vt 0.968750 0.312500
vt 1.000000 0.312500
vt 0.968750 0.750000
vt 1.000000 0.750000
vt 0.968750 0.250000
vt 1.000000 0.250000
vt 0.968750 0.687500
vt 1.000000 0.687500
vt 1.000000 0.187500
vt 0.968750 0.187500
vt 0.968750 0.625000
vt 1.000000 0.625000
vt 0.968750 0.125000
vt 1.000000 0.125000
vt 0.968750 0.562500
vt 1.000000 0.562500
vt 0.968750 0.062500
vt 1.000000 0.062500
vt 1.000000 0.500000
vt 0.968750 0.500000
vt 1.000000 0.937500
vt 0.984375 1.000000
vt 0.968750 0.937500
vt 0.984375 0.000000
vt 0.968750 0.437500
vt 1.000000 0.437500
vt 0.968750 0.875000
vt 0.968750 0.375000
vt 0.937500 0.625000
vt 0.937500 0.562500
vt 0.937500 0.062500
vt 0.937500 0.500000
vt 0.953125 1.000000
vt 0.937500 0.937500
vt 0.953125 0.000000
vt 0.937500 0.437500
vt 0.937500 0.875000
vt 0.937500 0.375000
vt 0.937500 0.812500
vt 0.937500 0.312500
vt 0.937500 0.750000
vt 0.937500 0.250000
vt 0.937500 0.687500
vt 0.937500 0.187500
vt 0.937500 0.125000
vt 0.906250 0.312500
vt 0.906250 0.750000
vt 0.906250 0.250000
vt 0.906250 0.687500
vt 0.906250 0.187500
vt 0.906250 0.625000
vt 0.906250 0.125000
vt 0.906250 0.562500
vt 0.906250 0.062500
vt 0.906250 0.500000
vt 0.921875 1.000000
vt 0.906250 0.937500
vt 0.921875 0.000000
vt 0.906250 0.437500
vt 0.906250 0.875000
vt 0.906250 0.375000
vt 0.906250 0.812500
vt 0.875000 0.062500
vt 0.875000 0.562500
vt 0.875000 0.500000
vt 0.890625 1.000000
vt 0.875000 0.937500
vt 0.890625 0.000000
vt 0.875000 0.437500
vt 0.875000 0.875000
vt 0.875000 0.375000
vt 0.875000 0.812500
vt 0.875000 0.312500
vt 0.875000 0.750000
vt 0.875000 0.250000
vt 0.875000 0.687500
vt 0.875000 0.187500
vt 0.875000 0.625000
vt 0.875000 0.125000
vt 0.843750 0.812500
vt 0.843750 0.750000
vt 0.843750 0.312500
vt 0.843750 0.250000
vt 0.843750 0.687500
vt 0.843750 0.187500
vt 0.843750 0.625000
vt 0.843750 0.125000
vt 0.843750 0.562500
vt 0.843750 0.062500
vt 0.843750 0.500000
vt 0.859375 1.000000
vt 0.843750 0.937500
vt 0.859375 0.000000
vt 0.843750 0.437500
vt 0.843750 0.875000
vt 0.843750 0.375000
vt 0.812500 0.562500
vt 0.812500 0.500000
vt 0.828125 1.000000
vt 0.812500 0.937500
vt 0.828125 0.000000
vt 0.812500 0.062500
vt 0.812500 0.437500
vt 0.812500 0.875000
vt 0.812500 0.375000
vt 0.812500 0.812500
vt 0.812500 0.312500
vt 0.812500 0.750000
vt 0.812500 0.250000
vt 0.812500 0.687500
vt 0.812500 0.187500
vt 0.812500 0.625000
vt 0.812500 0.125000
vt 0.781250 0.250000
vt 0.781250 0.687500
vt 0.781250 0.187500
vt 0.781250 0.625000
vt 0.781250 0.125000
vt 0.781250 0.562500
vt 0.781250 0.062500
vt 0.781250 0.500000
vt 0.796875 1.000000
vt 0.781250 0.937500
vt 0.796875 0.000000
vt 0.781250 0.437500
vt 0.781250 0.875000
vt 0.781250 0.375000
vt 0.781250 0.812500
vt 0.781250 0.312500
vt 0.781250 0.750000
vt 0.765625 0.000000
vt 0.765625 1.000000
s 1
usemtl Material.001
f 1/1/1 326/2/1 11/3/1
f 482/4/2 481/5/2 25/6/2
f 477/7/3 19/8/3 478/9/3
f 1/1/4 12/10/4 2/11/4
f 478/9/5 20/12/5 479/13/5
f 3/14/6 12/10/6 13/15/6
f 479/13/7 21/16/7 8/17/7
f 3/14/8 14/18/8 4/19/8
f 9/20/9 21/16/9 22/21/9
f 5/22/10 14/18/10 15/23/10
f 9/20/11 23/24/11 10/25/11
f 5/22/12 16/26/12 6/27/12
f 10/25/13 24/28/13 480/29/13
f 6/27/14 17/30/14 7/31/14
f 480/29/15 25/6/15 481/5/15
f 477/7/16 17/30/16 18/32/16
f 16/26/17 32/33/17 17/30/17
f 24/28/18 40/34/18 25/6/18
f 17/30/19 33/35/19 18/32/19
f 11/3/20 326/36/20 26/37/20
f 482/38/21 25/6/21 40/34/21
f 18/32/22 34/39/22 19/8/22
f 11/3/23 27/40/23 12/10/23
f 19/8/24 35/41/24 20/12/24
f 12/10/25 28/42/25 13/15/25
f 21/16/26 35/41/26 36/43/26
f 13/15/27 29/44/27 14/18/27
f 21/16/28 37/45/28 22/21/28
f 14/18/29 30/46/29 15/23/29
f 22/21/30 38/47/30 23/24/30
f 16/26/31 30/46/31 31/48/31
f 24/28/32 38/47/32 39/49/32
f 36/43/33 50/50/33 51/51/33
f 28/42/34 44/52/34 29/44/34
f 37/45/35 51/51/35 52/53/35
f 29/44/36 45/54/36 30/46/36
f 37/45/37 53/55/37 38/47/37
f 31/48/38 45/54/38 46/56/38
f 38/47/39 54/57/39 39/49/39
f 31/48/40 47/58/40 32/33/40
f 40/34/41 54/57/41 55/59/41
f 32/33/42 48/60/42 33/35/42
f 26/37/43 326/61/43 41/62/43
f 482/63/44 40/34/44 55/59/44
f 33/35/45 49/64/46 34/39/46
f 26/37/47 42/65/47 27/40/47
f 35/41/48 49/64/48 50/50/48
f 27/40/49 43/66/49 28/42/49
f 54/57/50 70/67/50 55/59/50
f 48/60/51 62/68/51 63/69/51
f 41/62/52 326/70/52 56/71/52
f 482/72/53 55/59/53 70/67/53
f 48/60/54 64/73/54 49/64/54
f 41/62/55 57/74/55 42/65/55
f 49/64/56 65/75/56 50/50/56
f 42/65/57 58/76/57 43/66/57
f 51/51/58 65/75/58 66/77/58
f 43/66/59 59/78/59 44/52/59
f 51/51/60 67/79/60 52/53/60
f 44/52/61 60/80/61 45/54/61
f 52/53/62 68/81/62 53/55/62
f 46/56/63 60/80/63 61/82/63
f 53/55/64 69/83/64 54/57/64
f 46/56/65 62/68/65 47/58/65
f 66/77/66 82/84/66 67/79/66
f 59/78/67 75/85/67 60/80/67
f 68/81/68 82/84/68 83/86/68
f 61/82/69 75/85/69 76/87/69
f 69/83/70 83/86/70 84/88/70
f 62/68/71 76/87/71 77/89/71
f 70/67/72 84/88/72 85/90/72
f 62/68/73 78/91/73 63/69/73
f 56/71/74 326/92/74 71/93/74
f 482/94/75 70/67/75 85/90/75
f 63/69/76 79/95/76 64/73/76
f 56/71/77 72/96/77 57/74/77
f 64/73/78 80/97/78 65/75/78
f 57/74/79 73/98/79 58/76/79
f 66/77/80 80/97/80 81/99/80
f 58/76/81 74/100/81 59/78/81
f 71/93/82 326/101/82 86/102/82
f 482/103/83 85/90/83 100/104/83
f 78/91/84 94/105/84 79/95/84
f 71/93/85 87/106/85 72/96/85
f 79/95/86 95/107/86 80/97/86
f 72/96/87 88/108/87 73/98/87
f 80/97/88 96/109/88 81/99/88
f 73/98/89 89/110/89 74/100/89
f 81/99/90 97/111/90 82/84/90
f 74/100/91 90/112/91 75/85/91
f 83/86/92 97/111/92 98/113/92
f 75/85/93 91/114/93 76/87/93
f 84/88/94 98/113/94 99/115/94
f 77/89/95 91/114/95 92/116/95
f 84/88/96 100/104/96 85/90/96
f 77/89/97 93/117/97 78/91/97
f 90/112/98 104/118/98 105/119/98
f 98/113/99 112/120/99 113/121/99
f 90/112/100 106/122/100 91/114/100
f 99/115/101 113/121/101 114/123/101
f 92/116/102 106/122/102 107/124/102
f 99/115/103 115/125/103 100/104/103
f 92/116/104 108/126/104 93/117/104
f 86/102/105 326/127/105 101/128/105
f 482/129/106 100/104/106 115/125/106
f 93/117/107 109/130/107 94/105/107
f 86/102/108 102/131/108 87/106/108
f 95/107/109 109/130/109 110/132/109
f 87/106/110 103/133/110 88/108/110
f 95/107/111 111/134/111 96/109/111
f 88/108/112 104/118/112 89/110/112
f 96/109/113 112/120/113 97/111/113
f 108/126/114 124/135/114 109/130/114
f 101/128/115 117/136/115 102/131/115
f 110/132/116 124/135/116 125/137/116
f 102/131/117 118/138/117 103/133/117
f 110/132/118 126/139/118 111/134/118
f 103/133/119 119/140/119 104/118/119
f 111/134/120 127/141/120 112/120/120
f 104/118/121 120/142/121 105/119/121
f 113/121/122 127/141/122 128/143/122
f 105/119/123 121/144/123 106/122/123
f 114/123/124 128/143/124 129/145/124
f 107/124/125 121/144/125 122/146/125
f 115/125/126 129/145/126 130/147/126
f 108/126/127 122/146/127 123/148/127
f 101/128/128 326/149/128 116/150/128
f 482/151/129 115/125/129 130/147/129
f 128/143/130 142/152/130 143/153/130
f 120/142/131 136/154/131 121/144/131
f 128/143/132 144/155/132 129/145/132
f 122/146/133 136/154/133 137/156/133
f 129/145/134 145/157/134 130/147/134
f 123/148/135 137/156/135 138/158/136
f 116/150/137 326/159/137 131/160/137
f 482/161/138 130/147/138 145/157/138
f 123/148/139 139/162/139 124/135/139
f 116/150/140 132/163/140 117/136/140
f 125/137/141 139/162/141 140/164/141
f 117/136/142 133/165/142 118/138/142
f 125/137/143 141/166/143 126/139/143
f 119/140/144 133/165/144 134/167/144
f 126/139/145 142/152/145 127/141/145
f 120/142/146 134/167/146 135/168/146
f 132/163/147 146/169/147 147/170/147
f 139/162/148 155/171/148 140/164/148
f 133/165/149 147/170/149 148/172/149
f 140/164/150 156/173/150 141/166/150
f 133/165/151 149/174/151 134/167/151
f 142/152/152 156/173/152 157/175/152
f 135/168/153 149/174/153 150/176/153
f 143/153/154 157/175/154 158/177/154
f 135/168/155 151/178/155 136/154/155
f 144/155/156 158/177/156 159/179/156
f 136/154/157 152/180/157 137/156/157
f 145/157/158 159/179/158 160/181/158
f 137/156/159 153/182/159 138/158/159
f 131/160/160 326/183/160 146/169/160
f 482/184/161 145/157/161 160/181/161
f 138/158/162 154/185/162 139/162/162
f 150/176/163 166/186/163 151/178/163
f 158/177/164 174/187/164 159/179/164
f 152/180/165 166/186/165 167/188/165
f 159/179/166 175/189/166 160/181/166
f 152/180/167 168/190/167 153/182/167
f 146/169/168 326/191/168 161/192/168
f 482/193/169 160/181/169 175/189/169
f 153/182/170 169/194/170 154/185/170
f 147/170/171 161/192/171 162/195/171
f 154/185/172 170/196/172 155/171/172
f 148/172/173 162/195/173 163/197/173
f 155/171/174 171/198/174 156/173/174
f 148/172/175 164/199/175 149/174/175
f 157/175/176 171/198/176 172/200/176
f 150/176/177 164/199/177 165/201/177
f 157/175/178 173/202/178 158/177/178
f 170/196/179 184/203/179 185/204/179
f 162/195/180 178/205/180 163/197/180
f 170/196/181 186/206/181 171/198/181
f 163/197/182 179/207/182 164/199/182
f 171/198/183 187/208/183 172/200/183
f 164/199/184 180/209/184 165/201/184
f 172/200/185 188/210/185 173/202/185
f 166/186/186 180/209/186 181/211/186
f 173/202/187 189/212/187 174/187/187
f 166/186/188 182/213/188 167/188/188
f 174/187/189 190/214/189 175/189/189
f 168/190/190 182/213/190 183/215/190
f 161/192/191 326/216/191 176/217/191
f 482/218/192 175/189/192 190/214/192
f 168/190/193 184/203/193 169/194/193
f 161/192/194 177/219/194 162/195/194
f 188/210/195 204/220/195 189/212/195
f 181/211/196 197/221/196 182/213/196
f 190/214/197 204/220/197 205/222/197
f 183/215/198 197/221/198 198/223/198
f 176/217/199 326/224/199 191/225/199
f 482/226/200 190/214/200 205/222/200
f 183/215/201 199/227/201 184/203/201
f 177/219/202 191/225/202 192/228/202
f 185/204/203 199/227/203 200/229/203
f 177/219/204 193/230/204 178/205/204
f 186/206/205 200/229/205 201/231/205
f 178/205/206 194/232/206 179/207/206
f 186/206/207 202/233/207 187/208/207
f 180/209/208 194/232/208 195/234/208
f 188/210/209 202/233/209 203/235/209
f 181/211/210 195/234/210 196/236/210
f 200/229/211 216/237/211 201/231/211
f 194/232/212 208/238/212 209/239/212
f 201/231/213 217/240/213 202/233/213
f 194/232/214 210/241/214 195/234/214
f 202/233/215 218/242/215 203/235/215
f 196/236/216 210/241/216 211/243/216
f 203/235/217 219/244/217 204/220/217
f 197/221/218 211/243/218 212/245/218
f 204/220/219 220/246/219 205/222/219
f 198/223/220 212/245/220 213/247/220
f 191/225/221 326/248/221 206/249/221
f 482/250/222 205/222/222 220/246/222
f 198/223/223 214/251/223 199/227/223
f 191/225/224 207/252/224 192/228/224
f 199/227/225 215/253/225 200/229/225
f 193/230/226 207/252/226 208/238/226
f 219/244/227 235/254/227 220/246/227
f 213/247/228 227/255/228 228/256/228
f 206/249/229 326/257/229 221/258/229
f 482/259/230 220/246/230 235/254/230
f 213/247/231 229/260/231 214/251/231
f 207/252/232 221/258/232 222/261/232
f 214/251/233 230/262/233 215/253/233
f 208/238/234 222/261/234 223/263/234
f 215/253/235 231/264/235 216/237/235
f 208/238/236 224/265/236 209/239/236
f 216/237/237 232/266/237 217/240/237
f 209/239/238 225/267/238 210/241/238
f 218/242/239 232/266/239 233/268/239
f 211/243/240 225/267/240 226/269/240
f 218/242/241 234/270/241 219/244/241
f 212/245/242 226/269/242 227/255/242
f 223/263/243 239/271/243 224/265/243
f 231/264/244 247/272/244 232/266/244
f 224/265/245 240/273/245 225/267/245
f 233/268/246 247/272/246 248/274/246
f 225/267/247 241/275/247 226/269/247
f 233/268/248 249/276/248 234/270/248
f 227/255/249 241/275/249 242/277/249
f 235/254/250 249/276/250 250/278/250
f 228/256/251 242/277/251 243/279/251
f 221/258/252 326/280/252 236/281/252
f 482/282/253 235/254/253 250/278/253
f 228/256/254 244/283/254 229/260/254
f 221/258/255 237/284/255 222/261/255
f 229/260/256 245/285/256 230/262/256
f 222/261/257 238/286/257 223/263/257
f 230/262/258 246/287/258 231/264/258
f 243/279/259 257/288/259 258/289/260
f 236/281/261 326/290/261 251/291/261
f 482/292/262 250/278/262 265/293/262
f 243/279/263 259/294/263 244/283/263
f 236/281/264 252/295/264 237/284/264
f 245/285/265 259/294/265 260/296/265
f 237/284/266 253/297/266 238/286/266
f 245/285/267 261/298/267 246/287/267
f 238/286/268 254/299/268 239/271/268
f 246/287/269 262/300/269 247/272/269
f 240/273/270 254/299/270 255/301/270
f 248/274/271 262/300/271 263/302/271
f 240/273/272 256/303/272 241/275/272
f 248/274/273 264/304/273 249/276/273
f 242/277/274 256/303/274 257/288/274
f 249/276/275 265/293/275 250/278/275
f 261/298/276 277/305/276 262/300/276
f 254/299/277 270/306/277 255/301/277
f 263/302/278 277/305/278 278/307/278
f 255/301/279 271/308/279 256/303/279
f 263/302/280 279/309/280 264/304/280
f 257/288/281 271/308/281 272/310/281
f 265/293/282 279/309/282 280/311/282
f 258/289/283 272/310/283 273/312/283
f 251/291/284 326/313/284 266/314/284
f 482/315/285 265/293/285 280/311/285
f 258/289/286 274/316/286 259/294/286
f 251/291/287 267/317/287 252/295/287
f 260/296/288 274/316/288 275/318/288
f 252/295/289 268/319/289 253/297/289
f 260/296/290 276/320/290 261/298/290
f 253/297/291 269/321/291 254/299/291
f 266/314/292 326/322/292 281/323/292
f 482/324/293 280/311/293 295/325/293
f 273/312/294 289/326/294 274/316/294
f 266/314/295 282/327/295 267/317/295
f 275/318/296 289/326/296 290/328/296
f 267/317/297 283/329/297 268/319/297
f 275/318/298 291/330/298 276/320/298
f 268/319/299 284/331/299 269/321/299
f 277/305/300 291/330/300 292/332/300
f 270/306/301 284/331/301 285/333/301
f 278/307/302 292/332/302 293/334/302
f 270/306/303 286/335/303 271/308/303
f 279/309/304 293/334/304 294/336/304
f 272/310/305 286/335/305 287/337/305
f 279/309/306 295/325/306 280/311/306
f 273/312/307 287/337/307 288/338/307
f 285/333/308 299/339/308 300/340/308
f 293/334/309 307/341/309 308/342/309
f 285/333/310 301/343/310 286/335/310
f 294/336/311 308/342/311 309/344/311
f 287/337/312 301/343/312 302/345/312
f 295/325/313 309/344/313 310/346/313
f 288/338/314 302/345/314 303/347/314
f 281/323/315 326/348/315 296/349/315
f 482/350/316 295/325/316 310/346/316
f 288/338/317 304/351/317 289/326/317
f 281/323/318 297/352/318 282/327/318
f 290/328/319 304/351/319 305/353/319
f 282/327/320 298/354/320 283/329/320
f 290/328/321 306/355/321 291/330/321
f 283/329/322 299/339/322 284/331/322
f 292/332/323 306/355/323 307/341/323
f 303/347/324 319/356/324 304/351/324
f 296/349/325 312/357/325 297/352/325
f 305/353/326 319/356/326 320/358/326
f 297/352/327 313/359/327 298/354/327
f 305/353/328 321/360/328 306/355/328
f 298/354/329 314/361/329 299/339/329
f 306/355/330 322/362/330 307/341/330
f 299/339/331 315/363/331 300/340/331
f 308/342/332 322/362/332 323/364/332
f 300/340/333 316/365/333 301/343/333
f 309/344/334 323/364/334 324/366/334
f 302/345/335 316/365/335 317/367/335
f 309/344/336 325/368/336 310/346/336
f 303/347/337 317/367/337 318/369/337
f 296/349/338 326/370/338 311/371/338
f 482/372/339 310/346/339 325/368/339
f 323/364/340 338/373/340 339/374/340
f 316/365/341 331/375/341 332/376/341
f 323/364/342 340/377/342 324/366/342
f 316/365/343 333/378/343 317/367/343
f 324/366/344 341/379/344 325/368/344
f 318/369/345 333/378/345 334/380/345
f 311/371/346 326/381/346 327/382/346
f 482/383/347 325/368/347 341/379/347
f 318/369/348 335/384/348 319/356/348
f 311/371/349 328/385/349 312/357/349
f 319/356/350 336/386/350 320/358/350
f 312/357/351 329/387/351 313/359/351
f 320/358/352 337/388/352 321/360/352
f 313/359/353 330/389/353 314/361/353
f 321/360/354 338/373/354 322/362/354
f 314/361/355 331/375/355 315/363/355
f 336/386/356 350/390/356 351/391/356
f 329/387/357 343/392/357 344/393/357
f 336/386/358 352/394/358 337/388/358
f 329/387/359 345/395/359 330/389/359
f 337/388/360 353/396/360 338/373/360
f 330/389/361 346/397/361 331/375/361
f 338/373/362 354/398/362 339/374/362
f 332/376/363 346/397/363 347/399/363
f 339/374/364 355/400/364 340/377/364
f 332/376/365 348/401/365 333/378/365
f 341/379/366 355/400/366 356/402/366
f 334/380/367 348/401/367 349/403/367
f 327/382/368 326/404/368 342/405/368
f 482/406/369 341/379/369 356/402/369
f 334/380/370 350/390/370 335/384/370
f 327/382/371 343/392/371 328/385/371
f 354/398/372 370/407/372 355/400/372
f 347/399/373 363/408/373 348/401/373
f 356/402/374 370/407/374 371/409/374
f 349/403/375 363/408/375 364/410/375
f 342/405/376 326/411/376 357/412/376
f 482/413/377 356/402/377 371/409/377
f 349/403/378 365/414/378 350/390/379
f 343/392/380 357/412/380 358/415/380
f 351/391/381 365/414/381 366/416/381
f 343/392/382 359/417/382 344/393/382
f 351/391/383 367/418/383 352/394/383
f 344/393/384 360/419/384 345/395/384
f 353/396/385 367/418/385 368/420/385
f 345/395/386 361/421/386 346/397/386
f 354/398/387 368/420/387 369/422/387
f 346/397/388 362/423/388 347/399/388
f 358/424/389 374/425/389 359/426/389
f 366/427/390 382/428/390 367/429/390
f 359/426/391 375/430/391 360/431/391
f 367/429/392 383/432/392 368/433/392
f 360/431/393 376/434/393 361/435/393
f 369/436/394 383/432/394 384/437/394
f 361/435/395 377/438/395 362/439/395
f 369/436/396 385/440/396 370/441/396
f 362/439/397 378/442/397 363/443/397
f 370/441/398 386/444/398 371/445/398
f 364/446/399 378/442/399 379/447/400
f 357/448/401 326/449/401 372/450/401
f 482/451/402 371/445/402 386/444/402
f 364/446/403 380/452/403 365/453/403
f 357/448/404 373/454/404 358/424/404
f 366/427/405 380/452/405 381/455/405
f 378/442/406 392/456/406 393/457/406
f 385/440/407 401/458/407 386/444/407
f 379/447/408 393/457/408 394/459/408
f 372/450/409 326/460/409 387/461/409
f 482/462/410 386/444/410 401/458/410
f 379/447/411 395/463/411 380/452/411
f 372/450/412 388/464/412 373/454/413
f 380/452/414 396/465/414 381/455/414
f 373/454/415 389/466/415 374/425/415
f 381/455/416 397/467/416 382/428/416
f 374/425/417 390/468/417 375/430/417
f 382/428/418 398/469/418 383/432/418
f 376/434/419 390/468/419 391/470/419
f 383/432/420 399/471/420 384/437/420
f 377/438/421 391/470/421 392/456/421
f 384/437/422 400/472/422 385/440/422
f 396/465/423 412/473/423 397/467/423
f 389/466/424 405/474/424 390/468/424
f 397/467/425 413/475/425 398/469/425
f 390/468/426 406/476/426 391/470/426
f 398/469/427 414/477/427 399/471/427
f 391/470/428 407/478/428 392/456/428
f 399/471/429 415/479/429 400/472/429
f 393/457/430 407/478/430 408/480/430
f 400/472/431 416/481/431 401/458/431
f 394/459/432 408/480/432 409/482/432
f 387/461/433 326/483/433 402/484/433
f 482/485/434 401/458/434 416/481/434
f 394/459/435 410/486/435 395/463/435
f 388/464/436 402/484/436 403/487/436
f 395/463/437 411/488/437 396/465/437
f 388/464/438 404/489/438 389/466/438
f 415/479/439 431/490/439 416/481/439
f 409/482/440 423/491/440 424/492/440
f 402/484/441 326/493/441 417/494/441
f 482/495/442 416/481/442 431/490/442
f 409/482/443 425/496/443 410/486/443
f 402/484/444 418/497/444 403/487/444
f 410/486/445 426/498/445 411/488/445
f 403/487/446 419/499/446 404/489/446
f 411/488/447 427/500/447 412/473/447
f 405/474/448 419/499/448 420/501/448
f 412/473/449 428/502/449 413/475/449
f 406/476/450 420/501/450 421/503/450
f 414/477/451 428/502/451 429/504/451
f 407/478/452 421/503/452 422/505/452
f 414/477/453 430/506/453 415/479/453
f 408/480/454 422/505/454 423/491/454
f 420/501/455 434/507/455 435/508/455
f 428/502/456 442/509/456 443/510/456
f 421/503/457 435/508/457 436/511/457
f 429/504/458 443/510/458 444/512/458
f 421/503/459 437/513/459 422/505/459
f 429/504/460 445/514/460 430/506/460
f 423/491/461 437/513/461 438/515/461
f 430/506/462 446/516/462 431/490/462
f 424/492/463 438/515/463 439/517/463
f 417/494/464 326/518/464 432/519/464
f 482/520/465 431/490/465 446/516/465
f 424/492/466 440/521/466 425/496/466
f 417/494/467 433/522/467 418/497/467
f 425/496/468 441/523/468 426/498/468
f 419/499/469 433/522/469 434/507/469
f 426/498/470 442/509/470 427/500/470
f 439/517/471 453/524/471 454/525/471
f 432/519/472 326/526/472 447/527/472
f 482/528/473 446/516/473 461/529/473
f 439/517/474 455/530/474 440/521/474
f 433/522/475 447/527/475 448/531/475
f 440/521/476 456/532/476 441/523/476
f 434/507/477 448/531/478 449/533/477
f 441/523/479 457/534/479 442/509/479
f 434/507/480 450/535/480 435/508/480
f 442/509/481 458/536/481 443/510/481
f 436/511/482 450/535/482 451/537/482
f 444/512/483 458/536/483 459/538/483
f 436/511/484 452/539/484 437/513/484
f 445/514/485 459/538/486 460/540/485
f 438/515/487 452/539/487 453/524/487
f 445/514/488 461/529/488 446/516/488
f 457/534/489 473/541/489 458/536/489
f 450/535/490 466/542/490 451/537/490
f 459/538/491 473/541/491 474/543/491
f 451/537/492 467/544/492 452/539/492
f 459/538/493 475/545/493 460/540/493
f 453/524/494 467/544/494 468/546/494
f 460/540/495 476/547/495 461/529/495
f 454/525/496 468/546/496 469/548/496
f 447/527/497 326/549/497 462/550/497
f 482/551/498 461/529/498 476/547/498
f 454/525/499 470/552/499 455/530/499
f 447/527/500 463/553/500 448/531/500
f 455/530/501 471/554/501 456/532/501
f 448/531/502 464/555/502 449/533/502
f 456/532/503 472/556/503 457/534/503
f 449/533/504 465/557/504 450/535/504
f 482/558/505 476/547/505 481/5/505
f 469/548/506 478/9/506 470/552/506
f 463/553/507 1/1/507 2/11/507
f 470/552/508 479/13/508 471/554/508
f 464/555/509 2/11/509 3/14/509
f 471/554/510 8/17/510 472/556/510
f 465/557/511 3/14/511 4/19/511
f 472/556/512 9/20/512 473/541/512
f 466/542/513 4/19/513 5/22/513
f 473/541/514 10/25/514 474/543/514
f 467/544/515 5/22/515 6/27/515
f 474/543/516 480/29/516 475/545/516
f 468/546/517 6/27/517 7/31/517
f 475/545/518 481/5/518 476/547/518
f 469/548/519 7/31/519 477/7/520
f 462/550/521 326/559/521 1/1/521
f 477/7/3 18/32/3 19/8/3
f 1/1/4 11/3/4 12/10/4
f 478/9/5 19/8/5 20/12/5
f 3/14/6 2/11/6 12/10/6
f 479/13/7 20/12/7 21/16/7
f 3/14/8 13/15/8 14/18/8
f 9/20/9 8/17/9 21/16/9
f 5/22/10 4/19/10 14/18/10
f 9/20/11 22/21/11 23/24/11
f 5/22/12 15/23/12 16/26/12
f 10/25/13 23/24/13 24/28/13
f 6/27/14 16/26/14 17/30/14
f 480/29/15 24/28/15 25/6/15
f 477/7/16 7/31/522 17/30/16
f 16/26/17 31/48/17 32/33/17
f 24/28/18 39/49/18 40/34/18
f 17/30/19 32/33/19 33/35/19
f 18/32/22 33/35/22 34/39/22
f 11/3/23 26/37/23 27/40/23
f 19/8/24 34/39/24 35/41/24
f 12/10/25 27/40/25 28/42/25
f 21/16/26 20/12/26 35/41/26
f 13/15/27 28/42/27 29/44/27
f 21/16/28 36/43/28 37/45/28
f 14/18/29 29/44/29 30/46/29
f 22/21/30 37/45/30 38/47/30
f 16/26/31 15/23/31 30/46/31
f 24/28/32 23/24/32 38/47/32
f 36/43/33 35/41/33 50/50/33
f 28/42/34 43/66/34 44/52/34
f 37/45/35 36/43/35 51/51/35
f 29/44/36 44/52/36 45/54/36
f 37/45/37 52/53/37 53/55/37
f 31/48/38 30/46/38 45/54/38
f 38/47/39 53/55/39 54/57/39
f 31/48/40 46/56/40 47/58/40
f 40/34/41 39/49/41 54/57/41
f 32/33/42 47/58/523 48/60/42
f 33/35/45 48/60/45 49/64/46
f 26/37/47 41/62/47 42/65/47
f 35/41/48 34/39/48 49/64/48
f 27/40/49 42/65/49 43/66/49
f 54/57/50 69/83/50 70/67/50
f 48/60/51 47/58/51 62/68/51
f 48/60/54 63/69/54 64/73/54
f 41/62/55 56/71/55 57/74/55
f 49/64/56 64/73/56 65/75/56
f 42/65/57 57/74/57 58/76/57
f 51/51/58 50/50/58 65/75/58
f 43/66/59 58/76/59 59/78/59
f 51/51/60 66/77/60 67/79/60
f 44/52/61 59/78/61 60/80/61
f 52/53/62 67/79/62 68/81/62
f 46/56/63 45/54/63 60/80/63
f 53/55/64 68/81/64 69/83/64
f 46/56/65 61/82/65 62/68/65
f 66/77/66 81/99/66 82/84/66
f 59/78/67 74/100/67 75/85/67
f 68/81/68 67/79/68 82/84/68
f 61/82/69 60/80/69 75/85/69
f 69/83/70 68/81/70 83/86/70
f 62/68/71 61/82/71 76/87/71
f 70/67/72 69/83/72 84/88/72
f 62/68/73 77/89/73 78/91/73
f 63/69/76 78/91/76 79/95/76
f 56/71/77 71/93/77 72/96/77
f 64/73/78 79/95/78 80/97/78
f 57/74/79 72/96/79 73/98/79
f 66/77/80 65/75/80 80/97/80
f 58/76/81 73/98/81 74/100/81
f 78/91/84 93/117/84 94/105/84
f 71/93/85 86/102/85 87/106/85
f 79/95/86 94/105/86 95/107/86
f 72/96/87 87/106/87 88/108/87
f 80/97/88 95/107/88 96/109/88
f 73/98/89 88/108/89 89/110/89
f 81/99/90 96/109/90 97/111/90
f 74/100/91 89/110/91 90/112/91
f 83/86/92 82/84/92 97/111/92
f 75/85/93 90/112/93 91/114/93
f 84/88/94 83/86/94 98/113/94
f 77/89/95 76/87/95 91/114/95
f 84/88/96 99/115/96 100/104/96
f 77/89/97 92/116/97 93/117/97
f 90/112/98 89/110/98 104/118/98
f 98/113/99 97/111/99 112/120/99
f 90/112/100 105/119/100 106/122/100
f 99/115/101 98/113/101 113/121/101
f 92/116/102 91/114/102 106/122/102
f 99/115/103 114/123/103 115/125/103
f 92/116/104 107/124/104 108/126/104
f 93/117/107 108/126/107 109/130/107
f 86/102/108 101/128/108 102/131/108
f 95/107/109 94/105/109 109/130/109
f 87/106/110 102/131/110 103/133/110
f 95/107/111 110/132/111 111/134/111
f 88/108/112 103/133/112 104/118/112
f 96/109/113 111/134/113 112/120/113
f 108/126/114 123/148/114 124/135/114
f 101/128/115 116/150/115 117/136/115
f 110/132/116 109/130/116 124/135/116
f 102/131/117 117/136/117 118/138/117
f 110/132/118 125/137/118 126/139/118
f 103/133/119 118/138/119 119/140/119
f 111/134/120 126/139/120 127/141/120
f 104/118/121 119/140/121 120/142/121
f 113/121/122 112/120/122 127/141/122
f 105/119/123 120/142/123 121/144/123
f 114/123/124 113/121/124 128/143/124
f 107/124/125 106/122/125 121/144/125
f 115/125/126 114/123/126 129/145/126
f 108/126/127 107/124/127 122/146/127
f 128/143/130 127/141/130 142/152/130
f 120/142/131 135/168/131 136/154/131
f 128/143/132 143/153/132 144/155/132
f 122/146/133 121/144/133 136/154/133
f 129/145/134 144/155/134 145/157/134
f 123/148/135 122/146/135 137/156/135
f 123/148/139 138/158/524 139/162/139
f 116/150/140 131/160/140 132/163/140
f 125/137/141 124/135/141 139/162/141
f 117/136/142 132/163/142 133/165/142
f 125/137/143 140/164/143 141/166/143
f 119/140/144 118/138/144 133/165/144
f 126/139/145 141/166/145 142/152/145
f 120/142/146 119/140/146 134/167/146
f 132/163/147 131/160/147 146/169/147
f 139/162/148 154/185/148 155/171/148
f 133/165/149 132/163/149 147/170/149
f 140/164/150 155/171/150 156/173/150
f 133/165/151 148/172/151 149/174/151
f 142/152/152 141/166/152 156/173/152
f 135/168/153 134/167/153 149/174/153
f 143/153/154 142/152/154 157/175/154
f 135/168/155 150/176/155 151/178/155
f 144/155/156 143/153/156 158/177/156
f 136/154/157 151/178/157 152/180/157
f 145/157/158 144/155/158 159/179/158
f 137/156/159 152/180/159 153/182/159
f 138/158/162 153/182/162 154/185/162
f 150/176/163 165/201/163 166/186/163
f 158/177/164 173/202/164 174/187/164
f 152/180/165 151/178/165 166/186/165
f 159/179/166 174/187/166 175/189/166
f 152/180/167 167/188/167 168/190/167
f 153/182/170 168/190/170 169/194/170
f 147/170/171 146/169/171 161/192/171
f 154/185/172 169/194/172 170/196/172
f 148/172/173 147/170/173 162/195/173
f 155/171/174 170/196/174 171/198/174
f 148/172/175 163/197/175 164/199/175
f 157/175/176 156/173/176 171/198/176
f 150/176/177 149/174/177 164/199/177
f 157/175/178 172/200/178 173/202/178
f 170/196/179 169/194/179 184/203/179
f 162/195/180 177/219/180 178/205/180
f 170/196/181 185/204/181 186/206/181
f 163/197/182 178/205/182 179/207/182
f 171/198/183 186/206/183 187/208/183
f 164/199/184 179/207/184 180/209/184
f 172/200/185 187/208/185 188/210/185
f 166/186/186 165/201/186 180/209/186
f 173/202/187 188/210/187 189/212/187
f 166/186/188 181/211/188 182/213/188
f 174/187/189 189/212/189 190/214/189
f 168/190/190 167/188/190 182/213/190
f 168/190/193 183/215/193 184/203/193
f 161/192/194 176/217/194 177/219/194
f 188/210/195 203/235/195 204/220/195
f 181/211/196 196/236/196 197/221/196
f 190/214/197 189/212/197 204/220/197
f 183/215/198 182/213/198 197/221/198
f 183/215/201 198/223/201 199/227/201
f 177/219/202 176/217/202 191/225/202
f 185/204/203 184/203/203 199/227/203
f 177/219/204 192/228/204 193/230/204
f 186/206/205 185/204/205 200/229/205
f 178/205/206 193/230/206 194/232/206
f 186/206/207 201/231/207 202/233/207
f 180/209/208 179/207/208 194/232/208
f 188/210/209 187/208/209 202/233/209
f 181/211/210 180/209/210 195/234/210
f 200/229/211 215/253/211 216/237/211
f 194/232/212 193/230/212 208/238/212
f 201/231/213 216/237/213 217/240/213
f 194/232/214 209/239/214 210/241/214
f 202/233/215 217/240/215 218/242/215
f 196/236/216 195/234/216 210/241/216
f 203/235/217 218/242/217 219/244/217
f 197/221/218 196/236/218 211/243/218
f 204/220/219 219/244/219 220/246/219
f 198/223/220 197/221/220 212/245/220
f 198/223/223 213/247/223 214/251/223
f 191/225/224 206/249/224 207/252/224
f 199/227/225 214/251/225 215/253/225
f 193/230/226 192/228/226 207/252/226
f 219/244/227 234/270/227 235/254/227
f 213/247/228 212/245/228 227/255/228
f 213/247/231 228/256/231 229/260/231
f 207/252/232 206/249/232 221/258/232
f 214/251/233 229/260/233 230/262/233
f 208/238/234 207/252/234 222/261/234
f 215/253/235 230/262/235 231/264/235
f 208/238/236 223/263/236 224/265/236
f 216/237/237 231/264/237 232/266/237
f 209/239/238 224/265/238 225/267/238
f 218/242/239 217/240/239 232/266/239
f 211/243/240 210/241/240 225/267/240
f 218/242/241 233/268/241 234/270/241
f 212/245/242 211/243/242 226/269/242
f 223/263/243 238/286/243 239/271/243
f 231/264/244 246/287/244 247/272/244
f 224/265/245 239/271/245 240/273/245
f 233/268/246 232/266/246 247/272/246
f 225/267/247 240/273/247 241/275/247
f 233/268/248 248/274/248 249/276/248
f 227/255/249 226/269/249 241/275/249
f 235/254/250 234/270/250 249/276/250
f 228/256/251 227/255/251 242/277/251
f 228/256/254 243/279/254 244/283/254
f 221/258/255 236/281/255 237/284/255
f 229/260/256 244/283/256 245/285/256
f 222/261/257 237/284/257 238/286/257
f 230/262/258 245/285/258 246/287/258
f 243/279/259 242/277/259 257/288/259
f 243/279/263 258/289/525 259/294/263
f 236/281/264 251/291/264 252/295/264
f 245/285/265 244/283/265 259/294/265
f 237/284/266 252/295/266 253/297/266
f 245/285/267 260/296/267 261/298/267
f 238/286/268 253/297/268 254/299/268
f 246/287/269 261/298/269 262/300/269
f 240/273/270 239/271/270 254/299/270
f 248/274/271 247/272/271 262/300/271
f 240/273/272 255/301/272 256/303/272
f 248/274/273 263/302/273 264/304/273
f 242/277/274 241/275/274 256/303/274
f 249/276/275 264/304/275 265/293/275
f 261/298/276 276/320/276 277/305/276
f 254/299/277 269/321/277 270/306/277
f 263/302/278 262/300/278 277/305/278
f 255/301/279 270/306/279 271/308/279
f 263/302/280 278/307/280 279/309/280
f 257/288/281 256/303/281 271/308/281
f 265/293/282 264/304/282 279/309/282
f 258/289/283 257/288/283 272/310/283
f 258/289/286 273/312/286 274/316/286
f 251/291/287 266/314/287 267/317/287
f 260/296/288 259/294/288 274/316/288
f 252/295/289 267/317/289 268/319/289
f 260/296/290 275/318/290 276/320/290
f 253/297/291 268/319/291 269/321/291
f 273/312/294 288/338/294 289/326/294
f 266/314/295 281/323/295 282/327/295
f 275/318/296 274/316/296 289/326/296
f 267/317/297 282/327/297 283/329/297
f 275/318/298 290/328/298 291/330/298
f 268/319/299 283/329/299 284/331/299
f 277/305/300 276/320/300 291/330/300
f 270/306/301 269/321/301 284/331/301
f 278/307/302 277/305/302 292/332/302
f 270/306/303 285/333/303 286/335/303
f 279/309/304 278/307/526 293/334/304
f 272/310/305 271/308/305 286/335/305
f 279/309/306 294/336/306 295/325/306
f 273/312/307 272/310/307 287/337/307
f 285/333/308 284/331/308 299/339/308
f 293/334/309 292/332/309 307/341/309
f 285/333/310 300/340/310 301/343/310
f 294/336/311 293/334/311 308/342/311
f 287/337/312 286/335/312 301/343/312
f 295/325/313 294/336/313 309/344/313
f 288/338/314 287/337/314 302/345/314
f 288/338/317 303/347/317 304/351/317
f 281/323/318 296/349/318 297/352/318
f 290/328/319 289/326/319 304/351/319
f 282/327/320 297/352/320 298/354/320
f 290/328/321 305/353/321 306/355/321
f 283/329/322 298/354/322 299/339/322
f 292/332/323 291/330/323 306/355/323
f 303/347/324 318/369/324 319/356/324
f 296/349/325 311/371/325 312/357/325
f 305/353/326 304/351/326 319/356/326
f 297/352/327 312/357/327 313/359/327
f 305/353/328 320/358/328 321/360/328
f 298/354/329 313/359/329 314/361/329
f 306/355/330 321/360/330 322/362/330
f 299/339/331 314/361/331 315/363/331
f 308/342/332 307/341/332 322/362/332
f 300/340/333 315/363/333 316/365/333
f 309/344/334 308/342/334 323/364/334
f 302/345/335 301/343/335 316/365/335
f 309/344/336 324/366/336 325/368/336
f 303/347/337 302/345/337 317/367/337
f 323/364/340 322/362/340 338/373/340
f 316/365/341 315/363/341 331/375/341
f 323/364/342 339/374/342 340/377/342
f 316/365/343 332/376/343 333/378/343
f 324/366/344 340/377/344 341/379/344
f 318/369/345 317/367/345 333/378/345
f 318/369/348 334/380/348 335/384/348
f 311/371/349 327/382/349 328/385/349
f 319/356/350 335/384/350 336/386/350
f 312/357/351 328/385/351 329/387/351
f 320/358/352 336/386/352 337/388/352
f 313/359/353 329/387/353 330/389/353
f 321/360/354 337/388/354 338/373/354
f 314/361/355 330/389/355 331/375/355
f 336/386/356 335/384/356 350/390/356
f 329/387/357 328/385/357 343/392/357
f 336/386/358 351/391/358 352/394/358
f 329/387/359 344/393/359 345/395/359
f 337/388/360 352/394/360 353/396/360
f 330/389/361 345/395/361 346/397/361
f 338/373/362 353/396/362 354/398/362
f 332/376/363 331/375/363 346/397/363
f 339/374/364 354/398/364 355/400/364
f 332/376/365 347/399/365 348/401/365
f 341/379/366 340/377/366 355/400/366
f 334/380/367 333/378/367 348/401/367
f 334/380/370 349/403/370 350/390/370
f 327/382/371 342/405/371 343/392/371
f 354/398/372 369/422/372 370/407/372
f 347/399/373 362/423/373 363/408/373
f 356/402/374 355/400/374 370/407/374
f 349/403/375 348/401/527 363/408/375
f 349/403/378 364/410/378 365/414/378
f 343/392/380 342/405/380 357/412/380
f 351/391/381 350/390/381 365/414/381
f 343/392/382 358/415/382 359/417/382
f 351/391/383 366/416/383 367/418/383
f 344/393/384 359/417/384 360/419/384
f 353/396/385 352/394/385 367/418/385
f 345/395/386 360/419/386 361/421/386
f 354/398/387 353/396/387 368/420/387
f 346/397/388 361/421/388 362/423/388
f 358/424/389 373/454/389 374/425/389
f 366/427/390 381/455/390 382/428/390
f 359/426/391 374/425/391 375/430/391
f 367/429/392 382/428/392 383/432/392
f 360/431/393 375/430/393 376/434/393
f 369/436/394 368/433/394 383/432/394
f 361/435/395 376/434/395 377/438/395
f 369/436/396 384/437/396 385/440/396
f 362/439/397 377/438/397 378/442/397
f 370/441/398 385/440/398 386/444/398
f 364/446/399 363/443/399 378/442/399
f 364/446/403 379/447/403 380/452/403
f 357/448/404 372/450/404 373/454/404
f 366/427/405 365/453/405 380/452/405
f 378/442/406 377/438/406 392/456/406
f 385/440/407 400/472/407 401/458/407
f 379/447/408 378/442/408 393/457/408
f 379/447/411 394/459/411 395/463/411
f 372/450/412 387/461/412 388/464/412
f 380/452/414 395/463/414 396/465/414
f 373/454/415 388/464/415 389/466/415
f 381/455/416 396/465/416 397/467/416
f 374/425/417 389/466/417 390/468/417
f 382/428/418 397/467/418 398/469/418
f 376/434/419 375/430/419 390/468/419
f 383/432/420 398/469/420 399/471/420
f 377/438/421 376/434/421 391/470/421
f 384/437/422 399/471/422 400/472/422
f 396/465/423 411/488/423 412/473/423
f 389/466/424 404/489/424 405/474/424
f 397/467/425 412/473/425 413/475/425
f 390/468/426 405/474/426 406/476/426
f 398/469/427 413/475/427 414/477/427
f 391/470/428 406/476/428 407/478/428
f 399/471/429 414/477/429 415/479/429
f 393/457/430 392/456/430 407/478/430
f 400/472/431 415/479/431 416/481/431
f 394/459/432 393/457/432 408/480/432
f 394/459/435 409/482/435 410/486/435
f 388/464/436 387/461/436 402/484/436
f 395/463/437 410/486/437 411/488/437
f 388/464/438 403/487/438 404/489/438
f 415/479/439 430/506/439 431/490/439
f 409/482/440 408/480/440 423/491/440
f 409/482/443 424/492/443 425/496/443
f 402/484/444 417/494/444 418/497/444
f 410/486/445 425/496/445 426/498/445
f 403/487/446 418/497/446 419/499/446
f 411/488/447 426/498/447 427/500/447
f 405/474/448 404/489/448 419/499/448
f 412/473/449 427/500/449 428/502/449
f 406/476/450 405/474/450 420/501/450
f 414/477/451 413/475/451 428/502/451
f 407/478/452 406/476/452 421/503/452
f 414/477/453 429/504/453 430/506/453
f 408/480/454 407/478/454 422/505/454
f 420/501/455 419/499/455 434/507/455
f 428/502/456 427/500/456 442/509/456
f 421/503/457 420/501/457 435/508/457
f 429/504/458 428/502/458 443/510/458
f 421/503/459 436/511/459 437/513/459
f 429/504/460 444/512/460 445/514/460
f 423/491/461 422/505/461 437/513/461
f 430/506/462 445/514/462 446/516/462
f 424/492/463 423/491/463 438/515/463
f 424/492/466 439/517/466 440/521/466
f 417/494/467 432/519/467 433/522/467
f 425/496/468 440/521/468 441/523/468
f 419/499/469 418/497/469 433/522/469
f 426/498/470 441/523/470 442/509/470
f 439/517/471 438/515/471 453/524/471
f 439/517/474 454/525/474 455/530/474
f 433/522/475 432/519/475 447/527/475
f 440/521/476 455/530/476 456/532/476
f 434/507/477 433/522/478 448/531/478
f 441/523/479 456/532/479 457/534/479
f 434/507/480 449/533/480 450/535/480
f 442/509/481 457/534/481 458/536/481
f 436/511/482 435/508/482 450/535/482
f 444/512/483 443/510/483 458/536/483
f 436/511/484 451/537/484 452/539/484
f 445/514/485 444/512/486 459/538/486
f 438/515/487 437/513/487 452/539/487
f 445/514/488 460/540/488 461/529/488
f 457/534/489 472/556/489 473/541/489
f 450/535/490 465/557/490 466/542/490
f 459/538/491 458/536/491 473/541/491
f 451/537/492 466/542/492 467/544/492
f 459/538/493 474/543/493 475/545/493
f 453/524/494 452/539/494 467/544/494
f 460/540/495 475/545/495 476/547/495
f 454/525/496 453/524/496 468/546/496
f 454/525/499 469/548/499 470/552/499
f 447/527/500 462/550/500 463/553/500
f 455/530/501 470/552/501 471/554/501
f 448/531/502 463/553/502 464/555/502
f 456/532/503 471/554/503 472/556/503
f 449/533/504 464/555/504 465/557/504
f 469/548/506 477/7/506 478/9/506
f 463/553/507 462/550/507 1/1/507
f 470/552/508 478/9/508 479/13/508
f 464/555/509 463/553/509 2/11/509
f 471/554/510 479/13/510 8/17/510
f 465/557/511 464/555/511 3/14/511
f 472/556/512 8/17/512 9/20/512
f 466/542/513 465/557/513 4/19/513
f 473/541/514 9/20/514 10/25/514
f 467/544/515 466/542/515 5/22/515
f 474/543/516 10/25/516 480/29/516
f 468/546/517 467/544/517 6/27/517
f 475/545/518 480/29/518 481/5/518
f 469/548/519 468/546/519 7/31/519
