# Blender 4.4.1
# www.blender.org
mtllib map_equipment_01.mtl
o 台座下側装置_01
v 9.496177 1.906164 -8.789071
v 6.314197 1.906164 -5.607090
v 6.314197 7.906164 -5.607090
v 8.789070 1.906164 -9.496178
v 5.607090 7.906164 -6.314197
v 5.607090 1.906164 -6.314197
v 8.789071 1.906164 9.496177
v 5.607090 7.906164 6.314197
v 5.607090 1.906164 6.314197
v 9.496178 1.906164 8.789070
v 6.314197 7.906164 5.607090
v 6.314197 1.906164 5.607090
v -8.789072 1.906164 -9.496176
v -5.607090 1.906164 -6.314196
v -5.607090 7.906164 -6.314196
v -9.496179 1.906164 -8.789069
v -6.314198 7.906164 -5.607089
v -6.314198 1.906164 -5.607089
v 0.500001 1.906164 -12.929623
v 0.500001 1.906164 -8.429623
v 0.500001 7.906164 -8.429623
v -0.499999 1.906164 -12.929623
v -0.499999 7.906164 -8.429623
v -0.499999 1.906164 -8.429623
v -0.500000 1.906164 12.929623
v -0.500000 1.906164 8.429623
v -0.500000 7.906164 8.429623
v 0.500000 1.906164 12.929623
v 0.500000 7.906164 8.429623
v 0.500000 1.906164 8.429623
v 12.929623 1.906164 0.499999
v 8.429623 1.906164 0.500000
v 8.429623 7.906164 0.500000
v 12.929623 1.906164 -0.500001
v 8.429623 7.906164 -0.500000
v 8.429623 1.906164 -0.500000
v -12.929623 1.906164 -0.499998
v -8.429623 1.906164 -0.499999
v -8.429623 7.906164 -0.499999
v -12.929623 1.906164 0.500002
v -8.429623 7.906164 0.500001
v -8.429623 1.906164 0.500001
v -9.496176 1.906164 8.789072
v -6.314196 1.906164 5.607090
v -6.314196 7.906164 5.607090
v -8.789069 1.906164 9.496179
v -5.607089 7.906164 6.314198
v -5.607089 1.906164 6.314198
v -12.929623 33.093842 0.499999
v -8.429623 33.093834 0.500000
v -8.429625 27.093838 0.500000
v -12.929623 33.093842 -0.500000
v -8.429625 27.093838 -0.500000
v -8.429624 33.093834 -0.500000
v 12.929623 33.093834 -0.499998
v 8.429624 33.093834 -0.499999
v 8.429623 27.093838 -0.499999
v 12.929623 33.093834 0.500001
v 8.429623 33.093834 0.500001
v 8.429622 27.093838 0.500001
v -9.496177 33.093842 -8.789071
v -6.314198 33.093842 -5.607090
v -6.314198 27.093838 -5.607090
v -8.789070 33.093842 -9.496178
v -5.607090 27.093838 -6.314197
v -5.607090 33.093842 -6.314197
v 9.496177 33.093834 8.789072
v 6.314196 33.093834 5.607090
v 6.314196 27.093838 5.607090
v 8.789070 33.093834 9.496178
v 5.607089 33.093834 6.314198
v 5.607088 27.093838 6.314197
v -0.500002 33.093842 -12.929622
v -0.500001 33.093842 -8.429623
v -0.500001 27.093838 -8.429622
v 0.499998 33.093842 -12.929623
v 0.499999 27.093838 -8.429623
v 0.499999 33.093842 -8.429623
v 0.500000 33.093842 12.929623
v 0.500000 33.093842 8.429623
v 0.499999 27.093838 8.429622
v -0.500000 33.093842 12.929622
v -0.500000 33.093842 8.429622
v -0.500001 27.093838 8.429622
v -8.789072 33.093842 9.496177
v -5.607090 33.093842 6.314196
v -5.607091 27.093838 6.314196
v -9.496178 33.093842 8.789070
v -6.314198 27.093838 5.607090
v -6.314198 33.093842 5.607090
v 8.789072 33.093834 -9.496176
v 5.607090 33.093834 -6.314196
v 5.607090 27.093838 -6.314196
v 9.496178 33.093834 -8.789068
v 6.314197 33.093834 -5.607089
v 6.314197 27.093838 -5.607089
v -0.000000 34.841511 -17.500000
v 3.414081 34.841511 -17.163740
v -0.000000 79.841507 -17.500000
v -3.414081 34.841511 -17.163742
v -3.414081 79.841507 -17.163742
v -6.696962 79.841507 -16.167891
v -9.722479 79.841507 -14.550717
v -6.696962 34.841511 -16.167891
v -9.722479 34.841511 -14.550717
v -12.374369 34.841515 -12.374370
v -14.550720 34.841515 -9.722479
v -12.374369 79.841507 -12.374370
v -14.550720 79.841507 -9.722479
v -16.167891 79.841507 -6.696960
v -17.163742 79.841507 -3.414080
v -16.167891 34.841515 -6.696960
v -17.163742 34.841515 -3.414080
v -17.500000 34.841515 0.000000
v -17.500000 79.841507 0.000000
v -17.163742 79.841507 3.414081
v -16.167891 79.841507 6.696960
v -17.163742 34.841515 3.414081
v -16.167891 34.841515 6.696960
v -14.550717 34.841515 9.722479
v -14.550717 79.841507 9.722479
v -12.374369 79.841507 12.374369
v -9.722479 79.841507 14.550717
v -12.374369 34.841515 12.374369
v -9.722479 34.841511 14.550717
v -6.696960 34.841511 16.167891
v -6.696960 79.841507 16.167891
v -3.414081 79.841507 17.163740
v 0.000000 79.841507 17.500000
v -3.414081 34.841511 17.163740
v 0.000000 34.841511 17.500000
v 3.414081 34.841511 17.163742
v 3.414081 79.841507 17.163742
v 6.696961 79.841507 16.167891
v 9.722479 79.841507 14.550717
v 6.696961 34.841511 16.167891
v 9.722479 34.841511 14.550717
v 12.374369 34.841507 12.374370
v 14.550720 34.841507 9.722479
v 12.374369 79.841515 12.374370
v 14.550720 79.841515 9.722479
v 16.167891 79.841515 6.696960
v 17.163742 79.841515 3.414080
v 16.167891 34.841507 6.696960
v 17.163742 34.841507 3.414080
v 17.500000 34.841507 0.000000
v 17.500000 79.841515 0.000000
v 17.163742 79.841515 -3.414081
v 16.167891 79.841515 -6.696960
v 17.163742 34.841507 -3.414081
v 16.167891 34.841507 -6.696960
v 14.550717 34.841507 -9.722479
v 14.550717 79.841515 -9.722479
v 12.374369 79.841515 -12.374369
v 9.722479 79.841507 -14.550717
v 12.374369 34.841507 -12.374369
v 9.722479 34.841511 -14.550717
v 6.696960 34.841511 -16.167891
v 6.696960 79.841507 -16.167891
v 3.414081 79.841507 -17.163740
vn 0.7071 -0.0000 0.7071
vn 0.5657 0.6000 -0.5657
vn -0.7071 -0.0000 0.7071
vn -0.7071 -0.0000 -0.7071
vn 0.7071 -0.0000 -0.7071
vn 0.5657 0.6000 0.5657
vn -0.5657 0.6000 -0.5657
vn 1.0000 -0.0000 -0.0000
vn -0.0000 0.6000 -0.8000
vn -0.0000 -0.0000 1.0000
vn -1.0000 -0.0000 -0.0000
vn -0.0000 0.6000 0.8000
vn -0.0000 -0.0000 -1.0000
vn 0.8000 0.6000 -0.0000
vn -0.8000 0.6000 -0.0000
vn -0.5657 0.6000 0.5657
vn -0.8000 -0.6000 -0.0000
vn 0.8000 -0.6000 -0.0000
vn -0.5657 -0.6000 -0.5657
vn 0.5657 -0.6000 0.5657
vn -0.0000 -0.6000 -0.8000
vn -0.0000 -0.6000 0.8000
vn -0.5657 -0.6000 0.5657
vn 0.5657 -0.6000 -0.5657
vn 0.1951 -0.0000 -0.9808
vn -0.1951 -0.0000 -0.9808
vn -0.3827 -0.0000 -0.9239
vn -0.5556 -0.0000 -0.8315
vn -0.8315 -0.0000 -0.5556
vn -0.9239 -0.0000 -0.3827
vn -0.9808 -0.0000 -0.1951
vn -0.9808 -0.0000 0.1951
vn -0.9239 -0.0000 0.3827
vn -0.8315 -0.0000 0.5556
vn -0.5556 -0.0000 0.8315
vn -0.3827 -0.0000 0.9239
vn -0.1951 -0.0000 0.9808
vn 0.1951 -0.0000 0.9808
vn 0.3827 -0.0000 0.9239
vn 0.5556 -0.0000 0.8315
vn 0.8315 -0.0000 0.5556
vn 0.9239 -0.0000 0.3827
vn 0.9808 -0.0000 0.1951
vn 0.9808 -0.0000 -0.1951
vn 0.9239 -0.0000 -0.3827
vn 0.8315 -0.0000 -0.5556
vn 0.5556 -0.0000 -0.8315
vn 0.3827 -0.0000 -0.9239
vt 0.375000 0.000000
vt 0.625000 0.250000
vt 0.375000 0.250000
vt 0.625000 0.750000
vt 0.625000 1.000000
vt 0.375000 1.000000
vt 0.375000 0.750000
vt 0.625000 0.500000
vt 0.375000 0.500000
vt 1.000000 1.000000
vt 0.968750 0.500000
vt 1.000000 0.500000
vt 0.031250 1.000000
vt 0.000000 1.000000
vt 0.000000 0.500000
vt 0.031250 0.500000
vt 0.062500 1.000000
vt 0.093750 1.000000
vt 0.062500 0.500000
vt 0.093750 0.500000
vt 0.125000 0.500000
vt 0.156250 1.000000
vt 0.156250 0.500000
vt 0.125000 1.000000
vt 0.187500 1.000000
vt 0.218750 1.000000
vt 0.187500 0.500000
vt 0.218750 0.500000
vt 0.250000 1.000000
vt 0.250000 0.500000
vt 0.281250 1.000000
vt 0.312500 1.000000
vt 0.281250 0.500000
vt 0.312500 0.500000
vt 0.343750 1.000000
vt 0.343750 0.500000
vt 0.406250 1.000000
vt 0.406250 0.500000
vt 0.437500 1.000000
vt 0.437500 0.500000
vt 0.468750 1.000000
vt 0.500000 1.000000
vt 0.468750 0.500000
vt 0.500000 0.500000
vt 0.531250 1.000000
vt 0.531250 0.500000
vt 0.562500 1.000000
vt 0.593750 1.000000
vt 0.562500 0.500000
vt 0.593750 0.500000
vt 0.656250 1.000000
vt 0.656250 0.500000
vt 0.687500 1.000000
vt 0.718750 1.000000
vt 0.687500 0.500000
vt 0.718750 0.500000
vt 0.750000 1.000000
vt 0.750000 0.500000
vt 0.781250 1.000000
vt 0.812500 1.000000
vt 0.781250 0.500000
vt 0.812500 0.500000
vt 0.843750 1.000000
vt 0.843750 0.500000
vt 0.875000 1.000000
vt 0.906250 1.000000
vt 0.875000 0.500000
vt 0.906250 0.500000
vt 0.937500 1.000000
vt 0.937500 0.500000
vt 0.968750 1.000000
s 0
f 1/1/1 3/2/1 2/3/1
f 5/4/2 3/5/2 1/6/2
f 5/4/2 1/6/2 4/7/2
f 3/2/3 5/8/3 6/9/3
f 6/9/4 5/4/4 4/7/4
f 3/2/3 6/9/3 2/3/3
f 7/1/3 8/2/3 9/3/3
f 8/2/4 12/9/4 9/3/4
f 12/9/5 11/4/5 10/7/5
f 11/4/6 7/6/6 10/7/6
f 8/2/4 11/8/4 12/9/4
f 11/4/6 8/5/6 7/6/6
f 13/1/5 15/2/5 14/3/5
f 17/4/7 15/5/7 13/6/7
f 17/4/7 13/6/7 16/7/7
f 15/2/1 17/8/1 18/9/1
f 18/9/3 17/4/3 16/7/3
f 15/2/1 18/9/1 14/3/1
f 19/1/8 21/2/8 20/3/8
f 23/4/9 21/5/9 19/6/9
f 23/4/9 19/6/9 22/7/9
f 21/2/10 23/8/10 24/9/10
f 24/9/11 23/4/11 22/7/11
f 21/2/10 24/9/10 20/3/10
f 25/1/11 27/2/11 26/3/11
f 29/4/12 27/5/12 25/6/12
f 29/4/12 25/6/12 28/7/12
f 27/2/13 29/8/13 30/9/13
f 30/9/8 29/4/8 28/7/8
f 27/2/13 30/9/13 26/3/13
f 31/1/10 33/2/10 32/3/10
f 35/4/14 33/5/14 31/6/14
f 35/4/14 31/6/14 34/7/14
f 33/2/11 35/8/11 36/9/11
f 36/9/13 35/4/13 34/7/13
f 33/2/11 36/9/11 32/3/11
f 37/1/13 39/2/13 38/3/13
f 41/4/15 39/5/15 37/6/15
f 41/4/15 37/6/15 40/7/15
f 39/2/8 41/8/8 42/9/8
f 42/9/10 41/4/10 40/7/10
f 39/2/8 42/9/8 38/3/8
f 43/1/4 45/2/4 44/3/4
f 47/4/16 45/5/16 43/6/16
f 47/4/16 43/6/16 46/7/16
f 45/2/5 47/8/5 48/9/5
f 48/9/1 47/4/1 46/7/1
f 45/2/5 48/9/5 44/3/5
f 49/1/10 51/2/10 50/3/10
f 53/4/17 51/5/17 49/6/17
f 53/4/17 49/6/17 52/7/17
f 51/2/8 53/8/8 54/9/8
f 54/9/13 53/4/13 52/7/13
f 51/2/8 54/9/8 50/3/8
f 55/1/13 57/2/13 56/3/13
f 58/7/18 57/5/18 55/6/18
f 59/9/10 60/4/10 58/7/10
f 58/7/18 60/4/18 57/5/18
f 57/2/11 60/8/11 59/9/11
f 57/2/11 59/9/11 56/3/11
f 61/1/3 63/2/3 62/3/3
f 65/4/19 63/5/19 61/6/19
f 65/4/19 61/6/19 64/7/19
f 63/2/1 65/8/1 66/9/1
f 66/9/5 65/4/5 64/7/5
f 63/2/1 66/9/1 62/3/1
f 67/1/5 69/2/5 68/3/5
f 70/7/20 69/5/20 67/6/20
f 71/9/3 72/4/3 70/7/3
f 70/7/20 72/4/20 69/5/20
f 69/2/4 72/8/4 71/9/4
f 69/2/4 71/9/4 68/3/4
f 73/1/11 75/2/11 74/3/11
f 77/4/21 75/5/21 73/6/21
f 77/4/21 73/6/21 76/7/21
f 75/2/10 77/8/10 78/9/10
f 78/9/8 77/4/8 76/7/8
f 75/2/10 78/9/10 74/3/10
f 79/1/8 81/2/8 80/3/8
f 82/7/22 81/5/22 79/6/22
f 83/9/11 84/4/11 82/7/11
f 82/7/22 84/4/22 81/5/22
f 81/2/13 84/8/13 83/9/13
f 81/2/13 83/9/13 80/3/13
f 85/1/1 87/2/1 86/3/1
f 89/4/23 87/5/23 85/6/23
f 89/4/23 85/6/23 88/7/23
f 87/2/5 89/8/5 90/9/5
f 90/9/4 89/4/4 88/7/4
f 87/2/5 90/9/5 86/3/5
f 91/1/4 93/2/4 92/3/4
f 94/7/24 93/5/24 91/6/24
f 95/9/1 96/4/1 94/7/1
f 94/7/24 96/4/24 93/5/24
f 93/2/3 96/8/3 95/9/3
f 93/2/3 95/9/3 92/3/3
s 1
f 99/10/13 98/11/25 97/12/13
f 101/13/26 99/14/13 97/15/13
f 101/13/26 97/15/13 100/16/26
f 102/17/27 101/13/26 100/16/26
f 103/18/28 102/17/27 104/19/27
f 102/17/27 100/16/26 104/19/27
f 103/18/28 104/19/27 105/20/28
f 106/21/4 103/18/28 105/20/28
f 109/22/29 106/21/4 107/23/29
f 106/21/4 108/24/4 103/18/28
f 109/22/29 108/24/4 106/21/4
f 110/25/30 109/22/29 107/23/29
f 111/26/31 110/25/30 112/27/30
f 110/25/30 107/23/29 112/27/30
f 111/26/31 112/27/30 113/28/31
f 115/29/11 113/28/31 114/30/11
f 115/29/11 111/26/31 113/28/31
f 116/31/32 115/29/11 114/30/11
f 117/32/33 116/31/32 118/33/32
f 116/31/32 114/30/11 118/33/32
f 117/32/33 118/33/32 119/34/33
f 121/35/34 119/34/33 120/36/34
f 121/35/34 117/32/33 119/34/33
f 122/6/3 121/35/34 120/36/34
f 123/37/35 122/6/3 124/9/3
f 122/6/3 120/36/34 124/9/3
f 123/37/35 124/9/3 125/38/35
f 127/39/36 125/38/35 126/40/36
f 127/39/36 123/37/35 125/38/35
f 128/41/37 127/39/36 126/40/36
f 129/42/10 128/41/37 130/43/37
f 128/41/37 126/40/36 130/43/37
f 129/42/10 130/43/37 131/44/10
f 133/45/38 131/44/10 132/46/38
f 133/45/38 129/42/10 131/44/10
f 134/47/39 133/45/38 132/46/38
f 135/48/40 134/47/39 136/49/39
f 134/47/39 132/46/38 136/49/39
f 135/48/40 136/49/39 137/50/40
f 138/8/1 135/48/40 137/50/40
f 141/51/41 138/8/1 139/52/41
f 138/8/1 140/5/1 135/48/40
f 141/51/41 140/5/1 138/8/1
f 142/53/42 141/51/41 139/52/41
f 143/54/43 142/53/42 144/55/42
f 142/53/42 139/52/41 144/55/42
f 143/54/43 144/55/42 145/56/43
f 147/57/8 145/56/43 146/58/8
f 147/57/8 143/54/43 145/56/43
f 148/59/44 147/57/8 146/58/8
f 149/60/45 148/59/44 150/61/44
f 148/59/44 146/58/8 150/61/44
f 149/60/45 150/61/44 151/62/45
f 153/63/46 151/62/45 152/64/46
f 153/63/46 149/60/45 151/62/45
f 154/65/5 153/63/46 152/64/46
f 155/66/47 154/65/5 156/67/5
f 154/65/5 152/64/46 156/67/5
f 155/66/47 156/67/5 157/68/47
f 159/69/48 157/68/47 158/70/48
f 159/69/48 155/66/47 157/68/47
f 160/71/25 159/69/48 158/70/48
f 99/10/13 160/71/25 98/11/25
f 160/71/25 158/70/48 98/11/25
