mtllib obsidian_raft.mtl
o obsidian_raft
v 2.759215 0.380000 1.872705
v 3.505608 0.380000 0.382446
v 0.000000 0.380000 0.000000
v 1.315452 0.380000 2.787013
v 2.759215 0.380000 1.872705
v 0.000000 0.380000 0.000000
v -0.391716 0.380000 2.939227
v 1.315452 0.380000 2.787013
v 0.000000 0.380000 0.000000
v -2.159919 0.380000 2.605086
v -0.391716 0.380000 2.939227
v 0.000000 0.380000 0.000000
v -3.165290 0.380000 1.222977
v -2.159919 0.380000 2.605086
v 0.000000 0.380000 0.000000
v -3.270311 0.380000 -0.356777
v -3.165290 0.380000 1.222977
v 0.000000 0.380000 0.000000
v -2.700385 0.380000 -1.832777
v -3.270311 0.380000 -0.356777
v 0.000000 0.380000 0.000000
v -1.364933 0.380000 -2.891848
v -2.700385 0.380000 -1.832777
v 0.000000 0.380000 0.000000
v 0.425320 0.380000 -3.191367
v -1.364933 0.380000 -2.891848
v 0.000000 0.380000 0.000000
v 1.935614 0.380000 -2.334552
v 0.425320 0.380000 -3.191367
v 0.000000 0.380000 0.000000
v 3.111346 0.380000 -1.202134
v 1.935614 0.380000 -2.334552
v 0.000000 0.380000 0.000000
v 3.505608 0.380000 0.382446
v 3.111346 0.380000 -1.202134
v 0.000000 0.380000 0.000000
v 3.505608 0.380000 0.382446
v 2.759215 0.380000 1.872705
v 2.931961 -0.100000 2.113167
v 3.736441 -0.100000 0.432869
v 2.759215 0.380000 1.872705
v 1.315452 0.380000 2.787013
v 1.392325 -0.100000 3.132536
v 2.931961 -0.100000 2.113167
v 1.315452 0.380000 2.787013
v -0.391716 0.380000 2.939227
v -0.413273 -0.100000 3.292984
v 1.392325 -0.100000 3.132536
v -0.391716 0.380000 2.939227
v -2.159919 0.380000 2.605086
v -2.307755 -0.100000 2.955738
v -0.413273 -0.100000 3.292984
v -2.159919 0.380000 2.605086
v -3.165290 0.380000 1.222977
v -3.362501 -0.100000 1.379618
v -2.307755 -0.100000 2.955738
v -3.165290 0.380000 1.222977
v -3.270311 0.380000 -0.356777
v -3.453479 -0.100000 -0.400088
v -3.362501 -0.100000 1.379618
v -3.270311 0.380000 -0.356777
v -2.700385 0.380000 -1.832777
v -2.861214 -0.100000 -2.062177
v -3.453479 -0.100000 -0.400088
v -2.700385 0.380000 -1.832777
v -1.364933 0.380000 -2.891848
v -1.451830 -0.100000 -3.266414
v -2.861214 -0.100000 -2.062177
v -1.364933 0.380000 -2.891848
v 0.425320 0.380000 -3.191367
v 0.453683 -0.100000 -3.614978
v -1.451830 -0.100000 -3.266414
v 0.425320 0.380000 -3.191367
v 1.935614 0.380000 -2.334552
v 2.038011 -0.100000 -2.610254
v 0.453683 -0.100000 -3.614978
v 1.935614 0.380000 -2.334552
v 3.111346 0.380000 -1.202134
v 3.297630 -0.100000 -1.353001
v 2.038011 -0.100000 -2.610254
v 3.111346 0.380000 -1.202134
v 3.505608 0.380000 0.382446
v 3.736441 -0.100000 0.432869
v 3.297630 -0.100000 -1.353001
v 3.736441 -0.100000 0.432869
v 2.931961 -0.100000 2.113167
v 1.980764 -1.750000 1.609698
v 2.520418 -1.750000 0.329236
v 2.931961 -0.100000 2.113167
v 1.392325 -0.100000 3.132536
v 0.942473 -1.750000 2.390896
v 1.980764 -1.750000 1.609698
v 1.392325 -0.100000 3.132536
v -0.413273 -0.100000 3.292984
v -0.280199 -1.750000 2.517422
v 0.942473 -1.750000 2.390896
v -0.413273 -0.100000 3.292984
v -2.307755 -0.100000 2.955738
v -1.554809 -1.750000 2.245378
v -0.280199 -1.750000 2.517422
v -2.307755 -0.100000 2.955738
v -3.362501 -0.100000 1.379618
v -2.271950 -1.750000 1.051069
v -1.554809 -1.750000 2.245378
v -3.362501 -0.100000 1.379618
v -3.453479 -0.100000 -0.400088
v -2.340373 -1.750000 -0.305717
v -2.271950 -1.750000 1.051069
v -3.453479 -0.100000 -0.400088
v -2.861214 -0.100000 -2.062177
v -1.935749 -1.750000 -1.573116
v -2.340373 -1.750000 -0.305717
v -2.861214 -0.100000 -2.062177
v -1.451830 -0.100000 -3.266414
v -0.980335 -1.750000 -2.486947
v -1.935749 -1.750000 -1.573116
v -1.451830 -0.100000 -3.266414
v 0.453683 -0.100000 -3.614978
v 0.305912 -1.750000 -2.748435
v -0.980335 -1.750000 -2.486947
v 0.453683 -0.100000 -3.614978
v 2.038011 -0.100000 -2.610254
v 1.383174 -1.750000 -1.997511
v 0.305912 -1.750000 -2.748435
v 2.038011 -0.100000 -2.610254
v 3.297630 -0.100000 -1.353001
v 2.230674 -1.750000 -1.031973
v 1.383174 -1.750000 -1.997511
v 3.297630 -0.100000 -1.353001
v 3.736441 -0.100000 0.432869
v 2.520418 -1.750000 0.329236
v 2.230674 -1.750000 -1.031973
v 2.520418 -1.750000 0.329236
v 1.980764 -1.750000 1.609698
v 0.663744 -3.350000 0.407381
v 0.834236 -3.350000 0.082302
v 1.980764 -1.750000 1.609698
v 0.942473 -1.750000 2.390896
v 0.320813 -3.350000 0.614654
v 0.663744 -3.350000 0.407381
v 0.942473 -1.750000 2.390896
v -0.280199 -1.750000 2.517422
v -0.096596 -3.350000 0.655446
v 0.320813 -3.350000 0.614654
v -0.280199 -1.750000 2.517422
v -1.554809 -1.750000 2.245378
v -0.509525 -3.350000 0.555732
v -0.096596 -3.350000 0.655446
v -1.554809 -1.750000 2.245378
v -2.271950 -1.750000 1.051069
v -0.762192 -3.350000 0.266308
v -0.509525 -3.350000 0.555732
v -2.271950 -1.750000 1.051069
v -2.340373 -1.750000 -0.305717
v -0.803898 -3.350000 -0.079309
v -0.762192 -3.350000 0.266308
v -2.340373 -1.750000 -0.305717
v -1.935749 -1.750000 -1.573116
v -0.656159 -3.350000 -0.402725
v -0.803898 -3.350000 -0.079309
v -1.935749 -1.750000 -1.573116
v -0.980335 -1.750000 -2.486947
v -0.327193 -3.350000 -0.626878
v -0.656159 -3.350000 -0.402725
v -0.980335 -1.750000 -2.486947
v 0.305912 -1.750000 -2.748435
v 0.100929 -3.350000 -0.684845
v -0.327193 -3.350000 -0.626878
v 0.305912 -1.750000 -2.748435
v 1.383174 -1.750000 -1.997511
v 0.480604 -3.350000 -0.524188
v 0.100929 -3.350000 -0.684845
v 1.383174 -1.750000 -1.997511
v 2.230674 -1.750000 -1.031973
v 0.755237 -3.350000 -0.263878
v 0.480604 -3.350000 -0.524188
v 2.230674 -1.750000 -1.031973
v 2.520418 -1.750000 0.329236
v 0.834236 -3.350000 0.082302
v 0.755237 -3.350000 -0.263878
v 0.000000 -3.750000 0.000000
v 0.834236 -3.350000 0.082302
v 0.663744 -3.350000 0.407381
v 0.000000 -3.750000 0.000000
v 0.663744 -3.350000 0.407381
v 0.320813 -3.350000 0.614654
v 0.000000 -3.750000 0.000000
v 0.320813 -3.350000 0.614654
v -0.096596 -3.350000 0.655446
v 0.000000 -3.750000 0.000000
v -0.096596 -3.350000 0.655446
v -0.509525 -3.350000 0.555732
v 0.000000 -3.750000 0.000000
v -0.509525 -3.350000 0.555732
v -0.762192 -3.350000 0.266308
v 0.000000 -3.750000 0.000000
v -0.762192 -3.350000 0.266308
v -0.803898 -3.350000 -0.079309
v 0.000000 -3.750000 0.000000
v -0.803898 -3.350000 -0.079309
v -0.656159 -3.350000 -0.402725
v 0.000000 -3.750000 0.000000
v -0.656159 -3.350000 -0.402725
v -0.327193 -3.350000 -0.626878
v 0.000000 -3.750000 0.000000
v -0.327193 -3.350000 -0.626878
v 0.100929 -3.350000 -0.684845
v 0.000000 -3.750000 0.000000
v 0.100929 -3.350000 -0.684845
v 0.480604 -3.350000 -0.524188
v 0.000000 -3.750000 0.000000
v 0.480604 -3.350000 -0.524188
v 0.755237 -3.350000 -0.263878
v 0.000000 -3.750000 0.000000
v 0.755237 -3.350000 -0.263878
v 0.834236 -3.350000 0.082302
v -2.713997 0.420000 -0.646811
v -0.813997 0.430000 -0.146811
v -0.786003 0.430000 -0.253189
v -2.686003 0.420000 -0.753189
v -0.781695 0.430000 -0.148136
v 0.918305 0.430000 -0.748136
v 0.881695 0.430000 -0.851864
v -0.818305 0.430000 -0.251864
v 0.248720 0.425000 2.511243
v 0.548720 0.430000 1.211243
v 0.451280 0.430000 1.188757
v 0.151280 0.425000 2.488757
v 0.533218 0.430000 1.237370
v 1.433218 0.430000 0.437370
v 1.366782 0.430000 0.362630
v 0.466782 0.430000 1.162630
vt 0.651757 0.397001
vt 0.692808 0.478965
vt 0.500000 0.500000
vt 0.572350 0.346714
vt 0.651757 0.397001
vt 0.500000 0.500000
vt 0.478456 0.338343
vt 0.572350 0.346714
vt 0.500000 0.500000
vt 0.381204 0.356720
vt 0.478456 0.338343
vt 0.500000 0.500000
vt 0.325909 0.432736
vt 0.381204 0.356720
vt 0.500000 0.500000
vt 0.320133 0.519623
vt 0.325909 0.432736
vt 0.500000 0.500000
vt 0.351479 0.600803
vt 0.320133 0.519623
vt 0.500000 0.500000
vt 0.424929 0.659052
vt 0.351479 0.600803
vt 0.500000 0.500000
vt 0.523393 0.675525
vt 0.424929 0.659052
vt 0.500000 0.500000
vt 0.606459 0.628400
vt 0.523393 0.675525
vt 0.500000 0.500000
vt 0.671124 0.566117
vt 0.606459 0.628400
vt 0.500000 0.500000
vt 0.692808 0.478965
vt 0.671124 0.566117
vt 0.500000 0.500000
vt 0.000000 0.000000
vt 0.083333 0.000000
vt 0.083333 1.000000
vt 0.000000 1.000000
vt 0.083333 0.000000
vt 0.166667 0.000000
vt 0.166667 1.000000
vt 0.083333 1.000000
vt 0.166667 0.000000
vt 0.250000 0.000000
vt 0.250000 1.000000
vt 0.166667 1.000000
vt 0.250000 0.000000
vt 0.333333 0.000000
vt 0.333333 1.000000
vt 0.250000 1.000000
vt 0.333333 0.000000
vt 0.416667 0.000000
vt 0.416667 1.000000
vt 0.333333 1.000000
vt 0.416667 0.000000
vt 0.500000 0.000000
vt 0.500000 1.000000
vt 0.416667 1.000000
vt 0.500000 0.000000
vt 0.583333 0.000000
vt 0.583333 1.000000
vt 0.500000 1.000000
vt 0.583333 0.000000
vt 0.666667 0.000000
vt 0.666667 1.000000
vt 0.583333 1.000000
vt 0.666667 0.000000
vt 0.750000 0.000000
vt 0.750000 1.000000
vt 0.666667 1.000000
vt 0.750000 0.000000
vt 0.833333 0.000000
vt 0.833333 1.000000
vt 0.750000 1.000000
vt 0.833333 0.000000
vt 0.916667 0.000000
vt 0.916667 1.000000
vt 0.833333 1.000000
vt 0.916667 0.000000
vt 1.000000 0.000000
vt 1.000000 1.000000
vt 0.916667 1.000000
vt 0.000000 0.000000
vt 0.083333 0.000000
vt 0.083333 1.000000
vt 0.000000 1.000000
vt 0.083333 0.000000
vt 0.166667 0.000000
vt 0.166667 1.000000
vt 0.083333 1.000000
vt 0.166667 0.000000
vt 0.250000 0.000000
vt 0.250000 1.000000
vt 0.166667 1.000000
vt 0.250000 0.000000
vt 0.333333 0.000000
vt 0.333333 1.000000
vt 0.250000 1.000000
vt 0.333333 0.000000
vt 0.416667 0.000000
vt 0.416667 1.000000
vt 0.333333 1.000000
vt 0.416667 0.000000
vt 0.500000 0.000000
vt 0.500000 1.000000
vt 0.416667 1.000000
vt 0.500000 0.000000
vt 0.583333 0.000000
vt 0.583333 1.000000
vt 0.500000 1.000000
vt 0.583333 0.000000
vt 0.666667 0.000000
vt 0.666667 1.000000
vt 0.583333 1.000000
vt 0.666667 0.000000
vt 0.750000 0.000000
vt 0.750000 1.000000
vt 0.666667 1.000000
vt 0.750000 0.000000
vt 0.833333 0.000000
vt 0.833333 1.000000
vt 0.750000 1.000000
vt 0.833333 0.000000
vt 0.916667 0.000000
vt 0.916667 1.000000
vt 0.833333 1.000000
vt 0.916667 0.000000
vt 1.000000 0.000000
vt 1.000000 1.000000
vt 0.916667 1.000000
vt 0.000000 0.000000
vt 0.083333 0.000000
vt 0.083333 1.000000
vt 0.000000 1.000000
vt 0.083333 0.000000
vt 0.166667 0.000000
vt 0.166667 1.000000
vt 0.083333 1.000000
vt 0.166667 0.000000
vt 0.250000 0.000000
vt 0.250000 1.000000
vt 0.166667 1.000000
vt 0.250000 0.000000
vt 0.333333 0.000000
vt 0.333333 1.000000
vt 0.250000 1.000000
vt 0.333333 0.000000
vt 0.416667 0.000000
vt 0.416667 1.000000
vt 0.333333 1.000000
vt 0.416667 0.000000
vt 0.500000 0.000000
vt 0.500000 1.000000
vt 0.416667 1.000000
vt 0.500000 0.000000
vt 0.583333 0.000000
vt 0.583333 1.000000
vt 0.500000 1.000000
vt 0.583333 0.000000
vt 0.666667 0.000000
vt 0.666667 1.000000
vt 0.583333 1.000000
vt 0.666667 0.000000
vt 0.750000 0.000000
vt 0.750000 1.000000
vt 0.666667 1.000000
vt 0.750000 0.000000
vt 0.833333 0.000000
vt 0.833333 1.000000
vt 0.750000 1.000000
vt 0.833333 0.000000
vt 0.916667 0.000000
vt 0.916667 1.000000
vt 0.833333 1.000000
vt 0.916667 0.000000
vt 1.000000 0.000000
vt 1.000000 1.000000
vt 0.916667 1.000000
vt 0.500000 0.500000
vt 0.529198 0.497119
vt 0.523231 0.485742
vt 0.500000 0.500000
vt 0.523231 0.485742
vt 0.511228 0.478487
vt 0.500000 0.500000
vt 0.511228 0.478487
vt 0.496619 0.477059
vt 0.500000 0.500000
vt 0.496619 0.477059
vt 0.482167 0.480549
vt 0.500000 0.500000
vt 0.482167 0.480549
vt 0.473323 0.490679
vt 0.500000 0.500000
vt 0.473323 0.490679
vt 0.471864 0.502776
vt 0.500000 0.500000
vt 0.471864 0.502776
vt 0.477034 0.514095
vt 0.500000 0.500000
vt 0.477034 0.514095
vt 0.488548 0.521941
vt 0.500000 0.500000
vt 0.488548 0.521941
vt 0.503533 0.523970
vt 0.500000 0.500000
vt 0.503533 0.523970
vt 0.516821 0.518347
vt 0.500000 0.500000
vt 0.516821 0.518347
vt 0.526433 0.509236
vt 0.500000 0.500000
vt 0.526433 0.509236
vt 0.529198 0.497119
vt 0.405010 0.522638
vt 0.471510 0.505138
vt 0.472490 0.508862
vt 0.405990 0.526362
vt 0.472641 0.505185
vt 0.532141 0.526185
vt 0.530859 0.529815
vt 0.471359 0.508815
vt 0.508705 0.412106
vt 0.519205 0.457606
vt 0.515795 0.458394
vt 0.505295 0.412894
vt 0.518663 0.456692
vt 0.550163 0.484692
vt 0.547837 0.487308
vt 0.516337 0.459308
vn 0.000000 1.000000 0.000000
vn 0.000000 1.000000 0.000000
vn 0.000000 1.000000 0.000000
vn 0.000000 1.000000 0.000000
vn 0.000000 1.000000 0.000000
vn 0.000000 1.000000 0.000000
vn 0.000000 1.000000 0.000000
vn 0.000000 1.000000 0.000000
vn 0.000000 1.000000 0.000000
vn -0.000000 1.000000 0.000000
vn -0.000000 1.000000 0.000000
vn -0.000000 1.000000 0.000000
vn -0.000000 1.000000 0.000000
vn -0.000000 1.000000 0.000000
vn -0.000000 1.000000 0.000000
vn 0.000000 1.000000 0.000000
vn 0.000000 1.000000 0.000000
vn 0.000000 1.000000 0.000000
vn 0.000000 1.000000 -0.000000
vn 0.000000 1.000000 -0.000000
vn 0.000000 1.000000 -0.000000
vn 0.000000 1.000000 -0.000000
vn 0.000000 1.000000 -0.000000
vn 0.000000 1.000000 -0.000000
vn 0.000000 1.000000 0.000000
vn 0.000000 1.000000 0.000000
vn 0.000000 1.000000 0.000000
vn 0.000000 1.000000 0.000000
vn 0.000000 1.000000 0.000000
vn 0.000000 1.000000 0.000000
vn 0.000000 1.000000 0.000000
vn 0.000000 1.000000 0.000000
vn 0.000000 1.000000 0.000000
vn 0.000000 1.000000 0.000000
vn 0.000000 1.000000 0.000000
vn 0.000000 1.000000 0.000000
vn 0.784726 0.479306 0.393028
vn 0.784726 0.479306 0.393028
vn 0.784726 0.479306 0.393028
vn 0.784726 0.479306 0.393028
vn 0.439576 0.570056 0.694124
vn 0.439576 0.570056 0.694124
vn 0.439576 0.570056 0.694124
vn 0.439576 0.570056 0.694124
vn 0.071727 0.589662 0.804459
vn 0.071727 0.589662 0.804459
vn 0.071727 0.589662 0.804459
vn 0.071727 0.589662 0.804459
vn -0.146768 0.612576 0.776666
vn -0.146768 0.612576 0.776666
vn -0.146768 0.612576 0.776666
vn -0.146768 0.612576 0.776666
vn -0.716234 0.464291 0.521001
vn -0.716234 0.464291 0.521001
vn -0.716234 0.464291 0.521001
vn -0.716234 0.464291 0.521001
vn -0.934337 0.350937 0.062114
vn -0.934337 0.350937 0.062114
vn -0.934337 0.350937 0.062114
vn -0.934337 0.350937 0.062114
vn -0.839454 0.436178 -0.324137
vn -0.839454 0.436178 -0.324137
vn -0.839454 0.436178 -0.324137
vn -0.839454 0.436178 -0.324137
vn -0.503326 0.586386 -0.634677
vn -0.503326 0.586386 -0.634677
vn -0.503326 0.586386 -0.634677
vn -0.503326 0.586386 -0.634677
vn -0.125068 0.652333 -0.747542
vn -0.125068 0.652333 -0.747542
vn -0.125068 0.652333 -0.747542
vn -0.125068 0.652333 -0.747542
vn 0.422216 0.517543 -0.744234
vn 0.422216 0.517543 -0.744234
vn 0.422216 0.517543 -0.744234
vn 0.422216 0.517543 -0.744234
vn 0.621567 0.444060 -0.645342
vn 0.621567 0.444060 -0.645342
vn 0.621567 0.444060 -0.645342
vn 0.621567 0.444060 -0.645342
vn 0.887804 0.403743 -0.220896
vn 0.887804 0.403743 -0.220896
vn 0.887804 0.403743 -0.220896
vn 0.887804 0.403743 -0.220896
vn 0.755641 -0.546005 0.361780
vn 0.755641 -0.546005 0.361780
vn 0.755641 -0.546005 0.361780
vn 0.755641 -0.546005 0.361780
vn 0.488728 -0.465035 0.738165
vn 0.488728 -0.465035 0.738165
vn 0.488728 -0.465035 0.738165
vn 0.488728 -0.465035 0.738165
vn 0.080381 -0.418696 0.904562
vn 0.080381 -0.418696 0.904562
vn 0.080381 -0.418696 0.904562
vn 0.080381 -0.418696 0.904562
vn -0.156516 -0.449951 0.879231
vn -0.156516 -0.449951 0.879231
vn -0.156516 -0.449951 0.879231
vn -0.156516 -0.449951 0.879231
vn -0.693613 -0.550862 0.464169
vn -0.693613 -0.550862 0.464169
vn -0.693613 -0.550862 0.464169
vn -0.693613 -0.550862 0.464169
vn -0.829376 -0.557080 0.042397
vn -0.829376 -0.557080 0.042397
vn -0.829376 -0.557080 0.042397
vn -0.829376 -0.557080 0.042397
vn -0.797780 -0.531726 -0.284279
vn -0.797780 -0.531726 -0.284279
vn -0.797780 -0.531726 -0.284279
vn -0.797780 -0.531726 -0.284279
vn -0.570448 -0.478397 -0.667626
vn -0.570448 -0.478397 -0.667626
vn -0.570448 -0.478397 -0.667626
vn -0.570448 -0.478397 -0.667626
vn -0.160910 -0.447564 -0.879656
vn -0.160910 -0.447564 -0.879656
vn -0.160910 -0.447564 -0.879656
vn -0.160910 -0.447564 -0.879656
vn 0.473951 -0.465638 -0.747363
vn 0.473951 -0.465638 -0.747363
vn 0.473951 -0.465638 -0.747363
vn 0.473951 -0.465638 -0.747363
vn 0.607232 -0.511028 -0.608375
vn 0.607232 -0.511028 -0.608375
vn 0.607232 -0.511028 -0.608375
vn 0.607232 -0.511028 -0.608375
vn 0.795303 -0.573852 -0.195416
vn 0.795303 -0.573852 -0.195416
vn 0.795303 -0.573852 -0.195416
vn 0.795303 -0.573852 -0.195416
vn 0.635404 -0.724257 0.267793
vn 0.635404 -0.724257 0.267793
vn 0.635404 -0.724257 0.267793
vn 0.635404 -0.724257 0.267793
vn 0.400283 -0.746144 0.532017
vn 0.400283 -0.746144 0.532017
vn 0.400283 -0.746144 0.532017
vn 0.400283 -0.746144 0.532017
vn 0.067685 -0.753399 0.654071
vn 0.067685 -0.753399 0.654071
vn 0.067685 -0.753399 0.654071
vn 0.067685 -0.753399 0.654071
vn -0.135675 -0.759935 0.635682
vn -0.135675 -0.759935 0.635682
vn -0.135675 -0.759935 0.635682
vn -0.135675 -0.759935 0.635682
vn -0.587881 -0.727863 0.353003
vn -0.587881 -0.727863 0.353003
vn -0.587881 -0.727863 0.353003
vn -0.587881 -0.727863 0.353003
vn -0.723374 -0.689492 0.036479
vn -0.723374 -0.689492 0.036479
vn -0.723374 -0.689492 0.036479
vn -0.723374 -0.689492 0.036479
vn -0.678909 -0.701501 -0.216745
vn -0.678909 -0.701501 -0.216745
vn -0.678909 -0.701501 -0.216745
vn -0.678909 -0.701501 -0.216745
vn -0.459833 -0.746610 -0.480757
vn -0.459833 -0.746610 -0.480757
vn -0.459833 -0.746610 -0.480757
vn -0.459833 -0.746610 -0.480757
vn -0.125161 -0.778009 -0.615660
vn -0.125161 -0.778009 -0.615660
vn -0.125161 -0.778009 -0.615660
vn -0.125161 -0.778009 -0.615660
vn 0.388906 -0.733130 -0.557918
vn 0.388906 -0.733130 -0.557918
vn 0.388906 -0.733130 -0.557918
vn 0.388906 -0.733130 -0.557918
vn 0.528850 -0.710520 -0.464197
vn 0.528850 -0.710520 -0.464197
vn 0.528850 -0.710520 -0.464197
vn 0.528850 -0.710520 -0.464197
vn 0.692083 -0.706625 -0.147316
vn 0.692083 -0.706625 -0.147316
vn 0.692083 -0.706625 -0.147316
vn 0.692083 -0.706625 -0.147316
vn 0.405336 -0.889106 0.212585
vn 0.405336 -0.889106 0.212585
vn 0.405336 -0.889106 0.212585
vn 0.258871 -0.865763 0.428299
vn 0.258871 -0.865763 0.428299
vn 0.258871 -0.865763 0.428299
vn 0.051379 -0.849088 0.525746
vn 0.051379 -0.849088 0.525746
vn 0.051379 -0.849088 0.525746
vn -0.121688 -0.855131 0.503928
vn -0.121688 -0.855131 0.503928
vn -0.121688 -0.855131 0.503928
vn -0.354758 -0.882174 0.309703
vn -0.354758 -0.882174 0.309703
vn -0.354758 -0.882174 0.309703
vn -0.449102 -0.891835 0.054194
vn -0.449102 -0.891835 0.054194
vn -0.449102 -0.891835 0.054194
vn -0.421824 -0.885965 -0.192693
vn -0.421824 -0.885965 -0.192693
vn -0.421824 -0.885965 -0.192693
vn -0.278685 -0.868939 -0.408998
vn -0.278685 -0.868939 -0.408998
vn -0.278685 -0.868939 -0.408998
vn -0.069151 -0.856962 -0.510720
vn -0.069151 -0.856962 -0.510720
vn -0.069151 -0.856962 -0.510720
vn 0.199752 -0.858634 -0.472067
vn 0.199752 -0.858634 -0.472067
vn 0.199752 -0.858634 -0.472067
vn 0.337281 -0.871562 -0.355838
vn 0.337281 -0.871562 -0.355838
vn 0.337281 -0.871562 -0.355838
vn 0.438187 -0.893304 -0.099996
vn 0.438187 -0.893304 -0.099996
vn 0.438187 -0.893304 -0.099996
vn -0.004922 0.999987 -0.001295
vn -0.004922 0.999987 -0.001295
vn -0.004922 0.999987 -0.001295
vn -0.004922 0.999987 -0.001295
vn 0.000000 1.000000 0.000000
vn 0.000000 1.000000 0.000000
vn 0.000000 1.000000 0.000000
vn 0.000000 1.000000 0.000000
vn -0.000843 0.999993 0.003652
vn -0.000843 0.999993 0.003652
vn -0.000843 0.999993 0.003652
vn -0.000843 0.999993 0.003652
vn 0.000000 1.000000 0.000000
vn 0.000000 1.000000 0.000000
vn 0.000000 1.000000 0.000000
vn 0.000000 1.000000 0.000000
usemtl obsidian
f 1/1/1 2/2/2 3/3/3
f 4/4/4 5/5/5 6/6/6
f 7/7/7 8/8/8 9/9/9
f 10/10/10 11/11/11 12/12/12
f 13/13/13 14/14/14 15/15/15
f 16/16/16 17/17/17 18/18/18
f 19/19/19 20/20/20 21/21/21
f 22/22/22 23/23/23 24/24/24
f 25/25/25 26/26/26 27/27/27
f 28/28/28 29/29/29 30/30/30
f 31/31/31 32/32/32 33/33/33
f 34/34/34 35/35/35 36/36/36
f 37/37/37 38/38/38 39/39/39 40/40/40
f 41/41/41 42/42/42 43/43/43 44/44/44
f 45/45/45 46/46/46 47/47/47 48/48/48
usemtl basalt_top
f 49/49/49 50/50/50 51/51/51 52/52/52
usemtl obsidian
f 53/53/53 54/54/54 55/55/55 56/56/56
f 57/57/57 58/58/58 59/59/59 60/60/60
f 61/61/61 62/62/62 63/63/63 64/64/64
f 65/65/65 66/66/66 67/67/67 68/68/68
f 69/69/69 70/70/70 71/71/71 72/72/72
f 73/73/73 74/74/74 75/75/75 76/76/76
usemtl basalt_top
f 77/77/77 78/78/78 79/79/79 80/80/80
usemtl obsidian
f 81/81/81 82/82/82 83/83/83 84/84/84
usemtl basalt_side
f 85/85/85 86/86/86 87/87/87 88/88/88
f 89/89/89 90/90/90 91/91/91 92/92/92
f 93/93/93 94/94/94 95/95/95 96/96/96
usemtl obsidian
f 97/97/97 98/98/98 99/99/99 100/100/100
usemtl basalt_side
f 101/101/101 102/102/102 103/103/103 104/104/104
f 105/105/105 106/106/106 107/107/107 108/108/108
f 109/109/109 110/110/110 111/111/111 112/112/112
f 113/113/113 114/114/114 115/115/115 116/116/116
f 117/117/117 118/118/118 119/119/119 120/120/120
f 121/121/121 122/122/122 123/123/123 124/124/124
usemtl obsidian
f 125/125/125 126/126/126 127/127/127 128/128/128
usemtl basalt_side
f 129/129/129 130/130/130 131/131/131 132/132/132
f 133/133/133 134/134/134 135/135/135 136/136/136
f 137/137/137 138/138/138 139/139/139 140/140/140
f 141/141/141 142/142/142 143/143/143 144/144/144
usemtl ember
f 145/145/145 146/146/146 147/147/147 148/148/148
usemtl basalt_side
f 149/149/149 150/150/150 151/151/151 152/152/152
f 153/153/153 154/154/154 155/155/155 156/156/156
f 157/157/157 158/158/158 159/159/159 160/160/160
f 161/161/161 162/162/162 163/163/163 164/164/164
f 165/165/165 166/166/166 167/167/167 168/168/168
f 169/169/169 170/170/170 171/171/171 172/172/172
usemtl ember
f 173/173/173 174/174/174 175/175/175 176/176/176
usemtl basalt_side
f 177/177/177 178/178/178 179/179/179 180/180/180
usemtl obsidian
f 181/181/181 182/182/182 183/183/183
f 184/184/184 185/185/185 186/186/186
f 187/187/187 188/188/188 189/189/189
f 190/190/190 191/191/191 192/192/192
f 193/193/193 194/194/194 195/195/195
f 196/196/196 197/197/197 198/198/198
f 199/199/199 200/200/200 201/201/201
f 202/202/202 203/203/203 204/204/204
f 205/205/205 206/206/206 207/207/207
f 208/208/208 209/209/209 210/210/210
f 211/211/211 212/212/212 213/213/213
f 214/214/214 215/215/215 216/216/216
usemtl ember
f 217/217/217 218/218/218 219/219/219 220/220/220
f 221/221/221 222/222/222 223/223/223 224/224/224
f 225/225/225 226/226/226 227/227/227 228/228/228
f 229/229/229 230/230/230 231/231/231 232/232/232
