mtllib star_garden_rotating_platform.mtl
o star_garden_rotating_platform
v -0.000000 0.000000 0.000000
v 6.200000 0.000000 0.000000
v 4.384062 0.000000 4.384062
v 4.384062 -1.200000 4.384062
v 6.200000 -1.200000 0.000000
v -0.000000 -1.200000 0.000000
v 4.384062 0.000000 4.384062
v 6.200000 0.000000 0.000000
v 6.200000 -1.200000 0.000000
v 4.384062 -1.200000 4.384062
v -0.000000 0.000000 0.000000
v 4.384062 0.000000 4.384062
v 0.000000 0.000000 6.200000
v 0.000000 -1.200000 6.200000
v 4.384062 -1.200000 4.384062
v -0.000000 -1.200000 0.000000
v 0.000000 0.000000 6.200000
v 4.384062 0.000000 4.384062
v 4.384062 -1.200000 4.384062
v 0.000000 -1.200000 6.200000
v -0.000000 0.000000 0.000000
v 0.000000 0.000000 6.200000
v -4.384062 0.000000 4.384062
v -4.384062 -1.200000 4.384062
v 0.000000 -1.200000 6.200000
v -0.000000 -1.200000 0.000000
v -4.384062 0.000000 4.384062
v 0.000000 0.000000 6.200000
v 0.000000 -1.200000 6.200000
v -4.384062 -1.200000 4.384062
v -0.000000 0.000000 0.000000
v -4.384062 0.000000 4.384062
v -6.200000 0.000000 0.000000
v -6.200000 -1.200000 0.000000
v -4.384062 -1.200000 4.384062
v -0.000000 -1.200000 0.000000
v -6.200000 0.000000 0.000000
v -4.384062 0.000000 4.384062
v -4.384062 -1.200000 4.384062
v -6.200000 -1.200000 0.000000
v -0.000000 0.000000 0.000000
v -6.200000 0.000000 0.000000
v -4.384062 0.000000 -4.384062
v -4.384062 -1.200000 -4.384062
v -6.200000 -1.200000 0.000000
v -0.000000 -1.200000 0.000000
v -4.384062 0.000000 -4.384062
v -6.200000 0.000000 0.000000
v -6.200000 -1.200000 0.000000
v -4.384062 -1.200000 -4.384062
v -0.000000 0.000000 0.000000
v -4.384062 0.000000 -4.384062
v -0.000000 0.000000 -6.200000
v -0.000000 -1.200000 -6.200000
v -4.384062 -1.200000 -4.384062
v -0.000000 -1.200000 0.000000
v -0.000000 0.000000 -6.200000
v -4.384062 0.000000 -4.384062
v -4.384062 -1.200000 -4.384062
v -0.000000 -1.200000 -6.200000
v -0.000000 0.000000 0.000000
v -0.000000 0.000000 -6.200000
v 4.384062 0.000000 -4.384062
v 4.384062 -1.200000 -4.384062
v -0.000000 -1.200000 -6.200000
v -0.000000 -1.200000 0.000000
v 4.384062 0.000000 -4.384062
v -0.000000 0.000000 -6.200000
v -0.000000 -1.200000 -6.200000
v 4.384062 -1.200000 -4.384062
v -0.000000 0.000000 0.000000
v 4.384062 0.000000 -4.384062
v 6.200000 0.000000 0.000000
v 6.200000 -1.200000 0.000000
v 4.384062 -1.200000 -4.384062
v -0.000000 -1.200000 0.000000
v 6.200000 0.000000 0.000000
v 4.384062 0.000000 -4.384062
v 4.384062 -1.200000 -4.384062
v 6.200000 -1.200000 0.000000
v -0.000000 0.220000 -0.000000
v 5.450000 0.220000 0.000000
v 4.719838 0.220000 2.725000
v 4.719838 0.000000 2.725000
v 5.450000 0.000000 0.000000
v -0.000000 0.000000 -0.000000
v 4.719838 0.220000 2.725000
v 5.450000 0.220000 0.000000
v 5.450000 0.000000 0.000000
v 4.719838 0.000000 2.725000
v -0.000000 0.220000 -0.000000
v 4.719838 0.220000 2.725000
v 2.725000 0.220000 4.719838
v 2.725000 0.000000 4.719838
v 4.719838 0.000000 2.725000
v -0.000000 0.000000 -0.000000
v 2.725000 0.220000 4.719838
v 4.719838 0.220000 2.725000
v 4.719838 0.000000 2.725000
v 2.725000 0.000000 4.719838
v -0.000000 0.220000 -0.000000
v 2.725000 0.220000 4.719838
v 0.000000 0.220000 5.450000
v 0.000000 0.000000 5.450000
v 2.725000 0.000000 4.719838
v -0.000000 0.000000 -0.000000
v 0.000000 0.220000 5.450000
v 2.725000 0.220000 4.719838
v 2.725000 0.000000 4.719838
v 0.000000 0.000000 5.450000
v -0.000000 0.220000 -0.000000
v 0.000000 0.220000 5.450000
v -2.725000 0.220000 4.719838
v -2.725000 0.000000 4.719838
v 0.000000 0.000000 5.450000
v -0.000000 0.000000 -0.000000
v -2.725000 0.220000 4.719838
v 0.000000 0.220000 5.450000
v 0.000000 0.000000 5.450000
v -2.725000 0.000000 4.719838
v -0.000000 0.220000 -0.000000
v -2.725000 0.220000 4.719838
v -4.719838 0.220000 2.725000
v -4.719838 0.000000 2.725000
v -2.725000 0.000000 4.719838
v -0.000000 0.000000 -0.000000
v -4.719838 0.220000 2.725000
v -2.725000 0.220000 4.719838
v -2.725000 0.000000 4.719838
v -4.719838 0.000000 2.725000
v -0.000000 0.220000 -0.000000
v -4.719838 0.220000 2.725000
v -5.450000 0.220000 0.000000
v -5.450000 0.000000 0.000000
v -4.719838 0.000000 2.725000
v -0.000000 0.000000 -0.000000
v -5.450000 0.220000 0.000000
v -4.719838 0.220000 2.725000
v -4.719838 0.000000 2.725000
v -5.450000 0.000000 0.000000
v -0.000000 0.220000 -0.000000
v -5.450000 0.220000 0.000000
v -4.719838 0.220000 -2.725000
v -4.719838 0.000000 -2.725000
v -5.450000 0.000000 0.000000
v -0.000000 0.000000 -0.000000
v -4.719838 0.220000 -2.725000
v -5.450000 0.220000 0.000000
v -5.450000 0.000000 0.000000
v -4.719838 0.000000 -2.725000
v -0.000000 0.220000 -0.000000
v -4.719838 0.220000 -2.725000
v -2.725000 0.220000 -4.719838
v -2.725000 0.000000 -4.719838
v -4.719838 0.000000 -2.725000
v -0.000000 0.000000 -0.000000
v -2.725000 0.220000 -4.719838
v -4.719838 0.220000 -2.725000
v -4.719838 0.000000 -2.725000
v -2.725000 0.000000 -4.719838
v -0.000000 0.220000 -0.000000
v -2.725000 0.220000 -4.719838
v -0.000000 0.220000 -5.450000
v -0.000000 0.000000 -5.450000
v -2.725000 0.000000 -4.719838
v -0.000000 0.000000 -0.000000
v -0.000000 0.220000 -5.450000
v -2.725000 0.220000 -4.719838
v -2.725000 0.000000 -4.719838
v -0.000000 0.000000 -5.450000
v -0.000000 0.220000 -0.000000
v -0.000000 0.220000 -5.450000
v 2.725000 0.220000 -4.719838
v 2.725000 0.000000 -4.719838
v -0.000000 0.000000 -5.450000
v -0.000000 0.000000 -0.000000
v 2.725000 0.220000 -4.719838
v -0.000000 0.220000 -5.450000
v -0.000000 0.000000 -5.450000
v 2.725000 0.000000 -4.719838
v -0.000000 0.220000 -0.000000
v 2.725000 0.220000 -4.719838
v 4.719838 0.220000 -2.725000
v 4.719838 0.000000 -2.725000
v 2.725000 0.000000 -4.719838
v -0.000000 0.000000 -0.000000
v 4.719838 0.220000 -2.725000
v 2.725000 0.220000 -4.719838
v 2.725000 0.000000 -4.719838
v 4.719838 0.000000 -2.725000
v -0.000000 0.220000 -0.000000
v 4.719838 0.220000 -2.725000
v 5.450000 0.220000 0.000000
v 5.450000 0.000000 0.000000
v 4.719838 0.000000 -2.725000
v -0.000000 0.000000 -0.000000
v 5.450000 0.220000 0.000000
v 4.719838 0.220000 -2.725000
v 4.719838 0.000000 -2.725000
v 5.450000 0.000000 0.000000
v 1.650000 0.335000 0.000000
v 1.569243 0.335000 0.509878
v 1.169800 0.335000 0.380091
v 1.230000 0.335000 0.000000
v 1.569243 0.220000 0.509878
v 1.650000 0.220000 0.000000
v 1.230000 0.220000 0.000000
v 1.169800 0.220000 0.380091
v 1.569243 0.335000 0.509878
v 1.650000 0.335000 0.000000
v 1.650000 0.220000 0.000000
v 1.569243 0.220000 0.509878
v 1.230000 0.335000 0.000000
v 1.169800 0.335000 0.380091
v 1.169800 0.220000 0.380091
v 1.230000 0.220000 0.000000
v 1.569243 0.335000 0.509878
v 1.334878 0.335000 0.969846
v 0.995091 0.335000 0.722976
v 1.169800 0.335000 0.380091
v 1.334878 0.220000 0.969846
v 1.569243 0.220000 0.509878
v 1.169800 0.220000 0.380091
v 0.995091 0.220000 0.722976
v 1.334878 0.335000 0.969846
v 1.569243 0.335000 0.509878
v 1.569243 0.220000 0.509878
v 1.334878 0.220000 0.969846
v 1.169800 0.335000 0.380091
v 0.995091 0.335000 0.722976
v 0.995091 0.220000 0.722976
v 1.169800 0.220000 0.380091
v 1.334878 0.335000 0.969846
v 0.969846 0.335000 1.334878
v 0.722976 0.335000 0.995091
v 0.995091 0.335000 0.722976
v 0.969846 0.220000 1.334878
v 1.334878 0.220000 0.969846
v 0.995091 0.220000 0.722976
v 0.722976 0.220000 0.995091
v 0.969846 0.335000 1.334878
v 1.334878 0.335000 0.969846
v 1.334878 0.220000 0.969846
v 0.969846 0.220000 1.334878
v 0.995091 0.335000 0.722976
v 0.722976 0.335000 0.995091
v 0.722976 0.220000 0.995091
v 0.995091 0.220000 0.722976
v 0.969846 0.335000 1.334878
v 0.509878 0.335000 1.569243
v 0.380091 0.335000 1.169800
v 0.722976 0.335000 0.995091
v 0.509878 0.220000 1.569243
v 0.969846 0.220000 1.334878
v 0.722976 0.220000 0.995091
v 0.380091 0.220000 1.169800
v 0.509878 0.335000 1.569243
v 0.969846 0.335000 1.334878
v 0.969846 0.220000 1.334878
v 0.509878 0.220000 1.569243
v 0.722976 0.335000 0.995091
v 0.380091 0.335000 1.169800
v 0.380091 0.220000 1.169800
v 0.722976 0.220000 0.995091
v 0.509878 0.335000 1.569243
v 0.000000 0.335000 1.650000
v 0.000000 0.335000 1.230000
v 0.380091 0.335000 1.169800
v 0.000000 0.220000 1.650000
v 0.509878 0.220000 1.569243
v 0.380091 0.220000 1.169800
v 0.000000 0.220000 1.230000
v 0.000000 0.335000 1.650000
v 0.509878 0.335000 1.569243
v 0.509878 0.220000 1.569243
v 0.000000 0.220000 1.650000
v 0.380091 0.335000 1.169800
v 0.000000 0.335000 1.230000
v 0.000000 0.220000 1.230000
v 0.380091 0.220000 1.169800
v 0.000000 0.335000 1.650000
v -0.509878 0.335000 1.569243
v -0.380091 0.335000 1.169800
v 0.000000 0.335000 1.230000
v -0.509878 0.220000 1.569243
v 0.000000 0.220000 1.650000
v 0.000000 0.220000 1.230000
v -0.380091 0.220000 1.169800
v -0.509878 0.335000 1.569243
v 0.000000 0.335000 1.650000
v 0.000000 0.220000 1.650000
v -0.509878 0.220000 1.569243
v 0.000000 0.335000 1.230000
v -0.380091 0.335000 1.169800
v -0.380091 0.220000 1.169800
v 0.000000 0.220000 1.230000
v -0.509878 0.335000 1.569243
v -0.969846 0.335000 1.334878
v -0.722976 0.335000 0.995091
v -0.380091 0.335000 1.169800
v -0.969846 0.220000 1.334878
v -0.509878 0.220000 1.569243
v -0.380091 0.220000 1.169800
v -0.722976 0.220000 0.995091
v -0.969846 0.335000 1.334878
v -0.509878 0.335000 1.569243
v -0.509878 0.220000 1.569243
v -0.969846 0.220000 1.334878
v -0.380091 0.335000 1.169800
v -0.722976 0.335000 0.995091
v -0.722976 0.220000 0.995091
v -0.380091 0.220000 1.169800
v -0.969846 0.335000 1.334878
v -1.334878 0.335000 0.969846
v -0.995091 0.335000 0.722976
v -0.722976 0.335000 0.995091
v -1.334878 0.220000 0.969846
v -0.969846 0.220000 1.334878
v -0.722976 0.220000 0.995091
v -0.995091 0.220000 0.722976
v -1.334878 0.335000 0.969846
v -0.969846 0.335000 1.334878
v -0.969846 0.220000 1.334878
v -1.334878 0.220000 0.969846
v -0.722976 0.335000 0.995091
v -0.995091 0.335000 0.722976
v -0.995091 0.220000 0.722976
v -0.722976 0.220000 0.995091
v -1.334878 0.335000 0.969846
v -1.569243 0.335000 0.509878
v -1.169800 0.335000 0.380091
v -0.995091 0.335000 0.722976
v -1.569243 0.220000 0.509878
v -1.334878 0.220000 0.969846
v -0.995091 0.220000 0.722976
v -1.169800 0.220000 0.380091
v -1.569243 0.335000 0.509878
v -1.334878 0.335000 0.969846
v -1.334878 0.220000 0.969846
v -1.569243 0.220000 0.509878
v -0.995091 0.335000 0.722976
v -1.169800 0.335000 0.380091
v -1.169800 0.220000 0.380091
v -0.995091 0.220000 0.722976
v -1.569243 0.335000 0.509878
v -1.650000 0.335000 0.000000
v -1.230000 0.335000 0.000000
v -1.169800 0.335000 0.380091
v -1.650000 0.220000 0.000000
v -1.569243 0.220000 0.509878
v -1.169800 0.220000 0.380091
v -1.230000 0.220000 0.000000
v -1.650000 0.335000 0.000000
v -1.569243 0.335000 0.509878
v -1.569243 0.220000 0.509878
v -1.650000 0.220000 0.000000
v -1.169800 0.335000 0.380091
v -1.230000 0.335000 0.000000
v -1.230000 0.220000 0.000000
v -1.169800 0.220000 0.380091
v -1.650000 0.335000 0.000000
v -1.569243 0.335000 -0.509878
v -1.169800 0.335000 -0.380091
v -1.230000 0.335000 0.000000
v -1.569243 0.220000 -0.509878
v -1.650000 0.220000 0.000000
v -1.230000 0.220000 0.000000
v -1.169800 0.220000 -0.380091
v -1.569243 0.335000 -0.509878
v -1.650000 0.335000 0.000000
v -1.650000 0.220000 0.000000
v -1.569243 0.220000 -0.509878
v -1.230000 0.335000 0.000000
v -1.169800 0.335000 -0.380091
v -1.169800 0.220000 -0.380091
v -1.230000 0.220000 0.000000
v -1.569243 0.335000 -0.509878
v -1.334878 0.335000 -0.969846
v -0.995091 0.335000 -0.722976
v -1.169800 0.335000 -0.380091
v -1.334878 0.220000 -0.969846
v -1.569243 0.220000 -0.509878
v -1.169800 0.220000 -0.380091
v -0.995091 0.220000 -0.722976
v -1.334878 0.335000 -0.969846
v -1.569243 0.335000 -0.509878
v -1.569243 0.220000 -0.509878
v -1.334878 0.220000 -0.969846
v -1.169800 0.335000 -0.380091
v -0.995091 0.335000 -0.722976
v -0.995091 0.220000 -0.722976
v -1.169800 0.220000 -0.380091
v -1.334878 0.335000 -0.969846
v -0.969846 0.335000 -1.334878
v -0.722976 0.335000 -0.995091
v -0.995091 0.335000 -0.722976
v -0.969846 0.220000 -1.334878
v -1.334878 0.220000 -0.969846
v -0.995091 0.220000 -0.722976
v -0.722976 0.220000 -0.995091
v -0.969846 0.335000 -1.334878
v -1.334878 0.335000 -0.969846
v -1.334878 0.220000 -0.969846
v -0.969846 0.220000 -1.334878
v -0.995091 0.335000 -0.722976
v -0.722976 0.335000 -0.995091
v -0.722976 0.220000 -0.995091
v -0.995091 0.220000 -0.722976
v -0.969846 0.335000 -1.334878
v -0.509878 0.335000 -1.569243
v -0.380091 0.335000 -1.169800
v -0.722976 0.335000 -0.995091
v -0.509878 0.220000 -1.569243
v -0.969846 0.220000 -1.334878
v -0.722976 0.220000 -0.995091
v -0.380091 0.220000 -1.169800
v -0.509878 0.335000 -1.569243
v -0.969846 0.335000 -1.334878
v -0.969846 0.220000 -1.334878
v -0.509878 0.220000 -1.569243
v -0.722976 0.335000 -0.995091
v -0.380091 0.335000 -1.169800
v -0.380091 0.220000 -1.169800
v -0.722976 0.220000 -0.995091
v -0.509878 0.335000 -1.569243
v -0.000000 0.335000 -1.650000
v -0.000000 0.335000 -1.230000
v -0.380091 0.335000 -1.169800
v -0.000000 0.220000 -1.650000
v -0.509878 0.220000 -1.569243
v -0.380091 0.220000 -1.169800
v -0.000000 0.220000 -1.230000
v -0.000000 0.335000 -1.650000
v -0.509878 0.335000 -1.569243
v -0.509878 0.220000 -1.569243
v -0.000000 0.220000 -1.650000
v -0.380091 0.335000 -1.169800
v -0.000000 0.335000 -1.230000
v -0.000000 0.220000 -1.230000
v -0.380091 0.220000 -1.169800
v -0.000000 0.335000 -1.650000
v 0.509878 0.335000 -1.569243
v 0.380091 0.335000 -1.169800
v -0.000000 0.335000 -1.230000
v 0.509878 0.220000 -1.569243
v -0.000000 0.220000 -1.650000
v -0.000000 0.220000 -1.230000
v 0.380091 0.220000 -1.169800
v 0.509878 0.335000 -1.569243
v -0.000000 0.335000 -1.650000
v -0.000000 0.220000 -1.650000
v 0.509878 0.220000 -1.569243
v -0.000000 0.335000 -1.230000
v 0.380091 0.335000 -1.169800
v 0.380091 0.220000 -1.169800
v -0.000000 0.220000 -1.230000
v 0.509878 0.335000 -1.569243
v 0.969846 0.335000 -1.334878
v 0.722976 0.335000 -0.995091
v 0.380091 0.335000 -1.169800
v 0.969846 0.220000 -1.334878
v 0.509878 0.220000 -1.569243
v 0.380091 0.220000 -1.169800
v 0.722976 0.220000 -0.995091
v 0.969846 0.335000 -1.334878
v 0.509878 0.335000 -1.569243
v 0.509878 0.220000 -1.569243
v 0.969846 0.220000 -1.334878
v 0.380091 0.335000 -1.169800
v 0.722976 0.335000 -0.995091
v 0.722976 0.220000 -0.995091
v 0.380091 0.220000 -1.169800
v 0.969846 0.335000 -1.334878
v 1.334878 0.335000 -0.969846
v 0.995091 0.335000 -0.722976
v 0.722976 0.335000 -0.995091
v 1.334878 0.220000 -0.969846
v 0.969846 0.220000 -1.334878
v 0.722976 0.220000 -0.995091
v 0.995091 0.220000 -0.722976
v 1.334878 0.335000 -0.969846
v 0.969846 0.335000 -1.334878
v 0.969846 0.220000 -1.334878
v 1.334878 0.220000 -0.969846
v 0.722976 0.335000 -0.995091
v 0.995091 0.335000 -0.722976
v 0.995091 0.220000 -0.722976
v 0.722976 0.220000 -0.995091
v 1.334878 0.335000 -0.969846
v 1.569243 0.335000 -0.509878
v 1.169800 0.335000 -0.380091
v 0.995091 0.335000 -0.722976
v 1.569243 0.220000 -0.509878
v 1.334878 0.220000 -0.969846
v 0.995091 0.220000 -0.722976
v 1.169800 0.220000 -0.380091
v 1.569243 0.335000 -0.509878
v 1.334878 0.335000 -0.969846
v 1.334878 0.220000 -0.969846
v 1.569243 0.220000 -0.509878
v 0.995091 0.335000 -0.722976
v 1.169800 0.335000 -0.380091
v 1.169800 0.220000 -0.380091
v 0.995091 0.220000 -0.722976
v 1.569243 0.335000 -0.509878
v 1.650000 0.335000 -0.000000
v 1.230000 0.335000 -0.000000
v 1.169800 0.335000 -0.380091
v 1.650000 0.220000 -0.000000
v 1.569243 0.220000 -0.509878
v 1.169800 0.220000 -0.380091
v 1.230000 0.220000 -0.000000
v 1.650000 0.335000 -0.000000
v 1.569243 0.335000 -0.509878
v 1.569243 0.220000 -0.509878
v 1.650000 0.220000 -0.000000
v 1.169800 0.335000 -0.380091
v 1.230000 0.335000 -0.000000
v 1.230000 0.220000 -0.000000
v 1.169800 0.220000 -0.380091
v 3.750000 0.340000 0.640000
v 3.350000 0.340000 1.600000
v 3.350000 0.340000 -0.320000
v 3.350000 0.220000 -0.320000
v 3.350000 0.220000 1.600000
v 3.750000 0.220000 0.640000
v 3.350000 0.340000 -0.320000
v 3.350000 0.340000 1.600000
v 3.350000 0.220000 1.600000
v 3.350000 0.220000 -0.320000
v 3.750000 0.340000 0.640000
v 3.350000 0.340000 -0.320000
v 4.150000 0.340000 -0.320000
v 4.150000 0.220000 -0.320000
v 3.350000 0.220000 -0.320000
v 3.750000 0.220000 0.640000
v 4.150000 0.340000 -0.320000
v 3.350000 0.340000 -0.320000
v 3.350000 0.220000 -0.320000
v 4.150000 0.220000 -0.320000
v 3.750000 0.340000 0.640000
v 4.150000 0.340000 -0.320000
v 4.150000 0.340000 1.600000
v 4.150000 0.220000 1.600000
v 4.150000 0.220000 -0.320000
v 3.750000 0.220000 0.640000
v 4.150000 0.340000 1.600000
v 4.150000 0.340000 -0.320000
v 4.150000 0.220000 -0.320000
v 4.150000 0.220000 1.600000
v 3.750000 0.340000 0.640000
v 4.150000 0.340000 1.600000
v 3.350000 0.340000 1.600000
v 3.350000 0.220000 1.600000
v 4.150000 0.220000 1.600000
v 3.750000 0.220000 0.640000
v 3.350000 0.340000 1.600000
v 4.150000 0.340000 1.600000
v 4.150000 0.220000 1.600000
v 3.350000 0.220000 1.600000
v 3.750000 0.340000 -0.746667
v 2.750000 0.340000 -0.320000
v 3.750000 0.340000 -1.600000
v 3.750000 0.220000 -1.600000
v 2.750000 0.220000 -0.320000
v 3.750000 0.220000 -0.746667
v 3.750000 0.340000 -1.600000
v 2.750000 0.340000 -0.320000
v 2.750000 0.220000 -0.320000
v 3.750000 0.220000 -1.600000
v 3.750000 0.340000 -0.746667
v 3.750000 0.340000 -1.600000
v 4.750000 0.340000 -0.320000
v 4.750000 0.220000 -0.320000
v 3.750000 0.220000 -1.600000
v 3.750000 0.220000 -0.746667
v 4.750000 0.340000 -0.320000
v 3.750000 0.340000 -1.600000
v 3.750000 0.220000 -1.600000
v 4.750000 0.220000 -0.320000
v 3.750000 0.340000 -0.746667
v 4.750000 0.340000 -0.320000
v 2.750000 0.340000 -0.320000
v 2.750000 0.220000 -0.320000
v 4.750000 0.220000 -0.320000
v 3.750000 0.220000 -0.746667
v 2.750000 0.340000 -0.320000
v 4.750000 0.340000 -0.320000
v 4.750000 0.220000 -0.320000
v 2.750000 0.220000 -0.320000
v 0.640000 0.340000 3.750000
v 1.600000 0.340000 4.150000
v -0.320000 0.340000 4.150000
v -0.320000 0.220000 4.150000
v 1.600000 0.220000 4.150000
v 0.640000 0.220000 3.750000
v -0.320000 0.340000 4.150000
v 1.600000 0.340000 4.150000
v 1.600000 0.220000 4.150000
v -0.320000 0.220000 4.150000
v 0.640000 0.340000 3.750000
v -0.320000 0.340000 4.150000
v -0.320000 0.340000 3.350000
v -0.320000 0.220000 3.350000
v -0.320000 0.220000 4.150000
v 0.640000 0.220000 3.750000
v -0.320000 0.340000 3.350000
v -0.320000 0.340000 4.150000
v -0.320000 0.220000 4.150000
v -0.320000 0.220000 3.350000
v 0.640000 0.340000 3.750000
v -0.320000 0.340000 3.350000
v 1.600000 0.340000 3.350000
v 1.600000 0.220000 3.350000
v -0.320000 0.220000 3.350000
v 0.640000 0.220000 3.750000
v 1.600000 0.340000 3.350000
v -0.320000 0.340000 3.350000
v -0.320000 0.220000 3.350000
v 1.600000 0.220000 3.350000
v 0.640000 0.340000 3.750000
v 1.600000 0.340000 3.350000
v 1.600000 0.340000 4.150000
v 1.600000 0.220000 4.150000
v 1.600000 0.220000 3.350000
v 0.640000 0.220000 3.750000
v 1.600000 0.340000 4.150000
v 1.600000 0.340000 3.350000
v 1.600000 0.220000 3.350000
v 1.600000 0.220000 4.150000
v -0.746667 0.340000 3.750000
v -0.320000 0.340000 4.750000
v -1.600000 0.340000 3.750000
v -1.600000 0.220000 3.750000
v -0.320000 0.220000 4.750000
v -0.746667 0.220000 3.750000
v -1.600000 0.340000 3.750000
v -0.320000 0.340000 4.750000
v -0.320000 0.220000 4.750000
v -1.600000 0.220000 3.750000
v -0.746667 0.340000 3.750000
v -1.600000 0.340000 3.750000
v -0.320000 0.340000 2.750000
v -0.320000 0.220000 2.750000
v -1.600000 0.220000 3.750000
v -0.746667 0.220000 3.750000
v -0.320000 0.340000 2.750000
v -1.600000 0.340000 3.750000
v -1.600000 0.220000 3.750000
v -0.320000 0.220000 2.750000
v -0.746667 0.340000 3.750000
v -0.320000 0.340000 2.750000
v -0.320000 0.340000 4.750000
v -0.320000 0.220000 4.750000
v -0.320000 0.220000 2.750000
v -0.746667 0.220000 3.750000
v -0.320000 0.340000 4.750000
v -0.320000 0.340000 2.750000
v -0.320000 0.220000 2.750000
v -0.320000 0.220000 4.750000
v -3.750000 0.340000 -0.640000
v -3.350000 0.340000 -1.600000
v -3.350000 0.340000 0.320000
v -3.350000 0.220000 0.320000
v -3.350000 0.220000 -1.600000
v -3.750000 0.220000 -0.640000
v -3.350000 0.340000 0.320000
v -3.350000 0.340000 -1.600000
v -3.350000 0.220000 -1.600000
v -3.350000 0.220000 0.320000
v -3.750000 0.340000 -0.640000
v -3.350000 0.340000 0.320000
v -4.150000 0.340000 0.320000
v -4.150000 0.220000 0.320000
v -3.350000 0.220000 0.320000
v -3.750000 0.220000 -0.640000
v -4.150000 0.340000 0.320000
v -3.350000 0.340000 0.320000
v -3.350000 0.220000 0.320000
v -4.150000 0.220000 0.320000
v -3.750000 0.340000 -0.640000
v -4.150000 0.340000 0.320000
v -4.150000 0.340000 -1.600000
v -4.150000 0.220000 -1.600000
v -4.150000 0.220000 0.320000
v -3.750000 0.220000 -0.640000
v -4.150000 0.340000 -1.600000
v -4.150000 0.340000 0.320000
v -4.150000 0.220000 0.320000
v -4.150000 0.220000 -1.600000
v -3.750000 0.340000 -0.640000
v -4.150000 0.340000 -1.600000
v -3.350000 0.340000 -1.600000
v -3.350000 0.220000 -1.600000
v -4.150000 0.220000 -1.600000
v -3.750000 0.220000 -0.640000
v -3.350000 0.340000 -1.600000
v -4.150000 0.340000 -1.600000
v -4.150000 0.220000 -1.600000
v -3.350000 0.220000 -1.600000
v -3.750000 0.340000 0.746667
v -2.750000 0.340000 0.320000
v -3.750000 0.340000 1.600000
v -3.750000 0.220000 1.600000
v -2.750000 0.220000 0.320000
v -3.750000 0.220000 0.746667
v -3.750000 0.340000 1.600000
v -2.750000 0.340000 0.320000
v -2.750000 0.220000 0.320000
v -3.750000 0.220000 1.600000
v -3.750000 0.340000 0.746667
v -3.750000 0.340000 1.600000
v -4.750000 0.340000 0.320000
v -4.750000 0.220000 0.320000
v -3.750000 0.220000 1.600000
v -3.750000 0.220000 0.746667
v -4.750000 0.340000 0.320000
v -3.750000 0.340000 1.600000
v -3.750000 0.220000 1.600000
v -4.750000 0.220000 0.320000
v -3.750000 0.340000 0.746667
v -4.750000 0.340000 0.320000
v -2.750000 0.340000 0.320000
v -2.750000 0.220000 0.320000
v -4.750000 0.220000 0.320000
v -3.750000 0.220000 0.746667
v -2.750000 0.340000 0.320000
v -4.750000 0.340000 0.320000
v -4.750000 0.220000 0.320000
v -2.750000 0.220000 0.320000
v -0.640000 0.340000 -3.750000
v -1.600000 0.340000 -4.150000
v 0.320000 0.340000 -4.150000
v 0.320000 0.220000 -4.150000
v -1.600000 0.220000 -4.150000
v -0.640000 0.220000 -3.750000
v 0.320000 0.340000 -4.150000
v -1.600000 0.340000 -4.150000
v -1.600000 0.220000 -4.150000
v 0.320000 0.220000 -4.150000
v -0.640000 0.340000 -3.750000
v 0.320000 0.340000 -4.150000
v 0.320000 0.340000 -3.350000
v 0.320000 0.220000 -3.350000
v 0.320000 0.220000 -4.150000
v -0.640000 0.220000 -3.750000
v 0.320000 0.340000 -3.350000
v 0.320000 0.340000 -4.150000
v 0.320000 0.220000 -4.150000
v 0.320000 0.220000 -3.350000
v -0.640000 0.340000 -3.750000
v 0.320000 0.340000 -3.350000
v -1.600000 0.340000 -3.350000
v -1.600000 0.220000 -3.350000
v 0.320000 0.220000 -3.350000
v -0.640000 0.220000 -3.750000
v -1.600000 0.340000 -3.350000
v 0.320000 0.340000 -3.350000
v 0.320000 0.220000 -3.350000
v -1.600000 0.220000 -3.350000
v -0.640000 0.340000 -3.750000
v -1.600000 0.340000 -3.350000
v -1.600000 0.340000 -4.150000
v -1.600000 0.220000 -4.150000
v -1.600000 0.220000 -3.350000
v -0.640000 0.220000 -3.750000
v -1.600000 0.340000 -4.150000
v -1.600000 0.340000 -3.350000
v -1.600000 0.220000 -3.350000
v -1.600000 0.220000 -4.150000
v 0.746667 0.340000 -3.750000
v 0.320000 0.340000 -4.750000
v 1.600000 0.340000 -3.750000
v 1.600000 0.220000 -3.750000
v 0.320000 0.220000 -4.750000
v 0.746667 0.220000 -3.750000
v 1.600000 0.340000 -3.750000
v 0.320000 0.340000 -4.750000
v 0.320000 0.220000 -4.750000
v 1.600000 0.220000 -3.750000
v 0.746667 0.340000 -3.750000
v 1.600000 0.340000 -3.750000
v 0.320000 0.340000 -2.750000
v 0.320000 0.220000 -2.750000
v 1.600000 0.220000 -3.750000
v 0.746667 0.220000 -3.750000
v 0.320000 0.340000 -2.750000
v 1.600000 0.340000 -3.750000
v 1.600000 0.220000 -3.750000
v 0.320000 0.220000 -2.750000
v 0.746667 0.340000 -3.750000
v 0.320000 0.340000 -2.750000
v 0.320000 0.340000 -4.750000
v 0.320000 0.220000 -4.750000
v 0.320000 0.220000 -2.750000
v 0.746667 0.220000 -3.750000
v 0.320000 0.340000 -4.750000
v 0.320000 0.340000 -2.750000
v 0.320000 0.220000 -2.750000
v 0.320000 0.220000 -4.750000
vt -0.000000 0.000000
vt 0.496000 0.000000
vt 0.350725 0.350725
vt 0.350725 0.350725
vt 0.496000 0.000000
vt -0.000000 0.000000
vt 0.350725 0.000000
vt 0.000000 0.000000
vt 0.000000 -0.096000
vt 0.350725 -0.096000
vt -0.000000 0.000000
vt 0.350725 0.350725
vt 0.000000 0.496000
vt 0.000000 0.496000
vt 0.350725 0.350725
vt -0.000000 0.000000
vt 0.000000 0.000000
vt 0.350725 0.000000
vt 0.350725 -0.096000
vt 0.000000 -0.096000
vt -0.000000 0.000000
vt 0.000000 0.496000
vt -0.350725 0.350725
vt -0.350725 0.350725
vt 0.000000 0.496000
vt -0.000000 0.000000
vt -0.350725 0.000000
vt 0.000000 0.000000
vt 0.000000 -0.096000
vt -0.350725 -0.096000
vt -0.000000 0.000000
vt -0.350725 0.350725
vt -0.496000 0.000000
vt -0.496000 0.000000
vt -0.350725 0.350725
vt -0.000000 0.000000
vt 0.000000 0.000000
vt 0.350725 0.000000
vt 0.350725 -0.096000
vt 0.000000 -0.096000
vt -0.000000 0.000000
vt -0.496000 0.000000
vt -0.350725 -0.350725
vt -0.350725 -0.350725
vt -0.496000 0.000000
vt -0.000000 0.000000
vt -0.350725 0.000000
vt 0.000000 0.000000
vt 0.000000 -0.096000
vt -0.350725 -0.096000
vt -0.000000 0.000000
vt -0.350725 -0.350725
vt -0.000000 -0.496000
vt -0.000000 -0.496000
vt -0.350725 -0.350725
vt -0.000000 0.000000
vt -0.000000 0.000000
vt -0.350725 0.000000
vt -0.350725 -0.096000
vt -0.000000 -0.096000
vt -0.000000 0.000000
vt -0.000000 -0.496000
vt 0.350725 -0.350725
vt 0.350725 -0.350725
vt -0.000000 -0.496000
vt -0.000000 0.000000
vt 0.350725 0.000000
vt -0.000000 0.000000
vt -0.000000 -0.096000
vt 0.350725 -0.096000
vt -0.000000 0.000000
vt 0.350725 -0.350725
vt 0.496000 0.000000
vt 0.496000 0.000000
vt 0.350725 -0.350725
vt -0.000000 0.000000
vt 0.000000 0.000000
vt -0.350725 0.000000
vt -0.350725 -0.096000
vt 0.000000 -0.096000
vt -0.000000 -0.000000
vt 0.436000 0.000000
vt 0.377587 0.218000
vt 0.377587 0.218000
vt 0.436000 0.000000
vt -0.000000 -0.000000
vt 0.218000 0.017600
vt 0.000000 0.017600
vt 0.000000 0.000000
vt 0.218000 0.000000
vt -0.000000 -0.000000
vt 0.377587 0.218000
vt 0.218000 0.377587
vt 0.218000 0.377587
vt 0.377587 0.218000
vt -0.000000 -0.000000
vt 0.377587 0.017600
vt 0.218000 0.017600
vt 0.218000 0.000000
vt 0.377587 0.000000
vt -0.000000 -0.000000
vt 0.218000 0.377587
vt 0.000000 0.436000
vt 0.000000 0.436000
vt 0.218000 0.377587
vt -0.000000 -0.000000
vt 0.000000 0.017600
vt 0.218000 0.017600
vt 0.218000 0.000000
vt 0.000000 0.000000
vt -0.000000 -0.000000
vt 0.000000 0.436000
vt -0.218000 0.377587
vt -0.218000 0.377587
vt 0.000000 0.436000
vt -0.000000 -0.000000
vt -0.218000 0.017600
vt 0.000000 0.017600
vt 0.000000 0.000000
vt -0.218000 0.000000
vt -0.000000 -0.000000
vt -0.218000 0.377587
vt -0.377587 0.218000
vt -0.377587 0.218000
vt -0.218000 0.377587
vt -0.000000 -0.000000
vt -0.377587 0.017600
vt -0.218000 0.017600
vt -0.218000 0.000000
vt -0.377587 0.000000
vt -0.000000 -0.000000
vt -0.377587 0.218000
vt -0.436000 0.000000
vt -0.436000 0.000000
vt -0.377587 0.218000
vt -0.000000 -0.000000
vt 0.000000 0.017600
vt 0.218000 0.017600
vt 0.218000 0.000000
vt 0.000000 0.000000
vt -0.000000 -0.000000
vt -0.436000 0.000000
vt -0.377587 -0.218000
vt -0.377587 -0.218000
vt -0.436000 0.000000
vt -0.000000 -0.000000
vt -0.218000 0.017600
vt 0.000000 0.017600
vt 0.000000 0.000000
vt -0.218000 0.000000
vt -0.000000 -0.000000
vt -0.377587 -0.218000
vt -0.218000 -0.377587
vt -0.218000 -0.377587
vt -0.377587 -0.218000
vt -0.000000 -0.000000
vt -0.377587 0.017600
vt -0.218000 0.017600
vt -0.218000 0.000000
vt -0.377587 0.000000
vt -0.000000 -0.000000
vt -0.218000 -0.377587
vt -0.000000 -0.436000
vt -0.000000 -0.436000
vt -0.218000 -0.377587
vt -0.000000 -0.000000
vt -0.000000 0.017600
vt -0.218000 0.017600
vt -0.218000 0.000000
vt -0.000000 0.000000
vt -0.000000 -0.000000
vt -0.000000 -0.436000
vt 0.218000 -0.377587
vt 0.218000 -0.377587
vt -0.000000 -0.436000
vt -0.000000 -0.000000
vt 0.218000 0.017600
vt -0.000000 0.017600
vt -0.000000 0.000000
vt 0.218000 0.000000
vt -0.000000 -0.000000
vt 0.218000 -0.377587
vt 0.377587 -0.218000
vt 0.377587 -0.218000
vt 0.218000 -0.377587
vt -0.000000 -0.000000
vt -0.218000 0.017600
vt -0.377587 0.017600
vt -0.377587 0.000000
vt -0.218000 0.000000
vt -0.000000 -0.000000
vt 0.377587 -0.218000
vt 0.436000 0.000000
vt 0.436000 0.000000
vt 0.377587 -0.218000
vt -0.000000 -0.000000
vt 0.000000 0.017600
vt -0.218000 0.017600
vt -0.218000 0.000000
vt 0.000000 0.000000
vt 0.132000 0.000000
vt 0.125539 0.040790
vt 0.093584 0.030407
vt 0.098400 0.000000
vt 0.125539 0.040790
vt 0.132000 0.000000
vt 0.098400 0.000000
vt 0.093584 0.030407
vt 0.040790 0.026800
vt 0.000000 0.026800
vt 0.000000 0.017600
vt 0.040790 0.017600
vt 0.000000 0.026800
vt 0.030407 0.026800
vt 0.030407 0.017600
vt 0.000000 0.017600
vt 0.125539 0.040790
vt 0.106790 0.077588
vt 0.079607 0.057838
vt 0.093584 0.030407
vt 0.106790 0.077588
vt 0.125539 0.040790
vt 0.093584 0.030407
vt 0.079607 0.057838
vt 0.077588 0.026800
vt 0.040790 0.026800
vt 0.040790 0.017600
vt 0.077588 0.017600
vt 0.030407 0.026800
vt 0.057838 0.026800
vt 0.057838 0.017600
vt 0.030407 0.017600
vt 0.106790 0.077588
vt 0.077588 0.106790
vt 0.057838 0.079607
vt 0.079607 0.057838
vt 0.077588 0.106790
vt 0.106790 0.077588
vt 0.079607 0.057838
vt 0.057838 0.079607
vt 0.106790 0.026800
vt 0.077588 0.026800
vt 0.077588 0.017600
vt 0.106790 0.017600
vt 0.057838 0.026800
vt 0.079607 0.026800
vt 0.079607 0.017600
vt 0.057838 0.017600
vt 0.077588 0.106790
vt 0.040790 0.125539
vt 0.030407 0.093584
vt 0.057838 0.079607
vt 0.040790 0.125539
vt 0.077588 0.106790
vt 0.057838 0.079607
vt 0.030407 0.093584
vt 0.040790 0.026800
vt 0.077588 0.026800
vt 0.077588 0.017600
vt 0.040790 0.017600
vt 0.057838 0.026800
vt 0.030407 0.026800
vt 0.030407 0.017600
vt 0.057838 0.017600
vt 0.040790 0.125539
vt 0.000000 0.132000
vt 0.000000 0.098400
vt 0.030407 0.093584
vt 0.000000 0.132000
vt 0.040790 0.125539
vt 0.030407 0.093584
vt 0.000000 0.098400
vt 0.000000 0.026800
vt 0.040790 0.026800
vt 0.040790 0.017600
vt 0.000000 0.017600
vt 0.030407 0.026800
vt 0.000000 0.026800
vt 0.000000 0.017600
vt 0.030407 0.017600
vt 0.000000 0.132000
vt -0.040790 0.125539
vt -0.030407 0.093584
vt 0.000000 0.098400
vt -0.040790 0.125539
vt 0.000000 0.132000
vt 0.000000 0.098400
vt -0.030407 0.093584
vt -0.040790 0.026800
vt 0.000000 0.026800
vt 0.000000 0.017600
vt -0.040790 0.017600
vt 0.000000 0.026800
vt -0.030407 0.026800
vt -0.030407 0.017600
vt 0.000000 0.017600
vt -0.040790 0.125539
vt -0.077588 0.106790
vt -0.057838 0.079607
vt -0.030407 0.093584
vt -0.077588 0.106790
vt -0.040790 0.125539
vt -0.030407 0.093584
vt -0.057838 0.079607
vt -0.077588 0.026800
vt -0.040790 0.026800
vt -0.040790 0.017600
vt -0.077588 0.017600
vt -0.030407 0.026800
vt -0.057838 0.026800
vt -0.057838 0.017600
vt -0.030407 0.017600
vt -0.077588 0.106790
vt -0.106790 0.077588
vt -0.079607 0.057838
vt -0.057838 0.079607
vt -0.106790 0.077588
vt -0.077588 0.106790
vt -0.057838 0.079607
vt -0.079607 0.057838
vt -0.106790 0.026800
vt -0.077588 0.026800
vt -0.077588 0.017600
vt -0.106790 0.017600
vt -0.057838 0.026800
vt -0.079607 0.026800
vt -0.079607 0.017600
vt -0.057838 0.017600
vt -0.106790 0.077588
vt -0.125539 0.040790
vt -0.093584 0.030407
vt -0.079607 0.057838
vt -0.125539 0.040790
vt -0.106790 0.077588
vt -0.079607 0.057838
vt -0.093584 0.030407
vt 0.040790 0.026800
vt 0.077588 0.026800
vt 0.077588 0.017600
vt 0.040790 0.017600
vt 0.057838 0.026800
vt 0.030407 0.026800
vt 0.030407 0.017600
vt 0.057838 0.017600
vt -0.125539 0.040790
vt -0.132000 0.000000
vt -0.098400 0.000000
vt -0.093584 0.030407
vt -0.132000 0.000000
vt -0.125539 0.040790
vt -0.093584 0.030407
vt -0.098400 0.000000
vt 0.000000 0.026800
vt 0.040790 0.026800
vt 0.040790 0.017600
vt 0.000000 0.017600
vt 0.030407 0.026800
vt 0.000000 0.026800
vt 0.000000 0.017600
vt 0.030407 0.017600
vt -0.132000 0.000000
vt -0.125539 -0.040790
vt -0.093584 -0.030407
vt -0.098400 0.000000
vt -0.125539 -0.040790
vt -0.132000 0.000000
vt -0.098400 0.000000
vt -0.093584 -0.030407
vt -0.040790 0.026800
vt 0.000000 0.026800
vt 0.000000 0.017600
vt -0.040790 0.017600
vt 0.000000 0.026800
vt -0.030407 0.026800
vt -0.030407 0.017600
vt 0.000000 0.017600
vt -0.125539 -0.040790
vt -0.106790 -0.077588
vt -0.079607 -0.057838
vt -0.093584 -0.030407
vt -0.106790 -0.077588
vt -0.125539 -0.040790
vt -0.093584 -0.030407
vt -0.079607 -0.057838
vt -0.077588 0.026800
vt -0.040790 0.026800
vt -0.040790 0.017600
vt -0.077588 0.017600
vt -0.030407 0.026800
vt -0.057838 0.026800
vt -0.057838 0.017600
vt -0.030407 0.017600
vt -0.106790 -0.077588
vt -0.077588 -0.106790
vt -0.057838 -0.079607
vt -0.079607 -0.057838
vt -0.077588 -0.106790
vt -0.106790 -0.077588
vt -0.079607 -0.057838
vt -0.057838 -0.079607
vt -0.106790 0.026800
vt -0.077588 0.026800
vt -0.077588 0.017600
vt -0.106790 0.017600
vt -0.057838 0.026800
vt -0.079607 0.026800
vt -0.079607 0.017600
vt -0.057838 0.017600
vt -0.077588 -0.106790
vt -0.040790 -0.125539
vt -0.030407 -0.093584
vt -0.057838 -0.079607
vt -0.040790 -0.125539
vt -0.077588 -0.106790
vt -0.057838 -0.079607
vt -0.030407 -0.093584
vt -0.040790 0.026800
vt -0.077588 0.026800
vt -0.077588 0.017600
vt -0.040790 0.017600
vt -0.057838 0.026800
vt -0.030407 0.026800
vt -0.030407 0.017600
vt -0.057838 0.017600
vt -0.040790 -0.125539
vt -0.000000 -0.132000
vt -0.000000 -0.098400
vt -0.030407 -0.093584
vt -0.000000 -0.132000
vt -0.040790 -0.125539
vt -0.030407 -0.093584
vt -0.000000 -0.098400
vt -0.000000 0.026800
vt -0.040790 0.026800
vt -0.040790 0.017600
vt -0.000000 0.017600
vt -0.030407 0.026800
vt -0.000000 0.026800
vt -0.000000 0.017600
vt -0.030407 0.017600
vt -0.000000 -0.132000
vt 0.040790 -0.125539
vt 0.030407 -0.093584
vt -0.000000 -0.098400
vt 0.040790 -0.125539
vt -0.000000 -0.132000
vt -0.000000 -0.098400
vt 0.030407 -0.093584
vt 0.040790 0.026800
vt -0.000000 0.026800
vt -0.000000 0.017600
vt 0.040790 0.017600
vt -0.000000 0.026800
vt 0.030407 0.026800
vt 0.030407 0.017600
vt -0.000000 0.017600
vt 0.040790 -0.125539
vt 0.077588 -0.106790
vt 0.057838 -0.079607
vt 0.030407 -0.093584
vt 0.077588 -0.106790
vt 0.040790 -0.125539
vt 0.030407 -0.093584
vt 0.057838 -0.079607
vt 0.077588 0.026800
vt 0.040790 0.026800
vt 0.040790 0.017600
vt 0.077588 0.017600
vt 0.030407 0.026800
vt 0.057838 0.026800
vt 0.057838 0.017600
vt 0.030407 0.017600
vt 0.077588 -0.106790
vt 0.106790 -0.077588
vt 0.079607 -0.057838
vt 0.057838 -0.079607
vt 0.106790 -0.077588
vt 0.077588 -0.106790
vt 0.057838 -0.079607
vt 0.079607 -0.057838
vt 0.106790 0.026800
vt 0.077588 0.026800
vt 0.077588 0.017600
vt 0.106790 0.017600
vt 0.057838 0.026800
vt 0.079607 0.026800
vt 0.079607 0.017600
vt 0.057838 0.017600
vt 0.106790 -0.077588
vt 0.125539 -0.040790
vt 0.093584 -0.030407
vt 0.079607 -0.057838
vt 0.125539 -0.040790
vt 0.106790 -0.077588
vt 0.079607 -0.057838
vt 0.093584 -0.030407
vt -0.040790 0.026800
vt -0.077588 0.026800
vt -0.077588 0.017600
vt -0.040790 0.017600
vt -0.057838 0.026800
vt -0.030407 0.026800
vt -0.030407 0.017600
vt -0.057838 0.017600
vt 0.125539 -0.040790
vt 0.132000 -0.000000
vt 0.098400 -0.000000
vt 0.093584 -0.030407
vt 0.132000 -0.000000
vt 0.125539 -0.040790
vt 0.093584 -0.030407
vt 0.098400 -0.000000
vt -0.000000 0.026800
vt -0.040790 0.026800
vt -0.040790 0.017600
vt -0.000000 0.017600
vt -0.030407 0.026800
vt -0.000000 0.026800
vt -0.000000 0.017600
vt -0.030407 0.017600
vt 0.300000 0.051200
vt 0.268000 0.128000
vt 0.268000 -0.025600
vt 0.268000 -0.025600
vt 0.268000 0.128000
vt 0.300000 0.051200
vt -0.025600 0.027200
vt 0.128000 0.027200
vt 0.128000 0.017600
vt -0.025600 0.017600
vt 0.300000 0.051200
vt 0.268000 -0.025600
vt 0.332000 -0.025600
vt 0.332000 -0.025600
vt 0.268000 -0.025600
vt 0.300000 0.051200
vt 0.332000 0.027200
vt 0.268000 0.027200
vt 0.268000 0.017600
vt 0.332000 0.017600
vt 0.300000 0.051200
vt 0.332000 -0.025600
vt 0.332000 0.128000
vt 0.332000 0.128000
vt 0.332000 -0.025600
vt 0.300000 0.051200
vt 0.128000 0.027200
vt -0.025600 0.027200
vt -0.025600 0.017600
vt 0.128000 0.017600
vt 0.300000 0.051200
vt 0.332000 0.128000
vt 0.268000 0.128000
vt 0.268000 0.128000
vt 0.332000 0.128000
vt 0.300000 0.051200
vt 0.268000 0.027200
vt 0.332000 0.027200
vt 0.332000 0.017600
vt 0.268000 0.017600
vt 0.300000 -0.059733
vt 0.220000 -0.025600
vt 0.300000 -0.128000
vt 0.300000 -0.128000
vt 0.220000 -0.025600
vt 0.300000 -0.059733
vt -0.128000 0.027200
vt -0.025600 0.027200
vt -0.025600 0.017600
vt -0.128000 0.017600
vt 0.300000 -0.059733
vt 0.300000 -0.128000
vt 0.380000 -0.025600
vt 0.380000 -0.025600
vt 0.300000 -0.128000
vt 0.300000 -0.059733
vt -0.025600 0.027200
vt -0.128000 0.027200
vt -0.128000 0.017600
vt -0.025600 0.017600
vt 0.300000 -0.059733
vt 0.380000 -0.025600
vt 0.220000 -0.025600
vt 0.220000 -0.025600
vt 0.380000 -0.025600
vt 0.300000 -0.059733
vt 0.220000 0.027200
vt 0.380000 0.027200
vt 0.380000 0.017600
vt 0.220000 0.017600
vt 0.051200 0.300000
vt 0.128000 0.332000
vt -0.025600 0.332000
vt -0.025600 0.332000
vt 0.128000 0.332000
vt 0.051200 0.300000
vt -0.025600 0.027200
vt 0.128000 0.027200
vt 0.128000 0.017600
vt -0.025600 0.017600
vt 0.051200 0.300000
vt -0.025600 0.332000
vt -0.025600 0.268000
vt -0.025600 0.268000
vt -0.025600 0.332000
vt 0.051200 0.300000
vt 0.268000 0.027200
vt 0.332000 0.027200
vt 0.332000 0.017600
vt 0.268000 0.017600
vt 0.051200 0.300000
vt -0.025600 0.268000
vt 0.128000 0.268000
vt 0.128000 0.268000
vt -0.025600 0.268000
vt 0.051200 0.300000
vt 0.128000 0.027200
vt -0.025600 0.027200
vt -0.025600 0.017600
vt 0.128000 0.017600
vt 0.051200 0.300000
vt 0.128000 0.268000
vt 0.128000 0.332000
vt 0.128000 0.332000
vt 0.128000 0.268000
vt 0.051200 0.300000
vt 0.332000 0.027200
vt 0.268000 0.027200
vt 0.268000 0.017600
vt 0.332000 0.017600
vt -0.059733 0.300000
vt -0.025600 0.380000
vt -0.128000 0.300000
vt -0.128000 0.300000
vt -0.025600 0.380000
vt -0.059733 0.300000
vt -0.128000 0.027200
vt -0.025600 0.027200
vt -0.025600 0.017600
vt -0.128000 0.017600
vt -0.059733 0.300000
vt -0.128000 0.300000
vt -0.025600 0.220000
vt -0.025600 0.220000
vt -0.128000 0.300000
vt -0.059733 0.300000
vt -0.025600 0.027200
vt -0.128000 0.027200
vt -0.128000 0.017600
vt -0.025600 0.017600
vt -0.059733 0.300000
vt -0.025600 0.220000
vt -0.025600 0.380000
vt -0.025600 0.380000
vt -0.025600 0.220000
vt -0.059733 0.300000
vt 0.380000 0.027200
vt 0.220000 0.027200
vt 0.220000 0.017600
vt 0.380000 0.017600
vt -0.300000 -0.051200
vt -0.268000 -0.128000
vt -0.268000 0.025600
vt -0.268000 0.025600
vt -0.268000 -0.128000
vt -0.300000 -0.051200
vt 0.025600 0.027200
vt -0.128000 0.027200
vt -0.128000 0.017600
vt 0.025600 0.017600
vt -0.300000 -0.051200
vt -0.268000 0.025600
vt -0.332000 0.025600
vt -0.332000 0.025600
vt -0.268000 0.025600
vt -0.300000 -0.051200
vt -0.332000 0.027200
vt -0.268000 0.027200
vt -0.268000 0.017600
vt -0.332000 0.017600
vt -0.300000 -0.051200
vt -0.332000 0.025600
vt -0.332000 -0.128000
vt -0.332000 -0.128000
vt -0.332000 0.025600
vt -0.300000 -0.051200
vt -0.128000 0.027200
vt 0.025600 0.027200
vt 0.025600 0.017600
vt -0.128000 0.017600
vt -0.300000 -0.051200
vt -0.332000 -0.128000
vt -0.268000 -0.128000
vt -0.268000 -0.128000
vt -0.332000 -0.128000
vt -0.300000 -0.051200
vt -0.268000 0.027200
vt -0.332000 0.027200
vt -0.332000 0.017600
vt -0.268000 0.017600
vt -0.300000 0.059733
vt -0.220000 0.025600
vt -0.300000 0.128000
vt -0.300000 0.128000
vt -0.220000 0.025600
vt -0.300000 0.059733
vt 0.128000 0.027200
vt 0.025600 0.027200
vt 0.025600 0.017600
vt 0.128000 0.017600
vt -0.300000 0.059733
vt -0.300000 0.128000
vt -0.380000 0.025600
vt -0.380000 0.025600
vt -0.300000 0.128000
vt -0.300000 0.059733
vt 0.025600 0.027200
vt 0.128000 0.027200
vt 0.128000 0.017600
vt 0.025600 0.017600
vt -0.300000 0.059733
vt -0.380000 0.025600
vt -0.220000 0.025600
vt -0.220000 0.025600
vt -0.380000 0.025600
vt -0.300000 0.059733
vt -0.220000 0.027200
vt -0.380000 0.027200
vt -0.380000 0.017600
vt -0.220000 0.017600
vt -0.051200 -0.300000
vt -0.128000 -0.332000
vt 0.025600 -0.332000
vt 0.025600 -0.332000
vt -0.128000 -0.332000
vt -0.051200 -0.300000
vt 0.025600 0.027200
vt -0.128000 0.027200
vt -0.128000 0.017600
vt 0.025600 0.017600
vt -0.051200 -0.300000
vt 0.025600 -0.332000
vt 0.025600 -0.268000
vt 0.025600 -0.268000
vt 0.025600 -0.332000
vt -0.051200 -0.300000
vt -0.268000 0.027200
vt -0.332000 0.027200
vt -0.332000 0.017600
vt -0.268000 0.017600
vt -0.051200 -0.300000
vt 0.025600 -0.268000
vt -0.128000 -0.268000
vt -0.128000 -0.268000
vt 0.025600 -0.268000
vt -0.051200 -0.300000
vt -0.128000 0.027200
vt 0.025600 0.027200
vt 0.025600 0.017600
vt -0.128000 0.017600
vt -0.051200 -0.300000
vt -0.128000 -0.268000
vt -0.128000 -0.332000
vt -0.128000 -0.332000
vt -0.128000 -0.268000
vt -0.051200 -0.300000
vt -0.332000 0.027200
vt -0.268000 0.027200
vt -0.268000 0.017600
vt -0.332000 0.017600
vt 0.059733 -0.300000
vt 0.025600 -0.380000
vt 0.128000 -0.300000
vt 0.128000 -0.300000
vt 0.025600 -0.380000
vt 0.059733 -0.300000
vt 0.128000 0.027200
vt 0.025600 0.027200
vt 0.025600 0.017600
vt 0.128000 0.017600
vt 0.059733 -0.300000
vt 0.128000 -0.300000
vt 0.025600 -0.220000
vt 0.025600 -0.220000
vt 0.128000 -0.300000
vt 0.059733 -0.300000
vt 0.025600 0.027200
vt 0.128000 0.027200
vt 0.128000 0.017600
vt 0.025600 0.017600
vt 0.059733 -0.300000
vt 0.025600 -0.220000
vt 0.025600 -0.380000
vt 0.025600 -0.380000
vt 0.025600 -0.220000
vt 0.059733 -0.300000
vt -0.380000 0.027200
vt -0.220000 0.027200
vt -0.220000 0.017600
vt -0.380000 0.017600
vn 0.000000 1.000000 0.000000
vn 0.000000 -1.000000 0.000000
vn -0.923880 0.000000 -0.382683
vn 0.000000 1.000000 0.000000
vn 0.000000 -1.000000 0.000000
vn -0.382683 0.000000 -0.923880
vn 0.000000 1.000000 0.000000
vn 0.000000 -1.000000 0.000000
vn 0.382683 0.000000 -0.923880
vn 0.000000 1.000000 0.000000
vn 0.000000 -1.000000 0.000000
vn 0.923880 0.000000 -0.382683
vn 0.000000 1.000000 0.000000
vn 0.000000 -1.000000 0.000000
vn 0.923880 0.000000 0.382683
vn 0.000000 1.000000 0.000000
vn 0.000000 -1.000000 0.000000
vn 0.382683 0.000000 0.923880
vn 0.000000 1.000000 0.000000
vn 0.000000 -1.000000 0.000000
vn -0.382683 0.000000 0.923880
vn 0.000000 1.000000 0.000000
vn 0.000000 -1.000000 0.000000
vn -0.923880 0.000000 0.382683
vn 0.000000 1.000000 0.000000
vn 0.000000 -1.000000 0.000000
vn -0.965926 0.000000 -0.258819
vn 0.000000 1.000000 0.000000
vn 0.000000 -1.000000 0.000000
vn -0.707107 0.000000 -0.707107
vn 0.000000 1.000000 0.000000
vn 0.000000 -1.000000 0.000000
vn -0.258819 0.000000 -0.965926
vn 0.000000 1.000000 0.000000
vn 0.000000 -1.000000 0.000000
vn 0.258819 0.000000 -0.965926
vn 0.000000 1.000000 0.000000
vn 0.000000 -1.000000 0.000000
vn 0.707107 0.000000 -0.707107
vn 0.000000 1.000000 0.000000
vn 0.000000 -1.000000 0.000000
vn 0.965926 0.000000 -0.258819
vn 0.000000 1.000000 0.000000
vn 0.000000 -1.000000 0.000000
vn 0.965926 0.000000 0.258819
vn 0.000000 1.000000 0.000000
vn 0.000000 -1.000000 0.000000
vn 0.707107 0.000000 0.707107
vn 0.000000 1.000000 0.000000
vn 0.000000 -1.000000 0.000000
vn 0.258819 0.000000 0.965926
vn 0.000000 1.000000 0.000000
vn 0.000000 -1.000000 0.000000
vn -0.258819 0.000000 0.965926
vn 0.000000 1.000000 0.000000
vn 0.000000 -1.000000 0.000000
vn -0.707107 0.000000 0.707107
vn 0.000000 1.000000 0.000000
vn 0.000000 -1.000000 0.000000
vn -0.965926 0.000000 0.258819
vn 0.000000 1.000000 0.000000
vn 0.000000 -1.000000 0.000000
vn -0.987688 0.000000 -0.156434
vn 0.987688 0.000000 0.156434
vn 0.000000 1.000000 0.000000
vn 0.000000 -1.000000 0.000000
vn -0.891007 0.000000 -0.453990
vn 0.891007 0.000000 0.453990
vn 0.000000 1.000000 0.000000
vn 0.000000 -1.000000 0.000000
vn -0.707107 0.000000 -0.707107
vn 0.707107 0.000000 0.707107
vn 0.000000 1.000000 0.000000
vn 0.000000 -1.000000 0.000000
vn -0.453990 0.000000 -0.891007
vn 0.453990 0.000000 0.891007
vn 0.000000 1.000000 0.000000
vn 0.000000 -1.000000 0.000000
vn -0.156434 0.000000 -0.987688
vn 0.156434 0.000000 0.987688
vn 0.000000 1.000000 0.000000
vn 0.000000 -1.000000 0.000000
vn 0.156434 0.000000 -0.987688
vn -0.156434 0.000000 0.987688
vn 0.000000 1.000000 0.000000
vn 0.000000 -1.000000 0.000000
vn 0.453990 0.000000 -0.891007
vn -0.453990 0.000000 0.891007
vn 0.000000 1.000000 0.000000
vn 0.000000 -1.000000 0.000000
vn 0.707107 0.000000 -0.707107
vn -0.707107 0.000000 0.707107
vn 0.000000 1.000000 0.000000
vn 0.000000 -1.000000 0.000000
vn 0.891007 0.000000 -0.453990
vn -0.891007 0.000000 0.453990
vn 0.000000 1.000000 0.000000
vn 0.000000 -1.000000 0.000000
vn 0.987688 0.000000 -0.156434
vn -0.987688 0.000000 0.156434
vn 0.000000 1.000000 0.000000
vn 0.000000 -1.000000 0.000000
vn 0.987688 0.000000 0.156434
vn -0.987688 0.000000 -0.156434
vn 0.000000 1.000000 0.000000
vn 0.000000 -1.000000 0.000000
vn 0.891007 0.000000 0.453990
vn -0.891007 0.000000 -0.453990
vn 0.000000 1.000000 0.000000
vn 0.000000 -1.000000 0.000000
vn 0.707107 0.000000 0.707107
vn -0.707107 0.000000 -0.707107
vn 0.000000 1.000000 0.000000
vn 0.000000 -1.000000 0.000000
vn 0.453990 0.000000 0.891007
vn -0.453990 0.000000 -0.891007
vn 0.000000 1.000000 0.000000
vn 0.000000 -1.000000 0.000000
vn 0.156434 0.000000 0.987688
vn -0.156434 0.000000 -0.987688
vn 0.000000 1.000000 0.000000
vn 0.000000 -1.000000 0.000000
vn -0.156434 0.000000 0.987688
vn 0.156434 0.000000 -0.987688
vn 0.000000 1.000000 0.000000
vn 0.000000 -1.000000 0.000000
vn -0.453990 0.000000 0.891007
vn 0.453990 0.000000 -0.891007
vn 0.000000 1.000000 0.000000
vn 0.000000 -1.000000 0.000000
vn -0.707107 0.000000 0.707107
vn 0.707107 0.000000 -0.707107
vn 0.000000 1.000000 0.000000
vn 0.000000 -1.000000 0.000000
vn -0.891007 0.000000 0.453990
vn 0.891007 0.000000 -0.453990
vn 0.000000 1.000000 0.000000
vn 0.000000 -1.000000 0.000000
vn -0.987688 0.000000 0.156434
vn 0.987688 0.000000 -0.156434
vn 0.000000 1.000000 0.000000
vn 0.000000 -1.000000 0.000000
vn 1.000000 0.000000 -0.000000
vn 0.000000 1.000000 0.000000
vn 0.000000 -1.000000 0.000000
vn 0.000000 0.000000 1.000000
vn 0.000000 1.000000 0.000000
vn 0.000000 -1.000000 0.000000
vn -1.000000 0.000000 -0.000000
vn 0.000000 1.000000 0.000000
vn 0.000000 -1.000000 0.000000
vn 0.000000 0.000000 -1.000000
vn 0.000000 1.000000 0.000000
vn 0.000000 -1.000000 0.000000
vn 0.788024 0.000000 0.615644
vn 0.000000 1.000000 0.000000
vn 0.000000 -1.000000 0.000000
vn -0.788024 0.000000 0.615644
vn 0.000000 1.000000 0.000000
vn 0.000000 -1.000000 0.000000
vn 0.000000 0.000000 -1.000000
vn 0.000000 1.000000 0.000000
vn 0.000000 -1.000000 0.000000
vn 0.000000 0.000000 -1.000000
vn 0.000000 1.000000 0.000000
vn 0.000000 -1.000000 0.000000
vn 1.000000 0.000000 0.000000
vn 0.000000 1.000000 0.000000
vn 0.000000 -1.000000 0.000000
vn 0.000000 0.000000 1.000000
vn 0.000000 1.000000 0.000000
vn 0.000000 -1.000000 0.000000
vn -1.000000 0.000000 -0.000000
vn 0.000000 1.000000 0.000000
vn 0.000000 -1.000000 0.000000
vn 0.615644 0.000000 -0.788024
vn 0.000000 1.000000 0.000000
vn 0.000000 -1.000000 0.000000
vn 0.615644 0.000000 0.788024
vn 0.000000 1.000000 0.000000
vn 0.000000 -1.000000 0.000000
vn -1.000000 0.000000 -0.000000
vn 0.000000 1.000000 0.000000
vn 0.000000 -1.000000 0.000000
vn -1.000000 0.000000 -0.000000
vn 0.000000 1.000000 0.000000
vn 0.000000 -1.000000 0.000000
vn 0.000000 0.000000 -1.000000
vn 0.000000 1.000000 0.000000
vn 0.000000 -1.000000 0.000000
vn 1.000000 0.000000 0.000000
vn 0.000000 1.000000 0.000000
vn 0.000000 -1.000000 0.000000
vn 0.000000 0.000000 1.000000
vn 0.000000 1.000000 0.000000
vn 0.000000 -1.000000 0.000000
vn -0.788024 0.000000 -0.615644
vn 0.000000 1.000000 0.000000
vn 0.000000 -1.000000 0.000000
vn 0.788024 0.000000 -0.615644
vn 0.000000 1.000000 0.000000
vn 0.000000 -1.000000 0.000000
vn -0.000000 0.000000 1.000000
vn 0.000000 1.000000 0.000000
vn 0.000000 -1.000000 0.000000
vn 0.000000 0.000000 1.000000
vn 0.000000 1.000000 0.000000
vn 0.000000 -1.000000 0.000000
vn -1.000000 0.000000 -0.000000
vn 0.000000 1.000000 0.000000
vn 0.000000 -1.000000 0.000000
vn 0.000000 0.000000 -1.000000
vn 0.000000 1.000000 0.000000
vn 0.000000 -1.000000 0.000000
vn 1.000000 0.000000 -0.000000
vn 0.000000 1.000000 0.000000
vn 0.000000 -1.000000 0.000000
vn -0.615644 0.000000 0.788024
vn 0.000000 1.000000 0.000000
vn 0.000000 -1.000000 0.000000
vn -0.615644 0.000000 -0.788024
vn 0.000000 1.000000 0.000000
vn 0.000000 -1.000000 0.000000
vn 1.000000 0.000000 0.000000
usemtl ruin_path
f 1/1/1 2/2/1 3/3/1
usemtl garden_underside
f 4/4/2 5/5/2 6/6/2
usemtl ruin_stone
f 7/7/3 8/8/3 9/9/3 10/10/3
usemtl ruin_path
f 11/11/4 12/12/4 13/13/4
usemtl garden_underside
f 14/14/5 15/15/5 16/16/5
usemtl ruin_stone
f 17/17/6 18/18/6 19/19/6 20/20/6
usemtl ruin_path
f 21/21/7 22/22/7 23/23/7
usemtl garden_underside
f 24/24/8 25/25/8 26/26/8
usemtl ruin_stone
f 27/27/9 28/28/9 29/29/9 30/30/9
usemtl ruin_path
f 31/31/10 32/32/10 33/33/10
usemtl garden_underside
f 34/34/11 35/35/11 36/36/11
usemtl ruin_stone
f 37/37/12 38/38/12 39/39/12 40/40/12
usemtl ruin_path
f 41/41/13 42/42/13 43/43/13
usemtl garden_underside
f 44/44/14 45/45/14 46/46/14
usemtl ruin_stone
f 47/47/15 48/48/15 49/49/15 50/50/15
usemtl ruin_path
f 51/51/16 52/52/16 53/53/16
usemtl garden_underside
f 54/54/17 55/55/17 56/56/17
usemtl ruin_stone
f 57/57/18 58/58/18 59/59/18 60/60/18
usemtl ruin_path
f 61/61/19 62/62/19 63/63/19
usemtl garden_underside
f 64/64/20 65/65/20 66/66/20
usemtl ruin_stone
f 67/67/21 68/68/21 69/69/21 70/70/21
usemtl ruin_path
f 71/71/22 72/72/22 73/73/22
usemtl garden_underside
f 74/74/23 75/75/23 76/76/23
usemtl ruin_stone
f 77/77/24 78/78/24 79/79/24 80/80/24
usemtl garden_mechanism
f 81/81/25 82/82/25 83/83/25
usemtl garden_underside
f 84/84/26 85/85/26 86/86/26
usemtl ruin_cap
f 87/87/27 88/88/27 89/89/27 90/90/27
usemtl garden_mechanism
f 91/91/28 92/92/28 93/93/28
usemtl garden_underside
f 94/94/29 95/95/29 96/96/29
usemtl ruin_cap
f 97/97/30 98/98/30 99/99/30 100/100/30
usemtl garden_mechanism
f 101/101/31 102/102/31 103/103/31
usemtl garden_underside
f 104/104/32 105/105/32 106/106/32
usemtl ruin_cap
f 107/107/33 108/108/33 109/109/33 110/110/33
usemtl garden_mechanism
f 111/111/34 112/112/34 113/113/34
usemtl garden_underside
f 114/114/35 115/115/35 116/116/35
usemtl ruin_cap
f 117/117/36 118/118/36 119/119/36 120/120/36
usemtl garden_mechanism
f 121/121/37 122/122/37 123/123/37
usemtl garden_underside
f 124/124/38 125/125/38 126/126/38
usemtl ruin_cap
f 127/127/39 128/128/39 129/129/39 130/130/39
usemtl garden_mechanism
f 131/131/40 132/132/40 133/133/40
usemtl garden_underside
f 134/134/41 135/135/41 136/136/41
usemtl ruin_cap
f 137/137/42 138/138/42 139/139/42 140/140/42
usemtl garden_mechanism
f 141/141/43 142/142/43 143/143/43
usemtl garden_underside
f 144/144/44 145/145/44 146/146/44
usemtl ruin_cap
f 147/147/45 148/148/45 149/149/45 150/150/45
usemtl garden_mechanism
f 151/151/46 152/152/46 153/153/46
usemtl garden_underside
f 154/154/47 155/155/47 156/156/47
usemtl ruin_cap
f 157/157/48 158/158/48 159/159/48 160/160/48
usemtl garden_mechanism
f 161/161/49 162/162/49 163/163/49
usemtl garden_underside
f 164/164/50 165/165/50 166/166/50
usemtl ruin_cap
f 167/167/51 168/168/51 169/169/51 170/170/51
usemtl garden_mechanism
f 171/171/52 172/172/52 173/173/52
usemtl garden_underside
f 174/174/53 175/175/53 176/176/53
usemtl ruin_cap
f 177/177/54 178/178/54 179/179/54 180/180/54
usemtl garden_mechanism
f 181/181/55 182/182/55 183/183/55
usemtl garden_underside
f 184/184/56 185/185/56 186/186/56
usemtl ruin_cap
f 187/187/57 188/188/57 189/189/57 190/190/57
usemtl garden_mechanism
f 191/191/58 192/192/58 193/193/58
usemtl garden_underside
f 194/194/59 195/195/59 196/196/59
usemtl ruin_cap
f 197/197/60 198/198/60 199/199/60 200/200/60
usemtl goal_dais
f 201/201/61 202/202/61 203/203/61 204/204/61
f 205/205/62 206/206/62 207/207/62 208/208/62
f 209/209/63 210/210/63 211/211/63 212/212/63
f 213/213/64 214/214/64 215/215/64 216/216/64
f 217/217/65 218/218/65 219/219/65 220/220/65
f 221/221/66 222/222/66 223/223/66 224/224/66
f 225/225/67 226/226/67 227/227/67 228/228/67
f 229/229/68 230/230/68 231/231/68 232/232/68
f 233/233/69 234/234/69 235/235/69 236/236/69
f 237/237/70 238/238/70 239/239/70 240/240/70
f 241/241/71 242/242/71 243/243/71 244/244/71
f 245/245/72 246/246/72 247/247/72 248/248/72
f 249/249/73 250/250/73 251/251/73 252/252/73
f 253/253/74 254/254/74 255/255/74 256/256/74
f 257/257/75 258/258/75 259/259/75 260/260/75
f 261/261/76 262/262/76 263/263/76 264/264/76
f 265/265/77 266/266/77 267/267/77 268/268/77
f 269/269/78 270/270/78 271/271/78 272/272/78
f 273/273/79 274/274/79 275/275/79 276/276/79
f 277/277/80 278/278/80 279/279/80 280/280/80
f 281/281/81 282/282/81 283/283/81 284/284/81
f 285/285/82 286/286/82 287/287/82 288/288/82
f 289/289/83 290/290/83 291/291/83 292/292/83
f 293/293/84 294/294/84 295/295/84 296/296/84
f 297/297/85 298/298/85 299/299/85 300/300/85
f 301/301/86 302/302/86 303/303/86 304/304/86
f 305/305/87 306/306/87 307/307/87 308/308/87
f 309/309/88 310/310/88 311/311/88 312/312/88
f 313/313/89 314/314/89 315/315/89 316/316/89
f 317/317/90 318/318/90 319/319/90 320/320/90
f 321/321/91 322/322/91 323/323/91 324/324/91
f 325/325/92 326/326/92 327/327/92 328/328/92
f 329/329/93 330/330/93 331/331/93 332/332/93
f 333/333/94 334/334/94 335/335/94 336/336/94
f 337/337/95 338/338/95 339/339/95 340/340/95
f 341/341/96 342/342/96 343/343/96 344/344/96
f 345/345/97 346/346/97 347/347/97 348/348/97
f 349/349/98 350/350/98 351/351/98 352/352/98
f 353/353/99 354/354/99 355/355/99 356/356/99
f 357/357/100 358/358/100 359/359/100 360/360/100
f 361/361/101 362/362/101 363/363/101 364/364/101
f 365/365/102 366/366/102 367/367/102 368/368/102
f 369/369/103 370/370/103 371/371/103 372/372/103
f 373/373/104 374/374/104 375/375/104 376/376/104
f 377/377/105 378/378/105 379/379/105 380/380/105
f 381/381/106 382/382/106 383/383/106 384/384/106
f 385/385/107 386/386/107 387/387/107 388/388/107
f 389/389/108 390/390/108 391/391/108 392/392/108
f 393/393/109 394/394/109 395/395/109 396/396/109
f 397/397/110 398/398/110 399/399/110 400/400/110
f 401/401/111 402/402/111 403/403/111 404/404/111
f 405/405/112 406/406/112 407/407/112 408/408/112
f 409/409/113 410/410/113 411/411/113 412/412/113
f 413/413/114 414/414/114 415/415/114 416/416/114
f 417/417/115 418/418/115 419/419/115 420/420/115
f 421/421/116 422/422/116 423/423/116 424/424/116
f 425/425/117 426/426/117 427/427/117 428/428/117
f 429/429/118 430/430/118 431/431/118 432/432/118
f 433/433/119 434/434/119 435/435/119 436/436/119
f 437/437/120 438/438/120 439/439/120 440/440/120
f 441/441/121 442/442/121 443/443/121 444/444/121
f 445/445/122 446/446/122 447/447/122 448/448/122
f 449/449/123 450/450/123 451/451/123 452/452/123
f 453/453/124 454/454/124 455/455/124 456/456/124
f 457/457/125 458/458/125 459/459/125 460/460/125
f 461/461/126 462/462/126 463/463/126 464/464/126
f 465/465/127 466/466/127 467/467/127 468/468/127
f 469/469/128 470/470/128 471/471/128 472/472/128
f 473/473/129 474/474/129 475/475/129 476/476/129
f 477/477/130 478/478/130 479/479/130 480/480/130
f 481/481/131 482/482/131 483/483/131 484/484/131
f 485/485/132 486/486/132 487/487/132 488/488/132
f 489/489/133 490/490/133 491/491/133 492/492/133
f 493/493/134 494/494/134 495/495/134 496/496/134
f 497/497/135 498/498/135 499/499/135 500/500/135
f 501/501/136 502/502/136 503/503/136 504/504/136
f 505/505/137 506/506/137 507/507/137 508/508/137
f 509/509/138 510/510/138 511/511/138 512/512/138
f 513/513/139 514/514/139 515/515/139 516/516/139
f 517/517/140 518/518/140 519/519/140 520/520/140
usemtl signal_white
f 521/521/141 522/522/141 523/523/141
usemtl ruin_cap
f 524/524/142 525/525/142 526/526/142
f 527/527/143 528/528/143 529/529/143 530/530/143
usemtl signal_white
f 531/531/144 532/532/144 533/533/144
usemtl ruin_cap
f 534/534/145 535/535/145 536/536/145
f 537/537/146 538/538/146 539/539/146 540/540/146
usemtl signal_white
f 541/541/147 542/542/147 543/543/147
usemtl ruin_cap
f 544/544/148 545/545/148 546/546/148
f 547/547/149 548/548/149 549/549/149 550/550/149
usemtl signal_white
f 551/551/150 552/552/150 553/553/150
usemtl ruin_cap
f 554/554/151 555/555/151 556/556/151
f 557/557/152 558/558/152 559/559/152 560/560/152
usemtl signal_white
f 561/561/153 562/562/153 563/563/153
usemtl ruin_cap
f 564/564/154 565/565/154 566/566/154
f 567/567/155 568/568/155 569/569/155 570/570/155
usemtl signal_white
f 571/571/156 572/572/156 573/573/156
usemtl ruin_cap
f 574/574/157 575/575/157 576/576/157
f 577/577/158 578/578/158 579/579/158 580/580/158
usemtl signal_white
f 581/581/159 582/582/159 583/583/159
usemtl ruin_cap
f 584/584/160 585/585/160 586/586/160
f 587/587/161 588/588/161 589/589/161 590/590/161
usemtl signal_white
f 591/591/162 592/592/162 593/593/162
usemtl ruin_cap
f 594/594/163 595/595/163 596/596/163
f 597/597/164 598/598/164 599/599/164 600/600/164
usemtl signal_white
f 601/601/165 602/602/165 603/603/165
usemtl ruin_cap
f 604/604/166 605/605/166 606/606/166
f 607/607/167 608/608/167 609/609/167 610/610/167
usemtl signal_white
f 611/611/168 612/612/168 613/613/168
usemtl ruin_cap
f 614/614/169 615/615/169 616/616/169
f 617/617/170 618/618/170 619/619/170 620/620/170
usemtl signal_white
f 621/621/171 622/622/171 623/623/171
usemtl ruin_cap
f 624/624/172 625/625/172 626/626/172
f 627/627/173 628/628/173 629/629/173 630/630/173
usemtl signal_white
f 631/631/174 632/632/174 633/633/174
usemtl ruin_cap
f 634/634/175 635/635/175 636/636/175
f 637/637/176 638/638/176 639/639/176 640/640/176
usemtl signal_white
f 641/641/177 642/642/177 643/643/177
usemtl ruin_cap
f 644/644/178 645/645/178 646/646/178
f 647/647/179 648/648/179 649/649/179 650/650/179
usemtl signal_white
f 651/651/180 652/652/180 653/653/180
usemtl ruin_cap
f 654/654/181 655/655/181 656/656/181
f 657/657/182 658/658/182 659/659/182 660/660/182
usemtl signal_white
f 661/661/183 662/662/183 663/663/183
usemtl ruin_cap
f 664/664/184 665/665/184 666/666/184
f 667/667/185 668/668/185 669/669/185 670/670/185
usemtl signal_white
f 671/671/186 672/672/186 673/673/186
usemtl ruin_cap
f 674/674/187 675/675/187 676/676/187
f 677/677/188 678/678/188 679/679/188 680/680/188
usemtl signal_white
f 681/681/189 682/682/189 683/683/189
usemtl ruin_cap
f 684/684/190 685/685/190 686/686/190
f 687/687/191 688/688/191 689/689/191 690/690/191
usemtl signal_white
f 691/691/192 692/692/192 693/693/192
usemtl ruin_cap
f 694/694/193 695/695/193 696/696/193
f 697/697/194 698/698/194 699/699/194 700/700/194
usemtl signal_white
f 701/701/195 702/702/195 703/703/195
usemtl ruin_cap
f 704/704/196 705/705/196 706/706/196
f 707/707/197 708/708/197 709/709/197 710/710/197
usemtl signal_white
f 711/711/198 712/712/198 713/713/198
usemtl ruin_cap
f 714/714/199 715/715/199 716/716/199
f 717/717/200 718/718/200 719/719/200 720/720/200
usemtl signal_white
f 721/721/201 722/722/201 723/723/201
usemtl ruin_cap
f 724/724/202 725/725/202 726/726/202
f 727/727/203 728/728/203 729/729/203 730/730/203
usemtl signal_white
f 731/731/204 732/732/204 733/733/204
usemtl ruin_cap
f 734/734/205 735/735/205 736/736/205
f 737/737/206 738/738/206 739/739/206 740/740/206
usemtl signal_white
f 741/741/207 742/742/207 743/743/207
usemtl ruin_cap
f 744/744/208 745/745/208 746/746/208
f 747/747/209 748/748/209 749/749/209 750/750/209
usemtl signal_white
f 751/751/210 752/752/210 753/753/210
usemtl ruin_cap
f 754/754/211 755/755/211 756/756/211
f 757/757/212 758/758/212 759/759/212 760/760/212
usemtl signal_white
f 761/761/213 762/762/213 763/763/213
usemtl ruin_cap
f 764/764/214 765/765/214 766/766/214
f 767/767/215 768/768/215 769/769/215 770/770/215
usemtl signal_white
f 771/771/216 772/772/216 773/773/216
usemtl ruin_cap
f 774/774/217 775/775/217 776/776/217
f 777/777/218 778/778/218 779/779/218 780/780/218
usemtl signal_white
f 781/781/219 782/782/219 783/783/219
usemtl ruin_cap
f 784/784/220 785/785/220 786/786/220
f 787/787/221 788/788/221 789/789/221 790/790/221
usemtl signal_white
f 791/791/222 792/792/222 793/793/222
usemtl ruin_cap
f 794/794/223 795/795/223 796/796/223
f 797/797/224 798/798/224 799/799/224 800/800/224
