{
	"asset":{
		"generator":"Khronos glTF Blender I/O v4.4.56",
		"version":"2.0"
	},
	"scene":0,
	"scenes":[
		{
			"name":"Scene",
			"nodes":[
				8
			]
		}
	],
	"nodes":[
		{
			"mesh":0,
			"name":"Cylinder001_Material #27_0",
			"translation":[
				0,
				0,
				2.42247529058659e-06
			]
		},
		{
			"children":[
				0
			],
			"name":"Cylinder001",
			"rotation":[
				-0.7071068286895752,
				0,
				0,
				0.7071068286895752
			],
			"scale":[
				2.5399999618530273,
				2.5399997234344482,
				2.5399997234344482
			],
			"translation":[
				-18.622379302978516,
				70.44841003417969,
				38.22603988647461
			]
		},
		{
			"name":"Object_8",
			"translation":[
				0,
				0,
				-5.019686222076416
			]
		},
		{
			"children":[
				2
			],
			"name":"Cylinder002",
			"rotation":[
				0,
				-0.7071066498756409,
				0,
				0.70710688829422
			],
			"scale":[
				2.5399997234344482,
				2.5399997234344482,
				2.5399999618530273
			],
			"translation":[
				12.045856475830078,
				89.85948181152344,
				-8.283220291137695
			]
		},
		{
			"mesh":1,
			"name":"Sphere001_Material #25_0"
		},
		{
			"children":[
				4
			],
			"name":"Sphere001",
			"rotation":[
				0,
				-0.7071066498756409,
				0,
				0.70710688829422
			],
			"scale":[
				2.5399997234344482,
				2.5399997234344482,
				2.5399999618530273
			],
			"translation":[
				0,
				73.09591674804688,
				-9.011822700500488
			]
		},
		{
			"children":[
				1,
				3,
				5
			],
			"name":"RootNode"
		},
		{
			"children":[
				6
			],
			"name":"64f46592fd63480399990943332b0bc1.fbx",
			"rotation":[
				0.70710688829422,
				0,
				0,
				0.7071066498756409
			],
			"scale":[
				0.009999999776482582,
				0.010000000707805157,
				0.010000000707805157
			]
		},
		{
			"children":[
				7
			],
			"name":"Sketchfab_model",
			"rotation":[
				-0.70710688829422,
				0,
				0,
				0.7071066498756409
			]
		}
	],
	"materials":[
		{
			"doubleSided":true,
			"name":"Material_27",
			"pbrMetallicRoughness":{
				"baseColorTexture":{
					"index":0
				},
				"metallicFactor":0,
				"roughnessFactor":0.6000000238418579
			}
		},
		{
			"doubleSided":true,
			"name":"Material_25",
			"pbrMetallicRoughness":{
				"baseColorTexture":{
					"index":1
				},
				"metallicFactor":0,
				"roughnessFactor":0.6000000238418579
			}
		}
	],
	"meshes":[
		{
			"name":"Cylinder001_Material #27_0",
			"primitives":[
				{
					"attributes":{
						"POSITION":0,
						"NORMAL":1,
						"TEXCOORD_0":2
					},
					"indices":3,
					"material":0
				}
			]
		},
		{
			"name":"Sphere001_Material #25_0",
			"primitives":[
				{
					"attributes":{
						"POSITION":4,
						"NORMAL":5,
						"TEXCOORD_0":6
					},
					"indices":7,
					"material":1
				}
			]
		}
	],
	"textures":[
		{
			"sampler":0,
			"source":0
		},
		{
			"sampler":0,
			"source":0
		}
	],
	"images":[
		{
			"mimeType":"image/png",
			"name":"Material_25_baseColor",
			"uri":"Material_25_baseColor.png"
		}
	],
	"accessors":[
		{
			"bufferView":0,
			"componentType":5126,
			"count":216,
			"max":[
				25.590551376342773,
				38.578887939453125,
				1.9685039520263672
			],
			"min":[
				-1.9685039520263672,
				-1.7047744989395142,
				0
			],
			"type":"VEC3"
		},
		{
			"bufferView":1,
			"componentType":5126,
			"count":216,
			"type":"VEC3"
		},
		{
			"bufferView":2,
			"componentType":5126,
			"count":216,
			"type":"VEC2"
		},
		{
			"bufferView":3,
			"componentType":5123,
			"count":528,
			"type":"SCALAR"
		},
		{
			"bufferView":4,
			"componentType":5126,
			"count":249,
			"max":[
				21.653541564941406,
				19.685039520263672,
				11.5223970413208
			],
			"min":[
				-21.653560638427734,
				-3.9370079040527344,
				-21.150108337402344
			],
			"type":"VEC3"
		},
		{
			"bufferView":5,
			"componentType":5126,
			"count":249,
			"type":"VEC3"
		},
		{
			"bufferView":6,
			"componentType":5126,
			"count":249,
			"type":"VEC2"
		},
		{
			"bufferView":7,
			"componentType":5123,
			"count":564,
			"type":"SCALAR"
		}
	],
	"bufferViews":[
		{
			"buffer":0,
			"byteLength":2592,
			"byteOffset":0,
			"target":34962
		},
		{
			"buffer":0,
			"byteLength":2592,
			"byteOffset":2592,
			"target":34962
		},
		{
			"buffer":0,
			"byteLength":1728,
			"byteOffset":5184,
			"target":34962
		},
		{
			"buffer":0,
			"byteLength":1056,
			"byteOffset":6912,
			"target":34963
		},
		{
			"buffer":0,
			"byteLength":2988,
			"byteOffset":7968,
			"target":34962
		},
		{
			"buffer":0,
			"byteLength":2988,
			"byteOffset":10956,
			"target":34962
		},
		{
			"buffer":0,
			"byteLength":1992,
			"byteOffset":13944,
			"target":34962
		},
		{
			"buffer":0,
			"byteLength":1128,
			"byteOffset":15936,
			"target":34963
		}
	],
	"samplers":[
		{
			"magFilter":9729,
			"minFilter":9987
		}
	],
	"buffers":[
		{
			"byteLength":17064,
			"uri":"leverDodai.bin"
		}
	]
}
