# Blender 4.4.1
# www.blender.org
mtllib map_wall_03.mtl
o 立方体.001
v 13.222339 14.873268 107.507172
v 13.222339 16.751192 107.199867
v 14.666378 16.751192 107.507172
v 13.222339 50.553814 107.199867
v 13.222339 52.431736 107.507172
v 14.666378 50.553814 107.507172
v 13.222339 16.751192 113.346031
v 13.222339 50.553814 113.346031
v -12.770368 14.873268 107.507172
v -14.214407 16.751192 107.507172
v -12.770368 16.751192 107.199867
v -12.770368 52.431736 107.507172
v -12.770368 50.553814 107.199867
v -14.214407 50.553814 107.507172
v -12.770368 16.751192 113.346031
v -12.770368 50.553814 113.346031
v 6.492049 44.471123 107.199867
v -6.040078 44.471123 107.199867
v 6.492049 22.833881 107.199867
v -6.040078 22.833881 107.199867
v -6.040078 44.471123 113.346031
v 6.492049 44.471123 113.346031
v 6.492049 22.833881 113.346031
v -6.040078 22.833881 113.346031
v -33.294949 -52.145859 -101.328384
v -33.294949 81.997940 -101.328384
v -34.465492 -52.145859 -101.443680
v -34.465492 81.997940 -101.443680
v -35.591049 -52.145859 -101.785110
v -35.591049 81.997940 -101.785110
v -36.628368 -52.145859 -102.339569
v -36.628368 81.997940 -102.339569
v -37.537590 -52.145859 -103.085739
v -37.537590 81.997940 -103.085739
v -38.283768 -52.145859 -103.994965
v -38.283768 81.997940 -103.994965
v -27.294950 -52.145859 -107.328384
v -27.294950 81.997940 -107.328384
v -27.410238 -52.145859 -106.157837
v -27.410238 81.997940 -106.157837
v -27.751673 -52.145859 -105.032288
v -27.751673 81.997940 -105.032288
v -28.306133 -52.145859 -103.994965
v -28.306133 81.997940 -103.994965
v -29.052309 -52.145859 -103.085739
v -29.052309 81.997940 -103.085739
v -29.961529 -52.145859 -102.339569
v -29.961529 81.997940 -102.339569
v -30.998850 -52.145859 -101.785110
v -30.998850 81.997940 -101.785110
v -32.124405 -52.145859 -101.443680
v -32.124405 81.997940 -101.443680
v -43.716908 -52.071899 103.187546
v -43.716908 82.071899 103.187546
v -42.807690 -52.071899 102.441360
v -42.807690 82.071899 102.441360
v -41.770370 -52.071899 101.886917
v -41.770370 82.071899 101.886917
v -40.644810 -52.071899 101.545471
v -40.644810 82.071899 101.545471
v -39.474270 -52.071899 101.430191
v -39.474270 82.071899 101.430191
v -38.303726 -52.071899 101.545471
v -38.303726 82.071899 101.545471
v -37.178169 -52.071899 101.886917
v -37.178169 82.071899 101.886917
v -36.140846 -52.071899 102.441360
v -36.140846 82.071899 102.441360
v -35.231628 -52.071899 103.187546
v -35.231628 82.071899 103.187546
v -34.485451 -52.071899 104.096771
v -34.485451 82.071899 104.096771
v -33.930992 -52.071899 105.134079
v -33.930992 82.071899 105.134079
v -33.589558 -52.071899 106.259628
v -33.589558 82.071899 106.259628
v -33.474270 -52.071899 107.430191
v -33.474270 82.071899 107.430191
v -33.589558 -52.071899 108.600723
v -33.589558 82.071899 108.600723
v 27.268473 -52.071899 107.470215
v 27.268473 82.071899 107.470215
v 27.383760 -52.071899 106.299667
v 27.383760 82.071899 106.299667
v 27.725191 -52.071899 105.174118
v 27.725191 82.071899 105.174118
v 28.279654 -52.071899 104.136795
v 28.279654 82.071899 104.136795
v 29.025831 -52.071899 103.227570
v 29.025831 82.071899 103.227570
v 29.935045 -52.071899 102.481400
v 29.935045 82.071899 102.481400
v 30.972368 -52.071899 101.926956
v 30.972368 82.071899 101.926956
v 32.097935 -52.071899 101.585495
v 32.097935 82.071899 101.585495
v 33.268475 -52.071899 101.470215
v 33.268475 82.071899 101.470215
v 34.439014 -52.071899 101.585495
v 34.439014 82.071899 101.585495
v 35.564579 -52.071899 101.926956
v 35.564579 82.071899 101.926956
v 36.601894 -52.071899 102.481400
v 36.601894 82.071899 102.481400
v 37.511112 -52.071899 103.227570
v 37.511112 82.071899 103.227570
v 38.257290 -52.071899 104.136795
v 38.257290 82.071899 104.136795
v 88.345879 -52.145859 69.715668
v 88.345879 81.997940 69.715668
v 87.791428 -52.145859 68.678329
v 87.791428 81.997940 68.678329
v 87.449989 -52.145859 67.552780
v 87.449989 81.997940 67.552780
v 87.334702 -52.145859 66.382248
v 87.334702 81.997940 66.382248
v 87.449989 -52.145859 65.211685
v 87.449989 81.997940 65.211685
v 87.791428 -52.145859 64.086136
v 87.791428 81.997940 64.086136
v 88.345879 -52.145859 63.048813
v 88.345879 81.997940 63.048813
v 89.092056 -52.145859 62.139603
v 89.092056 81.997940 62.139603
v 90.001282 -52.145859 61.393417
v 90.001282 81.997940 61.393417
v 91.038605 -52.145859 60.838959
v 91.038605 81.997940 60.838959
v 92.164154 -52.145859 60.497528
v 92.164154 81.997940 60.497528
v 93.334702 -52.145859 60.382248
v 93.334702 81.997940 60.382248
v 94.505249 -52.145859 60.497528
v 94.505249 81.997940 60.497528
v 95.630798 -52.145859 60.838959
v 95.630798 81.997940 60.838959
v 115.452835 -52.145859 5.485703
v 115.452835 81.997940 5.485703
v 114.415512 -52.145859 4.931244
v 114.415512 81.997940 4.931244
v 113.506287 -52.145859 4.185066
v 113.506287 81.997940 4.185066
v 112.760101 -52.145859 3.275848
v 112.760101 81.997940 3.275848
v 112.205658 -52.145859 2.238518
v 112.205658 81.997940 2.238518
v 111.864227 -52.145859 1.112968
v 111.864227 81.997940 1.112968
v 111.748932 -52.145859 -0.057579
v 111.748932 81.997940 -0.057579
v 111.864227 -52.145859 -1.228127
v 111.864227 81.997940 -1.228127
v 112.205658 -52.145859 -2.353676
v 112.205658 81.997940 -2.353676
v 112.760101 -52.145859 -3.391006
v 112.760101 81.997940 -3.391006
v 113.506287 -52.145859 -4.300224
v 113.506287 81.997940 -4.300224
v 114.415512 -52.145859 -5.046402
v 114.415512 81.997940 -5.046402
v 115.452835 -52.145859 -5.600861
v 115.452835 81.997940 -5.600861
v 116.578384 -52.145859 -5.942291
v 116.578384 81.997940 -5.942291
v 97.184784 -52.145859 -60.468536
v 96.014236 -52.145859 -60.583832
v 97.184784 81.997940 -60.468536
v 98.355331 -52.145859 -60.583832
v 98.355331 81.997940 -60.583832
v 96.014236 81.997940 -60.583832
v 94.888687 81.997940 -60.925262
v 94.888687 -52.145859 -60.925262
v 93.851357 81.997940 -61.479721
v 93.851357 -52.145859 -61.479721
v 92.942139 81.997940 -62.225891
v 92.942139 -52.145859 -62.225891
v 92.195969 81.997940 -63.135117
v 92.195969 -52.145859 -63.135117
v 91.641502 81.997940 -64.172440
v 91.641502 -52.145859 -64.172440
v 91.300064 81.997940 -65.298004
v 91.300064 -52.145859 -65.298004
v 91.184784 81.997940 -66.468536
v 91.184784 -52.145859 -66.468536
v 91.300064 81.997940 -67.639069
v 91.300064 -52.145859 -67.639069
v 91.641502 81.997940 -68.764633
v 91.641502 -52.145859 -68.764633
v 92.195969 81.997940 -69.801956
v 92.195969 -52.145859 -69.801956
v 40.047237 -52.145859 -101.328384
v 38.876698 -52.145859 -101.443680
v 40.047237 81.997940 -101.328384
v 41.217777 -52.145859 -101.443680
v 42.343342 -52.145859 -101.785110
v 41.217777 81.997940 -101.443680
v 42.343342 81.997940 -101.785110
v 43.380665 81.997940 -102.339569
v 44.289875 81.997940 -103.085739
v 43.380665 -52.145859 -102.339569
v 44.289875 -52.145859 -103.085739
v 38.876698 81.997940 -101.443680
v 37.751133 81.997940 -101.785110
v 37.751133 -52.145859 -101.785110
v 36.713810 81.997940 -102.339569
v 36.713810 -52.145859 -102.339569
v 35.804600 81.997940 -103.085739
v 35.804600 -52.145859 -103.085739
v 35.058422 81.997940 -103.994965
v 35.058422 -52.145859 -103.994965
v 34.503956 81.997940 -105.032288
v 34.503956 -52.145859 -105.032288
v 34.162525 81.997940 -106.157837
v 34.162525 -52.145859 -106.157837
v 34.047237 81.997940 -107.328384
v 34.047237 -52.145859 -107.328384
v -93.180763 -52.145859 -60.468536
v -94.351303 -52.145859 -60.583832
v -93.180763 81.997940 -60.468536
v -92.010223 -52.145859 -60.583832
v -90.884659 -52.145859 -60.925262
v -92.010223 81.997940 -60.583832
v -90.884659 81.997940 -60.925262
v -89.847336 81.997940 -61.479721
v -88.938126 81.997940 -62.225891
v -89.847336 -52.145859 -61.479721
v -88.938126 -52.145859 -62.225891
v -88.191948 -52.145859 -63.135117
v -87.637482 -52.145859 -64.172440
v -88.191948 81.997940 -63.135117
v -87.637482 81.997940 -64.172440
v -87.296051 81.997940 -65.298004
v -87.180763 81.997940 -66.468536
v -87.296051 -52.145859 -65.298004
v -87.180763 -52.145859 -66.468536
v -87.296051 -52.145859 -67.639069
v -87.637482 -52.145859 -68.764633
v -87.296051 81.997940 -67.639069
v -87.637482 81.997940 -68.764633
v -88.191948 81.997940 -69.801956
v -88.191948 -52.145859 -69.801956
v -94.351303 81.997940 -60.583832
v -116.578453 -52.145859 -5.833572
v -116.578453 81.997940 -5.833572
v -115.452896 -52.145859 -5.492142
v -115.452896 81.997940 -5.492142
v -114.415573 -52.145859 -4.937683
v -114.415573 81.997940 -4.937683
v -113.506355 -52.145859 -4.191505
v -113.506355 81.997940 -4.191505
v -112.760178 -52.145859 -3.282288
v -112.760178 81.997940 -3.282288
v -112.205719 -52.145859 -2.244957
v -112.205719 81.997940 -2.244957
v -111.864288 -52.145859 -1.119408
v -111.864288 81.997940 -1.119408
v -111.748993 -52.145859 0.051140
v -111.748993 81.997940 0.051140
v -111.864288 -52.145859 1.221687
v -111.864288 81.997940 1.221687
v -112.205719 -52.145859 2.347237
v -112.205719 81.997940 2.347237
v -112.760178 -52.145859 3.384567
v -112.760178 81.997940 3.384567
v -113.506355 -52.145859 4.293785
v -113.506355 81.997940 4.293785
v -114.415573 -52.145859 5.039963
v -114.415573 81.997940 5.039963
v -115.452896 -52.145859 5.594421
v -115.452896 81.997940 5.594421
v -116.578453 -52.145859 5.935852
v -116.578453 81.997940 5.935852
v -99.482826 -52.071899 60.931519
v -99.482826 82.071899 60.931519
v -98.357262 -52.071899 60.590088
v -98.357262 82.071899 60.590088
v -97.186722 -52.071899 60.474808
v -97.186722 82.071899 60.474808
v -96.016182 -52.071899 60.590088
v -96.016182 82.071899 60.590088
v -94.890617 -52.071899 60.931519
v -94.890617 82.071899 60.931519
v -93.853302 -52.071899 61.485977
v -93.853302 82.071899 61.485977
v -92.944084 -52.071899 62.232162
v -92.944084 82.071899 62.232162
v -92.197906 -52.071899 63.141373
v -92.197906 82.071899 63.141373
v -91.643448 -52.071899 64.178696
v -91.643448 82.071899 64.178696
v -91.302010 -52.071899 65.304245
v -91.302010 82.071899 65.304245
v -91.186722 -52.071899 66.474808
v -91.186722 82.071899 66.474808
v -91.302010 -52.071899 67.645340
v -91.302010 82.071899 67.645340
v -91.643448 -52.071899 68.770889
v -91.643448 82.071899 68.770889
v -92.197906 -52.071899 69.808228
v -92.197906 82.071899 69.808228
v 96.575104 22.986858 71.754730
v 38.870502 22.986858 112.159927
v 90.839340 22.986858 63.563202
v 33.134731 22.986858 103.968414
v 90.839340 32.986862 63.563202
v 33.134731 32.986862 103.968414
v 96.575104 32.986862 71.754730
v 38.870502 32.986862 112.159927
v 124.010590 22.986858 1.758232
v 99.917206 22.986858 67.954239
v 114.613663 22.986858 -1.661972
v 90.520279 22.986858 64.534042
v 114.613663 32.986862 -1.661972
v 90.520279 32.986862 64.534042
v 124.010590 32.986862 1.758232
v 99.917206 32.986862 67.954239
v 102.869186 22.986858 -69.424026
v 124.637680 22.986858 -2.427490
v 93.358627 22.986858 -66.333847
v 115.127121 22.986858 0.662689
v 93.358627 32.986862 -66.333847
v 115.127121 32.986862 0.662689
v 102.869186 32.986862 -69.424026
v 124.637680 32.986862 -2.427490
v -97.018951 22.986858 -71.719757
v -38.958157 22.986858 -111.611450
v -91.356079 22.986858 -63.477676
v -33.295284 22.986858 -103.369370
v -91.356079 32.986862 -63.477676
v -33.295284 32.986862 -103.369370
v -97.018951 32.986862 -71.719757
v -38.958157 32.986862 -111.611450
v -103.089027 22.986858 68.755630
v -124.703156 22.986858 1.709137
v -93.571373 22.986858 65.687363
v -115.185501 22.986858 -1.359116
v -93.571373 32.986862 65.687363
v -115.185501 32.986862 -1.359116
v -103.089027 32.986862 68.755630
v -124.703156 32.986862 1.709137
v -44.441864 22.986858 111.756897
v -102.244072 22.986858 71.491440
v -38.725937 22.986858 103.551529
v -96.528152 22.986858 63.286057
v -38.725937 32.986862 103.551529
v -96.528152 32.986862 63.286057
v -44.441864 32.986862 111.756897
v -102.244072 32.986862 71.491440
v 96.575104 -20.489357 71.754730
v 38.870502 -20.489357 112.159927
v 90.839340 -20.489357 63.563202
v 33.134731 -20.489357 103.968414
v 90.839340 -10.489357 63.563202
v 33.134731 -10.489357 103.968414
v 96.575104 -10.489357 71.754730
v 38.870502 -10.489357 112.159927
v 35.222164 -20.489357 114.170135
v -35.222168 -20.489357 114.170135
v 35.222164 -20.489357 104.170120
v -35.222168 -20.489357 104.170151
v 35.222164 -10.489357 104.170120
v -35.222168 -10.489357 104.170151
v 35.222164 -10.489357 114.170135
v -35.222168 -10.489357 114.170135
v 124.010605 -20.489357 1.758232
v 99.917236 -20.489357 67.954239
v 114.613678 -20.489357 -1.661972
v 90.520302 -20.489357 64.534042
v 114.613678 -10.489357 -1.661972
v 90.520302 -10.489357 64.534042
v 124.010605 -10.489357 1.758232
v 99.917236 -10.489357 67.954239
v 102.869202 -20.489357 -69.424011
v 124.637695 -20.489357 -2.427490
v 93.358620 -20.489357 -66.333862
v 115.127121 -20.489357 0.662689
v 93.358620 -10.489357 -66.333862
v 115.127121 -10.489357 0.662689
v 102.869202 -10.489357 -69.424011
v 124.637695 -10.489357 -2.427490
v 43.984409 -20.489357 -112.176483
v 101.688995 -20.489357 -71.771286
v 38.248646 -20.489357 -103.984970
v 95.953247 -20.489357 -63.579758
v 38.248646 -10.489357 -103.984970
v 95.953247 -10.489357 -63.579758
v 43.984409 -10.489357 -112.176483
v 101.688995 -10.489357 -71.771286
v -33.527607 -20.489357 -113.969345
v 36.916721 -20.489357 -114.013763
v -33.521290 -20.489357 -103.969330
v 36.923038 -20.489357 -104.013794
v -33.521290 -10.489357 -103.969330
v 36.923038 -10.489357 -104.013794
v -33.527607 -10.489357 -113.969345
v 36.916721 -10.489357 -114.013763
v -97.018967 -20.489357 -71.719757
v -38.958149 -20.489357 -111.611450
v -91.356071 -20.489357 -63.477676
v -33.295292 -20.489357 -103.369370
v -91.356071 -10.489357 -63.477676
v -33.295292 -10.489357 -103.369370
v -97.018967 -10.489357 -71.719757
v -38.958149 -10.489357 -111.611450
v -124.800697 -20.489361 -1.219757
v -99.688835 -20.489361 -67.036148
v -115.457657 -20.489361 2.345016
v -90.345795 -20.489361 -63.471375
v -115.457657 -10.489357 2.345016
v -90.345795 -10.489357 -63.471375
v -124.800697 -10.489357 -1.219757
v -99.688835 -10.489357 -67.036148
v -103.089020 -20.515614 68.755630
v -124.703148 -20.515614 1.709137
v -93.571365 -20.515614 65.687370
v -115.185493 -20.515614 -1.359116
v -93.571365 -10.515610 65.687370
v -115.185493 -10.515610 -1.359116
v -103.089020 -10.515610 68.755630
v -124.703148 -10.515610 1.709137
v -44.441856 -20.515617 111.756905
v -102.244064 -20.515617 71.491440
v -38.725933 -20.515617 103.551537
v -96.528145 -20.515617 63.286072
v -38.725933 -10.515614 103.551537
v -96.528145 -10.515614 63.286072
v -44.441856 -10.515614 111.756905
v -102.244064 -10.515614 71.491440
v -124.800697 22.961184 -1.219757
v -99.688835 22.961184 -67.036148
v -115.457657 22.961184 2.345016
v -90.345795 22.961184 -63.471375
v -115.457657 32.961185 2.345016
v -90.345795 32.961185 -63.471375
v -124.800697 32.961185 -1.219757
v -99.688835 32.961185 -67.036148
v -33.527607 22.940954 -113.969345
v 36.916718 22.940954 -114.013779
v -33.521290 22.940954 -103.969345
v 36.923035 22.940954 -104.013794
v -33.521290 32.940956 -103.969345
v 36.923035 32.940956 -104.013794
v -33.527607 32.940956 -113.969345
v 36.916718 32.940956 -114.013779
v 43.984413 22.980062 -112.176483
v 101.689011 22.980062 -71.771286
v 38.248653 22.980062 -103.984970
v 95.953255 22.980062 -63.579758
v 38.248653 32.980064 -103.984970
v 95.953255 32.980064 -63.579758
v 43.984413 32.980064 -112.176483
v 101.689011 32.980064 -71.771286
vn -0.0000 -0.0000 -1.0000
vn -0.0000 -0.0000 1.0000
vn 0.2055 -0.1580 -0.9658
vn 0.2055 0.1580 -0.9658
vn -0.2055 -0.1580 -0.9658
vn -0.2055 0.1580 -0.9658
vn 0.2081 -0.0000 -0.9781
vn -0.2081 -0.0000 -0.9781
vn -0.0000 -0.1615 -0.9869
vn -0.0000 0.1615 -0.9869
vn -1.0000 -0.0000 -0.0000
vn 1.0000 -0.0000 -0.0000
vn -0.0000 1.0000 -0.0000
vn -0.0000 -1.0000 -0.0000
vn -0.1951 -0.0000 0.9808
vn -0.3827 -0.0000 0.9239
vn -0.5556 -0.0000 0.8315
vn -0.7071 -0.0000 0.7071
vn -0.7730 -0.0000 0.6344
vn 0.9952 -0.0000 0.0980
vn 0.9808 -0.0000 0.1951
vn 0.9239 -0.0000 0.3827
vn 0.8315 -0.0000 0.5556
vn 0.7071 -0.0000 0.7071
vn 0.5556 -0.0000 0.8315
vn 0.3827 -0.0000 0.9239
vn 0.1951 -0.0000 0.9808
vn -0.6344 -0.0000 -0.7730
vn -0.5556 -0.0000 -0.8315
vn -0.3827 -0.0000 -0.9239
vn -0.1951 -0.0000 -0.9808
vn 0.1951 -0.0000 -0.9808
vn 0.3827 -0.0000 -0.9239
vn 0.5556 -0.0000 -0.8315
vn 0.7071 -0.0000 -0.7071
vn 0.8315 -0.0000 -0.5556
vn 0.9239 -0.0000 -0.3827
vn 0.9808 -0.0000 -0.1951
vn -0.9952 -0.0000 -0.0980
vn -0.9808 -0.0000 -0.1951
vn -0.9239 -0.0000 -0.3827
vn -0.8315 -0.0000 -0.5556
vn -0.7071 -0.0000 -0.7071
vn 0.7730 -0.0000 -0.6344
vn -0.8819 -0.0000 0.4714
vn -0.9239 -0.0000 0.3827
vn -0.9808 -0.0000 0.1951
vn 0.2903 -0.0000 -0.9569
vn -0.4714 -0.0000 0.8819
vn -0.8315 -0.0000 0.5556
vn -0.2903 -0.0000 -0.9569
vn 0.0980 -0.0000 0.9952
vn -0.8819 -0.0000 -0.4714
vn 0.6344 -0.0000 0.7730
vn -0.9952 -0.0000 0.0980
vn -0.0980 -0.0000 0.9952
vn 0.8819 -0.0000 -0.4714
vn 0.2903 -0.0000 0.9569
vn 0.8819 -0.0000 0.4714
vn -0.5736 -0.0000 -0.8192
vn -0.9397 -0.0000 -0.3420
vn -0.9511 -0.0000 0.3090
vn 0.5663 -0.0000 0.8242
vn 0.9518 -0.0000 -0.3068
vn 0.5716 -0.0000 -0.8205
vn -0.5736 -0.0000 0.8192
vn 0.0006 -0.0000 1.0000
vn 0.9343 -0.0000 0.3565
vt 0.612500 0.762500
vt 0.612500 0.987500
vt 0.572012 0.820759
vt 0.387500 0.987500
vt 0.427988 0.820759
vt 0.427988 0.929241
vt 0.612500 0.262500
vt 0.612500 0.487500
vt 0.572012 0.320759
vt 0.387500 0.262500
vt 0.427988 0.429241
vt 0.387500 0.487500
vt 0.137500 0.737500
vt 0.137500 0.750000
vt 0.125000 0.737500
vt 0.612500 0.000000
vt 0.625000 0.012500
vt 0.612500 0.012500
vt 0.362500 0.737500
vt 0.375000 0.737500
vt 0.362500 0.750000
vt 0.625000 0.762500
vt 0.612500 0.750000
vt 0.387500 0.012500
vt 0.387500 0.000000
vt 0.387500 0.762500
vt 0.612500 0.737500
vt 0.625000 0.987500
vt 0.625000 0.076198
vt 0.375000 0.140162
vt 0.625000 0.140162
vt 0.625000 0.609838
vt 0.375000 0.673802
vt 0.625000 0.673802
vt 0.125000 0.673802
vt 0.375000 0.609838
vt 0.125000 0.609838
vt 0.875000 0.673802
vt 0.572012 0.929241
vt 0.427988 0.320759
vt 0.572012 0.429241
vt 0.387500 0.737500
vt 0.375000 0.076198
vt 0.875000 0.609838
vt 1.000000 1.000000
vt 0.968750 0.500000
vt 1.000000 0.500000
vt 0.968750 1.000000
vt 0.937500 0.500000
vt 0.937500 1.000000
vt 0.906250 0.500000
vt 0.906250 1.000000
vt 0.875000 0.500000
vt 0.875000 1.000000
vt 0.843750 0.500000
vt 0.250000 1.000000
vt 0.218750 0.500000
vt 0.250000 0.500000
vt 0.218750 1.000000
vt 0.187500 0.500000
vt 0.187500 1.000000
vt 0.156250 0.500000
vt 0.156250 1.000000
vt 0.125000 0.500000
vt 0.125000 1.000000
vt 0.093750 0.500000
vt 0.093750 1.000000
vt 0.062500 0.500000
vt 0.062500 1.000000
vt 0.031250 0.500000
vt 0.031250 1.000000
vt 0.000000 0.500000
vt 0.625000 1.000000
vt 0.593750 0.500000
vt 0.625000 0.500000
vt 0.593750 1.000000
vt 0.562500 0.500000
vt 0.562500 1.000000
vt 0.531250 0.500000
vt 0.531250 1.000000
vt 0.500000 0.500000
vt 0.500000 1.000000
vt 0.468750 0.500000
vt 0.468750 1.000000
vt 0.437500 0.500000
vt 0.437500 1.000000
vt 0.406250 0.500000
vt 0.406250 1.000000
vt 0.375000 0.500000
vt 0.375000 1.000000
vt 0.343750 0.500000
vt 0.343750 1.000000
vt 0.312500 0.500000
vt 0.312500 1.000000
vt 0.281250 0.500000
vt 0.281250 1.000000
vt 0.750000 1.000000
vt 0.718750 0.500000
vt 0.750000 0.500000
vt 0.718750 1.000000
vt 0.687500 0.500000
vt 0.687500 1.000000
vt 0.656250 0.500000
vt 0.656250 1.000000
vt 0.843750 1.000000
vt 0.812500 0.500000
vt 0.812500 1.000000
vt 0.781250 0.500000
vt 0.781250 1.000000
vt 0.375000 0.750000
vt 0.125000 0.750000
vt 0.625000 0.750000
vt 0.875000 0.750000
vt 0.000000 1.000000
s 0
f 13/1/1 4/2/1 18/3/1
f 2/4/1 20/5/1 19/6/1
f 8/7/2 16/8/2 22/9/2
f 7/10/2 24/11/2 15/12/2
f 1/13/3 2/14/3 3/15/3
f 4/16/4 5/17/4 6/18/4
f 9/19/5 10/20/5 11/21/5
f 12/22/6 13/1/6 14/23/6
f 4/16/7 3/24/7 2/25/7
f 11/26/8 14/27/8 13/1/8
f 9/19/9 2/14/9 1/13/9
f 5/28/10 13/1/10 12/22/10
f 17/29/11 23/30/11 22/31/11
f 21/32/12 20/33/12 18/34/12
f 19/35/13 24/36/13 23/37/13
f 17/38/14 21/32/14 18/34/14
f 18/3/1 20/5/1 11/26/1
f 4/2/1 2/4/1 19/6/1
f 4/2/1 19/6/1 17/39/1
f 18/3/1 11/26/1 13/1/1
f 4/2/1 17/39/1 18/3/1
f 2/4/1 11/26/1 20/5/1
f 23/40/2 7/10/2 8/7/2
f 16/8/2 15/12/2 24/11/2
f 16/8/2 24/11/2 21/41/2
f 22/9/2 23/40/2 8/7/2
f 16/8/2 21/41/2 22/9/2
f 7/10/2 23/40/2 24/11/2
f 4/16/7 6/18/7 3/24/7
f 11/26/8 10/42/8 14/27/8
f 9/19/9 11/21/9 2/14/9
f 5/28/10 4/2/10 13/1/10
f 17/29/11 19/43/11 23/30/11
f 21/32/12 24/36/12 20/33/12
f 19/35/13 20/33/13 24/36/13
f 17/38/14 22/44/14 21/32/14
s 1
f 26/45/2 27/46/15 25/47/2
f 28/48/15 29/49/16 27/46/15
f 30/50/16 31/51/17 29/49/16
f 32/52/17 33/53/18 31/51/17
f 34/54/18 35/55/19 33/53/18
f 38/56/20 39/57/21 37/58/20
f 40/59/21 41/60/22 39/57/21
f 42/61/22 43/62/23 41/60/22
f 44/63/23 45/64/24 43/62/23
f 46/65/24 47/66/25 45/64/24
f 48/67/25 49/68/26 47/66/25
f 50/69/26 51/70/27 49/68/26
f 52/71/27 25/72/2 51/70/27
f 54/73/28 55/74/29 53/75/28
f 56/76/29 57/77/30 55/74/29
f 58/78/30 59/79/31 57/77/30
f 60/80/31 61/81/1 59/79/31
f 62/82/1 63/83/32 61/81/1
f 64/84/32 65/85/33 63/83/32
f 66/86/33 67/87/34 65/85/33
f 68/88/34 69/89/35 67/87/34
f 70/90/35 71/91/36 69/89/35
f 72/92/36 73/93/37 71/91/36
f 74/94/37 75/95/38 73/93/37
f 76/96/38 77/58/12 75/95/38
f 78/56/12 79/57/20 77/58/12
f 82/97/39 83/98/40 81/99/39
f 84/100/40 85/101/41 83/98/40
f 86/102/41 87/103/42 85/101/41
f 88/104/42 89/75/43 87/103/42
f 90/73/43 91/74/29 89/75/43
f 92/76/29 93/77/30 91/74/29
f 94/78/30 95/79/31 93/77/30
f 96/80/31 97/81/1 95/79/31
f 98/82/1 99/83/32 97/81/1
f 100/84/32 101/85/33 99/83/32
f 102/86/33 103/87/34 101/85/33
f 104/88/34 105/89/35 103/87/34
f 106/90/35 107/91/44 105/89/35
f 110/105/45 111/106/46 109/55/45
f 112/107/46 113/108/47 111/106/46
f 114/109/47 115/99/11 113/108/47
f 116/97/11 117/98/40 115/99/11
f 118/100/40 119/101/41 117/98/40
f 120/102/41 121/103/42 119/101/41
f 122/104/42 123/75/43 121/103/42
f 124/73/43 125/74/29 123/75/43
f 126/76/29 127/77/30 125/74/29
f 128/78/30 129/79/31 127/77/30
f 130/80/31 131/81/1 129/79/31
f 132/82/1 133/83/32 131/81/1
f 134/84/32 135/85/48 133/83/32
f 138/50/49 139/51/17 137/49/49
f 140/52/17 141/53/18 139/51/17
f 142/54/18 143/55/50 141/53/18
f 144/105/50 145/106/46 143/55/50
f 146/107/46 147/108/47 145/106/46
f 148/109/47 149/99/11 147/108/47
f 150/97/11 151/98/40 149/99/11
f 152/100/40 153/101/41 151/98/40
f 154/102/41 155/103/42 153/101/41
f 156/104/42 157/75/43 155/103/42
f 158/73/43 159/74/29 157/75/43
f 160/76/29 161/77/30 159/74/29
f 162/78/30 163/79/51 161/77/30
f 167/45/2 166/46/15 165/47/2
f 169/71/52 165/72/2 168/70/52
f 170/48/15 172/49/16 166/46/15
f 171/50/16 174/51/17 172/49/16
f 173/52/17 176/53/18 174/51/17
f 175/54/18 178/55/50 176/53/18
f 177/105/50 180/106/46 178/55/50
f 179/107/46 182/108/47 180/106/46
f 181/109/47 184/99/11 182/108/47
f 183/97/11 186/98/40 184/99/11
f 185/100/40 188/101/41 186/98/40
f 187/102/41 190/103/53 188/101/41
f 193/45/2 192/46/15 191/47/2
f 196/71/27 191/72/2 194/70/27
f 197/69/26 194/70/27 195/68/26
f 198/67/25 195/68/26 200/66/25
f 199/65/54 200/66/25 201/64/54
f 202/48/15 204/49/16 192/46/15
f 203/50/16 206/51/17 204/49/16
f 205/52/17 208/53/18 206/51/17
f 207/54/18 210/55/50 208/53/18
f 209/105/50 212/106/46 210/55/50
f 211/107/46 214/108/47 212/106/46
f 213/109/47 216/99/55 214/108/47
f 219/45/2 218/46/56 217/47/2
f 222/71/27 217/72/2 220/70/27
f 223/69/26 220/70/27 221/68/26
f 224/67/25 221/68/26 226/66/25
f 225/65/24 226/66/25 227/64/24
f 230/63/23 227/64/24 228/62/23
f 231/61/22 228/62/23 229/60/22
f 232/59/21 229/60/22 234/57/21
f 233/56/12 234/57/21 235/58/12
f 238/96/38 235/58/12 236/95/38
f 239/94/37 236/95/38 237/93/37
f 240/92/57 237/93/37 241/91/57
f 244/84/48 245/85/33 243/83/48
f 246/86/33 247/87/34 245/85/33
f 248/88/34 249/89/35 247/87/34
f 250/90/35 251/91/36 249/89/35
f 252/92/36 253/93/37 251/91/36
f 254/94/37 255/95/38 253/93/37
f 256/96/38 257/58/12 255/95/38
f 258/56/12 259/57/21 257/58/12
f 260/59/21 261/60/22 259/57/21
f 262/61/22 263/62/23 261/60/22
f 264/63/23 265/64/24 263/62/23
f 266/65/24 267/66/25 265/64/24
f 268/67/25 269/68/26 267/66/25
f 270/69/26 271/70/58 269/68/26
f 274/78/51 275/79/31 273/77/51
f 276/80/31 277/81/1 275/79/31
f 278/82/1 279/83/32 277/81/1
f 280/84/32 281/85/33 279/83/32
f 282/86/33 283/87/34 281/85/33
f 284/88/34 285/89/35 283/87/34
f 286/90/35 287/91/36 285/89/35
f 288/92/36 289/93/37 287/91/36
f 290/94/37 291/95/38 289/93/37
f 292/96/38 293/58/12 291/95/38
f 294/56/12 295/57/21 293/58/12
f 296/59/21 297/60/22 295/57/21
f 298/61/22 299/62/59 297/60/22
s 0
f 302/64/14 303/110/14 301/111/14
f 306/75/60 303/110/60 304/89/60
f 308/53/13 305/112/13 306/75/13
f 310/64/14 311/110/14 309/111/14
f 314/75/61 311/110/61 312/89/61
f 316/53/13 313/112/13 314/75/13
f 318/64/14 319/110/14 317/111/14
f 322/75/62 319/110/62 320/89/62
f 324/53/13 321/112/13 322/75/13
f 326/64/14 327/110/14 325/111/14
f 330/75/63 327/110/63 328/89/63
f 332/53/13 329/112/13 330/75/13
f 334/64/14 335/110/14 333/111/14
f 338/75/64 335/110/64 336/89/64
f 340/53/13 337/112/13 338/75/13
f 342/64/14 343/110/14 341/111/14
f 346/75/65 343/110/65 344/89/65
f 348/53/13 345/112/13 346/75/13
f 350/64/14 351/110/14 349/111/14
f 354/75/60 351/110/60 352/89/60
f 356/53/13 353/112/13 354/75/13
f 360/89/14 357/111/14 358/64/14
f 362/75/1 359/110/1 360/89/1
f 362/75/13 363/113/13 361/112/13
f 368/89/14 365/111/14 366/64/14
f 370/75/61 367/110/61 368/89/61
f 372/53/13 369/112/13 370/75/13
f 376/89/14 373/111/14 374/64/14
f 378/75/62 375/110/62 376/89/62
f 378/75/13 379/113/13 377/112/13
f 382/64/14 383/110/14 381/111/14
f 386/75/66 383/110/66 384/89/66
f 388/53/13 385/112/13 386/75/13
f 390/64/14 391/110/14 389/111/14
f 394/75/67 391/110/67 392/89/67
f 396/53/13 393/112/13 394/75/13
f 398/64/14 399/110/14 397/111/14
f 402/75/63 399/110/63 400/89/63
f 404/53/13 401/112/13 402/75/13
f 406/64/14 407/110/14 405/111/14
f 410/75/68 407/110/68 408/89/68
f 412/53/13 409/112/13 410/75/13
f 416/89/14 413/111/14 414/64/14
f 418/75/64 415/110/64 416/89/64
f 420/53/13 417/112/13 418/75/13
f 422/64/14 423/110/14 421/111/14
f 426/75/65 423/110/65 424/89/65
f 428/53/13 425/112/13 426/75/13
f 430/64/14 431/110/14 429/111/14
f 434/75/68 431/110/68 432/89/68
f 436/53/13 433/112/13 434/75/13
f 438/64/14 439/110/14 437/111/14
f 442/75/67 439/110/67 440/89/67
f 444/53/13 441/112/13 442/75/13
f 446/64/14 447/110/14 445/111/14
f 450/75/66 447/110/66 448/89/66
f 452/53/13 449/112/13 450/75/13
s 1
f 26/45/2 28/48/15 27/46/15
f 28/48/15 30/50/16 29/49/16
f 30/50/16 32/52/17 31/51/17
f 32/52/17 34/54/18 33/53/18
f 34/54/18 36/105/19 35/55/19
f 38/56/20 40/59/21 39/57/21
f 40/59/21 42/61/22 41/60/22
f 42/61/22 44/63/23 43/62/23
f 44/63/23 46/65/24 45/64/24
f 46/65/24 48/67/25 47/66/25
f 48/67/25 50/69/26 49/68/26
f 50/69/26 52/71/27 51/70/27
f 52/71/27 26/114/2 25/72/2
f 54/73/28 56/76/29 55/74/29
f 56/76/29 58/78/30 57/77/30
f 58/78/30 60/80/31 59/79/31
f 60/80/31 62/82/1 61/81/1
f 62/82/1 64/84/32 63/83/32
f 64/84/32 66/86/33 65/85/33
f 66/86/33 68/88/34 67/87/34
f 68/88/34 70/90/35 69/89/35
f 70/90/35 72/92/36 71/91/36
f 72/92/36 74/94/37 73/93/37
f 74/94/37 76/96/38 75/95/38
f 76/96/38 78/56/12 77/58/12
f 78/56/12 80/59/20 79/57/20
f 82/97/39 84/100/40 83/98/40
f 84/100/40 86/102/41 85/101/41
f 86/102/41 88/104/42 87/103/42
f 88/104/42 90/73/43 89/75/43
f 90/73/43 92/76/29 91/74/29
f 92/76/29 94/78/30 93/77/30
f 94/78/30 96/80/31 95/79/31
f 96/80/31 98/82/1 97/81/1
f 98/82/1 100/84/32 99/83/32
f 100/84/32 102/86/33 101/85/33
f 102/86/33 104/88/34 103/87/34
f 104/88/34 106/90/35 105/89/35
f 106/90/35 108/92/44 107/91/44
f 110/105/45 112/107/46 111/106/46
f 112/107/46 114/109/47 113/108/47
f 114/109/47 116/97/11 115/99/11
f 116/97/11 118/100/40 117/98/40
f 118/100/40 120/102/41 119/101/41
f 120/102/41 122/104/42 121/103/42
f 122/104/42 124/73/43 123/75/43
f 124/73/43 126/76/29 125/74/29
f 126/76/29 128/78/30 127/77/30
f 128/78/30 130/80/31 129/79/31
f 130/80/31 132/82/1 131/81/1
f 132/82/1 134/84/32 133/83/32
f 134/84/32 136/86/48 135/85/48
f 138/50/49 140/52/17 139/51/17
f 140/52/17 142/54/18 141/53/18
f 142/54/18 144/105/50 143/55/50
f 144/105/50 146/107/46 145/106/46
f 146/107/46 148/109/47 147/108/47
f 148/109/47 150/97/11 149/99/11
f 150/97/11 152/100/40 151/98/40
f 152/100/40 154/102/41 153/101/41
f 154/102/41 156/104/42 155/103/42
f 156/104/42 158/73/43 157/75/43
f 158/73/43 160/76/29 159/74/29
f 160/76/29 162/78/30 161/77/30
f 162/78/30 164/80/51 163/79/51
f 167/45/2 170/48/15 166/46/15
f 169/71/52 167/114/2 165/72/2
f 170/48/15 171/50/16 172/49/16
f 171/50/16 173/52/17 174/51/17
f 173/52/17 175/54/18 176/53/18
f 175/54/18 177/105/50 178/55/50
f 177/105/50 179/107/46 180/106/46
f 179/107/46 181/109/47 182/108/47
f 181/109/47 183/97/11 184/99/11
f 183/97/11 185/100/40 186/98/40
f 185/100/40 187/102/41 188/101/41
f 187/102/41 189/104/53 190/103/53
f 193/45/2 202/48/15 192/46/15
f 196/71/27 193/114/2 191/72/2
f 197/69/26 196/71/27 194/70/27
f 198/67/25 197/69/26 195/68/26
f 199/65/54 198/67/25 200/66/25
f 202/48/15 203/50/16 204/49/16
f 203/50/16 205/52/17 206/51/17
f 205/52/17 207/54/18 208/53/18
f 207/54/18 209/105/50 210/55/50
f 209/105/50 211/107/46 212/106/46
f 211/107/46 213/109/47 214/108/47
f 213/109/47 215/97/55 216/99/55
f 219/45/2 242/48/56 218/46/56
f 222/71/27 219/114/2 217/72/2
f 223/69/26 222/71/27 220/70/27
f 224/67/25 223/69/26 221/68/26
f 225/65/24 224/67/25 226/66/25
f 230/63/23 225/65/24 227/64/24
f 231/61/22 230/63/23 228/62/23
f 232/59/21 231/61/22 229/60/22
f 233/56/12 232/59/21 234/57/21
f 238/96/38 233/56/12 235/58/12
f 239/94/37 238/96/38 236/95/38
f 240/92/57 239/94/37 237/93/37
f 244/84/48 246/86/33 245/85/33
f 246/86/33 248/88/34 247/87/34
f 248/88/34 250/90/35 249/89/35
f 250/90/35 252/92/36 251/91/36
f 252/92/36 254/94/37 253/93/37
f 254/94/37 256/96/38 255/95/38
f 256/96/38 258/56/12 257/58/12
f 258/56/12 260/59/21 259/57/21
f 260/59/21 262/61/22 261/60/22
f 262/61/22 264/63/23 263/62/23
f 264/63/23 266/65/24 265/64/24
f 266/65/24 268/67/25 267/66/25
f 268/67/25 270/69/26 269/68/26
f 270/69/26 272/71/58 271/70/58
f 274/78/51 276/80/31 275/79/31
f 276/80/31 278/82/1 277/81/1
f 278/82/1 280/84/32 279/83/32
f 280/84/32 282/86/33 281/85/33
f 282/86/33 284/88/34 283/87/34
f 284/88/34 286/90/35 285/89/35
f 286/90/35 288/92/36 287/91/36
f 288/92/36 290/94/37 289/93/37
f 290/94/37 292/96/38 291/95/38
f 292/96/38 294/56/12 293/58/12
f 294/56/12 296/59/21 295/57/21
f 296/59/21 298/61/22 297/60/22
f 298/61/22 300/63/59 299/62/59
s 0
f 302/64/14 304/89/14 303/110/14
f 306/75/60 305/112/60 303/110/60
f 308/53/13 307/113/13 305/112/13
f 310/64/14 312/89/14 311/110/14
f 314/75/61 313/112/61 311/110/61
f 316/53/13 315/113/13 313/112/13
f 318/64/14 320/89/14 319/110/14
f 322/75/62 321/112/62 319/110/62
f 324/53/13 323/113/13 321/112/13
f 326/64/14 328/89/14 327/110/14
f 330/75/63 329/112/63 327/110/63
f 332/53/13 331/113/13 329/112/13
f 334/64/14 336/89/14 335/110/14
f 338/75/64 337/112/64 335/110/64
f 340/53/13 339/113/13 337/112/13
f 342/64/14 344/89/14 343/110/14
f 346/75/65 345/112/65 343/110/65
f 348/53/13 347/113/13 345/112/13
f 350/64/14 352/89/14 351/110/14
f 354/75/60 353/112/60 351/110/60
f 356/53/13 355/113/13 353/112/13
f 360/89/14 359/110/14 357/111/14
f 362/75/1 361/112/1 359/110/1
f 362/75/13 364/53/13 363/113/13
f 368/89/14 367/110/14 365/111/14
f 370/75/61 369/112/61 367/110/61
f 372/53/13 371/113/13 369/112/13
f 376/89/14 375/110/14 373/111/14
f 378/75/62 377/112/62 375/110/62
f 378/75/13 380/53/13 379/113/13
f 382/64/14 384/89/14 383/110/14
f 386/75/66 385/112/66 383/110/66
f 388/53/13 387/113/13 385/112/13
f 390/64/14 392/89/14 391/110/14
f 394/75/67 393/112/67 391/110/67
f 396/53/13 395/113/13 393/112/13
f 398/64/14 400/89/14 399/110/14
f 402/75/63 401/112/63 399/110/63
f 404/53/13 403/113/13 401/112/13
f 406/64/14 408/89/14 407/110/14
f 410/75/68 409/112/68 407/110/68
f 412/53/13 411/113/13 409/112/13
f 416/89/14 415/110/14 413/111/14
f 418/75/64 417/112/64 415/110/64
f 420/53/13 419/113/13 417/112/13
f 422/64/14 424/89/14 423/110/14
f 426/75/65 425/112/65 423/110/65
f 428/53/13 427/113/13 425/112/13
f 430/64/14 432/89/14 431/110/14
f 434/75/68 433/112/68 431/110/68
f 436/53/13 435/113/13 433/112/13
f 438/64/14 440/89/14 439/110/14
f 442/75/67 441/112/67 439/110/67
f 444/53/13 443/113/13 441/112/13
f 446/64/14 448/89/14 447/110/14
f 450/75/66 449/112/66 447/110/66
f 452/53/13 451/113/13 449/112/13
