# Blender 4.4.1
# www.blender.org
mtllib skydome.mtl
o 球
v 0.000000 49.039261 -9.754544
v 0.000000 46.193974 -19.134207
v 0.000000 41.573463 -27.778555
v 0.000000 35.355324 -35.355389
v 0.000000 27.778496 -41.573536
v 0.000000 19.134153 -46.194016
v 0.000000 9.754498 -49.039307
v 0.000000 -27.778526 -41.573505
v 0.000000 -35.355358 -35.355354
v 0.000000 -41.573502 -27.778519
v -1.903014 49.039261 -9.567113
v -3.732895 46.193974 -18.766550
v -5.419323 41.573463 -27.244795
v -6.897490 35.355324 -34.676044
v -8.110589 27.778496 -40.774708
v -9.012004 19.134153 -45.306412
v -9.567092 9.754498 -48.097027
v -9.754522 -0.000021 -49.039307
v -9.567092 -9.754536 -48.097027
v -9.012005 -19.134188 -45.306412
v -8.110590 -27.778526 -40.774677
v -6.897490 -35.355358 -34.676010
v -5.419322 -41.573502 -27.244762
v -3.732895 -46.193974 -18.766516
v -1.903014 -49.039265 -9.567075
v -3.732896 49.039261 -9.012025
v -7.322337 46.193974 -17.677704
v -10.630384 41.573463 -25.664036
v -13.529912 35.355324 -32.664120
v -15.909493 27.778496 -38.408932
v -17.677683 19.134153 -42.677708
v -18.766527 9.754500 -45.306412
v -19.134186 -0.000019 -46.194016
v -18.766527 -9.754534 -45.306412
v -17.677683 -19.134188 -42.677708
v -15.909496 -27.778526 -38.408905
v -13.529912 -35.355358 -32.664089
v -10.630383 -41.573502 -25.664001
v -7.322337 -46.193974 -17.677671
v -3.732895 -49.039265 -9.011986
v -5.419324 49.039261 -8.110608
v -10.630385 46.193974 -15.909514
v -15.432925 41.573471 -23.097023
v -19.642389 35.355324 -29.396927
v -23.097000 27.778500 -34.567127
v -25.664015 19.134153 -38.408920
v -27.244770 9.754502 -40.774693
v -27.778530 -0.000018 -41.573513
v -27.244770 -9.754532 -40.774693
v -25.664017 -19.134188 -38.408920
v -23.097006 -27.778522 -34.567097
v -19.642389 -35.355358 -29.396900
v -15.432924 -41.573494 -23.096989
v -10.630386 -46.193974 -15.909481
v -5.419323 -49.039265 -8.110570
v -6.897491 49.039261 -6.897509
v -13.529916 46.193974 -13.529930
v -19.642389 41.573483 -19.642405
v -25.000015 35.355331 -25.000034
v -29.396902 27.778500 -29.396923
v -32.664093 19.134157 -32.664097
v -34.676018 9.754505 -34.676022
v -35.355362 -0.000016 -35.355362
v -34.676018 -9.754529 -34.676022
v -32.664097 -19.134184 -32.664104
v -29.396912 -27.778522 -29.396898
v -25.000015 -35.355350 -25.000008
v -19.642389 -41.573483 -19.642372
v -13.529916 -46.193974 -13.529899
v -6.897491 -49.039265 -6.897469
v -8.110592 49.039261 -5.419341
v -15.909497 46.193974 -10.630403
v -23.097006 41.573483 -15.432938
v -29.396906 35.355343 -19.642401
v -34.567101 27.778500 -23.097012
v -38.408909 19.134163 -25.664022
v -40.774681 9.754507 -27.244772
v -41.573505 -0.000013 -27.778526
v -40.774681 -9.754527 -27.244772
v -38.408916 -19.134180 -25.664015
v -34.567104 -27.778522 -23.096994
v -29.396906 -35.355343 -19.642376
v -23.097002 -41.573483 -15.432908
v -15.909497 -46.193974 -10.630366
v -8.110592 -49.039265 -5.419302
v -9.012006 49.039261 -3.732912
v -17.677685 46.193974 -7.322352
v -25.664015 41.573483 -10.630396
v -32.664093 35.355343 -13.529926
v -38.408905 27.778509 -15.909498
v -42.677692 19.134163 -17.677692
v -45.306393 9.754511 -18.766525
v -46.193996 -0.000009 -19.134178
v -45.306393 -9.754523 -18.766525
v -42.677700 -19.134180 -17.677673
v -38.408909 -27.778513 -15.909482
v -32.664093 -35.355343 -13.529897
v -25.664015 -41.573483 -10.630366
v -17.677687 -46.193974 -7.322317
v -9.012005 -49.039265 -3.732873
v -9.567094 49.039261 -1.903029
v -18.766531 46.193974 -3.732908
v -27.244770 41.573483 -5.419334
v -34.676018 35.355343 -6.897501
v -40.774677 27.778513 -8.110597
v -45.306393 19.134171 -9.012013
v -48.097012 9.754514 -9.567094
v -49.039280 -0.000006 -9.754515
v -48.097012 -9.754521 -9.567085
v -45.306404 -19.134171 -9.011992
v -40.774677 -27.778509 -8.110574
v -34.676018 -35.355343 -6.897476
v -27.244770 -41.573483 -5.419302
v -18.766533 -46.193974 -3.732873
v -9.567093 -49.039265 -1.902991
v -9.754524 49.039261 -0.000015
v -19.134188 46.193974 -0.000011
v -27.778522 41.573483 -0.000010
v -35.355354 35.355343 -0.000011
v -41.573498 27.778513 -0.000006
v -46.193996 19.134171 -0.000006
v -49.039288 9.754518 0.000001
v -50.000015 -0.000002 0.000008
v -49.039288 -9.754517 0.000009
v -46.194004 -19.134171 0.000014
v -41.573498 -27.778509 0.000016
v -35.355354 -35.355343 0.000016
v -27.778522 -41.573483 0.000021
v -19.134190 -46.193974 0.000022
v -9.754523 -49.039265 0.000023
v -9.567094 49.039261 1.902999
v -18.766529 46.193974 3.732884
v -27.244764 41.573483 5.419312
v -34.676014 35.355343 6.897480
v -40.774670 27.778513 8.110583
v -45.306389 19.134171 9.011997
v -48.097008 9.754521 9.567094
v -49.039276 0.000002 9.754530
v -48.097008 -9.754513 9.567101
v -45.306400 -19.134171 9.012022
v -40.774677 -27.778509 8.110606
v -34.676014 -35.355343 6.897505
v -27.244764 -41.573483 5.419344
v -18.766533 -46.193974 3.732919
v -9.567093 -49.039265 1.903036
v -9.012005 49.039261 3.732880
v -17.677685 46.193974 7.322327
v -25.664005 41.573483 10.630374
v -32.664089 35.355343 13.529900
v -38.408897 27.778517 15.909490
v -42.677689 19.134180 17.677675
v -45.306389 9.754524 18.766533
v -46.193981 0.000005 19.134190
v -45.306389 -9.754510 18.766533
v -42.677696 -19.134163 17.677700
v -38.408901 -27.778505 15.909506
v -32.664089 -35.355343 13.529930
v -25.664005 -41.573483 10.630404
v -17.677685 -46.193974 7.322363
v -9.012005 -49.039265 3.732918
v -8.110590 49.039261 5.419308
v -15.909496 46.193974 10.630376
v -23.096996 41.573483 15.432914
v -29.396902 35.355343 19.642378
v -34.567097 27.778526 23.096998
v -38.408901 19.134180 25.664015
v -40.774670 9.754528 27.244780
v -41.573483 0.000008 27.778534
v -40.774670 -9.754506 27.244780
v -38.408909 -19.134163 25.664032
v -34.567101 -27.778498 23.097015
v -29.396902 -35.355343 19.642405
v -23.096996 -41.573483 15.432942
v -15.909496 -46.193974 10.630414
v -8.110589 -49.039265 5.419347
v -6.897490 49.039261 6.897476
v -13.529912 46.193974 13.529907
v -19.642378 41.573483 19.642374
v -25.000013 35.355350 25.000010
v -29.396896 27.778526 29.396898
v -32.664085 19.134184 32.664097
v -34.676010 9.754530 34.676022
v -35.355335 0.000011 35.355362
v -34.676010 -9.754504 34.676022
v -32.664089 -19.134157 32.664108
v -29.396896 -27.778498 29.396923
v -25.000013 -35.355331 25.000036
v -19.642378 -41.573483 19.642408
v -13.529914 -46.193974 13.529941
v -6.897489 -49.039265 6.897514
v -5.419323 49.039261 8.110578
v -10.630384 46.193974 15.909487
v -15.432918 41.573490 23.096991
v -19.642384 35.355358 29.396900
v -23.096992 27.778526 34.567093
v -25.664007 19.134188 38.408916
v -27.244762 9.754533 40.774689
v -27.778502 0.000013 41.573505
v -27.244762 -9.754502 40.774689
v -25.664007 -19.134153 38.408924
v -23.096996 -27.778498 34.567127
v -19.642384 -35.355324 29.396927
v -15.432918 -41.573475 23.097025
v -10.630385 -46.193974 15.909521
v -5.419322 -49.039265 8.110614
v -3.732894 49.039261 9.011992
v -7.322336 46.193974 17.677675
v -10.630378 41.573498 25.664001
v -13.529911 35.355358 32.664089
v -15.909486 27.778530 38.408894
v -17.677677 19.134188 42.677700
v -18.766514 9.754535 45.306404
v -19.134161 0.000015 46.194000
v -18.766514 -9.754500 45.306404
v -17.677675 -19.134153 42.677708
v -15.909486 -27.778494 38.408928
v -13.529911 -35.355324 32.664120
v -10.630378 -41.573467 25.664036
v -7.322337 -46.193974 17.677710
v -3.732894 -49.039265 9.012029
v -1.903013 49.039261 9.567080
v -3.732893 46.193974 18.766523
v -5.419318 41.573498 27.244762
v -6.897491 35.355358 34.676010
v -8.110584 27.778530 40.774662
v -9.012002 19.134188 45.306404
v -9.567084 9.754537 48.097015
v -9.754503 0.000017 49.039284
v -9.567084 -9.754498 48.097015
v -9.011997 -19.134153 45.306412
v -8.110584 -27.778494 40.774700
v -6.897491 -35.355324 34.676044
v -5.419318 -41.573467 27.244795
v -3.732895 -46.193974 18.766556
v -1.903013 -49.039265 9.567117
v 0.000000 49.039261 9.754510
v 0.000001 46.193974 19.134178
v 0.000003 41.573498 27.778515
v -0.000002 35.355358 35.355350
v 0.000001 27.778530 41.573483
v -0.000001 19.134188 46.194008
v 0.000004 9.754537 49.039291
v 0.000013 0.000017 50.000015
v 0.000004 -9.754498 49.039291
v 0.000006 -19.134153 46.194016
v 0.000002 -27.778494 41.573524
v -0.000002 -35.355324 35.355385
v 0.000003 -41.573467 27.778549
v 0.000000 -46.193974 19.134212
v 0.000000 -49.039265 9.754547
v 1.903013 49.039261 9.567080
v 3.732896 46.193974 18.766520
v 5.419323 41.573498 27.244757
v 6.897485 35.355358 34.676006
v 8.110585 27.778530 40.774662
v 9.012000 19.134188 45.306404
v 9.567091 9.754537 48.097012
v 9.754529 0.000017 49.039276
v 9.567091 -9.754498 48.097012
v 9.012008 -19.134153 45.306412
v 8.110587 -27.778494 40.774696
v 6.897485 -35.355324 34.676041
v 5.419323 -41.573467 27.244789
v 3.732894 -46.193974 18.766554
v 1.903013 -49.039265 9.567117
v 3.732894 49.039261 9.011991
v 7.322337 46.193974 17.677673
v 10.630383 41.573498 25.663996
v 13.529904 35.355358 32.664082
v 15.909482 27.778530 38.408890
v 17.677671 19.134188 42.677696
v 18.766520 9.754535 45.306396
v 19.134182 0.000015 46.193981
v 18.766520 -9.754500 45.306396
v 17.677683 -19.134153 42.677708
v 15.909486 -27.778494 38.408928
v 13.529904 -35.355324 32.664116
v 10.630383 -41.573467 25.664030
v 7.322336 -46.193974 17.677706
v 3.732893 -49.039265 9.012028
v 5.419322 49.039261 8.110575
v 10.630385 46.193974 15.909484
v 15.432920 41.573490 23.096983
v 19.642378 35.355358 29.396898
v 23.096991 27.778526 34.567089
v 25.664005 19.134188 38.408913
v 27.244764 9.754533 40.774677
v 27.778521 0.000013 41.573479
v 27.244764 -9.754502 40.774677
v 25.664015 -19.134153 38.408916
v 23.096991 -27.778498 34.567127
v 19.642378 -35.355324 29.396923
v 15.432920 -41.573475 23.097017
v 10.630384 -46.193974 15.909517
v 5.419321 -49.039265 8.110613
v 6.897488 49.039261 6.897475
v 13.529912 46.193974 13.529900
v 19.642378 41.573483 19.642366
v 25.000006 35.355350 25.000008
v 29.396893 27.778526 29.396893
v 32.664082 19.134184 32.664097
v 34.676003 9.754530 34.676010
v 35.355343 0.000011 35.355331
v 34.676003 -9.754504 34.676010
v 32.664093 -19.134157 32.664097
v 29.396896 -27.778498 29.396917
v 25.000006 -35.355331 25.000032
v 19.642378 -41.573483 19.642399
v 13.529911 -46.193974 13.529933
v 6.897487 -49.039265 6.897513
v 8.110587 49.039261 5.419308
v 15.909493 46.193974 10.630368
v 23.096991 41.573483 15.432905
v 29.396896 35.355343 19.642378
v 34.567085 27.778526 23.096994
v 38.408897 19.134180 25.664011
v 40.774666 9.754528 27.244766
v 41.573483 0.000008 27.778498
v 40.774666 -9.754506 27.244766
v 38.408909 -19.134163 25.664017
v 34.567093 -27.778498 23.097012
v 29.396896 -35.355343 19.642403
v 23.096991 -41.573483 15.432935
v 15.909492 -46.193974 10.630406
v 8.110587 -49.039265 5.419346
v 0.000004 50.000000 -0.000013
v 9.012002 49.039261 3.732879
v 17.677677 46.193974 7.322322
v 25.664000 41.573483 10.630366
v 32.664082 35.355343 13.529900
v 38.408894 27.778517 15.909485
v 42.677681 19.134180 17.677673
v 45.306377 9.754524 18.766520
v 46.193970 0.000005 19.134155
v 45.306377 -9.754510 18.766520
v 42.677692 -19.134163 17.677685
v 38.408894 -27.778505 15.909502
v 32.664082 -35.355343 13.529930
v 25.664000 -41.573483 10.630396
v 17.677677 -46.193974 7.322357
v 9.012000 -49.039265 3.732917
v 9.567090 49.039261 1.902998
v 18.766521 46.193974 3.732879
v 27.244759 41.573483 5.419305
v 34.676010 35.355343 6.897480
v 40.774666 27.778513 8.110579
v 45.306389 19.134171 9.011994
v 48.096989 9.754521 9.567082
v 49.039249 0.000002 9.754497
v 48.096989 -9.754513 9.567091
v 45.306389 -19.134171 9.012007
v 40.774666 -27.778509 8.110600
v 34.676010 -35.355343 6.897506
v 27.244759 -41.573483 5.419336
v 18.766520 -46.193974 3.732915
v 9.567088 -49.039265 1.903035
v 9.754519 49.039261 -0.000015
v 19.134180 46.193974 -0.000015
v 27.778511 41.573483 -0.000016
v 35.355350 35.355343 -0.000009
v 41.573483 27.778513 -0.000008
v 46.193993 19.134171 -0.000007
v 49.039268 9.754518 -0.000008
v 49.999985 -0.000002 -0.000019
v 49.039268 -9.754517 -0.000000
v 46.193996 -19.134171 0.000001
v 41.573483 -27.778509 0.000012
v 35.355350 -35.355343 0.000018
v 27.778511 -41.573483 0.000015
v 19.134176 -46.193974 0.000020
v 9.754519 -49.039265 0.000022
v 9.567090 49.039261 -1.903028
v 18.766520 46.193974 -3.732910
v 27.244755 41.573483 -5.419336
v 34.676003 35.355343 -6.897497
v 40.774658 27.778513 -8.110596
v 45.306381 19.134171 -9.012011
v 48.096989 9.754514 -9.567099
v 49.039242 -0.000006 -9.754535
v 48.096989 -9.754521 -9.567090
v 45.306389 -19.134171 -9.012002
v 40.774658 -27.778509 -8.110576
v 34.676003 -35.355343 -6.897471
v 27.244755 -41.573483 -5.419305
v 18.766518 -46.193974 -3.732873
v 9.567087 -49.039265 -1.902991
v 9.012000 49.039261 -3.732910
v 17.677671 46.193974 -7.322351
v 25.663996 41.573483 -10.630394
v 32.664082 35.355343 -13.529921
v 38.408894 27.778509 -15.909495
v 42.677681 19.134163 -17.677685
v 45.306374 9.754511 -18.766525
v 46.193951 -0.000009 -19.134188
v 45.306374 -9.754523 -18.766525
v 42.677681 -19.134180 -17.677679
v 38.408894 -27.778513 -15.909479
v 32.664082 -35.355343 -13.529891
v 25.663996 -41.573483 -10.630364
v 17.677671 -46.193974 -7.322314
v 9.011999 -49.039265 -3.732871
v 8.110585 49.039261 -5.419338
v 15.909482 46.193974 -10.630400
v 23.096983 41.573483 -15.432933
v 29.396896 35.355343 -19.642393
v 34.567085 27.778500 -23.097002
v 38.408894 19.134163 -25.664013
v 40.774654 9.754507 -27.244770
v 41.573452 -0.000013 -27.778526
v 40.774654 -9.754527 -27.244770
v 38.408894 -19.134180 -25.664015
v 34.567085 -27.778522 -23.096985
v 29.396896 -35.355343 -19.642368
v 23.096983 -41.573483 -15.432903
v 15.909482 -46.193974 -10.630361
v 8.110584 -49.039265 -5.419299
v 6.897485 49.039261 -6.897505
v 13.529902 46.193974 -13.529924
v 19.642366 41.573483 -19.642393
v 25.000006 35.355331 -25.000023
v 29.396893 27.778500 -29.396912
v 32.664082 19.134157 -32.664093
v 34.675991 9.754505 -34.676010
v 35.355309 -0.000016 -35.355347
v 34.675991 -9.754529 -34.676010
v 32.664082 -19.134184 -32.664097
v 29.396893 -27.778522 -29.396885
v 25.000006 -35.355350 -24.999996
v 19.642366 -41.573483 -19.642359
v 13.529902 -46.193974 -13.529889
v 6.897484 -49.039265 -6.897465
v 5.419319 49.039261 -8.110604
v 10.630375 46.193974 -15.909504
v 15.432904 41.573471 -23.097008
v 19.642376 35.355324 -29.396915
v 23.096987 27.778500 -34.567112
v 25.664001 19.134153 -38.408905
v 27.244753 9.754502 -40.774677
v 27.778477 -0.000018 -41.573486
v 27.244753 -9.754532 -40.774677
v 25.664001 -19.134188 -38.408913
v 23.096987 -27.778522 -34.567078
v 19.642376 -35.355358 -29.396889
v 15.432904 -41.573494 -23.096973
v 10.630375 -46.193974 -15.909471
v 5.419318 -49.039265 -8.110564
v 3.732891 49.039261 -9.012017
v 7.322328 46.193974 -17.677692
v 10.630367 41.573463 -25.664015
v 13.529903 35.355324 -32.664104
v 15.909481 27.778496 -38.408913
v 17.677670 19.134153 -42.677692
v 18.766506 9.754500 -45.306393
v 19.134138 -0.000019 -46.193974
v 18.766506 -9.754534 -45.306393
v 17.677670 -19.134188 -42.677696
v 15.909481 -27.778526 -38.408878
v 13.529903 -35.355358 -32.664074
v 10.630367 -41.573502 -25.663980
v 7.322329 -46.193974 -17.677658
v 3.732891 -49.039265 -9.011978
v 1.903010 49.039261 -9.567104
v 3.732888 46.193974 -18.766537
v 5.419311 41.573463 -27.244768
v 6.897484 35.355324 -34.676029
v 8.110581 27.778496 -40.774681
v 9.011994 19.134153 -45.306393
v 9.567076 9.754498 -48.097004
v 9.754484 -0.000021 -49.039253
v 9.567076 -9.754536 -48.097004
v 9.011992 -19.134188 -45.306400
v 8.110581 -27.778526 -40.774647
v 6.897484 -35.355358 -34.675995
v 5.419311 -41.573502 -27.244734
v 3.732889 -46.193974 -18.766502
v 1.903010 -49.039265 -9.567066
v -0.000027 -0.000021 -49.999985
v -0.000011 -9.754536 -49.039276
v -0.000010 -19.134188 -46.194004
v -0.000003 -46.193974 -19.134157
v -0.000001 -49.039265 -9.754496
v 0.000000 -50.000000 0.000023
vn 0.0097 -0.9951 0.0980
vn 0.0097 0.9951 0.0980
vn 0.0975 0.0975 0.9904
vn 0.0286 -0.9565 0.2902
vn 0.0938 0.2890 0.9527
vn 0.0464 -0.8810 0.4709
vn 0.0865 0.4696 0.8786
vn 0.0624 -0.7715 0.6332
vn 0.0759 0.6326 0.7708
vn 0.0759 -0.6326 0.7708
vn 0.0624 0.7715 0.6332
vn 0.0865 -0.4696 0.8786
vn 0.0464 0.8810 0.4709
vn 0.0938 -0.2890 0.9527
vn 0.0286 0.9565 0.2902
vn 0.0975 -0.0975 0.9904
vn 0.2779 -0.2890 0.9161
vn 0.0846 0.9565 0.2790
vn 0.2889 -0.0975 0.9524
vn 0.0286 -0.9951 0.0942
vn 0.0286 0.9951 0.0942
vn 0.2889 0.0975 0.9524
vn 0.2889 0.0976 0.9524
vn 0.0846 -0.9565 0.2790
vn 0.0846 -0.9566 0.2790
vn 0.2779 0.2890 0.9161
vn 0.1374 -0.8810 0.4528
vn 0.2563 0.4696 0.8448
vn 0.1847 -0.7715 0.6088
vn 0.2248 0.6326 0.7412
vn 0.2248 -0.6326 0.7412
vn 0.1847 0.7715 0.6088
vn 0.2563 -0.4696 0.8448
vn 0.1374 0.8810 0.4528
vn 0.4162 0.4696 0.7786
vn 0.2999 -0.7715 0.5611
vn 0.3651 0.6326 0.6831
vn 0.3651 -0.6326 0.6831
vn 0.2999 0.7715 0.5611
vn 0.4162 -0.4696 0.7786
vn 0.2230 0.8810 0.4173
vn 0.4513 -0.2890 0.8443
vn 0.1374 0.9565 0.2571
vn 0.4691 -0.0975 0.8777
vn 0.0464 -0.9951 0.0869
vn 0.0464 0.9951 0.0869
vn 0.4691 0.0975 0.8777
vn 0.1374 -0.9566 0.2571
vn 0.1374 -0.9565 0.2571
vn 0.4513 0.2890 0.8443
vn 0.2230 -0.8810 0.4173
vn 0.1850 0.9565 0.2254
vn 0.6314 -0.0975 0.7693
vn 0.0625 -0.9951 0.0761
vn 0.0625 0.9951 0.0761
vn 0.6314 0.0975 0.7693
vn 0.1850 -0.9565 0.2254
vn 0.6073 0.2890 0.7400
vn 0.3002 -0.8810 0.3658
vn 0.5601 0.4696 0.6825
vn 0.4036 -0.7715 0.4918
vn 0.4913 0.6326 0.5987
vn 0.4913 -0.6326 0.5987
vn 0.4036 0.7715 0.4918
vn 0.5601 -0.4696 0.6825
vn 0.3002 0.8810 0.3658
vn 0.6073 -0.2890 0.7400
vn 0.5987 0.6326 0.4913
vn 0.5987 -0.6326 0.4913
vn 0.4918 0.7715 0.4036
vn 0.6825 -0.4696 0.5601
vn 0.3658 0.8810 0.3002
vn 0.7400 -0.2890 0.6073
vn 0.2254 0.9565 0.1850
vn 0.7693 -0.0975 0.6314
vn 0.0761 -0.9951 0.0625
vn 0.0761 0.9951 0.0625
vn 0.7693 0.0975 0.6314
vn 0.2254 -0.9565 0.1850
vn 0.7400 0.2890 0.6073
vn 0.3658 -0.8810 0.3002
vn 0.6825 0.4696 0.5601
vn 0.4918 -0.7715 0.4036
vn 0.0869 -0.9951 0.0464
vn 0.0869 0.9951 0.0464
vn 0.8777 0.0976 0.4691
vn 0.2571 -0.9565 0.1374
vn 0.8443 0.2890 0.4513
vn 0.4173 -0.8810 0.2230
vn 0.7786 0.4696 0.4162
vn 0.5611 -0.7715 0.2999
vn 0.6831 0.6326 0.3651
vn 0.6831 -0.6326 0.3651
vn 0.5611 0.7715 0.2999
vn 0.7786 -0.4696 0.4162
vn 0.4173 0.8810 0.2230
vn 0.4173 0.8810 0.2231
vn 0.8443 -0.2890 0.4513
vn 0.2571 0.9565 0.1374
vn 0.8777 -0.0976 0.4691
vn 0.7412 -0.6326 0.2248
vn 0.6088 0.7715 0.1847
vn 0.8448 -0.4696 0.2563
vn 0.4528 0.8810 0.1374
vn 0.9161 -0.2890 0.2779
vn 0.2790 0.9565 0.0846
vn 0.9524 -0.0975 0.2889
vn 0.0942 -0.9951 0.0286
vn 0.0942 0.9951 0.0286
vn 0.9524 0.0975 0.2889
vn 0.2790 -0.9565 0.0846
vn 0.9161 0.2890 0.2779
vn 0.4528 -0.8810 0.1374
vn 0.8448 0.4696 0.2563
vn 0.6088 -0.7715 0.1847
vn 0.7412 0.6326 0.2248
vn 0.9904 0.0975 0.0975
vn 0.2902 -0.9565 0.0286
vn 0.9527 0.2890 0.0938
vn 0.4709 -0.8810 0.0464
vn 0.8786 0.4696 0.0865
vn 0.6332 -0.7715 0.0624
vn 0.7708 0.6326 0.0759
vn 0.7708 -0.6326 0.0759
vn 0.6332 0.7715 0.0624
vn 0.8786 -0.4696 0.0865
vn 0.4709 0.8810 0.0464
vn 0.9527 -0.2890 0.0938
vn 0.2902 0.9565 0.0286
vn 0.9904 -0.0975 0.0975
vn 0.0980 -0.9951 0.0097
vn 0.0980 0.9951 0.0097
vn 0.6332 0.7715 -0.0624
vn 0.8786 -0.4696 -0.0865
vn 0.4709 0.8810 -0.0464
vn 0.9527 -0.2890 -0.0938
vn 0.2902 0.9565 -0.0286
vn 0.9904 -0.0975 -0.0975
vn 0.0980 -0.9951 -0.0097
vn 0.0980 0.9951 -0.0097
vn 0.9904 0.0975 -0.0976
vn 0.2902 -0.9565 -0.0286
vn 0.9527 0.2890 -0.0938
vn 0.4709 -0.8810 -0.0464
vn 0.8786 0.4696 -0.0865
vn 0.6332 -0.7715 -0.0624
vn 0.7708 0.6326 -0.0759
vn 0.7708 -0.6326 -0.0759
vn 0.2790 -0.9565 -0.0846
vn 0.9161 0.2890 -0.2779
vn 0.4528 -0.8810 -0.1374
vn 0.8448 0.4696 -0.2563
vn 0.6088 -0.7715 -0.1847
vn 0.7412 0.6326 -0.2248
vn 0.7412 -0.6326 -0.2248
vn 0.6088 0.7715 -0.1847
vn 0.8448 -0.4696 -0.2563
vn 0.4528 0.8810 -0.1374
vn 0.9161 -0.2890 -0.2779
vn 0.2790 0.9565 -0.0846
vn 0.9524 -0.0975 -0.2889
vn 0.0942 -0.9951 -0.0286
vn 0.0942 0.9951 -0.0286
vn 0.9524 0.0975 -0.2889
vn 0.7786 -0.4696 -0.4162
vn 0.4173 0.8810 -0.2230
vn 0.4173 0.8810 -0.2231
vn 0.8443 -0.2890 -0.4513
vn 0.2571 0.9565 -0.1374
vn 0.8777 -0.0975 -0.4691
vn 0.0869 -0.9951 -0.0464
vn 0.0869 0.9951 -0.0464
vn 0.8777 0.0975 -0.4691
vn 0.2571 -0.9565 -0.1374
vn 0.8443 0.2890 -0.4513
vn 0.4173 -0.8810 -0.2230
vn 0.7786 0.4696 -0.4162
vn 0.5611 -0.7715 -0.2999
vn 0.6831 0.6326 -0.3651
vn 0.6831 -0.6326 -0.3651
vn 0.5611 0.7715 -0.2999
vn 0.7400 0.2890 -0.6073
vn 0.3658 -0.8810 -0.3002
vn 0.6825 0.4696 -0.5601
vn 0.4918 -0.7715 -0.4036
vn 0.5987 0.6326 -0.4913
vn 0.5987 -0.6326 -0.4913
vn 0.4918 0.7715 -0.4036
vn 0.6825 -0.4696 -0.5601
vn 0.3658 0.8810 -0.3002
vn 0.7400 -0.2890 -0.6073
vn 0.2254 0.9565 -0.1850
vn 0.7693 -0.0975 -0.6314
vn 0.0761 -0.9951 -0.0625
vn 0.0761 0.9951 -0.0625
vn 0.7693 0.0975 -0.6314
vn 0.2254 -0.9565 -0.1850
vn 0.3002 0.8810 -0.3658
vn 0.6073 -0.2890 -0.7400
vn 0.1850 0.9565 -0.2254
vn 0.6314 -0.0975 -0.7693
vn 0.0625 -0.9951 -0.0761
vn 0.0625 0.9951 -0.0761
vn 0.6314 0.0975 -0.7693
vn 0.1850 -0.9565 -0.2254
vn 0.6073 0.2890 -0.7400
vn 0.3002 -0.8810 -0.3658
vn 0.5601 0.4696 -0.6825
vn 0.4036 -0.7715 -0.4918
vn 0.4913 0.6326 -0.5987
vn 0.4913 -0.6326 -0.5987
vn 0.4036 0.7715 -0.4918
vn 0.5601 -0.4696 -0.6825
vn 0.4162 0.4696 -0.7786
vn 0.2999 -0.7715 -0.5611
vn 0.3651 0.6326 -0.6831
vn 0.3651 -0.6326 -0.6831
vn 0.2999 0.7715 -0.5611
vn 0.4162 -0.4696 -0.7786
vn 0.2230 0.8810 -0.4173
vn 0.4513 -0.2890 -0.8443
vn 0.1374 0.9565 -0.2571
vn 0.4691 -0.0975 -0.8777
vn 0.0464 -0.9951 -0.0869
vn 0.0464 0.9951 -0.0869
vn 0.4691 0.0975 -0.8777
vn 0.1374 -0.9565 -0.2571
vn 0.4513 0.2890 -0.8443
vn 0.2230 -0.8810 -0.4173
vn 0.0846 0.9565 -0.2790
vn 0.2889 -0.0975 -0.9524
vn 0.0286 -0.9951 -0.0942
vn 0.0286 0.9951 -0.0942
vn 0.2889 0.0975 -0.9524
vn 0.0846 -0.9565 -0.2790
vn 0.2779 0.2890 -0.9161
vn 0.1374 -0.8810 -0.4528
vn 0.2563 0.4696 -0.8448
vn 0.1847 -0.7715 -0.6088
vn 0.2248 0.6326 -0.7412
vn 0.2248 -0.6326 -0.7412
vn 0.1847 0.7715 -0.6088
vn 0.2563 -0.4696 -0.8448
vn 0.1374 0.8810 -0.4528
vn 0.2779 -0.2890 -0.9161
vn 0.0624 -0.7715 -0.6332
vn 0.0759 0.6326 -0.7708
vn 0.0759 -0.6326 -0.7708
vn 0.0624 0.7715 -0.6332
vn 0.0865 -0.4696 -0.8786
vn 0.0464 0.8810 -0.4709
vn 0.0938 -0.2890 -0.9527
vn 0.0286 0.9565 -0.2902
vn 0.0975 -0.0975 -0.9904
vn 0.0097 -0.9951 -0.0980
vn 0.0097 0.9951 -0.0980
vn 0.0975 0.0975 -0.9904
vn 0.0286 -0.9565 -0.2902
vn 0.0938 0.2890 -0.9527
vn 0.0464 -0.8810 -0.4709
vn 0.0865 0.4696 -0.8786
vn -0.0976 -0.0975 -0.9904
vn -0.0097 -0.9951 -0.0980
vn -0.0097 0.9951 -0.0980
vn -0.0975 0.0975 -0.9904
vn -0.0286 -0.9565 -0.2902
vn -0.0938 0.2890 -0.9527
vn -0.0464 -0.8810 -0.4709
vn -0.0865 0.4696 -0.8786
vn -0.0624 -0.7715 -0.6332
vn -0.0759 0.6326 -0.7708
vn -0.0759 -0.6326 -0.7708
vn -0.0624 0.7715 -0.6332
vn -0.0865 -0.4696 -0.8786
vn -0.0464 0.8810 -0.4709
vn -0.0938 -0.2890 -0.9527
vn -0.0286 0.9565 -0.2902
vn -0.2248 0.6326 -0.7412
vn -0.2248 -0.6326 -0.7412
vn -0.1847 0.7715 -0.6088
vn -0.2563 -0.4696 -0.8448
vn -0.1374 0.8810 -0.4528
vn -0.2779 -0.2890 -0.9161
vn -0.0846 0.9565 -0.2790
vn -0.2889 -0.0975 -0.9524
vn -0.0286 -0.9951 -0.0942
vn -0.0286 0.9951 -0.0942
vn -0.2889 0.0975 -0.9524
vn -0.0846 -0.9565 -0.2790
vn -0.2779 0.2890 -0.9161
vn -0.1374 -0.8810 -0.4528
vn -0.2563 0.4696 -0.8448
vn -0.1847 -0.7715 -0.6088
vn -0.0464 -0.9951 -0.0869
vn -0.0464 0.9951 -0.0869
vn -0.4691 0.0975 -0.8777
vn -0.1374 -0.9565 -0.2571
vn -0.4513 0.2890 -0.8443
vn -0.2231 -0.8810 -0.4173
vn -0.2230 -0.8810 -0.4173
vn -0.4162 0.4696 -0.7786
vn -0.2999 -0.7715 -0.5611
vn -0.3651 0.6326 -0.6831
vn -0.3651 -0.6326 -0.6831
vn -0.2999 0.7715 -0.5611
vn -0.4162 -0.4696 -0.7786
vn -0.2231 0.8810 -0.4173
vn -0.2230 0.8810 -0.4173
vn -0.4513 -0.2890 -0.8443
vn -0.1374 0.9565 -0.2571
vn -0.4691 -0.0975 -0.8777
vn -0.4913 -0.6326 -0.5987
vn -0.4036 0.7715 -0.4918
vn -0.5601 -0.4696 -0.6825
vn -0.3002 0.8810 -0.3658
vn -0.6073 -0.2890 -0.7400
vn -0.1850 0.9565 -0.2254
vn -0.6314 -0.0975 -0.7693
vn -0.0625 -0.9951 -0.0761
vn -0.0625 0.9951 -0.0761
vn -0.6314 0.0975 -0.7693
vn -0.1850 -0.9566 -0.2254
vn -0.1850 -0.9565 -0.2254
vn -0.6073 0.2890 -0.7400
vn -0.3002 -0.8810 -0.3658
vn -0.5601 0.4696 -0.6825
vn -0.4036 -0.7715 -0.4918
vn -0.4913 0.6326 -0.5987
vn -0.7693 0.0975 -0.6314
vn -0.2254 -0.9565 -0.1850
vn -0.7400 0.2890 -0.6073
vn -0.3658 -0.8810 -0.3002
vn -0.6825 0.4696 -0.5601
vn -0.4918 -0.7715 -0.4036
vn -0.5987 0.6326 -0.4913
vn -0.5987 -0.6326 -0.4913
vn -0.4918 0.7715 -0.4036
vn -0.6825 -0.4696 -0.5601
vn -0.3658 0.8810 -0.3002
vn -0.7400 -0.2890 -0.6073
vn -0.2254 0.9565 -0.1850
vn -0.7693 -0.0975 -0.6314
vn -0.0761 -0.9951 -0.0625
vn -0.0761 0.9951 -0.0625
vn -0.5611 0.7715 -0.2999
vn -0.7786 -0.4696 -0.4162
vn -0.4173 0.8810 -0.2230
vn -0.8443 -0.2890 -0.4513
vn -0.2571 0.9565 -0.1374
vn -0.8777 -0.0975 -0.4691
vn -0.0869 -0.9951 -0.0464
vn -0.0869 0.9951 -0.0464
vn -0.8777 0.0975 -0.4691
vn -0.2571 -0.9565 -0.1374
vn -0.8443 0.2890 -0.4513
vn -0.4173 -0.8810 -0.2230
vn -0.7786 0.4696 -0.4162
vn -0.5611 -0.7715 -0.2999
vn -0.6831 0.6326 -0.3651
vn -0.6831 -0.6326 -0.3651
vn -0.9161 0.2890 -0.2779
vn -0.4528 -0.8810 -0.1374
vn -0.8448 0.4696 -0.2563
vn -0.6088 -0.7715 -0.1847
vn -0.7412 0.6326 -0.2248
vn -0.7412 -0.6326 -0.2248
vn -0.6088 0.7715 -0.1847
vn -0.8448 -0.4696 -0.2563
vn -0.4528 0.8810 -0.1374
vn -0.9161 -0.2890 -0.2779
vn -0.2790 0.9565 -0.0846
vn -0.9524 -0.0975 -0.2889
vn -0.0942 -0.9951 -0.0286
vn -0.0942 0.9951 -0.0286
vn -0.9524 0.0975 -0.2889
vn -0.2790 -0.9565 -0.0846
vn -0.4709 0.8810 -0.0464
vn -0.9527 -0.2890 -0.0938
vn -0.2902 0.9565 -0.0286
vn -0.9904 -0.0975 -0.0975
vn -0.0980 -0.9951 -0.0097
vn -0.0980 0.9951 -0.0097
vn -0.9904 0.0975 -0.0975
vn -0.9904 0.0975 -0.0976
vn -0.2902 -0.9565 -0.0286
vn -0.9527 0.2890 -0.0938
vn -0.4709 -0.8810 -0.0464
vn -0.8786 0.4696 -0.0865
vn -0.6332 -0.7715 -0.0624
vn -0.7708 0.6326 -0.0759
vn -0.7708 -0.6326 -0.0759
vn -0.6332 0.7715 -0.0624
vn -0.8786 -0.4696 -0.0865
vn -0.4709 -0.8810 0.0464
vn -0.8786 0.4696 0.0865
vn -0.6332 -0.7715 0.0624
vn -0.7708 0.6326 0.0759
vn -0.7708 -0.6326 0.0759
vn -0.6332 0.7715 0.0624
vn -0.8786 -0.4696 0.0865
vn -0.4709 0.8810 0.0464
vn -0.9527 -0.2890 0.0938
vn -0.2902 0.9565 0.0286
vn -0.9904 -0.0975 0.0976
vn -0.0980 -0.9951 0.0097
vn -0.0980 0.9951 0.0097
vn -0.9904 0.0975 0.0976
vn -0.2902 -0.9565 0.0286
vn -0.9527 0.2890 0.0938
vn -0.9161 -0.2890 0.2779
vn -0.2790 0.9565 0.0846
vn -0.9524 -0.0975 0.2889
vn -0.0942 -0.9951 0.0286
vn -0.0942 0.9951 0.0286
vn -0.9524 0.0975 0.2889
vn -0.2790 -0.9565 0.0846
vn -0.9161 0.2890 0.2779
vn -0.4528 -0.8810 0.1374
vn -0.8448 0.4696 0.2563
vn -0.6088 -0.7715 0.1847
vn -0.7412 0.6326 0.2248
vn -0.7412 -0.6326 0.2248
vn -0.6088 0.7715 0.1847
vn -0.8448 -0.4696 0.2563
vn -0.4528 0.8810 0.1374
vn -0.7786 0.4696 0.4162
vn -0.5611 -0.7715 0.2999
vn -0.6831 0.6326 0.3651
vn -0.6831 -0.6326 0.3651
vn -0.5611 0.7715 0.2999
vn -0.7786 -0.4696 0.4162
vn -0.4173 0.8810 0.2230
vn -0.4173 0.8810 0.2231
vn -0.8443 -0.2890 0.4513
vn -0.2571 0.9565 0.1374
vn -0.8777 -0.0975 0.4691
vn -0.0869 -0.9951 0.0464
vn -0.0869 0.9951 0.0464
vn -0.8777 0.0975 0.4691
vn -0.2571 -0.9565 0.1374
vn -0.8443 0.2890 0.4513
vn -0.4173 -0.8810 0.2231
vn -0.2254 0.9565 0.1850
vn -0.7693 -0.0975 0.6314
vn -0.0761 -0.9951 0.0625
vn -0.0761 0.9951 0.0625
vn -0.7693 0.0975 0.6314
vn -0.2254 -0.9566 0.1850
vn -0.2254 -0.9565 0.1850
vn -0.7400 0.2890 0.6073
vn -0.3658 -0.8810 0.3002
vn -0.6825 0.4696 0.5601
vn -0.4918 -0.7715 0.4036
vn -0.5987 0.6326 0.4913
vn -0.5987 -0.6326 0.4913
vn -0.4918 0.7715 0.4036
vn -0.6825 -0.4696 0.5601
vn -0.3658 0.8810 0.3002
vn -0.7400 -0.2890 0.6073
vn -0.4036 -0.7715 0.4918
vn -0.4913 0.6326 0.5987
vn -0.4913 -0.6326 0.5987
vn -0.4036 0.7715 0.4918
vn -0.5601 -0.4696 0.6825
vn -0.3002 0.8810 0.3658
vn -0.6073 -0.2890 0.7400
vn -0.1850 0.9565 0.2254
vn -0.6314 -0.0975 0.7693
vn -0.0625 -0.9951 0.0761
vn -0.0625 0.9951 0.0761
vn -0.6314 0.0975 0.7693
vn -0.1850 -0.9565 0.2254
vn -0.6073 0.2890 0.7400
vn -0.3002 -0.8810 0.3658
vn -0.5601 0.4696 0.6825
vn -0.4691 -0.0975 0.8777
vn -0.0464 -0.9951 0.0869
vn -0.0464 0.9951 0.0869
vn -0.4691 0.0975 0.8777
vn -0.1374 -0.9565 0.2571
vn -0.4513 0.2890 0.8443
vn -0.2230 -0.8810 0.4173
vn -0.2231 -0.8810 0.4173
vn -0.4162 0.4696 0.7786
vn -0.2999 -0.7715 0.5611
vn -0.3651 0.6326 0.6831
vn -0.3651 -0.6326 0.6831
vn -0.2999 0.7715 0.5611
vn -0.4162 -0.4696 0.7786
vn -0.2230 0.8810 0.4173
vn -0.4513 -0.2890 0.8443
vn -0.1374 0.9565 0.2571
vn -0.2248 0.6326 0.7412
vn -0.2248 -0.6326 0.7412
vn -0.1847 0.7715 0.6088
vn -0.2563 -0.4696 0.8448
vn -0.1374 0.8810 0.4528
vn -0.2779 -0.2890 0.9161
vn -0.0846 0.9565 0.2790
vn -0.2889 -0.0975 0.9524
vn -0.0286 -0.9951 0.0942
vn -0.0286 0.9951 0.0942
vn -0.2889 0.0975 0.9524
vn -0.0846 -0.9565 0.2790
vn -0.2779 0.2890 0.9161
vn -0.1374 -0.8810 0.4528
vn -0.2563 0.4696 0.8448
vn -0.1847 -0.7715 0.6088
vn -0.0097 0.9951 0.0980
vn -0.0975 0.0975 0.9904
vn -0.0286 -0.9565 0.2902
vn -0.0938 0.2890 0.9527
vn -0.0464 -0.8810 0.4709
vn -0.0865 0.4696 0.8786
vn -0.0624 -0.7715 0.6332
vn -0.0759 0.6326 0.7708
vn -0.0759 -0.6326 0.7708
vn -0.0624 0.7715 0.6332
vn -0.0865 -0.4696 0.8786
vn -0.0464 0.8810 0.4709
vn -0.0938 -0.2890 0.9527
vn -0.0286 0.9565 0.2902
vn -0.0976 -0.0975 0.9904
vn -0.0975 -0.0975 0.9904
vn -0.0097 -0.9951 0.0980
vn 0.0975 0.0976 0.9904
vn 0.2231 -0.8810 0.4173
vn 0.8777 0.0975 0.4691
vn 0.8777 -0.0975 0.4691
vn 0.9904 -0.0975 -0.0976
vn 0.9904 0.0975 -0.0975
vn -0.0975 -0.0975 -0.9904
vn -0.1374 -0.9566 -0.2571
vn -0.4173 -0.8810 -0.2231
vn -0.9904 -0.0975 -0.0976
vt 0.750000 0.937500
vt 0.734375 1.000000
vt 0.718750 0.937500
vt 0.734375 0.000000
vt 0.750000 0.062500
vt 0.718750 0.062500
vt 0.750000 0.500000
vt 0.718750 0.437500
vt 0.750000 0.437500
vt 0.718750 0.875000
vt 0.750000 0.875000
vt 0.718750 0.375000
vt 0.750000 0.375000
vt 0.750000 0.812500
vt 0.718750 0.812500
vt 0.718750 0.312500
vt 0.750000 0.312500
vt 0.718750 0.750000
vt 0.750000 0.750000
vt 0.750000 0.250000
vt 0.718750 0.250000
vt 0.750000 0.687500
vt 0.718750 0.687500
vt 0.718750 0.187500
vt 0.750000 0.187500
vt 0.718750 0.625000
vt 0.750000 0.625000
vt 0.718750 0.125000
vt 0.750000 0.125000
vt 0.718750 0.562500
vt 0.750000 0.562500
vt 0.718750 0.500000
vt 0.687500 0.562500
vt 0.687500 0.062500
vt 0.687500 0.500000
vt 0.703125 1.000000
vt 0.687500 0.937500
vt 0.703125 0.000000
vt 0.687500 0.437500
vt 0.687500 0.875000
vt 0.687500 0.375000
vt 0.687500 0.812500
vt 0.687500 0.312500
vt 0.687500 0.750000
vt 0.687500 0.250000
vt 0.687500 0.687500
vt 0.687500 0.187500
vt 0.687500 0.625000
vt 0.687500 0.125000
vt 0.656250 0.375000
vt 0.656250 0.312500
vt 0.656250 0.750000
vt 0.656250 0.250000
vt 0.656250 0.687500
vt 0.656250 0.187500
vt 0.656250 0.625000
vt 0.656250 0.125000
vt 0.656250 0.562500
vt 0.656250 0.062500
vt 0.656250 0.500000
vt 0.671875 1.000000
vt 0.656250 0.937500
vt 0.671875 0.000000
vt 0.656250 0.437500
vt 0.656250 0.875000
vt 0.656250 0.812500
vt 0.625000 0.062500
vt 0.625000 0.562500
vt 0.625000 0.500000
vt 0.640625 1.000000
vt 0.625000 0.937500
vt 0.640625 0.000000
vt 0.625000 0.437500
vt 0.625000 0.875000
vt 0.625000 0.375000
vt 0.625000 0.812500
vt 0.625000 0.312500
vt 0.625000 0.750000
vt 0.625000 0.250000
vt 0.625000 0.687500
vt 0.625000 0.187500
vt 0.625000 0.625000
vt 0.625000 0.125000
vt 0.593750 0.250000
vt 0.593750 0.687500
vt 0.593750 0.187500
vt 0.593750 0.625000
vt 0.593750 0.125000
vt 0.593750 0.562500
vt 0.593750 0.062500
vt 0.593750 0.500000
vt 0.609375 1.000000
vt 0.593750 0.937500
vt 0.609375 0.000000
vt 0.593750 0.437500
vt 0.593750 0.875000
vt 0.593750 0.375000
vt 0.593750 0.812500
vt 0.593750 0.312500
vt 0.593750 0.750000
vt 0.578125 1.000000
vt 0.562500 0.937500
vt 0.578125 0.000000
vt 0.562500 0.062500
vt 0.562500 0.437500
vt 0.562500 0.875000
vt 0.562500 0.375000
vt 0.562500 0.812500
vt 0.562500 0.312500
vt 0.562500 0.750000
vt 0.562500 0.250000
vt 0.562500 0.687500
vt 0.562500 0.187500
vt 0.562500 0.625000
vt 0.562500 0.125000
vt 0.562500 0.562500
vt 0.562500 0.500000
vt 0.531250 0.750000
vt 0.531250 0.687500
vt 0.531250 0.250000
vt 0.531250 0.187500
vt 0.531250 0.625000
vt 0.531250 0.125000
vt 0.531250 0.562500
vt 0.531250 0.062500
vt 0.531250 0.500000
vt 0.546875 1.000000
vt 0.531250 0.937500
vt 0.546875 0.000000
vt 0.531250 0.437500
vt 0.531250 0.875000
vt 0.531250 0.375000
vt 0.531250 0.812500
vt 0.531250 0.312500
vt 0.500000 0.437500
vt 0.500000 0.875000
vt 0.500000 0.375000
vt 0.500000 0.812500
vt 0.500000 0.312500
vt 0.500000 0.750000
vt 0.500000 0.250000
vt 0.500000 0.687500
vt 0.500000 0.187500
vt 0.500000 0.625000
vt 0.500000 0.125000
vt 0.500000 0.562500
vt 0.500000 0.062500
vt 0.500000 0.500000
vt 0.515625 1.000000
vt 0.500000 0.937500
vt 0.515625 0.000000
vt 0.468750 0.250000
vt 0.468750 0.187500
vt 0.468750 0.625000
vt 0.468750 0.125000
vt 0.468750 0.562500
vt 0.468750 0.062500
vt 0.468750 0.500000
vt 0.484375 1.000000
vt 0.468750 0.937500
vt 0.484375 0.000000
vt 0.468750 0.437500
vt 0.468750 0.875000
vt 0.468750 0.375000
vt 0.468750 0.812500
vt 0.468750 0.312500
vt 0.468750 0.750000
vt 0.468750 0.687500
vt 0.437500 0.937500
vt 0.437500 0.875000
vt 0.437500 0.375000
vt 0.437500 0.812500
vt 0.437500 0.312500
vt 0.437500 0.750000
vt 0.437500 0.250000
vt 0.437500 0.687500
vt 0.437500 0.187500
vt 0.437500 0.625000
vt 0.437500 0.125000
vt 0.437500 0.562500
vt 0.437500 0.062500
vt 0.437500 0.500000
vt 0.453125 1.000000
vt 0.453125 0.000000
vt 0.437500 0.437500
vt 0.406250 0.625000
vt 0.406250 0.125000
vt 0.406250 0.562500
vt 0.406250 0.062500
vt 0.406250 0.500000
vt 0.421875 1.000000
vt 0.406250 0.937500
vt 0.421875 0.000000
vt 0.406250 0.437500
vt 0.406250 0.875000
vt 0.406250 0.375000
vt 0.406250 0.812500
vt 0.406250 0.312500
vt 0.406250 0.750000
vt 0.406250 0.250000
vt 0.406250 0.687500
vt 0.406250 0.187500
vt 0.375000 0.437500
vt 0.375000 0.375000
vt 0.375000 0.812500
vt 0.375000 0.312500
vt 0.375000 0.750000
vt 0.375000 0.250000
vt 0.375000 0.687500
vt 0.375000 0.187500
vt 0.375000 0.625000
vt 0.375000 0.125000
vt 0.375000 0.562500
vt 0.375000 0.062500
vt 0.375000 0.500000
vt 0.390625 1.000000
vt 0.375000 0.937500
vt 0.390625 0.000000
vt 0.375000 0.875000
vt 0.343750 0.125000
vt 0.343750 0.562500
vt 0.343750 0.062500
vt 0.343750 0.500000
vt 0.359375 1.000000
vt 0.343750 0.937500
vt 0.359375 0.000000
vt 0.343750 0.437500
vt 0.343750 0.875000
vt 0.343750 0.375000
vt 0.343750 0.812500
vt 0.343750 0.312500
vt 0.343750 0.750000
vt 0.343750 0.250000
vt 0.343750 0.687500
vt 0.343750 0.187500
vt 0.343750 0.625000
vt 0.312500 0.312500
vt 0.312500 0.812500
vt 0.312500 0.750000
vt 0.312500 0.250000
vt 0.312500 0.687500
vt 0.312500 0.187500
vt 0.312500 0.625000
vt 0.312500 0.125000
vt 0.312500 0.562500
vt 0.312500 0.062500
vt 0.312500 0.500000
vt 0.328125 1.000000
vt 0.312500 0.937500
vt 0.328125 0.000000
vt 0.312500 0.437500
vt 0.312500 0.875000
vt 0.312500 0.375000
vt 0.281250 0.062500
vt 0.281250 0.562500
vt 0.281250 0.500000
vt 0.296875 1.000000
vt 0.281250 0.937500
vt 0.296875 0.000000
vt 0.281250 0.437500
vt 0.281250 0.875000
vt 0.281250 0.375000
vt 0.281250 0.812500
vt 0.281250 0.312500
vt 0.281250 0.750000
vt 0.281250 0.250000
vt 0.281250 0.687500
vt 0.281250 0.187500
vt 0.281250 0.625000
vt 0.281250 0.125000
vt 0.250000 0.750000
vt 0.250000 0.250000
vt 0.250000 0.687500
vt 0.250000 0.187500
vt 0.250000 0.625000
vt 0.250000 0.125000
vt 0.250000 0.562500
vt 0.250000 0.062500
vt 0.250000 0.500000
vt 0.265625 1.000000
vt 0.250000 0.937500
vt 0.265625 0.000000
vt 0.250000 0.437500
vt 0.250000 0.875000
vt 0.250000 0.375000
vt 0.250000 0.812500
vt 0.250000 0.312500
vt 0.218750 0.562500
vt 0.218750 0.500000
vt 0.234375 1.000000
vt 0.218750 0.937500
vt 0.234375 0.000000
vt 0.218750 0.062500
vt 0.218750 0.437500
vt 0.218750 0.875000
vt 0.218750 0.375000
vt 0.218750 0.812500
vt 0.218750 0.312500
vt 0.218750 0.750000
vt 0.218750 0.250000
vt 0.218750 0.687500
vt 0.218750 0.187500
vt 0.218750 0.625000
vt 0.218750 0.125000
vt 0.187500 0.250000
vt 0.187500 0.687500
vt 0.187500 0.187500
vt 0.187500 0.625000
vt 0.187500 0.125000
vt 0.187500 0.562500
vt 0.187500 0.062500
vt 0.187500 0.500000
vt 0.203125 1.000000
vt 0.187500 0.937500
vt 0.203125 0.000000
vt 0.187500 0.437500
vt 0.187500 0.875000
vt 0.187500 0.375000
vt 0.187500 0.812500
vt 0.187500 0.312500
vt 0.187500 0.750000
vt 0.171875 1.000000
vt 0.156250 0.937500
vt 0.171875 0.000000
vt 0.156250 0.062500
vt 0.156250 0.437500
vt 0.156250 0.875000
vt 0.156250 0.375000
vt 0.156250 0.812500
vt 0.156250 0.312500
vt 0.156250 0.750000
vt 0.156250 0.250000
vt 0.156250 0.687500
vt 0.156250 0.187500
vt 0.156250 0.625000
vt 0.156250 0.125000
vt 0.156250 0.562500
vt 0.156250 0.500000
vt 0.125000 0.750000
vt 0.125000 0.687500
vt 0.125000 0.250000
vt 0.125000 0.187500
vt 0.125000 0.625000
vt 0.125000 0.125000
vt 0.125000 0.562500
vt 0.125000 0.062500
vt 0.125000 0.500000
vt 0.140625 1.000000
vt 0.125000 0.937500
vt 0.140625 0.000000
vt 0.125000 0.437500
vt 0.125000 0.875000
vt 0.125000 0.375000
vt 0.125000 0.812500
vt 0.125000 0.312500
vt 0.093750 0.437500
vt 0.093750 0.875000
vt 0.093750 0.375000
vt 0.093750 0.812500
vt 0.093750 0.312500
vt 0.093750 0.750000
vt 0.093750 0.250000
vt 0.093750 0.687500
vt 0.093750 0.187500
vt 0.093750 0.625000
vt 0.093750 0.125000
vt 0.093750 0.562500
vt 0.093750 0.062500
vt 0.093750 0.500000
vt 0.109375 1.000000
vt 0.093750 0.937500
vt 0.109375 0.000000
vt 0.062500 0.250000
vt 0.062500 0.187500
vt 0.062500 0.687500
vt 0.062500 0.625000
vt 0.062500 0.125000
vt 0.062500 0.562500
vt 0.062500 0.062500
vt 0.062500 0.500000
vt 0.078125 1.000000
vt 0.062500 0.937500
vt 0.078125 0.000000
vt 0.062500 0.437500
vt 0.062500 0.875000
vt 0.062500 0.375000
vt 0.062500 0.812500
vt 0.062500 0.312500
vt 0.062500 0.750000
vt 0.031250 0.437500
vt 0.031250 0.375000
vt 0.031250 0.875000
vt 0.031250 0.812500
vt 0.031250 0.312500
vt 0.031250 0.750000
vt 0.031250 0.250000
vt 0.031250 0.687500
vt 0.031250 0.187500
vt 0.031250 0.625000
vt 0.031250 0.125000
vt 0.031250 0.562500
vt 0.031250 0.062500
vt 0.031250 0.500000
vt 0.046875 1.000000
vt 0.031250 0.937500
vt 0.046875 0.000000
vt 0.000000 0.125000
vt 0.000000 0.562500
vt 0.000000 0.062500
vt 0.000000 0.500000
vt 0.015625 1.000000
vt 0.000000 0.937500
vt 0.015625 0.000000
vt 0.000000 0.437500
vt 0.000000 0.875000
vt 0.000000 0.375000
vt 0.000000 0.812500
vt 0.000000 0.312500
vt 0.000000 0.750000
vt 0.000000 0.250000
vt 0.000000 0.687500
vt 0.000000 0.187500
vt 0.000000 0.625000
vt 1.000000 0.875000
vt 0.968750 0.812500
vt 1.000000 0.812500
vt 1.000000 0.375000
vt 0.968750 0.312500
vt 1.000000 0.312500
vt 0.968750 0.750000
vt 1.000000 0.750000
vt 0.968750 0.250000
vt 1.000000 0.250000
vt 0.968750 0.687500
vt 1.000000 0.687500
vt 1.000000 0.187500
vt 0.968750 0.187500
vt 0.968750 0.625000
vt 1.000000 0.625000
vt 0.968750 0.125000
vt 1.000000 0.125000
vt 0.968750 0.562500
vt 1.000000 0.562500
vt 0.968750 0.062500
vt 1.000000 0.062500
vt 1.000000 0.500000
vt 0.968750 0.500000
vt 1.000000 0.937500
vt 0.984375 1.000000
vt 0.968750 0.937500
vt 0.984375 0.000000
vt 0.968750 0.437500
vt 1.000000 0.437500
vt 0.968750 0.875000
vt 0.968750 0.375000
vt 0.937500 0.625000
vt 0.937500 0.562500
vt 0.937500 0.062500
vt 0.937500 0.500000
vt 0.953125 1.000000
vt 0.937500 0.937500
vt 0.953125 0.000000
vt 0.937500 0.437500
vt 0.937500 0.875000
vt 0.937500 0.375000
vt 0.937500 0.812500
vt 0.937500 0.312500
vt 0.937500 0.750000
vt 0.937500 0.250000
vt 0.937500 0.687500
vt 0.937500 0.187500
vt 0.937500 0.125000
vt 0.906250 0.312500
vt 0.906250 0.750000
vt 0.906250 0.250000
vt 0.906250 0.687500
vt 0.906250 0.187500
vt 0.906250 0.625000
vt 0.906250 0.125000
vt 0.906250 0.562500
vt 0.906250 0.062500
vt 0.906250 0.500000
vt 0.921875 1.000000
vt 0.906250 0.937500
vt 0.921875 0.000000
vt 0.906250 0.437500
vt 0.906250 0.875000
vt 0.906250 0.375000
vt 0.906250 0.812500
vt 0.875000 0.062500
vt 0.875000 0.562500
vt 0.875000 0.500000
vt 0.890625 1.000000
vt 0.875000 0.937500
vt 0.890625 0.000000
vt 0.875000 0.437500
vt 0.875000 0.875000
vt 0.875000 0.375000
vt 0.875000 0.812500
vt 0.875000 0.312500
vt 0.875000 0.750000
vt 0.875000 0.250000
vt 0.875000 0.687500
vt 0.875000 0.187500
vt 0.875000 0.625000
vt 0.875000 0.125000
vt 0.843750 0.812500
vt 0.843750 0.750000
vt 0.843750 0.312500
vt 0.843750 0.250000
vt 0.843750 0.687500
vt 0.843750 0.187500
vt 0.843750 0.625000
vt 0.843750 0.125000
vt 0.843750 0.562500
vt 0.843750 0.062500
vt 0.843750 0.500000
vt 0.859375 1.000000
vt 0.843750 0.937500
vt 0.859375 0.000000
vt 0.843750 0.437500
vt 0.843750 0.875000
vt 0.843750 0.375000
vt 0.812500 0.562500
vt 0.812500 0.500000
vt 0.828125 1.000000
vt 0.812500 0.937500
vt 0.828125 0.000000
vt 0.812500 0.062500
vt 0.812500 0.437500
vt 0.812500 0.875000
vt 0.812500 0.375000
vt 0.812500 0.812500
vt 0.812500 0.312500
vt 0.812500 0.750000
vt 0.812500 0.250000
vt 0.812500 0.687500
vt 0.812500 0.187500
vt 0.812500 0.625000
vt 0.812500 0.125000
vt 0.781250 0.250000
vt 0.781250 0.687500
vt 0.781250 0.187500
vt 0.781250 0.625000
vt 0.781250 0.125000
vt 0.781250 0.562500
vt 0.781250 0.062500
vt 0.781250 0.500000
vt 0.796875 1.000000
vt 0.781250 0.937500
vt 0.796875 0.000000
vt 0.781250 0.437500
vt 0.781250 0.875000
vt 0.781250 0.375000
vt 0.781250 0.812500
vt 0.781250 0.312500
vt 0.781250 0.750000
vt 0.765625 0.000000
vt 0.765625 1.000000
s 1
usemtl Material.001
f 1/1/1 326/2/1 11/3/1
f 482/4/2 481/5/2 25/6/2
f 477/7/3 19/8/3 478/9/3
f 1/1/4 12/10/4 2/11/4
f 478/9/5 20/12/5 479/13/5
f 3/14/6 12/10/6 13/15/6
f 479/13/7 21/16/7 8/17/7
f 3/14/8 14/18/8 4/19/8
f 9/20/9 21/16/9 22/21/9
f 5/22/10 14/18/10 15/23/10
f 9/20/11 23/24/11 10/25/11
f 5/22/12 16/26/12 6/27/12
f 10/25/13 24/28/13 480/29/13
f 6/27/14 17/30/14 7/31/14
f 480/29/15 25/6/15 481/5/15
f 477/7/16 17/30/16 18/32/16
f 16/26/17 32/33/17 17/30/17
f 24/28/18 40/34/18 25/6/18
f 17/30/19 33/35/19 18/32/19
f 11/3/20 326/36/20 26/37/20
f 482/38/21 25/6/21 40/34/21
f 18/32/22 34/39/22 19/8/23
f 11/3/24 27/40/24 12/10/25
f 19/8/26 35/41/26 20/12/26
f 12/10/27 28/42/27 13/15/27
f 21/16/28 35/41/28 36/43/28
f 13/15/29 29/44/29 14/18/29
f 21/16/30 37/45/30 22/21/30
f 14/18/31 30/46/31 15/23/31
f 22/21/32 38/47/32 23/24/32
f 16/26/33 30/46/33 31/48/33
f 24/28/34 38/47/34 39/49/34
f 36/43/35 50/50/35 51/51/35
f 28/42/36 44/52/36 29/44/36
f 37/45/37 51/51/37 52/53/37
f 29/44/38 45/54/38 30/46/38
f 37/45/39 53/55/39 38/47/39
f 31/48/40 45/54/40 46/56/40
f 38/47/41 54/57/41 39/49/41
f 31/48/42 47/58/42 32/33/42
f 40/34/43 54/57/43 55/59/43
f 32/33/44 48/60/44 33/35/44
f 26/37/45 326/61/45 41/62/45
f 482/63/46 40/34/46 55/59/46
f 33/35/47 49/64/47 34/39/47
f 26/37/48 42/65/49 27/40/49
f 35/41/50 49/64/50 50/50/50
f 27/40/51 43/66/51 28/42/51
f 54/57/52 70/67/52 55/59/52
f 48/60/53 62/68/53 63/69/53
f 41/62/54 326/70/54 56/71/54
f 482/72/55 55/59/55 70/67/55
f 48/60/56 64/73/56 49/64/56
f 41/62/57 57/74/57 42/65/57
f 49/64/58 65/75/58 50/50/58
f 42/65/59 58/76/59 43/66/59
f 51/51/60 65/75/60 66/77/60
f 43/66/61 59/78/61 44/52/61
f 51/51/62 67/79/62 52/53/62
f 44/52/63 60/80/63 45/54/63
f 52/53/64 68/81/64 53/55/64
f 46/56/65 60/80/65 61/82/65
f 53/55/66 69/83/66 54/57/66
f 46/56/67 62/68/67 47/58/67
f 66/77/68 82/84/68 67/79/68
f 59/78/69 75/85/69 60/80/69
f 68/81/70 82/84/70 83/86/70
f 61/82/71 75/85/71 76/87/71
f 69/83/72 83/86/72 84/88/72
f 62/68/73 76/87/73 77/89/73
f 70/67/74 84/88/74 85/90/74
f 62/68/75 78/91/75 63/69/75
f 56/71/76 326/92/76 71/93/76
f 482/94/77 70/67/77 85/90/77
f 63/69/78 79/95/78 64/73/78
f 56/71/79 72/96/79 57/74/79
f 64/73/80 80/97/80 65/75/80
f 57/74/81 73/98/81 58/76/81
f 66/77/82 80/97/82 81/99/82
f 58/76/83 74/100/83 59/78/83
f 71/93/84 326/101/84 86/102/84
f 482/103/85 85/90/85 100/104/85
f 78/91/86 94/105/86 79/95/86
f 71/93/87 87/106/87 72/96/87
f 79/95/88 95/107/88 80/97/88
f 72/96/89 88/108/89 73/98/89
f 80/97/90 96/109/90 81/99/90
f 73/98/91 89/110/91 74/100/91
f 81/99/92 97/111/92 82/84/92
f 74/100/93 90/112/93 75/85/93
f 83/86/94 97/111/94 98/113/94
f 75/85/95 91/114/95 76/87/95
f 84/88/96 98/113/97 99/115/96
f 77/89/98 91/114/98 92/116/98
f 84/88/99 100/104/99 85/90/99
f 77/89/100 93/117/100 78/91/100
f 90/112/101 104/118/101 105/119/101
f 98/113/102 112/120/102 113/121/102
f 90/112/103 106/122/103 91/114/103
f 99/115/104 113/121/104 114/123/104
f 92/116/105 106/122/105 107/124/105
f 99/115/106 115/125/106 100/104/106
f 92/116/107 108/126/107 93/117/107
f 86/102/108 326/127/108 101/128/108
f 482/129/109 100/104/109 115/125/109
f 93/117/110 109/130/110 94/105/110
f 86/102/111 102/131/111 87/106/111
f 95/107/112 109/130/112 110/132/112
f 87/106/113 103/133/113 88/108/113
f 95/107/114 111/134/114 96/109/114
f 88/108/115 104/118/115 89/110/115
f 96/109/116 112/120/116 97/111/116
f 108/126/117 124/135/117 109/130/117
f 101/128/118 117/136/118 102/131/118
f 110/132/119 124/135/119 125/137/119
f 102/131/120 118/138/120 103/133/120
f 110/132/121 126/139/121 111/134/121
f 103/133/122 119/140/122 104/118/122
f 111/134/123 127/141/123 112/120/123
f 104/118/124 120/142/124 105/119/124
f 113/121/125 127/141/125 128/143/125
f 105/119/126 121/144/126 106/122/126
f 114/123/127 128/143/127 129/145/127
f 107/124/128 121/144/128 122/146/128
f 115/125/129 129/145/129 130/147/129
f 108/126/130 122/146/130 123/148/130
f 101/128/131 326/149/131 116/150/131
f 482/151/132 115/125/132 130/147/132
f 128/143/133 142/152/133 143/153/133
f 120/142/134 136/154/134 121/144/134
f 128/143/135 144/155/135 129/145/135
f 122/146/136 136/154/136 137/156/136
f 129/145/137 145/157/137 130/147/137
f 123/148/138 137/156/138 138/158/138
f 116/150/139 326/159/139 131/160/139
f 482/161/140 130/147/140 145/157/140
f 123/148/141 139/162/141 124/135/141
f 116/150/142 132/163/142 117/136/142
f 125/137/143 139/162/143 140/164/143
f 117/136/144 133/165/144 118/138/144
f 125/137/145 141/166/145 126/139/145
f 119/140/146 133/165/146 134/167/146
f 126/139/147 142/152/147 127/141/147
f 120/142/148 134/167/148 135/168/148
f 132/163/149 146/169/149 147/170/149
f 139/162/150 155/171/150 140/164/150
f 133/165/151 147/170/151 148/172/151
f 140/164/152 156/173/152 141/166/152
f 133/165/153 149/174/153 134/167/153
f 142/152/154 156/173/154 157/175/154
f 135/168/155 149/174/155 150/176/155
f 143/153/156 157/175/156 158/177/156
f 135/168/157 151/178/157 136/154/157
f 144/155/158 158/177/158 159/179/158
f 136/154/159 152/180/159 137/156/159
f 145/157/160 159/179/160 160/181/160
f 137/156/161 153/182/161 138/158/161
f 131/160/162 326/183/162 146/169/162
f 482/184/163 145/157/163 160/181/163
f 138/158/164 154/185/164 139/162/164
f 150/176/165 166/186/165 151/178/165
f 158/177/166 174/187/166 159/179/167
f 152/180/168 166/186/168 167/188/168
f 159/179/169 175/189/169 160/181/169
f 152/180/170 168/190/170 153/182/170
f 146/169/171 326/191/171 161/192/171
f 482/193/172 160/181/172 175/189/172
f 153/182/173 169/194/173 154/185/173
f 147/170/174 161/192/174 162/195/174
f 154/185/175 170/196/175 155/171/175
f 148/172/176 162/195/176 163/197/176
f 155/171/177 171/198/177 156/173/177
f 148/172/178 164/199/178 149/174/178
f 157/175/179 171/198/179 172/200/179
f 150/176/180 164/199/180 165/201/180
f 157/175/181 173/202/181 158/177/181
f 170/196/182 184/203/182 185/204/182
f 162/195/183 178/205/183 163/197/183
f 170/196/184 186/206/184 171/198/184
f 163/197/185 179/207/185 164/199/185
f 171/198/186 187/208/186 172/200/186
f 164/199/187 180/209/187 165/201/187
f 172/200/188 188/210/188 173/202/188
f 166/186/189 180/209/189 181/211/189
f 173/202/190 189/212/190 174/187/190
f 166/186/191 182/213/191 167/188/191
f 174/187/192 190/214/192 175/189/192
f 168/190/193 182/213/193 183/215/193
f 161/192/194 326/216/194 176/217/194
f 482/218/195 175/189/195 190/214/195
f 168/190/196 184/203/196 169/194/196
f 161/192/197 177/219/197 162/195/197
f 188/210/198 204/220/198 189/212/198
f 181/211/199 197/221/199 182/213/199
f 190/214/200 204/220/200 205/222/200
f 183/215/201 197/221/201 198/223/201
f 176/217/202 326/224/202 191/225/202
f 482/226/203 190/214/203 205/222/203
f 183/215/204 199/227/204 184/203/204
f 177/219/205 191/225/205 192/228/205
f 185/204/206 199/227/206 200/229/206
f 177/219/207 193/230/207 178/205/207
f 186/206/208 200/229/208 201/231/208
f 178/205/209 194/232/209 179/207/209
f 186/206/210 202/233/210 187/208/210
f 180/209/211 194/232/211 195/234/211
f 188/210/212 202/233/212 203/235/212
f 181/211/213 195/234/213 196/236/213
f 200/229/214 216/237/214 201/231/214
f 194/232/215 208/238/215 209/239/215
f 201/231/216 217/240/216 202/233/216
f 194/232/217 210/241/217 195/234/217
f 202/233/218 218/242/218 203/235/218
f 196/236/219 210/241/219 211/243/219
f 203/235/220 219/244/220 204/220/220
f 197/221/221 211/243/221 212/245/221
f 204/220/222 220/246/222 205/222/222
f 198/223/223 212/245/223 213/247/223
f 191/225/224 326/248/224 206/249/224
f 482/250/225 205/222/225 220/246/225
f 198/223/226 214/251/226 199/227/226
f 191/225/227 207/252/227 192/228/227
f 199/227/228 215/253/228 200/229/228
f 193/230/229 207/252/229 208/238/229
f 219/244/230 235/254/230 220/246/230
f 213/247/231 227/255/231 228/256/231
f 206/249/232 326/257/232 221/258/232
f 482/259/233 220/246/233 235/254/233
f 213/247/234 229/260/234 214/251/234
f 207/252/235 221/258/235 222/261/235
f 214/251/236 230/262/236 215/253/236
f 208/238/237 222/261/237 223/263/237
f 215/253/238 231/264/238 216/237/238
f 208/238/239 224/265/239 209/239/239
f 216/237/240 232/266/240 217/240/240
f 209/239/241 225/267/241 210/241/241
f 218/242/242 232/266/242 233/268/242
f 211/243/243 225/267/243 226/269/243
f 218/242/244 234/270/244 219/244/244
f 212/245/245 226/269/245 227/255/245
f 223/263/246 239/271/246 224/265/246
f 231/264/247 247/272/247 232/266/247
f 224/265/248 240/273/248 225/267/248
f 233/268/249 247/272/249 248/274/249
f 225/267/250 241/275/250 226/269/250
f 233/268/251 249/276/251 234/270/251
f 227/255/252 241/275/252 242/277/252
f 235/254/253 249/276/253 250/278/253
f 228/256/254 242/277/254 243/279/254
f 221/258/255 326/280/255 236/281/255
f 482/282/256 235/254/256 250/278/256
f 228/256/257 244/283/257 229/260/257
f 221/258/258 237/284/258 222/261/258
f 229/260/259 245/285/259 230/262/259
f 222/261/260 238/286/260 223/263/260
f 230/262/261 246/287/261 231/264/261
f 243/279/262 257/288/262 258/289/262
f 236/281/263 326/290/263 251/291/263
f 482/292/264 250/278/264 265/293/264
f 243/279/265 259/294/265 244/283/265
f 236/281/266 252/295/266 237/284/266
f 245/285/267 259/294/267 260/296/267
f 237/284/268 253/297/268 238/286/268
f 245/285/269 261/298/269 246/287/269
f 238/286/270 254/299/270 239/271/270
f 246/287/271 262/300/271 247/272/271
f 240/273/272 254/299/272 255/301/272
f 248/274/273 262/300/273 263/302/273
f 240/273/274 256/303/274 241/275/274
f 248/274/275 264/304/275 249/276/275
f 242/277/276 256/303/276 257/288/276
f 249/276/277 265/293/277 250/278/277
f 261/298/278 277/305/278 262/300/278
f 254/299/279 270/306/279 255/301/279
f 263/302/280 277/305/280 278/307/280
f 255/301/281 271/308/281 256/303/281
f 263/302/282 279/309/282 264/304/282
f 257/288/283 271/308/283 272/310/283
f 265/293/284 279/309/284 280/311/284
f 258/289/285 272/310/285 273/312/285
f 251/291/286 326/313/286 266/314/286
f 482/315/287 265/293/287 280/311/287
f 258/289/288 274/316/288 259/294/288
f 251/291/289 267/317/289 252/295/289
f 260/296/290 274/316/290 275/318/290
f 252/295/291 268/319/291 253/297/291
f 260/296/292 276/320/292 261/298/292
f 253/297/293 269/321/293 254/299/293
f 266/314/294 326/322/294 281/323/294
f 482/324/295 280/311/295 295/325/295
f 273/312/296 289/326/296 274/316/296
f 266/314/297 282/327/297 267/317/297
f 275/318/298 289/326/298 290/328/298
f 267/317/299 283/329/300 268/319/300
f 275/318/301 291/330/301 276/320/301
f 268/319/302 284/331/302 269/321/302
f 277/305/303 291/330/303 292/332/303
f 270/306/304 284/331/304 285/333/304
f 278/307/305 292/332/305 293/334/305
f 270/306/306 286/335/306 271/308/306
f 279/309/307 293/334/308 294/336/307
f 272/310/309 286/335/309 287/337/309
f 279/309/310 295/325/310 280/311/310
f 273/312/311 287/337/311 288/338/311
f 285/333/312 299/339/312 300/340/312
f 293/334/313 307/341/313 308/342/313
f 285/333/314 301/343/314 286/335/314
f 294/336/315 308/342/315 309/344/315
f 287/337/316 301/343/316 302/345/316
f 295/325/317 309/344/317 310/346/317
f 288/338/318 302/345/318 303/347/318
f 281/323/319 326/348/319 296/349/319
f 482/350/320 295/325/320 310/346/320
f 288/338/321 304/351/321 289/326/321
f 281/323/322 297/352/323 282/327/323
f 290/328/324 304/351/324 305/353/324
f 282/327/325 298/354/325 283/329/325
f 290/328/326 306/355/326 291/330/326
f 283/329/327 299/339/327 284/331/327
f 292/332/328 306/355/328 307/341/328
f 303/347/329 319/356/329 304/351/329
f 296/349/330 312/357/330 297/352/330
f 305/353/331 319/356/331 320/358/331
f 297/352/332 313/359/332 298/354/332
f 305/353/333 321/360/333 306/355/333
f 298/354/334 314/361/334 299/339/334
f 306/355/335 322/362/335 307/341/335
f 299/339/336 315/363/336 300/340/336
f 308/342/337 322/362/337 323/364/337
f 300/340/338 316/365/338 301/343/338
f 309/344/339 323/364/339 324/366/339
f 302/345/340 316/365/340 317/367/340
f 309/344/341 325/368/341 310/346/341
f 303/347/342 317/367/342 318/369/342
f 296/349/343 326/370/343 311/371/343
f 482/372/344 310/346/344 325/368/344
f 323/364/345 338/373/345 339/374/345
f 316/365/346 331/375/346 332/376/346
f 323/364/347 340/377/347 324/366/347
f 316/365/348 333/378/348 317/367/348
f 324/366/349 341/379/349 325/368/349
f 318/369/350 333/378/350 334/380/350
f 311/371/351 326/381/351 327/382/351
f 482/383/352 325/368/352 341/379/352
f 318/369/353 335/384/353 319/356/353
f 311/371/354 328/385/354 312/357/354
f 319/356/355 336/386/355 320/358/355
f 312/357/356 329/387/356 313/359/356
f 320/358/357 337/388/357 321/360/357
f 313/359/358 330/389/358 314/361/358
f 321/360/359 338/373/359 322/362/359
f 314/361/360 331/375/360 315/363/360
f 336/386/361 350/390/361 351/391/361
f 329/387/362 343/392/362 344/393/362
f 336/386/363 352/394/363 337/388/363
f 329/387/364 345/395/364 330/389/364
f 337/388/365 353/396/365 338/373/365
f 330/389/366 346/397/366 331/375/366
f 338/373/367 354/398/367 339/374/367
f 332/376/368 346/397/368 347/399/368
f 339/374/369 355/400/369 340/377/369
f 332/376/370 348/401/370 333/378/370
f 341/379/371 355/400/371 356/402/371
f 334/380/372 348/401/372 349/403/372
f 327/382/373 326/404/373 342/405/373
f 482/406/374 341/379/374 356/402/374
f 334/380/375 350/390/375 335/384/375
f 327/382/376 343/392/376 328/385/376
f 354/398/377 370/407/377 355/400/377
f 347/399/378 363/408/378 348/401/378
f 356/402/379 370/407/379 371/409/379
f 349/403/380 363/408/380 364/410/380
f 342/405/381 326/411/381 357/412/381
f 482/413/382 356/402/382 371/409/382
f 349/403/383 365/414/383 350/390/384
f 343/392/385 357/412/385 358/415/385
f 351/391/386 365/414/386 366/416/386
f 343/392/387 359/417/387 344/393/387
f 351/391/388 367/418/388 352/394/388
f 344/393/389 360/419/389 345/395/389
f 353/396/390 367/418/390 368/420/390
f 345/395/391 361/421/391 346/397/391
f 354/398/392 368/420/392 369/422/392
f 346/397/393 362/423/393 347/399/393
f 358/424/394 374/425/394 359/426/394
f 366/427/395 382/428/395 367/429/395
f 359/426/396 375/430/396 360/431/396
f 367/429/397 383/432/397 368/433/397
f 360/431/398 376/434/398 361/435/398
f 369/436/399 383/432/399 384/437/399
f 361/435/400 377/438/400 362/439/400
f 369/436/401 385/440/401 370/441/401
f 362/439/402 378/442/402 363/443/402
f 370/441/403 386/444/403 371/445/403
f 364/446/404 378/442/404 379/447/404
f 357/448/405 326/449/405 372/450/405
f 482/451/406 371/445/406 386/444/406
f 364/446/407 380/452/407 365/453/407
f 357/448/408 373/454/408 358/424/408
f 366/427/409 380/452/409 381/455/409
f 378/442/410 392/456/410 393/457/410
f 385/440/411 401/458/411 386/444/411
f 379/447/412 393/457/412 394/459/412
f 372/450/413 326/460/413 387/461/413
f 482/462/414 386/444/414 401/458/414
f 379/447/415 395/463/415 380/452/415
f 372/450/416 388/464/416 373/454/416
f 380/452/417 396/465/417 381/455/417
f 373/454/418 389/466/418 374/425/418
f 381/455/419 397/467/419 382/428/419
f 374/425/420 390/468/420 375/430/420
f 382/428/421 398/469/421 383/432/421
f 376/434/422 390/468/422 391/470/422
f 383/432/423 399/471/423 384/437/423
f 377/438/424 391/470/424 392/456/424
f 384/437/425 400/472/425 385/440/425
f 396/465/426 412/473/426 397/467/426
f 389/466/427 405/474/427 390/468/427
f 397/467/428 413/475/428 398/469/428
f 390/468/429 406/476/429 391/470/429
f 398/469/430 414/477/430 399/471/430
f 391/470/431 407/478/431 392/456/431
f 399/471/432 415/479/433 400/472/433
f 393/457/434 407/478/434 408/480/434
f 400/472/435 416/481/435 401/458/435
f 394/459/436 408/480/436 409/482/436
f 387/461/437 326/483/437 402/484/437
f 482/485/438 401/458/438 416/481/438
f 394/459/439 410/486/439 395/463/439
f 388/464/440 402/484/440 403/487/440
f 395/463/441 411/488/441 396/465/441
f 388/464/442 404/489/442 389/466/442
f 415/479/443 431/490/443 416/481/443
f 409/482/444 423/491/444 424/492/444
f 402/484/445 326/493/445 417/494/445
f 482/495/446 416/481/446 431/490/446
f 409/482/447 425/496/447 410/486/447
f 402/484/448 418/497/449 403/487/449
f 410/486/450 426/498/450 411/488/450
f 403/487/451 419/499/451 404/489/451
f 411/488/452 427/500/452 412/473/452
f 405/474/453 419/499/453 420/501/453
f 412/473/454 428/502/454 413/475/454
f 406/476/455 420/501/455 421/503/455
f 414/477/456 428/502/456 429/504/456
f 407/478/457 421/503/457 422/505/457
f 414/477/458 430/506/458 415/479/458
f 408/480/459 422/505/459 423/491/459
f 420/501/460 434/507/460 435/508/460
f 428/502/461 442/509/461 443/510/461
f 421/503/462 435/508/462 436/511/462
f 429/504/463 443/510/463 444/512/463
f 421/503/464 437/513/464 422/505/464
f 429/504/465 445/514/465 430/506/465
f 423/491/466 437/513/466 438/515/466
f 430/506/467 446/516/467 431/490/467
f 424/492/468 438/515/468 439/517/468
f 417/494/469 326/518/469 432/519/469
f 482/520/470 431/490/470 446/516/470
f 424/492/471 440/521/471 425/496/471
f 417/494/472 433/522/472 418/497/472
f 425/496/473 441/523/473 426/498/473
f 419/499/474 433/522/474 434/507/474
f 426/498/475 442/509/475 427/500/475
f 439/517/476 453/524/476 454/525/476
f 432/519/477 326/526/477 447/527/477
f 482/528/478 446/516/478 461/529/478
f 439/517/479 455/530/479 440/521/479
f 433/522/480 447/527/480 448/531/480
f 440/521/481 456/532/481 441/523/481
f 434/507/482 448/531/483 449/533/482
f 441/523/484 457/534/484 442/509/484
f 434/507/485 450/535/485 435/508/485
f 442/509/486 458/536/486 443/510/486
f 436/511/487 450/535/487 451/537/487
f 444/512/488 458/536/488 459/538/488
f 436/511/489 452/539/489 437/513/489
f 445/514/490 459/538/490 460/540/490
f 438/515/491 452/539/491 453/524/491
f 445/514/492 461/529/492 446/516/492
f 457/534/493 473/541/493 458/536/493
f 450/535/494 466/542/494 451/537/494
f 459/538/495 473/541/495 474/543/495
f 451/537/496 467/544/496 452/539/496
f 459/538/497 475/545/497 460/540/497
f 453/524/498 467/544/498 468/546/498
f 460/540/499 476/547/499 461/529/499
f 454/525/500 468/546/500 469/548/500
f 447/527/501 326/549/501 462/550/501
f 482/551/502 461/529/502 476/547/502
f 454/525/503 470/552/503 455/530/503
f 447/527/504 463/553/504 448/531/504
f 455/530/505 471/554/505 456/532/505
f 448/531/506 464/555/506 449/533/506
f 456/532/507 472/556/507 457/534/507
f 449/533/508 465/557/508 450/535/508
f 482/558/509 476/547/509 481/5/509
f 469/548/510 478/9/510 470/552/510
f 463/553/511 1/1/511 2/11/511
f 470/552/512 479/13/512 471/554/512
f 464/555/513 2/11/513 3/14/513
f 471/554/514 8/17/514 472/556/514
f 465/557/515 3/14/515 4/19/515
f 472/556/516 9/20/516 473/541/516
f 466/542/517 4/19/517 5/22/517
f 473/541/518 10/25/518 474/543/518
f 467/544/519 5/22/519 6/27/519
f 474/543/520 480/29/520 475/545/520
f 468/546/521 6/27/521 7/31/521
f 475/545/522 481/5/522 476/547/522
f 469/548/523 7/31/523 477/7/524
f 462/550/525 326/559/525 1/1/525
f 477/7/3 18/32/526 19/8/3
f 1/1/4 11/3/4 12/10/4
f 478/9/5 19/8/5 20/12/5
f 3/14/6 2/11/6 12/10/6
f 479/13/7 20/12/7 21/16/7
f 3/14/8 13/15/8 14/18/8
f 9/20/9 8/17/9 21/16/9
f 5/22/10 4/19/10 14/18/10
f 9/20/11 22/21/11 23/24/11
f 5/22/12 15/23/12 16/26/12
f 10/25/13 23/24/13 24/28/13
f 6/27/14 16/26/14 17/30/14
f 480/29/15 24/28/15 25/6/15
f 477/7/16 7/31/16 17/30/16
f 16/26/17 31/48/17 32/33/17
f 24/28/18 39/49/18 40/34/18
f 17/30/19 32/33/19 33/35/19
f 18/32/22 33/35/22 34/39/22
f 11/3/24 26/37/24 27/40/24
f 19/8/26 34/39/26 35/41/26
f 12/10/27 27/40/27 28/42/27
f 21/16/28 20/12/28 35/41/28
f 13/15/29 28/42/29 29/44/29
f 21/16/30 36/43/30 37/45/30
f 14/18/31 29/44/31 30/46/31
f 22/21/32 37/45/32 38/47/32
f 16/26/33 15/23/33 30/46/33
f 24/28/34 23/24/34 38/47/34
f 36/43/35 35/41/35 50/50/35
f 28/42/36 43/66/36 44/52/36
f 37/45/37 36/43/37 51/51/37
f 29/44/38 44/52/38 45/54/38
f 37/45/39 52/53/39 53/55/39
f 31/48/40 30/46/40 45/54/40
f 38/47/41 53/55/41 54/57/41
f 31/48/42 46/56/42 47/58/42
f 40/34/43 39/49/43 54/57/43
f 32/33/44 47/58/44 48/60/44
f 33/35/47 48/60/47 49/64/47
f 26/37/48 41/62/48 42/65/49
f 35/41/50 34/39/50 49/64/50
f 27/40/51 42/65/527 43/66/51
f 54/57/52 69/83/52 70/67/52
f 48/60/53 47/58/53 62/68/53
f 48/60/56 63/69/56 64/73/56
f 41/62/57 56/71/57 57/74/57
f 49/64/58 64/73/58 65/75/58
f 42/65/59 57/74/59 58/76/59
f 51/51/60 50/50/60 65/75/60
f 43/66/61 58/76/61 59/78/61
f 51/51/62 66/77/62 67/79/62
f 44/52/63 59/78/63 60/80/63
f 52/53/64 67/79/64 68/81/64
f 46/56/65 45/54/65 60/80/65
f 53/55/66 68/81/66 69/83/66
f 46/56/67 61/82/67 62/68/67
f 66/77/68 81/99/68 82/84/68
f 59/78/69 74/100/69 75/85/69
f 68/81/70 67/79/70 82/84/70
f 61/82/71 60/80/71 75/85/71
f 69/83/72 68/81/72 83/86/72
f 62/68/73 61/82/73 76/87/73
f 70/67/74 69/83/74 84/88/74
f 62/68/75 77/89/75 78/91/75
f 63/69/78 78/91/78 79/95/78
f 56/71/79 71/93/79 72/96/79
f 64/73/80 79/95/80 80/97/80
f 57/74/81 72/96/81 73/98/81
f 66/77/82 65/75/82 80/97/82
f 58/76/83 73/98/83 74/100/83
f 78/91/86 93/117/528 94/105/86
f 71/93/87 86/102/87 87/106/87
f 79/95/88 94/105/88 95/107/88
f 72/96/89 87/106/89 88/108/89
f 80/97/90 95/107/90 96/109/90
f 73/98/91 88/108/91 89/110/91
f 81/99/92 96/109/92 97/111/92
f 74/100/93 89/110/93 90/112/93
f 83/86/94 82/84/94 97/111/94
f 75/85/95 90/112/95 91/114/95
f 84/88/96 83/86/97 98/113/97
f 77/89/98 76/87/98 91/114/98
f 84/88/99 99/115/99 100/104/99
f 77/89/100 92/116/529 93/117/100
f 90/112/101 89/110/101 104/118/101
f 98/113/102 97/111/102 112/120/102
f 90/112/103 105/119/103 106/122/103
f 99/115/104 98/113/104 113/121/104
f 92/116/105 91/114/105 106/122/105
f 99/115/106 114/123/106 115/125/106
f 92/116/107 107/124/107 108/126/107
f 93/117/110 108/126/110 109/130/110
f 86/102/111 101/128/111 102/131/111
f 95/107/112 94/105/112 109/130/112
f 87/106/113 102/131/113 103/133/113
f 95/107/114 110/132/114 111/134/114
f 88/108/115 103/133/115 104/118/115
f 96/109/116 111/134/116 112/120/116
f 108/126/117 123/148/117 124/135/117
f 101/128/118 116/150/118 117/136/118
f 110/132/119 109/130/119 124/135/119
f 102/131/120 117/136/120 118/138/120
f 110/132/121 125/137/121 126/139/121
f 103/133/122 118/138/122 119/140/122
f 111/134/123 126/139/123 127/141/123
f 104/118/124 119/140/124 120/142/124
f 113/121/125 112/120/125 127/141/125
f 105/119/126 120/142/126 121/144/126
f 114/123/127 113/121/127 128/143/127
f 107/124/128 106/122/128 121/144/128
f 115/125/129 114/123/129 129/145/129
f 108/126/130 107/124/130 122/146/130
f 128/143/133 127/141/133 142/152/133
f 120/142/134 135/168/134 136/154/134
f 128/143/135 143/153/135 144/155/135
f 122/146/136 121/144/136 136/154/136
f 129/145/137 144/155/137 145/157/137
f 123/148/138 122/146/530 137/156/138
f 123/148/141 138/158/531 139/162/141
f 116/150/142 131/160/142 132/163/142
f 125/137/143 124/135/143 139/162/143
f 117/136/144 132/163/144 133/165/144
f 125/137/145 140/164/145 141/166/145
f 119/140/146 118/138/146 133/165/146
f 126/139/147 141/166/147 142/152/147
f 120/142/148 119/140/148 134/167/148
f 132/163/149 131/160/149 146/169/149
f 139/162/150 154/185/150 155/171/150
f 133/165/151 132/163/151 147/170/151
f 140/164/152 155/171/152 156/173/152
f 133/165/153 148/172/153 149/174/153
f 142/152/154 141/166/154 156/173/154
f 135/168/155 134/167/155 149/174/155
f 143/153/156 142/152/156 157/175/156
f 135/168/157 150/176/157 151/178/157
f 144/155/158 143/153/158 158/177/158
f 136/154/159 151/178/159 152/180/159
f 145/157/160 144/155/160 159/179/160
f 137/156/161 152/180/161 153/182/161
f 138/158/164 153/182/164 154/185/164
f 150/176/165 165/201/165 166/186/165
f 158/177/166 173/202/166 174/187/166
f 152/180/168 151/178/168 166/186/168
f 159/179/169 174/187/169 175/189/169
f 152/180/170 167/188/170 168/190/170
f 153/182/173 168/190/173 169/194/173
f 147/170/174 146/169/174 161/192/174
f 154/185/175 169/194/175 170/196/175
f 148/172/176 147/170/176 162/195/176
f 155/171/177 170/196/177 171/198/177
f 148/172/178 163/197/178 164/199/178
f 157/175/179 156/173/179 171/198/179
f 150/176/180 149/174/180 164/199/180
f 157/175/181 172/200/181 173/202/181
f 170/196/182 169/194/182 184/203/182
f 162/195/183 177/219/183 178/205/183
f 170/196/184 185/204/184 186/206/184
f 163/197/185 178/205/185 179/207/185
f 171/198/186 186/206/186 187/208/186
f 164/199/187 179/207/187 180/209/187
f 172/200/188 187/208/188 188/210/188
f 166/186/189 165/201/189 180/209/189
f 173/202/190 188/210/190 189/212/190
f 166/186/191 181/211/191 182/213/191
f 174/187/192 189/212/192 190/214/192
f 168/190/193 167/188/193 182/213/193
f 168/190/196 183/215/196 184/203/196
f 161/192/197 176/217/197 177/219/197
f 188/210/198 203/235/198 204/220/198
f 181/211/199 196/236/199 197/221/199
f 190/214/200 189/212/200 204/220/200
f 183/215/201 182/213/201 197/221/201
f 183/215/204 198/223/204 199/227/204
f 177/219/205 176/217/205 191/225/205
f 185/204/206 184/203/206 199/227/206
f 177/219/207 192/228/207 193/230/207
f 186/206/208 185/204/208 200/229/208
f 178/205/209 193/230/209 194/232/209
f 186/206/210 201/231/210 202/233/210
f 180/209/211 179/207/211 194/232/211
f 188/210/212 187/208/212 202/233/212
f 181/211/213 180/209/213 195/234/213
f 200/229/214 215/253/214 216/237/214
f 194/232/215 193/230/215 208/238/215
f 201/231/216 216/237/216 217/240/216
f 194/232/217 209/239/217 210/241/217
f 202/233/218 217/240/218 218/242/218
f 196/236/219 195/234/219 210/241/219
f 203/235/220 218/242/220 219/244/220
f 197/221/221 196/236/221 211/243/221
f 204/220/222 219/244/222 220/246/222
f 198/223/223 197/221/223 212/245/223
f 198/223/226 213/247/226 214/251/226
f 191/225/227 206/249/227 207/252/227
f 199/227/228 214/251/228 215/253/228
f 193/230/229 192/228/229 207/252/229
f 219/244/230 234/270/230 235/254/230
f 213/247/231 212/245/231 227/255/231
f 213/247/234 228/256/234 229/260/234
f 207/252/235 206/249/235 221/258/235
f 214/251/236 229/260/236 230/262/236
f 208/238/237 207/252/237 222/261/237
f 215/253/238 230/262/238 231/264/238
f 208/238/239 223/263/239 224/265/239
f 216/237/240 231/264/240 232/266/240
f 209/239/241 224/265/241 225/267/241
f 218/242/242 217/240/242 232/266/242
f 211/243/243 210/241/243 225/267/243
f 218/242/244 233/268/244 234/270/244
f 212/245/245 211/243/245 226/269/245
f 223/263/246 238/286/246 239/271/246
f 231/264/247 246/287/247 247/272/247
f 224/265/248 239/271/248 240/273/248
f 233/268/249 232/266/249 247/272/249
f 225/267/250 240/273/250 241/275/250
f 233/268/251 248/274/251 249/276/251
f 227/255/252 226/269/252 241/275/252
f 235/254/253 234/270/253 249/276/253
f 228/256/254 227/255/254 242/277/254
f 228/256/257 243/279/257 244/283/257
f 221/258/258 236/281/258 237/284/258
f 229/260/259 244/283/259 245/285/259
f 222/261/260 237/284/260 238/286/260
f 230/262/261 245/285/261 246/287/261
f 243/279/262 242/277/532 257/288/262
f 243/279/265 258/289/265 259/294/265
f 236/281/266 251/291/266 252/295/266
f 245/285/267 244/283/267 259/294/267
f 237/284/268 252/295/268 253/297/268
f 245/285/269 260/296/269 261/298/269
f 238/286/270 253/297/270 254/299/270
f 246/287/271 261/298/271 262/300/271
f 240/273/272 239/271/272 254/299/272
f 248/274/273 247/272/273 262/300/273
f 240/273/274 255/301/274 256/303/274
f 248/274/275 263/302/275 264/304/275
f 242/277/276 241/275/276 256/303/276
f 249/276/277 264/304/277 265/293/277
f 261/298/278 276/320/278 277/305/278
f 254/299/279 269/321/279 270/306/279
f 263/302/280 262/300/280 277/305/280
f 255/301/281 270/306/281 271/308/281
f 263/302/282 278/307/282 279/309/282
f 257/288/283 256/303/283 271/308/283
f 265/293/284 264/304/284 279/309/284
f 258/289/285 257/288/285 272/310/285
f 258/289/288 273/312/288 274/316/288
f 251/291/289 266/314/289 267/317/289
f 260/296/290 259/294/290 274/316/290
f 252/295/291 267/317/291 268/319/291
f 260/296/292 275/318/292 276/320/292
f 253/297/293 268/319/293 269/321/293
f 273/312/296 288/338/296 289/326/296
f 266/314/297 281/323/533 282/327/297
f 275/318/298 274/316/298 289/326/298
f 267/317/299 282/327/299 283/329/300
f 275/318/301 290/328/301 291/330/301
f 268/319/302 283/329/302 284/331/302
f 277/305/303 276/320/303 291/330/303
f 270/306/304 269/321/304 284/331/304
f 278/307/305 277/305/305 292/332/305
f 270/306/306 285/333/306 286/335/306
f 279/309/307 278/307/308 293/334/308
f 272/310/309 271/308/309 286/335/309
f 279/309/310 294/336/310 295/325/310
f 273/312/311 272/310/311 287/337/311
f 285/333/312 284/331/312 299/339/312
f 293/334/313 292/332/313 307/341/313
f 285/333/314 300/340/314 301/343/314
f 294/336/315 293/334/315 308/342/315
f 287/337/316 286/335/316 301/343/316
f 295/325/317 294/336/317 309/344/317
f 288/338/318 287/337/318 302/345/318
f 288/338/321 303/347/321 304/351/321
f 281/323/322 296/349/322 297/352/323
f 290/328/324 289/326/324 304/351/324
f 282/327/325 297/352/325 298/354/325
f 290/328/326 305/353/326 306/355/326
f 283/329/327 298/354/327 299/339/327
f 292/332/328 291/330/328 306/355/328
f 303/347/329 318/369/329 319/356/329
f 296/349/330 311/371/330 312/357/330
f 305/353/331 304/351/331 319/356/331
f 297/352/332 312/357/332 313/359/332
f 305/353/333 320/358/333 321/360/333
f 298/354/334 313/359/334 314/361/334
f 306/355/335 321/360/335 322/362/335
f 299/339/336 314/361/336 315/363/336
f 308/342/337 307/341/337 322/362/337
f 300/340/338 315/363/338 316/365/338
f 309/344/339 308/342/339 323/364/339
f 302/345/340 301/343/340 316/365/340
f 309/344/341 324/366/341 325/368/341
f 303/347/342 302/345/342 317/367/342
f 323/364/345 322/362/345 338/373/345
f 316/365/346 315/363/346 331/375/346
f 323/364/347 339/374/347 340/377/347
f 316/365/348 332/376/348 333/378/348
f 324/366/349 340/377/349 341/379/349
f 318/369/350 317/367/350 333/378/350
f 318/369/353 334/380/353 335/384/353
f 311/371/354 327/382/354 328/385/354
f 319/356/355 335/384/355 336/386/355
f 312/357/356 328/385/534 329/387/356
f 320/358/357 336/386/357 337/388/357
f 313/359/358 329/387/358 330/389/358
f 321/360/359 337/388/359 338/373/359
f 314/361/360 330/389/360 331/375/360
f 336/386/361 335/384/361 350/390/361
f 329/387/362 328/385/362 343/392/362
f 336/386/363 351/391/363 352/394/363
f 329/387/364 344/393/364 345/395/364
f 337/388/365 352/394/365 353/396/365
f 330/389/366 345/395/366 346/397/366
f 338/373/367 353/396/367 354/398/367
f 332/376/368 331/375/368 346/397/368
f 339/374/369 354/398/369 355/400/369
f 332/376/370 347/399/370 348/401/370
f 341/379/371 340/377/371 355/400/371
f 334/380/372 333/378/372 348/401/372
f 334/380/375 349/403/375 350/390/375
f 327/382/376 342/405/376 343/392/376
f 354/398/377 369/422/377 370/407/377
f 347/399/378 362/423/378 363/408/378
f 356/402/379 355/400/379 370/407/379
f 349/403/380 348/401/535 363/408/380
f 349/403/383 364/410/383 365/414/383
f 343/392/385 342/405/385 357/412/385
f 351/391/386 350/390/386 365/414/386
f 343/392/387 358/415/387 359/417/387
f 351/391/388 366/416/388 367/418/388
f 344/393/389 359/417/389 360/419/389
f 353/396/390 352/394/390 367/418/390
f 345/395/391 360/419/391 361/421/391
f 354/398/392 353/396/392 368/420/392
f 346/397/393 361/421/393 362/423/393
f 358/424/394 373/454/394 374/425/394
f 366/427/395 381/455/395 382/428/395
f 359/426/396 374/425/396 375/430/396
f 367/429/397 382/428/397 383/432/397
f 360/431/398 375/430/398 376/434/398
f 369/436/399 368/433/399 383/432/399
f 361/435/400 376/434/400 377/438/400
f 369/436/401 384/437/401 385/440/401
f 362/439/402 377/438/402 378/442/402
f 370/441/403 385/440/403 386/444/403
f 364/446/404 363/443/404 378/442/404
f 364/446/407 379/447/407 380/452/407
f 357/448/408 372/450/408 373/454/408
f 366/427/409 365/453/409 380/452/409
f 378/442/410 377/438/410 392/456/410
f 385/440/411 400/472/411 401/458/411
f 379/447/412 378/442/412 393/457/412
f 379/447/415 394/459/415 395/463/415
f 372/450/416 387/461/416 388/464/416
f 380/452/417 395/463/417 396/465/417
f 373/454/418 388/464/418 389/466/418
f 381/455/419 396/465/419 397/467/419
f 374/425/420 389/466/420 390/468/420
f 382/428/421 397/467/421 398/469/421
f 376/434/422 375/430/422 390/468/422
f 383/432/423 398/469/423 399/471/423
f 377/438/424 376/434/424 391/470/424
f 384/437/425 399/471/425 400/472/425
f 396/465/426 411/488/426 412/473/426
f 389/466/427 404/489/427 405/474/427
f 397/467/428 412/473/428 413/475/428
f 390/468/429 405/474/429 406/476/429
f 398/469/430 413/475/430 414/477/430
f 391/470/431 406/476/431 407/478/431
f 399/471/432 414/477/432 415/479/433
f 393/457/434 392/456/434 407/478/434
f 400/472/435 415/479/435 416/481/435
f 394/459/436 393/457/436 408/480/436
f 394/459/439 409/482/439 410/486/439
f 388/464/440 387/461/440 402/484/440
f 395/463/441 410/486/441 411/488/441
f 388/464/442 403/487/442 404/489/442
f 415/479/443 430/506/443 431/490/443
f 409/482/444 408/480/444 423/491/444
f 409/482/447 424/492/447 425/496/447
f 402/484/448 417/494/448 418/497/449
f 410/486/450 425/496/450 426/498/450
f 403/487/451 418/497/451 419/499/451
f 411/488/452 426/498/452 427/500/452
f 405/474/453 404/489/453 419/499/453
f 412/473/454 427/500/454 428/502/454
f 406/476/455 405/474/455 420/501/455
f 414/477/456 413/475/456 428/502/456
f 407/478/457 406/476/457 421/503/457
f 414/477/458 429/504/458 430/506/458
f 408/480/459 407/478/459 422/505/459
f 420/501/460 419/499/460 434/507/460
f 428/502/461 427/500/461 442/509/461
f 421/503/462 420/501/462 435/508/462
f 429/504/463 428/502/463 443/510/463
f 421/503/464 436/511/464 437/513/464
f 429/504/465 444/512/465 445/514/465
f 423/491/466 422/505/466 437/513/466
f 430/506/467 445/514/467 446/516/467
f 424/492/468 423/491/468 438/515/468
f 424/492/471 439/517/471 440/521/471
f 417/494/472 432/519/472 433/522/472
f 425/496/473 440/521/473 441/523/473
f 419/499/474 418/497/474 433/522/474
f 426/498/475 441/523/475 442/509/475
f 439/517/476 438/515/476 453/524/476
f 439/517/479 454/525/479 455/530/479
f 433/522/480 432/519/480 447/527/480
f 440/521/481 455/530/481 456/532/481
f 434/507/482 433/522/483 448/531/483
f 441/523/484 456/532/484 457/534/484
f 434/507/485 449/533/485 450/535/485
f 442/509/486 457/534/486 458/536/486
f 436/511/487 435/508/487 450/535/487
f 444/512/488 443/510/488 458/536/488
f 436/511/489 451/537/489 452/539/489
f 445/514/490 444/512/490 459/538/490
f 438/515/491 437/513/491 452/539/491
f 445/514/492 460/540/492 461/529/492
f 457/534/493 472/556/493 473/541/493
f 450/535/494 465/557/494 466/542/494
f 459/538/495 458/536/495 473/541/495
f 451/537/496 466/542/496 467/544/496
f 459/538/497 474/543/497 475/545/497
f 453/524/498 452/539/498 467/544/498
f 460/540/499 475/545/499 476/547/499
f 454/525/500 453/524/500 468/546/500
f 454/525/503 469/548/503 470/552/503
f 447/527/504 462/550/504 463/553/504
f 455/530/505 470/552/505 471/554/505
f 448/531/506 463/553/506 464/555/506
f 456/532/507 471/554/507 472/556/507
f 449/533/508 464/555/508 465/557/508
f 469/548/510 477/7/510 478/9/510
f 463/553/511 462/550/511 1/1/511
f 470/552/512 478/9/512 479/13/512
f 464/555/513 463/553/513 2/11/513
f 471/554/514 479/13/514 8/17/514
f 465/557/515 464/555/515 3/14/515
f 472/556/516 8/17/516 9/20/516
f 466/542/517 465/557/517 4/19/517
f 473/541/518 9/20/518 10/25/518
f 467/544/519 466/542/519 5/22/519
f 474/543/520 10/25/520 480/29/520
f 468/546/521 467/544/521 6/27/521
f 475/545/522 480/29/522 481/5/522
f 469/548/523 468/546/523 7/31/523
