# Blender 4.4.1
# www.blender.org
mtllib enemy_core14.mtl
o enemy_core14
v 0.569755 0.099767 0.116126
v 0.092266 0.484931 0.069692
v 0.639130 0.209436 0.079217
v 0.000025 0.498873 -0.298017
v 0.307775 0.653042 -0.298017
v 0.609448 0.478888 -0.298017
v 0.632948 0.173095 -0.298017
v 0.814674 0.135204 -0.199706
v 0.810199 0.156272 -0.209497
v 0.719406 0.415788 -0.260128
v 0.776330 0.270387 -0.243637
v 0.601361 0.647480 -0.232778
v 0.516068 0.767141 -0.170934
v 0.569422 0.702186 -0.218344
v 0.770372 0.011268 -0.203702
v 0.734763 -0.083472 -0.204895
v 0.738814 -0.076422 -0.206716
v 0.696775 -0.120584 -0.209497
v 0.597302 -0.057773 -0.267954
v 0.709700 -0.125616 -0.192963
v 0.574951 -0.043142 -0.279613
v 0.517512 -0.001297 -0.298017
v 0.539711 -0.019960 -0.298017
v -0.041399 0.469043 -0.298017
v 0.409211 0.896701 -0.076434
v 0.401591 0.898488 -0.076022
v 0.714880 -0.116955 -0.195387
v 0.347358 0.853175 -0.122359
v 0.000023 0.514521 -0.291325
v 0.154446 0.679356 -0.253918
v -0.010927 0.504360 -0.298017
v 0.516068 0.767141 -0.170934
v 0.569422 0.702186 -0.218344
v 0.569422 0.702186 -0.218344
v 0.814674 0.135204 -0.199706
v 0.810199 0.156272 -0.209497
v 0.810199 0.156272 -0.209497
v 0.776330 0.270387 -0.243637
v 0.776330 0.270387 -0.243637
v 0.719406 0.415788 -0.260128
v 0.719406 0.415788 -0.260128
v 0.601361 0.647480 -0.232778
v 0.601361 0.647480 -0.232778
v 0.770372 0.011268 -0.203702
v 0.738814 -0.076422 -0.206716
v 0.738814 -0.076422 -0.206716
v 0.738814 -0.076422 -0.206716
v 0.738814 -0.076422 -0.206716
v 0.738814 -0.076422 -0.206716
v 0.734763 -0.083472 -0.204895
v 0.696775 -0.120584 -0.209497
v 0.696775 -0.120584 -0.209497
v 0.709700 -0.125616 -0.192963
v 0.597302 -0.057773 -0.267954
v 0.597302 -0.057773 -0.267954
v 0.574951 -0.043142 -0.279613
v 0.517512 -0.001297 -0.298017
v 0.539711 -0.019960 -0.298017
v 0.539711 -0.019960 -0.298017
v -0.041399 0.469043 -0.298017
v 0.409211 0.896701 -0.076434
v 0.401591 0.898488 -0.076022
v 0.714880 -0.116955 -0.195387
v 0.632948 0.173095 -0.298017
v 0.632948 0.173095 -0.298017
v 0.632948 0.173095 -0.298017
v 0.347358 0.853175 -0.122359
v 0.347358 0.853175 -0.122359
v 0.154446 0.679356 -0.253918
v 0.154446 0.679356 -0.253918
v 0.000023 0.514521 -0.291325
v 0.000023 0.514521 -0.291325
v -0.010927 0.504360 -0.298017
v -0.010927 0.504360 -0.298017
v 0.000025 0.498873 -0.298017
v 0.000025 0.498873 -0.298017
v 0.609448 0.478888 -0.298017
v 0.609448 0.478888 -0.298017
v 0.609448 0.478888 -0.298017
v 0.307775 0.653042 -0.298017
v 0.307775 0.653042 -0.298017
v 0.307775 0.653042 -0.298017
v 0.307775 0.653042 -0.298017
vn 0.8271 0.3716 0.4216
vn 0.7717 -0.2940 0.5639
vn -0.6200 -0.7405 0.2593
vn -0.6216 -0.7394 0.2588
vn -0.6221 -0.7392 0.2581
vn 0.8259 0.3722 0.4236
vn 0.1117 0.2549 0.9605
vn 0.1109 0.2533 0.9610
vn 0.7673 -0.3004 0.5665
vn 0.1933 0.3858 -0.9021
vn -0.0000 -0.0000 -1.0000
vn 0.3390 0.0261 -0.9404
vn -0.1933 0.3858 -0.9021
vn 0.1099 0.6433 -0.7577
vn 0.6431 -0.2061 -0.7375
vn -0.7350 0.6342 0.2398
vn 0.7700 -0.2965 0.5650
vn -0.0978 0.6673 -0.7383
vn 0.4739 0.3375 -0.8133
vn 0.4316 -0.1412 -0.8910
vn 0.4316 -0.1410 -0.8910
vn 0.4313 -0.1430 -0.8908
vn 0.5855 -0.5225 -0.6198
vn 0.5665 -0.4986 -0.6561
vn 0.5865 -0.5237 -0.6179
vn 0.3505 -0.2774 -0.8945
vn 0.3682 -0.1757 -0.9130
vn 0.3678 -0.1757 -0.9132
vn 0.3628 -0.1752 -0.9153
vn 0.2088 0.3616 -0.9086
vn -0.0000 -0.0007 -1.0000
vn 0.1095 0.6432 -0.7578
vn -0.7349 0.6343 0.2400
vn -0.7350 0.6341 0.2400
vn 0.7698 -0.2968 0.5650
vn 0.7699 -0.2967 0.5651
vn 0.7700 -0.2965 0.5649
vn 0.4319 -0.1384 -0.8912
vn 0.5634 -0.4946 -0.6618
vn 0.5866 -0.5237 -0.6178
vn 0.3627 -0.1752 -0.9153
vn 0.3713 -0.1760 -0.9117
vt 0.974610 0.652904
vt 0.681828 0.515516
vt 0.386594 0.159893
vt 0.652192 0.652192
vt 0.000000 0.000000
vt 0.662460 0.000000
vt 1.000000 0.000000
vt 0.855777 0.716523
vt 0.213381 0.099932
vt 0.851799 0.851799
vt 1.000000 0.879354
vt 0.879354 0.879354
vt 0.880241 0.000000
vt 0.011896 0.000000
vt 1.000000 0.669538
vt 0.011896 0.011896
vt 0.015444 0.000000
vt 1.000000 1.000000
vt 0.870841 0.000000
vt 0.796858 0.796858
vt 0.498111 0.216021
vt 0.921563 0.135734
vt 0.785425 0.082923
vt 0.662460 0.662460
vt 0.330462 0.000000
vt 1.000000 0.652192
vt 0.842478 0.617300
vt 0.441146 0.241301
vt 0.129159 0.000000
vt 1.000000 0.851799
vt 0.958208 0.883995
vt 0.938699 0.119724
vt 1.000000 0.119759
vt 0.015444 0.015444
vt 0.638256 0.225120
vt 0.796858 0.000000
vt 0.779034 0.138818
s 0
f 36/1/1 40/2/1 33/3/1
f 35/4/2 3/5/2 44/6/2
f 1/7/3 54/8/3 51/9/3
f 56/10/4 2/7/4 57/11/4
f 57/12/5 2/5/5 60/13/5
f 61/14/6 3/7/6 32/15/6
f 2/7/7 61/16/7 62/17/7
f 2/5/8 1/7/8 3/18/8
f 1/5/9 53/19/9 63/20/9
s 1
f 75/5/10 73/5/10 72/5/10
f 24/5/11 76/5/11 77/5/11
f 65/5/12 41/5/12 39/5/12
f 70/5/13 4/5/13 71/5/13
f 25/5/14 34/5/14 67/5/14
f 37/5/15 15/5/15 45/5/15
s 0
f 2/18/16 68/21/16 29/22/16
f 1/5/17 50/23/17 44/24/17
s 1
f 5/5/18 30/5/18 28/5/18
f 79/5/19 43/5/19 10/5/19
f 64/5/20 9/5/21 48/5/22
f 52/5/23 16/5/24 20/5/25
f 55/5/26 49/5/26 18/5/26
f 7/5/27 19/5/28 21/5/29
f 83/5/30 12/5/30 6/5/30
s 0
f 33/3/1 32/25/1 3/7/1
f 3/7/1 35/26/1 36/1/1
f 36/1/1 38/27/1 40/2/1
f 40/2/1 42/28/1 33/3/1
f 33/3/1 3/7/1 36/1/1
f 51/9/3 53/29/3 1/7/3
f 1/7/3 56/30/3 54/8/3
f 57/11/4 58/31/4 56/10/4
f 56/10/4 1/5/4 2/7/4
f 2/7/7 3/18/7 61/16/7
s 1
f 77/5/11 66/5/11 59/5/11
f 59/5/11 22/5/31 24/5/11
f 24/5/11 74/5/11 76/5/11
f 76/5/11 81/5/11 77/5/11
f 77/5/11 59/5/11 24/5/11
f 65/5/12 78/5/12 41/5/12
f 70/5/13 80/5/13 4/5/13
f 67/5/14 26/5/14 25/5/14
f 25/5/14 13/5/32 34/5/14
f 34/5/14 82/5/14 67/5/14
f 37/5/15 8/5/15 15/5/15
s 0
f 31/32/16 60/33/16 2/18/16
f 2/18/33 62/34/33 68/21/33
f 68/21/34 69/35/34 29/22/34
f 29/22/16 31/32/16 2/18/16
f 44/24/35 3/18/35 1/5/35
f 1/5/36 63/36/36 50/23/36
f 50/23/37 46/37/37 44/24/37
s 1
f 64/5/20 11/5/38 9/5/21
f 52/5/23 47/5/39 16/5/24
f 16/5/24 27/5/40 20/5/25
f 21/5/29 23/5/41 7/5/27
f 7/5/27 17/5/42 19/5/28
f 83/5/30 14/5/30 12/5/30
