# Blender 4.4.1
# www.blender.org
mtllib sword_.string.mtl
o ひも
v 0.075999 -0.181100 0.247602
v 0.075999 -0.142171 0.247602
v 0.075999 -0.181100 0.229482
v 0.075999 -0.142171 0.229482
v 0.145579 -0.161636 0.247602
v 0.145579 -0.161636 0.229482
v 0.110789 -0.181100 0.229482
v 0.110789 -0.142171 0.229482
v 0.110789 -0.181100 0.247602
v 0.110789 -0.142171 0.247602
v 0.128184 -0.142171 0.229482
v 0.128184 -0.181100 0.247602
v 0.128184 -0.181100 0.229482
v 0.128184 -0.142171 0.247602
v -0.290494 0.099720 0.244627
v -0.277374 0.122443 0.244627
v -0.290494 0.099720 -0.197708
v -0.277374 0.122443 -0.197708
v 0.269455 -0.223567 0.244627
v 0.282575 -0.200843 0.244627
v 0.269455 -0.223567 -0.197708
v 0.282575 -0.200843 -0.197708
v -0.279501 -0.183428 0.237287
v -0.279501 -0.139843 0.237287
v -0.279501 -0.183428 -0.190368
v -0.279501 -0.139843 -0.190368
v 0.285495 -0.183428 0.237287
v 0.285495 -0.139843 0.237287
v 0.285495 -0.183428 -0.190368
v 0.285495 -0.139843 -0.190368
v -0.258879 -0.025417 -0.179452
v -0.183328 0.105442 -0.179452
v -0.258879 -0.025417 -0.251786
v -0.183328 0.105442 -0.251786
v -0.219348 -0.048240 -0.179452
v -0.143797 0.082619 -0.179452
v -0.219348 -0.048240 -0.251786
v -0.143797 0.082619 -0.251786
vn -1.0000 -0.0000 -0.0000
vn -0.0000 -0.0000 1.0000
vn 0.7456 -0.6664 -0.0000
vn -0.0000 1.0000 -0.0000
vn -0.0000 -1.0000 -0.0000
vn 0.7456 0.6664 -0.0000
vn -0.8660 0.5000 -0.0000
vn -0.0000 -0.0000 -1.0000
vn 0.8660 -0.5000 -0.0000
vn -0.5000 -0.8660 -0.0000
vn 0.5000 0.8660 -0.0000
vn 1.0000 -0.0000 -0.0000
vt 0.625000 0.000000
vt 0.375000 0.250000
vt 0.375000 0.000000
vt 0.625000 0.875000
vt 0.375000 1.000000
vt 0.375000 0.875000
vt 0.375000 0.500000
vt 0.312500 0.750000
vt 0.312500 0.500000
vt 0.875000 0.500000
vt 0.750000 0.750000
vt 0.750000 0.500000
vt 0.687500 0.750000
vt 0.687500 0.500000
vt 0.250000 0.500000
vt 0.125000 0.750000
vt 0.125000 0.500000
vt 0.625000 0.812500
vt 0.375000 0.812500
vt 0.625000 0.750000
vt 0.625000 0.500000
vt 0.250000 0.750000
vt 0.375000 0.750000
vt 0.625000 0.250000
vt 0.625000 1.000000
vt 0.875000 0.750000
s 0
f 2/1/1 3/2/1 1/3/1
f 10/4/2 1/5/2 9/6/2
f 6/7/3 12/8/3 13/9/3
f 4/10/4 10/11/4 8/12/4
f 8/12/4 14/13/4 11/14/4
f 7/15/5 1/16/5 3/17/5
f 14/18/2 9/6/2 12/19/2
f 5/20/2 14/18/2 12/19/2
f 11/14/6 5/20/6 6/21/6
f 13/9/5 9/22/5 7/15/5
f 16/1/7 17/2/7 15/3/7
f 17/2/8 22/21/8 21/7/8
f 22/21/9 19/23/9 21/7/9
f 20/20/2 15/5/2 19/23/2
f 21/7/10 15/16/10 17/17/10
f 18/10/11 20/20/11 22/21/11
f 24/1/1 25/2/1 23/3/1
f 26/24/8 29/7/8 25/2/8
f 30/21/12 27/23/12 29/7/12
f 28/20/2 23/5/2 27/23/2
f 29/7/5 23/16/5 25/17/5
f 26/10/4 28/20/4 30/21/4
f 32/1/7 33/2/7 31/3/7
f 33/2/8 38/21/8 37/7/8
f 38/21/9 35/23/9 37/7/9
f 37/7/10 31/16/10 33/17/10
f 34/10/11 36/20/11 38/21/11
f 2/1/1 4/24/1 3/2/1
f 10/4/2 2/25/2 1/5/2
f 6/7/3 5/23/3 12/8/3
f 4/10/4 2/26/4 10/11/4
f 8/12/4 10/11/4 14/13/4
f 7/15/5 9/22/5 1/16/5
f 14/18/2 10/4/2 9/6/2
f 11/14/6 14/13/6 5/20/6
f 13/9/5 12/8/5 9/22/5
f 16/1/7 18/24/7 17/2/7
f 17/2/8 18/24/8 22/21/8
f 22/21/9 20/20/9 19/23/9
f 20/20/2 16/25/2 15/5/2
f 21/7/10 19/23/10 15/16/10
f 18/10/11 16/26/11 20/20/11
f 24/1/1 26/24/1 25/2/1
f 26/24/8 30/21/8 29/7/8
f 30/21/12 28/20/12 27/23/12
f 28/20/2 24/25/2 23/5/2
f 29/7/5 27/23/5 23/16/5
f 26/10/4 24/26/4 28/20/4
f 32/1/7 34/24/7 33/2/7
f 33/2/8 34/24/8 38/21/8
f 38/21/9 36/20/9 35/23/9
f 37/7/10 35/23/10 31/16/10
f 34/10/11 32/26/11 36/20/11
