{
	"asset":{
		"generator":"Khronos glTF Blender I/O v4.4.56",
		"version":"2.0"
	},
	"scene":0,
	"scenes":[
		{
			"name":"Scene",
			"nodes":[
				4,
				8
			]
		}
	],
	"nodes":[
		{
			"name":"\ufffd\ufffd\ufffd\ufffd\ufffd\ufffd",
			"rotation":[
				-0.70710688829422,
				0,
				0,
				0.7071066498756409
			]
		},
		{
			"name":"\ufffd\ufffd\ufffd\ufffd\ufffd\ufffd\ufffd\ufffd\ufffd",
			"rotation":[
				-0.70710688829422,
				0,
				0,
				0.7071066498756409
			]
		},
		{
			"children":[
				0,
				1
			],
			"name":"RootNode"
		},
		{
			"children":[
				2
			],
			"name":"c48b2cf0f09049f8b6b45a9fb85c81d9.fbx",
			"rotation":[
				0.70710688829422,
				0,
				0,
				0.7071066498756409
			],
			"scale":[
				0.009999999776482582,
				0.010000000707805157,
				0.010000000707805157
			]
		},
		{
			"children":[
				3
			],
			"name":"Sketchfab_model",
			"rotation":[
				-0.70710688829422,
				0,
				0,
				0.7071066498756409
			]
		},
		{
			"mesh":0,
			"name":"bomb_0.005"
		},
		{
			"children":[
				5
			],
			"name":"bomb"
		},
		{
			"children":[
				6
			],
			"name":"Root"
		},
		{
			"children":[
				7
			],
			"name":"Sketchfab_model.001",
			"rotation":[
				-0.7071069478988647,
				0,
				0,
				0.7071066498756409
			],
			"scale":[
				0.025641025975346565,
				0.025641029700636864,
				0.025641029700636864
			]
		}
	],
	"materials":[
		{
			"doubleSided":true,
			"name":"bomb",
			"normalTexture":{
				"index":0
			},
			"occlusionTexture":{
				"index":1
			},
			"pbrMetallicRoughness":{
				"baseColorTexture":{
					"index":2
				},
				"metallicRoughnessTexture":{
					"index":1
				}
			}
		}
	],
	"meshes":[
		{
			"name":"bomb_0.005",
			"primitives":[
				{
					"attributes":{
						"POSITION":0,
						"NORMAL":1,
						"TEXCOORD_0":2
					},
					"indices":3,
					"material":0
				}
			]
		}
	],
	"textures":[
		{
			"sampler":0,
			"source":0
		},
		{
			"sampler":0,
			"source":1
		},
		{
			"sampler":0,
			"source":2
		}
	],
	"images":[
		{
			"mimeType":"image/png",
			"name":"bomb_normal",
			"uri":"bomb_normal.png"
		},
		{
			"mimeType":"image/png",
			"name":"bomb_metallicRoughness",
			"uri":"bomb_metallicRoughness.png"
		},
		{
			"mimeType":"image/png",
			"name":"bomb_baseColor",
			"uri":"bomb_baseColor.png"
		}
	],
	"accessors":[
		{
			"bufferView":0,
			"componentType":5126,
			"count":635,
			"max":[
				2.75,
				2.750000238418579,
				3.278930425643921
			],
			"min":[
				-2.75,
				-2.75,
				-2.750000238418579
			],
			"type":"VEC3"
		},
		{
			"bufferView":1,
			"componentType":5126,
			"count":635,
			"type":"VEC3"
		},
		{
			"bufferView":2,
			"componentType":5126,
			"count":635,
			"type":"VEC2"
		},
		{
			"bufferView":3,
			"componentType":5123,
			"count":2736,
			"type":"SCALAR"
		}
	],
	"bufferViews":[
		{
			"buffer":0,
			"byteLength":7620,
			"byteOffset":0,
			"target":34962
		},
		{
			"buffer":0,
			"byteLength":7620,
			"byteOffset":7620,
			"target":34962
		},
		{
			"buffer":0,
			"byteLength":5080,
			"byteOffset":15240,
			"target":34962
		},
		{
			"buffer":0,
			"byteLength":5472,
			"byteOffset":20320,
			"target":34963
		}
	],
	"samplers":[
		{
			"magFilter":9729,
			"minFilter":9987
		}
	],
	"buffers":[
		{
			"byteLength":25792,
			"uri":"blob.bin"
		}
	]
}
