{
	"asset":{
		"generator":"Khronos glTF Blender I/O v4.4.56",
		"version":"2.0"
	},
	"scene":0,
	"scenes":[
		{
			"name":"Scene",
			"nodes":[
				5
			]
		}
	],
	"nodes":[
		{
			"name":"\ufffd\ufffd\ufffd\ufffd\ufffd\ufffd",
			"rotation":[
				-0.70710688829422,
				0,
				0,
				0.7071066498756409
			]
		},
		{
			"mesh":0,
			"name":"\ufffd\ufffd\ufffd\ufffd\ufffd\ufffd\ufffd\ufffd\ufffd_02 - Default_0"
		},
		{
			"children":[
				1
			],
			"name":"\ufffd\ufffd\ufffd\ufffd\ufffd\ufffd\ufffd\ufffd\ufffd",
			"rotation":[
				-0.70710688829422,
				0,
				0,
				0.7071066498756409
			]
		},
		{
			"children":[
				0,
				2
			],
			"name":"RootNode"
		},
		{
			"children":[
				3
			],
			"name":"c48b2cf0f09049f8b6b45a9fb85c81d9.fbx",
			"rotation":[
				0.70710688829422,
				0,
				0,
				0.7071066498756409
			],
			"scale":[
				0.009999999776482582,
				0.009999999776482582,
				0.009999999776482582
			]
		},
		{
			"children":[
				4
			],
			"name":"Sketchfab_model",
			"rotation":[
				-0.70710688829422,
				0,
				0,
				0.7071066498756409
			]
		}
	],
	"materials":[
		{
			"doubleSided":true,
			"name":"02_-_Default",
			"pbrMetallicRoughness":{
				"baseColorFactor":[
					0.7137259840965271,
					0,
					0,
					1
				],
				"metallicFactor":0,
				"roughnessFactor":0.8929713368415833
			}
		}
	],
	"meshes":[
		{
			"name":"\ufffd\ufffd\ufffd\ufffd\ufffd\ufffd\ufffd\ufffd\ufffd_02 - Default_0",
			"primitives":[
				{
					"attributes":{
						"POSITION":0,
						"NORMAL":1,
						"TEXCOORD_0":2
					},
					"indices":3,
					"material":0
				}
			]
		}
	],
	"accessors":[
		{
			"bufferView":0,
			"componentType":5126,
			"count":189,
			"max":[
				13.722898483276367,
				0.5121000409126282,
				19.876113891601562
			],
			"min":[
				-0.5199999809265137,
				-0.512100100517273,
				7.826223373413086
			],
			"type":"VEC3"
		},
		{
			"bufferView":1,
			"componentType":5126,
			"count":189,
			"type":"VEC3"
		},
		{
			"bufferView":2,
			"componentType":5126,
			"count":189,
			"type":"VEC2"
		},
		{
			"bufferView":3,
			"componentType":5123,
			"count":468,
			"type":"SCALAR"
		}
	],
	"bufferViews":[
		{
			"buffer":0,
			"byteLength":2268,
			"byteOffset":0,
			"target":34962
		},
		{
			"buffer":0,
			"byteLength":2268,
			"byteOffset":2268,
			"target":34962
		},
		{
			"buffer":0,
			"byteLength":1512,
			"byteOffset":4536,
			"target":34962
		},
		{
			"buffer":0,
			"byteLength":936,
			"byteOffset":6048,
			"target":34963
		}
	],
	"buffers":[
		{
			"byteLength":6984,
			"uri":"flagHata.bin"
		}
	]
}
