mtllib magma_cannon.mtl
o magma_cannon
v 1.625232 0.000000 0.163067
v 1.176839 0.800000 0.118078
v 1.339320 0.000000 0.818932
v 1.052782 0.800000 0.643728
v 0.783231 0.000000 1.213389
v 0.724167 0.800000 1.121887
v 0.204664 0.000000 1.636723
v 0.145145 0.800000 1.160743
v -0.492001 0.000000 1.463074
v -0.400074 0.800000 1.189707
v -1.018145 0.000000 1.043296
v -0.924985 0.800000 0.947834
v -1.560466 0.000000 0.567491
v -1.091020 0.800000 0.396769
v -1.510064 0.000000 -0.151512
v -1.269717 0.800000 -0.127397
v -1.259288 0.000000 -0.769997
v -1.117324 0.800000 -0.683192
v -0.903387 0.000000 -1.399536
v -0.627267 0.800000 -0.971769
v -0.185295 0.000000 -1.481826
v -0.160766 0.800000 -1.285660
v 0.477506 0.000000 -1.419968
v 0.411764 0.800000 -1.224470
v 1.163001 0.000000 -1.191729
v 0.808166 0.800000 -0.828129
v 1.383349 0.000000 -0.503080
v 1.233855 0.800000 -0.448714
v 0.000000 0.000000 0.000000
v 0.000000 0.800000 0.000000
usemtl basalt
f 1 3 4 2
f 3 5 6 4
f 5 7 8 6
f 7 9 10 8
f 9 11 12 10
f 11 13 14 12
f 13 15 16 14
f 15 17 18 16
f 17 19 20 18
f 19 21 22 20
f 21 23 24 22
f 23 25 26 24
f 25 27 28 26
f 27 1 2 28
usemtl obsidian
f 29 3 1
f 30 2 4
f 29 5 3
f 30 4 6
f 29 7 5
f 30 6 8
f 29 9 7
f 30 8 10
f 29 11 9
f 30 10 12
f 29 13 11
f 30 12 14
f 29 15 13
f 30 14 16
f 29 17 15
f 30 16 18
f 29 19 17
f 30 18 20
f 29 21 19
f 30 20 22
f 29 23 21
f 30 22 24
f 29 25 23
f 30 24 26
f 29 27 25
f 30 26 28
f 29 1 27
f 30 28 2
v 1.020213 0.750000 0.000000
v 0.666786 2.150000 0.000000
v 0.797091 0.750000 0.460201
v 0.642966 2.150000 0.371216
v 0.456587 0.750000 0.790831
v 0.373955 2.150000 0.647710
v 0.000000 0.750000 1.021138
v 0.000000 2.150000 0.666085
v -0.453292 0.750000 0.785126
v -0.376452 2.150000 0.652034
v -0.803527 0.750000 0.463916
v -0.638088 2.150000 0.368400
v -1.018419 0.750000 0.000000
v -0.668145 2.150000 0.000000
v -0.775086 0.750000 -0.447496
v -0.659643 2.150000 -0.380845
v -0.471814 0.750000 -0.817206
v -0.362415 2.150000 -0.627721
v 0.000000 0.750000 -1.012195
v 0.000000 2.150000 -0.672863
v 0.443109 0.750000 -0.767487
v 0.384170 2.150000 -0.665402
v 0.831167 0.750000 -0.479875
v 0.617139 2.150000 -0.356306
v 0.000000 0.750000 0.000000
v 0.000000 2.150000 0.000000
usemtl metal
f 31 33 34 32
f 33 35 36 34
f 35 37 38 36
f 37 39 40 38
f 39 41 42 40
f 41 43 44 42
f 43 45 46 44
f 45 47 48 46
f 47 49 50 48
f 49 51 52 50
f 51 53 54 52
f 53 31 32 54
usemtl obsidian
f 55 33 31
f 56 32 34
f 55 35 33
f 56 34 36
f 55 37 35
f 56 36 38
f 55 39 37
f 56 38 40
f 55 41 39
f 56 40 42
f 55 43 41
f 56 42 44
f 55 45 43
f 56 44 46
f 55 47 45
f 56 46 48
f 55 49 47
f 56 48 50
f 55 51 49
f 56 50 52
f 55 53 51
f 56 52 54
f 55 31 53
f 56 54 32
v 1.174806 2.150000 0.238145
v 0.732079 2.750000 0.148400
v 0.885312 2.150000 0.782134
v 0.568635 2.750000 0.502363
v 0.338959 2.150000 1.010647
v 0.266147 2.750000 0.793549
v -0.241077 2.150000 1.189272
v -0.146411 2.750000 0.722267
v -0.769638 2.150000 0.871168
v -0.510839 2.750000 0.578229
v -1.016837 2.150000 0.341035
v -0.789351 2.750000 0.264739
v -1.200553 2.150000 -0.243364
v -0.714616 2.750000 -0.144860
v -0.856545 2.150000 -0.756719
v -0.588146 2.750000 -0.519601
v -0.344374 2.150000 -1.026791
v -0.262475 2.750000 -0.782600
v 0.244888 2.150000 -1.208069
v 0.143826 2.750000 -0.709518
v 0.744041 2.150000 -0.842194
v 0.528200 2.750000 -0.597880
v 1.039998 2.150000 -0.348803
v 0.773642 2.750000 -0.259470
v 0.000000 2.150000 0.000000
v 0.000000 2.750000 0.000000
usemtl basalt_light
f 57 59 60 58
f 59 61 62 60
f 61 63 64 62
f 63 65 66 64
f 65 67 68 66
f 67 69 70 68
f 69 71 72 70
f 71 73 74 72
f 73 75 76 74
f 75 77 78 76
f 77 79 80 78
f 79 57 58 80
usemtl magma
f 81 59 57
f 82 58 60
f 81 61 59
f 82 60 62
f 81 63 61
f 82 62 64
f 81 65 63
f 82 64 66
f 81 67 65
f 82 66 68
f 81 69 67
f 82 68 70
f 81 71 69
f 82 70 72
f 81 73 71
f 82 72 74
f 81 75 73
f 82 74 76
f 81 77 75
f 82 76 78
f 81 79 77
f 82 78 80
f 81 57 79
f 82 80 58
v 0.900000 2.800000 0.000000
v 0.810000 2.955885 0.000000
v 0.630000 2.955885 0.000000
v 0.540000 2.800000 0.000000
v 0.630000 2.644115 0.000000
v 0.810000 2.644115 0.000000
v 0.855951 2.800000 0.278115
v 0.770356 2.955885 0.250304
v 0.599166 2.955885 0.194681
v 0.513571 2.800000 0.166869
v 0.599166 2.644115 0.194681
v 0.770356 2.644115 0.250304
v 0.728115 2.800000 0.529007
v 0.655304 2.955885 0.476106
v 0.509681 2.955885 0.370305
v 0.436869 2.800000 0.317404
v 0.509681 2.644115 0.370305
v 0.655304 2.644115 0.476106
v 0.529007 2.800000 0.728115
v 0.476106 2.955885 0.655304
v 0.370305 2.955885 0.509681
v 0.317404 2.800000 0.436869
v 0.370305 2.644115 0.509681
v 0.476106 2.644115 0.655304
v 0.278115 2.800000 0.855951
v 0.250304 2.955885 0.770356
v 0.194681 2.955885 0.599166
v 0.166869 2.800000 0.513571
v 0.194681 2.644115 0.599166
v 0.250304 2.644115 0.770356
v 0.000000 2.800000 0.900000
v 0.000000 2.955885 0.810000
v 0.000000 2.955885 0.630000
v 0.000000 2.800000 0.540000
v 0.000000 2.644115 0.630000
v 0.000000 2.644115 0.810000
v -0.278115 2.800000 0.855951
v -0.250304 2.955885 0.770356
v -0.194681 2.955885 0.599166
v -0.166869 2.800000 0.513571
v -0.194681 2.644115 0.599166
v -0.250304 2.644115 0.770356
v -0.529007 2.800000 0.728115
v -0.476106 2.955885 0.655304
v -0.370305 2.955885 0.509681
v -0.317404 2.800000 0.436869
v -0.370305 2.644115 0.509681
v -0.476106 2.644115 0.655304
v -0.728115 2.800000 0.529007
v -0.655304 2.955885 0.476106
v -0.509681 2.955885 0.370305
v -0.436869 2.800000 0.317404
v -0.509681 2.644115 0.370305
v -0.655304 2.644115 0.476106
v -0.855951 2.800000 0.278115
v -0.770356 2.955885 0.250304
v -0.599166 2.955885 0.194681
v -0.513571 2.800000 0.166869
v -0.599166 2.644115 0.194681
v -0.770356 2.644115 0.250304
v -0.900000 2.800000 0.000000
v -0.810000 2.955885 0.000000
v -0.630000 2.955885 0.000000
v -0.540000 2.800000 0.000000
v -0.630000 2.644115 0.000000
v -0.810000 2.644115 0.000000
v -0.855951 2.800000 -0.278115
v -0.770356 2.955885 -0.250304
v -0.599166 2.955885 -0.194681
v -0.513571 2.800000 -0.166869
v -0.599166 2.644115 -0.194681
v -0.770356 2.644115 -0.250304
v -0.728115 2.800000 -0.529007
v -0.655304 2.955885 -0.476106
v -0.509681 2.955885 -0.370305
v -0.436869 2.800000 -0.317404
v -0.509681 2.644115 -0.370305
v -0.655304 2.644115 -0.476106
v -0.529007 2.800000 -0.728115
v -0.476106 2.955885 -0.655304
v -0.370305 2.955885 -0.509681
v -0.317404 2.800000 -0.436869
v -0.370305 2.644115 -0.509681
v -0.476106 2.644115 -0.655304
v -0.278115 2.800000 -0.855951
v -0.250304 2.955885 -0.770356
v -0.194681 2.955885 -0.599166
v -0.166869 2.800000 -0.513571
v -0.194681 2.644115 -0.599166
v -0.250304 2.644115 -0.770356
v 0.000000 2.800000 -0.900000
v 0.000000 2.955885 -0.810000
v 0.000000 2.955885 -0.630000
v 0.000000 2.800000 -0.540000
v 0.000000 2.644115 -0.630000
v 0.000000 2.644115 -0.810000
v 0.278115 2.800000 -0.855951
v 0.250304 2.955885 -0.770356
v 0.194681 2.955885 -0.599166
v 0.166869 2.800000 -0.513571
v 0.194681 2.644115 -0.599166
v 0.250304 2.644115 -0.770356
v 0.529007 2.800000 -0.728115
v 0.476106 2.955885 -0.655304
v 0.370305 2.955885 -0.509681
v 0.317404 2.800000 -0.436869
v 0.370305 2.644115 -0.509681
v 0.476106 2.644115 -0.655304
v 0.728115 2.800000 -0.529007
v 0.655304 2.955885 -0.476106
v 0.509681 2.955885 -0.370305
v 0.436869 2.800000 -0.317404
v 0.509681 2.644115 -0.370305
v 0.655304 2.644115 -0.476106
v 0.855951 2.800000 -0.278115
v 0.770356 2.955885 -0.250304
v 0.599166 2.955885 -0.194681
v 0.513571 2.800000 -0.166869
v 0.599166 2.644115 -0.194681
v 0.770356 2.644115 -0.250304
usemtl ember
f 83 89 90 84
f 84 90 91 85
f 85 91 92 86
f 86 92 93 87
f 87 93 94 88
f 88 94 89 83
f 89 95 96 90
f 90 96 97 91
f 91 97 98 92
f 92 98 99 93
f 93 99 100 94
f 94 100 95 89
f 95 101 102 96
f 96 102 103 97
f 97 103 104 98
f 98 104 105 99
f 99 105 106 100
f 100 106 101 95
f 101 107 108 102
f 102 108 109 103
f 103 109 110 104
f 104 110 111 105
f 105 111 112 106
f 106 112 107 101
f 107 113 114 108
f 108 114 115 109
f 109 115 116 110
f 110 116 117 111
f 111 117 118 112
f 112 118 113 107
f 113 119 120 114
f 114 120 121 115
f 115 121 122 116
f 116 122 123 117
f 117 123 124 118
f 118 124 119 113
f 119 125 126 120
f 120 126 127 121
f 121 127 128 122
f 122 128 129 123
f 123 129 130 124
f 124 130 125 119
f 125 131 132 126
f 126 132 133 127
f 127 133 134 128
f 128 134 135 129
f 129 135 136 130
f 130 136 131 125
f 131 137 138 132
f 132 138 139 133
f 133 139 140 134
f 134 140 141 135
f 135 141 142 136
f 136 142 137 131
f 137 143 144 138
f 138 144 145 139
f 139 145 146 140
f 140 146 147 141
f 141 147 148 142
f 142 148 143 137
f 143 149 150 144
f 144 150 151 145
f 145 151 152 146
f 146 152 153 147
f 147 153 154 148
f 148 154 149 143
f 149 155 156 150
f 150 156 157 151
f 151 157 158 152
f 152 158 159 153
f 153 159 160 154
f 154 160 155 149
f 155 161 162 156
f 156 162 163 157
f 157 163 164 158
f 158 164 165 159
f 159 165 166 160
f 160 166 161 155
f 161 167 168 162
f 162 168 169 163
f 163 169 170 164
f 164 170 171 165
f 165 171 172 166
f 166 172 167 161
f 167 173 174 168
f 168 174 175 169
f 169 175 176 170
f 170 176 177 171
f 171 177 178 172
f 172 178 173 167
f 173 179 180 174
f 174 180 181 175
f 175 181 182 176
f 176 182 183 177
f 177 183 184 178
f 178 184 179 173
f 179 185 186 180
f 180 186 187 181
f 181 187 188 182
f 182 188 189 183
f 183 189 190 184
f 184 190 185 179
f 185 191 192 186
f 186 192 193 187
f 187 193 194 188
f 188 194 195 189
f 189 195 196 190
f 190 196 191 185
f 191 197 198 192
f 192 198 199 193
f 193 199 200 194
f 194 200 201 195
f 195 201 202 196
f 196 202 197 191
f 197 83 84 198
f 198 84 85 199
f 199 85 86 200
f 200 86 87 201
f 201 87 88 202
f 202 88 83 197
