mtllib volcanic_island.mtl
o volcanic_island
v 8.783786 0.000000 2.172562
v 8.841382 0.000000 0.000000
v 0.000000 0.000000 0.000000
v 7.789948 0.000000 4.151565
v 8.783786 0.000000 2.172562
v 0.000000 0.000000 0.000000
v 6.149389 0.000000 5.676359
v 7.789948 0.000000 4.151565
v 0.000000 0.000000 0.000000
v 4.332060 0.000000 6.926168
v 6.149389 0.000000 5.676359
v 0.000000 0.000000 0.000000
v 2.244708 0.000000 7.732952
v 4.332060 0.000000 6.926168
v 0.000000 0.000000 0.000000
v 0.000000 0.000000 7.894906
v 2.244708 0.000000 7.732952
v 0.000000 0.000000 0.000000
v -2.252627 0.000000 7.760232
v 0.000000 0.000000 7.894906
v 0.000000 0.000000 0.000000
v -4.515548 0.000000 7.219531
v -2.252627 0.000000 7.760232
v 0.000000 0.000000 0.000000
v -6.376245 0.000000 5.885765
v -4.515548 0.000000 7.219531
v 0.000000 0.000000 0.000000
v -7.659842 0.000000 4.082227
v -6.376245 0.000000 5.885765
v 0.000000 0.000000 0.000000
v -8.549011 0.000000 2.114493
v -7.659842 0.000000 4.082227
v 0.000000 0.000000 0.000000
v -8.734618 0.000000 0.000000
v -8.549011 0.000000 2.114493
v 0.000000 0.000000 0.000000
v -8.193326 0.000000 -2.026519
v -8.734618 0.000000 0.000000
v 0.000000 0.000000 0.000000
v -7.431315 0.000000 -3.960435
v -8.193326 0.000000 -2.026519
v 0.000000 0.000000 0.000000
v -6.278720 0.000000 -5.795741
v -7.431315 0.000000 -3.960435
v 0.000000 0.000000 0.000000
v -4.455940 0.000000 -7.124228
v -6.278720 0.000000 -5.795741
v 0.000000 0.000000 0.000000
v -2.304296 0.000000 -7.938229
v -4.455940 0.000000 -7.124228
v 0.000000 0.000000 0.000000
v -0.000000 0.000000 -8.329094
v -2.304296 0.000000 -7.938229
v 0.000000 0.000000 0.000000
v 2.296377 0.000000 -7.910949
v -0.000000 0.000000 -8.329094
v 0.000000 0.000000 0.000000
v 4.272452 0.000000 -6.830865
v 2.296377 0.000000 -7.910949
v 0.000000 0.000000 0.000000
v 6.051864 0.000000 -5.586336
v 4.272452 0.000000 -6.830865
v 0.000000 0.000000 0.000000
v 7.561420 0.000000 -4.029773
v 6.051864 0.000000 -5.586336
v 0.000000 0.000000 0.000000
v 8.428101 0.000000 -2.084587
v 7.561420 0.000000 -4.029773
v 0.000000 0.000000 0.000000
v 8.841382 0.000000 0.000000
v 8.428101 0.000000 -2.084587
v 0.000000 0.000000 0.000000
v 8.841382 0.000000 0.000000
v 8.783786 0.000000 2.172562
v 9.386620 -1.350000 2.368624
v 9.390706 -1.350000 0.000000
v 8.783786 0.000000 2.172562
v 7.789948 0.000000 4.151565
v 8.305125 -1.350000 4.515648
v 9.386620 -1.350000 2.368624
v 7.789948 0.000000 4.151565
v 6.149389 0.000000 5.676359
v 6.507462 -1.350000 6.128387
v 8.305125 -1.350000 4.515648
v 6.149389 0.000000 5.676359
v 4.332060 0.000000 6.926168
v 4.580450 -1.350000 7.471423
v 6.507462 -1.350000 6.128387
v 4.332060 0.000000 6.926168
v 2.244708 0.000000 7.732952
v 2.373956 -1.350000 8.343625
v 4.580450 -1.350000 7.471423
v 2.244708 0.000000 7.732952
v 0.000000 0.000000 7.894906
v 0.000000 -1.350000 8.491362
v 2.373956 -1.350000 8.343625
v 0.000000 0.000000 7.894906
v -2.252627 0.000000 7.760232
v -2.384222 -1.350000 8.379707
v 0.000000 -1.350000 8.491362
v -2.252627 0.000000 7.760232
v -4.515548 0.000000 7.219531
v -4.818328 -1.350000 7.859437
v -2.384222 -1.350000 8.379707
v -4.515548 0.000000 7.219531
v -6.376245 0.000000 5.885765
v -6.801563 -1.350000 6.405356
v -4.818328 -1.350000 7.859437
v -6.376245 0.000000 5.885765
v -7.659842 0.000000 4.082227
v -8.136454 -1.350000 4.423938
v -6.801563 -1.350000 6.405356
v -7.659842 0.000000 4.082227
v -8.549011 0.000000 2.114493
v -9.082252 -1.350000 2.291820
v -8.136454 -1.350000 4.423938
v -8.549011 0.000000 2.114493
v -8.734618 0.000000 0.000000
v -9.252294 -1.350000 0.000000
v -9.082252 -1.350000 2.291820
v -8.734618 0.000000 0.000000
v -8.193326 0.000000 -2.026519
v -8.621136 -1.350000 -2.175462
v -9.252294 -1.350000 0.000000
v -8.193326 0.000000 -2.026519
v -7.431315 0.000000 -3.960435
v -7.840186 -1.350000 -4.262852
v -8.621136 -1.350000 -2.175462
v -7.431315 0.000000 -3.960435
v -6.278720 0.000000 -5.795741
v -6.675129 -1.350000 -6.286287
v -7.840186 -1.350000 -4.262852
v -6.278720 0.000000 -5.795741
v -4.455940 0.000000 -7.124228
v -4.741050 -1.350000 -7.733385
v -6.675129 -1.350000 -6.286287
v -4.455940 0.000000 -7.124228
v -2.304296 0.000000 -7.938229
v -2.451207 -1.350000 -8.615134
v -4.741050 -1.350000 -7.733385
v -2.304296 0.000000 -7.938229
v -0.000000 0.000000 -8.329094
v -0.000000 -1.350000 -9.065638
v -2.451207 -1.350000 -8.615134
v -0.000000 0.000000 -8.329094
v 2.296377 0.000000 -7.910949
v 2.440941 -1.350000 -8.579053
v -0.000000 -1.350000 -9.065638
v 2.296377 0.000000 -7.910949
v 4.272452 0.000000 -6.830865
v 4.503172 -1.350000 -7.345371
v 2.440941 -1.350000 -8.579053
v 4.272452 0.000000 -6.830865
v 6.051864 0.000000 -5.586336
v 6.381028 -1.350000 -6.009318
v 4.503172 -1.350000 -7.345371
v 6.051864 0.000000 -5.586336
v 7.561420 0.000000 -4.029773
v 8.008858 -1.350000 -4.354562
v 6.381028 -1.350000 -6.009318
v 7.561420 0.000000 -4.029773
v 8.428101 0.000000 -2.084587
v 8.925503 -1.350000 -2.252266
v 8.008858 -1.350000 -4.354562
v 8.428101 0.000000 -2.084587
v 8.841382 0.000000 0.000000
v 9.390706 -1.350000 0.000000
v 8.925503 -1.350000 -2.252266
v 9.390706 -1.350000 0.000000
v 9.386620 -1.350000 2.368624
v 8.505198 -4.200000 2.189590
v 8.483156 -4.200000 0.000000
v 9.386620 -1.350000 2.368624
v 8.305125 -1.350000 4.515648
v 7.516544 -4.200000 4.169495
v 8.505198 -4.200000 2.189590
v 8.305125 -1.350000 4.515648
v 6.507462 -1.350000 6.128387
v 5.867743 -4.200000 5.637635
v 7.516544 -4.200000 4.169495
v 6.507462 -1.350000 6.128387
v 4.580450 -1.350000 7.471423
v 4.128419 -4.200000 6.870215
v 5.867743 -4.200000 5.637635
v 4.580450 -1.350000 7.471423
v 2.373956 -1.350000 8.343625
v 2.139923 -4.200000 7.673114
v 4.128419 -4.200000 6.870215
v 2.373956 -1.350000 8.343625
v 0.000000 -1.350000 8.491362
v 0.000000 -4.200000 7.796504
v 2.139923 -4.200000 7.673114
v 0.000000 -1.350000 8.491362
v -2.384222 -1.350000 8.379707
v -2.150034 -4.200000 7.709366
v 0.000000 -4.200000 7.796504
v -2.384222 -1.350000 8.379707
v -4.818328 -1.350000 7.859437
v -4.362686 -4.200000 7.260064
v -2.150034 -4.200000 7.709366
v -4.818328 -1.350000 7.859437
v -6.801563 -1.350000 6.405356
v -6.157379 -4.200000 5.915913
v -4.362686 -4.200000 7.260064
v -6.801563 -1.350000 6.405356
v -8.136454 -1.350000 4.423938
v -7.350434 -4.200000 4.077352
v -6.157379 -4.200000 5.915913
v -8.136454 -1.350000 4.423938
v -9.082252 -1.350000 2.291820
v -8.205451 -4.200000 2.112423
v -7.350434 -4.200000 4.077352
v -9.082252 -1.350000 2.291820
v -9.252294 -1.350000 0.000000
v -8.346844 -4.200000 0.000000
v -8.205451 -4.200000 2.112423
v -9.252294 -1.350000 0.000000
v -8.621136 -1.350000 -2.175462
v -7.751334 -4.200000 -1.995514
v -8.346844 -4.200000 0.000000
v -8.621136 -1.350000 -2.175462
v -7.840186 -1.350000 -4.262852
v -7.058663 -4.200000 -3.915505
v -7.751334 -4.200000 -1.995514
v -7.840186 -1.350000 -4.262852
v -6.675129 -1.350000 -6.286287
v -6.032865 -4.200000 -5.796282
v -7.058663 -4.200000 -3.915505
v -6.675129 -1.350000 -6.286287
v -4.741050 -1.350000 -7.733385
v -4.286581 -4.200000 -7.133416
v -6.032865 -4.200000 -5.796282
v -4.741050 -1.350000 -7.733385
v -2.451207 -1.350000 -8.615134
v -2.216001 -4.200000 -7.945907
v -4.286581 -4.200000 -7.133416
v -2.451207 -1.350000 -8.615134
v -0.000000 -1.350000 -9.065638
v -0.000000 -4.200000 -8.373496
v -2.216001 -4.200000 -7.945907
v -0.000000 -1.350000 -9.065638
v 2.440941 -1.350000 -8.579053
v 2.205891 -4.200000 -7.909654
v -0.000000 -4.200000 -8.373496
v 2.440941 -1.350000 -8.579053
v 4.503172 -1.350000 -7.345371
v 4.052314 -4.200000 -6.743567
v 2.205891 -4.200000 -7.909654
v 4.503172 -1.350000 -7.345371
v 6.381028 -1.350000 -6.009318
v 5.743228 -4.200000 -5.518003
v 4.052314 -4.200000 -6.743567
v 6.381028 -1.350000 -6.009318
v 8.008858 -1.350000 -4.354562
v 7.224774 -4.200000 -4.007648
v 5.743228 -4.200000 -5.518003
v 8.008858 -1.350000 -4.354562
v 8.925503 -1.350000 -2.252266
v 8.051081 -4.200000 -2.072681
v 7.224774 -4.200000 -4.007648
v 8.925503 -1.350000 -2.252266
v 9.390706 -1.350000 0.000000
v 8.483156 -4.200000 0.000000
v 8.051081 -4.200000 -2.072681
v 8.483156 -4.200000 0.000000
v 8.505198 -4.200000 2.189590
v 6.847547 -8.200000 1.761403
v 6.809226 -8.200000 0.000000
v 8.505198 -4.200000 2.189590
v 7.516544 -4.200000 4.169495
v 6.044617 -8.200000 3.350267
v 6.847547 -8.200000 1.761403
v 7.516544 -4.200000 4.169495
v 5.867743 -4.200000 5.637635
v 4.701227 -8.200000 4.513178
v 6.044617 -8.200000 3.350267
v 5.867743 -4.200000 5.637635
v 4.128419 -4.200000 6.870215
v 3.306280 -8.200000 5.497579
v 4.701227 -8.200000 4.513178
v 4.128419 -4.200000 6.870215
v 2.139923 -4.200000 7.673114
v 1.713973 -8.200000 6.140770
v 3.306280 -8.200000 5.497579
v 2.139923 -4.200000 7.673114
v 0.000000 -4.200000 7.796504
v 0.000000 -8.200000 6.229506
v 1.713973 -8.200000 6.140770
v 0.000000 -4.200000 7.796504
v -2.150034 -4.200000 7.709366
v -1.722759 -8.200000 6.172247
v 0.000000 -8.200000 6.229506
v -2.150034 -4.200000 7.709366
v -4.362686 -4.200000 7.260064
v -3.509854 -8.200000 5.836075
v -1.722759 -8.200000 6.172247
v -4.362686 -4.200000 7.260064
v -6.157379 -4.200000 5.915913
v -4.952916 -8.200000 4.754799
v -3.509854 -8.200000 5.836075
v -6.157379 -4.200000 5.915913
v -7.350434 -4.200000 4.077352
v -5.900270 -8.200000 3.270261
v -4.952916 -8.200000 4.754799
v -7.350434 -4.200000 4.077352
v -8.205451 -4.200000 2.112423
v -6.587072 -8.200000 1.694401
v -5.900270 -8.200000 3.270261
v -8.205451 -4.200000 2.112423
v -8.346844 -4.200000 0.000000
v -6.690774 -8.200000 0.000000
v -6.587072 -8.200000 1.694401
v -8.346844 -4.200000 0.000000
v -7.751334 -4.200000 -1.995514
v -6.192452 -8.200000 -1.592892
v -6.690774 -8.200000 0.000000
v -7.751334 -4.200000 -1.995514
v -7.058663 -4.200000 -3.915505
v -5.646726 -8.200000 -3.129733
v -6.192452 -8.200000 -1.592892
v -7.058663 -4.200000 -3.915505
v -6.032865 -4.200000 -5.796282
v -4.844715 -8.200000 -4.650926
v -5.646726 -8.200000 -3.129733
v -6.032865 -4.200000 -5.796282
v -4.286581 -4.200000 -7.133416
v -3.443720 -8.200000 -5.726110
v -4.844715 -8.200000 -4.650926
v -4.286581 -4.200000 -7.133416
v -2.216001 -4.200000 -7.945907
v -1.780084 -8.200000 -6.377629
v -3.443720 -8.200000 -5.726110
v -2.216001 -4.200000 -7.945907
v -0.000000 -4.200000 -8.373496
v -0.000000 -8.200000 -6.730494
v -1.780084 -8.200000 -6.377629
v -0.000000 -4.200000 -8.373496
v 2.205891 -4.200000 -7.909654
v 1.771298 -8.200000 -6.346152
v -0.000000 -8.200000 -6.730494
v 2.205891 -4.200000 -7.909654
v 4.052314 -4.200000 -6.743567
v 3.240146 -8.200000 -5.387614
v 1.771298 -8.200000 -6.346152
v 4.052314 -4.200000 -6.743567
v 5.743228 -4.200000 -5.518003
v 4.593025 -8.200000 -4.409304
v 3.240146 -8.200000 -5.387614
v 5.743228 -4.200000 -5.518003
v 7.224774 -4.200000 -4.007648
v 5.791073 -8.200000 -3.209739
v 4.593025 -8.200000 -4.409304
v 7.224774 -4.200000 -4.007648
v 8.051081 -4.200000 -2.072681
v 6.452927 -8.200000 -1.659894
v 5.791073 -8.200000 -3.209739
v 8.051081 -4.200000 -2.072681
v 8.483156 -4.200000 0.000000
v 6.809226 -8.200000 0.000000
v 6.452927 -8.200000 -1.659894
v 6.809226 -8.200000 0.000000
v 6.847547 -8.200000 1.761403
v 4.506795 -12.200000 1.256881
v 4.495115 -12.200000 0.000000
v 6.847547 -8.200000 1.761403
v 6.044617 -8.200000 3.350267
v 3.982920 -12.200000 2.393399
v 4.506795 -12.200000 1.256881
v 6.044617 -8.200000 3.350267
v 4.701227 -8.200000 4.513178
v 3.109241 -12.200000 3.236149
v 3.982920 -12.200000 2.393399
v 4.701227 -8.200000 4.513178
v 3.306280 -8.200000 5.497579
v 2.187596 -12.200000 3.943682
v 3.109241 -12.200000 3.236149
v 3.306280 -8.200000 5.497579
v 1.713973 -8.200000 6.140770
v 1.133918 -12.200000 4.404567
v 2.187596 -12.200000 3.943682
v 1.713973 -8.200000 6.140770
v 0.000000 -8.200000 6.229506
v 0.000000 -12.200000 4.475396
v 1.133918 -12.200000 4.404567
v 0.000000 -8.200000 6.229506
v -1.722759 -8.200000 6.172247
v -1.139275 -12.200000 4.425377
v 0.000000 -12.200000 4.475396
v -1.722759 -8.200000 6.172247
v -3.509854 -8.200000 5.836075
v -2.311731 -12.200000 4.167465
v -1.139275 -12.200000 4.425377
v -3.509854 -8.200000 5.836075
v -4.952916 -8.200000 4.754799
v -3.262716 -12.200000 3.395888
v -2.311731 -12.200000 4.167465
v -4.952916 -8.200000 4.754799
v -5.900270 -8.200000 3.270261
v -3.894900 -12.200000 2.340506
v -3.262716 -12.200000 3.395888
v -5.900270 -8.200000 3.270261
v -6.587072 -8.200000 1.694401
v -4.347963 -12.200000 1.212585
v -3.894900 -12.200000 2.340506
v -6.587072 -8.200000 1.694401
v -6.690774 -8.200000 0.000000
v -4.422885 -12.200000 0.000000
v -4.347963 -12.200000 1.212585
v -6.690774 -8.200000 0.000000
v -6.192452 -8.200000 -1.592892
v -4.107332 -12.200000 -1.145477
v -4.422885 -12.200000 0.000000
v -6.192452 -8.200000 -1.592892
v -5.646726 -8.200000 -3.129733
v -3.740295 -12.200000 -2.247601
v -4.107332 -12.200000 -1.145477
v -5.646726 -8.200000 -3.129733
v -4.844715 -8.200000 -4.650926
v -3.196737 -12.200000 -3.327216
v -3.740295 -12.200000 -2.247601
v -4.844715 -8.200000 -4.650926
v -3.443720 -8.200000 -5.726110
v -2.271404 -12.200000 -4.094766
v -3.196737 -12.200000 -3.327216
v -3.443720 -8.200000 -5.726110
v -1.780084 -8.200000 -6.377629
v -1.174230 -12.200000 -4.561157
v -2.271404 -12.200000 -4.094766
v -1.780084 -8.200000 -6.377629
v -0.000000 -8.200000 -6.730494
v -0.000000 -12.200000 -4.806604
v -1.174230 -12.200000 -4.561157
v -0.000000 -8.200000 -6.730494
v 1.771298 -8.200000 -6.346152
v 1.168873 -12.200000 -4.540347
v -0.000000 -12.200000 -4.806604
v 1.771298 -8.200000 -6.346152
v 3.240146 -8.200000 -5.387614
v 2.147269 -12.200000 -3.870983
v 1.168873 -12.200000 -4.540347
v 3.240146 -8.200000 -5.387614
v 4.593025 -8.200000 -4.409304
v 3.043262 -12.200000 -3.167477
v 2.147269 -12.200000 -3.870983
v 4.593025 -8.200000 -4.409304
v 5.791073 -8.200000 -3.209739
v 3.828315 -12.200000 -2.300494
v 3.043262 -12.200000 -3.167477
v 5.791073 -8.200000 -3.209739
v 6.452927 -8.200000 -1.659894
v 4.266164 -12.200000 -1.189773
v 3.828315 -12.200000 -2.300494
v 6.452927 -8.200000 -1.659894
v 6.809226 -8.200000 0.000000
v 4.495115 -12.200000 0.000000
v 4.266164 -12.200000 -1.189773
v 4.495115 -12.200000 0.000000
v 4.506795 -12.200000 1.256881
v 2.148968 -16.000000 0.553233
v 2.156457 -16.000000 0.000000
v 4.506795 -12.200000 1.256881
v 3.982920 -12.200000 2.393399
v 1.903590 -16.000000 1.055938
v 2.148968 -16.000000 0.553233
v 3.982920 -12.200000 2.393399
v 3.109241 -12.200000 3.236149
v 1.497110 -16.000000 1.438400
v 1.903590 -16.000000 1.055938
v 3.109241 -12.200000 3.236149
v 2.187596 -12.200000 3.943682
v 1.054225 -16.000000 1.754365
v 1.497110 -16.000000 1.438400
v 2.187596 -12.200000 3.943682
v 1.133918 -12.200000 4.404567
v 0.546322 -16.000000 1.958943
v 1.054225 -16.000000 1.754365
v 1.133918 -12.200000 4.404567
v 0.000000 -12.200000 4.475396
v 0.000000 -16.000000 1.996804
v 0.546322 -16.000000 1.958943
v 0.000000 -12.200000 4.475396
v -1.139275 -12.200000 4.425377
v -0.548466 -16.000000 1.966633
v 0.000000 -16.000000 1.996804
v -1.139275 -12.200000 4.425377
v -2.311731 -12.200000 4.167465
v -1.103918 -16.000000 1.837060
v -0.548466 -16.000000 1.966633
v -2.311731 -12.200000 4.167465
v -3.262716 -12.200000 3.395888
v -1.558548 -16.000000 1.497428
v -1.103918 -16.000000 1.837060
v -3.262716 -12.200000 3.395888
v -3.894900 -12.200000 2.340506
v -1.868354 -16.000000 1.036393
v -1.558548 -16.000000 1.497428
v -3.894900 -12.200000 2.340506
v -4.347963 -12.200000 1.212585
v -2.085386 -16.000000 0.536865
v -1.868354 -16.000000 1.036393
v -4.347963 -12.200000 1.212585
v -4.422885 -12.200000 0.000000
v -2.127543 -16.000000 0.000000
v -2.085386 -16.000000 0.536865
v -4.422885 -12.200000 0.000000
v -4.107332 -12.200000 -1.145477
v -1.989058 -16.000000 -0.512066
v -2.127543 -16.000000 0.000000
v -4.107332 -12.200000 -1.145477
v -3.740295 -12.200000 -2.247601
v -1.806463 -16.000000 -1.002062
v -1.989058 -16.000000 -0.512066
v -3.740295 -12.200000 -2.247601
v -3.196737 -12.200000 -3.327216
v -1.532136 -16.000000 -1.472052
v -1.806463 -16.000000 -1.002062
v -3.196737 -12.200000 -3.327216
v -2.271404 -12.200000 -4.094766
v -1.087775 -16.000000 -1.810196
v -1.532136 -16.000000 -1.472052
v -2.271404 -12.200000 -4.094766
v -1.174230 -12.200000 -4.561157
v -0.562459 -16.000000 -2.016808
v -1.087775 -16.000000 -1.810196
v -1.174230 -12.200000 -4.561157
v -0.000000 -12.200000 -4.806604
v -0.000000 -16.000000 -2.119196
v -0.562459 -16.000000 -2.016808
v -0.000000 -12.200000 -4.806604
v 1.168873 -12.200000 -4.540347
v 0.560315 -16.000000 -2.009118
v -0.000000 -16.000000 -2.119196
v 1.168873 -12.200000 -4.540347
v 2.147269 -12.200000 -3.870983
v 1.038082 -16.000000 -1.727500
v 0.560315 -16.000000 -2.009118
v 2.147269 -12.200000 -3.870983
v 3.043262 -12.200000 -3.167477
v 1.470698 -16.000000 -1.413023
v 1.038082 -16.000000 -1.727500
v 3.043262 -12.200000 -3.167477
v 3.828315 -12.200000 -2.300494
v 1.841699 -16.000000 -1.021607
v 1.470698 -16.000000 -1.413023
v 3.828315 -12.200000 -2.300494
v 4.266164 -12.200000 -1.189773
v 2.052641 -16.000000 -0.528435
v 1.841699 -16.000000 -1.021607
v 4.266164 -12.200000 -1.189773
v 4.495115 -12.200000 0.000000
v 2.156457 -16.000000 0.000000
v 2.052641 -16.000000 -0.528435
v 0.000000 -18.000000 0.000000
v 2.156457 -16.000000 0.000000
v 2.148968 -16.000000 0.553233
v 0.000000 -18.000000 0.000000
v 2.148968 -16.000000 0.553233
v 1.903590 -16.000000 1.055938
v 0.000000 -18.000000 0.000000
v 1.903590 -16.000000 1.055938
v 1.497110 -16.000000 1.438400
v 0.000000 -18.000000 0.000000
v 1.497110 -16.000000 1.438400
v 1.054225 -16.000000 1.754365
v 0.000000 -18.000000 0.000000
v 1.054225 -16.000000 1.754365
v 0.546322 -16.000000 1.958943
v 0.000000 -18.000000 0.000000
v 0.546322 -16.000000 1.958943
v 0.000000 -16.000000 1.996804
v 0.000000 -18.000000 0.000000
v 0.000000 -16.000000 1.996804
v -0.548466 -16.000000 1.966633
v 0.000000 -18.000000 0.000000
v -0.548466 -16.000000 1.966633
v -1.103918 -16.000000 1.837060
v 0.000000 -18.000000 0.000000
v -1.103918 -16.000000 1.837060
v -1.558548 -16.000000 1.497428
v 0.000000 -18.000000 0.000000
v -1.558548 -16.000000 1.497428
v -1.868354 -16.000000 1.036393
v 0.000000 -18.000000 0.000000
v -1.868354 -16.000000 1.036393
v -2.085386 -16.000000 0.536865
v 0.000000 -18.000000 0.000000
v -2.085386 -16.000000 0.536865
v -2.127543 -16.000000 0.000000
v 0.000000 -18.000000 0.000000
v -2.127543 -16.000000 0.000000
v -1.989058 -16.000000 -0.512066
v 0.000000 -18.000000 0.000000
v -1.989058 -16.000000 -0.512066
v -1.806463 -16.000000 -1.002062
v 0.000000 -18.000000 0.000000
v -1.806463 -16.000000 -1.002062
v -1.532136 -16.000000 -1.472052
v 0.000000 -18.000000 0.000000
v -1.532136 -16.000000 -1.472052
v -1.087775 -16.000000 -1.810196
v 0.000000 -18.000000 0.000000
v -1.087775 -16.000000 -1.810196
v -0.562459 -16.000000 -2.016808
v 0.000000 -18.000000 0.000000
v -0.562459 -16.000000 -2.016808
v -0.000000 -16.000000 -2.119196
v 0.000000 -18.000000 0.000000
v -0.000000 -16.000000 -2.119196
v 0.560315 -16.000000 -2.009118
v 0.000000 -18.000000 0.000000
v 0.560315 -16.000000 -2.009118
v 1.038082 -16.000000 -1.727500
v 0.000000 -18.000000 0.000000
v 1.038082 -16.000000 -1.727500
v 1.470698 -16.000000 -1.413023
v 0.000000 -18.000000 0.000000
v 1.470698 -16.000000 -1.413023
v 1.841699 -16.000000 -1.021607
v 0.000000 -18.000000 0.000000
v 1.841699 -16.000000 -1.021607
v 2.052641 -16.000000 -0.528435
v 0.000000 -18.000000 0.000000
v 2.052641 -16.000000 -0.528435
v 2.156457 -16.000000 0.000000
v -7.820586 0.055000 -1.733095
v -5.220586 0.060000 -0.933095
v -5.179414 0.060000 -1.066905
v -7.779414 0.055000 -1.866905
v -5.171570 0.060000 -0.936033
v -3.371570 0.065000 -1.736033
v -3.428430 0.065000 -1.863967
v -5.228430 0.060000 -1.063967
v -3.428966 0.065000 -1.736274
v -1.228966 0.070000 -0.736274
v -1.171034 0.070000 -0.863726
v -3.371034 0.065000 -1.863726
v 6.936672 0.055000 2.026657
v 4.736672 0.060000 0.926657
v 4.663328 0.060000 1.073343
v 6.863328 0.055000 2.173343
v 4.665323 0.060000 0.925693
v 3.165323 0.065000 1.625693
v 3.234677 0.065000 1.774307
v 4.734677 0.060000 1.074307
v 3.235255 0.065000 1.625965
v 1.135255 0.070000 0.625965
v 1.064745 0.070000 0.774035
v 3.164745 0.065000 1.774035
v -1.709312 0.055000 7.024733
v -1.109312 0.060000 4.824733
v -1.290688 0.060000 4.775267
v -1.890688 0.055000 6.975267
v -1.114947 0.060000 4.759975
v -1.914947 0.065000 3.059975
v -2.085053 0.065000 3.140025
v -1.285053 0.060000 4.840025
v 2.698990 0.055000 -7.132140
v 1.998990 0.060000 -4.932140
v 2.201010 0.060000 -4.867860
v 2.901010 0.055000 -7.067860
v 2.004204 0.060000 -4.854623
v 2.904204 0.065000 -2.954623
v 3.095796 0.065000 -3.045377
v 2.195796 0.060000 -4.945377
vt 0.983108 0.380509
vt 0.986276 0.500000
vt 0.500000 0.500000
vt 0.928447 0.271664
vt 0.983108 0.380509
vt 0.500000 0.500000
vt 0.838216 0.187800
vt 0.928447 0.271664
vt 0.500000 0.500000
vt 0.738263 0.119061
vt 0.838216 0.187800
vt 0.500000 0.500000
vt 0.623459 0.074688
vt 0.738263 0.119061
vt 0.500000 0.500000
vt 0.500000 0.065780
vt 0.623459 0.074688
vt 0.500000 0.500000
vt 0.376106 0.073187
vt 0.500000 0.065780
vt 0.500000 0.500000
vt 0.251645 0.102926
vt 0.376106 0.073187
vt 0.500000 0.500000
vt 0.149307 0.176283
vt 0.251645 0.102926
vt 0.500000 0.500000
vt 0.078709 0.275478
vt 0.149307 0.176283
vt 0.500000 0.500000
vt 0.029804 0.383703
vt 0.078709 0.275478
vt 0.500000 0.500000
vt 0.019596 0.500000
vt 0.029804 0.383703
vt 0.500000 0.500000
vt 0.049367 0.611459
vt 0.019596 0.500000
vt 0.500000 0.500000
vt 0.091278 0.717824
vt 0.049367 0.611459
vt 0.500000 0.500000
vt 0.154670 0.818766
vt 0.091278 0.717824
vt 0.500000 0.500000
vt 0.254923 0.891833
vt 0.154670 0.818766
vt 0.500000 0.500000
vt 0.373264 0.936603
vt 0.254923 0.891833
vt 0.500000 0.500000
vt 0.500000 0.958100
vt 0.373264 0.936603
vt 0.500000 0.500000
vt 0.626301 0.935102
vt 0.500000 0.958100
vt 0.500000 0.500000
vt 0.734985 0.875698
vt 0.626301 0.935102
vt 0.500000 0.500000
vt 0.832853 0.807248
vt 0.734985 0.875698
vt 0.500000 0.500000
vt 0.915878 0.721638
vt 0.832853 0.807248
vt 0.500000 0.500000
vt 0.963546 0.614652
vt 0.915878 0.721638
vt 0.500000 0.500000
vt 0.986276 0.500000
vt 0.963546 0.614652
vt 0.500000 0.500000
vt 0.000000 0.000000
vt 0.041667 0.000000
vt 0.041667 1.000000
vt 0.000000 1.000000
vt 0.041667 0.000000
vt 0.083333 0.000000
vt 0.083333 1.000000
vt 0.041667 1.000000
vt 0.083333 0.000000
vt 0.125000 0.000000
vt 0.125000 1.000000
vt 0.083333 1.000000
vt 0.125000 0.000000
vt 0.166667 0.000000
vt 0.166667 1.000000
vt 0.125000 1.000000
vt 0.166667 0.000000
vt 0.208333 0.000000
vt 0.208333 1.000000
vt 0.166667 1.000000
vt 0.208333 0.000000
vt 0.250000 0.000000
vt 0.250000 1.000000
vt 0.208333 1.000000
vt 0.250000 0.000000
vt 0.291667 0.000000
vt 0.291667 1.000000
vt 0.250000 1.000000
vt 0.291667 0.000000
vt 0.333333 0.000000
vt 0.333333 1.000000
vt 0.291667 1.000000
vt 0.333333 0.000000
vt 0.375000 0.000000
vt 0.375000 1.000000
vt 0.333333 1.000000
vt 0.375000 0.000000
vt 0.416667 0.000000
vt 0.416667 1.000000
vt 0.375000 1.000000
vt 0.416667 0.000000
vt 0.458333 0.000000
vt 0.458333 1.000000
vt 0.416667 1.000000
vt 0.458333 0.000000
vt 0.500000 0.000000
vt 0.500000 1.000000
vt 0.458333 1.000000
vt 0.500000 0.000000
vt 0.541667 0.000000
vt 0.541667 1.000000
vt 0.500000 1.000000
vt 0.541667 0.000000
vt 0.583333 0.000000
vt 0.583333 1.000000
vt 0.541667 1.000000
vt 0.583333 0.000000
vt 0.625000 0.000000
vt 0.625000 1.000000
vt 0.583333 1.000000
vt 0.625000 0.000000
vt 0.666667 0.000000
vt 0.666667 1.000000
vt 0.625000 1.000000
vt 0.666667 0.000000
vt 0.708333 0.000000
vt 0.708333 1.000000
vt 0.666667 1.000000
vt 0.708333 0.000000
vt 0.750000 0.000000
vt 0.750000 1.000000
vt 0.708333 1.000000
vt 0.750000 0.000000
vt 0.791667 0.000000
vt 0.791667 1.000000
vt 0.750000 1.000000
vt 0.791667 0.000000
vt 0.833333 0.000000
vt 0.833333 1.000000
vt 0.791667 1.000000
vt 0.833333 0.000000
vt 0.875000 0.000000
vt 0.875000 1.000000
vt 0.833333 1.000000
vt 0.875000 0.000000
vt 0.916667 0.000000
vt 0.916667 1.000000
vt 0.875000 1.000000
vt 0.916667 0.000000
vt 0.958333 0.000000
vt 0.958333 1.000000
vt 0.916667 1.000000
vt 0.958333 0.000000
vt 1.000000 0.000000
vt 1.000000 1.000000
vt 0.958333 1.000000
vt 0.000000 0.000000
vt 0.041667 0.000000
vt 0.041667 1.000000
vt 0.000000 1.000000
vt 0.041667 0.000000
vt 0.083333 0.000000
vt 0.083333 1.000000
vt 0.041667 1.000000
vt 0.083333 0.000000
vt 0.125000 0.000000
vt 0.125000 1.000000
vt 0.083333 1.000000
vt 0.125000 0.000000
vt 0.166667 0.000000
vt 0.166667 1.000000
vt 0.125000 1.000000
vt 0.166667 0.000000
vt 0.208333 0.000000
vt 0.208333 1.000000
vt 0.166667 1.000000
vt 0.208333 0.000000
vt 0.250000 0.000000
vt 0.250000 1.000000
vt 0.208333 1.000000
vt 0.250000 0.000000
vt 0.291667 0.000000
vt 0.291667 1.000000
vt 0.250000 1.000000
vt 0.291667 0.000000
vt 0.333333 0.000000
vt 0.333333 1.000000
vt 0.291667 1.000000
vt 0.333333 0.000000
vt 0.375000 0.000000
vt 0.375000 1.000000
vt 0.333333 1.000000
vt 0.375000 0.000000
vt 0.416667 0.000000
vt 0.416667 1.000000
vt 0.375000 1.000000
vt 0.416667 0.000000
vt 0.458333 0.000000
vt 0.458333 1.000000
vt 0.416667 1.000000
vt 0.458333 0.000000
vt 0.500000 0.000000
vt 0.500000 1.000000
vt 0.458333 1.000000
vt 0.500000 0.000000
vt 0.541667 0.000000
vt 0.541667 1.000000
vt 0.500000 1.000000
vt 0.541667 0.000000
vt 0.583333 0.000000
vt 0.583333 1.000000
vt 0.541667 1.000000
vt 0.583333 0.000000
vt 0.625000 0.000000
vt 0.625000 1.000000
vt 0.583333 1.000000
vt 0.625000 0.000000
vt 0.666667 0.000000
vt 0.666667 1.000000
vt 0.625000 1.000000
vt 0.666667 0.000000
vt 0.708333 0.000000
vt 0.708333 1.000000
vt 0.666667 1.000000
vt 0.708333 0.000000
vt 0.750000 0.000000
vt 0.750000 1.000000
vt 0.708333 1.000000
vt 0.750000 0.000000
vt 0.791667 0.000000
vt 0.791667 1.000000
vt 0.750000 1.000000
vt 0.791667 0.000000
vt 0.833333 0.000000
vt 0.833333 1.000000
vt 0.791667 1.000000
vt 0.833333 0.000000
vt 0.875000 0.000000
vt 0.875000 1.000000
vt 0.833333 1.000000
vt 0.875000 0.000000
vt 0.916667 0.000000
vt 0.916667 1.000000
vt 0.875000 1.000000
vt 0.916667 0.000000
vt 0.958333 0.000000
vt 0.958333 1.000000
vt 0.916667 1.000000
vt 0.958333 0.000000
vt 1.000000 0.000000
vt 1.000000 1.000000
vt 0.958333 1.000000
vt 0.000000 0.000000
vt 0.041667 0.000000
vt 0.041667 1.000000
vt 0.000000 1.000000
vt 0.041667 0.000000
vt 0.083333 0.000000
vt 0.083333 1.000000
vt 0.041667 1.000000
vt 0.083333 0.000000
vt 0.125000 0.000000
vt 0.125000 1.000000
vt 0.083333 1.000000
vt 0.125000 0.000000
vt 0.166667 0.000000
vt 0.166667 1.000000
vt 0.125000 1.000000
vt 0.166667 0.000000
vt 0.208333 0.000000
vt 0.208333 1.000000
vt 0.166667 1.000000
vt 0.208333 0.000000
vt 0.250000 0.000000
vt 0.250000 1.000000
vt 0.208333 1.000000
vt 0.250000 0.000000
vt 0.291667 0.000000
vt 0.291667 1.000000
vt 0.250000 1.000000
vt 0.291667 0.000000
vt 0.333333 0.000000
vt 0.333333 1.000000
vt 0.291667 1.000000
vt 0.333333 0.000000
vt 0.375000 0.000000
vt 0.375000 1.000000
vt 0.333333 1.000000
vt 0.375000 0.000000
vt 0.416667 0.000000
vt 0.416667 1.000000
vt 0.375000 1.000000
vt 0.416667 0.000000
vt 0.458333 0.000000
vt 0.458333 1.000000
vt 0.416667 1.000000
vt 0.458333 0.000000
vt 0.500000 0.000000
vt 0.500000 1.000000
vt 0.458333 1.000000
vt 0.500000 0.000000
vt 0.541667 0.000000
vt 0.541667 1.000000
vt 0.500000 1.000000
vt 0.541667 0.000000
vt 0.583333 0.000000
vt 0.583333 1.000000
vt 0.541667 1.000000
vt 0.583333 0.000000
vt 0.625000 0.000000
vt 0.625000 1.000000
vt 0.583333 1.000000
vt 0.625000 0.000000
vt 0.666667 0.000000
vt 0.666667 1.000000
vt 0.625000 1.000000
vt 0.666667 0.000000
vt 0.708333 0.000000
vt 0.708333 1.000000
vt 0.666667 1.000000
vt 0.708333 0.000000
vt 0.750000 0.000000
vt 0.750000 1.000000
vt 0.708333 1.000000
vt 0.750000 0.000000
vt 0.791667 0.000000
vt 0.791667 1.000000
vt 0.750000 1.000000
vt 0.791667 0.000000
vt 0.833333 0.000000
vt 0.833333 1.000000
vt 0.791667 1.000000
vt 0.833333 0.000000
vt 0.875000 0.000000
vt 0.875000 1.000000
vt 0.833333 1.000000
vt 0.875000 0.000000
vt 0.916667 0.000000
vt 0.916667 1.000000
vt 0.875000 1.000000
vt 0.916667 0.000000
vt 0.958333 0.000000
vt 0.958333 1.000000
vt 0.916667 1.000000
vt 0.958333 0.000000
vt 1.000000 0.000000
vt 1.000000 1.000000
vt 0.958333 1.000000
vt 0.000000 0.000000
vt 0.041667 0.000000
vt 0.041667 1.000000
vt 0.000000 1.000000
vt 0.041667 0.000000
vt 0.083333 0.000000
vt 0.083333 1.000000
vt 0.041667 1.000000
vt 0.083333 0.000000
vt 0.125000 0.000000
vt 0.125000 1.000000
vt 0.083333 1.000000
vt 0.125000 0.000000
vt 0.166667 0.000000
vt 0.166667 1.000000
vt 0.125000 1.000000
vt 0.166667 0.000000
vt 0.208333 0.000000
vt 0.208333 1.000000
vt 0.166667 1.000000
vt 0.208333 0.000000
vt 0.250000 0.000000
vt 0.250000 1.000000
vt 0.208333 1.000000
vt 0.250000 0.000000
vt 0.291667 0.000000
vt 0.291667 1.000000
vt 0.250000 1.000000
vt 0.291667 0.000000
vt 0.333333 0.000000
vt 0.333333 1.000000
vt 0.291667 1.000000
vt 0.333333 0.000000
vt 0.375000 0.000000
vt 0.375000 1.000000
vt 0.333333 1.000000
vt 0.375000 0.000000
vt 0.416667 0.000000
vt 0.416667 1.000000
vt 0.375000 1.000000
vt 0.416667 0.000000
vt 0.458333 0.000000
vt 0.458333 1.000000
vt 0.416667 1.000000
vt 0.458333 0.000000
vt 0.500000 0.000000
vt 0.500000 1.000000
vt 0.458333 1.000000
vt 0.500000 0.000000
vt 0.541667 0.000000
vt 0.541667 1.000000
vt 0.500000 1.000000
vt 0.541667 0.000000
vt 0.583333 0.000000
vt 0.583333 1.000000
vt 0.541667 1.000000
vt 0.583333 0.000000
vt 0.625000 0.000000
vt 0.625000 1.000000
vt 0.583333 1.000000
vt 0.625000 0.000000
vt 0.666667 0.000000
vt 0.666667 1.000000
vt 0.625000 1.000000
vt 0.666667 0.000000
vt 0.708333 0.000000
vt 0.708333 1.000000
vt 0.666667 1.000000
vt 0.708333 0.000000
vt 0.750000 0.000000
vt 0.750000 1.000000
vt 0.708333 1.000000
vt 0.750000 0.000000
vt 0.791667 0.000000
vt 0.791667 1.000000
vt 0.750000 1.000000
vt 0.791667 0.000000
vt 0.833333 0.000000
vt 0.833333 1.000000
vt 0.791667 1.000000
vt 0.833333 0.000000
vt 0.875000 0.000000
vt 0.875000 1.000000
vt 0.833333 1.000000
vt 0.875000 0.000000
vt 0.916667 0.000000
vt 0.916667 1.000000
vt 0.875000 1.000000
vt 0.916667 0.000000
vt 0.958333 0.000000
vt 0.958333 1.000000
vt 0.916667 1.000000
vt 0.958333 0.000000
vt 1.000000 0.000000
vt 1.000000 1.000000
vt 0.958333 1.000000
vt 0.000000 0.000000
vt 0.041667 0.000000
vt 0.041667 1.000000
vt 0.000000 1.000000
vt 0.041667 0.000000
vt 0.083333 0.000000
vt 0.083333 1.000000
vt 0.041667 1.000000
vt 0.083333 0.000000
vt 0.125000 0.000000
vt 0.125000 1.000000
vt 0.083333 1.000000
vt 0.125000 0.000000
vt 0.166667 0.000000
vt 0.166667 1.000000
vt 0.125000 1.000000
vt 0.166667 0.000000
vt 0.208333 0.000000
vt 0.208333 1.000000
vt 0.166667 1.000000
vt 0.208333 0.000000
vt 0.250000 0.000000
vt 0.250000 1.000000
vt 0.208333 1.000000
vt 0.250000 0.000000
vt 0.291667 0.000000
vt 0.291667 1.000000
vt 0.250000 1.000000
vt 0.291667 0.000000
vt 0.333333 0.000000
vt 0.333333 1.000000
vt 0.291667 1.000000
vt 0.333333 0.000000
vt 0.375000 0.000000
vt 0.375000 1.000000
vt 0.333333 1.000000
vt 0.375000 0.000000
vt 0.416667 0.000000
vt 0.416667 1.000000
vt 0.375000 1.000000
vt 0.416667 0.000000
vt 0.458333 0.000000
vt 0.458333 1.000000
vt 0.416667 1.000000
vt 0.458333 0.000000
vt 0.500000 0.000000
vt 0.500000 1.000000
vt 0.458333 1.000000
vt 0.500000 0.000000
vt 0.541667 0.000000
vt 0.541667 1.000000
vt 0.500000 1.000000
vt 0.541667 0.000000
vt 0.583333 0.000000
vt 0.583333 1.000000
vt 0.541667 1.000000
vt 0.583333 0.000000
vt 0.625000 0.000000
vt 0.625000 1.000000
vt 0.583333 1.000000
vt 0.625000 0.000000
vt 0.666667 0.000000
vt 0.666667 1.000000
vt 0.625000 1.000000
vt 0.666667 0.000000
vt 0.708333 0.000000
vt 0.708333 1.000000
vt 0.666667 1.000000
vt 0.708333 0.000000
vt 0.750000 0.000000
vt 0.750000 1.000000
vt 0.708333 1.000000
vt 0.750000 0.000000
vt 0.791667 0.000000
vt 0.791667 1.000000
vt 0.750000 1.000000
vt 0.791667 0.000000
vt 0.833333 0.000000
vt 0.833333 1.000000
vt 0.791667 1.000000
vt 0.833333 0.000000
vt 0.875000 0.000000
vt 0.875000 1.000000
vt 0.833333 1.000000
vt 0.875000 0.000000
vt 0.916667 0.000000
vt 0.916667 1.000000
vt 0.875000 1.000000
vt 0.916667 0.000000
vt 0.958333 0.000000
vt 0.958333 1.000000
vt 0.916667 1.000000
vt 0.958333 0.000000
vt 1.000000 0.000000
vt 1.000000 1.000000
vt 0.958333 1.000000
vt 0.500000 0.500000
vt 0.575476 0.500000
vt 0.575214 0.480637
vt 0.500000 0.500000
vt 0.575214 0.480637
vt 0.566626 0.463042
vt 0.500000 0.500000
vt 0.566626 0.463042
vt 0.552399 0.449656
vt 0.500000 0.500000
vt 0.552399 0.449656
vt 0.536898 0.438597
vt 0.500000 0.500000
vt 0.536898 0.438597
vt 0.519121 0.431437
vt 0.500000 0.500000
vt 0.519121 0.431437
vt 0.500000 0.430112
vt 0.500000 0.500000
vt 0.500000 0.430112
vt 0.480804 0.431168
vt 0.500000 0.500000
vt 0.480804 0.431168
vt 0.461363 0.435703
vt 0.500000 0.500000
vt 0.461363 0.435703
vt 0.445451 0.447590
vt 0.500000 0.500000
vt 0.445451 0.447590
vt 0.434608 0.463726
vt 0.500000 0.500000
vt 0.434608 0.463726
vt 0.427011 0.481210
vt 0.500000 0.500000
vt 0.427011 0.481210
vt 0.425536 0.500000
vt 0.500000 0.500000
vt 0.425536 0.500000
vt 0.430383 0.517922
vt 0.500000 0.500000
vt 0.430383 0.517922
vt 0.436774 0.535072
vt 0.500000 0.500000
vt 0.436774 0.535072
vt 0.446375 0.551522
vt 0.500000 0.500000
vt 0.446375 0.551522
vt 0.461928 0.563357
vt 0.500000 0.500000
vt 0.461928 0.563357
vt 0.480314 0.570588
vt 0.500000 0.500000
vt 0.480314 0.570588
vt 0.500000 0.574172
vt 0.500000 0.500000
vt 0.500000 0.574172
vt 0.519611 0.570319
vt 0.500000 0.500000
vt 0.519611 0.570319
vt 0.536333 0.560463
vt 0.500000 0.500000
vt 0.536333 0.560463
vt 0.551474 0.549456
vt 0.500000 0.500000
vt 0.551474 0.549456
vt 0.564459 0.535756
vt 0.500000 0.500000
vt 0.564459 0.535756
vt 0.571842 0.518495
vt 0.500000 0.500000
vt 0.571842 0.518495
vt 0.575476 0.500000
vt 0.226279 0.560658
vt 0.317279 0.532658
vt 0.318721 0.537342
vt 0.227721 0.565342
vt 0.318995 0.532761
vt 0.381995 0.560761
vt 0.380005 0.565239
vt 0.317005 0.537239
vt 0.379986 0.560770
vt 0.456986 0.525770
vt 0.459014 0.530230
vt 0.382014 0.565230
vt 0.742784 0.429067
vt 0.665784 0.467567
vt 0.663216 0.462433
vt 0.740216 0.423933
vt 0.663286 0.467601
vt 0.610786 0.443101
vt 0.613214 0.437899
vt 0.665714 0.462399
vt 0.613234 0.443091
vt 0.539734 0.478091
vt 0.537266 0.472909
vt 0.610766 0.437909
vt 0.440174 0.254134
vt 0.461174 0.331134
vt 0.454826 0.332866
vt 0.433826 0.255866
vt 0.460977 0.333401
vt 0.432977 0.392901
vt 0.427023 0.390099
vt 0.455023 0.330599
vt 0.594465 0.749625
vt 0.569965 0.672625
vt 0.577035 0.670375
vt 0.601535 0.747375
vt 0.570147 0.669912
vt 0.601647 0.603412
vt 0.608353 0.606588
vt 0.576853 0.673088
vn 0.000000 1.000000 0.000000
vn 0.000000 1.000000 0.000000
vn 0.000000 1.000000 0.000000
vn 0.000000 1.000000 0.000000
vn 0.000000 1.000000 0.000000
vn 0.000000 1.000000 0.000000
vn 0.000000 1.000000 0.000000
vn 0.000000 1.000000 0.000000
vn 0.000000 1.000000 0.000000
vn 0.000000 1.000000 0.000000
vn 0.000000 1.000000 0.000000
vn 0.000000 1.000000 0.000000
vn 0.000000 1.000000 0.000000
vn 0.000000 1.000000 0.000000
vn 0.000000 1.000000 0.000000
vn 0.000000 1.000000 0.000000
vn 0.000000 1.000000 0.000000
vn 0.000000 1.000000 0.000000
vn -0.000000 1.000000 0.000000
vn -0.000000 1.000000 0.000000
vn -0.000000 1.000000 0.000000
vn -0.000000 1.000000 0.000000
vn -0.000000 1.000000 0.000000
vn -0.000000 1.000000 0.000000
vn -0.000000 1.000000 0.000000
vn -0.000000 1.000000 0.000000
vn -0.000000 1.000000 0.000000
vn -0.000000 1.000000 0.000000
vn -0.000000 1.000000 0.000000
vn -0.000000 1.000000 0.000000
vn -0.000000 1.000000 0.000000
vn -0.000000 1.000000 0.000000
vn -0.000000 1.000000 0.000000
vn -0.000000 1.000000 0.000000
vn -0.000000 1.000000 0.000000
vn -0.000000 1.000000 0.000000
vn 0.000000 1.000000 -0.000000
vn 0.000000 1.000000 -0.000000
vn 0.000000 1.000000 -0.000000
vn 0.000000 1.000000 -0.000000
vn 0.000000 1.000000 -0.000000
vn 0.000000 1.000000 -0.000000
vn 0.000000 1.000000 -0.000000
vn 0.000000 1.000000 -0.000000
vn 0.000000 1.000000 -0.000000
vn 0.000000 1.000000 -0.000000
vn 0.000000 1.000000 -0.000000
vn 0.000000 1.000000 -0.000000
vn 0.000000 1.000000 -0.000000
vn 0.000000 1.000000 -0.000000
vn 0.000000 1.000000 -0.000000
vn 0.000000 1.000000 -0.000000
vn 0.000000 1.000000 -0.000000
vn 0.000000 1.000000 -0.000000
vn 0.000000 1.000000 0.000000
vn 0.000000 1.000000 0.000000
vn 0.000000 1.000000 0.000000
vn 0.000000 1.000000 0.000000
vn 0.000000 1.000000 0.000000
vn 0.000000 1.000000 0.000000
vn 0.000000 1.000000 0.000000
vn 0.000000 1.000000 0.000000
vn 0.000000 1.000000 0.000000
vn 0.000000 1.000000 0.000000
vn 0.000000 1.000000 0.000000
vn 0.000000 1.000000 0.000000
vn 0.000000 1.000000 0.000000
vn 0.000000 1.000000 0.000000
vn 0.000000 1.000000 0.000000
vn 0.000000 1.000000 0.000000
vn 0.000000 1.000000 0.000000
vn 0.000000 1.000000 0.000000
vn 0.911521 0.410543 0.024165
vn 0.911521 0.410543 0.024165
vn 0.911521 0.410543 0.024165
vn 0.911521 0.410543 0.024165
vn 0.811231 0.419447 0.407393
vn 0.811231 0.419447 0.407393
vn 0.811231 0.419447 0.407393
vn 0.811231 0.419447 0.407393
vn 0.626365 0.391789 0.673920
vn 0.626365 0.391789 0.673920
vn 0.626365 0.391789 0.673920
vn 0.626365 0.391789 0.673920
vn 0.519227 0.400473 0.755000
vn 0.519227 0.400473 0.755000
vn 0.519227 0.400473 0.755000
vn 0.519227 0.400473 0.755000
vn 0.327968 0.415236 0.848537
vn 0.327968 0.415236 0.848537
vn 0.327968 0.415236 0.848537
vn 0.327968 0.415236 0.848537
vn 0.065852 0.403255 0.912715
vn 0.065852 0.403255 0.912715
vn 0.065852 0.403255 0.912715
vn 0.065852 0.403255 0.912715
vn -0.054138 0.420801 0.905536
vn -0.054138 0.420801 0.905536
vn -0.054138 0.420801 0.905536
vn -0.054138 0.420801 0.905536
vn -0.206763 0.456548 0.865340
vn -0.206763 0.456548 0.865340
vn -0.206763 0.456548 0.865340
vn -0.206763 0.456548 0.865340
vn -0.521846 0.444607 0.728012
vn -0.521846 0.444607 0.728012
vn -0.521846 0.444607 0.728012
vn -0.521846 0.444607 0.728012
vn -0.747262 0.398436 0.531835
vn -0.747262 0.398436 0.531835
vn -0.747262 0.398436 0.531835
vn -0.747262 0.398436 0.531835
vn -0.841966 0.382546 0.380463
vn -0.841966 0.382546 0.380463
vn -0.841966 0.382546 0.380463
vn -0.841966 0.382546 0.380463
vn -0.930585 0.356846 0.081685
vn -0.930585 0.356846 0.081685
vn -0.930585 0.356846 0.081685
vn -0.930585 0.356846 0.081685
vn -0.916193 0.317337 -0.244719
vn -0.916193 0.317337 -0.244719
vn -0.916193 0.317337 -0.244719
vn -0.916193 0.317337 -0.244719
vn -0.874291 0.341965 -0.344493
vn -0.874291 0.341965 -0.344493
vn -0.874291 0.341965 -0.344493
vn -0.874291 0.341965 -0.344493
vn -0.774586 0.404207 -0.486450
vn -0.774586 0.404207 -0.486450
vn -0.774586 0.404207 -0.486450
vn -0.774586 0.404207 -0.486450
vn -0.529108 0.439324 -0.725975
vn -0.529108 0.439324 -0.725975
vn -0.529108 0.439324 -0.725975
vn -0.529108 0.439324 -0.725975
vn -0.315535 0.452541 -0.834053
vn -0.315535 0.452541 -0.834053
vn -0.315535 0.452541 -0.834053
vn -0.315535 0.452541 -0.834053
vn -0.147281 0.473720 -0.868273
vn -0.147281 0.473720 -0.868273
vn -0.147281 0.473720 -0.868273
vn -0.147281 0.473720 -0.868273
vn 0.159841 0.451540 -0.877817
vn 0.159841 0.451540 -0.877817
vn 0.159841 0.451540 -0.877817
vn 0.159841 0.451540 -0.877817
vn 0.442764 0.384397 -0.810061
vn 0.442764 0.384397 -0.810061
vn 0.442764 0.384397 -0.810061
vn 0.442764 0.384397 -0.810061
vn 0.532783 0.368583 -0.761767
vn 0.532783 0.368583 -0.761767
vn 0.532783 0.368583 -0.761767
vn 0.532783 0.368583 -0.761767
vn 0.665269 0.375713 -0.645179
vn 0.665269 0.375713 -0.645179
vn 0.665269 0.375713 -0.645179
vn 0.665269 0.375713 -0.645179
vn 0.851840 0.360998 -0.379539
vn 0.851840 0.360998 -0.379539
vn 0.851840 0.360998 -0.379539
vn 0.851840 0.360998 -0.379539
vn 0.911021 0.370700 -0.180615
vn 0.911021 0.370700 -0.180615
vn 0.911021 0.370700 -0.180615
vn 0.911021 0.370700 -0.180615
vn 0.955324 -0.295557 0.001648
vn 0.955324 -0.295557 0.001648
vn 0.955324 -0.295557 0.001648
vn 0.955324 -0.295557 0.001648
vn 0.855016 -0.288889 0.430687
vn 0.855016 -0.288889 0.430687
vn 0.855016 -0.288889 0.430687
vn 0.855016 -0.288889 0.430687
vn 0.643374 -0.267902 0.717146
vn 0.643374 -0.267902 0.717146
vn 0.643374 -0.267902 0.717146
vn 0.643374 -0.267902 0.717146
vn 0.552876 -0.255032 0.793276
vn 0.552876 -0.255032 0.793276
vn 0.552876 -0.255032 0.793276
vn 0.552876 -0.255032 0.793276
vn 0.356720 -0.241605 0.902429
vn 0.356720 -0.241605 0.902429
vn 0.356720 -0.241605 0.902429
vn 0.356720 -0.241605 0.902429
vn 0.060351 -0.236439 0.969770
vn 0.060351 -0.236439 0.969770
vn 0.060351 -0.236439 0.969770
vn 0.060351 -0.236439 0.969770
vn -0.045500 -0.232263 0.971588
vn -0.045500 -0.232263 0.971588
vn -0.045500 -0.232263 0.971588
vn -0.045500 -0.232263 0.971588
vn -0.203291 -0.232525 0.951107
vn -0.203291 -0.232525 0.951107
vn -0.203291 -0.232525 0.951107
vn -0.203291 -0.232525 0.951107
vn -0.570536 -0.262595 0.778160
vn -0.570536 -0.262595 0.778160
vn -0.570536 -0.262595 0.778160
vn -0.570536 -0.262595 0.778160
vn -0.795093 -0.284425 0.535658
vn -0.795093 -0.284425 0.535658
vn -0.795093 -0.284425 0.535658
vn -0.795093 -0.284425 0.535658
vn -0.873909 -0.293260 0.387662
vn -0.873909 -0.293260 0.387662
vn -0.873909 -0.293260 0.387662
vn -0.873909 -0.293260 0.387662
vn -0.950684 -0.302034 0.070536
vn -0.950684 -0.302034 0.070536
vn -0.950684 -0.302034 0.070536
vn -0.950684 -0.302034 0.070536
vn -0.917148 -0.296708 -0.266089
vn -0.917148 -0.296708 -0.266089
vn -0.917148 -0.296708 -0.266089
vn -0.917148 -0.296708 -0.266089
vn -0.897212 -0.286943 -0.335671
vn -0.897212 -0.286943 -0.335671
vn -0.897212 -0.286943 -0.335671
vn -0.897212 -0.286943 -0.335671
vn -0.834282 -0.270600 -0.480364
vn -0.834282 -0.270600 -0.480364
vn -0.834282 -0.270600 -0.480364
vn -0.834282 -0.270600 -0.480364
vn -0.579225 -0.255335 -0.774147
vn -0.579225 -0.255335 -0.774147
vn -0.579225 -0.255335 -0.774147
vn -0.579225 -0.255335 -0.774147
vn -0.348718 -0.241429 -0.905598
vn -0.348718 -0.241429 -0.905598
vn -0.348718 -0.241429 -0.905598
vn -0.348718 -0.241429 -0.905598
vn -0.175815 -0.232321 -0.956617
vn -0.175815 -0.232321 -0.956617
vn -0.175815 -0.232321 -0.956617
vn -0.175815 -0.232321 -0.956617
vn 0.189817 -0.239307 -0.952209
vn 0.189817 -0.239307 -0.952209
vn 0.189817 -0.239307 -0.952209
vn 0.189817 -0.239307 -0.952209
vn 0.496563 -0.253829 -0.830058
vn 0.496563 -0.253829 -0.830058
vn 0.496563 -0.253829 -0.830058
vn 0.496563 -0.253829 -0.830058
vn 0.559652 -0.260848 -0.786605
vn 0.559652 -0.260848 -0.786605
vn 0.559652 -0.260848 -0.786605
vn 0.559652 -0.260848 -0.786605
vn 0.686215 -0.270959 -0.675048
vn 0.686215 -0.270959 -0.675048
vn 0.686215 -0.270959 -0.675048
vn 0.686215 -0.270959 -0.675048
vn 0.876430 -0.292981 -0.382142
vn 0.876430 -0.292981 -0.382142
vn 0.876430 -0.292981 -0.382142
vn 0.876430 -0.292981 -0.382142
vn 0.934920 -0.297715 -0.193107
vn 0.934920 -0.297715 -0.193107
vn 0.934920 -0.297715 -0.193107
vn 0.934920 -0.297715 -0.193107
vn 0.924126 -0.381974 -0.009303
vn 0.924126 -0.381974 -0.009303
vn 0.924126 -0.381974 -0.009303
vn 0.924126 -0.381974 -0.009303
vn 0.824651 -0.387793 0.411785
vn 0.824651 -0.387793 0.411785
vn 0.824651 -0.387793 0.411785
vn 0.824651 -0.387793 0.411785
vn 0.616614 -0.374492 0.692491
vn 0.616614 -0.374492 0.692491
vn 0.616614 -0.374492 0.692491
vn 0.616614 -0.374492 0.692491
vn 0.537056 -0.370447 0.757852
vn 0.537056 -0.370447 0.757852
vn 0.537056 -0.370447 0.757852
vn 0.537056 -0.370447 0.757852
vn 0.348212 -0.367452 0.862396
vn 0.348212 -0.367452 0.862396
vn 0.348212 -0.367452 0.862396
vn 0.348212 -0.367452 0.862396
vn 0.053611 -0.364234 0.929763
vn 0.053611 -0.364234 0.929763
vn 0.053611 -0.364234 0.929763
vn 0.053611 -0.364234 0.929763
vn -0.037750 -0.361962 0.931428
vn -0.037750 -0.361962 0.931428
vn -0.037750 -0.361962 0.931428
vn -0.037750 -0.361962 0.931428
vn -0.185317 -0.364400 0.912617
vn -0.185317 -0.364400 0.912617
vn -0.185317 -0.364400 0.912617
vn -0.185317 -0.364400 0.912617
vn -0.554102 -0.381605 0.739830
vn -0.554102 -0.381605 0.739830
vn -0.554102 -0.381605 0.739830
vn -0.554102 -0.381605 0.739830
vn -0.775078 -0.382480 0.502954
vn -0.775078 -0.382480 0.502954
vn -0.775078 -0.382480 0.502954
vn -0.775078 -0.382480 0.502954
vn -0.847607 -0.381482 0.368827
vn -0.847607 -0.381482 0.368827
vn -0.847607 -0.381482 0.368827
vn -0.847607 -0.381482 0.368827
vn -0.922182 -0.381799 0.061726
vn -0.922182 -0.381799 0.061726
vn -0.922182 -0.381799 0.061726
vn -0.922182 -0.381799 0.061726
vn -0.889019 -0.373173 -0.265305
vn -0.889019 -0.373173 -0.265305
vn -0.889019 -0.373173 -0.265305
vn -0.889019 -0.373173 -0.265305
vn -0.873769 -0.370351 -0.315228
vn -0.873769 -0.370351 -0.315228
vn -0.873769 -0.370351 -0.315228
vn -0.873769 -0.370351 -0.315228
vn -0.815716 -0.369691 -0.444901
vn -0.815716 -0.369691 -0.444901
vn -0.815716 -0.369691 -0.444901
vn -0.815716 -0.369691 -0.444901
vn -0.563010 -0.377327 -0.735285
vn -0.563010 -0.377327 -0.735285
vn -0.563010 -0.377327 -0.735285
vn -0.563010 -0.377327 -0.735285
vn -0.338594 -0.375211 -0.862885
vn -0.338594 -0.375211 -0.862885
vn -0.338594 -0.375211 -0.862885
vn -0.338594 -0.375211 -0.862885
vn -0.175708 -0.374036 -0.910617
vn -0.175708 -0.374036 -0.910617
vn -0.175708 -0.374036 -0.910617
vn -0.175708 -0.374036 -0.910617
vn 0.190735 -0.375277 -0.907076
vn 0.190735 -0.375277 -0.907076
vn 0.190735 -0.375277 -0.907076
vn 0.190735 -0.375277 -0.907076
vn 0.496623 -0.367406 -0.786370
vn 0.496623 -0.367406 -0.786370
vn 0.496623 -0.367406 -0.786370
vn 0.496623 -0.367406 -0.786370
vn 0.546160 -0.365910 -0.753538
vn 0.546160 -0.365910 -0.753538
vn 0.546160 -0.365910 -0.753538
vn 0.546160 -0.365910 -0.753538
vn 0.663835 -0.367829 -0.651172
vn 0.663835 -0.367829 -0.651172
vn 0.663835 -0.367829 -0.651172
vn 0.663835 -0.367829 -0.651172
vn 0.851519 -0.377740 -0.363632
vn 0.851519 -0.377740 -0.363632
vn 0.851519 -0.377740 -0.363632
vn 0.851519 -0.377740 -0.363632
vn 0.905883 -0.379096 -0.188842
vn 0.905883 -0.379096 -0.188842
vn 0.905883 -0.379096 -0.188842
vn 0.905883 -0.379096 -0.188842
vn 0.863961 -0.503209 -0.018796
vn 0.863961 -0.503209 -0.018796
vn 0.863961 -0.503209 -0.018796
vn 0.863961 -0.503209 -0.018796
vn 0.776087 -0.493834 0.392195
vn 0.776087 -0.493834 0.392195
vn 0.776087 -0.493834 0.392195
vn 0.776087 -0.493834 0.392195
vn 0.584959 -0.448547 0.675743
vn 0.584959 -0.448547 0.675743
vn 0.584959 -0.448547 0.675743
vn 0.584959 -0.448547 0.675743
vn 0.520072 -0.431743 0.736969
vn 0.520072 -0.431743 0.736969
vn 0.520072 -0.431743 0.736969
vn 0.520072 -0.431743 0.736969
vn 0.340678 -0.415479 0.843395
vn 0.340678 -0.415479 0.843395
vn 0.340678 -0.415479 0.843395
vn 0.340678 -0.415479 0.843395
vn 0.047361 -0.401158 0.914784
vn 0.047361 -0.401158 0.914784
vn 0.047361 -0.401158 0.914784
vn 0.047361 -0.401158 0.914784
vn -0.030391 -0.403752 0.914364
vn -0.030391 -0.403752 0.914364
vn -0.030391 -0.403752 0.914364
vn -0.030391 -0.403752 0.914364
vn -0.167610 -0.421894 0.891017
vn -0.167610 -0.421894 0.891017
vn -0.167610 -0.421894 0.891017
vn -0.167610 -0.421894 0.891017
vn -0.530863 -0.465008 0.708486
vn -0.530863 -0.465008 0.708486
vn -0.530863 -0.465008 0.708486
vn -0.530863 -0.465008 0.708486
vn -0.739361 -0.480343 0.471821
vn -0.739361 -0.480343 0.471821
vn -0.739361 -0.480343 0.471821
vn -0.739361 -0.480343 0.471821
vn -0.799405 -0.489455 0.348402
vn -0.799405 -0.489455 0.348402
vn -0.799405 -0.489455 0.348402
vn -0.799405 -0.489455 0.348402
vn -0.868678 -0.492516 0.053165
vn -0.868678 -0.492516 0.053165
vn -0.868678 -0.492516 0.053165
vn -0.868678 -0.492516 0.053165
vn -0.842957 -0.468914 -0.263712
vn -0.842957 -0.468914 -0.263712
vn -0.842957 -0.468914 -0.263712
vn -0.842957 -0.468914 -0.263712
vn -0.835067 -0.463394 -0.296529
vn -0.835067 -0.463394 -0.296529
vn -0.835067 -0.463394 -0.296529
vn -0.835067 -0.463394 -0.296529
vn -0.785211 -0.460501 -0.413983
vn -0.785211 -0.460501 -0.413983
vn -0.785211 -0.460501 -0.413983
vn -0.785211 -0.460501 -0.413983
vn -0.544115 -0.448623 -0.708997
vn -0.544115 -0.448623 -0.708997
vn -0.544115 -0.448623 -0.708997
vn -0.544115 -0.448623 -0.708997
vn -0.328993 -0.431323 -0.840074
vn -0.328993 -0.431323 -0.840074
vn -0.328993 -0.431323 -0.840074
vn -0.328993 -0.431323 -0.840074
vn -0.175857 -0.426688 -0.887137
vn -0.175857 -0.426688 -0.887137
vn -0.175857 -0.426688 -0.887137
vn -0.175857 -0.426688 -0.887137
vn 0.191678 -0.427670 -0.883379
vn 0.191678 -0.427670 -0.883379
vn 0.191678 -0.427670 -0.883379
vn 0.191678 -0.427670 -0.883379
vn 0.495200 -0.423017 -0.758837
vn 0.495200 -0.423017 -0.758837
vn 0.495200 -0.423017 -0.758837
vn 0.495200 -0.423017 -0.758837
vn 0.528557 -0.431706 -0.730929
vn 0.528557 -0.431706 -0.730929
vn 0.528557 -0.431706 -0.730929
vn 0.528557 -0.431706 -0.730929
vn 0.630870 -0.452784 -0.630072
vn 0.630870 -0.452784 -0.630072
vn 0.630870 -0.452784 -0.630072
vn 0.630870 -0.452784 -0.630072
vn 0.806180 -0.481194 -0.344275
vn 0.806180 -0.481194 -0.344275
vn 0.806180 -0.481194 -0.344275
vn 0.806180 -0.481194 -0.344275
vn 0.851019 -0.492338 -0.182673
vn 0.851019 -0.492338 -0.182673
vn 0.851019 -0.492338 -0.182673
vn 0.851019 -0.492338 -0.182673
vn 0.850348 -0.526161 -0.007902
vn 0.850348 -0.526161 -0.007902
vn 0.850348 -0.526161 -0.007902
vn 0.850348 -0.526161 -0.007902
vn 0.763434 -0.541602 0.351903
vn 0.763434 -0.541602 0.351903
vn 0.763434 -0.541602 0.351903
vn 0.763434 -0.541602 0.351903
vn 0.586067 -0.536075 0.607576
vn 0.586067 -0.536075 0.607576
vn 0.586067 -0.536075 0.607576
vn 0.586067 -0.536075 0.607576
vn 0.513214 -0.538228 0.668522
vn 0.513214 -0.538228 0.668522
vn 0.513214 -0.538228 0.668522
vn 0.513214 -0.538228 0.668522
vn 0.335755 -0.545938 0.767606
vn 0.335755 -0.545938 0.767606
vn 0.335755 -0.545938 0.767606
vn 0.335755 -0.545938 0.767606
vn 0.052247 -0.545573 0.836433
vn 0.052247 -0.545573 0.836433
vn 0.052247 -0.545573 0.836433
vn 0.052247 -0.545573 0.836433
vn -0.036722 -0.546891 0.836398
vn -0.036722 -0.546891 0.836398
vn -0.036722 -0.546891 0.836398
vn -0.036722 -0.546891 0.836398
vn -0.178710 -0.555025 0.812410
vn -0.178710 -0.555025 0.812410
vn -0.178710 -0.555025 0.812410
vn -0.178710 -0.555025 0.812410
vn -0.523303 -0.556913 0.644982
vn -0.523303 -0.556913 0.644982
vn -0.523303 -0.556913 0.644982
vn -0.523303 -0.556913 0.644982
vn -0.724571 -0.535367 0.434025
vn -0.724571 -0.535367 0.434025
vn -0.724571 -0.535367 0.434025
vn -0.724571 -0.535367 0.434025
vn -0.789085 -0.526195 0.316959
vn -0.789085 -0.526195 0.316959
vn -0.789085 -0.526195 0.316959
vn -0.789085 -0.526195 0.316959
vn -0.854770 -0.516313 0.052814
vn -0.854770 -0.516313 0.052814
vn -0.854770 -0.516313 0.052814
vn -0.854770 -0.516313 0.052814
vn -0.833354 -0.502811 -0.229570
vn -0.833354 -0.502811 -0.229570
vn -0.833354 -0.502811 -0.229570
vn -0.833354 -0.502811 -0.229570
vn -0.818434 -0.505842 -0.272561
vn -0.818434 -0.505842 -0.272561
vn -0.818434 -0.505842 -0.272561
vn -0.818434 -0.505842 -0.272561
vn -0.762241 -0.521258 -0.383768
vn -0.762241 -0.521258 -0.383768
vn -0.762241 -0.521258 -0.383768
vn -0.762241 -0.521258 -0.383768
vn -0.532453 -0.551767 -0.641909
vn -0.532453 -0.551767 -0.641909
vn -0.532453 -0.551767 -0.641909
vn -0.532453 -0.551767 -0.641909
vn -0.323621 -0.561849 -0.761312
vn -0.323621 -0.561849 -0.761312
vn -0.323621 -0.561849 -0.761312
vn -0.323621 -0.561849 -0.761312
vn -0.168230 -0.569179 -0.804820
vn -0.168230 -0.569179 -0.804820
vn -0.168230 -0.569179 -0.804820
vn -0.168230 -0.569179 -0.804820
vn 0.183230 -0.565153 -0.804381
vn 0.183230 -0.565153 -0.804381
vn 0.183230 -0.565153 -0.804381
vn 0.183230 -0.565153 -0.804381
vn 0.477664 -0.533258 -0.698192
vn 0.477664 -0.533258 -0.698192
vn 0.477664 -0.533258 -0.698192
vn 0.477664 -0.533258 -0.698192
vn 0.525167 -0.526143 -0.668860
vn 0.525167 -0.526143 -0.668860
vn 0.525167 -0.526143 -0.668860
vn 0.525167 -0.526143 -0.668860
vn 0.631856 -0.522885 -0.572145
vn 0.631856 -0.522885 -0.572145
vn 0.631856 -0.522885 -0.572145
vn 0.631856 -0.522885 -0.572145
vn 0.795723 -0.518105 -0.313676
vn 0.795723 -0.518105 -0.313676
vn 0.795723 -0.518105 -0.313676
vn 0.795723 -0.518105 -0.313676
vn 0.840428 -0.517230 -0.161726
vn 0.840428 -0.517230 -0.161726
vn 0.840428 -0.517230 -0.161726
vn 0.840428 -0.517230 -0.161726
vn 0.679979 -0.733173 0.009205
vn 0.679979 -0.733173 0.009205
vn 0.679979 -0.733173 0.009205
vn 0.608450 -0.735923 0.296995
vn 0.608450 -0.735923 0.296995
vn 0.608450 -0.735923 0.296995
vn 0.475734 -0.719747 0.505610
vn 0.475734 -0.719747 0.505610
vn 0.475734 -0.719747 0.505610
vn 0.406540 -0.714147 0.569841
vn 0.406540 -0.714147 0.569841
vn 0.406540 -0.714147 0.569841
vn 0.262793 -0.710824 0.652433
vn 0.262793 -0.710824 0.652433
vn 0.262793 -0.710824 0.652433
vn 0.048984 -0.705693 0.706822
vn 0.048984 -0.705693 0.706822
vn 0.048984 -0.705693 0.706822
vn -0.038900 -0.706006 0.707136
vn -0.038900 -0.706006 0.707136
vn -0.038900 -0.706006 0.707136
vn -0.159046 -0.714040 0.681800
vn -0.159046 -0.714040 0.681800
vn -0.159046 -0.714040 0.681800
vn -0.409424 -0.729389 0.548054
vn -0.409424 -0.729389 0.548054
vn -0.409424 -0.729389 0.548054
vn -0.568320 -0.728811 0.381899
vn -0.568320 -0.728811 0.381899
vn -0.568320 -0.728811 0.381899
vn -0.628348 -0.728457 0.273001
vn -0.628348 -0.728457 0.273001
vn -0.628348 -0.728457 0.273001
vn -0.683941 -0.727557 0.053706
vn -0.683941 -0.727557 0.053706
vn -0.683941 -0.727557 0.053706
vn -0.673473 -0.716422 -0.182137
vn -0.673473 -0.716422 -0.182137
vn -0.673473 -0.716422 -0.182137
vn -0.655568 -0.714529 -0.244294
vn -0.655568 -0.714529 -0.244294
vn -0.655568 -0.714529 -0.244294
vn -0.600805 -0.718369 -0.350683
vn -0.600805 -0.718369 -0.350683
vn -0.600805 -0.718369 -0.350683
vn -0.417712 -0.724017 -0.548923
vn -0.417712 -0.724017 -0.548923
vn -0.417712 -0.724017 -0.548923
vn -0.253518 -0.721287 -0.644573
vn -0.253518 -0.721287 -0.644573
vn -0.253518 -0.721287 -0.644573
vn -0.123978 -0.721653 -0.681063
vn -0.123978 -0.721653 -0.681063
vn -0.123978 -0.721653 -0.681063
vn 0.133631 -0.720741 -0.680202
vn 0.133631 -0.720741 -0.680202
vn 0.133631 -0.720741 -0.680202
vn 0.357691 -0.709802 -0.606826
vn 0.357691 -0.709802 -0.606826
vn 0.357691 -0.709802 -0.606826
vn 0.414968 -0.708465 -0.570858
vn 0.414968 -0.708465 -0.570858
vn 0.414968 -0.708465 -0.570858
vn 0.508167 -0.713980 -0.481663
vn 0.508167 -0.713980 -0.481663
vn 0.508167 -0.713980 -0.481663
vn 0.634869 -0.723327 -0.271549
vn 0.634869 -0.723327 -0.271549
vn 0.634869 -0.723327 -0.271549
vn 0.674020 -0.726748 -0.132419
vn 0.674020 -0.726748 -0.132419
vn 0.674020 -0.726748 -0.132419
vn -0.001757 0.999998 -0.000541
vn -0.001757 0.999998 -0.000541
vn -0.001757 0.999998 -0.000541
vn -0.001757 0.999998 -0.000541
vn -0.002320 0.999997 0.001031
vn -0.002320 0.999997 0.001031
vn -0.002320 0.999997 0.001031
vn -0.002320 0.999997 0.001031
vn -0.001884 0.999998 -0.000856
vn -0.001884 0.999998 -0.000856
vn -0.001884 0.999998 -0.000856
vn -0.001884 0.999998 -0.000856
vn 0.001818 0.999998 0.000909
vn 0.001818 0.999998 0.000909
vn 0.001818 0.999998 0.000909
vn 0.001818 0.999998 0.000909
vn 0.002737 0.999995 -0.001277
vn 0.002737 0.999995 -0.001277
vn 0.002737 0.999995 -0.001277
vn 0.002737 0.999995 -0.001277
vn 0.001941 0.999998 0.000924
vn 0.001941 0.999998 0.000924
vn 0.001941 0.999998 0.000924
vn 0.001941 0.999998 0.000924
vn -0.000577 0.999998 0.002115
vn -0.000577 0.999998 0.002115
vn -0.000577 0.999998 0.002115
vn -0.000577 0.999998 0.002115
vn 0.001133 0.999996 0.002408
vn 0.001133 0.999996 0.002408
vn 0.001133 0.999996 0.002408
vn 0.001133 0.999996 0.002408
vn 0.000657 0.999998 -0.002064
vn 0.000657 0.999998 -0.002064
vn 0.000657 0.999998 -0.002064
vn 0.000657 0.999998 -0.002064
vn -0.001018 0.999997 -0.002149
vn -0.001018 0.999997 -0.002149
vn -0.001018 0.999997 -0.002149
vn -0.001018 0.999997 -0.002149
usemtl basalt_top
f 1/1/1 2/2/2 3/3/3
f 4/4/4 5/5/5 6/6/6
f 7/7/7 8/8/8 9/9/9
f 10/10/10 11/11/11 12/12/12
f 13/13/13 14/14/14 15/15/15
f 16/16/16 17/17/17 18/18/18
f 19/19/19 20/20/20 21/21/21
f 22/22/22 23/23/23 24/24/24
f 25/25/25 26/26/26 27/27/27
f 28/28/28 29/29/29 30/30/30
f 31/31/31 32/32/32 33/33/33
f 34/34/34 35/35/35 36/36/36
f 37/37/37 38/38/38 39/39/39
f 40/40/40 41/41/41 42/42/42
f 43/43/43 44/44/44 45/45/45
f 46/46/46 47/47/47 48/48/48
f 49/49/49 50/50/50 51/51/51
f 52/52/52 53/53/53 54/54/54
f 55/55/55 56/56/56 57/57/57
f 58/58/58 59/59/59 60/60/60
f 61/61/61 62/62/62 63/63/63
f 64/64/64 65/65/65 66/66/66
f 67/67/67 68/68/68 69/69/69
f 70/70/70 71/71/71 72/72/72
usemtl basalt_side
f 73/73/73 74/74/74 75/75/75 76/76/76
f 77/77/77 78/78/78 79/79/79 80/80/80
f 81/81/81 82/82/82 83/83/83 84/84/84
usemtl obsidian
f 85/85/85 86/86/86 87/87/87 88/88/88
usemtl basalt_side
f 89/89/89 90/90/90 91/91/91 92/92/92
f 93/93/93 94/94/94 95/95/95 96/96/96
f 97/97/97 98/98/98 99/99/99 100/100/100
f 101/101/101 102/102/102 103/103/103 104/104/104
f 105/105/105 106/106/106 107/107/107 108/108/108
f 109/109/109 110/110/110 111/111/111 112/112/112
usemtl obsidian
f 113/113/113 114/114/114 115/115/115 116/116/116
usemtl basalt_side
f 117/117/117 118/118/118 119/119/119 120/120/120
f 121/121/121 122/122/122 123/123/123 124/124/124
f 125/125/125 126/126/126 127/127/127 128/128/128
f 129/129/129 130/130/130 131/131/131 132/132/132
f 133/133/133 134/134/134 135/135/135 136/136/136
f 137/137/137 138/138/138 139/139/139 140/140/140
usemtl obsidian
f 141/141/141 142/142/142 143/143/143 144/144/144
usemtl basalt_side
f 145/145/145 146/146/146 147/147/147 148/148/148
f 149/149/149 150/150/150 151/151/151 152/152/152
f 153/153/153 154/154/154 155/155/155 156/156/156
f 157/157/157 158/158/158 159/159/159 160/160/160
f 161/161/161 162/162/162 163/163/163 164/164/164
f 165/165/165 166/166/166 167/167/167 168/168/168
f 169/169/169 170/170/170 171/171/171 172/172/172
f 173/173/173 174/174/174 175/175/175 176/176/176
f 177/177/177 178/178/178 179/179/179 180/180/180
usemtl obsidian
f 181/181/181 182/182/182 183/183/183 184/184/184
usemtl basalt_side
f 185/185/185 186/186/186 187/187/187 188/188/188
f 189/189/189 190/190/190 191/191/191 192/192/192
f 193/193/193 194/194/194 195/195/195 196/196/196
f 197/197/197 198/198/198 199/199/199 200/200/200
f 201/201/201 202/202/202 203/203/203 204/204/204
f 205/205/205 206/206/206 207/207/207 208/208/208
usemtl obsidian
f 209/209/209 210/210/210 211/211/211 212/212/212
usemtl basalt_side
f 213/213/213 214/214/214 215/215/215 216/216/216
f 217/217/217 218/218/218 219/219/219 220/220/220
f 221/221/221 222/222/222 223/223/223 224/224/224
f 225/225/225 226/226/226 227/227/227 228/228/228
f 229/229/229 230/230/230 231/231/231 232/232/232
f 233/233/233 234/234/234 235/235/235 236/236/236
usemtl obsidian
f 237/237/237 238/238/238 239/239/239 240/240/240
usemtl basalt_side
f 241/241/241 242/242/242 243/243/243 244/244/244
f 245/245/245 246/246/246 247/247/247 248/248/248
f 249/249/249 250/250/250 251/251/251 252/252/252
f 253/253/253 254/254/254 255/255/255 256/256/256
f 257/257/257 258/258/258 259/259/259 260/260/260
f 261/261/261 262/262/262 263/263/263 264/264/264
f 265/265/265 266/266/266 267/267/267 268/268/268
f 269/269/269 270/270/270 271/271/271 272/272/272
f 273/273/273 274/274/274 275/275/275 276/276/276
f 277/277/277 278/278/278 279/279/279 280/280/280
f 281/281/281 282/282/282 283/283/283 284/284/284
f 285/285/285 286/286/286 287/287/287 288/288/288
f 289/289/289 290/290/290 291/291/291 292/292/292
f 293/293/293 294/294/294 295/295/295 296/296/296
f 297/297/297 298/298/298 299/299/299 300/300/300
f 301/301/301 302/302/302 303/303/303 304/304/304
f 305/305/305 306/306/306 307/307/307 308/308/308
f 309/309/309 310/310/310 311/311/311 312/312/312
f 313/313/313 314/314/314 315/315/315 316/316/316
f 317/317/317 318/318/318 319/319/319 320/320/320
f 321/321/321 322/322/322 323/323/323 324/324/324
f 325/325/325 326/326/326 327/327/327 328/328/328
f 329/329/329 330/330/330 331/331/331 332/332/332
f 333/333/333 334/334/334 335/335/335 336/336/336
f 337/337/337 338/338/338 339/339/339 340/340/340
f 341/341/341 342/342/342 343/343/343 344/344/344
f 345/345/345 346/346/346 347/347/347 348/348/348
f 349/349/349 350/350/350 351/351/351 352/352/352
f 353/353/353 354/354/354 355/355/355 356/356/356
f 357/357/357 358/358/358 359/359/359 360/360/360
usemtl obsidian
f 361/361/361 362/362/362 363/363/363 364/364/364
f 365/365/365 366/366/366 367/367/367 368/368/368
f 369/369/369 370/370/370 371/371/371 372/372/372
f 373/373/373 374/374/374 375/375/375 376/376/376
f 377/377/377 378/378/378 379/379/379 380/380/380
f 381/381/381 382/382/382 383/383/383 384/384/384
f 385/385/385 386/386/386 387/387/387 388/388/388
f 389/389/389 390/390/390 391/391/391 392/392/392
f 393/393/393 394/394/394 395/395/395 396/396/396
f 397/397/397 398/398/398 399/399/399 400/400/400
f 401/401/401 402/402/402 403/403/403 404/404/404
f 405/405/405 406/406/406 407/407/407 408/408/408
f 409/409/409 410/410/410 411/411/411 412/412/412
f 413/413/413 414/414/414 415/415/415 416/416/416
f 417/417/417 418/418/418 419/419/419 420/420/420
f 421/421/421 422/422/422 423/423/423 424/424/424
f 425/425/425 426/426/426 427/427/427 428/428/428
f 429/429/429 430/430/430 431/431/431 432/432/432
f 433/433/433 434/434/434 435/435/435 436/436/436
f 437/437/437 438/438/438 439/439/439 440/440/440
f 441/441/441 442/442/442 443/443/443 444/444/444
f 445/445/445 446/446/446 447/447/447 448/448/448
f 449/449/449 450/450/450 451/451/451 452/452/452
f 453/453/453 454/454/454 455/455/455 456/456/456
f 457/457/457 458/458/458 459/459/459 460/460/460
f 461/461/461 462/462/462 463/463/463 464/464/464
f 465/465/465 466/466/466 467/467/467 468/468/468
usemtl ember
f 469/469/469 470/470/470 471/471/471 472/472/472
usemtl obsidian
f 473/473/473 474/474/474 475/475/475 476/476/476
f 477/477/477 478/478/478 479/479/479 480/480/480
f 481/481/481 482/482/482 483/483/483 484/484/484
f 485/485/485 486/486/486 487/487/487 488/488/488
f 489/489/489 490/490/490 491/491/491 492/492/492
f 493/493/493 494/494/494 495/495/495 496/496/496
usemtl ember
f 497/497/497 498/498/498 499/499/499 500/500/500
usemtl obsidian
f 501/501/501 502/502/502 503/503/503 504/504/504
f 505/505/505 506/506/506 507/507/507 508/508/508
f 509/509/509 510/510/510 511/511/511 512/512/512
f 513/513/513 514/514/514 515/515/515 516/516/516
f 517/517/517 518/518/518 519/519/519 520/520/520
f 521/521/521 522/522/522 523/523/523 524/524/524
usemtl ember
f 525/525/525 526/526/526 527/527/527 528/528/528
usemtl obsidian
f 529/529/529 530/530/530 531/531/531 532/532/532
f 533/533/533 534/534/534 535/535/535 536/536/536
f 537/537/537 538/538/538 539/539/539 540/540/540
f 541/541/541 542/542/542 543/543/543 544/544/544
f 545/545/545 546/546/546 547/547/547 548/548/548
f 549/549/549 550/550/550 551/551/551 552/552/552
usemtl magma
f 553/553/553 554/554/554 555/555/555
f 556/556/556 557/557/557 558/558/558
f 559/559/559 560/560/560 561/561/561
f 562/562/562 563/563/563 564/564/564
f 565/565/565 566/566/566 567/567/567
f 568/568/568 569/569/569 570/570/570
f 571/571/571 572/572/572 573/573/573
f 574/574/574 575/575/575 576/576/576
f 577/577/577 578/578/578 579/579/579
f 580/580/580 581/581/581 582/582/582
f 583/583/583 584/584/584 585/585/585
f 586/586/586 587/587/587 588/588/588
f 589/589/589 590/590/590 591/591/591
f 592/592/592 593/593/593 594/594/594
f 595/595/595 596/596/596 597/597/597
f 598/598/598 599/599/599 600/600/600
f 601/601/601 602/602/602 603/603/603
f 604/604/604 605/605/605 606/606/606
f 607/607/607 608/608/608 609/609/609
f 610/610/610 611/611/611 612/612/612
f 613/613/613 614/614/614 615/615/615
f 616/616/616 617/617/617 618/618/618
f 619/619/619 620/620/620 621/621/621
f 622/622/622 623/623/623 624/624/624
usemtl ember
f 625/625/625 626/626/626 627/627/627 628/628/628
f 629/629/629 630/630/630 631/631/631 632/632/632
f 633/633/633 634/634/634 635/635/635 636/636/636
f 637/637/637 638/638/638 639/639/639 640/640/640
f 641/641/641 642/642/642 643/643/643 644/644/644
f 645/645/645 646/646/646 647/647/647 648/648/648
f 649/649/649 650/650/650 651/651/651 652/652/652
f 653/653/653 654/654/654 655/655/655 656/656/656
f 657/657/657 658/658/658 659/659/659 660/660/660
f 661/661/661 662/662/662 663/663/663 664/664/664
