# Generated by tools/model_lod_builder.ps1
# Source: terrain.obj
# Ratio: 0.25
mtllib terrain.mtl
v -45.833333 0.047157 -45.833333
v -46.825396 0.057211 -29.365079
v -45.238094 0.021096 -19.047619
v -45.238094 0.055802 -7.142856
v -46.598639 0.065718 7.82313
v -46.190475 0.021098 18.57143
v -47.619047 0.026564 30.952381
v -45.238094 0.0211 45.238094
v -40.476189 0.455929 -40.476189
v -42.857142 0.457075 -33.333333
v -40.476189 0.656199 4.761908
v -40.476189 0.644062 21.428576
v -40.476189 0.644062 35.714291
v -40.476189 0.832827 -35.714287
v -40.476189 1.354454 28.571427
v -31.547619 0.120497 -45.833333
v -30.952381 0.335753 -32.539683
v -35.714291 0.223423 -19.047617
v -35.714291 0.0552 16.66667
v -30.952381 0.023833 47.619047
v -26.190474 0.464044 -40.476189
v -32.142859 0.625651 -32.142856
v -29.365077 0.55881 -19.841268
v -35.714291 0.710328 -9.523807
v -29.36508 0.692285 7.14286
v -30.952379 0.682503 16.66667
v -30.952383 0.644063 40.476189
v -28.571427 0.963978 -26.190474
v -26.190474 0.961459 -16.666664
v -35.714291 0.908746 -2.38095
v -28.571427 0.852056 11.904765
v -26.190474 1.124877 16.66667
v -27.777776 1.306697 -10.317458
v -34.126987 1.25753 5.555558
v -30.952383 1.354452 35.714291
v -30.952379 1.354455 40.476189
v -29.365077 1.616747 -3.968252
v -30.952379 1.524828 2.380955
v -30.952383 1.828437 21.428576
v -30.952379 2.287228 21.428576
v -30.952381 2.594095 32.539683
v -30.952381 2.840652 27.38095
v -19.047617 0.15296 -47.619047
v -16.66667 0.285558 -19.047617
v -16.66667 0.078074 -7.142855
v -19.047623 0.117709 7.14286
v -16.66667 0.326776 16.66667
v -16.66667 0.024786 35.714291
v -19.047623 0.0211 45.238094
v -19.047617 0.547599 -40.476189
v -21.428576 0.703229 -35.714287
v -21.428576 0.485253 -21.42857
v -21.428576 0.658202 -4.761903
v -19.047623 0.727266 19.047623
v -19.047623 0.574744 33.333335
v -21.428576 0.85508 -26.190474
v -21.428576 0.853581 -16.666664
v -21.428576 0.958823 -11.904759
v -21.428576 1.07498 21.428576
v -16.66667 0.927032 26.190474
v -18.253972 1.195025 -30.95238
v -21.428576 1.456996 28.571427
v -16.66667 2.032849 -30.952379
v -7.142855 0.108487 -46.598639
v -3.968257 0.114857 -27.777776
v -7.14286 0.050522 -19.047617
v -7.14286 0.021096 -7.142855
v -7.14286 0.021503 7.14286
v -6.190479 0.168439 18.571432
v -6.547622 0.123543 31.54762
v -7.14286 0.0211 45.238094
v -7.142855 0.461054 -40.476189
v -5.555558 0.520101 -34.126984
v -11.904765 0.65954 21.428576
v -11.904765 0.755108 26.190474
v -11.904765 0.833433 -30.952381
v -11.904765 1.240711 -30.952379
v 7.738098 0.1126 -45.833333
v 7.142857 0.069847 -30.95238
v 7.142855 0.021096 -19.047617
v 7.142855 0.021096 -7.142855
v 7.142855 0.021097 7.14286
v 7.142855 0.021098 19.047623
v 5.782311 0.069202 30.272109
v 6.547617 0.062138 45.833333
v 2.380955 0.569521 -40.476189
v 11.904759 0.70576 33.333335
v 11.904759 0.705761 40.476189
v 19.047621 0.021093 -45.238094
v 19.047617 0.021094 -30.95238
v 19.047617 0.021096 -19.047617
v 19.047617 0.021096 -7.142855
v 19.047617 0.021097 7.14286
v 18.253966 0.130532 18.253972
v 19.047617 0.029519 50
v 21.42857 0.705759 21.428576
v 16.666664 0.705759 26.190474
v 19.047617 0.70576 45.238094
v 19.523808 1.299196 31.904763
v 19.047617 1.299197 40.476189
v 30.952381 0.021093 -45.238094
v 30.95238 0.021094 -30.95238
v 30.95238 0.021096 -19.047617
v 30.95238 0.021096 -7.142855
v 30.95238 0.021097 7.14286
v 30.95238 0.029517 16.66667
v 32.142857 0.105281 48.809524
v 30.95238 0.705759 21.428576
v 30.95238 0.70576 43.650792
v 30.95238 1.299196 30.952381
v 28.571427 1.299197 40.476189
v 45.238094 0.021093 -45.238094
v 45.238094 0.021094 -30.95238
v 45.238094 0.021096 -19.047617
v 45.238094 0.021096 -7.142855
v 45.238094 0.021097 7.14286
v 45.238094 0.074412 19.047623
v 47.619047 0.025308 30.952381
v 45.238094 0.056643 45.238094
v 40.476189 0.705759 30.952381
vt 1.000000 0.952381
vt 0.952381 1.000000
vt 0.952381 0.952381
vt 0.047619 0.952381
vt 0.000000 1.000000
vt 0.000000 0.952381
vt 0.095238 1.000000
vt 0.047619 1.000000
vt 0.142857 0.952381
vt 0.095238 0.952381
vt 0.190476 1.000000
vt 0.142857 1.000000
vt 0.190476 0.952381
vt 0.238095 1.000000
vt 0.238095 0.952381
vt 0.285714 1.000000
vt 0.285714 0.952381
vt 0.333333 1.000000
vt 0.380952 0.952381
vt 0.333333 0.952381
vt 0.428571 0.952381
vt 0.380952 1.000000
vt 0.476190 1.000000
vt 0.428571 1.000000
vt 0.476190 0.952381
vt 0.523810 1.000000
vt 0.571429 0.952381
vt 0.523810 0.952381
vt 0.619048 0.952381
vt 0.571429 1.000000
vt 0.666667 0.952381
vt 0.619048 1.000000
vt 0.714286 0.952381
vt 0.666667 1.000000
vt 0.761905 0.952381
vt 0.714286 1.000000
vt 0.809524 0.952381
vt 0.761905 1.000000
vt 0.857143 0.952381
vt 0.809524 1.000000
vt 0.904762 0.952381
vt 0.857143 1.000000
vt 0.904762 1.000000
vt 0.047619 0.000000
vt 0.000000 0.047619
vt 0.000000 0.000000
vt 0.047619 0.095238
vt 0.000000 0.095238
vt 0.047619 0.142857
vt 0.000000 0.142857
vt 0.000000 0.190476
vt 0.047619 0.238095
vt 0.000000 0.238095
vt 0.047619 0.285714
vt 0.000000 0.285714
vt 0.047619 0.333333
vt 0.000000 0.333333
vt 0.047619 0.380952
vt 0.000000 0.380952
vt 0.000000 0.428571
vt 0.047619 0.476190
vt 0.000000 0.476190
vt 0.047619 0.523810
vt 0.000000 0.523810
vt 0.047619 0.571429
vt 0.000000 0.571429
vt 0.047619 0.619048
vt 0.000000 0.619048
vt 0.047619 0.666667
vt 0.000000 0.666667
vt 0.047619 0.714286
vt 0.000000 0.714286
vt 0.047619 0.761905
vt 0.000000 0.761905
vt 0.000000 0.809524
vt 0.047619 0.809524
vt 0.000000 0.857143
vt 0.047619 0.904762
vt 0.000000 0.904762
vt 0.095238 0.000000
vt 0.047619 0.047619
vt 0.095238 0.047619
vt 0.095238 0.095238
vt 0.095238 0.142857
vt 0.047619 0.190476
vt 0.095238 0.190476
vt 0.095238 0.285714
vt 0.095238 0.333333
vt 0.095238 0.380952
vt 0.047619 0.428571
vt 0.095238 0.428571
vt 0.095238 0.523810
vt 0.095238 0.571429
vt 0.095238 0.666667
vt 0.095238 0.714286
vt 0.095238 0.761905
vt 0.095238 0.809524
vt 0.047619 0.857143
vt 0.095238 0.904762
vt 0.142857 0.000000
vt 0.142857 0.047619
vt 0.142857 0.095238
vt 0.142857 0.142857
vt 0.142857 0.190476
vt 0.095238 0.238095
vt 0.142857 0.285714
vt 0.142857 0.333333
vt 0.142857 0.380952
vt 0.142857 0.428571
vt 0.095238 0.476190
vt 0.142857 0.523810
vt 0.142857 0.571429
vt 0.142857 0.619048
vt 0.095238 0.619048
vt 0.142857 0.666667
vt 0.142857 0.714286
vt 0.142857 0.761905
vt 0.142857 0.857143
vt 0.095238 0.857143
vt 0.142857 0.904762
vt 0.190476 0.000000
vt 0.190476 0.047619
vt 0.190476 0.095238
vt 0.190476 0.142857
vt 0.190476 0.190476
vt 0.142857 0.238095
vt 0.190476 0.285714
vt 0.190476 0.333333
vt 0.190476 0.380952
vt 0.190476 0.428571
vt 0.142857 0.476190
vt 0.190476 0.523810
vt 0.190476 0.571429
vt 0.190476 0.619048
vt 0.190476 0.666667
vt 0.190476 0.714286
vt 0.190476 0.809524
vt 0.142857 0.809524
vt 0.190476 0.857143
vt 0.238095 0.047619
vt 0.238095 0.095238
vt 0.238095 0.142857
vt 0.238095 0.190476
vt 0.238095 0.238095
vt 0.190476 0.238095
vt 0.238095 0.285714
vt 0.238095 0.380952
vt 0.238095 0.428571
vt 0.238095 0.476190
vt 0.190476 0.476190
vt 0.238095 0.523810
vt 0.238095 0.571429
vt 0.238095 0.666667
vt 0.238095 0.714286
vt 0.190476 0.761905
vt 0.238095 0.761905
vt 0.238095 0.809524
vt 0.238095 0.857143
vt 0.190476 0.904762
vt 0.285714 0.000000
vt 0.238095 0.000000
vt 0.285714 0.095238
vt 0.285714 0.142857
vt 0.285714 0.190476
vt 0.285714 0.238095
vt 0.285714 0.285714
vt 0.238095 0.333333
vt 0.285714 0.333333
vt 0.285714 0.380952
vt 0.285714 0.476190
vt 0.285714 0.523810
vt 0.285714 0.619048
vt 0.238095 0.619048
vt 0.285714 0.666667
vt 0.285714 0.761905
vt 0.285714 0.857143
vt 0.285714 0.904762
vt 0.238095 0.904762
vt 0.333333 0.000000
vt 0.285714 0.047619
vt 0.333333 0.047619
vt 0.333333 0.142857
vt 0.333333 0.190476
vt 0.333333 0.238095
vt 0.333333 0.285714
vt 0.333333 0.333333
vt 0.333333 0.380952
vt 0.285714 0.428571
vt 0.333333 0.476190
vt 0.333333 0.523810
vt 0.333333 0.571429
vt 0.285714 0.571429
vt 0.333333 0.619048
vt 0.333333 0.666667
vt 0.285714 0.714286
vt 0.333333 0.714286
vt 0.333333 0.761905
vt 0.285714 0.809524
vt 0.333333 0.857143
vt 0.333333 0.904762
vt 0.380952 0.000000
vt 0.380952 0.047619
vt 0.333333 0.095238
vt 0.380952 0.095238
vt 0.380952 0.190476
vt 0.380952 0.238095
vt 0.380952 0.285714
vt 0.380952 0.333333
vt 0.380952 0.380952
vt 0.333333 0.428571
vt 0.380952 0.428571
vt 0.380952 0.523810
vt 0.380952 0.619048
vt 0.380952 0.666667
vt 0.380952 0.714286
vt 0.380952 0.761905
vt 0.380952 0.809524
vt 0.333333 0.809524
vt 0.380952 0.857143
vt 0.380952 0.904762
vt 0.428571 0.000000
vt 0.428571 0.047619
vt 0.428571 0.142857
vt 0.380952 0.142857
vt 0.428571 0.190476
vt 0.428571 0.238095
vt 0.428571 0.285714
vt 0.428571 0.333333
vt 0.428571 0.380952
vt 0.428571 0.428571
vt 0.380952 0.476190
vt 0.428571 0.476190
vt 0.428571 0.523810
vt 0.380952 0.571429
vt 0.428571 0.571429
vt 0.428571 0.666667
vt 0.428571 0.714286
vt 0.428571 0.761905
vt 0.428571 0.809524
vt 0.428571 0.857143
vt 0.428571 0.904762
vt 0.476190 0.000000
vt 0.476191 0.047619
vt 0.428571 0.095238
vt 0.476191 0.095238
vt 0.476190 0.190476
vt 0.476190 0.238095
vt 0.476190 0.285714
vt 0.476190 0.333333
vt 0.476190 0.380952
vt 0.476190 0.428571
vt 0.476190 0.476190
vt 0.476190 0.523810
vt 0.476190 0.571429
vt 0.428571 0.619048
vt 0.476190 0.619048
vt 0.476190 0.714286
vt 0.476190 0.761905
vt 0.476190 0.809524
vt 0.476190 0.857143
vt 0.523810 0.000000
vt 0.523810 0.047619
vt 0.523810 0.095238
vt 0.476191 0.142857
vt 0.523810 0.142857
vt 0.523810 0.238095
vt 0.523810 0.285714
vt 0.523810 0.333333
vt 0.523810 0.380952
vt 0.523810 0.428571
vt 0.523810 0.476190
vt 0.523810 0.523810
vt 0.523810 0.571429
vt 0.523810 0.619048
vt 0.476190 0.666667
vt 0.523810 0.666667
vt 0.523810 0.714286
vt 0.523810 0.809524
vt 0.523810 0.857143
vt 0.523810 0.904762
vt 0.476190 0.904762
vt 0.571429 0.000000
vt 0.571429 0.047619
vt 0.571429 0.095238
vt 0.571429 0.142857
vt 0.523810 0.190476
vt 0.571429 0.238095
vt 0.571429 0.285714
vt 0.571429 0.333333
vt 0.571429 0.380952
vt 0.571429 0.428571
vt 0.571429 0.476190
vt 0.571429 0.523810
vt 0.571429 0.571429
vt 0.571429 0.619048
vt 0.571429 0.666667
vt 0.571429 0.761905
vt 0.523810 0.761905
vt 0.571429 0.809524
vt 0.571429 0.857143
vt 0.571429 0.904762
vt 0.619048 0.000000
vt 0.619048 0.047619
vt 0.619048 0.095238
vt 0.619048 0.142857
vt 0.571429 0.190476
vt 0.619048 0.238095
vt 0.619048 0.285714
vt 0.619048 0.333333
vt 0.619048 0.380952
vt 0.619048 0.428571
vt 0.619048 0.476190
vt 0.619048 0.523810
vt 0.619048 0.571429
vt 0.619048 0.619048
vt 0.619048 0.666667
vt 0.571429 0.714286
vt 0.619048 0.714286
vt 0.619048 0.761905
vt 0.619048 0.857143
vt 0.619048 0.904762
vt 0.666667 0.000000
vt 0.666667 0.047619
vt 0.666667 0.095238
vt 0.666667 0.142857
vt 0.619048 0.190476
vt 0.666667 0.238095
vt 0.666667 0.285714
vt 0.666667 0.333333
vt 0.666667 0.380952
vt 0.666667 0.428571
vt 0.666667 0.476190
vt 0.666667 0.523810
vt 0.666667 0.571429
vt 0.666667 0.619048
vt 0.666667 0.666667
vt 0.666667 0.714286
vt 0.666667 0.761905
vt 0.619048 0.809524
vt 0.666667 0.809524
vt 0.666667 0.904762
vt 0.714286 0.000000
vt 0.714286 0.047619
vt 0.714286 0.095238
vt 0.714286 0.142857
vt 0.666667 0.190476
vt 0.714286 0.238095
vt 0.714286 0.285714
vt 0.714286 0.333333
vt 0.714286 0.380952
vt 0.714286 0.428571
vt 0.714286 0.476190
vt 0.714286 0.523810
vt 0.714286 0.571429
vt 0.714286 0.619048
vt 0.714286 0.666667
vt 0.714286 0.714286
vt 0.714286 0.761905
vt 0.714286 0.809524
vt 0.666667 0.857143
vt 0.714286 0.857143
vt 0.714286 0.904762
vt 0.761905 0.000000
vt 0.761905 0.047619
vt 0.761905 0.095238
vt 0.761905 0.142857
vt 0.714286 0.190476
vt 0.761905 0.190476
vt 0.761905 0.238095
vt 0.761905 0.285714
vt 0.761905 0.333333
vt 0.761905 0.380952
vt 0.761905 0.428571
vt 0.761905 0.476190
vt 0.761905 0.523810
vt 0.761905 0.571429
vt 0.761905 0.619048
vt 0.761905 0.666667
vt 0.761905 0.714286
vt 0.761905 0.761905
vt 0.761905 0.809524
vt 0.761905 0.857143
vt 0.761905 0.904762
vt 0.809524 0.000000
vt 0.809524 0.047619
vt 0.809524 0.095238
vt 0.809524 0.142857
vt 0.809524 0.190476
vt 0.809524 0.238095
vt 0.809524 0.285714
vt 0.809524 0.333333
vt 0.809524 0.380952
vt 0.809524 0.428571
vt 0.809524 0.476190
vt 0.809524 0.523810
vt 0.809524 0.571429
vt 0.809524 0.619048
vt 0.809524 0.666667
vt 0.809524 0.714286
vt 0.809524 0.761905
vt 0.809524 0.809524
vt 0.809524 0.857143
vt 0.809524 0.904762
vt 0.857143 0.047619
vt 0.857143 0.095238
vt 0.857143 0.142857
vt 0.857143 0.190476
vt 0.857143 0.238095
vt 0.857143 0.285714
vt 0.857143 0.333333
vt 0.857143 0.380952
vt 0.857143 0.428571
vt 0.857143 0.476190
vt 0.857143 0.523810
vt 0.857143 0.571429
vt 0.857143 0.619048
vt 0.857143 0.666667
vt 0.857143 0.714286
vt 0.857143 0.761905
vt 0.857143 0.809524
vt 0.857143 0.857143
vt 0.857143 0.904762
vt 0.857143 0.000000
vt 0.904762 0.047619
vt 0.904762 0.095238
vt 0.904762 0.142857
vt 0.904762 0.190476
vt 0.904762 0.238095
vt 0.904762 0.285714
vt 0.904762 0.333333
vt 0.904762 0.380952
vt 0.904762 0.428571
vt 0.904762 0.476190
vt 0.904762 0.523810
vt 0.904762 0.571429
vt 0.904762 0.619048
vt 0.904762 0.666667
vt 0.904762 0.714286
vt 0.904762 0.761905
vt 0.904762 0.809524
vt 0.904762 0.857143
vt 0.904762 0.904762
vt 0.952381 0.000000
vt 0.904762 0.000000
vt 0.952381 0.095238
vt 0.952381 0.142857
vt 0.952381 0.190476
vt 0.952381 0.238095
vt 0.952381 0.285714
vt 0.952381 0.333333
vt 0.952381 0.380952
vt 0.952381 0.428571
vt 0.952381 0.476190
vt 0.952381 0.523810
vt 0.952381 0.571429
vt 0.952381 0.619048
vt 0.952381 0.666667
vt 0.952381 0.714286
vt 0.952381 0.761905
vt 0.952381 0.809524
vt 0.952381 0.857143
vt 0.952381 0.904762
vt 1.000000 0.000000
vt 0.952381 0.047619
vt 1.000000 0.047619
vt 1.000000 0.142857
vt 1.000000 0.190476
vt 1.000000 0.238095
vt 1.000000 0.285714
vt 1.000000 0.333333
vt 1.000000 0.380952
vt 1.000000 0.428571
vt 1.000000 0.476190
vt 1.000000 0.523810
vt 1.000000 0.571429
vt 1.000000 0.619048
vt 1.000000 0.666667
vt 1.000000 0.714286
vt 1.000000 0.761905
vt 1.000000 0.809524
vt 1.000000 0.857143
vt 1.000000 0.904762
vt 1.000000 1.000000
vt 1.000000 0.095238
vn -0.0000 1.0000 -0.0000
vn -0.0002 1.0000 -0.0002
vn -0.0000 1.0000 -0.0006
vn 0.0004 1.0000 -0.0004
vn -0.0000 1.0000 -0.0011
vn -0.0006 0.9997 -0.0232
vn -0.0002 0.9988 -0.0499
vn 0.0001 0.9988 -0.0494
vn 0.0006 0.9988 -0.0491
vn -0.0008 0.9987 -0.0507
vn -0.0007 0.9987 -0.0506
vn 0.0315 0.9978 -0.0585
vn 0.0268 0.9993 -0.0277
vn -0.0000 1.0000 -0.0009
vn -0.0008 0.9996 -0.0288
vn 0.0328 0.9976 -0.0608
vn 0.0288 0.9992 -0.0288
vn 0.0005 1.0000 -0.0005
vn -0.0034 1.0000 -0.0000
vn -0.0003 1.0000 0.0003
vn -0.0012 1.0000 0.0004
vn -0.0016 1.0000 -0.0000
vn -0.0005 1.0000 -0.0012
vn -0.0016 1.0000 -0.0008
vn -0.0016 1.0000 -0.0005
vn -0.0426 0.9991 0.0011
vn -0.0426 0.9991 -0.0011
vn -0.1297 0.9915 0.0034
vn -0.2665 0.9638 -0.0000
vn -0.2666 0.9638 -0.0000
vn -0.1297 0.9915 -0.0034
vn -0.0622 0.9981 0.0016
vn -0.1306 0.9914 -0.0000
vn -0.0622 0.9981 -0.0016
vn -0.0004 1.0000 -0.0004
vn -0.0013 1.0000 0.0013
vn -0.0017 0.9991 0.0426
vn -0.0490 0.9976 0.0485
vn -0.0485 0.9976 -0.0485
vn -0.0011 0.9991 -0.0426
vn -0.1286 0.9833 0.1286
vn -0.1460 0.9785 0.1460
vn -0.2596 0.9657 -0.0000
vn -0.2603 0.9655 -0.0000
vn -0.2389 0.9604 -0.1433
vn -0.0071 0.9915 -0.1297
vn -0.0071 0.9980 0.0622
vn -0.0707 0.9950 0.0707
vn -0.1148 0.9934 -0.0000
vn -0.1228 0.9899 -0.0703
vn -0.1524 0.9865 -0.0599
vn -0.0227 0.9997 -0.0000
vn -0.0227 0.9997 0.0009
vn -0.0227 0.9997 0.0017
vn -0.0653 0.9938 0.0895
vn 0.0604 0.9951 0.0783
vn 0.0604 0.9951 -0.0788
vn 0.0478 0.9948 -0.0897
vn -0.0034 0.9915 0.1297
vn -0.2288 0.9401 0.2527
vn -0.0297 0.9991 0.0310
vn -0.0941 0.9762 -0.1955
vn -0.1225 0.9301 -0.3463
vn -0.1296 0.9838 0.1242
vn -0.0378 0.9927 0.1148
vn -0.0008 0.9995 0.0312
vn -0.1833 0.9788 -0.0918
vn -0.1576 0.9870 -0.0299
vn -0.1156 0.9930 -0.0226
vn -0.0721 0.9949 -0.0707
vn -0.0610 0.9974 -0.0396
vn -0.0608 0.9974 -0.0395
vn -0.0620 0.9973 -0.0395
vn -0.0608 0.9972 0.0446
vn -0.0521 0.9980 0.0366
vn 0.0475 0.9989 0.0056
vn 0.0474 0.9967 -0.0662
vn 0.0475 0.9967 -0.0662
vn 0.0478 0.9967 -0.0662
vn -0.0232 0.9988 -0.0432
vn 0.0034 1.0000 0.0034
vn 0.1423 0.9540 0.2638
vn 0.2301 0.9456 0.2301
vn 0.0297 0.9980 0.0551
vn 0.0503 0.9974 0.0516
vn 0.0498 0.9871 -0.1524
vn 0.0909 0.9437 -0.3180
vn -0.0062 0.9995 0.0325
vn 0.1153 0.9903 0.0776
vn 0.1573 0.9854 0.0650
vn 0.0577 0.9967 0.0577
vn 0.0577 0.9967 -0.0577
vn 0.0355 0.9972 -0.0658
vn -0.0622 0.9915 -0.1140
vn -0.0367 0.9980 -0.0511
vn -0.0365 0.9930 0.1125
vn -0.0022 0.9992 -0.0406
vn 0.0185 0.9954 -0.0937
vn -0.0065 0.9999 -0.0120
vn -0.0068 0.9999 -0.0120
vn -0.0265 0.9993 -0.0269
vn 0.1286 0.9833 0.1286
vn 0.1284 0.9833 0.1286
vn 0.1460 0.9785 0.1460
vn 0.2423 0.9369 0.2518
vn 0.2578 0.9657 0.0299
vn 0.2532 0.9486 -0.1900
vn 0.1546 0.9774 -0.1444
vn 0.0889 0.9946 -0.0539
vn 0.1196 0.9919 -0.0439
vn 0.0934 0.9954 0.0226
vn 0.1773 0.9719 0.1552
vn 0.1793 0.9832 -0.0350
vn 0.0827 0.9966 -0.0002
vn 0.0825 0.9932 -0.0819
vn 0.0227 0.9968 -0.0770
vn 0.0226 0.9968 -0.0769
vn 0.0233 0.9967 0.0779
vn 0.0228 0.9967 0.0775
vn 0.0239 0.9966 0.0785
vn 0.0239 0.9978 -0.0613
vn -0.0742 0.9949 -0.0687
vn -0.0139 0.9996 0.0244
vn -0.0010 0.9991 -0.0433
vn -0.0000 1.0000 0.0002
vn 0.1279 0.9834 0.1287
vn 0.1830 0.9709 0.1547
vn 0.1217 0.9923 0.0225
vn 0.1212 0.9885 -0.0905
vn 0.0668 0.9947 -0.0784
vn 0.0777 0.9934 -0.0849
vn 0.0561 0.9969 -0.0552
vn 0.0621 0.9962 0.0604
vn 0.1303 0.9890 0.0703
vn 0.1306 0.9914 0.0001
vn 0.1313 0.9913 0.0008
vn 0.1314 0.9913 0.0008
vn 0.1618 0.9849 0.0618
vn 0.1079 0.9939 -0.0220
vn 0.1076 0.9912 -0.0767
vn 0.0525 0.9956 0.0773
vn -0.0746 0.9951 0.0656
vn -0.1040 0.9899 -0.0968
vn -0.1041 0.9898 -0.0968
vn -0.1025 0.9900 -0.0969
vn -0.0072 0.9993 -0.0363
vn -0.0079 0.9984 -0.0554
vn -0.0071 0.9985 -0.0549
vn -0.0086 0.9984 -0.0562
vn 0.0002 1.0000 0.0007
vn -0.0000 1.0000 0.0008
vn 0.0229 0.9947 0.1004
vn 0.0359 0.9955 0.0881
vn 0.0361 0.9987 -0.0361
vn 0.0200 0.9958 -0.0896
vn -0.0000 0.9981 -0.0615
vn 0.0018 0.9980 -0.0633
vn -0.0000 1.0000 -0.0007
vn 0.0014 1.0000 -0.0007
vn 0.0004 1.0000 -0.0000
vn 0.0007 1.0000 0.0003
vn 0.0016 1.0000 0.0005
vn 0.0016 1.0000 0.0008
vn 0.0016 1.0000 -0.0000
vn 0.0326 0.9990 0.0309
vn 0.0653 0.9973 0.0336
vn 0.0195 0.9996 -0.0215
vn 0.0852 0.9760 0.2004
vn 0.1618 0.9725 0.1677
vn 0.1617 0.9722 -0.1692
vn 0.0693 0.9887 -0.1328
vn 0.0228 0.9982 -0.0547
vn 0.0002 1.0000 0.0002
vn 0.0004 1.0000 0.0008
vn 0.0494 0.9958 0.0776
vn 0.0908 0.9930 0.0749
vn 0.0911 0.9956 -0.0200
vn 0.0713 0.9949 -0.0713
vn 0.0332 0.9976 -0.0615
vn 0.0005 1.0000 0.0002
vn 0.0009 1.0000 0.0009
vn 0.0142 0.9996 0.0244
vn 0.1341 0.9817 0.1351
vn 0.1660 0.9819 0.0916
vn 0.1662 0.9831 -0.0764
vn 0.0469 0.9951 -0.0866
vn 0.0202 0.9978 -0.0635
vn 0.0291 0.9992 0.0291
vn 0.0618 0.9975 0.0335
vn 0.0617 0.9981 -0.0001
vn 0.0617 0.9981 -0.0002
vn 0.0618 0.9981 -0.0003
vn 0.0615 0.9976 -0.0332
vn 0.0291 0.9992 -0.0291
vn 0.0110 0.9999 0.0110
vn 0.0261 0.9995 0.0152
vn 0.0540 0.9967 0.0607
vn 0.0540 0.9967 0.0609
vn 0.0540 0.9966 0.0627
vn 0.0351 0.9984 0.0442
vn 0.0351 0.9976 -0.0601
vn -0.0279 0.9972 -0.0700
vn 0.0001 1.0000 0.0010
vn -0.0009 1.0000 -0.0000
vn 0.0007 1.0000 0.0002
vn 0.0008 1.0000 0.0004
vn 0.0007 1.0000 -0.0000
vn -0.0000 1.0000 -0.0004
vn -0.0000 1.0000 0.0003
vn 0.0321 0.9989 0.0328
vn 0.0327 0.9975 0.0623
vn 0.0324 0.9975 0.0625
vn 0.0334 0.9974 0.0631
vn -0.0220 0.9998 -0.0026
vn -0.0217 0.9998 -0.0026
vn -0.0328 0.9974 -0.0645
vn -0.0011 1.0000 0.0011
vn -0.0017 1.0000 -0.0000
vn -0.0018 1.0000 -0.0000
vn -0.0017 1.0000 -0.0006
vn 0.0006 1.0000 0.0004
vn 0.0001 1.0000 0.0008
vn 0.0334 0.9975 0.0616
vn 0.0337 0.9975 0.0616
vn 0.0533 0.9972 0.0525
vn 0.0533 0.9972 -0.0533
vn -0.0670 0.9977 0.0018
vn -0.1406 0.9901 -0.0000
vn -0.0670 0.9977 -0.0018
vn 0.0288 0.9992 0.0288
vn 0.0608 0.9976 0.0328
vn 0.0608 0.9976 -0.0328
vn -0.0018 0.9977 0.0670
vn -0.0762 0.9942 0.0762
vn -0.1237 0.9923 -0.0000
vn -0.0762 0.9942 -0.0762
vn -0.0669 0.9955 -0.0669
vn 0.0008 1.0000 -0.0000
vn -0.0000 0.9901 0.1406
vn -0.0000 0.9923 0.1237
vn -0.1227 0.9848 -0.1227
vn -0.0018 0.9977 -0.0670
vn -0.0006 1.0000 -0.0017
vn -0.0000 0.9923 -0.1237
vn -0.0000 0.9901 -0.1406
vn -0.0000 1.0000 -0.0018
vn -0.0009 1.0000 -0.0018
vn 0.0756 0.9872 0.1402
vn 0.1227 0.9848 0.1227
vn -0.0000 1.0000 -0.0017
vn 0.0010 1.0000 0.0001
vn 0.0669 0.9955 0.0669
vn 0.0762 0.9942 0.0762
vn 0.1237 0.9923 -0.0000
vn 0.1227 0.9848 -0.1227
vn 0.0756 0.9872 -0.1402
vn 0.0011 1.0000 -0.0011
vn 0.1402 0.9872 0.0756
vn 0.1406 0.9901 -0.0000
vn 0.1402 0.9872 -0.0756
vn 0.0669 0.9955 -0.0669
vn 0.0004 1.0000 0.0004
vn 0.0013 1.0000 0.0004
vn 0.0018 1.0000 0.0009
vn 0.0018 1.0000 -0.0000
vn 0.0017 1.0000 -0.0000
vn 0.0005 1.0000 -0.0013
vn -0.0232 0.9995 -0.0232
vn -0.0265 0.9984 -0.0490
vn -0.0086 0.9983 -0.0585
vn 0.0007 0.9996 -0.0277
vn -0.0279 0.9992 -0.0288
vn -0.0328 0.9976 -0.0608
vn 0.0008 0.9996 -0.0288
vn -0.0016 1.0000 0.0008
vn -0.0426 0.9982 0.0426
vn -0.0897 0.9948 0.0484
vn -0.0897 0.9948 -0.0484
vn -0.0426 0.9982 -0.0426
vn -0.1286 0.9833 -0.1286
vn -0.0621 0.9961 0.0621
vn -0.1303 0.9890 0.0703
vn -0.0017 1.0000 0.0017
vn -0.0489 0.9948 0.0896
vn -0.0787 0.9938 0.0782
vn -0.0787 0.9938 -0.0787
vn -0.0484 0.9948 -0.0897
vn -0.2270 0.9127 -0.3399
vn -0.0703 0.9897 0.1249
vn -0.1141 0.9869 0.1141
vn -0.1303 0.9890 -0.0703
vn -0.0621 0.9973 -0.0395
vn -0.0655 0.9969 0.0446
vn -0.0123 0.9993 0.0367
vn -0.0123 0.9999 0.0056
vn 0.0479 0.9967 -0.0662
vn 0.0011 0.9991 -0.0432
vn -0.0034 1.0000 0.0034
vn -0.1423 0.9540 0.2638
vn -0.0297 0.9980 0.0551
vn -0.0503 0.9974 0.0516
vn -0.0498 0.9871 -0.1524
vn -0.0909 0.9437 -0.3180
vn -0.0380 0.9988 0.0325
vn -0.0008 0.9969 0.0781
vn -0.0355 0.9972 0.0658
vn -0.0355 0.9977 0.0578
vn -0.1149 0.9869 -0.1135
vn -0.0722 0.9961 -0.0510
vn -0.1276 0.9855 0.1117
vn -0.1283 0.9909 -0.0402
vn -0.0519 0.9943 -0.0936
vn -0.0069 0.9999 -0.0120
vn -0.0069 0.9996 -0.0269
vn 0.0034 0.9915 0.1297
vn 0.2288 0.9401 0.2527
vn 0.0297 0.9991 0.0310
vn 0.0941 0.9762 -0.1955
vn -0.0915 0.9851 -0.1455
vn -0.0924 0.9943 -0.0539
vn -0.0062 0.9990 -0.0442
vn 0.1156 0.9930 0.0226
vn 0.1558 0.9754 0.1558
vn 0.0356 0.9987 -0.0356
vn -0.0301 0.9995 -0.0002
vn -0.0300 0.9962 -0.0822
vn -0.0624 0.9951 -0.0767
vn -0.0022 0.9969 0.0785
vn 0.0186 0.9979 -0.0613
vn -0.0065 0.9976 -0.0689
vn -0.0428 0.9988 0.0243
vn -0.0428 0.9981 -0.0432
vn 0.1457 0.9770 0.1557
vn 0.2503 0.9679 0.0219
vn 0.1556 0.9837 -0.0901
vn 0.0887 0.9930 -0.0783
vn 0.1193 0.9893 -0.0845
vn 0.1304 0.9899 -0.0548
vn 0.1304 0.9896 0.0600
vn 0.0932 0.9931 0.0706
vn 0.1445 0.9895 0.0008
vn 0.1442 0.9876 0.0620
vn 0.0226 0.9995 -0.0221
vn 0.0228 0.9968 -0.0771
vn 0.0228 0.9967 0.0774
vn -0.1026 0.9926 0.0654
vn -0.0743 0.9966 -0.0362
vn -0.0139 0.9983 -0.0562
vn 0.1283 0.9867 0.0996
vn 0.1845 0.9790 0.0867
vn 0.0670 0.9971 -0.0360
vn 0.0777 0.9930 -0.0893
vn 0.0560 0.9964 -0.0632
vn 0.0016 1.0000 -0.0004
vn 0.0622 0.9981 0.0016
vn 0.1306 0.9914 -0.0000
vn 0.1313 0.9909 0.0307
vn 0.1620 0.9862 0.0332
vn 0.0526 0.9984 -0.0215
vn -0.0732 0.9769 0.2006
vn -0.1760 0.9701 0.1672
vn -0.1037 0.9858 -0.1324
vn -0.0072 0.9985 -0.0548
vn -0.0000 0.9970 0.0777
vn 0.0229 0.9969 0.0752
vn 0.0201 0.9996 -0.0201
vn 0.0018 0.9974 -0.0715
vn 0.0326 0.9995 0.0009
vn 0.0653 0.9976 0.0243
vn 0.0194 0.9905 0.1363
vn 0.0866 0.9919 0.0926
vn 0.0697 0.9946 -0.0773
vn 0.0227 0.9960 -0.0867
vn 0.0315 0.9975 -0.0635
vn 0.0008 0.9996 0.0291
vn 0.0495 0.9982 0.0335
vn 0.0715 0.9974 -0.0003
vn 0.0332 0.9989 -0.0332
vn 0.0008 0.9996 -0.0291
vn 0.0009 0.9999 0.0110
vn 0.0142 0.9998 0.0152
vn 0.1351 0.9890 0.0602
vn 0.0470 0.9979 0.0441
vn 0.0202 0.9980 -0.0601
vn 0.0268 0.9972 -0.0700
vn 0.0291 0.9996 0.0008
vn 0.0615 0.9981 -0.0000
vn 0.0291 0.9996 -0.0008
vn 0.0110 0.9999 -0.0000
vn 0.0261 0.9991 0.0328
vn 0.0540 0.9966 0.0630
vn -0.0224 0.9997 -0.0026
vn -0.0223 0.9977 -0.0645
vn 0.0335 0.9981 0.0525
vn -0.0217 0.9983 -0.0534
vn -0.0018 1.0000 -0.0009
vn 0.0008 0.9996 0.0288
vn 0.0337 0.9989 0.0328
vn 0.0328 0.9989 -0.0328
vn -0.0669 0.9955 0.0669
vn -0.1402 0.9872 0.0756
vn -0.1402 0.9872 -0.0756
vn 0.0288 0.9996 0.0008
vn 0.0288 0.9996 -0.0008
vn -0.0756 0.9872 0.1402
vn -0.1227 0.9848 0.1227
vn -0.0756 0.9872 -0.1402
vn 0.0018 0.9977 0.0670
vn 0.0762 0.9942 -0.0762
vn 0.0018 0.9977 -0.0670
vn 0.0670 0.9977 0.0018
vn 0.0670 0.9977 -0.0018
vn -0.0034 1.0000 -0.0034
vn -0.2638 0.9540 0.1423
vn -0.2638 0.9540 -0.1423
vn -0.0621 0.9962 -0.0604
vn -0.2513 0.9347 0.2513
vn -0.2870 0.9575 0.0297
vn -0.2820 0.9407 -0.1884
vn -0.1452 0.9889 0.0309
vn -0.1446 0.9852 -0.0924
vn -0.1231 0.9919 -0.0301
vn -0.1526 0.9880 -0.0225
vn -0.2301 0.9456 0.2301
vn -0.1838 0.9813 -0.0568
vn -0.1573 0.9854 -0.0650
vn -0.1024 0.9900 -0.0968
vn -0.1759 0.9698 -0.1688
o Plane
s 1
usemtl Material.001
f 7/52/31 12/87/31 6/54/31
f 10/98/39 9/99/39 1/78/39
f 27/102/41 13/84/41 8/83/41
f 35/103/42 15/86/42 13/84/42
f 15/105/45 39/106/45 12/87/45
f 12/87/46 19/107/46 6/88/46
f 19/107/47 5/89/47 6/88/47
f 25/108/48 11/91/48 5/89/48
f 11/110/50 30/111/50 4/92/50
f 4/114/34 18/115/34 3/94/34
f 18/116/53 2/96/54 3/95/53
f 17/117/55 10/97/55 2/96/55
f 10/97/56 22/118/56 14/119/56
f 22/118/57 9/99/57 14/119/57
f 16/120/58 1/10/58 9/99/58
f 36/123/42 35/103/42 27/102/42
f 42/126/62 40/127/62 39/106/62
f 39/106/63 26/128/63 19/107/63
f 26/128/64 25/108/64 19/107/64
f 31/129/65 34/109/65 25/108/65
f 34/131/67 37/132/67 30/111/67
f 30/111/68 37/133/68 24/112/68
f 24/113/70 23/135/70 18/115/70
f 23/136/74 17/117/74 18/116/74
f 17/139/77 16/120/78 22/118/79
f 20/122/82 27/141/82 36/123/82
f 36/123/83 35/142/83 41/124/83
f 39/146/87 26/128/87 40/127/87
f 31/129/89 25/148/89 34/130/89
f 34/130/90 25/149/90 38/150/90
f 33/134/94 29/153/94 23/135/94
f 20/140/102 49/162/103 27/141/102
f 27/141/104 55/163/104 35/142/104
f 35/142/105 62/164/105 41/143/105
f 41/143/106 62/165/106 42/144/106
f 62/165/107 39/146/107 42/144/107
f 59/166/108 32/167/108 39/146/108
f 54/168/109 31/147/109 32/167/109
f 46/169/110 25/148/110 31/147/110
f 25/149/112 53/171/112 37/151/112
f 53/171/113 33/152/113 37/151/113
f 58/172/115 29/153/115 33/173/115
f 57/174/116 23/154/116 29/153/117
f 23/154/118 56/175/119 28/156/120
f 56/175/121 22/157/121 28/156/121
f 22/157/122 51/176/122 17/158/122
f 17/158/123 50/177/123 21/178/123
f 21/178/124 43/17/124 16/15/124
f 49/162/103 48/182/126 55/163/102
f 60/184/129 59/166/129 62/165/129
f 47/186/131 46/169/131 54/168/131
f 46/170/134 45/190/134 53/171/134
f 53/192/138 45/193/138 58/172/138
f 58/172/139 44/194/139 57/174/139
f 44/194/140 52/195/140 57/174/140
f 44/196/141 56/175/141 52/195/141
f 71/204/150 48/182/151 49/203/1
f 48/182/152 70/205/152 55/183/152
f 55/183/153 75/206/153 60/184/153
f 75/206/154 54/185/154 60/184/154
f 74/207/155 47/186/155 54/185/155
f 69/208/156 46/187/157 47/186/157
f 46/189/161 67/212/162 45/190/163
f 45/193/166 66/214/166 44/194/166
f 44/196/168 76/216/168 61/197/168
f 61/197/169 77/217/169 63/218/169
f 77/217/170 61/199/170 63/218/170
f 76/219/171 50/200/171 61/199/171
f 72/220/172 43/20/172 50/200/172
f 70/226/177 74/207/177 75/206/177
f 66/215/183 65/238/183 76/216/183
f 76/216/184 73/239/184 77/217/184
f 73/239/185 76/219/185 77/217/185
f 73/240/186 72/220/186 76/219/186
f 85/263/203 70/264/1 71/245/1
f 84/266/205 69/248/207 70/247/206
f 83/268/1 68/250/1 69/249/18
f 82/271/1 67/253/1 68/252/1
f 81/274/1 66/275/1 67/256/1
f 80/277/1 65/258/209 66/257/1
f 65/259/211 79/279/212 73/260/213
f 73/260/214 86/280/215 72/281/214
f 72/281/216 78/28/216 64/25/216
f 79/279/225 78/301/225 86/280/225
f 88/304/228 84/285/228 85/284/228
f 98/323/234 88/304/234 85/303/234
f 100/324/235 87/305/235 88/304/235
f 87/326/236 97/327/236 84/307/236
f 84/307/237 94/328/237 83/308/237
f 94/329/35 82/310/1 83/309/1
f 93/332/1 81/313/1 82/312/1
f 92/335/1 80/316/1 81/315/1
f 91/337/1 79/319/1 80/318/1
f 79/320/173 89/341/207 78/321/238
f 97/327/236 96/348/236 94/328/236
f 107/363/239 98/343/239 95/342/239
f 109/364/240 100/344/240 98/343/240
f 111/365/1 99/345/1 100/344/1
f 110/369/244 96/348/244 99/347/244
f 108/370/245 94/349/245 96/348/245
f 106/371/246 93/350/243 94/349/247
f 105/374/1 92/353/1 93/352/1
f 104/377/1 91/356/1 92/355/1
f 103/379/1 90/358/1 91/357/1
f 102/382/1 89/362/1 90/361/1
f 107/404/253 119/425/253 109/405/253
f 109/405/249 120/426/249 110/406/249
f 120/428/255 108/409/255 110/408/255
f 117/429/256 106/410/256 108/409/256
f 117/430/257 105/411/251 106/410/250
f 116/433/1 104/414/1 105/413/1
f 115/436/1 103/417/1 104/416/1
f 114/438/1 102/419/1 103/418/1
f 113/441/1 101/422/1 102/421/1
f 119/425/258 118/446/258 120/426/258
f 118/448/260 117/429/260 120/428/260
f 2/77/278 10/98/278 1/78/278
f 10/98/286 14/119/286 9/99/286
f 20/101/41 27/102/41 8/83/41
f 12/87/288 39/106/288 19/107/288
f 19/107/289 25/108/289 5/89/289
f 25/108/290 34/109/290 11/91/290
f 4/114/291 24/113/291 18/115/291
f 18/116/293 17/117/293 2/96/293
f 17/117/294 22/138/294 10/97/294
f 22/118/79 16/120/78 9/99/296
f 20/122/299 36/123/299 27/102/299
f 39/106/303 40/127/303 26/128/303
f 26/128/304 31/129/304 25/108/304
f 34/131/307 38/150/307 37/132/307
f 24/113/308 33/134/308 23/135/308
f 23/136/310 28/155/310 17/117/310
f 17/117/311 28/155/311 22/137/311
f 36/123/104 27/141/104 35/142/104
f 42/144/318 39/146/318 40/127/318
f 39/146/319 32/167/319 26/128/319
f 26/128/320 32/167/320 31/147/320
f 38/150/323 25/149/323 37/151/323
f 17/158/331 21/178/331 16/159/331
f 27/141/102 49/162/103 55/163/102
f 35/142/333 55/163/333 62/164/333
f 62/165/335 59/166/335 39/146/335
f 59/166/336 54/168/336 32/167/336
f 54/168/337 46/169/337 31/147/337
f 25/149/340 46/170/340 53/171/340
f 33/152/342 53/192/342 58/172/342
f 58/172/343 57/174/343 29/153/343
f 57/174/116 52/195/344 23/154/116
f 23/154/118 52/195/345 56/175/119
f 56/175/346 61/198/346 22/157/346
f 17/158/347 51/176/347 50/177/347
f 21/178/348 50/177/348 43/17/348
f 62/164/350 55/183/350 60/184/350
f 60/184/351 54/185/351 59/166/351
f 58/172/358 45/193/358 44/194/358
f 44/196/360 61/197/360 56/175/360
f 51/176/362 61/199/362 50/200/362
f 71/204/150 70/224/174 48/182/151
f 55/183/365 70/205/365 75/206/365
f 75/206/366 74/207/366 54/185/366
f 74/207/367 69/208/367 47/186/367
f 69/208/156 68/209/156 46/187/157
f 46/189/161 68/231/1 67/212/162
f 45/193/368 67/213/368 66/214/368
f 44/196/370 66/215/370 76/216/370
f 61/197/371 76/216/371 77/217/371
f 77/217/372 76/219/372 61/199/372
f 76/219/373 72/220/373 50/200/373
f 72/220/374 64/19/374 43/20/374
f 70/226/377 69/227/377 74/207/377
f 76/216/382 65/238/382 73/239/382
f 73/240/384 64/241/384 72/220/384
f 73/260/214 72/281/214 64/241/392
f 85/263/203 84/265/204 70/264/1
f 84/266/205 83/267/208 69/248/207
f 83/268/1 82/269/1 68/250/1
f 82/271/1 81/272/1 67/253/1
f 81/274/1 80/276/1 66/275/1
f 80/277/1 79/298/221 65/258/209
f 73/260/394 79/279/394 86/280/394
f 72/281/395 86/280/395 78/28/395
f 95/322/405 98/323/405 85/303/405
f 98/323/406 100/324/406 88/304/406
f 100/324/235 99/325/235 87/305/235
f 87/326/241 99/346/241 97/327/241
f 84/307/236 97/327/236 94/328/236
f 94/329/35 93/330/1 82/310/1
f 93/332/1 92/333/1 81/313/1
f 92/335/1 91/336/1 80/316/1
f 91/337/1 90/338/1 79/319/1
f 79/320/173 90/360/1 89/341/207
f 97/327/241 99/347/241 96/348/241
f 107/363/239 109/364/239 98/343/239
f 109/364/240 111/365/240 100/344/240
f 111/365/1 110/366/1 99/345/1
f 110/369/244 108/370/244 96/348/244
f 108/370/245 106/371/245 94/349/245
f 106/371/246 105/372/14 93/350/243
f 105/374/1 104/375/1 92/353/1
f 104/377/1 103/378/1 91/356/1
f 103/379/1 102/380/1 90/358/1
f 102/382/1 101/383/1 89/362/1
f 111/386/249 109/405/249 110/406/249
f 109/405/253 119/425/253 120/426/253
f 120/428/409 117/429/409 108/409/409
f 117/430/257 116/431/1 105/411/251
f 116/433/1 115/434/1 104/414/1
f 115/436/1 114/437/1 103/417/1
f 114/438/1 113/439/1 102/419/1
f 113/441/1 112/442/1 101/422/1
f 8/83/41 13/84/41 7/49/41
f 13/84/414 15/86/414 7/85/414
f 7/52/415 15/105/415 12/87/415
f 5/61/291 11/110/291 4/92/291
f 27/102/42 35/103/42 13/84/42
f 35/103/417 41/104/417 15/86/417
f 41/104/418 42/126/418 15/105/418
f 15/105/419 42/126/419 39/106/419
f 11/110/421 34/131/421 30/111/421
f 4/92/422 30/111/422 24/112/422
f 36/123/424 41/124/424 35/103/424
f 24/112/426 37/133/426 33/134/426
f 22/157/427 61/198/143 51/176/145
f 88/304/228 87/305/228 84/285/228
