# Generated by tools/model_lod_builder.ps1
# Source: terrain.obj
# Ratio: 0.55
mtllib terrain.mtl
v -47.619047 0.021093 -47.619047
v -48.412698 0.090597 -38.88889
v -47.619047 0.021101 47.619047
v -47.619047 0.071885 -28.571427
v -47.619047 0.021096 -19.04762
v -47.619047 0.021096 -9.52381
v -47.619047 0.023049 0
v -47.619047 0.02305 9.52381
v -47.619047 0.021098 19.04762
v -47.619047 0.029297 28.571427
v -47.619047 0.0211 38.095239
v -45.238094 0.455929 -35.714287
v -38.095239 0.02243 -47.619047
v -35.714291 0.227166 -40.476189
v -38.09524 0.021101 47.619047
v -40.476189 0.029282 -26.190474
v -38.88889 0.057071 -19.841268
v -40.476189 0.028905 -9.523807
v -38.09524 0.038149 16.66667
v -40.476189 0.0211 40.476189
v -38.09524 0.499778 -38.095238
v -37.30159 0.439069 -29.365077
v -35.714291 0.317825 -16.666664
v -40.476189 0.317826 -2.38095
v -40.476189 0.317827 11.904765
v -35.714291 2.782071 26.190474
v -40.476189 0.832827 -35.714287
v -35.714291 0.710328 -9.523807
v -40.476189 0.656199 2.380955
v -38.09524 0.656199 9.523813
v -40.476189 0.644062 21.428576
v -38.09524 0.644063 38.09524
v -35.714291 0.908746 -2.38095
v -35.714291 1.355322 2.380955
v -35.714291 1.206678 7.14286
v -40.476189 1.354454 28.571427
v -35.714291 1.354452 35.714291
v -35.714291 1.828437 21.428576
v -35.714291 2.634432 30.952379
v 47.619047 0.021093 -47.619047
v 47.619047 0.021094 -38.095238
v 47.619047 0.021101 47.619047
v 47.619047 0.021095 -28.571427
v 47.619047 0.021096 -19.047617
v 47.619047 0.021096 -9.523807
v 47.619047 0.021097 0.000003
v 47.619047 0.021098 9.523813
v 47.619047 0.021098 19.047623
v 47.619047 0.025308 28.571427
v 47.619047 0.023204 38.09524
v -28.571427 0.108679 -47.619047
v -30.952379 0.259907 -40.476189
v -28.571427 0.025199 47.619047
v -27.777776 0.376409 -37.301588
v -30.952379 0.419251 -21.42857
v -29.365077 2.860179 27.777776
v -28.571427 0.721033 -30.952379
v -28.571427 0.62859 -19.047617
v -26.190474 0.764459 2.380955
v -28.571427 0.746773 9.523813
v -30.952379 0.682503 16.66667
v -26.190474 0.644063 40.476189
v -28.571427 0.963978 -26.190474
v -26.190474 0.961459 -16.666664
v -26.190474 0.866764 11.904765
v -27.777776 1.306697 -10.317458
v -30.952379 1.21059 7.14286
v -26.190474 1.124877 16.66667
v -28.571427 1.354454 38.09524
v -30.952379 1.524827 -7.142855
v -28.571427 1.524828 0.000003
v -30.952379 1.800587 -2.38095
v -26.190474 1.828437 21.428576
v -30.952379 2.287228 21.428576
v -26.190474 2.634432 30.952379
v -30.952379 2.513421 35.714291
v -19.841268 0.102749 -48.412698
v -19.047623 0.021101 47.619047
v -16.66667 0.234308 -21.42857
v -16.66667 0.102658 -9.523807
v -16.66667 0.025002 0.000003
v -19.047623 0.091833 9.523813
v -18.253972 0.022329 38.88889
v -16.666664 0.303594 -45.238094
v -19.047617 0.547599 -40.476189
v -19.047623 0.41103 -19.047617
v -21.428576 0.317826 2.380955
v -16.66667 0.326776 16.66667
v -16.66667 0.505426 30.952379
v -21.428576 0.703229 -35.714287
v -21.428576 0.660072 -7.142855
v -21.428576 0.656331 -2.38095
v -19.047623 0.727266 19.047623
v -21.428576 0.644062 35.714291
v -21.428576 0.85508 -26.190474
v -21.428576 0.853581 -16.666664
v -21.428576 0.958823 -11.904759
v -21.428576 1.07498 21.428576
v -16.66667 0.927032 26.190474
v -16.66667 1.204126 -35.714287
v -19.047623 1.190475 -28.571427
v -21.428576 1.456996 28.571427
v -16.66667 2.032849 -30.952379
v -9.523807 0.055117 -47.619047
v -9.523813 0.021101 47.619047
v -7.14286 0.145766 -26.190474
v -9.523813 0.065236 -19.047617
v -9.523813 0.021096 -9.523807
v -9.523813 0.021097 0.000003
v -9.523813 0.022011 9.523813
v -7.14286 0.159916 16.66667
v -7.14286 0.159917 30.952379
v -9.523813 0.022013 38.09524
v -9.523807 0.407761 -40.476189
v -7.14286 0.435556 -30.952379
v -9.523813 0.318216 19.047623
v -9.523813 0.357813 28.571427
v -7.14286 0.646145 -35.714287
v -11.904765 0.796374 -26.190474
v -11.904765 0.65954 21.428576
v -11.904765 0.755108 26.190474
v -11.904765 0.870492 -35.714287
v -11.904765 1.240711 -30.952379
v -0.793648 0.068051 -48.412698
v -0.000003 0.021101 47.619047
v 0 0.061152 -28.571427
v -0.000003 0.021096 -19.047617
v -0.000003 0.021096 -9.523807
v -0.000003 0.021097 0.000003
v -0.000003 0.021098 9.523813
v -0.000003 0.022011 19.047623
v -0.000003 0.022012 28.571427
v -0.000003 0.0211 38.09524
v 2.380955 0.314878 -45.238094
v -0.79365 0.421224 -37.301588
v 2.380955 0.569521 -40.476189
v 9.523813 0.055408 -47.619047
v 10.317462 0.068052 -37.301588
v 8.730156 0.021101 48.412698
v 9.523807 0.021095 -28.571427
v 9.523807 0.021096 -19.047617
v 9.523807 0.021096 -9.523807
v 9.523807 0.021097 0.000003
v 9.523807 0.021098 9.523813
v 9.523807 0.021098 19.047623
v 7.142855 0.025309 28.571427
v 7.142855 0.029519 38.09524
v 7.142855 0.31488 -40.476189
v 11.904759 0.340984 45.238094
v 11.904759 0.340983 26.190474
v 11.904759 0.70576 30.952379
v 11.904759 0.705761 38.09524
v 19.047623 0.021093 -47.619047
v 19.047617 0.021094 -38.095238
v 19.047617 0.029519 50
v 19.047617 0.021095 -28.571427
v 19.047617 0.021096 -19.047617
v 19.047617 0.021096 -9.523807
v 19.047617 0.021097 0.000003
v 19.047617 0.021098 9.523813
v 19.047617 0.025308 16.66667
v 16.666664 0.340982 21.428576
v 19.047617 0.70576 45.238094
v 21.42857 0.705759 21.428576
v 16.666664 0.705759 26.190474
v 19.841268 1.299196 29.365077
v 19.047617 1.299197 38.09524
v 28.571427 0.021093 -47.619047
v 28.571427 0.021094 -38.095238
v 28.571427 0.029519 50
v 28.571427 0.021095 -28.571427
v 28.571427 0.021096 -19.047617
v 28.571427 0.021096 -9.523807
v 28.571427 0.021097 0.000003
v 28.571427 0.021098 9.523813
v 28.571427 0.029517 16.66667
v 28.571427 0.70576 45.238094
v 28.571427 0.705759 21.428576
v 28.571427 1.299196 28.571427
v 28.571427 1.299197 38.09524
v 38.09524 0.021093 -47.619047
v 38.095238 0.021094 -38.095238
v 38.888888 0.021101 48.412698
v 38.095238 0.021095 -28.571427
v 38.095238 0.021096 -19.047617
v 38.095238 0.021096 -9.523807
v 38.095238 0.021097 0.000003
v 38.095238 0.021098 9.523813
v 38.095238 0.025308 16.66667
v 35.714287 0.340984 45.238094
v 40.476189 0.340982 21.428576
v 40.476189 0.340984 40.476189
v 35.714287 0.705759 21.428576
v 40.476189 0.705759 28.571427
v 38.095238 0.70576 38.09524
v 35.714287 1.299196 28.571427
v 35.714287 1.299197 35.714291
vt 1.000000 0.952381
vt 0.952381 1.000000
vt 0.952381 0.952381
vt 0.047619 0.952381
vt 0.000000 1.000000
vt 0.000000 0.952381
vt 0.095238 1.000000
vt 0.047619 1.000000
vt 0.142857 0.952381
vt 0.095238 0.952381
vt 0.190476 1.000000
vt 0.142857 1.000000
vt 0.190476 0.952381
vt 0.238095 1.000000
vt 0.238095 0.952381
vt 0.285714 1.000000
vt 0.285714 0.952381
vt 0.333333 1.000000
vt 0.380952 0.952381
vt 0.333333 0.952381
vt 0.428571 0.952381
vt 0.380952 1.000000
vt 0.476190 1.000000
vt 0.428571 1.000000
vt 0.476190 0.952381
vt 0.523810 1.000000
vt 0.571429 0.952381
vt 0.523810 0.952381
vt 0.619048 0.952381
vt 0.571429 1.000000
vt 0.666667 0.952381
vt 0.619048 1.000000
vt 0.714286 0.952381
vt 0.666667 1.000000
vt 0.761905 0.952381
vt 0.714286 1.000000
vt 0.809524 0.952381
vt 0.761905 1.000000
vt 0.857143 0.952381
vt 0.809524 1.000000
vt 0.904762 0.952381
vt 0.857143 1.000000
vt 0.904762 1.000000
vt 0.047619 0.000000
vt 0.000000 0.047619
vt 0.000000 0.000000
vt 0.047619 0.095238
vt 0.000000 0.095238
vt 0.047619 0.142857
vt 0.000000 0.142857
vt 0.000000 0.190476
vt 0.047619 0.238095
vt 0.000000 0.238095
vt 0.047619 0.285714
vt 0.000000 0.285714
vt 0.047619 0.333333
vt 0.000000 0.333333
vt 0.047619 0.380952
vt 0.000000 0.380952
vt 0.000000 0.428571
vt 0.047619 0.476190
vt 0.000000 0.476190
vt 0.047619 0.523810
vt 0.000000 0.523810
vt 0.047619 0.571429
vt 0.000000 0.571429
vt 0.047619 0.619048
vt 0.000000 0.619048
vt 0.047619 0.666667
vt 0.000000 0.666667
vt 0.047619 0.714286
vt 0.000000 0.714286
vt 0.047619 0.761905
vt 0.000000 0.761905
vt 0.000000 0.809524
vt 0.047619 0.809524
vt 0.000000 0.857143
vt 0.047619 0.904762
vt 0.000000 0.904762
vt 0.095238 0.000000
vt 0.047619 0.047619
vt 0.095238 0.047619
vt 0.095238 0.095238
vt 0.095238 0.142857
vt 0.047619 0.190476
vt 0.095238 0.190476
vt 0.095238 0.285714
vt 0.095238 0.333333
vt 0.095238 0.380952
vt 0.047619 0.428571
vt 0.095238 0.428571
vt 0.095238 0.523810
vt 0.095238 0.571429
vt 0.095238 0.666667
vt 0.095238 0.714286
vt 0.095238 0.761905
vt 0.095238 0.809524
vt 0.047619 0.857143
vt 0.095238 0.904762
vt 0.142857 0.000000
vt 0.142857 0.047619
vt 0.142857 0.095238
vt 0.142857 0.142857
vt 0.142857 0.190476
vt 0.095238 0.238095
vt 0.142857 0.285714
vt 0.142857 0.333333
vt 0.142857 0.380952
vt 0.142857 0.428571
vt 0.095238 0.476190
vt 0.142857 0.523810
vt 0.142857 0.571429
vt 0.142857 0.619048
vt 0.095238 0.619048
vt 0.142857 0.666667
vt 0.142857 0.714286
vt 0.142857 0.761905
vt 0.142857 0.857143
vt 0.095238 0.857143
vt 0.142857 0.904762
vt 0.190476 0.000000
vt 0.190476 0.047619
vt 0.190476 0.095238
vt 0.190476 0.142857
vt 0.190476 0.190476
vt 0.142857 0.238095
vt 0.190476 0.285714
vt 0.190476 0.333333
vt 0.190476 0.380952
vt 0.190476 0.428571
vt 0.142857 0.476190
vt 0.190476 0.523810
vt 0.190476 0.571429
vt 0.190476 0.619048
vt 0.190476 0.666667
vt 0.190476 0.714286
vt 0.190476 0.809524
vt 0.142857 0.809524
vt 0.190476 0.857143
vt 0.238095 0.047619
vt 0.238095 0.095238
vt 0.238095 0.142857
vt 0.238095 0.190476
vt 0.238095 0.238095
vt 0.190476 0.238095
vt 0.238095 0.285714
vt 0.238095 0.380952
vt 0.238095 0.428571
vt 0.238095 0.476190
vt 0.190476 0.476190
vt 0.238095 0.523810
vt 0.238095 0.571429
vt 0.238095 0.666667
vt 0.238095 0.714286
vt 0.190476 0.761905
vt 0.238095 0.761905
vt 0.238095 0.809524
vt 0.238095 0.857143
vt 0.190476 0.904762
vt 0.285714 0.000000
vt 0.238095 0.000000
vt 0.285714 0.095238
vt 0.285714 0.142857
vt 0.285714 0.190476
vt 0.285714 0.238095
vt 0.285714 0.285714
vt 0.238095 0.333333
vt 0.285714 0.333333
vt 0.285714 0.380952
vt 0.285714 0.476190
vt 0.285714 0.523810
vt 0.285714 0.619048
vt 0.238095 0.619048
vt 0.285714 0.666667
vt 0.285714 0.761905
vt 0.285714 0.857143
vt 0.285714 0.904762
vt 0.238095 0.904762
vt 0.333333 0.000000
vt 0.285714 0.047619
vt 0.333333 0.047619
vt 0.333333 0.142857
vt 0.333333 0.190476
vt 0.333333 0.238095
vt 0.333333 0.285714
vt 0.333333 0.333333
vt 0.333333 0.380952
vt 0.285714 0.428571
vt 0.333333 0.476190
vt 0.333333 0.523810
vt 0.333333 0.571429
vt 0.285714 0.571429
vt 0.333333 0.619048
vt 0.333333 0.666667
vt 0.285714 0.714286
vt 0.333333 0.714286
vt 0.333333 0.761905
vt 0.285714 0.809524
vt 0.333333 0.857143
vt 0.333333 0.904762
vt 0.380952 0.000000
vt 0.380952 0.047619
vt 0.333333 0.095238
vt 0.380952 0.095238
vt 0.380952 0.190476
vt 0.380952 0.238095
vt 0.380952 0.285714
vt 0.380952 0.333333
vt 0.380952 0.380952
vt 0.333333 0.428571
vt 0.380952 0.428571
vt 0.380952 0.523810
vt 0.380952 0.619048
vt 0.380952 0.666667
vt 0.380952 0.714286
vt 0.380952 0.761905
vt 0.380952 0.809524
vt 0.333333 0.809524
vt 0.380952 0.857143
vt 0.380952 0.904762
vt 0.428571 0.000000
vt 0.428571 0.047619
vt 0.428571 0.142857
vt 0.380952 0.142857
vt 0.428571 0.190476
vt 0.428571 0.238095
vt 0.428571 0.285714
vt 0.428571 0.333333
vt 0.428571 0.380952
vt 0.428571 0.428571
vt 0.380952 0.476190
vt 0.428571 0.476190
vt 0.428571 0.523810
vt 0.380952 0.571429
vt 0.428571 0.571429
vt 0.428571 0.666667
vt 0.428571 0.714286
vt 0.428571 0.761905
vt 0.428571 0.809524
vt 0.428571 0.857143
vt 0.428571 0.904762
vt 0.476190 0.000000
vt 0.476191 0.047619
vt 0.428571 0.095238
vt 0.476191 0.095238
vt 0.476190 0.190476
vt 0.476190 0.238095
vt 0.476190 0.285714
vt 0.476190 0.333333
vt 0.476190 0.380952
vt 0.476190 0.428571
vt 0.476190 0.476190
vt 0.476190 0.523810
vt 0.476190 0.571429
vt 0.428571 0.619048
vt 0.476190 0.619048
vt 0.476190 0.714286
vt 0.476190 0.761905
vt 0.476190 0.809524
vt 0.476190 0.857143
vt 0.523810 0.000000
vt 0.523810 0.047619
vt 0.523810 0.095238
vt 0.476191 0.142857
vt 0.523810 0.142857
vt 0.523810 0.238095
vt 0.523810 0.285714
vt 0.523810 0.333333
vt 0.523810 0.380952
vt 0.523810 0.428571
vt 0.523810 0.476190
vt 0.523810 0.523810
vt 0.523810 0.571429
vt 0.523810 0.619048
vt 0.476190 0.666667
vt 0.523810 0.666667
vt 0.523810 0.714286
vt 0.523810 0.809524
vt 0.523810 0.857143
vt 0.523810 0.904762
vt 0.476190 0.904762
vt 0.571429 0.000000
vt 0.571429 0.047619
vt 0.571429 0.095238
vt 0.571429 0.142857
vt 0.523810 0.190476
vt 0.571429 0.238095
vt 0.571429 0.285714
vt 0.571429 0.333333
vt 0.571429 0.380952
vt 0.571429 0.428571
vt 0.571429 0.476190
vt 0.571429 0.523810
vt 0.571429 0.571429
vt 0.571429 0.619048
vt 0.571429 0.666667
vt 0.571429 0.761905
vt 0.523810 0.761905
vt 0.571429 0.809524
vt 0.571429 0.857143
vt 0.571429 0.904762
vt 0.619048 0.000000
vt 0.619048 0.047619
vt 0.619048 0.095238
vt 0.619048 0.142857
vt 0.571429 0.190476
vt 0.619048 0.238095
vt 0.619048 0.285714
vt 0.619048 0.333333
vt 0.619048 0.380952
vt 0.619048 0.428571
vt 0.619048 0.476190
vt 0.619048 0.523810
vt 0.619048 0.571429
vt 0.619048 0.619048
vt 0.619048 0.666667
vt 0.571429 0.714286
vt 0.619048 0.714286
vt 0.619048 0.761905
vt 0.619048 0.857143
vt 0.619048 0.904762
vt 0.666667 0.000000
vt 0.666667 0.047619
vt 0.666667 0.095238
vt 0.666667 0.142857
vt 0.619048 0.190476
vt 0.666667 0.238095
vt 0.666667 0.285714
vt 0.666667 0.333333
vt 0.666667 0.380952
vt 0.666667 0.428571
vt 0.666667 0.476190
vt 0.666667 0.523810
vt 0.666667 0.571429
vt 0.666667 0.619048
vt 0.666667 0.666667
vt 0.666667 0.714286
vt 0.666667 0.761905
vt 0.619048 0.809524
vt 0.666667 0.809524
vt 0.666667 0.904762
vt 0.714286 0.000000
vt 0.714286 0.047619
vt 0.714286 0.095238
vt 0.714286 0.142857
vt 0.666667 0.190476
vt 0.714286 0.238095
vt 0.714286 0.285714
vt 0.714286 0.333333
vt 0.714286 0.380952
vt 0.714286 0.428571
vt 0.714286 0.476190
vt 0.714286 0.523810
vt 0.714286 0.571429
vt 0.714286 0.619048
vt 0.714286 0.666667
vt 0.714286 0.714286
vt 0.714286 0.761905
vt 0.714286 0.809524
vt 0.666667 0.857143
vt 0.714286 0.857143
vt 0.714286 0.904762
vt 0.761905 0.000000
vt 0.761905 0.047619
vt 0.761905 0.095238
vt 0.761905 0.142857
vt 0.714286 0.190476
vt 0.761905 0.190476
vt 0.761905 0.238095
vt 0.761905 0.285714
vt 0.761905 0.333333
vt 0.761905 0.380952
vt 0.761905 0.428571
vt 0.761905 0.476190
vt 0.761905 0.523810
vt 0.761905 0.571429
vt 0.761905 0.619048
vt 0.761905 0.666667
vt 0.761905 0.714286
vt 0.761905 0.761905
vt 0.761905 0.809524
vt 0.761905 0.857143
vt 0.761905 0.904762
vt 0.809524 0.000000
vt 0.809524 0.047619
vt 0.809524 0.095238
vt 0.809524 0.142857
vt 0.809524 0.190476
vt 0.809524 0.238095
vt 0.809524 0.285714
vt 0.809524 0.333333
vt 0.809524 0.380952
vt 0.809524 0.428571
vt 0.809524 0.476190
vt 0.809524 0.523810
vt 0.809524 0.571429
vt 0.809524 0.619048
vt 0.809524 0.666667
vt 0.809524 0.714286
vt 0.809524 0.761905
vt 0.809524 0.809524
vt 0.809524 0.857143
vt 0.809524 0.904762
vt 0.857143 0.047619
vt 0.857143 0.095238
vt 0.857143 0.142857
vt 0.857143 0.190476
vt 0.857143 0.238095
vt 0.857143 0.285714
vt 0.857143 0.333333
vt 0.857143 0.380952
vt 0.857143 0.428571
vt 0.857143 0.476190
vt 0.857143 0.523810
vt 0.857143 0.571429
vt 0.857143 0.619048
vt 0.857143 0.666667
vt 0.857143 0.714286
vt 0.857143 0.761905
vt 0.857143 0.809524
vt 0.857143 0.857143
vt 0.857143 0.904762
vt 0.857143 0.000000
vt 0.904762 0.047619
vt 0.904762 0.095238
vt 0.904762 0.142857
vt 0.904762 0.190476
vt 0.904762 0.238095
vt 0.904762 0.285714
vt 0.904762 0.333333
vt 0.904762 0.380952
vt 0.904762 0.428571
vt 0.904762 0.476190
vt 0.904762 0.523810
vt 0.904762 0.571429
vt 0.904762 0.619048
vt 0.904762 0.666667
vt 0.904762 0.714286
vt 0.904762 0.761905
vt 0.904762 0.809524
vt 0.904762 0.857143
vt 0.904762 0.904762
vt 0.952381 0.000000
vt 0.904762 0.000000
vt 0.952381 0.095238
vt 0.952381 0.142857
vt 0.952381 0.190476
vt 0.952381 0.238095
vt 0.952381 0.285714
vt 0.952381 0.333333
vt 0.952381 0.380952
vt 0.952381 0.428571
vt 0.952381 0.476190
vt 0.952381 0.523810
vt 0.952381 0.571429
vt 0.952381 0.619048
vt 0.952381 0.666667
vt 0.952381 0.714286
vt 0.952381 0.761905
vt 0.952381 0.809524
vt 0.952381 0.857143
vt 0.952381 0.904762
vt 1.000000 0.000000
vt 0.952381 0.047619
vt 1.000000 0.047619
vt 1.000000 0.142857
vt 1.000000 0.190476
vt 1.000000 0.238095
vt 1.000000 0.285714
vt 1.000000 0.333333
vt 1.000000 0.380952
vt 1.000000 0.428571
vt 1.000000 0.476190
vt 1.000000 0.523810
vt 1.000000 0.571429
vt 1.000000 0.619048
vt 1.000000 0.666667
vt 1.000000 0.714286
vt 1.000000 0.761905
vt 1.000000 0.809524
vt 1.000000 0.857143
vt 1.000000 0.904762
vt 1.000000 1.000000
vt 1.000000 0.095238
vn -0.0000 1.0000 -0.0000
vn -0.0002 1.0000 -0.0002
vn -0.0000 1.0000 -0.0006
vn 0.0004 1.0000 -0.0004
vn -0.0000 1.0000 -0.0011
vn -0.0006 0.9997 -0.0232
vn -0.0002 0.9988 -0.0499
vn 0.0001 0.9988 -0.0494
vn 0.0006 0.9988 -0.0491
vn -0.0008 0.9987 -0.0507
vn -0.0007 0.9987 -0.0506
vn 0.0315 0.9978 -0.0585
vn 0.0268 0.9993 -0.0277
vn -0.0000 1.0000 -0.0009
vn -0.0008 0.9996 -0.0288
vn 0.0328 0.9976 -0.0608
vn 0.0288 0.9992 -0.0288
vn 0.0005 1.0000 -0.0005
vn -0.0034 1.0000 -0.0000
vn -0.0003 1.0000 0.0003
vn -0.0012 1.0000 0.0004
vn -0.0016 1.0000 -0.0000
vn -0.0005 1.0000 -0.0012
vn -0.0016 1.0000 -0.0008
vn -0.0016 1.0000 -0.0005
vn -0.0426 0.9991 0.0011
vn -0.0426 0.9991 -0.0011
vn -0.1297 0.9915 0.0034
vn -0.2665 0.9638 -0.0000
vn -0.2666 0.9638 -0.0000
vn -0.1297 0.9915 -0.0034
vn -0.0622 0.9981 0.0016
vn -0.1306 0.9914 -0.0000
vn -0.0622 0.9981 -0.0016
vn -0.0004 1.0000 -0.0004
vn -0.0013 1.0000 0.0013
vn -0.0017 0.9991 0.0426
vn -0.0490 0.9976 0.0485
vn -0.0485 0.9976 -0.0485
vn -0.0011 0.9991 -0.0426
vn -0.1286 0.9833 0.1286
vn -0.1460 0.9785 0.1460
vn -0.2596 0.9657 -0.0000
vn -0.2603 0.9655 -0.0000
vn -0.2389 0.9604 -0.1433
vn -0.0071 0.9915 -0.1297
vn -0.0071 0.9980 0.0622
vn -0.0707 0.9950 0.0707
vn -0.1148 0.9934 -0.0000
vn -0.1228 0.9899 -0.0703
vn -0.1524 0.9865 -0.0599
vn -0.0227 0.9997 -0.0000
vn -0.0227 0.9997 0.0009
vn -0.0227 0.9997 0.0017
vn -0.0653 0.9938 0.0895
vn 0.0604 0.9951 0.0783
vn 0.0604 0.9951 -0.0788
vn 0.0478 0.9948 -0.0897
vn -0.0034 0.9915 0.1297
vn -0.2288 0.9401 0.2527
vn -0.0297 0.9991 0.0310
vn -0.0941 0.9762 -0.1955
vn -0.1225 0.9301 -0.3463
vn -0.1296 0.9838 0.1242
vn -0.0378 0.9927 0.1148
vn -0.0008 0.9995 0.0312
vn -0.1833 0.9788 -0.0918
vn -0.1576 0.9870 -0.0299
vn -0.1156 0.9930 -0.0226
vn -0.0721 0.9949 -0.0707
vn -0.0610 0.9974 -0.0396
vn -0.0608 0.9974 -0.0395
vn -0.0620 0.9973 -0.0395
vn -0.0608 0.9972 0.0446
vn -0.0521 0.9980 0.0366
vn 0.0475 0.9989 0.0056
vn 0.0474 0.9967 -0.0662
vn 0.0475 0.9967 -0.0662
vn 0.0478 0.9967 -0.0662
vn -0.0232 0.9988 -0.0432
vn 0.0034 1.0000 0.0034
vn 0.1423 0.9540 0.2638
vn 0.2301 0.9456 0.2301
vn 0.0297 0.9980 0.0551
vn 0.0503 0.9974 0.0516
vn 0.0498 0.9871 -0.1524
vn 0.0909 0.9437 -0.3180
vn -0.0062 0.9995 0.0325
vn 0.1153 0.9903 0.0776
vn 0.1573 0.9854 0.0650
vn 0.0577 0.9967 0.0577
vn 0.0577 0.9967 -0.0577
vn 0.0355 0.9972 -0.0658
vn -0.0622 0.9915 -0.1140
vn -0.0367 0.9980 -0.0511
vn -0.0365 0.9930 0.1125
vn -0.0022 0.9992 -0.0406
vn 0.0185 0.9954 -0.0937
vn -0.0065 0.9999 -0.0120
vn -0.0068 0.9999 -0.0120
vn -0.0265 0.9993 -0.0269
vn 0.1286 0.9833 0.1286
vn 0.1284 0.9833 0.1286
vn 0.1460 0.9785 0.1460
vn 0.2423 0.9369 0.2518
vn 0.2578 0.9657 0.0299
vn 0.2532 0.9486 -0.1900
vn 0.1546 0.9774 -0.1444
vn 0.0889 0.9946 -0.0539
vn 0.1196 0.9919 -0.0439
vn 0.0934 0.9954 0.0226
vn 0.1773 0.9719 0.1552
vn 0.1793 0.9832 -0.0350
vn 0.0827 0.9966 -0.0002
vn 0.0825 0.9932 -0.0819
vn 0.0227 0.9968 -0.0770
vn 0.0226 0.9968 -0.0769
vn 0.0233 0.9967 0.0779
vn 0.0228 0.9967 0.0775
vn 0.0239 0.9966 0.0785
vn 0.0239 0.9978 -0.0613
vn -0.0742 0.9949 -0.0687
vn -0.0139 0.9996 0.0244
vn -0.0010 0.9991 -0.0433
vn -0.0000 1.0000 0.0002
vn 0.1279 0.9834 0.1287
vn 0.1830 0.9709 0.1547
vn 0.1217 0.9923 0.0225
vn 0.1212 0.9885 -0.0905
vn 0.0668 0.9947 -0.0784
vn 0.0777 0.9934 -0.0849
vn 0.0561 0.9969 -0.0552
vn 0.0621 0.9962 0.0604
vn 0.1303 0.9890 0.0703
vn 0.1306 0.9914 0.0001
vn 0.1313 0.9913 0.0008
vn 0.1314 0.9913 0.0008
vn 0.1618 0.9849 0.0618
vn 0.1079 0.9939 -0.0220
vn 0.1076 0.9912 -0.0767
vn 0.0525 0.9956 0.0773
vn -0.0746 0.9951 0.0656
vn -0.1040 0.9899 -0.0968
vn -0.1041 0.9898 -0.0968
vn -0.1025 0.9900 -0.0969
vn -0.0072 0.9993 -0.0363
vn -0.0079 0.9984 -0.0554
vn -0.0071 0.9985 -0.0549
vn -0.0086 0.9984 -0.0562
vn 0.0002 1.0000 0.0007
vn -0.0000 1.0000 0.0008
vn 0.0229 0.9947 0.1004
vn 0.0359 0.9955 0.0881
vn 0.0361 0.9987 -0.0361
vn 0.0200 0.9958 -0.0896
vn -0.0000 0.9981 -0.0615
vn 0.0018 0.9980 -0.0633
vn -0.0000 1.0000 -0.0007
vn 0.0014 1.0000 -0.0007
vn 0.0004 1.0000 -0.0000
vn 0.0007 1.0000 0.0003
vn 0.0016 1.0000 0.0005
vn 0.0016 1.0000 0.0008
vn 0.0016 1.0000 -0.0000
vn 0.0326 0.9990 0.0309
vn 0.0653 0.9973 0.0336
vn 0.0195 0.9996 -0.0215
vn 0.0852 0.9760 0.2004
vn 0.1618 0.9725 0.1677
vn 0.1617 0.9722 -0.1692
vn 0.0693 0.9887 -0.1328
vn 0.0228 0.9982 -0.0547
vn 0.0002 1.0000 0.0002
vn 0.0004 1.0000 0.0008
vn 0.0494 0.9958 0.0776
vn 0.0908 0.9930 0.0749
vn 0.0911 0.9956 -0.0200
vn 0.0713 0.9949 -0.0713
vn 0.0332 0.9976 -0.0615
vn 0.0005 1.0000 0.0002
vn 0.0009 1.0000 0.0009
vn 0.0142 0.9996 0.0244
vn 0.1341 0.9817 0.1351
vn 0.1660 0.9819 0.0916
vn 0.1662 0.9831 -0.0764
vn 0.0469 0.9951 -0.0866
vn 0.0202 0.9978 -0.0635
vn 0.0291 0.9992 0.0291
vn 0.0618 0.9975 0.0335
vn 0.0617 0.9981 -0.0001
vn 0.0617 0.9981 -0.0002
vn 0.0618 0.9981 -0.0003
vn 0.0615 0.9976 -0.0332
vn 0.0291 0.9992 -0.0291
vn 0.0110 0.9999 0.0110
vn 0.0261 0.9995 0.0152
vn 0.0540 0.9967 0.0607
vn 0.0540 0.9967 0.0609
vn 0.0540 0.9966 0.0627
vn 0.0351 0.9984 0.0442
vn 0.0351 0.9976 -0.0601
vn -0.0279 0.9972 -0.0700
vn 0.0001 1.0000 0.0010
vn -0.0009 1.0000 -0.0000
vn 0.0007 1.0000 0.0002
vn 0.0008 1.0000 0.0004
vn 0.0007 1.0000 -0.0000
vn -0.0000 1.0000 -0.0004
vn -0.0000 1.0000 0.0003
vn 0.0321 0.9989 0.0328
vn 0.0327 0.9975 0.0623
vn 0.0324 0.9975 0.0625
vn 0.0334 0.9974 0.0631
vn -0.0220 0.9998 -0.0026
vn -0.0217 0.9998 -0.0026
vn -0.0328 0.9974 -0.0645
vn -0.0011 1.0000 0.0011
vn -0.0017 1.0000 -0.0000
vn -0.0018 1.0000 -0.0000
vn -0.0017 1.0000 -0.0006
vn 0.0006 1.0000 0.0004
vn 0.0001 1.0000 0.0008
vn 0.0334 0.9975 0.0616
vn 0.0337 0.9975 0.0616
vn 0.0533 0.9972 0.0525
vn 0.0533 0.9972 -0.0533
vn -0.0670 0.9977 0.0018
vn -0.1406 0.9901 -0.0000
vn -0.0670 0.9977 -0.0018
vn 0.0288 0.9992 0.0288
vn 0.0608 0.9976 0.0328
vn 0.0608 0.9976 -0.0328
vn -0.0018 0.9977 0.0670
vn -0.0762 0.9942 0.0762
vn -0.1237 0.9923 -0.0000
vn -0.0762 0.9942 -0.0762
vn -0.0669 0.9955 -0.0669
vn 0.0008 1.0000 -0.0000
vn -0.0000 0.9901 0.1406
vn -0.0000 0.9923 0.1237
vn -0.1227 0.9848 -0.1227
vn -0.0018 0.9977 -0.0670
vn -0.0006 1.0000 -0.0017
vn -0.0000 0.9923 -0.1237
vn -0.0000 0.9901 -0.1406
vn -0.0000 1.0000 -0.0018
vn -0.0009 1.0000 -0.0018
vn 0.0756 0.9872 0.1402
vn 0.1227 0.9848 0.1227
vn -0.0000 1.0000 -0.0017
vn 0.0010 1.0000 0.0001
vn 0.0669 0.9955 0.0669
vn 0.0762 0.9942 0.0762
vn 0.1237 0.9923 -0.0000
vn 0.1227 0.9848 -0.1227
vn 0.0756 0.9872 -0.1402
vn 0.0011 1.0000 -0.0011
vn 0.1402 0.9872 0.0756
vn 0.1406 0.9901 -0.0000
vn 0.1402 0.9872 -0.0756
vn 0.0669 0.9955 -0.0669
vn 0.0004 1.0000 0.0004
vn 0.0013 1.0000 0.0004
vn 0.0018 1.0000 0.0009
vn 0.0018 1.0000 -0.0000
vn 0.0017 1.0000 -0.0000
vn 0.0005 1.0000 -0.0013
vn -0.0232 0.9995 -0.0232
vn -0.0265 0.9984 -0.0490
vn -0.0086 0.9983 -0.0585
vn 0.0007 0.9996 -0.0277
vn -0.0279 0.9992 -0.0288
vn -0.0328 0.9976 -0.0608
vn 0.0008 0.9996 -0.0288
vn -0.0016 1.0000 0.0008
vn -0.0426 0.9982 0.0426
vn -0.0897 0.9948 0.0484
vn -0.0897 0.9948 -0.0484
vn -0.0426 0.9982 -0.0426
vn -0.1286 0.9833 -0.1286
vn -0.0621 0.9961 0.0621
vn -0.1303 0.9890 0.0703
vn -0.0017 1.0000 0.0017
vn -0.0489 0.9948 0.0896
vn -0.0787 0.9938 0.0782
vn -0.0787 0.9938 -0.0787
vn -0.0484 0.9948 -0.0897
vn -0.2270 0.9127 -0.3399
vn -0.0703 0.9897 0.1249
vn -0.1141 0.9869 0.1141
vn -0.1303 0.9890 -0.0703
vn -0.0621 0.9973 -0.0395
vn -0.0655 0.9969 0.0446
vn -0.0123 0.9993 0.0367
vn -0.0123 0.9999 0.0056
vn 0.0479 0.9967 -0.0662
vn 0.0011 0.9991 -0.0432
vn -0.0034 1.0000 0.0034
vn -0.1423 0.9540 0.2638
vn -0.0297 0.9980 0.0551
vn -0.0503 0.9974 0.0516
vn -0.0498 0.9871 -0.1524
vn -0.0909 0.9437 -0.3180
vn -0.0380 0.9988 0.0325
vn -0.0008 0.9969 0.0781
vn -0.0355 0.9972 0.0658
vn -0.0355 0.9977 0.0578
vn -0.1149 0.9869 -0.1135
vn -0.0722 0.9961 -0.0510
vn -0.1276 0.9855 0.1117
vn -0.1283 0.9909 -0.0402
vn -0.0519 0.9943 -0.0936
vn -0.0069 0.9999 -0.0120
vn -0.0069 0.9996 -0.0269
vn 0.0034 0.9915 0.1297
vn 0.2288 0.9401 0.2527
vn 0.0297 0.9991 0.0310
vn 0.0941 0.9762 -0.1955
vn -0.0915 0.9851 -0.1455
vn -0.0924 0.9943 -0.0539
vn -0.0062 0.9990 -0.0442
vn 0.1156 0.9930 0.0226
vn 0.1558 0.9754 0.1558
vn 0.0356 0.9987 -0.0356
vn -0.0301 0.9995 -0.0002
vn -0.0300 0.9962 -0.0822
vn -0.0624 0.9951 -0.0767
vn -0.0022 0.9969 0.0785
vn 0.0186 0.9979 -0.0613
vn -0.0065 0.9976 -0.0689
vn -0.0428 0.9988 0.0243
vn -0.0428 0.9981 -0.0432
vn 0.1457 0.9770 0.1557
vn 0.2503 0.9679 0.0219
vn 0.1556 0.9837 -0.0901
vn 0.0887 0.9930 -0.0783
vn 0.1193 0.9893 -0.0845
vn 0.1304 0.9899 -0.0548
vn 0.1304 0.9896 0.0600
vn 0.0932 0.9931 0.0706
vn 0.1445 0.9895 0.0008
vn 0.1442 0.9876 0.0620
vn 0.0226 0.9995 -0.0221
vn 0.0228 0.9968 -0.0771
vn 0.0228 0.9967 0.0774
vn -0.1026 0.9926 0.0654
vn -0.0743 0.9966 -0.0362
vn -0.0139 0.9983 -0.0562
vn 0.1283 0.9867 0.0996
vn 0.1845 0.9790 0.0867
vn 0.0670 0.9971 -0.0360
vn 0.0777 0.9930 -0.0893
vn 0.0560 0.9964 -0.0632
vn 0.0016 1.0000 -0.0004
vn 0.0622 0.9981 0.0016
vn 0.1306 0.9914 -0.0000
vn 0.1313 0.9909 0.0307
vn 0.1620 0.9862 0.0332
vn 0.0526 0.9984 -0.0215
vn -0.0732 0.9769 0.2006
vn -0.1760 0.9701 0.1672
vn -0.1037 0.9858 -0.1324
vn -0.0072 0.9985 -0.0548
vn -0.0000 0.9970 0.0777
vn 0.0229 0.9969 0.0752
vn 0.0201 0.9996 -0.0201
vn 0.0018 0.9974 -0.0715
vn 0.0326 0.9995 0.0009
vn 0.0653 0.9976 0.0243
vn 0.0194 0.9905 0.1363
vn 0.0866 0.9919 0.0926
vn 0.0697 0.9946 -0.0773
vn 0.0227 0.9960 -0.0867
vn 0.0315 0.9975 -0.0635
vn 0.0008 0.9996 0.0291
vn 0.0495 0.9982 0.0335
vn 0.0715 0.9974 -0.0003
vn 0.0332 0.9989 -0.0332
vn 0.0008 0.9996 -0.0291
vn 0.0009 0.9999 0.0110
vn 0.0142 0.9998 0.0152
vn 0.1351 0.9890 0.0602
vn 0.0470 0.9979 0.0441
vn 0.0202 0.9980 -0.0601
vn 0.0268 0.9972 -0.0700
vn 0.0291 0.9996 0.0008
vn 0.0615 0.9981 -0.0000
vn 0.0291 0.9996 -0.0008
vn 0.0110 0.9999 -0.0000
vn 0.0261 0.9991 0.0328
vn 0.0540 0.9966 0.0630
vn -0.0224 0.9997 -0.0026
vn -0.0223 0.9977 -0.0645
vn 0.0335 0.9981 0.0525
vn -0.0217 0.9983 -0.0534
vn -0.0018 1.0000 -0.0009
vn 0.0008 0.9996 0.0288
vn 0.0337 0.9989 0.0328
vn 0.0328 0.9989 -0.0328
vn -0.0669 0.9955 0.0669
vn -0.1402 0.9872 0.0756
vn -0.1402 0.9872 -0.0756
vn 0.0288 0.9996 0.0008
vn 0.0288 0.9996 -0.0008
vn -0.0756 0.9872 0.1402
vn -0.1227 0.9848 0.1227
vn -0.0756 0.9872 -0.1402
vn 0.0018 0.9977 0.0670
vn 0.0762 0.9942 -0.0762
vn 0.0018 0.9977 -0.0670
vn 0.0670 0.9977 0.0018
vn 0.0670 0.9977 -0.0018
vn -0.0034 1.0000 -0.0034
vn -0.2638 0.9540 0.1423
vn -0.2638 0.9540 -0.1423
vn -0.0621 0.9962 -0.0604
vn -0.2513 0.9347 0.2513
vn -0.2870 0.9575 0.0297
vn -0.2820 0.9407 -0.1884
vn -0.1452 0.9889 0.0309
vn -0.1446 0.9852 -0.0924
vn -0.1231 0.9919 -0.0301
vn -0.1526 0.9880 -0.0225
vn -0.2301 0.9456 0.2301
vn -0.1838 0.9813 -0.0568
vn -0.1573 0.9854 -0.0650
vn -0.1024 0.9900 -0.0968
vn -0.1759 0.9698 -0.1688
o Plane
s 1
usemtl Material.001
f 104/19/12 77/18/12 84/20/12
f 137/27/16 124/26/16 134/28/16
f 15/82/1 11/47/1 3/81/1
f 32/84/28 10/85/28 11/49/28
f 10/52/31 31/87/31 9/54/31
f 19/88/1 8/58/20 9/56/1
f 30/91/33 7/61/33 8/90/33
f 7/63/24 18/93/22 6/65/1
f 6/67/25 17/94/35 5/69/1
f 17/95/36 4/73/20 5/71/1
f 22/97/38 12/98/38 4/76/38
f 12/98/39 21/99/39 2/78/39
f 2/78/40 13/10/40 1/4/40
f 37/103/42 36/86/42 32/84/42
f 36/105/45 38/106/45 31/87/45
f 35/109/49 29/110/49 30/91/49
f 29/110/50 33/111/50 24/92/50
f 24/92/51 28/112/51 18/93/51
f 18/114/34 23/115/34 17/94/34
f 22/97/56 21/118/56 27/119/56
f 14/120/58 13/10/58 21/99/58
f 53/122/59 32/102/59 15/101/59
f 69/123/42 37/103/42 32/102/42
f 76/124/60 39/104/60 37/103/60
f 56/125/61 26/126/61 39/104/61
f 26/126/62 74/127/62 38/106/62
f 38/106/63 61/128/63 19/107/63
f 61/128/64 30/108/64 19/107/64
f 60/129/65 35/109/65 30/108/65
f 67/130/66 34/131/66 35/109/66
f 34/131/67 72/132/67 33/111/67
f 33/111/68 70/133/68 28/112/68
f 28/113/70 58/135/70 23/115/70
f 23/115/71 55/136/72 17/116/73
f 55/136/74 22/117/74 17/116/74
f 22/138/76 54/139/76 21/118/76
f 54/139/77 14/120/78 21/118/79
f 14/120/80 51/13/80 13/9/80
f 53/122/82 62/141/82 69/123/82
f 76/124/84 75/143/84 56/125/84
f 73/146/87 61/128/87 74/127/87
f 61/128/88 65/147/88 60/129/88
f 67/130/90 59/149/90 71/150/90
f 71/151/92 70/133/92 72/132/92
f 66/134/94 64/153/94 58/135/94
f 58/154/96 63/155/96 55/136/96
f 53/140/102 83/162/103 62/141/102
f 62/141/104 94/163/104 69/142/104
f 69/142/105 102/164/105 75/143/105
f 75/143/106 102/165/106 56/144/106
f 102/165/107 73/146/107 56/144/107
f 98/166/108 68/167/108 73/146/108
f 93/168/109 65/147/109 68/167/109
f 82/169/110 60/148/110 65/147/110
f 60/148/111 87/170/111 59/149/111
f 59/149/112 92/171/112 71/151/112
f 92/171/113 66/152/113 71/151/113
f 97/172/115 64/153/115 66/173/115
f 96/174/116 58/154/116 64/153/117
f 58/154/118 95/175/119 63/156/120
f 95/175/121 57/157/121 63/156/121
f 57/157/122 90/176/122 54/158/122
f 54/178/124 77/17/124 51/15/124
f 94/163/127 89/183/127 102/164/127
f 99/184/129 98/166/129 102/165/129
f 88/186/131 82/169/131 93/168/131
f 82/188/133 81/189/133 87/170/133
f 87/170/134 81/190/134 92/171/134
f 92/171/135 80/191/136 91/192/137
f 91/192/138 80/193/138 97/172/138
f 97/172/139 86/194/139 96/174/139
f 79/196/141 95/175/141 86/195/141
f 101/198/143 100/199/144 90/176/145
f 85/177/147 84/20/148 77/17/149
f 105/202/1 83/203/1 78/181/1
f 83/182/152 117/205/152 89/183/152
f 89/183/153 121/206/153 99/184/153
f 121/206/154 93/185/154 99/184/154
f 120/207/155 88/186/155 93/185/155
f 116/208/156 82/187/157 88/186/157
f 110/211/160 81/189/161 82/210/158
f 109/212/162 80/191/164 81/190/163
f 80/193/166 107/214/166 86/194/166
f 86/194/167 107/215/167 79/196/167
f 79/196/168 119/216/168 101/197/168
f 101/197/169 123/217/169 103/218/169
f 123/217/170 100/199/170 103/218/170
f 122/219/171 85/200/171 100/199/171
f 114/220/172 84/20/172 85/200/172
f 113/224/175 112/225/175 117/205/175
f 117/226/177 120/207/177 121/206/177
f 111/228/179 110/209/179 116/208/179
f 107/215/183 106/238/183 119/216/183
f 119/216/184 115/239/184 123/217/184
f 115/239/185 122/219/185 123/217/185
f 118/240/186 114/220/186 122/219/186
f 125/243/1 113/244/1 105/222/1
f 113/223/188 132/246/188 112/225/188
f 112/225/189 132/247/189 117/226/189
f 132/247/190 116/227/191 117/226/192
f 131/248/193 111/228/193 116/227/193
f 131/249/194 110/229/194 111/228/194
f 130/251/1 109/232/1 110/230/1
f 129/253/1 108/235/1 109/233/1
f 128/256/1 107/236/173 108/255/1
f 107/237/196 126/258/196 106/238/196
f 106/238/197 126/259/198 115/239/199
f 115/239/200 135/260/200 118/240/200
f 135/260/201 114/241/201 118/240/201
f 114/241/202 124/25/202 104/21/202
f 135/281/216 134/28/216 124/25/216
f 139/283/217 133/263/203 125/262/1
f 147/285/219 132/286/220 133/265/204
f 146/287/35 131/267/208 132/266/205
f 145/289/1 130/269/1 131/268/1
f 144/291/1 129/271/1 130/270/1
f 143/293/1 128/273/1 129/272/1
f 142/295/1 127/276/1 128/274/1
f 127/277/1 140/297/1 126/298/221
f 126/278/223 138/300/224 135/279/212
f 135/279/225 148/301/225 136/280/225
f 148/301/226 134/28/226 136/280/226
f 149/303/227 147/284/227 139/283/227
f 152/305/228 146/306/228 147/285/228
f 138/321/232 137/27/232 148/301/232
f 155/322/233 149/303/233 139/302/233
f 163/323/234 152/304/234 149/303/234
f 167/325/235 151/326/235 152/305/235
f 151/326/236 165/327/236 150/307/236
f 150/307/237 162/328/237 145/308/237
f 161/329/35 144/310/1 145/309/1
f 160/331/1 143/312/1 144/311/1
f 159/333/1 142/314/1 143/313/1
f 158/335/1 141/316/1 142/315/1
f 157/337/1 140/319/1 141/318/1
f 156/340/1 138/320/173 140/339/1
f 154/341/207 137/29/18 138/321/238
f 165/327/236 164/348/236 162/328/236
f 170/363/239 163/343/239 155/342/239
f 177/364/240 167/344/240 163/343/240
f 180/366/1 166/367/1 167/345/1
f 179/369/244 164/348/244 166/347/244
f 178/370/245 161/349/245 164/348/245
f 176/371/246 160/350/243 161/349/247
f 175/373/1 159/352/1 160/351/1
f 174/375/1 158/354/1 159/353/1
f 173/377/1 157/356/1 158/355/1
f 172/379/1 156/358/1 157/357/1
f 171/381/1 154/361/1 156/359/1
f 169/383/1 153/33/1 154/362/1
f 170/384/248 190/404/248 177/385/248
f 177/385/249 195/405/249 180/386/249
f 197/406/1 179/388/1 180/387/1
f 196/408/244 178/390/244 179/389/244
f 193/409/245 176/391/245 178/390/245
f 189/410/250 175/392/14 176/391/246
f 188/412/1 174/394/1 175/393/1
f 187/414/1 173/396/1 174/395/1
f 186/416/1 172/398/1 173/397/1
f 185/418/1 171/400/1 172/399/1
f 184/420/1 169/402/1 171/401/1
f 182/422/1 168/37/1 169/403/1
f 190/404/253 192/425/253 195/405/253
f 195/426/254 196/407/254 197/406/254
f 194/428/255 193/409/255 196/408/255
f 191/429/256 189/410/256 193/409/256
f 183/424/252 50/445/252 192/425/252
f 192/425/258 50/446/258 195/426/258
f 50/446/259 194/427/259 195/426/259
f 49/448/260 191/429/260 194/428/260
f 48/449/261 189/430/261 191/429/261
f 48/450/1 188/431/1 189/430/257
f 47/452/1 187/433/1 188/432/1
f 46/454/1 186/435/1 187/434/1
f 45/456/1 185/437/1 186/436/1
f 44/458/1 184/439/1 185/438/1
f 43/460/1 182/441/1 184/440/1
f 41/462/1 181/41/1 182/442/1
f 4/76/277 12/98/277 2/77/277
f 15/82/1 20/83/1 11/47/1
f 9/54/280 31/87/280 19/88/280
f 19/88/281 25/89/281 8/58/281
f 25/89/282 30/91/282 8/90/282
f 6/67/25 18/114/24 17/94/35
f 17/95/36 16/96/283 4/73/20
f 16/96/284 22/97/284 4/76/284
f 22/97/285 27/119/285 12/98/285
f 12/98/286 27/119/286 21/99/286
f 2/78/287 21/99/287 13/10/287
f 15/101/41 32/102/41 20/83/41
f 31/87/288 38/106/288 19/107/288
f 19/107/289 30/108/289 25/89/289
f 18/114/291 28/113/291 23/115/291
f 17/116/293 22/117/293 16/96/293
f 53/122/299 69/123/299 32/102/299
f 76/124/300 56/125/300 39/104/300
f 26/126/302 56/145/302 74/127/302
f 38/106/303 74/127/303 61/128/303
f 61/128/304 60/129/304 30/108/304
f 60/129/305 67/130/305 35/109/305
f 67/130/306 71/150/306 34/131/306
f 34/131/307 71/150/307 72/132/307
f 28/113/308 66/134/308 58/135/308
f 23/115/309 58/135/309 55/136/309
f 55/136/310 63/155/310 22/117/310
f 22/117/311 63/155/311 57/137/311
f 22/138/312 57/137/312 54/139/312
f 54/139/100 52/159/99 14/120/313
f 14/120/314 52/159/314 51/13/314
f 76/124/316 69/142/316 75/143/316
f 56/144/318 73/146/318 74/127/318
f 73/146/319 68/167/319 61/128/319
f 61/128/320 68/167/320 65/147/320
f 67/130/322 60/148/322 59/149/322
f 71/151/324 66/152/324 70/133/324
f 52/159/332 54/178/332 51/15/332
f 53/140/1 78/180/1 83/162/125
f 62/141/102 83/162/103 94/163/102
f 69/142/333 94/163/333 102/164/333
f 102/165/335 98/166/335 73/146/335
f 98/166/336 93/168/336 68/167/336
f 93/168/337 82/169/337 65/147/337
f 60/148/339 82/188/339 87/170/339
f 59/149/340 87/170/340 92/171/340
f 92/171/341 91/192/341 66/152/341
f 66/152/342 91/192/342 97/172/342
f 97/172/343 96/174/343 64/153/343
f 96/174/116 86/195/344 58/154/116
f 58/154/118 86/195/345 95/175/119
f 95/175/346 101/198/346 57/157/346
f 54/158/347 90/176/347 85/177/347
f 54/178/348 85/177/348 77/17/348
f 94/163/349 83/182/349 89/183/349
f 102/164/350 89/183/350 99/184/350
f 99/184/351 93/185/351 98/166/351
f 92/171/135 81/190/356 80/191/136
f 97/172/358 80/193/358 86/194/358
f 79/196/360 101/197/360 95/175/360
f 90/176/362 100/199/362 85/200/362
f 105/202/1 113/204/150 83/203/1
f 83/182/364 113/224/364 117/205/364
f 89/183/365 117/205/365 121/206/365
f 121/206/366 120/207/366 93/185/366
f 120/207/367 116/208/367 88/186/367
f 116/208/156 110/209/156 82/187/157
f 110/211/160 109/231/1 81/189/161
f 109/212/162 108/234/1 80/191/164
f 80/193/368 108/213/368 107/214/368
f 79/196/370 107/215/370 119/216/370
f 101/197/371 119/216/371 123/217/371
f 123/217/372 122/219/372 100/199/372
f 122/219/373 114/220/373 85/200/373
f 114/220/374 104/19/374 84/20/374
f 117/226/377 116/227/377 120/207/377
f 119/216/382 106/238/382 115/239/382
f 115/239/383 118/240/383 122/219/383
f 125/243/1 133/245/1 113/244/1
f 113/223/173 133/264/1 132/246/173
f 132/247/190 131/248/387 116/227/191
f 131/249/18 130/250/1 110/229/18
f 130/251/1 129/252/1 109/232/1
f 129/253/1 128/254/1 108/235/1
f 128/256/1 127/275/1 107/236/173
f 107/237/389 127/257/389 126/258/389
f 115/239/199 126/259/198 135/260/391
f 114/241/393 135/281/393 124/25/393
f 135/281/395 136/280/395 134/28/395
f 139/283/217 147/284/218 133/263/203
f 147/285/219 146/306/396 132/286/220
f 146/287/35 145/288/1 131/267/208
f 145/289/1 144/290/1 130/269/1
f 144/291/1 143/292/1 129/271/1
f 143/293/1 142/294/1 128/273/1
f 142/295/1 141/296/1 127/276/1
f 127/277/1 141/317/1 140/297/1
f 126/278/397 140/299/397 138/300/397
f 135/279/398 138/300/398 148/301/398
f 148/301/399 137/27/399 134/28/399
f 149/303/401 152/304/401 147/284/401
f 146/306/402 151/326/402 150/307/402
f 146/287/237 150/307/237 145/308/237
f 155/322/405 163/323/405 149/303/405
f 163/323/406 167/324/406 152/304/406
f 167/325/235 166/346/235 151/326/235
f 151/326/241 166/346/241 165/327/241
f 150/307/236 165/327/236 162/328/236
f 145/308/237 162/328/237 161/329/237
f 161/329/35 160/330/1 144/310/1
f 160/331/1 159/332/1 143/312/1
f 159/333/1 158/334/1 142/314/1
f 158/335/1 157/336/1 141/316/1
f 157/337/1 156/338/1 140/319/1
f 156/340/1 154/360/1 138/320/173
f 154/341/207 153/31/1 137/29/18
f 165/327/241 166/347/241 164/348/241
f 162/328/407 164/348/407 161/349/407
f 170/363/239 177/364/239 163/343/239
f 177/364/240 180/365/240 167/344/240
f 180/366/1 179/368/1 166/367/1
f 179/369/244 178/370/244 164/348/244
f 178/370/245 176/371/245 161/349/245
f 176/371/246 175/372/14 160/350/243
f 175/373/1 174/374/1 159/352/1
f 174/375/1 173/376/1 158/354/1
f 173/377/1 172/378/1 157/356/1
f 172/379/1 171/380/1 156/358/1
f 171/381/1 169/382/1 154/361/1
f 169/383/1 168/35/1 153/33/1
f 170/384/408 183/423/408 190/404/408
f 177/385/253 190/404/253 195/405/253
f 180/386/249 195/405/249 197/406/249
f 197/406/1 196/407/1 179/388/1
f 196/408/244 193/409/244 178/390/244
f 193/409/245 189/410/245 176/391/245
f 189/410/250 188/411/251 175/392/14
f 188/412/1 187/413/1 174/394/1
f 187/414/1 186/415/1 173/396/1
f 186/416/1 185/417/1 172/398/1
f 185/418/1 184/419/1 171/400/1
f 184/420/1 182/421/1 169/402/1
f 182/422/1 181/39/1 168/37/1
f 190/404/252 183/424/252 192/425/252
f 195/426/254 194/427/254 196/407/254
f 194/428/409 191/429/409 193/409/409
f 183/424/1 42/464/1 50/445/262
f 50/446/259 49/447/259 194/427/259
f 49/448/412 48/449/412 191/429/412
f 48/450/1 47/451/1 188/431/1
f 47/452/1 46/453/1 187/433/1
f 46/454/1 45/455/1 186/435/1
f 45/456/1 44/457/1 185/437/1
f 44/458/1 43/459/1 184/439/1
f 43/460/1 41/461/1 182/441/1
f 41/462/1 40/3/1 181/41/1
f 20/83/41 32/84/41 11/49/41
f 32/84/414 36/86/414 10/85/414
f 10/52/415 36/105/415 31/87/415
f 30/91/33 29/110/33 7/61/33
f 7/61/291 29/110/291 24/92/291
f 7/63/416 24/92/416 18/93/416
f 37/103/417 39/104/417 36/86/417
f 39/104/418 26/126/418 36/105/418
f 36/105/419 26/126/419 38/106/419
f 35/109/420 34/131/420 29/110/420
f 29/110/421 34/131/421 33/111/421
f 24/92/422 33/111/422 28/112/422
f 69/123/424 76/124/424 37/103/424
f 33/111/425 72/132/425 70/133/425
f 28/112/426 70/133/426 66/134/426
f 57/157/427 101/198/143 90/176/145
f 101/198/428 103/218/428 100/199/428
f 152/305/228 151/326/228 146/306/228
