# Blender 4.4.1
# www.blender.org
mtllib map_tutorial_14.mtl
o 箱
v 24.758778 36.417858 30.183556
v 24.758778 41.418743 30.183556
v 20.924427 36.417858 30.183556
v 20.924427 41.418743 30.183556
v 24.758778 36.417858 29.183556
v 24.758778 41.418743 29.183556
v 20.924427 36.417858 29.183556
v 20.924427 41.418743 29.183556
v -39.714352 39.548401 22.479383
v -39.714352 44.549286 22.479383
v -39.714352 39.548401 18.645031
v -39.714352 44.549286 18.645031
v -38.714355 39.548401 22.479383
v -38.714355 44.549286 22.479383
v -38.714355 39.548401 18.645031
v -38.714355 44.549286 18.645031
v 33.106251 36.145828 -28.376354
v 33.106251 41.146717 -28.376354
v 29.271900 36.145828 -28.376354
v 29.271900 41.146717 -28.376354
v 33.106251 36.145828 -29.376354
v 33.106251 41.146717 -29.376354
v 29.271900 36.145828 -29.376354
v 29.271900 41.146717 -29.376354
v -22.915146 29.828602 -26.889824
v -22.915146 35.462830 -26.889824
v -33.437290 29.828602 -26.889824
v -33.437290 35.462830 -26.889824
v -22.915146 29.828602 -30.280075
v -22.915146 35.462830 -30.280075
v -33.437290 29.828602 -30.280075
v -33.437290 35.462830 -30.280075
vn -0.0000 -0.0000 1.0000
vn -1.0000 -0.0000 -0.0000
vn -0.0000 -0.0000 -1.0000
vn 1.0000 -0.0000 -0.0000
vn -0.0000 -1.0000 -0.0000
vn -0.0000 1.0000 -0.0000
vt 0.625000 0.000000
vt 0.375000 0.250000
vt 0.375000 0.000000
vt 0.625000 0.250000
vt 0.375000 0.500000
vt 0.625000 0.500000
vt 0.375000 0.750000
vt 0.625000 0.750000
vt 0.375000 1.000000
vt 0.125000 0.750000
vt 0.125000 0.500000
vt 0.875000 0.500000
vt 0.625000 1.000000
vt 0.875000 0.750000
s 0
f 2/1/1 3/2/1 1/3/1
f 4/4/2 7/5/2 3/2/2
f 8/6/3 5/7/3 7/5/3
f 6/8/4 1/9/4 5/7/4
f 7/5/5 1/10/5 3/11/5
f 4/12/6 6/8/6 8/6/6
f 12/4/3 15/5/3 11/2/3
f 16/6/4 13/7/4 15/5/4
f 14/8/1 9/9/1 13/7/1
f 15/5/5 9/10/5 11/11/5
f 12/12/6 14/8/6 16/6/6
f 18/1/1 19/2/1 17/3/1
f 20/4/2 23/5/2 19/2/2
f 22/8/4 17/9/4 21/7/4
f 23/5/5 17/10/5 19/11/5
f 20/12/6 22/8/6 24/6/6
f 26/1/1 27/2/1 25/3/1
f 28/4/2 31/5/2 27/2/2
f 30/8/4 25/9/4 29/7/4
f 28/12/6 30/8/6 32/6/6
f 2/1/1 4/4/1 3/2/1
f 4/4/2 8/6/2 7/5/2
f 8/6/3 6/8/3 5/7/3
f 6/8/4 2/13/4 1/9/4
f 7/5/5 5/7/5 1/10/5
f 4/12/6 2/14/6 6/8/6
f 12/4/3 16/6/3 15/5/3
f 16/6/4 14/8/4 13/7/4
f 14/8/1 10/13/1 9/9/1
f 15/5/5 13/7/5 9/10/5
f 12/12/6 10/14/6 14/8/6
f 18/1/1 20/4/1 19/2/1
f 20/4/2 24/6/2 23/5/2
f 22/8/4 18/13/4 17/9/4
f 23/5/5 21/7/5 17/10/5
f 20/12/6 18/14/6 22/8/6
f 26/1/1 28/4/1 27/2/1
f 28/4/2 32/6/2 31/5/2
f 30/8/4 26/13/4 25/9/4
f 28/12/6 26/14/6 30/8/6
