# Blender 4.4.1
# www.blender.org
mtllib enemy_core5.mtl
o enemy_core5
v -0.710986 -0.351819 0.000000
v -0.109703 0.331541 -0.072824
v -0.099268 -0.300736 -0.246838
v -0.526285 -0.047656 -0.298017
v -0.339365 -0.265405 -0.298017
v -0.735297 -0.077445 -0.209497
v -0.457160 -0.388912 -0.209497
v -0.091916 0.060177 -0.298017
v -0.089283 0.396433 -0.298017
v -0.095120 -0.339158 -0.298017
v -0.642752 0.073459 -0.275045
v -0.599360 0.103651 -0.298017
v -0.466408 0.180060 -0.298017
v -0.890730 -0.133403 0.000000
v -0.758765 -0.097140 0.168244
v -0.813744 -0.054616 -0.147464
v -0.149714 0.361823 -0.298017
v -0.685948 0.043297 -0.252157
v -0.757604 -0.007839 -0.209497
v -0.742504 -0.092716 0.188936
v -0.731167 -0.124051 0.173911
v -0.641298 -0.362003 0.057517
v -0.618405 -0.415075 0.029868
v -0.593797 -0.472279 0.000000
v -0.454470 -0.515138 -0.093935
v -0.448460 -0.514599 -0.100223
v -0.252416 -0.457197 -0.257626
v -0.340169 -0.501528 -0.209497
v -0.121040 -0.364406 -0.298017
v -0.180646 -0.421798 -0.298017
v -0.089283 0.396433 -0.298017
v -0.091916 0.060177 -0.298017
v -0.095120 -0.339158 -0.298017
v -0.599360 0.103651 -0.298017
v -0.599360 0.103651 -0.298017
v -0.466408 0.180060 -0.298017
v -0.642752 0.073459 -0.275045
v -0.890730 -0.133403 0.000000
v -0.890730 -0.133403 0.000000
v -0.758765 -0.097140 0.168244
v -0.149714 0.361823 -0.298017
v -0.685948 0.043297 -0.252157
v -0.685948 0.043297 -0.252157
v -0.757604 -0.007839 -0.209497
v -0.757604 -0.007839 -0.209497
v -0.813744 -0.054616 -0.147464
v -0.813744 -0.054616 -0.147464
v -0.742504 -0.092716 0.188936
v -0.731167 -0.124051 0.173911
v -0.731167 -0.124051 0.173911
v -0.641298 -0.362003 0.057517
v -0.641298 -0.362003 0.057517
v -0.618405 -0.415075 0.029868
v -0.593797 -0.472279 0.000000
v -0.593797 -0.472279 0.000000
v -0.454470 -0.515138 -0.093935
v -0.448460 -0.514599 -0.100223
v -0.448460 -0.514599 -0.100223
v -0.340169 -0.501528 -0.209497
v -0.340169 -0.501528 -0.209497
v -0.252416 -0.457197 -0.257626
v -0.180646 -0.421798 -0.298017
v -0.180646 -0.421798 -0.298017
v -0.121040 -0.364406 -0.298017
v -0.710986 -0.351819 0.000000
v -0.710986 -0.351819 0.000000
v -0.710986 -0.351819 0.000000
v -0.710986 -0.351819 0.000000
v -0.710986 -0.351819 0.000000
v -0.735297 -0.077445 -0.209497
v -0.735297 -0.077445 -0.209497
v -0.735297 -0.077445 -0.209497
v -0.735297 -0.077445 -0.209497
v -0.735297 -0.077445 -0.209497
v -0.526285 -0.047656 -0.298017
v -0.526285 -0.047656 -0.298017
v -0.526285 -0.047656 -0.298017
v -0.457160 -0.388912 -0.209497
v -0.457160 -0.388912 -0.209497
v -0.457160 -0.388912 -0.209497
v -0.457160 -0.388912 -0.209497
v -0.457160 -0.388912 -0.209497
v -0.339365 -0.265405 -0.298017
v -0.339365 -0.265405 -0.298017
vn 0.9961 -0.0078 0.0881
vn 0.9962 -0.0080 0.0868
vn -0.4888 0.8505 0.1945
vn -0.4878 0.8499 0.1994
vn -0.4869 0.8501 0.2008
vn 0.5945 -0.6174 0.5152
vn 0.4964 -0.2243 0.8386
vn -0.0000 -0.0000 -1.0000
vn 0.5998 -0.6158 0.5109
vn -0.6199 -0.5102 0.5962
vn -0.5748 -0.5592 0.5974
vn -0.5865 -0.5237 0.6179
vn -0.6199 -0.5102 -0.5962
vn -0.3355 -0.2996 -0.8931
vn -0.3627 -0.1752 -0.9153
vn -0.6431 -0.2061 -0.7375
vn -0.3507 -0.3011 -0.8868
vn -0.3223 -0.3328 -0.8862
vn -0.3308 -0.3357 -0.8820
vn -0.3246 -0.3336 -0.8851
vn -0.5748 -0.5592 -0.5974
vn 0.4965 -0.2229 0.8390
vn -0.4318 -0.1384 -0.8913
vn -0.5865 -0.5237 -0.6179
vn -0.5486 -0.5699 -0.6118
vn -0.3193 -0.3317 -0.8877
vn 0.5947 -0.6170 0.5154
vn 0.5945 -0.6173 0.5153
vn -0.0000 0.0001 -1.0000
vn 0.4973 -0.2224 0.8386
vn 0.4963 -0.2227 0.8391
vn 0.4964 -0.2227 0.8390
vt 1.000000 0.507260
vt 0.000000 0.000000
vt 1.000000 0.000000
vt 0.505997 0.000000
vt 0.507260 0.507260
vt 1.000000 0.640297
vt 0.852807 0.492974
vt 1.000000 0.474087
vt 0.474087 0.474087
vt 0.440888 0.334986
vt 0.600501 0.092328
vt 0.129547 0.000000
vt 1.000000 0.819161
vt 0.913635 0.913635
vt 0.728126 0.327857
vt 1.000000 0.495203
vt 0.145380 0.145380
vt 1.000000 0.145380
vt 0.487201 0.487201
vt 0.672872 0.279833
vt 1.000000 1.000000
vt 0.495203 0.495203
vt 1.000000 0.494003
vt 1.000000 0.487201
vt 0.144267 0.083361
vt 0.819161 0.819161
vt 1.000000 0.103627
vt 1.000000 0.913635
vt 0.640297 0.640297
vt 0.458983 0.422847
vt 0.469158 0.248703
vt 0.103626 0.103626
vt 0.201994 0.166941
vt 0.530062 0.390422
vt 0.890917 0.268213
vt 0.810884 0.413225
vt 0.129547 0.129547
s 0
f 32/1/1 2/2/1 3/3/1
f 3/2/2 33/4/2 32/5/2
f 36/6/3 34/7/3 37/8/3
f 37/9/4 44/10/4 38/11/4
f 48/12/5 31/13/5 41/14/5
f 61/15/6 64/16/6 56/17/6
f 56/18/7 23/19/7 54/20/7
s 1
f 13/2/8 10/2/8 63/2/8
s 0
f 3/21/9 64/22/9 33/23/9
s 1
f 15/2/10 65/2/10 49/2/10
f 66/2/11 53/2/11 52/2/11
f 50/2/12 69/2/12 51/2/12
f 67/2/13 47/2/13 70/2/13
f 75/2/14 78/2/14 71/2/14
f 72/2/15 11/2/15 12/2/15
f 45/2/16 73/2/16 16/2/16
f 4/2/17 84/2/17 79/2/17
f 5/2/18 30/2/19 27/2/20
f 80/2/21 25/2/21 24/2/21
s 0
f 23/24/22 2/21/22 21/25/22
s 1
f 74/2/23 19/2/23 18/2/23
f 6/2/24 7/2/24 1/2/24
f 81/2/25 60/2/25 26/2/25
f 82/2/26 27/2/20 28/2/26
s 0
f 32/1/1 31/26/1 2/2/1
f 38/11/4 40/27/4 41/28/4
f 41/28/4 36/29/4 37/9/4
f 37/9/4 42/30/4 44/10/4
f 44/10/4 46/31/4 38/11/4
f 38/11/4 41/28/4 37/9/4
f 41/14/5 40/32/5 48/12/5
f 48/12/5 2/3/5 31/13/5
f 56/17/27 57/33/27 59/34/27
f 61/15/6 62/35/6 64/16/6
f 56/17/28 59/34/28 61/15/28
f 64/16/6 3/21/6 56/17/6
f 56/18/7 3/21/7 23/19/7
s 1
f 63/2/8 83/2/8 76/2/8
f 76/2/8 35/2/8 13/2/8
f 13/2/8 17/2/29 9/2/8
f 9/2/8 8/2/8 10/2/8
f 10/2/8 29/2/8 63/2/8
f 63/2/8 76/2/8 13/2/8
f 13/2/8 9/2/8 10/2/8
f 49/2/10 20/2/10 15/2/10
f 15/2/10 39/2/10 65/2/10
f 66/2/11 55/2/11 53/2/11
f 67/2/13 14/2/13 47/2/13
f 12/2/15 77/2/15 72/2/15
f 72/2/15 43/2/15 11/2/15
f 24/2/21 68/2/21 80/2/21
f 80/2/21 58/2/21 25/2/21
s 0
f 21/25/30 22/36/30 23/24/30
f 23/24/31 3/3/31 2/21/31
f 2/21/32 48/37/32 21/25/32
s 1
f 82/2/26 5/2/18 27/2/20
