# Blender 4.4.1
# www.blender.org
mtllib sword_.fastener.mtl
o 金具
v 0.010881 -0.187445 0.248760
v 0.010881 -0.135826 0.248760
v 0.010881 -0.187445 0.205675
v 0.010881 -0.135826 0.205675
v 0.080461 -0.187445 0.248760
v 0.080461 -0.135826 0.248760
v 0.080461 -0.187445 0.205675
v 0.080461 -0.135826 0.205675
v 0.321030 -0.171059 0.158509
v 0.321030 -0.140004 0.158509
v 0.321030 -0.171059 0.138489
v 0.321030 -0.140004 0.138489
v 0.323967 -0.171059 0.158509
v 0.323967 -0.140004 0.158509
v 0.323967 -0.171059 0.138489
v 0.323967 -0.140004 0.138489
v -0.176363 -0.173358 -0.209504
v -0.176363 -0.149352 -0.209504
v -0.187839 -0.173358 -0.209504
v -0.187839 -0.149352 -0.209504
v -0.176363 -0.173358 -0.214821
v -0.176363 -0.149352 -0.214821
v -0.187839 -0.173358 -0.214821
v -0.187839 -0.149352 -0.214821
vn -1.0000 -0.0000 -0.0000
vn 1.0000 -0.0000 -0.0000
vn -0.0000 -0.0000 1.0000
vn -0.0000 -1.0000 -0.0000
vn -0.0000 1.0000 -0.0000
vn -0.0000 -0.0000 -1.0000
vt 0.625000 0.000000
vt 0.375000 0.250000
vt 0.375000 0.000000
vt 0.625000 0.500000
vt 0.375000 0.750000
vt 0.375000 0.500000
vt 0.625000 0.750000
vt 0.375000 1.000000
vt 0.125000 0.750000
vt 0.125000 0.500000
vt 0.875000 0.500000
vt 0.625000 0.250000
vt 0.875000 0.750000
vt 0.625000 1.000000
s 0
f 2/1/1 3/2/1 1/3/1
f 8/4/2 5/5/2 7/6/2
f 6/7/3 1/8/3 5/5/3
f 7/6/4 1/9/4 3/10/4
f 4/11/5 6/7/5 8/4/5
f 12/12/6 15/6/6 11/2/6
f 16/4/2 13/5/2 15/6/2
f 14/7/3 9/8/3 13/5/3
f 15/6/4 9/9/4 11/10/4
f 12/11/5 14/7/5 16/4/5
f 20/12/1 23/6/1 19/2/1
f 24/4/6 21/5/6 23/6/6
f 22/7/2 17/8/2 21/5/2
f 23/6/4 17/9/4 19/10/4
f 24/4/5 18/13/5 22/7/5
f 2/1/1 4/12/1 3/2/1
f 8/4/2 6/7/2 5/5/2
f 6/7/3 2/14/3 1/8/3
f 7/6/4 5/5/4 1/9/4
f 4/11/5 2/13/5 6/7/5
f 12/12/6 16/4/6 15/6/6
f 16/4/2 14/7/2 13/5/2
f 14/7/3 10/14/3 9/8/3
f 15/6/4 13/5/4 9/9/4
f 12/11/5 10/13/5 14/7/5
f 20/12/1 24/4/1 23/6/1
f 24/4/6 22/7/6 21/5/6
f 22/7/2 18/14/2 17/8/2
f 23/6/4 21/5/4 17/9/4
f 24/4/5 20/11/5 18/13/5
