mtllib star_ruin_pillar.mtl
o star_ruin_pillar
v 0.720000 0.000000 0.000000
v 0.720000 0.260000 0.000000
v 0.509117 0.000000 0.509117
v 0.509117 0.260000 0.509117
v 0.000000 0.000000 0.720000
v 0.000000 0.260000 0.720000
v -0.509117 0.000000 0.509117
v -0.509117 0.260000 0.509117
v -0.720000 0.000000 0.000000
v -0.720000 0.260000 0.000000
v -0.509117 0.000000 -0.509117
v -0.509117 0.260000 -0.509117
v -0.000000 0.000000 -0.720000
v -0.000000 0.260000 -0.720000
v 0.509117 0.000000 -0.509117
v 0.509117 0.260000 -0.509117
v 0.000000 0.000000 0.000000
v 0.000000 0.260000 0.000000
v 0.560000 0.260000 0.000000
v 0.560000 2.550000 0.000000
v 0.395980 0.260000 0.395980
v 0.395980 2.550000 0.395980
v 0.000000 0.260000 0.560000
v 0.000000 2.550000 0.560000
v -0.395980 0.260000 0.395980
v -0.395980 2.550000 0.395980
v -0.560000 0.260000 0.000000
v -0.560000 2.550000 0.000000
v -0.395980 0.260000 -0.395980
v -0.395980 2.550000 -0.395980
v -0.000000 0.260000 -0.560000
v -0.000000 2.550000 -0.560000
v 0.395980 0.260000 -0.395980
v 0.395980 2.550000 -0.395980
v 0.000000 0.260000 0.000000
v 0.000000 2.550000 0.000000
v 0.660000 1.020000 0.000000
v 0.660000 1.200000 0.000000
v 0.466690 1.020000 0.466690
v 0.466690 1.200000 0.466690
v 0.000000 1.020000 0.660000
v 0.000000 1.200000 0.660000
v -0.466690 1.020000 0.466690
v -0.466690 1.200000 0.466690
v -0.660000 1.020000 0.000000
v -0.660000 1.200000 0.000000
v -0.466690 1.020000 -0.466690
v -0.466690 1.200000 -0.466690
v -0.000000 1.020000 -0.660000
v -0.000000 1.200000 -0.660000
v 0.466690 1.020000 -0.466690
v 0.466690 1.200000 -0.466690
v 0.000000 1.020000 0.000000
v 0.000000 1.200000 0.000000
v 0.760000 2.550000 0.000000
v 0.760000 2.780000 0.000000
v 0.537401 2.550000 0.537401
v 0.537401 2.780000 0.537401
v 0.000000 2.550000 0.760000
v 0.000000 2.780000 0.760000
v -0.537401 2.550000 0.537401
v -0.537401 2.780000 0.537401
v -0.760000 2.550000 0.000000
v -0.760000 2.780000 0.000000
v -0.537401 2.550000 -0.537401
v -0.537401 2.780000 -0.537401
v -0.000000 2.550000 -0.760000
v -0.000000 2.780000 -0.760000
v 0.537401 2.550000 -0.537401
v 0.537401 2.780000 -0.537401
v 0.000000 2.550000 0.000000
v 0.000000 2.780000 0.000000
v 0.000000 2.780000 0.580000
v -0.176336 2.780000 0.242705
v -0.551613 2.780000 0.179230
v -0.285317 2.780000 -0.092705
v -0.340915 2.780000 -0.469230
v -0.000000 2.780000 -0.300000
v 0.340915 2.780000 -0.469230
v 0.285317 2.780000 -0.092705
v 0.551613 2.780000 0.179230
v 0.176336 2.780000 0.242705
v 0.000000 2.920000 0.580000
v -0.176336 2.920000 0.242705
v -0.551613 2.920000 0.179230
v -0.285317 2.920000 -0.092705
v -0.340915 2.920000 -0.469230
v -0.000000 2.920000 -0.300000
v 0.340915 2.920000 -0.469230
v 0.285317 2.920000 -0.092705
v 0.551613 2.920000 0.179230
v 0.176336 2.920000 0.242705
v 0.000000 2.920000 0.000000
v 0.000000 2.780000 0.000000
usemtl ruin_gold
f 1 3 4 2
f 18 2 4
f 17 3 1
f 3 5 6 4
f 18 4 6
f 17 5 3
f 5 7 8 6
f 18 6 8
f 17 7 5
f 7 9 10 8
f 18 8 10
f 17 9 7
f 9 11 12 10
f 18 10 12
f 17 11 9
f 11 13 14 12
f 18 12 14
f 17 13 11
f 13 15 16 14
f 18 14 16
f 17 15 13
f 15 1 2 16
f 18 16 2
f 17 1 15
usemtl ruin_stone
f 19 21 22 20
f 36 20 22
f 35 21 19
f 21 23 24 22
f 36 22 24
f 35 23 21
f 23 25 26 24
f 36 24 26
f 35 25 23
f 25 27 28 26
f 36 26 28
f 35 27 25
f 27 29 30 28
f 36 28 30
f 35 29 27
f 29 31 32 30
f 36 30 32
f 35 31 29
f 31 33 34 32
f 36 32 34
f 35 33 31
f 33 19 20 34
f 36 34 20
f 35 19 33
usemtl ruin_aqua
f 37 39 40 38
f 54 38 40
f 53 39 37
f 39 41 42 40
f 54 40 42
f 53 41 39
f 41 43 44 42
f 54 42 44
f 53 43 41
f 43 45 46 44
f 54 44 46
f 53 45 43
f 45 47 48 46
f 54 46 48
f 53 47 45
f 47 49 50 48
f 54 48 50
f 53 49 47
f 49 51 52 50
f 54 50 52
f 53 51 49
f 51 37 38 52
f 54 52 38
f 53 37 51
usemtl ruin_gold
f 55 57 58 56
f 72 56 58
f 71 57 55
f 57 59 60 58
f 72 58 60
f 71 59 57
f 59 61 62 60
f 72 60 62
f 71 61 59
f 61 63 64 62
f 72 62 64
f 71 63 61
f 63 65 66 64
f 72 64 66
f 71 65 63
f 65 67 68 66
f 72 66 68
f 71 67 65
f 67 69 70 68
f 72 68 70
f 71 69 67
f 69 55 56 70
f 72 70 56
f 71 55 69
usemtl ruin_aqua
f 73 74 84 83
f 74 75 85 84
f 75 76 86 85
f 76 77 87 86
f 77 78 88 87
f 78 79 89 88
f 79 80 90 89
f 80 81 91 90
f 81 82 92 91
f 82 73 83 92
usemtl ruin_aqua
f 93 83 84
f 93 84 85
f 93 85 86
f 93 86 87
f 93 87 88
f 93 88 89
f 93 89 90
f 93 90 91
f 93 91 92
f 93 92 83
usemtl ruin_aqua
f 94 74 73
f 94 75 74
f 94 76 75
f 94 77 76
f 94 78 77
f 94 79 78
f 94 80 79
f 94 81 80
f 94 82 81
f 94 73 82
