# Blender 4.4.1
# www.blender.org
mtllib map_equipment_door_01.mtl
o 扉1
v -15.000000 -1.359911 15.000000
v -15.000000 0.640089 15.000000
v -15.000000 -1.359911 -15.000000
v -15.000000 0.640089 -15.000000
v 15.000000 -1.359911 15.000000
v 15.000000 0.640089 15.000000
v 15.000000 -1.359911 -15.000000
v 15.000000 0.640089 -15.000000
v 13.000001 -1.359911 13.000001
v -13.000001 -1.359911 -13.000001
v 13.000001 -1.359911 -13.000001
v -13.000001 -1.359911 13.000001
v -13.000001 0.640089 13.000001
v 13.000001 0.640089 -13.000001
v -13.000001 0.640089 -13.000001
v 13.000001 0.640089 13.000001
vn -1.0000 -0.0000 -0.0000
vn -0.0000 -0.0000 -1.0000
vn 1.0000 -0.0000 -0.0000
vn -0.0000 -0.0000 1.0000
vn -0.0000 -1.0000 -0.0000
vn -0.0000 1.0000 -0.0000
vt 0.625000 0.000000
vt 0.375000 0.250000
vt 0.375000 0.000000
vt 0.625000 0.250000
vt 0.375000 0.500000
vt 0.625000 0.500000
vt 0.375000 0.750000
vt 0.625000 0.750000
vt 0.375000 1.000000
vt 0.125000 0.500000
vt 0.141667 0.516667
vt 0.125000 0.750000
vt 0.358333 0.733333
vt 0.875000 0.750000
vt 0.641667 0.733333
vt 0.858333 0.733333
vt 0.858333 0.516667
vt 0.641667 0.516667
vt 0.491081 0.000000
vt 0.526756 0.250000
vt 0.526756 0.000000
vt 0.491081 0.250000
vt 0.526756 0.500000
vt 0.491081 0.750000
vt 0.491081 0.500000
vt 0.491081 1.000000
vt 0.526756 0.750000
vt 0.625000 1.000000
vt 0.141667 0.733333
vt 0.358333 0.516667
vt 0.875000 0.500000
vt 0.526756 1.000000
s 0
f 2/1/1 3/2/1 1/3/1
f 4/4/2 7/5/2 3/2/2
f 8/6/3 5/7/3 7/5/3
f 6/8/4 1/9/4 5/7/4
f 3/10/5 7/5/5 10/11/5
f 1/12/5 9/13/5 5/7/5
f 2/14/6 16/15/6 13/16/6
f 8/6/6 15/17/6 14/18/6
f 12/19/3 15/20/3 13/21/3
f 10/22/4 14/23/4 15/20/4
f 9/24/1 14/23/1 11/25/1
f 12/26/2 16/27/2 9/24/2
f 2/1/1 4/4/1 3/2/1
f 4/4/2 8/6/2 7/5/2
f 8/6/3 6/8/3 5/7/3
f 6/8/4 2/28/4 1/9/4
f 10/11/5 12/29/5 1/12/5
f 7/5/5 5/7/5 9/13/5
f 7/5/5 9/13/5 11/30/5
f 10/11/5 1/12/5 3/10/5
f 7/5/5 11/30/5 10/11/5
f 1/12/5 12/29/5 9/13/5
f 15/17/6 4/31/6 2/14/6
f 2/14/6 6/8/6 16/15/6
f 13/16/6 15/17/6 2/14/6
f 16/15/6 6/8/6 8/6/6
f 8/6/6 4/31/6 15/17/6
f 14/18/6 16/15/6 8/6/6
f 12/19/3 10/22/3 15/20/3
f 10/22/4 11/25/4 14/23/4
f 9/24/1 16/27/1 14/23/1
f 12/26/2 13/32/2 16/27/2
