mtllib star_dash_panel.mtl
o star_dash_panel
v -2.250000 -0.220000 -0.920000
v 2.250000 -0.220000 -0.920000
v 2.250000 0.000000 -0.920000
v -2.250000 0.000000 -0.920000
v -2.250000 -0.220000 0.920000
v 2.250000 -0.220000 0.920000
v 2.250000 0.000000 0.920000
v -2.250000 0.000000 0.920000
v -2.080000 0.000000 -0.790000
v 2.080000 0.000000 -0.790000
v 2.080000 0.060000 -0.790000
v -2.080000 0.060000 -0.790000
v -2.080000 0.000000 0.790000
v 2.080000 0.000000 0.790000
v 2.080000 0.060000 0.790000
v -2.080000 0.060000 0.790000
v -1.520000 0.060000 -0.320000
v 0.480000 0.060000 -0.320000
v 0.480000 0.060000 -0.660000
v 1.580000 0.060000 0.000000
v 0.480000 0.060000 0.660000
v 0.480000 0.060000 0.320000
v -1.520000 0.060000 0.320000
v -1.520000 0.130000 -0.320000
v 0.480000 0.130000 -0.320000
v 0.480000 0.130000 -0.660000
v 1.580000 0.130000 0.000000
v 0.480000 0.130000 0.660000
v 0.480000 0.130000 0.320000
v -1.520000 0.130000 0.320000
v 0.065714 0.130000 0.000000
v 0.065714 0.060000 0.000000
usemtl dash_base
f 1 4 3 2
f 5 6 7 8
f 1 5 8 4
f 2 3 7 6
f 4 8 7 3
f 1 2 6 5
usemtl dash_inlay
f 9 12 11 10
f 13 14 15 16
f 9 13 16 12
f 10 11 15 14
f 12 16 15 11
f 9 10 14 13
usemtl dash_arrow
usemtl dash_arrow_side
usemtl dash_arrow
usemtl dash_arrow_side
usemtl dash_arrow
usemtl dash_arrow_side
usemtl dash_arrow
usemtl dash_arrow_side
usemtl dash_arrow
usemtl dash_arrow_side
f 17 18 25 24
f 18 19 26 25
f 19 20 27 26
f 20 21 28 27
f 21 22 29 28
f 22 23 30 29
f 23 17 24 30
usemtl dash_arrow
f 31 24 25
f 31 25 26
f 31 26 27
f 31 27 28
f 31 28 29
f 31 29 30
f 31 30 24
usemtl dash_arrow
f 32 18 17
f 32 19 18
f 32 20 19
f 32 21 20
f 32 22 21
f 32 23 22
f 32 17 23
