# Blender 4.4.1
# www.blender.org
mtllib map_equipment_02.mtl
o 台座下側装置_02
v 0.000000 2.000000 -10.000000
v 1.950903 2.000000 -9.807853
v 0.000000 5.000000 -10.000000
v -1.950903 2.000000 -9.807853
v -1.950903 5.000000 -9.807853
v -3.826835 5.000000 -9.238795
v -5.555702 5.000000 -8.314696
v -3.826835 2.000000 -9.238795
v -7.071068 5.000000 -7.071068
v -8.314696 5.000000 -5.555702
v -9.238795 5.000000 -3.826835
v -9.807853 5.000000 -1.950903
v -9.238795 2.000000 -3.826835
v -8.314696 2.000000 -5.555702
v -9.238795 5.000000 3.826835
v 3.826835 5.000000 -9.238795
v 1.950903 5.000000 -9.807853
v 3.826835 2.000000 -9.238795
v 5.555702 5.000000 -8.314696
v 5.555702 2.000000 -8.314696
v 9.238795 5.000000 -3.826835
v -3.826835 5.000000 9.238795
v -1.950903 5.000000 9.807853
v -3.826835 2.000000 9.238795
v -5.555702 5.000000 8.314696
v -5.555702 2.000000 8.314696
v 0.000000 5.000000 10.000000
v 9.238795 5.000000 3.826835
v 9.807853 5.000000 1.950903
v 9.238795 2.000000 3.826835
v 8.314696 5.000000 5.555702
v 8.314696 2.000000 5.555702
v 3.826835 5.000000 9.238795
v 10.000000 5.000000 0.000000
v 9.807853 5.000000 -1.950903
v 9.807853 2.000000 -1.950903
v 10.000000 2.000000 0.000000
v 9.807853 2.000000 1.950903
v 9.238795 2.000000 -3.826835
v 8.314696 2.000000 -5.555702
v 8.314696 5.000000 -5.555702
v 7.071068 5.000000 -7.071068
v 7.071068 2.000000 -7.071068
v 5.555702 5.000000 8.314696
v 3.826835 2.000000 9.238795
v 1.950903 5.000000 9.807853
v 1.950903 2.000000 9.807853
v 7.071068 5.000000 7.071068
v 7.071068 2.000000 7.071068
v 5.555702 2.000000 8.314696
v 0.000000 2.000000 10.000000
v -1.950903 2.000000 9.807853
v -7.071068 2.000000 7.071068
v -7.071068 5.000000 7.071068
v -8.314696 2.000000 5.555702
v -8.314696 5.000000 5.555702
v -9.238795 2.000000 3.826835
v -9.807853 2.000000 1.950903
v -9.807853 5.000000 1.950903
v -10.000000 2.000000 0.000000
v -10.000000 5.000000 0.000000
v -9.807853 2.000000 -1.950903
v -7.071068 2.000000 -7.071068
v -5.555702 2.000000 -8.314696
v -0.000000 33.000000 -10.000000
v -1.950903 33.000000 -9.807853
v -0.000001 30.000000 -10.000000
v 1.950903 33.000000 -9.807852
v 1.950902 30.000000 -9.807852
v 3.826834 30.000000 -9.238794
v 5.555701 30.000000 -8.314696
v 3.826834 33.000000 -9.238794
v -3.826835 30.000000 -9.238794
v -1.950903 30.000000 -9.807852
v 7.071067 30.000000 -7.071067
v 8.314696 30.000000 -5.555702
v 7.071068 33.000000 -7.071068
v 5.555702 33.000000 -8.314696
v 9.238795 30.000000 -3.826835
v 9.807853 30.000000 -1.950903
v 9.238795 33.000000 -3.826835
v 8.314696 33.000000 -5.555702
v 10.000000 30.000000 0.000000
v 3.826835 30.000000 9.238794
v 1.950903 30.000000 9.807853
v 3.826835 33.000000 9.238794
v 5.555701 30.000000 8.314696
v 1.950903 33.000000 9.807853
v 7.071066 30.000000 7.071068
v -0.000000 30.000000 10.000000
v -1.950903 30.000000 9.807852
v -3.826835 30.000000 9.238794
v 9.238796 30.000000 3.826834
v 8.314697 30.000000 5.555702
v 9.238796 33.000000 3.826834
v 9.807853 30.000000 1.950903
v 9.807853 33.000000 1.950903
v 10.000000 33.000000 0.000000
v 9.807853 33.000000 -1.950903
v 8.314697 33.000000 5.555702
v 7.071067 33.000000 7.071068
v 5.555702 33.000000 8.314696
v -5.555703 30.000000 8.314696
v -3.826835 33.000000 9.238794
v -5.555703 33.000000 8.314696
v -1.950903 33.000000 9.807852
v -7.071069 30.000000 7.071068
v -8.314696 30.000000 5.555702
v -9.238795 30.000000 3.826835
v -9.807853 30.000000 1.950903
v -9.238795 33.000000 3.826835
v -8.314696 33.000000 5.555702
v -10.000000 30.000000 0.000000
v -9.807853 30.000000 -1.950903
v -10.000000 33.000000 0.000000
v -9.807853 33.000000 1.950903
v -9.238796 30.000000 -3.826834
v -8.314697 30.000000 -5.555702
v -9.238796 33.000000 -3.826834
v -9.807853 33.000000 -1.950903
v -8.314697 33.000000 -5.555702
v -7.071068 33.000000 -7.071068
v -7.071070 30.000000 -7.071067
v -5.555704 30.000000 -8.314696
v -5.555703 33.000000 -8.314696
v -3.826835 33.000000 -9.238794
v -7.071069 33.000000 7.071068
v 0.000000 33.000000 10.000000
vn -0.0000 -0.0000 -1.0000
vn 0.1951 -0.0000 -0.9808
vn -0.1951 -0.0000 -0.9808
vn -0.0000 1.0000 -0.0000
vn -0.3827 -0.0000 -0.9239
vn -0.5556 -0.0000 -0.8315
vn -0.9808 -0.0000 -0.1951
vn -0.9239 -0.0000 -0.3827
vn -0.8315 -0.0000 -0.5556
vn 0.3827 -0.0000 -0.9239
vn 0.5556 -0.0000 -0.8315
vn -0.1951 -0.0000 0.9808
vn -0.3827 -0.0000 0.9239
vn -0.5556 -0.0000 0.8315
vn 0.9808 -0.0000 0.1951
vn 0.9239 -0.0000 0.3827
vn 0.8315 -0.0000 0.5556
vn 0.9239 -0.0000 -0.3827
vn 0.9808 -0.0000 -0.1951
vn 1.0000 -0.0000 -0.0000
vn 0.8315 -0.0000 -0.5556
vn 0.7071 -0.0000 -0.7071
vn 0.5556 -0.0000 0.8315
vn 0.3827 -0.0000 0.9239
vn 0.1951 -0.0000 0.9808
vn 0.7071 -0.0000 0.7071
vn -0.0000 -0.0000 1.0000
vn -0.7071 -0.0000 0.7071
vn -0.8315 -0.0000 0.5556
vn -0.9239 -0.0000 0.3827
vn -0.9808 -0.0000 0.1951
vn -1.0000 -0.0000 -0.0000
vn -0.7071 -0.0000 -0.7071
vn -0.0000 -1.0000 -0.0000
vt 1.000000 1.000000
vt 0.968750 0.500000
vt 1.000000 0.500000
vt 0.031250 1.000000
vt 0.000000 1.000000
vt 0.000000 0.500000
vt 0.031250 0.500000
vt 0.250000 0.490000
vt 0.203178 0.485388
vt 0.158156 0.471731
vt 0.062500 1.000000
vt 0.093750 1.000000
vt 0.062500 0.500000
vt 0.116663 0.449553
vt 0.080294 0.419706
vt 0.028269 0.341844
vt 0.050447 0.383337
vt 0.218750 1.000000
vt 0.187500 1.000000
vt 0.187500 0.500000
vt 0.014612 0.296822
vt 0.028269 0.158156
vt 0.156250 0.500000
vt 0.156250 1.000000
vt 0.341844 0.471731
vt 0.968750 1.000000
vt 0.937500 1.000000
vt 0.937500 0.500000
vt 0.296822 0.485388
vt 0.906250 0.500000
vt 0.906250 1.000000
vt 0.383337 0.449553
vt 0.471731 0.341844
vt 0.158156 0.028269
vt 0.468750 1.000000
vt 0.437500 1.000000
vt 0.437500 0.500000
vt 0.203178 0.014612
vt 0.250000 0.010000
vt 0.406250 0.500000
vt 0.406250 1.000000
vt 0.116663 0.050447
vt 0.471731 0.158156
vt 0.718750 1.000000
vt 0.687500 1.000000
vt 0.687500 0.500000
vt 0.485388 0.203178
vt 0.490000 0.250000
vt 0.656250 0.500000
vt 0.656250 1.000000
vt 0.449553 0.116663
vt 0.341844 0.028269
vt 0.485388 0.296822
vt 0.812500 1.000000
vt 0.781250 1.000000
vt 0.781250 0.500000
vt 0.750000 0.500000
vt 0.750000 1.000000
vt 0.718750 0.500000
vt 0.812500 0.500000
vt 0.843750 1.000000
vt 0.843750 0.500000
vt 0.875000 1.000000
vt 0.449553 0.383337
vt 0.419706 0.419706
vt 0.875000 0.500000
vt 0.593750 1.000000
vt 0.562500 1.000000
vt 0.562500 0.500000
vt 0.383337 0.050447
vt 0.419706 0.080294
vt 0.531250 0.500000
vt 0.531250 1.000000
vt 0.296822 0.014612
vt 0.625000 1.000000
vt 0.625000 0.500000
vt 0.593750 0.500000
vt 0.500000 0.500000
vt 0.500000 1.000000
vt 0.468750 0.500000
vt 0.375000 0.500000
vt 0.375000 1.000000
vt 0.343750 0.500000
vt 0.343750 1.000000
vt 0.312500 0.500000
vt 0.312500 1.000000
vt 0.281250 0.500000
vt 0.281250 1.000000
vt 0.250000 0.500000
vt 0.250000 1.000000
vt 0.218750 0.500000
vt 0.010000 0.250000
vt 0.014612 0.203178
vt 0.050447 0.116663
vt 0.080294 0.080294
vt 0.125000 0.500000
vt 0.125000 1.000000
vt 0.093750 0.500000
s 1
f 3/1/1 2/2/2 1/3/1
f 5/4/3 3/5/1 1/6/1
f 5/4/3 1/6/1 4/7/3
s 0
f 3/8/4 5/9/4 6/10/4
s 1
f 6/11/5 5/4/3 4/7/3
f 7/12/6 6/11/5 8/13/5
s 0
f 6/10/4 7/14/4 9/15/4
s 1
f 6/11/5 4/7/3 8/13/5
s 0
f 3/8/4 6/10/4 11/16/4
f 9/15/4 10/17/4 6/10/4
f 10/17/4 11/16/4 6/10/4
s 1
f 12/18/7 11/19/8 13/20/8
s 0
f 11/16/4 12/21/4 15/22/4
s 1
f 11/19/8 14/23/9 13/20/8
f 11/19/8 10/24/9 14/23/9
s 0
f 11/16/4 15/22/4 16/25/4
f 16/25/4 3/8/4 11/16/4
s 1
f 17/26/2 16/27/10 18/28/10
s 0
f 16/25/4 17/29/4 3/8/4
s 1
f 16/27/10 20/30/11 18/28/10
f 16/27/10 19/31/11 20/30/11
s 0
f 19/32/4 16/25/4 21/33/4
f 21/33/4 16/25/4 22/34/4
f 15/22/4 22/34/4 16/25/4
s 1
f 23/35/12 22/36/13 24/37/13
s 0
f 22/34/4 23/38/4 27/39/4
s 1
f 22/36/13 26/40/14 24/37/13
f 22/36/13 25/41/14 26/40/14
s 0
f 25/42/4 22/34/4 15/22/4
f 22/34/4 27/39/4 28/43/4
f 28/43/4 21/33/4 22/34/4
s 1
f 29/44/15 28/45/16 30/46/16
s 0
f 28/43/4 29/47/4 34/48/4
s 1
f 28/45/16 32/49/17 30/46/16
f 28/45/16 31/50/17 32/49/17
s 0
f 31/51/4 28/43/4 33/52/4
f 27/39/4 33/52/4 28/43/4
f 34/48/4 35/53/4 28/43/4
f 35/53/4 21/33/4 28/43/4
s 1
f 21/54/18 35/55/19 36/56/19
f 35/55/19 37/57/20 36/56/19
f 35/55/19 34/58/20 37/57/20
f 34/58/20 38/59/15 37/57/20
f 29/44/15 30/46/16 38/59/15
f 34/58/20 29/44/15 38/59/15
f 21/54/18 36/56/19 39/60/18
f 41/61/21 39/60/18 40/62/21
f 41/61/21 21/54/18 39/60/18
f 42/63/22 41/61/21 40/62/21
s 0
f 21/33/4 41/64/4 42/65/4
s 1
f 19/31/11 42/63/22 43/66/22
s 0
f 42/65/4 19/32/4 21/33/4
s 1
f 42/63/22 40/62/21 43/66/22
f 19/31/11 43/66/22 20/30/11
f 44/67/23 33/68/24 45/69/24
s 0
f 33/52/4 44/70/4 48/71/4
s 1
f 33/68/24 47/72/25 45/69/24
f 33/68/24 46/73/25 47/72/25
s 0
f 27/39/4 46/74/4 33/52/4
f 48/71/4 31/51/4 33/52/4
s 1
f 31/50/17 48/75/26 49/76/26
f 48/75/26 50/77/23 49/76/26
f 48/75/26 44/67/23 50/77/23
f 44/67/23 45/69/24 50/77/23
f 31/50/17 49/76/26 32/49/17
f 46/73/25 51/78/27 47/72/25
f 27/79/27 52/80/12 51/78/27
f 46/73/25 27/79/27 51/78/27
f 23/35/12 24/37/13 52/80/12
f 27/79/27 23/35/12 52/80/12
f 25/41/14 53/81/28 26/40/14
f 54/82/28 55/83/29 53/81/28
f 25/41/14 54/82/28 53/81/28
f 56/84/29 57/85/30 55/83/29
f 54/82/28 56/84/29 55/83/29
f 15/86/30 58/87/31 57/85/30
f 56/84/29 15/86/30 57/85/30
f 59/88/31 60/89/32 58/87/31
f 15/86/30 59/88/31 58/87/31
f 61/90/32 62/91/7 60/89/32
f 59/88/31 61/90/32 60/89/32
f 12/18/7 13/20/8 62/91/7
f 61/90/32 12/18/7 62/91/7
s 0
f 61/92/4 59/93/4 15/22/4
f 12/21/4 61/92/4 15/22/4
f 15/22/4 56/94/4 54/95/4
f 54/95/4 25/42/4 15/22/4
s 1
f 17/26/2 18/28/10 2/2/2
f 3/1/1 17/26/2 2/2/2
f 10/24/9 63/96/33 14/23/9
f 9/97/33 64/98/6 63/96/33
f 10/24/9 9/97/33 63/96/33
f 7/12/6 8/13/5 64/98/6
f 9/97/33 7/12/6 64/98/6
f 67/1/1 66/2/3 65/3/1
f 69/4/2 67/5/1 65/6/1
f 69/4/2 65/6/1 68/7/2
s 0
f 67/8/34 69/9/34 70/10/34
s 1
f 70/11/10 69/4/2 68/7/2
f 71/12/11 70/11/10 72/13/10
s 0
f 70/10/34 71/14/34 75/15/34
s 1
f 70/11/10 68/7/2 72/13/10
s 0
f 73/25/34 74/29/34 70/10/34
f 70/10/34 75/15/34 73/25/34
f 74/29/34 67/8/34 70/10/34
s 1
f 76/24/21 75/97/22 77/96/22
s 0
f 75/15/34 76/17/34 79/16/34
s 1
f 75/97/22 78/98/11 77/96/22
f 75/97/22 71/12/11 78/98/11
s 0
f 75/15/34 79/16/34 73/25/34
s 1
f 80/18/19 79/19/18 81/20/18
s 0
f 79/16/34 80/21/34 83/92/34
s 1
f 79/19/18 82/23/21 81/20/18
f 79/19/18 76/24/21 82/23/21
s 0
f 79/16/34 83/92/34 84/34/34
f 73/25/34 79/16/34 84/34/34
s 1
f 88/80/25 85/35/25 84/36/24
s 0
f 84/34/34 85/38/34 90/39/34
s 1
f 88/80/25 84/36/24 86/37/24
f 86/37/24 84/36/24 87/41/23
s 0
f 89/95/34 87/42/34 84/34/34
f 93/22/34 89/95/34 84/34/34
f 90/39/34 91/74/34 84/34/34
f 91/74/34 92/52/34 84/34/34
f 84/34/34 92/52/34 73/25/34
f 83/92/34 93/22/34 84/34/34
s 1
f 94/84/17 93/86/16 95/85/16
s 0
f 93/22/34 94/94/34 89/95/34
s 1
f 93/86/16 97/87/15 95/85/16
f 93/86/16 96/88/15 97/87/15
s 0
f 83/92/34 96/93/34 93/22/34
s 1
f 96/88/15 98/89/20 97/87/15
f 83/90/20 99/91/19 98/89/20
f 96/88/15 83/90/20 98/89/20
f 80/18/19 81/20/18 99/91/19
f 83/90/20 80/18/19 99/91/19
f 94/84/17 95/85/16 100/83/17
f 101/81/26 94/84/17 100/83/17
f 102/40/23 89/82/26 101/81/26
f 101/81/26 89/82/26 94/84/17
f 86/37/24 87/41/23 102/40/23
f 102/40/23 87/41/23 89/82/26
f 105/77/14 103/67/14 92/68/13
s 0
f 92/52/34 103/70/34 107/71/34
s 1
f 105/77/14 92/68/13 104/69/13
f 92/68/13 106/72/12 104/69/13
f 92/68/13 91/73/12 106/72/12
s 0
f 107/71/34 108/51/34 92/52/34
f 108/51/34 109/43/34 92/52/34
f 92/52/34 109/43/34 73/25/34
s 1
f 110/44/31 109/45/30 111/46/30
s 0
f 109/43/34 110/47/34 113/48/34
s 1
f 109/45/30 112/49/29 111/46/30
f 109/45/30 108/50/29 112/49/29
s 0
f 109/43/34 113/48/34 73/25/34
s 1
f 114/55/7 113/58/32 115/57/32
s 0
f 113/48/34 114/53/34 117/33/34
s 1
f 113/58/32 116/59/31 115/57/32
f 113/58/32 110/44/31 116/59/31
s 0
f 113/48/34 117/33/34 73/25/34
s 1
f 118/61/9 117/54/8 119/60/8
s 0
f 117/33/34 118/64/34 73/25/34
s 1
f 117/54/8 120/56/7 119/60/8
f 117/54/8 114/55/7 120/56/7
f 114/55/7 115/57/32 120/56/7
f 118/61/9 119/60/8 121/62/9
f 123/63/33 121/62/9 122/66/33
f 123/63/33 118/61/9 121/62/9
f 124/31/6 123/63/33 122/66/33
s 0
f 123/65/34 124/32/34 73/25/34
f 118/64/34 123/65/34 73/25/34
s 1
f 73/27/5 124/31/6 125/30/6
f 124/31/6 122/66/33 125/30/6
f 73/27/5 125/30/6 126/28/5
f 74/26/3 126/28/5 66/2/3
f 74/26/3 73/27/5 126/28/5
f 110/44/31 111/46/30 116/59/31
f 108/50/29 127/76/28 112/49/29
f 108/50/29 107/75/28 127/76/28
f 127/76/28 107/75/28 103/67/14
f 127/76/28 103/67/14 105/77/14
f 106/72/12 91/73/12 90/79/27
f 106/72/12 90/79/27 128/78/27
f 128/78/27 90/79/27 85/35/25
f 128/78/27 85/35/25 88/80/25
f 76/24/21 77/96/22 82/23/21
f 71/12/11 72/13/10 78/98/11
f 67/1/1 74/26/3 66/2/3
