mtllib prism_crystal_fragment_c.mtl
o PrismCrystalFragmentC
v 0.550000 0.080000 0.000000
v -0.460000 -0.050000 0.020000
v 0.030000 0.250000 0.200000
v -0.080000 -0.200000 0.240000
v 0.000000 0.180000 -0.250000
v 0.070000 -0.220000 -0.220000
vn 0.357712 -0.004434 0.933821
vn 0.248556 0.954454 -0.165041
vn 0.414443 0.004273 -0.910065
vn 0.457586 -0.869277 0.187008
vn -0.436675 0.185000 0.880392
vn -0.492007 0.864631 -0.101698
vn -0.446235 -0.144331 -0.883200
vn -0.332299 -0.940759 -0.067456
usemtl PrismFragment
f 1//1 3//1 4//1
f 1//2 5//2 3//2
f 1//3 6//3 5//3
f 1//4 4//4 6//4
f 2//5 4//5 3//5
f 2//6 3//6 5//6
f 2//7 5//7 6//7
f 2//8 6//8 4//8
