# Blender 4.4.1
# www.blender.org
mtllib map_floor_11.mtl
o 四角11
v 49.143917 -1.799999 -51.265247
v 51.265240 -1.799999 -49.143925
v 49.143917 1.199999 -51.265247
v 47.022594 -1.799999 -49.143925
v 49.143917 -1.799999 -47.022602
v 47.022594 1.199999 -49.143925
v 49.143917 1.199999 -47.022602
v 51.265240 1.199999 -49.143925
vn -0.0000 -1.0000 -0.0000
vn 0.7071 -0.0000 -0.7071
vn -0.7071 -0.0000 -0.7071
vn -0.7071 -0.0000 0.7071
vn -0.0000 1.0000 -0.0000
vn 0.7071 -0.0000 0.7071
vt 0.375000 0.500000
vt 0.125000 0.750000
vt 0.125000 0.500000
vt 0.625000 0.000000
vt 0.375000 0.250000
vt 0.375000 0.000000
vt 0.625000 0.750000
vt 0.375000 1.000000
vt 0.375000 0.750000
vt 0.625000 0.500000
vt 0.875000 0.500000
vt 0.625000 0.250000
vt 0.625000 1.000000
vt 0.875000 0.750000
s 0
f 5/1/1 1/2/1 2/3/1
f 3/4/2 2/5/2 1/6/2
f 6/7/3 1/8/3 4/9/3
f 7/10/4 4/9/4 5/1/4
f 8/11/5 6/7/5 7/10/5
f 8/12/6 5/1/6 2/5/6
f 5/1/1 4/9/1 1/2/1
f 3/4/2 8/12/2 2/5/2
f 6/7/3 3/13/3 1/8/3
f 7/10/4 6/7/4 4/9/4
f 8/11/5 3/14/5 6/7/5
f 8/12/6 7/10/6 5/1/6
