mtllib caldera_arch.mtl
o caldera_arch
v -6.096589 6.000000 -1.333908
v -3.903625 6.000000 -1.158096
v -3.903625 0.000000 -1.158096
v -6.096589 0.000000 -1.333908
v -6.296375 0.000000 1.158096
v -4.103411 0.000000 1.333908
v -4.103411 6.000000 1.333908
v -6.296375 6.000000 1.158096
v -6.096589 0.000000 -1.333908
v -6.296375 0.000000 1.158096
v -6.296375 6.000000 1.158096
v -6.096589 6.000000 -1.333908
v -4.103411 0.000000 1.333908
v -3.903625 0.000000 -1.158096
v -3.903625 6.000000 -1.158096
v -4.103411 6.000000 1.333908
v -6.096589 6.000000 -1.333908
v -6.296375 6.000000 1.158096
v -4.103411 6.000000 1.333908
v -3.903625 6.000000 -1.158096
v -6.096589 0.000000 -1.333908
v -3.903625 0.000000 -1.158096
v -4.103411 0.000000 1.333908
v -6.296375 0.000000 1.158096
v 3.903625 6.000000 -1.158096
v 6.096589 6.000000 -1.333908
v 6.096589 0.000000 -1.333908
v 3.903625 0.000000 -1.158096
v 4.103411 0.000000 1.333908
v 6.296375 0.000000 1.158096
v 6.296375 6.000000 1.158096
v 4.103411 6.000000 1.333908
v 3.903625 0.000000 -1.158096
v 4.103411 0.000000 1.333908
v 4.103411 6.000000 1.333908
v 3.903625 6.000000 -1.158096
v 6.296375 0.000000 1.158096
v 6.096589 0.000000 -1.333908
v 6.096589 6.000000 -1.333908
v 6.296375 6.000000 1.158096
v 3.903625 6.000000 -1.158096
v 4.103411 6.000000 1.333908
v 6.296375 6.000000 1.158096
v 6.096589 6.000000 -1.333908
v 3.903625 0.000000 -1.158096
v 6.096589 0.000000 -1.333908
v 6.296375 0.000000 1.158096
v 4.103411 0.000000 1.333908
v 6.250000 6.175000 -1.075000
v 6.250000 6.175000 1.075000
v 6.250000 4.625000 1.075000
v 6.250000 4.625000 -1.075000
v 3.750000 4.625000 -1.075000
v 3.750000 4.625000 1.075000
v 3.750000 6.175000 1.075000
v 3.750000 6.175000 -1.075000
v 6.250000 4.625000 -1.075000
v 3.750000 4.625000 -1.075000
v 3.750000 6.175000 -1.075000
v 6.250000 6.175000 -1.075000
v 3.750000 4.625000 1.075000
v 6.250000 4.625000 1.075000
v 6.250000 6.175000 1.075000
v 3.750000 6.175000 1.075000
v 6.250000 6.175000 -1.075000
v 3.750000 6.175000 -1.075000
v 3.750000 6.175000 1.075000
v 6.250000 6.175000 1.075000
v 6.250000 4.625000 -1.075000
v 6.250000 4.625000 1.075000
v 3.750000 4.625000 1.075000
v 3.750000 4.625000 -1.075000
v 4.875159 8.675000 -1.555977
v 5.950159 8.675000 0.305977
v 5.950159 7.125000 0.305977
v 4.875159 7.125000 -1.555977
v 2.710095 7.125000 -0.305977
v 3.785095 7.125000 1.555977
v 3.785095 8.675000 1.555977
v 2.710095 8.675000 -0.305977
v 4.875159 7.125000 -1.555977
v 2.710095 7.125000 -0.305977
v 2.710095 8.675000 -0.305977
v 4.875159 8.675000 -1.555977
v 3.785095 7.125000 1.555977
v 5.950159 7.125000 0.305977
v 5.950159 8.675000 0.305977
v 3.785095 8.675000 1.555977
v 4.875159 8.675000 -1.555977
v 2.710095 8.675000 -0.305977
v 3.785095 8.675000 1.555977
v 5.950159 8.675000 0.305977
v 4.875159 7.125000 -1.555977
v 5.950159 7.125000 0.305977
v 3.785095 7.125000 1.555977
v 2.710095 7.125000 -0.305977
v 2.194023 10.505127 -1.620032
v 4.055977 10.505127 -0.545032
v 4.055977 8.955127 -0.545032
v 2.194023 8.955127 -1.620032
v 0.944023 8.955127 0.545032
v 2.805977 8.955127 1.620032
v 2.805977 10.505127 1.620032
v 0.944023 10.505127 0.545032
v 2.194023 8.955127 -1.620032
v 0.944023 8.955127 0.545032
v 0.944023 10.505127 0.545032
v 2.194023 10.505127 -1.620032
v 2.805977 8.955127 1.620032
v 4.055977 8.955127 -0.545032
v 4.055977 10.505127 -0.545032
v 2.805977 10.505127 1.620032
v 2.194023 10.505127 -1.620032
v 0.944023 10.505127 0.545032
v 2.805977 10.505127 1.620032
v 4.055977 10.505127 -0.545032
v 2.194023 8.955127 -1.620032
v 4.055977 8.955127 -0.545032
v 2.805977 8.955127 1.620032
v 0.944023 8.955127 0.545032
v -1.075000 11.175000 -1.250000
v 1.075000 11.175000 -1.250000
v 1.075000 9.625000 -1.250000
v -1.075000 9.625000 -1.250000
v -1.075000 9.625000 1.250000
v 1.075000 9.625000 1.250000
v 1.075000 11.175000 1.250000
v -1.075000 11.175000 1.250000
v -1.075000 9.625000 -1.250000
v -1.075000 9.625000 1.250000
v -1.075000 11.175000 1.250000
v -1.075000 11.175000 -1.250000
v 1.075000 9.625000 1.250000
v 1.075000 9.625000 -1.250000
v 1.075000 11.175000 -1.250000
v 1.075000 11.175000 1.250000
v -1.075000 11.175000 -1.250000
v -1.075000 11.175000 1.250000
v 1.075000 11.175000 1.250000
v 1.075000 11.175000 -1.250000
v -1.075000 9.625000 -1.250000
v 1.075000 9.625000 -1.250000
v 1.075000 9.625000 1.250000
v -1.075000 9.625000 1.250000
v -4.055977 10.505127 -0.545032
v -2.194023 10.505127 -1.620032
v -2.194023 8.955127 -1.620032
v -4.055977 8.955127 -0.545032
v -2.805977 8.955127 1.620032
v -0.944023 8.955127 0.545032
v -0.944023 10.505127 0.545032
v -2.805977 10.505127 1.620032
v -4.055977 8.955127 -0.545032
v -2.805977 8.955127 1.620032
v -2.805977 10.505127 1.620032
v -4.055977 10.505127 -0.545032
v -0.944023 8.955127 0.545032
v -2.194023 8.955127 -1.620032
v -2.194023 10.505127 -1.620032
v -0.944023 10.505127 0.545032
v -4.055977 10.505127 -0.545032
v -2.805977 10.505127 1.620032
v -0.944023 10.505127 0.545032
v -2.194023 10.505127 -1.620032
v -4.055977 8.955127 -0.545032
v -2.194023 8.955127 -1.620032
v -0.944023 8.955127 0.545032
v -2.805977 8.955127 1.620032
v -5.950159 8.675000 0.305977
v -4.875159 8.675000 -1.555977
v -4.875159 7.125000 -1.555977
v -5.950159 7.125000 0.305977
v -3.785095 7.125000 1.555977
v -2.710095 7.125000 -0.305977
v -2.710095 8.675000 -0.305977
v -3.785095 8.675000 1.555977
v -5.950159 7.125000 0.305977
v -3.785095 7.125000 1.555977
v -3.785095 8.675000 1.555977
v -5.950159 8.675000 0.305977
v -2.710095 7.125000 -0.305977
v -4.875159 7.125000 -1.555977
v -4.875159 8.675000 -1.555977
v -2.710095 8.675000 -0.305977
v -5.950159 8.675000 0.305977
v -3.785095 8.675000 1.555977
v -2.710095 8.675000 -0.305977
v -4.875159 8.675000 -1.555977
v -5.950159 7.125000 0.305977
v -4.875159 7.125000 -1.555977
v -2.710095 7.125000 -0.305977
v -3.785095 7.125000 1.555977
v -6.250000 6.175000 1.075000
v -6.250000 6.175000 -1.075000
v -6.250000 4.625000 -1.075000
v -6.250000 4.625000 1.075000
v -3.750000 4.625000 1.075000
v -3.750000 4.625000 -1.075000
v -3.750000 6.175000 -1.075000
v -3.750000 6.175000 1.075000
v -6.250000 4.625000 1.075000
v -3.750000 4.625000 1.075000
v -3.750000 6.175000 1.075000
v -6.250000 6.175000 1.075000
v -3.750000 4.625000 -1.075000
v -6.250000 4.625000 -1.075000
v -6.250000 6.175000 -1.075000
v -3.750000 6.175000 -1.075000
v -6.250000 6.175000 1.075000
v -3.750000 6.175000 1.075000
v -3.750000 6.175000 -1.075000
v -6.250000 6.175000 -1.075000
v -6.250000 4.625000 1.075000
v -6.250000 4.625000 -1.075000
v -3.750000 4.625000 -1.075000
v -3.750000 4.625000 1.075000
v -0.500000 10.875000 -1.500000
v 0.500000 10.875000 -1.500000
v 0.500000 10.525000 -1.500000
v -0.500000 10.525000 -1.500000
v -0.500000 10.525000 1.500000
v 0.500000 10.525000 1.500000
v 0.500000 10.875000 1.500000
v -0.500000 10.875000 1.500000
v -0.500000 10.525000 -1.500000
v -0.500000 10.525000 1.500000
v -0.500000 10.875000 1.500000
v -0.500000 10.875000 -1.500000
v 0.500000 10.525000 1.500000
v 0.500000 10.525000 -1.500000
v 0.500000 10.875000 -1.500000
v 0.500000 10.875000 1.500000
v -0.500000 10.875000 -1.500000
v -0.500000 10.875000 1.500000
v 0.500000 10.875000 1.500000
v 0.500000 10.875000 -1.500000
v -0.500000 10.525000 -1.500000
v 0.500000 10.525000 -1.500000
v 0.500000 10.525000 1.500000
v -0.500000 10.525000 1.500000
vt 0.286619 0.546687
vt 0.363373 0.540533
vt 0.363373 0.540533
vt 0.286619 0.546687
vt 0.279627 0.459467
vt 0.356381 0.453313
vt 0.356381 0.453313
vt 0.279627 0.459467
vt 0.286619 0.546687
vt 0.279627 0.459467
vt 0.279627 0.459467
vt 0.286619 0.546687
vt 0.356381 0.453313
vt 0.363373 0.540533
vt 0.363373 0.540533
vt 0.356381 0.453313
vt 0.286619 0.546687
vt 0.279627 0.459467
vt 0.356381 0.453313
vt 0.363373 0.540533
vt 0.286619 0.546687
vt 0.363373 0.540533
vt 0.356381 0.453313
vt 0.279627 0.459467
vt 0.636627 0.540533
vt 0.713381 0.546687
vt 0.713381 0.546687
vt 0.636627 0.540533
vt 0.643619 0.453313
vt 0.720373 0.459467
vt 0.720373 0.459467
vt 0.643619 0.453313
vt 0.636627 0.540533
vt 0.643619 0.453313
vt 0.643619 0.453313
vt 0.636627 0.540533
vt 0.720373 0.459467
vt 0.713381 0.546687
vt 0.713381 0.546687
vt 0.720373 0.459467
vt 0.636627 0.540533
vt 0.643619 0.453313
vt 0.720373 0.459467
vt 0.713381 0.546687
vt 0.636627 0.540533
vt 0.713381 0.546687
vt 0.720373 0.459467
vt 0.643619 0.453313
vt 0.718750 0.537625
vt 0.718750 0.462375
vt 0.718750 0.462375
vt 0.718750 0.537625
vt 0.631250 0.537625
vt 0.631250 0.462375
vt 0.631250 0.462375
vt 0.631250 0.537625
vt 0.718750 0.537625
vt 0.631250 0.537625
vt 0.631250 0.537625
vt 0.718750 0.537625
vt 0.631250 0.462375
vt 0.718750 0.462375
vt 0.718750 0.462375
vt 0.631250 0.462375
vt 0.718750 0.537625
vt 0.631250 0.537625
vt 0.631250 0.462375
vt 0.718750 0.462375
vt 0.718750 0.537625
vt 0.718750 0.462375
vt 0.631250 0.462375
vt 0.631250 0.537625
vt 0.670631 0.554459
vt 0.708256 0.489291
vt 0.708256 0.489291
vt 0.670631 0.554459
vt 0.594853 0.510709
vt 0.632478 0.445541
vt 0.632478 0.445541
vt 0.594853 0.510709
vt 0.670631 0.554459
vt 0.594853 0.510709
vt 0.594853 0.510709
vt 0.670631 0.554459
vt 0.632478 0.445541
vt 0.708256 0.489291
vt 0.708256 0.489291
vt 0.632478 0.445541
vt 0.670631 0.554459
vt 0.594853 0.510709
vt 0.632478 0.445541
vt 0.708256 0.489291
vt 0.670631 0.554459
vt 0.708256 0.489291
vt 0.632478 0.445541
vt 0.594853 0.510709
vt 0.576791 0.556701
vt 0.641959 0.519076
vt 0.641959 0.519076
vt 0.576791 0.556701
vt 0.533041 0.480924
vt 0.598209 0.443299
vt 0.598209 0.443299
vt 0.533041 0.480924
vt 0.576791 0.556701
vt 0.533041 0.480924
vt 0.533041 0.480924
vt 0.576791 0.556701
vt 0.598209 0.443299
vt 0.641959 0.519076
vt 0.641959 0.519076
vt 0.598209 0.443299
vt 0.576791 0.556701
vt 0.533041 0.480924
vt 0.598209 0.443299
vt 0.641959 0.519076
vt 0.576791 0.556701
vt 0.641959 0.519076
vt 0.598209 0.443299
vt 0.533041 0.480924
vt 0.462375 0.543750
vt 0.537625 0.543750
vt 0.537625 0.543750
vt 0.462375 0.543750
vt 0.462375 0.456250
vt 0.537625 0.456250
vt 0.537625 0.456250
vt 0.462375 0.456250
vt 0.462375 0.543750
vt 0.462375 0.456250
vt 0.462375 0.456250
vt 0.462375 0.543750
vt 0.537625 0.456250
vt 0.537625 0.543750
vt 0.537625 0.543750
vt 0.537625 0.456250
vt 0.462375 0.543750
vt 0.462375 0.456250
vt 0.537625 0.456250
vt 0.537625 0.543750
vt 0.462375 0.543750
vt 0.537625 0.543750
vt 0.537625 0.456250
vt 0.462375 0.456250
vt 0.358041 0.519076
vt 0.423209 0.556701
vt 0.423209 0.556701
vt 0.358041 0.519076
vt 0.401791 0.443299
vt 0.466959 0.480924
vt 0.466959 0.480924
vt 0.401791 0.443299
vt 0.358041 0.519076
vt 0.401791 0.443299
vt 0.401791 0.443299
vt 0.358041 0.519076
vt 0.466959 0.480924
vt 0.423209 0.556701
vt 0.423209 0.556701
vt 0.466959 0.480924
vt 0.358041 0.519076
vt 0.401791 0.443299
vt 0.466959 0.480924
vt 0.423209 0.556701
vt 0.358041 0.519076
vt 0.423209 0.556701
vt 0.466959 0.480924
vt 0.401791 0.443299
vt 0.291744 0.489291
vt 0.329369 0.554459
vt 0.329369 0.554459
vt 0.291744 0.489291
vt 0.367522 0.445541
vt 0.405147 0.510709
vt 0.405147 0.510709
vt 0.367522 0.445541
vt 0.291744 0.489291
vt 0.367522 0.445541
vt 0.367522 0.445541
vt 0.291744 0.489291
vt 0.405147 0.510709
vt 0.329369 0.554459
vt 0.329369 0.554459
vt 0.405147 0.510709
vt 0.291744 0.489291
vt 0.367522 0.445541
vt 0.405147 0.510709
vt 0.329369 0.554459
vt 0.291744 0.489291
vt 0.329369 0.554459
vt 0.405147 0.510709
vt 0.367522 0.445541
vt 0.281250 0.462375
vt 0.281250 0.537625
vt 0.281250 0.537625
vt 0.281250 0.462375
vt 0.368750 0.462375
vt 0.368750 0.537625
vt 0.368750 0.537625
vt 0.368750 0.462375
vt 0.281250 0.462375
vt 0.368750 0.462375
vt 0.368750 0.462375
vt 0.281250 0.462375
vt 0.368750 0.537625
vt 0.281250 0.537625
vt 0.281250 0.537625
vt 0.368750 0.537625
vt 0.281250 0.462375
vt 0.368750 0.462375
vt 0.368750 0.537625
vt 0.281250 0.537625
vt 0.281250 0.462375
vt 0.281250 0.537625
vt 0.368750 0.537625
vt 0.368750 0.462375
vt 0.482500 0.552500
vt 0.517500 0.552500
vt 0.517500 0.552500
vt 0.482500 0.552500
vt 0.482500 0.447500
vt 0.517500 0.447500
vt 0.517500 0.447500
vt 0.482500 0.447500
vt 0.482500 0.552500
vt 0.482500 0.447500
vt 0.482500 0.447500
vt 0.482500 0.552500
vt 0.517500 0.447500
vt 0.517500 0.552500
vt 0.517500 0.552500
vt 0.517500 0.447500
vt 0.482500 0.552500
vt 0.482500 0.447500
vt 0.517500 0.447500
vt 0.517500 0.552500
vt 0.482500 0.552500
vt 0.517500 0.552500
vt 0.517500 0.447500
vt 0.482500 0.447500
vn 0.079915 0.000000 -0.996802
vn 0.079915 0.000000 -0.996802
vn 0.079915 0.000000 -0.996802
vn 0.079915 0.000000 -0.996802
vn -0.079915 0.000000 0.996802
vn -0.079915 0.000000 0.996802
vn -0.079915 0.000000 0.996802
vn -0.079915 0.000000 0.996802
vn -0.996802 0.000000 -0.079915
vn -0.996802 0.000000 -0.079915
vn -0.996802 0.000000 -0.079915
vn -0.996802 0.000000 -0.079915
vn 0.996802 0.000000 0.079915
vn 0.996802 0.000000 0.079915
vn 0.996802 0.000000 0.079915
vn 0.996802 0.000000 0.079915
vn 0.000000 1.000000 -0.000000
vn 0.000000 1.000000 -0.000000
vn 0.000000 1.000000 -0.000000
vn 0.000000 1.000000 -0.000000
vn 0.000000 -1.000000 0.000000
vn 0.000000 -1.000000 0.000000
vn 0.000000 -1.000000 0.000000
vn 0.000000 -1.000000 0.000000
vn -0.079915 0.000000 -0.996802
vn -0.079915 0.000000 -0.996802
vn -0.079915 0.000000 -0.996802
vn -0.079915 0.000000 -0.996802
vn 0.079915 0.000000 0.996802
vn 0.079915 0.000000 0.996802
vn 0.079915 0.000000 0.996802
vn 0.079915 0.000000 0.996802
vn -0.996802 0.000000 0.079915
vn -0.996802 0.000000 0.079915
vn -0.996802 0.000000 0.079915
vn -0.996802 0.000000 0.079915
vn 0.996802 0.000000 -0.079915
vn 0.996802 0.000000 -0.079915
vn 0.996802 0.000000 -0.079915
vn 0.996802 0.000000 -0.079915
vn 0.000000 1.000000 0.000000
vn 0.000000 1.000000 0.000000
vn 0.000000 1.000000 0.000000
vn 0.000000 1.000000 0.000000
vn 0.000000 -1.000000 0.000000
vn 0.000000 -1.000000 0.000000
vn 0.000000 -1.000000 0.000000
vn 0.000000 -1.000000 0.000000
vn 1.000000 0.000000 -0.000000
vn 1.000000 0.000000 -0.000000
vn 1.000000 0.000000 -0.000000
vn 1.000000 0.000000 -0.000000
vn -1.000000 0.000000 0.000000
vn -1.000000 0.000000 0.000000
vn -1.000000 0.000000 0.000000
vn -1.000000 0.000000 0.000000
vn 0.000000 0.000000 -1.000000
vn 0.000000 0.000000 -1.000000
vn 0.000000 0.000000 -1.000000
vn 0.000000 0.000000 -1.000000
vn 0.000000 0.000000 1.000000
vn 0.000000 0.000000 1.000000
vn 0.000000 0.000000 1.000000
vn 0.000000 0.000000 1.000000
vn 0.000000 1.000000 0.000000
vn 0.000000 1.000000 0.000000
vn 0.000000 1.000000 0.000000
vn 0.000000 1.000000 0.000000
vn 0.000000 -1.000000 0.000000
vn 0.000000 -1.000000 0.000000
vn 0.000000 -1.000000 0.000000
vn 0.000000 -1.000000 0.000000
vn 0.866025 0.000000 -0.500000
vn 0.866025 0.000000 -0.500000
vn 0.866025 0.000000 -0.500000
vn 0.866025 0.000000 -0.500000
vn -0.866025 0.000000 0.500000
vn -0.866025 0.000000 0.500000
vn -0.866025 0.000000 0.500000
vn -0.866025 0.000000 0.500000
vn -0.500000 0.000000 -0.866025
vn -0.500000 0.000000 -0.866025
vn -0.500000 0.000000 -0.866025
vn -0.500000 0.000000 -0.866025
vn 0.500000 0.000000 0.866025
vn 0.500000 0.000000 0.866025
vn 0.500000 0.000000 0.866025
vn 0.500000 0.000000 0.866025
vn 0.000000 1.000000 0.000000
vn 0.000000 1.000000 0.000000
vn 0.000000 1.000000 0.000000
vn 0.000000 1.000000 0.000000
vn 0.000000 -1.000000 0.000000
vn 0.000000 -1.000000 0.000000
vn 0.000000 -1.000000 0.000000
vn 0.000000 -1.000000 0.000000
vn 0.500000 0.000000 -0.866025
vn 0.500000 0.000000 -0.866025
vn 0.500000 0.000000 -0.866025
vn 0.500000 0.000000 -0.866025
vn -0.500000 0.000000 0.866025
vn -0.500000 0.000000 0.866025
vn -0.500000 0.000000 0.866025
vn -0.500000 0.000000 0.866025
vn -0.866025 0.000000 -0.500000
vn -0.866025 0.000000 -0.500000
vn -0.866025 0.000000 -0.500000
vn -0.866025 0.000000 -0.500000
vn 0.866025 0.000000 0.500000
vn 0.866025 0.000000 0.500000
vn 0.866025 0.000000 0.500000
vn 0.866025 0.000000 0.500000
vn 0.000000 1.000000 -0.000000
vn 0.000000 1.000000 -0.000000
vn 0.000000 1.000000 -0.000000
vn 0.000000 1.000000 -0.000000
vn 0.000000 -1.000000 0.000000
vn 0.000000 -1.000000 0.000000
vn 0.000000 -1.000000 0.000000
vn 0.000000 -1.000000 0.000000
vn 0.000000 0.000000 -1.000000
vn 0.000000 0.000000 -1.000000
vn 0.000000 0.000000 -1.000000
vn 0.000000 0.000000 -1.000000
vn 0.000000 0.000000 1.000000
vn 0.000000 0.000000 1.000000
vn 0.000000 0.000000 1.000000
vn 0.000000 0.000000 1.000000
vn -1.000000 0.000000 0.000000
vn -1.000000 0.000000 0.000000
vn -1.000000 0.000000 0.000000
vn -1.000000 0.000000 0.000000
vn 1.000000 0.000000 0.000000
vn 1.000000 0.000000 0.000000
vn 1.000000 0.000000 0.000000
vn 1.000000 0.000000 0.000000
vn 0.000000 1.000000 0.000000
vn 0.000000 1.000000 0.000000
vn 0.000000 1.000000 0.000000
vn 0.000000 1.000000 0.000000
vn 0.000000 -1.000000 0.000000
vn 0.000000 -1.000000 0.000000
vn 0.000000 -1.000000 0.000000
vn 0.000000 -1.000000 0.000000
vn -0.500000 0.000000 -0.866025
vn -0.500000 0.000000 -0.866025
vn -0.500000 0.000000 -0.866025
vn -0.500000 0.000000 -0.866025
vn 0.500000 0.000000 0.866025
vn 0.500000 0.000000 0.866025
vn 0.500000 0.000000 0.866025
vn 0.500000 0.000000 0.866025
vn -0.866025 0.000000 0.500000
vn -0.866025 0.000000 0.500000
vn -0.866025 0.000000 0.500000
vn -0.866025 0.000000 0.500000
vn 0.866025 0.000000 -0.500000
vn 0.866025 0.000000 -0.500000
vn 0.866025 0.000000 -0.500000
vn 0.866025 0.000000 -0.500000
vn 0.000000 1.000000 0.000000
vn 0.000000 1.000000 0.000000
vn 0.000000 1.000000 0.000000
vn 0.000000 1.000000 0.000000
vn 0.000000 -1.000000 0.000000
vn 0.000000 -1.000000 0.000000
vn 0.000000 -1.000000 0.000000
vn 0.000000 -1.000000 0.000000
vn -0.866025 0.000000 -0.500000
vn -0.866025 0.000000 -0.500000
vn -0.866025 0.000000 -0.500000
vn -0.866025 0.000000 -0.500000
vn 0.866025 0.000000 0.500000
vn 0.866025 0.000000 0.500000
vn 0.866025 0.000000 0.500000
vn 0.866025 0.000000 0.500000
vn -0.500000 0.000000 0.866025
vn -0.500000 0.000000 0.866025
vn -0.500000 0.000000 0.866025
vn -0.500000 0.000000 0.866025
vn 0.500000 0.000000 -0.866025
vn 0.500000 0.000000 -0.866025
vn 0.500000 0.000000 -0.866025
vn 0.500000 0.000000 -0.866025
vn -0.000000 1.000000 0.000000
vn -0.000000 1.000000 0.000000
vn -0.000000 1.000000 0.000000
vn -0.000000 1.000000 0.000000
vn 0.000000 -1.000000 0.000000
vn 0.000000 -1.000000 0.000000
vn 0.000000 -1.000000 0.000000
vn 0.000000 -1.000000 0.000000
vn -1.000000 0.000000 -0.000000
vn -1.000000 0.000000 -0.000000
vn -1.000000 0.000000 -0.000000
vn -1.000000 0.000000 -0.000000
vn 1.000000 0.000000 0.000000
vn 1.000000 0.000000 0.000000
vn 1.000000 0.000000 0.000000
vn 1.000000 0.000000 0.000000
vn 0.000000 0.000000 1.000000
vn 0.000000 0.000000 1.000000
vn 0.000000 0.000000 1.000000
vn 0.000000 0.000000 1.000000
vn 0.000000 0.000000 -1.000000
vn 0.000000 0.000000 -1.000000
vn 0.000000 0.000000 -1.000000
vn 0.000000 0.000000 -1.000000
vn -0.000000 1.000000 0.000000
vn -0.000000 1.000000 0.000000
vn -0.000000 1.000000 0.000000
vn -0.000000 1.000000 0.000000
vn 0.000000 -1.000000 0.000000
vn 0.000000 -1.000000 0.000000
vn 0.000000 -1.000000 0.000000
vn 0.000000 -1.000000 0.000000
vn 0.000000 0.000000 -1.000000
vn 0.000000 0.000000 -1.000000
vn 0.000000 0.000000 -1.000000
vn 0.000000 0.000000 -1.000000
vn 0.000000 0.000000 1.000000
vn 0.000000 0.000000 1.000000
vn 0.000000 0.000000 1.000000
vn 0.000000 0.000000 1.000000
vn -1.000000 0.000000 0.000000
vn -1.000000 0.000000 0.000000
vn -1.000000 0.000000 0.000000
vn -1.000000 0.000000 0.000000
vn 1.000000 0.000000 0.000000
vn 1.000000 0.000000 0.000000
vn 1.000000 0.000000 0.000000
vn 1.000000 0.000000 0.000000
vn 0.000000 1.000000 0.000000
vn 0.000000 1.000000 0.000000
vn 0.000000 1.000000 0.000000
vn 0.000000 1.000000 0.000000
vn 0.000000 -1.000000 0.000000
vn 0.000000 -1.000000 0.000000
vn 0.000000 -1.000000 0.000000
vn 0.000000 -1.000000 0.000000
usemtl basalt_side
f 1/1/1 2/2/2 3/3/3 4/4/4
f 5/5/5 6/6/6 7/7/7 8/8/8
f 9/9/9 10/10/10 11/11/11 12/12/12
f 13/13/13 14/14/14 15/15/15 16/16/16
f 17/17/17 18/18/18 19/19/19 20/20/20
f 21/21/21 22/22/22 23/23/23 24/24/24
f 25/25/25 26/26/26 27/27/27 28/28/28
f 29/29/29 30/30/30 31/31/31 32/32/32
f 33/33/33 34/34/34 35/35/35 36/36/36
f 37/37/37 38/38/38 39/39/39 40/40/40
f 41/41/41 42/42/42 43/43/43 44/44/44
f 45/45/45 46/46/46 47/47/47 48/48/48
usemtl basalt_top
f 49/49/49 50/50/50 51/51/51 52/52/52
f 53/53/53 54/54/54 55/55/55 56/56/56
f 57/57/57 58/58/58 59/59/59 60/60/60
f 61/61/61 62/62/62 63/63/63 64/64/64
f 65/65/65 66/66/66 67/67/67 68/68/68
f 69/69/69 70/70/70 71/71/71 72/72/72
usemtl obsidian
f 73/73/73 74/74/74 75/75/75 76/76/76
f 77/77/77 78/78/78 79/79/79 80/80/80
f 81/81/81 82/82/82 83/83/83 84/84/84
f 85/85/85 86/86/86 87/87/87 88/88/88
f 89/89/89 90/90/90 91/91/91 92/92/92
f 93/93/93 94/94/94 95/95/95 96/96/96
usemtl basalt_top
f 97/97/97 98/98/98 99/99/99 100/100/100
f 101/101/101 102/102/102 103/103/103 104/104/104
f 105/105/105 106/106/106 107/107/107 108/108/108
f 109/109/109 110/110/110 111/111/111 112/112/112
f 113/113/113 114/114/114 115/115/115 116/116/116
f 117/117/117 118/118/118 119/119/119 120/120/120
usemtl obsidian
f 121/121/121 122/122/122 123/123/123 124/124/124
f 125/125/125 126/126/126 127/127/127 128/128/128
f 129/129/129 130/130/130 131/131/131 132/132/132
f 133/133/133 134/134/134 135/135/135 136/136/136
f 137/137/137 138/138/138 139/139/139 140/140/140
f 141/141/141 142/142/142 143/143/143 144/144/144
usemtl basalt_top
f 145/145/145 146/146/146 147/147/147 148/148/148
f 149/149/149 150/150/150 151/151/151 152/152/152
f 153/153/153 154/154/154 155/155/155 156/156/156
f 157/157/157 158/158/158 159/159/159 160/160/160
f 161/161/161 162/162/162 163/163/163 164/164/164
f 165/165/165 166/166/166 167/167/167 168/168/168
usemtl obsidian
f 169/169/169 170/170/170 171/171/171 172/172/172
f 173/173/173 174/174/174 175/175/175 176/176/176
f 177/177/177 178/178/178 179/179/179 180/180/180
f 181/181/181 182/182/182 183/183/183 184/184/184
f 185/185/185 186/186/186 187/187/187 188/188/188
f 189/189/189 190/190/190 191/191/191 192/192/192
usemtl basalt_top
f 193/193/193 194/194/194 195/195/195 196/196/196
f 197/197/197 198/198/198 199/199/199 200/200/200
f 201/201/201 202/202/202 203/203/203 204/204/204
f 205/205/205 206/206/206 207/207/207 208/208/208
f 209/209/209 210/210/210 211/211/211 212/212/212
f 213/213/213 214/214/214 215/215/215 216/216/216
usemtl ember
f 217/217/217 218/218/218 219/219/219 220/220/220
f 221/221/221 222/222/222 223/223/223 224/224/224
f 225/225/225 226/226/226 227/227/227 228/228/228
f 229/229/229 230/230/230 231/231/231 232/232/232
f 233/233/233 234/234/234 235/235/235 236/236/236
f 237/237/237 238/238/238 239/239/239 240/240/240
