{
	"asset":{
		"generator":"Khronos glTF Blender I/O v4.4.56",
		"version":"2.0"
	},
	"extensionsUsed":[
		"KHR_materials_unlit"
	],
	"scene":0,
	"scenes":[
		{
			"name":"Scene",
			"nodes":[
				12
			]
		}
	],
	"nodes":[
		{
			"name":"Rock1",
			"translation":[
				3.912472724914551,
				0,
				0
			]
		},
		{
			"name":"Rock2",
			"translation":[
				-6.396137237548828,
				0,
				0
			]
		},
		{
			"name":"Rock3",
			"translation":[
				-0.8426961898803711,
				0,
				3.0107271671295166
			]
		},
		{
			"name":"Rock4",
			"translation":[
				0.4416999816894531,
				0,
				3.0343353748321533
			]
		},
		{
			"name":"Rock5",
			"translation":[
				1.854135513305664,
				0,
				3.0240633487701416
			]
		},
		{
			"name":"Rock6",
			"translation":[
				1.0819835662841797,
				0,
				0
			]
		},
		{
			"name":"Rock7",
			"translation":[
				-2.0399928092956543,
				0,
				0
			]
		},
		{
			"mesh":0,
			"name":"Rock8_blinn3_0"
		},
		{
			"children":[
				7
			],
			"name":"Rock8",
			"translation":[
				3.8330163955688477,
				0,
				3.0385258197784424
			]
		},
		{
			"children":[
				0,
				1,
				2,
				3,
				4,
				5,
				6,
				8
			],
			"name":"ModelSet",
			"scale":[
				70,
				69.99999237060547,
				69.99999237060547
			],
			"translation":[
				609.1334838867188,
				59.447872161865234,
				-27.71357536315918
			]
		},
		{
			"children":[
				9
			],
			"name":"RootNode"
		},
		{
			"children":[
				10
			],
			"name":"Sketchfab_Stone.fbx",
			"rotation":[
				0.70710688829422,
				0,
				0,
				0.7071066498756409
			],
			"scale":[
				0.009999999776482582,
				0.009999999776482582,
				0.009999999776482582
			]
		},
		{
			"children":[
				11
			],
			"name":"Sketchfab_model",
			"rotation":[
				-0.70710688829422,
				0,
				0,
				0.7071066498756409
			]
		}
	],
	"materials":[
		{
			"doubleSided":true,
			"extensions":{
				"KHR_materials_unlit":{}
			},
			"name":"blinn3",
			"pbrMetallicRoughness":{
				"baseColorTexture":{
					"index":0
				},
				"metallicFactor":0,
				"roughnessFactor":0.9
			}
		}
	],
	"meshes":[
		{
			"name":"Rock8_blinn3_0",
			"primitives":[
				{
					"attributes":{
						"POSITION":0,
						"NORMAL":1,
						"TEXCOORD_0":2,
						"TEXCOORD_1":3
					},
					"indices":4,
					"material":0
				}
			]
		}
	],
	"textures":[
		{
			"sampler":0,
			"source":0
		}
	],
	"images":[
		{
			"mimeType":"image/png",
			"name":"blinn3_baseColor",
			"uri":"blinn3_baseColor.png"
		}
	],
	"accessors":[
		{
			"bufferView":0,
			"componentType":5126,
			"count":84,
			"max":[
				-8.080296516418457,
				0.941730260848999,
				0.9894516468048096
			],
			"min":[
				-9.331827163696289,
				-0.8563022613525391,
				-0.2259928435087204
			],
			"type":"VEC3"
		},
		{
			"bufferView":1,
			"componentType":5126,
			"count":84,
			"type":"VEC3"
		},
		{
			"bufferView":2,
			"componentType":5126,
			"count":84,
			"type":"VEC2"
		},
		{
			"bufferView":3,
			"componentType":5126,
			"count":84,
			"type":"VEC2"
		},
		{
			"bufferView":4,
			"componentType":5123,
			"count":234,
			"type":"SCALAR"
		}
	],
	"bufferViews":[
		{
			"buffer":0,
			"byteLength":1008,
			"byteOffset":0,
			"target":34962
		},
		{
			"buffer":0,
			"byteLength":1008,
			"byteOffset":1008,
			"target":34962
		},
		{
			"buffer":0,
			"byteLength":672,
			"byteOffset":2016,
			"target":34962
		},
		{
			"buffer":0,
			"byteLength":672,
			"byteOffset":2688,
			"target":34962
		},
		{
			"buffer":0,
			"byteLength":468,
			"byteOffset":3360,
			"target":34963
		}
	],
	"samplers":[
		{
			"magFilter":9729,
			"minFilter":9987
		}
	],
	"buffers":[
		{
			"byteLength":3828,
			"uri":"rock3_lod2.bin"
		}
	]
}
