# Blender 4.4.1
# www.blender.org
mtllib enemy_core4.mtl
o enemy_core4
v -0.110052 0.333873 -0.072413
v -0.096329 0.383346 -0.040382
v -0.632898 0.173095 0.298017
v -0.617078 0.530090 -0.298017
v -0.632898 0.173095 -0.298017
v -0.866346 0.331467 -0.209497
v -0.650351 0.184935 0.291399
v -0.630778 0.220944 0.298017
v -0.571039 0.360898 0.298017
v -0.946915 -0.024247 -0.034983
v -0.943777 -0.068944 0.000000
v -0.862402 -0.040456 0.108988
v -0.769202 0.028349 0.209497
v -0.947501 -0.015691 -0.041695
v -0.907999 0.228234 -0.144319
v -0.542016 0.428647 0.298017
v -0.888560 0.339966 -0.189207
v -0.871467 0.377425 -0.187556
v -0.796161 0.526668 -0.169602
v -0.684952 0.045735 -0.253018
v -0.600029 0.105036 -0.298017
v -0.088732 0.398806 -0.298017
v -0.891893 -0.131991 0.000000
v -0.815480 -0.054111 -0.146092
v -0.743526 -0.090870 0.189454
v -0.758070 -0.006385 -0.209497
v -0.743327 -0.085739 0.194050
v -0.690781 0.031473 0.247980
v -0.625790 0.158377 0.298017
v -0.518829 0.277946 0.298017
v -0.742988 -0.075207 0.203415
v -0.739410 -0.064612 0.209497
v -0.563589 0.652055 -0.245628
v -0.555895 0.654995 -0.245690
v -0.470326 0.456276 0.298017
v -0.519122 0.437796 0.298017
v -0.683027 0.588905 -0.209497
v -0.606076 0.635093 -0.245667
v -0.085993 0.408404 -0.298017
v -0.074897 0.448498 -0.298017
v -0.420828 0.608089 -0.298017
v -0.467310 0.624281 -0.279983
v -0.445018 0.444907 0.298017
v -0.391929 0.420460 0.298017
v -0.862402 -0.040456 0.108988
v -0.862402 -0.040456 0.108988
v -0.769202 0.028349 0.209497
v -0.769202 0.028349 0.209497
v -0.650351 0.184935 0.291399
v -0.650351 0.184935 0.291399
v -0.630778 0.220944 0.298017
v -0.630778 0.220944 0.298017
v -0.571039 0.360898 0.298017
v -0.946915 -0.024247 -0.034983
v -0.943777 -0.068944 0.000000
v -0.943777 -0.068944 0.000000
v -0.947501 -0.015691 -0.041695
v -0.947501 -0.015691 -0.041695
v -0.888560 0.339966 -0.189207
v -0.888560 0.339966 -0.189207
v -0.871467 0.377425 -0.187556
v -0.871467 0.377425 -0.187556
v -0.907999 0.228234 -0.144319
v -0.907999 0.228234 -0.144319
v -0.542016 0.428647 0.298017
v -0.796161 0.526668 -0.169602
v -0.600029 0.105036 -0.298017
v -0.600029 0.105036 -0.298017
v -0.088732 0.398806 -0.298017
v -0.467310 0.624281 -0.279983
v -0.555895 0.654995 -0.245690
v -0.684952 0.045735 -0.253018
v -0.684952 0.045735 -0.253018
v -0.891893 -0.131991 0.000000
v -0.891893 -0.131991 0.000000
v -0.815480 -0.054111 -0.146092
v -0.815480 -0.054111 -0.146092
v -0.758070 -0.006385 -0.209497
v -0.758070 -0.006385 -0.209497
v -0.743526 -0.090870 0.189454
v -0.743327 -0.085739 0.194050
v -0.742988 -0.075207 0.203415
v -0.742988 -0.075207 0.203415
v -0.739410 -0.064612 0.209497
v -0.739410 -0.064612 0.209497
v -0.518829 0.277946 0.298017
v -0.625790 0.158377 0.298017
v -0.625790 0.158377 0.298017
v -0.690781 0.031473 0.247980
v -0.690781 0.031473 0.247980
v -0.470326 0.456276 0.298017
v -0.519122 0.437796 0.298017
v -0.563589 0.652055 -0.245628
v -0.683027 0.588905 -0.209497
v -0.683027 0.588905 -0.209497
v -0.606076 0.635093 -0.245667
v -0.606076 0.635093 -0.245667
v -0.085993 0.408404 -0.298017
v -0.074897 0.448498 -0.298017
v -0.420828 0.608089 -0.298017
v -0.420828 0.608089 -0.298017
v -0.445018 0.444907 0.298017
v -0.391929 0.420460 0.298017
v -0.632898 0.173095 0.298017
v -0.632898 0.173095 0.298017
v -0.632898 0.173095 0.298017
v -0.866346 0.331467 -0.209497
v -0.866346 0.331467 -0.209497
v -0.866346 0.331467 -0.209497
v -0.866346 0.331467 -0.209497
v -0.866346 0.331467 -0.209497
v -0.866346 0.331467 -0.209497
v -0.632898 0.173095 -0.298017
v -0.632898 0.173095 -0.298017
v -0.632898 0.173095 -0.298017
v -0.617078 0.530090 -0.298017
v -0.617078 0.530090 -0.298017
v -0.617078 0.530090 -0.298017
vn -0.7942 0.3390 0.5044
vn -0.0000 -0.0000 1.0000
vn 0.6051 -0.5441 0.5812
vn 0.6040 -0.5403 0.5858
vn -0.3291 0.8690 0.3694
vn -0.3450 0.8633 0.3684
vn 0.9637 -0.2667 0.0127
vn 0.9615 -0.2744 0.0119
vn 0.4050 0.8778 0.2557
vn 0.4042 0.8779 0.2568
vn 0.6046 -0.5383 0.5871
vn 0.3957 0.8809 0.2597
vn -0.6199 -0.5102 0.5962
vn -0.3627 -0.1752 0.9153
vn -0.3454 0.0153 0.9383
vn -0.6431 -0.2061 0.7375
vn -0.4318 -0.1384 0.8913
vn -0.7944 0.3403 0.5031
vn -0.5792 0.2978 -0.7589
vn -0.6983 -0.1589 -0.6979
vn -0.6199 -0.5102 -0.5962
vn -0.3627 -0.1752 -0.9153
vn -0.3454 0.0153 -0.9383
vn -0.5782 0.4117 -0.7044
vn -0.6431 -0.2061 -0.7375
vn -0.4723 0.3363 -0.8147
vn -0.4318 -0.1384 -0.8913
vn -0.0000 -0.0000 -1.0000
vn 0.4881 -0.8500 -0.1980
vn -0.1804 0.4539 -0.8726
vn -0.0000 0.0001 1.0000
vn -0.0000 -0.0001 1.0000
vn 0.4040 0.8779 0.2573
vn -0.6199 -0.5101 0.5962
vn -0.7943 0.3403 0.5032
vn -0.0000 -0.0001 -1.0000
vn 0.4882 -0.8500 -0.1978
vn 0.4930 -0.8493 -0.1887
vn 0.4883 -0.8498 -0.1985
vn 0.4886 -0.8499 -0.1975
vt 0.609721 0.016531
vt 1.000000 0.088732
vt 0.802536 0.579467
vt 0.000000 0.000000
vt 1.000000 0.875915
vt 0.873840 0.873840
vt 0.875915 0.875915
vt 0.871863 0.000000
vt 0.922857 0.579548
vt 0.071294 0.000000
vt 1.000000 0.146618
vt 1.000000 0.928665
vt 0.579945 0.199015
vt 1.000000 0.928744
vt 0.146618 0.146618
vt 1.000000 0.000000
vt 1.000000 0.836471
vt 0.162487 0.000000
vt 0.836471 0.836471
vt 0.851751 0.161476
vt 1.000000 1.000000
vt 0.162487 0.162487
vt 0.144484 0.000000
vt 0.928636 0.000000
vt 0.127860 0.127860
vt 1.000000 0.128137
vt 0.928706 0.000000
vt 0.928636 0.928636
vt 0.146536 0.000000
vt 0.684585 0.684585
vt 0.071256 0.000000
vt 0.769160 0.259733
vt 0.746167 0.564016
vt 0.994400 0.391998
vt 0.576295 0.335731
vt 0.466283 0.132195
vt 0.675472 0.018848
vt 1.000000 0.684585
vt 0.897905 0.818551
vt 0.890809 0.846171
vt 0.953951 0.264431
vt 0.853464 0.000000
vt 1.000000 0.256805
vt 0.928665 0.928665
vt 0.278934 0.146708
vt 1.000000 0.817491
vt 1.000000 0.219967
vt 1.000000 0.127860
vt 0.219967 0.219967
vt 0.771574 0.323908
vt 0.707184 0.497605
vt 0.685547 0.640349
vt 0.088732 0.088732
vt 0.743195 0.000000
vt 0.850594 0.570976
vt 0.758096 0.632988
vt 0.998154 0.653005
vt 0.182509 0.000000
vt 0.873840 0.000000
s 0
f 49/1/1 53/2/1 55/3/1
s 1
f 52/4/2 103/4/2 91/4/2
s 0
f 1/4/3 81/5/3 80/6/3
f 81/7/4 86/8/4 89/9/4
f 35/10/5 93/11/5 92/12/5
f 94/13/6 16/14/6 93/15/6
f 2/16/7 98/17/7 99/18/7
f 1/16/8 98/19/8 2/4/8
f 100/20/9 2/21/9 99/22/9
f 2/21/10 71/23/10 102/24/10
f 44/25/11 86/26/11 2/21/11
f 35/27/12 102/28/12 71/29/12
s 1
f 46/4/13 75/4/13 27/4/13
f 29/4/14 105/4/14 90/4/14
f 106/4/15 8/4/15 50/4/15
f 48/4/16 31/4/16 85/4/16
f 7/4/17 32/4/17 28/4/17
s 0
f 54/30/18 16/31/18 61/32/18
s 1
f 62/4/19 107/4/19 60/4/19
f 17/4/20 108/4/20 64/4/20
f 10/4/21 76/4/21 74/4/21
f 68/4/22 72/4/22 113/4/22
f 109/4/23 116/4/23 114/4/23
f 117/4/24 95/4/24 97/4/24
f 15/4/25 78/4/25 77/4/25
f 112/4/26 19/4/26 37/4/26
f 6/4/27 73/4/27 79/4/27
f 40/4/28 69/4/28 115/4/28
s 0
f 21/33/29 1/4/29 23/34/29
s 1
f 4/4/30 33/4/30 42/4/30
s 0
f 45/35/1 47/36/1 49/1/1
f 49/1/1 51/37/1 53/2/1
f 53/2/1 54/38/1 55/3/1
f 55/3/1 45/35/1 49/1/1
s 1
f 91/4/2 36/4/31 65/4/2
f 65/4/2 9/4/2 52/4/2
f 52/4/2 104/4/2 87/4/2
f 87/4/2 30/4/2 103/4/2
f 103/4/2 43/4/32 91/4/2
f 91/4/2 65/4/2 52/4/2
f 52/4/2 87/4/2 103/4/2
s 0
f 1/4/3 2/16/3 81/5/3
f 84/39/4 82/40/4 81/7/4
f 81/7/4 2/4/4 86/8/4
f 86/8/4 88/41/4 89/9/4
f 89/9/4 84/39/4 81/7/4
f 35/10/5 71/42/5 93/11/5
f 94/13/6 66/43/6 16/14/6
f 16/14/6 92/44/6 93/15/6
f 93/15/6 96/45/6 94/13/6
f 1/16/8 22/46/8 98/19/8
f 100/20/9 70/47/9 2/21/9
f 102/24/10 44/48/10 2/21/10
f 2/21/33 70/49/33 71/23/33
s 1
f 27/4/13 83/4/13 46/4/13
f 46/4/13 56/4/13 75/4/13
f 75/4/13 25/4/34 27/4/13
f 48/4/16 12/4/16 31/4/16
f 28/4/17 3/4/17 7/4/17
f 7/4/17 13/4/17 32/4/17
s 0
f 61/32/18 59/50/18 63/51/18
f 63/51/18 57/52/18 54/30/18
f 54/30/18 53/53/18 16/31/18
f 16/31/18 66/54/18 61/32/18
f 61/32/35 63/51/35 54/30/35
s 1
f 74/4/21 11/4/21 10/4/21
f 10/4/21 58/4/21 76/4/21
f 117/4/24 110/4/24 95/4/24
f 77/4/25 14/4/25 15/4/25
f 15/4/25 111/4/25 78/4/25
f 112/4/26 18/4/26 19/4/26
f 6/4/27 5/4/27 73/4/27
f 118/4/28 101/4/28 40/4/28
f 40/4/28 39/4/36 69/4/28
f 69/4/28 67/4/28 115/4/28
f 115/4/28 118/4/28 40/4/28
s 0
f 23/34/37 24/55/37 26/56/37
f 26/56/38 20/57/38 21/33/38
f 21/33/39 22/58/39 1/4/39
f 1/4/37 80/59/37 23/34/37
f 23/34/40 26/56/40 21/33/40
s 1
f 42/4/30 41/4/30 4/4/30
f 4/4/30 38/4/30 33/4/30
f 33/4/30 34/4/30 42/4/30
