{
	"asset":{
		"generator":"Khronos glTF Blender I/O v4.4.56",
		"version":"2.0"
	},
	"scene":0,
	"scenes":[
		{
			"name":"Scene",
			"nodes":[
				5
			]
		}
	],
	"nodes":[
		{
			"mesh":0,
			"name":"defaultMaterial",
			"translation":[
				-3.0517578125e-05,
				0,
				-1.52587890625e-05
			]
		},
		{
			"children":[
				0
			],
			"name":"Lowpoly",
			"translation":[
				-3.0517578125e-05,
				0,
				-1.52587890625e-05
			]
		},
		{
			"mesh":1,
			"name":"defaultMaterial.001",
			"translation":[
				-3.0517578125e-05,
				0,
				-1.52587890625e-05
			]
		},
		{
			"children":[
				2
			],
			"name":"Lowpolystolpe",
			"translation":[
				-3.0517578125e-05,
				0,
				-1.52587890625e-05
			]
		},
		{
			"children":[
				1,
				3
			],
			"name":"Collada visual scene group",
			"rotation":[
				0.70710688829422,
				0,
				0,
				0.7071066498756409
			],
			"translation":[
				0,
				1.3835233403369784e-05,
				4.791649189428426e-06
			]
		},
		{
			"children":[
				4
			],
			"name":"Sketchfab_model",
			"rotation":[
				-0.7071069478988647,
				0,
				0,
				0.7071066498756409
			],
			"scale":[
				0.010201571509242058,
				0.010201572440564632,
				0.010201572440564632
			],
			"translation":[
				3.772826671600342,
				3.583786725997925,
				1.9533133506774902
			]
		}
	],
	"materials":[
		{
			"doubleSided":true,
			"name":"lambert1",
			"normalTexture":{
				"index":0
			},
			"occlusionTexture":{
				"index":1
			},
			"pbrMetallicRoughness":{
				"baseColorTexture":{
					"index":2
				},
				"metallicRoughnessTexture":{
					"index":1
				}
			}
		}
	],
	"meshes":[
		{
			"name":"defaultMaterial",
			"primitives":[
				{
					"attributes":{
						"POSITION":0,
						"NORMAL":1,
						"TEXCOORD_0":2
					},
					"indices":3,
					"material":0
				}
			]
		},
		{
			"name":"defaultMaterial.001",
			"primitives":[
				{
					"attributes":{
						"POSITION":4,
						"NORMAL":5,
						"TEXCOORD_0":6
					},
					"indices":7,
					"material":0
				}
			]
		}
	],
	"textures":[
		{
			"sampler":0,
			"source":0
		},
		{
			"sampler":0,
			"source":1
		},
		{
			"sampler":0,
			"source":2
		}
	],
	"images":[
		{
			"mimeType":"image/png",
			"name":"lambert1_normal",
			"uri":"lambert1_normal.png"
		},
		{
			"mimeType":"image/png",
			"name":"lambert1_metallicRoughness",
			"uri":"lambert1_metallicRoughness.png"
		},
		{
			"mimeType":"image/jpeg",
			"name":"lambert1_baseColor",
			"uri":"lambert1_baseColor.jpg"
		}
	],
	"accessors":[
		{
			"bufferView":0,
			"componentType":5126,
			"count":5602,
			"max":[
				131.6932373046875,
				160.022216796875,
				1050.1644287109375
			],
			"min":[
				-131.76022338867188,
				-117.61564636230469,
				-850
			],
			"type":"VEC3"
		},
		{
			"bufferView":1,
			"componentType":5126,
			"count":5602,
			"type":"VEC3"
		},
		{
			"bufferView":2,
			"componentType":5126,
			"count":5602,
			"type":"VEC2"
		},
		{
			"bufferView":3,
			"componentType":5123,
			"count":13998,
			"type":"SCALAR"
		},
		{
			"bufferView":4,
			"componentType":5126,
			"count":1040,
			"max":[
				131.0179443359375,
				10.083854675292969,
				1032.3507080078125
			],
			"min":[
				-128.38186645507812,
				-299.454833984375,
				-827.970947265625
			],
			"type":"VEC3"
		},
		{
			"bufferView":5,
			"componentType":5126,
			"count":1040,
			"type":"VEC3"
		},
		{
			"bufferView":6,
			"componentType":5126,
			"count":1040,
			"type":"VEC2"
		},
		{
			"bufferView":7,
			"componentType":5123,
			"count":2496,
			"type":"SCALAR"
		}
	],
	"bufferViews":[
		{
			"buffer":0,
			"byteLength":67224,
			"byteOffset":0,
			"target":34962
		},
		{
			"buffer":0,
			"byteLength":67224,
			"byteOffset":67224,
			"target":34962
		},
		{
			"buffer":0,
			"byteLength":44816,
			"byteOffset":134448,
			"target":34962
		},
		{
			"buffer":0,
			"byteLength":27996,
			"byteOffset":179264,
			"target":34963
		},
		{
			"buffer":0,
			"byteLength":12480,
			"byteOffset":207260,
			"target":34962
		},
		{
			"buffer":0,
			"byteLength":12480,
			"byteOffset":219740,
			"target":34962
		},
		{
			"buffer":0,
			"byteLength":8320,
			"byteOffset":232220,
			"target":34962
		},
		{
			"buffer":0,
			"byteLength":4992,
			"byteOffset":240540,
			"target":34963
		}
	],
	"samplers":[
		{
			"magFilter":9729,
			"minFilter":9987
		}
	],
	"buffers":[
		{
			"byteLength":245532,
			"uri":"bridge.bin"
		}
	]
}
