# Blender 4.4.1
# www.blender.org
mtllib map_top_equipment_02.mtl
o 台座上側装置_02
v -0.000000 33.000000 -7.500000
v -1.463177 33.000000 -7.355889
v -0.000001 30.000000 -7.500000
v 1.463178 33.000000 -7.355889
v 1.463177 30.000000 -7.355889
v 2.870126 30.000000 -6.929096
v 4.166776 30.000000 -6.236022
v 2.870126 33.000000 -6.929096
v -2.870126 30.000000 -6.929096
v -1.463178 30.000000 -7.355889
v 5.303300 30.000000 -5.303300
v 6.236022 30.000000 -4.166777
v 5.303301 33.000000 -5.303301
v 4.166776 33.000000 -6.236022
v 6.929096 30.000000 -2.870126
v 7.355889 30.000000 -1.463177
v 6.929096 33.000000 -2.870126
v 6.236022 33.000000 -4.166777
v 7.500000 30.000000 0.000000
v 2.870126 30.000000 6.929096
v 1.463177 30.000000 7.355889
v 2.870126 33.000000 6.929096
v 4.166776 30.000000 6.236022
v 1.463177 33.000000 7.355889
v 5.303300 30.000000 5.303301
v -0.000000 30.000000 7.500000
v -1.463178 30.000000 7.355889
v -2.870126 30.000000 6.929096
v 6.929097 30.000000 2.870126
v 6.236023 30.000000 4.166776
v 6.929097 33.000000 2.870126
v 7.355889 30.000000 1.463177
v 7.355889 33.000000 1.463177
v 7.500000 33.000000 0.000000
v 7.355889 33.000000 -1.463177
v 6.236023 33.000000 4.166776
v 5.303300 33.000000 5.303301
v 4.166776 33.000000 6.236022
v -4.166778 30.000000 6.236022
v -2.870126 33.000000 6.929096
v -4.166777 33.000000 6.236022
v -1.463178 33.000000 7.355889
v -5.303302 30.000000 5.303301
v -6.236022 30.000000 4.166777
v -6.929096 30.000000 2.870126
v -7.355889 30.000000 1.463177
v -6.929096 33.000000 2.870126
v -6.236022 33.000000 4.166777
v -7.500000 30.000000 0.000000
v -7.355889 30.000000 -1.463177
v -7.500000 33.000000 0.000000
v -7.355889 33.000000 1.463177
v -6.929097 30.000000 -2.870126
v -6.236023 30.000000 -4.166776
v -6.929097 33.000000 -2.870126
v -7.355889 33.000000 -1.463177
v -6.236023 33.000000 -4.166776
v -5.303301 33.000000 -5.303301
v -5.303302 30.000000 -5.303300
v -4.166778 30.000000 -6.236022
v -4.166778 33.000000 -6.236022
v -2.870126 33.000000 -6.929096
v -5.303302 33.000000 5.303301
v 0.000000 33.000000 7.500000
vn -0.0000 -0.0000 -1.0000
vn -0.1951 -0.0000 -0.9808
vn 0.1951 -0.0000 -0.9808
vn 0.3827 -0.0000 -0.9239
vn -0.0000 -1.0000 -0.0000
vn 0.5556 -0.0000 -0.8315
vn 0.8315 -0.0000 -0.5556
vn 0.7071 -0.0000 -0.7071
vn 0.9808 -0.0000 -0.1951
vn 0.9239 -0.0000 -0.3827
vn 0.1951 -0.0000 0.9808
vn 0.3827 -0.0000 0.9239
vn 0.5556 -0.0000 0.8315
vn 0.8315 -0.0000 0.5556
vn 0.9239 -0.0000 0.3827
vn 0.9808 -0.0000 0.1951
vn 1.0000 -0.0000 -0.0000
vn 0.7071 -0.0000 0.7071
vn -0.5556 -0.0000 0.8315
vn -0.3827 -0.0000 0.9239
vn -0.1951 -0.0000 0.9808
vn -0.9808 -0.0000 0.1951
vn -0.9239 -0.0000 0.3827
vn -0.8315 -0.0000 0.5556
vn -0.9808 -0.0000 -0.1951
vn -1.0000 -0.0000 -0.0000
vn -0.8315 -0.0000 -0.5556
vn -0.9239 -0.0000 -0.3827
vn -0.7071 -0.0000 -0.7071
vn -0.5556 -0.0000 -0.8315
vn -0.3827 -0.0000 -0.9239
vn -0.7071 -0.0000 0.7071
vn -0.0000 -0.0000 1.0000
vt 1.000000 1.000000
vt 0.968750 0.500000
vt 1.000000 0.500000
vt 0.031250 1.000000
vt 0.000000 1.000000
vt 0.000000 0.500000
vt 0.031250 0.500000
vt 0.062500 1.000000
vt 0.250000 0.490000
vt 0.203178 0.485388
vt 0.158156 0.471731
vt 0.116663 0.449553
vt 0.080294 0.419706
vt 0.093750 1.000000
vt 0.062500 0.500000
vt 0.341844 0.471731
vt 0.296822 0.485388
vt 0.050447 0.383337
vt 0.028269 0.341844
vt 0.156250 1.000000
vt 0.125000 1.000000
vt 0.125000 0.500000
vt 0.093750 0.500000
vt 0.014612 0.296822
vt 0.010000 0.250000
vt 0.218750 1.000000
vt 0.187500 1.000000
vt 0.187500 0.500000
vt 0.156250 0.500000
vt 0.158156 0.028269
vt 0.203178 0.014612
vt 0.250000 0.010000
vt 0.468750 0.500000
vt 0.468750 1.000000
vt 0.437500 1.000000
vt 0.437500 0.500000
vt 0.406250 1.000000
vt 0.080294 0.080294
vt 0.116663 0.050447
vt 0.028269 0.158156
vt 0.296822 0.014612
vt 0.341844 0.028269
vt 0.050447 0.116663
vt 0.343750 1.000000
vt 0.312500 1.000000
vt 0.312500 0.500000
vt 0.281250 0.500000
vt 0.014612 0.203178
vt 0.281250 1.000000
vt 0.250000 0.500000
vt 0.250000 1.000000
vt 0.218750 0.500000
vt 0.343750 0.500000
vt 0.375000 0.500000
vt 0.406250 0.500000
vt 0.375000 1.000000
vt 0.383337 0.050447
vt 0.419706 0.080294
vt 0.593750 0.500000
vt 0.593750 1.000000
vt 0.562500 1.000000
vt 0.531250 0.500000
vt 0.562500 0.500000
vt 0.531250 1.000000
vt 0.449553 0.116663
vt 0.471731 0.158156
vt 0.485388 0.203178
vt 0.490000 0.250000
vt 0.718750 1.000000
vt 0.687500 1.000000
vt 0.687500 0.500000
vt 0.656250 0.500000
vt 0.656250 1.000000
vt 0.485388 0.296822
vt 0.471731 0.341844
vt 0.781250 1.000000
vt 0.750000 1.000000
vt 0.750000 0.500000
vt 0.718750 0.500000
vt 0.449553 0.383337
vt 0.843750 1.000000
vt 0.812500 1.000000
vt 0.812500 0.500000
vt 0.781250 0.500000
vt 0.843750 0.500000
vt 0.875000 1.000000
vt 0.875000 0.500000
vt 0.419706 0.419706
vt 0.383337 0.449553
vt 0.906250 1.000000
vt 0.937500 1.000000
vt 0.906250 0.500000
vt 0.937500 0.500000
vt 0.968750 1.000000
vt 0.625000 0.500000
vt 0.625000 1.000000
vt 0.500000 1.000000
vt 0.500000 0.500000
s 1
f 3/1/1 2/2/2 1/3/1
f 5/4/3 3/5/1 1/6/1
f 5/4/3 1/6/1 4/7/3
f 6/8/4 5/4/3 4/7/3
s 0
f 3/9/5 5/10/5 6/11/5
f 6/11/5 7/12/5 11/13/5
s 1
f 7/14/6 6/8/4 8/15/4
f 6/8/4 4/7/3 8/15/4
s 0
f 6/11/5 11/13/5 9/16/5
f 9/16/5 10/17/5 6/11/5
f 10/17/5 3/9/5 6/11/5
f 11/13/5 12/18/5 15/19/5
s 1
f 12/20/7 11/21/8 13/22/8
f 11/21/8 14/23/6 13/22/8
f 11/21/8 7/14/6 14/23/6
s 0
f 11/13/5 15/19/5 9/16/5
f 15/19/5 16/24/5 19/25/5
s 1
f 16/26/9 15/27/10 17/28/10
f 15/27/10 18/29/7 17/28/10
f 15/27/10 12/20/7 18/29/7
s 0
f 15/19/5 19/25/5 20/30/5
f 9/16/5 15/19/5 20/30/5
f 20/30/5 21/31/5 26/32/5
s 1
f 24/33/11 21/34/11 20/35/12
f 22/36/12 20/35/12 23/37/13
f 24/33/11 20/35/12 22/36/12
s 0
f 25/38/5 23/39/5 20/30/5
f 29/40/5 25/38/5 20/30/5
f 26/32/5 27/41/5 20/30/5
f 27/41/5 28/42/5 20/30/5
f 20/30/5 28/42/5 9/16/5
f 19/25/5 29/40/5 20/30/5
f 29/40/5 30/43/5 25/38/5
s 1
f 30/44/14 29/45/15 31/46/15
f 29/45/15 33/47/16 31/46/15
s 0
f 19/25/5 32/48/5 29/40/5
s 1
f 29/45/15 32/49/16 33/47/16
f 32/49/16 34/50/17 33/47/16
f 32/49/16 19/51/17 34/50/17
f 19/51/17 35/52/9 34/50/17
f 19/51/17 16/26/9 35/52/9
f 16/26/9 17/28/10 35/52/9
f 30/44/14 31/46/15 36/53/14
f 37/54/18 30/44/14 36/53/14
f 38/55/13 25/56/18 37/54/18
f 37/54/18 25/56/18 30/44/14
f 22/36/12 23/37/13 38/55/13
f 38/55/13 23/37/13 25/56/18
s 0
f 28/42/5 39/57/5 43/58/5
s 1
f 41/59/19 39/60/19 28/61/20
f 28/61/20 42/62/21 40/63/20
f 41/59/19 28/61/20 40/63/20
f 28/61/20 27/64/21 42/62/21
s 0
f 43/58/5 44/65/5 28/42/5
f 44/65/5 45/66/5 28/42/5
f 28/42/5 45/66/5 9/16/5
f 45/66/5 46/67/5 49/68/5
s 1
f 46/69/22 45/70/23 47/71/23
f 45/70/23 48/72/24 47/71/23
f 45/70/23 44/73/24 48/72/24
s 0
f 45/66/5 49/68/5 9/16/5
f 49/68/5 50/74/5 53/75/5
s 1
f 50/76/25 49/77/26 51/78/26
f 49/77/26 52/79/22 51/78/26
f 49/77/26 46/69/22 52/79/22
s 0
f 49/68/5 53/75/5 9/16/5
f 53/75/5 54/80/5 9/16/5
s 1
f 54/81/27 53/82/28 55/83/28
f 53/82/28 56/84/25 55/83/28
f 53/82/28 50/76/25 56/84/25
f 50/76/25 51/78/26 56/84/25
f 54/81/27 55/83/28 57/85/27
f 59/86/29 57/85/27 58/87/29
f 59/86/29 54/81/27 57/85/27
s 0
f 59/88/5 60/89/5 9/16/5
s 1
f 60/90/30 59/86/29 58/87/29
s 0
f 54/80/5 59/88/5 9/16/5
s 1
f 9/91/31 60/90/30 61/92/30
f 60/90/30 58/87/29 61/92/30
f 9/91/31 61/92/30 62/93/31
f 10/94/2 62/93/31 2/2/2
f 10/94/2 9/91/31 62/93/31
f 46/69/22 47/71/23 52/79/22
f 44/73/24 63/95/32 48/72/24
f 63/95/32 43/96/32 39/60/19
f 44/73/24 43/96/32 63/95/32
f 63/95/32 39/60/19 41/59/19
f 42/62/21 27/64/21 26/97/33
f 42/62/21 26/97/33 64/98/33
f 64/98/33 26/97/33 21/34/11
f 64/98/33 21/34/11 24/33/11
f 12/20/7 13/22/8 18/29/7
f 7/14/6 8/15/4 14/23/6
f 3/1/1 10/94/2 2/2/2
