{
	"asset":{
		"generator":"Khronos glTF Blender I/O v4.4.56",
		"version":"2.0"
	},
	"scene":0,
	"scenes":[
		{
			"name":"Scene",
			"nodes":[
				35
			]
		}
	],
	"nodes":[
		{
			"name":"body_mesh_Cylinder"
		},
		{
			"name":"head_Armature",
			"rotation":[
				-0.05323135480284691,
				5.643016365297626e-08,
				-8.944635254692912e-09,
				0.9985821843147278
			],
			"scale":[
				1,
				1,
				1.0000001192092896
			],
			"translation":[
				4.227729277772596e-13,
				0.7260380983352661,
				-4.0978193283081055e-06
			]
		},
		{
			"children":[
				1
			],
			"name":"neck_Armature",
			"rotation":[
				-0.07739395648241043,
				-5.065096342349307e-09,
				-9.024398117674082e-09,
				0.9970006346702576
			],
			"translation":[
				1.4566126083082054e-13,
				1.1773840188980103,
				-1.4007092659085174e-06
			]
		},
		{
			"name":"wing2.R_Armature",
			"rotation":[
				-5.1753540901700035e-05,
				0.00036155685666017234,
				-0.2866179943084717,
				0.9580448865890503
			],
			"scale":[
				1,
				1,
				0.9999999403953552
			],
			"translation":[
				1.528952270746231e-05,
				3.09190034866333,
				-3.725290298461914e-06
			]
		},
		{
			"children":[
				3
			],
			"name":"wing1.R_Armature",
			"rotation":[
				0.2529601454734802,
				-0.9674490094184875,
				-0.0073158410377800465,
				0.0002582971646916121
			],
			"scale":[
				1,
				1.0000001192092896,
				0.9999999403953552
			],
			"translation":[
				-4.251301288604736e-05,
				4.941078186035156,
				4.170835018157959e-05
			]
		},
		{
			"name":"wing3.R_Armature",
			"rotation":[
				-0.8459069728851318,
				0.5332808494567871,
				0.005685670301318169,
				0.004544974770396948
			],
			"scale":[
				0.9999998807907104,
				1,
				0.9999999403953552
			],
			"translation":[
				1.0108575224876404e-05,
				4.941061019897461,
				2.763420343399048e-05
			]
		},
		{
			"children":[
				4,
				5
			],
			"name":"arm2.R_Armature",
			"rotation":[
				0.356444388628006,
				-0.9343116879463196,
				0.0008435827330686152,
				0.0029075045604258776
			],
			"scale":[
				0.9999998807907104,
				1.000000238418579,
				1
			],
			"translation":[
				-2.6479363441467285e-05,
				2.739908456802368,
				-4.160916432738304e-06
			]
		},
		{
			"children":[
				6
			],
			"name":"arm1.R_Armature",
			"rotation":[
				-0.1000504419207573,
				0.9825052618980408,
				0.15599694848060608,
				0.018392296507954597
			],
			"scale":[
				1,
				1.0000004768371582,
				1.000000238418579
			],
			"translation":[
				-0.044153425842523575,
				1.0816693305969238,
				-0.17672395706176758
			]
		},
		{
			"children":[
				7
			],
			"name":"clavicle.R_Armature",
			"rotation":[
				0.6363069415092468,
				0.7537805438041687,
				0.08418019115924835,
				0.14086204767227173
			],
			"scale":[
				1.0000001192092896,
				0.9999997615814209,
				0.9999999403953552
			],
			"translation":[
				0.2837202847003937,
				0.46794381737709045,
				-0.5536736845970154
			]
		},
		{
			"name":"wing2.L_Armature",
			"rotation":[
				6.154645149081261e-08,
				-7.487572020181688e-07,
				0.2866138219833374,
				0.9580461978912354
			],
			"scale":[
				1,
				0.9999998211860657,
				1
			],
			"translation":[
				-2.9270537197589874e-05,
				3.0918731689453125,
				-3.725290298461914e-09
			]
		},
		{
			"children":[
				9
			],
			"name":"wing1.L_Armature",
			"rotation":[
				0.25301066040992737,
				0.9674359560012817,
				0.0072801080532372,
				0.0006035820115357637
			],
			"scale":[
				1,
				1.0000003576278687,
				1
			],
			"translation":[
				-4.846230149269104e-05,
				4.941221237182617,
				-2.6494264602661133e-05
			]
		},
		{
			"name":"wing3.L_Armature",
			"rotation":[
				-0.8459336757659912,
				-0.5332381725311279,
				-0.0057260412722826,
				0.004536990076303482
			],
			"scale":[
				0.9999997615814209,
				0.9999997019767761,
				0.9999999403953552
			],
			"translation":[
				-1.112278550863266e-05,
				4.941172122955322,
				-2.6963651180267334e-05
			]
		},
		{
			"children":[
				10,
				11
			],
			"name":"arm2.L_Armature",
			"rotation":[
				0.3565746247768402,
				0.9342616200447083,
				-0.0007379282615147531,
				0.0030290826689451933
			],
			"scale":[
				1.0000001192092896,
				0.9999997615814209,
				1
			],
			"translation":[
				2.8517097234725952e-06,
				2.7400429248809814,
				-2.0073261111974716e-05
			]
		},
		{
			"children":[
				12
			],
			"name":"arm1.L_Armature",
			"rotation":[
				-0.18381430208683014,
				-0.4020049273967743,
				0.024061966687440872,
				0.896674633026123
			],
			"scale":[
				0.9999999403953552,
				1,
				0.9999999403953552
			],
			"translation":[
				-0.16438698768615723,
				1.0816714763641357,
				0.07845070213079453
			]
		},
		{
			"children":[
				13
			],
			"name":"clavicle.L_Armature",
			"rotation":[
				-0.19507424533367157,
				0.44872140884399414,
				0.6114893555641174,
				0.6218326687812805
			],
			"scale":[
				1.0000001192092896,
				1,
				1
			],
			"translation":[
				-0.2837181091308594,
				0.4679534435272217,
				-0.5536735653877258
			]
		},
		{
			"children":[
				2,
				8,
				14
			],
			"name":"spine3_Armature",
			"rotation":[
				-0.03735017776489258,
				-4.62982150395419e-08,
				-6.9919785516958655e-09,
				0.9993022680282593
			],
			"translation":[
				2.7688962234151404e-13,
				1.4372813701629639,
				-1.5050172805786133e-06
			]
		},
		{
			"children":[
				15
			],
			"name":"spine2_Armature",
			"rotation":[
				0.02324972301721573,
				-0.7067244648933411,
				0.023249780759215355,
				0.7067244648933411
			],
			"scale":[
				1.0000001192092896,
				0.9999998807907104,
				1
			],
			"translation":[
				1.977384090423584e-05,
				1.3293758630752563,
				2.0183854587685346e-12
			]
		},
		{
			"children":[
				16
			],
			"name":"spine1_Armature",
			"rotation":[
				0.5157955884933472,
				0.48368892073631287,
				-0.48368901014328003,
				0.5157952904701233
			],
			"scale":[
				0.9999997019767761,
				0.9999996423721313,
				0.9999997615814209
			],
			"translation":[
				-3.2969024181365967,
				-5.166900978251232e-20,
				1.469885501137469e-05
			]
		},
		{
			"name":"spine1.003_Armature",
			"rotation":[
				0.004785117693245411,
				2.9717076022173217e-11,
				-1.9991359956339494e-10,
				0.9999885559082031
			],
			"scale":[
				0.9999999403953552,
				1,
				1
			],
			"translation":[
				-2.845501612114276e-13,
				0.8700857162475586,
				-1.9366175365576055e-06
			]
		},
		{
			"children":[
				18
			],
			"name":"spine1.002_Armature",
			"rotation":[
				-0.005505056586116552,
				-2.8801463991534604e-10,
				1.8373345511690786e-08,
				0.999984860420227
			],
			"scale":[
				0.9999999403953552,
				0.9999998211860657,
				0.9999998807907104
			],
			"translation":[
				-2.9385880395693675e-08,
				1.6645833253860474,
				4.0512531995773315e-06
			]
		},
		{
			"name":"leg2.R_Armature",
			"rotation":[
				-0.03673448786139488,
				0.6965323686599731,
				-0.11525096744298935,
				0.7072556018829346
			],
			"scale":[
				0.9999998807907104,
				0.9999999403953552,
				0.9999998807907104
			],
			"translation":[
				-2.021901309490204e-05,
				1.1824549436569214,
				-5.48921525478363e-06
			]
		},
		{
			"children":[
				20
			],
			"name":"leg1.R_Armature",
			"rotation":[
				0.052643783390522,
				-0.6859323978424072,
				0.18703100085258484,
				0.7012451887130737
			],
			"scale":[
				1,
				1,
				1.0000001192092896
			],
			"translation":[
				-0.6933713555335999,
				0.4838489890098572,
				-0.1257452517747879
			]
		},
		{
			"name":"leg2.L_Armature",
			"rotation":[
				0.11525081098079681,
				0.7072803974151611,
				0.036731407046318054,
				0.6965073943138123
			],
			"scale":[
				1.0000001192092896,
				1,
				1
			],
			"translation":[
				-4.873890429735184e-05,
				1.1824556589126587,
				1.975707709789276e-05
			]
		},
		{
			"children":[
				22
			],
			"name":"leg1.L_Armature",
			"rotation":[
				-0.1870337426662445,
				-0.7012695670127869,
				-0.05263876914978027,
				0.6859071254730225
			],
			"scale":[
				0.9999999403953552,
				1,
				0.9999999403953552
			],
			"translation":[
				0.6933814883232117,
				0.48384982347488403,
				-0.12572218477725983
			]
		},
		{
			"children":[
				19,
				21,
				23
			],
			"name":"spine1.001_Armature",
			"rotation":[
				0.003892679698765278,
				0.0038926457054913044,
				0.7070959806442261,
				0.7070961594581604
			],
			"scale":[
				0.9999998807907104,
				1,
				0.9999998807907104
			],
			"translation":[
				-3.2968976497650146,
				8.046812998915853e-21,
				-1.2676863434535335e-06
			]
		},
		{
			"children":[
				17,
				24
			],
			"name":"Armature_rootJoint",
			"rotation":[
				-8.557131003783525e-09,
				1.7114272665708086e-08,
				-2.928983815672615e-16,
				1
			],
			"scale":[
				1,
				0.9999999403953552,
				0.9999999403953552
			]
		},
		{
			"mesh":0,
			"name":"body_mesh_Cylinder_0",
			"skin":0
		},
		{
			"name":"hair"
		},
		{
			"mesh":1,
			"name":"hair_0",
			"skin":0
		},
		{
			"name":"Sphere",
			"translation":[
				3.0032498836517334,
				0,
				0.17381998896598816
			]
		},
		{
			"mesh":2,
			"name":"Sphere_0",
			"skin":0
		},
		{
			"name":"wing_mesh_Plane"
		},
		{
			"mesh":3,
			"name":"wing_mesh_Plane_0",
			"skin":0
		},
		{
			"children":[
				0,
				26,
				27,
				28,
				29,
				30,
				31,
				32,
				25
			],
			"name":"Armature"
		},
		{
			"children":[
				33
			],
			"name":"Root"
		},
		{
			"children":[
				34
			],
			"name":"Sketchfab_model",
			"rotation":[
				-0.70710688829422,
				0,
				0,
				0.7071066498756409
			],
			"scale":[
				0.09822610765695572,
				0.09822612255811691,
				0.09822612255811691
			]
		}
	],
	"animations":[
		{
			"channels":[
				{
					"sampler":0,
					"target":{
						"node":25,
						"path":"translation"
					}
				},
				{
					"sampler":1,
					"target":{
						"node":25,
						"path":"rotation"
					}
				},
				{
					"sampler":2,
					"target":{
						"node":25,
						"path":"scale"
					}
				},
				{
					"sampler":3,
					"target":{
						"node":17,
						"path":"translation"
					}
				},
				{
					"sampler":4,
					"target":{
						"node":17,
						"path":"rotation"
					}
				},
				{
					"sampler":5,
					"target":{
						"node":17,
						"path":"scale"
					}
				},
				{
					"sampler":6,
					"target":{
						"node":16,
						"path":"translation"
					}
				},
				{
					"sampler":7,
					"target":{
						"node":16,
						"path":"rotation"
					}
				},
				{
					"sampler":8,
					"target":{
						"node":16,
						"path":"scale"
					}
				},
				{
					"sampler":9,
					"target":{
						"node":15,
						"path":"translation"
					}
				},
				{
					"sampler":10,
					"target":{
						"node":15,
						"path":"rotation"
					}
				},
				{
					"sampler":11,
					"target":{
						"node":15,
						"path":"scale"
					}
				},
				{
					"sampler":12,
					"target":{
						"node":2,
						"path":"translation"
					}
				},
				{
					"sampler":13,
					"target":{
						"node":2,
						"path":"rotation"
					}
				},
				{
					"sampler":14,
					"target":{
						"node":2,
						"path":"scale"
					}
				},
				{
					"sampler":15,
					"target":{
						"node":1,
						"path":"translation"
					}
				},
				{
					"sampler":16,
					"target":{
						"node":1,
						"path":"rotation"
					}
				},
				{
					"sampler":17,
					"target":{
						"node":1,
						"path":"scale"
					}
				},
				{
					"sampler":18,
					"target":{
						"node":8,
						"path":"translation"
					}
				},
				{
					"sampler":19,
					"target":{
						"node":8,
						"path":"rotation"
					}
				},
				{
					"sampler":20,
					"target":{
						"node":8,
						"path":"scale"
					}
				},
				{
					"sampler":21,
					"target":{
						"node":7,
						"path":"translation"
					}
				},
				{
					"sampler":22,
					"target":{
						"node":7,
						"path":"rotation"
					}
				},
				{
					"sampler":23,
					"target":{
						"node":7,
						"path":"scale"
					}
				},
				{
					"sampler":24,
					"target":{
						"node":6,
						"path":"translation"
					}
				},
				{
					"sampler":25,
					"target":{
						"node":6,
						"path":"rotation"
					}
				},
				{
					"sampler":26,
					"target":{
						"node":6,
						"path":"scale"
					}
				},
				{
					"sampler":27,
					"target":{
						"node":4,
						"path":"translation"
					}
				},
				{
					"sampler":28,
					"target":{
						"node":4,
						"path":"rotation"
					}
				},
				{
					"sampler":29,
					"target":{
						"node":4,
						"path":"scale"
					}
				},
				{
					"sampler":30,
					"target":{
						"node":3,
						"path":"translation"
					}
				},
				{
					"sampler":31,
					"target":{
						"node":3,
						"path":"rotation"
					}
				},
				{
					"sampler":32,
					"target":{
						"node":3,
						"path":"scale"
					}
				},
				{
					"sampler":33,
					"target":{
						"node":5,
						"path":"translation"
					}
				},
				{
					"sampler":34,
					"target":{
						"node":5,
						"path":"rotation"
					}
				},
				{
					"sampler":35,
					"target":{
						"node":5,
						"path":"scale"
					}
				},
				{
					"sampler":36,
					"target":{
						"node":14,
						"path":"translation"
					}
				},
				{
					"sampler":37,
					"target":{
						"node":14,
						"path":"rotation"
					}
				},
				{
					"sampler":38,
					"target":{
						"node":14,
						"path":"scale"
					}
				},
				{
					"sampler":39,
					"target":{
						"node":13,
						"path":"translation"
					}
				},
				{
					"sampler":40,
					"target":{
						"node":13,
						"path":"rotation"
					}
				},
				{
					"sampler":41,
					"target":{
						"node":13,
						"path":"scale"
					}
				},
				{
					"sampler":42,
					"target":{
						"node":12,
						"path":"translation"
					}
				},
				{
					"sampler":43,
					"target":{
						"node":12,
						"path":"rotation"
					}
				},
				{
					"sampler":44,
					"target":{
						"node":12,
						"path":"scale"
					}
				},
				{
					"sampler":45,
					"target":{
						"node":10,
						"path":"translation"
					}
				},
				{
					"sampler":46,
					"target":{
						"node":10,
						"path":"rotation"
					}
				},
				{
					"sampler":47,
					"target":{
						"node":10,
						"path":"scale"
					}
				},
				{
					"sampler":48,
					"target":{
						"node":9,
						"path":"translation"
					}
				},
				{
					"sampler":49,
					"target":{
						"node":9,
						"path":"rotation"
					}
				},
				{
					"sampler":50,
					"target":{
						"node":9,
						"path":"scale"
					}
				},
				{
					"sampler":51,
					"target":{
						"node":11,
						"path":"translation"
					}
				},
				{
					"sampler":52,
					"target":{
						"node":11,
						"path":"rotation"
					}
				},
				{
					"sampler":53,
					"target":{
						"node":11,
						"path":"scale"
					}
				},
				{
					"sampler":54,
					"target":{
						"node":24,
						"path":"translation"
					}
				},
				{
					"sampler":55,
					"target":{
						"node":24,
						"path":"rotation"
					}
				},
				{
					"sampler":56,
					"target":{
						"node":24,
						"path":"scale"
					}
				},
				{
					"sampler":57,
					"target":{
						"node":19,
						"path":"translation"
					}
				},
				{
					"sampler":58,
					"target":{
						"node":19,
						"path":"rotation"
					}
				},
				{
					"sampler":59,
					"target":{
						"node":19,
						"path":"scale"
					}
				},
				{
					"sampler":60,
					"target":{
						"node":18,
						"path":"translation"
					}
				},
				{
					"sampler":61,
					"target":{
						"node":18,
						"path":"rotation"
					}
				},
				{
					"sampler":62,
					"target":{
						"node":18,
						"path":"scale"
					}
				},
				{
					"sampler":63,
					"target":{
						"node":21,
						"path":"translation"
					}
				},
				{
					"sampler":64,
					"target":{
						"node":21,
						"path":"rotation"
					}
				},
				{
					"sampler":65,
					"target":{
						"node":21,
						"path":"scale"
					}
				},
				{
					"sampler":66,
					"target":{
						"node":20,
						"path":"translation"
					}
				},
				{
					"sampler":67,
					"target":{
						"node":20,
						"path":"rotation"
					}
				},
				{
					"sampler":68,
					"target":{
						"node":20,
						"path":"scale"
					}
				},
				{
					"sampler":69,
					"target":{
						"node":23,
						"path":"translation"
					}
				},
				{
					"sampler":70,
					"target":{
						"node":23,
						"path":"rotation"
					}
				},
				{
					"sampler":71,
					"target":{
						"node":23,
						"path":"scale"
					}
				},
				{
					"sampler":72,
					"target":{
						"node":22,
						"path":"translation"
					}
				},
				{
					"sampler":73,
					"target":{
						"node":22,
						"path":"rotation"
					}
				},
				{
					"sampler":74,
					"target":{
						"node":22,
						"path":"scale"
					}
				}
			],
			"name":"ArmatureAction",
			"samplers":[
				{
					"input":26,
					"interpolation":"STEP",
					"output":27
				},
				{
					"input":26,
					"interpolation":"STEP",
					"output":28
				},
				{
					"input":26,
					"interpolation":"STEP",
					"output":29
				},
				{
					"input":30,
					"interpolation":"LINEAR",
					"output":31
				},
				{
					"input":30,
					"interpolation":"LINEAR",
					"output":32
				},
				{
					"input":26,
					"interpolation":"STEP",
					"output":33
				},
				{
					"input":26,
					"interpolation":"STEP",
					"output":34
				},
				{
					"input":30,
					"interpolation":"LINEAR",
					"output":35
				},
				{
					"input":26,
					"interpolation":"STEP",
					"output":36
				},
				{
					"input":26,
					"interpolation":"STEP",
					"output":37
				},
				{
					"input":30,
					"interpolation":"LINEAR",
					"output":38
				},
				{
					"input":26,
					"interpolation":"STEP",
					"output":39
				},
				{
					"input":26,
					"interpolation":"STEP",
					"output":40
				},
				{
					"input":26,
					"interpolation":"LINEAR",
					"output":41
				},
				{
					"input":26,
					"interpolation":"STEP",
					"output":42
				},
				{
					"input":26,
					"interpolation":"STEP",
					"output":43
				},
				{
					"input":30,
					"interpolation":"LINEAR",
					"output":44
				},
				{
					"input":26,
					"interpolation":"STEP",
					"output":45
				},
				{
					"input":26,
					"interpolation":"STEP",
					"output":46
				},
				{
					"input":26,
					"interpolation":"LINEAR",
					"output":47
				},
				{
					"input":26,
					"interpolation":"STEP",
					"output":48
				},
				{
					"input":26,
					"interpolation":"STEP",
					"output":49
				},
				{
					"input":30,
					"interpolation":"LINEAR",
					"output":50
				},
				{
					"input":26,
					"interpolation":"STEP",
					"output":51
				},
				{
					"input":26,
					"interpolation":"STEP",
					"output":52
				},
				{
					"input":30,
					"interpolation":"LINEAR",
					"output":53
				},
				{
					"input":26,
					"interpolation":"STEP",
					"output":54
				},
				{
					"input":26,
					"interpolation":"STEP",
					"output":55
				},
				{
					"input":30,
					"interpolation":"LINEAR",
					"output":56
				},
				{
					"input":26,
					"interpolation":"STEP",
					"output":57
				},
				{
					"input":26,
					"interpolation":"STEP",
					"output":58
				},
				{
					"input":30,
					"interpolation":"LINEAR",
					"output":59
				},
				{
					"input":26,
					"interpolation":"STEP",
					"output":60
				},
				{
					"input":26,
					"interpolation":"STEP",
					"output":61
				},
				{
					"input":30,
					"interpolation":"LINEAR",
					"output":62
				},
				{
					"input":26,
					"interpolation":"STEP",
					"output":63
				},
				{
					"input":26,
					"interpolation":"STEP",
					"output":64
				},
				{
					"input":26,
					"interpolation":"LINEAR",
					"output":65
				},
				{
					"input":26,
					"interpolation":"STEP",
					"output":66
				},
				{
					"input":26,
					"interpolation":"STEP",
					"output":67
				},
				{
					"input":30,
					"interpolation":"LINEAR",
					"output":68
				},
				{
					"input":26,
					"interpolation":"STEP",
					"output":69
				},
				{
					"input":26,
					"interpolation":"STEP",
					"output":70
				},
				{
					"input":30,
					"interpolation":"LINEAR",
					"output":71
				},
				{
					"input":26,
					"interpolation":"STEP",
					"output":72
				},
				{
					"input":26,
					"interpolation":"STEP",
					"output":73
				},
				{
					"input":30,
					"interpolation":"LINEAR",
					"output":74
				},
				{
					"input":26,
					"interpolation":"STEP",
					"output":75
				},
				{
					"input":26,
					"interpolation":"STEP",
					"output":76
				},
				{
					"input":30,
					"interpolation":"LINEAR",
					"output":77
				},
				{
					"input":26,
					"interpolation":"STEP",
					"output":78
				},
				{
					"input":26,
					"interpolation":"STEP",
					"output":79
				},
				{
					"input":30,
					"interpolation":"LINEAR",
					"output":80
				},
				{
					"input":26,
					"interpolation":"STEP",
					"output":81
				},
				{
					"input":30,
					"interpolation":"LINEAR",
					"output":82
				},
				{
					"input":30,
					"interpolation":"LINEAR",
					"output":83
				},
				{
					"input":26,
					"interpolation":"STEP",
					"output":84
				},
				{
					"input":26,
					"interpolation":"STEP",
					"output":85
				},
				{
					"input":30,
					"interpolation":"LINEAR",
					"output":86
				},
				{
					"input":26,
					"interpolation":"STEP",
					"output":87
				},
				{
					"input":26,
					"interpolation":"STEP",
					"output":88
				},
				{
					"input":30,
					"interpolation":"LINEAR",
					"output":89
				},
				{
					"input":26,
					"interpolation":"STEP",
					"output":90
				},
				{
					"input":26,
					"interpolation":"STEP",
					"output":91
				},
				{
					"input":30,
					"interpolation":"LINEAR",
					"output":92
				},
				{
					"input":26,
					"interpolation":"STEP",
					"output":93
				},
				{
					"input":26,
					"interpolation":"STEP",
					"output":94
				},
				{
					"input":30,
					"interpolation":"LINEAR",
					"output":95
				},
				{
					"input":26,
					"interpolation":"STEP",
					"output":96
				},
				{
					"input":26,
					"interpolation":"STEP",
					"output":97
				},
				{
					"input":30,
					"interpolation":"LINEAR",
					"output":98
				},
				{
					"input":26,
					"interpolation":"STEP",
					"output":99
				},
				{
					"input":26,
					"interpolation":"STEP",
					"output":100
				},
				{
					"input":30,
					"interpolation":"LINEAR",
					"output":101
				},
				{
					"input":26,
					"interpolation":"STEP",
					"output":102
				}
			]
		}
	],
	"materials":[
		{
			"doubleSided":true,
			"name":"Material.001",
			"pbrMetallicRoughness":{
				"baseColorTexture":{
					"index":0
				},
				"metallicFactor":0
			}
		},
		{
			"doubleSided":true,
			"name":"eyes",
			"pbrMetallicRoughness":{
				"baseColorFactor":[
					0,
					0,
					0,
					1
				],
				"roughnessFactor":0.6000000238418579
			}
		}
	],
	"meshes":[
		{
			"name":"body_mesh_Cylinder",
			"primitives":[
				{
					"attributes":{
						"POSITION":0,
						"NORMAL":1,
						"TEXCOORD_0":2,
						"JOINTS_0":3,
						"WEIGHTS_0":4
					},
					"indices":5,
					"material":0
				}
			]
		},
		{
			"name":"hair",
			"primitives":[
				{
					"attributes":{
						"POSITION":7,
						"NORMAL":8,
						"TEXCOORD_0":9,
						"JOINTS_0":10,
						"WEIGHTS_0":11
					},
					"indices":12,
					"material":0
				}
			]
		},
		{
			"name":"Sphere",
			"primitives":[
				{
					"attributes":{
						"POSITION":13,
						"NORMAL":14,
						"TEXCOORD_0":15,
						"TEXCOORD_1":16,
						"JOINTS_0":17,
						"WEIGHTS_0":18
					},
					"indices":19,
					"material":1
				}
			]
		},
		{
			"name":"wing_mesh_Plane",
			"primitives":[
				{
					"attributes":{
						"POSITION":20,
						"NORMAL":21,
						"TEXCOORD_0":22,
						"JOINTS_0":23,
						"WEIGHTS_0":24
					},
					"indices":25,
					"material":0
				}
			]
		}
	],
	"textures":[
		{
			"sampler":0,
			"source":0
		}
	],
	"images":[
		{
			"mimeType":"image/png",
			"name":"Material.001_baseColor",
			"uri":"Material_001_baseColor.png"
		}
	],
	"skins":[
		{
			"inverseBindMatrices":6,
			"joints":[
				25,
				17,
				16,
				15,
				2,
				1,
				8,
				7,
				6,
				4,
				3,
				5,
				14,
				13,
				12,
				10,
				9,
				11,
				24,
				19,
				18,
				21,
				20,
				23,
				22
			],
			"name":"Armature"
		}
	],
	"accessors":[
		{
			"bufferView":0,
			"componentType":5126,
			"count":59459,
			"max":[
				0.38482746481895447,
				0.20231036841869354,
				1.7526427507400513
			],
			"min":[
				-0.6666672825813293,
				-0.10692883282899857,
				-1.7526450157165527
			],
			"type":"VEC3"
		},
		{
			"bufferView":1,
			"componentType":5126,
			"count":59459,
			"type":"VEC3"
		},
		{
			"bufferView":2,
			"componentType":5126,
			"count":59459,
			"type":"VEC2"
		},
		{
			"bufferView":3,
			"componentType":5121,
			"count":59459,
			"type":"VEC4"
		},
		{
			"bufferView":4,
			"componentType":5126,
			"count":59459,
			"type":"VEC4"
		},
		{
			"bufferView":5,
			"componentType":5123,
			"count":334848,
			"type":"SCALAR"
		},
		{
			"bufferView":6,
			"componentType":5126,
			"count":25,
			"type":"MAT4"
		},
		{
			"bufferView":7,
			"componentType":5126,
			"count":9944,
			"max":[
				0.2861796021461487,
				0.15897004306316376,
				0.16261376440525055
			],
			"min":[
				-0.4156811535358429,
				-0.09538134932518005,
				-0.141879141330719
			],
			"type":"VEC3"
		},
		{
			"bufferView":8,
			"componentType":5126,
			"count":9944,
			"type":"VEC3"
		},
		{
			"bufferView":9,
			"componentType":5126,
			"count":9944,
			"type":"VEC2"
		},
		{
			"bufferView":10,
			"componentType":5121,
			"count":9944,
			"type":"VEC4"
		},
		{
			"bufferView":11,
			"componentType":5126,
			"count":9944,
			"type":"VEC4"
		},
		{
			"bufferView":12,
			"componentType":5123,
			"count":56640,
			"type":"SCALAR"
		},
		{
			"bufferView":13,
			"componentType":5126,
			"count":228,
			"max":[
				0.3025469481945038,
				0.024623172357678413,
				0.051970530301332474
			],
			"min":[
				0.28744766116142273,
				0.009523851796984673,
				-0.05197039619088173
			],
			"type":"VEC3"
		},
		{
			"bufferView":14,
			"componentType":5126,
			"count":228,
			"type":"VEC3"
		},
		{
			"bufferView":15,
			"componentType":5126,
			"count":228,
			"type":"VEC2"
		},
		{
			"bufferView":16,
			"componentType":5126,
			"count":228,
			"type":"VEC2"
		},
		{
			"bufferView":17,
			"componentType":5121,
			"count":228,
			"type":"VEC4"
		},
		{
			"bufferView":18,
			"componentType":5126,
			"count":228,
			"type":"VEC4"
		},
		{
			"bufferView":19,
			"componentType":5123,
			"count":1344,
			"type":"SCALAR"
		},
		{
			"bufferView":20,
			"componentType":5126,
			"count":432,
			"max":[
				0.3462980091571808,
				0.04006442055106163,
				1.7524255514144897
			],
			"min":[
				-0.6378791928291321,
				-0.040173664689064026,
				-1.7524278163909912
			],
			"type":"VEC3"
		},
		{
			"bufferView":21,
			"componentType":5126,
			"count":432,
			"type":"VEC3"
		},
		{
			"bufferView":22,
			"componentType":5126,
			"count":432,
			"type":"VEC2"
		},
		{
			"bufferView":23,
			"componentType":5121,
			"count":432,
			"type":"VEC4"
		},
		{
			"bufferView":24,
			"componentType":5126,
			"count":432,
			"type":"VEC4"
		},
		{
			"bufferView":25,
			"componentType":5123,
			"count":2244,
			"type":"SCALAR"
		},
		{
			"bufferView":26,
			"componentType":5126,
			"count":2,
			"max":[
				0.4166666666666667
			],
			"min":[
				0
			],
			"type":"SCALAR"
		},
		{
			"bufferView":27,
			"componentType":5126,
			"count":2,
			"type":"VEC3"
		},
		{
			"bufferView":28,
			"componentType":5126,
			"count":2,
			"type":"VEC4"
		},
		{
			"bufferView":29,
			"componentType":5126,
			"count":2,
			"type":"VEC3"
		},
		{
			"bufferView":30,
			"componentType":5126,
			"count":11,
			"max":[
				0.4166666666666667
			],
			"min":[
				0
			],
			"type":"SCALAR"
		},
		{
			"bufferView":31,
			"componentType":5126,
			"count":11,
			"type":"VEC3"
		},
		{
			"bufferView":32,
			"componentType":5126,
			"count":11,
			"type":"VEC4"
		},
		{
			"bufferView":33,
			"componentType":5126,
			"count":2,
			"type":"VEC3"
		},
		{
			"bufferView":34,
			"componentType":5126,
			"count":2,
			"type":"VEC3"
		},
		{
			"bufferView":35,
			"componentType":5126,
			"count":11,
			"type":"VEC4"
		},
		{
			"bufferView":36,
			"componentType":5126,
			"count":2,
			"type":"VEC3"
		},
		{
			"bufferView":37,
			"componentType":5126,
			"count":2,
			"type":"VEC3"
		},
		{
			"bufferView":38,
			"componentType":5126,
			"count":11,
			"type":"VEC4"
		},
		{
			"bufferView":39,
			"componentType":5126,
			"count":2,
			"type":"VEC3"
		},
		{
			"bufferView":40,
			"componentType":5126,
			"count":2,
			"type":"VEC3"
		},
		{
			"bufferView":41,
			"componentType":5126,
			"count":2,
			"type":"VEC4"
		},
		{
			"bufferView":42,
			"componentType":5126,
			"count":2,
			"type":"VEC3"
		},
		{
			"bufferView":43,
			"componentType":5126,
			"count":2,
			"type":"VEC3"
		},
		{
			"bufferView":44,
			"componentType":5126,
			"count":11,
			"type":"VEC4"
		},
		{
			"bufferView":45,
			"componentType":5126,
			"count":2,
			"type":"VEC3"
		},
		{
			"bufferView":46,
			"componentType":5126,
			"count":2,
			"type":"VEC3"
		},
		{
			"bufferView":47,
			"componentType":5126,
			"count":2,
			"type":"VEC4"
		},
		{
			"bufferView":48,
			"componentType":5126,
			"count":2,
			"type":"VEC3"
		},
		{
			"bufferView":49,
			"componentType":5126,
			"count":2,
			"type":"VEC3"
		},
		{
			"bufferView":50,
			"componentType":5126,
			"count":11,
			"type":"VEC4"
		},
		{
			"bufferView":51,
			"componentType":5126,
			"count":2,
			"type":"VEC3"
		},
		{
			"bufferView":52,
			"componentType":5126,
			"count":2,
			"type":"VEC3"
		},
		{
			"bufferView":53,
			"componentType":5126,
			"count":11,
			"type":"VEC4"
		},
		{
			"bufferView":54,
			"componentType":5126,
			"count":2,
			"type":"VEC3"
		},
		{
			"bufferView":55,
			"componentType":5126,
			"count":2,
			"type":"VEC3"
		},
		{
			"bufferView":56,
			"componentType":5126,
			"count":11,
			"type":"VEC4"
		},
		{
			"bufferView":57,
			"componentType":5126,
			"count":2,
			"type":"VEC3"
		},
		{
			"bufferView":58,
			"componentType":5126,
			"count":2,
			"type":"VEC3"
		},
		{
			"bufferView":59,
			"componentType":5126,
			"count":11,
			"type":"VEC4"
		},
		{
			"bufferView":60,
			"componentType":5126,
			"count":2,
			"type":"VEC3"
		},
		{
			"bufferView":61,
			"componentType":5126,
			"count":2,
			"type":"VEC3"
		},
		{
			"bufferView":62,
			"componentType":5126,
			"count":11,
			"type":"VEC4"
		},
		{
			"bufferView":63,
			"componentType":5126,
			"count":2,
			"type":"VEC3"
		},
		{
			"bufferView":64,
			"componentType":5126,
			"count":2,
			"type":"VEC3"
		},
		{
			"bufferView":65,
			"componentType":5126,
			"count":2,
			"type":"VEC4"
		},
		{
			"bufferView":66,
			"componentType":5126,
			"count":2,
			"type":"VEC3"
		},
		{
			"bufferView":67,
			"componentType":5126,
			"count":2,
			"type":"VEC3"
		},
		{
			"bufferView":68,
			"componentType":5126,
			"count":11,
			"type":"VEC4"
		},
		{
			"bufferView":69,
			"componentType":5126,
			"count":2,
			"type":"VEC3"
		},
		{
			"bufferView":70,
			"componentType":5126,
			"count":2,
			"type":"VEC3"
		},
		{
			"bufferView":71,
			"componentType":5126,
			"count":11,
			"type":"VEC4"
		},
		{
			"bufferView":72,
			"componentType":5126,
			"count":2,
			"type":"VEC3"
		},
		{
			"bufferView":73,
			"componentType":5126,
			"count":2,
			"type":"VEC3"
		},
		{
			"bufferView":74,
			"componentType":5126,
			"count":11,
			"type":"VEC4"
		},
		{
			"bufferView":75,
			"componentType":5126,
			"count":2,
			"type":"VEC3"
		},
		{
			"bufferView":76,
			"componentType":5126,
			"count":2,
			"type":"VEC3"
		},
		{
			"bufferView":77,
			"componentType":5126,
			"count":11,
			"type":"VEC4"
		},
		{
			"bufferView":78,
			"componentType":5126,
			"count":2,
			"type":"VEC3"
		},
		{
			"bufferView":79,
			"componentType":5126,
			"count":2,
			"type":"VEC3"
		},
		{
			"bufferView":80,
			"componentType":5126,
			"count":11,
			"type":"VEC4"
		},
		{
			"bufferView":81,
			"componentType":5126,
			"count":2,
			"type":"VEC3"
		},
		{
			"bufferView":82,
			"componentType":5126,
			"count":11,
			"type":"VEC3"
		},
		{
			"bufferView":83,
			"componentType":5126,
			"count":11,
			"type":"VEC4"
		},
		{
			"bufferView":84,
			"componentType":5126,
			"count":2,
			"type":"VEC3"
		},
		{
			"bufferView":85,
			"componentType":5126,
			"count":2,
			"type":"VEC3"
		},
		{
			"bufferView":86,
			"componentType":5126,
			"count":11,
			"type":"VEC4"
		},
		{
			"bufferView":87,
			"componentType":5126,
			"count":2,
			"type":"VEC3"
		},
		{
			"bufferView":88,
			"componentType":5126,
			"count":2,
			"type":"VEC3"
		},
		{
			"bufferView":89,
			"componentType":5126,
			"count":11,
			"type":"VEC4"
		},
		{
			"bufferView":90,
			"componentType":5126,
			"count":2,
			"type":"VEC3"
		},
		{
			"bufferView":91,
			"componentType":5126,
			"count":2,
			"type":"VEC3"
		},
		{
			"bufferView":92,
			"componentType":5126,
			"count":11,
			"type":"VEC4"
		},
		{
			"bufferView":93,
			"componentType":5126,
			"count":2,
			"type":"VEC3"
		},
		{
			"bufferView":94,
			"componentType":5126,
			"count":2,
			"type":"VEC3"
		},
		{
			"bufferView":95,
			"componentType":5126,
			"count":11,
			"type":"VEC4"
		},
		{
			"bufferView":96,
			"componentType":5126,
			"count":2,
			"type":"VEC3"
		},
		{
			"bufferView":97,
			"componentType":5126,
			"count":2,
			"type":"VEC3"
		},
		{
			"bufferView":98,
			"componentType":5126,
			"count":11,
			"type":"VEC4"
		},
		{
			"bufferView":99,
			"componentType":5126,
			"count":2,
			"type":"VEC3"
		},
		{
			"bufferView":100,
			"componentType":5126,
			"count":2,
			"type":"VEC3"
		},
		{
			"bufferView":101,
			"componentType":5126,
			"count":11,
			"type":"VEC4"
		},
		{
			"bufferView":102,
			"componentType":5126,
			"count":2,
			"type":"VEC3"
		}
	],
	"bufferViews":[
		{
			"buffer":0,
			"byteLength":713508,
			"byteOffset":0,
			"target":34962
		},
		{
			"buffer":0,
			"byteLength":713508,
			"byteOffset":713508,
			"target":34962
		},
		{
			"buffer":0,
			"byteLength":475672,
			"byteOffset":1427016,
			"target":34962
		},
		{
			"buffer":0,
			"byteLength":237836,
			"byteOffset":1902688,
			"target":34962
		},
		{
			"buffer":0,
			"byteLength":951344,
			"byteOffset":2140524,
			"target":34962
		},
		{
			"buffer":0,
			"byteLength":669696,
			"byteOffset":3091868,
			"target":34963
		},
		{
			"buffer":0,
			"byteLength":1600,
			"byteOffset":3761564
		},
		{
			"buffer":0,
			"byteLength":119328,
			"byteOffset":3763164,
			"target":34962
		},
		{
			"buffer":0,
			"byteLength":119328,
			"byteOffset":3882492,
			"target":34962
		},
		{
			"buffer":0,
			"byteLength":79552,
			"byteOffset":4001820,
			"target":34962
		},
		{
			"buffer":0,
			"byteLength":39776,
			"byteOffset":4081372,
			"target":34962
		},
		{
			"buffer":0,
			"byteLength":159104,
			"byteOffset":4121148,
			"target":34962
		},
		{
			"buffer":0,
			"byteLength":113280,
			"byteOffset":4280252,
			"target":34963
		},
		{
			"buffer":0,
			"byteLength":2736,
			"byteOffset":4393532,
			"target":34962
		},
		{
			"buffer":0,
			"byteLength":2736,
			"byteOffset":4396268,
			"target":34962
		},
		{
			"buffer":0,
			"byteLength":1824,
			"byteOffset":4399004,
			"target":34962
		},
		{
			"buffer":0,
			"byteLength":1824,
			"byteOffset":4400828,
			"target":34962
		},
		{
			"buffer":0,
			"byteLength":912,
			"byteOffset":4402652,
			"target":34962
		},
		{
			"buffer":0,
			"byteLength":3648,
			"byteOffset":4403564,
			"target":34962
		},
		{
			"buffer":0,
			"byteLength":2688,
			"byteOffset":4407212,
			"target":34963
		},
		{
			"buffer":0,
			"byteLength":5184,
			"byteOffset":4409900,
			"target":34962
		},
		{
			"buffer":0,
			"byteLength":5184,
			"byteOffset":4415084,
			"target":34962
		},
		{
			"buffer":0,
			"byteLength":3456,
			"byteOffset":4420268,
			"target":34962
		},
		{
			"buffer":0,
			"byteLength":1728,
			"byteOffset":4423724,
			"target":34962
		},
		{
			"buffer":0,
			"byteLength":6912,
			"byteOffset":4425452,
			"target":34962
		},
		{
			"buffer":0,
			"byteLength":4488,
			"byteOffset":4432364,
			"target":34963
		},
		{
			"buffer":0,
			"byteLength":8,
			"byteOffset":4436852
		},
		{
			"buffer":0,
			"byteLength":24,
			"byteOffset":4436860
		},
		{
			"buffer":0,
			"byteLength":32,
			"byteOffset":4436884
		},
		{
			"buffer":0,
			"byteLength":24,
			"byteOffset":4436916
		},
		{
			"buffer":0,
			"byteLength":44,
			"byteOffset":4436940
		},
		{
			"buffer":0,
			"byteLength":132,
			"byteOffset":4436984
		},
		{
			"buffer":0,
			"byteLength":176,
			"byteOffset":4437116
		},
		{
			"buffer":0,
			"byteLength":24,
			"byteOffset":4437292
		},
		{
			"buffer":0,
			"byteLength":24,
			"byteOffset":4437316
		},
		{
			"buffer":0,
			"byteLength":176,
			"byteOffset":4437340
		},
		{
			"buffer":0,
			"byteLength":24,
			"byteOffset":4437516
		},
		{
			"buffer":0,
			"byteLength":24,
			"byteOffset":4437540
		},
		{
			"buffer":0,
			"byteLength":176,
			"byteOffset":4437564
		},
		{
			"buffer":0,
			"byteLength":24,
			"byteOffset":4437740
		},
		{
			"buffer":0,
			"byteLength":24,
			"byteOffset":4437764
		},
		{
			"buffer":0,
			"byteLength":32,
			"byteOffset":4437788
		},
		{
			"buffer":0,
			"byteLength":24,
			"byteOffset":4437820
		},
		{
			"buffer":0,
			"byteLength":24,
			"byteOffset":4437844
		},
		{
			"buffer":0,
			"byteLength":176,
			"byteOffset":4437868
		},
		{
			"buffer":0,
			"byteLength":24,
			"byteOffset":4438044
		},
		{
			"buffer":0,
			"byteLength":24,
			"byteOffset":4438068
		},
		{
			"buffer":0,
			"byteLength":32,
			"byteOffset":4438092
		},
		{
			"buffer":0,
			"byteLength":24,
			"byteOffset":4438124
		},
		{
			"buffer":0,
			"byteLength":24,
			"byteOffset":4438148
		},
		{
			"buffer":0,
			"byteLength":176,
			"byteOffset":4438172
		},
		{
			"buffer":0,
			"byteLength":24,
			"byteOffset":4438348
		},
		{
			"buffer":0,
			"byteLength":24,
			"byteOffset":4438372
		},
		{
			"buffer":0,
			"byteLength":176,
			"byteOffset":4438396
		},
		{
			"buffer":0,
			"byteLength":24,
			"byteOffset":4438572
		},
		{
			"buffer":0,
			"byteLength":24,
			"byteOffset":4438596
		},
		{
			"buffer":0,
			"byteLength":176,
			"byteOffset":4438620
		},
		{
			"buffer":0,
			"byteLength":24,
			"byteOffset":4438796
		},
		{
			"buffer":0,
			"byteLength":24,
			"byteOffset":4438820
		},
		{
			"buffer":0,
			"byteLength":176,
			"byteOffset":4438844
		},
		{
			"buffer":0,
			"byteLength":24,
			"byteOffset":4439020
		},
		{
			"buffer":0,
			"byteLength":24,
			"byteOffset":4439044
		},
		{
			"buffer":0,
			"byteLength":176,
			"byteOffset":4439068
		},
		{
			"buffer":0,
			"byteLength":24,
			"byteOffset":4439244
		},
		{
			"buffer":0,
			"byteLength":24,
			"byteOffset":4439268
		},
		{
			"buffer":0,
			"byteLength":32,
			"byteOffset":4439292
		},
		{
			"buffer":0,
			"byteLength":24,
			"byteOffset":4439324
		},
		{
			"buffer":0,
			"byteLength":24,
			"byteOffset":4439348
		},
		{
			"buffer":0,
			"byteLength":176,
			"byteOffset":4439372
		},
		{
			"buffer":0,
			"byteLength":24,
			"byteOffset":4439548
		},
		{
			"buffer":0,
			"byteLength":24,
			"byteOffset":4439572
		},
		{
			"buffer":0,
			"byteLength":176,
			"byteOffset":4439596
		},
		{
			"buffer":0,
			"byteLength":24,
			"byteOffset":4439772
		},
		{
			"buffer":0,
			"byteLength":24,
			"byteOffset":4439796
		},
		{
			"buffer":0,
			"byteLength":176,
			"byteOffset":4439820
		},
		{
			"buffer":0,
			"byteLength":24,
			"byteOffset":4439996
		},
		{
			"buffer":0,
			"byteLength":24,
			"byteOffset":4440020
		},
		{
			"buffer":0,
			"byteLength":176,
			"byteOffset":4440044
		},
		{
			"buffer":0,
			"byteLength":24,
			"byteOffset":4440220
		},
		{
			"buffer":0,
			"byteLength":24,
			"byteOffset":4440244
		},
		{
			"buffer":0,
			"byteLength":176,
			"byteOffset":4440268
		},
		{
			"buffer":0,
			"byteLength":24,
			"byteOffset":4440444
		},
		{
			"buffer":0,
			"byteLength":132,
			"byteOffset":4440468
		},
		{
			"buffer":0,
			"byteLength":176,
			"byteOffset":4440600
		},
		{
			"buffer":0,
			"byteLength":24,
			"byteOffset":4440776
		},
		{
			"buffer":0,
			"byteLength":24,
			"byteOffset":4440800
		},
		{
			"buffer":0,
			"byteLength":176,
			"byteOffset":4440824
		},
		{
			"buffer":0,
			"byteLength":24,
			"byteOffset":4441000
		},
		{
			"buffer":0,
			"byteLength":24,
			"byteOffset":4441024
		},
		{
			"buffer":0,
			"byteLength":176,
			"byteOffset":4441048
		},
		{
			"buffer":0,
			"byteLength":24,
			"byteOffset":4441224
		},
		{
			"buffer":0,
			"byteLength":24,
			"byteOffset":4441248
		},
		{
			"buffer":0,
			"byteLength":176,
			"byteOffset":4441272
		},
		{
			"buffer":0,
			"byteLength":24,
			"byteOffset":4441448
		},
		{
			"buffer":0,
			"byteLength":24,
			"byteOffset":4441472
		},
		{
			"buffer":0,
			"byteLength":176,
			"byteOffset":4441496
		},
		{
			"buffer":0,
			"byteLength":24,
			"byteOffset":4441672
		},
		{
			"buffer":0,
			"byteLength":24,
			"byteOffset":4441696
		},
		{
			"buffer":0,
			"byteLength":176,
			"byteOffset":4441720
		},
		{
			"buffer":0,
			"byteLength":24,
			"byteOffset":4441896
		},
		{
			"buffer":0,
			"byteLength":24,
			"byteOffset":4441920
		},
		{
			"buffer":0,
			"byteLength":176,
			"byteOffset":4441944
		},
		{
			"buffer":0,
			"byteLength":24,
			"byteOffset":4442120
		}
	],
	"samplers":[
		{
			"magFilter":9729,
			"minFilter":9987
		}
	],
	"buffers":[
		{
			"byteLength":4442144,
			"uri":"bat.bin"
		}
	]
}
