# Blender 4.4.1
# www.blender.org
mtllib map_top_equipment_01.mtl
o 台座上側装置_01
v -0.000000 34.841511 -13.125000
v 2.560561 34.841511 -12.872805
v -0.000000 79.841507 -13.125000
v -2.560560 34.841511 -12.872807
v -2.560560 79.841507 -12.872807
v -5.022721 79.841507 -12.125917
v -7.291859 79.841507 -10.913038
v -5.022721 34.841511 -12.125917
v -7.291859 34.841511 -10.913038
v -9.280777 34.841515 -9.280777
v -10.913040 34.841515 -7.291859
v -9.280777 79.841507 -9.280777
v -10.913040 79.841507 -7.291859
v -12.125917 79.841507 -5.022720
v -12.872807 79.841507 -2.560560
v -12.125917 34.841515 -5.022720
v -12.872807 34.841515 -2.560560
v -13.125000 34.841515 0.000000
v -13.125000 79.841507 0.000000
v -12.872807 79.841507 2.560560
v -12.125917 79.841507 5.022720
v -12.872807 34.841515 2.560560
v -12.125917 34.841515 5.022720
v -10.913038 34.841515 7.291859
v -10.913038 79.841507 7.291859
v -9.280777 79.841507 9.280777
v -7.291859 79.841507 10.913038
v -9.280777 34.841515 9.280777
v -7.291859 34.841511 10.913038
v -5.022720 34.841511 12.125917
v -5.022720 79.841507 12.125917
v -2.560561 79.841507 12.872805
v 0.000000 79.841507 13.125000
v -2.560561 34.841511 12.872805
v 0.000000 34.841511 13.125000
v 2.560560 34.841511 12.872807
v 2.560560 79.841507 12.872807
v 5.022721 79.841507 12.125917
v 7.291859 79.841507 10.913038
v 5.022721 34.841511 12.125917
v 7.291859 34.841511 10.913038
v 9.280777 34.841507 9.280777
v 10.913040 34.841507 7.291859
v 9.280777 79.841515 9.280777
v 10.913040 79.841515 7.291859
v 12.125917 79.841515 5.022720
v 12.872807 79.841515 2.560560
v 12.125917 34.841507 5.022720
v 12.872807 34.841507 2.560560
v 13.125000 34.841507 0.000000
v 13.125000 79.841515 0.000000
v 12.872807 79.841515 -2.560560
v 12.125917 79.841515 -5.022720
v 12.872807 34.841507 -2.560560
v 12.125917 34.841507 -5.022720
v 10.913038 34.841507 -7.291859
v 10.913038 79.841515 -7.291859
v 9.280777 79.841515 -9.280777
v 7.291859 79.841507 -10.913038
v 9.280777 34.841507 -9.280777
v 7.291859 34.841511 -10.913038
v 5.022720 34.841511 -12.125917
v 5.022720 79.841507 -12.125917
v 2.560561 79.841507 -12.872805
v -9.697217 33.093842 0.374999
v -6.322217 33.093834 0.375000
v -6.322218 27.093838 0.375000
v -9.697217 33.093842 -0.375000
v -6.322218 27.093838 -0.375000
v -6.322218 33.093834 -0.375000
v 9.697217 33.093834 -0.374999
v 6.322218 33.093834 -0.374999
v 6.322217 27.093838 -0.374999
v 9.697217 33.093834 0.375001
v 6.322217 33.093834 0.375001
v 6.322216 27.093838 0.375001
v -7.122132 33.093842 -6.591804
v -4.735648 33.093842 -4.205317
v -4.735648 27.093838 -4.205317
v -6.591803 33.093842 -7.122133
v -4.205318 27.093838 -4.735647
v -4.205317 33.093842 -4.735647
v 7.122132 33.093834 6.591804
v 4.735647 33.093834 4.205317
v 4.735647 27.093838 4.205318
v 6.591803 33.093834 7.122133
v 4.205317 33.093834 4.735649
v 4.205316 27.093838 4.735648
v -0.375001 33.093842 -9.697216
v -0.375001 33.093842 -6.322217
v -0.375001 27.093838 -6.322216
v 0.374999 33.093842 -9.697217
v 0.374999 27.093838 -6.322217
v 0.374999 33.093842 -6.322217
v 0.375000 33.093842 9.697217
v 0.375000 33.093842 6.322217
v 0.374999 27.093838 6.322216
v -0.375000 33.093842 9.697216
v -0.375000 33.093842 6.322216
v -0.375001 27.093838 6.322216
v -6.591804 33.093842 7.122132
v -4.205318 33.093842 4.735647
v -4.205318 27.093838 4.735647
v -7.122133 33.093842 6.591803
v -4.735649 27.093838 4.205317
v -4.735648 33.093842 4.205317
v 6.591804 33.093834 -7.122132
v 4.205317 33.093834 -4.735647
v 4.205317 27.093838 -4.735647
v 7.122133 33.093834 -6.591801
v 4.735647 33.093834 -4.205317
v 4.735647 27.093838 -4.205317
vn -0.0000 -0.0000 -1.0000
vn 0.1951 -0.0000 -0.9808
vn -0.1951 -0.0000 -0.9808
vn -0.3827 -0.0000 -0.9239
vn -0.5556 -0.0000 -0.8315
vn -0.7071 -0.0000 -0.7071
vn -0.8315 -0.0000 -0.5556
vn -0.9239 -0.0000 -0.3827
vn -0.9808 -0.0000 -0.1951
vn -1.0000 -0.0000 -0.0000
vn -0.9808 -0.0000 0.1951
vn -0.9239 -0.0000 0.3827
vn -0.8315 -0.0000 0.5556
vn -0.7071 -0.0000 0.7071
vn -0.5556 -0.0000 0.8315
vn -0.3827 -0.0000 0.9239
vn -0.1951 -0.0000 0.9808
vn -0.0000 -0.0000 1.0000
vn 0.1951 -0.0000 0.9808
vn 0.3827 -0.0000 0.9239
vn 0.5556 -0.0000 0.8315
vn 0.7071 -0.0000 0.7071
vn 0.8315 -0.0000 0.5556
vn 0.9239 -0.0000 0.3827
vn 0.9808 -0.0000 0.1951
vn 1.0000 -0.0000 -0.0000
vn 0.9808 -0.0000 -0.1951
vn 0.9239 -0.0000 -0.3827
vn 0.8315 -0.0000 -0.5556
vn 0.7071 -0.0000 -0.7071
vn 0.5556 -0.0000 -0.8315
vn 0.3827 -0.0000 -0.9239
vn -0.8716 -0.4903 -0.0000
vn 0.8716 -0.4903 -0.0000
vn -0.6163 -0.4903 -0.6163
vn 0.6163 -0.4903 0.6163
vn -0.0000 -0.4903 -0.8716
vn -0.0000 -0.4903 0.8716
vn -0.6163 -0.4903 0.6163
vn 0.6163 -0.4903 -0.6163
vt 1.000000 1.000000
vt 0.968750 0.500000
vt 1.000000 0.500000
vt 0.031250 1.000000
vt 0.000000 1.000000
vt 0.000000 0.500000
vt 0.031250 0.500000
vt 0.062500 1.000000
vt 0.093750 1.000000
vt 0.062500 0.500000
vt 0.093750 0.500000
vt 0.125000 0.500000
vt 0.156250 1.000000
vt 0.156250 0.500000
vt 0.125000 1.000000
vt 0.187500 1.000000
vt 0.218750 1.000000
vt 0.187500 0.500000
vt 0.218750 0.500000
vt 0.250000 1.000000
vt 0.250000 0.500000
vt 0.281250 1.000000
vt 0.312500 1.000000
vt 0.281250 0.500000
vt 0.312500 0.500000
vt 0.343750 1.000000
vt 0.343750 0.500000
vt 0.375000 1.000000
vt 0.406250 1.000000
vt 0.375000 0.500000
vt 0.406250 0.500000
vt 0.437500 1.000000
vt 0.437500 0.500000
vt 0.468750 1.000000
vt 0.500000 1.000000
vt 0.468750 0.500000
vt 0.500000 0.500000
vt 0.531250 1.000000
vt 0.531250 0.500000
vt 0.562500 1.000000
vt 0.593750 1.000000
vt 0.562500 0.500000
vt 0.593750 0.500000
vt 0.625000 0.500000
vt 0.656250 1.000000
vt 0.656250 0.500000
vt 0.625000 1.000000
vt 0.687500 1.000000
vt 0.718750 1.000000
vt 0.687500 0.500000
vt 0.718750 0.500000
vt 0.750000 1.000000
vt 0.750000 0.500000
vt 0.781250 1.000000
vt 0.812500 1.000000
vt 0.781250 0.500000
vt 0.812500 0.500000
vt 0.843750 1.000000
vt 0.843750 0.500000
vt 0.875000 1.000000
vt 0.906250 1.000000
vt 0.875000 0.500000
vt 0.906250 0.500000
vt 0.937500 1.000000
vt 0.937500 0.500000
vt 0.968750 1.000000
vt 0.375000 0.000000
vt 0.625000 0.250000
vt 0.375000 0.250000
vt 0.625000 0.750000
vt 0.375000 0.750000
s 1
f 3/1/1 2/2/2 1/3/1
f 5/4/3 3/5/1 1/6/1
f 5/4/3 1/6/1 4/7/3
f 6/8/4 5/4/3 4/7/3
f 7/9/5 6/8/4 8/10/4
f 6/8/4 4/7/3 8/10/4
f 7/9/5 8/10/4 9/11/5
f 10/12/6 7/9/5 9/11/5
f 13/13/7 10/12/6 11/14/7
f 13/13/7 12/15/6 10/12/6
f 10/12/6 12/15/6 7/9/5
f 14/16/8 13/13/7 11/14/7
f 15/17/9 14/16/8 16/18/8
f 14/16/8 11/14/7 16/18/8
f 15/17/9 16/18/8 17/19/9
f 19/20/10 17/19/9 18/21/10
f 19/20/10 15/17/9 17/19/9
f 20/22/11 19/20/10 18/21/10
f 21/23/12 20/22/11 22/24/11
f 20/22/11 18/21/10 22/24/11
f 21/23/12 22/24/11 23/25/12
f 25/26/13 23/25/12 24/27/13
f 25/26/13 21/23/12 23/25/12
f 26/28/14 25/26/13 24/27/13
f 27/29/15 26/28/14 28/30/14
f 26/28/14 24/27/13 28/30/14
f 27/29/15 28/30/14 29/31/15
f 31/32/16 29/31/15 30/33/16
f 31/32/16 27/29/15 29/31/15
f 32/34/17 31/32/16 30/33/16
f 33/35/18 32/34/17 34/36/17
f 32/34/17 30/33/16 34/36/17
f 33/35/18 34/36/17 35/37/18
f 37/38/19 35/37/18 36/39/19
f 37/38/19 33/35/18 35/37/18
f 38/40/20 37/38/19 36/39/19
f 39/41/21 38/40/20 40/42/20
f 38/40/20 36/39/19 40/42/20
f 39/41/21 40/42/20 41/43/21
f 42/44/22 39/41/21 41/43/21
f 45/45/23 42/44/22 43/46/23
f 45/45/23 44/47/22 42/44/22
f 42/44/22 44/47/22 39/41/21
f 46/48/24 45/45/23 43/46/23
f 47/49/25 46/48/24 48/50/24
f 46/48/24 43/46/23 48/50/24
f 47/49/25 48/50/24 49/51/25
f 51/52/26 49/51/25 50/53/26
f 51/52/26 47/49/25 49/51/25
f 52/54/27 51/52/26 50/53/26
f 53/55/28 52/54/27 54/56/27
f 52/54/27 50/53/26 54/56/27
f 53/55/28 54/56/27 55/57/28
f 57/58/29 55/57/28 56/59/29
f 57/58/29 53/55/28 55/57/28
f 58/60/30 57/58/29 56/59/29
f 59/61/31 58/60/30 60/62/30
f 58/60/30 56/59/29 60/62/30
f 59/61/31 60/62/30 61/63/31
f 63/64/32 61/63/31 62/65/32
f 63/64/32 59/61/31 61/63/31
f 64/66/2 63/64/32 62/65/32
f 3/1/1 64/66/2 2/2/2
f 64/66/2 62/65/32 2/2/2
s 0
f 65/67/18 67/68/18 66/69/18
f 69/70/33 67/47/33 65/28/33
f 69/70/33 65/28/33 68/71/33
f 67/68/26 69/44/26 70/30/26
f 70/30/1 69/70/1 68/71/1
f 67/68/26 70/30/26 66/69/26
f 71/67/1 73/68/1 72/69/1
f 74/71/34 73/47/34 71/28/34
f 75/30/18 76/70/18 74/71/18
f 74/71/34 76/70/34 73/47/34
f 73/68/10 76/44/10 75/30/10
f 73/68/10 75/30/10 72/69/10
f 77/67/14 79/68/14 78/69/14
f 81/70/35 79/47/35 77/28/35
f 81/70/35 77/28/35 80/71/35
f 79/68/22 81/44/22 82/30/22
f 82/30/30 81/70/30 80/71/30
f 79/68/22 82/30/22 78/69/22
f 83/67/30 85/68/30 84/69/30
f 86/71/36 85/47/36 83/28/36
f 87/30/14 88/70/14 86/71/14
f 86/71/36 88/70/36 85/47/36
f 85/68/6 88/44/6 87/30/6
f 85/68/6 87/30/6 84/69/6
f 89/67/10 91/68/10 90/69/10
f 93/70/37 91/47/37 89/28/37
f 93/70/37 89/28/37 92/71/37
f 91/68/18 93/44/18 94/30/18
f 94/30/26 93/70/26 92/71/26
f 91/68/18 94/30/18 90/69/18
f 95/67/26 97/68/26 96/69/26
f 98/71/38 97/47/38 95/28/38
f 99/30/10 100/70/10 98/71/10
f 98/71/38 100/70/38 97/47/38
f 97/68/1 100/44/1 99/30/1
f 97/68/1 99/30/1 96/69/1
f 101/67/22 103/68/22 102/69/22
f 105/70/39 103/47/39 101/28/39
f 105/70/39 101/28/39 104/71/39
f 103/68/30 105/44/30 106/30/30
f 106/30/6 105/70/6 104/71/6
f 103/68/30 106/30/30 102/69/30
f 107/67/6 109/68/6 108/69/6
f 110/71/40 109/47/40 107/28/40
f 111/30/22 112/70/22 110/71/22
f 110/71/40 112/70/40 109/47/40
f 109/68/14 112/44/14 111/30/14
f 109/68/14 111/30/14 108/69/14
