# Reusable faceted prism spike cluster
mtllib prism_crystal_spike.mtl
o PrismCrystalSpike
v 0.3738606 0.0000000 0.0680312
v -0.0600000 2.7500000 0.0300000
v 0.1280135 0.0000000 0.3577884
v 0.1280135 0.0000000 0.3577884
v -0.0600000 2.7500000 0.0300000
v -0.2458471 0.0000000 0.2897572
v -0.2458471 0.0000000 0.2897572
v -0.0600000 2.7500000 0.0300000
v -0.3738606 0.0000000 -0.0680312
v -0.3738606 0.0000000 -0.0680312
v -0.0600000 2.7500000 0.0300000
v -0.1280135 0.0000000 -0.3577884
v -0.1280135 0.0000000 -0.3577884
v -0.0600000 2.7500000 0.0300000
v 0.2458471 0.0000000 -0.2897572
v 0.2458471 0.0000000 -0.2897572
v -0.0600000 2.7500000 0.0300000
v 0.3738606 0.0000000 0.0680312
v 0.0000000 0.0000000 0.0000000
v 0.1280135 0.0000000 0.3577884
v -0.2458471 0.0000000 0.2897572
v 0.0000000 0.0000000 0.0000000
v -0.2458471 0.0000000 0.2897572
v -0.3738606 0.0000000 -0.0680312
v 0.0000000 0.0000000 0.0000000
v -0.3738606 0.0000000 -0.0680312
v -0.1280135 0.0000000 -0.3577884
v 0.0000000 0.0000000 0.0000000
v -0.1280135 0.0000000 -0.3577884
v 0.2458471 0.0000000 -0.2897572
v -0.1724460 0.0000000 0.0651142
v -0.6400000 1.8200000 0.2000000
v -0.3103233 0.0000000 0.3246575
v -0.3103233 0.0000000 0.3246575
v -0.6400000 1.8200000 0.2000000
v -0.5997700 0.0000000 0.2737318
v -0.5997700 0.0000000 0.2737318
v -0.6400000 1.8200000 0.2000000
v -0.6407807 0.0000000 -0.0172854
v -0.6407807 0.0000000 -0.0172854
v -0.6400000 1.8200000 0.2000000
v -0.3766800 0.0000000 -0.1462181
v -0.3766800 0.0000000 -0.1462181
v -0.6400000 1.8200000 0.2000000
v -0.1724460 0.0000000 0.0651142
v -0.4200000 0.0000000 0.1000000
v -0.3103233 0.0000000 0.3246575
v -0.5997700 0.0000000 0.2737318
v -0.4200000 0.0000000 0.1000000
v -0.5997700 0.0000000 0.2737318
v -0.6407807 0.0000000 -0.0172854
v -0.4200000 0.0000000 0.1000000
v -0.6407807 0.0000000 -0.0172854
v -0.3766800 0.0000000 -0.1462181
v 0.6008796 0.0000000 -0.0302927
v 0.6000000 1.5200000 -0.2000000
v 0.3767585 0.0000000 0.0987689
v 0.3767585 0.0000000 0.0987689
v 0.6000000 1.5200000 -0.2000000
v 0.1847564 0.0000000 -0.0745007
v 0.1847564 0.0000000 -0.0745007
v 0.6000000 1.5200000 -0.2000000
v 0.2902136 0.0000000 -0.3106488
v 0.2902136 0.0000000 -0.3106488
v 0.6000000 1.5200000 -0.2000000
v 0.5473919 0.0000000 -0.2833267
v 0.5473919 0.0000000 -0.2833267
v 0.6000000 1.5200000 -0.2000000
v 0.6008796 0.0000000 -0.0302927
v 0.4000000 0.0000000 -0.1200000
v 0.3767585 0.0000000 0.0987689
v 0.1847564 0.0000000 -0.0745007
v 0.4000000 0.0000000 -0.1200000
v 0.1847564 0.0000000 -0.0745007
v 0.2902136 0.0000000 -0.3106488
v 0.4000000 0.0000000 -0.1200000
v 0.2902136 0.0000000 -0.3106488
v 0.5473919 0.0000000 -0.2833267
vn 0.7562286 0.1281817 0.6416290
vn 0.7562286 0.1281817 0.6416290
vn 0.7562286 0.1281817 0.6416290
vn -0.1780502 0.1044555 0.9784616
vn -0.1780502 0.1044555 0.9784616
vn -0.1780502 0.1044555 0.9784616
vn -0.9372883 0.0950192 0.3353535
vn -0.9372883 0.0950192 0.3353535
vn -0.9372883 0.0950192 0.3353535
vn -0.7579396 0.1094289 -0.6430807
vn -0.7579396 0.1094289 -0.6430807
vn -0.7579396 0.1094289 -0.6430807
vn 0.1774364 0.1331127 -0.9750884
vn 0.1774364 0.1331127 -0.9750884
vn 0.1774364 0.1331127 -0.9750884
vn 0.9319506 0.1424201 -0.3334437
vn 0.9319506 0.1424201 -0.3334437
vn 0.9319506 0.1424201 -0.3334437
vn 0.0000000 -1.0000000 0.0000000
vn 0.0000000 -1.0000000 0.0000000
vn 0.0000000 -1.0000000 0.0000000
vn -0.0000000 -1.0000000 0.0000000
vn -0.0000000 -1.0000000 0.0000000
vn -0.0000000 -1.0000000 0.0000000
vn 0.0000000 -1.0000000 0.0000000
vn 0.0000000 -1.0000000 0.0000000
vn 0.0000000 -1.0000000 0.0000000
vn 0.0000000 -1.0000000 -0.0000000
vn 0.0000000 -1.0000000 -0.0000000
vn 0.0000000 -1.0000000 -0.0000000
vn 0.8672654 0.1886534 0.4607176
vn 0.8672654 0.1886534 0.4607176
vn 0.8672654 0.1886534 0.4607176
vn -0.1731676 0.0360454 0.9842326
vn -0.1731676 0.0360454 0.9842326
vn -0.1731676 0.0360454 0.9842326
vn -0.9900855 -0.0162328 0.1395247
vn -0.9900855 -0.0162328 0.1395247
vn -0.9900855 -0.0162328 0.1395247
vn -0.4361950 0.1068581 -0.8934849
vn -0.4361950 0.1068581 -0.8934849
vn -0.4361950 0.1068581 -0.8934849
vn 0.6998182 0.2299053 -0.6763121
vn 0.6998182 0.2299053 -0.6763121
vn 0.6998182 0.2299053 -0.6763121
vn 0.0000000 -1.0000000 0.0000000
vn 0.0000000 -1.0000000 0.0000000
vn 0.0000000 -1.0000000 0.0000000
vn -0.0000000 -1.0000000 0.0000000
vn -0.0000000 -1.0000000 0.0000000
vn -0.0000000 -1.0000000 0.0000000
vn 0.0000000 -1.0000000 -0.0000000
vn 0.0000000 -1.0000000 -0.0000000
vn 0.0000000 -1.0000000 -0.0000000
vn 0.4966956 0.0965889 0.8625335
vn 0.4966956 0.0965889 0.8625335
vn 0.4966956 0.0965889 0.8625335
vn -0.6508201 0.2373399 0.7211816
vn -0.6508201 0.2373399 0.7211816
vn -0.6508201 0.2373399 0.7211816
vn -0.8925470 0.2109224 -0.3985870
vn -0.8925470 0.2109224 -0.3985870
vn -0.8925470 0.2109224 -0.3985870
vn 0.1055069 0.0507914 -0.9931206
vn 0.1055069 0.0507914 -0.9931206
vn 0.1055069 0.0507914 -0.9931206
vn 0.9781319 -0.0225189 -0.2067626
vn 0.9781319 -0.0225189 -0.2067626
vn 0.9781319 -0.0225189 -0.2067626
vn 0.0000000 -1.0000000 0.0000000
vn 0.0000000 -1.0000000 0.0000000
vn 0.0000000 -1.0000000 0.0000000
vn -0.0000000 -1.0000000 0.0000000
vn -0.0000000 -1.0000000 0.0000000
vn -0.0000000 -1.0000000 0.0000000
vn 0.0000000 -1.0000000 -0.0000000
vn 0.0000000 -1.0000000 -0.0000000
vn 0.0000000 -1.0000000 -0.0000000
usemtl PrismCrystal
s off
f 1//1 2//2 3//3
f 4//4 5//5 6//6
f 7//7 8//8 9//9
f 10//10 11//11 12//12
f 13//13 14//14 15//15
f 16//16 17//17 18//18
f 19//19 20//20 21//21
f 22//22 23//23 24//24
f 25//25 26//26 27//27
f 28//28 29//29 30//30
f 31//31 32//32 33//33
f 34//34 35//35 36//36
f 37//37 38//38 39//39
f 40//40 41//41 42//42
f 43//43 44//44 45//45
f 46//46 47//47 48//48
f 49//49 50//50 51//51
f 52//52 53//53 54//54
f 55//55 56//56 57//57
f 58//58 59//59 60//60
f 61//61 62//62 63//63
f 64//64 65//65 66//66
f 67//67 68//68 69//69
f 70//70 71//71 72//72
f 73//73 74//74 75//75
f 76//76 77//77 78//78
