# Blender 4.4.1
# www.blender.org
mtllib map_tutorial_10.mtl
o 立方体.001
v -1.000000 -16.762421 -22.089285
v -1.000000 71.725113 -22.089285
v -1.000000 -16.762421 -24.089285
v -1.000000 71.725113 -24.089285
v 1.000000 -16.762421 -22.089285
v 1.000000 71.725113 -22.089285
v 1.000000 -16.762421 -24.089285
v 1.000000 71.725113 -24.089285
v -1.000000 -16.762421 7.764414
v -1.000000 71.725113 7.764414
v -1.000000 -16.762421 5.764414
v -1.000000 71.725113 5.764414
v 1.000000 -16.762421 7.764414
v 1.000000 71.725113 7.764414
v 1.000000 -16.762421 5.764414
v 1.000000 71.725113 5.764414
v 13.822883 -16.762421 -7.980748
v 13.822883 71.725113 -7.980748
v 13.822883 -16.762421 -9.980748
v 13.822883 71.725113 -9.980748
v 15.822883 -16.762421 -7.980748
v 15.822883 71.725113 -7.980748
v 15.822883 -16.762421 -9.980748
v 15.822883 71.725113 -9.980748
v -15.994819 -16.703632 -7.980748
v -15.994819 71.783905 -7.980748
v -15.994819 -16.703632 -9.980748
v -15.994819 71.783905 -9.980748
v -13.994819 -16.703632 -7.980748
v -13.994819 71.783905 -7.980748
v -13.994819 -16.703632 -9.980748
v -13.994819 71.783905 -9.980748
v -12.444787 61.045860 -17.588549
v -11.091138 61.045860 -19.237974
v -8.713841 61.045860 -21.188972
v -10.363268 61.045860 -19.835320
v -7.883421 61.045860 -21.632841
v -2.121588 61.045860 -23.623720
v -3.058657 61.045860 -23.531425
v -5.100547 61.045860 -22.912025
v 0.938977 61.045860 -23.740572
v 0.001907 61.045860 -23.832867
v -6.001606 61.045860 -22.638693
v -15.686028 61.045860 -8.144930
v -15.593735 61.045860 -9.082000
v -15.384588 61.045860 -5.084366
v -14.765187 61.045860 -3.042475
v -15.476881 61.045860 -6.021435
v -13.042134 61.045860 0.570820
v -11.688485 61.045860 2.220245
v -13.486003 61.045860 -0.259600
v -9.441711 61.045860 4.301764
v -11.091138 61.045860 2.948114
v -14.491855 61.045860 -2.141417
v 0.001907 61.045860 7.543005
v -0.935163 61.045860 7.450710
v 2.125402 61.045860 7.333858
v 3.062471 61.045860 7.241564
v 5.104362 61.045860 6.622164
v 10.367082 61.045860 3.545462
v 8.717656 61.045860 4.899111
v 7.887237 61.045860 5.342979
v 12.448601 61.045860 1.298689
v 11.094952 61.045860 2.948114
v 6.005420 61.045860 6.348829
v 9.445526 61.045860 -20.591623
v 11.094952 61.045860 -19.237974
v 13.045948 61.045860 -16.860680
v 11.692299 61.045860 -18.510105
v 13.489817 61.045860 -16.030258
v 15.388402 61.045860 -11.205495
v 14.769001 61.045860 -13.247385
v 15.480695 61.045860 -10.268425
v 15.689841 61.045860 -8.144930
v 15.597548 61.045860 -7.207861
v 14.495668 61.045860 -14.148443
v -15.111256 61.045860 -12.106553
v -15.384588 61.045860 -11.205495
v -13.042134 61.045860 -16.860680
v -14.047986 61.045860 -14.978864
v -14.491855 61.045860 -14.148443
v -6.832026 61.045860 5.904963
v -8.713841 61.045860 4.899111
v 3.963530 61.045860 -23.258091
v 3.062471 61.045860 -23.531425
v -3.058657 61.045860 7.241564
v -3.959716 61.045860 6.968233
v -6.001606 61.045860 6.348829
v 6.005420 61.045860 -22.638693
v 6.835841 61.045860 -22.194824
v 13.045948 61.045860 0.570820
v 14.051800 61.045860 -1.310997
v 15.388402 61.045860 -5.084366
v 15.115069 61.045860 -4.183308
v 14.495668 61.045860 -2.141417
v 8.717656 61.045860 -21.188972
v 1.015491 58.954140 -23.733036
v 3.062471 58.954140 -23.531425
v 6.005420 58.954140 -22.638693
v 4.037104 58.954140 -23.235775
v 6.903646 58.954140 -22.158581
v 11.741074 58.954140 -18.450672
v 11.094952 58.954140 -19.237974
v 9.504959 58.954140 -20.542849
v 13.526059 58.954140 -15.962454
v 13.045948 58.954140 -16.860680
v 8.717656 58.954140 -21.188972
v 8.717656 58.954140 4.899111
v 7.819431 58.954140 5.379223
v 10.307650 58.954140 3.594238
v 11.094952 58.954140 2.948114
v 12.399826 58.954140 1.358122
v 14.015557 58.954140 -1.243191
v 14.495668 58.954140 -2.141417
v 15.092751 58.954140 -4.109734
v 15.590013 58.954140 -7.131347
v 15.388402 58.954140 -5.084366
v 13.045948 58.954140 0.570820
v -13.042134 58.954140 0.570820
v -13.522245 58.954140 -0.327406
v -11.091138 58.954140 2.948114
v -11.737260 58.954140 2.160812
v -9.501143 58.954140 4.252989
v -6.001606 58.954140 6.348829
v -4.033289 58.954140 6.945913
v -6.899831 58.954140 5.868719
v -1.011677 58.954140 7.443174
v -3.058657 58.954140 7.241564
v -8.713841 58.954140 4.899111
v -15.586199 58.954140 -9.158514
v -14.011744 58.954140 -15.046669
v -14.491855 58.954140 -14.148443
v -15.088937 58.954140 -12.180127
v -15.384588 58.954140 -11.205495
v -10.303836 58.954140 -19.884094
v -11.091138 58.954140 -19.237974
v -12.396012 58.954140 -17.647980
v -7.815616 58.954140 -21.669083
v -8.713841 58.954140 -21.188972
v -13.042134 58.954140 -16.860680
v -2.045074 58.954140 -23.631256
v -3.058657 58.954140 -23.531425
v 0.001907 58.954140 -23.832867
v 3.062471 58.954140 7.241564
v 5.030788 58.954140 6.644480
v 14.495668 58.954140 -14.148443
v 14.791320 58.954140 -13.173811
v 15.689841 58.954140 -8.144930
v 15.488231 58.954140 -10.191911
v 15.388402 58.954140 -11.205495
v 6.005420 58.954140 6.348829
v -15.686028 58.954140 -8.144930
v -15.484417 58.954140 -6.097950
v -14.491855 58.954140 -2.141417
v -14.787506 58.954140 -3.116049
v -15.384588 58.954140 -5.084366
v -5.026974 58.954140 -22.934341
v -6.001606 58.954140 -22.638693
v 2.048888 58.954140 7.341394
v 0.001907 58.954140 7.543005
v -11.998640 61.045860 -16.171951
v -10.204241 61.045860 -18.358433
v -11.431107 61.045860 -16.863493
v -8.017759 61.045860 -20.152832
v -5.523222 61.045860 -21.486191
v -7.228786 61.045860 -20.574547
v -9.512700 61.045860 -18.925964
v -4.667136 61.045860 -21.745880
v -2.816491 61.045860 -22.307268
v -1.926191 61.045860 -22.394955
v -0.001584 61.045860 -22.584515
v 3.669410 61.045860 -22.047579
v 0.888716 61.045860 -22.496826
v 2.813323 61.045860 -22.307268
v -14.240763 61.045860 -6.231169
v -14.430320 61.045860 -8.155776
v -14.342632 61.045860 -9.046076
v -14.153076 61.045860 -10.970683
v -13.893386 61.045860 -11.826769
v -13.591688 61.045860 -3.490223
v -14.153076 61.045860 -5.340870
v -13.331998 61.045860 -2.634138
v -11.998640 61.045860 -0.139599
v -12.420355 61.045860 -0.928572
v -10.204241 61.045860 2.046883
v -10.771773 61.045860 1.355341
v -8.017759 61.045860 3.841280
v -8.709301 61.045860 3.273748
v -3.672576 61.045860 5.736025
v -2.816491 61.045860 5.995716
v -0.891883 61.045860 6.185274
v -0.001584 61.045860 6.272963
v 2.813323 61.045860 5.995716
v 1.923023 61.045860 6.083403
v 4.663969 61.045860 5.434326
v 5.520055 61.045860 5.174637
v 8.014593 61.045860 3.841280
v 7.225620 61.045860 4.262995
v 10.201074 61.045860 2.046883
v 9.509532 61.045860 2.614414
v 11.995472 61.045860 -0.139599
v 11.427939 61.045860 0.551941
v 8.014593 61.045860 -20.152832
v 10.201074 61.045860 -18.358433
v 8.706134 61.045860 -19.585299
v 11.995472 61.045860 -16.171951
v 10.768605 61.045860 -17.666891
v 12.417187 61.045860 -15.382979
v 14.149908 61.045860 -5.340870
v 13.890218 61.045860 -4.484783
v 14.339465 61.045860 -7.265476
v 14.427152 61.045860 -8.155776
v 14.237595 61.045860 -10.080383
v 14.149908 61.045860 -10.970683
v 13.588520 61.045860 -12.821329
v 13.328830 61.045860 -13.677415
v -13.331998 61.045860 -13.677415
v -12.910283 61.045860 -14.466388
v -6.312195 61.045860 4.752922
v 6.290779 61.045860 -21.074230
v 5.520055 61.045860 -21.486191
v -5.523222 61.045860 5.174637
v 6.309029 61.045860 -21.064476
v 13.328830 61.045860 -2.634138
v 12.907115 61.045860 -1.845163
v -13.331998 58.954140 -2.634138
v -10.780370 58.954140 1.344866
v -10.204241 58.954140 2.046883
v -12.426742 58.954140 -0.940521
v -11.998640 58.954140 -0.139599
v -14.430320 58.954140 -8.155776
v -14.341305 58.954140 -9.059560
v -14.153076 58.954140 -5.340870
v -14.242090 58.954140 -6.244654
v -13.595621 58.954140 -3.503189
v -10.204241 58.954140 -18.358433
v -11.422510 58.954140 -16.873966
v -8.017759 58.954140 3.841280
v -8.719774 58.954140 3.265152
v -13.889451 58.954140 -11.839735
v -14.153076 58.954140 -10.970683
v -11.998640 58.954140 -16.171951
v -12.903895 58.954140 -14.478337
v -13.331998 58.954140 -13.677415
v 8.014593 58.954140 3.841280
v 11.419343 58.954140 0.562414
v 11.995472 58.954140 -0.139599
v 9.499058 58.954140 2.623011
v 10.201074 58.954140 2.046883
v 7.213670 58.954140 4.269381
v 13.328830 58.954140 -2.634138
v 12.900728 58.954140 -1.833214
v 14.149908 58.954140 -5.340870
v 13.886285 58.954140 -4.471817
v 14.427152 58.954140 -8.155776
v 14.338138 58.954140 -7.251992
v 5.520055 58.954140 5.174637
v 11.995472 58.954140 -16.171951
v 12.423573 58.954140 -15.371029
v 14.238922 58.954140 -10.066899
v 14.149908 58.954140 -10.970683
v 13.592455 58.954140 -12.808363
v 13.328830 58.954140 -13.677415
v -6.324144 58.954140 4.746534
v -3.685542 58.954140 5.732092
v -5.523222 58.954140 5.174637
v -2.816491 58.954140 5.995716
v 2.813323 58.954140 5.995716
v 1.909540 58.954140 6.084730
v -0.001584 58.954140 6.272963
v -0.905367 58.954140 6.183947
v -9.502226 58.954140 -18.934561
v 4.651003 58.954140 5.438261
v 10.777202 58.954140 -17.656418
v 10.201074 58.954140 -18.358433
v -8.017759 58.954140 -20.152832
v -7.216837 58.954140 -20.580933
v 3.682375 58.954140 -22.043644
v 2.813323 58.954140 -22.307268
v 0.902200 58.954140 -22.495497
v 5.520055 58.954140 -21.486191
v 6.320978 58.954140 -21.058088
v 8.716607 58.954140 -19.576704
v 8.014593 58.954140 -20.152832
v -4.654171 58.954140 -21.749813
v -5.523222 58.954140 -21.486191
v -0.001584 58.954140 -22.584515
v -1.912707 58.954140 -22.396284
v -2.816491 58.954140 -22.307268
v -12.444787 21.045860 -17.588549
v -11.091138 21.045860 -19.237974
v -8.713841 21.045860 -21.188972
v -10.363268 21.045860 -19.835320
v -7.883421 21.045860 -21.632841
v -2.121588 21.045860 -23.623720
v -3.058657 21.045860 -23.531425
v -5.100547 21.045860 -22.912025
v 0.938977 21.045860 -23.740572
v 0.001907 21.045860 -23.832867
v -6.001606 21.045860 -22.638693
v -15.686028 21.045860 -8.144930
v -15.593735 21.045860 -9.082000
v -15.384588 21.045860 -5.084366
v -14.765187 21.045860 -3.042475
v -15.476881 21.045860 -6.021435
v -13.042134 21.045860 0.570820
v -11.688485 21.045860 2.220245
v -13.486003 21.045860 -0.259600
v -9.441711 21.045860 4.301764
v -11.091138 21.045860 2.948114
v -14.491855 21.045860 -2.141417
v 0.001907 21.045860 7.543005
v -0.935163 21.045860 7.450710
v 2.125402 21.045860 7.333858
v 3.062471 21.045860 7.241564
v 5.104362 21.045860 6.622164
v 10.367082 21.045860 3.545462
v 8.717656 21.045860 4.899111
v 7.887237 21.045860 5.342979
v 12.448601 21.045860 1.298689
v 11.094952 21.045860 2.948114
v 6.005420 21.045860 6.348829
v 9.445526 21.045860 -20.591623
v 11.094952 21.045860 -19.237974
v 13.045948 21.045860 -16.860680
v 11.692299 21.045860 -18.510105
v 13.489817 21.045860 -16.030258
v 15.388402 21.045860 -11.205495
v 14.769001 21.045860 -13.247385
v 15.480695 21.045860 -10.268425
v 15.689841 21.045860 -8.144930
v 15.597548 21.045860 -7.207861
v 14.495668 21.045860 -14.148443
v -15.111256 21.045860 -12.106553
v -15.384588 21.045860 -11.205495
v -13.042134 21.045860 -16.860680
v -14.047986 21.045860 -14.978864
v -14.491855 21.045860 -14.148443
v -6.832026 21.045860 5.904963
v -8.713841 21.045860 4.899111
v 3.963530 21.045860 -23.258091
v 3.062471 21.045860 -23.531425
v -3.058657 21.045860 7.241564
v -3.959716 21.045860 6.968233
v -6.001606 21.045860 6.348829
v 6.005420 21.045860 -22.638693
v 6.835841 21.045860 -22.194824
v 13.045948 21.045860 0.570820
v 14.051800 21.045860 -1.310997
v 15.388402 21.045860 -5.084366
v 15.115069 21.045860 -4.183308
v 14.495668 21.045860 -2.141417
v 8.717656 21.045860 -21.188972
v 1.015491 18.954136 -23.733036
v 3.062471 18.954136 -23.531425
v 6.005420 18.954136 -22.638693
v 4.037104 18.954136 -23.235775
v 6.903646 18.954136 -22.158581
v 11.741074 18.954136 -18.450672
v 11.094952 18.954136 -19.237974
v 9.504959 18.954136 -20.542849
v 13.526059 18.954136 -15.962454
v 13.045948 18.954136 -16.860680
v 8.717656 18.954136 -21.188972
v 8.717656 18.954136 4.899111
v 7.819431 18.954136 5.379223
v 10.307650 18.954136 3.594238
v 11.094952 18.954136 2.948114
v 12.399826 18.954136 1.358122
v 14.015557 18.954136 -1.243191
v 14.495668 18.954136 -2.141417
v 15.092751 18.954136 -4.109734
v 15.590013 18.954136 -7.131347
v 15.388402 18.954136 -5.084366
v 13.045948 18.954136 0.570820
v -13.042134 18.954136 0.570820
v -13.522245 18.954136 -0.327406
v -11.091138 18.954136 2.948114
v -11.737260 18.954136 2.160812
v -9.501143 18.954136 4.252989
v -6.001606 18.954136 6.348829
v -4.033289 18.954136 6.945913
v -6.899831 18.954136 5.868719
v -1.011677 18.954136 7.443174
v -3.058657 18.954136 7.241564
v -8.713841 18.954136 4.899111
v -15.586199 18.954136 -9.158514
v -14.011744 18.954136 -15.046669
v -14.491855 18.954136 -14.148443
v -15.088937 18.954136 -12.180127
v -15.384588 18.954136 -11.205495
v -10.303836 18.954136 -19.884094
v -11.091138 18.954136 -19.237974
v -12.396012 18.954136 -17.647980
v -7.815616 18.954136 -21.669083
v -8.713841 18.954136 -21.188972
v -13.042134 18.954136 -16.860680
v -2.045074 18.954136 -23.631256
v -3.058657 18.954136 -23.531425
v 0.001907 18.954136 -23.832867
v 3.062471 18.954136 7.241564
v 5.030788 18.954136 6.644480
v 14.495668 18.954136 -14.148443
v 14.791320 18.954136 -13.173811
v 15.689841 18.954136 -8.144930
v 15.488231 18.954136 -10.191911
v 15.388402 18.954136 -11.205495
v 6.005420 18.954136 6.348829
v -15.686028 18.954136 -8.144930
v -15.484417 18.954136 -6.097950
v -14.491855 18.954136 -2.141417
v -14.787506 18.954136 -3.116049
v -15.384588 18.954136 -5.084366
v -5.026974 18.954136 -22.934341
v -6.001606 18.954136 -22.638693
v 2.048888 18.954136 7.341394
v 0.001907 18.954136 7.543005
v -11.998640 21.045860 -16.171951
v -10.204241 21.045860 -18.358433
v -11.431107 21.045860 -16.863493
v -8.017759 21.045860 -20.152832
v -5.523222 21.045860 -21.486191
v -7.228786 21.045860 -20.574547
v -9.512700 21.045860 -18.925964
v -4.667136 21.045860 -21.745880
v -2.816491 21.045860 -22.307268
v -1.926191 21.045860 -22.394955
v -0.001584 21.045860 -22.584515
v 3.669410 21.045860 -22.047579
v 0.888716 21.045860 -22.496826
v 2.813323 21.045860 -22.307268
v -14.240763 21.045860 -6.231169
v -14.430320 21.045860 -8.155776
v -14.342632 21.045860 -9.046076
v -14.153076 21.045860 -10.970683
v -13.893386 21.045860 -11.826769
v -13.591688 21.045860 -3.490223
v -14.153076 21.045860 -5.340870
v -13.331998 21.045860 -2.634138
v -11.998640 21.045860 -0.139599
v -12.420355 21.045860 -0.928572
v -10.204241 21.045860 2.046883
v -10.771773 21.045860 1.355341
v -8.017759 21.045860 3.841280
v -8.709301 21.045860 3.273748
v -3.672576 21.045860 5.736025
v -2.816491 21.045860 5.995716
v -0.891883 21.045860 6.185274
v -0.001584 21.045860 6.272963
v 2.813323 21.045860 5.995716
v 1.923023 21.045860 6.083403
v 4.663969 21.045860 5.434326
v 5.520055 21.045860 5.174637
v 8.014593 21.045860 3.841280
v 7.225620 21.045860 4.262995
v 10.201074 21.045860 2.046883
v 9.509532 21.045860 2.614414
v 11.995472 21.045860 -0.139599
v 11.427939 21.045860 0.551941
v 8.014593 21.045860 -20.152832
v 10.201074 21.045860 -18.358433
v 8.706134 21.045860 -19.585299
v 11.995472 21.045860 -16.171951
v 10.768605 21.045860 -17.666891
v 12.417187 21.045860 -15.382979
v 14.149908 21.045860 -5.340870
v 13.890218 21.045860 -4.484783
v 14.339465 21.045860 -7.265476
v 14.427152 21.045860 -8.155776
v 14.237595 21.045860 -10.080383
v 14.149908 21.045860 -10.970683
v 13.588520 21.045860 -12.821329
v 13.328830 21.045860 -13.677415
v -13.331998 21.045860 -13.677415
v -12.910283 21.045860 -14.466388
v -6.312195 21.045860 4.752922
v 6.290779 21.045860 -21.074230
v 5.520055 21.045860 -21.486191
v -5.523222 21.045860 5.174637
v 6.309029 21.045860 -21.064476
v 13.328830 21.045860 -2.634138
v 12.907115 21.045860 -1.845163
v -13.331998 18.954136 -2.634138
v -10.780370 18.954136 1.344866
v -10.204241 18.954136 2.046883
v -12.426742 18.954136 -0.940521
v -11.998640 18.954136 -0.139599
v -14.430320 18.954136 -8.155776
v -14.341305 18.954136 -9.059560
v -14.153076 18.954136 -5.340870
v -14.242090 18.954136 -6.244654
v -13.595621 18.954136 -3.503189
v -10.204241 18.954136 -18.358433
v -11.422510 18.954136 -16.873966
v -8.017759 18.954136 3.841280
v -8.719774 18.954136 3.265152
v -13.889451 18.954136 -11.839735
v -14.153076 18.954136 -10.970683
v -11.998640 18.954136 -16.171951
v -12.903895 18.954136 -14.478337
v -13.331998 18.954136 -13.677415
v 8.014593 18.954136 3.841280
v 11.419343 18.954136 0.562414
v 11.995472 18.954136 -0.139599
v 9.499058 18.954136 2.623011
v 10.201074 18.954136 2.046883
v 7.213670 18.954136 4.269381
v 13.328830 18.954136 -2.634138
v 12.900728 18.954136 -1.833214
v 14.149908 18.954136 -5.340870
v 13.886285 18.954136 -4.471817
v 14.427152 18.954136 -8.155776
v 14.338138 18.954136 -7.251992
v 5.520055 18.954136 5.174637
v 11.995472 18.954136 -16.171951
v 12.423573 18.954136 -15.371029
v 14.238922 18.954136 -10.066899
v 14.149908 18.954136 -10.970683
v 13.592455 18.954136 -12.808363
v 13.328830 18.954136 -13.677415
v -6.324144 18.954136 4.746534
v -3.685542 18.954136 5.732092
v -5.523222 18.954136 5.174637
v -2.816491 18.954136 5.995716
v 2.813323 18.954136 5.995716
v 1.909540 18.954136 6.084730
v -0.001584 18.954136 6.272963
v -0.905367 18.954136 6.183947
v -9.502226 18.954136 -18.934561
v 4.651003 18.954136 5.438261
v 10.777202 18.954136 -17.656418
v 10.201074 18.954136 -18.358433
v -8.017759 18.954136 -20.152832
v -7.216837 18.954136 -20.580933
v 3.682375 18.954136 -22.043644
v 2.813323 18.954136 -22.307268
v 0.902200 18.954136 -22.495497
v 5.520055 18.954136 -21.486191
v 6.320978 18.954136 -21.058088
v 8.716607 18.954136 -19.576704
v 8.014593 18.954136 -20.152832
v -4.654171 18.954136 -21.749813
v -5.523222 18.954136 -21.486191
v -0.001584 18.954136 -22.584515
v -1.912707 18.954136 -22.396284
v -2.816491 18.954136 -22.307268
v -12.444787 1.045860 -17.588549
v -11.091138 1.045860 -19.237974
v -8.713841 1.045860 -21.188972
v -10.363268 1.045860 -19.835320
v -7.883421 1.045860 -21.632841
v -2.121588 1.045860 -23.623720
v -3.058657 1.045860 -23.531425
v -5.100547 1.045860 -22.912025
v 0.938977 1.045860 -23.740572
v 0.001907 1.045860 -23.832867
v -6.001606 1.045860 -22.638693
v -15.686028 1.045860 -8.144930
v -15.593735 1.045860 -9.082000
v -15.384588 1.045860 -5.084366
v -14.765187 1.045860 -3.042475
v -15.476881 1.045860 -6.021435
v -13.042134 1.045860 0.570820
v -11.688485 1.045860 2.220245
v -13.486003 1.045860 -0.259600
v -9.441711 1.045860 4.301764
v -11.091138 1.045860 2.948114
v -14.491855 1.045860 -2.141417
v 0.001907 1.045860 7.543005
v -0.935162 1.045860 7.450710
v 2.125402 1.045860 7.333858
v 3.062471 1.045860 7.241564
v 5.104362 1.045860 6.622164
v 10.367082 1.045860 3.545462
v 8.717656 1.045860 4.899111
v 7.887237 1.045860 5.342979
v 12.448601 1.045860 1.298689
v 11.094952 1.045860 2.948114
v 6.005420 1.045860 6.348829
v 9.445526 1.045860 -20.591623
v 11.094952 1.045860 -19.237974
v 13.045948 1.045860 -16.860680
v 11.692299 1.045860 -18.510105
v 13.489817 1.045860 -16.030258
v 15.388402 1.045860 -11.205495
v 14.769001 1.045860 -13.247385
v 15.480695 1.045860 -10.268425
v 15.689841 1.045860 -8.144930
v 15.597548 1.045860 -7.207861
v 14.495668 1.045860 -14.148443
v -15.111256 1.045860 -12.106553
v -15.384588 1.045860 -11.205495
v -13.042134 1.045860 -16.860680
v -14.047986 1.045860 -14.978864
v -14.491855 1.045860 -14.148443
v -6.832026 1.045860 5.904963
v -8.713841 1.045860 4.899111
v 3.963530 1.045860 -23.258091
v 3.062471 1.045860 -23.531425
v -3.058657 1.045860 7.241564
v -3.959716 1.045860 6.968233
v -6.001606 1.045860 6.348829
v 6.005420 1.045860 -22.638693
v 6.835841 1.045860 -22.194824
v 13.045948 1.045860 0.570820
v 14.051800 1.045860 -1.310997
v 15.388402 1.045860 -5.084366
v 15.115069 1.045860 -4.183308
v 14.495668 1.045860 -2.141417
v 8.717656 1.045860 -21.188972
v 1.015491 -1.045866 -23.733036
v 3.062471 -1.045866 -23.531425
v 6.005420 -1.045866 -22.638693
v 4.037104 -1.045866 -23.235775
v 6.903646 -1.045866 -22.158581
v 11.741074 -1.045866 -18.450672
v 11.094952 -1.045866 -19.237974
v 9.504959 -1.045866 -20.542849
v 13.526059 -1.045866 -15.962454
v 13.045948 -1.045866 -16.860680
v 8.717656 -1.045866 -21.188972
v 8.717656 -1.045866 4.899111
v 7.819431 -1.045866 5.379223
v 10.307650 -1.045866 3.594238
v 11.094952 -1.045866 2.948114
v 12.399826 -1.045866 1.358122
v 14.015557 -1.045866 -1.243191
v 14.495668 -1.045866 -2.141417
v 15.092751 -1.045866 -4.109734
v 15.590013 -1.045866 -7.131347
v 15.388402 -1.045866 -5.084366
v 13.045948 -1.045866 0.570820
v -13.042134 -1.045866 0.570820
v -13.522245 -1.045866 -0.327406
v -11.091138 -1.045866 2.948114
v -11.737260 -1.045866 2.160812
v -9.501143 -1.045866 4.252989
v -6.001606 -1.045866 6.348829
v -4.033289 -1.045866 6.945913
v -6.899831 -1.045866 5.868719
v -1.011677 -1.045866 7.443174
v -3.058657 -1.045866 7.241564
v -8.713841 -1.045866 4.899111
v -15.586199 -1.045866 -9.158514
v -14.011744 -1.045866 -15.046669
v -14.491855 -1.045866 -14.148443
v -15.088937 -1.045866 -12.180127
v -15.384588 -1.045866 -11.205495
v -10.303836 -1.045866 -19.884094
v -11.091138 -1.045866 -19.237974
v -12.396012 -1.045866 -17.647980
v -7.815616 -1.045866 -21.669083
v -8.713841 -1.045866 -21.188972
v -13.042134 -1.045866 -16.860680
v -2.045073 -1.045866 -23.631256
v -3.058657 -1.045866 -23.531425
v 0.001907 -1.045866 -23.832867
v 3.062471 -1.045866 7.241564
v 5.030788 -1.045866 6.644480
v 14.495668 -1.045866 -14.148443
v 14.791320 -1.045866 -13.173811
v 15.689841 -1.045866 -8.144930
v 15.488231 -1.045866 -10.191911
v 15.388402 -1.045866 -11.205495
v 6.005420 -1.045866 6.348829
v -15.686028 -1.045866 -8.144930
v -15.484417 -1.045866 -6.097950
v -14.491855 -1.045866 -2.141417
v -14.787506 -1.045866 -3.116049
v -15.384588 -1.045866 -5.084366
v -5.026974 -1.045866 -22.934341
v -6.001606 -1.045866 -22.638693
v 2.048888 -1.045866 7.341394
v 0.001907 -1.045866 7.543005
v -11.998640 1.045860 -16.171951
v -10.204241 1.045860 -18.358433
v -11.431107 1.045860 -16.863493
v -8.017759 1.045860 -20.152832
v -5.523222 1.045860 -21.486191
v -7.228786 1.045860 -20.574547
v -9.512700 1.045860 -18.925964
v -4.667136 1.045860 -21.745880
v -2.816491 1.045860 -22.307268
v -1.926191 1.045860 -22.394955
v -0.001584 1.045860 -22.584515
v 3.669410 1.045860 -22.047579
v 0.888716 1.045860 -22.496826
v 2.813323 1.045860 -22.307268
v -14.240763 1.045860 -6.231169
v -14.430320 1.045860 -8.155776
v -14.342632 1.045860 -9.046076
v -14.153076 1.045860 -10.970683
v -13.893386 1.045860 -11.826769
v -13.591688 1.045860 -3.490223
v -14.153076 1.045860 -5.340870
v -13.331998 1.045860 -2.634138
v -11.998640 1.045860 -0.139599
v -12.420355 1.045860 -0.928572
v -10.204241 1.045860 2.046883
v -10.771773 1.045860 1.355341
v -8.017759 1.045860 3.841280
v -8.709301 1.045860 3.273748
v -3.672576 1.045860 5.736025
v -2.816491 1.045860 5.995716
v -0.891883 1.045860 6.185274
v -0.001584 1.045860 6.272963
v 2.813323 1.045860 5.995716
v 1.923024 1.045860 6.083403
v 4.663969 1.045860 5.434326
v 5.520055 1.045860 5.174637
v 8.014593 1.045860 3.841280
v 7.225620 1.045860 4.262995
v 10.201074 1.045860 2.046883
v 9.509532 1.045860 2.614414
v 11.995472 1.045860 -0.139599
v 11.427939 1.045860 0.551941
v 8.014593 1.045860 -20.152832
v 10.201074 1.045860 -18.358433
v 8.706134 1.045860 -19.585299
v 11.995472 1.045860 -16.171951
v 10.768605 1.045860 -17.666891
v 12.417187 1.045860 -15.382979
v 14.149908 1.045860 -5.340870
v 13.890218 1.045860 -4.484783
v 14.339465 1.045860 -7.265476
v 14.427152 1.045860 -8.155776
v 14.237595 1.045860 -10.080383
v 14.149908 1.045860 -10.970683
v 13.588520 1.045860 -12.821329
v 13.328830 1.045860 -13.677415
v -13.331998 1.045860 -13.677415
v -12.910283 1.045860 -14.466388
v -6.312195 1.045860 4.752922
v 6.290779 1.045860 -21.074230
v 5.520055 1.045860 -21.486191
v -5.523222 1.045860 5.174637
v 6.309029 1.045860 -21.064476
v 13.328830 1.045860 -2.634138
v 12.907115 1.045860 -1.845163
v -13.331998 -1.045866 -2.634138
v -10.780370 -1.045866 1.344866
v -10.204241 -1.045866 2.046883
v -12.426742 -1.045866 -0.940521
v -11.998640 -1.045866 -0.139599
v -14.430320 -1.045866 -8.155776
v -14.341305 -1.045866 -9.059560
v -14.153076 -1.045866 -5.340870
v -14.242090 -1.045866 -6.244654
v -13.595621 -1.045866 -3.503189
v -10.204241 -1.045866 -18.358433
v -11.422510 -1.045866 -16.873966
v -8.017759 -1.045866 3.841280
v -8.719774 -1.045866 3.265152
v -13.889451 -1.045866 -11.839735
v -14.153076 -1.045866 -10.970683
v -11.998640 -1.045866 -16.171951
v -12.903895 -1.045866 -14.478337
v -13.331998 -1.045866 -13.677415
v 8.014593 -1.045866 3.841280
v 11.419343 -1.045866 0.562414
v 11.995472 -1.045866 -0.139599
v 9.499058 -1.045866 2.623011
v 10.201074 -1.045866 2.046883
v 7.213670 -1.045866 4.269381
v 13.328830 -1.045866 -2.634138
v 12.900728 -1.045866 -1.833214
v 14.149908 -1.045866 -5.340870
v 13.886285 -1.045866 -4.471817
v 14.427152 -1.045866 -8.155776
v 14.338138 -1.045866 -7.251992
v 5.520055 -1.045866 5.174637
v 11.995472 -1.045866 -16.171951
v 12.423573 -1.045866 -15.371029
v 14.238922 -1.045866 -10.066899
v 14.149908 -1.045866 -10.970683
v 13.592455 -1.045866 -12.808363
v 13.328830 -1.045866 -13.677415
v -6.324144 -1.045866 4.746534
v -3.685542 -1.045866 5.732092
v -5.523222 -1.045866 5.174637
v -2.816491 -1.045866 5.995716
v 2.813323 -1.045866 5.995716
v 1.909540 -1.045866 6.084730
v -0.001584 -1.045866 6.272963
v -0.905367 -1.045866 6.183947
v -9.502226 -1.045866 -18.934561
v 4.651003 -1.045866 5.438261
v 10.777202 -1.045866 -17.656418
v 10.201074 -1.045866 -18.358433
v -8.017759 -1.045866 -20.152832
v -7.216837 -1.045866 -20.580933
v 3.682375 -1.045866 -22.043644
v 2.813323 -1.045866 -22.307268
v 0.902200 -1.045866 -22.495497
v 5.520055 -1.045866 -21.486191
v 6.320978 -1.045866 -21.058088
v 8.716607 -1.045866 -19.576704
v 8.014593 -1.045866 -20.152832
v -4.654171 -1.045866 -21.749813
v -5.523222 -1.045866 -21.486191
v -0.001584 -1.045866 -22.584515
v -1.912707 -1.045866 -22.396284
v -2.816491 -1.045866 -22.307268
v -12.444787 41.045860 -17.588549
v -11.091138 41.045860 -19.237974
v -8.713841 41.045860 -21.188972
v -10.363268 41.045860 -19.835320
v -7.883421 41.045860 -21.632841
v -2.121588 41.045860 -23.623720
v -3.058657 41.045860 -23.531425
v -5.100547 41.045860 -22.912025
v 0.938977 41.045860 -23.740572
v 0.001907 41.045860 -23.832867
v -6.001606 41.045860 -22.638693
v -15.686028 41.045860 -8.144930
v -15.593735 41.045860 -9.082000
v -15.384588 41.045860 -5.084366
v -14.765187 41.045860 -3.042475
v -15.476881 41.045860 -6.021435
v -13.042134 41.045860 0.570820
v -11.688485 41.045860 2.220245
v -13.486003 41.045860 -0.259600
v -9.441711 41.045860 4.301764
v -11.091138 41.045860 2.948114
v -14.491855 41.045860 -2.141417
v 0.001907 41.045860 7.543005
v -0.935163 41.045860 7.450710
v 2.125402 41.045860 7.333858
v 3.062471 41.045860 7.241564
v 5.104362 41.045860 6.622164
v 10.367082 41.045860 3.545462
v 8.717656 41.045860 4.899111
v 7.887237 41.045860 5.342979
v 12.448601 41.045860 1.298689
v 11.094952 41.045860 2.948114
v 6.005420 41.045860 6.348829
v 9.445526 41.045860 -20.591623
v 11.094952 41.045860 -19.237974
v 13.045948 41.045860 -16.860680
v 11.692299 41.045860 -18.510105
v 13.489817 41.045860 -16.030258
v 15.388402 41.045860 -11.205495
v 14.769001 41.045860 -13.247385
v 15.480695 41.045860 -10.268425
v 15.689841 41.045860 -8.144930
v 15.597548 41.045860 -7.207861
v 14.495668 41.045860 -14.148443
v -15.111256 41.045860 -12.106553
v -15.384588 41.045860 -11.205495
v -13.042134 41.045860 -16.860680
v -14.047986 41.045860 -14.978864
v -14.491855 41.045860 -14.148443
v -6.832026 41.045860 5.904963
v -8.713841 41.045860 4.899111
v 3.963530 41.045860 -23.258091
v 3.062471 41.045860 -23.531425
v -3.058657 41.045860 7.241564
v -3.959716 41.045860 6.968233
v -6.001606 41.045860 6.348829
v 6.005420 41.045860 -22.638693
v 6.835841 41.045860 -22.194824
v 13.045948 41.045860 0.570820
v 14.051800 41.045860 -1.310997
v 15.388402 41.045860 -5.084366
v 15.115069 41.045860 -4.183308
v 14.495668 41.045860 -2.141417
v 8.717656 41.045860 -21.188972
v 1.015491 38.954136 -23.733036
v 3.062471 38.954136 -23.531425
v 6.005420 38.954136 -22.638693
v 4.037104 38.954136 -23.235775
v 6.903646 38.954136 -22.158581
v 11.741074 38.954136 -18.450672
v 11.094952 38.954136 -19.237974
v 9.504959 38.954136 -20.542849
v 13.526059 38.954136 -15.962454
v 13.045948 38.954136 -16.860680
v 8.717656 38.954136 -21.188972
v 8.717656 38.954136 4.899111
v 7.819431 38.954136 5.379223
v 10.307650 38.954136 3.594238
v 11.094952 38.954136 2.948114
v 12.399826 38.954136 1.358122
v 14.015557 38.954136 -1.243191
v 14.495668 38.954136 -2.141417
v 15.092751 38.954136 -4.109734
v 15.590013 38.954136 -7.131347
v 15.388402 38.954136 -5.084366
v 13.045948 38.954136 0.570820
v -13.042134 38.954136 0.570820
v -13.522245 38.954136 -0.327406
v -11.091138 38.954136 2.948114
v -11.737260 38.954136 2.160812
v -9.501143 38.954136 4.252989
v -6.001606 38.954136 6.348829
v -4.033289 38.954136 6.945913
v -6.899831 38.954136 5.868719
v -1.011677 38.954136 7.443174
v -3.058657 38.954136 7.241564
v -8.713841 38.954136 4.899111
v -15.586199 38.954136 -9.158514
v -14.011744 38.954136 -15.046669
v -14.491855 38.954136 -14.148443
v -15.088937 38.954136 -12.180127
v -15.384588 38.954136 -11.205495
v -10.303836 38.954136 -19.884094
v -11.091138 38.954136 -19.237974
v -12.396012 38.954136 -17.647980
v -7.815616 38.954136 -21.669083
v -8.713841 38.954136 -21.188972
v -13.042134 38.954136 -16.860680
v -2.045074 38.954136 -23.631256
v -3.058657 38.954136 -23.531425
v 0.001907 38.954136 -23.832867
v 3.062471 38.954136 7.241564
v 5.030788 38.954136 6.644480
v 14.495668 38.954136 -14.148443
v 14.791320 38.954136 -13.173811
v 15.689841 38.954136 -8.144930
v 15.488231 38.954136 -10.191911
v 15.388402 38.954136 -11.205495
v 6.005420 38.954136 6.348829
v -15.686028 38.954136 -8.144930
v -15.484417 38.954136 -6.097950
v -14.491855 38.954136 -2.141417
v -14.787506 38.954136 -3.116049
v -15.384588 38.954136 -5.084366
v -5.026974 38.954136 -22.934341
v -6.001606 38.954136 -22.638693
v 2.048888 38.954136 7.341394
v 0.001907 38.954136 7.543005
v -11.998640 41.045860 -16.171951
v -10.204241 41.045860 -18.358433
v -11.431107 41.045860 -16.863493
v -8.017759 41.045860 -20.152832
v -5.523222 41.045860 -21.486191
v -7.228786 41.045860 -20.574547
v -9.512700 41.045860 -18.925964
v -4.667136 41.045860 -21.745880
v -2.816491 41.045860 -22.307268
v -1.926191 41.045860 -22.394955
v -0.001584 41.045860 -22.584515
v 3.669410 41.045860 -22.047579
v 0.888716 41.045860 -22.496826
v 2.813323 41.045860 -22.307268
v -14.240763 41.045860 -6.231169
v -14.430320 41.045860 -8.155776
v -14.342632 41.045860 -9.046076
v -14.153076 41.045860 -10.970683
v -13.893386 41.045860 -11.826769
v -13.591688 41.045860 -3.490223
v -14.153076 41.045860 -5.340870
v -13.331998 41.045860 -2.634138
v -11.998640 41.045860 -0.139599
v -12.420355 41.045860 -0.928572
v -10.204241 41.045860 2.046883
v -10.771773 41.045860 1.355341
v -8.017759 41.045860 3.841280
v -8.709301 41.045860 3.273748
v -3.672576 41.045860 5.736025
v -2.816491 41.045860 5.995716
v -0.891883 41.045860 6.185274
v -0.001584 41.045860 6.272963
v 2.813323 41.045860 5.995716
v 1.923023 41.045860 6.083403
v 4.663969 41.045860 5.434326
v 5.520055 41.045860 5.174637
v 8.014593 41.045860 3.841280
v 7.225620 41.045860 4.262995
v 10.201074 41.045860 2.046883
v 9.509532 41.045860 2.614414
v 11.995472 41.045860 -0.139599
v 11.427939 41.045860 0.551941
v 8.014593 41.045860 -20.152832
v 10.201074 41.045860 -18.358433
v 8.706134 41.045860 -19.585299
v 11.995472 41.045860 -16.171951
v 10.768605 41.045860 -17.666891
v 12.417187 41.045860 -15.382979
v 14.149908 41.045860 -5.340870
v 13.890218 41.045860 -4.484783
v 14.339465 41.045860 -7.265476
v 14.427152 41.045860 -8.155776
v 14.237595 41.045860 -10.080383
v 14.149908 41.045860 -10.970683
v 13.588520 41.045860 -12.821329
v 13.328830 41.045860 -13.677415
v -13.331998 41.045860 -13.677415
v -12.910283 41.045860 -14.466388
v -6.312195 41.045860 4.752922
v 6.290779 41.045860 -21.074230
v 5.520055 41.045860 -21.486191
v -5.523222 41.045860 5.174637
v 6.309029 41.045860 -21.064476
v 13.328830 41.045860 -2.634138
v 12.907115 41.045860 -1.845163
v -13.331998 38.954136 -2.634138
v -10.780370 38.954136 1.344866
v -10.204241 38.954136 2.046883
v -12.426742 38.954136 -0.940521
v -11.998640 38.954136 -0.139599
v -14.430320 38.954136 -8.155776
v -14.341305 38.954136 -9.059560
v -14.153076 38.954136 -5.340870
v -14.242090 38.954136 -6.244654
v -13.595621 38.954136 -3.503189
v -10.204241 38.954136 -18.358433
v -11.422510 38.954136 -16.873966
v -8.017759 38.954136 3.841280
v -8.719774 38.954136 3.265152
v -13.889451 38.954136 -11.839735
v -14.153076 38.954136 -10.970683
v -11.998640 38.954136 -16.171951
v -12.903895 38.954136 -14.478337
v -13.331998 38.954136 -13.677415
v 8.014593 38.954136 3.841280
v 11.419343 38.954136 0.562414
v 11.995472 38.954136 -0.139599
v 9.499058 38.954136 2.623011
v 10.201074 38.954136 2.046883
v 7.213670 38.954136 4.269381
v 13.328830 38.954136 -2.634138
v 12.900728 38.954136 -1.833214
v 14.149908 38.954136 -5.340870
v 13.886285 38.954136 -4.471817
v 14.427152 38.954136 -8.155776
v 14.338138 38.954136 -7.251992
v 5.520055 38.954136 5.174637
v 11.995472 38.954136 -16.171951
v 12.423573 38.954136 -15.371029
v 14.238922 38.954136 -10.066899
v 14.149908 38.954136 -10.970683
v 13.592455 38.954136 -12.808363
v 13.328830 38.954136 -13.677415
v -6.324144 38.954136 4.746534
v -3.685542 38.954136 5.732092
v -5.523222 38.954136 5.174637
v -2.816491 38.954136 5.995716
v 2.813323 38.954136 5.995716
v 1.909540 38.954136 6.084730
v -0.001584 38.954136 6.272963
v -0.905367 38.954136 6.183947
v -9.502226 38.954136 -18.934561
v 4.651003 38.954136 5.438261
v 10.777202 38.954136 -17.656418
v 10.201074 38.954136 -18.358433
v -8.017759 38.954136 -20.152832
v -7.216837 38.954136 -20.580933
v 3.682375 38.954136 -22.043644
v 2.813323 38.954136 -22.307268
v 0.902200 38.954136 -22.495497
v 5.520055 38.954136 -21.486191
v 6.320978 38.954136 -21.058088
v 8.716607 38.954136 -19.576704
v 8.014593 38.954136 -20.152832
v -4.654171 38.954136 -21.749813
v -5.523222 38.954136 -21.486191
v -0.001584 38.954136 -22.584515
v -1.912707 38.954136 -22.396284
v -2.816491 38.954136 -22.307268
v -41.355988 -17.500000 5.500000
v -41.355988 -16.500000 5.500000
v -41.355988 -17.500000 4.500000
v -41.355988 -16.500000 4.500000
v -9.500905 -17.500000 5.500000
v -9.500905 -16.500000 5.500000
v -9.500905 -17.500000 4.500000
v -9.500905 -16.500000 4.500000
v -41.700104 -17.500000 25.500002
v -41.700104 -16.500000 25.500002
v -41.700104 -17.500000 24.500002
v -41.700104 -16.500000 24.500002
v 41.700104 -17.500000 25.500002
v 41.700104 -16.500000 25.500002
v 41.700104 -17.500000 24.500002
v 41.700104 -16.500000 24.500002
v -41.700104 -17.500000 15.500002
v -41.700104 -16.500000 15.500002
v -41.700104 -17.500000 14.500002
v -41.700104 -16.500000 14.500002
v 41.700104 -17.500000 15.500002
v 41.700104 -16.500000 15.500002
v 41.700104 -17.500000 14.500002
v 41.700104 -16.500000 14.500002
v 13.610607 -17.500000 -14.500000
v 13.610607 -16.500000 -14.500000
v 13.610607 -17.500000 -15.500000
v 13.610607 -16.500000 -15.500000
v 40.114067 -17.500000 -14.500000
v 40.114067 -16.500000 -14.500000
v 40.114067 -17.500000 -15.500000
v 40.114067 -16.500000 -15.500000
v -40.233971 -17.500000 -14.500000
v -40.233971 -16.500000 -14.500000
v -40.233971 -17.500000 -15.500000
v -40.233971 -16.500000 -15.500000
v -13.730511 -17.500000 -14.500000
v -13.730511 -16.500000 -14.500000
v -13.730511 -17.500000 -15.500000
v -13.730511 -16.500000 -15.500000
v 9.033768 -17.500000 5.500000
v 9.033768 -16.500000 5.500000
v 9.033768 -17.500000 4.500000
v 9.033768 -16.500000 4.500000
v 40.888855 -17.500000 5.500000
v 40.888855 -16.500000 5.500000
v 40.888855 -17.500000 4.500000
v 40.888855 -16.500000 4.500000
v -41.287270 -17.500000 -4.500000
v -41.287270 -16.500000 -4.500000
v -41.287270 -17.500000 -5.500000
v -41.287270 -16.500000 -5.500000
v -14.783807 -17.500000 -4.500000
v -14.783807 -16.500000 -4.500000
v -14.783807 -17.500000 -5.500000
v -14.783807 -16.500000 -5.500000
v 14.870335 -17.500000 -4.500000
v 14.870335 -16.500000 -4.500000
v 14.870335 -17.500000 -5.500000
v 14.870335 -16.500000 -5.500000
v 41.373795 -17.500000 -4.500000
v 41.373795 -16.500000 -4.500000
v 41.373795 -17.500000 -5.500000
v 41.373795 -16.500000 -5.500000
v -41.700104 -17.500000 -24.500000
v -41.700104 -16.500000 -24.500000
v -41.700104 -17.500000 -25.500000
v -41.700104 -16.500000 -25.500000
v 41.700104 -17.500000 -24.500000
v 41.700104 -16.500000 -24.500000
v 41.700104 -17.500000 -25.500000
v 41.700104 -16.500000 -25.500000
v -24.499998 -17.260517 33.435104
v -24.499998 -16.260517 33.435104
v -25.499998 -17.260517 33.435104
v -25.499998 -16.260517 33.435104
v -24.500000 -17.260517 -33.216255
v -24.500000 -16.260517 -33.216255
v -25.500000 -17.260517 -33.216255
v -25.500000 -16.260517 -33.216255
v 25.500004 -17.260517 33.435104
v 25.500004 -16.260517 33.435104
v 24.500000 -17.260517 33.435104
v 24.500000 -16.260517 33.435104
v 25.500000 -17.260517 -33.216255
v 25.500000 -16.260517 -33.216255
v 24.499996 -17.260517 -33.216255
v 24.499996 -16.260517 -33.216255
v 0.500002 -17.174904 38.711700
v 0.500002 -16.174908 38.711700
v -0.500000 -17.174904 38.711700
v -0.500000 -16.174908 38.711700
v 0.500000 -17.174904 6.856619
v 0.500000 -16.174908 6.856619
v -0.500002 -17.174904 6.856619
v -0.500002 -16.174908 6.856619
vn -1.0000 -0.0000 -0.0000
vn 1.0000 -0.0000 -0.0000
vn -0.0000 -0.0000 1.0000
vn -0.0000 -1.0000 -0.0000
vn -0.0000 -0.0000 -1.0000
vn -0.0000 1.0000 -0.0000
vn -0.0980 -0.0000 0.9952
vn -0.2903 -0.0000 0.9569
vn -0.1951 -0.0000 0.9808
vn -0.4714 -0.0000 0.8819
vn -0.3827 -0.0000 0.9239
vn -0.6344 -0.0000 0.7730
vn -0.5556 -0.0000 0.8315
vn -0.7730 -0.0000 0.6344
vn -0.7071 -0.0000 0.7071
vn -0.8819 -0.0000 0.4714
vn -0.8315 -0.0000 0.5556
vn -0.9569 -0.0000 0.2903
vn -0.9239 -0.0000 0.3827
vn -0.9952 -0.0000 0.0980
vn -0.9808 -0.0000 0.1951
vn -0.9952 -0.0000 -0.0980
vn -0.9569 -0.0000 -0.2903
vn -0.9808 -0.0000 -0.1951
vn -0.8819 -0.0000 -0.4714
vn -0.9239 -0.0000 -0.3827
vn -0.7730 -0.0000 -0.6344
vn -0.8315 -0.0000 -0.5556
vn -0.6344 -0.0000 -0.7730
vn -0.7071 -0.0000 -0.7071
vn -0.4714 -0.0000 -0.8819
vn -0.5556 -0.0000 -0.8315
vn -0.2903 -0.0000 -0.9569
vn -0.3827 -0.0000 -0.9239
vn -0.0980 -0.0000 -0.9952
vn -0.1951 -0.0000 -0.9808
vn 0.0980 -0.0000 -0.9952
vn 0.2903 -0.0000 -0.9569
vn 0.1951 -0.0000 -0.9808
vn 0.4714 -0.0000 -0.8819
vn 0.3827 -0.0000 -0.9239
vn 0.6344 -0.0000 -0.7730
vn 0.5556 -0.0000 -0.8315
vn 0.7730 -0.0000 -0.6344
vn 0.7071 -0.0000 -0.7071
vn 0.8819 -0.0000 -0.4714
vn 0.8315 -0.0000 -0.5556
vn 0.9569 -0.0000 -0.2903
vn 0.9239 -0.0000 -0.3827
vn 0.9952 -0.0000 -0.0980
vn 0.9808 -0.0000 -0.1951
vn 0.9952 -0.0000 0.0980
vn 0.9569 -0.0000 0.2903
vn 0.9808 -0.0000 0.1951
vn 0.8819 -0.0000 0.4714
vn 0.9239 -0.0000 0.3827
vn 0.7730 -0.0000 0.6344
vn 0.8315 -0.0000 0.5556
vn 0.6344 -0.0000 0.7730
vn 0.7071 -0.0000 0.7071
vn 0.4714 -0.0000 0.8819
vn 0.5556 -0.0000 0.8315
vn 0.2903 -0.0000 0.9569
vn 0.3827 -0.0000 0.9239
vn 0.0980 -0.0000 0.9952
vn 0.1951 -0.0000 0.9808
vn -0.0005 1.0000 -0.0000
vn 0.0001 1.0000 -0.0000
vt 0.625000 0.000000
vt 0.375000 0.250000
vt 0.375000 0.000000
vt 0.625000 0.500000
vt 0.375000 0.750000
vt 0.375000 0.500000
vt 0.625000 0.750000
vt 0.375000 1.000000
vt 0.125000 0.750000
vt 0.125000 0.500000
vt 0.625000 0.250000
vt 0.203710 0.071314
vt 0.180116 0.078471
vt 0.200049 0.055605
vt 0.286396 0.428828
vt 0.297310 0.425517
vt 0.301060 0.440950
vt 0.658525 0.406820
vt 0.648315 0.401362
vt 0.650892 0.420692
vt 0.903457 0.146220
vt 0.914997 0.167811
vt 0.929209 0.160289
vt 0.000000 0.000000
vt 0.625000 1.000000
vt 0.180116 0.418361
vt 0.191030 0.421671
vt 0.185505 0.436538
vt 0.174018 0.433053
vt 0.150027 0.420230
vt 0.158373 0.406738
vt 0.139440 0.414571
vt 0.148315 0.401362
vt 0.118412 0.397314
vt 0.109133 0.389699
vt 0.120440 0.378486
vt 0.091876 0.368671
vt 0.084261 0.359391
vt 0.097564 0.350611
vt 0.071437 0.335401
vt 0.065779 0.324814
vt 0.080565 0.318809
vt 0.057882 0.298783
vt 0.073408 0.295216
vt 0.054397 0.287295
vt 0.070097 0.284302
vt 0.051731 0.260224
vt 0.050554 0.248277
vt 0.066563 0.248416
vt 0.053221 0.221206
vt 0.054397 0.209259
vt 0.070097 0.212529
vt 0.062294 0.183228
vt 0.065779 0.171741
vt 0.080565 0.178022
vt 0.078602 0.147750
vt 0.092187 0.156279
vt 0.084261 0.137163
vt 0.097564 0.146220
vt 0.101518 0.116135
vt 0.109133 0.106856
vt 0.120440 0.118345
vt 0.130161 0.089599
vt 0.139440 0.081983
vt 0.148315 0.095469
vt 0.163431 0.069160
vt 0.174018 0.063501
vt 0.211536 0.052120
vt 0.214624 0.068003
vt 0.238608 0.049454
vt 0.250554 0.048277
vt 0.250510 0.064469
vt 0.277626 0.050944
vt 0.289573 0.052120
vt 0.286396 0.068003
vt 0.315604 0.060017
vt 0.327091 0.063501
vt 0.320904 0.078471
vt 0.351082 0.076325
vt 0.342647 0.090093
vt 0.361669 0.081983
vt 0.352705 0.095469
vt 0.382696 0.099241
vt 0.391976 0.106856
vt 0.380580 0.118345
vt 0.409233 0.127884
vt 0.416848 0.137163
vt 0.403456 0.146220
vt 0.429672 0.161154
vt 0.435330 0.171741
vt 0.420455 0.178022
vt 0.443227 0.197772
vt 0.427612 0.201615
vt 0.446711 0.209259
vt 0.430922 0.212529
vt 0.449378 0.236331
vt 0.450554 0.248277
vt 0.434457 0.248416
vt 0.447888 0.275349
vt 0.446711 0.287295
vt 0.430922 0.284302
vt 0.438815 0.313327
vt 0.435330 0.324814
vt 0.420455 0.318809
vt 0.422507 0.348805
vt 0.408833 0.340553
vt 0.416848 0.359391
vt 0.403456 0.350611
vt 0.399591 0.380419
vt 0.391976 0.389699
vt 0.380580 0.378486
vt 0.370948 0.406956
vt 0.361669 0.414571
vt 0.352705 0.401362
vt 0.337678 0.427394
vt 0.330729 0.413109
vt 0.330962 0.412984
vt 0.361522 0.394127
vt 0.432040 0.272952
vt 0.396221 0.137404
vt 0.275046 0.066885
vt 0.139498 0.102705
vt 0.068980 0.223880
vt 0.104799 0.359427
vt 0.129256 0.385721
vt 0.387815 0.369669
vt 0.423765 0.307895
vt 0.085941 0.328867
vt 0.433339 0.237065
vt 0.067681 0.259766
vt 0.077254 0.188936
vt 0.415078 0.167964
vt 0.113205 0.127162
vt 0.371764 0.111110
vt 0.170058 0.083847
vt 0.309989 0.075160
vt 0.239160 0.065587
vt 0.320903 0.418360
vt 0.327091 0.433053
vt 0.289573 0.444434
vt 0.262501 0.447101
vt 0.250554 0.448277
vt 0.250510 0.432362
vt 0.223483 0.445611
vt 0.211536 0.444434
vt 0.214624 0.428828
vt 0.225974 0.429946
vt 0.261860 0.431244
vt 0.629390 0.385831
vt 0.619170 0.397936
vt 0.639440 0.414571
vt 0.674018 0.433053
vt 0.680116 0.418360
vt 0.686443 0.436822
vt 0.691196 0.421721
vt 0.714624 0.428828
vt 0.711536 0.444434
vt 0.724458 0.445707
vt 0.726146 0.429963
vt 0.750554 0.448277
vt 0.750510 0.432362
vt 0.763476 0.447005
vt 0.789572 0.444434
vt 0.786396 0.428828
vt 0.801998 0.440665
vt 0.827091 0.433053
vt 0.820903 0.418360
vt 0.838542 0.426932
vt 0.861669 0.414571
vt 0.852705 0.401362
vt 0.871706 0.406334
vt 0.861655 0.394017
vt 0.891976 0.389699
vt 0.880580 0.378486
vt 0.900213 0.379662
vt 0.916848 0.359391
vt 0.903456 0.350611
vt 0.922969 0.347940
vt 0.935330 0.324814
vt 0.920455 0.318809
vt 0.939100 0.312389
vt 0.946711 0.287295
vt 0.930923 0.284302
vt 0.947984 0.274374
vt 0.950554 0.248277
vt 0.934457 0.248416
vt 0.949282 0.235356
vt 0.946712 0.209259
vt 0.930923 0.212529
vt 0.942943 0.196834
vt 0.935330 0.171741
vt 0.920455 0.178022
vt 0.916848 0.137163
vt 0.908611 0.127126
vt 0.891976 0.106856
vt 0.880580 0.118346
vt 0.881939 0.098619
vt 0.861669 0.081983
vt 0.852705 0.095469
vt 0.850217 0.075863
vt 0.827091 0.063501
vt 0.820903 0.078471
vt 0.814666 0.059732
vt 0.789572 0.052120
vt 0.786396 0.068003
vt 0.776651 0.050848
vt 0.750554 0.048277
vt 0.750510 0.064469
vt 0.737633 0.049550
vt 0.711537 0.052120
vt 0.714624 0.068003
vt 0.699111 0.055889
vt 0.674018 0.063501
vt 0.680117 0.078471
vt 0.662567 0.069622
vt 0.703545 0.071364
vt 0.639441 0.081983
vt 0.648314 0.095469
vt 0.629403 0.090221
vt 0.639365 0.102814
vt 0.609133 0.106856
vt 0.620440 0.118345
vt 0.600896 0.116893
vt 0.584260 0.137163
vt 0.597564 0.146220
vt 0.578140 0.148614
vt 0.565778 0.171741
vt 0.580565 0.178022
vt 0.562009 0.184166
vt 0.592106 0.156431
vt 0.554397 0.209259
vt 0.570097 0.212529
vt 0.553125 0.222181
vt 0.550555 0.248277
vt 0.566563 0.248416
vt 0.551827 0.261199
vt 0.554397 0.287295
vt 0.570098 0.284302
vt 0.558167 0.299721
vt 0.565779 0.324814
vt 0.580565 0.318809
vt 0.571899 0.336265
vt 0.584261 0.359391
vt 0.597564 0.350611
vt 0.592498 0.369428
vt 0.609133 0.389699
vt 0.620440 0.378486
vt 0.604909 0.359561
vt 0.586023 0.329020
vt 0.573458 0.295381
vt 0.567698 0.259938
vt 0.568963 0.224051
vt 0.577204 0.189101
vt 0.842495 0.090012
vt 0.927562 0.201450
vt 0.908914 0.340400
vt 0.797475 0.425467
vt 0.762032 0.431228
vt 0.887925 0.369536
vt 0.932058 0.272780
vt 0.933322 0.236894
vt 0.896111 0.137270
vt 0.871631 0.111001
vt 0.774874 0.066868
vt 0.738988 0.065603
vt 0.613095 0.127295
vt 0.831114 0.412903
vt 0.923815 0.307730
vt 0.669906 0.083929
vt 0.809824 0.075110
s 0
f 2/1/1 3/2/1 1/3/1
f 8/4/2 5/5/2 7/6/2
f 6/7/3 1/8/3 5/5/3
f 7/6/4 1/9/4 3/10/4
f 10/1/1 11/2/1 9/3/1
f 12/11/5 15/6/5 11/2/5
f 16/4/2 13/5/2 15/6/2
f 15/6/4 9/9/4 11/10/4
f 18/1/1 19/2/1 17/3/1
f 20/11/5 23/6/5 19/2/5
f 22/7/3 17/8/3 21/5/3
f 23/6/4 17/9/4 19/10/4
f 28/11/5 31/6/5 27/2/5
f 32/4/2 29/5/2 31/6/2
f 30/7/3 25/8/3 29/5/3
f 31/6/4 25/9/4 27/10/4
f 189/12/6 222/13/6 87/14/6
f 174/15/6 172/16/6 84/17/6
f 277/18/4 276/19/4 138/20/4
f 247/21/4 252/22/4 113/23/4
s 1
f 173/24/7 287/24/3 280/24/7
f 172/24/8 279/24/9 278/24/8
f 220/24/10 281/24/11 282/24/10
f 205/24/12 284/24/13 283/24/12
f 207/24/14 275/24/15 274/24/14
f 208/24/16 258/24/17 259/24/16
f 215/24/18 263/24/19 262/24/18
f 213/24/20 261/24/21 260/24/20
f 211/24/22 255/24/1 256/24/22
f 210/24/23 253/24/24 254/24/23
f 225/24/25 251/24/26 252/24/25
f 202/24/27 247/24/28 246/24/27
f 200/24/29 249/24/30 248/24/29
f 198/24/31 245/24/32 250/24/31
f 195/24/33 257/24/34 273/24/33
f 194/24/35 268/24/36 269/24/35
f 191/24/37 270/24/5 271/24/37
f 189/24/38 267/24/39 265/24/38
f 219/24/40 266/24/41 264/24/40
f 188/24/42 238/24/43 239/24/42
f 186/24/44 228/24/45 227/24/44
f 184/24/46 230/24/47 229/24/46
f 180/24/48 226/24/49 235/24/48
f 175/24/50 233/24/51 234/24/50
f 177/24/52 231/24/2 232/24/52
f 179/24/53 241/24/54 240/24/53
f 218/24/55 244/24/56 243/24/55
f 163/24/57 242/24/58 237/24/57
f 167/24/59 236/24/60 272/24/59
f 166/24/61 276/24/62 277/24/61
f 168/24/63 286/24/64 285/24/63
f 170/24/65 289/24/66 288/24/65
f 174/24/9 280/24/7 279/24/9
f 221/24/11 278/24/8 281/24/11
f 203/24/13 282/24/10 284/24/13
f 204/24/15 283/24/12 275/24/15
f 206/24/17 274/24/14 258/24/17
f 216/24/19 259/24/16 263/24/19
f 214/24/21 262/24/18 261/24/21
f 212/24/1 260/24/20 255/24/1
f 209/24/24 256/24/22 253/24/24
f 224/24/26 254/24/23 251/24/26
f 201/24/28 252/24/25 247/24/28
f 199/24/30 246/24/27 249/24/30
f 197/24/32 248/24/29 245/24/32
f 196/24/34 250/24/31 257/24/34
f 193/24/36 273/24/33 268/24/36
f 192/24/5 269/24/35 270/24/5
f 190/24/39 271/24/37 267/24/39
f 222/24/41 265/24/38 266/24/41
f 187/24/43 264/24/40 238/24/43
f 185/24/45 239/24/42 228/24/45
f 183/24/47 227/24/44 230/24/47
f 182/24/49 229/24/46 226/24/49
f 181/24/51 235/24/48 233/24/51
f 176/24/2 234/24/50 231/24/2
f 178/24/54 232/24/52 241/24/54
f 217/24/56 240/24/53 244/24/56
f 161/24/58 243/24/55 242/24/58
f 162/24/60 237/24/57 236/24/60
f 164/24/62 272/24/59 276/24/62
f 165/24/64 277/24/61 286/24/64
f 169/24/66 285/24/63 289/24/66
f 171/24/3 288/24/65 287/24/3
s 0
f 446/12/6 479/13/6 344/14/6
f 431/15/6 429/16/6 341/17/6
f 534/18/4 533/19/4 395/20/4
f 504/21/4 509/22/4 370/23/4
s 1
f 430/24/7 544/24/3 537/24/7
f 429/24/8 536/24/9 535/24/8
f 477/24/10 538/24/11 539/24/10
f 462/24/12 541/24/13 540/24/12
f 464/24/14 532/24/15 531/24/14
f 465/24/16 515/24/17 516/24/16
f 472/24/18 520/24/19 519/24/18
f 470/24/20 518/24/21 517/24/20
f 468/24/22 512/24/1 513/24/22
f 467/24/23 510/24/24 511/24/23
f 482/24/25 508/24/26 509/24/25
f 459/24/27 504/24/28 503/24/27
f 457/24/29 506/24/30 505/24/29
f 455/24/31 502/24/32 507/24/31
f 452/24/33 514/24/34 530/24/33
f 451/24/35 525/24/36 526/24/35
f 448/24/37 527/24/5 528/24/37
f 446/24/38 524/24/39 522/24/38
f 476/24/40 523/24/41 521/24/40
f 445/24/42 495/24/43 496/24/42
f 443/24/44 485/24/45 484/24/44
f 441/24/46 487/24/47 486/24/46
f 437/24/48 483/24/49 492/24/48
f 432/24/50 490/24/51 491/24/50
f 434/24/52 488/24/2 489/24/52
f 436/24/53 498/24/54 497/24/53
f 475/24/55 501/24/56 500/24/55
f 420/24/57 499/24/58 494/24/57
f 424/24/59 493/24/60 529/24/59
f 423/24/61 533/24/62 534/24/61
f 425/24/63 543/24/64 542/24/63
f 427/24/65 546/24/66 545/24/65
f 431/24/9 537/24/7 536/24/9
f 478/24/11 535/24/8 538/24/11
f 460/24/13 539/24/10 541/24/13
f 461/24/15 540/24/12 532/24/15
f 463/24/17 531/24/14 515/24/17
f 473/24/19 516/24/16 520/24/19
f 471/24/21 519/24/18 518/24/21
f 469/24/1 517/24/20 512/24/1
f 466/24/24 513/24/22 510/24/24
f 481/24/26 511/24/23 508/24/26
f 458/24/28 509/24/25 504/24/28
f 456/24/30 503/24/27 506/24/30
f 454/24/32 505/24/29 502/24/32
f 453/24/34 507/24/31 514/24/34
f 450/24/36 530/24/33 525/24/36
f 449/24/5 526/24/35 527/24/5
f 447/24/39 528/24/37 524/24/39
f 479/24/41 522/24/38 523/24/41
f 444/24/43 521/24/40 495/24/43
f 442/24/45 496/24/42 485/24/45
f 440/24/47 484/24/44 487/24/47
f 439/24/49 486/24/46 483/24/49
f 438/24/51 492/24/48 490/24/51
f 433/24/2 491/24/50 488/24/2
f 435/24/54 489/24/52 498/24/54
f 474/24/56 497/24/53 501/24/56
f 418/24/58 500/24/55 499/24/58
f 419/24/60 494/24/57 493/24/60
f 421/24/62 529/24/59 533/24/62
f 422/24/64 534/24/61 543/24/64
f 426/24/66 542/24/63 546/24/66
f 428/24/3 545/24/65 544/24/3
s 0
f 703/12/6 736/13/6 601/14/6
f 688/15/6 686/16/6 598/17/6
f 791/18/4 790/19/4 652/20/4
f 761/21/4 766/22/4 627/23/4
s 1
f 687/24/7 801/24/3 794/24/7
f 686/24/8 793/24/9 792/24/8
f 734/24/10 795/24/11 796/24/10
f 719/24/12 798/24/13 797/24/12
f 721/24/14 789/24/15 788/24/14
f 722/24/16 772/24/17 773/24/16
f 729/24/18 777/24/19 776/24/18
f 727/24/20 775/24/21 774/24/20
f 725/24/22 769/24/1 770/24/22
f 724/24/23 767/24/24 768/24/23
f 739/24/25 765/24/26 766/24/25
f 716/24/27 761/24/28 760/24/27
f 714/24/29 763/24/30 762/24/29
f 712/24/31 759/24/32 764/24/31
f 709/24/33 771/24/34 787/24/33
f 708/24/35 782/24/36 783/24/35
f 705/24/37 784/24/5 785/24/37
f 703/24/38 781/24/39 779/24/38
f 733/24/40 780/24/41 778/24/40
f 702/24/42 752/24/43 753/24/42
f 700/24/44 742/24/45 741/24/44
f 698/24/46 744/24/47 743/24/46
f 694/24/48 740/24/49 749/24/48
f 689/24/50 747/24/51 748/24/50
f 691/24/52 745/24/2 746/24/52
f 693/24/53 755/24/54 754/24/53
f 732/24/55 758/24/56 757/24/55
f 677/24/57 756/24/58 751/24/57
f 681/24/59 750/24/60 786/24/59
f 680/24/61 790/24/62 791/24/61
f 682/24/63 800/24/64 799/24/63
f 684/24/65 803/24/66 802/24/65
f 688/24/9 794/24/7 793/24/9
f 735/24/11 792/24/8 795/24/11
f 717/24/13 796/24/10 798/24/13
f 718/24/15 797/24/12 789/24/15
f 720/24/17 788/24/14 772/24/17
f 730/24/19 773/24/16 777/24/19
f 728/24/21 776/24/18 775/24/21
f 726/24/1 774/24/20 769/24/1
f 723/24/24 770/24/22 767/24/24
f 738/24/26 768/24/23 765/24/26
f 715/24/28 766/24/25 761/24/28
f 713/24/30 760/24/27 763/24/30
f 711/24/32 762/24/29 759/24/32
f 710/24/34 764/24/31 771/24/34
f 707/24/36 787/24/33 782/24/36
f 706/24/5 783/24/35 784/24/5
f 704/24/39 785/24/37 781/24/39
f 736/24/41 779/24/38 780/24/41
f 701/24/43 778/24/40 752/24/43
f 699/24/45 753/24/42 742/24/45
f 697/24/47 741/24/44 744/24/47
f 696/24/49 743/24/46 740/24/49
f 695/24/51 749/24/48 747/24/51
f 690/24/2 748/24/50 745/24/2
f 692/24/54 746/24/52 755/24/54
f 731/24/56 754/24/53 758/24/56
f 675/24/58 757/24/55 756/24/58
f 676/24/60 751/24/57 750/24/60
f 678/24/62 786/24/59 790/24/62
f 679/24/64 791/24/61 800/24/64
f 683/24/66 799/24/63 803/24/66
f 685/24/3 802/24/65 801/24/3
s 0
f 960/12/6 993/13/6 858/14/6
f 945/15/6 943/16/6 855/17/6
f 1048/18/4 1047/19/4 909/20/4
f 1018/21/4 1023/22/4 884/23/4
s 1
f 944/24/7 1058/24/3 1051/24/7
f 943/24/8 1050/24/9 1049/24/8
f 991/24/10 1052/24/11 1053/24/10
f 976/24/12 1055/24/13 1054/24/12
f 978/24/14 1046/24/15 1045/24/14
f 979/24/16 1029/24/17 1030/24/16
f 986/24/18 1034/24/19 1033/24/18
f 984/24/20 1032/24/21 1031/24/20
f 982/24/22 1026/24/1 1027/24/22
f 981/24/23 1024/24/24 1025/24/23
f 996/24/25 1022/24/26 1023/24/25
f 973/24/27 1018/24/28 1017/24/27
f 971/24/29 1020/24/30 1019/24/29
f 969/24/31 1016/24/32 1021/24/31
f 966/24/33 1028/24/34 1044/24/33
f 965/24/35 1039/24/36 1040/24/35
f 962/24/37 1041/24/5 1042/24/37
f 960/24/38 1038/24/39 1036/24/38
f 990/24/40 1037/24/41 1035/24/40
f 959/24/42 1009/24/43 1010/24/42
f 957/24/44 999/24/45 998/24/44
f 955/24/46 1001/24/47 1000/24/46
f 951/24/48 997/24/49 1006/24/48
f 946/24/50 1004/24/51 1005/24/50
f 948/24/52 1002/24/2 1003/24/52
f 950/24/53 1012/24/54 1011/24/53
f 989/24/55 1015/24/56 1014/24/55
f 934/24/57 1013/24/58 1008/24/57
f 938/24/59 1007/24/60 1043/24/59
f 937/24/61 1047/24/62 1048/24/61
f 939/24/63 1057/24/64 1056/24/63
f 941/24/65 1060/24/66 1059/24/65
f 945/24/9 1051/24/7 1050/24/9
f 992/24/11 1049/24/8 1052/24/11
f 974/24/13 1053/24/10 1055/24/13
f 975/24/15 1054/24/12 1046/24/15
f 977/24/17 1045/24/14 1029/24/17
f 987/24/19 1030/24/16 1034/24/19
f 985/24/21 1033/24/18 1032/24/21
f 983/24/1 1031/24/20 1026/24/1
f 980/24/24 1027/24/22 1024/24/24
f 995/24/26 1025/24/23 1022/24/26
f 972/24/28 1023/24/25 1018/24/28
f 970/24/30 1017/24/27 1020/24/30
f 968/24/32 1019/24/29 1016/24/32
f 967/24/34 1021/24/31 1028/24/34
f 964/24/36 1044/24/33 1039/24/36
f 963/24/5 1040/24/35 1041/24/5
f 961/24/39 1042/24/37 1038/24/39
f 993/24/41 1036/24/38 1037/24/41
f 958/24/43 1035/24/40 1009/24/43
f 956/24/45 1010/24/42 999/24/45
f 954/24/47 998/24/44 1001/24/47
f 953/24/49 1000/24/46 997/24/49
f 952/24/51 1006/24/48 1004/24/51
f 947/24/2 1005/24/50 1002/24/2
f 949/24/54 1003/24/52 1012/24/54
f 988/24/56 1011/24/53 1015/24/56
f 932/24/58 1014/24/55 1013/24/58
f 933/24/60 1008/24/57 1007/24/60
f 935/24/62 1043/24/59 1047/24/62
f 936/24/64 1048/24/61 1057/24/64
f 940/24/66 1056/24/63 1060/24/66
f 942/24/3 1059/24/65 1058/24/3
s 0
f 1064/11/5 1067/6/5 1063/2/5
f 1068/4/2 1065/5/2 1067/6/2
f 1066/7/3 1061/8/3 1065/5/3
f 1067/6/4 1061/9/4 1063/10/4
f 1072/11/5 1075/6/5 1071/2/5
f 1074/7/3 1069/8/3 1073/5/3
f 1075/6/4 1069/9/4 1071/10/4
f 1080/11/5 1083/6/5 1079/2/5
f 1082/7/3 1077/8/3 1081/5/3
f 1083/6/4 1077/9/4 1079/10/4
f 1086/1/1 1087/2/1 1085/3/1
f 1088/11/5 1091/6/5 1087/2/5
f 1090/7/3 1085/8/3 1089/5/3
f 1091/6/4 1085/9/4 1087/10/4
f 1096/11/5 1099/6/5 1095/2/5
f 1100/4/2 1097/5/2 1099/6/2
f 1098/7/3 1093/8/3 1097/5/3
f 1099/6/4 1093/9/4 1095/10/4
f 1102/1/1 1103/2/1 1101/3/1
f 1104/11/5 1107/6/5 1103/2/5
f 1106/7/3 1101/8/3 1105/5/3
f 1107/6/4 1101/9/4 1103/10/4
f 1112/11/5 1115/6/5 1111/2/5
f 1116/4/2 1113/5/2 1115/6/2
f 1114/7/3 1109/8/3 1113/5/3
f 1115/6/4 1109/9/4 1111/10/4
f 1118/1/1 1119/2/1 1117/3/1
f 1120/11/5 1123/6/5 1119/2/5
f 1122/7/3 1117/8/3 1121/5/3
f 1123/6/4 1117/9/4 1119/10/4
f 1128/11/5 1131/6/5 1127/2/5
f 1130/7/3 1125/8/3 1129/5/3
f 1131/6/4 1125/9/4 1127/10/4
f 1136/11/1 1139/6/1 1135/2/1
f 1138/7/2 1133/8/2 1137/5/2
f 1139/6/4 1133/9/4 1135/10/4
f 1144/11/1 1147/6/1 1143/2/1
f 1146/7/2 1141/8/2 1145/5/2
f 1147/6/4 1141/9/4 1143/10/4
f 1152/11/1 1155/6/1 1151/2/1
f 1156/4/5 1153/5/5 1155/6/5
f 1154/7/2 1149/8/2 1153/5/2
f 1155/6/4 1149/9/4 1151/10/4
f 2/1/1 4/11/1 3/2/1
f 8/4/2 6/7/2 5/5/2
f 6/7/3 2/25/3 1/8/3
f 7/6/4 5/5/4 1/9/4
f 10/1/1 12/11/1 11/2/1
f 12/11/5 16/4/5 15/6/5
f 16/4/2 14/7/2 13/5/2
f 15/6/4 13/5/4 9/9/4
f 18/1/1 20/11/1 19/2/1
f 20/11/5 24/4/5 23/6/5
f 22/7/3 18/25/3 17/8/3
f 23/6/4 21/5/4 17/9/4
f 28/11/5 32/4/5 31/6/5
f 32/4/2 30/7/2 29/5/2
f 30/7/3 26/25/3 25/8/3
f 31/6/4 29/5/4 25/9/4
f 165/26/6 168/27/6 40/28/6
f 40/28/6 43/29/6 165/26/6
f 43/29/6 37/30/6 165/26/6
f 165/26/6 37/30/6 166/31/6
f 37/30/6 35/32/6 164/33/6
f 35/32/6 36/34/6 164/33/6
f 36/34/6 34/35/6 162/36/6
f 34/35/6 33/37/6 162/36/6
f 33/37/6 79/38/6 161/39/6
f 79/38/6 80/40/6 161/39/6
f 80/40/6 81/41/6 217/42/6
f 81/41/6 77/43/6 217/42/6
f 217/42/6 77/43/6 179/44/6
f 77/43/6 78/45/6 178/46/6
f 78/45/6 45/47/6 178/46/6
f 45/47/6 44/48/6 176/49/6
f 44/48/6 48/50/6 176/49/6
f 48/50/6 46/51/6 181/52/6
f 46/51/6 47/53/6 181/52/6
f 47/53/6 54/54/6 182/55/6
f 54/54/6 51/56/6 182/55/6
f 182/55/6 51/56/6 184/57/6
f 51/56/6 49/58/6 183/59/6
f 49/58/6 50/60/6 183/59/6
f 50/60/6 53/61/6 185/62/6
f 53/61/6 52/63/6 185/62/6
f 52/63/6 83/64/6 187/65/6
f 83/64/6 82/66/6 187/65/6
f 82/66/6 88/67/6 222/13/6
f 88/67/6 87/14/6 222/13/6
f 87/14/6 86/68/6 190/69/6
f 86/68/6 56/70/6 190/69/6
f 56/70/6 55/71/6 192/72/6
f 55/71/6 57/73/6 192/72/6
f 57/73/6 58/74/6 193/75/6
f 58/74/6 59/76/6 193/75/6
f 59/76/6 65/77/6 196/78/6
f 65/77/6 62/79/6 196/78/6
f 196/78/6 62/79/6 198/80/6
f 62/79/6 61/81/6 197/82/6
f 61/81/6 60/83/6 197/82/6
f 60/83/6 64/84/6 199/85/6
f 64/84/6 63/86/6 199/85/6
f 63/86/6 91/87/6 201/88/6
f 91/87/6 92/89/6 201/88/6
f 92/89/6 95/90/6 224/91/6
f 95/90/6 94/92/6 224/91/6
f 224/91/6 94/92/6 210/93/6
f 94/92/6 93/94/6 209/95/6
f 93/94/6 75/96/6 209/95/6
f 75/96/6 74/97/6 212/98/6
f 74/97/6 73/99/6 212/98/6
f 73/99/6 71/100/6 214/101/6
f 71/100/6 72/102/6 214/101/6
f 72/102/6 76/103/6 216/104/6
f 76/103/6 70/105/6 216/104/6
f 216/104/6 70/105/6 208/106/6
f 70/105/6 68/107/6 206/108/6
f 68/107/6 69/109/6 206/108/6
f 69/109/6 67/110/6 204/111/6
f 67/110/6 66/112/6 204/111/6
f 66/112/6 96/113/6 203/114/6
f 96/113/6 90/115/6 203/114/6
f 90/115/67 220/116/67 223/117/67
f 203/114/6 205/118/6 66/112/6
f 205/118/6 204/111/6 66/112/6
f 90/115/6 223/117/6 203/114/6
f 212/98/6 73/99/6 213/119/6
f 199/85/6 63/86/6 202/120/6
f 192/72/6 57/73/6 194/121/6
f 185/62/6 52/63/6 188/122/6
f 176/49/6 48/50/6 175/123/6
f 162/36/6 33/37/6 163/124/6
f 162/36/6 167/125/6 36/34/6
f 167/125/6 164/33/6 36/34/6
f 164/33/6 166/31/6 37/30/6
f 77/43/6 178/46/6 179/44/6
f 51/56/6 183/59/6 184/57/6
f 87/14/6 190/69/6 189/12/6
f 62/79/6 197/82/6 198/80/6
f 94/92/6 209/95/6 210/93/6
f 70/105/6 206/108/6 208/106/6
f 204/111/6 207/126/6 69/109/6
f 207/126/6 206/108/6 69/109/6
f 163/124/6 33/37/6 161/39/6
f 216/104/6 215/127/6 72/102/6
f 215/127/6 214/101/6 72/102/6
f 214/101/6 213/119/6 73/99/6
f 218/128/6 161/39/6 80/40/6
f 217/42/6 218/128/6 80/40/6
f 75/96/6 212/98/6 211/129/6
f 176/49/6 177/130/6 45/47/6
f 177/130/6 178/46/6 45/47/6
f 75/96/6 211/129/6 209/95/6
f 181/52/6 175/123/6 48/50/6
f 182/55/6 180/131/6 47/53/6
f 180/131/6 181/52/6 47/53/6
f 92/89/6 224/91/6 225/132/6
f 201/88/6 202/120/6 63/86/6
f 92/89/6 225/132/6 201/88/6
f 185/62/6 186/133/6 50/60/6
f 186/133/6 183/59/6 50/60/6
f 199/85/6 200/134/6 60/83/6
f 200/134/6 197/82/6 60/83/6
f 188/122/6 52/63/6 187/65/6
f 222/13/6 219/135/6 82/66/6
f 219/135/6 187/65/6 82/66/6
f 196/78/6 195/136/6 59/76/6
f 195/136/6 193/75/6 59/76/6
f 193/75/6 194/121/6 57/73/6
f 192/72/6 191/137/6 56/70/6
f 191/137/6 190/69/6 56/70/6
f 221/138/6 220/116/6 90/115/6
f 90/115/6 89/139/6 221/138/6
f 89/139/6 84/17/6 221/138/6
f 221/138/6 84/17/6 172/16/6
f 84/17/6 85/140/6 174/15/6
f 85/140/6 41/141/6 174/15/6
f 41/141/6 42/142/6 171/143/6
f 42/142/6 38/144/6 171/143/6
f 38/144/6 39/145/6 169/146/6
f 39/145/6 40/28/6 169/146/6
f 40/28/6 168/27/6 169/146/6
f 169/146/6 170/147/6 38/144/6
f 170/147/6 171/143/6 38/144/6
f 171/143/6 173/148/6 41/141/6
f 173/148/6 174/15/6 41/141/6
f 276/19/4 272/149/4 135/150/4
f 135/150/4 139/151/4 276/19/4
f 139/151/4 138/20/4 276/19/4
f 138/20/4 158/152/4 286/153/4
f 158/152/4 157/154/4 286/153/4
f 157/154/4 285/155/4 286/153/4
f 286/153/4 277/18/4 138/20/4
f 289/156/4 285/155/4 157/154/4
f 157/154/4 142/157/4 289/156/4
f 142/157/4 141/158/4 289/156/4
f 289/156/4 141/158/4 288/159/4
f 141/158/4 143/160/4 287/161/4
f 143/160/4 97/162/4 287/161/4
f 97/162/4 98/163/4 279/164/4
f 98/163/4 100/165/4 279/164/4
f 100/165/4 99/166/4 281/167/4
f 99/166/4 101/168/4 281/167/4
f 101/168/4 107/169/4 284/170/4
f 107/169/4 104/171/4 284/170/4
f 284/170/4 104/171/4 283/172/4
f 104/171/4 103/173/4 275/174/4
f 103/173/4 102/175/4 275/174/4
f 102/175/4 106/176/4 258/177/4
f 106/176/4 105/178/4 258/177/4
f 105/178/4 146/179/4 263/180/4
f 146/179/4 147/181/4 263/180/4
f 147/181/4 150/182/4 261/183/4
f 150/182/4 149/184/4 261/183/4
f 149/184/4 148/185/4 255/186/4
f 148/185/4 116/187/4 255/186/4
f 116/187/4 117/188/4 253/189/4
f 117/188/4 115/190/4 253/189/4
f 115/190/4 114/191/4 251/192/4
f 114/191/4 113/23/4 251/192/4
f 113/23/4 118/193/4 247/21/4
f 118/193/4 112/194/4 247/21/4
f 112/194/4 111/195/4 249/196/4
f 111/195/4 110/197/4 249/196/4
f 110/197/4 108/198/4 245/199/4
f 108/198/4 109/200/4 245/199/4
f 109/200/4 151/201/4 257/202/4
f 151/201/4 145/203/4 257/202/4
f 145/203/4 144/204/4 268/205/4
f 144/204/4 159/206/4 268/205/4
f 159/206/4 160/207/4 270/208/4
f 160/207/4 127/209/4 270/208/4
f 127/209/4 128/210/4 267/211/4
f 128/210/4 125/212/4 267/211/4
f 125/212/4 124/213/4 266/214/4
f 124/213/4 126/215/4 266/214/4
f 125/212/4 266/214/4 265/216/4
f 126/215/4 129/217/4 238/218/4
f 129/217/4 123/219/4 238/218/4
f 238/218/4 123/219/4 239/220/4
f 123/219/4 121/221/4 228/222/4
f 121/221/4 122/223/4 228/222/4
f 122/223/4 119/224/4 230/225/4
f 119/224/4 120/226/4 230/225/4
f 120/226/4 154/227/4 226/228/4
f 154/227/4 155/229/4 226/228/4
f 120/226/4 226/228/4 229/230/4
f 155/229/4 156/231/4 233/232/4
f 156/231/4 153/233/4 233/232/4
f 153/233/4 152/234/4 231/235/4
f 152/234/4 130/236/4 231/235/4
f 130/236/4 134/237/4 241/238/4
f 134/237/4 133/239/4 241/238/4
f 133/239/4 132/240/4 244/241/4
f 132/240/4 131/242/4 244/241/4
f 131/242/4 140/243/4 242/244/4
f 140/243/4 137/245/4 242/244/4
f 137/245/4 136/246/4 236/247/4
f 136/246/4 135/150/4 236/247/4
f 135/150/4 272/149/4 236/247/4
f 236/247/4 237/248/4 137/245/4
f 237/248/4 242/244/4 137/245/4
f 242/244/4 243/249/4 131/242/4
f 243/249/4 244/241/4 131/242/4
f 244/241/4 240/250/4 133/239/4
f 240/250/4 241/238/4 133/239/4
f 241/238/4 232/251/4 130/236/4
f 232/251/4 231/235/4 130/236/4
f 231/235/4 234/252/4 153/233/4
f 234/252/4 233/232/4 153/233/4
f 233/232/4 235/253/4 155/229/4
f 235/253/4 226/228/4 155/229/4
f 230/225/4 120/226/4 229/230/4
f 267/211/4 125/212/4 265/216/4
f 245/199/4 109/200/4 250/254/4
f 253/189/4 115/190/4 254/255/4
f 258/177/4 105/178/4 259/256/4
f 279/164/4 100/165/4 278/257/4
f 279/164/4 280/258/4 97/162/4
f 280/258/4 287/161/4 97/162/4
f 287/161/4 288/159/4 141/158/4
f 104/171/4 275/174/4 283/172/4
f 275/174/4 102/175/4 274/259/4
f 149/184/4 255/186/4 260/260/4
f 255/186/4 116/187/4 256/261/4
f 112/194/4 249/196/4 246/262/4
f 249/196/4 110/197/4 248/263/4
f 159/206/4 270/208/4 269/264/4
f 270/208/4 127/209/4 271/265/4
f 123/219/4 228/222/4 239/220/4
f 228/222/4 122/223/4 227/266/4
f 281/167/4 278/257/4 100/165/4
f 284/170/4 282/267/4 101/168/4
f 282/267/4 281/167/4 101/168/4
f 258/177/4 274/259/4 102/175/4
f 263/180/4 259/256/4 105/178/4
f 230/225/4 227/266/4 122/223/4
f 262/268/4 263/180/4 147/181/4
f 261/183/4 262/268/4 147/181/4
f 260/260/4 261/183/4 149/184/4
f 238/218/4 264/269/4 126/215/4
f 264/269/4 266/214/4 126/215/4
f 256/261/4 116/187/4 253/189/4
f 267/211/4 271/265/4 127/209/4
f 254/255/4 115/190/4 251/192/4
f 269/264/4 268/205/4 159/206/4
f 268/205/4 273/270/4 145/203/4
f 273/270/4 257/202/4 145/203/4
f 257/202/4 250/254/4 109/200/4
f 245/199/4 248/263/4 110/197/4
f 246/262/4 247/21/4 112/194/4
f 252/22/4 251/192/4 113/23/4
s 1
f 173/24/7 171/24/3 287/24/3
f 172/24/8 174/24/9 279/24/9
f 282/24/10 223/24/10 220/24/10
f 220/24/10 221/24/11 281/24/11
f 205/24/12 203/24/13 284/24/13
f 207/24/14 204/24/15 275/24/15
f 208/24/16 206/24/17 258/24/17
f 215/24/18 216/24/19 263/24/19
f 213/24/20 214/24/21 261/24/21
f 211/24/22 212/24/1 255/24/1
f 210/24/23 209/24/24 253/24/24
f 225/24/25 224/24/26 251/24/26
f 202/24/27 201/24/28 247/24/28
f 200/24/29 199/24/30 249/24/30
f 198/24/31 197/24/32 245/24/32
f 195/24/33 196/24/34 257/24/34
f 194/24/35 193/24/36 268/24/36
f 191/24/37 192/24/5 270/24/5
f 189/24/38 190/24/39 267/24/39
f 219/24/40 222/24/41 266/24/41
f 188/24/42 187/24/43 238/24/43
f 186/24/44 185/24/45 228/24/45
f 184/24/46 183/24/47 230/24/47
f 180/24/48 182/24/49 226/24/49
f 175/24/50 181/24/51 233/24/51
f 177/24/52 176/24/2 231/24/2
f 179/24/53 178/24/54 241/24/54
f 218/24/55 217/24/56 244/24/56
f 163/24/57 161/24/58 242/24/58
f 167/24/59 162/24/60 236/24/60
f 166/24/61 164/24/62 276/24/62
f 168/24/63 165/24/64 286/24/64
f 170/24/65 169/24/66 289/24/66
f 174/24/9 173/24/7 280/24/7
f 221/24/11 172/24/8 278/24/8
f 203/24/13 223/24/10 282/24/10
f 204/24/15 205/24/12 283/24/12
f 206/24/17 207/24/14 274/24/14
f 216/24/19 208/24/16 259/24/16
f 214/24/21 215/24/18 262/24/18
f 212/24/1 213/24/20 260/24/20
f 209/24/24 211/24/22 256/24/22
f 224/24/26 210/24/23 254/24/23
f 201/24/28 225/24/25 252/24/25
f 199/24/30 202/24/27 246/24/27
f 197/24/32 200/24/29 248/24/29
f 196/24/34 198/24/31 250/24/31
f 193/24/36 195/24/33 273/24/33
f 192/24/5 194/24/35 269/24/35
f 190/24/39 191/24/37 271/24/37
f 222/24/41 189/24/38 265/24/38
f 187/24/43 219/24/40 264/24/40
f 185/24/45 188/24/42 239/24/42
f 183/24/47 186/24/44 227/24/44
f 182/24/49 184/24/46 229/24/46
f 181/24/51 180/24/48 235/24/48
f 176/24/2 175/24/50 234/24/50
f 178/24/54 177/24/52 232/24/52
f 217/24/56 179/24/53 240/24/53
f 161/24/58 218/24/55 243/24/55
f 162/24/60 163/24/57 237/24/57
f 164/24/62 167/24/59 272/24/59
f 165/24/64 166/24/61 277/24/61
f 169/24/66 168/24/63 285/24/63
f 171/24/3 170/24/65 288/24/65
s 0
f 422/26/6 425/27/6 297/28/6
f 297/28/6 300/29/6 422/26/6
f 300/29/6 294/30/6 422/26/6
f 422/26/6 294/30/6 423/31/6
f 294/30/6 292/32/6 421/33/6
f 292/32/6 293/34/6 421/33/6
f 293/34/6 291/35/6 419/36/6
f 291/35/6 290/37/6 419/36/6
f 290/37/6 336/38/6 418/39/6
f 336/38/6 337/40/6 418/39/6
f 337/40/6 338/41/6 474/42/6
f 338/41/6 334/43/6 474/42/6
f 474/42/6 334/43/6 436/44/6
f 334/43/6 335/45/6 435/46/6
f 335/45/6 302/47/6 435/46/6
f 302/47/6 301/48/6 433/49/6
f 301/48/6 305/50/6 433/49/6
f 305/50/6 303/51/6 438/52/6
f 303/51/6 304/53/6 438/52/6
f 304/53/6 311/54/6 439/55/6
f 311/54/6 308/56/6 439/55/6
f 439/55/6 308/56/6 441/57/6
f 308/56/6 306/58/6 440/59/6
f 306/58/6 307/60/6 440/59/6
f 307/60/6 310/61/6 442/62/6
f 310/61/6 309/63/6 442/62/6
f 309/63/6 340/64/6 444/65/6
f 340/64/6 339/66/6 444/65/6
f 339/66/6 345/67/6 479/13/6
f 345/67/6 344/14/6 479/13/6
f 344/14/6 343/68/6 447/69/6
f 343/68/6 313/70/6 447/69/6
f 313/70/6 312/71/6 449/72/6
f 312/71/6 314/73/6 449/72/6
f 314/73/6 315/74/6 450/75/6
f 315/74/6 316/76/6 450/75/6
f 316/76/6 322/77/6 453/78/6
f 322/77/6 319/79/6 453/78/6
f 453/78/6 319/79/6 455/80/6
f 319/79/6 318/81/6 454/82/6
f 318/81/6 317/83/6 454/82/6
f 317/83/6 321/84/6 456/85/6
f 321/84/6 320/86/6 456/85/6
f 320/86/6 348/87/6 458/88/6
f 348/87/6 349/89/6 458/88/6
f 349/89/6 352/90/6 481/91/6
f 352/90/6 351/92/6 481/91/6
f 481/91/6 351/92/6 467/93/6
f 351/92/6 350/94/6 466/95/6
f 350/94/6 332/96/6 466/95/6
f 332/96/6 331/97/6 469/98/6
f 331/97/6 330/99/6 469/98/6
f 330/99/6 328/100/6 471/101/6
f 328/100/6 329/102/6 471/101/6
f 329/102/6 333/103/6 473/104/6
f 333/103/6 327/105/6 473/104/6
f 473/104/6 327/105/6 465/106/6
f 327/105/6 325/107/6 463/108/6
f 325/107/6 326/109/6 463/108/6
f 326/109/6 324/110/6 461/111/6
f 324/110/6 323/112/6 461/111/6
f 323/112/6 353/113/6 460/114/6
f 353/113/6 347/115/6 460/114/6
f 347/115/68 477/116/68 480/117/68
f 460/114/6 462/118/6 323/112/6
f 462/118/6 461/111/6 323/112/6
f 347/115/6 480/117/6 460/114/6
f 469/98/6 330/99/6 470/119/6
f 456/85/6 320/86/6 459/120/6
f 449/72/6 314/73/6 451/121/6
f 442/62/6 309/63/6 445/122/6
f 433/49/6 305/50/6 432/123/6
f 419/36/6 290/37/6 420/124/6
f 419/36/6 424/125/6 293/34/6
f 424/125/6 421/33/6 293/34/6
f 421/33/6 423/31/6 294/30/6
f 334/43/6 435/46/6 436/44/6
f 308/56/6 440/59/6 441/57/6
f 344/14/6 447/69/6 446/12/6
f 319/79/6 454/82/6 455/80/6
f 351/92/6 466/95/6 467/93/6
f 327/105/6 463/108/6 465/106/6
f 461/111/6 464/126/6 326/109/6
f 464/126/6 463/108/6 326/109/6
f 420/124/6 290/37/6 418/39/6
f 473/104/6 472/127/6 329/102/6
f 472/127/6 471/101/6 329/102/6
f 471/101/6 470/119/6 330/99/6
f 475/128/6 418/39/6 337/40/6
f 474/42/6 475/128/6 337/40/6
f 332/96/6 469/98/6 468/129/6
f 433/49/6 434/130/6 302/47/6
f 434/130/6 435/46/6 302/47/6
f 332/96/6 468/129/6 466/95/6
f 438/52/6 432/123/6 305/50/6
f 439/55/6 437/131/6 304/53/6
f 437/131/6 438/52/6 304/53/6
f 349/89/6 481/91/6 482/132/6
f 458/88/6 459/120/6 320/86/6
f 349/89/6 482/132/6 458/88/6
f 442/62/6 443/133/6 307/60/6
f 443/133/6 440/59/6 307/60/6
f 456/85/6 457/134/6 317/83/6
f 457/134/6 454/82/6 317/83/6
f 445/122/6 309/63/6 444/65/6
f 479/13/6 476/135/6 339/66/6
f 476/135/6 444/65/6 339/66/6
f 453/78/6 452/136/6 316/76/6
f 452/136/6 450/75/6 316/76/6
f 450/75/6 451/121/6 314/73/6
f 449/72/6 448/137/6 313/70/6
f 448/137/6 447/69/6 313/70/6
f 478/138/6 477/116/6 347/115/6
f 347/115/6 346/139/6 478/138/6
f 346/139/6 341/17/6 478/138/6
f 478/138/6 341/17/6 429/16/6
f 341/17/6 342/140/6 431/15/6
f 342/140/6 298/141/6 431/15/6
f 298/141/6 299/142/6 428/143/6
f 299/142/6 295/144/6 428/143/6
f 295/144/6 296/145/6 426/146/6
f 296/145/6 297/28/6 426/146/6
f 297/28/6 425/27/6 426/146/6
f 426/146/6 427/147/6 295/144/6
f 427/147/6 428/143/6 295/144/6
f 428/143/6 430/148/6 298/141/6
f 430/148/6 431/15/6 298/141/6
f 533/19/4 529/149/4 392/150/4
f 392/150/4 396/151/4 533/19/4
f 396/151/4 395/20/4 533/19/4
f 395/20/4 415/152/4 543/153/4
f 415/152/4 414/154/4 543/153/4
f 414/154/4 542/155/4 543/153/4
f 543/153/4 534/18/4 395/20/4
f 546/156/4 542/155/4 414/154/4
f 414/154/4 399/157/4 546/156/4
f 399/157/4 398/158/4 546/156/4
f 546/156/4 398/158/4 545/159/4
f 398/158/4 400/160/4 544/161/4
f 400/160/4 354/162/4 544/161/4
f 354/162/4 355/163/4 536/164/4
f 355/163/4 357/165/4 536/164/4
f 357/165/4 356/166/4 538/167/4
f 356/166/4 358/168/4 538/167/4
f 358/168/4 364/169/4 541/170/4
f 364/169/4 361/171/4 541/170/4
f 541/170/4 361/171/4 540/172/4
f 361/171/4 360/173/4 532/174/4
f 360/173/4 359/175/4 532/174/4
f 359/175/4 363/176/4 515/177/4
f 363/176/4 362/178/4 515/177/4
f 362/178/4 403/179/4 520/180/4
f 403/179/4 404/181/4 520/180/4
f 404/181/4 407/182/4 518/183/4
f 407/182/4 406/184/4 518/183/4
f 406/184/4 405/185/4 512/186/4
f 405/185/4 373/187/4 512/186/4
f 373/187/4 374/188/4 510/189/4
f 374/188/4 372/190/4 510/189/4
f 372/190/4 371/191/4 508/192/4
f 371/191/4 370/23/4 508/192/4
f 370/23/4 375/193/4 504/21/4
f 375/193/4 369/194/4 504/21/4
f 369/194/4 368/195/4 506/196/4
f 368/195/4 367/197/4 506/196/4
f 367/197/4 365/198/4 502/199/4
f 365/198/4 366/200/4 502/199/4
f 366/200/4 408/201/4 514/202/4
f 408/201/4 402/203/4 514/202/4
f 402/203/4 401/204/4 525/205/4
f 401/204/4 416/206/4 525/205/4
f 416/206/4 417/207/4 527/208/4
f 417/207/4 384/209/4 527/208/4
f 384/209/4 385/210/4 524/211/4
f 385/210/4 382/212/4 524/211/4
f 382/212/4 381/213/4 523/214/4
f 381/213/4 383/215/4 523/214/4
f 382/212/4 523/214/4 522/216/4
f 383/215/4 386/217/4 495/218/4
f 386/217/4 380/219/4 495/218/4
f 495/218/4 380/219/4 496/220/4
f 380/219/4 378/221/4 485/222/4
f 378/221/4 379/223/4 485/222/4
f 379/223/4 376/224/4 487/225/4
f 376/224/4 377/226/4 487/225/4
f 377/226/4 411/227/4 483/228/4
f 411/227/4 412/229/4 483/228/4
f 377/226/4 483/228/4 486/230/4
f 412/229/4 413/231/4 490/232/4
f 413/231/4 410/233/4 490/232/4
f 410/233/4 409/234/4 488/235/4
f 409/234/4 387/236/4 488/235/4
f 387/236/4 391/237/4 498/238/4
f 391/237/4 390/239/4 498/238/4
f 390/239/4 389/240/4 501/241/4
f 389/240/4 388/242/4 501/241/4
f 388/242/4 397/243/4 499/244/4
f 397/243/4 394/245/4 499/244/4
f 394/245/4 393/246/4 493/247/4
f 393/246/4 392/150/4 493/247/4
f 392/150/4 529/149/4 493/247/4
f 493/247/4 494/248/4 394/245/4
f 494/248/4 499/244/4 394/245/4
f 499/244/4 500/249/4 388/242/4
f 500/249/4 501/241/4 388/242/4
f 501/241/4 497/250/4 390/239/4
f 497/250/4 498/238/4 390/239/4
f 498/238/4 489/251/4 387/236/4
f 489/251/4 488/235/4 387/236/4
f 488/235/4 491/252/4 410/233/4
f 491/252/4 490/232/4 410/233/4
f 490/232/4 492/253/4 412/229/4
f 492/253/4 483/228/4 412/229/4
f 487/225/4 377/226/4 486/230/4
f 524/211/4 382/212/4 522/216/4
f 502/199/4 366/200/4 507/254/4
f 510/189/4 372/190/4 511/255/4
f 515/177/4 362/178/4 516/256/4
f 536/164/4 357/165/4 535/257/4
f 536/164/4 537/258/4 354/162/4
f 537/258/4 544/161/4 354/162/4
f 544/161/4 545/159/4 398/158/4
f 361/171/4 532/174/4 540/172/4
f 532/174/4 359/175/4 531/259/4
f 406/184/4 512/186/4 517/260/4
f 512/186/4 373/187/4 513/261/4
f 369/194/4 506/196/4 503/262/4
f 506/196/4 367/197/4 505/263/4
f 416/206/4 527/208/4 526/264/4
f 527/208/4 384/209/4 528/265/4
f 380/219/4 485/222/4 496/220/4
f 485/222/4 379/223/4 484/266/4
f 538/167/4 535/257/4 357/165/4
f 541/170/4 539/267/4 358/168/4
f 539/267/4 538/167/4 358/168/4
f 515/177/4 531/259/4 359/175/4
f 520/180/4 516/256/4 362/178/4
f 487/225/4 484/266/4 379/223/4
f 519/268/4 520/180/4 404/181/4
f 518/183/4 519/268/4 404/181/4
f 517/260/4 518/183/4 406/184/4
f 495/218/4 521/269/4 383/215/4
f 521/269/4 523/214/4 383/215/4
f 513/261/4 373/187/4 510/189/4
f 524/211/4 528/265/4 384/209/4
f 511/255/4 372/190/4 508/192/4
f 526/264/4 525/205/4 416/206/4
f 525/205/4 530/270/4 402/203/4
f 530/270/4 514/202/4 402/203/4
f 514/202/4 507/254/4 366/200/4
f 502/199/4 505/263/4 367/197/4
f 503/262/4 504/21/4 369/194/4
f 509/22/4 508/192/4 370/23/4
s 1
f 430/24/7 428/24/3 544/24/3
f 429/24/8 431/24/9 536/24/9
f 539/24/10 480/24/10 477/24/10
f 477/24/10 478/24/11 538/24/11
f 462/24/12 460/24/13 541/24/13
f 464/24/14 461/24/15 532/24/15
f 465/24/16 463/24/17 515/24/17
f 472/24/18 473/24/19 520/24/19
f 470/24/20 471/24/21 518/24/21
f 468/24/22 469/24/1 512/24/1
f 467/24/23 466/24/24 510/24/24
f 482/24/25 481/24/26 508/24/26
f 459/24/27 458/24/28 504/24/28
f 457/24/29 456/24/30 506/24/30
f 455/24/31 454/24/32 502/24/32
f 452/24/33 453/24/34 514/24/34
f 451/24/35 450/24/36 525/24/36
f 448/24/37 449/24/5 527/24/5
f 446/24/38 447/24/39 524/24/39
f 476/24/40 479/24/41 523/24/41
f 445/24/42 444/24/43 495/24/43
f 443/24/44 442/24/45 485/24/45
f 441/24/46 440/24/47 487/24/47
f 437/24/48 439/24/49 483/24/49
f 432/24/50 438/24/51 490/24/51
f 434/24/52 433/24/2 488/24/2
f 436/24/53 435/24/54 498/24/54
f 475/24/55 474/24/56 501/24/56
f 420/24/57 418/24/58 499/24/58
f 424/24/59 419/24/60 493/24/60
f 423/24/61 421/24/62 533/24/62
f 425/24/63 422/24/64 543/24/64
f 427/24/65 426/24/66 546/24/66
f 431/24/9 430/24/7 537/24/7
f 478/24/11 429/24/8 535/24/8
f 460/24/13 480/24/10 539/24/10
f 461/24/15 462/24/12 540/24/12
f 463/24/17 464/24/14 531/24/14
f 473/24/19 465/24/16 516/24/16
f 471/24/21 472/24/18 519/24/18
f 469/24/1 470/24/20 517/24/20
f 466/24/24 468/24/22 513/24/22
f 481/24/26 467/24/23 511/24/23
f 458/24/28 482/24/25 509/24/25
f 456/24/30 459/24/27 503/24/27
f 454/24/32 457/24/29 505/24/29
f 453/24/34 455/24/31 507/24/31
f 450/24/36 452/24/33 530/24/33
f 449/24/5 451/24/35 526/24/35
f 447/24/39 448/24/37 528/24/37
f 479/24/41 446/24/38 522/24/38
f 444/24/43 476/24/40 521/24/40
f 442/24/45 445/24/42 496/24/42
f 440/24/47 443/24/44 484/24/44
f 439/24/49 441/24/46 486/24/46
f 438/24/51 437/24/48 492/24/48
f 433/24/2 432/24/50 491/24/50
f 435/24/54 434/24/52 489/24/52
f 474/24/56 436/24/53 497/24/53
f 418/24/58 475/24/55 500/24/55
f 419/24/60 420/24/57 494/24/57
f 421/24/62 424/24/59 529/24/59
f 422/24/64 423/24/61 534/24/61
f 426/24/66 425/24/63 542/24/63
f 428/24/3 427/24/65 545/24/65
s 0
f 679/26/6 682/27/6 554/28/6
f 554/28/6 557/29/6 679/26/6
f 557/29/6 551/30/6 679/26/6
f 679/26/6 551/30/6 680/31/6
f 551/30/6 549/32/6 678/33/6
f 549/32/6 550/34/6 678/33/6
f 550/34/6 548/35/6 676/36/6
f 548/35/6 547/37/6 676/36/6
f 547/37/6 593/38/6 675/39/6
f 593/38/6 594/40/6 675/39/6
f 594/40/6 595/41/6 731/42/6
f 595/41/6 591/43/6 731/42/6
f 731/42/6 591/43/6 693/44/6
f 591/43/6 592/45/6 692/46/6
f 592/45/6 559/47/6 692/46/6
f 559/47/6 558/48/6 690/49/6
f 558/48/6 562/50/6 690/49/6
f 562/50/6 560/51/6 695/52/6
f 560/51/6 561/53/6 695/52/6
f 561/53/6 568/54/6 696/55/6
f 568/54/6 565/56/6 696/55/6
f 696/55/6 565/56/6 698/57/6
f 565/56/6 563/58/6 697/59/6
f 563/58/6 564/60/6 697/59/6
f 564/60/6 567/61/6 699/62/6
f 567/61/6 566/63/6 699/62/6
f 566/63/6 597/64/6 701/65/6
f 597/64/6 596/66/6 701/65/6
f 596/66/6 602/67/6 736/13/6
f 602/67/6 601/14/6 736/13/6
f 601/14/6 600/68/6 704/69/6
f 600/68/6 570/70/6 704/69/6
f 570/70/6 569/71/6 706/72/6
f 569/71/6 571/73/6 706/72/6
f 571/73/6 572/74/6 707/75/6
f 572/74/6 573/76/6 707/75/6
f 573/76/6 579/77/6 710/78/6
f 579/77/6 576/79/6 710/78/6
f 710/78/6 576/79/6 712/80/6
f 576/79/6 575/81/6 711/82/6
f 575/81/6 574/83/6 711/82/6
f 574/83/6 578/84/6 713/85/6
f 578/84/6 577/86/6 713/85/6
f 577/86/6 605/87/6 715/88/6
f 605/87/6 606/89/6 715/88/6
f 606/89/6 609/90/6 738/91/6
f 609/90/6 608/92/6 738/91/6
f 738/91/6 608/92/6 724/93/6
f 608/92/6 607/94/6 723/95/6
f 607/94/6 589/96/6 723/95/6
f 589/96/6 588/97/6 726/98/6
f 588/97/6 587/99/6 726/98/6
f 587/99/6 585/100/6 728/101/6
f 585/100/6 586/102/6 728/101/6
f 586/102/6 590/103/6 730/104/6
f 590/103/6 584/105/6 730/104/6
f 730/104/6 584/105/6 722/106/6
f 584/105/6 582/107/6 720/108/6
f 582/107/6 583/109/6 720/108/6
f 583/109/6 581/110/6 718/111/6
f 581/110/6 580/112/6 718/111/6
f 580/112/6 610/113/6 717/114/6
f 610/113/6 604/115/6 717/114/6
f 604/115/6 734/116/6 737/117/6
f 717/114/6 719/118/6 580/112/6
f 719/118/6 718/111/6 580/112/6
f 604/115/6 737/117/6 717/114/6
f 726/98/6 587/99/6 727/119/6
f 713/85/6 577/86/6 716/120/6
f 706/72/6 571/73/6 708/121/6
f 699/62/6 566/63/6 702/122/6
f 690/49/6 562/50/6 689/123/6
f 676/36/6 547/37/6 677/124/6
f 676/36/6 681/125/6 550/34/6
f 681/125/6 678/33/6 550/34/6
f 678/33/6 680/31/6 551/30/6
f 591/43/6 692/46/6 693/44/6
f 565/56/6 697/59/6 698/57/6
f 601/14/6 704/69/6 703/12/6
f 576/79/6 711/82/6 712/80/6
f 608/92/6 723/95/6 724/93/6
f 584/105/6 720/108/6 722/106/6
f 718/111/6 721/126/6 583/109/6
f 721/126/6 720/108/6 583/109/6
f 677/124/6 547/37/6 675/39/6
f 730/104/6 729/127/6 586/102/6
f 729/127/6 728/101/6 586/102/6
f 728/101/6 727/119/6 587/99/6
f 732/128/6 675/39/6 594/40/6
f 731/42/6 732/128/6 594/40/6
f 589/96/6 726/98/6 725/129/6
f 690/49/6 691/130/6 559/47/6
f 691/130/6 692/46/6 559/47/6
f 589/96/6 725/129/6 723/95/6
f 695/52/6 689/123/6 562/50/6
f 696/55/6 694/131/6 561/53/6
f 694/131/6 695/52/6 561/53/6
f 606/89/6 738/91/6 739/132/6
f 715/88/6 716/120/6 577/86/6
f 606/89/6 739/132/6 715/88/6
f 699/62/6 700/133/6 564/60/6
f 700/133/6 697/59/6 564/60/6
f 713/85/6 714/134/6 574/83/6
f 714/134/6 711/82/6 574/83/6
f 702/122/6 566/63/6 701/65/6
f 736/13/6 733/135/6 596/66/6
f 733/135/6 701/65/6 596/66/6
f 710/78/6 709/136/6 573/76/6
f 709/136/6 707/75/6 573/76/6
f 707/75/6 708/121/6 571/73/6
f 706/72/6 705/137/6 570/70/6
f 705/137/6 704/69/6 570/70/6
f 735/138/6 734/116/6 604/115/6
f 604/115/6 603/139/6 735/138/6
f 603/139/6 598/17/6 735/138/6
f 735/138/6 598/17/6 686/16/6
f 598/17/6 599/140/6 688/15/6
f 599/140/6 555/141/6 688/15/6
f 555/141/6 556/142/6 685/143/6
f 556/142/6 552/144/6 685/143/6
f 552/144/6 553/145/6 683/146/6
f 553/145/6 554/28/6 683/146/6
f 554/28/6 682/27/6 683/146/6
f 683/146/6 684/147/6 552/144/6
f 684/147/6 685/143/6 552/144/6
f 685/143/6 687/148/6 555/141/6
f 687/148/6 688/15/6 555/141/6
f 790/19/4 786/149/4 649/150/4
f 649/150/4 653/151/4 790/19/4
f 653/151/4 652/20/4 790/19/4
f 652/20/4 672/152/4 800/153/4
f 672/152/4 671/154/4 800/153/4
f 671/154/4 799/155/4 800/153/4
f 800/153/4 791/18/4 652/20/4
f 803/156/4 799/155/4 671/154/4
f 671/154/4 656/157/4 803/156/4
f 656/157/4 655/158/4 803/156/4
f 803/156/4 655/158/4 802/159/4
f 655/158/4 657/160/4 801/161/4
f 657/160/4 611/162/4 801/161/4
f 611/162/4 612/163/4 793/164/4
f 612/163/4 614/165/4 793/164/4
f 614/165/4 613/166/4 795/167/4
f 613/166/4 615/168/4 795/167/4
f 615/168/4 621/169/4 798/170/4
f 621/169/4 618/171/4 798/170/4
f 798/170/4 618/171/4 797/172/4
f 618/171/4 617/173/4 789/174/4
f 617/173/4 616/175/4 789/174/4
f 616/175/4 620/176/4 772/177/4
f 620/176/4 619/178/4 772/177/4
f 619/178/4 660/179/4 777/180/4
f 660/179/4 661/181/4 777/180/4
f 661/181/4 664/182/4 775/183/4
f 664/182/4 663/184/4 775/183/4
f 663/184/4 662/185/4 769/186/4
f 662/185/4 630/187/4 769/186/4
f 630/187/4 631/188/4 767/189/4
f 631/188/4 629/190/4 767/189/4
f 629/190/4 628/191/4 765/192/4
f 628/191/4 627/23/4 765/192/4
f 627/23/4 632/193/4 761/21/4
f 632/193/4 626/194/4 761/21/4
f 626/194/4 625/195/4 763/196/4
f 625/195/4 624/197/4 763/196/4
f 624/197/4 622/198/4 759/199/4
f 622/198/4 623/200/4 759/199/4
f 623/200/4 665/201/4 771/202/4
f 665/201/4 659/203/4 771/202/4
f 659/203/4 658/204/4 782/205/4
f 658/204/4 673/206/4 782/205/4
f 673/206/4 674/207/4 784/208/4
f 674/207/4 641/209/4 784/208/4
f 641/209/4 642/210/4 781/211/4
f 642/210/4 639/212/4 781/211/4
f 639/212/4 638/213/4 780/214/4
f 638/213/4 640/215/4 780/214/4
f 639/212/4 780/214/4 779/216/4
f 640/215/4 643/217/4 752/218/4
f 643/217/4 637/219/4 752/218/4
f 752/218/4 637/219/4 753/220/4
f 637/219/4 635/221/4 742/222/4
f 635/221/4 636/223/4 742/222/4
f 636/223/4 633/224/4 744/225/4
f 633/224/4 634/226/4 744/225/4
f 634/226/4 668/227/4 740/228/4
f 668/227/4 669/229/4 740/228/4
f 634/226/4 740/228/4 743/230/4
f 669/229/4 670/231/4 747/232/4
f 670/231/4 667/233/4 747/232/4
f 667/233/4 666/234/4 745/235/4
f 666/234/4 644/236/4 745/235/4
f 644/236/4 648/237/4 755/238/4
f 648/237/4 647/239/4 755/238/4
f 647/239/4 646/240/4 758/241/4
f 646/240/4 645/242/4 758/241/4
f 645/242/4 654/243/4 756/244/4
f 654/243/4 651/245/4 756/244/4
f 651/245/4 650/246/4 750/247/4
f 650/246/4 649/150/4 750/247/4
f 649/150/4 786/149/4 750/247/4
f 750/247/4 751/248/4 651/245/4
f 751/248/4 756/244/4 651/245/4
f 756/244/4 757/249/4 645/242/4
f 757/249/4 758/241/4 645/242/4
f 758/241/4 754/250/4 647/239/4
f 754/250/4 755/238/4 647/239/4
f 755/238/4 746/251/4 644/236/4
f 746/251/4 745/235/4 644/236/4
f 745/235/4 748/252/4 667/233/4
f 748/252/4 747/232/4 667/233/4
f 747/232/4 749/253/4 669/229/4
f 749/253/4 740/228/4 669/229/4
f 744/225/4 634/226/4 743/230/4
f 781/211/4 639/212/4 779/216/4
f 759/199/4 623/200/4 764/254/4
f 767/189/4 629/190/4 768/255/4
f 772/177/4 619/178/4 773/256/4
f 793/164/4 614/165/4 792/257/4
f 793/164/4 794/258/4 611/162/4
f 794/258/4 801/161/4 611/162/4
f 801/161/4 802/159/4 655/158/4
f 618/171/4 789/174/4 797/172/4
f 789/174/4 616/175/4 788/259/4
f 663/184/4 769/186/4 774/260/4
f 769/186/4 630/187/4 770/261/4
f 626/194/4 763/196/4 760/262/4
f 763/196/4 624/197/4 762/263/4
f 673/206/4 784/208/4 783/264/4
f 784/208/4 641/209/4 785/265/4
f 637/219/4 742/222/4 753/220/4
f 742/222/4 636/223/4 741/266/4
f 795/167/4 792/257/4 614/165/4
f 798/170/4 796/267/4 615/168/4
f 796/267/4 795/167/4 615/168/4
f 772/177/4 788/259/4 616/175/4
f 777/180/4 773/256/4 619/178/4
f 744/225/4 741/266/4 636/223/4
f 776/268/4 777/180/4 661/181/4
f 775/183/4 776/268/4 661/181/4
f 774/260/4 775/183/4 663/184/4
f 752/218/4 778/269/4 640/215/4
f 778/269/4 780/214/4 640/215/4
f 770/261/4 630/187/4 767/189/4
f 781/211/4 785/265/4 641/209/4
f 768/255/4 629/190/4 765/192/4
f 783/264/4 782/205/4 673/206/4
f 782/205/4 787/270/4 659/203/4
f 787/270/4 771/202/4 659/203/4
f 771/202/4 764/254/4 623/200/4
f 759/199/4 762/263/4 624/197/4
f 760/262/4 761/21/4 626/194/4
f 766/22/4 765/192/4 627/23/4
s 1
f 687/24/7 685/24/3 801/24/3
f 686/24/8 688/24/9 793/24/9
f 796/24/10 737/24/10 734/24/10
f 734/24/10 735/24/11 795/24/11
f 719/24/12 717/24/13 798/24/13
f 721/24/14 718/24/15 789/24/15
f 722/24/16 720/24/17 772/24/17
f 729/24/18 730/24/19 777/24/19
f 727/24/20 728/24/21 775/24/21
f 725/24/22 726/24/1 769/24/1
f 724/24/23 723/24/24 767/24/24
f 739/24/25 738/24/26 765/24/26
f 716/24/27 715/24/28 761/24/28
f 714/24/29 713/24/30 763/24/30
f 712/24/31 711/24/32 759/24/32
f 709/24/33 710/24/34 771/24/34
f 708/24/35 707/24/36 782/24/36
f 705/24/37 706/24/5 784/24/5
f 703/24/38 704/24/39 781/24/39
f 733/24/40 736/24/41 780/24/41
f 702/24/42 701/24/43 752/24/43
f 700/24/44 699/24/45 742/24/45
f 698/24/46 697/24/47 744/24/47
f 694/24/48 696/24/49 740/24/49
f 689/24/50 695/24/51 747/24/51
f 691/24/52 690/24/2 745/24/2
f 693/24/53 692/24/54 755/24/54
f 732/24/55 731/24/56 758/24/56
f 677/24/57 675/24/58 756/24/58
f 681/24/59 676/24/60 750/24/60
f 680/24/61 678/24/62 790/24/62
f 682/24/63 679/24/64 800/24/64
f 684/24/65 683/24/66 803/24/66
f 688/24/9 687/24/7 794/24/7
f 735/24/11 686/24/8 792/24/8
f 717/24/13 737/24/10 796/24/10
f 718/24/15 719/24/12 797/24/12
f 720/24/17 721/24/14 788/24/14
f 730/24/19 722/24/16 773/24/16
f 728/24/21 729/24/18 776/24/18
f 726/24/1 727/24/20 774/24/20
f 723/24/24 725/24/22 770/24/22
f 738/24/26 724/24/23 768/24/23
f 715/24/28 739/24/25 766/24/25
f 713/24/30 716/24/27 760/24/27
f 711/24/32 714/24/29 762/24/29
f 710/24/34 712/24/31 764/24/31
f 707/24/36 709/24/33 787/24/33
f 706/24/5 708/24/35 783/24/35
f 704/24/39 705/24/37 785/24/37
f 736/24/41 703/24/38 779/24/38
f 701/24/43 733/24/40 778/24/40
f 699/24/45 702/24/42 753/24/42
f 697/24/47 700/24/44 741/24/44
f 696/24/49 698/24/46 743/24/46
f 695/24/51 694/24/48 749/24/48
f 690/24/2 689/24/50 748/24/50
f 692/24/54 691/24/52 746/24/52
f 731/24/56 693/24/53 754/24/53
f 675/24/58 732/24/55 757/24/55
f 676/24/60 677/24/57 751/24/57
f 678/24/62 681/24/59 786/24/59
f 679/24/64 680/24/61 791/24/61
f 683/24/66 682/24/63 799/24/63
f 685/24/3 684/24/65 802/24/65
s 0
f 936/26/6 939/27/6 811/28/6
f 811/28/6 814/29/6 936/26/6
f 814/29/6 808/30/6 936/26/6
f 936/26/6 808/30/6 937/31/6
f 808/30/6 806/32/6 935/33/6
f 806/32/6 807/34/6 935/33/6
f 807/34/6 805/35/6 933/36/6
f 805/35/6 804/37/6 933/36/6
f 804/37/6 850/38/6 932/39/6
f 850/38/6 851/40/6 932/39/6
f 851/40/6 852/41/6 988/42/6
f 852/41/6 848/43/6 988/42/6
f 988/42/6 848/43/6 950/44/6
f 848/43/6 849/45/6 949/46/6
f 849/45/6 816/47/6 949/46/6
f 816/47/6 815/48/6 947/49/6
f 815/48/6 819/50/6 947/49/6
f 819/50/6 817/51/6 952/52/6
f 817/51/6 818/53/6 952/52/6
f 818/53/6 825/54/6 953/55/6
f 825/54/6 822/56/6 953/55/6
f 953/55/6 822/56/6 955/57/6
f 822/56/6 820/58/6 954/59/6
f 820/58/6 821/60/6 954/59/6
f 821/60/6 824/61/6 956/62/6
f 824/61/6 823/63/6 956/62/6
f 823/63/6 854/64/6 958/65/6
f 854/64/6 853/66/6 958/65/6
f 853/66/6 859/67/6 993/13/6
f 859/67/6 858/14/6 993/13/6
f 858/14/6 857/68/6 961/69/6
f 857/68/6 827/70/6 961/69/6
f 827/70/6 826/71/6 963/72/6
f 826/71/6 828/73/6 963/72/6
f 828/73/6 829/74/6 964/75/6
f 829/74/6 830/76/6 964/75/6
f 830/76/6 836/77/6 967/78/6
f 836/77/6 833/79/6 967/78/6
f 967/78/6 833/79/6 969/80/6
f 833/79/6 832/81/6 968/82/6
f 832/81/6 831/83/6 968/82/6
f 831/83/6 835/84/6 970/85/6
f 835/84/6 834/86/6 970/85/6
f 834/86/6 862/87/6 972/88/6
f 862/87/6 863/89/6 972/88/6
f 863/89/6 866/90/6 995/91/6
f 866/90/6 865/92/6 995/91/6
f 995/91/6 865/92/6 981/93/6
f 865/92/6 864/94/6 980/95/6
f 864/94/6 846/96/6 980/95/6
f 846/96/6 845/97/6 983/98/6
f 845/97/6 844/99/6 983/98/6
f 844/99/6 842/100/6 985/101/6
f 842/100/6 843/102/6 985/101/6
f 843/102/6 847/103/6 987/104/6
f 847/103/6 841/105/6 987/104/6
f 987/104/6 841/105/6 979/106/6
f 841/105/6 839/107/6 977/108/6
f 839/107/6 840/109/6 977/108/6
f 840/109/6 838/110/6 975/111/6
f 838/110/6 837/112/6 975/111/6
f 837/112/6 867/113/6 974/114/6
f 867/113/6 861/115/6 974/114/6
f 861/115/68 991/116/68 994/117/68
f 974/114/6 976/118/6 837/112/6
f 976/118/6 975/111/6 837/112/6
f 861/115/6 994/117/6 974/114/6
f 983/98/6 844/99/6 984/119/6
f 970/85/6 834/86/6 973/120/6
f 963/72/6 828/73/6 965/121/6
f 956/62/6 823/63/6 959/122/6
f 947/49/6 819/50/6 946/123/6
f 933/36/6 804/37/6 934/124/6
f 933/36/6 938/125/6 807/34/6
f 938/125/6 935/33/6 807/34/6
f 935/33/6 937/31/6 808/30/6
f 848/43/6 949/46/6 950/44/6
f 822/56/6 954/59/6 955/57/6
f 858/14/6 961/69/6 960/12/6
f 833/79/6 968/82/6 969/80/6
f 865/92/6 980/95/6 981/93/6
f 841/105/6 977/108/6 979/106/6
f 975/111/6 978/126/6 840/109/6
f 978/126/6 977/108/6 840/109/6
f 934/124/6 804/37/6 932/39/6
f 987/104/6 986/127/6 843/102/6
f 986/127/6 985/101/6 843/102/6
f 985/101/6 984/119/6 844/99/6
f 989/128/6 932/39/6 851/40/6
f 988/42/6 989/128/6 851/40/6
f 846/96/6 983/98/6 982/129/6
f 947/49/6 948/130/6 816/47/6
f 948/130/6 949/46/6 816/47/6
f 846/96/6 982/129/6 980/95/6
f 952/52/6 946/123/6 819/50/6
f 953/55/6 951/131/6 818/53/6
f 951/131/6 952/52/6 818/53/6
f 863/89/6 995/91/6 996/132/6
f 972/88/6 973/120/6 834/86/6
f 863/89/6 996/132/6 972/88/6
f 956/62/6 957/133/6 821/60/6
f 957/133/6 954/59/6 821/60/6
f 970/85/6 971/134/6 831/83/6
f 971/134/6 968/82/6 831/83/6
f 959/122/6 823/63/6 958/65/6
f 993/13/6 990/135/6 853/66/6
f 990/135/6 958/65/6 853/66/6
f 967/78/6 966/136/6 830/76/6
f 966/136/6 964/75/6 830/76/6
f 964/75/6 965/121/6 828/73/6
f 963/72/6 962/137/6 827/70/6
f 962/137/6 961/69/6 827/70/6
f 992/138/6 991/116/6 861/115/6
f 861/115/6 860/139/6 992/138/6
f 860/139/6 855/17/6 992/138/6
f 992/138/6 855/17/6 943/16/6
f 855/17/6 856/140/6 945/15/6
f 856/140/6 812/141/6 945/15/6
f 812/141/6 813/142/6 942/143/6
f 813/142/6 809/144/6 942/143/6
f 809/144/6 810/145/6 940/146/6
f 810/145/6 811/28/6 940/146/6
f 811/28/6 939/27/6 940/146/6
f 940/146/6 941/147/6 809/144/6
f 941/147/6 942/143/6 809/144/6
f 942/143/6 944/148/6 812/141/6
f 944/148/6 945/15/6 812/141/6
f 1047/19/4 1043/149/4 906/150/4
f 906/150/4 910/151/4 1047/19/4
f 910/151/4 909/20/4 1047/19/4
f 909/20/4 929/152/4 1057/153/4
f 929/152/4 928/154/4 1057/153/4
f 928/154/4 1056/155/4 1057/153/4
f 1057/153/4 1048/18/4 909/20/4
f 1060/156/4 1056/155/4 928/154/4
f 928/154/4 913/157/4 1060/156/4
f 913/157/4 912/158/4 1060/156/4
f 1060/156/4 912/158/4 1059/159/4
f 912/158/4 914/160/4 1058/161/4
f 914/160/4 868/162/4 1058/161/4
f 868/162/4 869/163/4 1050/164/4
f 869/163/4 871/165/4 1050/164/4
f 871/165/4 870/166/4 1052/167/4
f 870/166/4 872/168/4 1052/167/4
f 872/168/4 878/169/4 1055/170/4
f 878/169/4 875/171/4 1055/170/4
f 1055/170/4 875/171/4 1054/172/4
f 875/171/4 874/173/4 1046/174/4
f 874/173/4 873/175/4 1046/174/4
f 873/175/4 877/176/4 1029/177/4
f 877/176/4 876/178/4 1029/177/4
f 876/178/4 917/179/4 1034/180/4
f 917/179/4 918/181/4 1034/180/4
f 918/181/4 921/182/4 1032/183/4
f 921/182/4 920/184/4 1032/183/4
f 920/184/4 919/185/4 1026/186/4
f 919/185/4 887/187/4 1026/186/4
f 887/187/4 888/188/4 1024/189/4
f 888/188/4 886/190/4 1024/189/4
f 886/190/4 885/191/4 1022/192/4
f 885/191/4 884/23/4 1022/192/4
f 884/23/4 889/193/4 1018/21/4
f 889/193/4 883/194/4 1018/21/4
f 883/194/4 882/195/4 1020/196/4
f 882/195/4 881/197/4 1020/196/4
f 881/197/4 879/198/4 1016/199/4
f 879/198/4 880/200/4 1016/199/4
f 880/200/4 922/201/4 1028/202/4
f 922/201/4 916/203/4 1028/202/4
f 916/203/4 915/204/4 1039/205/4
f 915/204/4 930/206/4 1039/205/4
f 930/206/4 931/207/4 1041/208/4
f 931/207/4 898/209/4 1041/208/4
f 898/209/4 899/210/4 1038/211/4
f 899/210/4 896/212/4 1038/211/4
f 896/212/4 895/213/4 1037/214/4
f 895/213/4 897/215/4 1037/214/4
f 896/212/4 1037/214/4 1036/216/4
f 897/215/4 900/217/4 1009/218/4
f 900/217/4 894/219/4 1009/218/4
f 1009/218/4 894/219/4 1010/220/4
f 894/219/4 892/221/4 999/222/4
f 892/221/4 893/223/4 999/222/4
f 893/223/4 890/224/4 1001/225/4
f 890/224/4 891/226/4 1001/225/4
f 891/226/4 925/227/4 997/228/4
f 925/227/4 926/229/4 997/228/4
f 891/226/4 997/228/4 1000/230/4
f 926/229/4 927/231/4 1004/232/4
f 927/231/4 924/233/4 1004/232/4
f 924/233/4 923/234/4 1002/235/4
f 923/234/4 901/236/4 1002/235/4
f 901/236/4 905/237/4 1012/238/4
f 905/237/4 904/239/4 1012/238/4
f 904/239/4 903/240/4 1015/241/4
f 903/240/4 902/242/4 1015/241/4
f 902/242/4 911/243/4 1013/244/4
f 911/243/4 908/245/4 1013/244/4
f 908/245/4 907/246/4 1007/247/4
f 907/246/4 906/150/4 1007/247/4
f 906/150/4 1043/149/4 1007/247/4
f 1007/247/4 1008/248/4 908/245/4
f 1008/248/4 1013/244/4 908/245/4
f 1013/244/4 1014/249/4 902/242/4
f 1014/249/4 1015/241/4 902/242/4
f 1015/241/4 1011/250/4 904/239/4
f 1011/250/4 1012/238/4 904/239/4
f 1012/238/4 1003/251/4 901/236/4
f 1003/251/4 1002/235/4 901/236/4
f 1002/235/4 1005/252/4 924/233/4
f 1005/252/4 1004/232/4 924/233/4
f 1004/232/4 1006/253/4 926/229/4
f 1006/253/4 997/228/4 926/229/4
f 1001/225/4 891/226/4 1000/230/4
f 1038/211/4 896/212/4 1036/216/4
f 1016/199/4 880/200/4 1021/254/4
f 1024/189/4 886/190/4 1025/255/4
f 1029/177/4 876/178/4 1030/256/4
f 1050/164/4 871/165/4 1049/257/4
f 1050/164/4 1051/258/4 868/162/4
f 1051/258/4 1058/161/4 868/162/4
f 1058/161/4 1059/159/4 912/158/4
f 875/171/4 1046/174/4 1054/172/4
f 1046/174/4 873/175/4 1045/259/4
f 920/184/4 1026/186/4 1031/260/4
f 1026/186/4 887/187/4 1027/261/4
f 883/194/4 1020/196/4 1017/262/4
f 1020/196/4 881/197/4 1019/263/4
f 930/206/4 1041/208/4 1040/264/4
f 1041/208/4 898/209/4 1042/265/4
f 894/219/4 999/222/4 1010/220/4
f 999/222/4 893/223/4 998/266/4
f 1052/167/4 1049/257/4 871/165/4
f 1055/170/4 1053/267/4 872/168/4
f 1053/267/4 1052/167/4 872/168/4
f 1029/177/4 1045/259/4 873/175/4
f 1034/180/4 1030/256/4 876/178/4
f 1001/225/4 998/266/4 893/223/4
f 1033/268/4 1034/180/4 918/181/4
f 1032/183/4 1033/268/4 918/181/4
f 1031/260/4 1032/183/4 920/184/4
f 1009/218/4 1035/269/4 897/215/4
f 1035/269/4 1037/214/4 897/215/4
f 1027/261/4 887/187/4 1024/189/4
f 1038/211/4 1042/265/4 898/209/4
f 1025/255/4 886/190/4 1022/192/4
f 1040/264/4 1039/205/4 930/206/4
f 1039/205/4 1044/270/4 916/203/4
f 1044/270/4 1028/202/4 916/203/4
f 1028/202/4 1021/254/4 880/200/4
f 1016/199/4 1019/263/4 881/197/4
f 1017/262/4 1018/21/4 883/194/4
f 1023/22/4 1022/192/4 884/23/4
s 1
f 944/24/7 942/24/3 1058/24/3
f 943/24/8 945/24/9 1050/24/9
f 1053/24/10 994/24/10 991/24/10
f 991/24/10 992/24/11 1052/24/11
f 976/24/12 974/24/13 1055/24/13
f 978/24/14 975/24/15 1046/24/15
f 979/24/16 977/24/17 1029/24/17
f 986/24/18 987/24/19 1034/24/19
f 984/24/20 985/24/21 1032/24/21
f 982/24/22 983/24/1 1026/24/1
f 981/24/23 980/24/24 1024/24/24
f 996/24/25 995/24/26 1022/24/26
f 973/24/27 972/24/28 1018/24/28
f 971/24/29 970/24/30 1020/24/30
f 969/24/31 968/24/32 1016/24/32
f 966/24/33 967/24/34 1028/24/34
f 965/24/35 964/24/36 1039/24/36
f 962/24/37 963/24/5 1041/24/5
f 960/24/38 961/24/39 1038/24/39
f 990/24/40 993/24/41 1037/24/41
f 959/24/42 958/24/43 1009/24/43
f 957/24/44 956/24/45 999/24/45
f 955/24/46 954/24/47 1001/24/47
f 951/24/48 953/24/49 997/24/49
f 946/24/50 952/24/51 1004/24/51
f 948/24/52 947/24/2 1002/24/2
f 950/24/53 949/24/54 1012/24/54
f 989/24/55 988/24/56 1015/24/56
f 934/24/57 932/24/58 1013/24/58
f 938/24/59 933/24/60 1007/24/60
f 937/24/61 935/24/62 1047/24/62
f 939/24/63 936/24/64 1057/24/64
f 941/24/65 940/24/66 1060/24/66
f 945/24/9 944/24/7 1051/24/7
f 992/24/11 943/24/8 1049/24/8
f 974/24/13 994/24/10 1053/24/10
f 975/24/15 976/24/12 1054/24/12
f 977/24/17 978/24/14 1045/24/14
f 987/24/19 979/24/16 1030/24/16
f 985/24/21 986/24/18 1033/24/18
f 983/24/1 984/24/20 1031/24/20
f 980/24/24 982/24/22 1027/24/22
f 995/24/26 981/24/23 1025/24/23
f 972/24/28 996/24/25 1023/24/25
f 970/24/30 973/24/27 1017/24/27
f 968/24/32 971/24/29 1019/24/29
f 967/24/34 969/24/31 1021/24/31
f 964/24/36 966/24/33 1044/24/33
f 963/24/5 965/24/35 1040/24/35
f 961/24/39 962/24/37 1042/24/37
f 993/24/41 960/24/38 1036/24/38
f 958/24/43 990/24/40 1035/24/40
f 956/24/45 959/24/42 1010/24/42
f 954/24/47 957/24/44 998/24/44
f 953/24/49 955/24/46 1000/24/46
f 952/24/51 951/24/48 1006/24/48
f 947/24/2 946/24/50 1005/24/50
f 949/24/54 948/24/52 1003/24/52
f 988/24/56 950/24/53 1011/24/53
f 932/24/58 989/24/55 1014/24/55
f 933/24/60 934/24/57 1008/24/57
f 935/24/62 938/24/59 1043/24/59
f 936/24/64 937/24/61 1048/24/61
f 940/24/66 939/24/63 1056/24/63
f 942/24/3 941/24/65 1059/24/65
s 0
f 1064/11/5 1068/4/5 1067/6/5
f 1068/4/2 1066/7/2 1065/5/2
f 1066/7/3 1062/25/3 1061/8/3
f 1067/6/4 1065/5/4 1061/9/4
f 1072/11/5 1076/4/5 1075/6/5
f 1074/7/3 1070/25/3 1069/8/3
f 1075/6/4 1073/5/4 1069/9/4
f 1080/11/5 1084/4/5 1083/6/5
f 1082/7/3 1078/25/3 1077/8/3
f 1083/6/4 1081/5/4 1077/9/4
f 1086/1/1 1088/11/1 1087/2/1
f 1088/11/5 1092/4/5 1091/6/5
f 1090/7/3 1086/25/3 1085/8/3
f 1091/6/4 1089/5/4 1085/9/4
f 1096/11/5 1100/4/5 1099/6/5
f 1100/4/2 1098/7/2 1097/5/2
f 1098/7/3 1094/25/3 1093/8/3
f 1099/6/4 1097/5/4 1093/9/4
f 1102/1/1 1104/11/1 1103/2/1
f 1104/11/5 1108/4/5 1107/6/5
f 1106/7/3 1102/25/3 1101/8/3
f 1107/6/4 1105/5/4 1101/9/4
f 1112/11/5 1116/4/5 1115/6/5
f 1116/4/2 1114/7/2 1113/5/2
f 1114/7/3 1110/25/3 1109/8/3
f 1115/6/4 1113/5/4 1109/9/4
f 1118/1/1 1120/11/1 1119/2/1
f 1120/11/5 1124/4/5 1123/6/5
f 1122/7/3 1118/25/3 1117/8/3
f 1123/6/4 1121/5/4 1117/9/4
f 1128/11/5 1132/4/5 1131/6/5
f 1130/7/3 1126/25/3 1125/8/3
f 1131/6/4 1129/5/4 1125/9/4
f 1136/11/1 1140/4/1 1139/6/1
f 1138/7/2 1134/25/2 1133/8/2
f 1139/6/4 1137/5/4 1133/9/4
f 1144/11/1 1148/4/1 1147/6/1
f 1146/7/2 1142/25/2 1141/8/2
f 1147/6/4 1145/5/4 1141/9/4
f 1152/11/1 1156/4/1 1155/6/1
f 1156/4/5 1154/7/5 1153/5/5
f 1154/7/2 1150/25/2 1149/8/2
f 1155/6/4 1153/5/4 1149/9/4
