mtllib volcanic_spire.mtl
o volcanic_spire
v 6.798767 4.200000 0.340222
v 6.567039 4.200000 2.503085
v 7.752117 0.000000 2.518816
v 7.857910 0.000000 0.000000
v 6.567039 4.200000 2.503085
v 5.228000 4.200000 4.213162
v 6.377257 0.000000 4.633349
v 7.752117 0.000000 2.518816
v 5.228000 4.200000 4.213162
v 3.586250 4.200000 5.493913
v 4.493494 0.000000 6.184764
v 6.377257 0.000000 4.633349
v 3.586250 4.200000 5.493913
v 1.719028 4.200000 6.355468
v 2.376639 0.000000 7.314542
v 4.493494 0.000000 6.184764
v 1.719028 4.200000 6.355468
v -0.322771 4.200000 6.450047
v 0.000000 0.000000 7.544868
v 2.376639 0.000000 7.314542
v -0.322771 4.200000 6.450047
v -2.406748 4.200000 6.314292
v -2.405594 0.000000 7.403656
v 0.000000 0.000000 7.544868
v -2.406748 4.200000 6.314292
v -4.385288 4.200000 5.441587
v -4.768638 0.000000 6.563467
v -2.405594 0.000000 7.403656
v -4.385288 4.200000 5.441587
v -5.678014 4.200000 3.706425
v -6.406212 0.000000 4.654386
v -4.768638 0.000000 6.563467
v -5.678014 4.200000 3.706425
v -6.528861 4.200000 1.765927
v -7.476973 0.000000 2.429416
v -6.406212 0.000000 4.654386
v -6.528861 4.200000 1.765927
v -6.584486 4.200000 -0.329499
v -7.742090 0.000000 0.000000
v -7.476973 0.000000 2.429416
v -6.584486 4.200000 -0.329499
v -5.954236 4.200000 -2.269510
v -7.084365 0.000000 -2.301850
v -7.742090 0.000000 0.000000
v -5.954236 4.200000 -2.269510
v -5.205627 4.200000 -4.195132
v -6.243408 0.000000 -4.536101
v -7.084365 0.000000 -2.301850
v -5.205627 4.200000 -4.195132
v -3.738413 4.200000 -5.727018
v -4.675956 0.000000 -6.435901
v -6.243408 0.000000 -4.536101
v -3.738413 4.200000 -5.727018
v -1.779683 4.200000 -6.579718
v -2.444026 0.000000 -7.521940
v -4.675956 0.000000 -6.435901
v -1.779683 4.200000 -6.579718
v 0.346950 4.200000 -6.933207
v -0.000000 0.000000 -8.055132
v -2.444026 0.000000 -7.521940
v 0.346950 4.200000 -6.933207
v 2.365847 4.200000 -6.206983
v 2.415072 0.000000 -7.432826
v -0.000000 0.000000 -8.055132
v 2.365847 4.200000 -6.206983
v 4.023006 4.200000 -4.992041
v 4.400812 0.000000 -6.057198
v 2.415072 0.000000 -7.432826
v 4.023006 4.200000 -4.992041
v 5.542917 4.200000 -3.618238
v 6.214453 0.000000 -4.515064
v 4.400812 0.000000 -6.057198
v 5.542917 4.200000 -3.618238
v 6.406325 4.200000 -1.732783
v 7.359509 0.000000 -2.391249
v 6.214453 0.000000 -4.515064
v 6.406325 4.200000 -1.732783
v 6.798767 4.200000 0.340222
v 7.857910 0.000000 0.000000
v 7.359509 0.000000 -2.391249
v 5.391623 8.700000 0.540967
v 5.056630 8.700000 2.222819
v 6.567039 4.200000 2.503085
v 6.798767 4.200000 0.340222
v 5.056630 8.700000 2.222819
v 3.932695 8.700000 3.507547
v 5.228000 4.200000 4.213162
v 6.567039 4.200000 2.503085
v 3.932695 8.700000 3.507547
v 2.625137 8.700000 4.497712
v 3.586250 4.200000 5.493913
v 5.228000 4.200000 4.213162
v 2.625137 8.700000 4.497712
v 1.105152 8.700000 5.081284
v 1.719028 4.200000 6.355468
v 3.586250 4.200000 5.493913
v 1.105152 8.700000 5.081284
v -0.512483 8.700000 5.107737
v -0.322771 4.200000 6.450047
v 1.719028 4.200000 6.355468
v -0.512483 8.700000 5.107737
v -2.169902 8.700000 4.936250
v -2.406748 4.200000 6.314292
v -0.322771 4.200000 6.450047
v -2.169902 8.700000 4.936250
v -3.657702 8.700000 4.101050
v -4.385288 4.200000 5.441587
v -2.406748 4.200000 6.314292
v -3.657702 8.700000 4.101050
v -4.614500 8.700000 2.693302
v -5.678014 4.200000 3.706425
v -4.385288 4.200000 5.441587
v -4.614500 8.700000 2.693302
v -5.223841 8.700000 1.136157
v -6.528861 4.200000 1.765927
v -5.678014 4.200000 3.706425
v -5.223841 8.700000 1.136157
v -5.155422 8.700000 -0.517268
v -6.584486 4.200000 -0.329499
v -6.528861 4.200000 1.765927
v -5.155422 8.700000 -0.517268
v -4.647193 8.700000 -2.042837
v -5.954236 4.200000 -2.269510
v -6.584486 4.200000 -0.329499
v -4.647193 8.700000 -2.042837
v -3.978028 8.700000 -3.547979
v -5.205627 4.200000 -4.195132
v -5.954236 4.200000 -2.269510
v -3.978028 8.700000 -3.547979
v -2.718130 8.700000 -4.657040
v -3.738413 4.200000 -5.727018
v -5.205627 4.200000 -4.195132
v -2.718130 8.700000 -4.657040
v -1.147624 8.700000 -5.276564
v -1.779683 4.200000 -6.579718
v -3.738413 4.200000 -5.727018
v -1.147624 8.700000 -5.276564
v 0.545751 8.700000 -5.439307
v 0.346950 4.200000 -6.933207
v -1.779683 4.200000 -6.579718
v 0.545751 8.700000 -5.439307
v 2.095754 8.700000 -4.767573
v 2.365847 4.200000 -6.206983
v 0.346950 4.200000 -6.933207
v 2.095754 8.700000 -4.767573
v 3.397825 8.700000 -3.809674
v 4.023006 4.200000 -4.992041
v 2.365847 4.200000 -6.206983
v 3.397825 8.700000 -3.809674
v 4.540252 8.700000 -2.649966
v 5.542917 4.200000 -3.618238
v 4.023006 4.200000 -4.992041
v 4.540252 8.700000 -2.649966
v 5.134006 8.700000 -1.116618
v 6.406325 4.200000 -1.732783
v 5.542917 4.200000 -3.618238
v 5.134006 8.700000 -1.116618
v 5.391623 8.700000 0.540967
v 6.798767 4.200000 0.340222
v 6.406325 4.200000 -1.732783
v 4.153177 12.600000 0.627691
v 3.777776 12.600000 1.891305
v 5.056630 8.700000 2.222819
v 5.391623 8.700000 0.540967
v 3.777776 12.600000 1.891305
v 2.890989 12.600000 2.850341
v 3.932695 8.700000 3.507547
v 5.056630 8.700000 2.222819
v 2.890989 12.600000 2.850341
v 1.863171 12.600000 3.593557
v 2.625137 8.700000 4.497712
v 3.932695 8.700000 3.507547
v 1.863171 12.600000 3.593557
v 0.657693 12.600000 3.970376
v 1.105152 8.700000 5.081284
v 2.625137 8.700000 4.497712
v 0.657693 12.600000 3.970376
v -0.598869 12.600000 3.962469
v -0.512483 8.700000 5.107737
v 1.105152 8.700000 5.081284
v -0.598869 12.600000 3.962469
v -1.874327 12.600000 3.743864
v -2.169902 8.700000 4.936250
v -0.512483 8.700000 5.107737
v -1.874327 12.600000 3.743864
v -2.955307 12.600000 2.997451
v -3.657702 8.700000 4.101050
v -2.169902 8.700000 4.936250
v -2.955307 12.600000 2.997451
v -3.659256 12.600000 1.897234
v -4.614500 8.700000 2.693302
v -3.657702 8.700000 4.101050
v -3.659256 12.600000 1.897234
v -4.069499 12.600000 0.674112
v -5.223841 8.700000 1.136157
v -4.614500 8.700000 2.693302
v -4.069499 12.600000 0.674112
v -3.954745 12.600000 -0.597701
v -5.155422 8.700000 -0.517268
v -5.223841 8.700000 1.136157
v -3.954745 12.600000 -0.597701
v -3.554649 12.600000 -1.779599
v -4.647193 8.700000 -2.042837
v -5.155422 8.700000 -0.517268
v -3.554649 12.600000 -1.779599
v -2.948191 12.600000 -2.906740
v -3.978028 8.700000 -3.547979
v -4.647193 8.700000 -2.042837
v -2.948191 12.600000 -2.906740
v -1.911183 12.600000 -3.686158
v -2.718130 8.700000 -4.657040
v -3.978028 8.700000 -3.547979
v -1.911183 12.600000 -3.686158
v -0.682376 12.600000 -4.119384
v -1.147624 8.700000 -5.276564
v -2.718130 8.700000 -4.657040
v -0.682376 12.600000 -4.119384
v 0.626524 12.600000 -4.145454
v 0.545751 8.700000 -5.439307
v -1.147624 8.700000 -5.276564
v 0.626524 12.600000 -4.145454
v 1.796577 12.600000 -3.588562
v 2.095754 8.700000 -4.767573
v 0.545751 8.700000 -5.439307
v 1.796577 12.600000 -3.588562
v 2.801774 12.600000 -2.841729
v 3.397825 8.700000 -3.809674
v 2.095754 8.700000 -4.767573
v 2.801774 12.600000 -2.841729
v 3.620460 12.600000 -1.877120
v 4.540252 8.700000 -2.649966
v 3.397825 8.700000 -3.809674
v 3.620460 12.600000 -1.877120
v 4.020261 12.600000 -0.665956
v 5.134006 8.700000 -1.116618
v 4.540252 8.700000 -2.649966
v 4.020261 12.600000 -0.665956
v 4.153177 12.600000 0.627691
v 5.391623 8.700000 0.540967
v 5.134006 8.700000 -1.116618
v 2.254984 11.700000 0.340807
v 2.045959 11.700000 1.024289
v 3.777776 12.600000 1.891305
v 4.153177 12.600000 0.627691
v 2.045959 11.700000 1.024289
v 1.593494 11.700000 1.571090
v 2.890989 12.600000 2.850341
v 3.777776 12.600000 1.891305
v 1.593494 11.700000 1.571090
v 1.028327 11.700000 1.983367
v 1.863171 12.600000 3.593557
v 2.890989 12.600000 2.850341
v 1.028327 11.700000 1.983367
v 0.363939 11.700000 2.197037
v 0.657693 12.600000 3.970376
v 1.863171 12.600000 3.593557
v 0.363939 11.700000 2.197037
v -0.332020 11.700000 2.196841
v -0.598869 12.600000 3.962469
v 0.657693 12.600000 3.970376
v -0.332020 11.700000 2.196841
v -1.019112 11.700000 2.035620
v -1.874327 12.600000 3.743864
v -0.598869 12.600000 3.962469
v -1.019112 11.700000 2.035620
v -1.603091 11.700000 1.625952
v -2.955307 12.600000 2.997451
v -1.874327 12.600000 3.743864
v -1.603091 11.700000 1.625952
v -2.003397 11.700000 1.038712
v -3.659256 12.600000 1.897234
v -2.955307 12.600000 2.997451
v -2.003397 11.700000 1.038712
v -2.227257 11.700000 0.368945
v -4.069499 12.600000 0.674112
v -3.659256 12.600000 1.897234
v -2.227257 11.700000 0.368945
v -2.194486 11.700000 -0.331664
v -3.954745 12.600000 -0.597701
v -4.069499 12.600000 0.674112
v -2.194486 11.700000 -0.331664
v -1.977933 11.700000 -0.990232
v -3.554649 12.600000 -1.779599
v -3.954745 12.600000 -0.597701
v -1.977933 11.700000 -0.990232
v -1.610934 11.700000 -1.588284
v -2.948191 12.600000 -2.906740
v -3.554649 12.600000 -1.779599
v -1.610934 11.700000 -1.588284
v -1.042965 11.700000 -2.011599
v -1.911183 12.600000 -3.686158
v -2.948191 12.600000 -2.906740
v -1.042965 11.700000 -2.011599
v -0.371464 11.700000 -2.242466
v -0.682376 12.600000 -4.119384
v -1.911183 12.600000 -3.686158
v -0.371464 11.700000 -2.242466
v 0.340452 11.700000 -2.252629
v 0.626524 12.600000 -4.145454
v -0.682376 12.600000 -4.119384
v 0.340452 11.700000 -2.252629
v 0.995408 11.700000 -1.988272
v 1.796577 12.600000 -3.588562
v 0.626524 12.600000 -4.145454
v 0.995408 11.700000 -1.988272
v 1.556282 11.700000 -1.578476
v 2.801774 12.600000 -2.841729
v 1.796577 12.600000 -3.588562
v 1.556282 11.700000 -1.578476
v 1.991569 11.700000 -1.032580
v 3.620460 12.600000 -1.877120
v 2.801774 12.600000 -2.841729
v 1.991569 11.700000 -1.032580
v 2.212245 11.700000 -0.366458
v 4.020261 12.600000 -0.665956
v 3.620460 12.600000 -1.877120
v 2.212245 11.700000 -0.366458
v 2.254984 11.700000 0.340807
v 4.153177 12.600000 0.627691
v 4.020261 12.600000 -0.665956
v 1.137087 10.400000 0.171854
v 1.028328 10.400000 0.514822
v 2.045959 11.700000 1.024289
v 2.254984 11.700000 0.340807
v 1.028328 10.400000 0.514822
v 0.818909 10.400000 0.807396
v 1.593494 11.700000 1.571090
v 2.045959 11.700000 1.024289
v 0.818909 10.400000 0.807396
v 0.529330 10.400000 1.020936
v 1.028327 11.700000 1.983367
v 1.593494 11.700000 1.571090
v 0.529330 10.400000 1.020936
v 0.187936 10.400000 1.134540
v 0.363939 11.700000 2.197037
v 1.028327 11.700000 1.983367
v 0.187936 10.400000 1.134540
v -0.171854 10.400000 1.137087
v -0.332020 11.700000 2.196841
v 0.363939 11.700000 2.197037
v -0.171854 10.400000 1.137087
v -0.514822 10.400000 1.028328
v -1.019112 11.700000 2.035620
v -0.332020 11.700000 2.196841
v -0.514822 10.400000 1.028328
v -0.807396 10.400000 0.818909
v -1.603091 11.700000 1.625952
v -1.019112 11.700000 2.035620
v -0.807396 10.400000 0.818909
v -1.020936 10.400000 0.529330
v -2.003397 11.700000 1.038712
v -1.603091 11.700000 1.625952
v -1.020936 10.400000 0.529330
v -1.134540 10.400000 0.187936
v -2.227257 11.700000 0.368945
v -2.003397 11.700000 1.038712
v -1.134540 10.400000 0.187936
v -1.137087 10.400000 -0.171854
v -2.194486 11.700000 -0.331664
v -2.227257 11.700000 0.368945
v -1.137087 10.400000 -0.171854
v -1.028328 10.400000 -0.514822
v -1.977933 11.700000 -0.990232
v -2.194486 11.700000 -0.331664
v -1.028328 10.400000 -0.514822
v -0.818909 10.400000 -0.807396
v -1.610934 11.700000 -1.588284
v -1.977933 11.700000 -0.990232
v -0.818909 10.400000 -0.807396
v -0.529330 10.400000 -1.020936
v -1.042965 11.700000 -2.011599
v -1.610934 11.700000 -1.588284
v -0.529330 10.400000 -1.020936
v -0.187936 10.400000 -1.134540
v -0.371464 11.700000 -2.242466
v -1.042965 11.700000 -2.011599
v -0.187936 10.400000 -1.134540
v 0.171854 10.400000 -1.137087
v 0.340452 11.700000 -2.252629
v -0.371464 11.700000 -2.242466
v 0.171854 10.400000 -1.137087
v 0.514822 10.400000 -1.028328
v 0.995408 11.700000 -1.988272
v 0.340452 11.700000 -2.252629
v 0.514822 10.400000 -1.028328
v 0.807396 10.400000 -0.818909
v 1.556282 11.700000 -1.578476
v 0.995408 11.700000 -1.988272
v 0.807396 10.400000 -0.818909
v 1.020936 10.400000 -0.529330
v 1.991569 11.700000 -1.032580
v 1.556282 11.700000 -1.578476
v 1.020936 10.400000 -0.529330
v 1.134540 10.400000 -0.187936
v 2.212245 11.700000 -0.366458
v 1.991569 11.700000 -1.032580
v 1.134540 10.400000 -0.187936
v 1.137087 10.400000 0.171854
v 2.254984 11.700000 0.340807
v 2.212245 11.700000 -0.366458
v 1.028328 10.400000 0.514822
v 1.137087 10.400000 0.171854
v 0.000000 10.420000 0.000000
v 0.818909 10.400000 0.807396
v 1.028328 10.400000 0.514822
v 0.000000 10.420000 0.000000
v 0.529330 10.400000 1.020936
v 0.818909 10.400000 0.807396
v 0.000000 10.420000 0.000000
v 0.187936 10.400000 1.134540
v 0.529330 10.400000 1.020936
v 0.000000 10.420000 0.000000
v -0.171854 10.400000 1.137087
v 0.187936 10.400000 1.134540
v 0.000000 10.420000 0.000000
v -0.514822 10.400000 1.028328
v -0.171854 10.400000 1.137087
v 0.000000 10.420000 0.000000
v -0.807396 10.400000 0.818909
v -0.514822 10.400000 1.028328
v 0.000000 10.420000 0.000000
v -1.020936 10.400000 0.529330
v -0.807396 10.400000 0.818909
v 0.000000 10.420000 0.000000
v -1.134540 10.400000 0.187936
v -1.020936 10.400000 0.529330
v 0.000000 10.420000 0.000000
v -1.137087 10.400000 -0.171854
v -1.134540 10.400000 0.187936
v 0.000000 10.420000 0.000000
v -1.028328 10.400000 -0.514822
v -1.137087 10.400000 -0.171854
v 0.000000 10.420000 0.000000
v -0.818909 10.400000 -0.807396
v -1.028328 10.400000 -0.514822
v 0.000000 10.420000 0.000000
v -0.529330 10.400000 -1.020936
v -0.818909 10.400000 -0.807396
v 0.000000 10.420000 0.000000
v -0.187936 10.400000 -1.134540
v -0.529330 10.400000 -1.020936
v 0.000000 10.420000 0.000000
v 0.171854 10.400000 -1.137087
v -0.187936 10.400000 -1.134540
v 0.000000 10.420000 0.000000
v 0.514822 10.400000 -1.028328
v 0.171854 10.400000 -1.137087
v 0.000000 10.420000 0.000000
v 0.807396 10.400000 -0.818909
v 0.514822 10.400000 -1.028328
v 0.000000 10.420000 0.000000
v 1.020936 10.400000 -0.529330
v 0.807396 10.400000 -0.818909
v 0.000000 10.420000 0.000000
v 1.134540 10.400000 -0.187936
v 1.020936 10.400000 -0.529330
v 0.000000 10.420000 0.000000
v 1.137087 10.400000 0.171854
v 1.134540 10.400000 -0.187936
v 0.000000 10.420000 0.000000
v 0.000000 -0.250000 0.000000
v 7.857910 0.000000 0.000000
v 7.752117 0.000000 2.518816
v 0.000000 -0.250000 0.000000
v 7.752117 0.000000 2.518816
v 6.377257 0.000000 4.633349
v 0.000000 -0.250000 0.000000
v 6.377257 0.000000 4.633349
v 4.493494 0.000000 6.184764
v 0.000000 -0.250000 0.000000
v 4.493494 0.000000 6.184764
v 2.376639 0.000000 7.314542
v 0.000000 -0.250000 0.000000
v 2.376639 0.000000 7.314542
v 0.000000 0.000000 7.544868
v 0.000000 -0.250000 0.000000
v 0.000000 0.000000 7.544868
v -2.405594 0.000000 7.403656
v 0.000000 -0.250000 0.000000
v -2.405594 0.000000 7.403656
v -4.768638 0.000000 6.563467
v 0.000000 -0.250000 0.000000
v -4.768638 0.000000 6.563467
v -6.406212 0.000000 4.654386
v 0.000000 -0.250000 0.000000
v -6.406212 0.000000 4.654386
v -7.476973 0.000000 2.429416
v 0.000000 -0.250000 0.000000
v -7.476973 0.000000 2.429416
v -7.742090 0.000000 0.000000
v 0.000000 -0.250000 0.000000
v -7.742090 0.000000 0.000000
v -7.084365 0.000000 -2.301850
v 0.000000 -0.250000 0.000000
v -7.084365 0.000000 -2.301850
v -6.243408 0.000000 -4.536101
v 0.000000 -0.250000 0.000000
v -6.243408 0.000000 -4.536101
v -4.675956 0.000000 -6.435901
v 0.000000 -0.250000 0.000000
v -4.675956 0.000000 -6.435901
v -2.444026 0.000000 -7.521940
v 0.000000 -0.250000 0.000000
v -2.444026 0.000000 -7.521940
v -0.000000 0.000000 -8.055132
v 0.000000 -0.250000 0.000000
v -0.000000 0.000000 -8.055132
v 2.415072 0.000000 -7.432826
v 0.000000 -0.250000 0.000000
v 2.415072 0.000000 -7.432826
v 4.400812 0.000000 -6.057198
v 0.000000 -0.250000 0.000000
v 4.400812 0.000000 -6.057198
v 6.214453 0.000000 -4.515064
v 0.000000 -0.250000 0.000000
v 6.214453 0.000000 -4.515064
v 7.359509 0.000000 -2.391249
v 0.000000 -0.250000 0.000000
v 7.359509 0.000000 -2.391249
v 7.857910 0.000000 0.000000
vt 0.000000 0.000000
vt 0.050000 0.000000
vt 0.050000 1.000000
vt 0.000000 1.000000
vt 0.050000 0.000000
vt 0.100000 0.000000
vt 0.100000 1.000000
vt 0.050000 1.000000
vt 0.100000 0.000000
vt 0.150000 0.000000
vt 0.150000 1.000000
vt 0.100000 1.000000
vt 0.150000 0.000000
vt 0.200000 0.000000
vt 0.200000 1.000000
vt 0.150000 1.000000
vt 0.200000 0.000000
vt 0.250000 0.000000
vt 0.250000 1.000000
vt 0.200000 1.000000
vt 0.250000 0.000000
vt 0.300000 0.000000
vt 0.300000 1.000000
vt 0.250000 1.000000
vt 0.300000 0.000000
vt 0.350000 0.000000
vt 0.350000 1.000000
vt 0.300000 1.000000
vt 0.350000 0.000000
vt 0.400000 0.000000
vt 0.400000 1.000000
vt 0.350000 1.000000
vt 0.400000 0.000000
vt 0.450000 0.000000
vt 0.450000 1.000000
vt 0.400000 1.000000
vt 0.450000 0.000000
vt 0.500000 0.000000
vt 0.500000 1.000000
vt 0.450000 1.000000
vt 0.500000 0.000000
vt 0.550000 0.000000
vt 0.550000 1.000000
vt 0.500000 1.000000
vt 0.550000 0.000000
vt 0.600000 0.000000
vt 0.600000 1.000000
vt 0.550000 1.000000
vt 0.600000 0.000000
vt 0.650000 0.000000
vt 0.650000 1.000000
vt 0.600000 1.000000
vt 0.650000 0.000000
vt 0.700000 0.000000
vt 0.700000 1.000000
vt 0.650000 1.000000
vt 0.700000 0.000000
vt 0.750000 0.000000
vt 0.750000 1.000000
vt 0.700000 1.000000
vt 0.750000 0.000000
vt 0.800000 0.000000
vt 0.800000 1.000000
vt 0.750000 1.000000
vt 0.800000 0.000000
vt 0.850000 0.000000
vt 0.850000 1.000000
vt 0.800000 1.000000
vt 0.850000 0.000000
vt 0.900000 0.000000
vt 0.900000 1.000000
vt 0.850000 1.000000
vt 0.900000 0.000000
vt 0.950000 0.000000
vt 0.950000 1.000000
vt 0.900000 1.000000
vt 0.950000 0.000000
vt 1.000000 0.000000
vt 1.000000 1.000000
vt 0.950000 1.000000
vt 0.000000 0.000000
vt 0.050000 0.000000
vt 0.050000 1.000000
vt 0.000000 1.000000
vt 0.050000 0.000000
vt 0.100000 0.000000
vt 0.100000 1.000000
vt 0.050000 1.000000
vt 0.100000 0.000000
vt 0.150000 0.000000
vt 0.150000 1.000000
vt 0.100000 1.000000
vt 0.150000 0.000000
vt 0.200000 0.000000
vt 0.200000 1.000000
vt 0.150000 1.000000
vt 0.200000 0.000000
vt 0.250000 0.000000
vt 0.250000 1.000000
vt 0.200000 1.000000
vt 0.250000 0.000000
vt 0.300000 0.000000
vt 0.300000 1.000000
vt 0.250000 1.000000
vt 0.300000 0.000000
vt 0.350000 0.000000
vt 0.350000 1.000000
vt 0.300000 1.000000
vt 0.350000 0.000000
vt 0.400000 0.000000
vt 0.400000 1.000000
vt 0.350000 1.000000
vt 0.400000 0.000000
vt 0.450000 0.000000
vt 0.450000 1.000000
vt 0.400000 1.000000
vt 0.450000 0.000000
vt 0.500000 0.000000
vt 0.500000 1.000000
vt 0.450000 1.000000
vt 0.500000 0.000000
vt 0.550000 0.000000
vt 0.550000 1.000000
vt 0.500000 1.000000
vt 0.550000 0.000000
vt 0.600000 0.000000
vt 0.600000 1.000000
vt 0.550000 1.000000
vt 0.600000 0.000000
vt 0.650000 0.000000
vt 0.650000 1.000000
vt 0.600000 1.000000
vt 0.650000 0.000000
vt 0.700000 0.000000
vt 0.700000 1.000000
vt 0.650000 1.000000
vt 0.700000 0.000000
vt 0.750000 0.000000
vt 0.750000 1.000000
vt 0.700000 1.000000
vt 0.750000 0.000000
vt 0.800000 0.000000
vt 0.800000 1.000000
vt 0.750000 1.000000
vt 0.800000 0.000000
vt 0.850000 0.000000
vt 0.850000 1.000000
vt 0.800000 1.000000
vt 0.850000 0.000000
vt 0.900000 0.000000
vt 0.900000 1.000000
vt 0.850000 1.000000
vt 0.900000 0.000000
vt 0.950000 0.000000
vt 0.950000 1.000000
vt 0.900000 1.000000
vt 0.950000 0.000000
vt 1.000000 0.000000
vt 1.000000 1.000000
vt 0.950000 1.000000
vt 0.000000 0.000000
vt 0.050000 0.000000
vt 0.050000 1.000000
vt 0.000000 1.000000
vt 0.050000 0.000000
vt 0.100000 0.000000
vt 0.100000 1.000000
vt 0.050000 1.000000
vt 0.100000 0.000000
vt 0.150000 0.000000
vt 0.150000 1.000000
vt 0.100000 1.000000
vt 0.150000 0.000000
vt 0.200000 0.000000
vt 0.200000 1.000000
vt 0.150000 1.000000
vt 0.200000 0.000000
vt 0.250000 0.000000
vt 0.250000 1.000000
vt 0.200000 1.000000
vt 0.250000 0.000000
vt 0.300000 0.000000
vt 0.300000 1.000000
vt 0.250000 1.000000
vt 0.300000 0.000000
vt 0.350000 0.000000
vt 0.350000 1.000000
vt 0.300000 1.000000
vt 0.350000 0.000000
vt 0.400000 0.000000
vt 0.400000 1.000000
vt 0.350000 1.000000
vt 0.400000 0.000000
vt 0.450000 0.000000
vt 0.450000 1.000000
vt 0.400000 1.000000
vt 0.450000 0.000000
vt 0.500000 0.000000
vt 0.500000 1.000000
vt 0.450000 1.000000
vt 0.500000 0.000000
vt 0.550000 0.000000
vt 0.550000 1.000000
vt 0.500000 1.000000
vt 0.550000 0.000000
vt 0.600000 0.000000
vt 0.600000 1.000000
vt 0.550000 1.000000
vt 0.600000 0.000000
vt 0.650000 0.000000
vt 0.650000 1.000000
vt 0.600000 1.000000
vt 0.650000 0.000000
vt 0.700000 0.000000
vt 0.700000 1.000000
vt 0.650000 1.000000
vt 0.700000 0.000000
vt 0.750000 0.000000
vt 0.750000 1.000000
vt 0.700000 1.000000
vt 0.750000 0.000000
vt 0.800000 0.000000
vt 0.800000 1.000000
vt 0.750000 1.000000
vt 0.800000 0.000000
vt 0.850000 0.000000
vt 0.850000 1.000000
vt 0.800000 1.000000
vt 0.850000 0.000000
vt 0.900000 0.000000
vt 0.900000 1.000000
vt 0.850000 1.000000
vt 0.900000 0.000000
vt 0.950000 0.000000
vt 0.950000 1.000000
vt 0.900000 1.000000
vt 0.950000 0.000000
vt 1.000000 0.000000
vt 1.000000 1.000000
vt 0.950000 1.000000
vt 0.578924 0.488072
vt 0.571609 0.464150
vt 0.632222 0.433804
vt 0.645361 0.478031
vt 0.571609 0.464150
vt 0.555772 0.445012
vt 0.601185 0.400238
vt 0.632222 0.433804
vt 0.555772 0.445012
vt 0.535991 0.430582
vt 0.565211 0.374225
vt 0.601185 0.400238
vt 0.535991 0.430582
vt 0.512738 0.423104
vt 0.523019 0.361037
vt 0.565211 0.374225
vt 0.512738 0.423104
vt 0.488379 0.423111
vt 0.479040 0.361314
vt 0.523019 0.361037
vt 0.488379 0.423111
vt 0.464331 0.428753
vt 0.434399 0.368965
vt 0.479040 0.361314
vt 0.464331 0.428753
vt 0.443892 0.443092
vt 0.396564 0.395089
vt 0.434399 0.368965
vt 0.443892 0.443092
vt 0.429881 0.463645
vt 0.371926 0.433597
vt 0.396564 0.395089
vt 0.429881 0.463645
vt 0.422046 0.487087
vt 0.357568 0.476406
vt 0.371926 0.433597
vt 0.422046 0.487087
vt 0.423193 0.511608
vt 0.361584 0.520920
vt 0.357568 0.476406
vt 0.423193 0.511608
vt 0.430772 0.534658
vt 0.375587 0.562286
vt 0.361584 0.520920
vt 0.430772 0.534658
vt 0.443617 0.555590
vt 0.396813 0.601736
vt 0.375587 0.562286
vt 0.443617 0.555590
vt 0.463496 0.570406
vt 0.433109 0.629016
vt 0.396813 0.601736
vt 0.463496 0.570406
vt 0.486999 0.578486
vt 0.476117 0.644178
vt 0.433109 0.629016
vt 0.486999 0.578486
vt 0.511916 0.578842
vt 0.521928 0.645091
vt 0.476117 0.644178
vt 0.511916 0.578842
vt 0.534839 0.569590
vt 0.562880 0.625600
vt 0.521928 0.645091
vt 0.534839 0.569590
vt 0.554470 0.555247
vt 0.598062 0.599461
vt 0.562880 0.625600
vt 0.554470 0.555247
vt 0.569705 0.536140
vt 0.626716 0.565699
vt 0.598062 0.599461
vt 0.569705 0.536140
vt 0.577429 0.512826
vt 0.640709 0.523308
vt 0.626716 0.565699
vt 0.577429 0.512826
vt 0.578924 0.488072
vt 0.645361 0.478031
vt 0.640709 0.523308
vt 0.000000 1.000000
vt 0.050000 1.000000
vt 0.050000 0.000000
vt 0.000000 0.000000
vt 0.050000 1.000000
vt 0.100000 1.000000
vt 0.100000 0.000000
vt 0.050000 0.000000
vt 0.100000 1.000000
vt 0.150000 1.000000
vt 0.150000 0.000000
vt 0.100000 0.000000
vt 0.150000 1.000000
vt 0.200000 1.000000
vt 0.200000 0.000000
vt 0.150000 0.000000
vt 0.200000 1.000000
vt 0.250000 1.000000
vt 0.250000 0.000000
vt 0.200000 0.000000
vt 0.250000 1.000000
vt 0.300000 1.000000
vt 0.300000 0.000000
vt 0.250000 0.000000
vt 0.300000 1.000000
vt 0.350000 1.000000
vt 0.350000 0.000000
vt 0.300000 0.000000
vt 0.350000 1.000000
vt 0.400000 1.000000
vt 0.400000 0.000000
vt 0.350000 0.000000
vt 0.400000 1.000000
vt 0.450000 1.000000
vt 0.450000 0.000000
vt 0.400000 0.000000
vt 0.450000 1.000000
vt 0.500000 1.000000
vt 0.500000 0.000000
vt 0.450000 0.000000
vt 0.500000 1.000000
vt 0.550000 1.000000
vt 0.550000 0.000000
vt 0.500000 0.000000
vt 0.550000 1.000000
vt 0.600000 1.000000
vt 0.600000 0.000000
vt 0.550000 0.000000
vt 0.600000 1.000000
vt 0.650000 1.000000
vt 0.650000 0.000000
vt 0.600000 0.000000
vt 0.650000 1.000000
vt 0.700000 1.000000
vt 0.700000 0.000000
vt 0.650000 0.000000
vt 0.700000 1.000000
vt 0.750000 1.000000
vt 0.750000 0.000000
vt 0.700000 0.000000
vt 0.750000 1.000000
vt 0.800000 1.000000
vt 0.800000 0.000000
vt 0.750000 0.000000
vt 0.800000 1.000000
vt 0.850000 1.000000
vt 0.850000 0.000000
vt 0.800000 0.000000
vt 0.850000 1.000000
vt 0.900000 1.000000
vt 0.900000 0.000000
vt 0.850000 0.000000
vt 0.900000 1.000000
vt 0.950000 1.000000
vt 0.950000 0.000000
vt 0.900000 0.000000
vt 0.950000 1.000000
vt 1.000000 1.000000
vt 1.000000 0.000000
vt 0.950000 0.000000
vt 0.556558 0.471685
vt 0.562540 0.490548
vt 0.500000 0.500000
vt 0.545040 0.455593
vt 0.556558 0.471685
vt 0.500000 0.500000
vt 0.529113 0.443849
vt 0.545040 0.455593
vt 0.500000 0.500000
vt 0.510337 0.437600
vt 0.529113 0.443849
vt 0.500000 0.500000
vt 0.490548 0.437460
vt 0.510337 0.437600
vt 0.500000 0.500000
vt 0.471685 0.443442
vt 0.490548 0.437460
vt 0.500000 0.500000
vt 0.455593 0.454960
vt 0.471685 0.443442
vt 0.500000 0.500000
vt 0.443849 0.470887
vt 0.455593 0.454960
vt 0.500000 0.500000
vt 0.437600 0.489663
vt 0.443849 0.470887
vt 0.500000 0.500000
vt 0.437460 0.509452
vt 0.437600 0.489663
vt 0.500000 0.500000
vt 0.443442 0.528315
vt 0.437460 0.509452
vt 0.500000 0.500000
vt 0.454960 0.544407
vt 0.443442 0.528315
vt 0.500000 0.500000
vt 0.470887 0.556151
vt 0.454960 0.544407
vt 0.500000 0.500000
vt 0.489663 0.562400
vt 0.470887 0.556151
vt 0.500000 0.500000
vt 0.509452 0.562540
vt 0.489663 0.562400
vt 0.500000 0.500000
vt 0.528315 0.556558
vt 0.509452 0.562540
vt 0.500000 0.500000
vt 0.544407 0.545040
vt 0.528315 0.556558
vt 0.500000 0.500000
vt 0.556151 0.529113
vt 0.544407 0.545040
vt 0.500000 0.500000
vt 0.562400 0.510337
vt 0.556151 0.529113
vt 0.500000 0.500000
vt 0.562540 0.490548
vt 0.562400 0.510337
vt 0.500000 0.500000
vt 0.500000 0.500000
vt 0.775027 0.500000
vt 0.771324 0.411841
vt 0.500000 0.500000
vt 0.771324 0.411841
vt 0.723204 0.337833
vt 0.500000 0.500000
vt 0.723204 0.337833
vt 0.657272 0.283533
vt 0.500000 0.500000
vt 0.657272 0.283533
vt 0.583182 0.243991
vt 0.500000 0.500000
vt 0.583182 0.243991
vt 0.500000 0.235930
vt 0.500000 0.500000
vt 0.500000 0.235930
vt 0.415804 0.240872
vt 0.500000 0.500000
vt 0.415804 0.240872
vt 0.333098 0.270279
vt 0.500000 0.500000
vt 0.333098 0.270279
vt 0.275783 0.337097
vt 0.500000 0.500000
vt 0.275783 0.337097
vt 0.238306 0.414970
vt 0.500000 0.500000
vt 0.238306 0.414970
vt 0.229027 0.500000
vt 0.500000 0.500000
vt 0.229027 0.500000
vt 0.252047 0.580565
vt 0.500000 0.500000
vt 0.252047 0.580565
vt 0.281481 0.658764
vt 0.500000 0.500000
vt 0.281481 0.658764
vt 0.336342 0.725257
vt 0.500000 0.500000
vt 0.336342 0.725257
vt 0.414459 0.763268
vt 0.500000 0.500000
vt 0.414459 0.763268
vt 0.500000 0.781930
vt 0.500000 0.500000
vt 0.500000 0.781930
vt 0.584528 0.760149
vt 0.500000 0.500000
vt 0.584528 0.760149
vt 0.654028 0.712002
vt 0.500000 0.500000
vt 0.654028 0.712002
vt 0.717506 0.658027
vt 0.500000 0.500000
vt 0.717506 0.658027
vt 0.757583 0.583694
vt 0.500000 0.500000
vt 0.757583 0.583694
vt 0.775027 0.500000
vn 0.957247 0.270482 0.102559
vn 0.957247 0.270482 0.102559
vn 0.957247 0.270482 0.102559
vn 0.957247 0.270482 0.102559
vn 0.758749 0.267057 0.594122
vn 0.758749 0.267057 0.594122
vn 0.758749 0.267057 0.594122
vn 0.758749 0.267057 0.594122
vn 0.594923 0.253950 0.762611
vn 0.594923 0.253950 0.762611
vn 0.594923 0.253950 0.762611
vn 0.594923 0.253950 0.762611
vn 0.404177 0.263310 0.875961
vn 0.404177 0.263310 0.875961
vn 0.404177 0.263310 0.875961
vn 0.404177 0.263310 0.875961
vn 0.044739 0.255208 0.965851
vn 0.044739 0.255208 0.965851
vn 0.044739 0.255208 0.965851
vn 0.044739 0.255208 0.965851
vn -0.062931 0.250551 0.966056
vn -0.062931 0.250551 0.966056
vn -0.062931 0.250551 0.966056
vn -0.062931 0.250551 0.966056
vn -0.388499 0.270729 0.880780
vn -0.388499 0.270729 0.880780
vn -0.388499 0.270729 0.880780
vn -0.388499 0.270729 0.880780
vn -0.773430 0.264153 0.576219
vn -0.773430 0.264153 0.576219
vn -0.773430 0.264153 0.576219
vn -0.773430 0.264153 0.576219
vn -0.884131 0.260825 0.387663
vn -0.884131 0.260825 0.387663
vn -0.884131 0.260825 0.387663
vn -0.884131 0.260825 0.387663
vn -0.963222 0.267489 0.025570
vn -0.963222 0.267489 0.025570
vn -0.963222 0.267489 0.025570
vn -0.963222 0.267489 0.025570
vn -0.920849 0.250084 -0.299156
vn -0.920849 0.250084 -0.299156
vn -0.920849 0.250084 -0.299156
vn -0.920849 0.250084 -0.299156
vn -0.902116 0.251376 -0.350709
vn -0.902116 0.251376 -0.350709
vn -0.902116 0.251376 -0.350709
vn -0.902116 0.251376 -0.350709
vn -0.695808 0.267803 -0.666433
vn -0.695808 0.267803 -0.666433
vn -0.695808 0.267803 -0.666433
vn -0.695808 0.267803 -0.666433
vn -0.385464 0.259612 -0.885448
vn -0.385464 0.259612 -0.885448
vn -0.385464 0.259612 -0.885448
vn -0.385464 0.259612 -0.885448
vn -0.158018 0.266997 -0.950654
vn -0.158018 0.266997 -0.950654
vn -0.158018 0.266997 -0.950654
vn -0.158018 0.266997 -0.950654
vn 0.326062 0.268385 -0.906451
vn 0.326062 0.268385 -0.906451
vn 0.326062 0.268385 -0.906451
vn 0.326062 0.268385 -0.906451
vn 0.572558 0.249562 -0.780959
vn 0.572558 0.249562 -0.780959
vn 0.572558 0.249562 -0.780959
vn 0.572558 0.249562 -0.780959
vn 0.648076 0.256722 -0.717001
vn 0.648076 0.256722 -0.717001
vn 0.648076 0.256722 -0.717001
vn 0.648076 0.256722 -0.717001
vn 0.877413 0.262120 -0.401795
vn 0.877413 0.262120 -0.401795
vn 0.877413 0.262120 -0.401795
vn 0.877413 0.262120 -0.401795
vn 0.950271 0.254209 -0.179897
vn 0.950271 0.254209 -0.179897
vn 0.950271 0.254209 -0.179897
vn 0.950271 0.254209 -0.179897
vn 0.928151 0.323045 0.184870
vn 0.928151 0.323045 0.184870
vn 0.928151 0.323045 0.184870
vn 0.928151 0.323045 0.184870
vn 0.716852 0.304679 0.627132
vn 0.716852 0.304679 0.627132
vn 0.716852 0.304679 0.627132
vn 0.716852 0.304679 0.627132
vn 0.577370 0.292103 0.762443
vn 0.577370 0.292103 0.762443
vn 0.577370 0.292103 0.762443
vn 0.577370 0.292103 0.762443
vn 0.342036 0.298913 0.890877
vn 0.342036 0.298913 0.890877
vn 0.342036 0.298913 0.890877
vn 0.342036 0.298913 0.890877
vn 0.015666 0.286416 0.957977
vn 0.015666 0.286416 0.957977
vn 0.015666 0.286416 0.957977
vn 0.015666 0.286416 0.957977
vn -0.098302 0.296118 0.950079
vn -0.098302 0.296118 0.950079
vn -0.098302 0.296118 0.950079
vn -0.098302 0.296118 0.950079
vn -0.463608 0.320979 0.825857
vn -0.463608 0.320979 0.825857
vn -0.463608 0.320979 0.825857
vn -0.463608 0.320979 0.825857
vn -0.787244 0.306518 0.535063
vn -0.787244 0.306518 0.535063
vn -0.787244 0.306518 0.535063
vn -0.787244 0.306518 0.535063
vn -0.886660 0.305693 0.346967
vn -0.886660 0.305693 0.346967
vn -0.886660 0.305693 0.346967
vn -0.886660 0.305693 0.346967
vn -0.952826 0.300944 -0.039428
vn -0.952826 0.300944 -0.039428
vn -0.952826 0.300944 -0.039428
vn -0.952826 0.300944 -0.039428
vn -0.910833 0.279840 -0.303435
vn -0.910833 0.279840 -0.303435
vn -0.910833 0.279840 -0.303435
vn -0.910833 0.279840 -0.303435
vn -0.873355 0.294090 -0.388281
vn -0.873355 0.294090 -0.388281
vn -0.873355 0.294090 -0.388281
vn -0.873355 0.294090 -0.388281
vn -0.627783 0.311908 -0.713164
vn -0.627783 0.311908 -0.713164
vn -0.627783 0.311908 -0.713164
vn -0.627783 0.311908 -0.713164
vn -0.349402 0.305578 -0.885743
vn -0.349402 0.305578 -0.885743
vn -0.349402 0.305578 -0.885743
vn -0.349402 0.305578 -0.885743
vn -0.090719 0.317378 -0.943950
vn -0.090719 0.317378 -0.943950
vn -0.090719 0.317378 -0.943950
vn -0.090719 0.317378 -0.943950
vn 0.379012 0.302492 -0.874556
vn 0.379012 0.302492 -0.874556
vn 0.379012 0.302492 -0.874556
vn 0.379012 0.302492 -0.874556
vn 0.568532 0.282038 -0.772804
vn 0.568532 0.282038 -0.772804
vn 0.568532 0.282038 -0.772804
vn 0.568532 0.282038 -0.772804
vn 0.680500 0.295868 -0.670360
vn 0.680500 0.295868 -0.670360
vn 0.680500 0.295868 -0.670360
vn 0.680500 0.295868 -0.670360
vn 0.889925 0.298800 -0.344603
vn 0.889925 0.298800 -0.344603
vn 0.889925 0.298800 -0.344603
vn 0.889925 0.298800 -0.344603
vn 0.942257 0.301175 -0.146442
vn 0.942257 0.301175 -0.146442
vn 0.942257 0.301175 -0.146442
vn 0.942257 0.301175 -0.146442
vn 0.907972 0.320663 0.269745
vn 0.907972 0.320663 0.269745
vn 0.907972 0.320663 0.269745
vn 0.907972 0.320663 0.269745
vn 0.701194 0.296552 0.648370
vn 0.701194 0.296552 0.648370
vn 0.701194 0.296552 0.648370
vn 0.701194 0.296552 0.648370
vn 0.560883 0.289409 0.775663
vn 0.560883 0.289409 0.775663
vn 0.560883 0.289409 0.775663
vn 0.560883 0.289409 0.775663
vn 0.285285 0.292700 0.912655
vn 0.285285 0.292700 0.912655
vn 0.285285 0.292700 0.912655
vn 0.285285 0.292700 0.912655
vn -0.006037 0.281633 0.959503
vn -0.006037 0.281633 0.959503
vn -0.006037 0.281633 0.959503
vn -0.006037 0.281633 0.959503
vn -0.161165 0.299708 0.940320
vn -0.161165 0.299708 0.940320
vn -0.161165 0.299708 0.940320
vn -0.161165 0.299708 0.940320
vn -0.538743 0.317812 0.780226
vn -0.538743 0.317812 0.780226
vn -0.538743 0.317812 0.780226
vn -0.538743 0.317812 0.780226
vn -0.803114 0.301598 0.513854
vn -0.803114 0.301598 0.513854
vn -0.803114 0.301598 0.513854
vn -0.803114 0.301598 0.513854
vn -0.903432 0.303302 0.303017
vn -0.903432 0.303302 0.303017
vn -0.903432 0.303302 0.303017
vn -0.903432 0.303302 0.303017
vn -0.952692 0.291528 -0.085960
vn -0.952692 0.291528 -0.085960
vn -0.952692 0.291528 -0.085960
vn -0.952692 0.291528 -0.085960
vn -0.910447 0.275855 -0.308205
vn -0.910447 0.275855 -0.308205
vn -0.910447 0.275855 -0.308205
vn -0.910447 0.275855 -0.308205
vn -0.841027 0.296485 -0.452515
vn -0.841027 0.296485 -0.452515
vn -0.841027 0.296485 -0.452515
vn -0.841027 0.296485 -0.452515
vn -0.571682 0.307638 -0.760617
vn -0.571682 0.307638 -0.760617
vn -0.571682 0.307638 -0.760617
vn -0.571682 0.307638 -0.760617
vn -0.316726 0.304340 -0.898366
vn -0.316726 0.304340 -0.898366
vn -0.316726 0.304340 -0.898366
vn -0.316726 0.304340 -0.898366
vn -0.018898 0.315177 -0.948845
vn -0.018898 0.315177 -0.948845
vn -0.018898 0.315177 -0.948845
vn -0.018898 0.315177 -0.948845
vn 0.410958 0.292552 -0.863439
vn 0.410958 0.292552 -0.863439
vn 0.410958 0.292552 -0.863439
vn 0.410958 0.292552 -0.863439
vn 0.572727 0.278852 -0.770860
vn 0.572727 0.278852 -0.770860
vn 0.572727 0.278852 -0.770860
vn 0.572727 0.278852 -0.770860
vn 0.728633 0.294391 -0.618407
vn 0.728633 0.294391 -0.618407
vn 0.728633 0.294391 -0.618407
vn 0.728633 0.294391 -0.618407
vn 0.907682 0.293835 -0.299623
vn 0.907682 0.293835 -0.299623
vn 0.907682 0.293835 -0.299623
vn 0.907682 0.293835 -0.299623
vn 0.947941 0.303185 -0.097397
vn 0.947941 0.303185 -0.097397
vn 0.947941 0.303185 -0.097397
vn 0.947941 0.303185 -0.097397
vn -0.407676 0.904575 -0.124677
vn -0.407676 0.904575 -0.124677
vn -0.407676 0.904575 -0.124677
vn -0.407676 0.904575 -0.124677
vn -0.342238 0.895921 -0.283194
vn -0.342238 0.895921 -0.283194
vn -0.342238 0.895921 -0.283194
vn -0.342238 0.895921 -0.283194
vn -0.264398 0.893714 -0.362448
vn -0.264398 0.893714 -0.362448
vn -0.264398 0.893714 -0.362448
vn -0.264398 0.893714 -0.362448
vn -0.138262 0.892221 -0.429914
vn -0.138262 0.892221 -0.429914
vn -0.138262 0.892221 -0.429914
vn -0.138262 0.892221 -0.429914
vn 0.000128 0.890939 -0.454122
vn 0.000128 0.890939 -0.454122
vn 0.000128 0.890939 -0.454122
vn 0.000128 0.890939 -0.454122
vn 0.099566 0.900016 -0.424333
vn 0.099566 0.900016 -0.424333
vn 0.099566 0.900016 -0.424333
vn 0.099566 0.900016 -0.424333
vn 0.245916 0.903681 -0.350552
vn 0.245916 0.903681 -0.350552
vn 0.245916 0.903681 -0.350552
vn 0.245916 0.903681 -0.350552
vn 0.361190 0.899400 -0.246214
vn 0.361190 0.899400 -0.246214
vn 0.361190 0.899400 -0.246214
vn 0.361190 0.899400 -0.246214
vn 0.416000 0.898672 -0.139042
vn 0.416000 0.898672 -0.139042
vn 0.416000 0.898672 -0.139042
vn 0.416000 0.898672 -0.139042
vn 0.452596 0.891464 0.021170
vn 0.452596 0.891464 0.021170
vn 0.452596 0.891464 0.021170
vn 0.452596 0.891464 0.021170
vn 0.435566 0.888690 0.143225
vn 0.435566 0.888690 0.143225
vn 0.435566 0.888690 0.143225
vn 0.435566 0.888690 0.143225
vn 0.376250 0.897288 0.230888
vn 0.376250 0.897288 0.230888
vn 0.376250 0.897288 0.230888
vn 0.376250 0.897288 0.230888
vn 0.260117 0.900297 0.349004
vn 0.260117 0.900297 0.349004
vn 0.260117 0.900297 0.349004
vn 0.260117 0.900297 0.349004
vn 0.140630 0.901616 0.409038
vn 0.140630 0.901616 0.409038
vn 0.140630 0.901616 0.409038
vn 0.140630 0.901616 0.409038
vn 0.006141 0.902732 0.430159
vn 0.006141 0.902732 0.430159
vn 0.006141 0.902732 0.430159
vn 0.006141 0.902732 0.430159
vn -0.168596 0.892803 0.417705
vn -0.168596 0.892803 0.417705
vn -0.168596 0.892803 0.417705
vn -0.168596 0.892803 0.417705
vn -0.269230 0.889794 0.368486
vn -0.269230 0.889794 0.368486
vn -0.269230 0.889794 0.368486
vn -0.269230 0.889794 0.368486
vn -0.349646 0.894437 0.278801
vn -0.349646 0.894437 0.278801
vn -0.349646 0.894437 0.278801
vn -0.349646 0.894437 0.278801
vn -0.422557 0.895461 0.139987
vn -0.422557 0.895461 0.139987
vn -0.422557 0.895461 0.139987
vn -0.422557 0.895461 0.139987
vn -0.431488 0.901742 0.026074
vn -0.431488 0.901742 0.026074
vn -0.431488 0.901742 0.026074
vn -0.431488 0.901742 0.026074
vn -0.721062 0.654053 -0.228656
vn -0.721062 0.654053 -0.228656
vn -0.721062 0.654053 -0.228656
vn -0.721062 0.654053 -0.228656
vn -0.626807 0.637040 -0.448657
vn -0.626807 0.637040 -0.448657
vn -0.626807 0.637040 -0.448657
vn -0.626807 0.637040 -0.448657
vn -0.458111 0.635765 -0.621238
vn -0.458111 0.635765 -0.621238
vn -0.458111 0.635765 -0.621238
vn -0.458111 0.635765 -0.621238
vn -0.244364 0.633266 -0.734343
vn -0.244364 0.633266 -0.734343
vn -0.244364 0.633266 -0.734343
vn -0.244364 0.633266 -0.734343
vn -0.005490 0.631434 -0.775410
vn -0.005490 0.631434 -0.775410
vn -0.005490 0.631434 -0.775410
vn -0.005490 0.631434 -0.775410
vn 0.229652 0.650225 -0.724201
vn 0.229652 0.650225 -0.724201
vn 0.229652 0.650225 -0.724201
vn 0.229652 0.650225 -0.724201
vn 0.441064 0.652502 -0.616200
vn 0.441064 0.652502 -0.616200
vn 0.441064 0.652502 -0.616200
vn 0.441064 0.652502 -0.616200
vn 0.616024 0.643550 -0.454266
vn 0.616024 0.643550 -0.454266
vn 0.616024 0.643550 -0.454266
vn 0.616024 0.643550 -0.454266
vn 0.725993 0.643872 -0.241585
vn 0.725993 0.643872 -0.241585
vn 0.725993 0.643872 -0.241585
vn 0.725993 0.643872 -0.241585
vn 0.776097 0.630590 -0.005495
vn 0.776097 0.630590 -0.005495
vn 0.776097 0.630590 -0.005495
vn 0.776097 0.630590 -0.005495
vn 0.741860 0.627934 0.235251
vn 0.741860 0.627934 0.235251
vn 0.741860 0.627934 0.235251
vn 0.741860 0.627934 0.235251
vn 0.621095 0.645446 0.444568
vn 0.621095 0.645446 0.444568
vn 0.621095 0.645446 0.444568
vn 0.621095 0.645446 0.444568
vn 0.452697 0.646681 0.613897
vn 0.452697 0.646681 0.613897
vn 0.452697 0.646681 0.613897
vn 0.452697 0.646681 0.613897
vn 0.240193 0.649073 0.721811
vn 0.240193 0.649073 0.721811
vn 0.240193 0.649073 0.721811
vn 0.240193 0.649073 0.721811
vn 0.005375 0.650803 0.759228
vn 0.005375 0.650803 0.759228
vn 0.005375 0.650803 0.759228
vn 0.005375 0.650803 0.759228
vn -0.234243 0.632049 0.738678
vn -0.234243 0.632049 0.738678
vn -0.234243 0.632049 0.738678
vn -0.234243 0.632049 0.738678
vn -0.452194 0.629614 0.631749
vn -0.452194 0.629614 0.631749
vn -0.452194 0.629614 0.631749
vn -0.452194 0.629614 0.631749
vn -0.619100 0.638977 0.456534
vn -0.619100 0.638977 0.456534
vn -0.619100 0.638977 0.456534
vn -0.619100 0.638977 0.456534
vn -0.730134 0.638649 0.242963
vn -0.730134 0.638649 0.242963
vn -0.730134 0.638649 0.242963
vn -0.730134 0.638649 0.242963
vn -0.758549 0.651594 0.005370
vn -0.758549 0.651594 0.005370
vn -0.758549 0.651594 0.005370
vn -0.758549 0.651594 0.005370
vn 0.016782 0.999845 0.005322
vn 0.016782 0.999845 0.005322
vn 0.016782 0.999845 0.005322
vn 0.014316 0.999845 0.010247
vn 0.014316 0.999845 0.010247
vn 0.014316 0.999845 0.010247
vn 0.010449 0.999845 0.014169
vn 0.010449 0.999845 0.014169
vn 0.010449 0.999845 0.014169
vn 0.005559 0.999845 0.016705
vn 0.005559 0.999845 0.016705
vn 0.005559 0.999845 0.016705
vn 0.000125 0.999845 0.017605
vn 0.000125 0.999845 0.017605
vn 0.000125 0.999845 0.017605
vn -0.005322 0.999845 0.016782
vn -0.005322 0.999845 0.016782
vn -0.005322 0.999845 0.016782
vn -0.010247 0.999845 0.014316
vn -0.010247 0.999845 0.014316
vn -0.010247 0.999845 0.014316
vn -0.014169 0.999845 0.010449
vn -0.014169 0.999845 0.010449
vn -0.014169 0.999845 0.010449
vn -0.016705 0.999845 0.005559
vn -0.016705 0.999845 0.005559
vn -0.016705 0.999845 0.005559
vn -0.017605 0.999845 0.000125
vn -0.017605 0.999845 0.000125
vn -0.017605 0.999845 0.000125
vn -0.016782 0.999845 -0.005322
vn -0.016782 0.999845 -0.005322
vn -0.016782 0.999845 -0.005322
vn -0.014316 0.999845 -0.010247
vn -0.014316 0.999845 -0.010247
vn -0.014316 0.999845 -0.010247
vn -0.010449 0.999845 -0.014169
vn -0.010449 0.999845 -0.014169
vn -0.010449 0.999845 -0.014169
vn -0.005559 0.999845 -0.016705
vn -0.005559 0.999845 -0.016705
vn -0.005559 0.999845 -0.016705
vn -0.000125 0.999845 -0.017605
vn -0.000125 0.999845 -0.017605
vn -0.000125 0.999845 -0.017605
vn 0.005322 0.999845 -0.016782
vn 0.005322 0.999845 -0.016782
vn 0.005322 0.999845 -0.016782
vn 0.010247 0.999845 -0.014316
vn 0.010247 0.999845 -0.014316
vn 0.010247 0.999845 -0.014316
vn 0.014169 0.999845 -0.010449
vn 0.014169 0.999845 -0.010449
vn 0.014169 0.999845 -0.010449
vn 0.016705 0.999845 -0.005559
vn 0.016705 0.999845 -0.005559
vn 0.016705 0.999845 -0.005559
vn 0.017605 0.999845 -0.000125
vn 0.017605 0.999845 -0.000125
vn 0.017605 0.999845 -0.000125
vn 0.031799 -0.999493 0.001336
vn 0.031799 -0.999493 0.001336
vn 0.031799 -0.999493 0.001336
vn 0.026611 -0.999496 0.017302
vn 0.026611 -0.999496 0.017302
vn 0.026611 -0.999496 0.017302
vn 0.020817 -0.999464 0.025276
vn 0.020817 -0.999464 0.025276
vn 0.020817 -0.999464 0.025276
vn 0.015537 -0.999455 0.029112
vn 0.015537 -0.999455 0.029112
vn 0.015537 -0.999455 0.029112
vn 0.003209 -0.999446 0.033117
vn 0.003209 -0.999446 0.033117
vn 0.003209 -0.999446 0.033117
vn -0.001944 -0.999450 0.033117
vn -0.001944 -0.999450 0.033117
vn -0.001944 -0.999450 0.033117
vn -0.010757 -0.999484 0.030254
vn -0.010757 -0.999484 0.030254
vn -0.010757 -0.999484 0.030254
vn -0.024030 -0.999499 0.020612
vn -0.024030 -0.999499 0.020612
vn -0.024030 -0.999499 0.020612
vn -0.028900 -0.999486 0.013908
vn -0.028900 -0.999486 0.013908
vn -0.028900 -0.999486 0.013908
vn -0.032274 -0.999473 0.003522
vn -0.032274 -0.999473 0.003522
vn -0.032274 -0.999473 0.003522
vn -0.032273 -0.999437 -0.009222
vn -0.032273 -0.999437 -0.009222
vn -0.032273 -0.999437 -0.009222
vn -0.031426 -0.999436 -0.011828
vn -0.031426 -0.999436 -0.011828
vn -0.031426 -0.999436 -0.011828
vn -0.025022 -0.999474 -0.020645
vn -0.025022 -0.999474 -0.020645
vn -0.025022 -0.999474 -0.020645
vn -0.013957 -0.999491 -0.028684
vn -0.013957 -0.999491 -0.028684
vn -0.013957 -0.999491 -0.028684
vn -0.006767 -0.999496 -0.031020
vn -0.006767 -0.999496 -0.031020
vn -0.006767 -0.999496 -0.031020
vn 0.007993 -0.999487 -0.031020
vn 0.007993 -0.999487 -0.031020
vn 0.007993 -0.999487 -0.031020
vn 0.019009 -0.999443 -0.027440
vn 0.019009 -0.999443 -0.027440
vn 0.019009 -0.999443 -0.027440
vn 0.021681 -0.999440 -0.025498
vn 0.021681 -0.999440 -0.025498
vn 0.021681 -0.999440 -0.025498
vn 0.028890 -0.999461 -0.015576
vn 0.028890 -0.999461 -0.015576
vn 0.028890 -0.999461 -0.015576
vn 0.031798 -0.999472 -0.006628
vn 0.031798 -0.999472 -0.006628
vn 0.031798 -0.999472 -0.006628
usemtl basalt_side
f 1/1/1 2/2/2 3/3/3 4/4/4
f 5/5/5 6/6/6 7/7/7 8/8/8
f 9/9/9 10/10/10 11/11/11 12/12/12
usemtl obsidian
f 13/13/13 14/14/14 15/15/15 16/16/16
usemtl basalt_side
f 17/17/17 18/18/18 19/19/19 20/20/20
f 21/21/21 22/22/22 23/23/23 24/24/24
f 25/25/25 26/26/26 27/27/27 28/28/28
f 29/29/29 30/30/30 31/31/31 32/32/32
f 33/33/33 34/34/34 35/35/35 36/36/36
f 37/37/37 38/38/38 39/39/39 40/40/40
usemtl obsidian
f 41/41/41 42/42/42 43/43/43 44/44/44
usemtl basalt_side
f 45/45/45 46/46/46 47/47/47 48/48/48
f 49/49/49 50/50/50 51/51/51 52/52/52
f 53/53/53 54/54/54 55/55/55 56/56/56
f 57/57/57 58/58/58 59/59/59 60/60/60
f 61/61/61 62/62/62 63/63/63 64/64/64
f 65/65/65 66/66/66 67/67/67 68/68/68
usemtl obsidian
f 69/69/69 70/70/70 71/71/71 72/72/72
usemtl basalt_side
f 73/73/73 74/74/74 75/75/75 76/76/76
f 77/77/77 78/78/78 79/79/79 80/80/80
f 81/81/81 82/82/82 83/83/83 84/84/84
f 85/85/85 86/86/86 87/87/87 88/88/88
f 89/89/89 90/90/90 91/91/91 92/92/92
usemtl ember
f 93/93/93 94/94/94 95/95/95 96/96/96
usemtl basalt_side
f 97/97/97 98/98/98 99/99/99 100/100/100
f 101/101/101 102/102/102 103/103/103 104/104/104
f 105/105/105 106/106/106 107/107/107 108/108/108
f 109/109/109 110/110/110 111/111/111 112/112/112
f 113/113/113 114/114/114 115/115/115 116/116/116
f 117/117/117 118/118/118 119/119/119 120/120/120
usemtl ember
f 121/121/121 122/122/122 123/123/123 124/124/124
usemtl basalt_side
f 125/125/125 126/126/126 127/127/127 128/128/128
f 129/129/129 130/130/130 131/131/131 132/132/132
f 133/133/133 134/134/134 135/135/135 136/136/136
f 137/137/137 138/138/138 139/139/139 140/140/140
f 141/141/141 142/142/142 143/143/143 144/144/144
f 145/145/145 146/146/146 147/147/147 148/148/148
usemtl ember
f 149/149/149 150/150/150 151/151/151 152/152/152
usemtl basalt_side
f 153/153/153 154/154/154 155/155/155 156/156/156
f 157/157/157 158/158/158 159/159/159 160/160/160
f 161/161/161 162/162/162 163/163/163 164/164/164
f 165/165/165 166/166/166 167/167/167 168/168/168
f 169/169/169 170/170/170 171/171/171 172/172/172
usemtl obsidian
f 173/173/173 174/174/174 175/175/175 176/176/176
usemtl basalt_side
f 177/177/177 178/178/178 179/179/179 180/180/180
f 181/181/181 182/182/182 183/183/183 184/184/184
f 185/185/185 186/186/186 187/187/187 188/188/188
f 189/189/189 190/190/190 191/191/191 192/192/192
f 193/193/193 194/194/194 195/195/195 196/196/196
f 197/197/197 198/198/198 199/199/199 200/200/200
usemtl obsidian
f 201/201/201 202/202/202 203/203/203 204/204/204
usemtl basalt_side
f 205/205/205 206/206/206 207/207/207 208/208/208
f 209/209/209 210/210/210 211/211/211 212/212/212
f 213/213/213 214/214/214 215/215/215 216/216/216
f 217/217/217 218/218/218 219/219/219 220/220/220
f 221/221/221 222/222/222 223/223/223 224/224/224
f 225/225/225 226/226/226 227/227/227 228/228/228
usemtl obsidian
f 229/229/229 230/230/230 231/231/231 232/232/232
usemtl basalt_side
f 233/233/233 234/234/234 235/235/235 236/236/236
f 237/237/237 238/238/238 239/239/239 240/240/240
usemtl basalt_top
f 241/241/241 242/242/242 243/243/243 244/244/244
f 245/245/245 246/246/246 247/247/247 248/248/248
f 249/249/249 250/250/250 251/251/251 252/252/252
f 253/253/253 254/254/254 255/255/255 256/256/256
f 257/257/257 258/258/258 259/259/259 260/260/260
f 261/261/261 262/262/262 263/263/263 264/264/264
f 265/265/265 266/266/266 267/267/267 268/268/268
f 269/269/269 270/270/270 271/271/271 272/272/272
f 273/273/273 274/274/274 275/275/275 276/276/276
f 277/277/277 278/278/278 279/279/279 280/280/280
f 281/281/281 282/282/282 283/283/283 284/284/284
f 285/285/285 286/286/286 287/287/287 288/288/288
f 289/289/289 290/290/290 291/291/291 292/292/292
f 293/293/293 294/294/294 295/295/295 296/296/296
f 297/297/297 298/298/298 299/299/299 300/300/300
f 301/301/301 302/302/302 303/303/303 304/304/304
f 305/305/305 306/306/306 307/307/307 308/308/308
f 309/309/309 310/310/310 311/311/311 312/312/312
f 313/313/313 314/314/314 315/315/315 316/316/316
f 317/317/317 318/318/318 319/319/319 320/320/320
usemtl obsidian
f 321/321/321 322/322/322 323/323/323 324/324/324
f 325/325/325 326/326/326 327/327/327 328/328/328
f 329/329/329 330/330/330 331/331/331 332/332/332
usemtl ember
f 333/333/333 334/334/334 335/335/335 336/336/336
usemtl obsidian
f 337/337/337 338/338/338 339/339/339 340/340/340
f 341/341/341 342/342/342 343/343/343 344/344/344
f 345/345/345 346/346/346 347/347/347 348/348/348
f 349/349/349 350/350/350 351/351/351 352/352/352
f 353/353/353 354/354/354 355/355/355 356/356/356
f 357/357/357 358/358/358 359/359/359 360/360/360
usemtl ember
f 361/361/361 362/362/362 363/363/363 364/364/364
usemtl obsidian
f 365/365/365 366/366/366 367/367/367 368/368/368
f 369/369/369 370/370/370 371/371/371 372/372/372
f 373/373/373 374/374/374 375/375/375 376/376/376
f 377/377/377 378/378/378 379/379/379 380/380/380
f 381/381/381 382/382/382 383/383/383 384/384/384
f 385/385/385 386/386/386 387/387/387 388/388/388
usemtl ember
f 389/389/389 390/390/390 391/391/391 392/392/392
usemtl obsidian
f 393/393/393 394/394/394 395/395/395 396/396/396
f 397/397/397 398/398/398 399/399/399 400/400/400
usemtl magma
f 401/401/401 402/402/402 403/403/403
f 404/404/404 405/405/405 406/406/406
f 407/407/407 408/408/408 409/409/409
f 410/410/410 411/411/411 412/412/412
f 413/413/413 414/414/414 415/415/415
f 416/416/416 417/417/417 418/418/418
f 419/419/419 420/420/420 421/421/421
f 422/422/422 423/423/423 424/424/424
f 425/425/425 426/426/426 427/427/427
f 428/428/428 429/429/429 430/430/430
f 431/431/431 432/432/432 433/433/433
f 434/434/434 435/435/435 436/436/436
f 437/437/437 438/438/438 439/439/439
f 440/440/440 441/441/441 442/442/442
f 443/443/443 444/444/444 445/445/445
f 446/446/446 447/447/447 448/448/448
f 449/449/449 450/450/450 451/451/451
f 452/452/452 453/453/453 454/454/454
f 455/455/455 456/456/456 457/457/457
f 458/458/458 459/459/459 460/460/460
usemtl basalt_side
f 461/461/461 462/462/462 463/463/463
f 464/464/464 465/465/465 466/466/466
f 467/467/467 468/468/468 469/469/469
f 470/470/470 471/471/471 472/472/472
f 473/473/473 474/474/474 475/475/475
f 476/476/476 477/477/477 478/478/478
f 479/479/479 480/480/480 481/481/481
f 482/482/482 483/483/483 484/484/484
f 485/485/485 486/486/486 487/487/487
f 488/488/488 489/489/489 490/490/490
f 491/491/491 492/492/492 493/493/493
f 494/494/494 495/495/495 496/496/496
f 497/497/497 498/498/498 499/499/499
f 500/500/500 501/501/501 502/502/502
f 503/503/503 504/504/504 505/505/505
f 506/506/506 507/507/507 508/508/508
f 509/509/509 510/510/510 511/511/511
f 512/512/512 513/513/513 514/514/514
f 515/515/515 516/516/516 517/517/517
f 518/518/518 519/519/519 520/520/520
