# Blender 4.4.1
# www.blender.org
mtllib enemy_core15.mtl
o enemy_core15
v -0.688619 0.910359 0.000000
v -0.915238 0.770274 0.000000
v -0.617078 0.530090 0.298017
v -0.598475 0.707643 0.209497
v -0.598475 0.707643 -0.209497
v -1.006637 0.592487 0.000000
v -0.890811 0.551040 0.104668
v -0.891571 0.557861 -0.101411
v -0.543199 0.430501 0.298017
v -0.620366 0.455891 0.298017
v -0.746242 0.500130 0.209497
v -0.683278 0.477340 0.274508
v -0.797020 0.528880 -0.168190
v -0.680318 0.592709 -0.209497
v -0.605858 0.637178 -0.244628
v -0.556473 0.656750 -0.244657
v -0.472045 0.458703 0.298017
v -0.629532 0.886657 0.036273
v -0.643167 0.922273 0.000000
v -0.608123 0.814429 -0.108319
v -0.558974 0.700225 0.221523
v -0.511815 0.571927 0.298017
v -0.573657 0.739277 0.186239
v -0.571852 0.702643 -0.217603
v -0.580832 0.730132 -0.192963
v -0.891571 0.557861 -0.101411
v -0.891571 0.557861 -0.101411
v -0.797020 0.528880 -0.168190
v -0.543199 0.430501 0.298017
v -0.620366 0.455891 0.298017
v -0.620366 0.455891 0.298017
v -0.683278 0.477340 0.274508
v -0.683278 0.477340 0.274508
v -0.746242 0.500130 0.209497
v -0.746242 0.500130 0.209497
v -0.890811 0.551040 0.104668
v -0.890811 0.551040 0.104668
v -1.006637 0.592487 0.000000
v -1.006637 0.592487 0.000000
v -0.680318 0.592709 -0.209497
v -0.680318 0.592709 -0.209497
v -0.605858 0.637178 -0.244628
v -0.605858 0.637178 -0.244628
v -0.472045 0.458703 0.298017
v -0.556473 0.656750 -0.244657
v -0.643167 0.922273 0.000000
v -0.643167 0.922273 0.000000
v -0.608123 0.814429 -0.108319
v -0.629532 0.886657 0.036273
v -0.558974 0.700225 0.221523
v -0.558974 0.700225 0.221523
v -0.573657 0.739277 0.186239
v -0.573657 0.739277 0.186239
v -0.511815 0.571927 0.298017
v -0.511815 0.571927 0.298017
v -0.571852 0.702643 -0.217603
v -0.571852 0.702643 -0.217603
v -0.580832 0.730132 -0.192963
v -0.580832 0.730132 -0.192963
v -0.688619 0.910359 0.000000
v -0.688619 0.910359 0.000000
v -0.688619 0.910359 0.000000
v -0.598475 0.707643 0.209497
v -0.598475 0.707643 0.209497
v -0.598475 0.707643 0.209497
v -0.598475 0.707643 0.209497
v -0.598475 0.707643 0.209497
v -0.915238 0.770274 0.000000
v -0.915238 0.770274 0.000000
v -0.915238 0.770274 0.000000
v -0.915238 0.770274 0.000000
v -0.915238 0.770274 0.000000
v -0.617078 0.530090 0.298017
v -0.617078 0.530090 0.298017
v -0.617078 0.530090 0.298017
v -0.598475 0.707643 -0.209497
v -0.598475 0.707643 -0.209497
v -0.598475 0.707643 -0.209497
v -0.598475 0.707643 -0.209497
v -0.598475 0.707643 -0.209497
vn -0.3124 -0.9495 -0.0303
vn 0.9424 0.3333 -0.0270
vn 0.9432 0.3313 -0.0258
vn -0.1753 0.6687 0.7225
vn -0.3627 0.5868 0.7239
vn -0.5792 0.2978 0.7589
vn -0.3454 0.0153 0.9383
vn -0.5782 0.4117 0.7044
vn -0.1099 0.6433 0.7577
vn -0.4723 0.3363 0.8147
vn -0.0000 -0.0000 1.0000
vn -0.1804 0.4539 0.8726
vn -0.1753 0.6687 -0.7225
vn -0.3627 0.5868 -0.7239
vn -0.5792 0.2978 -0.7589
vn -0.5782 0.4117 -0.7044
vn -0.1099 0.6433 -0.7577
vn -0.4723 0.3363 -0.8147
vn -0.1804 0.4539 -0.8726
vn 0.3422 -0.8643 -0.3687
vn 0.3423 -0.8643 -0.3685
vn 0.3425 -0.8642 -0.3687
vt 0.927568 0.000000
vt 0.800695 0.245892
vt 0.499974 0.478265
vt 0.845521 0.345622
vt 1.000000 0.447985
vt 1.000000 0.655545
vt 0.811988 0.071810
vt 0.846819 0.777009
vt 0.447985 0.447985
vt 0.000000 0.000000
vt 0.148831 0.000000
vt 0.927568 0.927568
vt 0.630432 0.198795
vt 0.353907 0.207874
vt 0.257682 0.000000
vt 0.927728 0.122537
vt 0.894052 0.202112
vt 0.650248 0.384829
vt 0.601835 0.232488
vt 0.645299 0.181782
vt 1.000000 0.071697
vt 1.000000 0.851169
vt 0.907397 0.812364
vt 0.655545 0.655545
vt 0.870483 0.148629
vt 0.928303 0.000000
vt 0.257682 0.257682
s 0
f 29/1/1 34/2/1 38/3/1
f 46/4/2 49/5/2 48/6/2
f 54/7/3 58/8/3 49/9/3
s 1
f 60/10/4 53/10/4 18/10/4
f 61/10/5 68/10/5 64/10/5
f 37/10/6 69/10/6 39/10/6
f 31/10/7 73/10/7 33/10/7
f 74/10/8 35/10/8 12/10/8
f 23/10/9 66/10/9 51/10/9
f 67/10/10 7/10/10 11/10/10
f 44/10/11 75/10/11 10/10/11
f 3/10/12 21/10/12 4/10/12
f 62/10/13 20/10/13 59/10/13
f 1/10/14 77/10/14 70/10/14
f 27/10/15 6/10/15 71/10/15
f 42/10/16 41/10/16 78/10/16
f 25/10/17 57/10/17 79/10/17
f 80/10/18 13/10/18 8/10/18
f 24/10/19 43/10/19 5/10/19
s 0
f 16/11/20 29/12/20 14/13/20
f 26/14/1 28/15/1 29/1/1
f 29/1/1 30/16/1 32/17/1
f 34/2/1 36/18/1 38/3/1
f 29/1/1 32/17/1 34/2/1
f 38/3/1 26/14/1 29/1/1
f 52/19/3 50/20/3 54/7/3
f 54/7/3 17/21/3 16/22/3
f 16/22/3 56/23/3 58/8/3
f 58/8/3 48/24/3 49/9/3
f 49/9/3 52/19/3 54/7/3
f 54/7/3 16/22/3 58/8/3
s 1
f 18/10/4 47/10/4 60/10/4
f 60/10/4 63/10/4 53/10/4
f 74/10/8 65/10/8 35/10/8
f 67/10/10 2/10/10 7/10/10
f 10/10/11 9/10/11 44/10/11
f 44/10/11 55/10/11 75/10/11
f 3/10/12 22/10/12 21/10/12
f 59/10/13 76/10/13 62/10/13
f 62/10/13 19/10/13 20/10/13
f 8/10/18 72/10/18 80/10/18
f 80/10/18 40/10/18 13/10/18
f 24/10/19 45/10/19 43/10/19
s 0
f 14/13/21 15/25/21 16/11/21
f 16/11/22 17/26/22 29/12/22
f 29/12/20 28/27/20 14/13/20
