{
	"asset":{
		"generator":"Khronos glTF Blender I/O v4.4.56",
		"version":"2.0"
	},
	"scene":0,
	"scenes":[
		{
			"name":"Scene",
			"nodes":[
				4
			]
		}
	],
	"nodes":[
		{
			"mesh":0,
			"name":"Circle_Crown_0"
		},
		{
			"children":[
				0
			],
			"name":"Circle",
			"rotation":[
				0,
				-1,
				0,
				4.371138828673793e-08
			]
		},
		{
			"children":[
				1
			],
			"name":"RootNode"
		},
		{
			"children":[
				2
			],
			"name":"50174383253d47b699de99b49dec78bb.fbx",
			"rotation":[
				0.70710688829422,
				0,
				0,
				0.7071066498756409
			]
		},
		{
			"children":[
				3
			],
			"name":"Sketchfab_model",
			"rotation":[
				-0.70710688829422,
				0,
				0,
				0.7071066498756409
			]
		}
	],
	"materials":[
		{
			"doubleSided":true,
			"name":"Crown",
			"normalTexture":{
				"index":0
			},
			"pbrMetallicRoughness":{
				"baseColorTexture":{
					"index":1
				},
				"metallicRoughnessTexture":{
					"index":2
				}
			}
		}
	],
	"meshes":[
		{
			"name":"Circle_Crown_0",
			"primitives":[
				{
					"attributes":{
						"POSITION":0,
						"NORMAL":1,
						"TEXCOORD_0":2,
						"TEXCOORD_1":3,
						"TEXCOORD_2":4
					},
					"indices":5,
					"material":0
				}
			]
		}
	],
	"textures":[
		{
			"sampler":0,
			"source":0
		},
		{
			"sampler":0,
			"source":1
		},
		{
			"sampler":0,
			"source":2
		}
	],
	"images":[
		{
			"mimeType":"image/png",
			"name":"Crown_normal",
			"uri":"Crown_normal.png"
		},
		{
			"mimeType":"image/png",
			"name":"Crown_baseColor",
			"uri":"Crown_baseColor.png"
		},
		{
			"mimeType":"image/png",
			"name":"Crown_metallicRoughness",
			"uri":"Crown_metallicRoughness.png"
		}
	],
	"accessors":[
		{
			"bufferView":0,
			"componentType":5126,
			"count":1338,
			"max":[
				1.0000783205032349,
				0.5152416825294495,
				1.000025987625122
			],
			"min":[
				-0.9999216794967651,
				-0.33994269371032715,
				-0.9999740123748779
			],
			"type":"VEC3"
		},
		{
			"bufferView":1,
			"componentType":5126,
			"count":1338,
			"type":"VEC3"
		},
		{
			"bufferView":2,
			"componentType":5126,
			"count":1338,
			"type":"VEC2"
		},
		{
			"bufferView":3,
			"componentType":5126,
			"count":1338,
			"type":"VEC2"
		},
		{
			"bufferView":4,
			"componentType":5126,
			"count":1338,
			"type":"VEC2"
		},
		{
			"bufferView":5,
			"componentType":5123,
			"count":3552,
			"type":"SCALAR"
		}
	],
	"bufferViews":[
		{
			"buffer":0,
			"byteLength":16056,
			"byteOffset":0,
			"target":34962
		},
		{
			"buffer":0,
			"byteLength":16056,
			"byteOffset":16056,
			"target":34962
		},
		{
			"buffer":0,
			"byteLength":10704,
			"byteOffset":32112,
			"target":34962
		},
		{
			"buffer":0,
			"byteLength":10704,
			"byteOffset":42816,
			"target":34962
		},
		{
			"buffer":0,
			"byteLength":10704,
			"byteOffset":53520,
			"target":34962
		},
		{
			"buffer":0,
			"byteLength":7104,
			"byteOffset":64224,
			"target":34963
		}
	],
	"samplers":[
		{
			"magFilter":9729,
			"minFilter":9987
		}
	],
	"buffers":[
		{
			"byteLength":71328,
			"uri":"crown.bin"
		}
	]
}
