# Generated by tools/model_lod_builder.ps1
# Source: crown.obj
# Ratio: 0.55
v -0.893509 -0.306108 -0.17774
v -0.911013 -0.306108 -0.000026
v -0.893509 -0.306108 0.177689
v -0.915913 0.256226 -0.182197
v -0.915913 0.256226 0.182145
v -0.940398 0.336838 -0.187067
v -0.940398 0.336838 0.187015
v -0.945698 0.36311 -0.000403
v -0.933856 0.419052 -0.000026
v -0.95882 0.515242 -0.000026
v -0.890705 -0.095879 -0.177183
v -0.908153 -0.095879 -0.000026
v -0.890705 -0.095879 0.177131
v -0.886218 -0.054655 -0.17629
v -0.901757 -0.03769 -0.0004
v -0.886218 -0.054655 0.176239
v -0.89414 0.057146 -0.177866
v -0.911655 0.057146 -0.000026
v -0.89414 0.057146 0.177814
v -0.886606 0.115925 0.367186
v -0.886606 0.115925 -0.367238
v -0.921809 0.168492 -0.101854
v -0.982181 0.161962 -0.000204
v -0.920706 0.168492 0.100782
v -0.923958 0.212115 0.382658
v -0.923958 0.212115 -0.382709
v -0.841672 -0.306108 0.348573
v -0.757493 -0.306108 0.506062
v -0.757493 -0.306108 -0.506114
v -0.841672 -0.306108 -0.348625
v -0.786718 -0.3335 -0.325863
v -0.835171 -0.3335 -0.166136
v -0.851531 -0.3335 -0.000026
v -0.835171 -0.3335 0.166084
v -0.786718 -0.3335 0.325811
v -0.776486 0.256226 0.518753
v -0.776486 0.256226 -0.518805
v -0.797243 0.336838 0.532622
v -0.797243 0.336838 -0.532674
v -0.83903 -0.095879 0.347479
v -0.755115 -0.095879 0.504474
v -0.755115 -0.095879 -0.504526
v -0.83903 -0.095879 -0.347531
v -0.834804 -0.054655 0.345729
v -0.751311 -0.054655 0.501932
v -0.751311 -0.054655 -0.501984
v -0.834804 -0.054655 -0.34578
v -0.842266 0.057146 0.34882
v -0.758027 0.057146 0.506419
v -0.758027 0.057146 -0.506471
v -0.842266 0.057146 -0.348871
v -0.838947 0.16886 0.347445
v -0.838947 0.16886 -0.347497
v -0.847722 0.212115 0.35108
v -0.847722 0.212115 -0.351131
v 0.348521 -0.306108 -0.84162
v 0.465602 -0.327056 0.696913
v 0.348521 -0.306108 0.841568
v 0.465602 -0.327056 -0.696965
v 0.347427 -0.095879 -0.838978
v 0.347427 -0.095879 0.838926
v 0.345676 -0.054655 -0.834751
v 0.345676 -0.054655 0.834699
v 0.348767 0.057146 -0.842213
v 0.348767 0.057146 0.842161
v 0.367133 0.115925 -0.886554
v 0.367134 0.115925 0.886502
v 0.347393 0.16886 -0.838895
v 0.347393 0.16886 0.838843
v 0.382605 0.212115 -0.923905
v 0.351027 0.212115 -0.84767
v 0.351027 0.212115 0.847618
v 0.382605 0.212115 0.923853
v 0.506009 -0.306108 -0.75744
v 0.59262 -0.327056 0.592672
v 0.480325 -0.339943 0.718949
v 0.506009 -0.306108 0.757388
v 0.480325 -0.339943 -0.719001
v 0.59262 -0.327056 -0.592724
v 0.518701 0.256226 -0.776433
v 0.518701 0.256226 0.776381
v 0.53257 0.336838 -0.797191
v 0.53257 0.336838 0.797139
v 0.504421 -0.095879 -0.755063
v 0.504421 -0.095879 0.755011
v 0.50188 -0.054655 -0.751259
v 0.50188 -0.054655 0.751207
v 0.506367 0.057146 -0.757974
v 0.506367 0.057146 0.757922
v 0.579751 0.168492 0.723683
v 0.580299 0.168492 -0.721746
v 0.696861 -0.327056 0.465654
v 0.718896 -0.339943 0.480378
v 0.636785 -0.313627 0.636838
v 0.636785 -0.313627 -0.63689
v 0.718896 -0.339943 -0.48043
v 0.696861 -0.327056 -0.465706
v 0.668375 0.36311 0.66883
v 0.669469 0.36311 -0.667787
v 0.660202 0.419052 0.660254
v 0.660202 0.419052 -0.660306
v 0.677855 0.515242 0.677907
v 0.677854 0.515242 -0.677959
v 0.642028 -0.095879 0.64208
v 0.642028 -0.095879 -0.642132
v 0.637278 -0.03769 0.637784
v 0.638127 -0.03769 -0.636986
v 0.644504 0.057146 0.644556
v 0.644504 0.057146 -0.644608
v 0.722242 0.168492 0.579604
v 0.694314 0.161962 0.694484
v 0.69515 0.161962 -0.6937
v 0.72423 0.168492 -0.579106
v 0.841515 -0.306108 0.348573
v 0.757336 -0.306108 0.506062
v 0.757336 -0.306108 -0.506114
v 0.841515 -0.306108 -0.348625
v 0.786562 -0.3335 -0.325863
v 0.835014 -0.3335 -0.166136
v 0.851375 -0.3335 -0.000026
v 0.835014 -0.3335 0.166084
v 0.786562 -0.3335 0.325811
v 0.776329 0.256226 0.518753
v 0.776329 0.256226 -0.518805
v 0.797086 0.336838 0.532622
v 0.797086 0.336838 -0.532674
v 0.838873 -0.095879 0.347479
v 0.754958 -0.095879 0.504474
v 0.754958 -0.095879 -0.504526
v 0.838873 -0.095879 -0.347531
v 0.834647 -0.054655 0.345728
v 0.751155 -0.054655 0.501932
v 0.751154 -0.054655 -0.501984
v 0.834647 -0.054655 -0.34578
v 0.842109 0.057146 0.348819
v 0.75787 0.057146 0.506419
v 0.75787 0.057146 -0.506471
v 0.842109 0.057146 -0.348871
v 0.83879 0.16886 0.347445
v 0.83879 0.16886 -0.347497
v 0.847565 0.212115 0.351079
v 0.847565 0.212115 -0.351132
v 0.893352 -0.306108 -0.177741
v 0.910856 -0.306108 -0.000026
v 0.893352 -0.306108 0.177688
v 0.915757 0.256226 -0.182197
v 0.915757 0.256226 0.182145
v 0.940241 0.336838 -0.187067
v 0.940241 0.336838 0.187015
v 0.945541 0.36311 0.001095
v 0.933699 0.419052 -0.000026
v 0.958664 0.515242 -0.000026
v 0.890548 -0.095879 -0.177183
v 0.907997 -0.095879 -0.000026
v 0.890548 -0.095879 0.177131
v 0.886061 -0.054655 -0.17629
v 0.9016 -0.03769 0.000773
v 0.886061 -0.054655 0.176238
v 0.893983 0.057146 -0.177866
v 0.911499 0.057146 -0.000026
v 0.893983 0.057146 0.177814
v 0.886449 0.115925 0.367186
v 0.886449 0.115925 -0.367238
v 0.920629 0.168492 -0.100109
v 0.982024 0.161962 0.000926
v 0.921572 0.168492 0.102527
v 0.923801 0.212115 0.382657
v 0.923801 0.212115 -0.382709
v -0.697018 -0.327056 0.465654
v -0.719053 -0.339943 0.480378
v -0.636942 -0.313627 0.636838
v -0.636942 -0.313627 -0.63689
v -0.719053 -0.339943 -0.480429
v -0.697018 -0.327056 -0.465706
v -0.669099 0.36311 0.668262
v -0.669058 0.36311 -0.668355
v -0.660359 0.419052 0.660254
v -0.660359 0.419052 -0.660306
v -0.678011 0.515242 0.677907
v -0.678011 0.515242 -0.677959
v -0.642184 -0.095879 0.64208
v -0.642184 -0.095879 -0.642132
v -0.637983 -0.03769 0.637236
v -0.638082 -0.042537 -0.637924
v -0.64466 0.057146 0.644556
v -0.644661 0.057146 -0.644608
v -0.72393 0.168492 0.579625
v -0.69476 0.161962 0.694195
v -0.695018 0.161962 -0.693989
v -0.722855 0.168492 -0.579087
v -0.506166 -0.306108 -0.75744
v -0.592777 -0.327056 0.592672
v -0.480482 -0.339943 0.718949
v -0.506166 -0.306108 0.757389
v -0.480482 -0.339943 -0.719001
v -0.592777 -0.327056 -0.592724
v -0.518857 0.256226 -0.776433
v -0.518857 0.256226 0.776381
v -0.532727 0.336838 -0.797191
v -0.532726 0.336838 0.797139
v -0.504578 -0.095879 -0.755063
v -0.504578 -0.095879 0.755011
v -0.502036 -0.054655 -0.751259
v -0.502036 -0.054655 0.751207
v -0.506523 0.057146 -0.757974
v -0.506523 0.057146 0.757922
v -0.579887 0.168492 0.722151
v -0.580477 0.168492 -0.723278
v -0.348678 -0.306108 -0.84162
v -0.465758 -0.327056 0.696913
v -0.348678 -0.306108 0.841568
v -0.465758 -0.327056 -0.696965
v -0.347584 -0.095879 -0.838978
v -0.347584 -0.095879 0.838926
v -0.345833 -0.054655 -0.834751
v -0.345833 -0.054655 0.834699
v -0.348924 0.057146 -0.842213
v -0.348924 0.057146 0.842161
v -0.36729 0.115925 -0.886553
v -0.36729 0.115925 0.886502
v -0.347549 0.16886 -0.838894
v -0.347549 0.16886 0.838843
v -0.382762 0.212115 -0.923905
v -0.351184 0.212115 -0.84767
v -0.351184 0.212115 0.847618
v -0.382762 0.212115 0.923853
v -0.325915 -0.3335 -0.786666
v -0.325915 -0.3335 0.786614
v -0.177793 -0.306108 -0.893457
v -0.166189 -0.3335 -0.835118
v -0.166189 -0.3335 0.835066
v -0.177793 -0.306108 0.893405
v -0.182249 0.256226 -0.915861
v -0.182249 0.256226 0.915809
v -0.18712 0.336838 -0.940346
v -0.18712 0.336838 0.940294
v -0.177235 -0.095879 -0.890652
v -0.177235 -0.095879 0.8906
v -0.176343 -0.054655 -0.886165
v -0.176343 -0.054655 0.886113
v -0.177918 0.057146 -0.894087
v -0.177918 0.057146 0.894035
v -0.095875 0.168492 -0.921189
v -0.101581 0.168492 0.92174
v -0.000078 -0.306108 -0.910961
v -0.000078 -0.3335 -0.851479
v -0.000078 -0.3335 0.851427
v -0.000078 -0.306108 0.910909
v 0.005444 0.36311 -0.94563
v -0.000122 0.36311 0.945594
v -0.000078 0.419052 -0.933803
v -0.000078 0.419052 0.933751
v -0.000078 0.515242 -0.958768
v -0.000078 0.515242 0.958716
v -0.000078 -0.095879 -0.908101
v -0.000078 -0.095879 0.908049
v 0.003235 -0.03769 -0.901695
v -0.000261 -0.03769 0.901653
v -0.000078 0.057146 -0.911603
v -0.000078 0.057146 0.911551
v 0.005444 0.161962 -0.982113
v 0.00009 0.161962 0.982077
v 0.177636 -0.306108 -0.893457
v 0.166032 -0.3335 -0.835118
v 0.166032 -0.3335 0.835066
v 0.177636 -0.306108 0.893405
v 0.182093 0.256226 -0.915861
v 0.182093 0.256226 0.915809
v 0.186963 0.336838 -0.940346
v 0.186963 0.336838 0.940294
v 0.177078 -0.095879 -0.890652
v 0.177078 -0.095879 0.8906
v 0.176186 -0.054655 -0.886165
v 0.176186 -0.054655 0.886113
v 0.177761 0.057146 -0.894087
v 0.177762 0.057146 0.894035
v 0.106763 0.168492 -0.921189
v 0.101054 0.168492 0.920566
v 0.325759 -0.3335 -0.786666
v 0.325759 -0.3335 0.786614
vt 0.297778 0.731714
vt 0.176589 0.941388
vt 0.178611 0.730571
vt 0.059443 0.729428
vt 0.180632 0.519753
vt 0.178611 0.730571
vt 0.180632 0.519753
vt 0.176589 0.941388
vt 0.297778 0.731714
vt 0.176589 0.941388
vt 0.178611 0.730571
vt 0.059443 0.729428
vt 0.180632 0.519753
vt 0.178611 0.730571
vt 0.180632 0.519753
vt 0.176589 0.941388
vt 0.297778 0.731714
vt 0.176589 0.941388
vt 0.178611 0.730571
vt 0.059443 0.729428
vt 0.180632 0.519753
vt 0.178611 0.730571
vt 0.180632 0.519753
vt 0.176589 0.941388
vt 0.297778 0.731714
vt 0.176589 0.941388
vt 0.178611 0.730571
vt 0.059443 0.729428
vt 0.180632 0.519753
vt 0.178611 0.730571
vt 0.180632 0.519753
vt 0.176589 0.941388
vt 0.297778 0.731714
vt 0.176589 0.941388
vt 0.178611 0.730571
vt 0.059443 0.729428
vt 0.180632 0.519753
vt 0.178611 0.730571
vt 0.180632 0.519753
vt 0.176589 0.941388
vt 0.297778 0.731714
vt 0.176589 0.941388
vt 0.178611 0.730571
vt 0.059443 0.729428
vt 0.180632 0.519753
vt 0.178611 0.730571
vt 0.180632 0.519753
vt 0.176589 0.941388
vt 0.297778 0.731714
vt 0.176589 0.941388
vt 0.178611 0.730571
vt 0.059443 0.729428
vt 0.180632 0.519753
vt 0.178611 0.730571
vt 0.180632 0.519753
vt 0.176589 0.941388
vt 0.297778 0.731714
vt 0.176589 0.941388
vt 0.178611 0.730571
vt 0.059443 0.729428
vt 0.180632 0.519753
vt 0.178611 0.730571
vt 0.180632 0.519753
vt 0.176589 0.941388
vt 0.969706 0.43146
vt 0.970068 0.464796
vt 0.960406 0.458292
vt 0.956338 0.431855
vt 0.922425 0.011724
vt 0.929245 0.044779
vt 0.920993 0.053574
vt 0.915137 0.021433
vt 0.968036 0.39884
vt 0.959099 0.405593
vt 0.929959 0.955619
vt 0.923068 0.991148
vt 0.915197 0.980492
vt 0.920948 0.946467
vt 0.969177 0.372154
vt 0.960123 0.372505
vt 0.935663 0.920431
vt 0.921872 0.91814
vt 0.965639 0.344711
vt 0.955769 0.338731
vt 0.940313 0.886728
vt 0.929885 0.891846
vt 0.963707 0.311736
vt 0.950496 0.312758
vt 0.946724 0.859754
vt 0.937431 0.858331
vt 0.960514 0.279532
vt 0.951988 0.286637
vt 0.948516 0.831101
vt 0.939637 0.823067
vt 0.960383 0.253067
vt 0.951439 0.253841
vt 0.953032 0.797127
vt 0.939372 0.795571
vt 0.955586 0.226074
vt 0.945536 0.220621
vt 0.956112 0.763691
vt 0.946029 0.769253
vt 0.952117 0.19353
vt 0.93909 0.195165
vt 0.968758 0.586068
vt 0.969684 0.614238
vt 0.960469 0.613715
vt 0.95933 0.579047
vt 0.961183 0.736704
vt 0.951918 0.735734
vt 0.947436 0.161808
vt 0.939334 0.169242
vt 0.969995 0.552444
vt 0.9565 0.5522
vt 0.961604 0.708261
vt 0.952437 0.700729
vt 0.946056 0.135621
vt 0.937241 0.136811
vt 0.969881 0.51948
vt 0.960547 0.525857
vt 0.964469 0.674424
vt 0.950876 0.673529
vt 0.940029 0.109128
vt 0.929825 0.104211
vt 0.972315 0.492631
vt 0.96317 0.49255
vt 0.965939 0.641187
vt 0.956222 0.647167
vt 0.934993 0.07702
vt 0.922195 0.079349
vt 0.95933 0.579047
vt 0.960469 0.613715
vt 0.955451 0.613378
vt 0.954962 0.57931
vt 0.951918 0.735734
vt 0.946029 0.769253
vt 0.940893 0.768241
vt 0.946876 0.735152
vt 0.939334 0.169242
vt 0.93909 0.195165
vt 0.934734 0.195831
vt 0.93434 0.169461
vt 0.9565 0.5522
vt 0.95197 0.552239
vt 0.952437 0.700729
vt 0.951918 0.735734
vt 0.946876 0.735152
vt 0.948022 0.700785
vt 0.937241 0.136811
vt 0.932431 0.137408
vt 0.960547 0.525857
vt 0.9565 0.5522
vt 0.95197 0.552239
vt 0.955433 0.525348
vt 0.950876 0.673529
vt 0.946308 0.67335
vt 0.929825 0.104211
vt 0.937241 0.136811
vt 0.932431 0.137408
vt 0.925744 0.105263
vt 0.96317 0.49255
vt 0.958188 0.492452
vt 0.956222 0.647167
vt 0.950876 0.673529
vt 0.946308 0.67335
vt 0.951091 0.646408
vt 0.922195 0.079349
vt 0.917925 0.080238
vt 0.960406 0.458292
vt 0.96317 0.49255
vt 0.958188 0.492452
vt 0.956096 0.458759
vt 0.960469 0.613715
vt 0.955451 0.613378
vt 0.920993 0.053574
vt 0.922195 0.079349
vt 0.917925 0.080238
vt 0.916032 0.054212
vt 0.956338 0.431855
vt 0.951857 0.432107
vt 0.915137 0.021433
vt 0.910393 0.022605
vt 0.959099 0.405593
vt 0.956338 0.431855
vt 0.951857 0.432107
vt 0.954014 0.405331
vt 0.920948 0.946467
vt 0.915197 0.980492
vt 0.910394 0.979314
vt 0.91612 0.945957
vt 0.960123 0.372505
vt 0.955187 0.372643
vt 0.921872 0.91814
vt 0.917203 0.917503
vt 0.955769 0.338731
vt 0.960123 0.372505
vt 0.955187 0.372643
vt 0.951526 0.339396
vt 0.929885 0.891846
vt 0.921872 0.91814
vt 0.917203 0.917503
vt 0.924748 0.89057
vt 0.950496 0.312758
vt 0.946072 0.31322
vt 0.937431 0.858331
vt 0.932375 0.857501
vt 0.951988 0.286637
vt 0.950496 0.312758
vt 0.946072 0.31322
vt 0.946943 0.286617
vt 0.939637 0.823067
vt 0.937431 0.858331
vt 0.932375 0.857501
vt 0.935183 0.822911
vt 0.951439 0.253841
vt 0.946561 0.254211
vt 0.939372 0.795571
vt 0.934775 0.795171
vt 0.945536 0.220621
vt 0.951439 0.253841
vt 0.946561 0.254211
vt 0.941368 0.22148
vt 0.939372 0.795571
vt 0.934775 0.795171
vt 0.93909 0.195165
vt 0.934734 0.195831
vt 0.810923 0.494244
vt 0.81062 0.524093
vt 0.791635 0.523468
vt 0.791965 0.494367
vt 0.795565 0.643295
vt 0.788795 0.672815
vt 0.770171 0.667859
vt 0.776885 0.639346
vt 0.685729 0.104577
vt 0.702148 0.129174
vt 0.686367 0.139279
vt 0.670408 0.11545
vt 0.810288 0.464417
vt 0.791278 0.465239
vt 0.801101 0.613807
vt 0.782317 0.610603
vt 0.66782 0.081101
vt 0.653218 0.092649
vt 0.808419 0.434446
vt 0.789422 0.436176
vt 0.64913 0.058562
vt 0.635045 0.070672
vt 0.804669 0.404703
vt 0.785961 0.407388
vt 0.66911 0.916742
vt 0.649913 0.940465
vt 0.635045 0.927997
vt 0.653751 0.904847
vt 0.799782 0.375409
vt 0.781231 0.378822
vt 0.687404 0.892143
vt 0.671456 0.880973
vt 0.79398 0.3463
vt 0.775501 0.350407
vt 0.704078 0.866488
vt 0.687727 0.856255
vt 0.786945 0.317264
vt 0.768635 0.322258
vt 0.719569 0.840435
vt 0.702861 0.830872
vt 0.778106 0.288778
vt 0.760246 0.294657
vt 0.734227 0.813923
vt 0.717117 0.804948
vt 0.768232 0.260929
vt 0.750651 0.267494
vt 0.747874 0.786655
vt 0.730312 0.778483
vt 0.757493 0.23342
vt 0.740103 0.240652
vt 0.759753 0.758627
vt 0.741959 0.751442
vt 0.745559 0.206197
vt 0.728489 0.214268
vt 0.805705 0.584177
vt 0.786748 0.581656
vt 0.770406 0.730415
vt 0.752377 0.723948
vt 0.731954 0.179825
vt 0.715478 0.188686
vt 0.809114 0.554187
vt 0.790009 0.552566
vt 0.78016 0.701897
vt 0.76184 0.696077
vt 0.717445 0.154259
vt 0.701362 0.163743
vt 0.969684 0.614238
vt 0.968758 0.586068
vt 0.9809 0.586931
vt 0.975683 0.613854
vt 0.956112 0.763691
vt 0.961183 0.736704
vt 0.96725 0.736606
vt 0.968433 0.764998
vt 0.952117 0.19353
vt 0.947436 0.161808
vt 0.959164 0.160242
vt 0.965357 0.192607
vt 0.969995 0.552444
vt 0.983603 0.553445
vt 0.961183 0.736704
vt 0.961604 0.708261
vt 0.973803 0.709715
vt 0.96725 0.736606
vt 0.946056 0.135621
vt 0.951664 0.134163
vt 0.969995 0.552444
vt 0.969881 0.51948
vt 0.982044 0.519605
vt 0.983603 0.553445
vt 0.964469 0.674424
vt 0.978139 0.676088
vt 0.946056 0.135621
vt 0.940029 0.109128
vt 0.951679 0.107726
vt 0.951664 0.134163
vt 0.972315 0.492631
vt 0.978234 0.491969
vt 0.964469 0.674424
vt 0.965939 0.641187
vt 0.978195 0.641898
vt 0.978139 0.676088
vt 0.934993 0.07702
vt 0.948027 0.075449
vt 0.972315 0.492631
vt 0.970068 0.464796
vt 0.982126 0.465076
vt 0.978234 0.491969
vt 0.969684 0.614238
vt 0.975683 0.613854
vt 0.934993 0.07702
vt 0.929245 0.044779
vt 0.939512 0.042708
vt 0.948027 0.075449
vt 0.969706 0.43146
vt 0.983221 0.431808
vt 0.922425 0.011724
vt 0.932188 0.010354
vt 0.969706 0.43146
vt 0.968036 0.39884
vt 0.98008 0.39839
vt 0.983221 0.431808
vt 0.923068 0.991148
vt 0.929959 0.955619
vt 0.941179 0.957751
vt 0.934014 0.992574
vt 0.969177 0.372154
vt 0.975004 0.371219
vt 0.935663 0.920431
vt 0.949374 0.92334
vt 0.969177 0.372154
vt 0.965639 0.344711
vt 0.977586 0.344419
vt 0.975004 0.371219
vt 0.935663 0.920431
vt 0.940313 0.886728
vt 0.952675 0.888636
vt 0.949374 0.92334
vt 0.963707 0.311736
vt 0.977099 0.311443
vt 0.946724 0.859754
vt 0.952844 0.859947
vt 0.963707 0.311736
vt 0.960514 0.279532
vt 0.972412 0.278518
vt 0.977099 0.311443
vt 0.946724 0.859754
vt 0.948516 0.831101
vt 0.960744 0.833153
vt 0.952844 0.859947
vt 0.960383 0.253067
vt 0.966106 0.251866
vt 0.953032 0.797127
vt 0.966733 0.799462
vt 0.960383 0.253067
vt 0.955586 0.226074
vt 0.967396 0.225221
vt 0.966106 0.251866
vt 0.953032 0.797127
vt 0.966733 0.799462
vt 0.952117 0.19353
vt 0.965357 0.192607
vt 0.456071 0.220604
vt 0.456071 0.250697
vt 0.42324 0.250697
vt 0.42324 0.220604
vt 0.456072 0.641917
vt 0.456072 0.672011
vt 0.423241 0.672011
vt 0.423241 0.641917
vt 0.456072 0.040041
vt 0.456072 0.070135
vt 0.423241 0.070135
vt 0.423241 0.040041
vt 0.456072 0.792386
vt 0.456072 0.82248
vt 0.423241 0.82248
vt 0.423241 0.792386
vt 0.456071 0.491448
vt 0.456071 0.521542
vt 0.42324 0.521542
vt 0.42324 0.491448
vt 0.456071 0.280791
vt 0.42324 0.280791
vt 0.456072 0.100228
vt 0.456072 0.130322
vt 0.42324 0.130322
vt 0.423241 0.100228
vt 0.456072 0.852573
vt 0.423241 0.852573
vt 0.456072 0.702104
vt 0.423241 0.702104
vt 0.456071 0.310885
vt 0.42324 0.310885
vt 0.456072 0.551635
vt 0.42324 0.551635
vt 0.456072 0.882667
vt 0.423241 0.882667
vt 0.456071 0.160416
vt 0.42324 0.160416
vt 0.456071 0.340979
vt 0.42324 0.340979
vt 0.456072 0.732198
vt 0.423241 0.732198
vt 0.456072 0.912761
vt 0.423241 0.912761
vt 0.456072 0.581729
vt 0.42324 0.581729
vt 0.456071 0.371073
vt 0.42324 0.371073
vt 0.456071 0.19051
vt 0.42324 0.19051
vt 0.456072 0.942855
vt 0.423241 0.942855
vt 0.456072 0.762292
vt 0.423241 0.762292
vt 0.456071 0.43126
vt 0.456071 0.461354
vt 0.42324 0.461354
vt 0.42324 0.43126
vt 0.456071 0.401166
vt 0.42324 0.401166
vt 0.456072 0.611823
vt 0.42324 0.611823
vt 0.456072 0.972949
vt 0.423241 0.972949
vt 0.456072 0.009947
vt 0.423241 0.009947
vt 0.728091 0.112919
vt 0.768881 0.123952
vt 0.799518 0.675632
vt 0.809997 0.711701
vt 0.84176 0.524751
vt 0.820108 0.555084
vt 0.758795 0.164981
vt 0.828046 0.751113
vt 0.836637 0.5886
vt 0.755365 0.201522
vt 0.789067 0.770065
vt 0.861163 0.624075
vt 0.786021 0.221884
vt 0.757992 0.791324
vt 0.824455 0.239959
vt 0.762036 0.82886
vt 0.807275 0.278795
vt 0.772985 0.871032
vt 0.797469 0.314358
vt 0.731082 0.88295
vt 0.824237 0.339887
vt 0.696599 0.898538
vt 0.859104 0.364518
vt 0.694028 0.936393
vt 0.835288 0.399941
vt 0.69756 0.98001
vt 0.819345 0.433416
vt 0.69438 0.019977
vt 0.691546 0.061908
vt 0.841358 0.463379
vt 0.694523 0.098296
vt 0.826268 0.64941
vt 0.871544 0.493873
vt 0.361292 0.552266
vt 0.361444 0.582058
vt 0.356984 0.58208
vt 0.356834 0.552279
vt 0.362657 0.701358
vt 0.363112 0.731215
vt 0.358642 0.731283
vt 0.358189 0.701416
vt 0.365488 0.136689
vt 0.364798 0.166277
vt 0.360368 0.166173
vt 0.36106 0.136576
vt 0.361201 0.522488
vt 0.356744 0.522492
vt 0.362263 0.671514
vt 0.357797 0.671563
vt 0.366237 0.107117
vt 0.361811 0.106995
vt 0.36117 0.492723
vt 0.356715 0.492718
vt 0.36193 0.641682
vt 0.357465 0.641722
vt 0.367045 0.077559
vt 0.362622 0.077428
vt 0.361199 0.462973
vt 0.356747 0.462959
vt 0.361657 0.611864
vt 0.357194 0.611895
vt 0.367909 0.048016
vt 0.363512 0.047857
vt 0.361288 0.433237
vt 0.356838 0.433214
vt 0.369219 0.01803
vt 0.364754 0.017392
vt 0.361438 0.403515
vt 0.35699 0.403483
vt 0.368008 0.940561
vt 0.369219 0.971106
vt 0.364544 0.971735
vt 0.363477 0.940711
vt 0.361648 0.373808
vt 0.357202 0.373767
vt 0.36712 0.91061
vt 0.362638 0.910732
vt 0.361918 0.344116
vt 0.357475 0.344066
vt 0.3663 0.880681
vt 0.36182 0.880794
vt 0.362248 0.314439
vt 0.357807 0.314379
vt 0.36554 0.850765
vt 0.361063 0.850869
vt 0.362638 0.284776
vt 0.358199 0.284708
vt 0.364842 0.820859
vt 0.360366 0.820954
vt 0.363088 0.255129
vt 0.358652 0.255052
vt 0.364205 0.790966
vt 0.359731 0.791052
vt 0.363598 0.225497
vt 0.359164 0.225411
vt 0.363628 0.761085
vt 0.359156 0.761161
vt 0.364168 0.195879
vt 0.359736 0.195784
vt 0.359736 0.195784
vt 0.359164 0.225411
vt 0.352188 0.225331
vt 0.352764 0.19569
vt 0.356984 0.58208
vt 0.357194 0.611895
vt 0.350175 0.611999
vt 0.349968 0.58217
vt 0.358642 0.731283
vt 0.359156 0.761161
vt 0.352123 0.761337
vt 0.351612 0.731444
vt 0.360368 0.166173
vt 0.353399 0.166065
vt 0.356834 0.552279
vt 0.349821 0.552355
vt 0.358189 0.701416
vt 0.351161 0.701564
vt 0.36106 0.136576
vt 0.354094 0.136454
vt 0.356744 0.522492
vt 0.349735 0.522554
vt 0.357797 0.671563
vt 0.350772 0.671696
vt 0.361811 0.106995
vt 0.354849 0.106859
vt 0.356715 0.492718
vt 0.349709 0.492766
vt 0.357465 0.641722
vt 0.350443 0.641841
vt 0.362622 0.077428
vt 0.355665 0.077279
vt 0.356747 0.462959
vt 0.349744 0.462992
vt 0.363512 0.047857
vt 0.356587 0.047685
vt 0.356838 0.433214
vt 0.349839 0.433233
vt 0.364754 0.017392
vt 0.357436 0.017111
vt 0.35699 0.403483
vt 0.349994 0.403488
vt 0.363477 0.940711
vt 0.364544 0.971735
vt 0.357113 0.971907
vt 0.356456 0.940965
vt 0.357202 0.373767
vt 0.350209 0.373757
vt 0.362638 0.910732
vt 0.355593 0.91098
vt 0.357475 0.344066
vt 0.350485 0.344042
vt 0.36182 0.880794
vt 0.354776 0.881028
vt 0.357807 0.314379
vt 0.350821 0.314342
vt 0.361063 0.850869
vt 0.354022 0.851088
vt 0.358199 0.284708
vt 0.351216 0.284657
vt 0.360366 0.820954
vt 0.353328 0.821159
vt 0.358652 0.255052
vt 0.351672 0.254986
vt 0.359731 0.791052
vt 0.352695 0.791242
vt 0.354849 0.106859
vt 0.354094 0.136454
vt 0.351223 0.13638
vt 0.351979 0.106779
vt 0.349709 0.492766
vt 0.349735 0.522554
vt 0.346845 0.522555
vt 0.34682 0.492761
vt 0.350443 0.641841
vt 0.350772 0.671696
vt 0.347875 0.671727
vt 0.347548 0.641866
vt 0.355665 0.077279
vt 0.352796 0.077192
vt 0.349744 0.462992
vt 0.346856 0.462982
vt 0.350175 0.611999
vt 0.347281 0.612018
vt 0.356587 0.047685
vt 0.353683 0.047603
vt 0.349839 0.433233
vt 0.346953 0.433217
vt 0.357436 0.017111
vt 0.354426 0.017326
vt 0.349994 0.403488
vt 0.347109 0.403466
vt 0.356456 0.940965
vt 0.357113 0.971907
vt 0.354154 0.971674
vt 0.353558 0.941033
vt 0.350209 0.373757
vt 0.347326 0.37373
vt 0.355593 0.91098
vt 0.352687 0.911058
vt 0.350485 0.344042
vt 0.347603 0.344009
vt 0.354776 0.881028
vt 0.351872 0.8811
vt 0.350821 0.314342
vt 0.347941 0.314303
vt 0.354022 0.851088
vt 0.351118 0.851154
vt 0.351216 0.284657
vt 0.348338 0.284611
vt 0.353328 0.821159
vt 0.350425 0.821219
vt 0.351672 0.254986
vt 0.348795 0.254935
vt 0.352695 0.791242
vt 0.349793 0.791296
vt 0.352188 0.225331
vt 0.349312 0.225274
vt 0.352123 0.761337
vt 0.349223 0.761386
vt 0.352764 0.19569
vt 0.349889 0.195627
vt 0.349968 0.58217
vt 0.347075 0.582184
vt 0.351612 0.731444
vt 0.348713 0.731487
vt 0.353399 0.166065
vt 0.350526 0.165996
vt 0.349821 0.552355
vt 0.34693 0.552363
vt 0.351161 0.701564
vt 0.348264 0.701601
vt 0.908902 0.69745
vt 0.899139 0.729067
vt 0.895132 0.72772
vt 0.904837 0.696289
vt 0.771386 0.959182
vt 0.749625 0.984936
vt 0.745975 0.982402
vt 0.768083 0.956475
vt 0.861308 0.182021
vt 0.875332 0.211995
vt 0.87146 0.213691
vt 0.857518 0.183894
vt 0.771415 0.043515
vt 0.791892 0.069511
vt 0.788508 0.072045
vt 0.768147 0.046163
vt 0.933133 0.567497
vt 0.929327 0.600371
vt 0.925141 0.599781
vt 0.928923 0.567101
vt 0.811173 0.09641
vt 0.829195 0.124167
vt 0.825592 0.126381
vt 0.807676 0.098788
vt 0.887961 0.242582
vt 0.899168 0.273719
vt 0.895155 0.275052
vt 0.884015 0.244099
vt 0.924013 0.633034
vt 0.919858 0.632252
vt 0.845918 0.152725
vt 0.842218 0.15477
vt 0.829171 0.878579
vt 0.811155 0.906322
vt 0.807669 0.903934
vt 0.825578 0.876354
vt 0.908928 0.305339
vt 0.917222 0.337375
vt 0.913104 0.338332
vt 0.904859 0.306485
vt 0.791881 0.933205
vt 0.788508 0.930658
vt 0.924032 0.369759
vt 0.919874 0.370526
vt 0.929342 0.402423
vt 0.925154 0.402998
vt 0.933143 0.435298
vt 0.928932 0.435679
vt 0.749867 0.017707
vt 0.7463 0.020134
vt 0.935426 0.468313
vt 0.936185 0.501398
vt 0.931957 0.50139
vt 0.931202 0.4685
vt 0.917199 0.665416
vt 0.913085 0.664444
vt 0.93542 0.534483
vt 0.931197 0.534281
vt 0.887931 0.760199
vt 0.883991 0.758669
vt 0.875302 0.790781
vt 0.861279 0.820747
vt 0.857496 0.818861
vt 0.871436 0.789071
vt 0.84589 0.850034
vt 0.842198 0.847976
vt 0.825592 0.126381
vt 0.842218 0.15477
vt 0.836286 0.158108
vt 0.81982 0.129989
vt 0.87146 0.213691
vt 0.884015 0.244099
vt 0.87768 0.246587
vt 0.865246 0.216469
vt 0.857518 0.183894
vt 0.851439 0.186955
vt 0.895155 0.275052
vt 0.904859 0.306485
vt 0.898321 0.308381
vt 0.888712 0.277246
vt 0.913104 0.338332
vt 0.919874 0.370526
vt 0.91319 0.371812
vt 0.906486 0.339925
vt 0.925154 0.402998
vt 0.928932 0.435679
vt 0.922158 0.436344
vt 0.918417 0.403975
vt 0.931202 0.4685
vt 0.931957 0.50139
vt 0.92515 0.501429
vt 0.924404 0.468852
vt 0.913085 0.664444
vt 0.904837 0.696289
vt 0.898279 0.69447
vt 0.906449 0.662928
vt 0.931197 0.534281
vt 0.928923 0.567101
vt 0.922142 0.566513
vt 0.924396 0.534006
vt 0.895132 0.72772
vt 0.883991 0.758669
vt 0.877628 0.756254
vt 0.888665 0.7256
vt 0.919858 0.632252
vt 0.913159 0.631043
vt 0.857496 0.818861
vt 0.842198 0.847976
vt 0.83623 0.844708
vt 0.851383 0.815871
vt 0.871436 0.789071
vt 0.865192 0.786366
vt 0.825578 0.876354
vt 0.819767 0.872814
vt 0.925141 0.599781
vt 0.918394 0.598882
vt 0.807669 0.903934
vt 0.788508 0.930658
vt 0.783049 0.9266
vt 0.802027 0.900131
vt 0.768083 0.956475
vt 0.745975 0.982402
vt 0.740545 0.977664
vt 0.762829 0.952196
vt 0.768147 0.046163
vt 0.788508 0.072045
vt 0.783091 0.076167
vt 0.762922 0.050496
vt 0.7463 0.020134
vt 0.740775 0.024789
vt 0.807676 0.098788
vt 0.802077 0.102658
vt 0.891827 0.310224
vt 0.899914 0.341468
vt 0.895527 0.342488
vt 0.887492 0.311446
vt 0.91173 0.404906
vt 0.915435 0.436967
vt 0.91095 0.437373
vt 0.907268 0.405518
vt 0.906553 0.37305
vt 0.902124 0.373868
vt 0.917659 0.469165
vt 0.918399 0.501431
vt 0.913895 0.501422
vt 0.91316 0.469364
vt 0.899876 0.661388
vt 0.891784 0.692629
vt 0.887453 0.691392
vt 0.895494 0.660352
vt 0.917651 0.533697
vt 0.915419 0.565894
vt 0.910935 0.565471
vt 0.913153 0.533481
vt 0.882262 0.723462
vt 0.87133 0.753824
vt 0.867133 0.752194
vt 0.877993 0.722027
vt 0.906522 0.629807
vt 0.902096 0.628974
vt 0.845336 0.812872
vt 0.830328 0.841433
vt 0.826396 0.839241
vt 0.841306 0.810863
vt 0.859013 0.783648
vt 0.854895 0.781827
vt 0.814022 0.869272
vt 0.810195 0.866901
vt 0.911707 0.597953
vt 0.907247 0.597324
vt 0.796452 0.896328
vt 0.777656 0.922545
vt 0.774063 0.919832
vt 0.792738 0.893783
vt 0.757663 0.947908
vt 0.735735 0.972538
vt 0.732615 0.969145
vt 0.7542 0.944994
vt 0.757685 0.054842
vt 0.777697 0.08023
vt 0.774092 0.082934
vt 0.754195 0.057751
vt 0.735775 0.029973
vt 0.732615 0.03337
vt 0.796501 0.106466
vt 0.814075 0.133536
vt 0.810238 0.135894
vt 0.792776 0.108998
vt 0.830384 0.161387
vt 0.845392 0.189958
vt 0.841354 0.191953
vt 0.826442 0.163566
vt 0.859067 0.21919
vt 0.871382 0.249021
vt 0.867178 0.250636
vt 0.854942 0.220997
vt 0.88231 0.279387
vt 0.878036 0.280807
vt 0.906486 0.339925
vt 0.91319 0.371812
vt 0.87768 0.246587
vt 0.888712 0.277246
vt 0.898321 0.308381
vt 0.851439 0.186955
vt 0.865246 0.216469
vt 0.81982 0.129989
vt 0.836286 0.158108
vt 0.783091 0.076167
vt 0.802077 0.102658
vt 0.740775 0.024789
vt 0.762922 0.050496
vt 0.783049 0.9266
vt 0.762829 0.952196
vt 0.740545 0.977664
vt 0.819767 0.872814
vt 0.802027 0.900131
vt 0.922142 0.566513
vt 0.918394 0.598882
vt 0.913159 0.631043
vt 0.898279 0.69447
vt 0.888665 0.7256
vt 0.83623 0.844708
vt 0.877628 0.756254
vt 0.865192 0.786366
vt 0.92515 0.501429
vt 0.924396 0.534006
vt 0.851383 0.815871
vt 0.906449 0.662928
vt 0.922158 0.436344
vt 0.924404 0.468852
vt 0.918417 0.403975
vt 0.393071 0.631173
vt 0.393294 0.660624
vt 0.388175 0.660636
vt 0.387953 0.631208
vt 0.396199 0.806376
vt 0.397235 0.835178
vt 0.392253 0.83534
vt 0.391172 0.80649
vt 0.39562 0.777391
vt 0.390584 0.777459
vt 0.392343 0.511966
vt 0.39224 0.541904
vt 0.387035 0.54186
vt 0.38714 0.511943
vt 0.395081 0.748424
vt 0.390046 0.748514
vt 0.398326 0.86373
vt 0.393377 0.863872
vt 0.393558 0.690094
vt 0.394288 0.719384
vt 0.389222 0.719493
vt 0.388447 0.690153
vt 0.392591 0.601645
vt 0.38744 0.601699
vt 0.399157 0.892202
vt 0.399971 0.920647
vt 0.395056 0.920782
vt 0.394211 0.892317
vt 0.392177 0.571863
vt 0.386981 0.571867
vt 0.400948 0.948759
vt 0.400821 0.9763
vt 0.396176 0.975884
vt 0.396133 0.948821
vt 0.400948 0.047045
vt 0.39997 0.07909
vt 0.394423 0.078902
vt 0.395359 0.046979
vt 0.400393 0.015325
vt 0.394909 0.015907
vt 0.399125 0.110899
vt 0.398275 0.142427
vt 0.392813 0.142226
vt 0.393628 0.110726
vt 0.397133 0.173857
vt 0.396028 0.205308
vt 0.390572 0.205131
vt 0.391671 0.17363
vt 0.395427 0.236591
vt 0.394905 0.26761
vt 0.38953 0.267468
vt 0.390018 0.236469
vt 0.394116 0.298538
vt 0.393369 0.329488
vt 0.388 0.329373
vt 0.38874 0.298373
vt 0.393117 0.360266
vt 0.39294 0.390784
vt 0.387651 0.390703
vt 0.387794 0.360204
vt 0.392499 0.421215
vt 0.3921 0.451667
vt 0.386818 0.451613
vt 0.387209 0.421111
vt 0.392186 0.481945
vt 0.38695 0.481942
vt 0.984701 0.614331
vt 0.984794 0.646969
vt 0.978195 0.641898
vt 0.975683 0.613854
vt 0.984811 0.676526
vt 0.978139 0.676088
vt 0.980904 0.705639
vt 0.973803 0.709715
vt 0.976318 0.73752
vt 0.96725 0.736606
vt 0.974841 0.770427
vt 0.968433 0.764998
vt 0.973437 0.800224
vt 0.966733 0.799462
vt 0.968098 0.829385
vt 0.960744 0.833153
vt 0.961942 0.861305
vt 0.952844 0.859947
vt 0.95888 0.894414
vt 0.952675 0.888636
vt 0.956091 0.924383
vt 0.949374 0.92334
vt 0.949595 0.953551
vt 0.941179 0.957751
vt 0.944543 0.985897
vt 0.934014 0.992574
vt 0.942149 0.016526
vt 0.947493 0.046391
vt 0.939512 0.042708
vt 0.932188 0.010354
vt 0.95438 0.074358
vt 0.948027 0.075449
vt 0.957344 0.102347
vt 0.951679 0.107726
vt 0.960286 0.132967
vt 0.951664 0.134163
vt 0.966335 0.163836
vt 0.959164 0.160242
vt 0.971751 0.191803
vt 0.965357 0.192607
vt 0.973371 0.220067
vt 0.967396 0.225221
vt 0.974855 0.251075
vt 0.966106 0.251866
vt 0.979469 0.282485
vt 0.972412 0.278518
vt 0.983583 0.310939
vt 0.977099 0.311443
vt 0.983857 0.339511
vt 0.977586 0.344419
vt 0.983862 0.370842
vt 0.975004 0.371219
vt 0.987003 0.40273
vt 0.98008 0.39839
vt 0.989782 0.431613
vt 0.983221 0.431808
vt 0.988684 0.46043
vt 0.982126 0.465076
vt 0.987182 0.492015
vt 0.978234 0.491969
vt 0.988815 0.524313
vt 0.982044 0.519605
vt 0.990227 0.553564
vt 0.983603 0.553445
vt 0.987734 0.582562
vt 0.9809 0.586931
vt 0.989022 0.582682
vt 0.985909 0.614393
vt 0.984701 0.614331
vt 0.987734 0.582562
vt 0.991456 0.553581
vt 0.990227 0.553564
vt 0.989918 0.524255
vt 0.991456 0.553581
vt 0.990227 0.553564
vt 0.988815 0.524313
vt 0.98838 0.492019
vt 0.987182 0.492015
vt 0.989963 0.460488
vt 0.98838 0.492019
vt 0.987182 0.492015
vt 0.988684 0.46043
vt 0.990999 0.431572
vt 0.989782 0.431613
vt 0.988092 0.40262
vt 0.990999 0.431572
vt 0.989782 0.431613
vt 0.987003 0.40273
vt 0.985048 0.370789
vt 0.983862 0.370842
vt 0.985126 0.339508
vt 0.985048 0.370789
vt 0.983862 0.370842
vt 0.983857 0.339511
vt 0.984786 0.310842
vt 0.983583 0.310939
vt 0.980541 0.282326
vt 0.984786 0.310842
vt 0.983583 0.310939
vt 0.979469 0.282485
vt 0.976026 0.250967
vt 0.974855 0.251075
vt 0.974627 0.220004
vt 0.976026 0.250967
vt 0.974855 0.251075
vt 0.973371 0.220067
vt 0.972936 0.191649
vt 0.971751 0.191803
vt 0.967389 0.163627
vt 0.972936 0.191649
vt 0.971751 0.191803
vt 0.966335 0.163836
vt 0.96144 0.132804
vt 0.960286 0.132967
vt 0.958586 0.102226
vt 0.96144 0.132804
vt 0.960286 0.132967
vt 0.957344 0.102347
vt 0.955559 0.074147
vt 0.95438 0.074358
vt 0.948643 0.046141
vt 0.955559 0.074147
vt 0.95438 0.074358
vt 0.947493 0.046391
vt 0.943253 0.016239
vt 0.942149 0.016526
vt 0.9509 0.953807
vt 0.945734 0.986181
vt 0.944543 0.985897
vt 0.949595 0.953551
vt 0.957337 0.924573
vt 0.956091 0.924383
vt 0.960011 0.894516
vt 0.957337 0.924573
vt 0.956091 0.924383
vt 0.95888 0.894414
vt 0.96316 0.861484
vt 0.961942 0.861305
vt 0.969391 0.829632
vt 0.96316 0.861484
vt 0.961942 0.861305
vt 0.968098 0.829385
vt 0.974682 0.800361
vt 0.973437 0.800224
vt 0.975965 0.770475
vt 0.974682 0.800361
vt 0.973437 0.800224
vt 0.974841 0.770427
vt 0.977532 0.73764
vt 0.976318 0.73752
vt 0.982195 0.705822
vt 0.977532 0.73764
vt 0.976318 0.73752
vt 0.980904 0.705639
vt 0.986049 0.676602
vt 0.984811 0.676526
vt 0.985908 0.646964
vt 0.986049 0.676602
vt 0.984811 0.676526
vt 0.984794 0.646969
vt 0.985909 0.614393
vt 0.984701 0.614331
vt 0.486467 0.365937
vt 0.486249 0.337068
vt 0.589688 0.33479
vt 0.614725 0.363628
vt 0.485982 0.308114
vt 0.571904 0.306014
vt 0.485221 0.279333
vt 0.587732 0.276661
vt 0.484413 0.250864
vt 0.61055 0.247201
vt 0.483886 0.22247
vt 0.585609 0.219106
vt 0.483308 0.193992
vt 0.567803 0.190994
vt 0.482248 0.165692
vt 0.583055 0.161948
vt 0.481146 0.137703
vt 0.605181 0.132718
vt 0.480327 0.1098
vt 0.580341 0.105355
vt 0.479499 0.081877
vt 0.562519 0.077894
vt 0.478443 0.054372
vt 0.57717 0.048996
vt 0.4784 0.027824
vt 0.598781 0.01859
vt 0.479643 0.96952
vt 0.479201 0.93904
vt 0.590616 0.942875
vt 0.615867 0.976621
vt 0.48012 0.907725
vt 0.573212 0.910622
vt 0.4809 0.876506
vt 0.592132 0.879755
vt 0.481699 0.845607
vt 0.618629 0.84919
vt 0.48282 0.814801
vt 0.593278 0.817244
vt 0.483897 0.783899
vt 0.575661 0.785707
vt 0.484441 0.753159
vt 0.59393 0.755137
vt 0.48492 0.722749
vt 0.619661 0.724784
vt 0.485695 0.692433
vt 0.594376 0.693636
vt 0.48642 0.662023
vt 0.576704 0.662805
vt 0.486622 0.631779
vt 0.594343 0.632537
vt 0.486763 0.601862
vt 0.619324 0.6024
vt 0.487196 0.572032
vt 0.594114 0.572036
vt 0.48758 0.542112
vt 0.576397 0.541901
vt 0.487451 0.51236
vt 0.593419 0.511936
vt 0.487264 0.48293
vt 0.617664 0.482021
vt 0.487367 0.453583
vt 0.592537 0.452427
vt 0.48742 0.424148
vt 0.574783 0.422977
vt 0.486969 0.394884
vt 0.591201 0.393317
vt 0.176589 0.941388
vt 0.297778 0.731714
vt 0.325021 0.745968
vt 0.203832 0.955643
vt 0.180632 0.519753
vt 0.059443 0.729428
vt 0.033493 0.712937
vt 0.154682 0.503262
vt 0.297778 0.731714
vt 0.180632 0.519753
vt 0.206894 0.503763
vt 0.32404 0.715723
vt 0.059443 0.729428
vt 0.176589 0.941388
vt 0.149077 0.955117
vt 0.031932 0.743157
vt 0.176589 0.941388
vt 0.297778 0.731714
vt 0.325021 0.745968
vt 0.203832 0.955643
vt 0.180632 0.519753
vt 0.059443 0.729428
vt 0.033493 0.712937
vt 0.154682 0.503262
vt 0.297778 0.731714
vt 0.180632 0.519753
vt 0.206894 0.503763
vt 0.32404 0.715723
vt 0.059443 0.729428
vt 0.176589 0.941388
vt 0.149077 0.955117
vt 0.031932 0.743157
vt 0.176589 0.941388
vt 0.297778 0.731714
vt 0.325021 0.745968
vt 0.203832 0.955643
vt 0.180632 0.519753
vt 0.059443 0.729428
vt 0.033493 0.712937
vt 0.154682 0.503262
vt 0.297778 0.731714
vt 0.180632 0.519753
vt 0.206894 0.503763
vt 0.32404 0.715723
vt 0.059443 0.729428
vt 0.176589 0.941388
vt 0.149077 0.955117
vt 0.031932 0.743157
vt 0.176589 0.941388
vt 0.297778 0.731714
vt 0.325021 0.745968
vt 0.203832 0.955643
vt 0.180632 0.519753
vt 0.059443 0.729428
vt 0.033493 0.712937
vt 0.154682 0.503262
vt 0.297778 0.731714
vt 0.180632 0.519753
vt 0.206894 0.503763
vt 0.32404 0.715723
vt 0.059443 0.729428
vt 0.176589 0.941388
vt 0.149077 0.955117
vt 0.031932 0.743157
vt 0.176589 0.941388
vt 0.297778 0.731714
vt 0.325021 0.745968
vt 0.203832 0.955643
vt 0.180632 0.519753
vt 0.059443 0.729428
vt 0.033493 0.712937
vt 0.154682 0.503262
vt 0.297778 0.731714
vt 0.180632 0.519753
vt 0.206894 0.503763
vt 0.32404 0.715723
vt 0.059443 0.729428
vt 0.176589 0.941388
vt 0.149077 0.955117
vt 0.031932 0.743157
vt 0.176589 0.941388
vt 0.297778 0.731714
vt 0.325021 0.745968
vt 0.203832 0.955643
vt 0.180632 0.519753
vt 0.059443 0.729428
vt 0.033493 0.712937
vt 0.154682 0.503262
vt 0.297778 0.731714
vt 0.180632 0.519753
vt 0.206894 0.503763
vt 0.32404 0.715723
vt 0.059443 0.729428
vt 0.176589 0.941388
vt 0.149077 0.955117
vt 0.031932 0.743157
vt 0.176589 0.941388
vt 0.297778 0.731714
vt 0.325021 0.745968
vt 0.203832 0.955643
vt 0.180632 0.519753
vt 0.059443 0.729428
vt 0.033493 0.712937
vt 0.154682 0.503262
vt 0.297778 0.731714
vt 0.180632 0.519753
vt 0.206894 0.503763
vt 0.32404 0.715723
vt 0.059443 0.729428
vt 0.176589 0.941388
vt 0.149077 0.955117
vt 0.031932 0.743157
vt 0.176589 0.941388
vt 0.297778 0.731714
vt 0.325021 0.745968
vt 0.203832 0.955643
vt 0.180632 0.519753
vt 0.059443 0.729428
vt 0.033493 0.712937
vt 0.154682 0.503262
vt 0.297778 0.731714
vt 0.180632 0.519753
vt 0.206894 0.503763
vt 0.32404 0.715723
vt 0.059443 0.729428
vt 0.176589 0.941388
vt 0.149077 0.955117
vt 0.031932 0.743157
vn -0.443105 -0.103201 -0.89051
vn -0.431883 0.121095 -0.893764
vn -0.443105 -0.103201 -0.89051
vn 0.443105 -0.103201 -0.89051
vn 0.431911 -0.322408 -0.842322
vn 0.443105 -0.103201 -0.89051
vn -0.431911 -0.322408 -0.842322
vn 0.431882 0.121095 -0.893764
vn -0.944989 -0.103199 -0.310396
vn -0.939437 0.121105 -0.320612
vn -0.944989 -0.103199 -0.310396
vn -0.322299 -0.1032 -0.940996
vn -0.295891 -0.32239 -0.899173
vn -0.322299 -0.1032 -0.940996
vn -0.902832 -0.322411 -0.28451
vn -0.332499 0.1211 -0.935296
vn -0.888106 -0.103201 0.447903
vn -0.891376 0.121097 0.436788
vn -0.888106 -0.103201 0.447903
vn -0.892927 -0.103203 -0.438213
vn -0.844681 -0.322393 -0.42729
vn -0.892927 -0.103203 -0.438213
vn -0.839969 -0.322388 0.436484
vn -0.896105 0.121101 -0.427002
vn -0.311388 -0.103196 0.944663
vn -0.3216 0.1211 0.9391
vn -0.311388 -0.103196 0.944663
vn -0.941303 -0.1032 0.321401
vn -0.89947 -0.322389 0.29499
vn -0.941303 -0.1032 0.321401
vn -0.28548 -0.322378 0.902537
vn -0.935645 0.121106 0.331516
vn 0.448223 -0.103205 0.887944
vn 0.437109 0.121102 0.891218
vn 0.448223 -0.103205 0.887944
vn -0.437892 -0.103198 0.893085
vn -0.427009 -0.322407 0.844818
vn -0.437892 -0.103198 0.893085
vn 0.4368 -0.3224 0.8398
vn -0.426719 0.121105 0.896239
vn 0.944722 -0.103202 0.311207
vn 0.939172 0.121096 0.32139
vn 0.944722 -0.103202 0.311207
vn 0.321611 -0.103203 0.941231
vn 0.295199 -0.322399 0.899398
vn 0.321611 -0.103203 0.941231
vn 0.902615 -0.322405 0.285205
vn 0.331783 0.121094 0.935551
vn 0.888448 -0.103206 -0.447224
vn 0.89171 0.121101 -0.436105
vn 0.888448 -0.103206 -0.447224
vn 0.892592 -0.103199 0.438896
vn 0.844313 -0.322405 0.428007
vn 0.892592 -0.103199 0.438896
vn 0.840314 -0.322405 -0.435807
vn 0.895778 0.121097 0.427689
vn 0.312108 -0.103203 -0.944425
vn 0.322408 0.121103 -0.938822
vn 0.312108 -0.103203 -0.944425
vn 0.941579 -0.103198 -0.320593
vn 0.899694 -0.322398 -0.294298
vn 0.941579 -0.103198 -0.320593
vn 0.2862 -0.3224 -0.902301
vn 0.935899 0.1211 -0.3308
vn 0.900614 -0.222904 0.373106
vn 0.6713 -0.2167 0.7088
vn 0.741954 -0.217587 0.634161
vn 0.900614 -0.222904 0.373106
vn -0.690511 -0.215703 -0.690411
vn -0.7088 -0.2167 -0.6713
vn -0.634388 -0.217496 -0.741786
vn -0.690511 -0.215703 -0.690411
vn 0.97588 -0.216695 -0.0265
vn 0.973097 -0.217499 0.076
vn -0.67137 -0.21659 -0.708768
vn -0.690411 -0.215703 -0.690511
vn -0.690411 -0.215703 -0.690511
vn -0.741954 -0.217587 -0.634161
vn 0.976436 -0.215808 0
vn 0.976462 -0.215692 0
vn -0.900614 -0.222904 -0.373106
vn -0.900614 -0.222904 -0.373106
vn 0.975901 -0.2166 0.0265
vn 0.973119 -0.217504 -0.075702
vn -0.97588 -0.216695 0.0265
vn -0.973097 -0.217499 -0.076
vn 0.900614 -0.222904 -0.373106
vn 0.900614 -0.222904 -0.373106
vn -0.976436 -0.215808 0
vn -0.976462 -0.215692 0
vn 0.6713 -0.2167 -0.7088
vn 0.741786 -0.217496 -0.634388
vn -0.97588 -0.216695 -0.026499
vn -0.973061 -0.217591 0.076197
vn 0.690463 -0.215688 -0.690463
vn 0.690463 -0.215688 -0.690463
vn -0.900614 -0.222904 0.373106
vn -0.900648 -0.222912 0.37302
vn 0.7088 -0.2167 -0.6713
vn 0.634161 -0.217587 -0.741954
vn -0.6713 -0.2167 0.7088
vn -0.741786 -0.217496 0.634388
vn 0.373106 -0.222904 -0.900614
vn 0.373106 -0.222904 -0.900614
vn -0.0265 -0.2166 0.975901
vn 0 -0.215808 0.976436
vn 0 -0.215692 0.976462
vn 0.076197 -0.217591 0.973061
vn -0.690463 -0.215688 0.690463
vn -0.690396 -0.215799 0.690496
vn -0.0265 -0.216695 -0.97588
vn 0.076 -0.217499 -0.973097
vn 0.373106 -0.222904 0.900614
vn 0.373098 -0.222999 0.900594
vn -0.708768 -0.21659 0.671369
vn -0.634161 -0.217587 0.741954
vn 0 -0.215808 -0.976436
vn 0 -0.215692 -0.976462
vn 0.7088 -0.2167 0.6713
vn 0.634388 -0.217496 0.741786
vn -0.37302 -0.222912 0.900648
vn -0.373106 -0.222904 0.900614
vn 0.026499 -0.216695 -0.97588
vn -0.076197 -0.217591 -0.973061
vn 0.690496 -0.215799 0.690396
vn 0.690463 -0.215688 0.690463
vn 0.0265 -0.216695 0.97588
vn -0.0759 -0.217501 0.973105
vn -0.372986 -0.222892 -0.900667
vn -0.372986 -0.222892 -0.900667
vn -0.610505 -0.783707 0.114401
vn -0.684804 -0.725604 0.0674
vn -0.684799 -0.725599 0.0675
vn -0.609979 -0.784073 0.114696
vn 0.436593 -0.725588 0.531891
vn 0.350799 -0.783698 0.512599
vn 0.350199 -0.784097 0.512398
vn 0.436593 -0.725588 0.531891
vn -0.610505 -0.783707 -0.114401
vn -0.528823 -0.833436 -0.160407
vn -0.528823 -0.833436 -0.160407
vn -0.610027 -0.784034 -0.114705
vn -0.528823 -0.833436 0.160407
vn -0.528823 -0.833436 0.160407
vn -0.512599 -0.783698 -0.350799
vn -0.531891 -0.725588 -0.436593
vn -0.531915 -0.72562 -0.436512
vn -0.512398 -0.784097 -0.350199
vn -0.684804 -0.725604 -0.0674
vn -0.684799 -0.725599 -0.0675
vn 0.512599 -0.783698 -0.350799
vn 0.487406 -0.833411 -0.260503
vn 0.487406 -0.833411 -0.260503
vn 0.512398 -0.784097 -0.350199
vn -0.487406 -0.833411 -0.260503
vn -0.487406 -0.833411 -0.260503
vn 0.610505 -0.783707 -0.114401
vn 0.684804 -0.725604 -0.0674
vn 0.684799 -0.725599 -0.0675
vn 0.609979 -0.784073 -0.114696
vn 0.531891 -0.725588 -0.436593
vn 0.531891 -0.725588 -0.436593
vn 0.610505 -0.783707 0.114401
vn 0.528823 -0.833436 0.160407
vn 0.528823 -0.833436 0.160407
vn 0.609979 -0.784073 0.114696
vn 0.528823 -0.833436 -0.160407
vn 0.528823 -0.833436 -0.160407
vn -0.350799 -0.783698 0.512599
vn -0.436593 -0.725588 0.531891
vn -0.436512 -0.72562 0.531915
vn -0.350199 -0.784097 0.512398
vn 0.684804 -0.725604 0.0674
vn 0.684799 -0.725599 0.0675
vn -0.512599 -0.783698 0.350799
vn -0.487406 -0.833411 0.260503
vn -0.487406 -0.833411 0.260503
vn -0.512398 -0.784097 0.350199
vn -0.260516 -0.833451 0.48733
vn -0.260503 -0.833411 0.487406
vn -0.531891 -0.725588 0.436593
vn -0.531891 -0.725588 0.436593
vn 0.114401 -0.783707 -0.610505
vn 0.160407 -0.833436 -0.528823
vn 0.160407 -0.833436 -0.528823
vn 0.114696 -0.784073 -0.609979
vn 0.350799 -0.783698 -0.512599
vn 0.436593 -0.725588 -0.531891
vn 0.436512 -0.72562 -0.531915
vn 0.350199 -0.784097 -0.512398
vn 0.0674 -0.725604 -0.684804
vn 0.0675 -0.725599 -0.684799
vn 0.260516 -0.833451 -0.48733
vn 0.260503 -0.833411 -0.487406
vn 0.114401 -0.783707 0.610505
vn 0.0674 -0.725604 0.684804
vn 0.0675 -0.725599 0.684799
vn 0.114696 -0.784073 0.609979
vn -0.114401 -0.783707 0.610505
vn -0.160407 -0.833436 0.528823
vn -0.160407 -0.833436 0.528823
vn -0.114696 -0.784073 0.609979
vn 0.160407 -0.833436 0.528823
vn 0.160407 -0.833436 0.528823
vn -0.0674 -0.725604 0.684804
vn -0.0675 -0.725599 0.684799
vn -0.350799 -0.783698 -0.512599
vn -0.260503 -0.833411 -0.487406
vn -0.260503 -0.833411 -0.487406
vn -0.350199 -0.784097 -0.512398
vn -0.114401 -0.783707 -0.610505
vn -0.0674 -0.725604 -0.684804
vn -0.0675 -0.725599 -0.684799
vn -0.114696 -0.784073 -0.609979
vn -0.436593 -0.725588 -0.531891
vn -0.436593 -0.725588 -0.531891
vn -0.160407 -0.833436 -0.528823
vn -0.160407 -0.833436 -0.528823
vn 0.512599 -0.783698 0.350799
vn 0.531891 -0.725588 0.436593
vn 0.531915 -0.72562 0.436512
vn 0.512398 -0.784097 0.350199
vn 0.260503 -0.833411 0.487406
vn 0.260503 -0.833411 0.487406
vn 0.48733 -0.833451 0.260516
vn 0.487406 -0.833411 0.260503
vn 0.699491 -0.145898 0.69959
vn 0.574589 -0.178297 0.798785
vn 0.545899 -0.1862 0.816899
vn 0.694739 -0.186211 0.694739
vn -0.158504 -0.178305 0.971125
vn -0.374007 -0.211804 0.902916
vn -0.376006 -0.186203 0.907716
vn -0.191705 -0.186205 0.963627
vn -0.374007 -0.211804 -0.902916
vn -0.158504 -0.178305 -0.971125
vn -0.191705 -0.186205 -0.963627
vn -0.376007 -0.186203 -0.907716
vn 0.798785 -0.178297 0.574589
vn 0.816899 -0.1862 0.545899
vn 0 -0.1459 0.989299
vn 0 -0.186202 0.982511
vn -0.574589 -0.178297 -0.798785
vn -0.545899 -0.1862 -0.816899
vn 0.902916 -0.211804 0.374007
vn 0.907716 -0.186203 0.376006
vn -0.699491 -0.145898 -0.69959
vn -0.694739 -0.186211 -0.694739
vn 0.971125 -0.178305 0.158504
vn 0.963627 -0.186205 0.191705
vn -0.798785 -0.178297 -0.574589
vn -0.69954 -0.145908 -0.699539
vn -0.694739 -0.186211 -0.694739
vn -0.816899 -0.1862 -0.545899
vn 0.989299 -0.1459 0
vn 0.982511 -0.186202 0
vn -0.902916 -0.211804 -0.374007
vn -0.907716 -0.186203 -0.376006
vn 0.971125 -0.178305 -0.158504
vn 0.963627 -0.186205 -0.191705
vn -0.971125 -0.178305 -0.158504
vn -0.963627 -0.186205 -0.191705
vn 0.902916 -0.211804 -0.374007
vn 0.907716 -0.186203 -0.376007
vn -0.989299 -0.1459 0
vn -0.982511 -0.186202 0
vn 0.798785 -0.178297 -0.574589
vn 0.816899 -0.1862 -0.545899
vn -0.971125 -0.178305 0.158504
vn -0.963627 -0.186205 0.191705
vn 0.69959 -0.145898 -0.699491
vn 0.694739 -0.186211 -0.694739
vn -0.902916 -0.211804 0.374007
vn -0.907716 -0.186203 0.376007
vn 0.574589 -0.178297 -0.798785
vn 0.545899 -0.1862 -0.816899
vn -0.798785 -0.178297 0.574589
vn -0.816899 -0.1862 0.545899
vn 0.374007 -0.211804 -0.902916
vn 0.376006 -0.186203 -0.907716
vn 0.158504 -0.178305 0.971125
vn 0.191705 -0.186205 0.963627
vn -0.69959 -0.145898 0.699491
vn -0.694739 -0.186211 0.694739
vn 0.158504 -0.178305 -0.971125
vn 0.191705 -0.186205 -0.963627
vn 0.374007 -0.211804 0.902916
vn 0.376007 -0.186203 0.907716
vn -0.574589 -0.178297 0.798785
vn -0.545899 -0.1862 0.816899
vn 0 -0.1459 -0.989299
vn 0 -0.186202 -0.982511
vn 0.685107 0.725308 -0.067501
vn 0.610782 0.783477 -0.114497
vn 0.610304 0.783805 -0.114801
vn 0.68516 0.725258 -0.067496
vn -0.351003 0.783407 -0.512904
vn -0.43678 0.725267 -0.532176
vn -0.43678 0.725267 -0.532176
vn -0.350403 0.783806 -0.512704
vn 0.529119 0.833229 0.160506
vn 0.61083 0.783438 0.114506
vn 0.610304 0.783805 0.114801
vn 0.529119 0.833229 0.160506
vn 0.529119 0.833229 -0.160506
vn 0.529119 0.833229 -0.160506
vn 0.532176 0.725267 0.43678
vn 0.512864 0.783445 0.350975
vn 0.512704 0.783806 0.350403
vn 0.532176 0.725267 0.43678
vn 0.685107 0.725308 0.067501
vn 0.685107 0.725308 0.067501
vn -0.487703 0.833206 0.260602
vn -0.512904 0.783407 0.351003
vn -0.512704 0.783806 0.350403
vn -0.487703 0.833206 0.260602
vn 0.487703 0.833206 0.260602
vn 0.487615 0.833225 0.260708
vn -0.685107 0.725308 0.067501
vn -0.610782 0.783477 0.114497
vn -0.610304 0.783805 0.114801
vn -0.68516 0.725258 0.067496
vn -0.532176 0.725267 0.43678
vn -0.532176 0.725267 0.43678
vn -0.529119 0.833229 -0.160506
vn -0.61083 0.783438 -0.114506
vn -0.610304 0.783805 -0.114801
vn -0.529119 0.833229 -0.160506
vn -0.529119 0.833229 0.160506
vn -0.529119 0.833229 0.160506
vn 0.43678 0.725267 -0.532176
vn 0.350975 0.783445 -0.512864
vn 0.350403 0.783806 -0.512704
vn 0.43678 0.725267 -0.532176
vn -0.685107 0.725308 -0.067501
vn -0.685107 0.725308 -0.067501
vn 0.487703 0.833206 -0.260602
vn 0.512904 0.783407 -0.351003
vn 0.512704 0.783806 -0.350403
vn 0.487703 0.833206 -0.260602
vn 0.260615 0.833247 -0.487627
vn 0.260708 0.833225 -0.487615
vn 0.532176 0.725267 -0.43678
vn 0.532176 0.725267 -0.43678
vn -0.160506 0.833229 0.529119
vn -0.114506 0.783438 0.61083
vn -0.114801 0.783805 0.610304
vn -0.160506 0.833229 0.529119
vn -0.43678 0.725267 0.532176
vn -0.350975 0.783445 0.512864
vn -0.350403 0.783806 0.512704
vn -0.43678 0.725267 0.532176
vn -0.067501 0.725308 0.685107
vn -0.067501 0.725308 0.685107
vn -0.260602 0.833206 0.487703
vn -0.260708 0.833225 0.487615
vn -0.067501 0.725308 -0.685107
vn -0.114497 0.783477 -0.610782
vn -0.114801 0.783805 -0.610304
vn -0.067496 0.725258 -0.68516
vn 0.160506 0.833229 -0.529119
vn 0.114506 0.783438 -0.61083
vn 0.114801 0.783805 -0.610304
vn 0.160506 0.833229 -0.529119
vn -0.160506 0.833229 -0.529119
vn -0.160506 0.833229 -0.529119
vn 0.067501 0.725308 -0.685107
vn 0.067501 0.725308 -0.685107
vn 0.260602 0.833206 0.487703
vn 0.351003 0.783407 0.512904
vn 0.350403 0.783806 0.512704
vn 0.260602 0.833206 0.487703
vn 0.067501 0.725308 0.685107
vn 0.114497 0.783477 0.610782
vn 0.114801 0.783805 0.610304
vn 0.067496 0.725258 0.68516
vn 0.43678 0.725267 0.532176
vn 0.43678 0.725267 0.532176
vn 0.160506 0.833229 0.529119
vn 0.160506 0.833229 0.529119
vn -0.532176 0.725267 -0.43678
vn -0.512864 0.783445 -0.350975
vn -0.512704 0.783806 -0.350403
vn -0.532176 0.725267 -0.43678
vn -0.260602 0.833206 -0.487703
vn -0.260602 0.833206 -0.487703
vn -0.487703 0.833206 -0.260602
vn -0.487615 0.833225 -0.260708
vn 0.555577 0 -0.831465
vn 0.707107 0 -0.707107
vn 0.707107 0 -0.707107
vn 0.555577 0 -0.831465
vn -0.195097 0 0.980784
vn -0.38269 0 0.923877
vn -0.38269 0 0.923877
vn -0.195097 0 0.980784
vn -0.555577 0 -0.831465
vn -0.38269 0 -0.923877
vn -0.38269 0 -0.923877
vn -0.555577 0 -0.831465
vn -0.923877 0 0.38269
vn -0.980784 0 0.195097
vn -0.980784 0 0.195097
vn -0.923877 0 0.38269
vn 0.707107 0 0.707107
vn 0.555577 0 0.831465
vn 0.555577 0 0.831465
vn 0.707107 0 0.707107
vn 0.831465 0 -0.555577
vn 0.831465 0 -0.555577
vn -0.195097 0 -0.980784
vn 0 0 -1
vn 0 0 -1
vn -0.195097 0 -0.980784
vn -1 0 0
vn -1 0 0
vn -0.555577 0 0.831465
vn -0.555577 0 0.831465
vn 0.923877 0 -0.38269
vn 0.923877 0 -0.38269
vn 0.38269 0 0.923877
vn 0.38269 0 0.923877
vn -0.980784 0 -0.195097
vn -0.980784 0 -0.195097
vn 0.195097 0 -0.980784
vn 0.195097 0 -0.980784
vn 0.980784 0 -0.195097
vn 0.980784 0 -0.195097
vn -0.707107 0 0.707107
vn -0.707107 0 0.707107
vn -0.923877 0 -0.38269
vn -0.923877 0 -0.38269
vn 0.195097 0 0.980784
vn 0.195097 0 0.980784
vn 1 0 0
vn 1 0 0
vn 0.38269 0 -0.923877
vn 0.38269 0 -0.923877
vn -0.831465 0 -0.555577
vn -0.831465 0 -0.555577
vn -0.831465 0 0.555577
vn -0.831465 0 0.555577
vn 0.923877 0 0.38269
vn 0.831465 0 0.555577
vn 0.831465 0 0.555577
vn 0.923877 0 0.38269
vn 0.980784 0 0.195097
vn 0.980784 0 0.195097
vn 0 0 1
vn 0 0 1
vn -0.707107 0 -0.707107
vn -0.707107 0 -0.707107
vn -0.707107 0 -0.707107
vn -0.707107 0 -0.707107
vn -0.092999 -0.144098 -0.985184
vn 0 -0.106095 -0.994356
vn -0.371794 -0.236496 0.897685
vn -0.630883 -0.144096 0.76238
vn 0.630883 -0.144096 0.76238
vn 0.37188 -0.236487 0.897652
vn 0.092998 -0.144098 -0.985184
vn -0.703115 -0.106102 0.703115
vn 0.092999 -0.144098 0.985184
vn 0.371794 -0.236496 -0.897685
vn -0.76238 -0.144096 0.630883
vn 0 -0.106095 0.994356
vn 0.630883 -0.144096 -0.76238
vn -0.897652 -0.236487 0.37188
vn 0.703115 -0.106102 -0.703115
vn -0.985184 -0.144098 0.092999
vn 0.76238 -0.144096 -0.630883
vn -0.994356 -0.106095 0
vn 0.897652 -0.236487 -0.37188
vn -0.985184 -0.144098 -0.092998
vn 0.985184 -0.144098 -0.092999
vn -0.897685 -0.236496 -0.371794
vn 0.994356 -0.106095 0
vn -0.76238 -0.144096 -0.630883
vn 0.985184 -0.144098 0.092998
vn -0.703115 -0.106102 -0.703115
vn 0.897685 -0.236496 0.371794
vn -0.703115 -0.106102 -0.703115
vn -0.630883 -0.144096 -0.76238
vn 0.76238 -0.144096 0.630883
vn -0.37188 -0.236487 -0.897652
vn -0.092998 -0.144098 0.985184
vn 0.703115 -0.106102 0.703115
vn 0 1 0
vn 0 1 0
vn 0 1 0
vn 0 1 0
vn 0 1 0
vn 0 1 0
vn 0 1 0
vn 0 1 0
vn 0 1 0
vn 0 1 0
vn 0 1 0
vn 0 1 0
vn 0 1 0
vn 0 1 0
vn 0 1 0
vn 0 1 0
vn 0 1 0
vn 0 1 0
vn 0 1 0
vn 0 1 0
vn 0 1 0
vn 0 1 0
vn 0 1 0
vn 0 1 0
vn 0 1 0
vn 0 1 0
vn 0 1 0
vn 0 1 0
vn 0 1 0
vn 0 1 0
vn 0 1 0
vn 0 1 0
vn 0 1 0
vn 0 1 0
vn 0 1 0
vn 0 1 0
vn 0 1 0
vn 0 1 0
vn 0 1 0
vn 0 1 0
vn 0 1 0
vn 0 1 0
vn 0 1 0
vn 0 1 0
vn 0 1 0
vn 0 1 0
vn 0 1 0
vn 0 1 0
vn 0 1 0
vn 0 1 0
vn 0 1 0
vn 0 1 0
vn 0 1 0
vn 0 1 0
vn 0 1 0
vn 0 1 0
vn 0 1 0
vn 0 1 0
vn 0 1 0
vn 0 1 0
vn 0 1 0
vn 0 1 0
vn 0 1 0
vn 0 1 0
vn 0 1 0
vn 0 1 0
vn 0.38269 0 -0.923877
vn 0.555577 0 -0.831465
vn 0.555577 0 -0.831465
vn 0.38269 0 -0.923877
vn 0.195097 0 0.980784
vn 0 0 1
vn 0 0 1
vn 0.195097 0 0.980784
vn -0.707107 0 0.707107
vn -0.831465 0 0.555577
vn -0.831465 0 0.555577
vn -0.707107 0 0.707107
vn 0.195097 0 -0.980784
vn 0.195097 0 -0.980784
vn 0.38269 0 0.923877
vn 0.38269 0 0.923877
vn -0.555577 0 0.831465
vn -0.555577 0 0.831465
vn 0 0 -1
vn 0 0 -1
vn 0.555577 0 0.831465
vn 0.555577 0 0.831465
vn -0.38269 0 0.923877
vn -0.38269 0 0.923877
vn -0.195097 0 -0.980784
vn -0.195097 0 -0.980784
vn 0.707107 0 0.707107
vn 0.707107 0 0.707107
vn -0.195097 0 0.980784
vn -0.195097 0 0.980784
vn -0.38269 0 -0.923877
vn -0.38269 0 -0.923877
vn 0.831465 0 0.555577
vn 0.831465 0 0.555577
vn -0.555577 0 -0.831465
vn -0.555577 0 -0.831465
vn 0.923877 0 0.38269
vn 0.923877 0 0.38269
vn -0.707107 0 -0.707107
vn -0.707107 0 -0.707107
vn 0.980784 0 0.195097
vn 0.980784 0 0.195097
vn -0.831465 0 -0.555577
vn -0.707107 0 -0.707107
vn -0.707107 0 -0.707107
vn -0.831465 0 -0.555577
vn 1 0 0
vn 1 0 0
vn -0.923877 0 -0.38269
vn -0.923877 0 -0.38269
vn 0.980784 0 -0.195097
vn 0.980784 0 -0.195097
vn -0.980784 0 -0.195097
vn -0.980784 0 -0.195097
vn 0.923877 0 -0.38269
vn 0.923877 0 -0.38269
vn -1 0 0
vn -1 0 0
vn 0.831465 0 -0.555577
vn 0.831465 0 -0.555577
vn -0.980784 0 0.195097
vn -0.980784 0 0.195097
vn 0.707107 0 -0.707107
vn 0.707107 0 -0.707107
vn -0.923877 0 0.38269
vn -0.923877 0 0.38269
vn 0 -1 0
vn 0 -1 0
vn 0 -1 0
vn 0 -1 0
vn 0 -1 0
vn 0 -1 0
vn 0 -1 0
vn 0 -1 0
vn 0 -1 0
vn 0 -1 0
vn 0 -1 0
vn 0 -1 0
vn 0 -1 0
vn 0 -1 0
vn 0 -1 0
vn 0 -1 0
vn 0 -1 0
vn 0 -1 0
vn 0 -1 0
vn 0 -1 0
vn 0 -1 0
vn 0 -1 0
vn 0 -1 0
vn 0 -1 0
vn 0 -1 0
vn 0 -1 0
vn 0 -1 0
vn 0 -1 0
vn 0 -1 0
vn 0 -1 0
vn 0 -1 0
vn 0 -1 0
vn 0 -1 0
vn 0 -1 0
vn 0 -1 0
vn 0 -1 0
vn 0 -1 0
vn 0 -1 0
vn 0 -1 0
vn 0 -1 0
vn 0 -1 0
vn 0 -1 0
vn 0 -1 0
vn 0 -1 0
vn 0 -1 0
vn 0 -1 0
vn 0 -1 0
vn 0 -1 0
vn 0 -1 0
vn 0 -1 0
vn 0 -1 0
vn 0 -1 0
vn 0 -1 0
vn 0 -1 0
vn 0 -1 0
vn 0 -1 0
vn 0 -1 0
vn 0 -1 0
vn 0 -1 0
vn 0 -1 0
vn 0 -1 0
vn 0 -1 0
vn 0 -1 0
vn 0 -1 0
vn 0 -1 0
vn 0 -1 0
vn 0 1 0
vn 0 1 0
vn 0 1 0
vn 0 1 0
vn 0 1 0
vn 0 1 0
vn 0 1 0
vn 0 1 0
vn 0 1 0
vn 0 1 0
vn 0 1 0
vn 0 1 0
vn 0 1 0
vn 0 1 0
vn 0 1 0
vn 0 1 0
vn 0 1 0
vn 0 1 0
vn 0 1 0
vn 0 1 0
vn 0 1 0
vn 0 1 0
vn 0 1 0
vn 0 1 0
vn 0 1 0
vn 0 1 0
vn 0 1 0
vn 0 1 0
vn 0 1 0
vn 0 1 0
vn 0 1 0
vn 0 1 0
vn 0 1 0
vn 0 1 0
vn 0 1 0
vn 0 1 0
vn 0 1 0
vn 0 1 0
vn 0 1 0
vn 0 1 0
vn 0 1 0
vn 0 1 0
vn 0 1 0
vn 0 1 0
vn 0 1 0
vn 0 1 0
vn 0 1 0
vn 0 1 0
vn 0 1 0
vn 0 1 0
vn 0 1 0
vn 0 1 0
vn 0 1 0
vn 0 1 0
vn 0 1 0
vn 0 1 0
vn 0 1 0
vn 0 1 0
vn 0 1 0
vn 0 1 0
vn 0 1 0
vn 0 1 0
vn 0 1 0
vn 0 1 0
vn 0 1 0
vn 0 1 0
vn 0 0 -1
vn 0.195097 0 -0.980784
vn 0.195097 0 -0.980784
vn 0 0 -1
vn 0.555577 0 -0.831465
vn 0.707107 0 -0.707107
vn 0.707107 0 -0.707107
vn 0.555577 0 -0.831465
vn 0.38269 0 -0.923877
vn 0.38269 0 -0.923877
vn 0.831465 0 -0.555577
vn 0.923877 0 -0.38269
vn 0.923877 0 -0.38269
vn 0.831465 0 -0.555577
vn 0.980784 0 -0.195097
vn 1 0 0
vn 1 0 0
vn 0.980784 0 -0.195097
vn 0.980784 0 0.195097
vn 0.923877 0 0.38269
vn 0.923877 0 0.38269
vn 0.980784 0 0.195097
vn 0.831465 0 0.555577
vn 0.707107 0 0.707107
vn 0.707107 0 0.707107
vn 0.831465 0 0.555577
vn -0.195097 0 0.980784
vn -0.38269 0 0.923877
vn -0.38269 0 0.923877
vn -0.195097 0 0.980784
vn 0.555577 0 0.831465
vn 0.38269 0 0.923877
vn 0.38269 0 0.923877
vn 0.555577 0 0.831465
vn -0.555577 0 0.831465
vn -0.707107 0 0.707107
vn -0.707107 0 0.707107
vn -0.555577 0 0.831465
vn 0 0 1
vn 0 0 1
vn -0.923877 0 0.38269
vn -0.980784 0 0.195097
vn -0.980784 0 0.195097
vn -0.923877 0 0.38269
vn -0.831465 0 0.555577
vn -0.831465 0 0.555577
vn -1 0 0
vn -1 0 0
vn 0.195097 0 0.980784
vn 0.195097 0 0.980784
vn -0.980784 0 -0.195097
vn -0.923877 0 -0.38269
vn -0.923877 0 -0.38269
vn -0.980784 0 -0.195097
vn -0.831465 0 -0.555577
vn -0.707107 0 -0.707107
vn -0.707107 0 -0.707107
vn -0.831465 0 -0.555577
vn -0.555577 0 -0.831465
vn -0.38269 0 -0.923877
vn -0.38269 0 -0.923877
vn -0.555577 0 -0.831465
vn -0.707107 0 -0.707107
vn -0.707107 0 -0.707107
vn -0.195097 0 -0.980784
vn -0.195097 0 -0.980784
vn 0.206005 -0.974826 -0.085302
vn 0.218705 -0.974821 -0.043501
vn -0.20621 -0.977648 0.041002
vn -0.194306 -0.977632 0.080503
vn 0.218705 -0.974821 0.043501
vn 0.206005 -0.974826 0.085302
vn -0.194306 -0.977632 -0.080503
vn -0.20621 -0.977648 -0.041002
vn 0.223004 -0.974818 0
vn -0.210308 -0.977635 0
vn 0.185404 -0.97482 0.123902
vn 0.157702 -0.974813 0.157702
vn -0.148706 -0.977637 -0.148706
vn -0.174809 -0.977649 -0.116806
vn -0.043501 -0.974821 0.218705
vn -0.085302 -0.974826 0.206005
vn 0.080503 -0.977632 -0.194306
vn 0.041002 -0.977648 -0.20621
vn 0.123903 -0.97482 0.185404
vn 0.085302 -0.974826 0.206005
vn -0.080503 -0.977632 -0.194306
vn -0.116806 -0.977649 -0.174809
vn -0.123903 -0.97482 0.185404
vn -0.157702 -0.974813 0.157702
vn 0.148706 -0.977637 -0.148706
vn 0.116806 -0.977649 -0.174809
vn 0 -0.974818 0.223004
vn 0 -0.977635 -0.210308
vn -0.206005 -0.974826 0.085302
vn -0.218705 -0.974821 0.043501
vn 0.20621 -0.977648 -0.041002
vn 0.194306 -0.977632 -0.080503
vn -0.185404 -0.97482 0.123903
vn 0.174809 -0.977649 -0.116806
vn -0.223004 -0.974818 0
vn 0.210308 -0.977635 0
vn 0.043501 -0.974821 0.218705
vn -0.041002 -0.977648 -0.20621
vn -0.218705 -0.974821 -0.043501
vn -0.206005 -0.974826 -0.085302
vn 0.194306 -0.977632 0.080503
vn 0.20621 -0.977648 0.041002
vn -0.185404 -0.97482 -0.123902
vn -0.157702 -0.974813 -0.157702
vn 0.148706 -0.977637 0.148706
vn 0.174809 -0.977649 0.116806
vn -0.123903 -0.97482 -0.185404
vn -0.085302 -0.974826 -0.206005
vn 0.080503 -0.977632 0.194306
vn 0.116806 -0.977649 0.174809
vn -0.157702 -0.974813 -0.157702
vn 0.148706 -0.977637 0.148706
vn -0.043501 -0.974821 -0.218705
vn 0 -0.974818 -0.223004
vn 0 -0.977635 0.210308
vn 0.041002 -0.977648 0.20621
vn 0.043501 -0.974821 -0.218705
vn 0.085302 -0.974826 -0.206005
vn -0.080503 -0.977632 0.194306
vn -0.041002 -0.977648 0.20621
vn 0.123903 -0.97482 -0.185404
vn 0.157702 -0.974813 -0.157702
vn -0.148706 -0.977637 0.148706
vn -0.116806 -0.977649 0.174809
vn 0.185404 -0.97482 -0.123903
vn -0.174809 -0.977649 0.116806
vn 0.402708 -0.911817 -0.080102
vn 0.410606 -0.911813 0
vn 0.290311 -0.911833 -0.290311
vn 0.341406 -0.911817 -0.228104
vn 0.379314 -0.911833 -0.157106
vn 0.157106 -0.911833 -0.379314
vn 0.228104 -0.911817 -0.341406
vn 0 -0.911813 -0.410606
vn 0.080101 -0.911817 -0.402708
vn -0.157106 -0.911833 -0.379314
vn -0.080102 -0.911817 -0.402708
vn -0.290311 -0.911833 -0.290311
vn -0.228104 -0.911817 -0.341406
vn -0.379314 -0.911833 -0.157106
vn -0.341406 -0.911817 -0.228104
vn -0.290311 -0.911833 -0.290311
vn -0.410606 -0.911813 0
vn -0.402708 -0.911817 -0.080101
vn 0.157106 -0.911833 0.379314
vn 0.080102 -0.911817 0.402708
vn 0 -0.911813 0.410606
vn -0.157106 -0.911833 0.379314
vn -0.228104 -0.911817 0.341406
vn -0.402708 -0.911817 0.080102
vn -0.290311 -0.911833 0.290311
vn -0.341406 -0.911817 0.228104
vn 0.290311 -0.911833 0.290311
vn 0.228104 -0.911817 0.341406
vn -0.379314 -0.911833 0.157106
vn -0.080101 -0.911817 0.402708
vn 0.379314 -0.911833 0.157106
vn 0.341406 -0.911817 0.228104
vn 0.402708 -0.911817 0.080101
vn 0 -0.977615 -0.210403
vn 0.041001 -0.977628 -0.206306
vn 0.085301 -0.899313 -0.428906
vn 0 -0.899313 -0.437306
vn 0.194403 -0.977613 -0.080501
vn 0.206305 -0.977624 -0.041101
vn 0.428906 -0.899313 -0.085301
vn 0.404011 -0.899324 -0.167305
vn 0.174904 -0.977621 -0.116903
vn 0.36361 -0.899324 -0.242907
vn -0.148803 -0.977622 -0.148703
vn -0.116903 -0.977621 -0.174904
vn -0.242907 -0.899324 -0.36361
vn -0.309208 -0.899323 -0.309208
vn 0.148801 -0.977608 -0.148801
vn 0.309208 -0.899323 -0.309208
vn 0.210403 -0.977615 0
vn 0.437306 -0.899313 0
vn 0.080501 -0.977613 -0.194403
vn 0.116902 -0.977621 -0.174904
vn 0.242907 -0.899324 -0.36361
vn 0.167305 -0.899324 -0.404011
vn -0.041101 -0.977624 -0.206305
vn -0.085301 -0.899313 -0.428906
vn 0.206306 -0.977628 0.041001
vn 0.194403 -0.977613 0.080501
vn 0.404011 -0.899324 0.167304
vn 0.428906 -0.899313 0.085301
vn -0.080501 -0.977613 -0.194403
vn -0.167305 -0.899324 -0.404011
vn 0.174904 -0.977621 0.116902
vn 0.148706 -0.977637 0.148706
vn 0.309208 -0.899323 0.309208
vn 0.36361 -0.899324 0.242907
vn 0.116903 -0.977621 0.174904
vn 0.080501 -0.977613 0.194403
vn 0.167305 -0.899324 0.404011
vn 0.242907 -0.899324 0.36361
vn 0.148703 -0.977622 0.148803
vn 0.309208 -0.899323 0.309208
vn 0.041101 -0.977624 0.206305
vn 0 -0.977615 0.210403
vn 0 -0.899313 0.437306
vn 0.085301 -0.899313 0.428906
vn -0.041001 -0.977628 0.206306
vn -0.080501 -0.977613 0.194403
vn -0.167305 -0.899324 0.404011
vn -0.085301 -0.899313 0.428906
vn -0.116902 -0.977621 0.174904
vn -0.148801 -0.977608 0.148801
vn -0.309208 -0.899323 0.309208
vn -0.242907 -0.899324 0.36361
vn -0.174904 -0.977621 0.116903
vn -0.194403 -0.977613 0.080501
vn -0.404011 -0.899324 0.167305
vn -0.36361 -0.899324 0.242907
vn -0.206305 -0.977624 0.041101
vn -0.210403 -0.977615 0
vn -0.437306 -0.899313 0
vn -0.428906 -0.899313 0.085301
vn -0.206306 -0.977628 -0.041001
vn -0.194403 -0.977613 -0.080501
vn -0.404011 -0.899324 -0.167304
vn -0.428906 -0.899313 -0.085301
vn -0.174904 -0.977621 -0.116902
vn -0.36361 -0.899324 -0.242907
vn 0 0.166798 -0.985991
vn 0.073497 0.22119 -0.972457
vn -0.0014 0.1899 -0.981802
vn 0 0.166798 -0.985991
vn 0.370392 0.251495 -0.894181
vn 0.370392 0.251495 -0.894181
vn 0.635624 0.221208 -0.739628
vn 0.695276 0.189993 -0.693176
vn 0.697201 0.1668 -0.697201
vn 0.697201 0.1668 -0.697201
vn 0.739628 0.221208 -0.635624
vn 0.693189 0.189897 -0.695289
vn 0.894181 0.251495 -0.370392
vn 0.894181 0.251495 -0.370392
vn 0.972457 0.22119 -0.073497
vn 0.981802 0.1899 0.0015
vn 0.985991 0.166798 0
vn 0.985991 0.166798 0
vn 0.972457 0.22119 0.073497
vn 0.981802 0.1899 -0.0014
vn 0.894181 0.251495 0.370392
vn 0.894181 0.251495 0.370392
vn 0.739628 0.221208 0.635624
vn 0.69319 0.189897 0.695289
vn 0.697201 0.1668 0.697201
vn 0.697201 0.1668 0.697201
vn 0.697201 0.1668 0.697201
vn 0.635624 0.221208 0.739628
vn 0.69529 0.189897 0.693189
vn 0.697201 0.1668 0.697201
vn 0.370392 0.251495 0.894181
vn 0.370392 0.251495 0.894181
vn 0.073497 0.22119 0.972457
vn -0.0015 0.189997 0.981784
vn 0 0.166798 0.985991
vn 0 0.166798 0.985991
vn -0.073497 0.22119 0.972457
vn 0.0014 0.1899 0.981802
vn -0.370392 0.251495 0.894181
vn -0.370392 0.251495 0.894181
vn -0.635624 0.221208 0.739628
vn -0.695276 0.189993 0.693176
vn -0.697201 0.1668 0.697201
vn -0.697201 0.1668 0.697201
vn -0.739628 0.221208 0.635624
vn -0.693189 0.189897 0.695289
vn -0.894181 0.251495 0.370392
vn -0.894181 0.251495 0.370392
vn -0.972457 0.22119 0.073497
vn -0.981784 0.189997 -0.0014
vn -0.985991 0.166798 0
vn -0.985991 0.166798 0
vn -0.972457 0.22119 -0.073497
vn -0.981802 0.1899 0.0014
vn -0.894181 0.251495 -0.370392
vn -0.894181 0.251495 -0.370392
vn -0.739628 0.221208 -0.635624
vn -0.69319 0.189897 -0.695289
vn -0.697201 0.1668 -0.697201
vn -0.697201 0.1668 -0.697201
vn -0.635624 0.221208 -0.739628
vn -0.69529 0.189897 -0.693189
vn -0.370392 0.251495 -0.894181
vn -0.370392 0.251495 -0.894181
vn -0.073497 0.22119 -0.972457
vn 0.0015 0.189997 -0.981784
vn -0.559771 -0.822058 0.104295
vn -0.634328 -0.770533 0.062503
vn -0.634332 -0.770538 0.062403
vn -0.559324 -0.822335 0.104505
vn -0.479073 -0.86565 0.145392
vn -0.47908 -0.865663 0.145294
vn 0.469572 -0.82205 -0.322081
vn 0.441488 -0.865676 -0.235994
vn 0.441488 -0.865676 -0.235994
vn 0.469429 -0.822351 -0.32152
vn 0.492709 -0.770514 -0.404408
vn 0.492709 -0.770514 -0.404408
vn -0.322107 -0.822018 0.46961
vn -0.404407 -0.770514 0.492709
vn -0.404407 -0.770514 0.492709
vn -0.32161 -0.822325 0.469414
vn -0.235994 -0.865676 0.441488
vn -0.235994 -0.865676 0.441488
vn 0.104295 -0.822058 -0.559771
vn 0.145294 -0.865663 -0.47908
vn 0.145294 -0.865663 -0.47908
vn 0.104603 -0.822327 -0.559318
vn 0.062503 -0.770534 -0.634328
vn 0.062499 -0.770485 -0.634387
vn 0.104303 -0.822025 0.559817
vn 0.062503 -0.770534 0.634328
vn 0.062399 -0.770489 0.634391
vn 0.104505 -0.822335 0.559324
vn 0.145392 -0.86565 0.479073
vn 0.145294 -0.865663 0.47908
vn -0.322081 -0.82205 -0.469572
vn -0.235994 -0.865676 -0.441488
vn -0.235994 -0.865676 -0.441488
vn -0.32152 -0.822351 -0.469429
vn -0.404408 -0.770514 -0.492709
vn -0.404408 -0.770514 -0.492709
vn 0.469572 -0.82205 0.322081
vn 0.492709 -0.770514 0.404407
vn 0.492709 -0.770514 0.404407
vn 0.469414 -0.822325 0.32161
vn 0.441488 -0.865676 0.235993
vn 0.441488 -0.865676 0.235993
vn -0.559771 -0.822058 -0.104295
vn -0.47908 -0.865663 -0.145294
vn -0.47908 -0.865663 -0.145294
vn -0.559324 -0.822335 -0.104504
vn -0.634387 -0.770485 -0.062499
vn -0.634387 -0.770485 -0.062499
vn 0.559817 -0.822025 -0.104303
vn 0.634328 -0.770533 -0.062503
vn 0.634391 -0.770489 -0.062399
vn 0.559324 -0.822335 -0.104505
vn 0.479073 -0.86565 -0.145392
vn 0.47908 -0.865663 -0.145294
vn -0.469572 -0.82205 0.322081
vn -0.441488 -0.865676 0.235994
vn -0.441488 -0.865676 0.235994
vn -0.469507 -0.822312 0.321505
vn -0.492709 -0.770514 0.404408
vn -0.492709 -0.770514 0.404408
vn 0.322096 -0.822089 -0.469494
vn 0.404407 -0.770514 -0.492709
vn 0.404407 -0.770514 -0.492709
vn 0.32161 -0.822325 -0.469414
vn 0.235994 -0.865676 -0.441488
vn 0.235994 -0.865676 -0.441488
vn -0.104295 -0.822058 0.559771
vn -0.145294 -0.865663 0.47908
vn -0.145294 -0.865663 0.47908
vn -0.104504 -0.822335 0.559324
vn -0.062503 -0.770534 0.634328
vn -0.062499 -0.770485 0.634387
vn -0.104295 -0.822058 -0.559771
vn -0.062503 -0.770534 -0.634328
vn -0.062399 -0.770489 -0.634391
vn -0.104505 -0.822335 -0.559324
vn -0.145392 -0.86565 -0.479073
vn -0.145294 -0.865663 -0.47908
vn 0.322081 -0.82205 0.469572
vn 0.235994 -0.865676 0.441488
vn 0.235994 -0.865676 0.441488
vn 0.32161 -0.822325 0.469414
vn 0.404408 -0.770514 0.492709
vn 0.404408 -0.770514 0.492709
vn -0.469572 -0.82205 -0.322081
vn -0.492709 -0.770514 -0.404407
vn -0.492709 -0.770514 -0.404407
vn -0.469414 -0.822325 -0.32161
vn -0.441488 -0.865676 -0.235993
vn -0.441488 -0.865676 -0.235993
vn 0.559771 -0.822058 0.104295
vn 0.47908 -0.865663 0.145294
vn 0.47908 -0.865663 0.145294
vn 0.559324 -0.822335 0.104504
vn 0.634328 -0.770533 0.062503
vn 0.634328 -0.770533 0.062503
vn 0 0.109103 -0.99403
vn 0.150805 0.121804 -0.981031
vn 0.114202 0.117202 -0.98652
vn 0 0.109103 -0.99403
vn 0.379185 0.134695 -0.915465
vn 0.379185 0.134695 -0.915465
vn 0.587099 0.1218 -0.800299
vn 0.616822 0.117204 -0.778328
vn 0.702886 0.109098 -0.702886
vn 0.702886 0.109098 -0.702886
vn 0.800299 0.1218 -0.5871
vn 0.778328 0.117204 -0.616822
vn 0.915465 0.134695 -0.379185
vn 0.915465 0.134695 -0.379185
vn 0.981031 0.121804 -0.150805
vn 0.98652 0.117202 -0.114202
vn 0.99403 0.109103 0
vn 0.99403 0.109103 0
vn 0.981031 0.121804 0.150805
vn 0.98652 0.117202 0.114202
vn 0.915449 0.134707 0.37922
vn 0.915465 0.134695 0.379185
vn 0.800299 0.1218 0.587099
vn 0.778328 0.117204 0.616822
vn 0.702886 0.109098 0.702886
vn 0.702886 0.109098 0.702886
vn 0.702886 0.109098 0.702886
vn 0.5871 0.1218 0.800299
vn 0.616822 0.117204 0.778328
vn 0.702886 0.109098 0.702886
vn 0.379186 0.134695 0.915465
vn 0.379186 0.134695 0.915465
vn 0.150805 0.121804 0.981031
vn 0.114202 0.117202 0.98652
vn 0 0.109103 0.99403
vn 0 0.109103 0.99403
vn -0.150805 0.121804 0.981031
vn -0.114202 0.117202 0.98652
vn -0.37922 0.134707 0.915449
vn -0.379185 0.134695 0.915465
vn -0.587099 0.1218 0.800299
vn -0.616822 0.117204 0.778328
vn -0.702886 0.109098 0.702886
vn -0.702886 0.109098 0.702886
vn -0.800299 0.1218 0.5871
vn -0.778328 0.117204 0.616822
vn -0.915465 0.134695 0.379185
vn -0.915465 0.134695 0.379185
vn -0.981031 0.121804 0.150805
vn -0.98652 0.117202 0.114202
vn -0.99403 0.109103 0
vn -0.99403 0.109103 0
vn -0.981031 0.121804 -0.150805
vn -0.98652 0.117202 -0.114202
vn -0.915449 0.134707 -0.37922
vn -0.915465 0.134695 -0.379185
vn -0.800299 0.1218 -0.587099
vn -0.778328 0.117204 -0.616822
vn -0.702886 0.109098 -0.702886
vn -0.702886 0.109098 -0.702886
vn -0.5871 0.1218 -0.800299
vn -0.616822 0.117204 -0.778328
vn -0.379186 0.134695 -0.915465
vn -0.379186 0.134695 -0.915465
vn -0.150805 0.121804 -0.981031
vn -0.114202 0.117202 -0.98652
vn -0.888155 0.458477 -0.031298
vn -0.888155 0.458477 -0.031298
vn -0.888155 0.458477 -0.031298
vn -0.888155 0.458477 -0.031298
vn 0.888155 -0.458477 0.031298
vn 0.888155 -0.458477 0.031298
vn 0.888155 -0.458477 0.031298
vn 0.888155 -0.458477 0.031298
vn -0.888155 -0.458477 0.031298
vn -0.888155 -0.458477 0.031298
vn -0.888155 -0.458477 0.031298
vn -0.888155 -0.458477 0.031298
vn 0.888155 0.458477 -0.031298
vn 0.888155 0.458477 -0.031298
vn 0.888155 0.458477 -0.031298
vn 0.888155 0.458477 -0.031298
vn -0.646292 0.458494 0.609992
vn -0.646292 0.458494 0.609992
vn -0.646292 0.458494 0.609992
vn -0.646292 0.458494 0.609992
vn 0.646292 -0.458494 -0.609992
vn 0.646292 -0.458494 -0.609992
vn 0.646292 -0.458494 -0.609992
vn 0.646292 -0.458494 -0.609992
vn -0.601769 -0.458477 0.653967
vn -0.601769 -0.458477 0.653967
vn -0.601769 -0.458477 0.653967
vn -0.601769 -0.458477 0.653967
vn 0.601769 0.458477 -0.653967
vn 0.601769 0.458477 -0.653967
vn 0.601769 0.458477 -0.653967
vn 0.601769 0.458477 -0.653967
vn -0.0264 0.458501 0.888302
vn -0.0264 0.458501 0.888302
vn -0.0264 0.458501 0.888302
vn -0.0264 0.458501 0.888302
vn 0.0264 -0.458501 -0.888302
vn 0.0264 -0.458501 -0.888302
vn 0.0264 -0.458501 -0.888302
vn 0.0264 -0.458501 -0.888302
vn 0.036099 -0.458484 0.887969
vn 0.036099 -0.458484 0.887969
vn 0.036099 -0.458484 0.887969
vn 0.036099 -0.458484 0.887969
vn -0.036099 0.458484 -0.887969
vn -0.036099 0.458484 -0.887969
vn -0.036099 0.458484 -0.887969
vn -0.036099 0.458484 -0.887969
vn 0.609316 0.458512 0.646917
vn 0.609316 0.458512 0.646917
vn 0.609316 0.458512 0.646917
vn 0.609316 0.458512 0.646917
vn -0.609316 -0.458512 -0.646917
vn -0.609316 -0.458512 -0.646917
vn -0.609316 -0.458512 -0.646917
vn -0.609316 -0.458512 -0.646917
vn 0.65329 -0.458493 0.602491
vn 0.65329 -0.458493 0.602491
vn 0.65329 -0.458493 0.602491
vn 0.65329 -0.458493 0.602491
vn -0.65329 0.458493 -0.602491
vn -0.65329 0.458493 -0.602491
vn -0.65329 0.458493 -0.602491
vn -0.65329 0.458493 -0.602491
vn 0.888309 0.458504 0.0261
vn 0.888309 0.458504 0.0261
vn 0.888309 0.458504 0.0261
vn 0.888309 0.458504 0.0261
vn -0.888309 -0.458504 -0.0261
vn -0.888309 -0.458504 -0.0261
vn -0.888309 -0.458504 -0.0261
vn -0.888309 -0.458504 -0.0261
vn 0.88796 -0.458479 -0.036398
vn 0.88796 -0.458479 -0.036398
vn 0.88796 -0.458479 -0.036398
vn 0.88796 -0.458479 -0.036398
vn -0.88796 0.458479 0.036398
vn -0.88796 0.458479 0.036398
vn -0.88796 0.458479 0.036398
vn -0.88796 0.458479 0.036398
vn 0.64678 0.458486 -0.609481
vn 0.64678 0.458486 -0.609481
vn 0.64678 0.458486 -0.609481
vn 0.64678 0.458486 -0.609481
vn -0.64678 -0.458486 0.609481
vn -0.64678 -0.458486 0.609481
vn -0.64678 -0.458486 0.609481
vn -0.64678 -0.458486 0.609481
vn 0.602285 -0.458489 -0.653484
vn 0.602285 -0.458489 -0.653484
vn 0.602285 -0.458489 -0.653484
vn 0.602285 -0.458489 -0.653484
vn -0.602285 0.458489 0.653484
vn -0.602285 0.458489 0.653484
vn -0.602285 0.458489 0.653484
vn -0.602285 0.458489 0.653484
vn 0.027099 0.458492 -0.888285
vn 0.027099 0.458492 -0.888285
vn 0.027099 0.458492 -0.888285
vn 0.027099 0.458492 -0.888285
vn -0.027099 -0.458492 0.888285
vn -0.027099 -0.458492 0.888285
vn -0.027099 -0.458492 0.888285
vn -0.027099 -0.458492 0.888285
vn -0.0354 -0.458496 -0.887991
vn -0.0354 -0.458496 -0.887991
vn -0.0354 -0.458496 -0.887991
vn -0.0354 -0.458496 -0.887991
vn 0.0354 0.458496 0.887991
vn 0.0354 0.458496 0.887991
vn 0.0354 0.458496 0.887991
vn 0.0354 0.458496 0.887991
vn -0.608804 0.458503 -0.647404
vn -0.608804 0.458503 -0.647404
vn -0.608804 0.458503 -0.647404
vn -0.608804 0.458503 -0.647404
vn 0.608804 -0.458503 0.647404
vn 0.608804 -0.458503 0.647404
vn 0.608804 -0.458503 0.647404
vn 0.608804 -0.458503 0.647404
vn -0.652864 -0.458475 -0.602967
vn -0.652864 -0.458475 -0.602967
vn -0.652864 -0.458475 -0.602967
vn -0.652864 -0.458475 -0.602967
vn 0.652864 0.458475 0.602967
vn 0.652864 0.458475 0.602967
vn 0.652864 0.458475 0.602967
vn 0.652864 0.458475 0.602967
f 243/1/1 249/2/2 261/3/3
f 277/4/4 257/5/5 261/6/6
f 257/7/7 243/1/1 261/3/3
f 249/8/8 277/4/4 261/6/6
f 190/9/9 176/10/10 189/11/11
f 208/12/12 184/13/13 189/14/14
f 184/15/15 190/9/9 189/11/11
f 176/16/16 208/12/12 189/14/14
f 24/17/17 8/18/18 23/19/19
f 22/20/20 15/21/21 23/22/22
f 15/23/23 24/17/17 23/19/19
f 8/24/24 22/20/20 23/22/22
f 207/25/25 175/26/26 188/27/27
f 187/28/28 183/29/29 188/30/30
f 183/31/31 207/25/25 188/27/27
f 175/32/32 187/28/28 188/30/30
f 278/33/33 250/34/34 262/35/35
f 244/36/36 258/37/37 262/38/38
f 258/39/39 278/33/33 262/35/35
f 250/40/40 244/36/36 262/38/38
f 110/41/41 98/42/42 111/43/43
f 90/44/44 106/45/45 111/46/46
f 106/47/47 110/41/41 111/43/43
f 98/48/48 90/44/44 111/46/46
f 164/49/49 150/50/50 165/51/51
f 166/52/52 157/53/53 165/54/54
f 157/55/55 164/49/49 165/51/51
f 150/56/56 166/52/52 165/54/54
f 91/57/57 99/58/58 112/59/59
f 113/60/60 107/61/61 112/62/62
f 107/63/63 91/57/57 112/59/59
f 99/64/64 113/60/60 112/62/62
f 167/65/65 125/66/66 123/67/67
f 167/65/65 123/67/67 162/68/68
f 180/69/69 199/70/70 197/71/71
f 180/69/69 197/71/71 178/72/72
f 149/73/73 167/65/65 162/68/68
f 149/73/73 162/68/68 147/74/74
f 39/75/75 180/76/76 178/77/77
f 39/75/75 178/77/77 37/78/78
f 152/79/79 149/73/73 147/74/74
f 152/79/79 147/74/74 151/80/80
f 26/81/81 39/75/75 37/78/78
f 26/81/81 37/78/78 21/82/82
f 148/83/83 152/79/79 151/80/80
f 148/83/83 151/80/80 146/84/84
f 6/85/85 26/81/81 21/82/82
f 6/85/85 21/82/82 4/86/86
f 168/87/87 148/83/83 146/84/84
f 168/87/87 146/84/84 163/88/88
f 10/89/89 6/85/85 4/86/86
f 10/89/89 4/86/86 9/90/90
f 126/91/91 168/87/87 163/88/88
f 126/91/91 163/88/88 124/92/92
f 7/93/93 10/89/89 9/90/90
f 7/93/93 9/90/90 5/94/94
f 103/95/95 126/91/91 124/92/92
f 103/95/95 124/92/92 101/96/96
f 25/97/97 7/93/93 5/94/94
f 25/97/97 5/94/94 20/98/98
f 82/99/99 103/95/95 101/96/96
f 82/99/99 101/96/96 80/100/100
f 38/101/101 25/97/97 20/98/98
f 38/101/101 20/98/98 36/102/102
f 70/103/103 82/99/99 80/100/100
f 70/103/103 80/100/100 66/104/104
f 270/105/105 254/106/106 252/107/107
f 270/105/105 252/107/107 268/108/108
f 179/109/109 38/101/101 36/102/102
f 179/109/109 36/102/102 177/110/110
f 269/111/111 70/103/103 66/104/104
f 269/111/111 66/104/104 267/112/112
f 73/113/113 270/105/105 268/108/108
f 73/113/113 268/108/108 67/114/114
f 200/115/115 179/109/109 177/110/110
f 200/115/115 177/110/110 198/116/116
f 253/117/117 269/111/111 267/112/112
f 253/117/117 267/112/112 251/118/118
f 83/119/119 73/113/113 67/114/114
f 83/119/119 67/114/114 81/120/120
f 226/121/121 200/115/115 198/116/116
f 226/121/121 198/116/116 220/122/122
f 235/123/123 253/117/117 251/118/118
f 235/123/123 251/118/118 233/124/124
f 102/125/125 83/119/119 81/120/120
f 102/125/125 81/120/120 100/126/126
f 236/127/127 226/121/121 220/122/122
f 236/127/127 220/122/122 234/128/128
f 223/129/129 235/123/123 233/124/124
f 223/129/129 233/124/124 219/130/130
f 125/66/66 102/125/125 100/126/126
f 125/66/66 100/126/126 123/67/67
f 254/106/106 236/127/127 234/128/128
f 254/106/106 234/128/128 252/107/107
f 199/70/70 223/129/129 219/130/130
f 199/70/70 219/130/130 197/71/71
f 108/227/227 89/228/228 87/229/229
f 108/227/227 87/229/229 106/230/230
f 242/231/231 218/232/232 216/233/233
f 242/231/231 216/233/233 240/234/234
f 217/235/235 241/236/236 239/237/237
f 217/235/235 239/237/237 215/238/238
f 136/239/239 108/227/227 106/230/230
f 136/239/239 106/230/230 132/240/240
f 260/241/241 242/231/231 240/234/234
f 260/241/241 240/234/234 258/242/242
f 205/243/243 217/235/235 215/238/238
f 205/243/243 215/238/238 203/244/244
f 135/245/245 136/239/239 132/240/240
f 135/245/245 132/240/240 131/246/246
f 186/247/247 205/243/243 203/244/244
f 186/247/247 203/244/244 184/248/248
f 161/249/249 135/245/245 131/246/246
f 161/249/249 131/246/246 158/250/250
f 50/251/251 186/252/252 184/253/253
f 50/251/251 184/253/253 46/254/254
f 160/255/255 161/249/249 158/250/250
f 160/255/255 158/250/250 157/256/256
f 51/257/257 50/251/251 46/254/254
f 51/257/257 46/254/254 47/258/258
f 159/259/259 160/255/255 157/256/256
f 159/259/259 157/256/256 156/260/260
f 17/261/261 51/257/257 47/258/258
f 17/261/261 47/258/258 14/262/262
f 138/263/263 159/259/259 156/260/260
f 138/263/263 156/260/260 134/264/264
f 18/265/265 17/261/261 14/262/262
f 18/265/265 14/262/262 15/266/266
f 137/267/267 138/263/263 134/264/264
f 137/267/267 134/264/264 133/268/268
f 19/269/269 18/265/265 15/266/266
f 19/269/269 15/266/266 16/270/270
f 109/271/271 137/267/267 133/268/268
f 109/271/271 133/268/268 107/272/272
f 48/273/273 19/269/269 16/270/270
f 48/273/273 16/270/270 44/274/274
f 88/275/275 109/271/271 107/272/272
f 88/275/275 107/272/272 86/276/276
f 49/277/277 48/273/273 44/274/274
f 49/277/277 44/274/274 45/278/278
f 64/279/279 88/275/275 86/276/276
f 64/279/279 86/276/276 62/280/280
f 276/281/281 260/241/241 258/242/242
f 276/281/281 258/242/242 274/282/282
f 185/283/283 49/277/277 45/278/278
f 185/283/283 45/278/278 183/284/284
f 275/285/285 64/279/279 62/280/280
f 275/285/285 62/280/280 273/286/286
f 65/287/287 276/281/281 274/282/282
f 65/287/287 274/282/282 63/288/288
f 206/289/289 185/283/283 183/284/284
f 206/289/289 183/284/284 204/290/290
f 259/291/291 275/285/285 273/286/286
f 259/291/291 273/286/286 257/292/292
f 89/228/228 65/287/287 63/288/288
f 89/228/228 63/288/288 87/229/229
f 218/232/232 206/289/289 204/290/290
f 218/232/232 204/290/290 216/233/233
f 241/236/236 259/291/291 257/292/292
f 241/236/236 257/292/292 239/237/237
f 70/301/301 269/303/303 71/304/304
f 270/294/294 73/305/305 72/306/306
f 73/313/313 83/315/315 72/316/316
f 200/308/308 226/317/317 225/318/318
f 226/325/325 236/327/327 225/328/328
f 235/320/320 223/329/329 224/330/330
f 223/337/337 199/339/339 224/340/340
f 125/332/332 167/341/341 141/342/342
f 167/345/345 149/347/347 141/348/348
f 39/350/350 26/355/355 55/356/356
f 26/361/361 6/363/363 55/364/364
f 148/358/358 168/365/365 142/366/366
f 168/369/369 126/371/371 142/372/372
f 7/374/374 25/379/379 54/380/380
f 25/385/385 38/300/300 54/386/386
f 82/382/382 70/387/387 71/388/388
f 84/389/389 105/390/390 95/391/391
f 84/389/389 95/391/391 74/392/392
f 238/393/393 214/394/394 211/395/395
f 238/393/393 211/395/395 232/396/396
f 201/397/397 213/398/398 209/399/399
f 201/397/397 209/399/399 191/400/400
f 40/401/401 13/402/402 3/403/403
f 40/401/401 3/403/403 27/404/404
f 104/405/405 85/406/406 77/407/407
f 104/405/405 77/407/407 94/408/408
f 105/390/390 129/409/409 116/410/410
f 105/390/390 116/410/410 95/391/391
f 237/411/411 255/412/412 245/413/413
f 237/411/411 245/413/413 229/414/414
f 13/402/402 12/415/415 2/416/416
f 13/402/402 2/416/416 3/403/403
f 214/394/394 202/417/417 194/418/418
f 214/394/394 194/418/418 211/395/395
f 129/409/409 130/419/419 117/420/420
f 129/409/409 117/420/420 116/410/410
f 85/406/406 61/421/421 58/422/422
f 85/406/406 58/422/422 77/407/407
f 12/415/415 11/423/423 1/424/424
f 12/415/415 1/424/424 2/416/416
f 255/412/412 271/425/425 263/426/426
f 255/412/412 263/426/426 245/413/413
f 130/419/419 153/427/427 143/428/428
f 130/419/419 143/428/428 117/420/420
f 202/417/417 181/429/429 171/430/430
f 202/417/417 171/430/430 194/418/418
f 11/423/423 43/431/431 30/432/432
f 11/423/423 30/432/432 1/424/424
f 61/421/421 272/433/433 266/434/434
f 61/421/421 266/434/434 58/422/422
f 153/427/427 154/435/435 144/436/436
f 153/427/427 144/436/436 143/428/428
f 271/425/425 60/437/437 56/438/438
f 271/425/425 56/438/438 263/426/426
f 43/431/431 42/439/439 29/440/440
f 43/431/431 29/440/440 30/432/432
f 181/429/429 41/441/441 28/442/442
f 181/429/429 28/442/442 171/430/430
f 127/443/443 128/444/444 115/445/445
f 127/443/443 115/445/445 114/446/446
f 154/435/435 155/447/447 145/448/448
f 154/435/435 145/448/448 144/436/436
f 272/433/433 256/449/449 248/450/450
f 272/433/433 248/450/450 266/434/434
f 256/449/449 238/393/393 232/396/396
f 256/449/449 232/396/396 248/450/450
f 42/439/439 182/451/451 172/452/452
f 42/439/439 172/452/452 29/440/440
f 60/437/437 84/389/389 74/392/392
f 60/437/437 74/392/392 56/438/438
f 128/444/444 104/405/405 94/408/408
f 128/444/444 94/408/408 115/445/445
f 155/447/447 127/443/443 114/446/446
f 155/447/447 114/446/446 145/448/448
f 41/441/441 40/401/401 27/404/404
f 41/441/441 27/404/404 28/442/442
f 213/398/398 237/411/411 229/414/414
f 213/398/398 229/414/414 209/399/399
f 182/453/453 201/397/397 191/400/400
f 182/453/453 191/400/400 172/454/454
f 233/455/455 251/456/456 259/291/291
f 233/455/455 259/291/291 241/236/236
f 220/457/457 198/458/458 206/289/289
f 220/457/457 206/289/289 218/232/232
f 81/459/459 67/460/460 65/287/287
f 81/459/459 65/287/287 89/228/228
f 251/456/456 267/461/461 275/285/285
f 251/456/456 275/285/285 259/291/291
f 198/458/458 177/462/462 185/283/283
f 198/458/458 185/283/283 206/289/289
f 67/460/460 268/463/463 276/281/281
f 67/460/460 276/281/281 65/287/287
f 267/461/461 66/464/464 64/279/279
f 267/461/461 64/279/279 275/285/285
f 177/462/462 36/465/465 49/277/277
f 177/462/462 49/277/277 185/283/283
f 268/463/463 252/466/466 260/241/241
f 268/463/463 260/241/241 276/281/281
f 66/464/464 80/467/467 88/275/275
f 66/464/464 88/275/275 64/279/279
f 36/465/465 20/468/468 48/273/273
f 36/465/465 48/273/273 49/277/277
f 80/467/467 101/469/469 109/271/271
f 80/467/467 109/271/271 88/275/275
f 20/468/468 5/470/470 19/269/269
f 20/468/468 19/269/269 48/273/273
f 101/469/469 124/471/471 137/267/267
f 101/469/469 137/267/267 109/271/271
f 5/470/470 9/472/472 18/265/265
f 5/470/470 18/265/265 19/269/269
f 124/471/471 163/473/473 138/263/263
f 124/471/471 138/263/263 137/267/267
f 9/472/472 4/474/474 17/261/261
f 9/472/472 17/261/261 18/265/265
f 163/473/473 146/475/475 159/259/259
f 163/473/473 159/259/259 138/263/263
f 4/474/474 21/476/476 51/257/257
f 4/474/474 51/257/257 17/261/261
f 146/475/475 151/477/477 160/255/255
f 146/475/475 160/255/255 159/259/259
f 21/476/476 37/478/478 50/251/251
f 21/476/476 50/251/251 51/257/257
f 151/477/477 147/479/479 161/249/249
f 151/477/477 161/249/249 160/255/255
f 37/478/478 178/480/480 186/252/252
f 37/478/478 186/252/252 50/251/251
f 147/479/479 162/481/481 135/245/245
f 147/479/479 135/245/245 161/249/249
f 178/482/482 197/483/483 205/243/243
f 178/482/482 205/243/243 186/247/247
f 162/481/481 123/484/484 136/239/239
f 162/481/481 136/239/239 135/245/245
f 197/483/483 219/485/485 217/235/235
f 197/483/483 217/235/235 205/243/243
f 252/466/466 234/486/486 242/231/231
f 252/466/466 242/231/231 260/241/241
f 123/484/484 100/487/487 108/227/227
f 123/484/484 108/227/227 136/239/239
f 219/485/485 233/455/455 241/236/236
f 219/485/485 241/236/236 217/235/235
f 234/486/486 220/457/457 218/232/232
f 234/486/486 218/232/232 242/231/231
f 100/487/487 81/459/459 89/228/228
f 100/487/487 89/228/228 108/227/227
f 62/554/554 86/555/555 84/556/556
f 62/554/554 84/556/556 60/557/557
f 274/558/558 258/559/559 256/560/560
f 274/558/558 256/560/560 272/561/561
f 183/562/562 45/563/563 41/564/564
f 183/562/562 41/564/564 181/565/565
f 273/566/566 62/554/554 60/557/557
f 273/566/566 60/557/557 271/567/567
f 63/568/568 274/558/558 272/561/561
f 63/568/568 272/561/561 61/569/569
f 204/570/570 183/562/562 181/565/565
f 204/570/570 181/565/565 202/571/571
f 257/572/572 273/566/566 271/567/567
f 257/572/572 271/567/567 255/573/573
f 87/574/574 63/568/568 61/569/569
f 87/574/574 61/569/569 85/575/575
f 216/576/576 204/570/570 202/571/571
f 216/576/576 202/571/571 214/577/577
f 239/578/578 257/572/572 255/573/573
f 239/578/578 255/573/573 237/579/579
f 106/580/580 87/574/574 85/575/575
f 106/580/580 85/575/575 104/581/581
f 240/582/582 216/576/576 214/577/577
f 240/582/582 214/577/577 238/583/583
f 215/584/584 239/578/578 237/579/579
f 215/584/584 237/579/579 213/585/585
f 132/586/586 106/580/580 104/581/581
f 132/586/586 104/581/581 128/587/587
f 258/559/559 240/582/582 238/583/583
f 258/559/559 238/583/583 256/560/560
f 203/588/588 215/584/584 213/585/585
f 203/588/588 213/585/585 201/589/589
f 131/590/590 132/586/586 128/587/587
f 131/590/590 128/587/587 127/591/591
f 184/592/592 203/588/588 201/589/589
f 184/592/592 201/589/589 182/593/593
f 158/594/594 131/590/590 127/591/591
f 158/594/594 127/591/591 155/595/595
f 46/596/596 184/597/597 182/598/598
f 46/596/596 182/598/598 42/599/599
f 157/600/600 158/594/594 155/595/595
f 157/600/600 155/595/595 154/601/601
f 47/602/602 46/596/596 42/599/599
f 47/602/602 42/599/599 43/603/603
f 156/604/604 157/600/600 154/601/601
f 156/604/604 154/601/601 153/605/605
f 14/606/606 47/602/602 43/603/603
f 14/606/606 43/603/603 11/607/607
f 134/608/608 156/604/604 153/605/605
f 134/608/608 153/605/605 130/609/609
f 15/610/610 14/606/606 11/607/607
f 15/610/610 11/607/607 12/611/611
f 133/612/612 134/608/608 130/609/609
f 133/612/612 130/609/609 129/613/613
f 16/614/614 15/610/610 12/611/611
f 16/614/614 12/611/611 13/615/615
f 107/616/616 133/612/612 129/613/613
f 107/616/616 129/613/613 105/617/617
f 44/618/618 16/614/614 13/615/615
f 44/618/618 13/615/615 40/619/619
f 86/555/555 107/616/616 105/617/617
f 86/555/555 105/617/617 84/556/556
f 45/563/563 44/618/618 40/619/619
f 45/563/563 40/619/619 41/564/564
f 117/818/818 143/819/819 119/820/820
f 117/818/818 119/820/820 118/821/821
f 145/822/822 114/823/823 122/824/824
f 145/822/822 122/824/824 121/825/825
f 144/826/826 145/822/822 121/825/825
f 144/826/826 121/825/825 120/827/827
f 115/828/828 94/830/830 93/831/831
f 232/832/832 211/833/833 228/834/834
f 232/832/832 228/834/834 231/835/835
f 114/823/823 115/828/828 93/831/831
f 114/823/823 93/831/831 122/824/824
f 77/836/836 58/837/837 280/838/838
f 77/836/836 280/838/838 76/839/839
f 194/840/840 171/842/842 193/843/843
f 248/844/844 232/832/832 231/835/835
f 248/844/844 231/835/835 247/845/845
f 27/846/846 3/847/847 34/848/848
f 27/846/846 34/848/848 35/849/849
f 28/850/850 27/846/846 35/849/849
f 28/850/850 35/849/849 170/851/851
f 94/829/829 77/836/836 76/839/839
f 171/841/841 28/850/850 170/851/851
f 3/847/847 2/852/852 33/853/853
f 3/847/847 33/853/853 34/848/848
f 211/833/833 194/840/840 193/843/843
f 211/833/833 193/843/843 228/834/834
f 266/854/854 248/844/844 247/845/845
f 266/854/854 247/845/845 265/855/855
f 1/856/856 30/857/857 31/858/858
f 1/856/856 31/858/858 32/859/859
f 58/837/837 266/854/854 265/855/855
f 58/837/837 265/855/855 280/838/838
f 2/852/852 1/856/856 32/859/859
f 2/852/852 32/859/859 33/853/853
f 29/860/860 172/862/862 173/863/863
f 30/857/857 29/860/860 173/863/863
f 30/857/857 173/863/863 31/858/858
f 191/864/864 209/865/865 227/866/866
f 191/864/864 227/866/866 195/867/867
f 172/868/868 191/864/864 195/867/867
f 229/870/870 245/871/871 246/872/872
f 229/870/870 246/872/872 230/873/873
f 209/865/865 229/870/870 230/873/873
f 209/865/865 230/873/873 227/866/866
f 263/874/874 56/875/875 279/876/876
f 263/874/874 279/876/876 264/877/877
f 245/871/871 263/874/874 264/877/877
f 245/871/871 264/877/877 246/872/872
f 74/878/878 95/880/880 78/881/881
f 56/875/875 74/878/878 78/881/881
f 56/875/875 78/881/881 279/876/876
f 116/882/882 117/818/818 118/821/821
f 116/882/882 118/821/821 96/883/883
f 95/879/879 116/882/882 96/883/883
f 143/819/819 144/826/826 120/827/827
f 143/819/819 120/827/827 119/820/820
f 170/925/925 35/924/924 169/926/926
f 94/927/927 76/928/928 57/929/929
f 94/927/927 57/929/929 75/930/930
f 171/931/931 170/925/925 169/926/926
f 171/931/931 169/926/926 192/932/932
f 228/935/935 193/936/936 210/937/937
f 173/947/947 172/948/948 196/949/949
f 173/947/947 196/949/949 174/950/950
f 31/942/942 173/947/947 174/950/950
f 195/951/951 227/953/953 212/954/954
f 172/955/955 195/951/951 212/954/954
f 172/955/955 212/954/954 196/956/956
f 78/965/965 95/966/966 79/967/967
f 78/965/965 79/967/967 59/968/968
f 279/962/962 78/965/965 59/968/968
f 96/969/969 118/971/971 97/972/972
f 95/966/966 96/969/969 97/972/972
f 95/966/966 97/972/972 79/967/967
f 93/981/981 94/927/927 75/930/930
f 93/981/981 75/930/930 92/982/982
f 122/978/978 93/981/981 92/982/982
f 76/928/928 280/946/946 57/929/929
f 193/936/936 171/931/931 192/932/932
f 193/936/936 192/932/932 210/937/937
f 252/983/983 234/984/984 236/985/985
f 252/983/983 236/985/985 254/986/986
f 234/984/984 222/987/987 225/988/988
f 234/984/984 225/988/988 236/985/985
f 222/987/987 198/989/989 200/990/990
f 222/987/987 200/990/990 225/988/988
f 198/989/989 177/991/991 179/992/992
f 198/989/989 179/992/992 200/990/990
f 177/991/991 36/993/993 38/994/994
f 177/991/991 38/994/994 179/992/992
f 36/993/993 52/995/995 54/996/996
f 36/993/993 54/996/996 38/994/994
f 52/995/995 5/997/997 7/998/998
f 52/995/995 7/998/998 54/996/996
f 5/997/997 9/999/999 10/1000/1000
f 5/997/997 10/1000/1000 7/998/998
f 9/999/999 4/1001/1001 6/1002/1002
f 9/999/999 6/1002/1002 10/1000/1000
f 4/1001/1001 53/1003/1003 55/1004/1004
f 4/1001/1001 55/1004/1004 6/1002/1002
f 53/1003/1003 37/1005/1005 39/1006/1006
f 53/1003/1003 39/1006/1006 55/1004/1004
f 37/1005/1005 178/1007/1007 180/1008/1008
f 37/1005/1005 180/1008/1008 39/1006/1006
f 178/1009/1009 197/1010/1010 199/1011/1011
f 178/1009/1009 199/1011/1011 180/1012/1012
f 197/1010/1010 221/1013/1013 224/1014/1014
f 197/1010/1010 224/1014/1014 199/1011/1011
f 221/1013/1013 233/1015/1015 235/1016/1016
f 221/1013/1013 235/1016/1016 224/1014/1014
f 233/1015/1015 251/1017/1017 253/1018/1018
f 233/1015/1015 253/1018/1018 235/1016/1016
f 251/1017/1017 267/1019/1019 269/1020/1020
f 251/1017/1017 269/1020/1020 253/1018/1018
f 267/1019/1019 68/1021/1021 71/1022/1022
f 267/1019/1019 71/1022/1022 269/1020/1020
f 68/1021/1021 80/1023/1023 82/1024/1024
f 68/1021/1021 82/1024/1024 71/1022/1022
f 80/1023/1023 101/1025/1025 103/1026/1026
f 80/1023/1023 103/1026/1026 82/1024/1024
f 101/1025/1025 124/1027/1027 126/1028/1028
f 101/1025/1025 126/1028/1028 103/1026/1026
f 124/1027/1027 140/1029/1029 142/1030/1030
f 124/1027/1027 142/1030/1030 126/1028/1028
f 140/1029/1029 146/1031/1031 148/1032/1032
f 140/1029/1029 148/1032/1032 142/1030/1030
f 146/1031/1031 151/1033/1033 152/1034/1034
f 146/1031/1031 152/1034/1034 148/1032/1032
f 151/1033/1033 147/1035/1035 149/1036/1036
f 151/1033/1033 149/1036/1036 152/1034/1034
f 147/1035/1035 139/1037/1037 141/1038/1038
f 147/1035/1035 141/1038/1038 149/1036/1036
f 139/1037/1037 123/1039/1039 125/1040/1040
f 139/1037/1037 125/1040/1040 141/1038/1038
f 123/1039/1039 100/1041/1041 102/1042/1042
f 123/1039/1039 102/1042/1042 125/1040/1040
f 100/1041/1041 81/1043/1043 83/1044/1044
f 100/1041/1041 83/1044/1044 102/1042/1042
f 81/1043/1043 69/1045/1045 72/1046/1046
f 81/1043/1043 72/1046/1046 83/1044/1044
f 69/1045/1045 268/1047/1047 270/1048/1048
f 69/1045/1045 270/1048/1048 72/1046/1046
f 268/1047/1047 252/983/983 254/986/986
f 268/1047/1047 254/986/986 270/1048/1048
f 247/1145/1145 231/1146/1146 234/1147/1147
f 247/1145/1145 234/1147/1147 252/1148/1148
f 231/1146/1146 228/1149/1149 222/1150/1150
f 231/1146/1146 222/1150/1150 234/1147/1147
f 228/1149/1149 210/1151/1151 198/1152/1152
f 228/1149/1149 198/1152/1152 222/1150/1150
f 210/1151/1151 192/1153/1153 177/1154/1154
f 210/1151/1151 177/1154/1154 198/1152/1152
f 192/1153/1153 169/1155/1155 36/1156/1156
f 192/1153/1153 36/1156/1156 177/1154/1154
f 169/1155/1155 35/1157/1157 52/1158/1158
f 169/1155/1155 52/1158/1158 36/1156/1156
f 35/1157/1157 34/1159/1159 5/1160/1160
f 35/1157/1157 5/1160/1160 52/1158/1158
f 34/1159/1159 33/1161/1161 9/1162/1162
f 34/1159/1159 9/1162/1162 5/1160/1160
f 33/1161/1161 32/1163/1163 4/1164/1164
f 33/1161/1161 4/1164/1164 9/1162/1162
f 32/1163/1163 31/1165/1165 53/1166/1166
f 32/1163/1163 53/1166/1166 4/1164/1164
f 31/1165/1165 174/1167/1167 37/1168/1168
f 31/1165/1165 37/1168/1168 53/1166/1166
f 174/1167/1167 196/1169/1169 178/1170/1170
f 174/1167/1167 178/1170/1170 37/1168/1168
f 196/1171/1171 212/1172/1172 197/1173/1173
f 196/1171/1171 197/1173/1173 178/1174/1174
f 212/1172/1172 227/1175/1175 221/1176/1176
f 212/1172/1172 221/1176/1176 197/1173/1173
f 227/1175/1175 230/1177/1177 233/1178/1178
f 227/1175/1175 233/1178/1178 221/1176/1176
f 230/1177/1177 246/1179/1179 251/1180/1180
f 230/1177/1177 251/1180/1180 233/1178/1178
f 246/1179/1179 264/1181/1181 267/1182/1182
f 246/1179/1179 267/1182/1182 251/1180/1180
f 264/1181/1181 279/1183/1183 68/1184/1184
f 264/1181/1181 68/1184/1184 267/1182/1182
f 279/1183/1183 59/1185/1185 80/1186/1186
f 279/1183/1183 80/1186/1186 68/1184/1184
f 59/1185/1185 79/1187/1187 101/1188/1188
f 59/1185/1185 101/1188/1188 80/1186/1186
f 79/1187/1187 97/1189/1189 124/1190/1190
f 79/1187/1187 124/1190/1190 101/1188/1188
f 97/1189/1189 118/1191/1191 140/1192/1192
f 97/1189/1189 140/1192/1192 124/1190/1190
f 118/1191/1191 119/1193/1193 146/1194/1194
f 118/1191/1191 146/1194/1194 140/1192/1192
f 119/1193/1193 120/1195/1195 151/1196/1196
f 119/1193/1193 151/1196/1196 146/1194/1194
f 120/1195/1195 121/1197/1197 147/1198/1198
f 120/1195/1195 147/1198/1198 151/1196/1196
f 121/1197/1197 122/1199/1199 139/1200/1200
f 121/1197/1197 139/1200/1200 147/1198/1198
f 122/1199/1199 92/1201/1201 123/1202/1202
f 122/1199/1199 123/1202/1202 139/1200/1200
f 92/1201/1201 75/1203/1203 100/1204/1204
f 92/1201/1201 100/1204/1204 123/1202/1202
f 75/1203/1203 57/1205/1205 81/1206/1206
f 75/1203/1203 81/1206/1206 100/1204/1204
f 57/1205/1205 280/1207/1207 69/1208/1208
f 57/1205/1205 69/1208/1208 81/1206/1206
f 280/1207/1207 265/1209/1209 268/1210/1210
f 280/1207/1207 268/1210/1210 69/1208/1208
f 265/1209/1209 247/1145/1145 252/1148/1148
f 265/1209/1209 252/1148/1148 268/1210/1210
