# Generated by tools/model_lod_builder.ps1
# Source: crown.obj
# Ratio: 0.25
v -0.852045 -0.306581 -0.352922
v -0.883433 -0.313627 -0.175736
v -0.889383 -0.316068 -0.000026
v -0.883433 -0.313627 0.175684
v -0.852045 -0.306581 0.35287
v -0.933856 0.419052 -0.000026
v -0.95882 0.515242 -0.000026
v -0.84692 -0.095879 -0.350799
v -0.890705 -0.095879 -0.177183
v -0.908153 -0.095879 -0.000026
v -0.890705 -0.095879 0.177131
v -0.84692 -0.095879 0.350747
v -0.84692 -0.054655 -0.350799
v -0.886218 -0.054655 -0.17629
v -0.900543 -0.02638 -0.000649
v -0.903578 -0.054655 -0.000026
v -0.886218 -0.054655 0.176239
v -0.84692 -0.054655 0.350747
v -0.842266 0.057146 -0.348871
v -0.89414 0.057146 -0.177866
v -0.911655 0.057146 -0.000026
v -0.89414 0.057146 0.177814
v -0.842266 0.057146 0.34882
v -0.886606 0.115925 -0.367238
v -0.886606 0.115925 0.367186
v -0.862393 0.190488 -0.357208
v -0.939058 0.166626 -0.072811
v -0.920706 0.168492 0.100782
v -0.862393 0.190488 0.357157
v -0.915913 0.256226 -0.182197
v -0.915913 0.256226 0.182145
v -0.940398 0.336838 -0.187067
v -0.945698 0.36311 -0.000403
v -0.940398 0.336838 0.187015
v -0.766828 -0.306581 -0.512352
v -0.75508 -0.316686 -0.441435
v -0.786718 -0.3335 -0.325863
v -0.822174 -0.327056 -0.163551
v -0.822174 -0.327056 0.163499
v -0.786718 -0.3335 0.325811
v -0.75508 -0.316686 0.441383
v -0.766828 -0.306581 0.5123
v -0.691854 0.419052 -0.691802
v -0.691854 0.419052 0.69175
v -0.707185 0.515242 -0.707133
v -0.707185 0.515242 0.707081
v -0.762216 -0.095879 -0.50927
v -0.789577 -0.095879 -0.422022
v -0.789577 -0.095879 0.42197
v -0.762216 -0.095879 0.509218
v -0.762216 -0.054655 -0.50927
v -0.781547 -0.054655 -0.417729
v -0.781547 -0.054655 0.417678
v -0.762216 -0.054655 0.509218
v -0.758027 0.057146 -0.506471
v -0.758027 0.057146 0.506419
v -0.695018 0.161962 -0.693989
v -0.69476 0.161962 0.694195
v -0.722855 0.168492 -0.579087
v -0.72393 0.168492 0.579625
v -0.776486 0.256226 -0.518805
v -0.776486 0.256226 0.518753
v -0.675688 0.362474 -0.674902
v -0.675653 0.362474 0.674885
v -0.797243 0.336838 -0.532674
v -0.797243 0.336838 0.532622
v 0.766671 -0.306581 -0.512352
v 0.754923 -0.316686 -0.441435
v 0.786562 -0.3335 -0.325863
v 0.822018 -0.327056 -0.163551
v 0.822018 -0.327056 0.163499
v 0.786562 -0.3335 0.325811
v 0.754923 -0.316686 0.441383
v 0.766671 -0.306581 0.5123
v 0.691697 0.419052 -0.691802
v 0.691698 0.419052 0.69175
v 0.707028 0.515242 -0.707133
v 0.707029 0.515242 0.707081
v 0.762059 -0.095879 -0.50927
v 0.78942 -0.095879 -0.422022
v 0.78942 -0.095879 0.42197
v 0.762059 -0.095879 0.509218
v 0.762059 -0.054655 -0.50927
v 0.78139 -0.054655 -0.417729
v 0.78139 -0.054655 0.417677
v 0.762059 -0.054655 0.509218
v 0.75787 0.057146 -0.506471
v 0.75787 0.057146 0.506419
v 0.69515 0.161962 -0.6937
v 0.694314 0.161962 0.694484
v 0.72423 0.168492 -0.579106
v 0.722242 0.168492 0.579604
v 0.776329 0.256226 -0.518805
v 0.776329 0.256226 0.518753
v 0.676028 0.362474 -0.674405
v 0.675 0.362474 0.675382
v 0.797086 0.336838 -0.532674
v 0.797086 0.336838 0.532622
v 0.851888 -0.306581 -0.352922
v 0.883276 -0.313627 -0.175736
v 0.889227 -0.316068 -0.000026
v 0.883276 -0.313627 0.175684
v 0.851888 -0.306581 0.35287
v 0.933699 0.419052 -0.000026
v 0.958664 0.515242 -0.000026
v 0.846763 -0.095879 -0.350799
v 0.890548 -0.095879 -0.177183
v 0.907997 -0.095879 -0.000026
v 0.890548 -0.095879 0.177131
v 0.846763 -0.095879 0.350747
v 0.846763 -0.054655 -0.350799
v 0.886061 -0.054655 -0.17629
v 0.9016 -0.03769 0.000773
v 0.886061 -0.054655 0.176238
v 0.846763 -0.054655 0.350747
v 0.842109 0.057146 -0.348871
v 0.893983 0.057146 -0.177866
v 0.911499 0.057146 -0.000026
v 0.893983 0.057146 0.177814
v 0.842109 0.057146 0.348819
v 0.886449 0.115925 -0.367238
v 0.886449 0.115925 0.367186
v 0.862236 0.190488 -0.357209
v 0.920629 0.168492 -0.100109
v 0.938844 0.166626 0.073498
v 0.862236 0.190488 0.357156
v 0.915757 0.256226 -0.182197
v 0.915757 0.256226 0.182145
v 0.940241 0.336838 -0.187067
v 0.945541 0.36311 0.001095
v 0.940241 0.336838 0.187015
v -0.512404 -0.306581 -0.766775
v -0.512404 -0.306581 0.766724
v -0.628912 -0.316068 -0.628859
v -0.628912 -0.316068 0.628807
v -0.64986 0.419052 -0.649807
v -0.64986 0.419052 0.649756
v -0.648837 0.515242 -0.648784
v -0.648837 0.515242 0.648732
v -0.509322 -0.095879 -0.762163
v -0.509322 -0.095879 0.762111
v -0.642184 -0.095879 -0.642132
v -0.642184 -0.095879 0.64208
v -0.509322 -0.054655 -0.762163
v -0.509322 -0.054655 0.762111
v -0.638082 -0.042537 -0.637924
v -0.637983 -0.03769 0.637236
v -0.506523 0.057146 -0.757974
v -0.506523 0.057146 0.757922
v -0.644661 0.057146 -0.644608
v -0.64466 0.057146 0.644556
v -0.580477 0.168492 -0.723278
v -0.579887 0.168492 0.722151
v -0.518857 0.256226 -0.776433
v -0.518857 0.256226 0.776381
v -0.532727 0.336838 -0.797191
v -0.532726 0.336838 0.797139
v -0.655797 0.364381 -0.655262
v -0.655992 0.364381 0.655015
v -0.352974 -0.306581 -0.851992
v -0.441488 -0.316686 -0.755028
v -0.441488 -0.316686 0.754976
v -0.352974 -0.306581 0.85194
v -0.350852 -0.095879 -0.846868
v -0.422074 -0.095879 -0.789525
v -0.422074 -0.095879 0.789473
v -0.350852 -0.095879 0.846816
v -0.350852 -0.054655 -0.846868
v -0.417782 -0.054655 -0.781494
v -0.417782 -0.054655 0.781442
v -0.350852 -0.054655 0.846816
v -0.348924 0.057146 -0.842213
v -0.348924 0.057146 0.842161
v -0.36729 0.115925 -0.886553
v -0.36729 0.115925 0.886502
v -0.357261 0.190488 -0.862341
v -0.357261 0.190488 0.862289
v -0.175789 -0.313627 -0.883381
v -0.325915 -0.3335 -0.786666
v -0.325915 -0.3335 0.786614
v -0.175789 -0.313627 0.883329
v -0.177235 -0.095879 -0.890652
v -0.177235 -0.095879 0.8906
v -0.176343 -0.054655 -0.886165
v -0.176343 -0.054655 0.886113
v -0.177918 0.057146 -0.894087
v -0.177918 0.057146 0.894035
v -0.182249 0.256226 -0.915861
v -0.182249 0.256226 0.915809
v -0.18712 0.336838 -0.940346
v -0.18712 0.336838 0.940294
v -0.163603 -0.327056 -0.822122
v -0.163603 -0.327056 0.82207
v -0.000383 -0.02638 0.900439
v -0.095875 0.168492 -0.921189
v -0.101581 0.168492 0.92174
v -0.00023 0.364381 0.926959
v -0.000078 -0.316068 -0.889331
v 0.163447 -0.327056 -0.822122
v 0.163447 -0.327056 0.82207
v -0.000078 -0.316068 0.889279
v -0.000078 0.419052 -0.933803
v -0.000078 0.419052 0.933751
v -0.000078 0.515242 -0.958768
v -0.000078 0.515242 0.958716
v -0.000078 -0.095879 -0.908101
v -0.000078 -0.095879 0.908049
v 0.003235 -0.03769 -0.901695
v -0.000078 -0.054655 0.903474
v -0.000078 0.057146 -0.911603
v -0.000078 0.057146 0.911551
v 0.077815 0.166626 -0.938596
v 0.072207 0.166626 0.938141
v 0.005444 0.36311 -0.94563
v -0.000068 0.362474 0.954912
v 0.175632 -0.313627 -0.883381
v 0.325759 -0.3335 -0.786666
v 0.325759 -0.3335 0.786614
v 0.175632 -0.313627 0.883329
v 0.177078 -0.095879 -0.890652
v 0.177078 -0.095879 0.8906
v 0.176186 -0.054655 -0.886165
v 0.176186 -0.054655 0.886113
v 0.177761 0.057146 -0.894087
v 0.177762 0.057146 0.894035
v 0.182093 0.256226 -0.915861
v 0.182093 0.256226 0.915809
v 0.186963 0.336838 -0.940346
v 0.186963 0.336838 0.940294
v 0.352818 -0.306581 -0.851992
v 0.441331 -0.316686 -0.755028
v 0.441331 -0.316686 0.754976
v 0.352818 -0.306581 0.85194
v 0.350695 -0.095879 -0.846868
v 0.421918 -0.095879 -0.789525
v 0.421918 -0.095879 0.789473
v 0.350695 -0.095879 0.846816
v 0.350695 -0.054655 -0.846868
v 0.417625 -0.054655 -0.781494
v 0.417625 -0.054655 0.781442
v 0.350695 -0.054655 0.846816
v 0.348767 0.057146 -0.842213
v 0.348767 0.057146 0.842161
v 0.367133 0.115925 -0.886554
v 0.367134 0.115925 0.886502
v 0.357104 0.190488 -0.862341
v 0.357104 0.190488 0.862289
v 0.512247 -0.306581 -0.766775
v 0.512247 -0.306581 0.766723
v 0.628755 -0.316068 -0.628859
v 0.628755 -0.316068 0.628807
v 0.649703 0.419052 -0.649808
v 0.649703 0.419052 0.649755
v 0.64868 0.515242 -0.648784
v 0.64868 0.515242 0.648732
v 0.509166 -0.095879 -0.762163
v 0.509166 -0.095879 0.762111
v 0.642028 -0.095879 -0.642132
v 0.642028 -0.095879 0.64208
v 0.509166 -0.054655 -0.762163
v 0.509166 -0.054655 0.762111
v 0.638127 -0.03769 -0.636986
v 0.637278 -0.03769 0.637784
v 0.506367 0.057146 -0.757974
v 0.506367 0.057146 0.757922
v 0.644504 0.057146 -0.644608
v 0.644504 0.057146 0.644556
v 0.580299 0.168492 -0.721746
v 0.579751 0.168492 0.723683
v 0.518701 0.256226 -0.776433
v 0.518701 0.256226 0.776381
v 0.53257 0.336838 -0.797191
v 0.53257 0.336838 0.797139
v 0.656351 0.364381 -0.65455
v 0.655125 0.364381 0.655726
vt 0.297778 0.731714
vt 0.176589 0.941388
vt 0.178611 0.730571
vt 0.059443 0.729428
vt 0.180632 0.519753
vt 0.178611 0.730571
vt 0.180632 0.519753
vt 0.176589 0.941388
vt 0.297778 0.731714
vt 0.176589 0.941388
vt 0.178611 0.730571
vt 0.059443 0.729428
vt 0.180632 0.519753
vt 0.178611 0.730571
vt 0.180632 0.519753
vt 0.176589 0.941388
vt 0.297778 0.731714
vt 0.176589 0.941388
vt 0.178611 0.730571
vt 0.059443 0.729428
vt 0.180632 0.519753
vt 0.178611 0.730571
vt 0.180632 0.519753
vt 0.176589 0.941388
vt 0.297778 0.731714
vt 0.176589 0.941388
vt 0.178611 0.730571
vt 0.059443 0.729428
vt 0.180632 0.519753
vt 0.178611 0.730571
vt 0.180632 0.519753
vt 0.176589 0.941388
vt 0.297778 0.731714
vt 0.176589 0.941388
vt 0.178611 0.730571
vt 0.059443 0.729428
vt 0.180632 0.519753
vt 0.178611 0.730571
vt 0.180632 0.519753
vt 0.176589 0.941388
vt 0.297778 0.731714
vt 0.176589 0.941388
vt 0.178611 0.730571
vt 0.059443 0.729428
vt 0.180632 0.519753
vt 0.178611 0.730571
vt 0.180632 0.519753
vt 0.176589 0.941388
vt 0.297778 0.731714
vt 0.176589 0.941388
vt 0.178611 0.730571
vt 0.059443 0.729428
vt 0.180632 0.519753
vt 0.178611 0.730571
vt 0.180632 0.519753
vt 0.176589 0.941388
vt 0.297778 0.731714
vt 0.176589 0.941388
vt 0.178611 0.730571
vt 0.059443 0.729428
vt 0.180632 0.519753
vt 0.178611 0.730571
vt 0.180632 0.519753
vt 0.176589 0.941388
vt 0.969706 0.43146
vt 0.970068 0.464796
vt 0.960406 0.458292
vt 0.956338 0.431855
vt 0.922425 0.011724
vt 0.929245 0.044779
vt 0.920993 0.053574
vt 0.915137 0.021433
vt 0.968036 0.39884
vt 0.959099 0.405593
vt 0.929959 0.955619
vt 0.923068 0.991148
vt 0.915197 0.980492
vt 0.920948 0.946467
vt 0.969177 0.372154
vt 0.960123 0.372505
vt 0.935663 0.920431
vt 0.921872 0.91814
vt 0.965639 0.344711
vt 0.955769 0.338731
vt 0.940313 0.886728
vt 0.929885 0.891846
vt 0.963707 0.311736
vt 0.950496 0.312758
vt 0.946724 0.859754
vt 0.937431 0.858331
vt 0.960514 0.279532
vt 0.951988 0.286637
vt 0.948516 0.831101
vt 0.939637 0.823067
vt 0.960383 0.253067
vt 0.951439 0.253841
vt 0.953032 0.797127
vt 0.939372 0.795571
vt 0.955586 0.226074
vt 0.945536 0.220621
vt 0.956112 0.763691
vt 0.946029 0.769253
vt 0.952117 0.19353
vt 0.93909 0.195165
vt 0.968758 0.586068
vt 0.969684 0.614238
vt 0.960469 0.613715
vt 0.95933 0.579047
vt 0.961183 0.736704
vt 0.951918 0.735734
vt 0.947436 0.161808
vt 0.939334 0.169242
vt 0.969995 0.552444
vt 0.9565 0.5522
vt 0.961604 0.708261
vt 0.952437 0.700729
vt 0.946056 0.135621
vt 0.937241 0.136811
vt 0.969881 0.51948
vt 0.960547 0.525857
vt 0.964469 0.674424
vt 0.950876 0.673529
vt 0.940029 0.109128
vt 0.929825 0.104211
vt 0.972315 0.492631
vt 0.96317 0.49255
vt 0.965939 0.641187
vt 0.956222 0.647167
vt 0.934993 0.07702
vt 0.922195 0.079349
vt 0.95933 0.579047
vt 0.960469 0.613715
vt 0.955451 0.613378
vt 0.954962 0.57931
vt 0.951918 0.735734
vt 0.946029 0.769253
vt 0.940893 0.768241
vt 0.946876 0.735152
vt 0.939334 0.169242
vt 0.93909 0.195165
vt 0.934734 0.195831
vt 0.93434 0.169461
vt 0.9565 0.5522
vt 0.95197 0.552239
vt 0.952437 0.700729
vt 0.951918 0.735734
vt 0.946876 0.735152
vt 0.948022 0.700785
vt 0.937241 0.136811
vt 0.932431 0.137408
vt 0.960547 0.525857
vt 0.9565 0.5522
vt 0.95197 0.552239
vt 0.955433 0.525348
vt 0.950876 0.673529
vt 0.946308 0.67335
vt 0.929825 0.104211
vt 0.937241 0.136811
vt 0.932431 0.137408
vt 0.925744 0.105263
vt 0.96317 0.49255
vt 0.958188 0.492452
vt 0.956222 0.647167
vt 0.950876 0.673529
vt 0.946308 0.67335
vt 0.951091 0.646408
vt 0.922195 0.079349
vt 0.917925 0.080238
vt 0.960406 0.458292
vt 0.96317 0.49255
vt 0.958188 0.492452
vt 0.956096 0.458759
vt 0.960469 0.613715
vt 0.955451 0.613378
vt 0.920993 0.053574
vt 0.922195 0.079349
vt 0.917925 0.080238
vt 0.916032 0.054212
vt 0.956338 0.431855
vt 0.951857 0.432107
vt 0.915137 0.021433
vt 0.910393 0.022605
vt 0.959099 0.405593
vt 0.956338 0.431855
vt 0.951857 0.432107
vt 0.954014 0.405331
vt 0.920948 0.946467
vt 0.915197 0.980492
vt 0.910394 0.979314
vt 0.91612 0.945957
vt 0.960123 0.372505
vt 0.955187 0.372643
vt 0.921872 0.91814
vt 0.917203 0.917503
vt 0.955769 0.338731
vt 0.960123 0.372505
vt 0.955187 0.372643
vt 0.951526 0.339396
vt 0.929885 0.891846
vt 0.921872 0.91814
vt 0.917203 0.917503
vt 0.924748 0.89057
vt 0.950496 0.312758
vt 0.946072 0.31322
vt 0.937431 0.858331
vt 0.932375 0.857501
vt 0.951988 0.286637
vt 0.950496 0.312758
vt 0.946072 0.31322
vt 0.946943 0.286617
vt 0.939637 0.823067
vt 0.937431 0.858331
vt 0.932375 0.857501
vt 0.935183 0.822911
vt 0.951439 0.253841
vt 0.946561 0.254211
vt 0.939372 0.795571
vt 0.934775 0.795171
vt 0.945536 0.220621
vt 0.951439 0.253841
vt 0.946561 0.254211
vt 0.941368 0.22148
vt 0.939372 0.795571
vt 0.934775 0.795171
vt 0.93909 0.195165
vt 0.934734 0.195831
vt 0.810923 0.494244
vt 0.81062 0.524093
vt 0.791635 0.523468
vt 0.791965 0.494367
vt 0.795565 0.643295
vt 0.788795 0.672815
vt 0.770171 0.667859
vt 0.776885 0.639346
vt 0.685729 0.104577
vt 0.702148 0.129174
vt 0.686367 0.139279
vt 0.670408 0.11545
vt 0.810288 0.464417
vt 0.791278 0.465239
vt 0.801101 0.613807
vt 0.782317 0.610603
vt 0.66782 0.081101
vt 0.653218 0.092649
vt 0.808419 0.434446
vt 0.789422 0.436176
vt 0.64913 0.058562
vt 0.635045 0.070672
vt 0.804669 0.404703
vt 0.785961 0.407388
vt 0.66911 0.916742
vt 0.649913 0.940465
vt 0.635045 0.927997
vt 0.653751 0.904847
vt 0.799782 0.375409
vt 0.781231 0.378822
vt 0.687404 0.892143
vt 0.671456 0.880973
vt 0.79398 0.3463
vt 0.775501 0.350407
vt 0.704078 0.866488
vt 0.687727 0.856255
vt 0.786945 0.317264
vt 0.768635 0.322258
vt 0.719569 0.840435
vt 0.702861 0.830872
vt 0.778106 0.288778
vt 0.760246 0.294657
vt 0.734227 0.813923
vt 0.717117 0.804948
vt 0.768232 0.260929
vt 0.750651 0.267494
vt 0.747874 0.786655
vt 0.730312 0.778483
vt 0.757493 0.23342
vt 0.740103 0.240652
vt 0.759753 0.758627
vt 0.741959 0.751442
vt 0.745559 0.206197
vt 0.728489 0.214268
vt 0.805705 0.584177
vt 0.786748 0.581656
vt 0.770406 0.730415
vt 0.752377 0.723948
vt 0.731954 0.179825
vt 0.715478 0.188686
vt 0.809114 0.554187
vt 0.790009 0.552566
vt 0.78016 0.701897
vt 0.76184 0.696077
vt 0.717445 0.154259
vt 0.701362 0.163743
vt 0.969684 0.614238
vt 0.968758 0.586068
vt 0.9809 0.586931
vt 0.975683 0.613854
vt 0.956112 0.763691
vt 0.961183 0.736704
vt 0.96725 0.736606
vt 0.968433 0.764998
vt 0.952117 0.19353
vt 0.947436 0.161808
vt 0.959164 0.160242
vt 0.965357 0.192607
vt 0.969995 0.552444
vt 0.983603 0.553445
vt 0.961183 0.736704
vt 0.961604 0.708261
vt 0.973803 0.709715
vt 0.96725 0.736606
vt 0.946056 0.135621
vt 0.951664 0.134163
vt 0.969995 0.552444
vt 0.969881 0.51948
vt 0.982044 0.519605
vt 0.983603 0.553445
vt 0.964469 0.674424
vt 0.978139 0.676088
vt 0.946056 0.135621
vt 0.940029 0.109128
vt 0.951679 0.107726
vt 0.951664 0.134163
vt 0.972315 0.492631
vt 0.978234 0.491969
vt 0.964469 0.674424
vt 0.965939 0.641187
vt 0.978195 0.641898
vt 0.978139 0.676088
vt 0.934993 0.07702
vt 0.948027 0.075449
vt 0.972315 0.492631
vt 0.970068 0.464796
vt 0.982126 0.465076
vt 0.978234 0.491969
vt 0.969684 0.614238
vt 0.975683 0.613854
vt 0.934993 0.07702
vt 0.929245 0.044779
vt 0.939512 0.042708
vt 0.948027 0.075449
vt 0.969706 0.43146
vt 0.983221 0.431808
vt 0.922425 0.011724
vt 0.932188 0.010354
vt 0.969706 0.43146
vt 0.968036 0.39884
vt 0.98008 0.39839
vt 0.983221 0.431808
vt 0.923068 0.991148
vt 0.929959 0.955619
vt 0.941179 0.957751
vt 0.934014 0.992574
vt 0.969177 0.372154
vt 0.975004 0.371219
vt 0.935663 0.920431
vt 0.949374 0.92334
vt 0.969177 0.372154
vt 0.965639 0.344711
vt 0.977586 0.344419
vt 0.975004 0.371219
vt 0.935663 0.920431
vt 0.940313 0.886728
vt 0.952675 0.888636
vt 0.949374 0.92334
vt 0.963707 0.311736
vt 0.977099 0.311443
vt 0.946724 0.859754
vt 0.952844 0.859947
vt 0.963707 0.311736
vt 0.960514 0.279532
vt 0.972412 0.278518
vt 0.977099 0.311443
vt 0.946724 0.859754
vt 0.948516 0.831101
vt 0.960744 0.833153
vt 0.952844 0.859947
vt 0.960383 0.253067
vt 0.966106 0.251866
vt 0.953032 0.797127
vt 0.966733 0.799462
vt 0.960383 0.253067
vt 0.955586 0.226074
vt 0.967396 0.225221
vt 0.966106 0.251866
vt 0.953032 0.797127
vt 0.966733 0.799462
vt 0.952117 0.19353
vt 0.965357 0.192607
vt 0.456071 0.220604
vt 0.456071 0.250697
vt 0.42324 0.250697
vt 0.42324 0.220604
vt 0.456072 0.641917
vt 0.456072 0.672011
vt 0.423241 0.672011
vt 0.423241 0.641917
vt 0.456072 0.040041
vt 0.456072 0.070135
vt 0.423241 0.070135
vt 0.423241 0.040041
vt 0.456072 0.792386
vt 0.456072 0.82248
vt 0.423241 0.82248
vt 0.423241 0.792386
vt 0.456071 0.491448
vt 0.456071 0.521542
vt 0.42324 0.521542
vt 0.42324 0.491448
vt 0.456071 0.280791
vt 0.42324 0.280791
vt 0.456072 0.100228
vt 0.456072 0.130322
vt 0.42324 0.130322
vt 0.423241 0.100228
vt 0.456072 0.852573
vt 0.423241 0.852573
vt 0.456072 0.702104
vt 0.423241 0.702104
vt 0.456071 0.310885
vt 0.42324 0.310885
vt 0.456072 0.551635
vt 0.42324 0.551635
vt 0.456072 0.882667
vt 0.423241 0.882667
vt 0.456071 0.160416
vt 0.42324 0.160416
vt 0.456071 0.340979
vt 0.42324 0.340979
vt 0.456072 0.732198
vt 0.423241 0.732198
vt 0.456072 0.912761
vt 0.423241 0.912761
vt 0.456072 0.581729
vt 0.42324 0.581729
vt 0.456071 0.371073
vt 0.42324 0.371073
vt 0.456071 0.19051
vt 0.42324 0.19051
vt 0.456072 0.942855
vt 0.423241 0.942855
vt 0.456072 0.762292
vt 0.423241 0.762292
vt 0.456071 0.43126
vt 0.456071 0.461354
vt 0.42324 0.461354
vt 0.42324 0.43126
vt 0.456071 0.401166
vt 0.42324 0.401166
vt 0.456072 0.611823
vt 0.42324 0.611823
vt 0.456072 0.972949
vt 0.423241 0.972949
vt 0.456072 0.009947
vt 0.423241 0.009947
vt 0.728091 0.112919
vt 0.768881 0.123952
vt 0.799518 0.675632
vt 0.809997 0.711701
vt 0.84176 0.524751
vt 0.820108 0.555084
vt 0.758795 0.164981
vt 0.828046 0.751113
vt 0.836637 0.5886
vt 0.755365 0.201522
vt 0.789067 0.770065
vt 0.861163 0.624075
vt 0.786021 0.221884
vt 0.757992 0.791324
vt 0.824455 0.239959
vt 0.762036 0.82886
vt 0.807275 0.278795
vt 0.772985 0.871032
vt 0.797469 0.314358
vt 0.731082 0.88295
vt 0.824237 0.339887
vt 0.696599 0.898538
vt 0.859104 0.364518
vt 0.694028 0.936393
vt 0.835288 0.399941
vt 0.69756 0.98001
vt 0.819345 0.433416
vt 0.69438 0.019977
vt 0.691546 0.061908
vt 0.841358 0.463379
vt 0.694523 0.098296
vt 0.826268 0.64941
vt 0.871544 0.493873
vt 0.361292 0.552266
vt 0.361444 0.582058
vt 0.356984 0.58208
vt 0.356834 0.552279
vt 0.362657 0.701358
vt 0.363112 0.731215
vt 0.358642 0.731283
vt 0.358189 0.701416
vt 0.365488 0.136689
vt 0.364798 0.166277
vt 0.360368 0.166173
vt 0.36106 0.136576
vt 0.361201 0.522488
vt 0.356744 0.522492
vt 0.362263 0.671514
vt 0.357797 0.671563
vt 0.366237 0.107117
vt 0.361811 0.106995
vt 0.36117 0.492723
vt 0.356715 0.492718
vt 0.36193 0.641682
vt 0.357465 0.641722
vt 0.367045 0.077559
vt 0.362622 0.077428
vt 0.361199 0.462973
vt 0.356747 0.462959
vt 0.361657 0.611864
vt 0.357194 0.611895
vt 0.367909 0.048016
vt 0.363512 0.047857
vt 0.361288 0.433237
vt 0.356838 0.433214
vt 0.369219 0.01803
vt 0.364754 0.017392
vt 0.361438 0.403515
vt 0.35699 0.403483
vt 0.368008 0.940561
vt 0.369219 0.971106
vt 0.364544 0.971735
vt 0.363477 0.940711
vt 0.361648 0.373808
vt 0.357202 0.373767
vt 0.36712 0.91061
vt 0.362638 0.910732
vt 0.361918 0.344116
vt 0.357475 0.344066
vt 0.3663 0.880681
vt 0.36182 0.880794
vt 0.362248 0.314439
vt 0.357807 0.314379
vt 0.36554 0.850765
vt 0.361063 0.850869
vt 0.362638 0.284776
vt 0.358199 0.284708
vt 0.364842 0.820859
vt 0.360366 0.820954
vt 0.363088 0.255129
vt 0.358652 0.255052
vt 0.364205 0.790966
vt 0.359731 0.791052
vt 0.363598 0.225497
vt 0.359164 0.225411
vt 0.363628 0.761085
vt 0.359156 0.761161
vt 0.364168 0.195879
vt 0.359736 0.195784
vt 0.359736 0.195784
vt 0.359164 0.225411
vt 0.352188 0.225331
vt 0.352764 0.19569
vt 0.356984 0.58208
vt 0.357194 0.611895
vt 0.350175 0.611999
vt 0.349968 0.58217
vt 0.358642 0.731283
vt 0.359156 0.761161
vt 0.352123 0.761337
vt 0.351612 0.731444
vt 0.360368 0.166173
vt 0.353399 0.166065
vt 0.356834 0.552279
vt 0.349821 0.552355
vt 0.358189 0.701416
vt 0.351161 0.701564
vt 0.36106 0.136576
vt 0.354094 0.136454
vt 0.356744 0.522492
vt 0.349735 0.522554
vt 0.357797 0.671563
vt 0.350772 0.671696
vt 0.361811 0.106995
vt 0.354849 0.106859
vt 0.356715 0.492718
vt 0.349709 0.492766
vt 0.357465 0.641722
vt 0.350443 0.641841
vt 0.362622 0.077428
vt 0.355665 0.077279
vt 0.356747 0.462959
vt 0.349744 0.462992
vt 0.363512 0.047857
vt 0.356587 0.047685
vt 0.356838 0.433214
vt 0.349839 0.433233
vt 0.364754 0.017392
vt 0.357436 0.017111
vt 0.35699 0.403483
vt 0.349994 0.403488
vt 0.363477 0.940711
vt 0.364544 0.971735
vt 0.357113 0.971907
vt 0.356456 0.940965
vt 0.357202 0.373767
vt 0.350209 0.373757
vt 0.362638 0.910732
vt 0.355593 0.91098
vt 0.357475 0.344066
vt 0.350485 0.344042
vt 0.36182 0.880794
vt 0.354776 0.881028
vt 0.357807 0.314379
vt 0.350821 0.314342
vt 0.361063 0.850869
vt 0.354022 0.851088
vt 0.358199 0.284708
vt 0.351216 0.284657
vt 0.360366 0.820954
vt 0.353328 0.821159
vt 0.358652 0.255052
vt 0.351672 0.254986
vt 0.359731 0.791052
vt 0.352695 0.791242
vt 0.354849 0.106859
vt 0.354094 0.136454
vt 0.351223 0.13638
vt 0.351979 0.106779
vt 0.349709 0.492766
vt 0.349735 0.522554
vt 0.346845 0.522555
vt 0.34682 0.492761
vt 0.350443 0.641841
vt 0.350772 0.671696
vt 0.347875 0.671727
vt 0.347548 0.641866
vt 0.355665 0.077279
vt 0.352796 0.077192
vt 0.349744 0.462992
vt 0.346856 0.462982
vt 0.350175 0.611999
vt 0.347281 0.612018
vt 0.356587 0.047685
vt 0.353683 0.047603
vt 0.349839 0.433233
vt 0.346953 0.433217
vt 0.357436 0.017111
vt 0.354426 0.017326
vt 0.349994 0.403488
vt 0.347109 0.403466
vt 0.356456 0.940965
vt 0.357113 0.971907
vt 0.354154 0.971674
vt 0.353558 0.941033
vt 0.350209 0.373757
vt 0.347326 0.37373
vt 0.355593 0.91098
vt 0.352687 0.911058
vt 0.350485 0.344042
vt 0.347603 0.344009
vt 0.354776 0.881028
vt 0.351872 0.8811
vt 0.350821 0.314342
vt 0.347941 0.314303
vt 0.354022 0.851088
vt 0.351118 0.851154
vt 0.351216 0.284657
vt 0.348338 0.284611
vt 0.353328 0.821159
vt 0.350425 0.821219
vt 0.351672 0.254986
vt 0.348795 0.254935
vt 0.352695 0.791242
vt 0.349793 0.791296
vt 0.352188 0.225331
vt 0.349312 0.225274
vt 0.352123 0.761337
vt 0.349223 0.761386
vt 0.352764 0.19569
vt 0.349889 0.195627
vt 0.349968 0.58217
vt 0.347075 0.582184
vt 0.351612 0.731444
vt 0.348713 0.731487
vt 0.353399 0.166065
vt 0.350526 0.165996
vt 0.349821 0.552355
vt 0.34693 0.552363
vt 0.351161 0.701564
vt 0.348264 0.701601
vt 0.908902 0.69745
vt 0.899139 0.729067
vt 0.895132 0.72772
vt 0.904837 0.696289
vt 0.771386 0.959182
vt 0.749625 0.984936
vt 0.745975 0.982402
vt 0.768083 0.956475
vt 0.861308 0.182021
vt 0.875332 0.211995
vt 0.87146 0.213691
vt 0.857518 0.183894
vt 0.771415 0.043515
vt 0.791892 0.069511
vt 0.788508 0.072045
vt 0.768147 0.046163
vt 0.933133 0.567497
vt 0.929327 0.600371
vt 0.925141 0.599781
vt 0.928923 0.567101
vt 0.811173 0.09641
vt 0.829195 0.124167
vt 0.825592 0.126381
vt 0.807676 0.098788
vt 0.887961 0.242582
vt 0.899168 0.273719
vt 0.895155 0.275052
vt 0.884015 0.244099
vt 0.924013 0.633034
vt 0.919858 0.632252
vt 0.845918 0.152725
vt 0.842218 0.15477
vt 0.829171 0.878579
vt 0.811155 0.906322
vt 0.807669 0.903934
vt 0.825578 0.876354
vt 0.908928 0.305339
vt 0.917222 0.337375
vt 0.913104 0.338332
vt 0.904859 0.306485
vt 0.791881 0.933205
vt 0.788508 0.930658
vt 0.924032 0.369759
vt 0.919874 0.370526
vt 0.929342 0.402423
vt 0.925154 0.402998
vt 0.933143 0.435298
vt 0.928932 0.435679
vt 0.749867 0.017707
vt 0.7463 0.020134
vt 0.935426 0.468313
vt 0.936185 0.501398
vt 0.931957 0.50139
vt 0.931202 0.4685
vt 0.917199 0.665416
vt 0.913085 0.664444
vt 0.93542 0.534483
vt 0.931197 0.534281
vt 0.887931 0.760199
vt 0.883991 0.758669
vt 0.875302 0.790781
vt 0.861279 0.820747
vt 0.857496 0.818861
vt 0.871436 0.789071
vt 0.84589 0.850034
vt 0.842198 0.847976
vt 0.825592 0.126381
vt 0.842218 0.15477
vt 0.836286 0.158108
vt 0.81982 0.129989
vt 0.87146 0.213691
vt 0.884015 0.244099
vt 0.87768 0.246587
vt 0.865246 0.216469
vt 0.857518 0.183894
vt 0.851439 0.186955
vt 0.895155 0.275052
vt 0.904859 0.306485
vt 0.898321 0.308381
vt 0.888712 0.277246
vt 0.913104 0.338332
vt 0.919874 0.370526
vt 0.91319 0.371812
vt 0.906486 0.339925
vt 0.925154 0.402998
vt 0.928932 0.435679
vt 0.922158 0.436344
vt 0.918417 0.403975
vt 0.931202 0.4685
vt 0.931957 0.50139
vt 0.92515 0.501429
vt 0.924404 0.468852
vt 0.913085 0.664444
vt 0.904837 0.696289
vt 0.898279 0.69447
vt 0.906449 0.662928
vt 0.931197 0.534281
vt 0.928923 0.567101
vt 0.922142 0.566513
vt 0.924396 0.534006
vt 0.895132 0.72772
vt 0.883991 0.758669
vt 0.877628 0.756254
vt 0.888665 0.7256
vt 0.919858 0.632252
vt 0.913159 0.631043
vt 0.857496 0.818861
vt 0.842198 0.847976
vt 0.83623 0.844708
vt 0.851383 0.815871
vt 0.871436 0.789071
vt 0.865192 0.786366
vt 0.825578 0.876354
vt 0.819767 0.872814
vt 0.925141 0.599781
vt 0.918394 0.598882
vt 0.807669 0.903934
vt 0.788508 0.930658
vt 0.783049 0.9266
vt 0.802027 0.900131
vt 0.768083 0.956475
vt 0.745975 0.982402
vt 0.740545 0.977664
vt 0.762829 0.952196
vt 0.768147 0.046163
vt 0.788508 0.072045
vt 0.783091 0.076167
vt 0.762922 0.050496
vt 0.7463 0.020134
vt 0.740775 0.024789
vt 0.807676 0.098788
vt 0.802077 0.102658
vt 0.891827 0.310224
vt 0.899914 0.341468
vt 0.895527 0.342488
vt 0.887492 0.311446
vt 0.91173 0.404906
vt 0.915435 0.436967
vt 0.91095 0.437373
vt 0.907268 0.405518
vt 0.906553 0.37305
vt 0.902124 0.373868
vt 0.917659 0.469165
vt 0.918399 0.501431
vt 0.913895 0.501422
vt 0.91316 0.469364
vt 0.899876 0.661388
vt 0.891784 0.692629
vt 0.887453 0.691392
vt 0.895494 0.660352
vt 0.917651 0.533697
vt 0.915419 0.565894
vt 0.910935 0.565471
vt 0.913153 0.533481
vt 0.882262 0.723462
vt 0.87133 0.753824
vt 0.867133 0.752194
vt 0.877993 0.722027
vt 0.906522 0.629807
vt 0.902096 0.628974
vt 0.845336 0.812872
vt 0.830328 0.841433
vt 0.826396 0.839241
vt 0.841306 0.810863
vt 0.859013 0.783648
vt 0.854895 0.781827
vt 0.814022 0.869272
vt 0.810195 0.866901
vt 0.911707 0.597953
vt 0.907247 0.597324
vt 0.796452 0.896328
vt 0.777656 0.922545
vt 0.774063 0.919832
vt 0.792738 0.893783
vt 0.757663 0.947908
vt 0.735735 0.972538
vt 0.732615 0.969145
vt 0.7542 0.944994
vt 0.757685 0.054842
vt 0.777697 0.08023
vt 0.774092 0.082934
vt 0.754195 0.057751
vt 0.735775 0.029973
vt 0.732615 0.03337
vt 0.796501 0.106466
vt 0.814075 0.133536
vt 0.810238 0.135894
vt 0.792776 0.108998
vt 0.830384 0.161387
vt 0.845392 0.189958
vt 0.841354 0.191953
vt 0.826442 0.163566
vt 0.859067 0.21919
vt 0.871382 0.249021
vt 0.867178 0.250636
vt 0.854942 0.220997
vt 0.88231 0.279387
vt 0.878036 0.280807
vt 0.906486 0.339925
vt 0.91319 0.371812
vt 0.87768 0.246587
vt 0.888712 0.277246
vt 0.898321 0.308381
vt 0.851439 0.186955
vt 0.865246 0.216469
vt 0.81982 0.129989
vt 0.836286 0.158108
vt 0.783091 0.076167
vt 0.802077 0.102658
vt 0.740775 0.024789
vt 0.762922 0.050496
vt 0.783049 0.9266
vt 0.762829 0.952196
vt 0.740545 0.977664
vt 0.819767 0.872814
vt 0.802027 0.900131
vt 0.922142 0.566513
vt 0.918394 0.598882
vt 0.913159 0.631043
vt 0.898279 0.69447
vt 0.888665 0.7256
vt 0.83623 0.844708
vt 0.877628 0.756254
vt 0.865192 0.786366
vt 0.92515 0.501429
vt 0.924396 0.534006
vt 0.851383 0.815871
vt 0.906449 0.662928
vt 0.922158 0.436344
vt 0.924404 0.468852
vt 0.918417 0.403975
vt 0.393071 0.631173
vt 0.393294 0.660624
vt 0.388175 0.660636
vt 0.387953 0.631208
vt 0.396199 0.806376
vt 0.397235 0.835178
vt 0.392253 0.83534
vt 0.391172 0.80649
vt 0.39562 0.777391
vt 0.390584 0.777459
vt 0.392343 0.511966
vt 0.39224 0.541904
vt 0.387035 0.54186
vt 0.38714 0.511943
vt 0.395081 0.748424
vt 0.390046 0.748514
vt 0.398326 0.86373
vt 0.393377 0.863872
vt 0.393558 0.690094
vt 0.394288 0.719384
vt 0.389222 0.719493
vt 0.388447 0.690153
vt 0.392591 0.601645
vt 0.38744 0.601699
vt 0.399157 0.892202
vt 0.399971 0.920647
vt 0.395056 0.920782
vt 0.394211 0.892317
vt 0.392177 0.571863
vt 0.386981 0.571867
vt 0.400948 0.948759
vt 0.400821 0.9763
vt 0.396176 0.975884
vt 0.396133 0.948821
vt 0.400948 0.047045
vt 0.39997 0.07909
vt 0.394423 0.078902
vt 0.395359 0.046979
vt 0.400393 0.015325
vt 0.394909 0.015907
vt 0.399125 0.110899
vt 0.398275 0.142427
vt 0.392813 0.142226
vt 0.393628 0.110726
vt 0.397133 0.173857
vt 0.396028 0.205308
vt 0.390572 0.205131
vt 0.391671 0.17363
vt 0.395427 0.236591
vt 0.394905 0.26761
vt 0.38953 0.267468
vt 0.390018 0.236469
vt 0.394116 0.298538
vt 0.393369 0.329488
vt 0.388 0.329373
vt 0.38874 0.298373
vt 0.393117 0.360266
vt 0.39294 0.390784
vt 0.387651 0.390703
vt 0.387794 0.360204
vt 0.392499 0.421215
vt 0.3921 0.451667
vt 0.386818 0.451613
vt 0.387209 0.421111
vt 0.392186 0.481945
vt 0.38695 0.481942
vt 0.984701 0.614331
vt 0.984794 0.646969
vt 0.978195 0.641898
vt 0.975683 0.613854
vt 0.984811 0.676526
vt 0.978139 0.676088
vt 0.980904 0.705639
vt 0.973803 0.709715
vt 0.976318 0.73752
vt 0.96725 0.736606
vt 0.974841 0.770427
vt 0.968433 0.764998
vt 0.973437 0.800224
vt 0.966733 0.799462
vt 0.968098 0.829385
vt 0.960744 0.833153
vt 0.961942 0.861305
vt 0.952844 0.859947
vt 0.95888 0.894414
vt 0.952675 0.888636
vt 0.956091 0.924383
vt 0.949374 0.92334
vt 0.949595 0.953551
vt 0.941179 0.957751
vt 0.944543 0.985897
vt 0.934014 0.992574
vt 0.942149 0.016526
vt 0.947493 0.046391
vt 0.939512 0.042708
vt 0.932188 0.010354
vt 0.95438 0.074358
vt 0.948027 0.075449
vt 0.957344 0.102347
vt 0.951679 0.107726
vt 0.960286 0.132967
vt 0.951664 0.134163
vt 0.966335 0.163836
vt 0.959164 0.160242
vt 0.971751 0.191803
vt 0.965357 0.192607
vt 0.973371 0.220067
vt 0.967396 0.225221
vt 0.974855 0.251075
vt 0.966106 0.251866
vt 0.979469 0.282485
vt 0.972412 0.278518
vt 0.983583 0.310939
vt 0.977099 0.311443
vt 0.983857 0.339511
vt 0.977586 0.344419
vt 0.983862 0.370842
vt 0.975004 0.371219
vt 0.987003 0.40273
vt 0.98008 0.39839
vt 0.989782 0.431613
vt 0.983221 0.431808
vt 0.988684 0.46043
vt 0.982126 0.465076
vt 0.987182 0.492015
vt 0.978234 0.491969
vt 0.988815 0.524313
vt 0.982044 0.519605
vt 0.990227 0.553564
vt 0.983603 0.553445
vt 0.987734 0.582562
vt 0.9809 0.586931
vt 0.989022 0.582682
vt 0.985909 0.614393
vt 0.984701 0.614331
vt 0.987734 0.582562
vt 0.991456 0.553581
vt 0.990227 0.553564
vt 0.989918 0.524255
vt 0.991456 0.553581
vt 0.990227 0.553564
vt 0.988815 0.524313
vt 0.98838 0.492019
vt 0.987182 0.492015
vt 0.989963 0.460488
vt 0.98838 0.492019
vt 0.987182 0.492015
vt 0.988684 0.46043
vt 0.990999 0.431572
vt 0.989782 0.431613
vt 0.988092 0.40262
vt 0.990999 0.431572
vt 0.989782 0.431613
vt 0.987003 0.40273
vt 0.985048 0.370789
vt 0.983862 0.370842
vt 0.985126 0.339508
vt 0.985048 0.370789
vt 0.983862 0.370842
vt 0.983857 0.339511
vt 0.984786 0.310842
vt 0.983583 0.310939
vt 0.980541 0.282326
vt 0.984786 0.310842
vt 0.983583 0.310939
vt 0.979469 0.282485
vt 0.976026 0.250967
vt 0.974855 0.251075
vt 0.974627 0.220004
vt 0.976026 0.250967
vt 0.974855 0.251075
vt 0.973371 0.220067
vt 0.972936 0.191649
vt 0.971751 0.191803
vt 0.967389 0.163627
vt 0.972936 0.191649
vt 0.971751 0.191803
vt 0.966335 0.163836
vt 0.96144 0.132804
vt 0.960286 0.132967
vt 0.958586 0.102226
vt 0.96144 0.132804
vt 0.960286 0.132967
vt 0.957344 0.102347
vt 0.955559 0.074147
vt 0.95438 0.074358
vt 0.948643 0.046141
vt 0.955559 0.074147
vt 0.95438 0.074358
vt 0.947493 0.046391
vt 0.943253 0.016239
vt 0.942149 0.016526
vt 0.9509 0.953807
vt 0.945734 0.986181
vt 0.944543 0.985897
vt 0.949595 0.953551
vt 0.957337 0.924573
vt 0.956091 0.924383
vt 0.960011 0.894516
vt 0.957337 0.924573
vt 0.956091 0.924383
vt 0.95888 0.894414
vt 0.96316 0.861484
vt 0.961942 0.861305
vt 0.969391 0.829632
vt 0.96316 0.861484
vt 0.961942 0.861305
vt 0.968098 0.829385
vt 0.974682 0.800361
vt 0.973437 0.800224
vt 0.975965 0.770475
vt 0.974682 0.800361
vt 0.973437 0.800224
vt 0.974841 0.770427
vt 0.977532 0.73764
vt 0.976318 0.73752
vt 0.982195 0.705822
vt 0.977532 0.73764
vt 0.976318 0.73752
vt 0.980904 0.705639
vt 0.986049 0.676602
vt 0.984811 0.676526
vt 0.985908 0.646964
vt 0.986049 0.676602
vt 0.984811 0.676526
vt 0.984794 0.646969
vt 0.985909 0.614393
vt 0.984701 0.614331
vt 0.486467 0.365937
vt 0.486249 0.337068
vt 0.589688 0.33479
vt 0.614725 0.363628
vt 0.485982 0.308114
vt 0.571904 0.306014
vt 0.485221 0.279333
vt 0.587732 0.276661
vt 0.484413 0.250864
vt 0.61055 0.247201
vt 0.483886 0.22247
vt 0.585609 0.219106
vt 0.483308 0.193992
vt 0.567803 0.190994
vt 0.482248 0.165692
vt 0.583055 0.161948
vt 0.481146 0.137703
vt 0.605181 0.132718
vt 0.480327 0.1098
vt 0.580341 0.105355
vt 0.479499 0.081877
vt 0.562519 0.077894
vt 0.478443 0.054372
vt 0.57717 0.048996
vt 0.4784 0.027824
vt 0.598781 0.01859
vt 0.479643 0.96952
vt 0.479201 0.93904
vt 0.590616 0.942875
vt 0.615867 0.976621
vt 0.48012 0.907725
vt 0.573212 0.910622
vt 0.4809 0.876506
vt 0.592132 0.879755
vt 0.481699 0.845607
vt 0.618629 0.84919
vt 0.48282 0.814801
vt 0.593278 0.817244
vt 0.483897 0.783899
vt 0.575661 0.785707
vt 0.484441 0.753159
vt 0.59393 0.755137
vt 0.48492 0.722749
vt 0.619661 0.724784
vt 0.485695 0.692433
vt 0.594376 0.693636
vt 0.48642 0.662023
vt 0.576704 0.662805
vt 0.486622 0.631779
vt 0.594343 0.632537
vt 0.486763 0.601862
vt 0.619324 0.6024
vt 0.487196 0.572032
vt 0.594114 0.572036
vt 0.48758 0.542112
vt 0.576397 0.541901
vt 0.487451 0.51236
vt 0.593419 0.511936
vt 0.487264 0.48293
vt 0.617664 0.482021
vt 0.487367 0.453583
vt 0.592537 0.452427
vt 0.48742 0.424148
vt 0.574783 0.422977
vt 0.486969 0.394884
vt 0.591201 0.393317
vt 0.176589 0.941388
vt 0.297778 0.731714
vt 0.325021 0.745968
vt 0.203832 0.955643
vt 0.180632 0.519753
vt 0.059443 0.729428
vt 0.033493 0.712937
vt 0.154682 0.503262
vt 0.297778 0.731714
vt 0.180632 0.519753
vt 0.206894 0.503763
vt 0.32404 0.715723
vt 0.059443 0.729428
vt 0.176589 0.941388
vt 0.149077 0.955117
vt 0.031932 0.743157
vt 0.176589 0.941388
vt 0.297778 0.731714
vt 0.325021 0.745968
vt 0.203832 0.955643
vt 0.180632 0.519753
vt 0.059443 0.729428
vt 0.033493 0.712937
vt 0.154682 0.503262
vt 0.297778 0.731714
vt 0.180632 0.519753
vt 0.206894 0.503763
vt 0.32404 0.715723
vt 0.059443 0.729428
vt 0.176589 0.941388
vt 0.149077 0.955117
vt 0.031932 0.743157
vt 0.176589 0.941388
vt 0.297778 0.731714
vt 0.325021 0.745968
vt 0.203832 0.955643
vt 0.180632 0.519753
vt 0.059443 0.729428
vt 0.033493 0.712937
vt 0.154682 0.503262
vt 0.297778 0.731714
vt 0.180632 0.519753
vt 0.206894 0.503763
vt 0.32404 0.715723
vt 0.059443 0.729428
vt 0.176589 0.941388
vt 0.149077 0.955117
vt 0.031932 0.743157
vt 0.176589 0.941388
vt 0.297778 0.731714
vt 0.325021 0.745968
vt 0.203832 0.955643
vt 0.180632 0.519753
vt 0.059443 0.729428
vt 0.033493 0.712937
vt 0.154682 0.503262
vt 0.297778 0.731714
vt 0.180632 0.519753
vt 0.206894 0.503763
vt 0.32404 0.715723
vt 0.059443 0.729428
vt 0.176589 0.941388
vt 0.149077 0.955117
vt 0.031932 0.743157
vt 0.176589 0.941388
vt 0.297778 0.731714
vt 0.325021 0.745968
vt 0.203832 0.955643
vt 0.180632 0.519753
vt 0.059443 0.729428
vt 0.033493 0.712937
vt 0.154682 0.503262
vt 0.297778 0.731714
vt 0.180632 0.519753
vt 0.206894 0.503763
vt 0.32404 0.715723
vt 0.059443 0.729428
vt 0.176589 0.941388
vt 0.149077 0.955117
vt 0.031932 0.743157
vt 0.176589 0.941388
vt 0.297778 0.731714
vt 0.325021 0.745968
vt 0.203832 0.955643
vt 0.180632 0.519753
vt 0.059443 0.729428
vt 0.033493 0.712937
vt 0.154682 0.503262
vt 0.297778 0.731714
vt 0.180632 0.519753
vt 0.206894 0.503763
vt 0.32404 0.715723
vt 0.059443 0.729428
vt 0.176589 0.941388
vt 0.149077 0.955117
vt 0.031932 0.743157
vt 0.176589 0.941388
vt 0.297778 0.731714
vt 0.325021 0.745968
vt 0.203832 0.955643
vt 0.180632 0.519753
vt 0.059443 0.729428
vt 0.033493 0.712937
vt 0.154682 0.503262
vt 0.297778 0.731714
vt 0.180632 0.519753
vt 0.206894 0.503763
vt 0.32404 0.715723
vt 0.059443 0.729428
vt 0.176589 0.941388
vt 0.149077 0.955117
vt 0.031932 0.743157
vt 0.176589 0.941388
vt 0.297778 0.731714
vt 0.325021 0.745968
vt 0.203832 0.955643
vt 0.180632 0.519753
vt 0.059443 0.729428
vt 0.033493 0.712937
vt 0.154682 0.503262
vt 0.297778 0.731714
vt 0.180632 0.519753
vt 0.206894 0.503763
vt 0.32404 0.715723
vt 0.059443 0.729428
vt 0.176589 0.941388
vt 0.149077 0.955117
vt 0.031932 0.743157
vn -0.443105 -0.103201 -0.89051
vn -0.431883 0.121095 -0.893764
vn -0.443105 -0.103201 -0.89051
vn 0.443105 -0.103201 -0.89051
vn 0.431911 -0.322408 -0.842322
vn 0.443105 -0.103201 -0.89051
vn -0.431911 -0.322408 -0.842322
vn 0.431882 0.121095 -0.893764
vn -0.944989 -0.103199 -0.310396
vn -0.939437 0.121105 -0.320612
vn -0.944989 -0.103199 -0.310396
vn -0.322299 -0.1032 -0.940996
vn -0.295891 -0.32239 -0.899173
vn -0.322299 -0.1032 -0.940996
vn -0.902832 -0.322411 -0.28451
vn -0.332499 0.1211 -0.935296
vn -0.888106 -0.103201 0.447903
vn -0.891376 0.121097 0.436788
vn -0.888106 -0.103201 0.447903
vn -0.892927 -0.103203 -0.438213
vn -0.844681 -0.322393 -0.42729
vn -0.892927 -0.103203 -0.438213
vn -0.839969 -0.322388 0.436484
vn -0.896105 0.121101 -0.427002
vn -0.311388 -0.103196 0.944663
vn -0.3216 0.1211 0.9391
vn -0.311388 -0.103196 0.944663
vn -0.941303 -0.1032 0.321401
vn -0.89947 -0.322389 0.29499
vn -0.941303 -0.1032 0.321401
vn -0.28548 -0.322378 0.902537
vn -0.935645 0.121106 0.331516
vn 0.448223 -0.103205 0.887944
vn 0.437109 0.121102 0.891218
vn 0.448223 -0.103205 0.887944
vn -0.437892 -0.103198 0.893085
vn -0.427009 -0.322407 0.844818
vn -0.437892 -0.103198 0.893085
vn 0.4368 -0.3224 0.8398
vn -0.426719 0.121105 0.896239
vn 0.944722 -0.103202 0.311207
vn 0.939172 0.121096 0.32139
vn 0.944722 -0.103202 0.311207
vn 0.321611 -0.103203 0.941231
vn 0.295199 -0.322399 0.899398
vn 0.321611 -0.103203 0.941231
vn 0.902615 -0.322405 0.285205
vn 0.331783 0.121094 0.935551
vn 0.888448 -0.103206 -0.447224
vn 0.89171 0.121101 -0.436105
vn 0.888448 -0.103206 -0.447224
vn 0.892592 -0.103199 0.438896
vn 0.844313 -0.322405 0.428007
vn 0.892592 -0.103199 0.438896
vn 0.840314 -0.322405 -0.435807
vn 0.895778 0.121097 0.427689
vn 0.312108 -0.103203 -0.944425
vn 0.322408 0.121103 -0.938822
vn 0.312108 -0.103203 -0.944425
vn 0.941579 -0.103198 -0.320593
vn 0.899694 -0.322398 -0.294298
vn 0.941579 -0.103198 -0.320593
vn 0.2862 -0.3224 -0.902301
vn 0.935899 0.1211 -0.3308
vn 0.900614 -0.222904 0.373106
vn 0.6713 -0.2167 0.7088
vn 0.741954 -0.217587 0.634161
vn 0.900614 -0.222904 0.373106
vn -0.690511 -0.215703 -0.690411
vn -0.7088 -0.2167 -0.6713
vn -0.634388 -0.217496 -0.741786
vn -0.690511 -0.215703 -0.690411
vn 0.97588 -0.216695 -0.0265
vn 0.973097 -0.217499 0.076
vn -0.67137 -0.21659 -0.708768
vn -0.690411 -0.215703 -0.690511
vn -0.690411 -0.215703 -0.690511
vn -0.741954 -0.217587 -0.634161
vn 0.976436 -0.215808 0
vn 0.976462 -0.215692 0
vn -0.900614 -0.222904 -0.373106
vn -0.900614 -0.222904 -0.373106
vn 0.975901 -0.2166 0.0265
vn 0.973119 -0.217504 -0.075702
vn -0.97588 -0.216695 0.0265
vn -0.973097 -0.217499 -0.076
vn 0.900614 -0.222904 -0.373106
vn 0.900614 -0.222904 -0.373106
vn -0.976436 -0.215808 0
vn -0.976462 -0.215692 0
vn 0.6713 -0.2167 -0.7088
vn 0.741786 -0.217496 -0.634388
vn -0.97588 -0.216695 -0.026499
vn -0.973061 -0.217591 0.076197
vn 0.690463 -0.215688 -0.690463
vn 0.690463 -0.215688 -0.690463
vn -0.900614 -0.222904 0.373106
vn -0.900648 -0.222912 0.37302
vn 0.7088 -0.2167 -0.6713
vn 0.634161 -0.217587 -0.741954
vn -0.6713 -0.2167 0.7088
vn -0.741786 -0.217496 0.634388
vn 0.373106 -0.222904 -0.900614
vn 0.373106 -0.222904 -0.900614
vn -0.0265 -0.2166 0.975901
vn 0 -0.215808 0.976436
vn 0 -0.215692 0.976462
vn 0.076197 -0.217591 0.973061
vn -0.690463 -0.215688 0.690463
vn -0.690396 -0.215799 0.690496
vn -0.0265 -0.216695 -0.97588
vn 0.076 -0.217499 -0.973097
vn 0.373106 -0.222904 0.900614
vn 0.373098 -0.222999 0.900594
vn -0.708768 -0.21659 0.671369
vn -0.634161 -0.217587 0.741954
vn 0 -0.215808 -0.976436
vn 0 -0.215692 -0.976462
vn 0.7088 -0.2167 0.6713
vn 0.634388 -0.217496 0.741786
vn -0.37302 -0.222912 0.900648
vn -0.373106 -0.222904 0.900614
vn 0.026499 -0.216695 -0.97588
vn -0.076197 -0.217591 -0.973061
vn 0.690496 -0.215799 0.690396
vn 0.690463 -0.215688 0.690463
vn 0.0265 -0.216695 0.97588
vn -0.0759 -0.217501 0.973105
vn -0.372986 -0.222892 -0.900667
vn -0.372986 -0.222892 -0.900667
vn -0.610505 -0.783707 0.114401
vn -0.684804 -0.725604 0.0674
vn -0.684799 -0.725599 0.0675
vn -0.609979 -0.784073 0.114696
vn 0.436593 -0.725588 0.531891
vn 0.350799 -0.783698 0.512599
vn 0.350199 -0.784097 0.512398
vn 0.436593 -0.725588 0.531891
vn -0.610505 -0.783707 -0.114401
vn -0.528823 -0.833436 -0.160407
vn -0.528823 -0.833436 -0.160407
vn -0.610027 -0.784034 -0.114705
vn -0.528823 -0.833436 0.160407
vn -0.528823 -0.833436 0.160407
vn -0.512599 -0.783698 -0.350799
vn -0.531891 -0.725588 -0.436593
vn -0.531915 -0.72562 -0.436512
vn -0.512398 -0.784097 -0.350199
vn -0.684804 -0.725604 -0.0674
vn -0.684799 -0.725599 -0.0675
vn 0.512599 -0.783698 -0.350799
vn 0.487406 -0.833411 -0.260503
vn 0.487406 -0.833411 -0.260503
vn 0.512398 -0.784097 -0.350199
vn -0.487406 -0.833411 -0.260503
vn -0.487406 -0.833411 -0.260503
vn 0.610505 -0.783707 -0.114401
vn 0.684804 -0.725604 -0.0674
vn 0.684799 -0.725599 -0.0675
vn 0.609979 -0.784073 -0.114696
vn 0.531891 -0.725588 -0.436593
vn 0.531891 -0.725588 -0.436593
vn 0.610505 -0.783707 0.114401
vn 0.528823 -0.833436 0.160407
vn 0.528823 -0.833436 0.160407
vn 0.609979 -0.784073 0.114696
vn 0.528823 -0.833436 -0.160407
vn 0.528823 -0.833436 -0.160407
vn -0.350799 -0.783698 0.512599
vn -0.436593 -0.725588 0.531891
vn -0.436512 -0.72562 0.531915
vn -0.350199 -0.784097 0.512398
vn 0.684804 -0.725604 0.0674
vn 0.684799 -0.725599 0.0675
vn -0.512599 -0.783698 0.350799
vn -0.487406 -0.833411 0.260503
vn -0.487406 -0.833411 0.260503
vn -0.512398 -0.784097 0.350199
vn -0.260516 -0.833451 0.48733
vn -0.260503 -0.833411 0.487406
vn -0.531891 -0.725588 0.436593
vn -0.531891 -0.725588 0.436593
vn 0.114401 -0.783707 -0.610505
vn 0.160407 -0.833436 -0.528823
vn 0.160407 -0.833436 -0.528823
vn 0.114696 -0.784073 -0.609979
vn 0.350799 -0.783698 -0.512599
vn 0.436593 -0.725588 -0.531891
vn 0.436512 -0.72562 -0.531915
vn 0.350199 -0.784097 -0.512398
vn 0.0674 -0.725604 -0.684804
vn 0.0675 -0.725599 -0.684799
vn 0.260516 -0.833451 -0.48733
vn 0.260503 -0.833411 -0.487406
vn 0.114401 -0.783707 0.610505
vn 0.0674 -0.725604 0.684804
vn 0.0675 -0.725599 0.684799
vn 0.114696 -0.784073 0.609979
vn -0.114401 -0.783707 0.610505
vn -0.160407 -0.833436 0.528823
vn -0.160407 -0.833436 0.528823
vn -0.114696 -0.784073 0.609979
vn 0.160407 -0.833436 0.528823
vn 0.160407 -0.833436 0.528823
vn -0.0674 -0.725604 0.684804
vn -0.0675 -0.725599 0.684799
vn -0.350799 -0.783698 -0.512599
vn -0.260503 -0.833411 -0.487406
vn -0.260503 -0.833411 -0.487406
vn -0.350199 -0.784097 -0.512398
vn -0.114401 -0.783707 -0.610505
vn -0.0674 -0.725604 -0.684804
vn -0.0675 -0.725599 -0.684799
vn -0.114696 -0.784073 -0.609979
vn -0.436593 -0.725588 -0.531891
vn -0.436593 -0.725588 -0.531891
vn -0.160407 -0.833436 -0.528823
vn -0.160407 -0.833436 -0.528823
vn 0.512599 -0.783698 0.350799
vn 0.531891 -0.725588 0.436593
vn 0.531915 -0.72562 0.436512
vn 0.512398 -0.784097 0.350199
vn 0.260503 -0.833411 0.487406
vn 0.260503 -0.833411 0.487406
vn 0.48733 -0.833451 0.260516
vn 0.487406 -0.833411 0.260503
vn 0.699491 -0.145898 0.69959
vn 0.574589 -0.178297 0.798785
vn 0.545899 -0.1862 0.816899
vn 0.694739 -0.186211 0.694739
vn -0.158504 -0.178305 0.971125
vn -0.374007 -0.211804 0.902916
vn -0.376006 -0.186203 0.907716
vn -0.191705 -0.186205 0.963627
vn -0.374007 -0.211804 -0.902916
vn -0.158504 -0.178305 -0.971125
vn -0.191705 -0.186205 -0.963627
vn -0.376007 -0.186203 -0.907716
vn 0.798785 -0.178297 0.574589
vn 0.816899 -0.1862 0.545899
vn 0 -0.1459 0.989299
vn 0 -0.186202 0.982511
vn -0.574589 -0.178297 -0.798785
vn -0.545899 -0.1862 -0.816899
vn 0.902916 -0.211804 0.374007
vn 0.907716 -0.186203 0.376006
vn -0.699491 -0.145898 -0.69959
vn -0.694739 -0.186211 -0.694739
vn 0.971125 -0.178305 0.158504
vn 0.963627 -0.186205 0.191705
vn -0.798785 -0.178297 -0.574589
vn -0.69954 -0.145908 -0.699539
vn -0.694739 -0.186211 -0.694739
vn -0.816899 -0.1862 -0.545899
vn 0.989299 -0.1459 0
vn 0.982511 -0.186202 0
vn -0.902916 -0.211804 -0.374007
vn -0.907716 -0.186203 -0.376006
vn 0.971125 -0.178305 -0.158504
vn 0.963627 -0.186205 -0.191705
vn -0.971125 -0.178305 -0.158504
vn -0.963627 -0.186205 -0.191705
vn 0.902916 -0.211804 -0.374007
vn 0.907716 -0.186203 -0.376007
vn -0.989299 -0.1459 0
vn -0.982511 -0.186202 0
vn 0.798785 -0.178297 -0.574589
vn 0.816899 -0.1862 -0.545899
vn -0.971125 -0.178305 0.158504
vn -0.963627 -0.186205 0.191705
vn 0.69959 -0.145898 -0.699491
vn 0.694739 -0.186211 -0.694739
vn -0.902916 -0.211804 0.374007
vn -0.907716 -0.186203 0.376007
vn 0.574589 -0.178297 -0.798785
vn 0.545899 -0.1862 -0.816899
vn -0.798785 -0.178297 0.574589
vn -0.816899 -0.1862 0.545899
vn 0.374007 -0.211804 -0.902916
vn 0.376006 -0.186203 -0.907716
vn 0.158504 -0.178305 0.971125
vn 0.191705 -0.186205 0.963627
vn -0.69959 -0.145898 0.699491
vn -0.694739 -0.186211 0.694739
vn 0.158504 -0.178305 -0.971125
vn 0.191705 -0.186205 -0.963627
vn 0.374007 -0.211804 0.902916
vn 0.376007 -0.186203 0.907716
vn -0.574589 -0.178297 0.798785
vn -0.545899 -0.1862 0.816899
vn 0 -0.1459 -0.989299
vn 0 -0.186202 -0.982511
vn 0.685107 0.725308 -0.067501
vn 0.610782 0.783477 -0.114497
vn 0.610304 0.783805 -0.114801
vn 0.68516 0.725258 -0.067496
vn -0.351003 0.783407 -0.512904
vn -0.43678 0.725267 -0.532176
vn -0.43678 0.725267 -0.532176
vn -0.350403 0.783806 -0.512704
vn 0.529119 0.833229 0.160506
vn 0.61083 0.783438 0.114506
vn 0.610304 0.783805 0.114801
vn 0.529119 0.833229 0.160506
vn 0.529119 0.833229 -0.160506
vn 0.529119 0.833229 -0.160506
vn 0.532176 0.725267 0.43678
vn 0.512864 0.783445 0.350975
vn 0.512704 0.783806 0.350403
vn 0.532176 0.725267 0.43678
vn 0.685107 0.725308 0.067501
vn 0.685107 0.725308 0.067501
vn -0.487703 0.833206 0.260602
vn -0.512904 0.783407 0.351003
vn -0.512704 0.783806 0.350403
vn -0.487703 0.833206 0.260602
vn 0.487703 0.833206 0.260602
vn 0.487615 0.833225 0.260708
vn -0.685107 0.725308 0.067501
vn -0.610782 0.783477 0.114497
vn -0.610304 0.783805 0.114801
vn -0.68516 0.725258 0.067496
vn -0.532176 0.725267 0.43678
vn -0.532176 0.725267 0.43678
vn -0.529119 0.833229 -0.160506
vn -0.61083 0.783438 -0.114506
vn -0.610304 0.783805 -0.114801
vn -0.529119 0.833229 -0.160506
vn -0.529119 0.833229 0.160506
vn -0.529119 0.833229 0.160506
vn 0.43678 0.725267 -0.532176
vn 0.350975 0.783445 -0.512864
vn 0.350403 0.783806 -0.512704
vn 0.43678 0.725267 -0.532176
vn -0.685107 0.725308 -0.067501
vn -0.685107 0.725308 -0.067501
vn 0.487703 0.833206 -0.260602
vn 0.512904 0.783407 -0.351003
vn 0.512704 0.783806 -0.350403
vn 0.487703 0.833206 -0.260602
vn 0.260615 0.833247 -0.487627
vn 0.260708 0.833225 -0.487615
vn 0.532176 0.725267 -0.43678
vn 0.532176 0.725267 -0.43678
vn -0.160506 0.833229 0.529119
vn -0.114506 0.783438 0.61083
vn -0.114801 0.783805 0.610304
vn -0.160506 0.833229 0.529119
vn -0.43678 0.725267 0.532176
vn -0.350975 0.783445 0.512864
vn -0.350403 0.783806 0.512704
vn -0.43678 0.725267 0.532176
vn -0.067501 0.725308 0.685107
vn -0.067501 0.725308 0.685107
vn -0.260602 0.833206 0.487703
vn -0.260708 0.833225 0.487615
vn -0.067501 0.725308 -0.685107
vn -0.114497 0.783477 -0.610782
vn -0.114801 0.783805 -0.610304
vn -0.067496 0.725258 -0.68516
vn 0.160506 0.833229 -0.529119
vn 0.114506 0.783438 -0.61083
vn 0.114801 0.783805 -0.610304
vn 0.160506 0.833229 -0.529119
vn -0.160506 0.833229 -0.529119
vn -0.160506 0.833229 -0.529119
vn 0.067501 0.725308 -0.685107
vn 0.067501 0.725308 -0.685107
vn 0.260602 0.833206 0.487703
vn 0.351003 0.783407 0.512904
vn 0.350403 0.783806 0.512704
vn 0.260602 0.833206 0.487703
vn 0.067501 0.725308 0.685107
vn 0.114497 0.783477 0.610782
vn 0.114801 0.783805 0.610304
vn 0.067496 0.725258 0.68516
vn 0.43678 0.725267 0.532176
vn 0.43678 0.725267 0.532176
vn 0.160506 0.833229 0.529119
vn 0.160506 0.833229 0.529119
vn -0.532176 0.725267 -0.43678
vn -0.512864 0.783445 -0.350975
vn -0.512704 0.783806 -0.350403
vn -0.532176 0.725267 -0.43678
vn -0.260602 0.833206 -0.487703
vn -0.260602 0.833206 -0.487703
vn -0.487703 0.833206 -0.260602
vn -0.487615 0.833225 -0.260708
vn 0.555577 0 -0.831465
vn 0.707107 0 -0.707107
vn 0.707107 0 -0.707107
vn 0.555577 0 -0.831465
vn -0.195097 0 0.980784
vn -0.38269 0 0.923877
vn -0.38269 0 0.923877
vn -0.195097 0 0.980784
vn -0.555577 0 -0.831465
vn -0.38269 0 -0.923877
vn -0.38269 0 -0.923877
vn -0.555577 0 -0.831465
vn -0.923877 0 0.38269
vn -0.980784 0 0.195097
vn -0.980784 0 0.195097
vn -0.923877 0 0.38269
vn 0.707107 0 0.707107
vn 0.555577 0 0.831465
vn 0.555577 0 0.831465
vn 0.707107 0 0.707107
vn 0.831465 0 -0.555577
vn 0.831465 0 -0.555577
vn -0.195097 0 -0.980784
vn 0 0 -1
vn 0 0 -1
vn -0.195097 0 -0.980784
vn -1 0 0
vn -1 0 0
vn -0.555577 0 0.831465
vn -0.555577 0 0.831465
vn 0.923877 0 -0.38269
vn 0.923877 0 -0.38269
vn 0.38269 0 0.923877
vn 0.38269 0 0.923877
vn -0.980784 0 -0.195097
vn -0.980784 0 -0.195097
vn 0.195097 0 -0.980784
vn 0.195097 0 -0.980784
vn 0.980784 0 -0.195097
vn 0.980784 0 -0.195097
vn -0.707107 0 0.707107
vn -0.707107 0 0.707107
vn -0.923877 0 -0.38269
vn -0.923877 0 -0.38269
vn 0.195097 0 0.980784
vn 0.195097 0 0.980784
vn 1 0 0
vn 1 0 0
vn 0.38269 0 -0.923877
vn 0.38269 0 -0.923877
vn -0.831465 0 -0.555577
vn -0.831465 0 -0.555577
vn -0.831465 0 0.555577
vn -0.831465 0 0.555577
vn 0.923877 0 0.38269
vn 0.831465 0 0.555577
vn 0.831465 0 0.555577
vn 0.923877 0 0.38269
vn 0.980784 0 0.195097
vn 0.980784 0 0.195097
vn 0 0 1
vn 0 0 1
vn -0.707107 0 -0.707107
vn -0.707107 0 -0.707107
vn -0.707107 0 -0.707107
vn -0.707107 0 -0.707107
vn -0.092999 -0.144098 -0.985184
vn 0 -0.106095 -0.994356
vn -0.371794 -0.236496 0.897685
vn -0.630883 -0.144096 0.76238
vn 0.630883 -0.144096 0.76238
vn 0.37188 -0.236487 0.897652
vn 0.092998 -0.144098 -0.985184
vn -0.703115 -0.106102 0.703115
vn 0.092999 -0.144098 0.985184
vn 0.371794 -0.236496 -0.897685
vn -0.76238 -0.144096 0.630883
vn 0 -0.106095 0.994356
vn 0.630883 -0.144096 -0.76238
vn -0.897652 -0.236487 0.37188
vn 0.703115 -0.106102 -0.703115
vn -0.985184 -0.144098 0.092999
vn 0.76238 -0.144096 -0.630883
vn -0.994356 -0.106095 0
vn 0.897652 -0.236487 -0.37188
vn -0.985184 -0.144098 -0.092998
vn 0.985184 -0.144098 -0.092999
vn -0.897685 -0.236496 -0.371794
vn 0.994356 -0.106095 0
vn -0.76238 -0.144096 -0.630883
vn 0.985184 -0.144098 0.092998
vn -0.703115 -0.106102 -0.703115
vn 0.897685 -0.236496 0.371794
vn -0.703115 -0.106102 -0.703115
vn -0.630883 -0.144096 -0.76238
vn 0.76238 -0.144096 0.630883
vn -0.37188 -0.236487 -0.897652
vn -0.092998 -0.144098 0.985184
vn 0.703115 -0.106102 0.703115
vn 0 1 0
vn 0 1 0
vn 0 1 0
vn 0 1 0
vn 0 1 0
vn 0 1 0
vn 0 1 0
vn 0 1 0
vn 0 1 0
vn 0 1 0
vn 0 1 0
vn 0 1 0
vn 0 1 0
vn 0 1 0
vn 0 1 0
vn 0 1 0
vn 0 1 0
vn 0 1 0
vn 0 1 0
vn 0 1 0
vn 0 1 0
vn 0 1 0
vn 0 1 0
vn 0 1 0
vn 0 1 0
vn 0 1 0
vn 0 1 0
vn 0 1 0
vn 0 1 0
vn 0 1 0
vn 0 1 0
vn 0 1 0
vn 0 1 0
vn 0 1 0
vn 0 1 0
vn 0 1 0
vn 0 1 0
vn 0 1 0
vn 0 1 0
vn 0 1 0
vn 0 1 0
vn 0 1 0
vn 0 1 0
vn 0 1 0
vn 0 1 0
vn 0 1 0
vn 0 1 0
vn 0 1 0
vn 0 1 0
vn 0 1 0
vn 0 1 0
vn 0 1 0
vn 0 1 0
vn 0 1 0
vn 0 1 0
vn 0 1 0
vn 0 1 0
vn 0 1 0
vn 0 1 0
vn 0 1 0
vn 0 1 0
vn 0 1 0
vn 0 1 0
vn 0 1 0
vn 0 1 0
vn 0 1 0
vn 0.38269 0 -0.923877
vn 0.555577 0 -0.831465
vn 0.555577 0 -0.831465
vn 0.38269 0 -0.923877
vn 0.195097 0 0.980784
vn 0 0 1
vn 0 0 1
vn 0.195097 0 0.980784
vn -0.707107 0 0.707107
vn -0.831465 0 0.555577
vn -0.831465 0 0.555577
vn -0.707107 0 0.707107
vn 0.195097 0 -0.980784
vn 0.195097 0 -0.980784
vn 0.38269 0 0.923877
vn 0.38269 0 0.923877
vn -0.555577 0 0.831465
vn -0.555577 0 0.831465
vn 0 0 -1
vn 0 0 -1
vn 0.555577 0 0.831465
vn 0.555577 0 0.831465
vn -0.38269 0 0.923877
vn -0.38269 0 0.923877
vn -0.195097 0 -0.980784
vn -0.195097 0 -0.980784
vn 0.707107 0 0.707107
vn 0.707107 0 0.707107
vn -0.195097 0 0.980784
vn -0.195097 0 0.980784
vn -0.38269 0 -0.923877
vn -0.38269 0 -0.923877
vn 0.831465 0 0.555577
vn 0.831465 0 0.555577
vn -0.555577 0 -0.831465
vn -0.555577 0 -0.831465
vn 0.923877 0 0.38269
vn 0.923877 0 0.38269
vn -0.707107 0 -0.707107
vn -0.707107 0 -0.707107
vn 0.980784 0 0.195097
vn 0.980784 0 0.195097
vn -0.831465 0 -0.555577
vn -0.707107 0 -0.707107
vn -0.707107 0 -0.707107
vn -0.831465 0 -0.555577
vn 1 0 0
vn 1 0 0
vn -0.923877 0 -0.38269
vn -0.923877 0 -0.38269
vn 0.980784 0 -0.195097
vn 0.980784 0 -0.195097
vn -0.980784 0 -0.195097
vn -0.980784 0 -0.195097
vn 0.923877 0 -0.38269
vn 0.923877 0 -0.38269
vn -1 0 0
vn -1 0 0
vn 0.831465 0 -0.555577
vn 0.831465 0 -0.555577
vn -0.980784 0 0.195097
vn -0.980784 0 0.195097
vn 0.707107 0 -0.707107
vn 0.707107 0 -0.707107
vn -0.923877 0 0.38269
vn -0.923877 0 0.38269
vn 0 -1 0
vn 0 -1 0
vn 0 -1 0
vn 0 -1 0
vn 0 -1 0
vn 0 -1 0
vn 0 -1 0
vn 0 -1 0
vn 0 -1 0
vn 0 -1 0
vn 0 -1 0
vn 0 -1 0
vn 0 -1 0
vn 0 -1 0
vn 0 -1 0
vn 0 -1 0
vn 0 -1 0
vn 0 -1 0
vn 0 -1 0
vn 0 -1 0
vn 0 -1 0
vn 0 -1 0
vn 0 -1 0
vn 0 -1 0
vn 0 -1 0
vn 0 -1 0
vn 0 -1 0
vn 0 -1 0
vn 0 -1 0
vn 0 -1 0
vn 0 -1 0
vn 0 -1 0
vn 0 -1 0
vn 0 -1 0
vn 0 -1 0
vn 0 -1 0
vn 0 -1 0
vn 0 -1 0
vn 0 -1 0
vn 0 -1 0
vn 0 -1 0
vn 0 -1 0
vn 0 -1 0
vn 0 -1 0
vn 0 -1 0
vn 0 -1 0
vn 0 -1 0
vn 0 -1 0
vn 0 -1 0
vn 0 -1 0
vn 0 -1 0
vn 0 -1 0
vn 0 -1 0
vn 0 -1 0
vn 0 -1 0
vn 0 -1 0
vn 0 -1 0
vn 0 -1 0
vn 0 -1 0
vn 0 -1 0
vn 0 -1 0
vn 0 -1 0
vn 0 -1 0
vn 0 -1 0
vn 0 -1 0
vn 0 -1 0
vn 0 1 0
vn 0 1 0
vn 0 1 0
vn 0 1 0
vn 0 1 0
vn 0 1 0
vn 0 1 0
vn 0 1 0
vn 0 1 0
vn 0 1 0
vn 0 1 0
vn 0 1 0
vn 0 1 0
vn 0 1 0
vn 0 1 0
vn 0 1 0
vn 0 1 0
vn 0 1 0
vn 0 1 0
vn 0 1 0
vn 0 1 0
vn 0 1 0
vn 0 1 0
vn 0 1 0
vn 0 1 0
vn 0 1 0
vn 0 1 0
vn 0 1 0
vn 0 1 0
vn 0 1 0
vn 0 1 0
vn 0 1 0
vn 0 1 0
vn 0 1 0
vn 0 1 0
vn 0 1 0
vn 0 1 0
vn 0 1 0
vn 0 1 0
vn 0 1 0
vn 0 1 0
vn 0 1 0
vn 0 1 0
vn 0 1 0
vn 0 1 0
vn 0 1 0
vn 0 1 0
vn 0 1 0
vn 0 1 0
vn 0 1 0
vn 0 1 0
vn 0 1 0
vn 0 1 0
vn 0 1 0
vn 0 1 0
vn 0 1 0
vn 0 1 0
vn 0 1 0
vn 0 1 0
vn 0 1 0
vn 0 1 0
vn 0 1 0
vn 0 1 0
vn 0 1 0
vn 0 1 0
vn 0 1 0
vn 0 0 -1
vn 0.195097 0 -0.980784
vn 0.195097 0 -0.980784
vn 0 0 -1
vn 0.555577 0 -0.831465
vn 0.707107 0 -0.707107
vn 0.707107 0 -0.707107
vn 0.555577 0 -0.831465
vn 0.38269 0 -0.923877
vn 0.38269 0 -0.923877
vn 0.831465 0 -0.555577
vn 0.923877 0 -0.38269
vn 0.923877 0 -0.38269
vn 0.831465 0 -0.555577
vn 0.980784 0 -0.195097
vn 1 0 0
vn 1 0 0
vn 0.980784 0 -0.195097
vn 0.980784 0 0.195097
vn 0.923877 0 0.38269
vn 0.923877 0 0.38269
vn 0.980784 0 0.195097
vn 0.831465 0 0.555577
vn 0.707107 0 0.707107
vn 0.707107 0 0.707107
vn 0.831465 0 0.555577
vn -0.195097 0 0.980784
vn -0.38269 0 0.923877
vn -0.38269 0 0.923877
vn -0.195097 0 0.980784
vn 0.555577 0 0.831465
vn 0.38269 0 0.923877
vn 0.38269 0 0.923877
vn 0.555577 0 0.831465
vn -0.555577 0 0.831465
vn -0.707107 0 0.707107
vn -0.707107 0 0.707107
vn -0.555577 0 0.831465
vn 0 0 1
vn 0 0 1
vn -0.923877 0 0.38269
vn -0.980784 0 0.195097
vn -0.980784 0 0.195097
vn -0.923877 0 0.38269
vn -0.831465 0 0.555577
vn -0.831465 0 0.555577
vn -1 0 0
vn -1 0 0
vn 0.195097 0 0.980784
vn 0.195097 0 0.980784
vn -0.980784 0 -0.195097
vn -0.923877 0 -0.38269
vn -0.923877 0 -0.38269
vn -0.980784 0 -0.195097
vn -0.831465 0 -0.555577
vn -0.707107 0 -0.707107
vn -0.707107 0 -0.707107
vn -0.831465 0 -0.555577
vn -0.555577 0 -0.831465
vn -0.38269 0 -0.923877
vn -0.38269 0 -0.923877
vn -0.555577 0 -0.831465
vn -0.707107 0 -0.707107
vn -0.707107 0 -0.707107
vn -0.195097 0 -0.980784
vn -0.195097 0 -0.980784
vn 0.206005 -0.974826 -0.085302
vn 0.218705 -0.974821 -0.043501
vn -0.20621 -0.977648 0.041002
vn -0.194306 -0.977632 0.080503
vn 0.218705 -0.974821 0.043501
vn 0.206005 -0.974826 0.085302
vn -0.194306 -0.977632 -0.080503
vn -0.20621 -0.977648 -0.041002
vn 0.223004 -0.974818 0
vn -0.210308 -0.977635 0
vn 0.185404 -0.97482 0.123902
vn 0.157702 -0.974813 0.157702
vn -0.148706 -0.977637 -0.148706
vn -0.174809 -0.977649 -0.116806
vn -0.043501 -0.974821 0.218705
vn -0.085302 -0.974826 0.206005
vn 0.080503 -0.977632 -0.194306
vn 0.041002 -0.977648 -0.20621
vn 0.123903 -0.97482 0.185404
vn 0.085302 -0.974826 0.206005
vn -0.080503 -0.977632 -0.194306
vn -0.116806 -0.977649 -0.174809
vn -0.123903 -0.97482 0.185404
vn -0.157702 -0.974813 0.157702
vn 0.148706 -0.977637 -0.148706
vn 0.116806 -0.977649 -0.174809
vn 0 -0.974818 0.223004
vn 0 -0.977635 -0.210308
vn -0.206005 -0.974826 0.085302
vn -0.218705 -0.974821 0.043501
vn 0.20621 -0.977648 -0.041002
vn 0.194306 -0.977632 -0.080503
vn -0.185404 -0.97482 0.123903
vn 0.174809 -0.977649 -0.116806
vn -0.223004 -0.974818 0
vn 0.210308 -0.977635 0
vn 0.043501 -0.974821 0.218705
vn -0.041002 -0.977648 -0.20621
vn -0.218705 -0.974821 -0.043501
vn -0.206005 -0.974826 -0.085302
vn 0.194306 -0.977632 0.080503
vn 0.20621 -0.977648 0.041002
vn -0.185404 -0.97482 -0.123902
vn -0.157702 -0.974813 -0.157702
vn 0.148706 -0.977637 0.148706
vn 0.174809 -0.977649 0.116806
vn -0.123903 -0.97482 -0.185404
vn -0.085302 -0.974826 -0.206005
vn 0.080503 -0.977632 0.194306
vn 0.116806 -0.977649 0.174809
vn -0.157702 -0.974813 -0.157702
vn 0.148706 -0.977637 0.148706
vn -0.043501 -0.974821 -0.218705
vn 0 -0.974818 -0.223004
vn 0 -0.977635 0.210308
vn 0.041002 -0.977648 0.20621
vn 0.043501 -0.974821 -0.218705
vn 0.085302 -0.974826 -0.206005
vn -0.080503 -0.977632 0.194306
vn -0.041002 -0.977648 0.20621
vn 0.123903 -0.97482 -0.185404
vn 0.157702 -0.974813 -0.157702
vn -0.148706 -0.977637 0.148706
vn -0.116806 -0.977649 0.174809
vn 0.185404 -0.97482 -0.123903
vn -0.174809 -0.977649 0.116806
vn 0.402708 -0.911817 -0.080102
vn 0.410606 -0.911813 0
vn 0.290311 -0.911833 -0.290311
vn 0.341406 -0.911817 -0.228104
vn 0.379314 -0.911833 -0.157106
vn 0.157106 -0.911833 -0.379314
vn 0.228104 -0.911817 -0.341406
vn 0 -0.911813 -0.410606
vn 0.080101 -0.911817 -0.402708
vn -0.157106 -0.911833 -0.379314
vn -0.080102 -0.911817 -0.402708
vn -0.290311 -0.911833 -0.290311
vn -0.228104 -0.911817 -0.341406
vn -0.379314 -0.911833 -0.157106
vn -0.341406 -0.911817 -0.228104
vn -0.290311 -0.911833 -0.290311
vn -0.410606 -0.911813 0
vn -0.402708 -0.911817 -0.080101
vn 0.157106 -0.911833 0.379314
vn 0.080102 -0.911817 0.402708
vn 0 -0.911813 0.410606
vn -0.157106 -0.911833 0.379314
vn -0.228104 -0.911817 0.341406
vn -0.402708 -0.911817 0.080102
vn -0.290311 -0.911833 0.290311
vn -0.341406 -0.911817 0.228104
vn 0.290311 -0.911833 0.290311
vn 0.228104 -0.911817 0.341406
vn -0.379314 -0.911833 0.157106
vn -0.080101 -0.911817 0.402708
vn 0.379314 -0.911833 0.157106
vn 0.341406 -0.911817 0.228104
vn 0.402708 -0.911817 0.080101
vn 0 -0.977615 -0.210403
vn 0.041001 -0.977628 -0.206306
vn 0.085301 -0.899313 -0.428906
vn 0 -0.899313 -0.437306
vn 0.194403 -0.977613 -0.080501
vn 0.206305 -0.977624 -0.041101
vn 0.428906 -0.899313 -0.085301
vn 0.404011 -0.899324 -0.167305
vn 0.174904 -0.977621 -0.116903
vn 0.36361 -0.899324 -0.242907
vn -0.148803 -0.977622 -0.148703
vn -0.116903 -0.977621 -0.174904
vn -0.242907 -0.899324 -0.36361
vn -0.309208 -0.899323 -0.309208
vn 0.148801 -0.977608 -0.148801
vn 0.309208 -0.899323 -0.309208
vn 0.210403 -0.977615 0
vn 0.437306 -0.899313 0
vn 0.080501 -0.977613 -0.194403
vn 0.116902 -0.977621 -0.174904
vn 0.242907 -0.899324 -0.36361
vn 0.167305 -0.899324 -0.404011
vn -0.041101 -0.977624 -0.206305
vn -0.085301 -0.899313 -0.428906
vn 0.206306 -0.977628 0.041001
vn 0.194403 -0.977613 0.080501
vn 0.404011 -0.899324 0.167304
vn 0.428906 -0.899313 0.085301
vn -0.080501 -0.977613 -0.194403
vn -0.167305 -0.899324 -0.404011
vn 0.174904 -0.977621 0.116902
vn 0.148706 -0.977637 0.148706
vn 0.309208 -0.899323 0.309208
vn 0.36361 -0.899324 0.242907
vn 0.116903 -0.977621 0.174904
vn 0.080501 -0.977613 0.194403
vn 0.167305 -0.899324 0.404011
vn 0.242907 -0.899324 0.36361
vn 0.148703 -0.977622 0.148803
vn 0.309208 -0.899323 0.309208
vn 0.041101 -0.977624 0.206305
vn 0 -0.977615 0.210403
vn 0 -0.899313 0.437306
vn 0.085301 -0.899313 0.428906
vn -0.041001 -0.977628 0.206306
vn -0.080501 -0.977613 0.194403
vn -0.167305 -0.899324 0.404011
vn -0.085301 -0.899313 0.428906
vn -0.116902 -0.977621 0.174904
vn -0.148801 -0.977608 0.148801
vn -0.309208 -0.899323 0.309208
vn -0.242907 -0.899324 0.36361
vn -0.174904 -0.977621 0.116903
vn -0.194403 -0.977613 0.080501
vn -0.404011 -0.899324 0.167305
vn -0.36361 -0.899324 0.242907
vn -0.206305 -0.977624 0.041101
vn -0.210403 -0.977615 0
vn -0.437306 -0.899313 0
vn -0.428906 -0.899313 0.085301
vn -0.206306 -0.977628 -0.041001
vn -0.194403 -0.977613 -0.080501
vn -0.404011 -0.899324 -0.167304
vn -0.428906 -0.899313 -0.085301
vn -0.174904 -0.977621 -0.116902
vn -0.36361 -0.899324 -0.242907
vn 0 0.166798 -0.985991
vn 0.073497 0.22119 -0.972457
vn -0.0014 0.1899 -0.981802
vn 0 0.166798 -0.985991
vn 0.370392 0.251495 -0.894181
vn 0.370392 0.251495 -0.894181
vn 0.635624 0.221208 -0.739628
vn 0.695276 0.189993 -0.693176
vn 0.697201 0.1668 -0.697201
vn 0.697201 0.1668 -0.697201
vn 0.739628 0.221208 -0.635624
vn 0.693189 0.189897 -0.695289
vn 0.894181 0.251495 -0.370392
vn 0.894181 0.251495 -0.370392
vn 0.972457 0.22119 -0.073497
vn 0.981802 0.1899 0.0015
vn 0.985991 0.166798 0
vn 0.985991 0.166798 0
vn 0.972457 0.22119 0.073497
vn 0.981802 0.1899 -0.0014
vn 0.894181 0.251495 0.370392
vn 0.894181 0.251495 0.370392
vn 0.739628 0.221208 0.635624
vn 0.69319 0.189897 0.695289
vn 0.697201 0.1668 0.697201
vn 0.697201 0.1668 0.697201
vn 0.697201 0.1668 0.697201
vn 0.635624 0.221208 0.739628
vn 0.69529 0.189897 0.693189
vn 0.697201 0.1668 0.697201
vn 0.370392 0.251495 0.894181
vn 0.370392 0.251495 0.894181
vn 0.073497 0.22119 0.972457
vn -0.0015 0.189997 0.981784
vn 0 0.166798 0.985991
vn 0 0.166798 0.985991
vn -0.073497 0.22119 0.972457
vn 0.0014 0.1899 0.981802
vn -0.370392 0.251495 0.894181
vn -0.370392 0.251495 0.894181
vn -0.635624 0.221208 0.739628
vn -0.695276 0.189993 0.693176
vn -0.697201 0.1668 0.697201
vn -0.697201 0.1668 0.697201
vn -0.739628 0.221208 0.635624
vn -0.693189 0.189897 0.695289
vn -0.894181 0.251495 0.370392
vn -0.894181 0.251495 0.370392
vn -0.972457 0.22119 0.073497
vn -0.981784 0.189997 -0.0014
vn -0.985991 0.166798 0
vn -0.985991 0.166798 0
vn -0.972457 0.22119 -0.073497
vn -0.981802 0.1899 0.0014
vn -0.894181 0.251495 -0.370392
vn -0.894181 0.251495 -0.370392
vn -0.739628 0.221208 -0.635624
vn -0.69319 0.189897 -0.695289
vn -0.697201 0.1668 -0.697201
vn -0.697201 0.1668 -0.697201
vn -0.635624 0.221208 -0.739628
vn -0.69529 0.189897 -0.693189
vn -0.370392 0.251495 -0.894181
vn -0.370392 0.251495 -0.894181
vn -0.073497 0.22119 -0.972457
vn 0.0015 0.189997 -0.981784
vn -0.559771 -0.822058 0.104295
vn -0.634328 -0.770533 0.062503
vn -0.634332 -0.770538 0.062403
vn -0.559324 -0.822335 0.104505
vn -0.479073 -0.86565 0.145392
vn -0.47908 -0.865663 0.145294
vn 0.469572 -0.82205 -0.322081
vn 0.441488 -0.865676 -0.235994
vn 0.441488 -0.865676 -0.235994
vn 0.469429 -0.822351 -0.32152
vn 0.492709 -0.770514 -0.404408
vn 0.492709 -0.770514 -0.404408
vn -0.322107 -0.822018 0.46961
vn -0.404407 -0.770514 0.492709
vn -0.404407 -0.770514 0.492709
vn -0.32161 -0.822325 0.469414
vn -0.235994 -0.865676 0.441488
vn -0.235994 -0.865676 0.441488
vn 0.104295 -0.822058 -0.559771
vn 0.145294 -0.865663 -0.47908
vn 0.145294 -0.865663 -0.47908
vn 0.104603 -0.822327 -0.559318
vn 0.062503 -0.770534 -0.634328
vn 0.062499 -0.770485 -0.634387
vn 0.104303 -0.822025 0.559817
vn 0.062503 -0.770534 0.634328
vn 0.062399 -0.770489 0.634391
vn 0.104505 -0.822335 0.559324
vn 0.145392 -0.86565 0.479073
vn 0.145294 -0.865663 0.47908
vn -0.322081 -0.82205 -0.469572
vn -0.235994 -0.865676 -0.441488
vn -0.235994 -0.865676 -0.441488
vn -0.32152 -0.822351 -0.469429
vn -0.404408 -0.770514 -0.492709
vn -0.404408 -0.770514 -0.492709
vn 0.469572 -0.82205 0.322081
vn 0.492709 -0.770514 0.404407
vn 0.492709 -0.770514 0.404407
vn 0.469414 -0.822325 0.32161
vn 0.441488 -0.865676 0.235993
vn 0.441488 -0.865676 0.235993
vn -0.559771 -0.822058 -0.104295
vn -0.47908 -0.865663 -0.145294
vn -0.47908 -0.865663 -0.145294
vn -0.559324 -0.822335 -0.104504
vn -0.634387 -0.770485 -0.062499
vn -0.634387 -0.770485 -0.062499
vn 0.559817 -0.822025 -0.104303
vn 0.634328 -0.770533 -0.062503
vn 0.634391 -0.770489 -0.062399
vn 0.559324 -0.822335 -0.104505
vn 0.479073 -0.86565 -0.145392
vn 0.47908 -0.865663 -0.145294
vn -0.469572 -0.82205 0.322081
vn -0.441488 -0.865676 0.235994
vn -0.441488 -0.865676 0.235994
vn -0.469507 -0.822312 0.321505
vn -0.492709 -0.770514 0.404408
vn -0.492709 -0.770514 0.404408
vn 0.322096 -0.822089 -0.469494
vn 0.404407 -0.770514 -0.492709
vn 0.404407 -0.770514 -0.492709
vn 0.32161 -0.822325 -0.469414
vn 0.235994 -0.865676 -0.441488
vn 0.235994 -0.865676 -0.441488
vn -0.104295 -0.822058 0.559771
vn -0.145294 -0.865663 0.47908
vn -0.145294 -0.865663 0.47908
vn -0.104504 -0.822335 0.559324
vn -0.062503 -0.770534 0.634328
vn -0.062499 -0.770485 0.634387
vn -0.104295 -0.822058 -0.559771
vn -0.062503 -0.770534 -0.634328
vn -0.062399 -0.770489 -0.634391
vn -0.104505 -0.822335 -0.559324
vn -0.145392 -0.86565 -0.479073
vn -0.145294 -0.865663 -0.47908
vn 0.322081 -0.82205 0.469572
vn 0.235994 -0.865676 0.441488
vn 0.235994 -0.865676 0.441488
vn 0.32161 -0.822325 0.469414
vn 0.404408 -0.770514 0.492709
vn 0.404408 -0.770514 0.492709
vn -0.469572 -0.82205 -0.322081
vn -0.492709 -0.770514 -0.404407
vn -0.492709 -0.770514 -0.404407
vn -0.469414 -0.822325 -0.32161
vn -0.441488 -0.865676 -0.235993
vn -0.441488 -0.865676 -0.235993
vn 0.559771 -0.822058 0.104295
vn 0.47908 -0.865663 0.145294
vn 0.47908 -0.865663 0.145294
vn 0.559324 -0.822335 0.104504
vn 0.634328 -0.770533 0.062503
vn 0.634328 -0.770533 0.062503
vn 0 0.109103 -0.99403
vn 0.150805 0.121804 -0.981031
vn 0.114202 0.117202 -0.98652
vn 0 0.109103 -0.99403
vn 0.379185 0.134695 -0.915465
vn 0.379185 0.134695 -0.915465
vn 0.587099 0.1218 -0.800299
vn 0.616822 0.117204 -0.778328
vn 0.702886 0.109098 -0.702886
vn 0.702886 0.109098 -0.702886
vn 0.800299 0.1218 -0.5871
vn 0.778328 0.117204 -0.616822
vn 0.915465 0.134695 -0.379185
vn 0.915465 0.134695 -0.379185
vn 0.981031 0.121804 -0.150805
vn 0.98652 0.117202 -0.114202
vn 0.99403 0.109103 0
vn 0.99403 0.109103 0
vn 0.981031 0.121804 0.150805
vn 0.98652 0.117202 0.114202
vn 0.915449 0.134707 0.37922
vn 0.915465 0.134695 0.379185
vn 0.800299 0.1218 0.587099
vn 0.778328 0.117204 0.616822
vn 0.702886 0.109098 0.702886
vn 0.702886 0.109098 0.702886
vn 0.702886 0.109098 0.702886
vn 0.5871 0.1218 0.800299
vn 0.616822 0.117204 0.778328
vn 0.702886 0.109098 0.702886
vn 0.379186 0.134695 0.915465
vn 0.379186 0.134695 0.915465
vn 0.150805 0.121804 0.981031
vn 0.114202 0.117202 0.98652
vn 0 0.109103 0.99403
vn 0 0.109103 0.99403
vn -0.150805 0.121804 0.981031
vn -0.114202 0.117202 0.98652
vn -0.37922 0.134707 0.915449
vn -0.379185 0.134695 0.915465
vn -0.587099 0.1218 0.800299
vn -0.616822 0.117204 0.778328
vn -0.702886 0.109098 0.702886
vn -0.702886 0.109098 0.702886
vn -0.800299 0.1218 0.5871
vn -0.778328 0.117204 0.616822
vn -0.915465 0.134695 0.379185
vn -0.915465 0.134695 0.379185
vn -0.981031 0.121804 0.150805
vn -0.98652 0.117202 0.114202
vn -0.99403 0.109103 0
vn -0.99403 0.109103 0
vn -0.981031 0.121804 -0.150805
vn -0.98652 0.117202 -0.114202
vn -0.915449 0.134707 -0.37922
vn -0.915465 0.134695 -0.379185
vn -0.800299 0.1218 -0.587099
vn -0.778328 0.117204 -0.616822
vn -0.702886 0.109098 -0.702886
vn -0.702886 0.109098 -0.702886
vn -0.5871 0.1218 -0.800299
vn -0.616822 0.117204 -0.778328
vn -0.379186 0.134695 -0.915465
vn -0.379186 0.134695 -0.915465
vn -0.150805 0.121804 -0.981031
vn -0.114202 0.117202 -0.98652
vn -0.888155 0.458477 -0.031298
vn -0.888155 0.458477 -0.031298
vn -0.888155 0.458477 -0.031298
vn -0.888155 0.458477 -0.031298
vn 0.888155 -0.458477 0.031298
vn 0.888155 -0.458477 0.031298
vn 0.888155 -0.458477 0.031298
vn 0.888155 -0.458477 0.031298
vn -0.888155 -0.458477 0.031298
vn -0.888155 -0.458477 0.031298
vn -0.888155 -0.458477 0.031298
vn -0.888155 -0.458477 0.031298
vn 0.888155 0.458477 -0.031298
vn 0.888155 0.458477 -0.031298
vn 0.888155 0.458477 -0.031298
vn 0.888155 0.458477 -0.031298
vn -0.646292 0.458494 0.609992
vn -0.646292 0.458494 0.609992
vn -0.646292 0.458494 0.609992
vn -0.646292 0.458494 0.609992
vn 0.646292 -0.458494 -0.609992
vn 0.646292 -0.458494 -0.609992
vn 0.646292 -0.458494 -0.609992
vn 0.646292 -0.458494 -0.609992
vn -0.601769 -0.458477 0.653967
vn -0.601769 -0.458477 0.653967
vn -0.601769 -0.458477 0.653967
vn -0.601769 -0.458477 0.653967
vn 0.601769 0.458477 -0.653967
vn 0.601769 0.458477 -0.653967
vn 0.601769 0.458477 -0.653967
vn 0.601769 0.458477 -0.653967
vn -0.0264 0.458501 0.888302
vn -0.0264 0.458501 0.888302
vn -0.0264 0.458501 0.888302
vn -0.0264 0.458501 0.888302
vn 0.0264 -0.458501 -0.888302
vn 0.0264 -0.458501 -0.888302
vn 0.0264 -0.458501 -0.888302
vn 0.0264 -0.458501 -0.888302
vn 0.036099 -0.458484 0.887969
vn 0.036099 -0.458484 0.887969
vn 0.036099 -0.458484 0.887969
vn 0.036099 -0.458484 0.887969
vn -0.036099 0.458484 -0.887969
vn -0.036099 0.458484 -0.887969
vn -0.036099 0.458484 -0.887969
vn -0.036099 0.458484 -0.887969
vn 0.609316 0.458512 0.646917
vn 0.609316 0.458512 0.646917
vn 0.609316 0.458512 0.646917
vn 0.609316 0.458512 0.646917
vn -0.609316 -0.458512 -0.646917
vn -0.609316 -0.458512 -0.646917
vn -0.609316 -0.458512 -0.646917
vn -0.609316 -0.458512 -0.646917
vn 0.65329 -0.458493 0.602491
vn 0.65329 -0.458493 0.602491
vn 0.65329 -0.458493 0.602491
vn 0.65329 -0.458493 0.602491
vn -0.65329 0.458493 -0.602491
vn -0.65329 0.458493 -0.602491
vn -0.65329 0.458493 -0.602491
vn -0.65329 0.458493 -0.602491
vn 0.888309 0.458504 0.0261
vn 0.888309 0.458504 0.0261
vn 0.888309 0.458504 0.0261
vn 0.888309 0.458504 0.0261
vn -0.888309 -0.458504 -0.0261
vn -0.888309 -0.458504 -0.0261
vn -0.888309 -0.458504 -0.0261
vn -0.888309 -0.458504 -0.0261
vn 0.88796 -0.458479 -0.036398
vn 0.88796 -0.458479 -0.036398
vn 0.88796 -0.458479 -0.036398
vn 0.88796 -0.458479 -0.036398
vn -0.88796 0.458479 0.036398
vn -0.88796 0.458479 0.036398
vn -0.88796 0.458479 0.036398
vn -0.88796 0.458479 0.036398
vn 0.64678 0.458486 -0.609481
vn 0.64678 0.458486 -0.609481
vn 0.64678 0.458486 -0.609481
vn 0.64678 0.458486 -0.609481
vn -0.64678 -0.458486 0.609481
vn -0.64678 -0.458486 0.609481
vn -0.64678 -0.458486 0.609481
vn -0.64678 -0.458486 0.609481
vn 0.602285 -0.458489 -0.653484
vn 0.602285 -0.458489 -0.653484
vn 0.602285 -0.458489 -0.653484
vn 0.602285 -0.458489 -0.653484
vn -0.602285 0.458489 0.653484
vn -0.602285 0.458489 0.653484
vn -0.602285 0.458489 0.653484
vn -0.602285 0.458489 0.653484
vn 0.027099 0.458492 -0.888285
vn 0.027099 0.458492 -0.888285
vn 0.027099 0.458492 -0.888285
vn 0.027099 0.458492 -0.888285
vn -0.027099 -0.458492 0.888285
vn -0.027099 -0.458492 0.888285
vn -0.027099 -0.458492 0.888285
vn -0.027099 -0.458492 0.888285
vn -0.0354 -0.458496 -0.887991
vn -0.0354 -0.458496 -0.887991
vn -0.0354 -0.458496 -0.887991
vn -0.0354 -0.458496 -0.887991
vn 0.0354 0.458496 0.887991
vn 0.0354 0.458496 0.887991
vn 0.0354 0.458496 0.887991
vn 0.0354 0.458496 0.887991
vn -0.608804 0.458503 -0.647404
vn -0.608804 0.458503 -0.647404
vn -0.608804 0.458503 -0.647404
vn -0.608804 0.458503 -0.647404
vn 0.608804 -0.458503 0.647404
vn 0.608804 -0.458503 0.647404
vn 0.608804 -0.458503 0.647404
vn 0.608804 -0.458503 0.647404
vn -0.652864 -0.458475 -0.602967
vn -0.652864 -0.458475 -0.602967
vn -0.652864 -0.458475 -0.602967
vn -0.652864 -0.458475 -0.602967
vn 0.652864 0.458475 0.602967
vn 0.652864 0.458475 0.602967
vn 0.652864 0.458475 0.602967
vn 0.652864 0.458475 0.602967
f 195/1/1 214/2/2 212/3/3
f 208/7/7 195/1/1 212/3/3
f 59/9/9 63/10/10 57/11/11
f 152/12/12 146/13/13 57/14/14
f 146/15/15 59/9/9 57/11/11
f 63/16/16 152/12/12 57/14/14
f 28/17/17 33/18/18 27/19/19
f 15/23/23 28/17/17 27/19/19
f 153/25/25 64/26/26 58/27/27
f 60/28/28 147/29/29 58/30/30
f 147/31/31 153/25/25 58/27/27
f 64/32/32 60/28/28 58/30/30
f 196/36/36 194/37/37 213/38/38
f 215/40/40 196/36/36 213/38/38
f 92/41/41 96/42/42 90/43/43
f 269/44/44 263/45/45 90/46/46
f 263/47/47 92/41/41 90/43/43
f 96/48/48 269/44/44 90/46/46
f 124/49/49 130/50/50 125/51/51
f 113/55/55 124/49/49 125/51/51
f 268/57/57 95/58/58 89/59/59
f 91/60/60 262/61/61 89/62/62
f 262/63/63 268/57/57 89/59/59
f 95/64/64 91/60/60 89/62/62
f 126/65/65 98/66/66 94/67/67
f 126/65/65 94/67/67 122/68/68
f 45/69/69 156/70/70 154/71/71
f 45/69/69 154/71/71 43/72/72
f 131/73/73 126/65/65 122/68/68
f 131/73/73 122/68/68 128/74/74
f 65/75/75 45/76/76 43/77/77
f 65/75/75 43/77/77 61/78/78
f 105/79/79 131/73/73 128/74/74
f 105/79/79 128/74/74 104/80/80
f 26/81/81 65/75/75 61/78/78
f 26/81/81 61/78/78 24/82/82
f 129/83/83 105/79/79 104/80/80
f 129/83/83 104/80/80 127/84/84
f 32/85/85 26/81/81 24/82/82
f 32/85/85 24/82/82 30/86/86
f 123/87/87 129/83/83 127/84/84
f 123/87/87 127/84/84 121/88/88
f 7/89/89 32/85/85 30/86/86
f 7/89/89 30/86/86 6/90/90
f 97/91/91 123/87/87 121/88/88
f 97/91/91 121/88/88 93/92/92
f 34/93/93 7/89/89 6/90/90
f 34/93/93 6/90/90 31/94/94
f 77/95/95 97/91/91 93/92/92
f 77/95/95 93/92/92 75/96/96
f 29/97/97 34/93/93 31/94/94
f 29/97/97 31/94/94 25/98/98
f 272/99/99 77/95/95 75/96/96
f 272/99/99 75/96/96 270/100/100
f 66/101/101 29/97/97 25/98/98
f 66/101/101 25/98/98 62/102/102
f 246/103/103 272/99/99 270/100/100
f 246/103/103 270/100/100 244/104/104
f 229/105/105 205/106/106 203/107/107
f 229/105/105 203/107/107 227/108/108
f 46/109/109 66/101/101 62/102/102
f 46/109/109 62/102/102 44/110/110
f 228/111/111 246/103/103 244/104/104
f 228/111/111 244/104/104 226/112/112
f 247/113/113 229/105/105 227/108/108
f 247/113/113 227/108/108 245/114/114
f 157/115/115 46/109/109 44/110/110
f 157/115/115 44/110/110 155/116/116
f 204/117/117 228/111/111 226/112/112
f 204/117/117 226/112/112 202/118/118
f 273/119/119 247/113/113 245/114/114
f 273/119/119 245/114/114 271/120/120
f 177/121/121 157/115/115 155/116/116
f 177/121/121 155/116/116 175/122/122
f 190/123/123 204/117/117 202/118/118
f 190/123/123 202/118/118 188/124/124
f 78/125/125 273/119/119 271/120/120
f 78/125/125 271/120/120 76/126/126
f 191/127/127 177/121/121 175/122/122
f 191/127/127 175/122/122 189/128/128
f 176/129/129 190/123/123 188/124/124
f 176/129/129 188/124/124 174/130/130
f 98/66/66 78/125/125 76/126/126
f 98/66/66 76/126/126 94/67/67
f 205/106/106 191/127/127 189/128/128
f 205/106/106 189/128/128 203/107/107
f 156/70/70 176/129/129 174/130/130
f 156/70/70 174/130/130 154/71/71
f 44/135/135 62/137/137 137/138/138
f 155/145/145 44/146/146 137/147/147
f 76/161/161 271/154/154 253/162/162
f 94/169/169 76/170/170 253/171/171
f 43/181/181 154/178/178 136/182/182
f 61/187/187 43/188/188 136/189/189
f 75/215/215 93/210/210 252/216/216
f 270/219/219 75/220/220 252/221/221
f 267/227/227 265/228/228 240/229/229
f 267/227/227 240/229/229 263/230/230
f 187/231/231 173/232/232 170/233/233
f 187/231/231 170/233/233 185/234/234
f 172/235/235 186/236/236 184/237/237
f 172/235/235 184/237/237 169/238/238
f 88/239/239 267/227/227 263/230/230
f 88/239/239 263/230/230 85/240/240
f 211/241/241 187/231/231 185/234/234
f 211/241/241 185/234/234 209/242/242
f 148/243/243 172/235/235 169/238/238
f 120/245/245 88/239/239 85/240/240
f 150/247/247 148/243/243 169/244/244
f 150/247/247 169/244/244 146/248/248
f 119/249/249 120/245/245 85/246/246
f 119/249/249 85/246/246 114/250/250
f 55/251/251 150/252/252 146/253/253
f 55/251/251 146/253/253 52/254/254
f 118/255/255 119/249/249 114/250/250
f 118/255/255 114/250/250 113/256/256
f 19/257/257 55/251/251 52/254/254
f 117/259/259 118/255/255 113/256/256
f 117/259/259 113/256/256 112/260/260
f 20/261/261 19/257/257 52/258/258
f 20/261/261 52/258/258 14/262/262
f 116/263/263 117/259/259 112/260/260
f 116/263/263 112/260/260 84/264/264
f 21/265/265 20/261/261 14/262/262
f 21/265/265 14/262/262 16/266/266
f 87/267/267 116/263/263 84/264/264
f 22/269/269 21/265/265 16/266/266
f 22/269/269 16/266/266 17/270/270
f 266/271/271 87/267/267 84/268/268
f 266/271/271 84/268/268 262/272/272
f 23/273/273 22/269/269 17/270/270
f 23/273/273 17/270/270 53/274/274
f 264/275/275 266/271/271 262/272/272
f 264/275/275 262/272/272 239/276/276
f 56/277/277 23/273/273 53/274/274
f 242/279/279 264/275/275 239/276/276
f 225/281/281 211/241/241 209/242/242
f 225/281/281 209/242/242 223/282/282
f 151/283/283 56/277/277 53/278/278
f 151/283/283 53/278/278 147/284/284
f 224/285/285 242/279/279 239/280/280
f 224/285/285 239/280/280 222/286/286
f 243/287/287 225/281/281 223/282/282
f 243/287/287 223/282/282 240/288/288
f 149/289/289 151/283/283 147/284/284
f 149/289/289 147/284/284 170/290/290
f 210/291/291 224/285/285 222/286/286
f 210/291/291 222/286/286 208/292/292
f 265/228/228 243/287/287 240/288/288
f 173/232/232 149/289/289 170/290/290
f 186/236/236 210/291/291 208/292/292
f 186/236/236 208/292/292 184/237/237
f 66/297/297 46/298/298 139/299/299
f 46/307/307 157/309/309 139/310/310
f 273/314/314 78/323/323 255/324/324
f 78/331/331 98/333/333 255/334/334
f 156/338/338 45/343/343 138/344/344
f 45/349/349 65/351/351 138/352/352
f 97/370/370 77/377/377 254/378/378
f 77/381/381 272/383/383 254/384/384
f 235/389/389 258/390/390 250/391/391
f 235/389/389 250/391/391 231/392/392
f 183/393/393 166/394/394 162/395/395
f 183/393/393 162/395/395 181/396/396
f 49/401/401 11/402/402 4/403/403
f 49/401/401 4/403/403 41/404/404
f 259/405/405 236/406/406 232/407/407
f 259/405/405 232/407/407 251/408/408
f 258/390/390 80/409/409 68/410/410
f 258/390/390 68/410/410 250/391/391
f 182/411/411 206/412/412 198/413/413
f 182/411/411 198/413/413 178/414/414
f 11/402/402 10/415/415 3/416/416
f 11/402/402 3/416/416 4/403/403
f 10/415/415 9/423/423 2/424/424
f 10/415/415 2/424/424 3/416/416
f 206/412/412 220/425/425 216/426/426
f 206/412/412 216/426/426 198/413/413
f 80/419/419 107/427/427 100/428/428
f 80/419/419 100/428/428 68/420/420
f 166/417/417 143/429/429 135/430/430
f 166/417/417 135/430/430 162/418/418
f 9/423/423 48/431/431 36/432/432
f 9/423/423 36/432/432 2/424/424
f 236/421/421 221/433/433 219/434/434
f 236/421/421 219/434/434 232/422/422
f 107/427/427 108/435/435 101/436/436
f 107/427/427 101/436/436 100/428/428
f 220/425/425 235/437/437 231/438/438
f 220/425/425 231/438/438 216/426/426
f 143/429/429 49/441/441 41/442/442
f 143/429/429 41/442/442 135/430/430
f 108/435/435 109/447/447 102/448/448
f 108/435/435 102/448/448 101/436/436
f 221/433/433 207/449/449 201/450/450
f 221/433/433 201/450/450 219/434/434
f 207/449/449 183/393/393 181/396/396
f 207/449/449 181/396/396 201/450/450
f 48/439/439 142/451/451 134/452/452
f 48/439/439 134/452/452 36/440/440
f 81/444/444 259/405/405 251/408/408
f 81/444/444 251/408/408 73/445/445
f 109/447/447 81/443/443 73/446/446
f 109/447/447 73/446/446 102/448/448
f 165/398/398 182/411/411 178/414/414
f 165/398/398 178/414/414 161/399/399
f 142/453/453 165/397/397 161/400/400
f 142/453/453 161/400/400 134/454/454
f 188/455/455 202/456/456 210/291/291
f 188/455/455 210/291/291 186/236/236
f 175/457/457 155/458/458 149/289/289
f 175/457/457 149/289/289 173/232/232
f 271/459/459 245/460/460 243/287/287
f 271/459/459 243/287/287 265/228/228
f 202/456/456 226/461/461 224/285/285
f 202/456/456 224/285/285 210/291/291
f 155/458/458 137/462/462 151/283/283
f 155/458/458 151/283/283 149/289/289
f 245/460/460 227/463/463 225/281/281
f 245/460/460 225/281/281 243/287/287
f 226/461/461 244/464/464 242/279/279
f 226/461/461 242/279/279 224/285/285
f 137/462/462 62/465/465 56/277/277
f 137/462/462 56/277/277 151/283/283
f 227/463/463 203/466/466 211/241/241
f 227/463/463 211/241/241 225/281/281
f 244/464/464 270/467/467 264/275/275
f 244/464/464 264/275/275 242/279/279
f 62/465/465 25/468/468 23/273/273
f 62/465/465 23/273/273 56/277/277
f 270/467/467 252/469/469 266/271/271
f 270/467/467 266/271/271 264/275/275
f 25/468/468 31/470/470 22/269/269
f 25/468/468 22/269/269 23/273/273
f 252/469/469 93/471/471 87/267/267
f 252/469/469 87/267/267 266/271/271
f 31/470/470 6/472/472 21/265/265
f 31/470/470 21/265/265 22/269/269
f 93/471/471 121/473/473 116/263/263
f 93/471/471 116/263/263 87/267/267
f 6/472/472 30/474/474 20/261/261
f 6/472/472 20/261/261 21/265/265
f 121/473/473 127/475/475 117/259/259
f 121/473/473 117/259/259 116/263/263
f 30/474/474 24/476/476 19/257/257
f 30/474/474 19/257/257 20/261/261
f 127/475/475 104/477/477 118/255/255
f 127/475/475 118/255/255 117/259/259
f 24/476/476 61/478/478 55/251/251
f 24/476/476 55/251/251 19/257/257
f 104/477/477 128/479/479 119/249/249
f 104/477/477 119/249/249 118/255/255
f 61/478/478 136/480/480 150/252/252
f 61/478/478 150/252/252 55/251/251
f 128/479/479 122/481/481 120/245/245
f 128/479/479 120/245/245 119/249/249
f 136/482/482 154/483/483 148/243/243
f 136/482/482 148/243/243 150/247/247
f 122/481/481 94/484/484 88/239/239
f 122/481/481 88/239/239 120/245/245
f 154/483/483 174/485/485 172/235/235
f 154/483/483 172/235/235 148/243/243
f 203/466/466 189/486/486 187/231/231
f 203/466/466 187/231/231 211/241/241
f 94/484/484 253/487/487 267/227/227
f 94/484/484 267/227/227 88/239/239
f 174/485/485 188/455/455 186/236/236
f 174/485/485 186/236/236 172/235/235
f 189/486/486 175/457/457 173/232/232
f 189/486/486 173/232/232 187/231/231
f 253/487/487 271/459/459 265/228/228
f 253/487/487 265/228/228 267/227/227
f 240/488/488 223/490/490 241/491/491
f 170/492/492 147/494/494 145/495/495
f 240/500/500 241/491/491 261/501/501
f 170/502/502 145/495/495 171/503/503
f 263/506/506 240/500/500 261/501/501
f 185/508/508 170/502/502 171/503/503
f 169/510/510 184/505/505 168/511/511
f 85/512/512 263/507/507 86/513/513
f 169/516/516 168/511/511 144/517/517
f 85/518/518 86/513/513 115/519/519
f 146/520/520 169/516/516 144/517/517
f 114/522/522 85/518/518 115/519/519
f 52/524/524 146/526/526 51/527/527
f 52/530/530 51/527/527 13/531/531
f 14/534/534 52/530/530 13/531/531
f 84/536/536 112/533/533 111/537/537
f 84/540/540 111/537/537 83/541/541
f 262/544/544 84/540/540 83/541/541
f 53/546/546 17/543/543 18/547/547
f 239/548/548 262/545/545 260/549/549
f 53/550/550 18/547/547 54/551/551
f 239/552/552 260/549/549 238/553/553
f 147/493/493 53/550/550 54/551/551
f 222/497/497 239/552/552 238/553/553
f 238/554/554 260/555/555 256/556/556
f 238/554/554 256/556/556 234/557/557
f 223/558/558 209/559/559 207/560/560
f 223/558/558 207/560/560 221/561/561
f 147/562/562 54/563/563 50/564/564
f 147/562/562 50/564/564 143/565/565
f 222/566/566 238/554/554 234/557/557
f 222/566/566 234/557/557 220/567/567
f 241/568/568 223/558/558 221/561/561
f 241/568/568 221/561/561 237/569/569
f 145/570/570 147/562/562 143/565/565
f 145/570/570 143/565/565 141/571/571
f 208/572/572 222/566/566 220/567/567
f 208/572/572 220/567/567 206/573/573
f 261/574/574 241/568/568 237/569/569
f 261/574/574 237/569/569 257/575/575
f 171/576/576 145/570/570 141/571/571
f 171/576/576 141/571/571 167/577/577
f 184/578/578 208/572/572 206/573/573
f 184/578/578 206/573/573 182/579/579
f 263/580/580 261/574/574 257/575/575
f 263/580/580 257/575/575 259/581/581
f 185/582/582 171/576/576 167/577/577
f 185/582/582 167/577/577 183/583/583
f 168/584/584 184/578/578 182/579/579
f 168/584/584 182/579/579 164/585/585
f 86/586/586 263/580/580 259/581/581
f 86/586/586 259/581/581 82/587/587
f 209/559/559 185/582/582 183/583/583
f 209/559/559 183/583/583 207/560/560
f 144/588/588 168/584/584 164/585/585
f 144/588/588 164/585/585 140/589/589
f 115/590/590 86/586/586 82/587/587
f 115/590/590 82/587/587 110/591/591
f 146/592/592 144/588/588 140/589/589
f 146/592/592 140/589/589 142/593/593
f 114/594/594 115/590/590 110/591/591
f 114/594/594 110/591/591 109/595/595
f 51/596/596 146/597/597 142/598/598
f 51/596/596 142/598/598 47/599/599
f 113/600/600 114/594/594 109/595/595
f 113/600/600 109/595/595 108/601/601
f 13/602/602 51/596/596 47/599/599
f 13/602/602 47/599/599 8/603/603
f 112/604/604 113/600/600 108/601/601
f 112/604/604 108/601/601 107/605/605
f 14/606/606 13/602/602 8/603/603
f 14/606/606 8/603/603 9/607/607
f 111/608/608 112/604/604 107/605/605
f 111/608/608 107/605/605 106/609/609
f 16/610/610 14/606/606 9/607/607
f 16/610/610 9/607/607 10/611/611
f 83/612/612 111/608/608 106/609/609
f 83/612/612 106/609/609 79/613/613
f 17/614/614 16/610/610 10/611/611
f 17/614/614 10/611/611 11/615/615
f 262/616/616 83/612/612 79/613/613
f 262/616/616 79/613/613 258/617/617
f 18/618/618 17/614/614 11/615/615
f 18/618/618 11/615/615 12/619/619
f 260/555/555 262/616/616 258/617/617
f 260/555/555 258/617/617 256/556/556
f 54/563/563 18/618/618 12/619/619
f 54/563/563 12/619/619 50/564/564
f 259/624/624 257/625/625 236/626/626
f 183/628/628 167/629/629 166/630/630
f 164/632/632 182/623/623 165/633/633
f 82/634/634 259/627/627 81/635/635
f 140/638/638 164/632/632 165/633/633
f 110/640/640 82/634/634 81/635/635
f 142/642/642 140/638/638 165/639/639
f 109/644/644 110/640/640 81/641/641
f 47/646/646 142/648/648 48/649/649
f 8/652/652 47/646/646 48/649/649
f 9/656/656 8/652/652 48/653/653
f 106/658/658 107/655/655 80/659/659
f 79/662/662 106/658/658 80/659/659
f 258/666/666 79/662/662 80/663/663
f 12/668/668 11/665/665 49/669/669
f 256/670/670 258/667/667 235/671/671
f 50/672/672 12/668/668 49/669/669
f 234/674/674 256/670/670 235/671/671
f 143/678/678 50/672/672 49/673/673
f 220/680/680 234/674/674 235/675/675
f 237/682/682 221/677/677 236/683/683
f 141/684/684 143/679/679 166/685/685
f 257/625/625 237/682/682 236/683/683
f 167/629/629 141/684/684 166/685/685
f 162/686/686 133/688/688 163/689/689
f 36/690/690 134/692/692 35/693/693
f 231/694/694 248/696/696 230/697/697
f 161/698/698 160/700/700 132/701/701
f 232/702/702 219/704/704 233/705/705
f 250/710/710 68/711/711 67/712/712
f 216/716/716 231/694/694 230/697/697
f 231/695/695 250/713/713 248/696/696
f 68/722/722 100/724/724 99/725/725
f 68/711/711 99/725/725 67/712/712
f 36/726/726 35/693/693 1/727/727
f 102/730/730 73/732/732 103/733/733
f 134/734/734 161/698/698 132/701/701
f 73/736/736 251/738/738 74/739/739
f 181/740/740 162/686/686 163/689/689
f 232/742/742 233/705/705 249/743/743
f 73/732/732 74/739/739 103/733/733
f 162/687/687 135/745/745 133/688/688
f 161/699/699 178/709/709 160/700/700
f 41/746/746 5/748/748 42/749/749
f 41/747/747 4/751/751 5/748/748
f 135/744/744 41/746/746 42/749/749
f 251/737/737 232/742/742 249/743/743
f 2/719/719 36/726/726 1/727/727
f 68/818/818 100/820/820 69/821/821
f 102/822/822 73/823/823 72/824/824
f 181/832/832 162/833/833 180/834/834
f 41/846/846 4/848/848 40/849/849
f 2/856/856 36/857/857 37/858/858
f 232/837/837 219/855/855 218/838/838
f 161/865/865 178/873/873 179/866/866
f 216/874/874 231/875/875 217/876/876
f 250/886/886 67/887/887 68/882/882
f 67/887/887 99/888/888 68/818/818
f 230/889/889 248/890/890 231/878/878
f 248/890/890 250/879/879 231/878/878
f 216/892/892 230/889/889 231/875/875
f 160/893/893 178/870/870 161/865/865
f 134/895/895 132/896/896 161/864/864
f 132/896/896 160/893/893 161/865/865
f 1/897/897 35/898/898 36/860/860
f 35/898/898 134/861/861 36/860/860
f 233/902/902 219/854/854 232/837/837
f 2/901/901 1/897/897 36/857/857
f 163/905/905 133/906/906 162/840/840
f 135/908/908 42/909/909 41/850/850
f 251/910/910 249/911/911 232/836/836
f 42/909/909 5/912/912 41/846/846
f 5/912/912 4/847/847 41/846/846
f 133/906/906 135/841/841 162/840/840
f 249/911/911 233/902/902 232/837/837
f 103/914/914 74/915/915 73/828/828
f 181/913/913 163/905/905 162/833/833
f 74/915/915 251/829/829 73/828/828
f 102/916/916 103/914/914 73/823/823
f 99/888/888 100/819/819 68/818/818
f 201/917/917 181/918/918 193/919/919
f 40/921/921 4/922/922 39/923/923
f 4/922/922 3/934/934 39/923/923
f 219/939/939 201/920/920 200/940/940
f 2/941/941 37/943/943 38/944/944
f 218/945/945 219/939/939 200/940/940
f 3/933/933 2/941/941 38/944/944
f 178/957/957 198/959/959 192/960/960
f 179/952/952 178/957/957 192/960/960
f 216/961/961 217/963/963 199/964/964
f 198/958/958 216/961/961 199/964/964
f 100/973/973 101/975/975 70/976/976
f 69/970/970 100/973/973 70/976/976
f 102/977/977 72/979/979 71/980/980
f 101/974/974 102/977/977 71/980/980
f 181/918/918 180/938/938 193/919/919
f 203/983/983 189/984/984 191/985/985
f 203/983/983 191/985/985 205/986/986
f 189/984/984 177/988/988 191/985/985
f 177/987/987 155/989/989 157/990/990
f 155/989/989 137/991/991 139/992/992
f 155/989/989 139/992/992 157/990/990
f 137/991/991 62/993/993 66/994/994
f 137/991/991 66/994/994 139/992/992
f 62/993/993 29/996/996 66/994/994
f 29/995/995 31/997/997 34/998/998
f 31/997/997 6/999/999 7/1000/1000
f 31/997/997 7/1000/1000 34/998/998
f 6/999/999 30/1001/1001 32/1002/1002
f 6/999/999 32/1002/1002 7/1000/1000
f 30/1001/1001 26/1004/1004 32/1002/1002
f 26/1003/1003 61/1005/1005 65/1006/1006
f 61/1005/1005 136/1007/1007 138/1008/1008
f 61/1005/1005 138/1008/1008 65/1006/1006
f 136/1009/1009 154/1010/1010 156/1011/1011
f 136/1009/1009 156/1011/1011 138/1012/1012
f 154/1010/1010 176/1014/1014 156/1011/1011
f 176/1013/1013 188/1015/1015 190/1016/1016
f 188/1015/1015 202/1017/1017 204/1018/1018
f 188/1015/1015 204/1018/1018 190/1016/1016
f 202/1017/1017 226/1019/1019 228/1020/1020
f 202/1017/1017 228/1020/1020 204/1018/1018
f 226/1019/1019 246/1022/1022 228/1020/1020
f 246/1021/1021 270/1023/1023 272/1024/1024
f 270/1023/1023 252/1025/1025 254/1026/1026
f 270/1023/1023 254/1026/1026 272/1024/1024
f 252/1025/1025 93/1027/1027 97/1028/1028
f 252/1025/1025 97/1028/1028 254/1026/1026
f 93/1027/1027 123/1030/1030 97/1028/1028
f 123/1029/1029 127/1031/1031 129/1032/1032
f 127/1031/1031 104/1033/1033 105/1034/1034
f 127/1031/1031 105/1034/1034 129/1032/1032
f 104/1033/1033 128/1035/1035 131/1036/1036
f 104/1033/1033 131/1036/1036 105/1034/1034
f 128/1035/1035 126/1038/1038 131/1036/1036
f 126/1037/1037 94/1039/1039 98/1040/1040
f 94/1039/1039 253/1041/1041 255/1042/1042
f 94/1039/1039 255/1042/1042 98/1040/1040
f 253/1041/1041 271/1043/1043 273/1044/1044
f 253/1041/1041 273/1044/1044 255/1042/1042
f 271/1043/1043 247/1046/1046 273/1044/1044
f 247/1045/1045 227/1047/1047 229/1048/1048
f 227/1047/1047 203/983/983 205/986/986
f 227/1047/1047 205/986/986 229/1048/1048
f 201/1145/1145 193/1146/1146 189/1147/1147
f 201/1145/1145 189/1147/1147 203/1148/1148
f 193/1146/1146 180/1149/1149 177/1150/1150
f 193/1146/1146 177/1150/1150 189/1147/1147
f 180/1149/1149 162/1151/1151 155/1152/1152
f 180/1149/1149 155/1152/1152 177/1150/1150
f 162/1151/1151 135/1153/1153 137/1154/1154
f 162/1151/1151 137/1154/1154 155/1152/1152
f 135/1153/1153 41/1155/1155 62/1156/1156
f 135/1153/1153 62/1156/1156 137/1154/1154
f 41/1155/1155 40/1157/1157 29/1158/1158
f 41/1155/1155 29/1158/1158 62/1156/1156
f 40/1157/1157 39/1159/1159 31/1160/1160
f 40/1157/1157 31/1160/1160 29/1158/1158
f 39/1159/1159 3/1161/1161 6/1162/1162
f 39/1159/1159 6/1162/1162 31/1160/1160
f 3/1161/1161 38/1163/1163 30/1164/1164
f 3/1161/1161 30/1164/1164 6/1162/1162
f 38/1163/1163 37/1165/1165 26/1166/1166
f 38/1163/1163 26/1166/1166 30/1164/1164
f 37/1165/1165 36/1167/1167 61/1168/1168
f 37/1165/1165 61/1168/1168 26/1166/1166
f 36/1167/1167 134/1169/1169 136/1170/1170
f 36/1167/1167 136/1170/1170 61/1168/1168
f 134/1171/1171 161/1172/1172 154/1173/1173
f 134/1171/1171 154/1173/1173 136/1174/1174
f 161/1172/1172 179/1175/1175 176/1176/1176
f 161/1172/1172 176/1176/1176 154/1173/1173
f 179/1175/1175 192/1177/1177 188/1178/1178
f 179/1175/1175 188/1178/1178 176/1176/1176
f 192/1177/1177 198/1179/1179 202/1180/1180
f 192/1177/1177 202/1180/1180 188/1178/1178
f 198/1179/1179 199/1181/1181 226/1182/1182
f 198/1179/1179 226/1182/1182 202/1180/1180
f 199/1181/1181 217/1183/1183 246/1184/1184
f 199/1181/1181 246/1184/1184 226/1182/1182
f 217/1183/1183 231/1185/1185 270/1186/1186
f 217/1183/1183 270/1186/1186 246/1184/1184
f 231/1185/1185 250/1187/1187 252/1188/1188
f 231/1185/1185 252/1188/1188 270/1186/1186
f 250/1187/1187 68/1189/1189 93/1190/1190
f 250/1187/1187 93/1190/1190 252/1188/1188
f 68/1189/1189 69/1191/1191 123/1192/1192
f 68/1189/1189 123/1192/1192 93/1190/1190
f 69/1191/1191 70/1193/1193 127/1194/1194
f 69/1191/1191 127/1194/1194 123/1192/1192
f 70/1193/1193 101/1195/1195 104/1196/1196
f 70/1193/1193 104/1196/1196 127/1194/1194
f 101/1195/1195 71/1197/1197 128/1198/1198
f 101/1195/1195 128/1198/1198 104/1196/1196
f 71/1197/1197 72/1199/1199 126/1200/1200
f 71/1197/1197 126/1200/1200 128/1198/1198
f 72/1199/1199 73/1201/1201 94/1202/1202
f 72/1199/1199 94/1202/1202 126/1200/1200
f 73/1201/1201 251/1203/1203 253/1204/1204
f 73/1201/1201 253/1204/1204 94/1202/1202
f 251/1203/1203 232/1205/1205 271/1206/1206
f 251/1203/1203 271/1206/1206 253/1204/1204
f 232/1205/1205 218/1207/1207 247/1208/1208
f 232/1205/1205 247/1208/1208 271/1206/1206
f 218/1207/1207 200/1209/1209 227/1210/1210
f 218/1207/1207 227/1210/1210 247/1208/1208
f 200/1209/1209 201/1145/1145 203/1148/1148
f 200/1209/1209 203/1148/1148 227/1210/1210
f 63/1227/1227 59/1229/1229 158/1230/1230
f 152/1239/1239 63/1240/1240 158/1241/1241
f 64/1259/1259 153/1261/1261 159/1262/1262
f 60/1271/1271 64/1272/1272 159/1273/1273
f 215/1275/1275 213/1277/1277 197/1278/1278
f 196/1287/1287 215/1288/1288 197/1289/1289
f 96/1291/1291 92/1293/1293 275/1294/1294
f 269/1303/1303 96/1304/1304 275/1305/1305
f 95/1323/1323 268/1325/1325 274/1326/1326
f 91/1335/1335 95/1336/1336 274/1337/1337
