# Blender 4.4.1
# www.blender.org
mtllib map_floor_05.mtl
o 四角5
v -13.844730 -1.299999 15.966051
v -15.966051 -1.299999 13.844730
v -13.844730 1.699999 15.966051
v -10.309197 -1.299999 12.430518
v -12.430518 -1.299999 10.309197
v -10.309197 1.699999 12.430518
v -12.430518 1.699999 10.309197
v -15.966051 1.699999 13.844730
vn -0.7071 -0.0000 0.7071
vn 0.7071 -0.0000 0.7071
vn -0.0000 1.0000 -0.0000
vn -0.7071 -0.0000 -0.7071
vt 0.375000 0.000000
vt 0.625000 0.000000
vt 0.625000 0.250000
vt 0.375000 0.250000
vt 0.375000 0.750000
vt 0.625000 0.750000
vt 0.625000 1.000000
vt 0.375000 1.000000
vt 0.625000 0.500000
vt 0.875000 0.500000
vt 0.875000 0.750000
vt 0.375000 0.500000
s 0
f 1/1/1 3/2/1 8/3/1 2/4/1
f 4/5/2 6/6/2 3/7/2 1/8/2
f 7/9/3 8/10/3 3/11/3 6/6/3
f 2/4/4 8/3/4 7/9/4 5/12/4
