mtllib stage_select_horizon_islet.mtl
o stage_select_horizon_islet
v 0.000000 0.000000 0.000000
v 10.718070 0.000000 1.356700
v 10.662681 0.000000 0.000000
v 0.000000 0.000000 0.000000
v 10.093835 0.000000 2.660638
v 10.718070 0.000000 1.356700
v 0.000000 0.000000 0.000000
v 8.857420 0.000000 3.766216
v 10.093835 0.000000 2.660638
v 0.000000 0.000000 0.000000
v 7.378820 0.000000 4.695613
v 8.857420 0.000000 3.766216
v 0.000000 0.000000 0.000000
v 5.800457 0.000000 5.524271
v 7.378820 0.000000 4.695613
v 0.000000 0.000000 0.000000
v 4.006751 0.000000 6.155642
v 5.800457 0.000000 5.524271
v 0.000000 0.000000 0.000000
v 2.017825 0.000000 6.455458
v 4.006751 0.000000 6.155642
v 0.000000 0.000000 0.000000
v 0.000000 0.000000 6.511315
v 2.017825 0.000000 6.455458
v 0.000000 0.000000 0.000000
v -2.028238 0.000000 6.488771
v 0.000000 0.000000 6.511315
v 0.000000 0.000000 0.000000
v -4.108931 0.000000 6.312623
v -2.028238 0.000000 6.488771
v 0.000000 0.000000 0.000000
v -6.056127 0.000000 5.767767
v -4.108931 0.000000 6.312623
v 0.000000 0.000000 0.000000
v -7.624294 0.000000 4.851824
v -6.056127 0.000000 5.767767
v 0.000000 0.000000 0.000000
v -8.847933 0.000000 3.762182
v -7.624294 0.000000 4.851824
v 0.000000 0.000000 0.000000
v -9.848862 0.000000 2.596066
v -8.847933 0.000000 3.762182
v 0.000000 0.000000 0.000000
v -10.461474 0.000000 1.324220
v -9.848862 0.000000 2.596066
v 0.000000 0.000000 0.000000
v -10.457319 0.000000 0.000000
v -10.461474 0.000000 1.324220
v 0.000000 0.000000 0.000000
v -9.996116 0.000000 -1.265314
v -10.457319 0.000000 0.000000
v 0.000000 0.000000 0.000000
v -9.418501 0.000000 -2.482627
v -9.996116 0.000000 -1.265314
v 0.000000 0.000000 0.000000
v -8.703218 0.000000 -3.700648
v -9.418501 0.000000 -2.482627
v 0.000000 0.000000 0.000000
v -7.555275 0.000000 -4.807902
v -8.703218 0.000000 -3.700648
v 0.000000 0.000000 0.000000
v -5.933186 0.000000 -5.650681
v -7.555275 0.000000 -4.807902
v 0.000000 0.000000 0.000000
v -4.075523 0.000000 -6.261298
v -5.933186 0.000000 -5.650681
v 0.000000 0.000000 0.000000
v -2.102483 0.000000 -6.726296
v -4.075523 0.000000 -6.261298
v 0.000000 0.000000 0.000000
v -0.000000 0.000000 -6.928685
v -2.102483 0.000000 -6.726296
v 0.000000 0.000000 0.000000
v 2.092070 0.000000 -6.692983
v -0.000000 0.000000 -6.928685
v 0.000000 0.000000 0.000000
v 3.973343 0.000000 -6.104318
v 2.092070 0.000000 -6.692983
v 0.000000 0.000000 0.000000
v 5.677516 0.000000 -5.407184
v 3.973343 0.000000 -6.104318
v 0.000000 0.000000 0.000000
v 7.309801 0.000000 -4.651691
v 5.677516 0.000000 -5.407184
v 0.000000 0.000000 0.000000
v 8.712705 0.000000 -3.704682
v 7.309801 0.000000 -4.651691
v 0.000000 0.000000 0.000000
v 9.663474 0.000000 -2.547199
v 8.712705 0.000000 -3.704682
v 0.000000 0.000000 0.000000
v 10.252711 0.000000 -1.297794
v 9.663474 0.000000 -2.547199
v 0.000000 0.000000 0.000000
v 10.662681 0.000000 -0.000000
v 10.252711 0.000000 -1.297794
v 10.662681 0.000000 0.000000
v 10.718070 0.000000 1.356700
v 11.164656 -0.320000 1.413229
v 11.106959 -0.320000 0.000000
v 10.718070 0.000000 1.356700
v 10.093835 0.000000 2.660638
v 10.514411 -0.320000 2.771498
v 11.164656 -0.320000 1.413229
v 10.093835 0.000000 2.660638
v 8.857420 0.000000 3.766216
v 9.226479 -0.320000 3.923141
v 10.514411 -0.320000 2.771498
v 8.857420 0.000000 3.766216
v 7.378820 0.000000 4.695613
v 7.686271 -0.320000 4.891263
v 9.226479 -0.320000 3.923141
v 7.378820 0.000000 4.695613
v 5.800457 0.000000 5.524271
v 6.042143 -0.320000 5.754449
v 7.686271 -0.320000 4.891263
v 5.800457 0.000000 5.524271
v 4.006751 0.000000 6.155642
v 4.173699 -0.320000 6.412128
v 6.042143 -0.320000 5.754449
v 4.006751 0.000000 6.155642
v 2.017825 0.000000 6.455458
v 2.101901 -0.320000 6.724435
v 4.173699 -0.320000 6.412128
v 2.017825 0.000000 6.455458
v 0.000000 0.000000 6.511315
v 0.000000 -0.320000 6.782620
v 2.101901 -0.320000 6.724435
v 0.000000 0.000000 6.511315
v -2.028238 0.000000 6.488771
v -2.112748 -0.320000 6.759137
v 0.000000 -0.320000 6.782620
v -2.028238 0.000000 6.488771
v -4.108931 0.000000 6.312623
v -4.280136 -0.320000 6.575649
v -2.112748 -0.320000 6.759137
v -4.108931 0.000000 6.312623
v -6.056127 0.000000 5.767767
v -6.308465 -0.320000 6.008091
v -4.280136 -0.320000 6.575649
v -6.056127 0.000000 5.767767
v -7.624294 0.000000 4.851824
v -7.941973 -0.320000 5.053983
v -6.308465 -0.320000 6.008091
v -7.624294 0.000000 4.851824
v -8.847933 0.000000 3.762182
v -9.216597 -0.320000 3.918939
v -7.941973 -0.320000 5.053983
v -8.847933 0.000000 3.762182
v -9.848862 0.000000 2.596066
v -10.259231 -0.320000 2.704235
v -9.216597 -0.320000 3.918939
v -9.848862 0.000000 2.596066
v -10.461474 0.000000 1.324220
v -10.897368 -0.320000 1.379395
v -10.259231 -0.320000 2.704235
v -10.461474 0.000000 1.324220
v -10.457319 0.000000 0.000000
v -10.893041 -0.320000 0.000000
v -10.897368 -0.320000 1.379395
v -10.457319 0.000000 0.000000
v -9.996116 0.000000 -1.265314
v -10.412620 -0.320000 -1.318036
v -10.893041 -0.320000 0.000000
v -9.996116 0.000000 -1.265314
v -9.418501 0.000000 -2.482627
v -9.810938 -0.320000 -2.586070
v -10.412620 -0.320000 -1.318036
v -9.418501 0.000000 -2.482627
v -8.703218 0.000000 -3.700648
v -9.065852 -0.320000 -3.854842
v -9.810938 -0.320000 -2.586070
v -8.703218 0.000000 -3.700648
v -7.555275 0.000000 -4.807902
v -7.870078 -0.320000 -5.008232
v -9.065852 -0.320000 -3.854842
v -7.555275 0.000000 -4.807902
v -5.933186 0.000000 -5.650681
v -6.180403 -0.320000 -5.886126
v -7.870078 -0.320000 -5.008232
v -5.933186 0.000000 -5.650681
v -4.075523 0.000000 -6.261298
v -4.245337 -0.320000 -6.522186
v -6.180403 -0.320000 -5.886126
v -4.075523 0.000000 -6.261298
v -2.102483 0.000000 -6.726296
v -2.190086 -0.320000 -7.006559
v -4.245337 -0.320000 -6.522186
v -2.102483 0.000000 -6.726296
v -0.000000 0.000000 -6.928685
v -0.000000 -0.320000 -7.217380
v -2.190086 -0.320000 -7.006559
v -0.000000 0.000000 -6.928685
v 2.092070 0.000000 -6.692983
v 2.179239 -0.320000 -6.971857
v -0.000000 -0.320000 -7.217380
v 2.092070 0.000000 -6.692983
v 3.973343 0.000000 -6.104318
v 4.138899 -0.320000 -6.358664
v 2.179239 -0.320000 -6.971857
v 3.973343 0.000000 -6.104318
v 5.677516 0.000000 -5.407184
v 5.914080 -0.320000 -5.632484
v 4.138899 -0.320000 -6.358664
v 5.677516 0.000000 -5.407184
v 7.309801 0.000000 -4.651691
v 7.614376 -0.320000 -4.845512
v 5.914080 -0.320000 -5.632484
v 7.309801 0.000000 -4.651691
v 8.712705 0.000000 -3.704682
v 9.075735 -0.320000 -3.859044
v 7.614376 -0.320000 -4.845512
v 8.712705 0.000000 -3.704682
v 9.663474 0.000000 -2.547199
v 10.066119 -0.320000 -2.653333
v 9.075735 -0.320000 -3.859044
v 9.663474 0.000000 -2.547199
v 10.252711 0.000000 -1.297794
v 10.679908 -0.320000 -1.351869
v 10.066119 -0.320000 -2.653333
v 10.252711 0.000000 -1.297794
v 10.662681 0.000000 -0.000000
v 11.106959 -0.320000 -0.000000
v 10.679908 -0.320000 -1.351869
v 11.106959 -0.320000 0.000000
v 11.164656 -0.320000 1.413229
v 11.387949 -1.050000 1.441493
v 11.329098 -1.050000 0.000000
v 11.164656 -0.320000 1.413229
v 10.514411 -0.320000 2.771498
v 10.724700 -1.050000 2.826928
v 11.387949 -1.050000 1.441493
v 10.514411 -0.320000 2.771498
v 9.226479 -0.320000 3.923141
v 9.411009 -1.050000 4.001604
v 10.724700 -1.050000 2.826928
v 9.226479 -0.320000 3.923141
v 7.686271 -0.320000 4.891263
v 7.839996 -1.050000 4.989089
v 9.411009 -1.050000 4.001604
v 7.686271 -0.320000 4.891263
v 6.042143 -0.320000 5.754449
v 6.162985 -1.050000 5.869538
v 7.839996 -1.050000 4.989089
v 6.042143 -0.320000 5.754449
v 4.173699 -0.320000 6.412128
v 4.257173 -1.050000 6.540370
v 6.162985 -1.050000 5.869538
v 4.173699 -0.320000 6.412128
v 2.101901 -0.320000 6.724435
v 2.143939 -1.050000 6.858924
v 4.257173 -1.050000 6.540370
v 2.101901 -0.320000 6.724435
v 0.000000 -0.320000 6.782620
v 0.000000 -1.050000 6.918272
v 2.143939 -1.050000 6.858924
v 0.000000 -0.320000 6.782620
v -2.112748 -0.320000 6.759137
v -2.155003 -1.050000 6.894319
v 0.000000 -1.050000 6.918272
v -2.112748 -0.320000 6.759137
v -4.280136 -0.320000 6.575649
v -4.365739 -1.050000 6.707162
v -2.155003 -1.050000 6.894319
v -4.280136 -0.320000 6.575649
v -6.308465 -0.320000 6.008091
v -6.434635 -1.050000 6.128253
v -4.365739 -1.050000 6.707162
v -6.308465 -0.320000 6.008091
v -7.941973 -0.320000 5.053983
v -8.100813 -1.050000 5.155063
v -6.434635 -1.050000 6.128253
v -7.941973 -0.320000 5.053983
v -9.216597 -0.320000 3.918939
v -9.400929 -1.050000 3.997318
v -8.100813 -1.050000 5.155063
v -9.216597 -0.320000 3.918939
v -10.259231 -0.320000 2.704235
v -10.464416 -1.050000 2.758320
v -9.400929 -1.050000 3.997318
v -10.259231 -0.320000 2.704235
v -10.897368 -0.320000 1.379395
v -11.115316 -1.050000 1.406983
v -10.464416 -1.050000 2.758320
v -10.897368 -0.320000 1.379395
v -10.893041 -0.320000 0.000000
v -11.110902 -1.050000 0.000000
v -11.115316 -1.050000 1.406983
v -10.893041 -0.320000 0.000000
v -10.412620 -0.320000 -1.318036
v -10.620873 -1.050000 -1.344396
v -11.110902 -1.050000 0.000000
v -10.412620 -0.320000 -1.318036
v -9.810938 -0.320000 -2.586070
v -10.007157 -1.050000 -2.637791
v -10.620873 -1.050000 -1.344396
v -9.810938 -0.320000 -2.586070
v -9.065852 -0.320000 -3.854842
v -9.247170 -1.050000 -3.931939
v -10.007157 -1.050000 -2.637791
v -9.065852 -0.320000 -3.854842
v -7.870078 -0.320000 -5.008232
v -8.027480 -1.050000 -5.108396
v -9.247170 -1.050000 -3.931939
v -7.870078 -0.320000 -5.008232
v -6.180403 -0.320000 -5.886126
v -6.304011 -1.050000 -6.003848
v -8.027480 -1.050000 -5.108396
v -6.180403 -0.320000 -5.886126
v -4.245337 -0.320000 -6.522186
v -4.330243 -1.050000 -6.652630
v -6.304011 -1.050000 -6.003848
v -4.245337 -0.320000 -6.522186
v -2.190086 -0.320000 -7.006559
v -2.233888 -1.050000 -7.146690
v -4.330243 -1.050000 -6.652630
v -2.190086 -0.320000 -7.006559
v -0.000000 -0.320000 -7.217380
v -0.000000 -1.050000 -7.361728
v -2.233888 -1.050000 -7.146690
v -0.000000 -0.320000 -7.217380
v 2.179239 -0.320000 -6.971857
v 2.222824 -1.050000 -7.111295
v -0.000000 -1.050000 -7.361728
v 2.179239 -0.320000 -6.971857
v 4.138899 -0.320000 -6.358664
v 4.221677 -1.050000 -6.485838
v 2.222824 -1.050000 -7.111295
v 4.138899 -0.320000 -6.358664
v 5.914080 -0.320000 -5.632484
v 6.032361 -1.050000 -5.745133
v 4.221677 -1.050000 -6.485838
v 5.914080 -0.320000 -5.632484
v 7.614376 -0.320000 -4.845512
v 7.766663 -1.050000 -4.942422
v 6.032361 -1.050000 -5.745133
v 7.614376 -0.320000 -4.845512
v 9.075735 -0.320000 -3.859044
v 9.257250 -1.050000 -3.936225
v 7.766663 -1.050000 -4.942422
v 9.075735 -0.320000 -3.859044
v 10.066119 -0.320000 -2.653333
v 10.267441 -1.050000 -2.706399
v 9.257250 -1.050000 -3.936225
v 10.066119 -0.320000 -2.653333
v 10.679908 -0.320000 -1.351869
v 10.893506 -1.050000 -1.378906
v 10.267441 -1.050000 -2.706399
v 10.679908 -0.320000 -1.351869
v 11.106959 -0.320000 -0.000000
v 11.329098 -1.050000 -0.000000
v 10.893506 -1.050000 -1.378906
v 11.329098 -1.050000 0.000000
v 11.387949 -1.050000 1.441493
v 10.941363 -3.100000 1.384964
v 10.884820 -3.100000 0.000000
v 11.387949 -1.050000 1.441493
v 10.724700 -1.050000 2.826928
v 10.304123 -3.100000 2.716068
v 10.941363 -3.100000 1.384964
v 10.724700 -1.050000 2.826928
v 9.411009 -1.050000 4.001604
v 9.041949 -3.100000 3.844678
v 10.304123 -3.100000 2.716068
v 9.411009 -1.050000 4.001604
v 7.839996 -1.050000 4.989089
v 7.532546 -3.100000 4.793438
v 9.041949 -3.100000 3.844678
v 7.839996 -1.050000 4.989089
v 6.162985 -1.050000 5.869538
v 5.921300 -3.100000 5.639360
v 7.532546 -3.100000 4.793438
v 6.162985 -1.050000 5.869538
v 4.257173 -1.050000 6.540370
v 4.090225 -3.100000 6.283885
v 5.921300 -3.100000 5.639360
v 4.257173 -1.050000 6.540370
v 2.143939 -1.050000 6.858924
v 2.059863 -3.100000 6.589947
v 4.090225 -3.100000 6.283885
v 2.143939 -1.050000 6.858924
v 0.000000 -1.050000 6.918272
v 0.000000 -3.100000 6.646967
v 2.059863 -3.100000 6.589947
v 0.000000 -1.050000 6.918272
v -2.155003 -1.050000 6.894319
v -2.070493 -3.100000 6.623954
v 0.000000 -3.100000 6.646967
v -2.155003 -1.050000 6.894319
v -4.365739 -1.050000 6.707162
v -4.194533 -3.100000 6.444136
v -2.070493 -3.100000 6.623954
v -4.365739 -1.050000 6.707162
v -6.434635 -1.050000 6.128253
v -6.182296 -3.100000 5.887929
v -4.194533 -3.100000 6.444136
v -6.434635 -1.050000 6.128253
v -8.100813 -1.050000 5.155063
v -7.783134 -3.100000 4.952903
v -6.182296 -3.100000 5.887929
v -8.100813 -1.050000 5.155063
v -9.400929 -1.050000 3.997318
v -9.032265 -3.100000 3.840560
v -7.783134 -3.100000 4.952903
v -9.400929 -1.050000 3.997318
v -10.464416 -1.050000 2.758320
v -10.054046 -3.100000 2.650151
v -9.032265 -3.100000 3.840560
v -10.464416 -1.050000 2.758320
v -11.115316 -1.050000 1.406983
v -10.679421 -3.100000 1.351808
v -10.054046 -3.100000 2.650151
v -11.115316 -1.050000 1.406983
v -11.110902 -1.050000 0.000000
v -10.675180 -3.100000 0.000000
v -10.679421 -3.100000 1.351808
v -11.110902 -1.050000 0.000000
v -10.620873 -1.050000 -1.344396
v -10.204368 -3.100000 -1.291675
v -10.675180 -3.100000 0.000000
v -10.620873 -1.050000 -1.344396
v -10.007157 -1.050000 -2.637791
v -9.614720 -3.100000 -2.534348
v -10.204368 -3.100000 -1.291675
v -10.007157 -1.050000 -2.637791
v -9.247170 -1.050000 -3.931939
v -8.884535 -3.100000 -3.777745
v -9.614720 -3.100000 -2.534348
v -9.247170 -1.050000 -3.931939
v -8.027480 -1.050000 -5.108396
v -7.712677 -3.100000 -4.908067
v -8.884535 -3.100000 -3.777745
v -8.027480 -1.050000 -5.108396
v -6.304011 -1.050000 -6.003848
v -6.056794 -3.100000 -5.768403
v -7.712677 -3.100000 -4.908067
v -6.304011 -1.050000 -6.003848
v -4.330243 -1.050000 -6.652630
v -4.160430 -3.100000 -6.391742
v -6.056794 -3.100000 -5.768403
v -4.330243 -1.050000 -6.652630
v -2.233888 -1.050000 -7.146690
v -2.146284 -3.100000 -6.866428
v -4.160430 -3.100000 -6.391742
v -2.233888 -1.050000 -7.146690
v -0.000000 -1.050000 -7.361728
v -0.000000 -3.100000 -7.073033
v -2.146284 -3.100000 -6.866428
v -0.000000 -1.050000 -7.361728
v 2.222824 -1.050000 -7.111295
v 2.135655 -3.100000 -6.832420
v -0.000000 -3.100000 -7.073033
v 2.222824 -1.050000 -7.111295
v 4.221677 -1.050000 -6.485838
v 4.056121 -3.100000 -6.231491
v 2.135655 -3.100000 -6.832420
v 4.221677 -1.050000 -6.485838
v 6.032361 -1.050000 -5.745133
v 5.795798 -3.100000 -5.519834
v 4.056121 -3.100000 -6.231491
v 6.032361 -1.050000 -5.745133
v 7.766663 -1.050000 -4.942422
v 7.462088 -3.100000 -4.748602
v 5.795798 -3.100000 -5.519834
v 7.766663 -1.050000 -4.942422
v 9.257250 -1.050000 -3.936225
v 8.894220 -3.100000 -3.781863
v 7.462088 -3.100000 -4.748602
v 9.257250 -1.050000 -3.936225
v 10.267441 -1.050000 -2.706399
v 9.864796 -3.100000 -2.600266
v 8.894220 -3.100000 -3.781863
v 10.267441 -1.050000 -2.706399
v 10.893506 -1.050000 -1.378906
v 10.466310 -3.100000 -1.324832
v 9.864796 -3.100000 -2.600266
v 10.893506 -1.050000 -1.378906
v 11.329098 -1.050000 -0.000000
v 10.884820 -3.100000 -0.000000
v 10.466310 -3.100000 -1.324832
v 10.884820 -3.100000 0.000000
v 10.941363 -3.100000 1.384964
v 10.159837 -5.550000 1.286038
v 10.107333 -5.550000 0.000000
v 10.941363 -3.100000 1.384964
v 10.304123 -3.100000 2.716068
v 9.568114 -5.550000 2.522064
v 10.159837 -5.550000 1.286038
v 10.304123 -3.100000 2.716068
v 9.041949 -3.100000 3.844678
v 8.396096 -5.550000 3.570058
v 9.568114 -5.550000 2.522064
v 9.041949 -3.100000 3.844678
v 7.532546 -3.100000 4.793438
v 6.994507 -5.550000 4.451050
v 8.396096 -5.550000 3.570058
v 7.532546 -3.100000 4.793438
v 5.921300 -3.100000 5.639360
v 5.498350 -5.550000 5.236549
v 6.994507 -5.550000 4.451050
v 5.921300 -3.100000 5.639360
v 4.090225 -3.100000 6.283885
v 3.798066 -5.550000 5.835036
v 5.498350 -5.550000 5.236549
v 4.090225 -3.100000 6.283885
v 2.059863 -3.100000 6.589947
v 1.912730 -5.550000 6.119236
v 3.798066 -5.550000 5.835036
v 2.059863 -3.100000 6.589947
v 0.000000 -3.100000 6.646967
v 0.000000 -5.550000 6.172184
v 1.912730 -5.550000 6.119236
v 0.000000 -3.100000 6.646967
v -2.070493 -3.100000 6.623954
v -1.922600 -5.550000 6.150814
v 0.000000 -5.550000 6.172184
v -2.070493 -3.100000 6.623954
v -4.194533 -3.100000 6.444136
v -3.894924 -5.550000 5.983841
v -1.922600 -5.550000 6.150814
v -4.194533 -3.100000 6.444136
v -6.182296 -3.100000 5.887929
v -5.740704 -5.550000 5.467363
v -3.894924 -5.550000 5.983841
v -6.182296 -3.100000 5.887929
v -7.783134 -3.100000 4.952903
v -7.227196 -5.550000 4.599125
v -5.740704 -5.550000 5.467363
v -7.783134 -3.100000 4.952903
v -9.032265 -3.100000 3.840560
v -8.387103 -5.550000 3.566235
v -7.227196 -5.550000 4.599125
v -9.032265 -3.100000 3.840560
v -10.054046 -3.100000 2.650151
v -9.335900 -5.550000 2.460854
v -8.387103 -5.550000 3.566235
v -10.054046 -3.100000 2.650151
v -10.679421 -3.100000 1.351808
v -9.916605 -5.550000 1.255250
v -9.335900 -5.550000 2.460854
v -10.679421 -3.100000 1.351808
v -10.675180 -3.100000 0.000000
v -9.912667 -5.550000 0.000000
v -9.916605 -5.550000 1.255250
v -10.675180 -3.100000 0.000000
v -10.204368 -3.100000 -1.291675
v -9.475485 -5.550000 -1.199412
v -9.912667 -5.550000 0.000000
v -10.204368 -3.100000 -1.291675
v -9.614720 -3.100000 -2.534348
v -8.927954 -5.550000 -2.353323
v -9.475485 -5.550000 -1.199412
v -9.614720 -3.100000 -2.534348
v -8.884535 -3.100000 -3.777745
v -8.249926 -5.550000 -3.507906
v -8.927954 -5.550000 -2.353323
v -8.884535 -3.100000 -3.777745
v -7.712677 -3.100000 -4.908067
v -7.161771 -5.550000 -4.557491
v -8.249926 -5.550000 -3.507906
v -7.712677 -3.100000 -4.908067
v -6.056794 -3.100000 -5.768403
v -5.624166 -5.550000 -5.356374
v -7.161771 -5.550000 -4.557491
v -6.056794 -3.100000 -5.768403
v -4.160430 -3.100000 -6.391742
v -3.863256 -5.550000 -5.935189
v -5.624166 -5.550000 -5.356374
v -4.160430 -3.100000 -6.391742
v -2.146284 -3.100000 -6.866428
v -1.992978 -5.550000 -6.375968
v -3.863256 -5.550000 -5.935189
v -2.146284 -3.100000 -6.866428
v -0.000000 -3.100000 -7.073033
v -0.000000 -5.550000 -6.567816
v -1.992978 -5.550000 -6.375968
v -0.000000 -3.100000 -7.073033
v 2.135655 -3.100000 -6.832420
v 1.983108 -5.550000 -6.344390
v -0.000000 -5.550000 -6.567816
v 2.135655 -3.100000 -6.832420
v 4.056121 -3.100000 -6.231491
v 3.766398 -5.550000 -5.786385
v 1.983108 -5.550000 -6.344390
v 4.056121 -3.100000 -6.231491
v 5.795798 -3.100000 -5.519834
v 5.381812 -5.550000 -5.125560
v 3.766398 -5.550000 -5.786385
v 5.795798 -3.100000 -5.519834
v 7.462088 -3.100000 -4.748602
v 6.929082 -5.550000 -4.409416
v 5.381812 -5.550000 -5.125560
v 7.462088 -3.100000 -4.748602
v 8.894220 -3.100000 -3.781863
v 8.258919 -5.550000 -3.511730
v 6.929082 -5.550000 -4.409416
v 8.894220 -3.100000 -3.781863
v 9.864796 -3.100000 -2.600266
v 9.160168 -5.550000 -2.414533
v 8.258919 -5.550000 -3.511730
v 9.864796 -3.100000 -2.600266
v 10.466310 -3.100000 -1.324832
v 9.718716 -5.550000 -1.230201
v 9.160168 -5.550000 -2.414533
v 10.466310 -3.100000 -1.324832
v 10.884820 -3.100000 -0.000000
v 10.107333 -5.550000 -0.000000
v 9.718716 -5.550000 -1.230201
v 10.107333 -5.550000 0.000000
v 10.159837 -5.550000 1.286038
v 9.378311 -7.200000 1.187112
v 9.329846 -7.200000 0.000000
v 10.159837 -5.550000 1.286038
v 9.568114 -5.550000 2.522064
v 8.832106 -7.200000 2.328059
v 9.378311 -7.200000 1.187112
v 9.568114 -5.550000 2.522064
v 8.396096 -5.550000 3.570058
v 7.750242 -7.200000 3.295439
v 8.832106 -7.200000 2.328059
v 8.396096 -5.550000 3.570058
v 6.994507 -5.550000 4.451050
v 6.456468 -7.200000 4.108661
v 7.750242 -7.200000 3.295439
v 6.994507 -5.550000 4.451050
v 5.498350 -5.550000 5.236549
v 5.075400 -7.200000 4.833737
v 6.456468 -7.200000 4.108661
v 5.498350 -5.550000 5.236549
v 3.798066 -5.550000 5.835036
v 3.505907 -7.200000 5.386187
v 5.075400 -7.200000 4.833737
v 3.798066 -5.550000 5.835036
v 1.912730 -5.550000 6.119236
v 1.765597 -7.200000 5.648526
v 3.505907 -7.200000 5.386187
v 1.912730 -5.550000 6.119236
v 0.000000 -5.550000 6.172184
v 0.000000 -7.200000 5.697400
v 1.765597 -7.200000 5.648526
v 0.000000 -5.550000 6.172184
v -1.922600 -5.550000 6.150814
v -1.774708 -7.200000 5.677675
v 0.000000 -7.200000 5.697400
v -1.922600 -5.550000 6.150814
v -3.894924 -5.550000 5.983841
v -3.595314 -7.200000 5.523545
v -1.774708 -7.200000 5.677675
v -3.894924 -5.550000 5.983841
v -5.740704 -5.550000 5.467363
v -5.299111 -7.200000 5.046796
v -3.595314 -7.200000 5.523545
v -5.740704 -5.550000 5.467363
v -7.227196 -5.550000 4.599125
v -6.671258 -7.200000 4.245346
v -5.299111 -7.200000 5.046796
v -7.227196 -5.550000 4.599125
v -8.387103 -5.550000 3.566235
v -7.741941 -7.200000 3.291909
v -6.671258 -7.200000 4.245346
v -8.387103 -5.550000 3.566235
v -9.335900 -5.550000 2.460854
v -8.617754 -7.200000 2.271558
v -7.741941 -7.200000 3.291909
v -9.335900 -5.550000 2.460854
v -9.916605 -5.550000 1.255250
v -9.153790 -7.200000 1.158692
v -8.617754 -7.200000 2.271558
v -9.916605 -5.550000 1.255250
v -9.912667 -5.550000 0.000000
v -9.150154 -7.200000 0.000000
v -9.153790 -7.200000 1.158692
v -9.912667 -5.550000 0.000000
v -9.475485 -5.550000 -1.199412
v -8.746601 -7.200000 -1.107150
v -9.150154 -7.200000 0.000000
v -9.475485 -5.550000 -1.199412
v -8.927954 -5.550000 -2.353323
v -8.241188 -7.200000 -2.172298
v -8.746601 -7.200000 -1.107150
v -8.927954 -5.550000 -2.353323
v -8.249926 -5.550000 -3.507906
v -7.615316 -7.200000 -3.238067
v -8.241188 -7.200000 -2.172298
v -8.249926 -5.550000 -3.507906
v -7.161771 -5.550000 -4.557491
v -6.610866 -7.200000 -4.206914
v -7.615316 -7.200000 -3.238067
v -7.161771 -5.550000 -4.557491
v -5.624166 -5.550000 -5.356374
v -5.191538 -7.200000 -4.944346
v -6.610866 -7.200000 -4.206914
v -5.624166 -5.550000 -5.356374
v -3.863256 -5.550000 -5.935189
v -3.566083 -7.200000 -5.478636
v -5.191538 -7.200000 -4.944346
v -3.863256 -5.550000 -5.935189
v -1.992978 -5.550000 -6.375968
v -1.839672 -7.200000 -5.885509
v -3.566083 -7.200000 -5.478636
v -1.992978 -5.550000 -6.375968
v -0.000000 -5.550000 -6.567816
v -0.000000 -7.200000 -6.062600
v -1.839672 -7.200000 -5.885509
v -0.000000 -5.550000 -6.567816
v 1.983108 -5.550000 -6.344390
v 1.830561 -7.200000 -5.856360
v -0.000000 -7.200000 -6.062600
v 1.983108 -5.550000 -6.344390
v 3.766398 -5.550000 -5.786385
v 3.476675 -7.200000 -5.341278
v 1.830561 -7.200000 -5.856360
v 3.766398 -5.550000 -5.786385
v 5.381812 -5.550000 -5.125560
v 4.967827 -7.200000 -4.731286
v 3.476675 -7.200000 -5.341278
v 5.381812 -5.550000 -5.125560
v 6.929082 -5.550000 -4.409416
v 6.396076 -7.200000 -4.070230
v 4.967827 -7.200000 -4.731286
v 6.929082 -5.550000 -4.409416
v 8.258919 -5.550000 -3.511730
v 7.623617 -7.200000 -3.241597
v 6.396076 -7.200000 -4.070230
v 8.258919 -5.550000 -3.511730
v 9.160168 -5.550000 -2.414533
v 8.455540 -7.200000 -2.228799
v 7.623617 -7.200000 -3.241597
v 9.160168 -5.550000 -2.414533
v 9.718716 -5.550000 -1.230201
v 8.971122 -7.200000 -1.135570
v 8.455540 -7.200000 -2.228799
v 9.718716 -5.550000 -1.230201
v 10.107333 -5.550000 -0.000000
v 9.329846 -7.200000 -0.000000
v 8.971122 -7.200000 -1.135570
v 0.000000 -7.200000 0.000000
v 9.329846 -7.200000 0.000000
v 9.378311 -7.200000 1.187112
v 0.000000 -7.200000 0.000000
v 9.378311 -7.200000 1.187112
v 8.832106 -7.200000 2.328059
v 0.000000 -7.200000 0.000000
v 8.832106 -7.200000 2.328059
v 7.750242 -7.200000 3.295439
v 0.000000 -7.200000 0.000000
v 7.750242 -7.200000 3.295439
v 6.456468 -7.200000 4.108661
v 0.000000 -7.200000 0.000000
v 6.456468 -7.200000 4.108661
v 5.075400 -7.200000 4.833737
v 0.000000 -7.200000 0.000000
v 5.075400 -7.200000 4.833737
v 3.505907 -7.200000 5.386187
v 0.000000 -7.200000 0.000000
v 3.505907 -7.200000 5.386187
v 1.765597 -7.200000 5.648526
v 0.000000 -7.200000 0.000000
v 1.765597 -7.200000 5.648526
v 0.000000 -7.200000 5.697400
v 0.000000 -7.200000 0.000000
v 0.000000 -7.200000 5.697400
v -1.774708 -7.200000 5.677675
v 0.000000 -7.200000 0.000000
v -1.774708 -7.200000 5.677675
v -3.595314 -7.200000 5.523545
v 0.000000 -7.200000 0.000000
v -3.595314 -7.200000 5.523545
v -5.299111 -7.200000 5.046796
v 0.000000 -7.200000 0.000000
v -5.299111 -7.200000 5.046796
v -6.671258 -7.200000 4.245346
v 0.000000 -7.200000 0.000000
v -6.671258 -7.200000 4.245346
v -7.741941 -7.200000 3.291909
v 0.000000 -7.200000 0.000000
v -7.741941 -7.200000 3.291909
v -8.617754 -7.200000 2.271558
v 0.000000 -7.200000 0.000000
v -8.617754 -7.200000 2.271558
v -9.153790 -7.200000 1.158692
v 0.000000 -7.200000 0.000000
v -9.153790 -7.200000 1.158692
v -9.150154 -7.200000 0.000000
v 0.000000 -7.200000 0.000000
v -9.150154 -7.200000 0.000000
v -8.746601 -7.200000 -1.107150
v 0.000000 -7.200000 0.000000
v -8.746601 -7.200000 -1.107150
v -8.241188 -7.200000 -2.172298
v 0.000000 -7.200000 0.000000
v -8.241188 -7.200000 -2.172298
v -7.615316 -7.200000 -3.238067
v 0.000000 -7.200000 0.000000
v -7.615316 -7.200000 -3.238067
v -6.610866 -7.200000 -4.206914
v 0.000000 -7.200000 0.000000
v -6.610866 -7.200000 -4.206914
v -5.191538 -7.200000 -4.944346
v 0.000000 -7.200000 0.000000
v -5.191538 -7.200000 -4.944346
v -3.566083 -7.200000 -5.478636
v 0.000000 -7.200000 0.000000
v -3.566083 -7.200000 -5.478636
v -1.839672 -7.200000 -5.885509
v 0.000000 -7.200000 0.000000
v -1.839672 -7.200000 -5.885509
v -0.000000 -7.200000 -6.062600
v 0.000000 -7.200000 0.000000
v -0.000000 -7.200000 -6.062600
v 1.830561 -7.200000 -5.856360
v 0.000000 -7.200000 0.000000
v 1.830561 -7.200000 -5.856360
v 3.476675 -7.200000 -5.341278
v 0.000000 -7.200000 0.000000
v 3.476675 -7.200000 -5.341278
v 4.967827 -7.200000 -4.731286
v 0.000000 -7.200000 0.000000
v 4.967827 -7.200000 -4.731286
v 6.396076 -7.200000 -4.070230
v 0.000000 -7.200000 0.000000
v 6.396076 -7.200000 -4.070230
v 7.623617 -7.200000 -3.241597
v 0.000000 -7.200000 0.000000
v 7.623617 -7.200000 -3.241597
v 8.455540 -7.200000 -2.228799
v 0.000000 -7.200000 0.000000
v 8.455540 -7.200000 -2.228799
v 8.971122 -7.200000 -1.135570
v 0.000000 -7.200000 0.000000
v 8.971122 -7.200000 -1.135570
v 9.329846 -7.200000 -0.000000
vt 0.500000 0.500000
vt 0.987185 0.596907
vt 0.984667 0.500000
vt 0.500000 0.500000
vt 0.958811 0.690046
vt 0.987185 0.596907
vt 0.500000 0.500000
vt 0.902610 0.769015
vt 0.958811 0.690046
vt 0.500000 0.500000
vt 0.835401 0.835401
vt 0.902610 0.769015
vt 0.500000 0.500000
vt 0.763657 0.894591
vt 0.835401 0.835401
vt 0.500000 0.500000
vt 0.682125 0.939689
vt 0.763657 0.894591
vt 0.500000 0.500000
vt 0.591719 0.961104
vt 0.682125 0.939689
vt 0.500000 0.500000
vt 0.500000 0.965094
vt 0.591719 0.961104
vt 0.500000 0.500000
vt 0.407807 0.963484
vt 0.500000 0.965094
vt 0.500000 0.500000
vt 0.313230 0.950902
vt 0.407807 0.963484
vt 0.500000 0.500000
vt 0.224722 0.911983
vt 0.313230 0.950902
vt 0.500000 0.500000
vt 0.153441 0.846559
vt 0.224722 0.911983
vt 0.500000 0.500000
vt 0.097821 0.768727
vt 0.153441 0.846559
vt 0.500000 0.500000
vt 0.052324 0.685433
vt 0.097821 0.768727
vt 0.500000 0.500000
vt 0.024478 0.594587
vt 0.052324 0.685433
vt 0.500000 0.500000
vt 0.024667 0.500000
vt 0.024478 0.594587
vt 0.500000 0.500000
vt 0.045631 0.409620
vt 0.024667 0.500000
vt 0.500000 0.500000
vt 0.071886 0.322670
vt 0.045631 0.409620
vt 0.500000 0.500000
vt 0.104399 0.235668
vt 0.071886 0.322670
vt 0.500000 0.500000
vt 0.156578 0.156578
vt 0.104399 0.235668
vt 0.500000 0.500000
vt 0.230310 0.096380
vt 0.156578 0.156578
vt 0.500000 0.500000
vt 0.314749 0.052764
vt 0.230310 0.096380
vt 0.500000 0.500000
vt 0.404433 0.019550
vt 0.314749 0.052764
vt 0.500000 0.500000
vt 0.500000 0.005094
vt 0.404433 0.019550
vt 0.500000 0.500000
vt 0.595094 0.021930
vt 0.500000 0.005094
vt 0.500000 0.500000
vt 0.680607 0.063977
vt 0.595094 0.021930
vt 0.500000 0.500000
vt 0.758069 0.113773
vt 0.680607 0.063977
vt 0.500000 0.500000
vt 0.832264 0.167736
vt 0.758069 0.113773
vt 0.500000 0.500000
vt 0.896032 0.235380
vt 0.832264 0.167736
vt 0.500000 0.500000
vt 0.939249 0.318057
vt 0.896032 0.235380
vt 0.500000 0.500000
vt 0.966032 0.407300
vt 0.939249 0.318057
vt 0.500000 0.500000
vt 0.984667 0.500000
vt 0.966032 0.407300
vt 0.000000 0.000000
vt 0.031250 0.000000
vt 0.031250 1.000000
vt 0.000000 1.000000
vt 0.031250 0.000000
vt 0.062500 0.000000
vt 0.062500 1.000000
vt 0.031250 1.000000
vt 0.062500 0.000000
vt 0.093750 0.000000
vt 0.093750 1.000000
vt 0.062500 1.000000
vt 0.093750 0.000000
vt 0.125000 0.000000
vt 0.125000 1.000000
vt 0.093750 1.000000
vt 0.125000 0.000000
vt 0.156250 0.000000
vt 0.156250 1.000000
vt 0.125000 1.000000
vt 0.156250 0.000000
vt 0.187500 0.000000
vt 0.187500 1.000000
vt 0.156250 1.000000
vt 0.187500 0.000000
vt 0.218750 0.000000
vt 0.218750 1.000000
vt 0.187500 1.000000
vt 0.218750 0.000000
vt 0.250000 0.000000
vt 0.250000 1.000000
vt 0.218750 1.000000
vt 0.250000 0.000000
vt 0.281250 0.000000
vt 0.281250 1.000000
vt 0.250000 1.000000
vt 0.281250 0.000000
vt 0.312500 0.000000
vt 0.312500 1.000000
vt 0.281250 1.000000
vt 0.312500 0.000000
vt 0.343750 0.000000
vt 0.343750 1.000000
vt 0.312500 1.000000
vt 0.343750 0.000000
vt 0.375000 0.000000
vt 0.375000 1.000000
vt 0.343750 1.000000
vt 0.375000 0.000000
vt 0.406250 0.000000
vt 0.406250 1.000000
vt 0.375000 1.000000
vt 0.406250 0.000000
vt 0.437500 0.000000
vt 0.437500 1.000000
vt 0.406250 1.000000
vt 0.437500 0.000000
vt 0.468750 0.000000
vt 0.468750 1.000000
vt 0.437500 1.000000
vt 0.468750 0.000000
vt 0.500000 0.000000
vt 0.500000 1.000000
vt 0.468750 1.000000
vt 0.500000 0.000000
vt 0.531250 0.000000
vt 0.531250 1.000000
vt 0.500000 1.000000
vt 0.531250 0.000000
vt 0.562500 0.000000
vt 0.562500 1.000000
vt 0.531250 1.000000
vt 0.562500 0.000000
vt 0.593750 0.000000
vt 0.593750 1.000000
vt 0.562500 1.000000
vt 0.593750 0.000000
vt 0.625000 0.000000
vt 0.625000 1.000000
vt 0.593750 1.000000
vt 0.625000 0.000000
vt 0.656250 0.000000
vt 0.656250 1.000000
vt 0.625000 1.000000
vt 0.656250 0.000000
vt 0.687500 0.000000
vt 0.687500 1.000000
vt 0.656250 1.000000
vt 0.687500 0.000000
vt 0.718750 0.000000
vt 0.718750 1.000000
vt 0.687500 1.000000
vt 0.718750 0.000000
vt 0.750000 0.000000
vt 0.750000 1.000000
vt 0.718750 1.000000
vt 0.750000 0.000000
vt 0.781250 0.000000
vt 0.781250 1.000000
vt 0.750000 1.000000
vt 0.781250 0.000000
vt 0.812500 0.000000
vt 0.812500 1.000000
vt 0.781250 1.000000
vt 0.812500 0.000000
vt 0.843750 0.000000
vt 0.843750 1.000000
vt 0.812500 1.000000
vt 0.843750 0.000000
vt 0.875000 0.000000
vt 0.875000 1.000000
vt 0.843750 1.000000
vt 0.875000 0.000000
vt 0.906250 0.000000
vt 0.906250 1.000000
vt 0.875000 1.000000
vt 0.906250 0.000000
vt 0.937500 0.000000
vt 0.937500 1.000000
vt 0.906250 1.000000
vt 0.937500 0.000000
vt 0.968750 0.000000
vt 0.968750 1.000000
vt 0.937500 1.000000
vt 0.968750 0.000000
vt 1.000000 0.000000
vt 1.000000 1.000000
vt 0.968750 1.000000
vt 0.000000 0.000000
vt 0.031250 0.000000
vt 0.031250 1.000000
vt 0.000000 1.000000
vt 0.031250 0.000000
vt 0.062500 0.000000
vt 0.062500 1.000000
vt 0.031250 1.000000
vt 0.062500 0.000000
vt 0.093750 0.000000
vt 0.093750 1.000000
vt 0.062500 1.000000
vt 0.093750 0.000000
vt 0.125000 0.000000
vt 0.125000 1.000000
vt 0.093750 1.000000
vt 0.125000 0.000000
vt 0.156250 0.000000
vt 0.156250 1.000000
vt 0.125000 1.000000
vt 0.156250 0.000000
vt 0.187500 0.000000
vt 0.187500 1.000000
vt 0.156250 1.000000
vt 0.187500 0.000000
vt 0.218750 0.000000
vt 0.218750 1.000000
vt 0.187500 1.000000
vt 0.218750 0.000000
vt 0.250000 0.000000
vt 0.250000 1.000000
vt 0.218750 1.000000
vt 0.250000 0.000000
vt 0.281250 0.000000
vt 0.281250 1.000000
vt 0.250000 1.000000
vt 0.281250 0.000000
vt 0.312500 0.000000
vt 0.312500 1.000000
vt 0.281250 1.000000
vt 0.312500 0.000000
vt 0.343750 0.000000
vt 0.343750 1.000000
vt 0.312500 1.000000
vt 0.343750 0.000000
vt 0.375000 0.000000
vt 0.375000 1.000000
vt 0.343750 1.000000
vt 0.375000 0.000000
vt 0.406250 0.000000
vt 0.406250 1.000000
vt 0.375000 1.000000
vt 0.406250 0.000000
vt 0.437500 0.000000
vt 0.437500 1.000000
vt 0.406250 1.000000
vt 0.437500 0.000000
vt 0.468750 0.000000
vt 0.468750 1.000000
vt 0.437500 1.000000
vt 0.468750 0.000000
vt 0.500000 0.000000
vt 0.500000 1.000000
vt 0.468750 1.000000
vt 0.500000 0.000000
vt 0.531250 0.000000
vt 0.531250 1.000000
vt 0.500000 1.000000
vt 0.531250 0.000000
vt 0.562500 0.000000
vt 0.562500 1.000000
vt 0.531250 1.000000
vt 0.562500 0.000000
vt 0.593750 0.000000
vt 0.593750 1.000000
vt 0.562500 1.000000
vt 0.593750 0.000000
vt 0.625000 0.000000
vt 0.625000 1.000000
vt 0.593750 1.000000
vt 0.625000 0.000000
vt 0.656250 0.000000
vt 0.656250 1.000000
vt 0.625000 1.000000
vt 0.656250 0.000000
vt 0.687500 0.000000
vt 0.687500 1.000000
vt 0.656250 1.000000
vt 0.687500 0.000000
vt 0.718750 0.000000
vt 0.718750 1.000000
vt 0.687500 1.000000
vt 0.718750 0.000000
vt 0.750000 0.000000
vt 0.750000 1.000000
vt 0.718750 1.000000
vt 0.750000 0.000000
vt 0.781250 0.000000
vt 0.781250 1.000000
vt 0.750000 1.000000
vt 0.781250 0.000000
vt 0.812500 0.000000
vt 0.812500 1.000000
vt 0.781250 1.000000
vt 0.812500 0.000000
vt 0.843750 0.000000
vt 0.843750 1.000000
vt 0.812500 1.000000
vt 0.843750 0.000000
vt 0.875000 0.000000
vt 0.875000 1.000000
vt 0.843750 1.000000
vt 0.875000 0.000000
vt 0.906250 0.000000
vt 0.906250 1.000000
vt 0.875000 1.000000
vt 0.906250 0.000000
vt 0.937500 0.000000
vt 0.937500 1.000000
vt 0.906250 1.000000
vt 0.937500 0.000000
vt 0.968750 0.000000
vt 0.968750 1.000000
vt 0.937500 1.000000
vt 0.968750 0.000000
vt 1.000000 0.000000
vt 1.000000 1.000000
vt 0.968750 1.000000
vt 0.000000 0.000000
vt 0.031250 0.000000
vt 0.031250 1.000000
vt 0.000000 1.000000
vt 0.031250 0.000000
vt 0.062500 0.000000
vt 0.062500 1.000000
vt 0.031250 1.000000
vt 0.062500 0.000000
vt 0.093750 0.000000
vt 0.093750 1.000000
vt 0.062500 1.000000
vt 0.093750 0.000000
vt 0.125000 0.000000
vt 0.125000 1.000000
vt 0.093750 1.000000
vt 0.125000 0.000000
vt 0.156250 0.000000
vt 0.156250 1.000000
vt 0.125000 1.000000
vt 0.156250 0.000000
vt 0.187500 0.000000
vt 0.187500 1.000000
vt 0.156250 1.000000
vt 0.187500 0.000000
vt 0.218750 0.000000
vt 0.218750 1.000000
vt 0.187500 1.000000
vt 0.218750 0.000000
vt 0.250000 0.000000
vt 0.250000 1.000000
vt 0.218750 1.000000
vt 0.250000 0.000000
vt 0.281250 0.000000
vt 0.281250 1.000000
vt 0.250000 1.000000
vt 0.281250 0.000000
vt 0.312500 0.000000
vt 0.312500 1.000000
vt 0.281250 1.000000
vt 0.312500 0.000000
vt 0.343750 0.000000
vt 0.343750 1.000000
vt 0.312500 1.000000
vt 0.343750 0.000000
vt 0.375000 0.000000
vt 0.375000 1.000000
vt 0.343750 1.000000
vt 0.375000 0.000000
vt 0.406250 0.000000
vt 0.406250 1.000000
vt 0.375000 1.000000
vt 0.406250 0.000000
vt 0.437500 0.000000
vt 0.437500 1.000000
vt 0.406250 1.000000
vt 0.437500 0.000000
vt 0.468750 0.000000
vt 0.468750 1.000000
vt 0.437500 1.000000
vt 0.468750 0.000000
vt 0.500000 0.000000
vt 0.500000 1.000000
vt 0.468750 1.000000
vt 0.500000 0.000000
vt 0.531250 0.000000
vt 0.531250 1.000000
vt 0.500000 1.000000
vt 0.531250 0.000000
vt 0.562500 0.000000
vt 0.562500 1.000000
vt 0.531250 1.000000
vt 0.562500 0.000000
vt 0.593750 0.000000
vt 0.593750 1.000000
vt 0.562500 1.000000
vt 0.593750 0.000000
vt 0.625000 0.000000
vt 0.625000 1.000000
vt 0.593750 1.000000
vt 0.625000 0.000000
vt 0.656250 0.000000
vt 0.656250 1.000000
vt 0.625000 1.000000
vt 0.656250 0.000000
vt 0.687500 0.000000
vt 0.687500 1.000000
vt 0.656250 1.000000
vt 0.687500 0.000000
vt 0.718750 0.000000
vt 0.718750 1.000000
vt 0.687500 1.000000
vt 0.718750 0.000000
vt 0.750000 0.000000
vt 0.750000 1.000000
vt 0.718750 1.000000
vt 0.750000 0.000000
vt 0.781250 0.000000
vt 0.781250 1.000000
vt 0.750000 1.000000
vt 0.781250 0.000000
vt 0.812500 0.000000
vt 0.812500 1.000000
vt 0.781250 1.000000
vt 0.812500 0.000000
vt 0.843750 0.000000
vt 0.843750 1.000000
vt 0.812500 1.000000
vt 0.843750 0.000000
vt 0.875000 0.000000
vt 0.875000 1.000000
vt 0.843750 1.000000
vt 0.875000 0.000000
vt 0.906250 0.000000
vt 0.906250 1.000000
vt 0.875000 1.000000
vt 0.906250 0.000000
vt 0.937500 0.000000
vt 0.937500 1.000000
vt 0.906250 1.000000
vt 0.937500 0.000000
vt 0.968750 0.000000
vt 0.968750 1.000000
vt 0.937500 1.000000
vt 0.968750 0.000000
vt 1.000000 0.000000
vt 1.000000 1.000000
vt 0.968750 1.000000
vt 0.000000 0.000000
vt 0.031250 0.000000
vt 0.031250 1.000000
vt 0.000000 1.000000
vt 0.031250 0.000000
vt 0.062500 0.000000
vt 0.062500 1.000000
vt 0.031250 1.000000
vt 0.062500 0.000000
vt 0.093750 0.000000
vt 0.093750 1.000000
vt 0.062500 1.000000
vt 0.093750 0.000000
vt 0.125000 0.000000
vt 0.125000 1.000000
vt 0.093750 1.000000
vt 0.125000 0.000000
vt 0.156250 0.000000
vt 0.156250 1.000000
vt 0.125000 1.000000
vt 0.156250 0.000000
vt 0.187500 0.000000
vt 0.187500 1.000000
vt 0.156250 1.000000
vt 0.187500 0.000000
vt 0.218750 0.000000
vt 0.218750 1.000000
vt 0.187500 1.000000
vt 0.218750 0.000000
vt 0.250000 0.000000
vt 0.250000 1.000000
vt 0.218750 1.000000
vt 0.250000 0.000000
vt 0.281250 0.000000
vt 0.281250 1.000000
vt 0.250000 1.000000
vt 0.281250 0.000000
vt 0.312500 0.000000
vt 0.312500 1.000000
vt 0.281250 1.000000
vt 0.312500 0.000000
vt 0.343750 0.000000
vt 0.343750 1.000000
vt 0.312500 1.000000
vt 0.343750 0.000000
vt 0.375000 0.000000
vt 0.375000 1.000000
vt 0.343750 1.000000
vt 0.375000 0.000000
vt 0.406250 0.000000
vt 0.406250 1.000000
vt 0.375000 1.000000
vt 0.406250 0.000000
vt 0.437500 0.000000
vt 0.437500 1.000000
vt 0.406250 1.000000
vt 0.437500 0.000000
vt 0.468750 0.000000
vt 0.468750 1.000000
vt 0.437500 1.000000
vt 0.468750 0.000000
vt 0.500000 0.000000
vt 0.500000 1.000000
vt 0.468750 1.000000
vt 0.500000 0.000000
vt 0.531250 0.000000
vt 0.531250 1.000000
vt 0.500000 1.000000
vt 0.531250 0.000000
vt 0.562500 0.000000
vt 0.562500 1.000000
vt 0.531250 1.000000
vt 0.562500 0.000000
vt 0.593750 0.000000
vt 0.593750 1.000000
vt 0.562500 1.000000
vt 0.593750 0.000000
vt 0.625000 0.000000
vt 0.625000 1.000000
vt 0.593750 1.000000
vt 0.625000 0.000000
vt 0.656250 0.000000
vt 0.656250 1.000000
vt 0.625000 1.000000
vt 0.656250 0.000000
vt 0.687500 0.000000
vt 0.687500 1.000000
vt 0.656250 1.000000
vt 0.687500 0.000000
vt 0.718750 0.000000
vt 0.718750 1.000000
vt 0.687500 1.000000
vt 0.718750 0.000000
vt 0.750000 0.000000
vt 0.750000 1.000000
vt 0.718750 1.000000
vt 0.750000 0.000000
vt 0.781250 0.000000
vt 0.781250 1.000000
vt 0.750000 1.000000
vt 0.781250 0.000000
vt 0.812500 0.000000
vt 0.812500 1.000000
vt 0.781250 1.000000
vt 0.812500 0.000000
vt 0.843750 0.000000
vt 0.843750 1.000000
vt 0.812500 1.000000
vt 0.843750 0.000000
vt 0.875000 0.000000
vt 0.875000 1.000000
vt 0.843750 1.000000
vt 0.875000 0.000000
vt 0.906250 0.000000
vt 0.906250 1.000000
vt 0.875000 1.000000
vt 0.906250 0.000000
vt 0.937500 0.000000
vt 0.937500 1.000000
vt 0.906250 1.000000
vt 0.937500 0.000000
vt 0.968750 0.000000
vt 0.968750 1.000000
vt 0.937500 1.000000
vt 0.968750 0.000000
vt 1.000000 0.000000
vt 1.000000 1.000000
vt 0.968750 1.000000
vt 0.000000 0.000000
vt 0.031250 0.000000
vt 0.031250 1.000000
vt 0.000000 1.000000
vt 0.031250 0.000000
vt 0.062500 0.000000
vt 0.062500 1.000000
vt 0.031250 1.000000
vt 0.062500 0.000000
vt 0.093750 0.000000
vt 0.093750 1.000000
vt 0.062500 1.000000
vt 0.093750 0.000000
vt 0.125000 0.000000
vt 0.125000 1.000000
vt 0.093750 1.000000
vt 0.125000 0.000000
vt 0.156250 0.000000
vt 0.156250 1.000000
vt 0.125000 1.000000
vt 0.156250 0.000000
vt 0.187500 0.000000
vt 0.187500 1.000000
vt 0.156250 1.000000
vt 0.187500 0.000000
vt 0.218750 0.000000
vt 0.218750 1.000000
vt 0.187500 1.000000
vt 0.218750 0.000000
vt 0.250000 0.000000
vt 0.250000 1.000000
vt 0.218750 1.000000
vt 0.250000 0.000000
vt 0.281250 0.000000
vt 0.281250 1.000000
vt 0.250000 1.000000
vt 0.281250 0.000000
vt 0.312500 0.000000
vt 0.312500 1.000000
vt 0.281250 1.000000
vt 0.312500 0.000000
vt 0.343750 0.000000
vt 0.343750 1.000000
vt 0.312500 1.000000
vt 0.343750 0.000000
vt 0.375000 0.000000
vt 0.375000 1.000000
vt 0.343750 1.000000
vt 0.375000 0.000000
vt 0.406250 0.000000
vt 0.406250 1.000000
vt 0.375000 1.000000
vt 0.406250 0.000000
vt 0.437500 0.000000
vt 0.437500 1.000000
vt 0.406250 1.000000
vt 0.437500 0.000000
vt 0.468750 0.000000
vt 0.468750 1.000000
vt 0.437500 1.000000
vt 0.468750 0.000000
vt 0.500000 0.000000
vt 0.500000 1.000000
vt 0.468750 1.000000
vt 0.500000 0.000000
vt 0.531250 0.000000
vt 0.531250 1.000000
vt 0.500000 1.000000
vt 0.531250 0.000000
vt 0.562500 0.000000
vt 0.562500 1.000000
vt 0.531250 1.000000
vt 0.562500 0.000000
vt 0.593750 0.000000
vt 0.593750 1.000000
vt 0.562500 1.000000
vt 0.593750 0.000000
vt 0.625000 0.000000
vt 0.625000 1.000000
vt 0.593750 1.000000
vt 0.625000 0.000000
vt 0.656250 0.000000
vt 0.656250 1.000000
vt 0.625000 1.000000
vt 0.656250 0.000000
vt 0.687500 0.000000
vt 0.687500 1.000000
vt 0.656250 1.000000
vt 0.687500 0.000000
vt 0.718750 0.000000
vt 0.718750 1.000000
vt 0.687500 1.000000
vt 0.718750 0.000000
vt 0.750000 0.000000
vt 0.750000 1.000000
vt 0.718750 1.000000
vt 0.750000 0.000000
vt 0.781250 0.000000
vt 0.781250 1.000000
vt 0.750000 1.000000
vt 0.781250 0.000000
vt 0.812500 0.000000
vt 0.812500 1.000000
vt 0.781250 1.000000
vt 0.812500 0.000000
vt 0.843750 0.000000
vt 0.843750 1.000000
vt 0.812500 1.000000
vt 0.843750 0.000000
vt 0.875000 0.000000
vt 0.875000 1.000000
vt 0.843750 1.000000
vt 0.875000 0.000000
vt 0.906250 0.000000
vt 0.906250 1.000000
vt 0.875000 1.000000
vt 0.906250 0.000000
vt 0.937500 0.000000
vt 0.937500 1.000000
vt 0.906250 1.000000
vt 0.937500 0.000000
vt 0.968750 0.000000
vt 0.968750 1.000000
vt 0.937500 1.000000
vt 0.968750 0.000000
vt 1.000000 0.000000
vt 1.000000 1.000000
vt 0.968750 1.000000
vt 0.500000 0.500000
vt 1.004862 0.500000
vt 1.007484 0.600945
vt 0.500000 0.500000
vt 1.007484 0.600945
vt 0.977928 0.697964
vt 0.500000 0.500000
vt 0.977928 0.697964
vt 0.919385 0.780224
vt 0.500000 0.500000
vt 0.919385 0.780224
vt 0.849376 0.849376
vt 0.500000 0.500000
vt 0.849376 0.849376
vt 0.774643 0.911032
vt 0.500000 0.500000
vt 0.774643 0.911032
vt 0.689714 0.958009
vt 0.500000 0.500000
vt 0.689714 0.958009
vt 0.595541 0.980317
vt 0.500000 0.500000
vt 0.595541 0.980317
vt 0.500000 0.984473
vt 0.500000 0.500000
vt 0.500000 0.984473
vt 0.403966 0.982795
vt 0.500000 0.500000
vt 0.403966 0.982795
vt 0.305448 0.969689
vt 0.500000 0.500000
vt 0.305448 0.969689
vt 0.213252 0.929149
vt 0.500000 0.500000
vt 0.213252 0.929149
vt 0.139001 0.860999
vt 0.500000 0.500000
vt 0.139001 0.860999
vt 0.081064 0.779924
vt 0.500000 0.500000
vt 0.081064 0.779924
vt 0.033671 0.693160
vt 0.500000 0.500000
vt 0.033671 0.693160
vt 0.004665 0.598528
vt 0.500000 0.500000
vt 0.004665 0.598528
vt 0.004862 0.500000
vt 0.500000 0.500000
vt 0.004862 0.500000
vt 0.026699 0.405855
vt 0.500000 0.500000
vt 0.026699 0.405855
vt 0.054048 0.315281
vt 0.500000 0.500000
vt 0.054048 0.315281
vt 0.087916 0.224654
vt 0.500000 0.500000
vt 0.087916 0.224654
vt 0.142269 0.142269
vt 0.500000 0.500000
vt 0.142269 0.142269
vt 0.219073 0.079562
vt 0.500000 0.500000
vt 0.219073 0.079562
vt 0.307030 0.034130
vt 0.500000 0.500000
vt 0.307030 0.034130
vt 0.400451 -0.000468
vt 0.500000 0.500000
vt 0.400451 -0.000468
vt 0.500000 -0.015527
vt 0.500000 0.500000
vt 0.500000 -0.015527
vt 0.599056 0.002010
vt 0.500000 0.500000
vt 0.599056 0.002010
vt 0.688132 0.045810
vt 0.500000 0.500000
vt 0.688132 0.045810
vt 0.768822 0.097680
vt 0.500000 0.500000
vt 0.768822 0.097680
vt 0.846108 0.153892
vt 0.500000 0.500000
vt 0.846108 0.153892
vt 0.912533 0.224354
vt 0.500000 0.500000
vt 0.912533 0.224354
vt 0.957551 0.310476
vt 0.500000 0.500000
vt 0.957551 0.310476
vt 0.985450 0.403438
vt 0.500000 0.500000
vt 0.985450 0.403438
vt 1.004862 0.500000
vn 0.000000 1.000000 0.000000
vn 0.000000 1.000000 0.000000
vn 0.000000 1.000000 0.000000
vn 0.000000 1.000000 0.000000
vn 0.000000 1.000000 0.000000
vn 0.000000 1.000000 0.000000
vn 0.000000 1.000000 0.000000
vn 0.000000 1.000000 0.000000
vn 0.000000 1.000000 0.000000
vn 0.000000 1.000000 0.000000
vn 0.000000 1.000000 0.000000
vn 0.000000 1.000000 0.000000
vn 0.000000 1.000000 0.000000
vn 0.000000 1.000000 0.000000
vn 0.000000 1.000000 0.000000
vn 0.000000 1.000000 0.000000
vn 0.000000 1.000000 0.000000
vn 0.000000 1.000000 0.000000
vn 0.000000 1.000000 0.000000
vn 0.000000 1.000000 0.000000
vn 0.000000 1.000000 0.000000
vn 0.000000 1.000000 0.000000
vn 0.000000 1.000000 0.000000
vn 0.000000 1.000000 0.000000
vn 0.000000 1.000000 -0.000000
vn 0.000000 1.000000 -0.000000
vn 0.000000 1.000000 -0.000000
vn 0.000000 1.000000 0.000000
vn 0.000000 1.000000 0.000000
vn 0.000000 1.000000 0.000000
vn 0.000000 1.000000 0.000000
vn 0.000000 1.000000 0.000000
vn 0.000000 1.000000 0.000000
vn 0.000000 1.000000 0.000000
vn 0.000000 1.000000 0.000000
vn 0.000000 1.000000 0.000000
vn 0.000000 1.000000 0.000000
vn 0.000000 1.000000 0.000000
vn 0.000000 1.000000 0.000000
vn 0.000000 1.000000 0.000000
vn 0.000000 1.000000 0.000000
vn 0.000000 1.000000 0.000000
vn 0.000000 1.000000 0.000000
vn 0.000000 1.000000 0.000000
vn 0.000000 1.000000 0.000000
vn 0.000000 1.000000 0.000000
vn 0.000000 1.000000 0.000000
vn 0.000000 1.000000 0.000000
vn 0.000000 1.000000 0.000000
vn 0.000000 1.000000 0.000000
vn 0.000000 1.000000 0.000000
vn 0.000000 1.000000 0.000000
vn 0.000000 1.000000 0.000000
vn 0.000000 1.000000 0.000000
vn 0.000000 1.000000 0.000000
vn 0.000000 1.000000 0.000000
vn 0.000000 1.000000 0.000000
vn 0.000000 1.000000 0.000000
vn 0.000000 1.000000 0.000000
vn 0.000000 1.000000 0.000000
vn 0.000000 1.000000 0.000000
vn 0.000000 1.000000 0.000000
vn 0.000000 1.000000 0.000000
vn 0.000000 1.000000 0.000000
vn 0.000000 1.000000 0.000000
vn 0.000000 1.000000 0.000000
vn 0.000000 1.000000 0.000000
vn 0.000000 1.000000 0.000000
vn 0.000000 1.000000 0.000000
vn 0.000000 1.000000 0.000000
vn 0.000000 1.000000 0.000000
vn 0.000000 1.000000 0.000000
vn 0.000000 1.000000 0.000000
vn 0.000000 1.000000 0.000000
vn 0.000000 1.000000 0.000000
vn 0.000000 1.000000 0.000000
vn 0.000000 1.000000 0.000000
vn 0.000000 1.000000 0.000000
vn 0.000000 1.000000 0.000000
vn 0.000000 1.000000 0.000000
vn 0.000000 1.000000 0.000000
vn 0.000000 1.000000 0.000000
vn 0.000000 1.000000 0.000000
vn 0.000000 1.000000 0.000000
vn 0.000000 1.000000 0.000000
vn 0.000000 1.000000 0.000000
vn 0.000000 1.000000 0.000000
vn 0.000000 1.000000 0.000000
vn 0.000000 1.000000 0.000000
vn 0.000000 1.000000 0.000000
vn 0.000000 1.000000 0.000000
vn 0.000000 1.000000 0.000000
vn 0.000000 1.000000 0.000000
vn 0.000000 1.000000 0.000000
vn 0.000000 1.000000 0.000000
vn 0.000000 1.000000 0.000000
vn 0.584282 0.811200 -0.023854
vn 0.584282 0.811200 -0.023854
vn 0.584282 0.811200 -0.023854
vn 0.584282 0.811200 -0.023854
vn 0.540736 0.800371 0.258866
vn 0.540736 0.800371 0.258866
vn 0.540736 0.800371 0.258866
vn 0.540736 0.800371 0.258866
vn 0.440798 0.750123 0.492964
vn 0.440798 0.750123 0.492964
vn 0.440798 0.750123 0.492964
vn 0.440798 0.750123 0.492964
vn 0.370895 0.717120 0.590065
vn 0.370895 0.717120 0.590065
vn 0.370895 0.717120 0.590065
vn 0.370895 0.717120 0.590065
vn 0.330679 0.702807 0.629852
vn 0.330679 0.702807 0.629852
vn 0.330679 0.702807 0.629852
vn 0.330679 0.702807 0.629852
vn 0.243221 0.680725 0.690983
vn 0.243221 0.680725 0.690983
vn 0.243221 0.680725 0.690983
vn 0.243221 0.680725 0.690983
vn 0.112438 0.656506 0.745894
vn 0.112438 0.656506 0.745894
vn 0.112438 0.656506 0.745894
vn 0.112438 0.656506 0.745894
vn 0.021110 0.646542 0.762586
vn 0.021110 0.646542 0.762586
vn 0.021110 0.646542 0.762586
vn 0.021110 0.646542 0.762586
vn -0.008478 0.646663 0.762729
vn -0.008478 0.646663 0.762729
vn -0.008478 0.646663 0.762729
vn -0.008478 0.646663 0.762729
vn -0.063826 0.653846 0.753931
vn -0.063826 0.653846 0.753931
vn -0.063826 0.653846 0.753931
vn -0.063826 0.653846 0.753931
vn -0.196760 0.683249 0.703176
vn -0.196760 0.683249 0.703176
vn -0.196760 0.683249 0.703176
vn -0.196760 0.683249 0.703176
vn -0.348491 0.722891 0.596643
vn -0.348491 0.722891 0.596643
vn -0.348491 0.722891 0.596643
vn -0.348491 0.722891 0.596643
vn -0.440290 0.749453 0.494433
vn -0.440290 0.749453 0.494433
vn -0.440290 0.749453 0.494433
vn -0.440290 0.749453 0.494433
vn -0.487389 0.766444 0.418348
vn -0.487389 0.766444 0.418348
vn -0.487389 0.766444 0.418348
vn -0.487389 0.766444 0.418348
vn -0.548765 0.793088 0.264325
vn -0.548765 0.793088 0.264325
vn -0.548765 0.793088 0.264325
vn -0.548765 0.793088 0.264325
vn -0.591929 0.805988 -0.001857
vn -0.591929 0.805988 -0.001857
vn -0.591929 0.805988 -0.001857
vn -0.591929 0.805988 -0.001857
vn -0.578615 0.787860 -0.210904
vn -0.578615 0.787860 -0.210904
vn -0.578615 0.787860 -0.210904
vn -0.578615 0.787860 -0.210904
vn -0.565335 0.780024 -0.268252
vn -0.565335 0.780024 -0.268252
vn -0.565335 0.780024 -0.268252
vn -0.565335 0.780024 -0.268252
vn -0.546319 0.773697 -0.320825
vn -0.546319 0.773697 -0.320825
vn -0.546319 0.773697 -0.320825
vn -0.546319 0.773697 -0.320825
vn -0.459273 0.749899 -0.476151
vn -0.459273 0.749899 -0.476151
vn -0.459273 0.749899 -0.476151
vn -0.459273 0.749899 -0.476151
vn -0.324533 0.710296 -0.624626
vn -0.324533 0.710296 -0.624626
vn -0.324533 0.710296 -0.624626
vn -0.324533 0.710296 -0.624626
vn -0.227501 0.684993 -0.692119
vn -0.227501 0.684993 -0.692119
vn -0.227501 0.684993 -0.692119
vn -0.227501 0.684993 -0.692119
vn -0.169215 0.675162 -0.717999
vn -0.169215 0.675162 -0.717999
vn -0.169215 0.675162 -0.717999
vn -0.169215 0.675162 -0.717999
vn -0.071292 0.668151 -0.740602
vn -0.071292 0.668151 -0.740602
vn -0.071292 0.668151 -0.740602
vn -0.071292 0.668151 -0.740602
vn 0.083361 0.667524 -0.739907
vn 0.083361 0.667524 -0.739907
vn 0.083361 0.667524 -0.739907
vn 0.083361 0.667524 -0.739907
vn 0.220531 0.674278 -0.704781
vn 0.220531 0.674278 -0.704781
vn 0.220531 0.674278 -0.704781
vn 0.220531 0.674278 -0.704781
vn 0.277039 0.681618 -0.677234
vn 0.277039 0.681618 -0.677234
vn 0.277039 0.681618 -0.677234
vn 0.277039 0.681618 -0.677234
vn 0.304608 0.688542 -0.658122
vn 0.304608 0.688542 -0.658122
vn 0.304608 0.688542 -0.658122
vn 0.304608 0.688542 -0.658122
vn 0.388849 0.719008 -0.576043
vn 0.388849 0.719008 -0.576043
vn 0.388849 0.719008 -0.576043
vn 0.388849 0.719008 -0.576043
vn 0.498894 0.763657 -0.409797
vn 0.498894 0.763657 -0.409797
vn 0.498894 0.763657 -0.409797
vn 0.498894 0.763657 -0.409797
vn 0.556954 0.787914 -0.262668
vn 0.556954 0.787914 -0.262668
vn 0.556954 0.787914 -0.262668
vn 0.556954 0.787914 -0.262668
vn 0.574735 0.797945 -0.181557
vn 0.574735 0.797945 -0.181557
vn 0.574735 0.797945 -0.181557
vn 0.574735 0.797945 -0.181557
vn 0.955958 0.290898 -0.039028
vn 0.955958 0.290898 -0.039028
vn 0.955958 0.290898 -0.039028
vn 0.955958 0.290898 -0.039028
vn 0.865670 0.280838 0.414422
vn 0.865670 0.280838 0.414422
vn 0.865670 0.280838 0.414422
vn 0.865670 0.280838 0.414422
vn 0.646872 0.241273 0.723425
vn 0.646872 0.241273 0.723425
vn 0.646872 0.241273 0.723425
vn 0.646872 0.241273 0.723425
vn 0.519130 0.219996 0.825897
vn 0.519130 0.219996 0.825897
vn 0.519130 0.219996 0.825897
vn 0.519130 0.219996 0.825897
vn 0.454313 0.211632 0.865339
vn 0.454313 0.211632 0.865339
vn 0.454313 0.211632 0.865339
vn 0.454313 0.211632 0.865339
vn 0.325345 0.199578 0.924294
vn 0.325345 0.199578 0.924294
vn 0.325345 0.199578 0.924294
vn 0.325345 0.199578 0.924294
vn 0.146418 0.187378 0.971314
vn 0.146418 0.187378 0.971314
vn 0.146418 0.187378 0.971314
vn 0.146418 0.187378 0.971314
vn 0.027206 0.182630 0.982805
vn 0.027206 0.182630 0.982805
vn 0.027206 0.182630 0.982805
vn 0.027206 0.182630 0.982805
vn -0.010927 0.182687 0.983110
vn -0.010927 0.182687 0.983110
vn -0.010927 0.182687 0.983110
vn -0.010927 0.182687 0.983110
vn -0.082883 0.186096 0.979029
vn -0.082883 0.186096 0.979029
vn -0.082883 0.186096 0.979029
vn -0.082883 0.186096 0.979029
vn -0.263971 0.200908 0.943375
vn -0.263971 0.200908 0.943375
vn -0.263971 0.200908 0.943375
vn -0.263971 0.200908 0.943375
vn -0.491597 0.223505 0.841652
vn -0.491597 0.223505 0.841652
vn -0.491597 0.223505 0.841652
vn -0.491597 0.223505 0.841652
vn -0.645463 0.240810 0.724837
vn -0.645463 0.240810 0.724837
vn -0.645463 0.240810 0.724837
vn -0.645463 0.240810 0.724837
vn -0.734114 0.253026 0.630123
vn -0.734114 0.253026 0.630123
vn -0.734114 0.253026 0.630123
vn -0.734114 0.253026 0.630123
vn -0.866347 0.274425 0.417294
vn -0.866347 0.274425 0.417294
vn -0.866347 0.274425 0.417294
vn -0.866347 0.274425 0.417294
vn -0.958233 0.285974 -0.003006
vn -0.958233 0.285974 -0.003006
vn -0.958233 0.285974 -0.003006
vn -0.958233 0.285974 -0.003006
vn -0.904644 0.269982 -0.329740
vn -0.904644 0.269982 -0.329740
vn -0.904644 0.269982 -0.329740
vn -0.904644 0.269982 -0.329740
vn -0.871510 0.263555 -0.413532
vn -0.871510 0.263555 -0.413532
vn -0.871510 0.263555 -0.413532
vn -0.871510 0.263555 -0.413532
vn -0.832983 0.258558 -0.489169
vn -0.832983 0.258558 -0.489169
vn -0.832983 0.258558 -0.489169
vn -0.832983 0.258558 -0.489169
vn -0.673753 0.241118 -0.698512
vn -0.673753 0.241118 -0.698512
vn -0.673753 0.241118 -0.698512
vn -0.673753 0.241118 -0.698512
vn -0.450169 0.215950 -0.866437
vn -0.450169 0.215950 -0.866437
vn -0.450169 0.215950 -0.866437
vn -0.450169 0.215950 -0.866437
vn -0.305839 0.201833 -0.930444
vn -0.305839 0.201833 -0.930444
vn -0.305839 0.201833 -0.930444
vn -0.305839 0.201833 -0.930444
vn -0.224910 0.196687 -0.954321
vn -0.224910 0.196687 -0.954321
vn -0.224910 0.196687 -0.954321
vn -0.224910 0.196687 -0.954321
vn -0.094015 0.193121 -0.976660
vn -0.094015 0.193121 -0.976660
vn -0.094015 0.193121 -0.976660
vn -0.094015 0.193121 -0.976660
vn 0.109856 0.192806 -0.975068
vn 0.109856 0.192806 -0.975068
vn 0.109856 0.192806 -0.975068
vn 0.109856 0.192806 -0.975068
vn 0.292823 0.196233 -0.935814
vn 0.292823 0.196233 -0.935814
vn 0.292823 0.196233 -0.935814
vn 0.292823 0.196233 -0.935814
vn 0.370966 0.200047 -0.906844
vn 0.370966 0.200047 -0.906844
vn 0.370966 0.200047 -0.906844
vn 0.370966 0.200047 -0.906844
vn 0.411225 0.203735 -0.888474
vn 0.411225 0.203735 -0.888474
vn 0.411225 0.203735 -0.888474
vn 0.411225 0.203735 -0.888474
vn 0.545641 0.221135 -0.808316
vn 0.545641 0.221135 -0.808316
vn 0.545641 0.221135 -0.808316
vn 0.545641 0.221135 -0.808316
vn 0.748005 0.250953 -0.614419
vn 0.748005 0.250953 -0.614419
vn 0.748005 0.250953 -0.614419
vn 0.748005 0.250953 -0.614419
vn 0.870863 0.270026 -0.410711
vn 0.870863 0.270026 -0.410711
vn 0.870863 0.270026 -0.410711
vn 0.870863 0.270026 -0.410711
vn 0.915779 0.278672 -0.289292
vn 0.915779 0.278672 -0.289292
vn 0.915779 0.278672 -0.289292
vn 0.915779 0.278672 -0.289292
vn 0.976535 -0.211636 -0.039868
vn 0.976535 -0.211636 -0.039868
vn 0.976535 -0.211636 -0.039868
vn 0.976535 -0.211636 -0.039868
vn 0.882999 -0.204015 0.422718
vn 0.882999 -0.204015 0.422718
vn 0.882999 -0.204015 0.422718
vn 0.882999 -0.204015 0.422718
vn 0.656355 -0.174352 0.734030
vn 0.656355 -0.174352 0.734030
vn 0.656355 -0.174352 0.734030
vn 0.656355 -0.174352 0.734030
vn 0.525434 -0.158583 0.835925
vn 0.525434 -0.158583 0.835925
vn 0.525434 -0.158583 0.835925
vn 0.525434 -0.158583 0.835925
vn 0.459411 -0.152415 0.875050
vn 0.459411 -0.152415 0.875050
vn 0.459411 -0.152415 0.875050
vn 0.459411 -0.152415 0.875050
vn 0.328586 -0.143554 0.933501
vn 0.328586 -0.143554 0.933501
vn 0.328586 -0.143554 0.933501
vn 0.328586 -0.143554 0.933501
vn 0.147701 -0.134619 0.979827
vn 0.147701 -0.134619 0.979827
vn 0.147701 -0.134619 0.979827
vn 0.147701 -0.134619 0.979827
vn 0.027432 -0.131150 0.990983
vn 0.027432 -0.131150 0.990983
vn 0.027432 -0.131150 0.990983
vn 0.027432 -0.131150 0.990983
vn -0.011018 -0.131192 0.991296
vn -0.011018 -0.131192 0.991296
vn -0.011018 -0.131192 0.991296
vn -0.011018 -0.131192 0.991296
vn -0.083599 -0.133682 0.987492
vn -0.083599 -0.133682 0.987492
vn -0.083599 -0.133682 0.987492
vn -0.083599 -0.133682 0.987492
vn -0.266636 -0.144530 0.952899
vn -0.266636 -0.144530 0.952899
vn -0.266636 -0.144530 0.952899
vn -0.266636 -0.144530 0.952899
vn -0.497761 -0.161176 0.852207
vn -0.497761 -0.161176 0.852207
vn -0.497761 -0.161176 0.852207
vn -0.497761 -0.161176 0.852207
vn -0.654887 -0.174008 0.735421
vn -0.654887 -0.174008 0.735421
vn -0.654887 -0.174008 0.735421
vn -0.654887 -0.174008 0.735421
vn -0.745976 -0.183115 0.640304
vn -0.745976 -0.183115 0.640304
vn -0.745976 -0.183115 0.640304
vn -0.745976 -0.183115 0.640304
vn -0.882884 -0.199175 0.425260
vn -0.882884 -0.199175 0.425260
vn -0.882884 -0.199175 0.425260
vn -0.882884 -0.199175 0.425260
vn -0.978145 -0.207902 -0.003069
vn -0.978145 -0.207902 -0.003069
vn -0.978145 -0.207902 -0.003069
vn -0.978145 -0.207902 -0.003069
vn -0.921342 -0.195829 -0.335827
vn -0.921342 -0.195829 -0.335827
vn -0.921342 -0.195829 -0.335827
vn -0.921342 -0.195829 -0.335827
vn -0.886820 -0.191000 -0.420796
vn -0.886820 -0.191000 -0.420796
vn -0.886820 -0.191000 -0.420796
vn -0.886820 -0.191000 -0.420796
vn -0.847053 -0.187254 -0.497431
vn -0.847053 -0.187254 -0.497431
vn -0.847053 -0.187254 -0.497431
vn -0.847053 -0.187254 -0.497431
vn -0.683617 -0.174237 -0.708738
vn -0.683617 -0.174237 -0.708738
vn -0.683617 -0.174237 -0.708738
vn -0.683617 -0.174237 -0.708738
vn -0.455433 -0.155597 -0.876568
vn -0.455433 -0.155597 -0.876568
vn -0.455433 -0.155597 -0.876568
vn -0.455433 -0.155597 -0.876568
vn -0.308956 -0.145210 -0.939926
vn -0.308956 -0.145210 -0.939926
vn -0.308956 -0.145210 -0.939926
vn -0.308956 -0.145210 -0.939926
vn -0.227085 -0.141434 -0.963550
vn -0.227085 -0.141434 -0.963550
vn -0.227085 -0.141434 -0.963550
vn -0.227085 -0.141434 -0.963550
vn -0.094891 -0.138822 -0.985761
vn -0.094891 -0.138822 -0.985761
vn -0.094891 -0.138822 -0.985761
vn -0.094891 -0.138822 -0.985761
vn 0.110876 -0.138591 -0.984123
vn 0.110876 -0.138591 -0.984123
vn 0.110876 -0.138591 -0.984123
vn 0.110876 -0.138591 -0.984123
vn 0.295642 -0.141101 -0.944821
vn 0.295642 -0.141101 -0.944821
vn 0.295642 -0.141101 -0.944821
vn 0.295642 -0.141101 -0.944821
vn 0.374679 -0.143898 -0.915920
vn 0.374679 -0.143898 -0.915920
vn 0.374679 -0.143898 -0.915920
vn 0.374679 -0.143898 -0.915920
vn 0.415496 -0.146606 -0.897702
vn 0.415496 -0.146606 -0.897702
vn 0.415496 -0.146606 -0.897702
vn 0.415496 -0.146606 -0.897702
vn 0.552337 -0.159424 -0.818235
vn 0.552337 -0.159424 -0.818235
vn 0.552337 -0.159424 -0.818235
vn 0.552337 -0.159424 -0.818235
vn 0.759889 -0.181567 -0.624181
vn 0.759889 -0.181567 -0.624181
vn 0.759889 -0.181567 -0.624181
vn 0.759889 -0.181567 -0.624181
vn 0.886943 -0.195862 -0.418295
vn 0.886943 -0.195862 -0.418295
vn 0.886943 -0.195862 -0.418295
vn 0.886943 -0.195862 -0.418295
vn 0.933822 -0.202379 -0.294992
vn 0.933822 -0.202379 -0.294992
vn 0.933822 -0.202379 -0.294992
vn 0.933822 -0.202379 -0.294992
vn 0.952436 -0.302248 -0.038884
vn 0.952436 -0.302248 -0.038884
vn 0.952436 -0.302248 -0.038884
vn 0.952436 -0.302248 -0.038884
vn 0.862697 -0.291868 0.412999
vn 0.862697 -0.291868 0.412999
vn 0.862697 -0.291868 0.412999
vn 0.862697 -0.291868 0.412999
vn 0.645230 -0.250974 0.721589
vn 0.645230 -0.250974 0.721589
vn 0.645230 -0.250974 0.721589
vn 0.645230 -0.250974 0.721589
vn 0.518034 -0.228940 0.824152
vn 0.518034 -0.228940 0.824152
vn 0.518034 -0.228940 0.824152
vn 0.518034 -0.228940 0.824152
vn 0.453424 -0.220271 0.863648
vn 0.453424 -0.220271 0.863648
vn 0.453424 -0.220271 0.863648
vn 0.453424 -0.220271 0.863648
vn 0.324779 -0.207769 0.922687
vn 0.324779 -0.207769 0.922687
vn 0.324779 -0.207769 0.922687
vn 0.324779 -0.207769 0.922687
vn 0.146194 -0.195109 0.969825
vn 0.146194 -0.195109 0.969825
vn 0.146194 -0.195109 0.969825
vn 0.146194 -0.195109 0.969825
vn 0.027166 -0.190179 0.981373
vn 0.027166 -0.190179 0.981373
vn 0.027166 -0.190179 0.981373
vn 0.027166 -0.190179 0.981373
vn -0.010911 -0.190238 0.981677
vn -0.010911 -0.190238 0.981677
vn -0.010911 -0.190238 0.981677
vn -0.010911 -0.190238 0.981677
vn -0.082758 -0.193778 0.977549
vn -0.082758 -0.193778 0.977549
vn -0.082758 -0.193778 0.977549
vn -0.082758 -0.193778 0.977549
vn -0.263506 -0.209149 0.941712
vn -0.263506 -0.209149 0.941712
vn -0.263506 -0.209149 0.941712
vn -0.263506 -0.209149 0.941712
vn -0.490525 -0.232576 0.839818
vn -0.490525 -0.232576 0.839818
vn -0.490525 -0.232576 0.839818
vn -0.490525 -0.232576 0.839818
vn -0.643830 -0.250495 0.723004
vn -0.643830 -0.250495 0.723004
vn -0.643830 -0.250495 0.723004
vn -0.643830 -0.250495 0.723004
vn -0.732065 -0.263133 0.628364
vn -0.732065 -0.263133 0.628364
vn -0.732065 -0.263133 0.628364
vn -0.732065 -0.263133 0.628364
vn -0.863505 -0.285247 0.415925
vn -0.863505 -0.285247 0.415925
vn -0.863505 -0.285247 0.415925
vn -0.863505 -0.285247 0.415925
vn -0.954820 -0.297168 -0.002996
vn -0.954820 -0.297168 -0.002996
vn -0.954820 -0.297168 -0.002996
vn -0.954820 -0.297168 -0.002996
vn -0.901771 -0.280658 -0.328693
vn -0.901771 -0.280658 -0.328693
vn -0.901771 -0.280658 -0.328693
vn -0.901771 -0.280658 -0.328693
vn -0.868872 -0.274018 -0.412280
vn -0.868872 -0.274018 -0.412280
vn -0.868872 -0.274018 -0.412280
vn -0.868872 -0.274018 -0.412280
vn -0.830556 -0.268854 -0.487744
vn -0.830556 -0.268854 -0.487744
vn -0.830556 -0.268854 -0.487744
vn -0.830556 -0.268854 -0.487744
vn -0.672045 -0.250814 -0.696741
vn -0.672045 -0.250814 -0.696741
vn -0.672045 -0.250814 -0.696741
vn -0.672045 -0.250814 -0.696741
vn -0.449253 -0.224747 -0.864674
vn -0.449253 -0.224747 -0.864674
vn -0.449253 -0.224747 -0.864674
vn -0.449253 -0.224747 -0.864674
vn -0.305295 -0.210109 -0.928789
vn -0.305295 -0.210109 -0.928789
vn -0.305295 -0.210109 -0.928789
vn -0.305295 -0.210109 -0.928789
vn -0.224531 -0.204770 -0.952709
vn -0.224531 -0.204770 -0.952709
vn -0.224531 -0.204770 -0.952709
vn -0.224531 -0.204770 -0.952709
vn -0.093862 -0.201070 -0.975070
vn -0.093862 -0.201070 -0.975070
vn -0.093862 -0.201070 -0.975070
vn -0.093862 -0.201070 -0.975070
vn 0.109677 -0.200743 -0.973485
vn 0.109677 -0.200743 -0.973485
vn 0.109677 -0.200743 -0.973485
vn 0.109677 -0.200743 -0.973485
vn 0.292331 -0.204299 -0.934240
vn 0.292331 -0.204299 -0.934240
vn 0.292331 -0.204299 -0.934240
vn 0.292331 -0.204299 -0.934240
vn 0.370318 -0.208256 -0.905259
vn 0.370318 -0.208256 -0.905259
vn 0.370318 -0.208256 -0.905259
vn 0.370318 -0.208256 -0.905259
vn 0.410480 -0.212082 -0.886864
vn 0.410480 -0.212082 -0.886864
vn 0.410480 -0.212082 -0.886864
vn 0.410480 -0.212082 -0.886864
vn 0.544477 -0.230120 -0.806591
vn 0.544477 -0.230120 -0.806591
vn 0.544477 -0.230120 -0.806591
vn 0.544477 -0.230120 -0.806591
vn 0.745952 -0.260989 -0.612732
vn 0.745952 -0.260989 -0.612732
vn 0.745952 -0.260989 -0.612732
vn 0.745952 -0.260989 -0.612732
vn 0.868096 -0.280704 -0.409407
vn 0.868096 -0.280704 -0.409407
vn 0.868096 -0.280704 -0.409407
vn 0.868096 -0.280704 -0.409407
vn 0.912682 -0.289632 -0.288314
vn 0.912682 -0.289632 -0.288314
vn 0.912682 -0.289632 -0.288314
vn 0.912682 -0.289632 -0.288314
vn 0.903988 -0.425963 -0.036906
vn 0.903988 -0.425963 -0.036906
vn 0.903988 -0.425963 -0.036906
vn 0.903988 -0.425963 -0.036906
vn 0.821567 -0.412718 0.393309
vn 0.821567 -0.412718 0.393309
vn 0.821567 -0.412718 0.393309
vn 0.821567 -0.412718 0.393309
vn 0.622059 -0.359276 0.695675
vn 0.622059 -0.359276 0.695675
vn 0.622059 -0.359276 0.695675
vn 0.622059 -0.359276 0.695675
vn 0.502414 -0.329691 0.799302
vn 0.502414 -0.329691 0.799302
vn 0.502414 -0.329691 0.799302
vn 0.502414 -0.329691 0.799302
vn 0.440726 -0.317909 0.839461
vn 0.440726 -0.317909 0.839461
vn 0.440726 -0.317909 0.839461
vn 0.440726 -0.317909 0.839461
vn 0.316649 -0.300783 0.899590
vn 0.316649 -0.300783 0.899590
vn 0.316649 -0.300783 0.899590
vn 0.316649 -0.300783 0.899590
vn 0.142952 -0.283284 0.948322
vn 0.142952 -0.283284 0.948322
vn 0.142952 -0.283284 0.948322
vn 0.142952 -0.283284 0.948322
vn 0.026593 -0.276429 0.960666
vn 0.026593 -0.276429 0.960666
vn 0.026593 -0.276429 0.960666
vn 0.026593 -0.276429 0.960666
vn -0.010681 -0.276511 0.960951
vn -0.010681 -0.276511 0.960951
vn -0.010681 -0.276511 0.960951
vn -0.010681 -0.276511 0.960951
vn -0.080947 -0.281435 0.956160
vn -0.080947 -0.281435 0.956160
vn -0.080947 -0.281435 0.956160
vn -0.080947 -0.281435 0.956160
vn -0.256825 -0.302681 0.917837
vn -0.256825 -0.302681 0.917837
vn -0.256825 -0.302681 0.917837
vn -0.256825 -0.302681 0.917837
vn -0.475283 -0.334609 0.813722
vn -0.475283 -0.334609 0.813722
vn -0.475283 -0.334609 0.813722
vn -0.475283 -0.334609 0.813722
vn -0.620793 -0.358638 0.697133
vn -0.620793 -0.358638 0.697133
vn -0.620793 -0.358638 0.697133
vn -0.620793 -0.358638 0.697133
vn -0.703318 -0.375371 0.603689
vn -0.703318 -0.375371 0.603689
vn -0.703318 -0.375371 0.603689
vn -0.703318 -0.375371 0.603689
vn -0.824058 -0.404201 0.396925
vn -0.824058 -0.404201 0.396925
vn -0.824058 -0.404201 0.396925
vn -0.824058 -0.404201 0.396925
vn -0.907752 -0.419498 -0.002848
vn -0.907752 -0.419498 -0.002848
vn -0.907752 -0.419498 -0.002848
vn -0.907752 -0.419498 -0.002848
vn -0.861806 -0.398266 -0.314126
vn -0.861806 -0.398266 -0.314126
vn -0.861806 -0.398266 -0.314126
vn -0.861806 -0.398266 -0.314126
vn -0.832053 -0.389634 -0.394809
vn -0.832053 -0.389634 -0.394809
vn -0.832053 -0.389634 -0.394809
vn -0.832053 -0.389634 -0.394809
vn -0.796595 -0.382883 -0.467800
vn -0.796595 -0.382883 -0.467800
vn -0.796595 -0.382883 -0.467800
vn -0.796595 -0.382883 -0.467800
vn -0.647940 -0.359063 -0.671750
vn -0.647940 -0.359063 -0.671750
vn -0.647940 -0.359063 -0.671750
vn -0.647940 -0.359063 -0.671750
vn -0.436177 -0.324002 -0.839507
vn -0.436177 -0.324002 -0.839507
vn -0.436177 -0.324002 -0.839507
vn -0.436177 -0.324002 -0.839507
vn -0.297486 -0.304001 -0.905033
vn -0.297486 -0.304001 -0.905033
vn -0.297486 -0.304001 -0.905033
vn -0.297486 -0.304001 -0.905033
vn -0.219065 -0.296652 -0.929520
vn -0.219065 -0.296652 -0.929520
vn -0.219065 -0.296652 -0.929520
vn -0.219065 -0.296652 -0.929520
vn -0.091656 -0.291543 -0.952157
vn -0.091656 -0.291543 -0.952157
vn -0.091656 -0.291543 -0.952157
vn -0.091656 -0.291543 -0.952157
vn 0.107108 -0.291091 -0.950681
vn 0.107108 -0.291091 -0.950681
vn 0.107108 -0.291091 -0.950681
vn 0.107108 -0.291091 -0.950681
vn 0.285247 -0.296001 -0.911601
vn 0.285247 -0.296001 -0.911601
vn 0.285247 -0.296001 -0.911601
vn 0.285247 -0.296001 -0.911601
vn 0.361007 -0.301453 -0.882497
vn 0.361007 -0.301453 -0.882497
vn 0.361007 -0.301453 -0.882497
vn 0.361007 -0.301453 -0.882497
vn 0.399790 -0.306709 -0.863769
vn 0.399790 -0.306709 -0.863769
vn 0.399790 -0.306709 -0.863769
vn 0.399790 -0.306709 -0.863769
vn 0.527898 -0.331289 -0.782031
vn 0.527898 -0.331289 -0.782031
vn 0.527898 -0.331289 -0.782031
vn 0.527898 -0.331289 -0.782031
vn 0.717107 -0.372545 -0.589039
vn 0.717107 -0.372545 -0.589039
vn 0.717107 -0.372545 -0.589039
vn 0.717107 -0.372545 -0.589039
vn 0.829611 -0.398325 -0.391257
vn 0.829611 -0.398325 -0.391257
vn 0.829611 -0.398325 -0.391257
vn 0.829611 -0.398325 -0.391257
vn 0.869787 -0.409848 -0.274763
vn 0.869787 -0.409848 -0.274763
vn 0.869787 -0.409848 -0.274763
vn 0.869787 -0.409848 -0.274763
vn 0.000000 -1.000000 0.000000
vn 0.000000 -1.000000 0.000000
vn 0.000000 -1.000000 0.000000
vn 0.000000 -1.000000 0.000000
vn 0.000000 -1.000000 0.000000
vn 0.000000 -1.000000 0.000000
vn 0.000000 -1.000000 0.000000
vn 0.000000 -1.000000 0.000000
vn 0.000000 -1.000000 0.000000
vn 0.000000 -1.000000 0.000000
vn 0.000000 -1.000000 0.000000
vn 0.000000 -1.000000 0.000000
vn 0.000000 -1.000000 0.000000
vn 0.000000 -1.000000 0.000000
vn 0.000000 -1.000000 0.000000
vn 0.000000 -1.000000 0.000000
vn 0.000000 -1.000000 0.000000
vn 0.000000 -1.000000 0.000000
vn 0.000000 -1.000000 0.000000
vn 0.000000 -1.000000 0.000000
vn 0.000000 -1.000000 0.000000
vn 0.000000 -1.000000 0.000000
vn 0.000000 -1.000000 0.000000
vn 0.000000 -1.000000 0.000000
vn 0.000000 -1.000000 0.000000
vn 0.000000 -1.000000 0.000000
vn 0.000000 -1.000000 0.000000
vn 0.000000 -1.000000 0.000000
vn 0.000000 -1.000000 0.000000
vn 0.000000 -1.000000 0.000000
vn 0.000000 -1.000000 0.000000
vn 0.000000 -1.000000 0.000000
vn 0.000000 -1.000000 0.000000
vn 0.000000 -1.000000 0.000000
vn 0.000000 -1.000000 0.000000
vn 0.000000 -1.000000 0.000000
vn 0.000000 -1.000000 0.000000
vn 0.000000 -1.000000 0.000000
vn 0.000000 -1.000000 0.000000
vn 0.000000 -1.000000 0.000000
vn 0.000000 -1.000000 0.000000
vn 0.000000 -1.000000 0.000000
vn 0.000000 -1.000000 0.000000
vn 0.000000 -1.000000 0.000000
vn 0.000000 -1.000000 0.000000
vn 0.000000 -1.000000 0.000000
vn 0.000000 -1.000000 0.000000
vn 0.000000 -1.000000 0.000000
vn -0.000000 -1.000000 0.000000
vn -0.000000 -1.000000 0.000000
vn -0.000000 -1.000000 0.000000
vn 0.000000 -1.000000 0.000000
vn 0.000000 -1.000000 0.000000
vn 0.000000 -1.000000 0.000000
vn 0.000000 -1.000000 0.000000
vn 0.000000 -1.000000 0.000000
vn 0.000000 -1.000000 0.000000
vn 0.000000 -1.000000 0.000000
vn 0.000000 -1.000000 0.000000
vn 0.000000 -1.000000 0.000000
vn 0.000000 -1.000000 0.000000
vn 0.000000 -1.000000 0.000000
vn 0.000000 -1.000000 0.000000
vn 0.000000 -1.000000 0.000000
vn 0.000000 -1.000000 0.000000
vn 0.000000 -1.000000 0.000000
vn 0.000000 -1.000000 0.000000
vn 0.000000 -1.000000 0.000000
vn 0.000000 -1.000000 0.000000
vn 0.000000 -1.000000 0.000000
vn 0.000000 -1.000000 0.000000
vn 0.000000 -1.000000 0.000000
vn 0.000000 -1.000000 -0.000000
vn 0.000000 -1.000000 -0.000000
vn 0.000000 -1.000000 -0.000000
vn 0.000000 -1.000000 0.000000
vn 0.000000 -1.000000 0.000000
vn 0.000000 -1.000000 0.000000
vn 0.000000 -1.000000 0.000000
vn 0.000000 -1.000000 0.000000
vn 0.000000 -1.000000 0.000000
vn 0.000000 -1.000000 0.000000
vn 0.000000 -1.000000 0.000000
vn 0.000000 -1.000000 0.000000
vn 0.000000 -1.000000 0.000000
vn 0.000000 -1.000000 0.000000
vn 0.000000 -1.000000 0.000000
vn 0.000000 -1.000000 0.000000
vn 0.000000 -1.000000 0.000000
vn 0.000000 -1.000000 0.000000
vn 0.000000 -1.000000 0.000000
vn 0.000000 -1.000000 0.000000
vn 0.000000 -1.000000 0.000000
vn 0.000000 -1.000000 0.000000
vn 0.000000 -1.000000 0.000000
vn 0.000000 -1.000000 0.000000
s off
usemtl GrassTop
f 1/1/1 2/2/2 3/3/3
f 4/4/4 5/5/5 6/6/6
f 7/7/7 8/8/8 9/9/9
f 10/10/10 11/11/11 12/12/12
f 13/13/13 14/14/14 15/15/15
f 16/16/16 17/17/17 18/18/18
f 19/19/19 20/20/20 21/21/21
f 22/22/22 23/23/23 24/24/24
f 25/25/25 26/26/26 27/27/27
f 28/28/28 29/29/29 30/30/30
f 31/31/31 32/32/32 33/33/33
f 34/34/34 35/35/35 36/36/36
f 37/37/37 38/38/38 39/39/39
f 40/40/40 41/41/41 42/42/42
f 43/43/43 44/44/44 45/45/45
f 46/46/46 47/47/47 48/48/48
f 49/49/49 50/50/50 51/51/51
f 52/52/52 53/53/53 54/54/54
f 55/55/55 56/56/56 57/57/57
f 58/58/58 59/59/59 60/60/60
f 61/61/61 62/62/62 63/63/63
f 64/64/64 65/65/65 66/66/66
f 67/67/67 68/68/68 69/69/69
f 70/70/70 71/71/71 72/72/72
f 73/73/73 74/74/74 75/75/75
f 76/76/76 77/77/77 78/78/78
f 79/79/79 80/80/80 81/81/81
f 82/82/82 83/83/83 84/84/84
f 85/85/85 86/86/86 87/87/87
f 88/88/88 89/89/89 90/90/90
f 91/91/91 92/92/92 93/93/93
f 94/94/94 95/95/95 96/96/96
usemtl GrassEdge
f 97/97/97 98/98/98 99/99/99
f 97/97/97 99/99/99 100/100/100
f 101/101/101 102/102/102 103/103/103
f 101/101/101 103/103/103 104/104/104
f 105/105/105 106/106/106 107/107/107
f 105/105/105 107/107/107 108/108/108
f 109/109/109 110/110/110 111/111/111
f 109/109/109 111/111/111 112/112/112
f 113/113/113 114/114/114 115/115/115
f 113/113/113 115/115/115 116/116/116
f 117/117/117 118/118/118 119/119/119
f 117/117/117 119/119/119 120/120/120
f 121/121/121 122/122/122 123/123/123
f 121/121/121 123/123/123 124/124/124
f 125/125/125 126/126/126 127/127/127
f 125/125/125 127/127/127 128/128/128
f 129/129/129 130/130/130 131/131/131
f 129/129/129 131/131/131 132/132/132
f 133/133/133 134/134/134 135/135/135
f 133/133/133 135/135/135 136/136/136
f 137/137/137 138/138/138 139/139/139
f 137/137/137 139/139/139 140/140/140
f 141/141/141 142/142/142 143/143/143
f 141/141/141 143/143/143 144/144/144
f 145/145/145 146/146/146 147/147/147
f 145/145/145 147/147/147 148/148/148
f 149/149/149 150/150/150 151/151/151
f 149/149/149 151/151/151 152/152/152
f 153/153/153 154/154/154 155/155/155
f 153/153/153 155/155/155 156/156/156
f 157/157/157 158/158/158 159/159/159
f 157/157/157 159/159/159 160/160/160
f 161/161/161 162/162/162 163/163/163
f 161/161/161 163/163/163 164/164/164
f 165/165/165 166/166/166 167/167/167
f 165/165/165 167/167/167 168/168/168
f 169/169/169 170/170/170 171/171/171
f 169/169/169 171/171/171 172/172/172
f 173/173/173 174/174/174 175/175/175
f 173/173/173 175/175/175 176/176/176
f 177/177/177 178/178/178 179/179/179
f 177/177/177 179/179/179 180/180/180
f 181/181/181 182/182/182 183/183/183
f 181/181/181 183/183/183 184/184/184
f 185/185/185 186/186/186 187/187/187
f 185/185/185 187/187/187 188/188/188
f 189/189/189 190/190/190 191/191/191
f 189/189/189 191/191/191 192/192/192
f 193/193/193 194/194/194 195/195/195
f 193/193/193 195/195/195 196/196/196
f 197/197/197 198/198/198 199/199/199
f 197/197/197 199/199/199 200/200/200
f 201/201/201 202/202/202 203/203/203
f 201/201/201 203/203/203 204/204/204
f 205/205/205 206/206/206 207/207/207
f 205/205/205 207/207/207 208/208/208
f 209/209/209 210/210/210 211/211/211
f 209/209/209 211/211/211 212/212/212
f 213/213/213 214/214/214 215/215/215
f 213/213/213 215/215/215 216/216/216
f 217/217/217 218/218/218 219/219/219
f 217/217/217 219/219/219 220/220/220
f 221/221/221 222/222/222 223/223/223
f 221/221/221 223/223/223 224/224/224
usemtl SandRim
f 225/225/225 226/226/226 227/227/227
f 225/225/225 227/227/227 228/228/228
f 229/229/229 230/230/230 231/231/231
f 229/229/229 231/231/231 232/232/232
f 233/233/233 234/234/234 235/235/235
f 233/233/233 235/235/235 236/236/236
f 237/237/237 238/238/238 239/239/239
f 237/237/237 239/239/239 240/240/240
f 241/241/241 242/242/242 243/243/243
f 241/241/241 243/243/243 244/244/244
f 245/245/245 246/246/246 247/247/247
f 245/245/245 247/247/247 248/248/248
f 249/249/249 250/250/250 251/251/251
f 249/249/249 251/251/251 252/252/252
f 253/253/253 254/254/254 255/255/255
f 253/253/253 255/255/255 256/256/256
f 257/257/257 258/258/258 259/259/259
f 257/257/257 259/259/259 260/260/260
f 261/261/261 262/262/262 263/263/263
f 261/261/261 263/263/263 264/264/264
f 265/265/265 266/266/266 267/267/267
f 265/265/265 267/267/267 268/268/268
f 269/269/269 270/270/270 271/271/271
f 269/269/269 271/271/271 272/272/272
f 273/273/273 274/274/274 275/275/275
f 273/273/273 275/275/275 276/276/276
f 277/277/277 278/278/278 279/279/279
f 277/277/277 279/279/279 280/280/280
f 281/281/281 282/282/282 283/283/283
f 281/281/281 283/283/283 284/284/284
f 285/285/285 286/286/286 287/287/287
f 285/285/285 287/287/287 288/288/288
f 289/289/289 290/290/290 291/291/291
f 289/289/289 291/291/291 292/292/292
f 293/293/293 294/294/294 295/295/295
f 293/293/293 295/295/295 296/296/296
f 297/297/297 298/298/298 299/299/299
f 297/297/297 299/299/299 300/300/300
f 301/301/301 302/302/302 303/303/303
f 301/301/301 303/303/303 304/304/304
f 305/305/305 306/306/306 307/307/307
f 305/305/305 307/307/307 308/308/308
f 309/309/309 310/310/310 311/311/311
f 309/309/309 311/311/311 312/312/312
f 313/313/313 314/314/314 315/315/315
f 313/313/313 315/315/315 316/316/316
f 317/317/317 318/318/318 319/319/319
f 317/317/317 319/319/319 320/320/320
f 321/321/321 322/322/322 323/323/323
f 321/321/321 323/323/323 324/324/324
f 325/325/325 326/326/326 327/327/327
f 325/325/325 327/327/327 328/328/328
f 329/329/329 330/330/330 331/331/331
f 329/329/329 331/331/331 332/332/332
f 333/333/333 334/334/334 335/335/335
f 333/333/333 335/335/335 336/336/336
f 337/337/337 338/338/338 339/339/339
f 337/337/337 339/339/339 340/340/340
f 341/341/341 342/342/342 343/343/343
f 341/341/341 343/343/343 344/344/344
f 345/345/345 346/346/346 347/347/347
f 345/345/345 347/347/347 348/348/348
f 349/349/349 350/350/350 351/351/351
f 349/349/349 351/351/351 352/352/352
usemtl CliffWarm
f 353/353/353 354/354/354 355/355/355
f 353/353/353 355/355/355 356/356/356
f 357/357/357 358/358/358 359/359/359
f 357/357/357 359/359/359 360/360/360
f 361/361/361 362/362/362 363/363/363
f 361/361/361 363/363/363 364/364/364
f 365/365/365 366/366/366 367/367/367
f 365/365/365 367/367/367 368/368/368
f 369/369/369 370/370/370 371/371/371
f 369/369/369 371/371/371 372/372/372
f 373/373/373 374/374/374 375/375/375
f 373/373/373 375/375/375 376/376/376
f 377/377/377 378/378/378 379/379/379
f 377/377/377 379/379/379 380/380/380
f 381/381/381 382/382/382 383/383/383
f 381/381/381 383/383/383 384/384/384
f 385/385/385 386/386/386 387/387/387
f 385/385/385 387/387/387 388/388/388
f 389/389/389 390/390/390 391/391/391
f 389/389/389 391/391/391 392/392/392
f 393/393/393 394/394/394 395/395/395
f 393/393/393 395/395/395 396/396/396
f 397/397/397 398/398/398 399/399/399
f 397/397/397 399/399/399 400/400/400
f 401/401/401 402/402/402 403/403/403
f 401/401/401 403/403/403 404/404/404
f 405/405/405 406/406/406 407/407/407
f 405/405/405 407/407/407 408/408/408
f 409/409/409 410/410/410 411/411/411
f 409/409/409 411/411/411 412/412/412
f 413/413/413 414/414/414 415/415/415
f 413/413/413 415/415/415 416/416/416
f 417/417/417 418/418/418 419/419/419
f 417/417/417 419/419/419 420/420/420
f 421/421/421 422/422/422 423/423/423
f 421/421/421 423/423/423 424/424/424
f 425/425/425 426/426/426 427/427/427
f 425/425/425 427/427/427 428/428/428
f 429/429/429 430/430/430 431/431/431
f 429/429/429 431/431/431 432/432/432
f 433/433/433 434/434/434 435/435/435
f 433/433/433 435/435/435 436/436/436
f 437/437/437 438/438/438 439/439/439
f 437/437/437 439/439/439 440/440/440
f 441/441/441 442/442/442 443/443/443
f 441/441/441 443/443/443 444/444/444
f 445/445/445 446/446/446 447/447/447
f 445/445/445 447/447/447 448/448/448
f 449/449/449 450/450/450 451/451/451
f 449/449/449 451/451/451 452/452/452
f 453/453/453 454/454/454 455/455/455
f 453/453/453 455/455/455 456/456/456
f 457/457/457 458/458/458 459/459/459
f 457/457/457 459/459/459 460/460/460
f 461/461/461 462/462/462 463/463/463
f 461/461/461 463/463/463 464/464/464
f 465/465/465 466/466/466 467/467/467
f 465/465/465 467/467/467 468/468/468
f 469/469/469 470/470/470 471/471/471
f 469/469/469 471/471/471 472/472/472
f 473/473/473 474/474/474 475/475/475
f 473/473/473 475/475/475 476/476/476
f 477/477/477 478/478/478 479/479/479
f 477/477/477 479/479/479 480/480/480
usemtl CliffDeep
f 481/481/481 482/482/482 483/483/483
f 481/481/481 483/483/483 484/484/484
f 485/485/485 486/486/486 487/487/487
f 485/485/485 487/487/487 488/488/488
f 489/489/489 490/490/490 491/491/491
f 489/489/489 491/491/491 492/492/492
f 493/493/493 494/494/494 495/495/495
f 493/493/493 495/495/495 496/496/496
f 497/497/497 498/498/498 499/499/499
f 497/497/497 499/499/499 500/500/500
f 501/501/501 502/502/502 503/503/503
f 501/501/501 503/503/503 504/504/504
f 505/505/505 506/506/506 507/507/507
f 505/505/505 507/507/507 508/508/508
f 509/509/509 510/510/510 511/511/511
f 509/509/509 511/511/511 512/512/512
f 513/513/513 514/514/514 515/515/515
f 513/513/513 515/515/515 516/516/516
f 517/517/517 518/518/518 519/519/519
f 517/517/517 519/519/519 520/520/520
f 521/521/521 522/522/522 523/523/523
f 521/521/521 523/523/523 524/524/524
f 525/525/525 526/526/526 527/527/527
f 525/525/525 527/527/527 528/528/528
f 529/529/529 530/530/530 531/531/531
f 529/529/529 531/531/531 532/532/532
f 533/533/533 534/534/534 535/535/535
f 533/533/533 535/535/535 536/536/536
f 537/537/537 538/538/538 539/539/539
f 537/537/537 539/539/539 540/540/540
f 541/541/541 542/542/542 543/543/543
f 541/541/541 543/543/543 544/544/544
f 545/545/545 546/546/546 547/547/547
f 545/545/545 547/547/547 548/548/548
f 549/549/549 550/550/550 551/551/551
f 549/549/549 551/551/551 552/552/552
f 553/553/553 554/554/554 555/555/555
f 553/553/553 555/555/555 556/556/556
f 557/557/557 558/558/558 559/559/559
f 557/557/557 559/559/559 560/560/560
f 561/561/561 562/562/562 563/563/563
f 561/561/561 563/563/563 564/564/564
f 565/565/565 566/566/566 567/567/567
f 565/565/565 567/567/567 568/568/568
f 569/569/569 570/570/570 571/571/571
f 569/569/569 571/571/571 572/572/572
f 573/573/573 574/574/574 575/575/575
f 573/573/573 575/575/575 576/576/576
f 577/577/577 578/578/578 579/579/579
f 577/577/577 579/579/579 580/580/580
f 581/581/581 582/582/582 583/583/583
f 581/581/581 583/583/583 584/584/584
f 585/585/585 586/586/586 587/587/587
f 585/585/585 587/587/587 588/588/588
f 589/589/589 590/590/590 591/591/591
f 589/589/589 591/591/591 592/592/592
f 593/593/593 594/594/594 595/595/595
f 593/593/593 595/595/595 596/596/596
f 597/597/597 598/598/598 599/599/599
f 597/597/597 599/599/599 600/600/600
f 601/601/601 602/602/602 603/603/603
f 601/601/601 603/603/603 604/604/604
f 605/605/605 606/606/606 607/607/607
f 605/605/605 607/607/607 608/608/608
usemtl UnderwaterStone
f 609/609/609 610/610/610 611/611/611
f 609/609/609 611/611/611 612/612/612
f 613/613/613 614/614/614 615/615/615
f 613/613/613 615/615/615 616/616/616
f 617/617/617 618/618/618 619/619/619
f 617/617/617 619/619/619 620/620/620
f 621/621/621 622/622/622 623/623/623
f 621/621/621 623/623/623 624/624/624
f 625/625/625 626/626/626 627/627/627
f 625/625/625 627/627/627 628/628/628
f 629/629/629 630/630/630 631/631/631
f 629/629/629 631/631/631 632/632/632
f 633/633/633 634/634/634 635/635/635
f 633/633/633 635/635/635 636/636/636
f 637/637/637 638/638/638 639/639/639
f 637/637/637 639/639/639 640/640/640
f 641/641/641 642/642/642 643/643/643
f 641/641/641 643/643/643 644/644/644
f 645/645/645 646/646/646 647/647/647
f 645/645/645 647/647/647 648/648/648
f 649/649/649 650/650/650 651/651/651
f 649/649/649 651/651/651 652/652/652
f 653/653/653 654/654/654 655/655/655
f 653/653/653 655/655/655 656/656/656
f 657/657/657 658/658/658 659/659/659
f 657/657/657 659/659/659 660/660/660
f 661/661/661 662/662/662 663/663/663
f 661/661/661 663/663/663 664/664/664
f 665/665/665 666/666/666 667/667/667
f 665/665/665 667/667/667 668/668/668
f 669/669/669 670/670/670 671/671/671
f 669/669/669 671/671/671 672/672/672
f 673/673/673 674/674/674 675/675/675
f 673/673/673 675/675/675 676/676/676
f 677/677/677 678/678/678 679/679/679
f 677/677/677 679/679/679 680/680/680
f 681/681/681 682/682/682 683/683/683
f 681/681/681 683/683/683 684/684/684
f 685/685/685 686/686/686 687/687/687
f 685/685/685 687/687/687 688/688/688
f 689/689/689 690/690/690 691/691/691
f 689/689/689 691/691/691 692/692/692
f 693/693/693 694/694/694 695/695/695
f 693/693/693 695/695/695 696/696/696
f 697/697/697 698/698/698 699/699/699
f 697/697/697 699/699/699 700/700/700
f 701/701/701 702/702/702 703/703/703
f 701/701/701 703/703/703 704/704/704
f 705/705/705 706/706/706 707/707/707
f 705/705/705 707/707/707 708/708/708
f 709/709/709 710/710/710 711/711/711
f 709/709/709 711/711/711 712/712/712
f 713/713/713 714/714/714 715/715/715
f 713/713/713 715/715/715 716/716/716
f 717/717/717 718/718/718 719/719/719
f 717/717/717 719/719/719 720/720/720
f 721/721/721 722/722/722 723/723/723
f 721/721/721 723/723/723 724/724/724
f 725/725/725 726/726/726 727/727/727
f 725/725/725 727/727/727 728/728/728
f 729/729/729 730/730/730 731/731/731
f 729/729/729 731/731/731 732/732/732
f 733/733/733 734/734/734 735/735/735
f 733/733/733 735/735/735 736/736/736
f 737/737/737 738/738/738 739/739/739
f 740/740/740 741/741/741 742/742/742
f 743/743/743 744/744/744 745/745/745
f 746/746/746 747/747/747 748/748/748
f 749/749/749 750/750/750 751/751/751
f 752/752/752 753/753/753 754/754/754
f 755/755/755 756/756/756 757/757/757
f 758/758/758 759/759/759 760/760/760
f 761/761/761 762/762/762 763/763/763
f 764/764/764 765/765/765 766/766/766
f 767/767/767 768/768/768 769/769/769
f 770/770/770 771/771/771 772/772/772
f 773/773/773 774/774/774 775/775/775
f 776/776/776 777/777/777 778/778/778
f 779/779/779 780/780/780 781/781/781
f 782/782/782 783/783/783 784/784/784
f 785/785/785 786/786/786 787/787/787
f 788/788/788 789/789/789 790/790/790
f 791/791/791 792/792/792 793/793/793
f 794/794/794 795/795/795 796/796/796
f 797/797/797 798/798/798 799/799/799
f 800/800/800 801/801/801 802/802/802
f 803/803/803 804/804/804 805/805/805
f 806/806/806 807/807/807 808/808/808
f 809/809/809 810/810/810 811/811/811
f 812/812/812 813/813/813 814/814/814
f 815/815/815 816/816/816 817/817/817
f 818/818/818 819/819/819 820/820/820
f 821/821/821 822/822/822 823/823/823
f 824/824/824 825/825/825 826/826/826
f 827/827/827 828/828/828 829/829/829
f 830/830/830 831/831/831 832/832/832
