mtllib star_spring.mtl
o star_spring
v 1.280000 -0.280000 0.000000
v 1.280000 -0.060000 0.000000
v 1.236385 -0.280000 0.331288
v 1.236385 -0.060000 0.331288
v 1.108513 -0.280000 0.640000
v 1.108513 -0.060000 0.640000
v 0.905097 -0.280000 0.905097
v 0.905097 -0.060000 0.905097
v 0.640000 -0.280000 1.108513
v 0.640000 -0.060000 1.108513
v 0.331288 -0.280000 1.236385
v 0.331288 -0.060000 1.236385
v 0.000000 -0.280000 1.280000
v 0.000000 -0.060000 1.280000
v -0.331288 -0.280000 1.236385
v -0.331288 -0.060000 1.236385
v -0.640000 -0.280000 1.108513
v -0.640000 -0.060000 1.108513
v -0.905097 -0.280000 0.905097
v -0.905097 -0.060000 0.905097
v -1.108513 -0.280000 0.640000
v -1.108513 -0.060000 0.640000
v -1.236385 -0.280000 0.331288
v -1.236385 -0.060000 0.331288
v -1.280000 -0.280000 0.000000
v -1.280000 -0.060000 0.000000
v -1.236385 -0.280000 -0.331288
v -1.236385 -0.060000 -0.331288
v -1.108513 -0.280000 -0.640000
v -1.108513 -0.060000 -0.640000
v -0.905097 -0.280000 -0.905097
v -0.905097 -0.060000 -0.905097
v -0.640000 -0.280000 -1.108513
v -0.640000 -0.060000 -1.108513
v -0.331288 -0.280000 -1.236385
v -0.331288 -0.060000 -1.236385
v -0.000000 -0.280000 -1.280000
v -0.000000 -0.060000 -1.280000
v 0.331288 -0.280000 -1.236385
v 0.331288 -0.060000 -1.236385
v 0.640000 -0.280000 -1.108513
v 0.640000 -0.060000 -1.108513
v 0.905097 -0.280000 -0.905097
v 0.905097 -0.060000 -0.905097
v 1.108513 -0.280000 -0.640000
v 1.108513 -0.060000 -0.640000
v 1.236385 -0.280000 -0.331288
v 1.236385 -0.060000 -0.331288
v 0.000000 -0.280000 0.000000
v 0.000000 -0.060000 0.000000
v 1.080000 -0.060000 0.000000
v 1.080000 0.090000 0.000000
v 1.043200 -0.060000 0.279525
v 1.043200 0.090000 0.279525
v 0.935307 -0.060000 0.540000
v 0.935307 0.090000 0.540000
v 0.763675 -0.060000 0.763675
v 0.763675 0.090000 0.763675
v 0.540000 -0.060000 0.935307
v 0.540000 0.090000 0.935307
v 0.279525 -0.060000 1.043200
v 0.279525 0.090000 1.043200
v 0.000000 -0.060000 1.080000
v 0.000000 0.090000 1.080000
v -0.279525 -0.060000 1.043200
v -0.279525 0.090000 1.043200
v -0.540000 -0.060000 0.935307
v -0.540000 0.090000 0.935307
v -0.763675 -0.060000 0.763675
v -0.763675 0.090000 0.763675
v -0.935307 -0.060000 0.540000
v -0.935307 0.090000 0.540000
v -1.043200 -0.060000 0.279525
v -1.043200 0.090000 0.279525
v -1.080000 -0.060000 0.000000
v -1.080000 0.090000 0.000000
v -1.043200 -0.060000 -0.279525
v -1.043200 0.090000 -0.279525
v -0.935307 -0.060000 -0.540000
v -0.935307 0.090000 -0.540000
v -0.763675 -0.060000 -0.763675
v -0.763675 0.090000 -0.763675
v -0.540000 -0.060000 -0.935307
v -0.540000 0.090000 -0.935307
v -0.279525 -0.060000 -1.043200
v -0.279525 0.090000 -1.043200
v -0.000000 -0.060000 -1.080000
v -0.000000 0.090000 -1.080000
v 0.279525 -0.060000 -1.043200
v 0.279525 0.090000 -1.043200
v 0.540000 -0.060000 -0.935307
v 0.540000 0.090000 -0.935307
v 0.763675 -0.060000 -0.763675
v 0.763675 0.090000 -0.763675
v 0.935307 -0.060000 -0.540000
v 0.935307 0.090000 -0.540000
v 1.043200 -0.060000 -0.279525
v 1.043200 0.090000 -0.279525
v 0.000000 -0.060000 0.000000
v 0.000000 0.090000 0.000000
v 0.000000 0.090000 1.030000
v -0.329160 0.090000 0.453050
v -0.979588 0.090000 0.318288
v -0.532592 0.090000 -0.173050
v -0.605419 0.090000 -0.833288
v -0.000000 0.090000 -0.560000
v 0.605419 0.090000 -0.833288
v 0.532592 0.090000 -0.173050
v 0.979588 0.090000 0.318288
v 0.329160 0.090000 0.453050
v 0.000000 0.260000 1.030000
v -0.329160 0.260000 0.453050
v -0.979588 0.260000 0.318288
v -0.532592 0.260000 -0.173050
v -0.605419 0.260000 -0.833288
v -0.000000 0.260000 -0.560000
v 0.605419 0.260000 -0.833288
v 0.532592 0.260000 -0.173050
v 0.979588 0.260000 0.318288
v 0.329160 0.260000 0.453050
v 0.360000 0.260000 0.000000
v 0.360000 0.320000 0.000000
v 0.342380 0.260000 0.111246
v 0.342380 0.320000 0.111246
v 0.291246 0.260000 0.211603
v 0.291246 0.320000 0.211603
v 0.211603 0.260000 0.291246
v 0.211603 0.320000 0.291246
v 0.111246 0.260000 0.342380
v 0.111246 0.320000 0.342380
v 0.000000 0.260000 0.360000
v 0.000000 0.320000 0.360000
v -0.111246 0.260000 0.342380
v -0.111246 0.320000 0.342380
v -0.211603 0.260000 0.291246
v -0.211603 0.320000 0.291246
v -0.291246 0.260000 0.211603
v -0.291246 0.320000 0.211603
v -0.342380 0.260000 0.111246
v -0.342380 0.320000 0.111246
v -0.360000 0.260000 0.000000
v -0.360000 0.320000 0.000000
v -0.342380 0.260000 -0.111246
v -0.342380 0.320000 -0.111246
v -0.291246 0.260000 -0.211603
v -0.291246 0.320000 -0.211603
v -0.211603 0.260000 -0.291246
v -0.211603 0.320000 -0.291246
v -0.111246 0.260000 -0.342380
v -0.111246 0.320000 -0.342380
v -0.000000 0.260000 -0.360000
v -0.000000 0.320000 -0.360000
v 0.111246 0.260000 -0.342380
v 0.111246 0.320000 -0.342380
v 0.211603 0.260000 -0.291246
v 0.211603 0.320000 -0.291246
v 0.291246 0.260000 -0.211603
v 0.291246 0.320000 -0.211603
v 0.342380 0.260000 -0.111246
v 0.342380 0.320000 -0.111246
v 0.000000 0.260000 0.000000
v 0.000000 0.320000 0.000000
v 0.000000 0.260000 -0.000000
v 0.000000 0.090000 -0.000000
usemtl spring_base
f 1 3 4 2
f 50 2 4
f 49 3 1
f 3 5 6 4
f 50 4 6
f 49 5 3
f 5 7 8 6
f 50 6 8
f 49 7 5
f 7 9 10 8
f 50 8 10
f 49 9 7
f 9 11 12 10
f 50 10 12
f 49 11 9
f 11 13 14 12
f 50 12 14
f 49 13 11
f 13 15 16 14
f 50 14 16
f 49 15 13
f 15 17 18 16
f 50 16 18
f 49 17 15
f 17 19 20 18
f 50 18 20
f 49 19 17
f 19 21 22 20
f 50 20 22
f 49 21 19
f 21 23 24 22
f 50 22 24
f 49 23 21
f 23 25 26 24
f 50 24 26
f 49 25 23
f 25 27 28 26
f 50 26 28
f 49 27 25
f 27 29 30 28
f 50 28 30
f 49 29 27
f 29 31 32 30
f 50 30 32
f 49 31 29
f 31 33 34 32
f 50 32 34
f 49 33 31
f 33 35 36 34
f 50 34 36
f 49 35 33
f 35 37 38 36
f 50 36 38
f 49 37 35
f 37 39 40 38
f 50 38 40
f 49 39 37
f 39 41 42 40
f 50 40 42
f 49 41 39
f 41 43 44 42
f 50 42 44
f 49 43 41
f 43 45 46 44
f 50 44 46
f 49 45 43
f 45 47 48 46
f 50 46 48
f 49 47 45
f 47 1 2 48
f 50 48 2
f 49 1 47
usemtl spring_rim
f 51 53 54 52
f 100 52 54
f 99 53 51
f 53 55 56 54
f 100 54 56
f 99 55 53
f 55 57 58 56
f 100 56 58
f 99 57 55
f 57 59 60 58
f 100 58 60
f 99 59 57
f 59 61 62 60
f 100 60 62
f 99 61 59
f 61 63 64 62
f 100 62 64
f 99 63 61
f 63 65 66 64
f 100 64 66
f 99 65 63
f 65 67 68 66
f 100 66 68
f 99 67 65
f 67 69 70 68
f 100 68 70
f 99 69 67
f 69 71 72 70
f 100 70 72
f 99 71 69
f 71 73 74 72
f 100 72 74
f 99 73 71
f 73 75 76 74
f 100 74 76
f 99 75 73
f 75 77 78 76
f 100 76 78
f 99 77 75
f 77 79 80 78
f 100 78 80
f 99 79 77
f 79 81 82 80
f 100 80 82
f 99 81 79
f 81 83 84 82
f 100 82 84
f 99 83 81
f 83 85 86 84
f 100 84 86
f 99 85 83
f 85 87 88 86
f 100 86 88
f 99 87 85
f 87 89 90 88
f 100 88 90
f 99 89 87
f 89 91 92 90
f 100 90 92
f 99 91 89
f 91 93 94 92
f 100 92 94
f 99 93 91
f 93 95 96 94
f 100 94 96
f 99 95 93
f 95 97 98 96
f 100 96 98
f 99 97 95
f 97 51 52 98
f 100 98 52
f 99 51 97
usemtl spring_star
usemtl spring_star_side
usemtl spring_star
usemtl spring_star_side
usemtl spring_star
usemtl spring_star_side
usemtl spring_star
usemtl spring_star_side
usemtl spring_star
usemtl spring_star_side
usemtl spring_star
usemtl spring_star_side
usemtl spring_star
usemtl spring_star_side
usemtl spring_star
usemtl spring_star_side
f 101 102 112 111
f 102 103 113 112
f 103 104 114 113
f 104 105 115 114
f 105 106 116 115
f 106 107 117 116
f 107 108 118 117
f 108 109 119 118
f 109 110 120 119
f 110 101 111 120
usemtl spring_core
f 121 123 124 122
f 162 122 124
f 161 123 121
f 123 125 126 124
f 162 124 126
f 161 125 123
f 125 127 128 126
f 162 126 128
f 161 127 125
f 127 129 130 128
f 162 128 130
f 161 129 127
f 129 131 132 130
f 162 130 132
f 161 131 129
f 131 133 134 132
f 162 132 134
f 161 133 131
f 133 135 136 134
f 162 134 136
f 161 135 133
f 135 137 138 136
f 162 136 138
f 161 137 135
f 137 139 140 138
f 162 138 140
f 161 139 137
f 139 141 142 140
f 162 140 142
f 161 141 139
f 141 143 144 142
f 162 142 144
f 161 143 141
f 143 145 146 144
f 162 144 146
f 161 145 143
f 145 147 148 146
f 162 146 148
f 161 147 145
f 147 149 150 148
f 162 148 150
f 161 149 147
f 149 151 152 150
f 162 150 152
f 161 151 149
f 151 153 154 152
f 162 152 154
f 161 153 151
f 153 155 156 154
f 162 154 156
f 161 155 153
f 155 157 158 156
f 162 156 158
f 161 157 155
f 157 159 160 158
f 162 158 160
f 161 159 157
f 159 121 122 160
f 162 160 122
f 161 121 159
usemtl spring_star
f 163 111 112
f 163 112 113
f 163 113 114
f 163 114 115
f 163 115 116
f 163 116 117
f 163 117 118
f 163 118 119
f 163 119 120
f 163 120 111
usemtl spring_star
f 164 102 101
f 164 103 102
f 164 104 103
f 164 105 104
f 164 106 105
f 164 107 106
f 164 108 107
f 164 109 108
f 164 110 109
f 164 101 110
