mtllib star_garden_linked_platform.mtl
o star_garden_linked_platform
v -5.800000 0.000000 5.000000
v 5.800000 0.000000 5.000000
v 5.800000 0.000000 -5.000000
v -5.800000 0.000000 -5.000000
v -5.800000 -1.160000 -5.000000
v 5.800000 -1.160000 -5.000000
v 5.800000 -1.160000 5.000000
v -5.800000 -1.160000 5.000000
v -5.800000 0.000000 -5.000000
v 5.800000 0.000000 -5.000000
v 5.800000 -1.160000 -5.000000
v -5.800000 -1.160000 -5.000000
v 5.800000 0.000000 5.000000
v -5.800000 0.000000 5.000000
v -5.800000 -1.160000 5.000000
v 5.800000 -1.160000 5.000000
v -5.800000 0.000000 5.000000
v -5.800000 0.000000 -5.000000
v -5.800000 -1.160000 -5.000000
v -5.800000 -1.160000 5.000000
v 5.800000 0.000000 -5.000000
v 5.800000 0.000000 5.000000
v 5.800000 -1.160000 5.000000
v 5.800000 -1.160000 -5.000000
v -5.420000 0.240000 4.350000
v -1.980000 0.240000 4.350000
v -1.980000 0.240000 -4.350000
v -5.420000 0.240000 -4.350000
v -5.420000 0.000000 -4.350000
v -1.980000 0.000000 -4.350000
v -1.980000 0.000000 4.350000
v -5.420000 0.000000 4.350000
v -5.420000 0.240000 -4.350000
v -1.980000 0.240000 -4.350000
v -1.980000 0.000000 -4.350000
v -5.420000 0.000000 -4.350000
v -1.980000 0.240000 4.350000
v -5.420000 0.240000 4.350000
v -5.420000 0.000000 4.350000
v -1.980000 0.000000 4.350000
v -5.420000 0.240000 4.350000
v -5.420000 0.240000 -4.350000
v -5.420000 0.000000 -4.350000
v -5.420000 0.000000 4.350000
v -1.980000 0.240000 -4.350000
v -1.980000 0.240000 4.350000
v -1.980000 0.000000 4.350000
v -1.980000 0.000000 -4.350000
v -1.720000 0.240000 4.350000
v 1.720000 0.240000 4.350000
v 1.720000 0.240000 -4.350000
v -1.720000 0.240000 -4.350000
v -1.720000 0.000000 -4.350000
v 1.720000 0.000000 -4.350000
v 1.720000 0.000000 4.350000
v -1.720000 0.000000 4.350000
v -1.720000 0.240000 -4.350000
v 1.720000 0.240000 -4.350000
v 1.720000 0.000000 -4.350000
v -1.720000 0.000000 -4.350000
v 1.720000 0.240000 4.350000
v -1.720000 0.240000 4.350000
v -1.720000 0.000000 4.350000
v 1.720000 0.000000 4.350000
v -1.720000 0.240000 4.350000
v -1.720000 0.240000 -4.350000
v -1.720000 0.000000 -4.350000
v -1.720000 0.000000 4.350000
v 1.720000 0.240000 -4.350000
v 1.720000 0.240000 4.350000
v 1.720000 0.000000 4.350000
v 1.720000 0.000000 -4.350000
v 1.980000 0.240000 4.350000
v 5.420000 0.240000 4.350000
v 5.420000 0.240000 -4.350000
v 1.980000 0.240000 -4.350000
v 1.980000 0.000000 -4.350000
v 5.420000 0.000000 -4.350000
v 5.420000 0.000000 4.350000
v 1.980000 0.000000 4.350000
v 1.980000 0.240000 -4.350000
v 5.420000 0.240000 -4.350000
v 5.420000 0.000000 -4.350000
v 1.980000 0.000000 -4.350000
v 5.420000 0.240000 4.350000
v 1.980000 0.240000 4.350000
v 1.980000 0.000000 4.350000
v 5.420000 0.000000 4.350000
v 1.980000 0.240000 4.350000
v 1.980000 0.240000 -4.350000
v 1.980000 0.000000 -4.350000
v 1.980000 0.000000 4.350000
v 5.420000 0.240000 -4.350000
v 5.420000 0.240000 4.350000
v 5.420000 0.000000 4.350000
v 5.420000 0.000000 -4.350000
v -2.040000 0.270000 4.250000
v -1.720000 0.270000 4.250000
v -1.720000 0.270000 -4.250000
v -2.040000 0.270000 -4.250000
v -2.040000 0.240000 -4.250000
v -1.720000 0.240000 -4.250000
v -1.720000 0.240000 4.250000
v -2.040000 0.240000 4.250000
v -2.040000 0.270000 -4.250000
v -1.720000 0.270000 -4.250000
v -1.720000 0.240000 -4.250000
v -2.040000 0.240000 -4.250000
v -1.720000 0.270000 4.250000
v -2.040000 0.270000 4.250000
v -2.040000 0.240000 4.250000
v -1.720000 0.240000 4.250000
v -2.040000 0.270000 4.250000
v -2.040000 0.270000 -4.250000
v -2.040000 0.240000 -4.250000
v -2.040000 0.240000 4.250000
v -1.720000 0.270000 -4.250000
v -1.720000 0.270000 4.250000
v -1.720000 0.240000 4.250000
v -1.720000 0.240000 -4.250000
v 1.720000 0.270000 4.250000
v 2.040000 0.270000 4.250000
v 2.040000 0.270000 -4.250000
v 1.720000 0.270000 -4.250000
v 1.720000 0.240000 -4.250000
v 2.040000 0.240000 -4.250000
v 2.040000 0.240000 4.250000
v 1.720000 0.240000 4.250000
v 1.720000 0.270000 -4.250000
v 2.040000 0.270000 -4.250000
v 2.040000 0.240000 -4.250000
v 1.720000 0.240000 -4.250000
v 2.040000 0.270000 4.250000
v 1.720000 0.270000 4.250000
v 1.720000 0.240000 4.250000
v 2.040000 0.240000 4.250000
v 1.720000 0.270000 4.250000
v 1.720000 0.270000 -4.250000
v 1.720000 0.240000 -4.250000
v 1.720000 0.240000 4.250000
v 2.040000 0.270000 -4.250000
v 2.040000 0.270000 4.250000
v 2.040000 0.240000 4.250000
v 2.040000 0.240000 -4.250000
v -1.044795 0.405000 0.007002
v -1.294811 0.405000 0.393844
v -1.636042 0.405000 0.132193
v -1.450179 0.405000 -0.136398
v -1.294811 0.255000 0.393844
v -1.044795 0.255000 0.007002
v -1.450179 0.255000 -0.136398
v -1.636042 0.255000 0.132193
v -1.294811 0.405000 0.393844
v -1.044795 0.405000 0.007002
v -1.044795 0.255000 0.007002
v -1.294811 0.255000 0.393844
v -1.450179 0.405000 -0.136398
v -1.636042 0.405000 0.132193
v -1.636042 0.255000 0.132193
v -1.450179 0.255000 -0.136398
v -1.294811 0.405000 0.393844
v -1.721531 0.405000 0.671656
v -1.965206 0.405000 0.317364
v -1.636042 0.405000 0.132193
v -1.721531 0.255000 0.671656
v -1.294811 0.255000 0.393844
v -1.636042 0.255000 0.132193
v -1.965206 0.255000 0.317364
v -1.721531 0.405000 0.671656
v -1.294811 0.405000 0.393844
v -1.294811 0.255000 0.393844
v -1.721531 0.255000 0.671656
v -1.636042 0.405000 0.132193
v -1.965206 0.405000 0.317364
v -1.965206 0.255000 0.317364
v -1.636042 0.255000 0.132193
v -1.721531 0.405000 0.671656
v -2.283186 0.405000 0.813243
v -2.405452 0.405000 0.400992
v -1.965206 0.405000 0.317364
v -2.283186 0.255000 0.813243
v -1.721531 0.255000 0.671656
v -1.965206 0.255000 0.317364
v -2.405452 0.255000 0.400992
v -2.283186 0.405000 0.813243
v -1.721531 0.405000 0.671656
v -1.721531 0.255000 0.671656
v -2.283186 0.255000 0.813243
v -1.965206 0.405000 0.317364
v -2.405452 0.405000 0.400992
v -2.405452 0.255000 0.400992
v -1.965206 0.255000 0.317364
v -2.283186 0.405000 0.813243
v -2.924796 0.405000 0.804745
v -2.913686 0.405000 0.374888
v -2.405452 0.405000 0.400992
v -2.924796 0.255000 0.804745
v -2.283186 0.255000 0.813243
v -2.405452 0.255000 0.400992
v -2.913686 0.255000 0.374888
v -2.924796 0.405000 0.804745
v -2.283186 0.405000 0.813243
v -2.283186 0.255000 0.813243
v -2.924796 0.255000 0.804745
v -2.405452 0.405000 0.400992
v -2.913686 0.405000 0.374888
v -2.913686 0.255000 0.374888
v -2.405452 0.255000 0.400992
v -2.924796 0.405000 0.804745
v -3.583556 0.405000 0.646994
v -3.440157 0.405000 0.241610
v -2.913686 0.405000 0.374888
v -3.583556 0.255000 0.646994
v -2.924796 0.255000 0.804745
v -2.913686 0.255000 0.374888
v -3.440157 0.255000 0.241610
v -3.583556 0.405000 0.646994
v -2.924796 0.405000 0.804745
v -2.924796 0.255000 0.804745
v -3.583556 0.255000 0.646994
v -2.913686 0.405000 0.374888
v -3.440157 0.405000 0.241610
v -3.440157 0.255000 0.241610
v -2.913686 0.255000 0.374888
v -3.583556 0.405000 0.646994
v -4.194983 0.405000 0.355433
v -3.933331 0.405000 0.014202
v -3.440157 0.405000 0.241610
v -4.194983 0.255000 0.355433
v -3.583556 0.255000 0.646994
v -3.440157 0.255000 0.241610
v -3.933331 0.255000 0.014202
v -4.194983 0.405000 0.355433
v -3.583556 0.405000 0.646994
v -3.583556 0.255000 0.646994
v -4.194983 0.255000 0.355433
v -3.440157 0.405000 0.241610
v -3.933331 0.405000 0.014202
v -3.933331 0.255000 0.014202
v -3.440157 0.255000 0.241610
v -4.194983 0.405000 0.355433
v -4.699225 0.405000 -0.041399
v -4.344933 0.405000 -0.285074
v -3.933331 0.405000 0.014202
v -4.699225 0.255000 -0.041399
v -4.194983 0.255000 0.355433
v -3.933331 0.255000 0.014202
v -4.344933 0.255000 -0.285074
v -4.699225 0.405000 -0.041399
v -4.194983 0.405000 0.355433
v -4.194983 0.255000 0.355433
v -4.699225 0.255000 -0.041399
v -3.933331 0.405000 0.014202
v -4.344933 0.405000 -0.285074
v -4.344933 0.255000 -0.285074
v -3.933331 0.255000 0.014202
v -4.699225 0.405000 -0.041399
v -5.046923 0.405000 -0.504658
v -4.634672 0.405000 -0.626924
v -4.344933 0.405000 -0.285074
v -5.046923 0.255000 -0.504658
v -4.699225 0.255000 -0.041399
v -4.344933 0.255000 -0.285074
v -4.634672 0.255000 -0.626924
v -5.046923 0.405000 -0.504658
v -4.699225 0.405000 -0.041399
v -4.699225 0.255000 -0.041399
v -5.046923 0.255000 -0.504658
v -4.344933 0.405000 -0.285074
v -4.634672 0.405000 -0.626924
v -4.634672 0.255000 -0.626924
v -4.344933 0.255000 -0.285074
v -5.046923 0.405000 -0.504658
v -5.204043 0.405000 -0.988995
v -4.774187 0.405000 -0.977885
v -4.634672 0.405000 -0.626924
v -5.204043 0.255000 -0.988995
v -5.046923 0.255000 -0.504658
v -4.634672 0.255000 -0.626924
v -4.774187 0.255000 -0.977885
v -5.204043 0.405000 -0.988995
v -5.046923 0.405000 -0.504658
v -5.046923 0.255000 -0.504658
v -5.204043 0.255000 -0.988995
v -4.634672 0.405000 -0.626924
v -4.774187 0.405000 -0.977885
v -4.774187 0.255000 -0.977885
v -4.634672 0.255000 -0.626924
v -5.204043 0.405000 -0.988995
v -5.155205 0.405000 -1.447002
v -4.749821 0.405000 -1.303602
v -4.774187 0.405000 -0.977885
v -5.155205 0.255000 -1.447002
v -5.204043 0.255000 -0.988995
v -4.774187 0.255000 -0.977885
v -4.749821 0.255000 -1.303602
v -5.155205 0.405000 -1.447002
v -5.204043 0.405000 -0.988995
v -5.204043 0.255000 -0.988995
v -5.155205 0.255000 -1.447002
v -4.774187 0.405000 -0.977885
v -4.749821 0.405000 -1.303602
v -4.749821 0.255000 -1.303602
v -4.774187 0.255000 -0.977885
v -5.155205 0.405000 -1.447002
v -4.905189 0.405000 -1.833844
v -4.563958 0.405000 -1.572193
v -4.749821 0.405000 -1.303602
v -4.905189 0.255000 -1.833844
v -5.155205 0.255000 -1.447002
v -4.749821 0.255000 -1.303602
v -4.563958 0.255000 -1.572193
v -4.905189 0.405000 -1.833844
v -5.155205 0.405000 -1.447002
v -5.155205 0.255000 -1.447002
v -4.905189 0.255000 -1.833844
v -4.749821 0.405000 -1.303602
v -4.563958 0.405000 -1.572193
v -4.563958 0.255000 -1.572193
v -4.749821 0.255000 -1.303602
v -4.905189 0.405000 -1.833844
v -4.478469 0.405000 -2.111656
v -4.234794 0.405000 -1.757364
v -4.563958 0.405000 -1.572193
v -4.478469 0.255000 -2.111656
v -4.905189 0.255000 -1.833844
v -4.563958 0.255000 -1.572193
v -4.234794 0.255000 -1.757364
v -4.478469 0.405000 -2.111656
v -4.905189 0.405000 -1.833844
v -4.905189 0.255000 -1.833844
v -4.478469 0.255000 -2.111656
v -4.563958 0.405000 -1.572193
v -4.234794 0.405000 -1.757364
v -4.234794 0.255000 -1.757364
v -4.563958 0.255000 -1.572193
v -4.478469 0.405000 -2.111656
v -3.916814 0.405000 -2.253243
v -3.794548 0.405000 -1.840992
v -4.234794 0.405000 -1.757364
v -3.916814 0.255000 -2.253243
v -4.478469 0.255000 -2.111656
v -4.234794 0.255000 -1.757364
v -3.794548 0.255000 -1.840992
v -3.916814 0.405000 -2.253243
v -4.478469 0.405000 -2.111656
v -4.478469 0.255000 -2.111656
v -3.916814 0.255000 -2.253243
v -4.234794 0.405000 -1.757364
v -3.794548 0.405000 -1.840992
v -3.794548 0.255000 -1.840992
v -4.234794 0.255000 -1.757364
v -3.916814 0.405000 -2.253243
v -3.275204 0.405000 -2.244745
v -3.286314 0.405000 -1.814888
v -3.794548 0.405000 -1.840992
v -3.275204 0.255000 -2.244745
v -3.916814 0.255000 -2.253243
v -3.794548 0.255000 -1.840992
v -3.286314 0.255000 -1.814888
v -3.275204 0.405000 -2.244745
v -3.916814 0.405000 -2.253243
v -3.916814 0.255000 -2.253243
v -3.275204 0.255000 -2.244745
v -3.794548 0.405000 -1.840992
v -3.286314 0.405000 -1.814888
v -3.286314 0.255000 -1.814888
v -3.794548 0.255000 -1.840992
v -3.275204 0.405000 -2.244745
v -2.616444 0.405000 -2.086994
v -2.759843 0.405000 -1.681610
v -3.286314 0.405000 -1.814888
v -2.616444 0.255000 -2.086994
v -3.275204 0.255000 -2.244745
v -3.286314 0.255000 -1.814888
v -2.759843 0.255000 -1.681610
v -2.616444 0.405000 -2.086994
v -3.275204 0.405000 -2.244745
v -3.275204 0.255000 -2.244745
v -2.616444 0.255000 -2.086994
v -3.286314 0.405000 -1.814888
v -2.759843 0.405000 -1.681610
v -2.759843 0.255000 -1.681610
v -3.286314 0.255000 -1.814888
v -2.616444 0.405000 -2.086994
v -2.005017 0.405000 -1.795433
v -2.266669 0.405000 -1.454202
v -2.759843 0.405000 -1.681610
v -2.005017 0.255000 -1.795433
v -2.616444 0.255000 -2.086994
v -2.759843 0.255000 -1.681610
v -2.266669 0.255000 -1.454202
v -2.005017 0.405000 -1.795433
v -2.616444 0.405000 -2.086994
v -2.616444 0.255000 -2.086994
v -2.005017 0.255000 -1.795433
v -2.759843 0.405000 -1.681610
v -2.266669 0.405000 -1.454202
v -2.266669 0.255000 -1.454202
v -2.759843 0.255000 -1.681610
v -2.005017 0.405000 -1.795433
v -1.500775 0.405000 -1.398601
v -1.855067 0.405000 -1.154926
v -2.266669 0.405000 -1.454202
v -1.500775 0.255000 -1.398601
v -2.005017 0.255000 -1.795433
v -2.266669 0.255000 -1.454202
v -1.855067 0.255000 -1.154926
v -1.500775 0.405000 -1.398601
v -2.005017 0.405000 -1.795433
v -2.005017 0.255000 -1.795433
v -1.500775 0.255000 -1.398601
v -2.266669 0.405000 -1.454202
v -1.855067 0.405000 -1.154926
v -1.855067 0.255000 -1.154926
v -2.266669 0.255000 -1.454202
v -1.500775 0.405000 -1.398601
v -1.153077 0.405000 -0.935342
v -1.565328 0.405000 -0.813076
v -1.855067 0.405000 -1.154926
v -1.153077 0.255000 -0.935342
v -1.500775 0.255000 -1.398601
v -1.855067 0.255000 -1.154926
v -1.565328 0.255000 -0.813076
v -1.153077 0.405000 -0.935342
v -1.500775 0.405000 -1.398601
v -1.500775 0.255000 -1.398601
v -1.153077 0.255000 -0.935342
v -1.855067 0.405000 -1.154926
v -1.565328 0.405000 -0.813076
v -1.565328 0.255000 -0.813076
v -1.855067 0.255000 -1.154926
v -1.153077 0.405000 -0.935342
v -0.995957 0.405000 -0.451005
v -1.425813 0.405000 -0.462115
v -1.565328 0.405000 -0.813076
v -0.995957 0.255000 -0.451005
v -1.153077 0.255000 -0.935342
v -1.565328 0.255000 -0.813076
v -1.425813 0.255000 -0.462115
v -0.995957 0.405000 -0.451005
v -1.153077 0.405000 -0.935342
v -1.153077 0.255000 -0.935342
v -0.995957 0.255000 -0.451005
v -1.565328 0.405000 -0.813076
v -1.425813 0.405000 -0.462115
v -1.425813 0.255000 -0.462115
v -1.565328 0.255000 -0.813076
v -0.995957 0.405000 -0.451005
v -1.044795 0.405000 0.007002
v -1.450179 0.405000 -0.136398
v -1.425813 0.405000 -0.462115
v -1.044795 0.255000 0.007002
v -0.995957 0.255000 -0.451005
v -1.425813 0.255000 -0.462115
v -1.450179 0.255000 -0.136398
v -1.044795 0.405000 0.007002
v -0.995957 0.405000 -0.451005
v -0.995957 0.255000 -0.451005
v -1.044795 0.255000 0.007002
v -1.425813 0.405000 -0.462115
v -1.450179 0.405000 -0.136398
v -1.450179 0.255000 -0.136398
v -1.425813 0.255000 -0.462115
v 2.055205 0.405000 -0.007002
v 2.104043 0.405000 0.451005
v 1.674187 0.405000 0.462115
v 1.649821 0.405000 0.136398
v 2.104043 0.255000 0.451005
v 2.055205 0.255000 -0.007002
v 1.649821 0.255000 0.136398
v 1.674187 0.255000 0.462115
v 2.104043 0.405000 0.451005
v 2.055205 0.405000 -0.007002
v 2.055205 0.255000 -0.007002
v 2.104043 0.255000 0.451005
v 1.649821 0.405000 0.136398
v 1.674187 0.405000 0.462115
v 1.674187 0.255000 0.462115
v 1.649821 0.255000 0.136398
v 2.104043 0.405000 0.451005
v 1.946923 0.405000 0.935342
v 1.534672 0.405000 0.813076
v 1.674187 0.405000 0.462115
v 1.946923 0.255000 0.935342
v 2.104043 0.255000 0.451005
v 1.674187 0.255000 0.462115
v 1.534672 0.255000 0.813076
v 1.946923 0.405000 0.935342
v 2.104043 0.405000 0.451005
v 2.104043 0.255000 0.451005
v 1.946923 0.255000 0.935342
v 1.674187 0.405000 0.462115
v 1.534672 0.405000 0.813076
v 1.534672 0.255000 0.813076
v 1.674187 0.255000 0.462115
v 1.946923 0.405000 0.935342
v 1.599225 0.405000 1.398601
v 1.244933 0.405000 1.154926
v 1.534672 0.405000 0.813076
v 1.599225 0.255000 1.398601
v 1.946923 0.255000 0.935342
v 1.534672 0.255000 0.813076
v 1.244933 0.255000 1.154926
v 1.599225 0.405000 1.398601
v 1.946923 0.405000 0.935342
v 1.946923 0.255000 0.935342
v 1.599225 0.255000 1.398601
v 1.534672 0.405000 0.813076
v 1.244933 0.405000 1.154926
v 1.244933 0.255000 1.154926
v 1.534672 0.255000 0.813076
v 1.599225 0.405000 1.398601
v 1.094983 0.405000 1.795433
v 0.833331 0.405000 1.454202
v 1.244933 0.405000 1.154926
v 1.094983 0.255000 1.795433
v 1.599225 0.255000 1.398601
v 1.244933 0.255000 1.154926
v 0.833331 0.255000 1.454202
v 1.094983 0.405000 1.795433
v 1.599225 0.405000 1.398601
v 1.599225 0.255000 1.398601
v 1.094983 0.255000 1.795433
v 1.244933 0.405000 1.154926
v 0.833331 0.405000 1.454202
v 0.833331 0.255000 1.454202
v 1.244933 0.255000 1.154926
v 1.094983 0.405000 1.795433
v 0.483556 0.405000 2.086994
v 0.340157 0.405000 1.681610
v 0.833331 0.405000 1.454202
v 0.483556 0.255000 2.086994
v 1.094983 0.255000 1.795433
v 0.833331 0.255000 1.454202
v 0.340157 0.255000 1.681610
v 0.483556 0.405000 2.086994
v 1.094983 0.405000 1.795433
v 1.094983 0.255000 1.795433
v 0.483556 0.255000 2.086994
v 0.833331 0.405000 1.454202
v 0.340157 0.405000 1.681610
v 0.340157 0.255000 1.681610
v 0.833331 0.255000 1.454202
v 0.483556 0.405000 2.086994
v -0.175204 0.405000 2.244745
v -0.186314 0.405000 1.814888
v 0.340157 0.405000 1.681610
v -0.175204 0.255000 2.244745
v 0.483556 0.255000 2.086994
v 0.340157 0.255000 1.681610
v -0.186314 0.255000 1.814888
v -0.175204 0.405000 2.244745
v 0.483556 0.405000 2.086994
v 0.483556 0.255000 2.086994
v -0.175204 0.255000 2.244745
v 0.340157 0.405000 1.681610
v -0.186314 0.405000 1.814888
v -0.186314 0.255000 1.814888
v 0.340157 0.255000 1.681610
v -0.175204 0.405000 2.244745
v -0.816814 0.405000 2.253243
v -0.694548 0.405000 1.840992
v -0.186314 0.405000 1.814888
v -0.816814 0.255000 2.253243
v -0.175204 0.255000 2.244745
v -0.186314 0.255000 1.814888
v -0.694548 0.255000 1.840992
v -0.816814 0.405000 2.253243
v -0.175204 0.405000 2.244745
v -0.175204 0.255000 2.244745
v -0.816814 0.255000 2.253243
v -0.186314 0.405000 1.814888
v -0.694548 0.405000 1.840992
v -0.694548 0.255000 1.840992
v -0.186314 0.255000 1.814888
v -0.816814 0.405000 2.253243
v -1.378469 0.405000 2.111656
v -1.134794 0.405000 1.757364
v -0.694548 0.405000 1.840992
v -1.378469 0.255000 2.111656
v -0.816814 0.255000 2.253243
v -0.694548 0.255000 1.840992
v -1.134794 0.255000 1.757364
v -1.378469 0.405000 2.111656
v -0.816814 0.405000 2.253243
v -0.816814 0.255000 2.253243
v -1.378469 0.255000 2.111656
v -0.694548 0.405000 1.840992
v -1.134794 0.405000 1.757364
v -1.134794 0.255000 1.757364
v -0.694548 0.255000 1.840992
v -1.378469 0.405000 2.111656
v -1.805189 0.405000 1.833844
v -1.463958 0.405000 1.572193
v -1.134794 0.405000 1.757364
v -1.805189 0.255000 1.833844
v -1.378469 0.255000 2.111656
v -1.134794 0.255000 1.757364
v -1.463958 0.255000 1.572193
v -1.805189 0.405000 1.833844
v -1.378469 0.405000 2.111656
v -1.378469 0.255000 2.111656
v -1.805189 0.255000 1.833844
v -1.134794 0.405000 1.757364
v -1.463958 0.405000 1.572193
v -1.463958 0.255000 1.572193
v -1.134794 0.255000 1.757364
v -1.805189 0.405000 1.833844
v -2.055205 0.405000 1.447002
v -1.649821 0.405000 1.303602
v -1.463958 0.405000 1.572193
v -2.055205 0.255000 1.447002
v -1.805189 0.255000 1.833844
v -1.463958 0.255000 1.572193
v -1.649821 0.255000 1.303602
v -2.055205 0.405000 1.447002
v -1.805189 0.405000 1.833844
v -1.805189 0.255000 1.833844
v -2.055205 0.255000 1.447002
v -1.463958 0.405000 1.572193
v -1.649821 0.405000 1.303602
v -1.649821 0.255000 1.303602
v -1.463958 0.255000 1.572193
v -2.055205 0.405000 1.447002
v -2.104043 0.405000 0.988995
v -1.674187 0.405000 0.977885
v -1.649821 0.405000 1.303602
v -2.104043 0.255000 0.988995
v -2.055205 0.255000 1.447002
v -1.649821 0.255000 1.303602
v -1.674187 0.255000 0.977885
v -2.104043 0.405000 0.988995
v -2.055205 0.405000 1.447002
v -2.055205 0.255000 1.447002
v -2.104043 0.255000 0.988995
v -1.649821 0.405000 1.303602
v -1.674187 0.405000 0.977885
v -1.674187 0.255000 0.977885
v -1.649821 0.255000 1.303602
v -2.104043 0.405000 0.988995
v -1.946923 0.405000 0.504658
v -1.534672 0.405000 0.626924
v -1.674187 0.405000 0.977885
v -1.946923 0.255000 0.504658
v -2.104043 0.255000 0.988995
v -1.674187 0.255000 0.977885
v -1.534672 0.255000 0.626924
v -1.946923 0.405000 0.504658
v -2.104043 0.405000 0.988995
v -2.104043 0.255000 0.988995
v -1.946923 0.255000 0.504658
v -1.674187 0.405000 0.977885
v -1.534672 0.405000 0.626924
v -1.534672 0.255000 0.626924
v -1.674187 0.255000 0.977885
v -1.946923 0.405000 0.504658
v -1.599225 0.405000 0.041399
v -1.244933 0.405000 0.285074
v -1.534672 0.405000 0.626924
v -1.599225 0.255000 0.041399
v -1.946923 0.255000 0.504658
v -1.534672 0.255000 0.626924
v -1.244933 0.255000 0.285074
v -1.599225 0.405000 0.041399
v -1.946923 0.405000 0.504658
v -1.946923 0.255000 0.504658
v -1.599225 0.255000 0.041399
v -1.534672 0.405000 0.626924
v -1.244933 0.405000 0.285074
v -1.244933 0.255000 0.285074
v -1.534672 0.255000 0.626924
v -1.599225 0.405000 0.041399
v -1.094983 0.405000 -0.355433
v -0.833331 0.405000 -0.014202
v -1.244933 0.405000 0.285074
v -1.094983 0.255000 -0.355433
v -1.599225 0.255000 0.041399
v -1.244933 0.255000 0.285074
v -0.833331 0.255000 -0.014202
v -1.094983 0.405000 -0.355433
v -1.599225 0.405000 0.041399
v -1.599225 0.255000 0.041399
v -1.094983 0.255000 -0.355433
v -1.244933 0.405000 0.285074
v -0.833331 0.405000 -0.014202
v -0.833331 0.255000 -0.014202
v -1.244933 0.255000 0.285074
v -1.094983 0.405000 -0.355433
v -0.483556 0.405000 -0.646994
v -0.340157 0.405000 -0.241610
v -0.833331 0.405000 -0.014202
v -0.483556 0.255000 -0.646994
v -1.094983 0.255000 -0.355433
v -0.833331 0.255000 -0.014202
v -0.340157 0.255000 -0.241610
v -0.483556 0.405000 -0.646994
v -1.094983 0.405000 -0.355433
v -1.094983 0.255000 -0.355433
v -0.483556 0.255000 -0.646994
v -0.833331 0.405000 -0.014202
v -0.340157 0.405000 -0.241610
v -0.340157 0.255000 -0.241610
v -0.833331 0.255000 -0.014202
v -0.483556 0.405000 -0.646994
v 0.175204 0.405000 -0.804745
v 0.186314 0.405000 -0.374888
v -0.340157 0.405000 -0.241610
v 0.175204 0.255000 -0.804745
v -0.483556 0.255000 -0.646994
v -0.340157 0.255000 -0.241610
v 0.186314 0.255000 -0.374888
v 0.175204 0.405000 -0.804745
v -0.483556 0.405000 -0.646994
v -0.483556 0.255000 -0.646994
v 0.175204 0.255000 -0.804745
v -0.340157 0.405000 -0.241610
v 0.186314 0.405000 -0.374888
v 0.186314 0.255000 -0.374888
v -0.340157 0.255000 -0.241610
v 0.175204 0.405000 -0.804745
v 0.816814 0.405000 -0.813243
v 0.694548 0.405000 -0.400992
v 0.186314 0.405000 -0.374888
v 0.816814 0.255000 -0.813243
v 0.175204 0.255000 -0.804745
v 0.186314 0.255000 -0.374888
v 0.694548 0.255000 -0.400992
v 0.816814 0.405000 -0.813243
v 0.175204 0.405000 -0.804745
v 0.175204 0.255000 -0.804745
v 0.816814 0.255000 -0.813243
v 0.186314 0.405000 -0.374888
v 0.694548 0.405000 -0.400992
v 0.694548 0.255000 -0.400992
v 0.186314 0.255000 -0.374888
v 0.816814 0.405000 -0.813243
v 1.378469 0.405000 -0.671656
v 1.134794 0.405000 -0.317364
v 0.694548 0.405000 -0.400992
v 1.378469 0.255000 -0.671656
v 0.816814 0.255000 -0.813243
v 0.694548 0.255000 -0.400992
v 1.134794 0.255000 -0.317364
v 1.378469 0.405000 -0.671656
v 0.816814 0.405000 -0.813243
v 0.816814 0.255000 -0.813243
v 1.378469 0.255000 -0.671656
v 0.694548 0.405000 -0.400992
v 1.134794 0.405000 -0.317364
v 1.134794 0.255000 -0.317364
v 0.694548 0.255000 -0.400992
v 1.378469 0.405000 -0.671656
v 1.805189 0.405000 -0.393844
v 1.463958 0.405000 -0.132193
v 1.134794 0.405000 -0.317364
v 1.805189 0.255000 -0.393844
v 1.378469 0.255000 -0.671656
v 1.134794 0.255000 -0.317364
v 1.463958 0.255000 -0.132193
v 1.805189 0.405000 -0.393844
v 1.378469 0.405000 -0.671656
v 1.378469 0.255000 -0.671656
v 1.805189 0.255000 -0.393844
v 1.134794 0.405000 -0.317364
v 1.463958 0.405000 -0.132193
v 1.463958 0.255000 -0.132193
v 1.134794 0.255000 -0.317364
v 1.805189 0.405000 -0.393844
v 2.055205 0.405000 -0.007002
v 1.649821 0.405000 0.136398
v 1.463958 0.405000 -0.132193
v 2.055205 0.255000 -0.007002
v 1.805189 0.255000 -0.393844
v 1.463958 0.255000 -0.132193
v 1.649821 0.255000 0.136398
v 2.055205 0.405000 -0.007002
v 1.805189 0.405000 -0.393844
v 1.805189 0.255000 -0.393844
v 2.055205 0.255000 -0.007002
v 1.463958 0.405000 -0.132193
v 1.649821 0.405000 0.136398
v 1.649821 0.255000 0.136398
v 1.463958 0.255000 -0.132193
v 5.155205 0.405000 0.007002
v 4.905189 0.405000 0.393844
v 4.563958 0.405000 0.132193
v 4.749821 0.405000 -0.136398
v 4.905189 0.255000 0.393844
v 5.155205 0.255000 0.007002
v 4.749821 0.255000 -0.136398
v 4.563958 0.255000 0.132193
v 4.905189 0.405000 0.393844
v 5.155205 0.405000 0.007002
v 5.155205 0.255000 0.007002
v 4.905189 0.255000 0.393844
v 4.749821 0.405000 -0.136398
v 4.563958 0.405000 0.132193
v 4.563958 0.255000 0.132193
v 4.749821 0.255000 -0.136398
v 4.905189 0.405000 0.393844
v 4.478469 0.405000 0.671656
v 4.234794 0.405000 0.317364
v 4.563958 0.405000 0.132193
v 4.478469 0.255000 0.671656
v 4.905189 0.255000 0.393844
v 4.563958 0.255000 0.132193
v 4.234794 0.255000 0.317364
v 4.478469 0.405000 0.671656
v 4.905189 0.405000 0.393844
v 4.905189 0.255000 0.393844
v 4.478469 0.255000 0.671656
v 4.563958 0.405000 0.132193
v 4.234794 0.405000 0.317364
v 4.234794 0.255000 0.317364
v 4.563958 0.255000 0.132193
v 4.478469 0.405000 0.671656
v 3.916814 0.405000 0.813243
v 3.794548 0.405000 0.400992
v 4.234794 0.405000 0.317364
v 3.916814 0.255000 0.813243
v 4.478469 0.255000 0.671656
v 4.234794 0.255000 0.317364
v 3.794548 0.255000 0.400992
v 3.916814 0.405000 0.813243
v 4.478469 0.405000 0.671656
v 4.478469 0.255000 0.671656
v 3.916814 0.255000 0.813243
v 4.234794 0.405000 0.317364
v 3.794548 0.405000 0.400992
v 3.794548 0.255000 0.400992
v 4.234794 0.255000 0.317364
v 3.916814 0.405000 0.813243
v 3.275204 0.405000 0.804745
v 3.286314 0.405000 0.374888
v 3.794548 0.405000 0.400992
v 3.275204 0.255000 0.804745
v 3.916814 0.255000 0.813243
v 3.794548 0.255000 0.400992
v 3.286314 0.255000 0.374888
v 3.275204 0.405000 0.804745
v 3.916814 0.405000 0.813243
v 3.916814 0.255000 0.813243
v 3.275204 0.255000 0.804745
v 3.794548 0.405000 0.400992
v 3.286314 0.405000 0.374888
v 3.286314 0.255000 0.374888
v 3.794548 0.255000 0.400992
v 3.275204 0.405000 0.804745
v 2.616444 0.405000 0.646994
v 2.759843 0.405000 0.241610
v 3.286314 0.405000 0.374888
v 2.616444 0.255000 0.646994
v 3.275204 0.255000 0.804745
v 3.286314 0.255000 0.374888
v 2.759843 0.255000 0.241610
v 2.616444 0.405000 0.646994
v 3.275204 0.405000 0.804745
v 3.275204 0.255000 0.804745
v 2.616444 0.255000 0.646994
v 3.286314 0.405000 0.374888
v 2.759843 0.405000 0.241610
v 2.759843 0.255000 0.241610
v 3.286314 0.255000 0.374888
v 2.616444 0.405000 0.646994
v 2.005017 0.405000 0.355433
v 2.266669 0.405000 0.014202
v 2.759843 0.405000 0.241610
v 2.005017 0.255000 0.355433
v 2.616444 0.255000 0.646994
v 2.759843 0.255000 0.241610
v 2.266669 0.255000 0.014202
v 2.005017 0.405000 0.355433
v 2.616444 0.405000 0.646994
v 2.616444 0.255000 0.646994
v 2.005017 0.255000 0.355433
v 2.759843 0.405000 0.241610
v 2.266669 0.405000 0.014202
v 2.266669 0.255000 0.014202
v 2.759843 0.255000 0.241610
v 2.005017 0.405000 0.355433
v 1.500775 0.405000 -0.041399
v 1.855067 0.405000 -0.285074
v 2.266669 0.405000 0.014202
v 1.500775 0.255000 -0.041399
v 2.005017 0.255000 0.355433
v 2.266669 0.255000 0.014202
v 1.855067 0.255000 -0.285074
v 1.500775 0.405000 -0.041399
v 2.005017 0.405000 0.355433
v 2.005017 0.255000 0.355433
v 1.500775 0.255000 -0.041399
v 2.266669 0.405000 0.014202
v 1.855067 0.405000 -0.285074
v 1.855067 0.255000 -0.285074
v 2.266669 0.255000 0.014202
v 1.500775 0.405000 -0.041399
v 1.153077 0.405000 -0.504658
v 1.565328 0.405000 -0.626924
v 1.855067 0.405000 -0.285074
v 1.153077 0.255000 -0.504658
v 1.500775 0.255000 -0.041399
v 1.855067 0.255000 -0.285074
v 1.565328 0.255000 -0.626924
v 1.153077 0.405000 -0.504658
v 1.500775 0.405000 -0.041399
v 1.500775 0.255000 -0.041399
v 1.153077 0.255000 -0.504658
v 1.855067 0.405000 -0.285074
v 1.565328 0.405000 -0.626924
v 1.565328 0.255000 -0.626924
v 1.855067 0.255000 -0.285074
v 1.153077 0.405000 -0.504658
v 0.995957 0.405000 -0.988995
v 1.425813 0.405000 -0.977885
v 1.565328 0.405000 -0.626924
v 0.995957 0.255000 -0.988995
v 1.153077 0.255000 -0.504658
v 1.565328 0.255000 -0.626924
v 1.425813 0.255000 -0.977885
v 0.995957 0.405000 -0.988995
v 1.153077 0.405000 -0.504658
v 1.153077 0.255000 -0.504658
v 0.995957 0.255000 -0.988995
v 1.565328 0.405000 -0.626924
v 1.425813 0.405000 -0.977885
v 1.425813 0.255000 -0.977885
v 1.565328 0.255000 -0.626924
v 0.995957 0.405000 -0.988995
v 1.044795 0.405000 -1.447002
v 1.450179 0.405000 -1.303602
v 1.425813 0.405000 -0.977885
v 1.044795 0.255000 -1.447002
v 0.995957 0.255000 -0.988995
v 1.425813 0.255000 -0.977885
v 1.450179 0.255000 -1.303602
v 1.044795 0.405000 -1.447002
v 0.995957 0.405000 -0.988995
v 0.995957 0.255000 -0.988995
v 1.044795 0.255000 -1.447002
v 1.425813 0.405000 -0.977885
v 1.450179 0.405000 -1.303602
v 1.450179 0.255000 -1.303602
v 1.425813 0.255000 -0.977885
v 1.044795 0.405000 -1.447002
v 1.294811 0.405000 -1.833844
v 1.636042 0.405000 -1.572193
v 1.450179 0.405000 -1.303602
v 1.294811 0.255000 -1.833844
v 1.044795 0.255000 -1.447002
v 1.450179 0.255000 -1.303602
v 1.636042 0.255000 -1.572193
v 1.294811 0.405000 -1.833844
v 1.044795 0.405000 -1.447002
v 1.044795 0.255000 -1.447002
v 1.294811 0.255000 -1.833844
v 1.450179 0.405000 -1.303602
v 1.636042 0.405000 -1.572193
v 1.636042 0.255000 -1.572193
v 1.450179 0.255000 -1.303602
v 1.294811 0.405000 -1.833844
v 1.721531 0.405000 -2.111656
v 1.965206 0.405000 -1.757364
v 1.636042 0.405000 -1.572193
v 1.721531 0.255000 -2.111656
v 1.294811 0.255000 -1.833844
v 1.636042 0.255000 -1.572193
v 1.965206 0.255000 -1.757364
v 1.721531 0.405000 -2.111656
v 1.294811 0.405000 -1.833844
v 1.294811 0.255000 -1.833844
v 1.721531 0.255000 -2.111656
v 1.636042 0.405000 -1.572193
v 1.965206 0.405000 -1.757364
v 1.965206 0.255000 -1.757364
v 1.636042 0.255000 -1.572193
v 1.721531 0.405000 -2.111656
v 2.283186 0.405000 -2.253243
v 2.405452 0.405000 -1.840992
v 1.965206 0.405000 -1.757364
v 2.283186 0.255000 -2.253243
v 1.721531 0.255000 -2.111656
v 1.965206 0.255000 -1.757364
v 2.405452 0.255000 -1.840992
v 2.283186 0.405000 -2.253243
v 1.721531 0.405000 -2.111656
v 1.721531 0.255000 -2.111656
v 2.283186 0.255000 -2.253243
v 1.965206 0.405000 -1.757364
v 2.405452 0.405000 -1.840992
v 2.405452 0.255000 -1.840992
v 1.965206 0.255000 -1.757364
v 2.283186 0.405000 -2.253243
v 2.924796 0.405000 -2.244745
v 2.913686 0.405000 -1.814888
v 2.405452 0.405000 -1.840992
v 2.924796 0.255000 -2.244745
v 2.283186 0.255000 -2.253243
v 2.405452 0.255000 -1.840992
v 2.913686 0.255000 -1.814888
v 2.924796 0.405000 -2.244745
v 2.283186 0.405000 -2.253243
v 2.283186 0.255000 -2.253243
v 2.924796 0.255000 -2.244745
v 2.405452 0.405000 -1.840992
v 2.913686 0.405000 -1.814888
v 2.913686 0.255000 -1.814888
v 2.405452 0.255000 -1.840992
v 2.924796 0.405000 -2.244745
v 3.583556 0.405000 -2.086994
v 3.440157 0.405000 -1.681610
v 2.913686 0.405000 -1.814888
v 3.583556 0.255000 -2.086994
v 2.924796 0.255000 -2.244745
v 2.913686 0.255000 -1.814888
v 3.440157 0.255000 -1.681610
v 3.583556 0.405000 -2.086994
v 2.924796 0.405000 -2.244745
v 2.924796 0.255000 -2.244745
v 3.583556 0.255000 -2.086994
v 2.913686 0.405000 -1.814888
v 3.440157 0.405000 -1.681610
v 3.440157 0.255000 -1.681610
v 2.913686 0.255000 -1.814888
v 3.583556 0.405000 -2.086994
v 4.194983 0.405000 -1.795433
v 3.933331 0.405000 -1.454202
v 3.440157 0.405000 -1.681610
v 4.194983 0.255000 -1.795433
v 3.583556 0.255000 -2.086994
v 3.440157 0.255000 -1.681610
v 3.933331 0.255000 -1.454202
v 4.194983 0.405000 -1.795433
v 3.583556 0.405000 -2.086994
v 3.583556 0.255000 -2.086994
v 4.194983 0.255000 -1.795433
v 3.440157 0.405000 -1.681610
v 3.933331 0.405000 -1.454202
v 3.933331 0.255000 -1.454202
v 3.440157 0.255000 -1.681610
v 4.194983 0.405000 -1.795433
v 4.699225 0.405000 -1.398601
v 4.344933 0.405000 -1.154926
v 3.933331 0.405000 -1.454202
v 4.699225 0.255000 -1.398601
v 4.194983 0.255000 -1.795433
v 3.933331 0.255000 -1.454202
v 4.344933 0.255000 -1.154926
v 4.699225 0.405000 -1.398601
v 4.194983 0.405000 -1.795433
v 4.194983 0.255000 -1.795433
v 4.699225 0.255000 -1.398601
v 3.933331 0.405000 -1.454202
v 4.344933 0.405000 -1.154926
v 4.344933 0.255000 -1.154926
v 3.933331 0.255000 -1.454202
v 4.699225 0.405000 -1.398601
v 5.046923 0.405000 -0.935342
v 4.634672 0.405000 -0.813076
v 4.344933 0.405000 -1.154926
v 5.046923 0.255000 -0.935342
v 4.699225 0.255000 -1.398601
v 4.344933 0.255000 -1.154926
v 4.634672 0.255000 -0.813076
v 5.046923 0.405000 -0.935342
v 4.699225 0.405000 -1.398601
v 4.699225 0.255000 -1.398601
v 5.046923 0.255000 -0.935342
v 4.344933 0.405000 -1.154926
v 4.634672 0.405000 -0.813076
v 4.634672 0.255000 -0.813076
v 4.344933 0.255000 -1.154926
v 5.046923 0.405000 -0.935342
v 5.204043 0.405000 -0.451005
v 4.774187 0.405000 -0.462115
v 4.634672 0.405000 -0.813076
v 5.204043 0.255000 -0.451005
v 5.046923 0.255000 -0.935342
v 4.634672 0.255000 -0.813076
v 4.774187 0.255000 -0.462115
v 5.204043 0.405000 -0.451005
v 5.046923 0.405000 -0.935342
v 5.046923 0.255000 -0.935342
v 5.204043 0.255000 -0.451005
v 4.634672 0.405000 -0.813076
v 4.774187 0.405000 -0.462115
v 4.774187 0.255000 -0.462115
v 4.634672 0.255000 -0.813076
v 5.204043 0.405000 -0.451005
v 5.155205 0.405000 0.007002
v 4.749821 0.405000 -0.136398
v 4.774187 0.405000 -0.462115
v 5.155205 0.255000 0.007002
v 5.204043 0.255000 -0.451005
v 4.774187 0.255000 -0.462115
v 4.749821 0.255000 -0.136398
v 5.155205 0.405000 0.007002
v 5.204043 0.405000 -0.451005
v 5.204043 0.255000 -0.451005
v 5.155205 0.255000 0.007002
v 4.774187 0.405000 -0.462115
v 4.749821 0.405000 -0.136398
v 4.749821 0.255000 -0.136398
v 4.774187 0.255000 -0.462115
vt -0.464000 0.400000
vt 0.464000 0.400000
vt 0.464000 -0.400000
vt -0.464000 -0.400000
vt -0.464000 -0.400000
vt 0.464000 -0.400000
vt 0.464000 0.400000
vt -0.464000 0.400000
vt -0.464000 0.000000
vt 0.464000 0.000000
vt 0.464000 -0.092800
vt -0.464000 -0.092800
vt 0.464000 0.000000
vt -0.464000 0.000000
vt -0.464000 -0.092800
vt 0.464000 -0.092800
vt 0.400000 0.000000
vt -0.400000 0.000000
vt -0.400000 -0.092800
vt 0.400000 -0.092800
vt -0.400000 0.000000
vt 0.400000 0.000000
vt 0.400000 -0.092800
vt -0.400000 -0.092800
vt -0.433600 0.348000
vt -0.158400 0.348000
vt -0.158400 -0.348000
vt -0.433600 -0.348000
vt -0.433600 -0.348000
vt -0.158400 -0.348000
vt -0.158400 0.348000
vt -0.433600 0.348000
vt -0.433600 0.019200
vt -0.158400 0.019200
vt -0.158400 0.000000
vt -0.433600 0.000000
vt -0.158400 0.019200
vt -0.433600 0.019200
vt -0.433600 0.000000
vt -0.158400 0.000000
vt 0.348000 0.019200
vt -0.348000 0.019200
vt -0.348000 0.000000
vt 0.348000 0.000000
vt -0.348000 0.019200
vt 0.348000 0.019200
vt 0.348000 0.000000
vt -0.348000 0.000000
vt -0.137600 0.348000
vt 0.137600 0.348000
vt 0.137600 -0.348000
vt -0.137600 -0.348000
vt -0.137600 -0.348000
vt 0.137600 -0.348000
vt 0.137600 0.348000
vt -0.137600 0.348000
vt -0.137600 0.019200
vt 0.137600 0.019200
vt 0.137600 0.000000
vt -0.137600 0.000000
vt 0.137600 0.019200
vt -0.137600 0.019200
vt -0.137600 0.000000
vt 0.137600 0.000000
vt 0.348000 0.019200
vt -0.348000 0.019200
vt -0.348000 0.000000
vt 0.348000 0.000000
vt -0.348000 0.019200
vt 0.348000 0.019200
vt 0.348000 0.000000
vt -0.348000 0.000000
vt 0.158400 0.348000
vt 0.433600 0.348000
vt 0.433600 -0.348000
vt 0.158400 -0.348000
vt 0.158400 -0.348000
vt 0.433600 -0.348000
vt 0.433600 0.348000
vt 0.158400 0.348000
vt 0.158400 0.019200
vt 0.433600 0.019200
vt 0.433600 0.000000
vt 0.158400 0.000000
vt 0.433600 0.019200
vt 0.158400 0.019200
vt 0.158400 0.000000
vt 0.433600 0.000000
vt 0.348000 0.019200
vt -0.348000 0.019200
vt -0.348000 0.000000
vt 0.348000 0.000000
vt -0.348000 0.019200
vt 0.348000 0.019200
vt 0.348000 0.000000
vt -0.348000 0.000000
vt -0.163200 0.340000
vt -0.137600 0.340000
vt -0.137600 -0.340000
vt -0.163200 -0.340000
vt -0.163200 -0.340000
vt -0.137600 -0.340000
vt -0.137600 0.340000
vt -0.163200 0.340000
vt -0.163200 0.021600
vt -0.137600 0.021600
vt -0.137600 0.019200
vt -0.163200 0.019200
vt -0.137600 0.021600
vt -0.163200 0.021600
vt -0.163200 0.019200
vt -0.137600 0.019200
vt 0.340000 0.021600
vt -0.340000 0.021600
vt -0.340000 0.019200
vt 0.340000 0.019200
vt -0.340000 0.021600
vt 0.340000 0.021600
vt 0.340000 0.019200
vt -0.340000 0.019200
vt 0.137600 0.340000
vt 0.163200 0.340000
vt 0.163200 -0.340000
vt 0.137600 -0.340000
vt 0.137600 -0.340000
vt 0.163200 -0.340000
vt 0.163200 0.340000
vt 0.137600 0.340000
vt 0.137600 0.021600
vt 0.163200 0.021600
vt 0.163200 0.019200
vt 0.137600 0.019200
vt 0.163200 0.021600
vt 0.137600 0.021600
vt 0.137600 0.019200
vt 0.163200 0.019200
vt 0.340000 0.021600
vt -0.340000 0.021600
vt -0.340000 0.019200
vt 0.340000 0.019200
vt -0.340000 0.021600
vt 0.340000 0.021600
vt 0.340000 0.019200
vt -0.340000 0.019200
vt -0.083584 0.000560
vt -0.103585 0.031508
vt -0.130883 0.010575
vt -0.116014 -0.010912
vt -0.103585 0.031508
vt -0.083584 0.000560
vt -0.116014 -0.010912
vt -0.130883 0.010575
vt 0.031508 0.032400
vt 0.000560 0.032400
vt 0.000560 0.020400
vt 0.031508 0.020400
vt -0.010912 0.032400
vt 0.010575 0.032400
vt 0.010575 0.020400
vt -0.010912 0.020400
vt -0.103585 0.031508
vt -0.137723 0.053732
vt -0.157216 0.025389
vt -0.130883 0.010575
vt -0.137723 0.053732
vt -0.103585 0.031508
vt -0.130883 0.010575
vt -0.157216 0.025389
vt -0.137723 0.032400
vt -0.103585 0.032400
vt -0.103585 0.020400
vt -0.137723 0.020400
vt -0.130883 0.032400
vt -0.157216 0.032400
vt -0.157216 0.020400
vt -0.130883 0.020400
vt -0.137723 0.053732
vt -0.182655 0.065059
vt -0.192436 0.032079
vt -0.157216 0.025389
vt -0.182655 0.065059
vt -0.137723 0.053732
vt -0.157216 0.025389
vt -0.192436 0.032079
vt -0.182655 0.032400
vt -0.137723 0.032400
vt -0.137723 0.020400
vt -0.182655 0.020400
vt -0.157216 0.032400
vt -0.192436 0.032400
vt -0.192436 0.020400
vt -0.157216 0.020400
vt -0.182655 0.065059
vt -0.233984 0.064380
vt -0.233095 0.029991
vt -0.192436 0.032079
vt -0.233984 0.064380
vt -0.182655 0.065059
vt -0.192436 0.032079
vt -0.233095 0.029991
vt -0.233984 0.032400
vt -0.182655 0.032400
vt -0.182655 0.020400
vt -0.233984 0.020400
vt -0.192436 0.032400
vt -0.233095 0.032400
vt -0.233095 0.020400
vt -0.192436 0.020400
vt -0.233984 0.064380
vt -0.286685 0.051760
vt -0.275213 0.019329
vt -0.233095 0.029991
vt -0.286685 0.051760
vt -0.233984 0.064380
vt -0.233095 0.029991
vt -0.275213 0.019329
vt -0.286685 0.032400
vt -0.233984 0.032400
vt -0.233984 0.020400
vt -0.286685 0.020400
vt -0.233095 0.032400
vt -0.275213 0.032400
vt -0.275213 0.020400
vt -0.233095 0.020400
vt -0.286685 0.051760
vt -0.335599 0.028435
vt -0.314666 0.001136
vt -0.275213 0.019329
vt -0.335599 0.028435
vt -0.286685 0.051760
vt -0.275213 0.019329
vt -0.314666 0.001136
vt -0.335599 0.032400
vt -0.286685 0.032400
vt -0.286685 0.020400
vt -0.335599 0.020400
vt -0.275213 0.032400
vt -0.314666 0.032400
vt -0.314666 0.020400
vt -0.275213 0.020400
vt -0.335599 0.028435
vt -0.375938 -0.003312
vt -0.347595 -0.022806
vt -0.314666 0.001136
vt -0.375938 -0.003312
vt -0.335599 0.028435
vt -0.314666 0.001136
vt -0.347595 -0.022806
vt -0.375938 0.032400
vt -0.335599 0.032400
vt -0.335599 0.020400
vt -0.375938 0.020400
vt -0.314666 0.032400
vt -0.347595 0.032400
vt -0.347595 0.020400
vt -0.314666 0.020400
vt -0.375938 -0.003312
vt -0.403754 -0.040373
vt -0.370774 -0.050154
vt -0.347595 -0.022806
vt -0.403754 -0.040373
vt -0.375938 -0.003312
vt -0.347595 -0.022806
vt -0.370774 -0.050154
vt -0.040373 0.032400
vt -0.003312 0.032400
vt -0.003312 0.020400
vt -0.040373 0.020400
vt -0.022806 0.032400
vt -0.050154 0.032400
vt -0.050154 0.020400
vt -0.022806 0.020400
vt -0.403754 -0.040373
vt -0.416323 -0.079120
vt -0.381935 -0.078231
vt -0.370774 -0.050154
vt -0.416323 -0.079120
vt -0.403754 -0.040373
vt -0.370774 -0.050154
vt -0.381935 -0.078231
vt -0.079120 0.032400
vt -0.040373 0.032400
vt -0.040373 0.020400
vt -0.079120 0.020400
vt -0.050154 0.032400
vt -0.078231 0.032400
vt -0.078231 0.020400
vt -0.050154 0.020400
vt -0.416323 -0.079120
vt -0.412416 -0.115760
vt -0.379986 -0.104288
vt -0.381935 -0.078231
vt -0.412416 -0.115760
vt -0.416323 -0.079120
vt -0.381935 -0.078231
vt -0.379986 -0.104288
vt -0.115760 0.032400
vt -0.079120 0.032400
vt -0.079120 0.020400
vt -0.115760 0.020400
vt -0.078231 0.032400
vt -0.104288 0.032400
vt -0.104288 0.020400
vt -0.078231 0.020400
vt -0.412416 -0.115760
vt -0.392415 -0.146708
vt -0.365117 -0.125775
vt -0.379986 -0.104288
vt -0.392415 -0.146708
vt -0.412416 -0.115760
vt -0.379986 -0.104288
vt -0.365117 -0.125775
vt -0.146708 0.032400
vt -0.115760 0.032400
vt -0.115760 0.020400
vt -0.146708 0.020400
vt -0.104288 0.032400
vt -0.125775 0.032400
vt -0.125775 0.020400
vt -0.104288 0.020400
vt -0.392415 -0.146708
vt -0.358277 -0.168932
vt -0.338784 -0.140589
vt -0.365117 -0.125775
vt -0.358277 -0.168932
vt -0.392415 -0.146708
vt -0.365117 -0.125775
vt -0.338784 -0.140589
vt -0.358277 0.032400
vt -0.392415 0.032400
vt -0.392415 0.020400
vt -0.358277 0.020400
vt -0.365117 0.032400
vt -0.338784 0.032400
vt -0.338784 0.020400
vt -0.365117 0.020400
vt -0.358277 -0.168932
vt -0.313345 -0.180259
vt -0.303564 -0.147279
vt -0.338784 -0.140589
vt -0.313345 -0.180259
vt -0.358277 -0.168932
vt -0.338784 -0.140589
vt -0.303564 -0.147279
vt -0.313345 0.032400
vt -0.358277 0.032400
vt -0.358277 0.020400
vt -0.313345 0.020400
vt -0.338784 0.032400
vt -0.303564 0.032400
vt -0.303564 0.020400
vt -0.338784 0.020400
vt -0.313345 -0.180259
vt -0.262016 -0.179580
vt -0.262905 -0.145191
vt -0.303564 -0.147279
vt -0.262016 -0.179580
vt -0.313345 -0.180259
vt -0.303564 -0.147279
vt -0.262905 -0.145191
vt -0.262016 0.032400
vt -0.313345 0.032400
vt -0.313345 0.020400
vt -0.262016 0.020400
vt -0.303564 0.032400
vt -0.262905 0.032400
vt -0.262905 0.020400
vt -0.303564 0.020400
vt -0.262016 -0.179580
vt -0.209315 -0.166960
vt -0.220787 -0.134529
vt -0.262905 -0.145191
vt -0.209315 -0.166960
vt -0.262016 -0.179580
vt -0.262905 -0.145191
vt -0.220787 -0.134529
vt -0.209315 0.032400
vt -0.262016 0.032400
vt -0.262016 0.020400
vt -0.209315 0.020400
vt -0.262905 0.032400
vt -0.220787 0.032400
vt -0.220787 0.020400
vt -0.262905 0.020400
vt -0.209315 -0.166960
vt -0.160401 -0.143635
vt -0.181334 -0.116336
vt -0.220787 -0.134529
vt -0.160401 -0.143635
vt -0.209315 -0.166960
vt -0.220787 -0.134529
vt -0.181334 -0.116336
vt -0.160401 0.032400
vt -0.209315 0.032400
vt -0.209315 0.020400
vt -0.160401 0.020400
vt -0.220787 0.032400
vt -0.181334 0.032400
vt -0.181334 0.020400
vt -0.220787 0.020400
vt -0.160401 -0.143635
vt -0.120062 -0.111888
vt -0.148405 -0.092394
vt -0.181334 -0.116336
vt -0.120062 -0.111888
vt -0.160401 -0.143635
vt -0.181334 -0.116336
vt -0.148405 -0.092394
vt -0.120062 0.032400
vt -0.160401 0.032400
vt -0.160401 0.020400
vt -0.120062 0.020400
vt -0.181334 0.032400
vt -0.148405 0.032400
vt -0.148405 0.020400
vt -0.181334 0.020400
vt -0.120062 -0.111888
vt -0.092246 -0.074827
vt -0.125226 -0.065046
vt -0.148405 -0.092394
vt -0.092246 -0.074827
vt -0.120062 -0.111888
vt -0.148405 -0.092394
vt -0.125226 -0.065046
vt -0.074827 0.032400
vt -0.111888 0.032400
vt -0.111888 0.020400
vt -0.074827 0.020400
vt -0.092394 0.032400
vt -0.065046 0.032400
vt -0.065046 0.020400
vt -0.092394 0.020400
vt -0.092246 -0.074827
vt -0.079677 -0.036080
vt -0.114065 -0.036969
vt -0.125226 -0.065046
vt -0.079677 -0.036080
vt -0.092246 -0.074827
vt -0.125226 -0.065046
vt -0.114065 -0.036969
vt -0.036080 0.032400
vt -0.074827 0.032400
vt -0.074827 0.020400
vt -0.036080 0.020400
vt -0.065046 0.032400
vt -0.036969 0.032400
vt -0.036969 0.020400
vt -0.065046 0.020400
vt -0.079677 -0.036080
vt -0.083584 0.000560
vt -0.116014 -0.010912
vt -0.114065 -0.036969
vt -0.083584 0.000560
vt -0.079677 -0.036080
vt -0.114065 -0.036969
vt -0.116014 -0.010912
vt 0.000560 0.032400
vt -0.036080 0.032400
vt -0.036080 0.020400
vt 0.000560 0.020400
vt -0.036969 0.032400
vt -0.010912 0.032400
vt -0.010912 0.020400
vt -0.036969 0.020400
vt 0.164416 -0.000560
vt 0.168323 0.036080
vt 0.133935 0.036969
vt 0.131986 0.010912
vt 0.168323 0.036080
vt 0.164416 -0.000560
vt 0.131986 0.010912
vt 0.133935 0.036969
vt 0.036080 0.032400
vt -0.000560 0.032400
vt -0.000560 0.020400
vt 0.036080 0.020400
vt 0.010912 0.032400
vt 0.036969 0.032400
vt 0.036969 0.020400
vt 0.010912 0.020400
vt 0.168323 0.036080
vt 0.155754 0.074827
vt 0.122774 0.065046
vt 0.133935 0.036969
vt 0.155754 0.074827
vt 0.168323 0.036080
vt 0.133935 0.036969
vt 0.122774 0.065046
vt 0.074827 0.032400
vt 0.036080 0.032400
vt 0.036080 0.020400
vt 0.074827 0.020400
vt 0.036969 0.032400
vt 0.065046 0.032400
vt 0.065046 0.020400
vt 0.036969 0.020400
vt 0.155754 0.074827
vt 0.127938 0.111888
vt 0.099595 0.092394
vt 0.122774 0.065046
vt 0.127938 0.111888
vt 0.155754 0.074827
vt 0.122774 0.065046
vt 0.099595 0.092394
vt 0.111888 0.032400
vt 0.074827 0.032400
vt 0.074827 0.020400
vt 0.111888 0.020400
vt 0.065046 0.032400
vt 0.092394 0.032400
vt 0.092394 0.020400
vt 0.065046 0.020400
vt 0.127938 0.111888
vt 0.087599 0.143635
vt 0.066666 0.116336
vt 0.099595 0.092394
vt 0.087599 0.143635
vt 0.127938 0.111888
vt 0.099595 0.092394
vt 0.066666 0.116336
vt 0.087599 0.032400
vt 0.127938 0.032400
vt 0.127938 0.020400
vt 0.087599 0.020400
vt 0.099595 0.032400
vt 0.066666 0.032400
vt 0.066666 0.020400
vt 0.099595 0.020400
vt 0.087599 0.143635
vt 0.038685 0.166960
vt 0.027213 0.134529
vt 0.066666 0.116336
vt 0.038685 0.166960
vt 0.087599 0.143635
vt 0.066666 0.116336
vt 0.027213 0.134529
vt 0.038685 0.032400
vt 0.087599 0.032400
vt 0.087599 0.020400
vt 0.038685 0.020400
vt 0.066666 0.032400
vt 0.027213 0.032400
vt 0.027213 0.020400
vt 0.066666 0.020400
vt 0.038685 0.166960
vt -0.014016 0.179580
vt -0.014905 0.145191
vt 0.027213 0.134529
vt -0.014016 0.179580
vt 0.038685 0.166960
vt 0.027213 0.134529
vt -0.014905 0.145191
vt -0.014016 0.032400
vt 0.038685 0.032400
vt 0.038685 0.020400
vt -0.014016 0.020400
vt 0.027213 0.032400
vt -0.014905 0.032400
vt -0.014905 0.020400
vt 0.027213 0.020400
vt -0.014016 0.179580
vt -0.065345 0.180259
vt -0.055564 0.147279
vt -0.014905 0.145191
vt -0.065345 0.180259
vt -0.014016 0.179580
vt -0.014905 0.145191
vt -0.055564 0.147279
vt -0.065345 0.032400
vt -0.014016 0.032400
vt -0.014016 0.020400
vt -0.065345 0.020400
vt -0.014905 0.032400
vt -0.055564 0.032400
vt -0.055564 0.020400
vt -0.014905 0.020400
vt -0.065345 0.180259
vt -0.110277 0.168932
vt -0.090784 0.140589
vt -0.055564 0.147279
vt -0.110277 0.168932
vt -0.065345 0.180259
vt -0.055564 0.147279
vt -0.090784 0.140589
vt -0.110277 0.032400
vt -0.065345 0.032400
vt -0.065345 0.020400
vt -0.110277 0.020400
vt -0.055564 0.032400
vt -0.090784 0.032400
vt -0.090784 0.020400
vt -0.055564 0.020400
vt -0.110277 0.168932
vt -0.144415 0.146708
vt -0.117117 0.125775
vt -0.090784 0.140589
vt -0.144415 0.146708
vt -0.110277 0.168932
vt -0.090784 0.140589
vt -0.117117 0.125775
vt -0.144415 0.032400
vt -0.110277 0.032400
vt -0.110277 0.020400
vt -0.144415 0.020400
vt -0.090784 0.032400
vt -0.117117 0.032400
vt -0.117117 0.020400
vt -0.090784 0.020400
vt -0.144415 0.146708
vt -0.164416 0.115760
vt -0.131986 0.104288
vt -0.117117 0.125775
vt -0.164416 0.115760
vt -0.144415 0.146708
vt -0.117117 0.125775
vt -0.131986 0.104288
vt 0.115760 0.032400
vt 0.146708 0.032400
vt 0.146708 0.020400
vt 0.115760 0.020400
vt 0.125775 0.032400
vt 0.104288 0.032400
vt 0.104288 0.020400
vt 0.125775 0.020400
vt -0.164416 0.115760
vt -0.168323 0.079120
vt -0.133935 0.078231
vt -0.131986 0.104288
vt -0.168323 0.079120
vt -0.164416 0.115760
vt -0.131986 0.104288
vt -0.133935 0.078231
vt 0.079120 0.032400
vt 0.115760 0.032400
vt 0.115760 0.020400
vt 0.079120 0.020400
vt 0.104288 0.032400
vt 0.078231 0.032400
vt 0.078231 0.020400
vt 0.104288 0.020400
vt -0.168323 0.079120
vt -0.155754 0.040373
vt -0.122774 0.050154
vt -0.133935 0.078231
vt -0.155754 0.040373
vt -0.168323 0.079120
vt -0.133935 0.078231
vt -0.122774 0.050154
vt 0.040373 0.032400
vt 0.079120 0.032400
vt 0.079120 0.020400
vt 0.040373 0.020400
vt 0.078231 0.032400
vt 0.050154 0.032400
vt 0.050154 0.020400
vt 0.078231 0.020400
vt -0.155754 0.040373
vt -0.127938 0.003312
vt -0.099595 0.022806
vt -0.122774 0.050154
vt -0.127938 0.003312
vt -0.155754 0.040373
vt -0.122774 0.050154
vt -0.099595 0.022806
vt 0.003312 0.032400
vt 0.040373 0.032400
vt 0.040373 0.020400
vt 0.003312 0.020400
vt 0.050154 0.032400
vt 0.022806 0.032400
vt 0.022806 0.020400
vt 0.050154 0.020400
vt -0.127938 0.003312
vt -0.087599 -0.028435
vt -0.066666 -0.001136
vt -0.099595 0.022806
vt -0.087599 -0.028435
vt -0.127938 0.003312
vt -0.099595 0.022806
vt -0.066666 -0.001136
vt -0.087599 0.032400
vt -0.127938 0.032400
vt -0.127938 0.020400
vt -0.087599 0.020400
vt -0.099595 0.032400
vt -0.066666 0.032400
vt -0.066666 0.020400
vt -0.099595 0.020400
vt -0.087599 -0.028435
vt -0.038685 -0.051760
vt -0.027213 -0.019329
vt -0.066666 -0.001136
vt -0.038685 -0.051760
vt -0.087599 -0.028435
vt -0.066666 -0.001136
vt -0.027213 -0.019329
vt -0.038685 0.032400
vt -0.087599 0.032400
vt -0.087599 0.020400
vt -0.038685 0.020400
vt -0.066666 0.032400
vt -0.027213 0.032400
vt -0.027213 0.020400
vt -0.066666 0.020400
vt -0.038685 -0.051760
vt 0.014016 -0.064380
vt 0.014905 -0.029991
vt -0.027213 -0.019329
vt 0.014016 -0.064380
vt -0.038685 -0.051760
vt -0.027213 -0.019329
vt 0.014905 -0.029991
vt 0.014016 0.032400
vt -0.038685 0.032400
vt -0.038685 0.020400
vt 0.014016 0.020400
vt -0.027213 0.032400
vt 0.014905 0.032400
vt 0.014905 0.020400
vt -0.027213 0.020400
vt 0.014016 -0.064380
vt 0.065345 -0.065059
vt 0.055564 -0.032079
vt 0.014905 -0.029991
vt 0.065345 -0.065059
vt 0.014016 -0.064380
vt 0.014905 -0.029991
vt 0.055564 -0.032079
vt 0.065345 0.032400
vt 0.014016 0.032400
vt 0.014016 0.020400
vt 0.065345 0.020400
vt 0.014905 0.032400
vt 0.055564 0.032400
vt 0.055564 0.020400
vt 0.014905 0.020400
vt 0.065345 -0.065059
vt 0.110277 -0.053732
vt 0.090784 -0.025389
vt 0.055564 -0.032079
vt 0.110277 -0.053732
vt 0.065345 -0.065059
vt 0.055564 -0.032079
vt 0.090784 -0.025389
vt 0.110277 0.032400
vt 0.065345 0.032400
vt 0.065345 0.020400
vt 0.110277 0.020400
vt 0.055564 0.032400
vt 0.090784 0.032400
vt 0.090784 0.020400
vt 0.055564 0.020400
vt 0.110277 -0.053732
vt 0.144415 -0.031508
vt 0.117117 -0.010575
vt 0.090784 -0.025389
vt 0.144415 -0.031508
vt 0.110277 -0.053732
vt 0.090784 -0.025389
vt 0.117117 -0.010575
vt 0.144415 0.032400
vt 0.110277 0.032400
vt 0.110277 0.020400
vt 0.144415 0.020400
vt 0.090784 0.032400
vt 0.117117 0.032400
vt 0.117117 0.020400
vt 0.090784 0.020400
vt 0.144415 -0.031508
vt 0.164416 -0.000560
vt 0.131986 0.010912
vt 0.117117 -0.010575
vt 0.164416 -0.000560
vt 0.144415 -0.031508
vt 0.117117 -0.010575
vt 0.131986 0.010912
vt -0.000560 0.032400
vt -0.031508 0.032400
vt -0.031508 0.020400
vt -0.000560 0.020400
vt -0.010575 0.032400
vt 0.010912 0.032400
vt 0.010912 0.020400
vt -0.010575 0.020400
vt 0.412416 0.000560
vt 0.392415 0.031508
vt 0.365117 0.010575
vt 0.379986 -0.010912
vt 0.392415 0.031508
vt 0.412416 0.000560
vt 0.379986 -0.010912
vt 0.365117 0.010575
vt 0.031508 0.032400
vt 0.000560 0.032400
vt 0.000560 0.020400
vt 0.031508 0.020400
vt -0.010912 0.032400
vt 0.010575 0.032400
vt 0.010575 0.020400
vt -0.010912 0.020400
vt 0.392415 0.031508
vt 0.358277 0.053732
vt 0.338784 0.025389
vt 0.365117 0.010575
vt 0.358277 0.053732
vt 0.392415 0.031508
vt 0.365117 0.010575
vt 0.338784 0.025389
vt 0.358277 0.032400
vt 0.392415 0.032400
vt 0.392415 0.020400
vt 0.358277 0.020400
vt 0.365117 0.032400
vt 0.338784 0.032400
vt 0.338784 0.020400
vt 0.365117 0.020400
vt 0.358277 0.053732
vt 0.313345 0.065059
vt 0.303564 0.032079
vt 0.338784 0.025389
vt 0.313345 0.065059
vt 0.358277 0.053732
vt 0.338784 0.025389
vt 0.303564 0.032079
vt 0.313345 0.032400
vt 0.358277 0.032400
vt 0.358277 0.020400
vt 0.313345 0.020400
vt 0.338784 0.032400
vt 0.303564 0.032400
vt 0.303564 0.020400
vt 0.338784 0.020400
vt 0.313345 0.065059
vt 0.262016 0.064380
vt 0.262905 0.029991
vt 0.303564 0.032079
vt 0.262016 0.064380
vt 0.313345 0.065059
vt 0.303564 0.032079
vt 0.262905 0.029991
vt 0.262016 0.032400
vt 0.313345 0.032400
vt 0.313345 0.020400
vt 0.262016 0.020400
vt 0.303564 0.032400
vt 0.262905 0.032400
vt 0.262905 0.020400
vt 0.303564 0.020400
vt 0.262016 0.064380
vt 0.209315 0.051760
vt 0.220787 0.019329
vt 0.262905 0.029991
vt 0.209315 0.051760
vt 0.262016 0.064380
vt 0.262905 0.029991
vt 0.220787 0.019329
vt 0.209315 0.032400
vt 0.262016 0.032400
vt 0.262016 0.020400
vt 0.209315 0.020400
vt 0.262905 0.032400
vt 0.220787 0.032400
vt 0.220787 0.020400
vt 0.262905 0.020400
vt 0.209315 0.051760
vt 0.160401 0.028435
vt 0.181334 0.001136
vt 0.220787 0.019329
vt 0.160401 0.028435
vt 0.209315 0.051760
vt 0.220787 0.019329
vt 0.181334 0.001136
vt 0.160401 0.032400
vt 0.209315 0.032400
vt 0.209315 0.020400
vt 0.160401 0.020400
vt 0.220787 0.032400
vt 0.181334 0.032400
vt 0.181334 0.020400
vt 0.220787 0.020400
vt 0.160401 0.028435
vt 0.120062 -0.003312
vt 0.148405 -0.022806
vt 0.181334 0.001136
vt 0.120062 -0.003312
vt 0.160401 0.028435
vt 0.181334 0.001136
vt 0.148405 -0.022806
vt 0.120062 0.032400
vt 0.160401 0.032400
vt 0.160401 0.020400
vt 0.120062 0.020400
vt 0.181334 0.032400
vt 0.148405 0.032400
vt 0.148405 0.020400
vt 0.181334 0.020400
vt 0.120062 -0.003312
vt 0.092246 -0.040373
vt 0.125226 -0.050154
vt 0.148405 -0.022806
vt 0.092246 -0.040373
vt 0.120062 -0.003312
vt 0.148405 -0.022806
vt 0.125226 -0.050154
vt -0.040373 0.032400
vt -0.003312 0.032400
vt -0.003312 0.020400
vt -0.040373 0.020400
vt -0.022806 0.032400
vt -0.050154 0.032400
vt -0.050154 0.020400
vt -0.022806 0.020400
vt 0.092246 -0.040373
vt 0.079677 -0.079120
vt 0.114065 -0.078231
vt 0.125226 -0.050154
vt 0.079677 -0.079120
vt 0.092246 -0.040373
vt 0.125226 -0.050154
vt 0.114065 -0.078231
vt -0.079120 0.032400
vt -0.040373 0.032400
vt -0.040373 0.020400
vt -0.079120 0.020400
vt -0.050154 0.032400
vt -0.078231 0.032400
vt -0.078231 0.020400
vt -0.050154 0.020400
vt 0.079677 -0.079120
vt 0.083584 -0.115760
vt 0.116014 -0.104288
vt 0.114065 -0.078231
vt 0.083584 -0.115760
vt 0.079677 -0.079120
vt 0.114065 -0.078231
vt 0.116014 -0.104288
vt -0.115760 0.032400
vt -0.079120 0.032400
vt -0.079120 0.020400
vt -0.115760 0.020400
vt -0.078231 0.032400
vt -0.104288 0.032400
vt -0.104288 0.020400
vt -0.078231 0.020400
vt 0.083584 -0.115760
vt 0.103585 -0.146708
vt 0.130883 -0.125775
vt 0.116014 -0.104288
vt 0.103585 -0.146708
vt 0.083584 -0.115760
vt 0.116014 -0.104288
vt 0.130883 -0.125775
vt -0.146708 0.032400
vt -0.115760 0.032400
vt -0.115760 0.020400
vt -0.146708 0.020400
vt -0.104288 0.032400
vt -0.125775 0.032400
vt -0.125775 0.020400
vt -0.104288 0.020400
vt 0.103585 -0.146708
vt 0.137723 -0.168932
vt 0.157216 -0.140589
vt 0.130883 -0.125775
vt 0.137723 -0.168932
vt 0.103585 -0.146708
vt 0.130883 -0.125775
vt 0.157216 -0.140589
vt 0.137723 0.032400
vt 0.103585 0.032400
vt 0.103585 0.020400
vt 0.137723 0.020400
vt 0.130883 0.032400
vt 0.157216 0.032400
vt 0.157216 0.020400
vt 0.130883 0.020400
vt 0.137723 -0.168932
vt 0.182655 -0.180259
vt 0.192436 -0.147279
vt 0.157216 -0.140589
vt 0.182655 -0.180259
vt 0.137723 -0.168932
vt 0.157216 -0.140589
vt 0.192436 -0.147279
vt 0.182655 0.032400
vt 0.137723 0.032400
vt 0.137723 0.020400
vt 0.182655 0.020400
vt 0.157216 0.032400
vt 0.192436 0.032400
vt 0.192436 0.020400
vt 0.157216 0.020400
vt 0.182655 -0.180259
vt 0.233984 -0.179580
vt 0.233095 -0.145191
vt 0.192436 -0.147279
vt 0.233984 -0.179580
vt 0.182655 -0.180259
vt 0.192436 -0.147279
vt 0.233095 -0.145191
vt 0.233984 0.032400
vt 0.182655 0.032400
vt 0.182655 0.020400
vt 0.233984 0.020400
vt 0.192436 0.032400
vt 0.233095 0.032400
vt 0.233095 0.020400
vt 0.192436 0.020400
vt 0.233984 -0.179580
vt 0.286685 -0.166960
vt 0.275213 -0.134529
vt 0.233095 -0.145191
vt 0.286685 -0.166960
vt 0.233984 -0.179580
vt 0.233095 -0.145191
vt 0.275213 -0.134529
vt 0.286685 0.032400
vt 0.233984 0.032400
vt 0.233984 0.020400
vt 0.286685 0.020400
vt 0.233095 0.032400
vt 0.275213 0.032400
vt 0.275213 0.020400
vt 0.233095 0.020400
vt 0.286685 -0.166960
vt 0.335599 -0.143635
vt 0.314666 -0.116336
vt 0.275213 -0.134529
vt 0.335599 -0.143635
vt 0.286685 -0.166960
vt 0.275213 -0.134529
vt 0.314666 -0.116336
vt 0.335599 0.032400
vt 0.286685 0.032400
vt 0.286685 0.020400
vt 0.335599 0.020400
vt 0.275213 0.032400
vt 0.314666 0.032400
vt 0.314666 0.020400
vt 0.275213 0.020400
vt 0.335599 -0.143635
vt 0.375938 -0.111888
vt 0.347595 -0.092394
vt 0.314666 -0.116336
vt 0.375938 -0.111888
vt 0.335599 -0.143635
vt 0.314666 -0.116336
vt 0.347595 -0.092394
vt 0.375938 0.032400
vt 0.335599 0.032400
vt 0.335599 0.020400
vt 0.375938 0.020400
vt 0.314666 0.032400
vt 0.347595 0.032400
vt 0.347595 0.020400
vt 0.314666 0.020400
vt 0.375938 -0.111888
vt 0.403754 -0.074827
vt 0.370774 -0.065046
vt 0.347595 -0.092394
vt 0.403754 -0.074827
vt 0.375938 -0.111888
vt 0.347595 -0.092394
vt 0.370774 -0.065046
vt -0.074827 0.032400
vt -0.111888 0.032400
vt -0.111888 0.020400
vt -0.074827 0.020400
vt -0.092394 0.032400
vt -0.065046 0.032400
vt -0.065046 0.020400
vt -0.092394 0.020400
vt 0.403754 -0.074827
vt 0.416323 -0.036080
vt 0.381935 -0.036969
vt 0.370774 -0.065046
vt 0.416323 -0.036080
vt 0.403754 -0.074827
vt 0.370774 -0.065046
vt 0.381935 -0.036969
vt -0.036080 0.032400
vt -0.074827 0.032400
vt -0.074827 0.020400
vt -0.036080 0.020400
vt -0.065046 0.032400
vt -0.036969 0.032400
vt -0.036969 0.020400
vt -0.065046 0.020400
vt 0.416323 -0.036080
vt 0.412416 0.000560
vt 0.379986 -0.010912
vt 0.381935 -0.036969
vt 0.412416 0.000560
vt 0.416323 -0.036080
vt 0.381935 -0.036969
vt 0.379986 -0.010912
vt 0.000560 0.032400
vt -0.036080 0.032400
vt -0.036080 0.020400
vt 0.000560 0.020400
vt -0.036969 0.032400
vt -0.010912 0.032400
vt -0.010912 0.020400
vt -0.036969 0.020400
vn -0.000000 1.000000 0.000000
vn 0.000000 -1.000000 0.000000
vn 0.000000 0.000000 -1.000000
vn 0.000000 0.000000 1.000000
vn -1.000000 0.000000 -0.000000
vn 1.000000 0.000000 -0.000000
vn -0.000000 1.000000 0.000000
vn 0.000000 -1.000000 0.000000
vn 0.000000 0.000000 -1.000000
vn 0.000000 0.000000 1.000000
vn -1.000000 0.000000 -0.000000
vn 1.000000 0.000000 -0.000000
vn -0.000000 1.000000 0.000000
vn 0.000000 -1.000000 0.000000
vn 0.000000 0.000000 -1.000000
vn 0.000000 0.000000 1.000000
vn -1.000000 0.000000 -0.000000
vn 1.000000 0.000000 -0.000000
vn -0.000000 1.000000 0.000000
vn 0.000000 -1.000000 0.000000
vn 0.000000 0.000000 -1.000000
vn 0.000000 0.000000 1.000000
vn -1.000000 0.000000 -0.000000
vn 1.000000 0.000000 -0.000000
vn -0.000000 1.000000 0.000000
vn 0.000000 -1.000000 0.000000
vn 0.000000 0.000000 -1.000000
vn 0.000000 0.000000 1.000000
vn -1.000000 0.000000 -0.000000
vn 1.000000 0.000000 -0.000000
vn -0.000000 1.000000 0.000000
vn 0.000000 -1.000000 0.000000
vn 0.000000 0.000000 -1.000000
vn 0.000000 0.000000 1.000000
vn -1.000000 0.000000 -0.000000
vn 1.000000 0.000000 -0.000000
vn 0.000000 1.000000 0.000000
vn 0.000000 -1.000000 0.000000
vn -0.839861 0.000000 -0.542802
vn 0.822314 0.000000 0.569034
vn 0.000000 1.000000 0.000000
vn 0.000000 -1.000000 0.000000
vn -0.545600 0.000000 -0.838046
vn 0.490295 0.000000 0.871557
vn 0.000000 1.000000 0.000000
vn 0.000000 -1.000000 0.000000
vn -0.244441 0.000000 -0.969664
vn 0.186619 0.000000 0.982432
vn 0.000000 1.000000 0.000000
vn 0.000000 -1.000000 0.000000
vn 0.013243 0.000000 -0.999912
vn -0.051293 0.000000 0.998684
vn 0.000000 1.000000 0.000000
vn 0.000000 -1.000000 0.000000
vn 0.232882 0.000000 -0.972505
vn -0.245413 0.000000 0.969419
vn 0.000000 1.000000 0.000000
vn 0.000000 -1.000000 0.000000
vn 0.430422 0.000000 -0.902628
vn -0.418737 0.000000 0.908107
vn 0.000000 1.000000 0.000000
vn 0.000000 -1.000000 0.000000
vn 0.618440 0.000000 -0.785832
vn -0.588081 0.000000 0.808802
vn 0.000000 1.000000 0.000000
vn 0.000000 -1.000000 0.000000
vn 0.799789 0.000000 -0.600282
vn -0.762856 0.000000 0.646568
vn 0.000000 1.000000 0.000000
vn 0.000000 -1.000000 0.000000
vn 0.951201 0.000000 -0.308572
vn -0.929268 0.000000 0.369405
vn 0.000000 1.000000 0.000000
vn 0.000000 -1.000000 0.000000
vn 0.994363 0.000000 0.106031
vn -0.997214 0.000000 -0.074600
vn 0.000000 1.000000 0.000000
vn 0.000000 -1.000000 0.000000
vn 0.839861 0.000000 0.542802
vn -0.822314 0.000000 -0.569034
vn 0.000000 1.000000 0.000000
vn 0.000000 -1.000000 0.000000
vn 0.545600 0.000000 0.838046
vn -0.490295 0.000000 -0.871557
vn 0.000000 1.000000 0.000000
vn 0.000000 -1.000000 0.000000
vn 0.244441 0.000000 0.969664
vn -0.186619 0.000000 -0.982432
vn 0.000000 1.000000 0.000000
vn 0.000000 -1.000000 0.000000
vn -0.013243 0.000000 0.999912
vn 0.051293 0.000000 -0.998684
vn 0.000000 1.000000 0.000000
vn 0.000000 -1.000000 0.000000
vn -0.232882 0.000000 0.972505
vn 0.245413 0.000000 -0.969419
vn 0.000000 1.000000 0.000000
vn 0.000000 -1.000000 0.000000
vn -0.430422 0.000000 0.902628
vn 0.418737 0.000000 -0.908107
vn 0.000000 1.000000 0.000000
vn 0.000000 -1.000000 0.000000
vn -0.618440 0.000000 0.785832
vn 0.588081 0.000000 -0.808802
vn 0.000000 1.000000 0.000000
vn 0.000000 -1.000000 0.000000
vn -0.799789 0.000000 0.600282
vn 0.762856 0.000000 -0.646568
vn 0.000000 1.000000 0.000000
vn 0.000000 -1.000000 0.000000
vn -0.951201 0.000000 0.308572
vn 0.929268 0.000000 -0.369405
vn 0.000000 1.000000 0.000000
vn 0.000000 -1.000000 0.000000
vn -0.994363 0.000000 -0.106031
vn 0.997214 0.000000 0.074600
vn 0.000000 1.000000 0.000000
vn 0.000000 -1.000000 0.000000
vn -0.994363 0.000000 0.106031
vn 0.997214 0.000000 -0.074600
vn 0.000000 1.000000 0.000000
vn 0.000000 -1.000000 0.000000
vn -0.951201 0.000000 -0.308572
vn 0.929268 0.000000 0.369405
vn 0.000000 1.000000 0.000000
vn 0.000000 -1.000000 0.000000
vn -0.799789 0.000000 -0.600282
vn 0.762856 0.000000 0.646568
vn 0.000000 1.000000 0.000000
vn 0.000000 -1.000000 0.000000
vn -0.618440 0.000000 -0.785832
vn 0.588081 0.000000 0.808802
vn 0.000000 1.000000 0.000000
vn 0.000000 -1.000000 0.000000
vn -0.430422 0.000000 -0.902628
vn 0.418737 0.000000 0.908107
vn 0.000000 1.000000 0.000000
vn 0.000000 -1.000000 0.000000
vn -0.232882 0.000000 -0.972505
vn 0.245413 0.000000 0.969419
vn 0.000000 1.000000 0.000000
vn 0.000000 -1.000000 0.000000
vn -0.013243 0.000000 -0.999912
vn 0.051293 0.000000 0.998684
vn 0.000000 1.000000 0.000000
vn 0.000000 -1.000000 0.000000
vn 0.244441 0.000000 -0.969664
vn -0.186619 0.000000 0.982432
vn 0.000000 1.000000 0.000000
vn 0.000000 -1.000000 0.000000
vn 0.545600 0.000000 -0.838046
vn -0.490295 0.000000 0.871557
vn 0.000000 1.000000 0.000000
vn 0.000000 -1.000000 0.000000
vn 0.839861 0.000000 -0.542802
vn -0.822314 0.000000 0.569034
vn 0.000000 1.000000 0.000000
vn 0.000000 -1.000000 0.000000
vn 0.994363 0.000000 -0.106031
vn -0.997214 0.000000 0.074600
vn 0.000000 1.000000 0.000000
vn 0.000000 -1.000000 0.000000
vn 0.951201 0.000000 0.308572
vn -0.929268 0.000000 -0.369405
vn 0.000000 1.000000 0.000000
vn 0.000000 -1.000000 0.000000
vn 0.799789 0.000000 0.600282
vn -0.762856 0.000000 -0.646568
vn 0.000000 1.000000 0.000000
vn 0.000000 -1.000000 0.000000
vn 0.618440 0.000000 0.785832
vn -0.588081 0.000000 -0.808802
vn 0.000000 1.000000 0.000000
vn 0.000000 -1.000000 0.000000
vn 0.430422 0.000000 0.902628
vn -0.418737 0.000000 -0.908107
vn 0.000000 1.000000 0.000000
vn 0.000000 -1.000000 0.000000
vn 0.232882 0.000000 0.972505
vn -0.245413 0.000000 -0.969419
vn 0.000000 1.000000 0.000000
vn 0.000000 -1.000000 0.000000
vn 0.013243 0.000000 0.999912
vn -0.051293 0.000000 -0.998684
vn 0.000000 1.000000 0.000000
vn 0.000000 -1.000000 0.000000
vn -0.244441 0.000000 0.969664
vn 0.186619 0.000000 -0.982432
vn 0.000000 1.000000 0.000000
vn 0.000000 -1.000000 0.000000
vn -0.545600 0.000000 0.838046
vn 0.490295 0.000000 -0.871557
vn 0.000000 1.000000 0.000000
vn 0.000000 -1.000000 0.000000
vn -0.839861 0.000000 0.542802
vn 0.822314 0.000000 -0.569034
vn 0.000000 1.000000 0.000000
vn 0.000000 -1.000000 0.000000
vn -0.839861 0.000000 -0.542802
vn 0.822314 0.000000 0.569034
vn 0.000000 1.000000 0.000000
vn 0.000000 -1.000000 0.000000
vn -0.545600 0.000000 -0.838046
vn 0.490295 0.000000 0.871557
vn 0.000000 1.000000 0.000000
vn 0.000000 -1.000000 0.000000
vn -0.244441 0.000000 -0.969664
vn 0.186619 0.000000 0.982432
vn 0.000000 1.000000 0.000000
vn 0.000000 -1.000000 0.000000
vn 0.013243 0.000000 -0.999912
vn -0.051293 0.000000 0.998684
vn 0.000000 1.000000 0.000000
vn 0.000000 -1.000000 0.000000
vn 0.232882 0.000000 -0.972505
vn -0.245413 0.000000 0.969419
vn 0.000000 1.000000 0.000000
vn 0.000000 -1.000000 0.000000
vn 0.430422 0.000000 -0.902628
vn -0.418737 0.000000 0.908107
vn 0.000000 1.000000 0.000000
vn 0.000000 -1.000000 0.000000
vn 0.618440 0.000000 -0.785832
vn -0.588081 0.000000 0.808802
vn 0.000000 1.000000 0.000000
vn 0.000000 -1.000000 0.000000
vn 0.799789 0.000000 -0.600282
vn -0.762856 0.000000 0.646568
vn 0.000000 1.000000 0.000000
vn 0.000000 -1.000000 0.000000
vn 0.951201 0.000000 -0.308572
vn -0.929268 0.000000 0.369405
vn 0.000000 1.000000 0.000000
vn 0.000000 -1.000000 0.000000
vn 0.994363 0.000000 0.106031
vn -0.997214 0.000000 -0.074600
vn 0.000000 1.000000 0.000000
vn 0.000000 -1.000000 0.000000
vn 0.839861 0.000000 0.542802
vn -0.822314 0.000000 -0.569034
vn 0.000000 1.000000 0.000000
vn 0.000000 -1.000000 0.000000
vn 0.545600 0.000000 0.838046
vn -0.490295 0.000000 -0.871557
vn 0.000000 1.000000 0.000000
vn 0.000000 -1.000000 0.000000
vn 0.244441 0.000000 0.969664
vn -0.186619 0.000000 -0.982432
vn 0.000000 1.000000 0.000000
vn 0.000000 -1.000000 0.000000
vn -0.013243 0.000000 0.999912
vn 0.051293 0.000000 -0.998684
vn 0.000000 1.000000 0.000000
vn 0.000000 -1.000000 0.000000
vn -0.232882 0.000000 0.972505
vn 0.245413 0.000000 -0.969419
vn 0.000000 1.000000 0.000000
vn 0.000000 -1.000000 0.000000
vn -0.430422 0.000000 0.902628
vn 0.418737 0.000000 -0.908107
vn 0.000000 1.000000 0.000000
vn 0.000000 -1.000000 0.000000
vn -0.618440 0.000000 0.785832
vn 0.588081 0.000000 -0.808802
vn 0.000000 1.000000 0.000000
vn 0.000000 -1.000000 0.000000
vn -0.799789 0.000000 0.600282
vn 0.762856 0.000000 -0.646568
vn 0.000000 1.000000 0.000000
vn 0.000000 -1.000000 0.000000
vn -0.951201 0.000000 0.308572
vn 0.929268 0.000000 -0.369405
vn 0.000000 1.000000 0.000000
vn 0.000000 -1.000000 0.000000
vn -0.994363 0.000000 -0.106031
vn 0.997214 0.000000 0.074600
usemtl ruin_path
f 1/1/1 2/2/1 3/3/1 4/4/1
usemtl garden_underside
f 5/5/2 6/6/2 7/7/2 8/8/2
usemtl ruin_stone
f 9/9/3 10/10/3 11/11/3 12/12/3
f 13/13/4 14/14/4 15/15/4 16/16/4
f 17/17/5 18/18/5 19/19/5 20/20/5
f 21/21/6 22/22/6 23/23/6 24/24/6
usemtl garden_mechanism
f 25/25/7 26/26/7 27/27/7 28/28/7
usemtl ruin_cap
f 29/29/8 30/30/8 31/31/8 32/32/8
f 33/33/9 34/34/9 35/35/9 36/36/9
f 37/37/10 38/38/10 39/39/10 40/40/10
f 41/41/11 42/42/11 43/43/11 44/44/11
f 45/45/12 46/46/12 47/47/12 48/48/12
usemtl garden_mechanism
f 49/49/13 50/50/13 51/51/13 52/52/13
usemtl ruin_cap
f 53/53/14 54/54/14 55/55/14 56/56/14
f 57/57/15 58/58/15 59/59/15 60/60/15
f 61/61/16 62/62/16 63/63/16 64/64/16
f 65/65/17 66/66/17 67/67/17 68/68/17
f 69/69/18 70/70/18 71/71/18 72/72/18
usemtl garden_mechanism
f 73/73/19 74/74/19 75/75/19 76/76/19
usemtl ruin_cap
f 77/77/20 78/78/20 79/79/20 80/80/20
f 81/81/21 82/82/21 83/83/21 84/84/21
f 85/85/22 86/86/22 87/87/22 88/88/22
f 89/89/23 90/90/23 91/91/23 92/92/23
f 93/93/24 94/94/24 95/95/24 96/96/24
usemtl hazard_dark
f 97/97/25 98/98/25 99/99/25 100/100/25
f 101/101/26 102/102/26 103/103/26 104/104/26
f 105/105/27 106/106/27 107/107/27 108/108/27
f 109/109/28 110/110/28 111/111/28 112/112/28
f 113/113/29 114/114/29 115/115/29 116/116/29
f 117/117/30 118/118/30 119/119/30 120/120/30
f 121/121/31 122/122/31 123/123/31 124/124/31
f 125/125/32 126/126/32 127/127/32 128/128/32
f 129/129/33 130/130/33 131/131/33 132/132/33
f 133/133/34 134/134/34 135/135/34 136/136/34
f 137/137/35 138/138/35 139/139/35 140/140/35
f 141/141/36 142/142/36 143/143/36 144/144/36
usemtl goal_dais
f 145/145/37 146/146/37 147/147/37 148/148/37
f 149/149/38 150/150/38 151/151/38 152/152/38
f 153/153/39 154/154/39 155/155/39 156/156/39
f 157/157/40 158/158/40 159/159/40 160/160/40
f 161/161/41 162/162/41 163/163/41 164/164/41
f 165/165/42 166/166/42 167/167/42 168/168/42
f 169/169/43 170/170/43 171/171/43 172/172/43
f 173/173/44 174/174/44 175/175/44 176/176/44
f 177/177/45 178/178/45 179/179/45 180/180/45
f 181/181/46 182/182/46 183/183/46 184/184/46
f 185/185/47 186/186/47 187/187/47 188/188/47
f 189/189/48 190/190/48 191/191/48 192/192/48
f 193/193/49 194/194/49 195/195/49 196/196/49
f 197/197/50 198/198/50 199/199/50 200/200/50
f 201/201/51 202/202/51 203/203/51 204/204/51
f 205/205/52 206/206/52 207/207/52 208/208/52
f 209/209/53 210/210/53 211/211/53 212/212/53
f 213/213/54 214/214/54 215/215/54 216/216/54
f 217/217/55 218/218/55 219/219/55 220/220/55
f 221/221/56 222/222/56 223/223/56 224/224/56
f 225/225/57 226/226/57 227/227/57 228/228/57
f 229/229/58 230/230/58 231/231/58 232/232/58
f 233/233/59 234/234/59 235/235/59 236/236/59
f 237/237/60 238/238/60 239/239/60 240/240/60
f 241/241/61 242/242/61 243/243/61 244/244/61
f 245/245/62 246/246/62 247/247/62 248/248/62
f 249/249/63 250/250/63 251/251/63 252/252/63
f 253/253/64 254/254/64 255/255/64 256/256/64
f 257/257/65 258/258/65 259/259/65 260/260/65
f 261/261/66 262/262/66 263/263/66 264/264/66
f 265/265/67 266/266/67 267/267/67 268/268/67
f 269/269/68 270/270/68 271/271/68 272/272/68
f 273/273/69 274/274/69 275/275/69 276/276/69
f 277/277/70 278/278/70 279/279/70 280/280/70
f 281/281/71 282/282/71 283/283/71 284/284/71
f 285/285/72 286/286/72 287/287/72 288/288/72
f 289/289/73 290/290/73 291/291/73 292/292/73
f 293/293/74 294/294/74 295/295/74 296/296/74
f 297/297/75 298/298/75 299/299/75 300/300/75
f 301/301/76 302/302/76 303/303/76 304/304/76
f 305/305/77 306/306/77 307/307/77 308/308/77
f 309/309/78 310/310/78 311/311/78 312/312/78
f 313/313/79 314/314/79 315/315/79 316/316/79
f 317/317/80 318/318/80 319/319/80 320/320/80
f 321/321/81 322/322/81 323/323/81 324/324/81
f 325/325/82 326/326/82 327/327/82 328/328/82
f 329/329/83 330/330/83 331/331/83 332/332/83
f 333/333/84 334/334/84 335/335/84 336/336/84
f 337/337/85 338/338/85 339/339/85 340/340/85
f 341/341/86 342/342/86 343/343/86 344/344/86
f 345/345/87 346/346/87 347/347/87 348/348/87
f 349/349/88 350/350/88 351/351/88 352/352/88
f 353/353/89 354/354/89 355/355/89 356/356/89
f 357/357/90 358/358/90 359/359/90 360/360/90
f 361/361/91 362/362/91 363/363/91 364/364/91
f 365/365/92 366/366/92 367/367/92 368/368/92
f 369/369/93 370/370/93 371/371/93 372/372/93
f 373/373/94 374/374/94 375/375/94 376/376/94
f 377/377/95 378/378/95 379/379/95 380/380/95
f 381/381/96 382/382/96 383/383/96 384/384/96
f 385/385/97 386/386/97 387/387/97 388/388/97
f 389/389/98 390/390/98 391/391/98 392/392/98
f 393/393/99 394/394/99 395/395/99 396/396/99
f 397/397/100 398/398/100 399/399/100 400/400/100
f 401/401/101 402/402/101 403/403/101 404/404/101
f 405/405/102 406/406/102 407/407/102 408/408/102
f 409/409/103 410/410/103 411/411/103 412/412/103
f 413/413/104 414/414/104 415/415/104 416/416/104
f 417/417/105 418/418/105 419/419/105 420/420/105
f 421/421/106 422/422/106 423/423/106 424/424/106
f 425/425/107 426/426/107 427/427/107 428/428/107
f 429/429/108 430/430/108 431/431/108 432/432/108
f 433/433/109 434/434/109 435/435/109 436/436/109
f 437/437/110 438/438/110 439/439/110 440/440/110
f 441/441/111 442/442/111 443/443/111 444/444/111
f 445/445/112 446/446/112 447/447/112 448/448/112
f 449/449/113 450/450/113 451/451/113 452/452/113
f 453/453/114 454/454/114 455/455/114 456/456/114
f 457/457/115 458/458/115 459/459/115 460/460/115
f 461/461/116 462/462/116 463/463/116 464/464/116
f 465/465/117 466/466/117 467/467/117 468/468/117
f 469/469/118 470/470/118 471/471/118 472/472/118
f 473/473/119 474/474/119 475/475/119 476/476/119
f 477/477/120 478/478/120 479/479/120 480/480/120
f 481/481/121 482/482/121 483/483/121 484/484/121
f 485/485/122 486/486/122 487/487/122 488/488/122
f 489/489/123 490/490/123 491/491/123 492/492/123
f 493/493/124 494/494/124 495/495/124 496/496/124
f 497/497/125 498/498/125 499/499/125 500/500/125
f 501/501/126 502/502/126 503/503/126 504/504/126
f 505/505/127 506/506/127 507/507/127 508/508/127
f 509/509/128 510/510/128 511/511/128 512/512/128
f 513/513/129 514/514/129 515/515/129 516/516/129
f 517/517/130 518/518/130 519/519/130 520/520/130
f 521/521/131 522/522/131 523/523/131 524/524/131
f 525/525/132 526/526/132 527/527/132 528/528/132
f 529/529/133 530/530/133 531/531/133 532/532/133
f 533/533/134 534/534/134 535/535/134 536/536/134
f 537/537/135 538/538/135 539/539/135 540/540/135
f 541/541/136 542/542/136 543/543/136 544/544/136
f 545/545/137 546/546/137 547/547/137 548/548/137
f 549/549/138 550/550/138 551/551/138 552/552/138
f 553/553/139 554/554/139 555/555/139 556/556/139
f 557/557/140 558/558/140 559/559/140 560/560/140
f 561/561/141 562/562/141 563/563/141 564/564/141
f 565/565/142 566/566/142 567/567/142 568/568/142
f 569/569/143 570/570/143 571/571/143 572/572/143
f 573/573/144 574/574/144 575/575/144 576/576/144
f 577/577/145 578/578/145 579/579/145 580/580/145
f 581/581/146 582/582/146 583/583/146 584/584/146
f 585/585/147 586/586/147 587/587/147 588/588/147
f 589/589/148 590/590/148 591/591/148 592/592/148
f 593/593/149 594/594/149 595/595/149 596/596/149
f 597/597/150 598/598/150 599/599/150 600/600/150
f 601/601/151 602/602/151 603/603/151 604/604/151
f 605/605/152 606/606/152 607/607/152 608/608/152
f 609/609/153 610/610/153 611/611/153 612/612/153
f 613/613/154 614/614/154 615/615/154 616/616/154
f 617/617/155 618/618/155 619/619/155 620/620/155
f 621/621/156 622/622/156 623/623/156 624/624/156
f 625/625/157 626/626/157 627/627/157 628/628/157
f 629/629/158 630/630/158 631/631/158 632/632/158
f 633/633/159 634/634/159 635/635/159 636/636/159
f 637/637/160 638/638/160 639/639/160 640/640/160
f 641/641/161 642/642/161 643/643/161 644/644/161
f 645/645/162 646/646/162 647/647/162 648/648/162
f 649/649/163 650/650/163 651/651/163 652/652/163
f 653/653/164 654/654/164 655/655/164 656/656/164
f 657/657/165 658/658/165 659/659/165 660/660/165
f 661/661/166 662/662/166 663/663/166 664/664/166
f 665/665/167 666/666/167 667/667/167 668/668/167
f 669/669/168 670/670/168 671/671/168 672/672/168
f 673/673/169 674/674/169 675/675/169 676/676/169
f 677/677/170 678/678/170 679/679/170 680/680/170
f 681/681/171 682/682/171 683/683/171 684/684/171
f 685/685/172 686/686/172 687/687/172 688/688/172
f 689/689/173 690/690/173 691/691/173 692/692/173
f 693/693/174 694/694/174 695/695/174 696/696/174
f 697/697/175 698/698/175 699/699/175 700/700/175
f 701/701/176 702/702/176 703/703/176 704/704/176
f 705/705/177 706/706/177 707/707/177 708/708/177
f 709/709/178 710/710/178 711/711/178 712/712/178
f 713/713/179 714/714/179 715/715/179 716/716/179
f 717/717/180 718/718/180 719/719/180 720/720/180
f 721/721/181 722/722/181 723/723/181 724/724/181
f 725/725/182 726/726/182 727/727/182 728/728/182
f 729/729/183 730/730/183 731/731/183 732/732/183
f 733/733/184 734/734/184 735/735/184 736/736/184
f 737/737/185 738/738/185 739/739/185 740/740/185
f 741/741/186 742/742/186 743/743/186 744/744/186
f 745/745/187 746/746/187 747/747/187 748/748/187
f 749/749/188 750/750/188 751/751/188 752/752/188
f 753/753/189 754/754/189 755/755/189 756/756/189
f 757/757/190 758/758/190 759/759/190 760/760/190
f 761/761/191 762/762/191 763/763/191 764/764/191
f 765/765/192 766/766/192 767/767/192 768/768/192
f 769/769/193 770/770/193 771/771/193 772/772/193
f 773/773/194 774/774/194 775/775/194 776/776/194
f 777/777/195 778/778/195 779/779/195 780/780/195
f 781/781/196 782/782/196 783/783/196 784/784/196
f 785/785/197 786/786/197 787/787/197 788/788/197
f 789/789/198 790/790/198 791/791/198 792/792/198
f 793/793/199 794/794/199 795/795/199 796/796/199
f 797/797/200 798/798/200 799/799/200 800/800/200
f 801/801/201 802/802/201 803/803/201 804/804/201
f 805/805/202 806/806/202 807/807/202 808/808/202
f 809/809/203 810/810/203 811/811/203 812/812/203
f 813/813/204 814/814/204 815/815/204 816/816/204
f 817/817/205 818/818/205 819/819/205 820/820/205
f 821/821/206 822/822/206 823/823/206 824/824/206
f 825/825/207 826/826/207 827/827/207 828/828/207
f 829/829/208 830/830/208 831/831/208 832/832/208
f 833/833/209 834/834/209 835/835/209 836/836/209
f 837/837/210 838/838/210 839/839/210 840/840/210
f 841/841/211 842/842/211 843/843/211 844/844/211
f 845/845/212 846/846/212 847/847/212 848/848/212
f 849/849/213 850/850/213 851/851/213 852/852/213
f 853/853/214 854/854/214 855/855/214 856/856/214
f 857/857/215 858/858/215 859/859/215 860/860/215
f 861/861/216 862/862/216 863/863/216 864/864/216
f 865/865/217 866/866/217 867/867/217 868/868/217
f 869/869/218 870/870/218 871/871/218 872/872/218
f 873/873/219 874/874/219 875/875/219 876/876/219
f 877/877/220 878/878/220 879/879/220 880/880/220
f 881/881/221 882/882/221 883/883/221 884/884/221
f 885/885/222 886/886/222 887/887/222 888/888/222
f 889/889/223 890/890/223 891/891/223 892/892/223
f 893/893/224 894/894/224 895/895/224 896/896/224
f 897/897/225 898/898/225 899/899/225 900/900/225
f 901/901/226 902/902/226 903/903/226 904/904/226
f 905/905/227 906/906/227 907/907/227 908/908/227
f 909/909/228 910/910/228 911/911/228 912/912/228
f 913/913/229 914/914/229 915/915/229 916/916/229
f 917/917/230 918/918/230 919/919/230 920/920/230
f 921/921/231 922/922/231 923/923/231 924/924/231
f 925/925/232 926/926/232 927/927/232 928/928/232
f 929/929/233 930/930/233 931/931/233 932/932/233
f 933/933/234 934/934/234 935/935/234 936/936/234
f 937/937/235 938/938/235 939/939/235 940/940/235
f 941/941/236 942/942/236 943/943/236 944/944/236
f 945/945/237 946/946/237 947/947/237 948/948/237
f 949/949/238 950/950/238 951/951/238 952/952/238
f 953/953/239 954/954/239 955/955/239 956/956/239
f 957/957/240 958/958/240 959/959/240 960/960/240
f 961/961/241 962/962/241 963/963/241 964/964/241
f 965/965/242 966/966/242 967/967/242 968/968/242
f 969/969/243 970/970/243 971/971/243 972/972/243
f 973/973/244 974/974/244 975/975/244 976/976/244
f 977/977/245 978/978/245 979/979/245 980/980/245
f 981/981/246 982/982/246 983/983/246 984/984/246
f 985/985/247 986/986/247 987/987/247 988/988/247
f 989/989/248 990/990/248 991/991/248 992/992/248
f 993/993/249 994/994/249 995/995/249 996/996/249
f 997/997/250 998/998/250 999/999/250 1000/1000/250
f 1001/1001/251 1002/1002/251 1003/1003/251 1004/1004/251
f 1005/1005/252 1006/1006/252 1007/1007/252 1008/1008/252
f 1009/1009/253 1010/1010/253 1011/1011/253 1012/1012/253
f 1013/1013/254 1014/1014/254 1015/1015/254 1016/1016/254
f 1017/1017/255 1018/1018/255 1019/1019/255 1020/1020/255
f 1021/1021/256 1022/1022/256 1023/1023/256 1024/1024/256
f 1025/1025/257 1026/1026/257 1027/1027/257 1028/1028/257
f 1029/1029/258 1030/1030/258 1031/1031/258 1032/1032/258
f 1033/1033/259 1034/1034/259 1035/1035/259 1036/1036/259
f 1037/1037/260 1038/1038/260 1039/1039/260 1040/1040/260
f 1041/1041/261 1042/1042/261 1043/1043/261 1044/1044/261
f 1045/1045/262 1046/1046/262 1047/1047/262 1048/1048/262
f 1049/1049/263 1050/1050/263 1051/1051/263 1052/1052/263
f 1053/1053/264 1054/1054/264 1055/1055/264 1056/1056/264
f 1057/1057/265 1058/1058/265 1059/1059/265 1060/1060/265
f 1061/1061/266 1062/1062/266 1063/1063/266 1064/1064/266
f 1065/1065/267 1066/1066/267 1067/1067/267 1068/1068/267
f 1069/1069/268 1070/1070/268 1071/1071/268 1072/1072/268
f 1073/1073/269 1074/1074/269 1075/1075/269 1076/1076/269
f 1077/1077/270 1078/1078/270 1079/1079/270 1080/1080/270
f 1081/1081/271 1082/1082/271 1083/1083/271 1084/1084/271
f 1085/1085/272 1086/1086/272 1087/1087/272 1088/1088/272
f 1089/1089/273 1090/1090/273 1091/1091/273 1092/1092/273
f 1093/1093/274 1094/1094/274 1095/1095/274 1096/1096/274
f 1097/1097/275 1098/1098/275 1099/1099/275 1100/1100/275
f 1101/1101/276 1102/1102/276 1103/1103/276 1104/1104/276
