# Blender 4.4.1
# www.blender.org
mtllib dome.mtl
o loof
v 0.000007 111.897194 44.445621
v 0.000007 103.897202 42.223343
v 0.000007 100.861221 66.517578
v 0.000007 92.861229 63.191700
v 0.000007 86.442032 78.462830
v 0.000007 78.638428 80.000015
v -3.044812 117.869820 15.307337
v -2.892571 109.869827 14.541970
v -5.673989 107.593597 28.525105
v -5.972621 115.593590 30.026426
v -8.670904 111.897194 43.591614
v -8.237358 103.897202 41.412033
v -11.035970 106.922684 55.481598
v -10.484170 98.922691 52.707520
v -12.328080 92.861229 61.977486
v -12.976929 100.861221 65.239456
v -13.698230 85.945755 68.865692
v -14.419191 93.945755 72.490204
v -15.307330 86.442032 76.955185
v -15.607220 78.638428 78.462830
v -5.673988 109.869827 13.698236
v -5.972620 117.869820 14.419195
v -11.129936 107.593597 26.870060
v -11.715724 115.593590 28.284275
v -17.008596 111.897194 41.062397
v -16.158165 103.897202 39.009277
v -21.647840 106.922684 52.262520
v -20.565445 98.922691 49.649395
v -25.455168 100.861221 61.454220
v -24.182405 92.861229 58.381508
v -28.284267 93.945755 68.284279
v -26.870050 85.945755 64.870064
v -30.026417 86.442032 72.490204
v -30.614668 78.638428 73.910370
v -8.670902 117.869820 12.976932
v -8.237357 109.869827 12.328085
v -16.158165 107.593597 24.182415
v -17.008596 115.593590 25.455173
v -23.458021 103.897202 35.107422
v -24.692659 111.897194 36.955181
v -31.427794 106.922684 47.035027
v -29.856401 98.922691 44.683273
v -35.107407 92.861229 52.541965
v -36.955170 100.861221 55.307331
v -39.009266 85.945755 58.381512
v -41.062389 93.945755 61.454224
v -43.591606 86.442032 65.239456
v -44.445614 78.638428 66.517570
v -11.035968 117.869820 11.035972
v -10.484168 109.869827 10.484173
v -20.565445 107.593597 20.565449
v -21.647840 115.593590 21.647840
v -31.427792 111.897194 31.427794
v -29.856400 103.897202 29.856407
v -39.999992 106.922684 40.000008
v -37.999992 98.922691 38.000004
v -44.683258 92.861229 44.683266
v -47.035015 100.861221 47.035015
v -52.262508 93.945755 52.262520
v -49.649380 85.945755 49.649395
v -55.481590 86.442032 55.481594
v -56.568542 78.638428 56.568535
v -12.976928 117.869820 8.670908
v -12.328079 109.869827 8.237362
v -24.182407 107.593597 16.158171
v -25.455170 115.593590 17.008600
v -35.107410 103.897202 23.458025
v -36.955170 111.897194 24.692657
v -47.035019 106.922684 31.427799
v -44.683266 98.922691 29.856409
v -55.307331 100.861221 36.955177
v -52.541958 92.861229 35.107418
v -61.454205 93.945755 41.062401
v -58.381493 85.945755 39.009281
v -65.239441 86.442032 43.591602
v -66.517555 78.638428 44.445602
v 0.000007 118.638412 -0.000001
v 0.000007 110.638412 -0.000001
v -13.698227 109.869827 5.673993
v -14.419188 117.869820 5.972624
v -26.870050 107.593597 11.129940
v -28.284267 115.593590 11.715726
v -39.009266 103.897202 16.158167
v -41.062389 111.897194 17.008596
v -49.649384 98.922691 20.565453
v -52.262512 106.922684 21.647844
v -58.381493 92.861229 24.182404
v -61.454205 100.861221 25.455162
v -68.284256 93.945755 28.284275
v -64.870041 85.945755 26.870060
v -72.490181 86.442032 30.026415
v -73.910347 78.638428 30.614658
v -14.541960 109.869827 2.892576
v -15.307327 117.869820 3.044816
v -28.525091 107.593597 5.673993
v -30.026413 115.593590 5.972624
v -41.412014 103.897202 8.237359
v -43.591599 111.897194 8.670904
v -52.707504 98.922691 10.484177
v -55.481590 106.922684 11.035975
v -65.239433 100.861221 12.976925
v -61.977455 92.861229 12.328079
v -72.490181 93.945755 14.419199
v -68.865669 85.945755 13.698239
v -76.955162 86.442032 15.307329
v -78.462799 78.638428 15.607210
v -14.826853 109.869827 -0.000002
v -15.607215 117.869820 -0.000002
v -29.083931 107.593597 -0.000003
v -30.614666 115.593590 -0.000003
v -42.223320 103.897202 -0.000005
v -44.445606 111.897194 -0.000005
v -53.740105 98.922691 -0.000000
v -56.568539 106.922684 -0.000000
v -66.517548 100.861221 -0.000008
v -63.191666 92.861229 -0.000008
v -70.214828 85.945755 0.000002
v -73.910347 93.945755 0.000002
v -78.462807 86.442032 -0.000008
v -79.999969 78.638428 -0.000014
v -15.307325 117.869820 -3.044820
v -14.541959 109.869827 -2.892579
v -30.026413 115.593590 -5.972630
v -28.525091 107.593597 -5.673999
v -41.412010 103.897202 -8.237370
v -43.591595 111.897194 -8.670916
v -55.481586 106.922684 -11.035975
v -52.707500 98.922691 -10.484177
v -65.239426 100.861221 -12.976942
v -61.977455 92.861229 -12.328094
v -72.490181 93.945755 -14.419196
v -68.865669 85.945755 -13.698236
v -76.955162 86.442032 -15.307345
v -78.462784 78.638428 -15.607238
v -14.419187 117.869820 -5.972628
v -13.698225 109.869827 -5.673996
v -28.284267 115.593590 -11.715733
v -26.870050 107.593597 -11.129946
v -41.062378 111.897194 -17.008608
v -39.009254 103.897202 -16.158176
v -52.262508 106.922684 -21.647842
v -49.649380 98.922691 -20.565451
v -61.454193 100.861221 -25.455177
v -58.381481 92.861229 -24.182419
v -68.284256 93.945755 -28.284269
v -64.870041 85.945755 -26.870056
v -72.490173 86.442032 -30.026430
v -73.910324 78.638428 -30.614683
v -12.976923 117.869820 -8.670910
v -12.328074 109.869827 -8.237365
v -25.455164 115.593590 -17.008606
v -24.182402 107.593597 -16.158176
v -36.955158 111.897194 -24.692663
v -35.107399 103.897202 -23.458035
v -47.035015 106.922684 -31.427799
v -44.683258 98.922691 -29.856411
v -52.541946 92.861229 -35.107422
v -55.307312 100.861221 -36.955181
v -58.381493 85.945755 -39.009274
v -61.454205 93.945755 -41.062389
v -65.239426 86.442032 -43.591606
v -66.517517 78.638428 -44.445618
v -10.484163 109.869827 -10.484175
v -11.035963 117.869820 -11.035974
v -21.647833 115.593590 -21.647844
v -20.565439 107.593597 -20.565453
v -31.427776 111.897194 -31.427799
v -29.856384 103.897202 -29.856411
v -39.999989 106.922684 -40.000000
v -37.999985 98.922691 -38.000000
v -47.035000 100.861221 -47.035015
v -44.683243 92.861229 -44.683266
v -52.262508 93.945755 -52.262512
v -49.649380 85.945755 -49.649387
v -55.481579 86.442032 -55.481594
v -56.568501 78.638428 -56.568539
v -8.237352 109.869827 -12.328084
v -8.670898 117.869820 -12.976931
v -16.158159 107.593597 -24.182417
v -17.008589 115.593590 -25.455173
v -23.458010 103.897202 -35.107422
v -24.692644 111.897194 -36.955177
v -31.427788 106.922684 -47.035023
v -29.856398 98.922691 -44.683270
v -36.955158 100.861221 -55.307327
v -35.107395 92.861229 -52.541962
v -41.062389 93.945755 -61.454212
v -39.009266 85.945755 -58.381504
v -43.591591 86.442032 -65.239449
v -44.445572 78.638428 -66.517555
v -5.972617 117.869820 -14.419192
v -5.673985 109.869827 -13.698234
v -11.129929 107.593597 -26.870058
v -11.715716 115.593590 -28.284271
v -17.008583 111.897194 -41.062386
v -16.158152 103.897202 -39.009266
v -21.647835 106.922684 -52.262516
v -20.565441 98.922691 -49.649391
v -25.455153 100.861221 -61.454208
v -24.182392 92.861229 -58.381496
v -26.870050 85.945755 -64.870049
v -28.284267 93.945755 -68.284264
v -30.026398 86.442032 -72.490189
v -30.614630 78.638428 -73.910347
v -3.044810 117.869820 -15.307331
v -2.892569 109.869827 -14.541965
v -5.673983 107.593597 -28.525101
v -5.972615 115.593590 -30.026421
v -8.237347 103.897202 -41.412014
v -8.670892 111.897194 -43.591595
v -10.484167 98.922691 -52.707516
v -11.035967 106.922684 -55.481594
v -12.976916 100.861221 -65.239441
v -12.328069 92.861229 -61.977467
v -13.698230 85.945755 -68.865677
v -14.419191 93.945755 -72.490189
v -15.307315 86.442032 -76.955170
v -15.607186 78.638428 -78.462791
v 0.000007 117.869820 -15.607219
v 0.000007 109.869827 -14.826859
v 0.000011 115.593590 -30.614674
v 0.000011 107.593597 -29.083939
v 0.000015 111.897194 -44.445599
v 0.000014 103.897202 -42.223324
v 0.000008 98.922691 -53.740112
v 0.000008 106.922684 -56.568539
v 0.000015 92.861229 -63.191673
v 0.000015 100.861221 -66.517555
v 0.000005 85.945755 -70.214836
v 0.000004 93.945755 -73.910355
v 0.000018 86.442032 -78.462807
v 0.000033 78.638428 -79.999962
v 2.892583 109.869827 -14.541964
v 3.044824 117.869820 -15.307330
v 5.674005 107.593597 -28.525101
v 5.972637 115.593590 -30.026421
v 8.237373 103.897202 -41.412006
v 8.670920 111.897194 -43.591587
v 10.484181 98.922691 -52.707512
v 11.035981 106.922684 -55.481586
v 12.328097 92.861229 -61.977463
v 12.976946 100.861221 -65.239433
v 13.698237 85.945755 -68.865669
v 14.419199 93.945755 -72.490181
v 15.307350 86.442032 -76.955162
v 15.607248 78.638428 -78.462776
v 5.972631 117.869820 -14.419189
v 5.673998 109.869827 -13.698231
v 11.129950 107.593597 -26.870056
v 11.715737 115.593590 -28.284269
v 16.158175 103.897202 -39.009254
v 17.008606 111.897194 -41.062370
v 20.565453 98.922691 -49.649387
v 21.647846 106.922684 -52.262512
v 24.182417 92.861229 -58.381489
v 25.455179 100.861221 -61.454201
v 26.870052 85.945755 -64.870049
v 28.284269 93.945755 -68.284256
v 30.026428 86.442032 -72.490173
v 30.614685 78.638428 -73.910309
v 8.670911 117.869820 -12.976928
v 8.237365 109.869827 -12.328082
v 17.008606 115.593590 -25.455168
v 16.158175 107.593597 -24.182409
v 24.692663 111.897194 -36.955158
v 23.458029 103.897202 -35.107399
v 31.427799 106.922684 -47.035015
v 29.856409 98.922691 -44.683266
v 35.107418 92.861229 -52.541946
v 36.955177 100.861221 -55.307312
v 41.062389 93.945755 -61.454208
v 39.009270 85.945755 -58.381496
v 43.591614 86.442032 -65.239426
v 44.445621 78.638428 -66.517509
v 11.035975 117.869820 -11.035969
v 10.484175 109.869827 -10.484170
v 21.647846 115.593590 -21.647839
v 20.565453 107.593597 -20.565447
v 31.427790 111.897194 -31.427776
v 29.856400 103.897202 -29.856386
v 40.000004 106.922684 -39.999996
v 38.000000 98.922691 -37.999996
v 47.035019 100.861221 -47.034996
v 44.683262 92.861229 -44.683250
v 52.262512 93.945755 -52.262508
v 49.649380 85.945755 -49.649380
v 55.481598 86.442032 -55.481567
v 56.568535 78.638428 -56.568481
v 12.976933 117.869820 -8.670905
v 12.328084 109.869827 -8.237360
v 24.182413 107.593597 -16.158167
v 25.455173 115.593590 -17.008598
v 35.107407 103.897202 -23.458008
v 36.955170 111.897194 -24.692640
v 47.035027 106.922684 -31.427795
v 44.683266 98.922691 -29.856405
v 55.307327 100.861221 -36.955158
v 52.541962 92.861229 -35.107403
v 61.454205 93.945755 -41.062386
v 58.381493 85.945755 -39.009266
v 65.239441 86.442032 -43.591579
v 66.517532 78.638428 -44.445557
v 13.698233 109.869827 -5.673991
v 14.419194 117.869820 -5.972622
v 26.870054 107.593597 -11.129937
v 28.284271 115.593590 -11.715724
v 39.009258 103.897202 -16.158155
v 41.062378 111.897194 -17.008583
v 49.649391 98.922691 -20.565449
v 52.262520 106.922684 -21.647840
v 58.381485 92.861229 -24.182392
v 61.454201 100.861221 -25.455151
v 64.870033 85.945755 -26.870052
v 68.284248 93.945755 -28.284267
v 72.490181 86.442032 -30.026396
v 73.910316 78.638428 -30.614620
v 14.541964 109.869827 -2.892575
v 15.307331 117.869820 -3.044816
v 28.525093 107.593597 -5.673991
v 30.026415 115.593590 -5.972622
v 41.412003 103.897202 -8.237350
v 43.591587 111.897194 -8.670896
v 52.707512 98.922691 -10.484175
v 55.481598 106.922684 -11.035974
v 65.239426 100.861221 -12.976918
v 61.977455 92.861229 -12.328073
v 72.490173 93.945755 -14.419194
v 68.865662 85.945755 -13.698235
v 76.955162 86.442032 -15.307315
v 78.462761 78.638428 -15.607180
v 14.826858 109.869827 0.000000
v 15.607219 117.869820 0.000000
v 30.614666 115.593590 0.000003
v 29.083933 107.593597 0.000003
v 44.445591 111.897194 0.000011
v 42.223312 103.897202 0.000010
v 56.568542 106.922684 0.000001
v 53.740112 98.922691 0.000001
v 66.517540 100.861221 0.000012
v 63.191666 92.861229 0.000011
v 73.910339 93.945755 -0.000000
v 70.214821 85.945755 -0.000000
v 78.462799 86.442032 0.000020
v 79.999931 78.638428 0.000034
v 15.307329 117.869820 3.044816
v 14.541963 109.869827 2.892576
v 30.026413 115.593590 5.972627
v 28.525091 107.593597 5.673996
v 43.591583 111.897194 8.670914
v 41.412003 103.897202 8.237369
v 55.481594 106.922684 11.035975
v 52.707504 98.922691 10.484176
v 65.239418 100.861221 12.976940
v 61.977448 92.861229 12.328094
v 72.490173 93.945755 14.419192
v 68.865662 85.945755 13.698232
v 76.955147 86.442032 15.307351
v 78.462753 78.638428 15.607246
v 13.698230 109.869827 5.673990
v 14.419191 117.869820 5.972622
v 26.870050 107.593597 11.129940
v 28.284266 115.593590 11.715726
v 39.009243 103.897202 16.158171
v 41.062370 111.897194 17.008600
v 49.649384 98.922691 20.565447
v 52.262516 106.922684 21.647839
v 61.454185 100.861221 25.455170
v 58.381474 92.861229 24.182413
v 68.284248 93.945755 28.284260
v 64.870026 85.945755 26.870049
v 72.490158 86.442032 30.026428
v 73.910286 78.638428 30.614681
v 12.328081 109.869827 8.237357
v 12.976929 117.869820 8.670903
v 24.182404 107.593597 16.158167
v 25.455164 115.593590 17.008596
v 35.107388 103.897202 23.458021
v 36.955147 111.897194 24.692652
v 44.683262 98.922691 29.856407
v 47.035019 106.922684 31.427794
v 52.541939 92.861229 35.107418
v 55.307308 100.861221 36.955177
v 61.454201 93.945755 41.062382
v 58.381485 85.945755 39.009262
v 65.239410 86.442032 43.591606
v 66.517487 78.638428 44.445610
v 10.484171 109.869827 10.484166
v 11.035971 117.869820 11.035965
v 21.647837 115.593590 21.647835
v 20.565443 107.593597 20.565443
v 31.427761 111.897194 31.427782
v 29.856373 103.897202 29.856392
v 37.999992 98.922691 37.999996
v 39.999996 106.922684 39.999996
v 44.683239 92.861229 44.683258
v 47.034988 100.861221 47.035007
v 49.649376 85.945755 49.649372
v 52.262505 93.945755 52.262497
v 55.481564 86.442032 55.481583
v 56.568474 78.638428 56.568516
v 8.237361 109.869827 12.328075
v 8.670906 117.869820 12.976921
v 16.158163 107.593597 24.182404
v 17.008595 115.593590 25.455162
v 24.692633 111.897194 36.955158
v 23.457998 103.897202 35.107403
v 29.856400 98.922691 44.683266
v 31.427790 106.922684 47.035015
v 36.955151 100.861221 55.307312
v 35.107391 92.861229 52.541946
v 41.062386 93.945755 61.454201
v 39.009262 85.945755 58.381489
v 43.591576 86.442032 65.239433
v 44.445549 78.638428 66.517525
v 5.972626 117.869820 14.419181
v 5.673995 109.869827 13.698222
v 11.715726 115.593590 28.284260
v 11.129939 107.593597 26.870049
v 17.008574 111.897194 41.062363
v 16.158144 103.897202 39.009247
v 21.647840 106.922684 52.262512
v 20.565445 98.922691 49.649387
v 25.455145 100.861221 61.454189
v 24.182384 92.861229 58.381477
v 26.870049 85.945755 64.870041
v 28.284264 93.945755 68.284248
v 30.026390 86.442032 72.490166
v 30.614611 78.638428 73.910301
v 3.044822 117.869820 15.307321
v 2.892580 109.869827 14.541955
v 5.972626 115.593590 30.026409
v 5.673995 107.593597 28.525089
v 8.670890 111.897194 43.591564
v 8.237345 103.897202 41.411987
v 11.035974 106.922684 55.481586
v 10.484174 98.922691 52.707512
v 12.328068 92.861229 61.977444
v 12.976914 100.861221 65.239418
v 13.698233 85.945755 68.865662
v 14.419194 93.945755 72.490166
v 15.307313 86.442032 76.955147
v 15.607177 78.638428 78.462746
v 0.000006 109.869827 14.826847
v 0.000006 117.869820 15.607208
v 0.000001 115.593590 30.614658
v 0.000002 107.593597 29.083925
v 0.000000 98.922691 53.740108
v -0.000000 106.922684 56.568535
v 0.000002 85.945755 70.214813
v 0.000002 93.945755 73.910332
v 0.000007 0.000000 80.000008
v -15.607218 0.000000 78.462830
v -30.614666 0.000000 73.910362
v -44.445610 0.000000 66.517563
v -56.568539 0.000000 56.568527
v -66.517548 0.000000 44.445599
v -73.910339 0.000000 30.614656
v -78.462799 0.000000 15.607209
v -79.999969 0.000000 -0.000014
v -78.462784 0.000000 -15.607237
v -73.910316 0.000000 -30.614681
v -66.517517 0.000000 -44.445614
v -56.568493 0.000000 -56.568535
v -44.445568 0.000000 -66.517555
v -30.614628 0.000000 -73.910339
v -15.607184 0.000000 -78.462791
v 0.000033 0.000000 -79.999954
v 15.607247 0.000000 -78.462769
v 30.614683 0.000000 -73.910309
v 44.445618 0.000000 -66.517502
v 56.568527 0.000000 -56.568478
v 66.517532 0.000000 -44.445553
v 73.910309 0.000000 -30.614620
v 78.462761 0.000000 -15.607179
v 79.999931 0.000000 0.000034
v 78.462746 0.000000 15.607245
v 73.910278 0.000000 30.614679
v 66.517479 0.000000 44.445602
v 56.568466 0.000000 56.568508
v 44.445549 0.000000 66.517517
v 30.614609 0.000000 73.910294
v 15.607176 0.000000 78.462746
v -28.481783 0.000000 68.761131
v -68.761108 0.000000 28.481783
v -68.761101 0.000000 -28.481796
v -28.481766 0.000000 -68.761116
v 28.481794 0.000000 -68.761108
v 68.761108 0.000000 -28.481768
v 68.761086 0.000000 28.481794
v 28.481760 0.000000 68.761101
v -14.519882 0.000000 72.996422
v -41.349144 0.000000 61.883381
v -61.883362 0.000000 41.349148
v -72.996399 0.000000 14.519883
v -52.627480 0.000000 52.627487
v -14.519870 0.000000 -72.996407
v -41.349121 0.000000 -61.883373
v -61.883347 0.000000 -41.349152
v -52.627464 0.000000 -52.627487
v -72.996399 0.000000 -14.519899
v 72.996399 0.000000 -14.519871
v 61.883362 0.000000 -41.349129
v 41.349155 0.000000 -61.883354
v 52.627483 0.000000 -52.627464
v 14.519902 0.000000 -72.996407
v 72.996384 0.000000 14.519903
v 61.883343 0.000000 41.349152
v 41.349121 0.000000 61.883358
v 14.519869 0.000000 72.996391
v 52.627453 0.000000 52.627480
v 0.000017 0.000000 -74.426491
v 0.000007 0.000000 74.426514
v -74.426483 0.000000 -0.000008
v 74.426476 0.000000 0.000019
vn -0.0148 0.9886 0.1499
vn -0.0254 0.9658 0.2581
vn -0.0374 0.9245 0.3794
vn -0.0512 0.8529 0.5196
vn -0.0671 0.7286 0.6816
vn -0.0839 0.5169 0.8519
vn -0.0962 0.1924 0.9766
vn -0.0048 0.9988 0.0492
vn -0.0980 -0.0000 0.9952
vn -0.2849 0.1924 0.9391
vn -0.0143 0.9988 0.0473
vn -0.2903 -0.0000 0.9569
vn -0.0437 0.9886 0.1442
vn -0.0753 0.9658 0.2482
vn -0.1107 0.9245 0.3648
vn -0.1516 0.8529 0.4996
vn -0.1988 0.7286 0.6554
vn -0.2485 0.5169 0.8192
vn -0.2461 0.8529 0.4605
vn -0.3229 0.7286 0.6040
vn -0.4035 0.5169 0.7550
vn -0.4626 0.1924 0.8654
vn -0.0233 0.9988 0.0436
vn -0.4714 -0.0000 0.8819
vn -0.0710 0.9886 0.1329
vn -0.1223 0.9658 0.2287
vn -0.1797 0.9245 0.3362
vn -0.6344 -0.0000 0.7730
vn -0.0956 0.9886 0.1165
vn -0.1645 0.9658 0.2005
vn -0.2418 0.9245 0.2947
vn -0.3312 0.8529 0.4036
vn -0.4345 0.7286 0.5294
vn -0.5431 0.5169 0.6617
vn -0.6225 0.1924 0.7586
vn -0.0314 0.9988 0.0382
vn -0.5294 0.7286 0.4345
vn -0.6617 0.5169 0.5431
vn -0.7586 0.1924 0.6225
vn -0.0382 0.9988 0.0314
vn -0.7730 -0.0000 0.6344
vn -0.1165 0.9886 0.0956
vn -0.2005 0.9658 0.1645
vn -0.2947 0.9245 0.2418
vn -0.4036 0.8529 0.3312
vn -0.1329 0.9886 0.0710
vn -0.2287 0.9658 0.1223
vn -0.3362 0.9245 0.1797
vn -0.4605 0.8529 0.2461
vn -0.6040 0.7286 0.3229
vn -0.7550 0.5169 0.4035
vn -0.8654 0.1924 0.4626
vn -0.0436 0.9988 0.0233
vn -0.8819 -0.0000 0.4714
vn -0.6554 0.7286 0.1988
vn -0.8192 0.5169 0.2485
vn -0.9391 0.1924 0.2849
vn -0.0473 0.9988 0.0143
vn -0.9569 -0.0000 0.2903
vn -0.1442 0.9886 0.0437
vn -0.2482 0.9658 0.0753
vn -0.3648 0.9245 0.1107
vn -0.4996 0.8529 0.1516
vn -0.2581 0.9658 0.0254
vn -0.3794 0.9245 0.0374
vn -0.5196 0.8529 0.0512
vn -0.6816 0.7286 0.0671
vn -0.8519 0.5169 0.0839
vn -0.9766 0.1924 0.0962
vn -0.0492 0.9988 0.0048
vn -0.9952 -0.0000 0.0980
vn -0.1499 0.9886 0.0148
vn -0.8519 0.5169 -0.0839
vn -0.9766 0.1924 -0.0962
vn -0.0492 0.9988 -0.0048
vn -0.9952 -0.0000 -0.0980
vn -0.1499 0.9886 -0.0148
vn -0.2581 0.9658 -0.0254
vn -0.3794 0.9245 -0.0374
vn -0.5196 0.8529 -0.0512
vn -0.6816 0.7286 -0.0671
vn -0.2482 0.9658 -0.0753
vn -0.3648 0.9245 -0.1107
vn -0.4996 0.8529 -0.1516
vn -0.6554 0.7286 -0.1988
vn -0.8192 0.5169 -0.2485
vn -0.9391 0.1924 -0.2849
vn -0.0473 0.9988 -0.0143
vn -0.9569 -0.0000 -0.2903
vn -0.1442 0.9886 -0.0437
vn -0.7550 0.5169 -0.4035
vn -0.8654 0.1924 -0.4626
vn -0.0436 0.9988 -0.0233
vn -0.8819 -0.0000 -0.4714
vn -0.1329 0.9886 -0.0710
vn -0.2287 0.9658 -0.1223
vn -0.3362 0.9245 -0.1797
vn -0.4605 0.8529 -0.2461
vn -0.6040 0.7286 -0.3229
vn -0.2947 0.9245 -0.2418
vn -0.4036 0.8529 -0.3312
vn -0.5294 0.7286 -0.4345
vn -0.6617 0.5169 -0.5431
vn -0.7586 0.1924 -0.6225
vn -0.0382 0.9988 -0.0314
vn -0.7730 -0.0000 -0.6344
vn -0.1165 0.9886 -0.0956
vn -0.2005 0.9658 -0.1645
vn -0.6225 0.1924 -0.7586
vn -0.0314 0.9988 -0.0382
vn -0.6344 -0.0000 -0.7730
vn -0.0956 0.9886 -0.1165
vn -0.1645 0.9658 -0.2005
vn -0.2418 0.9245 -0.2947
vn -0.3312 0.8529 -0.4036
vn -0.4345 0.7286 -0.5294
vn -0.5431 0.5169 -0.6617
vn -0.2461 0.8529 -0.4605
vn -0.3229 0.7286 -0.6040
vn -0.4035 0.5169 -0.7550
vn -0.4626 0.1924 -0.8654
vn -0.0233 0.9988 -0.0436
vn -0.4714 -0.0000 -0.8819
vn -0.0710 0.9886 -0.1329
vn -0.1223 0.9658 -0.2287
vn -0.1797 0.9245 -0.3362
vn -0.0144 0.9988 -0.0473
vn -0.2903 -0.0000 -0.9569
vn -0.0437 0.9886 -0.1442
vn -0.0753 0.9658 -0.2482
vn -0.1107 0.9245 -0.3648
vn -0.1516 0.8529 -0.4996
vn -0.1988 0.7286 -0.6554
vn -0.2485 0.5169 -0.8192
vn -0.2849 0.1924 -0.9391
vn -0.0512 0.8529 -0.5196
vn -0.0671 0.7286 -0.6816
vn -0.0839 0.5169 -0.8519
vn -0.0962 0.1924 -0.9766
vn -0.0048 0.9988 -0.0492
vn -0.0980 -0.0000 -0.9952
vn -0.0148 0.9886 -0.1499
vn -0.0254 0.9658 -0.2581
vn -0.0374 0.9245 -0.3794
vn 0.0980 -0.0000 -0.9952
vn 0.0148 0.9886 -0.1499
vn 0.0254 0.9658 -0.2581
vn 0.0374 0.9245 -0.3794
vn 0.0512 0.8529 -0.5196
vn 0.0671 0.7286 -0.6816
vn 0.0839 0.5169 -0.8519
vn 0.0962 0.1924 -0.9766
vn 0.0048 0.9988 -0.0492
vn 0.1988 0.7286 -0.6554
vn 0.2485 0.5169 -0.8192
vn 0.2849 0.1924 -0.9391
vn 0.0144 0.9988 -0.0473
vn 0.2903 -0.0000 -0.9569
vn 0.0437 0.9886 -0.1442
vn 0.0753 0.9658 -0.2482
vn 0.1107 0.9245 -0.3648
vn 0.1516 0.8529 -0.4996
vn 0.0710 0.9886 -0.1329
vn 0.1223 0.9658 -0.2287
vn 0.1797 0.9245 -0.3362
vn 0.2461 0.8529 -0.4605
vn 0.3229 0.7286 -0.6040
vn 0.4035 0.5169 -0.7550
vn 0.4626 0.1924 -0.8654
vn 0.0233 0.9988 -0.0436
vn 0.4714 -0.0000 -0.8819
vn 0.4345 0.7286 -0.5294
vn 0.5431 0.5169 -0.6617
vn 0.6225 0.1924 -0.7586
vn 0.0314 0.9988 -0.0382
vn 0.6344 -0.0000 -0.7730
vn 0.0956 0.9886 -0.1165
vn 0.1645 0.9658 -0.2005
vn 0.2418 0.9245 -0.2947
vn 0.3312 0.8529 -0.4036
vn 0.2005 0.9658 -0.1645
vn 0.2947 0.9245 -0.2418
vn 0.4036 0.8529 -0.3312
vn 0.5294 0.7286 -0.4345
vn 0.6617 0.5169 -0.5431
vn 0.7586 0.1924 -0.6225
vn 0.0382 0.9988 -0.0314
vn 0.7730 -0.0000 -0.6344
vn 0.1165 0.9886 -0.0956
vn 0.7550 0.5169 -0.4035
vn 0.8655 0.1924 -0.4626
vn 0.0436 0.9988 -0.0233
vn 0.8819 -0.0000 -0.4714
vn 0.1329 0.9886 -0.0710
vn 0.2287 0.9658 -0.1223
vn 0.3362 0.9245 -0.1797
vn 0.4605 0.8529 -0.2461
vn 0.6040 0.7286 -0.3229
vn 0.3648 0.9245 -0.1107
vn 0.4996 0.8529 -0.1516
vn 0.6554 0.7286 -0.1988
vn 0.8192 0.5169 -0.2485
vn 0.9391 0.1924 -0.2849
vn 0.0473 0.9988 -0.0143
vn 0.9569 -0.0000 -0.2903
vn 0.1442 0.9886 -0.0437
vn 0.2482 0.9658 -0.0753
vn 0.9766 0.1924 -0.0962
vn 0.0492 0.9988 -0.0048
vn 0.9952 -0.0000 -0.0980
vn 0.1499 0.9886 -0.0148
vn 0.2581 0.9658 -0.0254
vn 0.3794 0.9245 -0.0374
vn 0.5196 0.8529 -0.0512
vn 0.6816 0.7286 -0.0671
vn 0.8519 0.5169 -0.0839
vn 0.3794 0.9245 0.0374
vn 0.5196 0.8529 0.0512
vn 0.6816 0.7286 0.0671
vn 0.8519 0.5169 0.0839
vn 0.9766 0.1924 0.0962
vn 0.0492 0.9988 0.0048
vn 0.9952 -0.0000 0.0980
vn 0.1499 0.9886 0.0148
vn 0.2581 0.9658 0.0254
vn 0.9391 0.1924 0.2849
vn 0.0473 0.9988 0.0143
vn 0.9569 -0.0000 0.2903
vn 0.1442 0.9886 0.0437
vn 0.2482 0.9658 0.0753
vn 0.3648 0.9245 0.1107
vn 0.4996 0.8529 0.1516
vn 0.6554 0.7286 0.1988
vn 0.8192 0.5169 0.2485
vn 0.4605 0.8529 0.2461
vn 0.6040 0.7286 0.3229
vn 0.7550 0.5169 0.4035
vn 0.8654 0.1924 0.4626
vn 0.0436 0.9988 0.0233
vn 0.8819 -0.0000 0.4714
vn 0.1329 0.9886 0.0710
vn 0.2287 0.9658 0.1223
vn 0.3362 0.9245 0.1797
vn 0.0382 0.9988 0.0314
vn 0.7730 -0.0000 0.6344
vn 0.1165 0.9886 0.0956
vn 0.2005 0.9658 0.1645
vn 0.2947 0.9245 0.2418
vn 0.4036 0.8529 0.3312
vn 0.5294 0.7286 0.4345
vn 0.6617 0.5169 0.5431
vn 0.7586 0.1924 0.6225
vn 0.3312 0.8529 0.4036
vn 0.4345 0.7286 0.5294
vn 0.5431 0.5169 0.6617
vn 0.6225 0.1924 0.7586
vn 0.0314 0.9988 0.0382
vn 0.6344 -0.0000 0.7730
vn 0.0956 0.9886 0.1165
vn 0.1645 0.9658 0.2005
vn 0.2418 0.9245 0.2947
vn 0.4714 -0.0000 0.8819
vn 0.0710 0.9886 0.1329
vn 0.1223 0.9658 0.2287
vn 0.1797 0.9245 0.3362
vn 0.2461 0.8529 0.4605
vn 0.3229 0.7286 0.6040
vn 0.4035 0.5169 0.7550
vn 0.4626 0.1924 0.8654
vn 0.0233 0.9988 0.0436
vn 0.1988 0.7286 0.6554
vn 0.2485 0.5169 0.8192
vn 0.2849 0.1924 0.9391
vn 0.0143 0.9988 0.0473
vn 0.2903 -0.0000 0.9569
vn 0.0437 0.9886 0.1442
vn 0.0753 0.9658 0.2482
vn 0.1107 0.9245 0.3648
vn 0.1516 0.8529 0.4996
vn 0.0254 0.9658 0.2581
vn 0.0374 0.9245 0.3794
vn 0.0512 0.8529 0.5196
vn 0.0671 0.7286 0.6816
vn 0.0839 0.5169 0.8519
vn 0.0962 0.1924 0.9766
vn 0.0048 0.9988 0.0492
vn 0.0980 -0.0000 0.9952
vn 0.0148 0.9886 0.1499
vn -0.0000 -1.0000 -0.0000
vn 0.0155 -0.9874 -0.1576
vn 0.0267 -0.9623 -0.2707
vn 0.0390 -0.9173 -0.3962
vn 0.0531 -0.8406 -0.5391
vn 0.0689 -0.7108 -0.7000
vn 0.0979 -0.0487 -0.9940
vn 0.0051 -0.9986 -0.0518
vn 0.0151 -0.9986 -0.0498
vn 0.0460 -0.9874 -0.1516
vn 0.0790 -0.9623 -0.2603
vn 0.1156 -0.9173 -0.3810
vn 0.1572 -0.8406 -0.5184
vn 0.2042 -0.7109 -0.6731
vn 0.2899 -0.0487 -0.9558
vn 0.2553 -0.8406 -0.4777
vn 0.3316 -0.7109 -0.6203
vn 0.4708 -0.0487 -0.8809
vn 0.0245 -0.9986 -0.0459
vn 0.0747 -0.9874 -0.1397
vn 0.1282 -0.9623 -0.2399
vn 0.1877 -0.9173 -0.3511
vn 0.1005 -0.9874 -0.1224
vn 0.1726 -0.9623 -0.2103
vn 0.2526 -0.9173 -0.3078
vn 0.3436 -0.8406 -0.4187
vn 0.4462 -0.7109 -0.5437
vn 0.6336 -0.0487 -0.7721
vn 0.0330 -0.9986 -0.0402
vn 0.5437 -0.7109 -0.4462
vn 0.7721 -0.0487 -0.6336
vn 0.0402 -0.9986 -0.0330
vn 0.1224 -0.9874 -0.1005
vn 0.2103 -0.9623 -0.1726
vn 0.3078 -0.9173 -0.2526
vn 0.4187 -0.8406 -0.3436
vn 0.1397 -0.9874 -0.0747
vn 0.2399 -0.9623 -0.1282
vn 0.3511 -0.9173 -0.1877
vn 0.4777 -0.8406 -0.2553
vn 0.6203 -0.7109 -0.3316
vn 0.8809 -0.0487 -0.4708
vn 0.0459 -0.9986 -0.0245
vn 0.6731 -0.7109 -0.2042
vn 0.9558 -0.0487 -0.2899
vn 0.0498 -0.9986 -0.0151
vn 0.1516 -0.9874 -0.0460
vn 0.2603 -0.9623 -0.0790
vn 0.3810 -0.9173 -0.1156
vn 0.5184 -0.8406 -0.1572
vn 0.2707 -0.9623 -0.0267
vn 0.3962 -0.9173 -0.0390
vn 0.5391 -0.8406 -0.0531
vn 0.7000 -0.7109 -0.0689
vn 0.9940 -0.0487 -0.0979
vn 0.0518 -0.9986 -0.0051
vn 0.1576 -0.9874 -0.0155
vn 0.9940 -0.0487 0.0979
vn 0.0518 -0.9986 0.0051
vn 0.1576 -0.9874 0.0155
vn 0.2707 -0.9623 0.0267
vn 0.3962 -0.9173 0.0390
vn 0.5391 -0.8406 0.0531
vn 0.7000 -0.7109 0.0689
vn 0.2603 -0.9623 0.0790
vn 0.3810 -0.9173 0.1156
vn 0.5184 -0.8406 0.1572
vn 0.6731 -0.7109 0.2042
vn 0.9558 -0.0487 0.2899
vn 0.0498 -0.9986 0.0151
vn 0.1516 -0.9874 0.0460
vn 0.8809 -0.0487 0.4708
vn 0.0459 -0.9986 0.0245
vn 0.1397 -0.9874 0.0747
vn 0.2399 -0.9623 0.1282
vn 0.3511 -0.9173 0.1877
vn 0.4777 -0.8406 0.2554
vn 0.6203 -0.7109 0.3316
vn 0.3078 -0.9173 0.2526
vn 0.4187 -0.8406 0.3436
vn 0.5437 -0.7109 0.4462
vn 0.7721 -0.0487 0.6336
vn 0.0402 -0.9986 0.0330
vn 0.1224 -0.9874 0.1005
vn 0.2103 -0.9623 0.1726
vn 0.0330 -0.9986 0.0402
vn 0.1005 -0.9874 0.1224
vn 0.1726 -0.9623 0.2103
vn 0.2526 -0.9173 0.3078
vn 0.3436 -0.8406 0.4187
vn 0.4462 -0.7109 0.5437
vn 0.6336 -0.0487 0.7721
vn 0.2554 -0.8406 0.4777
vn 0.3316 -0.7109 0.6203
vn 0.4708 -0.0487 0.8809
vn 0.0245 -0.9986 0.0459
vn 0.0747 -0.9874 0.1397
vn 0.1282 -0.9623 0.2399
vn 0.1877 -0.9173 0.3511
vn 0.0151 -0.9986 0.0498
vn 0.0460 -0.9874 0.1516
vn 0.0790 -0.9623 0.2603
vn 0.1156 -0.9173 0.3810
vn 0.1572 -0.8406 0.5184
vn 0.2042 -0.7109 0.6731
vn 0.2899 -0.0487 0.9558
vn 0.0531 -0.8406 0.5391
vn 0.0689 -0.7109 0.7000
vn 0.0979 -0.0487 0.9940
vn 0.0051 -0.9986 0.0518
vn 0.0155 -0.9874 0.1576
vn 0.0267 -0.9623 0.2707
vn 0.0390 -0.9173 0.3962
vn -0.0155 -0.9874 0.1576
vn -0.0267 -0.9623 0.2707
vn -0.0390 -0.9173 0.3962
vn -0.0531 -0.8406 0.5391
vn -0.0689 -0.7109 0.7000
vn -0.0979 -0.0487 0.9940
vn -0.0051 -0.9986 0.0518
vn -0.2042 -0.7109 0.6731
vn -0.2899 -0.0487 0.9558
vn -0.0151 -0.9986 0.0498
vn -0.0460 -0.9874 0.1516
vn -0.0790 -0.9623 0.2603
vn -0.1156 -0.9173 0.3810
vn -0.1572 -0.8406 0.5184
vn -0.0747 -0.9874 0.1397
vn -0.1282 -0.9623 0.2399
vn -0.1877 -0.9173 0.3511
vn -0.2553 -0.8406 0.4777
vn -0.3316 -0.7109 0.6203
vn -0.4708 -0.0487 0.8809
vn -0.0245 -0.9986 0.0459
vn -0.4462 -0.7109 0.5437
vn -0.6336 -0.0487 0.7721
vn -0.0330 -0.9986 0.0402
vn -0.1005 -0.9874 0.1224
vn -0.1726 -0.9623 0.2103
vn -0.2526 -0.9173 0.3078
vn -0.3436 -0.8406 0.4187
vn -0.2103 -0.9623 0.1726
vn -0.3078 -0.9173 0.2526
vn -0.4187 -0.8406 0.3436
vn -0.5437 -0.7109 0.4462
vn -0.7721 -0.0487 0.6336
vn -0.0402 -0.9986 0.0330
vn -0.1224 -0.9874 0.1005
vn -0.8809 -0.0487 0.4708
vn -0.0459 -0.9986 0.0245
vn -0.1397 -0.9874 0.0747
vn -0.2399 -0.9623 0.1282
vn -0.3511 -0.9173 0.1877
vn -0.4777 -0.8406 0.2553
vn -0.6203 -0.7109 0.3316
vn -0.3810 -0.9173 0.1156
vn -0.5184 -0.8406 0.1572
vn -0.6731 -0.7109 0.2042
vn -0.9558 -0.0487 0.2899
vn -0.0498 -0.9986 0.0151
vn -0.1516 -0.9874 0.0460
vn -0.2603 -0.9623 0.0790
vn -0.0518 -0.9986 0.0051
vn -0.1576 -0.9874 0.0155
vn -0.2707 -0.9623 0.0267
vn -0.3962 -0.9173 0.0390
vn -0.5391 -0.8406 0.0531
vn -0.7000 -0.7109 0.0689
vn -0.9940 -0.0487 0.0979
vn -0.3962 -0.9173 -0.0390
vn -0.5391 -0.8406 -0.0531
vn -0.7000 -0.7109 -0.0689
vn -0.9940 -0.0487 -0.0979
vn -0.0518 -0.9986 -0.0051
vn -0.1576 -0.9874 -0.0155
vn -0.2707 -0.9623 -0.0267
vn -0.0498 -0.9986 -0.0151
vn -0.1516 -0.9874 -0.0460
vn -0.2603 -0.9623 -0.0790
vn -0.3810 -0.9173 -0.1156
vn -0.5184 -0.8406 -0.1572
vn -0.6731 -0.7109 -0.2042
vn -0.9558 -0.0487 -0.2899
vn -0.4777 -0.8406 -0.2553
vn -0.6203 -0.7109 -0.3316
vn -0.8809 -0.0487 -0.4708
vn -0.0459 -0.9986 -0.0245
vn -0.1397 -0.9874 -0.0747
vn -0.2399 -0.9623 -0.1282
vn -0.3511 -0.9173 -0.1877
vn -0.0402 -0.9986 -0.0330
vn -0.1224 -0.9874 -0.1005
vn -0.2103 -0.9623 -0.1726
vn -0.3078 -0.9173 -0.2526
vn -0.4187 -0.8406 -0.3436
vn -0.5437 -0.7109 -0.4462
vn -0.7721 -0.0487 -0.6336
vn -0.3436 -0.8406 -0.4187
vn -0.4462 -0.7109 -0.5437
vn -0.6336 -0.0487 -0.7721
vn -0.0330 -0.9986 -0.0402
vn -0.1005 -0.9874 -0.1224
vn -0.1726 -0.9623 -0.2103
vn -0.2526 -0.9173 -0.3078
vn -0.0747 -0.9874 -0.1397
vn -0.1282 -0.9623 -0.2399
vn -0.1877 -0.9173 -0.3511
vn -0.2554 -0.8406 -0.4777
vn -0.3316 -0.7109 -0.6203
vn -0.4708 -0.0487 -0.8809
vn -0.0245 -0.9986 -0.0459
vn -0.2042 -0.7109 -0.6731
vn -0.2899 -0.0487 -0.9558
vn -0.0151 -0.9986 -0.0498
vn -0.0460 -0.9874 -0.1516
vn -0.0790 -0.9623 -0.2603
vn -0.1156 -0.9173 -0.3810
vn -0.1572 -0.8406 -0.5184
vn -0.0267 -0.9623 -0.2707
vn -0.0390 -0.9173 -0.3962
vn -0.0531 -0.8406 -0.5391
vn -0.0689 -0.7109 -0.7000
vn -0.0979 -0.0487 -0.9940
vn -0.0051 -0.9986 -0.0518
vn -0.0155 -0.9874 -0.1576
vn 0.8654 0.1924 -0.4626
vn 0.0689 -0.7109 -0.7000
vn 0.4777 -0.8406 0.2553
vn 0.1225 -0.9874 0.1005
vn 0.2553 -0.8406 0.4777
vn -0.1225 -0.9874 -0.1005
vt 0.621607 0.143403
vt 0.605535 0.171033
vt 0.609783 0.140852
vt 0.629780 0.115487
vt 0.612593 0.112487
vt 0.636186 0.089829
vt 0.614324 0.086688
vt 0.615450 0.063817
vt 0.641076 0.066942
vt 0.644907 0.046928
vt 0.616114 0.043813
vt 0.648061 0.029262
vt 0.616720 0.026062
vt 0.617268 0.009242
vt 0.650891 0.012824
vt 0.611516 0.172603
vt 0.599711 0.202180
vt 0.391182 0.070846
vt 0.237384 0.101518
vt 0.237384 0.070846
vt 0.583122 0.010705
vt 0.599418 0.170643
vt 0.391182 0.101518
vt 0.237384 0.132190
vt 0.597890 0.140560
vt 0.595505 0.112624
vt 0.592749 0.087353
vt 0.590005 0.064938
vt 0.587481 0.045233
vt 0.585237 0.027594
vt 0.565331 0.070300
vt 0.559509 0.051407
vt 0.554290 0.034411
vt 0.549106 0.017778
vt 0.593394 0.171418
vt 0.391182 0.132190
vt 0.237384 0.162861
vt 0.586310 0.142457
vt 0.578965 0.115775
vt 0.571878 0.091705
vt 0.391182 0.162861
vt 0.237384 0.193533
vt 0.575404 0.146420
vt 0.563438 0.121779
vt 0.552261 0.099543
vt 0.542083 0.079800
vt 0.533112 0.062314
vt 0.524845 0.046439
vt 0.516821 0.031253
vt 0.587673 0.173304
vt 0.509080 0.077547
vt 0.498140 0.063570
vt 0.487597 0.050118
vt 0.582460 0.176224
vt 0.391182 0.193533
vt 0.237384 0.224204
vt 0.565510 0.152287
vt 0.549342 0.130425
vt 0.534452 0.110683
vt 0.520997 0.093149
vt 0.556911 0.159823
vt 0.537164 0.141408
vt 0.519071 0.124808
vt 0.502735 0.110009
vt 0.488246 0.096839
vt 0.475022 0.085098
vt 0.462287 0.073780
vt 0.577921 0.180049
vt 0.391182 0.224204
vt 0.237384 0.254876
vt 0.471263 0.119511
vt 0.456179 0.110361
vt 0.441646 0.101528
vt 0.574188 0.184631
vt 0.391182 0.254876
vt 0.237384 0.285548
vt 0.549911 0.168753
vt 0.527243 0.154349
vt 0.506516 0.141353
vt 0.487834 0.129830
vt 0.544708 0.178771
vt 0.519888 0.168821
vt 0.497214 0.159854
vt 0.476807 0.151949
vt 0.458683 0.144820
vt 0.442220 0.138561
vt 0.426348 0.132504
vt 0.571394 0.189807
vt 0.391182 0.316219
vt 0.237384 0.316219
vt 0.450920 0.171946
vt 0.433615 0.168789
vt 0.416919 0.165719
vt 0.569625 0.195394
vt 0.237384 0.346891
vt 0.541461 0.189533
vt 0.515328 0.184341
vt 0.491461 0.179690
vt 0.470005 0.175650
vt 0.540270 0.200678
vt 0.513692 0.200400
vt 0.489436 0.200202
vt 0.467649 0.200150
vt 0.448237 0.199996
vt 0.430664 0.200052
vt 0.413697 0.200081
vt 0.568951 0.201193
vt 0.391182 0.346891
vt 0.237384 0.377562
vt 0.450730 0.228029
vt 0.433480 0.231304
vt 0.416814 0.234440
vt 0.569358 0.207003
vt 0.391182 0.377562
vt 0.237384 0.408234
vt 0.541157 0.211816
vt 0.515050 0.216436
vt 0.491199 0.220709
vt 0.469817 0.224621
vt 0.496761 0.240475
vt 0.476449 0.248253
vt 0.458326 0.255108
vt 0.441981 0.261492
vt 0.426181 0.267635
vt 0.570855 0.212616
vt 0.391182 0.408234
vt 0.237384 0.438906
vt 0.544082 0.222583
vt 0.519336 0.231915
vt 0.455880 0.289587
vt 0.441492 0.298527
vt 0.573358 0.217849
vt 0.391182 0.438906
vt 0.237384 0.469577
vt 0.548949 0.232591
vt 0.526379 0.246324
vt 0.505777 0.258875
vt 0.487298 0.270260
vt 0.470760 0.280313
vt 0.518031 0.275282
vt 0.501989 0.289861
vt 0.487602 0.302774
vt 0.474700 0.314617
vt 0.462218 0.326046
vt 0.576791 0.222517
vt 0.391182 0.469577
vt 0.237384 0.500249
vt 0.555571 0.241520
vt 0.535952 0.259160
vt 0.581033 0.226460
vt 0.391182 0.500249
vt 0.237384 0.530920
vt 0.563729 0.249052
vt 0.547713 0.270008
vt 0.533086 0.289135
vt 0.520019 0.306401
vt 0.508271 0.321724
vt 0.497785 0.335725
vt 0.487637 0.349242
vt 0.550420 0.299967
vt 0.540763 0.319322
vt 0.532046 0.336525
vt 0.524327 0.352195
vt 0.516855 0.367326
vt 0.585942 0.229527
vt 0.391182 0.530920
vt 0.237384 0.561592
vt 0.573132 0.254951
vt 0.561267 0.278487
vt 0.391182 0.561592
vt 0.237384 0.592264
vt 0.583465 0.259005
vt 0.576145 0.284321
vt 0.569436 0.307420
vt 0.563504 0.328199
vt 0.558102 0.346686
vt 0.553402 0.363480
vt 0.548848 0.379697
vt 0.591333 0.231639
vt 0.585539 0.351885
vt 0.583998 0.369225
vt 0.582498 0.385966
vt 0.597031 0.232693
vt 0.391182 0.592264
vt 0.237384 0.622935
vt 0.594373 0.261085
vt 0.591841 0.287318
vt 0.589483 0.311252
vt 0.587460 0.332747
vt 0.605494 0.261101
vt 0.607824 0.287391
vt 0.609885 0.311351
vt 0.611816 0.332838
vt 0.613418 0.351978
vt 0.615064 0.369273
vt 0.616643 0.385966
vt 0.602831 0.232679
vt 0.391182 0.622935
vt 0.237384 0.653607
vt 0.640800 0.347000
vt 0.645550 0.363674
vt 0.650123 0.379758
vt 0.608539 0.231581
vt 0.391182 0.653607
vt 0.237384 0.684278
vt 0.616443 0.259078
vt 0.623563 0.284524
vt 0.629963 0.307728
vt 0.635756 0.328495
vt 0.626855 0.255051
vt 0.638533 0.278835
vt 0.649065 0.300522
vt 0.658485 0.319899
vt 0.666781 0.337164
vt 0.674445 0.352672
vt 0.681825 0.367622
vt 0.613955 0.229431
vt 0.391182 0.714950
vt 0.391182 0.684278
vt 0.690535 0.322832
vt 0.700826 0.336694
vt 0.710729 0.350041
vt 0.618892 0.226295
vt 0.237384 0.745622
vt 0.237384 0.714950
vt 0.636384 0.249178
vt 0.652248 0.270489
vt 0.666522 0.289934
vt 0.679288 0.307338
vt 0.681859 0.276424
vt 0.697539 0.291276
vt 0.711337 0.304531
vt 0.723887 0.316334
vt 0.735948 0.327683
vt 0.623174 0.222275
vt 0.391182 0.776293
vt 0.391182 0.745622
vt 0.644707 0.241603
vt 0.664270 0.259788
vt 0.742967 0.292312
vt 0.756764 0.301360
vt 0.626647 0.217498
vt 0.391182 0.806965
vt 0.237384 0.776293
vt 0.651552 0.232600
vt 0.674225 0.247018
vt 0.694592 0.260342
vt 0.712681 0.272240
vt 0.728584 0.282888
vt 0.704351 0.242192
vt 0.724314 0.250820
vt 0.741835 0.258601
vt 0.757591 0.265434
vt 0.772666 0.271983
vt 0.629176 0.212119
vt 0.237384 0.837636
vt 0.237384 0.806965
vt 0.656663 0.222389
vt 0.681791 0.232605
vt 0.767483 0.236544
vt 0.783370 0.240513
vt 0.630644 0.206309
vt 0.391182 0.837636
vt 0.237384 0.868308
vt 0.659862 0.211352
vt 0.686725 0.216891
vt 0.710871 0.222468
vt 0.732170 0.227630
vt 0.750817 0.232401
vt 0.713975 0.201677
vt 0.736111 0.203264
vt 0.755434 0.204992
vt 0.772581 0.206463
vt 0.788841 0.207899
vt 0.631001 0.200280
vt 0.391182 0.868308
vt 0.237384 0.898979
vt 0.660991 0.199734
vt 0.688841 0.200312
vt 0.630183 0.194228
vt 0.391182 0.898979
vt 0.237384 0.929651
vt 0.659924 0.187930
vt 0.687996 0.183353
vt 0.713546 0.180287
vt 0.736113 0.178231
vt 0.755762 0.176975
vt 0.773056 0.175914
vt 0.789318 0.175008
vt 0.709465 0.158647
vt 0.732208 0.152860
vt 0.752021 0.148700
vt 0.769345 0.145372
vt 0.785387 0.142535
vt 0.628195 0.188390
vt 0.391182 0.960323
vt 0.391182 0.929651
vt 0.656591 0.176263
vt 0.684045 0.166390
vt 0.391182 0.990994
vt 0.237384 0.960323
vt 0.625071 0.182981
vt 0.651010 0.165289
vt 0.676783 0.149837
vt 0.701479 0.136981
vt 0.724314 0.127287
vt 0.744384 0.119894
vt 0.762146 0.114638
vt 0.778220 0.110699
vt 0.691866 0.085910
vt 0.673553 0.054526
vt 0.702031 0.066178
vt 0.710015 0.048692
vt 0.679065 0.037052
vt 0.716382 0.032340
vt 0.683971 0.020681
vt 0.622166 0.179170
vt 0.617139 0.175337
vt 0.391182 0.040175
vt 0.237384 0.009503
vt 0.391182 0.009503
vt 0.643361 0.155367
vt 0.632949 0.148246
vt 0.662515 0.131249
vt 0.646550 0.121698
vt 0.657784 0.096790
vt 0.678614 0.107682
vt 0.666550 0.074285
vt 0.237384 0.040175
vt 0.419560 0.609486
vt 0.413577 0.548732
vt 0.424424 0.578335
vt 0.719007 0.518650
vt 0.724990 0.579403
vt 0.714143 0.549800
vt 0.790360 0.744325
vt 0.800206 0.771959
vt 0.794535 0.772312
vt 0.787081 0.717852
vt 0.801465 0.743879
vt 0.784496 0.693490
vt 0.803167 0.717482
vt 0.782455 0.671518
vt 0.805032 0.693243
vt 0.780747 0.651857
vt 0.806874 0.671380
vt 0.020281 0.115891
vt 0.183578 0.066658
vt 0.187264 0.094954
vt 0.799554 0.801092
vt 0.805815 0.772699
vt 0.812370 0.745528
vt 0.818913 0.720093
vt 0.825125 0.696757
vt 0.830796 0.675695
vt 0.835990 0.656662
vt 0.023502 0.142618
vt 0.190678 0.123284
vt 0.853598 0.684099
vt 0.844172 0.703816
vt 0.862081 0.666458
vt 0.026466 0.169374
vt 0.193820 0.151645
vt 0.811154 0.774493
vt 0.822706 0.749180
vt 0.833821 0.725535
vt 0.832125 0.754688
vt 0.847409 0.733617
vt 0.861533 0.714248
vt 0.874445 0.696629
vt 0.886012 0.680722
vt 0.029173 0.196157
vt 0.196690 0.180035
vt 0.816034 0.777265
vt 0.907010 0.699220
vt 0.892670 0.712766
vt 0.199287 0.208451
vt 0.031624 0.222966
vt 0.820281 0.780907
vt 0.859233 0.744060
vt 0.876713 0.727646
vt 0.846977 0.770410
vt 0.840310 0.761851
vt 0.868878 0.756521
vt 0.889148 0.743668
vt 0.907585 0.732012
vt 0.924246 0.721359
vt 0.033817 0.249796
vt 0.201612 0.236891
vt 0.823747 0.785283
vt 0.937061 0.746420
vt 0.203664 0.265352
vt 0.035752 0.276647
vt 0.826308 0.790231
vt 0.851895 0.780058
vt 0.875996 0.770567
vt 0.898264 0.761773
vt 0.880343 0.785698
vt 0.903900 0.781249
vt 0.918650 0.753768
vt 0.944933 0.773521
vt 0.037430 0.303514
vt 0.205442 0.293831
vt 0.827872 0.795568
vt 0.854893 0.790454
vt 0.038850 0.330397
vt 0.206947 0.322326
vt 0.828387 0.801099
vt 0.855871 0.801219
vt 0.881755 0.801379
vt 0.905741 0.801466
vt 0.925432 0.777269
vt 0.947529 0.801660
vt 0.854787 0.811971
vt 0.903711 0.821679
vt 0.880167 0.817044
vt 0.927649 0.801643
vt 0.925200 0.826015
vt 0.944733 0.829810
vt 0.208179 0.350834
vt 0.040012 0.357292
vt 0.827838 0.806623
vt 0.209137 0.379353
vt 0.040916 0.384197
vt 0.826250 0.811939
vt 0.851677 0.822319
vt 0.897875 0.841149
vt 0.875632 0.832123
vt 0.918161 0.849494
vt 0.936630 0.856939
vt 0.888441 0.859162
vt 0.906777 0.871220
vt 0.923503 0.882050
vt 0.041562 0.411109
vt 0.209821 0.407880
vt 0.823676 0.816852
vt 0.846655 0.831886
vt 0.868313 0.846068
vt 0.820209 0.821180
vt 0.839904 0.840325
vt 0.875746 0.875058
vt 0.905824 0.904215
vt 0.891459 0.890391
vt 0.210232 0.436411
vt 0.041949 0.438026
vt 0.860252 0.888251
vt 0.884237 0.922615
vt 0.042078 0.464946
vt 0.210369 0.464946
vt 0.815978 0.824767
vt 0.846465 0.868571
vt 0.858473 0.858367
vt 0.811141 0.827482
vt 0.822239 0.852624
vt 0.831662 0.847318
vt 0.832732 0.876308
vt 0.842524 0.898258
vt 0.872763 0.906302
vt 0.859531 0.936569
vt 0.210232 0.493480
vt 0.041949 0.491865
vt 0.851373 0.918365
vt 0.823211 0.904708
vt 0.832616 0.945563
vt 0.041562 0.518783
vt 0.209821 0.522012
vt 0.805872 0.829224
vt 0.811973 0.856029
vt 0.817774 0.881288
vt 0.801242 0.857418
vt 0.803018 0.907367
vt 0.828072 0.926136
vt 0.804480 0.949268
vt 0.040916 0.545695
vt 0.209137 0.550538
vt 0.800365 0.829927
vt 0.803715 0.929332
vt 0.776156 0.947552
vt 0.779195 0.927837
vt 0.040012 0.572600
vt 0.208179 0.579057
vt 0.794820 0.829565
vt 0.790438 0.856738
vt 0.786382 0.882364
vt 0.802133 0.883332
vt 0.782683 0.906138
vt 0.779954 0.854013
vt 0.771093 0.878419
vt 0.762948 0.901070
vt 0.755407 0.921713
vt 0.748683 0.940488
vt 0.038850 0.599495
vt 0.206947 0.607565
vt 0.789441 0.828149
vt 0.723061 0.928347
vt 0.733216 0.911192
vt 0.037430 0.626377
vt 0.205442 0.636060
vt 0.784427 0.825725
vt 0.770165 0.849350
vt 0.744528 0.892351
vt 0.756823 0.871647
vt 0.761435 0.842893
vt 0.728087 0.880301
vt 0.700215 0.911588
vt 0.713420 0.896667
vt 0.035753 0.653245
vt 0.203664 0.664540
vt 0.779960 0.822387
vt 0.033817 0.680095
vt 0.201612 0.693000
vt 0.776205 0.818248
vt 0.754067 0.834886
vt 0.733334 0.850670
vt 0.744084 0.862281
vt 0.714210 0.865362
vt 0.680956 0.890836
vt 0.703383 0.848069
vt 0.696725 0.878675
vt 0.665952 0.866859
vt 0.031624 0.706926
vt 0.199287 0.721440
vt 0.773305 0.813458
vt 0.748348 0.825608
vt 0.771372 0.808184
vt 0.744472 0.815394
vt 0.724954 0.837213
vt 0.695979 0.829040
vt 0.683709 0.857873
vt 0.655704 0.840529
vt 0.029173 0.733734
vt 0.196690 0.749857
vt 0.692239 0.808937
vt 0.719241 0.822400
vt 0.670312 0.810892
vt 0.674812 0.835010
vt 0.650522 0.812787
vt 0.026466 0.760518
vt 0.193820 0.778247
vt 0.770478 0.802623
vt 0.742592 0.804581
vt 0.770671 0.796968
vt 0.742787 0.793569
vt 0.716394 0.806735
vt 0.692279 0.788444
vt 0.650521 0.784596
vt 0.670324 0.786346
vt 0.023502 0.787274
vt 0.190678 0.806608
vt 0.696084 0.768229
vt 0.655620 0.756896
vt 0.674801 0.762179
vt 0.020281 0.814000
vt 0.187264 0.834938
vt 0.771949 0.791434
vt 0.745081 0.782713
vt 0.719623 0.774984
vt 0.716518 0.790753
vt 0.774284 0.786224
vt 0.749419 0.772405
vt 0.703529 0.748922
vt 0.665549 0.730554
vt 0.683544 0.739135
vt 0.016803 0.840695
vt 0.183578 0.863233
vt 0.714411 0.731070
vt 0.679859 0.706302
vt 0.696230 0.717841
vt 0.013070 0.867355
vt 0.179621 0.891492
vt 0.777604 0.781533
vt 0.725633 0.759941
vt 0.755680 0.763029
vt 0.781801 0.777549
vt 0.734405 0.746115
vt 0.763713 0.754925
vt 0.728527 0.715104
vt 0.697937 0.684663
vt 0.009081 0.893978
vt 0.175393 0.919712
vt 0.753211 0.656680
vt 0.734809 0.684285
vt 0.726878 0.665939
vt 0.013070 0.062537
vt 0.175393 0.010179
vt 0.179621 0.038399
vt 0.783823 0.776277
vt 0.789003 0.773764
vt 0.779458 0.746882
vt 0.769136 0.751532
vt 0.771174 0.721205
vt 0.755861 0.727530
vt 0.764114 0.697407
vt 0.744460 0.704894
vt 0.758273 0.675908
vt 0.016803 0.089196
vt 0.391182 0.285548
vt 0.237384 0.990994
vt 0.708576 0.606322
vt 0.714143 0.578335
vt 0.719007 0.609486
vt 0.707269 0.637823
vt 0.690229 0.663325
vt 0.668541 0.685013
vt 0.643039 0.702053
vt 0.614702 0.713791
vt 0.584619 0.719775
vt 0.553948 0.719775
vt 0.523866 0.713791
vt 0.495529 0.702053
vt 0.470026 0.685013
vt 0.448338 0.663325
vt 0.431298 0.637823
vt 0.413577 0.579404
vt 0.419560 0.518650
vt 0.431298 0.490313
vt 0.448338 0.464810
vt 0.470026 0.443122
vt 0.495529 0.426082
vt 0.523865 0.414344
vt 0.553948 0.408361
vt 0.584619 0.408361
vt 0.614702 0.414344
vt 0.643038 0.426082
vt 0.668541 0.443122
vt 0.690229 0.464810
vt 0.707269 0.490313
vt 0.708576 0.521814
vt 0.697656 0.495451
vt 0.681803 0.471725
vt 0.697656 0.632684
vt 0.661626 0.451548
vt 0.681803 0.656410
vt 0.637900 0.435695
vt 0.661626 0.676587
vt 0.637900 0.692440
vt 0.611537 0.424775
vt 0.611537 0.703360
vt 0.583551 0.419209
vt 0.555016 0.419209
vt 0.583551 0.708927
vt 0.527030 0.424775
vt 0.555016 0.708927
vt 0.527030 0.703360
vt 0.500667 0.435695
vt 0.500667 0.692440
vt 0.476941 0.451548
vt 0.456764 0.471725
vt 0.476941 0.676587
vt 0.440911 0.495451
vt 0.456764 0.656410
vt 0.440911 0.632684
vt 0.429991 0.521814
vt 0.429991 0.606322
vt 0.424424 0.549800
vt 0.724990 0.548732
vt 0.808573 0.651857
vt 0.745746 0.733987
vt 0.712457 0.698723
vt 0.009081 0.035914
s 0
usemtl マテリアル
f 445/1/1 7/2/1 10/3/1
f 1/4/2 10/3/2 11/5/2
f 448/6/3 11/5/3 13/7/3
f 448/6/4 16/8/4 3/9/4
f 450/10/5 16/8/5 18/11/5
f 5/12/6 18/11/6 19/13/6
f 5/12/7 20/14/7 6/15/7
f 444/16/8 77/17/8 7/2/8
f 6/18/9 452/19/9 451/20/9
f 19/13/10 34/21/10 20/14/10
f 7/2/11 77/17/11 22/22/11
f 20/23/12 453/24/12 452/19/12
f 7/2/13 24/25/13 10/3/13
f 10/3/14 25/26/14 11/5/14
f 11/5/15 27/27/15 13/7/15
f 13/7/16 29/28/16 16/8/16
f 16/8/17 31/29/17 18/11/17
f 19/13/18 31/29/18 33/30/18
f 27/27/19 44/31/19 29/28/19
f 29/28/20 46/32/20 31/29/20
f 33/30/21 46/32/21 47/33/21
f 33/30/22 48/34/22 34/21/22
f 22/22/23 77/17/23 35/35/23
f 34/36/24 454/37/24 453/24/24
f 22/22/25 38/38/25 24/25/25
f 24/25/26 40/39/26 25/26/26
f 25/26/27 41/40/27 27/27/27
f 48/41/28 455/42/28 454/37/28
f 35/35/29 52/43/29 38/38/29
f 38/38/30 53/44/30 40/39/30
f 40/39/31 55/45/31 41/40/31
f 44/31/32 55/45/32 58/46/32
f 44/31/33 59/47/33 46/32/33
f 46/32/34 61/48/34 47/33/34
f 48/34/35 61/48/35 62/49/35
f 35/35/36 77/17/36 49/50/36
f 58/46/37 73/51/37 59/47/37
f 61/48/38 73/51/38 75/52/38
f 62/49/39 75/52/39 76/53/39
f 49/50/40 77/17/40 63/54/40
f 62/55/41 456/56/41 455/42/41
f 52/43/42 63/54/42 66/57/42
f 52/43/43 68/58/43 53/44/43
f 53/44/44 69/59/44 55/45/44
f 58/46/45 69/59/45 71/60/45
f 63/54/46 82/61/46 66/57/46
f 66/57/47 84/62/47 68/58/47
f 68/58/48 86/63/48 69/59/48
f 69/59/49 88/64/49 71/60/49
f 71/60/50 89/65/50 73/51/50
f 75/52/51 89/65/51 91/66/51
f 76/53/52 91/66/52 92/67/52
f 63/54/53 77/17/53 80/68/53
f 76/69/54 457/70/54 456/56/54
f 88/64/55 103/71/55 89/65/55
f 91/66/56 103/71/56 105/72/56
f 92/67/57 105/72/57 106/73/57
f 80/68/58 77/17/58 94/74/58
f 92/75/59 458/76/59 457/70/59
f 80/68/60 96/77/60 82/61/60
f 82/61/61 98/78/61 84/62/61
f 84/62/62 100/79/62 86/63/62
f 88/64/63 100/79/63 101/80/63
f 98/78/64 110/81/64 112/82/64
f 98/78/65 114/83/65 100/79/65
f 101/80/66 114/83/66 115/84/66
f 101/80/67 118/85/67 103/71/67
f 105/72/68 118/85/68 119/86/68
f 106/73/69 119/86/69 120/87/69
f 94/74/70 77/17/70 108/88/70
f 458/76/71 120/89/71 459/90/71
f 94/74/72 110/81/72 96/77/72
f 119/86/73 131/91/73 133/92/73
f 120/87/74 133/92/74 134/93/74
f 108/88/75 77/17/75 121/94/75
f 120/89/76 460/95/76 459/90/76
f 108/88/77 123/96/77 110/81/77
f 110/81/78 126/97/78 112/82/78
f 112/82/79 127/98/79 114/83/79
f 115/84/80 127/98/80 129/99/80
f 115/84/81 131/91/81 118/85/81
f 126/97/82 137/100/82 139/101/82
f 126/97/83 141/102/83 127/98/83
f 129/99/84 141/102/84 143/103/84
f 129/99/85 145/104/85 131/91/85
f 133/92/86 145/104/86 147/105/86
f 134/93/87 147/105/87 148/106/87
f 121/94/88 77/17/88 135/107/88
f 134/108/89 461/109/89 460/95/89
f 123/96/90 135/107/90 137/100/90
f 147/105/91 160/110/91 161/111/91
f 148/106/92 161/111/92 162/112/92
f 135/107/93 77/17/93 149/113/93
f 148/114/94 462/115/94 461/109/94
f 135/107/95 151/116/95 137/100/95
f 139/101/96 151/116/96 153/117/96
f 139/101/97 155/118/97 141/102/97
f 143/103/98 155/118/98 158/119/98
f 143/103/99 160/110/99 145/104/99
f 153/117/100 169/120/100 155/118/100
f 155/118/101 171/121/101 158/119/101
f 158/119/102 173/122/102 160/110/102
f 161/111/103 173/122/103 175/123/103
f 162/112/104 175/123/104 176/124/104
f 149/113/105 77/17/105 164/125/105
f 162/126/106 463/127/106 462/115/106
f 149/113/107 165/128/107 151/116/107
f 153/117/108 165/128/108 167/129/108
f 176/124/109 189/130/109 190/131/109
f 164/125/110 77/17/110 178/132/110
f 176/133/111 464/134/111 463/127/111
f 164/125/112 180/135/112 165/128/112
f 165/128/113 182/136/113 167/129/113
f 167/129/114 183/137/114 169/120/114
f 171/121/115 183/137/115 185/138/115
f 171/121/116 187/139/116 173/122/116
f 175/123/117 187/139/117 189/130/117
f 185/138/118 197/140/118 199/141/118
f 185/138/119 202/142/119 187/139/119
f 189/130/120 202/142/120 203/143/120
f 190/131/121 203/143/121 204/144/121
f 178/132/122 77/17/122 191/145/122
f 190/146/123 465/147/123 464/134/123
f 180/135/124 191/145/124 194/148/124
f 180/135/125 195/149/125 182/136/125
f 182/136/126 197/140/126 183/137/126
f 191/145/127 77/17/127 205/150/127
f 204/151/128 466/152/128 465/147/128
f 191/145/129 208/153/129 194/148/129
f 194/148/130 210/154/130 195/149/130
f 195/149/131 212/155/131 197/140/131
f 199/141/132 212/155/132 213/156/132
f 199/141/133 216/157/133 202/142/133
f 203/143/134 216/157/134 217/158/134
f 204/144/135 217/158/135 218/159/135
f 213/156/136 226/160/136 228/161/136
f 213/156/137 230/162/137 216/157/137
f 217/158/138 230/162/138 231/163/138
f 218/159/139 231/163/139 232/164/139
f 205/150/140 77/17/140 219/165/140
f 218/166/141 467/167/141 466/152/141
f 208/153/142 219/165/142 221/168/142
f 208/153/143 223/169/143 210/154/143
f 210/154/144 226/160/144 212/155/144
f 232/170/145 468/171/145 467/167/145
f 219/165/146 236/172/146 221/168/146
f 223/169/147 236/172/147 238/173/147
f 223/169/148 240/174/148 226/160/148
f 228/161/149 240/174/149 242/175/149
f 228/161/150 244/176/150 230/162/150
f 231/163/151 244/176/151 245/177/151
f 232/164/152 245/177/152 246/178/152
f 219/165/153 77/17/153 234/179/153
f 242/175/154 258/180/154 244/176/154
f 245/177/155 258/180/155 259/181/155
f 246/178/156 259/181/156 260/182/156
f 234/179/157 77/17/157 247/183/157
f 246/184/158 469/185/158 468/171/158
f 234/179/159 250/186/159 236/172/159
f 236/172/160 252/187/160 238/173/160
f 238/173/161 254/188/161 240/174/161
f 242/175/162 254/188/162 256/189/162
f 247/183/163 263/190/163 250/186/163
f 250/186/164 265/191/164 252/187/164
f 252/187/165 267/192/165 254/188/165
f 254/188/166 270/193/166 256/189/166
f 256/189/167 271/194/167 258/180/167
f 259/181/168 271/194/168 273/195/168
f 260/182/169 273/195/169 274/196/169
f 247/183/170 77/17/170 261/197/170
f 260/198/171 470/199/171 469/185/171
f 270/193/172 285/200/172 271/194/172
f 273/195/173 285/200/173 287/201/173
f 274/196/174 287/201/174 288/202/174
f 261/197/175 77/17/175 275/203/175
f 274/204/176 471/205/176 470/199/176
f 261/197/177 277/206/177 263/190/177
f 263/190/178 279/207/178 265/191/178
f 265/191/179 281/208/179 267/192/179
f 270/193/180 281/208/180 283/209/180
f 279/207/181 292/210/181 294/211/181
f 279/207/182 295/212/182 281/208/182
f 283/209/183 295/212/183 297/213/183
f 283/209/184 299/214/184 285/200/184
f 287/201/185 299/214/185 301/215/185
f 288/202/186 301/215/186 302/216/186
f 275/203/187 77/17/187 289/217/187
f 302/218/188 471/205/188 288/219/188
f 275/203/189 292/210/189 277/206/189
f 301/215/190 314/220/190 315/221/190
f 302/216/191 315/221/191 316/222/191
f 289/217/192 77/17/192 304/223/192
f 302/218/193 473/224/193 472/225/193
f 289/217/194 306/226/194 292/210/194
f 292/210/195 308/227/195 294/211/195
f 294/211/196 310/228/196 295/212/196
f 297/213/197 310/228/197 312/229/197
f 297/213/198 314/220/198 299/214/198
f 308/227/199 324/230/199 310/228/199
f 312/229/200 324/230/200 325/231/200
f 312/229/201 327/232/201 314/220/201
f 315/221/202 327/232/202 329/233/202
f 316/222/203 329/233/203 330/234/203
f 304/223/204 77/17/204 318/235/204
f 330/236/205 473/224/205 316/237/205
f 304/223/206 320/238/206 306/226/206
f 306/226/207 322/239/207 308/227/207
f 330/234/208 343/240/208 344/241/208
f 318/235/209 77/17/209 332/242/209
f 344/243/210 474/244/210 330/236/210
f 318/235/211 333/245/211 320/238/211
f 322/239/212 333/245/212 335/246/212
f 322/239/213 337/247/213 324/230/213
f 325/231/214 337/247/214 339/248/214
f 325/231/215 341/249/215 327/232/215
f 329/233/216 341/249/216 343/240/216
f 335/246/217 351/250/217 337/247/217
f 339/248/218 351/250/218 353/251/218
f 339/248/219 355/252/219 341/249/219
f 343/240/220 355/252/220 357/253/220
f 344/241/221 357/253/221 358/254/221
f 332/242/222 77/17/222 345/255/222
f 344/243/223 476/256/223 475/257/223
f 332/242/224 347/258/224 333/245/224
f 335/246/225 347/258/225 349/259/225
f 358/254/226 371/260/226 372/261/226
f 345/255/227 77/17/227 360/262/227
f 358/263/228 477/264/228 476/256/228
f 347/258/229 360/262/229 362/265/229
f 349/259/230 362/265/230 364/266/230
f 349/259/231 366/267/231 351/250/231
f 353/251/232 366/267/232 367/268/232
f 353/251/233 369/269/233 355/252/233
f 357/253/234 369/269/234 371/260/234
f 367/268/235 380/270/235 382/271/235
f 367/268/236 383/272/236 369/269/236
f 371/260/237 383/272/237 385/273/237
f 372/261/238 385/273/238 386/274/238
f 360/262/239 77/17/239 374/275/239
f 372/276/240 478/277/240 477/264/240
f 360/262/241 376/278/241 362/265/241
f 362/265/242 378/279/242 364/266/242
f 364/266/243 380/270/243 366/267/243
f 374/275/244 77/17/244 388/280/244
f 386/281/245 479/282/245 478/277/245
f 374/275/246 389/283/246 376/278/246
f 378/279/247 389/283/247 391/284/247
f 378/279/248 394/285/248 380/270/248
f 382/271/249 394/285/249 396/286/249
f 382/271/250 398/287/250 383/272/250
f 385/273/251 398/287/251 399/288/251
f 386/274/252 399/288/252 400/289/252
f 396/286/253 408/290/253 409/291/253
f 396/286/254 411/292/254 398/287/254
f 399/288/255 411/292/255 413/293/255
f 400/289/256 413/293/256 414/294/256
f 388/280/257 77/17/257 402/295/257
f 414/296/258 479/282/258 400/297/258
f 389/283/259 402/295/259 404/298/259
f 391/284/260 404/298/260 405/299/260
f 391/284/261 408/290/261 394/285/261
f 428/300/262 480/301/262 414/296/262
f 404/298/263 415/302/263 417/303/263
f 405/299/264 417/303/264 419/304/264
f 405/299/265 421/305/265 408/290/265
f 409/291/266 421/305/266 423/306/266
f 409/291/267 426/307/267 411/292/267
f 413/293/268 426/307/268 427/308/268
f 414/294/269 427/308/269 428/309/269
f 402/295/270 77/17/270 415/302/270
f 423/310/271 440/311/271 426/312/271
f 427/313/272 440/311/272 441/314/272
f 428/315/273 441/314/273 442/316/273
f 415/317/274 77/17/274 429/318/274
f 442/319/275 481/320/275 428/321/275
f 417/322/276 429/318/276 431/323/276
f 419/324/277 431/323/277 433/325/277
f 419/324/278 435/326/278 421/327/278
f 423/310/279 435/326/279 438/328/279
f 433/325/280 445/1/280 1/4/280
f 435/326/281 1/4/281 448/6/281
f 438/328/282 448/6/282 3/9/282
f 440/311/283 3/9/283 450/10/283
f 441/314/284 450/10/284 5/12/284
f 442/316/285 5/12/285 6/15/285
f 429/318/286 77/17/286 444/16/286
f 6/18/287 482/329/287 442/319/287
f 431/323/288 444/16/288 445/1/288
f 463/330/289 465/331/289 497/332/289
f 479/333/289 481/334/289 508/335/289
f 446/336/290 8/337/290 443/338/290
f 2/339/291 9/340/291 446/336/291
f 447/341/292 12/342/292 2/339/292
f 4/343/293 14/344/293 447/341/293
f 449/345/294 15/346/294 4/343/294
f 17/347/295 512/348/295 491/349/295
f 443/338/296 8/337/296 78/350/296
f 8/337/297 21/351/297 78/350/297
f 23/352/298 8/337/298 9/340/298
f 26/353/299 9/340/299 12/342/299
f 28/354/300 12/342/300 14/344/300
f 14/344/301 30/355/301 28/354/301
f 15/346/302 32/356/302 30/355/302
f 32/357/303 491/349/303 483/358/303
f 28/354/304 43/359/304 42/360/304
f 30/355/305 45/361/305 43/359/305
f 45/362/306 483/358/306 492/363/306
f 21/351/307 36/364/307 78/350/307
f 37/365/308 21/351/308 23/352/308
f 39/366/309 23/352/309 26/353/309
f 28/354/310 39/366/310 26/353/310
f 51/367/311 36/364/311 37/365/311
f 54/368/312 37/365/312 39/366/312
f 56/369/313 39/366/313 42/360/313
f 57/370/314 42/360/314 43/359/314
f 43/359/315 60/371/315 57/370/315
f 60/372/316 492/363/316 495/373/316
f 36/364/317 50/374/317 78/350/317
f 57/370/318 74/375/318 72/376/318
f 60/372/319 493/377/319 74/378/319
f 50/374/320 64/379/320 78/350/320
f 51/367/321 64/379/321 50/374/321
f 67/380/322 51/367/322 54/368/322
f 70/381/323 54/368/323 56/369/323
f 57/370/324 70/381/324 56/369/324
f 81/382/325 64/379/325 65/383/325
f 83/384/326 65/383/326 67/380/326
f 85/385/327 67/380/327 70/381/327
f 87/386/328 70/381/328 72/376/328
f 90/387/329 72/376/329 74/375/329
f 90/388/330 493/377/330 484/389/330
f 64/379/331 79/390/331 78/350/331
f 104/391/332 87/386/332 90/387/332
f 90/388/333 494/392/333 104/393/333
f 79/390/334 93/394/334 78/350/334
f 95/395/335 79/390/335 81/382/335
f 97/396/336 81/382/336 83/384/336
f 99/397/337 83/384/337 85/385/337
f 87/386/338 99/397/338 85/385/338
f 111/398/339 95/395/339 97/396/339
f 113/399/340 97/396/340 99/397/340
f 102/400/341 113/399/341 99/397/341
f 117/401/342 102/400/342 104/391/342
f 117/402/343 494/392/343 513/403/343
f 93/394/344 107/404/344 78/350/344
f 109/405/345 93/394/345 95/395/345
f 132/406/346 513/403/346 500/407/346
f 107/404/347 122/408/347 78/350/347
f 124/409/348 107/404/348 109/405/348
f 125/410/349 109/405/349 111/398/349
f 128/411/350 111/398/350 113/399/350
f 116/412/351 128/411/351 113/399/351
f 132/413/352 116/412/352 117/401/352
f 125/410/353 138/414/353 124/409/353
f 125/410/354 142/415/354 140/416/354
f 142/415/355 130/417/355 144/418/355
f 130/417/356 146/419/356 144/418/356
f 132/406/357 485/420/357 146/421/357
f 122/408/358 136/422/358 78/350/358
f 124/409/359 136/422/359 122/408/359
f 146/421/360 498/423/360 159/424/360
f 136/422/361 150/425/361 78/350/361
f 152/426/362 136/422/362 138/414/362
f 140/416/363 152/426/363 138/414/363
f 140/416/364 156/427/364 154/428/364
f 156/427/365 144/418/365 157/429/365
f 144/418/366 159/430/366 157/429/366
f 170/431/367 154/428/367 156/427/367
f 156/427/368 172/432/368 170/431/368
f 157/429/369 174/433/369 172/432/369
f 174/434/370 498/423/370 499/435/370
f 150/425/371 163/436/371 78/350/371
f 166/437/372 150/425/372 152/426/372
f 168/438/373 152/426/373 154/428/373
f 163/436/374 177/439/374 78/350/374
f 166/437/375 177/439/375 163/436/375
f 168/438/376 179/440/376 166/437/376
f 184/441/377 168/438/377 170/431/377
f 172/432/378 184/441/378 170/431/378
f 172/432/379 188/442/379 186/443/379
f 174/434/380 497/444/380 188/445/380
f 186/443/381 198/446/381 184/441/381
f 201/447/382 186/443/382 188/442/382
f 201/448/383 497/444/383 486/449/383
f 177/439/384 192/450/384 78/350/384
f 179/440/385 192/450/385 177/439/385
f 196/451/386 179/440/386 181/452/386
f 198/446/387 181/452/387 184/441/387
f 192/450/388 206/453/388 78/350/388
f 207/454/389 192/450/389 193/455/389
f 209/456/390 193/455/390 196/451/390
f 211/457/391 196/451/391 198/446/391
f 200/458/392 211/457/392 198/446/392
f 215/459/393 200/458/393 201/447/393
f 201/448/394 496/460/394 215/461/394
f 214/462/395 225/463/395 211/457/395
f 229/464/396 214/462/396 215/459/396
f 229/465/397 496/460/397 511/466/397
f 206/453/398 220/467/398 78/350/398
f 222/468/399 206/453/399 207/454/399
f 224/469/400 207/454/400 209/456/400
f 225/463/401 209/456/401 211/457/401
f 235/470/402 220/467/402 222/468/402
f 224/469/403 235/470/403 222/468/403
f 239/471/404 224/469/404 225/463/404
f 227/472/405 239/471/405 225/463/405
f 243/473/406 227/472/406 229/464/406
f 243/474/407 511/466/407 505/475/407
f 220/467/408 233/476/408 78/350/408
f 241/477/409 257/478/409 255/479/409
f 257/480/410 505/475/410 487/481/410
f 233/476/411 248/482/411 78/350/411
f 249/483/412 233/476/412 235/470/412
f 235/470/413 251/484/413 249/483/413
f 237/485/414 253/486/414 251/484/414
f 253/486/415 241/477/415 255/479/415
f 264/487/416 248/482/416 249/483/416
f 266/488/417 249/483/417 251/484/417
f 251/484/418 268/489/418 266/488/418
f 268/489/419 255/479/419 269/490/419
f 255/479/420 272/491/420 269/490/420
f 272/492/421 487/481/421 503/493/421
f 248/482/422 262/494/422 78/350/422
f 269/490/423 286/495/423 284/496/423
f 286/497/424 503/493/424 504/498/424
f 262/494/425 276/499/425 78/350/425
f 278/500/426 262/494/426 264/487/426
f 266/488/427 278/500/427 264/487/427
f 282/501/428 266/488/428 268/489/428
f 282/501/429 269/490/429 284/496/429
f 280/502/430 291/503/430 278/500/430
f 296/504/431 280/502/431 282/501/431
f 284/496/432 296/504/432 282/501/432
f 284/496/433 300/505/433 298/506/433
f 300/507/434 504/498/434 502/508/434
f 276/499/435 290/509/435 78/350/435
f 291/503/436 276/499/436 278/500/436
f 313/510/437 502/508/437 488/511/437
f 290/509/438 303/512/438 78/350/438
f 305/513/439 290/509/439 291/503/439
f 307/514/440 291/503/440 293/515/440
f 309/516/441 293/515/441 296/504/441
f 298/506/442 309/516/442 296/504/442
f 313/517/443 298/506/443 300/505/443
f 323/518/444 307/514/444 309/516/444
f 311/519/445 323/518/445 309/516/445
f 328/520/446 311/519/446 313/517/446
f 328/521/447 488/511/447 501/522/447
f 303/512/448 317/523/448 78/350/448
f 319/524/449 303/512/449 305/513/449
f 307/514/450 319/524/450 305/513/450
f 317/523/451 331/525/451 78/350/451
f 334/526/452 317/523/452 319/524/452
f 321/527/453 334/526/453 319/524/453
f 338/528/454 321/527/454 323/518/454
f 326/529/455 338/528/455 323/518/455
f 342/530/456 326/529/456 328/520/456
f 342/531/457 501/522/457 514/532/457
f 352/533/458 336/534/458 338/528/458
f 354/535/459 338/528/459 340/536/459
f 356/537/460 340/536/460 342/530/460
f 356/538/461 514/532/461 506/539/461
f 331/525/462 346/540/462 78/350/462
f 348/541/463 331/525/463 334/526/463
f 336/534/464 348/541/464 334/526/464
f 346/540/465 359/542/465 78/350/465
f 361/543/466 346/540/466 348/541/466
f 350/544/467 361/543/467 348/541/467
f 365/545/468 350/544/468 352/533/468
f 354/535/469 365/545/469 352/533/469
f 354/535/470 370/546/470 368/547/470
f 370/548/471 506/539/471 489/549/471
f 368/547/472 379/550/472 365/545/472
f 368/547/473 384/551/473 381/552/473
f 384/553/474 489/549/474 507/554/474
f 359/542/475 373/555/475 78/350/475
f 375/556/476 359/542/476 361/543/476
f 377/557/477 361/543/477 363/558/477
f 379/550/478 363/558/478 365/545/478
f 373/555/479 387/559/479 78/350/479
f 390/560/480 373/555/480 375/556/480
f 377/557/481 390/560/481 375/556/481
f 393/561/482 377/557/482 379/550/482
f 381/552/483 393/561/483 379/550/483
f 381/552/484 397/562/484 395/563/484
f 397/564/485 507/554/485 510/565/485
f 395/563/486 407/566/486 393/561/486
f 395/563/487 412/567/487 410/568/487
f 412/569/488 510/565/488 508/570/488
f 387/559/489 401/571/489 78/350/489
f 390/560/490 401/571/490 387/559/490
f 392/572/491 403/573/491 390/560/491
f 407/566/492 392/572/492 393/561/492
f 403/573/493 416/574/493 401/571/493
f 406/575/494 418/576/494 403/573/494
f 422/577/495 406/575/495 407/566/495
f 410/568/496 422/577/496 407/566/496
f 425/578/497 410/568/497 412/567/497
f 425/579/498 508/570/498 490/580/498
f 401/571/499 416/574/499 78/350/499
f 439/581/500 424/582/500 425/583/500
f 439/584/501 490/585/501 509/586/501
f 416/587/502 430/588/502 78/350/502
f 432/589/503 416/587/503 418/590/503
f 434/591/504 418/590/504 420/592/504
f 436/593/505 420/592/505 422/594/505
f 424/582/506 436/593/506 422/594/506
f 434/591/507 446/336/507 432/589/507
f 436/593/508 2/339/508 434/591/508
f 437/595/509 447/341/509 436/593/509
f 439/581/510 4/343/510 437/595/510
f 449/596/511 509/586/511 512/348/511
f 430/588/512 443/338/512 78/350/512
f 446/336/513 430/588/513 432/589/513
f 445/1/1 444/16/1 7/2/1
f 1/4/2 445/1/2 10/3/2
f 448/6/3 1/4/3 11/5/3
f 448/6/4 13/7/4 16/8/4
f 450/10/5 3/9/5 16/8/5
f 5/12/6 450/10/6 18/11/6
f 5/12/7 19/13/7 20/14/7
f 6/18/9 20/23/9 452/19/9
f 19/13/10 33/30/10 34/21/10
f 20/23/12 34/36/12 453/24/12
f 7/2/13 22/22/13 24/25/13
f 10/3/14 24/25/14 25/26/14
f 11/5/15 25/26/15 27/27/15
f 13/7/16 27/27/16 29/28/16
f 16/8/17 29/28/17 31/29/17
f 19/13/18 18/11/18 31/29/18
f 27/27/19 41/40/19 44/31/19
f 29/28/20 44/31/20 46/32/20
f 33/30/21 31/29/21 46/32/21
f 33/30/22 47/33/22 48/34/22
f 34/36/24 48/41/24 454/37/24
f 22/22/25 35/35/25 38/38/25
f 24/25/26 38/38/26 40/39/26
f 25/26/27 40/39/27 41/40/27
f 48/41/28 62/55/28 455/42/28
f 35/35/29 49/50/29 52/43/29
f 38/38/30 52/43/30 53/44/30
f 40/39/31 53/44/31 55/45/31
f 44/31/32 41/40/32 55/45/32
f 44/31/33 58/46/33 59/47/33
f 46/32/34 59/47/34 61/48/34
f 48/34/35 47/33/35 61/48/35
f 58/46/37 71/60/37 73/51/37
f 61/48/38 59/47/38 73/51/38
f 62/49/39 61/48/39 75/52/39
f 62/55/41 76/69/41 456/56/41
f 52/43/42 49/50/42 63/54/42
f 52/43/43 66/57/43 68/58/43
f 53/44/44 68/58/44 69/59/44
f 58/46/45 55/45/45 69/59/45
f 63/54/46 80/68/46 82/61/46
f 66/57/47 82/61/47 84/62/47
f 68/58/48 84/62/48 86/63/48
f 69/59/49 86/63/49 88/64/49
f 71/60/50 88/64/50 89/65/50
f 75/52/51 73/51/51 89/65/51
f 76/53/52 75/52/52 91/66/52
f 76/69/54 92/75/54 457/70/54
f 88/64/55 101/80/55 103/71/55
f 91/66/56 89/65/56 103/71/56
f 92/67/57 91/66/57 105/72/57
f 92/75/59 106/597/59 458/76/59
f 80/68/60 94/74/60 96/77/60
f 82/61/61 96/77/61 98/78/61
f 84/62/62 98/78/62 100/79/62
f 88/64/63 86/63/63 100/79/63
f 98/78/64 96/77/64 110/81/64
f 98/78/65 112/82/65 114/83/65
f 101/80/66 100/79/66 114/83/66
f 101/80/67 115/84/67 118/85/67
f 105/72/68 103/71/68 118/85/68
f 106/73/69 105/72/69 119/86/69
f 458/76/71 106/597/71 120/89/71
f 94/74/72 108/88/72 110/81/72
f 119/86/73 118/85/73 131/91/73
f 120/87/74 119/86/74 133/92/74
f 120/89/76 134/108/76 460/95/76
f 108/88/77 121/94/77 123/96/77
f 110/81/78 123/96/78 126/97/78
f 112/82/79 126/97/79 127/98/79
f 115/84/80 114/83/80 127/98/80
f 115/84/81 129/99/81 131/91/81
f 126/97/82 123/96/82 137/100/82
f 126/97/83 139/101/83 141/102/83
f 129/99/84 127/98/84 141/102/84
f 129/99/85 143/103/85 145/104/85
f 133/92/86 131/91/86 145/104/86
f 134/93/87 133/92/87 147/105/87
f 134/108/89 148/114/89 461/109/89
f 123/96/90 121/94/90 135/107/90
f 147/105/91 145/104/91 160/110/91
f 148/106/92 147/105/92 161/111/92
f 148/114/94 162/126/94 462/115/94
f 135/107/95 149/113/95 151/116/95
f 139/101/96 137/100/96 151/116/96
f 139/101/97 153/117/97 155/118/97
f 143/103/98 141/102/98 155/118/98
f 143/103/99 158/119/99 160/110/99
f 153/117/100 167/129/100 169/120/100
f 155/118/101 169/120/101 171/121/101
f 158/119/102 171/121/102 173/122/102
f 161/111/103 160/110/103 173/122/103
f 162/112/104 161/111/104 175/123/104
f 162/126/106 176/133/106 463/127/106
f 149/113/107 164/125/107 165/128/107
f 153/117/108 151/116/108 165/128/108
f 176/124/109 175/123/109 189/130/109
f 176/133/111 190/146/111 464/134/111
f 164/125/112 178/132/112 180/135/112
f 165/128/113 180/135/113 182/136/113
f 167/129/114 182/136/114 183/137/114
f 171/121/115 169/120/115 183/137/115
f 171/121/116 185/138/116 187/139/116
f 175/123/117 173/122/117 187/139/117
f 185/138/118 183/137/118 197/140/118
f 185/138/119 199/141/119 202/142/119
f 189/130/120 187/139/120 202/142/120
f 190/131/121 189/130/121 203/143/121
f 190/146/123 204/151/123 465/147/123
f 180/135/124 178/132/124 191/145/124
f 180/135/125 194/148/125 195/149/125
f 182/136/126 195/149/126 197/140/126
f 204/151/128 218/166/128 466/152/128
f 191/145/129 205/150/129 208/153/129
f 194/148/130 208/153/130 210/154/130
f 195/149/131 210/154/131 212/155/131
f 199/141/132 197/140/132 212/155/132
f 199/141/133 213/156/133 216/157/133
f 203/143/134 202/142/134 216/157/134
f 204/144/135 203/143/135 217/158/135
f 213/156/136 212/155/136 226/160/136
f 213/156/137 228/161/137 230/162/137
f 217/158/138 216/157/138 230/162/138
f 218/159/139 217/158/139 231/163/139
f 218/166/141 232/170/141 467/167/141
f 208/153/142 205/150/142 219/165/142
f 208/153/143 221/168/143 223/169/143
f 210/154/144 223/169/144 226/160/144
f 232/170/145 246/184/145 468/171/145
f 219/165/146 234/179/146 236/172/146
f 223/169/147 221/168/147 236/172/147
f 223/169/148 238/173/148 240/174/148
f 228/161/149 226/160/149 240/174/149
f 228/161/150 242/175/150 244/176/150
f 231/163/151 230/162/151 244/176/151
f 232/164/152 231/163/152 245/177/152
f 242/175/154 256/189/154 258/180/154
f 245/177/155 244/176/155 258/180/155
f 246/178/156 245/177/156 259/181/156
f 246/184/158 260/198/158 469/185/158
f 234/179/159 247/183/159 250/186/159
f 236/172/160 250/186/160 252/187/160
f 238/173/161 252/187/161 254/188/161
f 242/175/162 240/174/162 254/188/162
f 247/183/163 261/197/163 263/190/163
f 250/186/164 263/190/164 265/191/164
f 252/187/165 265/191/165 267/192/165
f 254/188/166 267/192/166 270/193/166
f 256/189/167 270/193/167 271/194/167
f 259/181/168 258/180/168 271/194/168
f 260/182/169 259/181/169 273/195/169
f 260/198/171 274/204/171 470/199/171
f 270/193/172 283/209/172 285/200/172
f 273/195/173 271/194/173 285/200/173
f 274/196/174 273/195/174 287/201/174
f 274/204/176 288/219/176 471/205/176
f 261/197/177 275/203/177 277/206/177
f 263/190/178 277/206/178 279/207/178
f 265/191/179 279/207/179 281/208/179
f 270/193/180 267/192/180 281/208/180
f 279/207/181 277/206/181 292/210/181
f 279/207/182 294/211/182 295/212/182
f 283/209/183 281/208/183 295/212/183
f 283/209/184 297/213/184 299/214/184
f 287/201/185 285/200/185 299/214/185
f 288/202/186 287/201/186 301/215/186
f 302/218/188 472/225/188 471/205/188
f 275/203/189 289/217/189 292/210/189
f 301/215/190 299/214/190 314/220/190
f 302/216/514 301/215/514 315/221/514
f 302/218/193 316/237/193 473/224/193
f 289/217/194 304/223/194 306/226/194
f 292/210/195 306/226/195 308/227/195
f 294/211/196 308/227/196 310/228/196
f 297/213/197 295/212/197 310/228/197
f 297/213/198 312/229/198 314/220/198
f 308/227/199 322/239/199 324/230/199
f 312/229/200 310/228/200 324/230/200
f 312/229/201 325/231/201 327/232/201
f 315/221/202 314/220/202 327/232/202
f 316/222/203 315/221/203 329/233/203
f 330/236/205 474/244/205 473/224/205
f 304/223/206 318/235/206 320/238/206
f 306/226/207 320/238/207 322/239/207
f 330/234/208 329/233/208 343/240/208
f 344/243/210 475/257/210 474/244/210
f 318/235/211 332/242/211 333/245/211
f 322/239/212 320/238/212 333/245/212
f 322/239/213 335/246/213 337/247/213
f 325/231/214 324/230/214 337/247/214
f 325/231/215 339/248/215 341/249/215
f 329/233/216 327/232/216 341/249/216
f 335/246/217 349/259/217 351/250/217
f 339/248/218 337/247/218 351/250/218
f 339/248/219 353/251/219 355/252/219
f 343/240/220 341/249/220 355/252/220
f 344/241/221 343/240/221 357/253/221
f 344/243/223 358/263/223 476/256/223
f 332/242/224 345/255/224 347/258/224
f 335/246/225 333/245/225 347/258/225
f 358/254/226 357/253/226 371/260/226
f 358/263/228 372/276/228 477/264/228
f 347/258/229 345/255/229 360/262/229
f 349/259/230 347/258/230 362/265/230
f 349/259/231 364/266/231 366/267/231
f 353/251/232 351/250/232 366/267/232
f 353/251/233 367/268/233 369/269/233
f 357/253/234 355/252/234 369/269/234
f 367/268/235 366/267/235 380/270/235
f 367/268/236 382/271/236 383/272/236
f 371/260/237 369/269/237 383/272/237
f 372/261/238 371/260/238 385/273/238
f 372/276/240 386/281/240 478/277/240
f 360/262/241 374/275/241 376/278/241
f 362/265/242 376/278/242 378/279/242
f 364/266/243 378/279/243 380/270/243
f 386/281/245 400/297/245 479/282/245
f 374/275/246 388/280/246 389/283/246
f 378/279/247 376/278/247 389/283/247
f 378/279/248 391/284/248 394/285/248
f 382/271/249 380/270/249 394/285/249
f 382/271/250 396/286/250 398/287/250
f 385/273/251 383/272/251 398/287/251
f 386/274/252 385/273/252 399/288/252
f 396/286/253 394/285/253 408/290/253
f 396/286/254 409/291/254 411/292/254
f 399/288/255 398/287/255 411/292/255
f 400/289/256 399/288/256 413/293/256
f 414/296/258 480/301/258 479/282/258
f 389/283/259 388/280/259 402/295/259
f 391/284/260 389/283/260 404/298/260
f 391/284/261 405/299/261 408/290/261
f 428/300/262 481/598/262 480/301/262
f 404/298/263 402/295/263 415/302/263
f 405/299/264 404/298/264 417/303/264
f 405/299/265 419/304/265 421/305/265
f 409/291/266 408/290/266 421/305/266
f 409/291/267 423/306/267 426/307/267
f 413/293/268 411/292/268 426/307/268
f 414/294/269 413/293/269 427/308/269
f 423/310/271 438/328/271 440/311/271
f 427/313/272 426/312/272 440/311/272
f 428/315/273 427/313/273 441/314/273
f 442/319/275 482/329/275 481/320/275
f 417/322/276 415/317/276 429/318/276
f 419/324/277 417/322/277 431/323/277
f 419/324/278 433/325/278 435/326/278
f 423/310/279 421/327/279 435/326/279
f 433/325/280 431/323/280 445/1/280
f 435/326/281 433/325/281 1/4/281
f 438/328/282 435/326/282 448/6/282
f 440/311/283 438/328/283 3/9/283
f 441/314/284 440/311/284 450/10/284
f 442/316/285 441/314/285 5/12/285
f 6/18/287 451/20/287 482/329/287
f 431/323/288 429/318/288 444/16/288
f 509/599/289 490/600/289 481/334/289
f 481/334/289 482/601/289 451/602/289
f 451/602/289 452/603/289 453/604/289
f 453/604/289 454/605/289 455/606/289
f 455/606/289 456/607/289 457/608/289
f 457/608/289 458/609/289 459/610/289
f 459/610/289 460/611/289 461/612/289
f 461/612/289 462/613/289 463/330/289
f 463/330/289 464/614/289 465/331/289
f 465/331/289 466/615/289 467/616/289
f 467/616/289 468/617/289 469/618/289
f 469/618/289 470/619/289 471/620/289
f 471/620/289 472/621/289 473/622/289
f 473/622/289 474/623/289 475/624/289
f 475/624/289 476/625/289 477/626/289
f 477/626/289 478/627/289 479/333/289
f 479/333/289 510/628/289 507/629/289
f 479/333/289 507/629/289 489/630/289
f 509/599/289 481/334/289 451/602/289
f 512/631/289 509/599/289 451/602/289
f 477/626/289 479/333/289 489/630/289
f 477/626/289 489/630/289 506/632/289
f 512/631/289 451/602/289 453/604/289
f 491/633/289 512/631/289 453/604/289
f 475/624/289 477/626/289 506/632/289
f 475/624/289 506/632/289 514/634/289
f 483/635/289 491/633/289 453/604/289
f 492/636/289 483/635/289 453/604/289
f 473/622/289 475/624/289 514/634/289
f 473/622/289 514/634/289 501/637/289
f 492/636/289 453/604/289 455/606/289
f 495/638/289 492/636/289 455/606/289
f 473/622/289 501/637/289 488/639/289
f 473/622/289 488/639/289 502/640/289
f 495/638/289 455/606/289 457/608/289
f 493/641/289 495/638/289 457/608/289
f 471/620/289 473/622/289 502/640/289
f 471/620/289 502/640/289 504/642/289
f 484/643/289 493/641/289 457/608/289
f 494/644/289 484/643/289 457/608/289
f 469/618/289 471/620/289 504/642/289
f 469/618/289 504/642/289 503/645/289
f 494/644/289 457/608/289 459/610/289
f 513/646/289 494/644/289 459/610/289
f 469/618/289 503/645/289 487/647/289
f 469/618/289 487/647/289 505/648/289
f 513/646/289 459/610/289 461/612/289
f 500/649/289 513/646/289 461/612/289
f 467/616/289 469/618/289 505/648/289
f 467/616/289 505/648/289 511/650/289
f 485/651/289 500/649/289 461/612/289
f 498/652/289 485/651/289 461/612/289
f 465/331/289 467/616/289 511/650/289
f 465/331/289 511/650/289 496/653/289
f 498/652/289 461/612/289 463/330/289
f 499/654/289 498/652/289 463/330/289
f 465/331/289 496/653/289 486/655/289
f 497/332/289 499/654/289 463/330/289
f 465/331/289 486/655/289 497/332/289
f 508/335/289 510/628/289 479/333/289
f 479/333/289 480/656/289 481/334/289
f 481/334/289 490/600/289 508/335/289
f 446/336/290 9/340/290 8/337/290
f 2/339/291 12/342/291 9/340/291
f 447/341/292 14/344/292 12/342/292
f 4/343/293 15/346/293 14/344/293
f 449/345/515 17/657/515 15/346/515
f 17/347/295 449/596/295 512/348/295
f 23/352/298 21/351/298 8/337/298
f 26/353/299 23/352/299 9/340/299
f 28/354/300 26/353/300 12/342/300
f 14/344/301 15/346/301 30/355/301
f 15/346/302 17/657/302 32/356/302
f 32/357/303 17/347/303 491/349/303
f 28/354/304 30/355/304 43/359/304
f 30/355/305 32/356/305 45/361/305
f 45/362/306 32/357/306 483/358/306
f 37/365/308 36/364/308 21/351/308
f 39/366/309 37/365/309 23/352/309
f 28/354/310 42/360/310 39/366/310
f 51/367/311 50/374/311 36/364/311
f 54/368/312 51/367/312 37/365/312
f 56/369/313 54/368/313 39/366/313
f 57/370/314 56/369/314 42/360/314
f 43/359/315 45/361/315 60/371/315
f 60/372/316 45/362/316 492/363/316
f 57/370/318 60/371/318 74/375/318
f 60/372/319 495/373/319 493/377/319
f 51/367/321 65/383/321 64/379/321
f 67/380/322 65/383/322 51/367/322
f 70/381/323 67/380/323 54/368/323
f 57/370/324 72/376/324 70/381/324
f 81/382/325 79/390/325 64/379/325
f 83/384/326 81/382/326 65/383/326
f 85/385/327 83/384/327 67/380/327
f 87/386/328 85/385/328 70/381/328
f 90/387/329 87/386/329 72/376/329
f 90/388/330 74/378/330 493/377/330
f 104/391/332 102/400/332 87/386/332
f 90/388/333 484/389/333 494/392/333
f 95/395/335 93/394/335 79/390/335
f 97/396/336 95/395/336 81/382/336
f 99/397/337 97/396/337 83/384/337
f 87/386/338 102/400/338 99/397/338
f 111/398/339 109/405/339 95/395/339
f 113/399/340 111/398/340 97/396/340
f 102/400/341 116/412/341 113/399/341
f 117/401/342 116/412/342 102/400/342
f 117/402/343 104/393/343 494/392/343
f 109/405/345 107/404/345 93/394/345
f 132/406/346 117/402/346 513/403/346
f 124/409/348 122/408/348 107/404/348
f 125/410/349 124/409/349 109/405/349
f 128/411/350 125/410/350 111/398/350
f 116/412/351 130/417/351 128/411/351
f 132/413/352 130/417/352 116/412/352
f 125/410/353 140/416/353 138/414/353
f 125/410/354 128/411/354 142/415/354
f 142/415/355 128/411/355 130/417/355
f 130/417/356 132/413/356 146/419/356
f 132/406/357 500/407/357 485/420/357
f 124/409/359 138/414/359 136/422/359
f 146/421/360 485/420/360 498/423/360
f 152/426/362 150/425/362 136/422/362
f 140/416/363 154/428/363 152/426/363
f 140/416/364 142/415/364 156/427/364
f 156/427/516 142/415/516 144/418/516
f 144/418/366 146/419/366 159/430/366
f 170/431/367 168/438/367 154/428/367
f 156/427/368 157/429/368 172/432/368
f 157/429/369 159/430/369 174/433/369
f 174/434/370 159/424/370 498/423/370
f 166/437/517 163/436/517 150/425/517
f 168/438/373 166/437/373 152/426/373
f 166/437/375 179/440/375 177/439/375
f 168/438/376 181/452/376 179/440/376
f 184/441/377 181/452/377 168/438/377
f 172/432/378 186/443/378 184/441/378
f 172/432/379 174/433/379 188/442/379
f 174/434/380 499/435/380 497/444/380
f 186/443/518 200/458/518 198/446/518
f 201/447/382 200/458/382 186/443/382
f 201/448/383 188/445/383 497/444/383
f 179/440/385 193/455/385 192/450/385
f 196/451/386 193/455/386 179/440/386
f 198/446/387 196/451/387 181/452/387
f 207/454/389 206/453/389 192/450/389
f 209/456/390 207/454/390 193/455/390
f 211/457/391 209/456/391 196/451/391
f 200/458/392 214/462/392 211/457/392
f 215/459/393 214/462/393 200/458/393
f 201/448/394 486/449/394 496/460/394
f 214/462/395 227/472/395 225/463/395
f 229/464/396 227/472/396 214/462/396
f 229/465/397 215/461/397 496/460/397
f 222/468/399 220/467/399 206/453/399
f 224/469/400 222/468/400 207/454/400
f 225/463/401 224/469/401 209/456/401
f 235/470/402 233/476/402 220/467/402
f 224/469/403 237/485/403 235/470/403
f 239/471/404 237/485/404 224/469/404
f 227/472/405 241/477/405 239/471/405
f 243/473/406 241/477/406 227/472/406
f 243/474/407 229/465/407 511/466/407
f 241/477/409 243/473/409 257/478/409
f 257/480/410 243/474/410 505/475/410
f 249/483/412 248/482/412 233/476/412
f 235/470/413 237/485/413 251/484/413
f 237/485/414 239/471/414 253/486/414
f 253/486/415 239/471/415 241/477/415
f 264/487/416 262/494/416 248/482/416
f 266/488/417 264/487/417 249/483/417
f 251/484/418 253/486/418 268/489/418
f 268/489/419 253/486/419 255/479/419
f 255/479/420 257/478/420 272/491/420
f 272/492/421 257/480/421 487/481/421
f 269/490/423 272/491/423 286/495/423
f 286/497/424 272/492/424 503/493/424
f 278/500/426 276/499/426 262/494/426
f 266/488/427 280/502/427 278/500/427
f 282/501/428 280/502/428 266/488/428
f 282/501/429 268/489/429 269/490/429
f 280/502/430 293/515/430 291/503/430
f 296/504/431 293/515/431 280/502/431
f 284/496/432 298/506/432 296/504/432
f 284/496/433 286/495/433 300/505/433
f 300/507/434 286/497/434 504/498/434
f 291/503/436 290/509/436 276/499/436
f 313/510/437 300/507/437 502/508/437
f 305/513/439 303/512/439 290/509/439
f 307/514/440 305/513/440 291/503/440
f 309/516/441 307/514/441 293/515/441
f 298/506/442 311/519/442 309/516/442
f 313/517/443 311/519/443 298/506/443
f 323/518/444 321/527/444 307/514/444
f 311/519/445 326/529/445 323/518/445
f 328/520/446 326/529/446 311/519/446
f 328/521/447 313/510/447 488/511/447
f 319/524/449 317/523/449 303/512/449
f 307/514/450 321/527/450 319/524/450
f 334/526/452 331/525/452 317/523/452
f 321/527/453 336/534/453 334/526/453
f 338/528/454 336/534/454 321/527/454
f 326/529/455 340/536/455 338/528/455
f 342/530/456 340/536/456 326/529/456
f 342/531/457 328/521/457 501/522/457
f 352/533/458 350/544/458 336/534/458
f 354/535/459 352/533/459 338/528/459
f 356/537/460 354/535/460 340/536/460
f 356/538/461 342/531/461 514/532/461
f 348/541/463 346/540/463 331/525/463
f 336/534/464 350/544/464 348/541/464
f 361/543/466 359/542/466 346/540/466
f 350/544/467 363/558/467 361/543/467
f 365/545/468 363/558/468 350/544/468
f 354/535/469 368/547/469 365/545/469
f 354/535/470 356/537/470 370/546/470
f 370/548/471 356/538/471 506/539/471
f 368/547/472 381/552/472 379/550/472
f 368/547/473 370/546/473 384/551/473
f 384/553/474 370/548/474 489/549/474
f 375/556/476 373/555/476 359/542/476
f 377/557/477 375/556/477 361/543/477
f 379/550/478 377/557/478 363/558/478
f 390/560/519 387/559/519 373/555/519
f 377/557/481 392/572/481 390/560/481
f 393/561/482 392/572/482 377/557/482
f 381/552/483 395/563/483 393/561/483
f 381/552/484 384/551/484 397/562/484
f 397/564/485 384/553/485 507/554/485
f 395/563/486 410/568/486 407/566/486
f 395/563/487 397/562/487 412/567/487
f 412/569/488 397/564/488 510/565/488
f 390/560/490 403/573/490 401/571/490
f 392/572/491 406/575/491 403/573/491
f 407/566/492 406/575/492 392/572/492
f 403/573/493 418/576/493 416/574/493
f 406/575/494 420/658/494 418/576/494
f 422/577/495 420/658/495 406/575/495
f 410/568/496 424/659/496 422/577/496
f 425/578/497 424/659/497 410/568/497
f 425/579/498 412/569/498 508/570/498
f 439/581/500 437/595/500 424/582/500
f 439/584/501 425/660/501 490/585/501
f 432/589/503 430/588/503 416/587/503
f 434/591/504 432/589/504 418/590/504
f 436/593/505 434/591/505 420/592/505
f 424/582/506 437/595/506 436/593/506
f 434/591/507 2/339/507 446/336/507
f 436/593/508 447/341/508 2/339/508
f 437/595/509 4/343/509 447/341/509
f 439/581/510 449/345/510 4/343/510
f 449/596/511 439/584/511 509/586/511
f 446/336/513 443/338/513 430/588/513
