# Blender 4.4.1
# www.blender.org
mtllib map_wall_05.mtl
o 立方体.005
v 22.026382 80.592133 106.676102
v 20.026382 80.592133 106.676102
v 22.026382 80.592133 107.780334
v 20.026382 80.592133 107.780334
v 22.026390 -50.614475 106.676102
v 20.026390 -50.614475 106.676102
v 22.026390 -50.614475 107.780334
v 20.026390 -50.614475 107.780334
v -105.115311 32.209019 49.000618
v -105.115311 80.647392 49.000618
v -101.759415 32.209019 47.918762
v -106.391541 32.209019 33.550018
v -101.759415 80.647392 47.918762
v -106.391541 80.647392 33.550018
v -109.747437 80.647392 34.631882
v -109.747437 32.209019 34.631882
v -99.885971 32.209019 65.221916
v -99.885971 80.647392 65.221916
v -96.530075 32.209019 64.140060
v -101.162201 32.209019 49.771320
v -96.530075 80.647392 64.140060
v -101.162201 80.647392 49.771320
v -104.518097 80.647392 50.853176
v -104.518097 32.209019 50.853176
v 64.467117 32.209023 89.191772
v 64.467110 80.647392 89.191772
v 62.444706 32.209023 86.303467
v 50.078018 32.209023 94.962708
v 62.444702 80.647392 86.303467
v 50.078018 80.647392 94.962708
v 52.100433 80.647392 97.851006
v 52.100433 32.209023 97.851006
v 78.293533 32.209019 79.510399
v 78.293526 80.647392 79.510399
v 76.271118 32.209019 76.622093
v 63.904438 32.209023 85.281326
v 76.271118 80.647392 76.622093
v 63.904442 80.647392 85.281326
v 65.926849 80.647392 88.169647
v 65.926849 32.209023 88.169647
v 50.820007 32.209023 98.747581
v 50.820007 80.647392 98.747581
v 48.797592 32.209023 95.859268
v 36.430912 32.209019 104.518509
v 48.797592 80.647392 95.859268
v 36.430916 80.647392 104.518509
v 38.453323 80.647392 107.406815
v 38.453323 32.209019 107.406815
v 92.254654 32.209023 69.734726
v 92.254654 80.647385 69.734726
v 90.232239 32.209023 66.846413
v 77.865555 32.209019 75.505661
v 90.232239 80.647385 66.846413
v 77.865547 80.647392 75.505661
v 79.887962 80.647392 78.393967
v 79.887970 32.209019 78.393967
v 107.710739 32.209023 34.458206
v 107.710739 80.647385 34.458206
v 104.397415 32.209023 33.252251
v 99.233963 32.209023 47.438725
v 104.397415 80.647385 33.252251
v 99.233963 80.647385 47.438725
v 102.547287 80.647385 48.644684
v 102.547287 32.209023 48.644684
v 113.483673 32.209019 18.597183
v 113.483673 80.647392 18.597183
v 110.170349 32.209023 17.391235
v 105.006897 32.209023 31.577705
v 110.170349 80.647392 17.391235
v 105.006897 80.647385 31.577705
v 108.320221 80.647392 32.783653
v 108.320221 32.209023 32.783653
v 102.012680 32.209023 50.113525
v 102.012680 80.647385 50.113525
v 98.699341 32.209023 48.907574
v 93.535889 32.209023 63.094048
v 98.699341 80.647385 48.907574
v 93.535889 80.647385 63.094048
v 96.849213 80.647385 64.300003
v 96.849213 32.209023 64.300003
v 119.312866 32.209019 2.581657
v 119.312866 80.647392 2.581657
v 115.999527 32.209019 1.375702
v 110.836075 32.209023 15.562180
v 115.999527 80.647392 1.375702
v 110.836075 80.647392 15.562180
v 114.149399 80.647392 16.768127
v 114.149399 32.209019 16.768127
v 110.156860 32.209023 -33.620903
v 110.156860 80.647392 -33.620903
v 106.803467 32.209023 -32.531334
v 111.468658 32.209023 -18.173294
v 106.803467 80.647385 -32.531334
v 111.468658 80.647392 -18.173294
v 114.822067 80.647392 -19.262878
v 114.822067 32.209019 -19.262878
v 104.940964 32.209023 -49.673744
v 104.940964 80.647385 -49.673744
v 101.587570 32.209023 -48.584160
v 106.252777 32.209023 -34.226112
v 101.587570 80.647385 -48.584160
v 106.252777 80.647385 -34.226112
v 109.606171 80.647392 -35.315712
v 109.606171 32.209023 -35.315712
v 115.159119 32.209019 -17.776276
v 115.159119 80.647392 -17.776276
v 111.805710 32.209023 -16.686691
v 116.470917 32.209019 -2.328651
v 111.805710 80.647392 -16.686691
v 116.470917 80.647392 -2.328651
v 119.824310 80.647392 -3.418236
v 119.824310 32.209019 -3.418236
v 99.674286 32.209023 -65.882942
v 99.674286 80.647385 -65.882942
v 96.320892 32.209023 -64.793358
v 100.986099 32.209023 -50.435326
v 96.320892 80.647385 -64.793358
v 100.986099 80.647385 -50.435326
v 104.339493 80.647385 -51.524910
v 104.339493 32.209023 -51.524910
v 71.351440 32.209019 -87.968681
v 71.351433 80.647392 -87.968681
v 69.329025 32.209019 -85.080376
v 81.695709 32.209019 -76.421150
v 69.329018 80.647392 -85.080376
v 81.695702 80.647392 -76.421150
v 83.718117 80.647392 -79.309425
v 83.718124 32.209019 -79.309425
v 57.525013 32.209023 -97.650032
v 57.525017 80.647392 -97.650032
v 55.502605 32.209023 -94.761742
v 67.869278 32.209019 -86.102486
v 55.502602 80.647392 -94.761742
v 67.869278 80.647392 -86.102486
v 69.891685 80.647392 -88.990807
v 69.891693 32.209019 -88.990807
v 84.998550 32.209019 -78.412880
v 84.998543 80.647392 -78.412880
v 82.976135 32.209019 -75.524559
v 95.342819 32.209023 -66.865334
v 82.976128 80.647392 -75.524559
v 95.342819 80.647385 -66.865334
v 97.365219 80.647385 -69.753624
v 97.365219 32.209023 -69.753624
v 43.563911 32.209023 -107.425728
v 43.563911 80.647392 -107.425728
v 41.541496 32.209019 -104.537422
v 53.908176 32.209023 -95.878181
v 41.541496 80.647392 -104.537422
v 53.908173 80.647392 -95.878181
v 55.930588 80.647392 -98.766472
v 55.930584 32.209023 -98.766472
v 2.777805 32.209023 -109.859459
v 2.777803 80.647392 -109.859459
v 2.780031 32.209023 -106.333488
v 17.876955 32.209023 -106.343010
v 2.780029 80.647392 -106.333488
v 17.876953 80.647392 -106.343010
v 17.874729 80.647392 -109.868996
v 17.874731 32.209023 -109.868996
v -14.101131 32.209019 -109.848808
v -14.101135 80.647392 -109.848808
v -14.098911 32.209019 -106.322853
v 0.998016 32.209023 -106.332359
v -14.098911 80.647392 -106.322853
v 0.998014 80.647392 -106.332359
v 0.995787 80.647392 -109.858345
v 0.995789 32.209023 -109.858345
v 19.437843 32.209023 -109.869972
v 19.437843 80.647392 -109.869972
v 19.440067 32.209023 -106.344002
v 34.536991 32.209019 -106.353539
v 19.440067 80.647392 -106.344002
v 34.536995 80.647392 -106.353539
v 34.534767 80.647392 -109.879509
v 34.534763 32.209019 -109.879509
v -31.144497 32.209023 -109.838051
v -31.144501 80.647392 -109.838051
v -31.142277 32.209023 -106.312096
v -16.045353 32.209019 -106.321632
v -31.142281 80.647392 -106.312096
v -16.045353 80.647392 -106.321632
v -16.047577 80.647392 -109.847588
v -16.047573 32.209019 -109.847588
v -64.757538 32.209019 -88.871269
v -64.757538 80.647392 -88.871269
v -62.760830 32.209019 -85.965157
v -50.317814 32.209019 -94.514336
v -62.760830 80.647392 -85.965157
v -50.317806 80.647392 -94.514336
v -52.314518 80.647392 -97.420479
v -52.314526 32.209019 -97.420479
v -78.669296 32.209023 -79.312950
v -78.669296 80.647385 -79.312950
v -76.672592 32.209023 -76.406822
v -64.229584 32.209019 -84.956017
v -76.672592 80.647385 -76.406822
v -64.229584 80.647392 -84.956017
v -66.226288 80.647392 -87.862144
v -66.226288 32.209019 -87.862144
v -51.026196 32.209019 -98.305656
v -51.026196 80.647392 -98.305656
v -49.029484 32.209019 -95.399529
v -36.586475 32.209023 -103.948692
v -49.029484 80.647392 -95.399529
v -36.586472 80.647392 -103.948692
v -38.583183 80.647392 -106.854836
v -38.583179 32.209023 -106.854836
v -92.716599 32.209019 -69.661522
v -92.716599 80.647392 -69.661522
v -90.719879 32.209019 -66.755394
v -78.276871 32.209023 -75.304588
v -90.719879 80.647392 -66.755394
v -78.276871 80.647385 -75.304588
v -80.273575 80.647385 -78.210716
v -80.273575 32.209023 -78.210716
v -107.998260 32.209019 -33.664345
v -107.998260 80.647392 -33.664345
v -104.703934 32.209019 -32.407417
v -99.322205 32.209019 -46.512535
v -104.703934 80.647392 -32.407417
v -99.322205 80.647392 -46.512535
v -102.616531 80.647392 -47.769463
v -102.616531 32.209019 -47.769463
v -114.015228 32.209023 -17.894287
v -114.015228 80.647392 -17.894287
v -110.720901 32.209019 -16.637352
v -105.339172 32.209019 -30.742470
v -110.720901 80.647392 -16.637352
v -105.339172 80.647392 -30.742470
v -108.633499 80.647392 -31.999397
v -108.633499 32.209019 -31.999397
v -102.059311 32.209019 -49.229881
v -102.059311 80.647392 -49.229881
v -98.764984 32.209019 -47.972954
v -93.383255 32.209019 -62.078072
v -98.764984 80.647392 -47.972954
v -93.383255 80.647392 -62.078072
v -96.677582 80.647392 -63.335014
v -96.677582 32.209019 -63.335014
v -120.090820 32.209023 -1.970604
v -120.090820 80.647392 -1.970604
v -116.796494 32.209023 -0.713676
v -111.414764 32.209019 -14.818787
v -116.796494 80.647392 -0.713676
v -111.414764 80.647392 -14.818787
v -114.709091 80.647392 -16.075722
v -114.709091 32.209023 -16.075722
v -110.294205 32.209019 32.935814
v -110.294205 80.647392 32.935814
v -106.938309 32.209019 31.853966
v -111.570435 32.209019 17.485222
v -106.938309 80.647392 31.853966
v -111.570435 80.647392 17.485222
v -114.926331 80.647392 18.567078
v -114.926331 32.209023 18.567078
v -115.405930 32.209023 17.079361
v -115.405930 80.647392 17.079361
v -112.050034 32.209023 15.997505
v -116.682159 32.209023 1.628769
v -112.050034 80.647392 15.997505
v -116.682159 80.647392 1.628769
v -120.038055 80.647392 2.710617
v -120.038055 32.209023 2.710617
v -71.867401 32.209023 87.615356
v -71.867401 80.647385 87.615356
v -69.851990 32.209023 84.722168
v -82.239578 32.209023 76.092873
v -69.851990 80.647385 84.722168
v -82.239578 80.647385 76.092873
v -84.254990 80.647385 78.986061
v -84.254990 32.209023 78.986061
v -58.017590 32.209019 97.263229
v -58.017590 80.647392 97.263229
v -56.002171 32.209019 94.370056
v -68.389771 32.209023 85.740746
v -56.002171 80.647392 94.370056
v -68.389771 80.647385 85.740746
v -70.405182 80.647385 88.633942
v -70.405182 32.209023 88.633942
v -85.537582 32.209023 78.092598
v -85.537582 80.647385 78.092598
v -83.522171 32.209023 75.199402
v -95.909760 32.209019 66.570114
v -83.522171 80.647385 75.199402
v -95.909760 80.647392 66.570114
v -97.925186 80.647392 69.463303
v -97.925186 32.209019 69.463303
v -44.032871 32.209023 107.005112
v -44.032871 80.647392 107.005112
v -42.017452 32.209023 104.111923
v -54.405048 32.209019 95.482620
v -42.017448 80.647392 104.111923
v -54.405041 80.647392 95.482620
v -56.420460 80.647392 98.375809
v -56.420460 32.209019 98.375809
v 33.242355 47.131710 107.296928
v 33.242355 49.131710 107.296928
v 33.242355 47.131710 108.401154
v 33.242355 49.131710 108.401154
v -35.765591 47.131710 107.296928
v -35.765591 49.131710 107.296928
v -35.765591 47.131710 108.401154
v -35.765591 49.131710 108.401154
v 33.242355 18.904779 107.296928
v 33.242355 20.904779 107.296928
v 33.242355 18.904779 108.401154
v 33.242355 20.904779 108.401154
v -35.765594 18.904779 107.296928
v -35.765594 20.904781 107.296928
v -35.765594 18.904779 108.401154
v -35.765594 20.904781 108.401154
v -23.081253 80.592140 106.676102
v -25.081253 80.592140 106.676102
v -23.081253 80.592140 107.780334
v -25.081253 80.592140 107.780334
v -23.081245 -50.614483 106.676102
v -25.081245 -50.614483 106.676102
v -23.081245 -50.614483 107.780334
v -25.081245 -50.614483 107.780334
vn -0.0000 -0.0000 -1.0000
vn 1.0000 -0.0000 -0.0000
vn -1.0000 -0.0000 -0.0000
vn 0.3068 -0.0000 0.9518
vn 0.9518 -0.0000 -0.3068
vn -0.3068 -0.0000 -0.9518
vn 0.8192 -0.0000 -0.5736
vn -0.5736 -0.0000 -0.8192
vn -0.8191 -0.0000 0.5736
vn -0.8192 -0.0000 0.5736
vn 0.3420 -0.0000 -0.9397
vn -0.9397 -0.0000 -0.3420
vn -0.3420 -0.0000 0.9397
vn -0.3090 -0.0000 -0.9511
vn -0.9511 -0.0000 0.3090
vn 0.3090 -0.0000 0.9511
vn -0.8191 -0.0000 -0.5736
vn -0.5736 -0.0000 0.8192
vn 0.8191 -0.0000 0.5736
vn -0.8192 -0.0000 -0.5736
vn 0.8192 -0.0000 0.5736
vn -1.0000 -0.0000 0.0006
vn 0.0006 -0.0000 1.0000
vn 1.0000 -0.0000 -0.0006
vn -0.8242 -0.0000 0.5663
vn 0.5663 -0.0000 0.8242
vn 0.8242 -0.0000 -0.5663
vn -0.3565 -0.0000 0.9343
vn 0.9343 -0.0000 0.3565
vn 0.3565 -0.0000 -0.9343
vn 0.8205 -0.0000 0.5716
vn 0.5716 -0.0000 -0.8205
vn -0.8205 -0.0000 -0.5716
vn -0.0000 -1.0000 -0.0000
vn -0.0000 1.0000 -0.0000
vt 0.625000 0.750000
vt 0.375000 1.000000
vt 0.375000 0.750000
vt 0.375000 0.500000
vt 0.125000 0.750000
vt 0.125000 0.500000
vt 0.875000 0.500000
vt 0.625000 0.500000
vt 0.625000 0.250000
vt 0.375000 0.250000
vt 0.625000 1.000000
vt 0.875000 0.750000
s 0
f 6/1/1 1/2/1 5/3/1
f 7/4/2 1/5/2 3/6/2
f 4/7/3 6/1/3 8/8/3
f 13/1/4 9/2/4 11/3/4
f 14/8/5 11/3/5 12/4/5
f 15/9/6 12/4/6 16/10/6
f 21/1/4 17/2/4 19/3/4
f 22/8/5 19/3/5 20/4/5
f 23/9/6 20/4/6 24/10/6
f 29/1/7 25/2/7 27/3/7
f 28/4/8 29/1/8 27/3/8
f 31/9/9 28/4/9 32/10/9
f 37/1/7 33/2/7 35/3/7
f 36/4/8 37/1/8 35/3/8
f 39/9/10 36/4/10 40/10/10
f 45/1/7 41/2/7 43/3/7
f 46/8/8 43/3/8 44/4/8
f 47/9/10 44/4/10 48/10/10
f 53/1/7 49/2/7 51/3/7
f 52/4/8 53/1/8 51/3/8
f 55/9/9 52/4/9 56/10/9
f 61/1/11 57/2/11 59/3/11
f 62/8/12 59/3/12 60/4/12
f 63/9/13 60/4/13 64/10/13
f 67/3/11 66/11/11 65/2/11
f 70/8/12 67/3/12 68/4/12
f 72/10/13 70/8/13 68/4/13
f 77/1/11 73/2/11 75/3/11
f 78/8/12 75/3/12 76/4/12
f 79/9/13 76/4/13 80/10/13
f 85/1/11 81/2/11 83/3/11
f 84/4/12 85/1/12 83/3/12
f 87/9/13 84/4/13 88/10/13
f 93/1/14 89/2/14 91/3/14
f 92/4/15 93/1/15 91/3/15
f 95/9/16 92/4/16 96/10/16
f 101/1/14 97/2/14 99/3/14
f 102/8/15 99/3/15 100/4/15
f 104/10/16 102/8/16 100/4/16
f 107/3/14 106/11/14 105/2/14
f 110/8/15 107/3/15 108/4/15
f 111/9/16 108/4/16 112/10/16
f 117/1/14 113/2/14 115/3/14
f 118/8/15 115/3/15 116/4/15
f 119/9/16 116/4/16 120/10/16
f 123/3/17 122/11/17 121/2/17
f 126/8/18 123/3/18 124/4/18
f 127/9/19 124/4/19 128/10/19
f 133/1/20 129/2/20 131/3/20
f 134/8/18 131/3/18 132/4/18
f 135/9/21 132/4/21 136/10/21
f 141/1/20 137/2/20 139/3/20
f 142/8/18 139/3/18 140/4/18
f 143/9/21 140/4/21 144/10/21
f 149/1/20 145/2/20 147/3/20
f 148/4/18 149/1/18 147/3/18
f 151/9/21 148/4/21 152/10/21
f 157/1/22 153/2/22 155/3/22
f 158/8/23 155/3/23 156/4/23
f 159/9/24 156/4/24 160/10/24
f 165/1/22 161/2/22 163/3/22
f 164/4/23 165/1/23 163/3/23
f 167/9/24 164/4/24 168/10/24
f 173/1/22 169/2/22 171/3/22
f 174/8/23 171/3/23 172/4/23
f 175/9/24 172/4/24 176/10/24
f 181/1/22 177/2/22 179/3/22
f 182/8/23 179/3/23 180/4/23
f 183/9/24 180/4/24 184/10/24
f 189/1/25 185/2/25 187/3/25
f 190/8/26 187/3/26 188/4/26
f 191/9/27 188/4/27 192/10/27
f 197/1/25 193/2/25 195/3/25
f 196/4/26 197/1/26 195/3/26
f 199/9/27 196/4/27 200/10/27
f 205/1/25 201/2/25 203/3/25
f 204/4/26 205/1/26 203/3/26
f 207/9/27 204/4/27 208/10/27
f 213/1/25 209/2/25 211/3/25
f 214/8/26 211/3/26 212/4/26
f 215/9/27 212/4/27 216/10/27
f 221/1/28 217/2/28 219/3/28
f 222/8/29 219/3/29 220/4/29
f 223/9/30 220/4/30 224/10/30
f 229/1/28 225/2/28 227/3/28
f 230/8/29 227/3/29 228/4/29
f 231/9/30 228/4/30 232/10/30
f 237/1/28 233/2/28 235/3/28
f 238/8/29 235/3/29 236/4/29
f 239/9/30 236/4/30 240/10/30
f 245/1/28 241/2/28 243/3/28
f 246/8/29 243/3/29 244/4/29
f 248/10/30 246/8/30 244/4/30
f 253/1/4 249/2/4 251/3/4
f 254/8/5 251/3/5 252/4/5
f 256/10/6 254/8/6 252/4/6
f 261/1/4 257/2/4 259/3/4
f 262/8/5 259/3/5 260/4/5
f 263/9/6 260/4/6 264/10/6
f 269/1/31 265/2/31 267/3/31
f 270/8/32 267/3/32 268/4/32
f 271/9/33 268/4/33 272/10/33
f 277/1/31 273/2/31 275/3/31
f 278/8/32 275/3/32 276/4/32
f 279/9/33 276/4/33 280/10/33
f 285/1/31 281/2/31 283/3/31
f 284/4/32 285/1/32 283/3/32
f 287/9/33 284/4/33 288/10/33
f 293/1/31 289/2/31 291/3/31
f 294/8/32 291/3/32 292/4/32
f 295/9/33 292/4/33 296/10/33
f 302/1/1 297/2/1 301/3/1
f 303/4/34 297/5/34 299/6/34
f 300/7/35 302/1/35 304/8/35
f 310/1/1 305/2/1 309/3/1
f 311/4/34 305/5/34 307/6/34
f 308/7/35 310/1/35 312/8/35
f 318/1/1 313/2/1 317/3/1
f 319/4/2 313/5/2 315/6/2
f 316/7/3 318/1/3 320/8/3
f 6/1/1 2/11/1 1/2/1
f 7/4/2 5/3/2 1/5/2
f 4/7/3 2/12/3 6/1/3
f 13/1/4 10/11/4 9/2/4
f 14/8/5 13/1/5 11/3/5
f 15/9/6 14/8/6 12/4/6
f 21/1/4 18/11/4 17/2/4
f 22/8/5 21/1/5 19/3/5
f 23/9/6 22/8/6 20/4/6
f 29/1/7 26/11/7 25/2/7
f 28/4/8 30/8/8 29/1/8
f 31/9/10 30/8/10 28/4/10
f 37/1/7 34/11/7 33/2/7
f 36/4/8 38/8/8 37/1/8
f 39/9/10 38/8/10 36/4/10
f 45/1/7 42/11/7 41/2/7
f 46/8/8 45/1/8 43/3/8
f 47/9/10 46/8/10 44/4/10
f 53/1/7 50/11/7 49/2/7
f 52/4/8 54/8/8 53/1/8
f 55/9/10 54/8/10 52/4/10
f 61/1/11 58/11/11 57/2/11
f 62/8/12 61/1/12 59/3/12
f 63/9/13 62/8/13 60/4/13
f 67/3/11 69/1/11 66/11/11
f 70/8/12 69/1/12 67/3/12
f 72/10/13 71/9/13 70/8/13
f 77/1/11 74/11/11 73/2/11
f 78/8/12 77/1/12 75/3/12
f 79/9/13 78/8/13 76/4/13
f 85/1/11 82/11/11 81/2/11
f 84/4/12 86/8/12 85/1/12
f 87/9/13 86/8/13 84/4/13
f 93/1/14 90/11/14 89/2/14
f 92/4/15 94/8/15 93/1/15
f 95/9/16 94/8/16 92/4/16
f 101/1/14 98/11/14 97/2/14
f 102/8/15 101/1/15 99/3/15
f 104/10/16 103/9/16 102/8/16
f 107/3/14 109/1/14 106/11/14
f 110/8/15 109/1/15 107/3/15
f 111/9/16 110/8/16 108/4/16
f 117/1/14 114/11/14 113/2/14
f 118/8/15 117/1/15 115/3/15
f 119/9/16 118/8/16 116/4/16
f 123/3/20 125/1/20 122/11/20
f 126/8/18 125/1/18 123/3/18
f 127/9/21 126/8/21 124/4/21
f 133/1/20 130/11/20 129/2/20
f 134/8/18 133/1/18 131/3/18
f 135/9/21 134/8/21 132/4/21
f 141/1/20 138/11/20 137/2/20
f 142/8/18 141/1/18 139/3/18
f 143/9/21 142/8/21 140/4/21
f 149/1/20 146/11/20 145/2/20
f 148/4/18 150/8/18 149/1/18
f 151/9/19 150/8/19 148/4/19
f 157/1/22 154/11/22 153/2/22
f 158/8/23 157/1/23 155/3/23
f 159/9/24 158/8/24 156/4/24
f 165/1/22 162/11/22 161/2/22
f 164/4/23 166/8/23 165/1/23
f 167/9/24 166/8/24 164/4/24
f 173/1/22 170/11/22 169/2/22
f 174/8/23 173/1/23 171/3/23
f 175/9/24 174/8/24 172/4/24
f 181/1/22 178/11/22 177/2/22
f 182/8/23 181/1/23 179/3/23
f 183/9/24 182/8/24 180/4/24
f 189/1/25 186/11/25 185/2/25
f 190/8/26 189/1/26 187/3/26
f 191/9/27 190/8/27 188/4/27
f 197/1/25 194/11/25 193/2/25
f 196/4/26 198/8/26 197/1/26
f 199/9/27 198/8/27 196/4/27
f 205/1/25 202/11/25 201/2/25
f 204/4/26 206/8/26 205/1/26
f 207/9/27 206/8/27 204/4/27
f 213/1/25 210/11/25 209/2/25
f 214/8/26 213/1/26 211/3/26
f 215/9/27 214/8/27 212/4/27
f 221/1/28 218/11/28 217/2/28
f 222/8/29 221/1/29 219/3/29
f 223/9/30 222/8/30 220/4/30
f 229/1/28 226/11/28 225/2/28
f 230/8/29 229/1/29 227/3/29
f 231/9/30 230/8/30 228/4/30
f 237/1/28 234/11/28 233/2/28
f 238/8/29 237/1/29 235/3/29
f 239/9/30 238/8/30 236/4/30
f 245/1/28 242/11/28 241/2/28
f 246/8/29 245/1/29 243/3/29
f 248/10/30 247/9/30 246/8/30
f 253/1/4 250/11/4 249/2/4
f 254/8/5 253/1/5 251/3/5
f 256/10/6 255/9/6 254/8/6
f 261/1/4 258/11/4 257/2/4
f 262/8/5 261/1/5 259/3/5
f 263/9/6 262/8/6 260/4/6
f 269/1/31 266/11/31 265/2/31
f 270/8/32 269/1/32 267/3/32
f 271/9/33 270/8/33 268/4/33
f 277/1/31 274/11/31 273/2/31
f 278/8/32 277/1/32 275/3/32
f 279/9/33 278/8/33 276/4/33
f 285/1/31 282/11/31 281/2/31
f 284/4/32 286/8/32 285/1/32
f 287/9/33 286/8/33 284/4/33
f 293/1/31 290/11/31 289/2/31
f 294/8/32 293/1/32 291/3/32
f 295/9/33 294/8/33 292/4/33
f 302/1/1 298/11/1 297/2/1
f 303/4/34 301/3/34 297/5/34
f 300/7/35 298/12/35 302/1/35
f 310/1/1 306/11/1 305/2/1
f 311/4/34 309/3/34 305/5/34
f 308/7/35 306/12/35 310/1/35
f 318/1/1 314/11/1 313/2/1
f 319/4/2 317/3/2 313/5/2
f 316/7/3 314/12/3 318/1/3
