mtllib fortress_plaza.mtl
o fortress_plaza
v 12.137500 0.000000 -10.712500
v 11.850000 0.000000 -11.000000
v 0.000000 0.000000 0.000000
v 12.425000 0.000000 -10.425000
v 12.137500 0.000000 -10.712500
v 0.000000 0.000000 0.000000
v 12.712500 0.000000 -10.137500
v 12.425000 0.000000 -10.425000
v 0.000000 0.000000 0.000000
v 13.000000 0.000000 -9.850000
v 12.712500 0.000000 -10.137500
v 0.000000 0.000000 0.000000
v 13.000000 0.000000 -4.925000
v 13.000000 0.000000 -9.850000
v 0.000000 0.000000 0.000000
v 13.000000 0.000000 0.000000
v 13.000000 0.000000 -4.925000
v 0.000000 0.000000 0.000000
v 13.000000 0.000000 4.925000
v 13.000000 0.000000 0.000000
v 0.000000 0.000000 0.000000
v 13.000000 0.000000 9.850000
v 13.000000 0.000000 4.925000
v 0.000000 0.000000 0.000000
v 12.712500 0.000000 10.137500
v 13.000000 0.000000 9.850000
v 0.000000 0.000000 0.000000
v 12.425000 0.000000 10.425000
v 12.712500 0.000000 10.137500
v 0.000000 0.000000 0.000000
v 12.137500 0.000000 10.712500
v 12.425000 0.000000 10.425000
v 0.000000 0.000000 0.000000
v 11.850000 0.000000 11.000000
v 12.137500 0.000000 10.712500
v 0.000000 0.000000 0.000000
v 5.925000 0.000000 11.000000
v 11.850000 0.000000 11.000000
v 0.000000 0.000000 0.000000
v 0.000000 0.000000 11.000000
v 5.925000 0.000000 11.000000
v 0.000000 0.000000 0.000000
v -5.925000 0.000000 11.000000
v 0.000000 0.000000 11.000000
v 0.000000 0.000000 0.000000
v -11.850000 0.000000 11.000000
v -5.925000 0.000000 11.000000
v 0.000000 0.000000 0.000000
v -12.137500 0.000000 10.712500
v -11.850000 0.000000 11.000000
v 0.000000 0.000000 0.000000
v -12.425000 0.000000 10.425000
v -12.137500 0.000000 10.712500
v 0.000000 0.000000 0.000000
v -12.712500 0.000000 10.137500
v -12.425000 0.000000 10.425000
v 0.000000 0.000000 0.000000
v -13.000000 0.000000 9.850000
v -12.712500 0.000000 10.137500
v 0.000000 0.000000 0.000000
v -13.000000 0.000000 4.925000
v -13.000000 0.000000 9.850000
v 0.000000 0.000000 0.000000
v -13.000000 0.000000 0.000000
v -13.000000 0.000000 4.925000
v 0.000000 0.000000 0.000000
v -13.000000 0.000000 -4.925000
v -13.000000 0.000000 0.000000
v 0.000000 0.000000 0.000000
v -13.000000 0.000000 -9.850000
v -13.000000 0.000000 -4.925000
v 0.000000 0.000000 0.000000
v -12.712500 0.000000 -10.137500
v -13.000000 0.000000 -9.850000
v 0.000000 0.000000 0.000000
v -12.425000 0.000000 -10.425000
v -12.712500 0.000000 -10.137500
v 0.000000 0.000000 0.000000
v -12.137500 0.000000 -10.712500
v -12.425000 0.000000 -10.425000
v 0.000000 0.000000 0.000000
v -11.850000 0.000000 -11.000000
v -12.137500 0.000000 -10.712500
v 0.000000 0.000000 0.000000
v -5.925000 0.000000 -11.000000
v -11.850000 0.000000 -11.000000
v 0.000000 0.000000 0.000000
v 0.000000 0.000000 -11.000000
v -5.925000 0.000000 -11.000000
v 0.000000 0.000000 0.000000
v 5.925000 0.000000 -11.000000
v 0.000000 0.000000 -11.000000
v 0.000000 0.000000 0.000000
v 11.850000 0.000000 -11.000000
v 5.925000 0.000000 -11.000000
v 0.000000 0.000000 0.000000
v 11.850000 0.000000 -11.000000
v 12.137500 0.000000 -10.712500
v 12.296416 -0.650000 -10.909282
v 11.973742 -0.650000 -11.203502
v 12.137500 0.000000 -10.712500
v 12.425000 0.000000 -10.425000
v 12.582987 -0.650000 -10.583307
v 12.296416 -0.650000 -10.909282
v 12.425000 0.000000 -10.425000
v 12.712500 0.000000 -10.137500
v 12.892832 -0.650000 -10.277764
v 12.582987 -0.650000 -10.583307
v 12.712500 0.000000 -10.137500
v 13.000000 0.000000 -9.850000
v 13.220401 -0.650000 -9.985409
v 12.892832 -0.650000 -10.277764
v 13.000000 0.000000 -9.850000
v 13.000000 0.000000 -4.925000
v 13.198455 -0.650000 -4.984416
v 13.220401 -0.650000 -9.985409
v 13.000000 0.000000 -4.925000
v 13.000000 0.000000 0.000000
v 13.166772 -0.650000 0.000000
v 13.198455 -0.650000 -4.984416
v 13.000000 0.000000 0.000000
v 13.000000 0.000000 4.925000
v 13.194128 -0.650000 4.982782
v 13.166772 -0.650000 0.000000
v 13.000000 0.000000 4.925000
v 13.000000 0.000000 9.850000
v 13.208765 -0.650000 9.976620
v 13.194128 -0.650000 4.982782
v 13.000000 0.000000 9.850000
v 12.712500 0.000000 10.137500
v 12.882069 -0.650000 10.269185
v 13.208765 -0.650000 9.976620
v 12.712500 0.000000 10.137500
v 12.425000 0.000000 10.425000
v 12.583221 -0.650000 10.583503
v 12.882069 -0.650000 10.269185
v 12.425000 0.000000 10.425000
v 12.137500 0.000000 10.712500
v 12.302521 -0.650000 10.914699
v 12.583221 -0.650000 10.583503
v 12.137500 0.000000 10.712500
v 11.850000 0.000000 11.000000
v 11.979773 -0.650000 11.209144
v 12.302521 -0.650000 10.914699
v 11.850000 0.000000 11.000000
v 5.925000 0.000000 11.000000
v 5.975477 -0.650000 11.182179
v 11.979773 -0.650000 11.209144
v 5.925000 0.000000 11.000000
v 0.000000 0.000000 11.000000
v 0.000000 -0.650000 11.198210
v 5.975477 -0.650000 11.182179
v 0.000000 0.000000 11.000000
v -5.925000 0.000000 11.000000
v -5.987876 -0.650000 11.205382
v 0.000000 -0.650000 11.198210
v -5.925000 0.000000 11.000000
v -11.850000 0.000000 11.000000
v -11.951125 -0.650000 11.182339
v -5.987876 -0.650000 11.205382
v -11.850000 0.000000 11.000000
v -12.137500 0.000000 10.712500
v -12.264622 -0.650000 10.881075
v -11.951125 -0.650000 11.182339
v -12.137500 0.000000 10.712500
v -12.425000 0.000000 10.425000
v -12.604137 -0.650000 10.601095
v -12.264622 -0.650000 10.881075
v -12.425000 0.000000 10.425000
v -12.712500 0.000000 10.137500
v -12.905230 -0.650000 10.287648
v -12.604137 -0.650000 10.601095
v -12.712500 0.000000 10.137500
v -13.000000 0.000000 9.850000
v -13.192865 -0.650000 9.964611
v -12.905230 -0.650000 10.287648
v -13.000000 0.000000 9.850000
v -13.000000 0.000000 4.925000
v -13.211378 -0.650000 4.989297
v -13.192865 -0.650000 9.964611
v -13.000000 0.000000 4.925000
v -13.000000 0.000000 0.000000
v -13.217101 -0.650000 0.000000
v -13.211378 -0.650000 4.989297
v -13.000000 0.000000 0.000000
v -13.000000 0.000000 -4.925000
v -13.177446 -0.650000 -4.976482
v -13.217101 -0.650000 0.000000
v -13.000000 0.000000 -4.925000
v -13.000000 0.000000 -9.850000
v -13.178626 -0.650000 -9.953856
v -13.177446 -0.650000 -4.976482
v -13.000000 0.000000 -9.850000
v -12.712500 0.000000 -10.137500
v -12.900482 -0.650000 -10.283863
v -13.178626 -0.650000 -9.953856
v -12.712500 0.000000 -10.137500
v -12.425000 0.000000 -10.425000
v -12.588396 -0.650000 -10.587856
v -12.900482 -0.650000 -10.283863
v -12.425000 0.000000 -10.425000
v -12.137500 0.000000 -10.712500
v -12.267567 -0.650000 -10.883688
v -12.588396 -0.650000 -10.587856
v -12.137500 0.000000 -10.712500
v -11.850000 0.000000 -11.000000
v -11.982813 -0.650000 -11.211989
v -12.267567 -0.650000 -10.883688
v -11.850000 0.000000 -11.000000
v -5.925000 0.000000 -11.000000
v -5.999584 -0.650000 -11.227292
v -11.982813 -0.650000 -11.211989
v -5.925000 0.000000 -11.000000
v 0.000000 0.000000 -11.000000
v 0.000000 -0.650000 -11.190488
v -5.999584 -0.650000 -11.227292
v 0.000000 0.000000 -11.000000
v 5.925000 0.000000 -11.000000
v 5.975539 -0.650000 -11.182296
v 0.000000 -0.650000 -11.190488
v 5.925000 0.000000 -11.000000
v 11.850000 0.000000 -11.000000
v 11.973742 -0.650000 -11.203502
v 5.975539 -0.650000 -11.182296
v 11.973742 -0.650000 -11.203502
v 12.296416 -0.650000 -10.909282
v 12.589230 -2.204000 -11.227962
v 12.274071 -2.204000 -11.577421
v 12.296416 -0.650000 -10.909282
v 12.582987 -0.650000 -10.583307
v 12.882197 -2.204000 -10.861558
v 12.589230 -2.204000 -11.227962
v 12.582987 -0.650000 -10.583307
v 12.892832 -0.650000 -10.277764
v 13.290273 -2.204000 -10.590569
v 12.882197 -2.204000 -10.861558
v 12.892832 -0.650000 -10.277764
v 13.220401 -0.650000 -9.985409
v 13.647110 -2.204000 -10.274288
v 13.290273 -2.204000 -10.590569
v 13.220401 -0.650000 -9.985409
v 13.198455 -0.650000 -4.984416
v 13.536241 -2.204000 -5.095410
v 13.647110 -2.204000 -10.274288
v 13.198455 -0.650000 -4.984416
v 13.166772 -0.650000 0.000000
v 13.510111 -2.204000 0.000000
v 13.536241 -2.204000 -5.095410
v 13.166772 -0.650000 0.000000
v 13.194128 -0.650000 4.982782
v 13.595288 -2.204000 5.117637
v 13.510111 -2.204000 0.000000
v 13.194128 -0.650000 4.982782
v 13.208765 -0.650000 9.976620
v 13.556328 -2.204000 10.205943
v 13.595288 -2.204000 5.117637
v 13.208765 -0.650000 9.976620
v 12.882069 -0.650000 10.269185
v 13.179118 -2.204000 10.501993
v 13.556328 -2.204000 10.205943
v 12.882069 -0.650000 10.269185
v 12.583221 -0.650000 10.583503
v 12.935860 -2.204000 10.906804
v 13.179118 -2.204000 10.501993
v 12.583221 -0.650000 10.583503
v 12.302521 -0.650000 10.914699
v 12.651320 -2.204000 11.283338
v 12.935860 -2.204000 10.906804
v 12.302521 -0.650000 10.914699
v 11.979773 -0.650000 11.209144
v 12.242459 -2.204000 11.547603
v 12.651320 -2.204000 11.283338
v 11.979773 -0.650000 11.209144
v 5.975477 -0.650000 11.182179
v 6.112824 -2.204000 11.531747
v 12.242459 -2.204000 11.547603
v 5.975477 -0.650000 11.182179
v 0.000000 -0.650000 11.198210
v 0.000000 -2.204000 11.603492
v 6.112824 -2.204000 11.531747
v 0.000000 -0.650000 11.198210
v -5.987876 -0.650000 11.205382
v -6.113968 -2.204000 11.533905
v 0.000000 -2.204000 11.603492
v -5.987876 -0.650000 11.205382
v -11.951125 -0.650000 11.182339
v -12.165089 -2.204000 11.474625
v -6.113968 -2.204000 11.533905
v -11.951125 -0.650000 11.182339
v -12.264622 -0.650000 10.881075
v -12.566904 -2.204000 11.208050
v -12.165089 -2.204000 11.474625
v -12.264622 -0.650000 10.881075
v -12.604137 -0.650000 10.601095
v -12.956480 -2.204000 10.924189
v -12.566904 -2.204000 11.208050
v -12.604137 -0.650000 10.601095
v -12.905230 -0.650000 10.287648
v -13.231266 -2.204000 10.543548
v -12.956480 -2.204000 10.924189
v -12.905230 -0.650000 10.287648
v -13.192865 -0.650000 9.964611
v -13.573017 -2.204000 10.218507
v -13.231266 -2.204000 10.543548
v -13.192865 -0.650000 9.964611
v -13.211378 -0.650000 4.989297
v -13.664062 -2.204000 5.143525
v -13.573017 -2.204000 10.218507
v -13.211378 -0.650000 4.989297
v -13.217101 -0.650000 0.000000
v -13.602838 -2.204000 0.000000
v -13.664062 -2.204000 5.143525
v -13.217101 -0.650000 0.000000
v -13.177446 -0.650000 -4.976482
v -13.493092 -2.204000 -5.079168
v -13.602838 -2.204000 0.000000
v -13.177446 -0.650000 -4.976482
v -13.178626 -0.650000 -9.953856
v -13.553363 -2.204000 -10.203711
v -13.493092 -2.204000 -5.079168
v -13.178626 -0.650000 -9.953856
v -12.900482 -0.650000 -10.283863
v -13.261227 -2.204000 -10.567423
v -13.553363 -2.204000 -10.203711
v -12.900482 -0.650000 -10.283863
v -12.588396 -0.650000 -10.587856
v -12.865410 -2.204000 -10.847404
v -13.261227 -2.204000 -10.567423
v -12.588396 -0.650000 -10.587856
v -12.267567 -0.650000 -10.883688
v -12.551383 -2.204000 -11.194207
v -12.865410 -2.204000 -10.847404
v -12.267567 -0.650000 -10.883688
v -11.982813 -0.650000 -11.211989
v -12.313575 -2.204000 -11.614682
v -12.551383 -2.204000 -11.194207
v -11.982813 -0.650000 -11.211989
v -5.999584 -0.650000 -11.227292
v -6.151208 -2.204000 -11.604158
v -12.313575 -2.204000 -11.614682
v -5.999584 -0.650000 -11.227292
v 0.000000 -0.650000 -11.190488
v 0.000000 -2.204000 -11.508651
v -6.151208 -2.204000 -11.604158
v 0.000000 -0.650000 -11.190488
v 5.975539 -0.650000 -11.182296
v 6.126239 -2.204000 -11.557054
v 0.000000 -2.204000 -11.508651
v 5.975539 -0.650000 -11.182296
v 11.973742 -0.650000 -11.203502
v 12.274071 -2.204000 -11.577421
v 6.126239 -2.204000 -11.557054
v 12.274071 -2.204000 -11.577421
v 12.589230 -2.204000 -11.227962
v 12.183064 -3.480000 -10.797549
v 11.911743 -3.480000 -11.156316
v 12.589230 -2.204000 -11.227962
v 12.882197 -2.204000 -10.861558
v 12.532194 -3.480000 -10.508455
v 12.183064 -3.480000 -10.797549
v 12.882197 -2.204000 -10.861558
v 13.290273 -2.204000 -10.590569
v 12.916246 -3.480000 -10.244093
v 12.532194 -3.480000 -10.508455
v 13.290273 -2.204000 -10.590569
v 13.647110 -2.204000 -10.274288
v 13.197443 -3.480000 -9.896830
v 12.916246 -3.480000 -10.244093
v 13.647110 -2.204000 -10.274288
v 13.536241 -2.204000 -5.095410
v 13.147088 -3.480000 -4.929534
v 13.197443 -3.480000 -9.896830
v 13.536241 -2.204000 -5.095410
v 13.510111 -2.204000 0.000000
v 13.194939 -3.480000 0.000000
v 13.147088 -3.480000 -4.929534
v 13.510111 -2.204000 0.000000
v 13.595288 -2.204000 5.117637
v 13.189954 -3.480000 4.945607
v 13.194939 -3.480000 0.000000
v 13.595288 -2.204000 5.117637
v 13.556328 -2.204000 10.205943
v 13.119307 -3.480000 9.838235
v 13.189954 -3.480000 4.945607
v 13.556328 -2.204000 10.205943
v 13.179118 -2.204000 10.501993
v 12.822863 -3.480000 10.170029
v 13.119307 -3.480000 9.838235
v 13.179118 -2.204000 10.501993
v 12.935860 -2.204000 10.906804
v 12.573994 -3.480000 10.543505
v 12.822863 -3.480000 10.170029
v 12.935860 -2.204000 10.906804
v 12.651320 -2.204000 11.283338
v 12.235329 -3.480000 10.843870
v 12.573994 -3.480000 10.543505
v 12.651320 -2.204000 11.283338
v 12.242459 -2.204000 11.547603
v 11.891187 -3.480000 11.137063
v 12.235329 -3.480000 10.843870
v 12.242459 -2.204000 11.547603
v 6.112824 -2.204000 11.531747
v 5.975050 -3.480000 11.192241
v 11.891187 -3.480000 11.137063
v 6.112824 -2.204000 11.531747
v 0.000000 -2.204000 11.603492
v 0.000000 -3.480000 11.199851
v 5.975050 -3.480000 11.192241
v 0.000000 -2.204000 11.603492
v -6.113968 -2.204000 11.533905
v -5.929314 -3.480000 11.106569
v 0.000000 -3.480000 11.199851
v -6.113968 -2.204000 11.533905
v -12.165089 -2.204000 11.474625
v -11.868587 -3.480000 11.115897
v -5.929314 -3.480000 11.106569
v -12.165089 -2.204000 11.474625
v -12.566904 -2.204000 11.208050
v -12.236443 -3.480000 10.844857
v -11.868587 -3.480000 11.115897
v -12.566904 -2.204000 11.208050
v -12.956480 -2.204000 10.924189
v -12.528731 -3.480000 10.505550
v -12.236443 -3.480000 10.844857
v -12.956480 -2.204000 10.924189
v -13.231266 -2.204000 10.543548
v -12.822923 -3.480000 10.170077
v -12.528731 -3.480000 10.505550
v -13.231266 -2.204000 10.543548
v -13.573017 -2.204000 10.218507
v -13.209287 -3.480000 9.905712
v -12.822923 -3.480000 10.170077
v -13.573017 -2.204000 10.218507
v -13.664062 -2.204000 5.143525
v -13.241235 -3.480000 4.964835
v -13.209287 -3.480000 9.905712
v -13.664062 -2.204000 5.143525
v -13.602838 -2.204000 0.000000
v -13.159853 -3.480000 0.000000
v -13.241235 -3.480000 4.964835
v -13.602838 -2.204000 0.000000
v -13.493092 -2.204000 -5.079168
v -13.154168 -3.480000 -4.932189
v -13.159853 -3.480000 0.000000
v -13.493092 -2.204000 -5.079168
v -13.553363 -2.204000 -10.203711
v -13.198039 -3.480000 -9.897277
v -13.154168 -3.480000 -4.932189
v -13.553363 -2.204000 -10.203711
v -13.261227 -2.204000 -10.567423
v -12.836930 -3.480000 -10.181186
v -13.198039 -3.480000 -9.897277
v -13.261227 -2.204000 -10.567423
v -12.865410 -2.204000 -10.847404
v -12.482550 -3.480000 -10.466827
v -12.836930 -3.480000 -10.181186
v -12.865410 -2.204000 -10.847404
v -12.551383 -2.204000 -11.194207
v -12.229237 -3.480000 -10.838471
v -12.482550 -3.480000 -10.466827
v -12.551383 -2.204000 -11.194207
v -12.313575 -2.204000 -11.614682
v -11.944667 -3.480000 -11.187151
v -12.229237 -3.480000 -10.838471
v -12.313575 -2.204000 -11.614682
v -6.151208 -2.204000 -11.604158
v -5.948880 -3.480000 -11.143220
v -11.944667 -3.480000 -11.187151
v -6.151208 -2.204000 -11.604158
v 0.000000 -2.204000 -11.508651
v 0.000000 -3.480000 -11.152894
v -5.948880 -3.480000 -11.143220
v 0.000000 -2.204000 -11.508651
v 6.126239 -2.204000 -11.557054
v 5.981606 -3.480000 -11.204521
v 0.000000 -3.480000 -11.152894
v 6.126239 -2.204000 -11.557054
v 12.274071 -2.204000 -11.577421
v 11.911743 -3.480000 -11.156316
v 5.981606 -3.480000 -11.204521
v 0.000000 -3.800000 0.000000
v 11.911743 -3.480000 -11.156316
v 12.183064 -3.480000 -10.797549
v 0.000000 -3.800000 0.000000
v 12.183064 -3.480000 -10.797549
v 12.532194 -3.480000 -10.508455
v 0.000000 -3.800000 0.000000
v 12.532194 -3.480000 -10.508455
v 12.916246 -3.480000 -10.244093
v 0.000000 -3.800000 0.000000
v 12.916246 -3.480000 -10.244093
v 13.197443 -3.480000 -9.896830
v 0.000000 -3.800000 0.000000
v 13.197443 -3.480000 -9.896830
v 13.147088 -3.480000 -4.929534
v 0.000000 -3.800000 0.000000
v 13.147088 -3.480000 -4.929534
v 13.194939 -3.480000 0.000000
v 0.000000 -3.800000 0.000000
v 13.194939 -3.480000 0.000000
v 13.189954 -3.480000 4.945607
v 0.000000 -3.800000 0.000000
v 13.189954 -3.480000 4.945607
v 13.119307 -3.480000 9.838235
v 0.000000 -3.800000 0.000000
v 13.119307 -3.480000 9.838235
v 12.822863 -3.480000 10.170029
v 0.000000 -3.800000 0.000000
v 12.822863 -3.480000 10.170029
v 12.573994 -3.480000 10.543505
v 0.000000 -3.800000 0.000000
v 12.573994 -3.480000 10.543505
v 12.235329 -3.480000 10.843870
v 0.000000 -3.800000 0.000000
v 12.235329 -3.480000 10.843870
v 11.891187 -3.480000 11.137063
v 0.000000 -3.800000 0.000000
v 11.891187 -3.480000 11.137063
v 5.975050 -3.480000 11.192241
v 0.000000 -3.800000 0.000000
v 5.975050 -3.480000 11.192241
v 0.000000 -3.480000 11.199851
v 0.000000 -3.800000 0.000000
v 0.000000 -3.480000 11.199851
v -5.929314 -3.480000 11.106569
v 0.000000 -3.800000 0.000000
v -5.929314 -3.480000 11.106569
v -11.868587 -3.480000 11.115897
v 0.000000 -3.800000 0.000000
v -11.868587 -3.480000 11.115897
v -12.236443 -3.480000 10.844857
v 0.000000 -3.800000 0.000000
v -12.236443 -3.480000 10.844857
v -12.528731 -3.480000 10.505550
v 0.000000 -3.800000 0.000000
v -12.528731 -3.480000 10.505550
v -12.822923 -3.480000 10.170077
v 0.000000 -3.800000 0.000000
v -12.822923 -3.480000 10.170077
v -13.209287 -3.480000 9.905712
v 0.000000 -3.800000 0.000000
v -13.209287 -3.480000 9.905712
v -13.241235 -3.480000 4.964835
v 0.000000 -3.800000 0.000000
v -13.241235 -3.480000 4.964835
v -13.159853 -3.480000 0.000000
v 0.000000 -3.800000 0.000000
v -13.159853 -3.480000 0.000000
v -13.154168 -3.480000 -4.932189
v 0.000000 -3.800000 0.000000
v -13.154168 -3.480000 -4.932189
v -13.198039 -3.480000 -9.897277
v 0.000000 -3.800000 0.000000
v -13.198039 -3.480000 -9.897277
v -12.836930 -3.480000 -10.181186
v 0.000000 -3.800000 0.000000
v -12.836930 -3.480000 -10.181186
v -12.482550 -3.480000 -10.466827
v 0.000000 -3.800000 0.000000
v -12.482550 -3.480000 -10.466827
v -12.229237 -3.480000 -10.838471
v 0.000000 -3.800000 0.000000
v -12.229237 -3.480000 -10.838471
v -11.944667 -3.480000 -11.187151
v 0.000000 -3.800000 0.000000
v -11.944667 -3.480000 -11.187151
v -5.948880 -3.480000 -11.143220
v 0.000000 -3.800000 0.000000
v -5.948880 -3.480000 -11.143220
v 0.000000 -3.480000 -11.152894
v 0.000000 -3.800000 0.000000
v 0.000000 -3.480000 -11.152894
v 5.981606 -3.480000 -11.204521
v 0.000000 -3.800000 0.000000
v 5.981606 -3.480000 -11.204521
v 11.911743 -3.480000 -11.156316
v -7.000000 0.600000 -3.200000
v 7.000000 0.600000 -3.200000
v 7.000000 0.000000 -3.200000
v -7.000000 0.000000 -3.200000
v -7.000000 0.000000 6.800000
v 7.000000 0.000000 6.800000
v 7.000000 0.600000 6.800000
v -7.000000 0.600000 6.800000
v -7.000000 0.000000 -3.200000
v -7.000000 0.000000 6.800000
v -7.000000 0.600000 6.800000
v -7.000000 0.600000 -3.200000
v 7.000000 0.000000 6.800000
v 7.000000 0.000000 -3.200000
v 7.000000 0.600000 -3.200000
v 7.000000 0.600000 6.800000
v -7.000000 0.600000 -3.200000
v -7.000000 0.600000 6.800000
v 7.000000 0.600000 6.800000
v 7.000000 0.600000 -3.200000
v -7.000000 0.000000 -3.200000
v 7.000000 0.000000 -3.200000
v 7.000000 0.000000 6.800000
v -7.000000 0.000000 6.800000
v -7.000000 0.150000 -5.265000
v 7.000000 0.150000 -5.265000
v 7.000000 0.000000 -5.265000
v -7.000000 0.000000 -5.265000
v -7.000000 0.000000 -3.835000
v 7.000000 0.000000 -3.835000
v 7.000000 0.150000 -3.835000
v -7.000000 0.150000 -3.835000
v -7.000000 0.000000 -5.265000
v -7.000000 0.000000 -3.835000
v -7.000000 0.150000 -3.835000
v -7.000000 0.150000 -5.265000
v 7.000000 0.000000 -3.835000
v 7.000000 0.000000 -5.265000
v 7.000000 0.150000 -5.265000
v 7.000000 0.150000 -3.835000
v -7.000000 0.150000 -5.265000
v -7.000000 0.150000 -3.835000
v 7.000000 0.150000 -3.835000
v 7.000000 0.150000 -5.265000
v -7.000000 0.000000 -5.265000
v 7.000000 0.000000 -5.265000
v 7.000000 0.000000 -3.835000
v -7.000000 0.000000 -3.835000
v -7.000000 0.300000 -6.615000
v 7.000000 0.300000 -6.615000
v 7.000000 0.000000 -6.615000
v -7.000000 0.000000 -6.615000
v -7.000000 0.000000 -5.185000
v 7.000000 0.000000 -5.185000
v 7.000000 0.300000 -5.185000
v -7.000000 0.300000 -5.185000
v -7.000000 0.000000 -6.615000
v -7.000000 0.000000 -5.185000
v -7.000000 0.300000 -5.185000
v -7.000000 0.300000 -6.615000
v 7.000000 0.000000 -5.185000
v 7.000000 0.000000 -6.615000
v 7.000000 0.300000 -6.615000
v 7.000000 0.300000 -5.185000
v -7.000000 0.300000 -6.615000
v -7.000000 0.300000 -5.185000
v 7.000000 0.300000 -5.185000
v 7.000000 0.300000 -6.615000
v -7.000000 0.000000 -6.615000
v 7.000000 0.000000 -6.615000
v 7.000000 0.000000 -5.185000
v -7.000000 0.000000 -5.185000
v -7.000000 0.450000 -7.965000
v 7.000000 0.450000 -7.965000
v 7.000000 0.000000 -7.965000
v -7.000000 0.000000 -7.965000
v -7.000000 0.000000 -6.535000
v 7.000000 0.000000 -6.535000
v 7.000000 0.450000 -6.535000
v -7.000000 0.450000 -6.535000
v -7.000000 0.000000 -7.965000
v -7.000000 0.000000 -6.535000
v -7.000000 0.450000 -6.535000
v -7.000000 0.450000 -7.965000
v 7.000000 0.000000 -6.535000
v 7.000000 0.000000 -7.965000
v 7.000000 0.450000 -7.965000
v 7.000000 0.450000 -6.535000
v -7.000000 0.450000 -7.965000
v -7.000000 0.450000 -6.535000
v 7.000000 0.450000 -6.535000
v 7.000000 0.450000 -7.965000
v -7.000000 0.000000 -7.965000
v 7.000000 0.000000 -7.965000
v 7.000000 0.000000 -6.535000
v -7.000000 0.000000 -6.535000
v -12.225000 0.840000 -8.600000
v -11.575000 0.840000 -8.600000
v -11.575000 0.000000 -8.600000
v -12.225000 0.000000 -8.600000
v -12.225000 0.000000 8.600000
v -11.575000 0.000000 8.600000
v -11.575000 0.840000 8.600000
v -12.225000 0.840000 8.600000
v -12.225000 0.000000 -8.600000
v -12.225000 0.000000 8.600000
v -12.225000 0.840000 8.600000
v -12.225000 0.840000 -8.600000
v -11.575000 0.000000 8.600000
v -11.575000 0.000000 -8.600000
v -11.575000 0.840000 -8.600000
v -11.575000 0.840000 8.600000
v -12.225000 0.840000 -8.600000
v -12.225000 0.840000 8.600000
v -11.575000 0.840000 8.600000
v -11.575000 0.840000 -8.600000
v -12.225000 0.000000 -8.600000
v -11.575000 0.000000 -8.600000
v -11.575000 0.000000 8.600000
v -12.225000 0.000000 8.600000
v 11.575000 0.840000 -8.600000
v 12.225000 0.840000 -8.600000
v 12.225000 0.000000 -8.600000
v 11.575000 0.000000 -8.600000
v 11.575000 0.000000 8.600000
v 12.225000 0.000000 8.600000
v 12.225000 0.840000 8.600000
v 11.575000 0.840000 8.600000
v 11.575000 0.000000 -8.600000
v 11.575000 0.000000 8.600000
v 11.575000 0.840000 8.600000
v 11.575000 0.840000 -8.600000
v 12.225000 0.000000 8.600000
v 12.225000 0.000000 -8.600000
v 12.225000 0.840000 -8.600000
v 12.225000 0.840000 8.600000
v 11.575000 0.840000 -8.600000
v 11.575000 0.840000 8.600000
v 12.225000 0.840000 8.600000
v 12.225000 0.840000 -8.600000
v 11.575000 0.000000 -8.600000
v 12.225000 0.000000 -8.600000
v 12.225000 0.000000 8.600000
v 11.575000 0.000000 8.600000
vt 0.966827 0.986932
vt 0.955769 1.000000
vt 0.500000 0.500000
vt 0.977885 0.973864
vt 0.966827 0.986932
vt 0.500000 0.500000
vt 0.988942 0.960795
vt 0.977885 0.973864
vt 0.500000 0.500000
vt 1.000000 0.947727
vt 0.988942 0.960795
vt 0.500000 0.500000
vt 1.000000 0.723864
vt 1.000000 0.947727
vt 0.500000 0.500000
vt 1.000000 0.500000
vt 1.000000 0.723864
vt 0.500000 0.500000
vt 1.000000 0.276136
vt 1.000000 0.500000
vt 0.500000 0.500000
vt 1.000000 0.052273
vt 1.000000 0.276136
vt 0.500000 0.500000
vt 0.988942 0.039205
vt 1.000000 0.052273
vt 0.500000 0.500000
vt 0.977885 0.026136
vt 0.988942 0.039205
vt 0.500000 0.500000
vt 0.966827 0.013068
vt 0.977885 0.026136
vt 0.500000 0.500000
vt 0.955769 0.000000
vt 0.966827 0.013068
vt 0.500000 0.500000
vt 0.727885 0.000000
vt 0.955769 0.000000
vt 0.500000 0.500000
vt 0.500000 0.000000
vt 0.727885 0.000000
vt 0.500000 0.500000
vt 0.272115 0.000000
vt 0.500000 0.000000
vt 0.500000 0.500000
vt 0.044231 0.000000
vt 0.272115 0.000000
vt 0.500000 0.500000
vt 0.033173 0.013068
vt 0.044231 0.000000
vt 0.500000 0.500000
vt 0.022115 0.026136
vt 0.033173 0.013068
vt 0.500000 0.500000
vt 0.011058 0.039205
vt 0.022115 0.026136
vt 0.500000 0.500000
vt 0.000000 0.052273
vt 0.011058 0.039205
vt 0.500000 0.500000
vt 0.000000 0.276136
vt 0.000000 0.052273
vt 0.500000 0.500000
vt 0.000000 0.500000
vt 0.000000 0.276136
vt 0.500000 0.500000
vt 0.000000 0.723864
vt 0.000000 0.500000
vt 0.500000 0.500000
vt 0.000000 0.947727
vt 0.000000 0.723864
vt 0.500000 0.500000
vt 0.011058 0.960795
vt 0.000000 0.947727
vt 0.500000 0.500000
vt 0.022115 0.973864
vt 0.011058 0.960795
vt 0.500000 0.500000
vt 0.033173 0.986932
vt 0.022115 0.973864
vt 0.500000 0.500000
vt 0.044231 1.000000
vt 0.033173 0.986932
vt 0.500000 0.500000
vt 0.272115 1.000000
vt 0.044231 1.000000
vt 0.500000 0.500000
vt 0.500000 1.000000
vt 0.272115 1.000000
vt 0.500000 0.500000
vt 0.727885 1.000000
vt 0.500000 1.000000
vt 0.500000 0.500000
vt 0.955769 1.000000
vt 0.727885 1.000000
vt 0.500000 0.500000
vt 0.000000 0.000000
vt 0.031250 0.000000
vt 0.031250 1.000000
vt 0.000000 1.000000
vt 0.031250 0.000000
vt 0.062500 0.000000
vt 0.062500 1.000000
vt 0.031250 1.000000
vt 0.062500 0.000000
vt 0.093750 0.000000
vt 0.093750 1.000000
vt 0.062500 1.000000
vt 0.093750 0.000000
vt 0.125000 0.000000
vt 0.125000 1.000000
vt 0.093750 1.000000
vt 0.125000 0.000000
vt 0.156250 0.000000
vt 0.156250 1.000000
vt 0.125000 1.000000
vt 0.156250 0.000000
vt 0.187500 0.000000
vt 0.187500 1.000000
vt 0.156250 1.000000
vt 0.187500 0.000000
vt 0.218750 0.000000
vt 0.218750 1.000000
vt 0.187500 1.000000
vt 0.218750 0.000000
vt 0.250000 0.000000
vt 0.250000 1.000000
vt 0.218750 1.000000
vt 0.250000 0.000000
vt 0.281250 0.000000
vt 0.281250 1.000000
vt 0.250000 1.000000
vt 0.281250 0.000000
vt 0.312500 0.000000
vt 0.312500 1.000000
vt 0.281250 1.000000
vt 0.312500 0.000000
vt 0.343750 0.000000
vt 0.343750 1.000000
vt 0.312500 1.000000
vt 0.343750 0.000000
vt 0.375000 0.000000
vt 0.375000 1.000000
vt 0.343750 1.000000
vt 0.375000 0.000000
vt 0.406250 0.000000
vt 0.406250 1.000000
vt 0.375000 1.000000
vt 0.406250 0.000000
vt 0.437500 0.000000
vt 0.437500 1.000000
vt 0.406250 1.000000
vt 0.437500 0.000000
vt 0.468750 0.000000
vt 0.468750 1.000000
vt 0.437500 1.000000
vt 0.468750 0.000000
vt 0.500000 0.000000
vt 0.500000 1.000000
vt 0.468750 1.000000
vt 0.500000 0.000000
vt 0.531250 0.000000
vt 0.531250 1.000000
vt 0.500000 1.000000
vt 0.531250 0.000000
vt 0.562500 0.000000
vt 0.562500 1.000000
vt 0.531250 1.000000
vt 0.562500 0.000000
vt 0.593750 0.000000
vt 0.593750 1.000000
vt 0.562500 1.000000
vt 0.593750 0.000000
vt 0.625000 0.000000
vt 0.625000 1.000000
vt 0.593750 1.000000
vt 0.625000 0.000000
vt 0.656250 0.000000
vt 0.656250 1.000000
vt 0.625000 1.000000
vt 0.656250 0.000000
vt 0.687500 0.000000
vt 0.687500 1.000000
vt 0.656250 1.000000
vt 0.687500 0.000000
vt 0.718750 0.000000
vt 0.718750 1.000000
vt 0.687500 1.000000
vt 0.718750 0.000000
vt 0.750000 0.000000
vt 0.750000 1.000000
vt 0.718750 1.000000
vt 0.750000 0.000000
vt 0.781250 0.000000
vt 0.781250 1.000000
vt 0.750000 1.000000
vt 0.781250 0.000000
vt 0.812500 0.000000
vt 0.812500 1.000000
vt 0.781250 1.000000
vt 0.812500 0.000000
vt 0.843750 0.000000
vt 0.843750 1.000000
vt 0.812500 1.000000
vt 0.843750 0.000000
vt 0.875000 0.000000
vt 0.875000 1.000000
vt 0.843750 1.000000
vt 0.875000 0.000000
vt 0.906250 0.000000
vt 0.906250 1.000000
vt 0.875000 1.000000
vt 0.906250 0.000000
vt 0.937500 0.000000
vt 0.937500 1.000000
vt 0.906250 1.000000
vt 0.937500 0.000000
vt 0.968750 0.000000
vt 0.968750 1.000000
vt 0.937500 1.000000
vt 0.968750 0.000000
vt 1.000000 0.000000
vt 1.000000 1.000000
vt 0.968750 1.000000
vt 0.000000 0.000000
vt 0.031250 0.000000
vt 0.031250 1.000000
vt 0.000000 1.000000
vt 0.031250 0.000000
vt 0.062500 0.000000
vt 0.062500 1.000000
vt 0.031250 1.000000
vt 0.062500 0.000000
vt 0.093750 0.000000
vt 0.093750 1.000000
vt 0.062500 1.000000
vt 0.093750 0.000000
vt 0.125000 0.000000
vt 0.125000 1.000000
vt 0.093750 1.000000
vt 0.125000 0.000000
vt 0.156250 0.000000
vt 0.156250 1.000000
vt 0.125000 1.000000
vt 0.156250 0.000000
vt 0.187500 0.000000
vt 0.187500 1.000000
vt 0.156250 1.000000
vt 0.187500 0.000000
vt 0.218750 0.000000
vt 0.218750 1.000000
vt 0.187500 1.000000
vt 0.218750 0.000000
vt 0.250000 0.000000
vt 0.250000 1.000000
vt 0.218750 1.000000
vt 0.250000 0.000000
vt 0.281250 0.000000
vt 0.281250 1.000000
vt 0.250000 1.000000
vt 0.281250 0.000000
vt 0.312500 0.000000
vt 0.312500 1.000000
vt 0.281250 1.000000
vt 0.312500 0.000000
vt 0.343750 0.000000
vt 0.343750 1.000000
vt 0.312500 1.000000
vt 0.343750 0.000000
vt 0.375000 0.000000
vt 0.375000 1.000000
vt 0.343750 1.000000
vt 0.375000 0.000000
vt 0.406250 0.000000
vt 0.406250 1.000000
vt 0.375000 1.000000
vt 0.406250 0.000000
vt 0.437500 0.000000
vt 0.437500 1.000000
vt 0.406250 1.000000
vt 0.437500 0.000000
vt 0.468750 0.000000
vt 0.468750 1.000000
vt 0.437500 1.000000
vt 0.468750 0.000000
vt 0.500000 0.000000
vt 0.500000 1.000000
vt 0.468750 1.000000
vt 0.500000 0.000000
vt 0.531250 0.000000
vt 0.531250 1.000000
vt 0.500000 1.000000
vt 0.531250 0.000000
vt 0.562500 0.000000
vt 0.562500 1.000000
vt 0.531250 1.000000
vt 0.562500 0.000000
vt 0.593750 0.000000
vt 0.593750 1.000000
vt 0.562500 1.000000
vt 0.593750 0.000000
vt 0.625000 0.000000
vt 0.625000 1.000000
vt 0.593750 1.000000
vt 0.625000 0.000000
vt 0.656250 0.000000
vt 0.656250 1.000000
vt 0.625000 1.000000
vt 0.656250 0.000000
vt 0.687500 0.000000
vt 0.687500 1.000000
vt 0.656250 1.000000
vt 0.687500 0.000000
vt 0.718750 0.000000
vt 0.718750 1.000000
vt 0.687500 1.000000
vt 0.718750 0.000000
vt 0.750000 0.000000
vt 0.750000 1.000000
vt 0.718750 1.000000
vt 0.750000 0.000000
vt 0.781250 0.000000
vt 0.781250 1.000000
vt 0.750000 1.000000
vt 0.781250 0.000000
vt 0.812500 0.000000
vt 0.812500 1.000000
vt 0.781250 1.000000
vt 0.812500 0.000000
vt 0.843750 0.000000
vt 0.843750 1.000000
vt 0.812500 1.000000
vt 0.843750 0.000000
vt 0.875000 0.000000
vt 0.875000 1.000000
vt 0.843750 1.000000
vt 0.875000 0.000000
vt 0.906250 0.000000
vt 0.906250 1.000000
vt 0.875000 1.000000
vt 0.906250 0.000000
vt 0.937500 0.000000
vt 0.937500 1.000000
vt 0.906250 1.000000
vt 0.937500 0.000000
vt 0.968750 0.000000
vt 0.968750 1.000000
vt 0.937500 1.000000
vt 0.968750 0.000000
vt 1.000000 0.000000
vt 1.000000 1.000000
vt 0.968750 1.000000
vt 0.000000 0.000000
vt 0.031250 0.000000
vt 0.031250 1.000000
vt 0.000000 1.000000
vt 0.031250 0.000000
vt 0.062500 0.000000
vt 0.062500 1.000000
vt 0.031250 1.000000
vt 0.062500 0.000000
vt 0.093750 0.000000
vt 0.093750 1.000000
vt 0.062500 1.000000
vt 0.093750 0.000000
vt 0.125000 0.000000
vt 0.125000 1.000000
vt 0.093750 1.000000
vt 0.125000 0.000000
vt 0.156250 0.000000
vt 0.156250 1.000000
vt 0.125000 1.000000
vt 0.156250 0.000000
vt 0.187500 0.000000
vt 0.187500 1.000000
vt 0.156250 1.000000
vt 0.187500 0.000000
vt 0.218750 0.000000
vt 0.218750 1.000000
vt 0.187500 1.000000
vt 0.218750 0.000000
vt 0.250000 0.000000
vt 0.250000 1.000000
vt 0.218750 1.000000
vt 0.250000 0.000000
vt 0.281250 0.000000
vt 0.281250 1.000000
vt 0.250000 1.000000
vt 0.281250 0.000000
vt 0.312500 0.000000
vt 0.312500 1.000000
vt 0.281250 1.000000
vt 0.312500 0.000000
vt 0.343750 0.000000
vt 0.343750 1.000000
vt 0.312500 1.000000
vt 0.343750 0.000000
vt 0.375000 0.000000
vt 0.375000 1.000000
vt 0.343750 1.000000
vt 0.375000 0.000000
vt 0.406250 0.000000
vt 0.406250 1.000000
vt 0.375000 1.000000
vt 0.406250 0.000000
vt 0.437500 0.000000
vt 0.437500 1.000000
vt 0.406250 1.000000
vt 0.437500 0.000000
vt 0.468750 0.000000
vt 0.468750 1.000000
vt 0.437500 1.000000
vt 0.468750 0.000000
vt 0.500000 0.000000
vt 0.500000 1.000000
vt 0.468750 1.000000
vt 0.500000 0.000000
vt 0.531250 0.000000
vt 0.531250 1.000000
vt 0.500000 1.000000
vt 0.531250 0.000000
vt 0.562500 0.000000
vt 0.562500 1.000000
vt 0.531250 1.000000
vt 0.562500 0.000000
vt 0.593750 0.000000
vt 0.593750 1.000000
vt 0.562500 1.000000
vt 0.593750 0.000000
vt 0.625000 0.000000
vt 0.625000 1.000000
vt 0.593750 1.000000
vt 0.625000 0.000000
vt 0.656250 0.000000
vt 0.656250 1.000000
vt 0.625000 1.000000
vt 0.656250 0.000000
vt 0.687500 0.000000
vt 0.687500 1.000000
vt 0.656250 1.000000
vt 0.687500 0.000000
vt 0.718750 0.000000
vt 0.718750 1.000000
vt 0.687500 1.000000
vt 0.718750 0.000000
vt 0.750000 0.000000
vt 0.750000 1.000000
vt 0.718750 1.000000
vt 0.750000 0.000000
vt 0.781250 0.000000
vt 0.781250 1.000000
vt 0.750000 1.000000
vt 0.781250 0.000000
vt 0.812500 0.000000
vt 0.812500 1.000000
vt 0.781250 1.000000
vt 0.812500 0.000000
vt 0.843750 0.000000
vt 0.843750 1.000000
vt 0.812500 1.000000
vt 0.843750 0.000000
vt 0.875000 0.000000
vt 0.875000 1.000000
vt 0.843750 1.000000
vt 0.875000 0.000000
vt 0.906250 0.000000
vt 0.906250 1.000000
vt 0.875000 1.000000
vt 0.906250 0.000000
vt 0.937500 0.000000
vt 0.937500 1.000000
vt 0.906250 1.000000
vt 0.937500 0.000000
vt 0.968750 0.000000
vt 0.968750 1.000000
vt 0.937500 1.000000
vt 0.968750 0.000000
vt 1.000000 0.000000
vt 1.000000 1.000000
vt 0.968750 1.000000
vt 0.500000 0.500000
vt 0.916911 0.890471
vt 0.926407 0.877914
vt 0.500000 0.500000
vt 0.926407 0.877914
vt 0.938627 0.867796
vt 0.500000 0.500000
vt 0.938627 0.867796
vt 0.952069 0.858543
vt 0.500000 0.500000
vt 0.952069 0.858543
vt 0.961910 0.846389
vt 0.500000 0.500000
vt 0.961910 0.846389
vt 0.960148 0.672534
vt 0.500000 0.500000
vt 0.960148 0.672534
vt 0.961823 0.500000
vt 0.500000 0.500000
vt 0.961823 0.500000
vt 0.961648 0.326904
vt 0.500000 0.500000
vt 0.961648 0.326904
vt 0.959176 0.155662
vt 0.500000 0.500000
vt 0.959176 0.155662
vt 0.948800 0.144049
vt 0.500000 0.500000
vt 0.948800 0.144049
vt 0.940090 0.130977
vt 0.500000 0.500000
vt 0.940090 0.130977
vt 0.928237 0.120465
vt 0.500000 0.500000
vt 0.928237 0.120465
vt 0.916192 0.110203
vt 0.500000 0.500000
vt 0.916192 0.110203
vt 0.709127 0.108272
vt 0.500000 0.500000
vt 0.709127 0.108272
vt 0.500000 0.108005
vt 0.500000 0.500000
vt 0.500000 0.108005
vt 0.292474 0.111270
vt 0.500000 0.500000
vt 0.292474 0.111270
vt 0.084599 0.110944
vt 0.500000 0.500000
vt 0.084599 0.110944
vt 0.071724 0.120430
vt 0.500000 0.500000
vt 0.071724 0.120430
vt 0.061494 0.132306
vt 0.500000 0.500000
vt 0.061494 0.132306
vt 0.051198 0.144047
vt 0.500000 0.500000
vt 0.051198 0.144047
vt 0.037675 0.153300
vt 0.500000 0.500000
vt 0.037675 0.153300
vt 0.036557 0.326231
vt 0.500000 0.500000
vt 0.036557 0.326231
vt 0.039405 0.500000
vt 0.500000 0.500000
vt 0.039405 0.500000
vt 0.039604 0.672627
vt 0.500000 0.500000
vt 0.039604 0.672627
vt 0.038069 0.846405
vt 0.500000 0.500000
vt 0.038069 0.846405
vt 0.050707 0.856342
vt 0.500000 0.500000
vt 0.050707 0.856342
vt 0.063111 0.866339
vt 0.500000 0.500000
vt 0.063111 0.866339
vt 0.071977 0.879346
vt 0.500000 0.500000
vt 0.071977 0.879346
vt 0.081937 0.891550
vt 0.500000 0.500000
vt 0.081937 0.891550
vt 0.291789 0.890013
vt 0.500000 0.500000
vt 0.291789 0.890013
vt 0.500000 0.890351
vt 0.500000 0.500000
vt 0.500000 0.890351
vt 0.709356 0.892158
vt 0.500000 0.500000
vt 0.709356 0.892158
vt 0.916911 0.890471
vt 0.255000 0.612000
vt 0.745000 0.612000
vt 0.745000 0.612000
vt 0.255000 0.612000
vt 0.255000 0.262000
vt 0.745000 0.262000
vt 0.745000 0.262000
vt 0.255000 0.262000
vt 0.255000 0.612000
vt 0.255000 0.262000
vt 0.255000 0.262000
vt 0.255000 0.612000
vt 0.745000 0.262000
vt 0.745000 0.612000
vt 0.745000 0.612000
vt 0.745000 0.262000
vt 0.255000 0.612000
vt 0.255000 0.262000
vt 0.745000 0.262000
vt 0.745000 0.612000
vt 0.255000 0.612000
vt 0.745000 0.612000
vt 0.745000 0.262000
vt 0.255000 0.262000
vt 0.255000 0.684275
vt 0.745000 0.684275
vt 0.745000 0.684275
vt 0.255000 0.684275
vt 0.255000 0.634225
vt 0.745000 0.634225
vt 0.745000 0.634225
vt 0.255000 0.634225
vt 0.255000 0.684275
vt 0.255000 0.634225
vt 0.255000 0.634225
vt 0.255000 0.684275
vt 0.745000 0.634225
vt 0.745000 0.684275
vt 0.745000 0.684275
vt 0.745000 0.634225
vt 0.255000 0.684275
vt 0.255000 0.634225
vt 0.745000 0.634225
vt 0.745000 0.684275
vt 0.255000 0.684275
vt 0.745000 0.684275
vt 0.745000 0.634225
vt 0.255000 0.634225
vt 0.255000 0.731525
vt 0.745000 0.731525
vt 0.745000 0.731525
vt 0.255000 0.731525
vt 0.255000 0.681475
vt 0.745000 0.681475
vt 0.745000 0.681475
vt 0.255000 0.681475
vt 0.255000 0.731525
vt 0.255000 0.681475
vt 0.255000 0.681475
vt 0.255000 0.731525
vt 0.745000 0.681475
vt 0.745000 0.731525
vt 0.745000 0.731525
vt 0.745000 0.681475
vt 0.255000 0.731525
vt 0.255000 0.681475
vt 0.745000 0.681475
vt 0.745000 0.731525
vt 0.255000 0.731525
vt 0.745000 0.731525
vt 0.745000 0.681475
vt 0.255000 0.681475
vt 0.255000 0.778775
vt 0.745000 0.778775
vt 0.745000 0.778775
vt 0.255000 0.778775
vt 0.255000 0.728725
vt 0.745000 0.728725
vt 0.745000 0.728725
vt 0.255000 0.728725
vt 0.255000 0.778775
vt 0.255000 0.728725
vt 0.255000 0.728725
vt 0.255000 0.778775
vt 0.745000 0.728725
vt 0.745000 0.778775
vt 0.745000 0.778775
vt 0.745000 0.728725
vt 0.255000 0.778775
vt 0.255000 0.728725
vt 0.745000 0.728725
vt 0.745000 0.778775
vt 0.255000 0.778775
vt 0.745000 0.778775
vt 0.745000 0.728725
vt 0.255000 0.728725
vt 0.072125 0.801000
vt 0.094875 0.801000
vt 0.094875 0.801000
vt 0.072125 0.801000
vt 0.072125 0.199000
vt 0.094875 0.199000
vt 0.094875 0.199000
vt 0.072125 0.199000
vt 0.072125 0.801000
vt 0.072125 0.199000
vt 0.072125 0.199000
vt 0.072125 0.801000
vt 0.094875 0.199000
vt 0.094875 0.801000
vt 0.094875 0.801000
vt 0.094875 0.199000
vt 0.072125 0.801000
vt 0.072125 0.199000
vt 0.094875 0.199000
vt 0.094875 0.801000
vt 0.072125 0.801000
vt 0.094875 0.801000
vt 0.094875 0.199000
vt 0.072125 0.199000
vt 0.905125 0.801000
vt 0.927875 0.801000
vt 0.927875 0.801000
vt 0.905125 0.801000
vt 0.905125 0.199000
vt 0.927875 0.199000
vt 0.927875 0.199000
vt 0.905125 0.199000
vt 0.905125 0.801000
vt 0.905125 0.199000
vt 0.905125 0.199000
vt 0.905125 0.801000
vt 0.927875 0.199000
vt 0.927875 0.801000
vt 0.927875 0.801000
vt 0.927875 0.199000
vt 0.905125 0.801000
vt 0.905125 0.199000
vt 0.927875 0.199000
vt 0.927875 0.801000
vt 0.905125 0.801000
vt 0.927875 0.801000
vt 0.927875 0.199000
vt 0.905125 0.199000
vn 0.000000 1.000000 0.000000
vn 0.000000 1.000000 0.000000
vn 0.000000 1.000000 0.000000
vn 0.000000 1.000000 0.000000
vn 0.000000 1.000000 0.000000
vn 0.000000 1.000000 0.000000
vn 0.000000 1.000000 0.000000
vn 0.000000 1.000000 0.000000
vn 0.000000 1.000000 0.000000
vn 0.000000 1.000000 0.000000
vn 0.000000 1.000000 0.000000
vn 0.000000 1.000000 0.000000
vn 0.000000 1.000000 0.000000
vn 0.000000 1.000000 0.000000
vn 0.000000 1.000000 0.000000
vn 0.000000 1.000000 0.000000
vn 0.000000 1.000000 0.000000
vn 0.000000 1.000000 0.000000
vn 0.000000 1.000000 0.000000
vn 0.000000 1.000000 0.000000
vn 0.000000 1.000000 0.000000
vn 0.000000 1.000000 0.000000
vn 0.000000 1.000000 0.000000
vn 0.000000 1.000000 0.000000
vn 0.000000 1.000000 0.000000
vn 0.000000 1.000000 0.000000
vn 0.000000 1.000000 0.000000
vn 0.000000 1.000000 0.000000
vn 0.000000 1.000000 0.000000
vn 0.000000 1.000000 0.000000
vn 0.000000 1.000000 0.000000
vn 0.000000 1.000000 0.000000
vn 0.000000 1.000000 0.000000
vn 0.000000 1.000000 0.000000
vn 0.000000 1.000000 0.000000
vn 0.000000 1.000000 0.000000
vn -0.000000 1.000000 0.000000
vn -0.000000 1.000000 0.000000
vn -0.000000 1.000000 0.000000
vn -0.000000 1.000000 0.000000
vn -0.000000 1.000000 0.000000
vn -0.000000 1.000000 0.000000
vn -0.000000 1.000000 0.000000
vn -0.000000 1.000000 0.000000
vn -0.000000 1.000000 0.000000
vn -0.000000 1.000000 0.000000
vn -0.000000 1.000000 0.000000
vn -0.000000 1.000000 0.000000
vn -0.000000 1.000000 0.000000
vn -0.000000 1.000000 0.000000
vn -0.000000 1.000000 0.000000
vn -0.000000 1.000000 0.000000
vn -0.000000 1.000000 0.000000
vn -0.000000 1.000000 0.000000
vn -0.000000 1.000000 0.000000
vn -0.000000 1.000000 0.000000
vn -0.000000 1.000000 0.000000
vn -0.000000 1.000000 0.000000
vn -0.000000 1.000000 0.000000
vn -0.000000 1.000000 0.000000
vn -0.000000 1.000000 0.000000
vn -0.000000 1.000000 0.000000
vn -0.000000 1.000000 0.000000
vn 0.000000 1.000000 0.000000
vn 0.000000 1.000000 0.000000
vn 0.000000 1.000000 0.000000
vn 0.000000 1.000000 0.000000
vn 0.000000 1.000000 0.000000
vn 0.000000 1.000000 0.000000
vn 0.000000 1.000000 0.000000
vn 0.000000 1.000000 0.000000
vn 0.000000 1.000000 0.000000
vn 0.000000 1.000000 -0.000000
vn 0.000000 1.000000 -0.000000
vn 0.000000 1.000000 -0.000000
vn 0.000000 1.000000 -0.000000
vn 0.000000 1.000000 -0.000000
vn 0.000000 1.000000 -0.000000
vn 0.000000 1.000000 -0.000000
vn 0.000000 1.000000 -0.000000
vn 0.000000 1.000000 -0.000000
vn 0.000000 1.000000 -0.000000
vn 0.000000 1.000000 -0.000000
vn 0.000000 1.000000 -0.000000
vn 0.000000 1.000000 -0.000000
vn 0.000000 1.000000 -0.000000
vn 0.000000 1.000000 -0.000000
vn 0.000000 1.000000 -0.000000
vn 0.000000 1.000000 -0.000000
vn 0.000000 1.000000 -0.000000
vn 0.000000 1.000000 0.000000
vn 0.000000 1.000000 0.000000
vn 0.000000 1.000000 0.000000
vn 0.000000 1.000000 0.000000
vn 0.000000 1.000000 0.000000
vn 0.000000 1.000000 0.000000
vn 0.659458 0.360873 -0.659458
vn 0.659458 0.360873 -0.659458
vn 0.659458 0.360873 -0.659458
vn 0.659458 0.360873 -0.659458
vn 0.668633 0.325362 -0.668633
vn 0.668633 0.325362 -0.668633
vn 0.668633 0.325362 -0.668633
vn 0.668633 0.325362 -0.668633
vn 0.667666 0.329309 -0.667666
vn 0.667666 0.329309 -0.667666
vn 0.667666 0.329309 -0.667666
vn 0.667666 0.329309 -0.667666
vn 0.659431 0.360973 -0.659431
vn 0.659431 0.360973 -0.659431
vn 0.659431 0.360973 -0.659431
vn 0.659431 0.360973 -0.659431
vn 0.956416 0.292008 -0.000000
vn 0.956416 0.292008 -0.000000
vn 0.956416 0.292008 -0.000000
vn 0.956416 0.292008 -0.000000
vn 0.968626 0.248523 -0.000000
vn 0.968626 0.248523 -0.000000
vn 0.968626 0.248523 -0.000000
vn 0.968626 0.248523 -0.000000
vn 0.958179 0.286168 -0.000000
vn 0.958179 0.286168 -0.000000
vn 0.958179 0.286168 -0.000000
vn 0.958179 0.286168 -0.000000
vn 0.952099 0.305791 -0.000000
vn 0.952099 0.305791 -0.000000
vn 0.952099 0.305791 -0.000000
vn 0.952099 0.305791 -0.000000
vn 0.671943 0.311424 0.671943
vn 0.671943 0.311424 0.671943
vn 0.671943 0.311424 0.671943
vn 0.671943 0.311424 0.671943
vn 0.668537 0.325757 0.668537
vn 0.668537 0.325757 0.668537
vn 0.668537 0.325757 0.668537
vn 0.668537 0.325757 0.668537
vn 0.656649 0.370977 0.656649
vn 0.656649 0.370977 0.656649
vn 0.656649 0.370977 0.656649
vn 0.656649 0.370977 0.656649
vn 0.663450 0.345930 0.663450
vn 0.663450 0.345930 0.663450
vn 0.663450 0.345930 0.663450
vn 0.663450 0.345930 0.663450
vn 0.000000 0.269875 0.962895
vn 0.000000 0.269875 0.962895
vn 0.000000 0.269875 0.962895
vn 0.000000 0.269875 0.962895
vn 0.000000 0.291678 0.956517
vn 0.000000 0.291678 0.956517
vn 0.000000 0.291678 0.956517
vn 0.000000 0.291678 0.956517
vn 0.000000 0.301290 0.953533
vn 0.000000 0.301290 0.953533
vn 0.000000 0.301290 0.953533
vn 0.000000 0.301290 0.953533
vn 0.000000 0.270096 0.962833
vn 0.000000 0.270096 0.962833
vn 0.000000 0.270096 0.962833
vn 0.000000 0.270096 0.962833
vn -0.673137 0.306223 0.673137
vn -0.673137 0.306223 0.673137
vn -0.673137 0.306223 0.673137
vn -0.673137 0.306223 0.673137
vn -0.659571 0.360462 0.659571
vn -0.659571 0.360462 0.659571
vn -0.659571 0.360462 0.659571
vn -0.659571 0.360462 0.659571
vn -0.662519 0.349481 0.662519
vn -0.662519 0.349481 0.662519
vn -0.662519 0.349481 0.662519
vn -0.662519 0.349481 0.662519
vn -0.670588 0.317214 0.670588
vn -0.670588 0.317214 0.670588
vn -0.670588 0.317214 0.670588
vn -0.670588 0.317214 0.670588
vn -0.950979 0.309255 0.000000
vn -0.950979 0.309255 0.000000
vn -0.950979 0.309255 0.000000
vn -0.950979 0.309255 0.000000
vn -0.948493 0.316798 0.000000
vn -0.948493 0.316798 0.000000
vn -0.948493 0.316798 0.000000
vn -0.948493 0.316798 0.000000
vn -0.964699 0.263356 0.000000
vn -0.964699 0.263356 0.000000
vn -0.964699 0.263356 0.000000
vn -0.964699 0.263356 0.000000
vn -0.964252 0.264986 0.000000
vn -0.964252 0.264986 0.000000
vn -0.964252 0.264986 0.000000
vn -0.964252 0.264986 0.000000
vn -0.664516 0.341813 -0.664516
vn -0.664516 0.341813 -0.664516
vn -0.664516 0.341813 -0.664516
vn -0.664516 0.341813 -0.664516
vn -0.666381 0.334474 -0.666381
vn -0.666381 0.334474 -0.666381
vn -0.666381 0.334474 -0.666381
vn -0.666381 0.334474 -0.666381
vn -0.671943 0.311425 -0.671943
vn -0.671943 0.311425 -0.671943
vn -0.671943 0.311425 -0.671943
vn -0.671943 0.311425 -0.671943
vn -0.662064 0.351201 -0.662064
vn -0.662064 0.351201 -0.662064
vn -0.662064 0.351201 -0.662064
vn -0.662064 0.351201 -0.662064
vn 0.000000 0.330082 -0.943952
vn 0.000000 0.330082 -0.943952
vn 0.000000 0.330082 -0.943952
vn 0.000000 0.330082 -0.943952
vn 0.000000 0.281231 -0.959640
vn 0.000000 0.281231 -0.959640
vn 0.000000 0.281231 -0.959640
vn 0.000000 0.281231 -0.959640
vn 0.000000 0.270036 -0.962850
vn 0.000000 0.270036 -0.962850
vn 0.000000 0.270036 -0.962850
vn 0.000000 0.270036 -0.962850
vn 0.000000 0.298779 -0.954322
vn 0.000000 0.298779 -0.954322
vn 0.000000 0.298779 -0.954322
vn 0.000000 0.298779 -0.954322
vn 0.649076 0.268282 -0.711846
vn 0.649076 0.268282 -0.711846
vn 0.649076 0.268282 -0.711846
vn 0.649076 0.268282 -0.711846
vn 0.726370 0.254195 -0.638569
vn 0.726370 0.254195 -0.638569
vn 0.726370 0.254195 -0.638569
vn 0.726370 0.254195 -0.638569
vn 0.668177 0.307279 -0.677583
vn 0.668177 0.307279 -0.677583
vn 0.668177 0.307279 -0.677583
vn 0.668177 0.307279 -0.677583
vn 0.633906 0.306095 -0.710260
vn 0.633906 0.306095 -0.710260
vn 0.633906 0.306095 -0.710260
vn 0.633906 0.306095 -0.710260
vn 0.977236 0.212111 0.004289
vn 0.977236 0.212111 0.004289
vn 0.977236 0.212111 0.004289
vn 0.977236 0.212111 0.004289
vn 0.976433 0.215732 0.006206
vn 0.976433 0.215732 0.006206
vn 0.976433 0.215732 0.006206
vn 0.976433 0.215732 0.006206
vn 0.968356 0.249517 -0.005316
vn 0.968356 0.249517 -0.005316
vn 0.968356 0.249517 -0.005316
vn 0.968356 0.249517 -0.005316
vn 0.975975 0.217862 -0.002861
vn 0.975975 0.217862 -0.002861
vn 0.975975 0.217862 -0.002861
vn 0.975975 0.217862 -0.002861
vn 0.648830 0.232567 0.724522
vn 0.648830 0.232567 0.724522
vn 0.648830 0.232567 0.724522
vn 0.648830 0.232567 0.724522
vn 0.692647 0.294186 0.658555
vn 0.692647 0.294186 0.658555
vn 0.692647 0.294186 0.658555
vn 0.692647 0.294186 0.658555
vn 0.725597 0.308745 0.614968
vn 0.725597 0.308745 0.614968
vn 0.725597 0.308745 0.614968
vn 0.725597 0.308745 0.614968
vn 0.649876 0.265002 0.712345
vn 0.649876 0.265002 0.712345
vn 0.649876 0.265002 0.712345
vn 0.649876 0.265002 0.712345
vn -0.004382 0.219093 0.975694
vn -0.004382 0.219093 0.975694
vn -0.004382 0.219093 0.975694
vn -0.004382 0.219093 0.975694
vn 0.002596 0.252358 0.967631
vn 0.002596 0.252358 0.967631
vn 0.002596 0.252358 0.967631
vn 0.002596 0.252358 0.967631
vn 0.001172 0.206742 0.978395
vn 0.001172 0.206742 0.978395
vn 0.001172 0.206742 0.978395
vn 0.001172 0.206742 0.978395
vn -0.003797 0.185349 0.982665
vn -0.003797 0.185349 0.982665
vn -0.003797 0.185349 0.982665
vn -0.003797 0.185349 0.982665
vn -0.666101 0.275413 0.693150
vn -0.666101 0.275413 0.693150
vn -0.666101 0.275413 0.693150
vn -0.666101 0.275413 0.693150
vn -0.608604 0.291432 0.738017
vn -0.608604 0.291432 0.738017
vn -0.608604 0.291432 0.738017
vn -0.608604 0.291432 0.738017
vn -0.697049 0.256504 0.669574
vn -0.697049 0.256504 0.669574
vn -0.697049 0.256504 0.669574
vn -0.697049 0.256504 0.669574
vn -0.717033 0.279719 0.638452
vn -0.717033 0.279719 0.638452
vn -0.717033 0.279719 0.638452
vn -0.717033 0.279719 0.638452
vn -0.959992 0.280003 0.003572
vn -0.959992 0.280003 0.003572
vn -0.959992 0.280003 0.003572
vn -0.959992 0.280003 0.003572
vn -0.970547 0.240911 0.001113
vn -0.970547 0.240911 0.001113
vn -0.970547 0.240911 0.001113
vn -0.970547 0.240911 0.001113
vn -0.979858 0.199543 -0.007808
vn -0.979858 0.199543 -0.007808
vn -0.979858 0.199543 -0.007808
vn -0.979858 0.199543 -0.007808
vn -0.972143 0.234389 0.000231
vn -0.972143 0.234389 0.000231
vn -0.972143 0.234389 0.000231
vn -0.972143 0.234389 0.000231
vn -0.733368 0.283031 -0.618114
vn -0.733368 0.283031 -0.618114
vn -0.733368 0.283031 -0.618114
vn -0.733368 0.283031 -0.618114
vn -0.677866 0.237067 -0.695915
vn -0.677866 0.237067 -0.695915
vn -0.677866 0.237067 -0.695915
vn -0.677866 0.237067 -0.695915
vn -0.654335 0.261302 -0.709624
vn -0.654335 0.261302 -0.709624
vn -0.654335 0.261302 -0.709624
vn -0.654335 0.261302 -0.709624
vn -0.717254 0.313875 -0.622116
vn -0.717254 0.313875 -0.622116
vn -0.717254 0.313875 -0.622116
vn -0.717254 0.313875 -0.622116
vn -0.002486 0.235910 -0.971772
vn -0.002486 0.235910 -0.971772
vn -0.002486 0.235910 -0.971772
vn -0.002486 0.235910 -0.971772
vn 0.006010 0.200574 -0.979660
vn 0.006010 0.200574 -0.979660
vn 0.006010 0.200574 -0.979660
vn 0.006010 0.200574 -0.979660
vn 0.001333 0.234558 -0.972101
vn 0.001333 0.234558 -0.972101
vn 0.001333 0.234558 -0.972101
vn 0.001333 0.234558 -0.972101
vn -0.003438 0.233311 -0.972396
vn -0.003438 0.233311 -0.972396
vn -0.003438 0.233311 -0.972396
vn -0.003438 0.233311 -0.972396
vn 0.674068 -0.419620 -0.607907
vn 0.674068 -0.419620 -0.607907
vn 0.674068 -0.419620 -0.607907
vn 0.674068 -0.419620 -0.607907
vn 0.728376 -0.360955 -0.582391
vn 0.728376 -0.360955 -0.582391
vn 0.728376 -0.360955 -0.582391
vn 0.728376 -0.360955 -0.582391
vn 0.515677 -0.362015 -0.776545
vn 0.515677 -0.362015 -0.776545
vn 0.515677 -0.362015 -0.776545
vn 0.515677 -0.362015 -0.776545
vn 0.603715 -0.414238 -0.681128
vn 0.603715 -0.414238 -0.681128
vn 0.603715 -0.414238 -0.681128
vn 0.603715 -0.414238 -0.681128
vn 0.957045 -0.289215 0.020488
vn 0.957045 -0.289215 0.020488
vn 0.957045 -0.289215 0.020488
vn 0.957045 -0.289215 0.020488
vn 0.970812 -0.239790 0.004978
vn 0.970812 -0.239790 0.004978
vn 0.970812 -0.239790 0.004978
vn 0.970812 -0.239790 0.004978
vn 0.953565 -0.300770 -0.015871
vn 0.953565 -0.300770 -0.015871
vn 0.953565 -0.300770 -0.015871
vn 0.953565 -0.300770 -0.015871
vn 0.945385 -0.325874 0.007239
vn 0.945385 -0.325874 0.007239
vn 0.945385 -0.325874 0.007239
vn 0.945385 -0.325874 0.007239
vn 0.577700 -0.352788 0.736073
vn 0.577700 -0.352788 0.736073
vn 0.577700 -0.352788 0.736073
vn 0.577700 -0.352788 0.736073
vn 0.798636 -0.363128 0.479915
vn 0.798636 -0.363128 0.479915
vn 0.798636 -0.363128 0.479915
vn 0.798636 -0.363128 0.479915
vn 0.722673 -0.423686 0.546109
vn 0.722673 -0.423686 0.546109
vn 0.722673 -0.423686 0.546109
vn 0.722673 -0.423686 0.546109
vn 0.500540 -0.386956 0.774419
vn 0.500540 -0.386956 0.774419
vn 0.500540 -0.386956 0.774419
vn 0.500540 -0.386956 0.774419
vn -0.002500 -0.256872 0.966442
vn -0.002500 -0.256872 0.966442
vn -0.002500 -0.256872 0.966442
vn -0.002500 -0.256872 0.966442
vn 0.011190 -0.301584 0.953374
vn 0.011190 -0.301584 0.953374
vn 0.011190 -0.301584 0.953374
vn 0.011190 -0.301584 0.953374
vn -0.010787 -0.318952 0.947710
vn -0.010787 -0.318952 0.947710
vn -0.010787 -0.318952 0.947710
vn -0.010787 -0.318952 0.947710
vn -0.009425 -0.272660 0.962064
vn -0.009425 -0.272660 0.962064
vn -0.009425 -0.272660 0.962064
vn -0.009425 -0.272660 0.962064
vn -0.516716 -0.355509 0.778857
vn -0.516716 -0.355509 0.778857
vn -0.516716 -0.355509 0.778857
vn -0.516716 -0.355509 0.778857
vn -0.534481 -0.419834 0.733532
vn -0.534481 -0.419834 0.733532
vn -0.534481 -0.419834 0.733532
vn -0.534481 -0.419834 0.733532
vn -0.744645 -0.395639 0.537563
vn -0.744645 -0.395639 0.537563
vn -0.744645 -0.395639 0.537563
vn -0.744645 -0.395639 0.537563
vn -0.645486 -0.350366 0.678669
vn -0.645486 -0.350366 0.678669
vn -0.645486 -0.350366 0.678669
vn -0.645486 -0.350366 0.678669
vn -0.948390 -0.316650 0.017014
vn -0.948390 -0.316650 0.017014
vn -0.948390 -0.316650 0.017014
vn -0.948390 -0.316650 0.017014
vn -0.944630 -0.327944 -0.011244
vn -0.944630 -0.327944 -0.011244
vn -0.944630 -0.327944 -0.011244
vn -0.944630 -0.327944 -0.011244
vn -0.965678 -0.258902 -0.020866
vn -0.965678 -0.258902 -0.020866
vn -0.965678 -0.258902 -0.020866
vn -0.965678 -0.258902 -0.020866
vn -0.963985 -0.265716 0.011338
vn -0.963985 -0.265716 0.011338
vn -0.963985 -0.265716 0.011338
vn -0.963985 -0.265716 0.011338
vn -0.711296 -0.409455 -0.571318
vn -0.711296 -0.409455 -0.571318
vn -0.711296 -0.409455 -0.571318
vn -0.711296 -0.409455 -0.571318
vn -0.533041 -0.384697 -0.753575
vn -0.533041 -0.384697 -0.753575
vn -0.533041 -0.384697 -0.753575
vn -0.533041 -0.384697 -0.753575
vn -0.694237 -0.350525 -0.628623
vn -0.694237 -0.350525 -0.628623
vn -0.694237 -0.350525 -0.628623
vn -0.694237 -0.350525 -0.628623
vn -0.803494 -0.384561 -0.454434
vn -0.803494 -0.384561 -0.454434
vn -0.803494 -0.384561 -0.454434
vn -0.803494 -0.384561 -0.454434
vn 0.001606 -0.339523 -0.940596
vn 0.001606 -0.339523 -0.940596
vn 0.001606 -0.339523 -0.940596
vn 0.001606 -0.339523 -0.940596
vn 0.014954 -0.268533 -0.963154
vn 0.014954 -0.268533 -0.963154
vn 0.014954 -0.268533 -0.963154
vn 0.014954 -0.268533 -0.963154
vn -0.007617 -0.265493 -0.964083
vn -0.007617 -0.265493 -0.964083
vn -0.007617 -0.265493 -0.964083
vn -0.007617 -0.265493 -0.964083
vn -0.003147 -0.312587 -0.949884
vn -0.003147 -0.312587 -0.949884
vn -0.003147 -0.312587 -0.949884
vn -0.003147 -0.312587 -0.949884
vn 0.015723 -0.999806 -0.011890
vn 0.015723 -0.999806 -0.011890
vn 0.015723 -0.999806 -0.011890
vn 0.012684 -0.999802 -0.015319
vn 0.012684 -0.999802 -0.015319
vn 0.012684 -0.999802 -0.015319
vn 0.011509 -0.999794 -0.016720
vn 0.011509 -0.999794 -0.016720
vn 0.011509 -0.999794 -0.016720
vn 0.015083 -0.999812 -0.012214
vn 0.015083 -0.999812 -0.012214
vn 0.015083 -0.999812 -0.012214
vn 0.024426 -0.999702 0.000248
vn 0.024426 -0.999702 0.000248
vn 0.024426 -0.999702 0.000248
vn 0.024245 -0.999706 -0.000235
vn 0.024245 -0.999706 -0.000235
vn 0.024245 -0.999706 -0.000235
vn 0.024245 -0.999706 0.000024
vn 0.024245 -0.999706 0.000024
vn 0.024245 -0.999706 0.000024
vn 0.024123 -0.999709 0.000348
vn 0.024123 -0.999709 0.000348
vn 0.024123 -0.999709 0.000348
vn 0.014603 -0.999808 0.013047
vn 0.014603 -0.999808 0.013047
vn 0.014603 -0.999808 0.013047
vn 0.016324 -0.999808 0.010877
vn 0.016324 -0.999808 0.010877
vn 0.016324 -0.999808 0.010877
vn 0.013079 -0.999806 0.014747
vn 0.013079 -0.999806 0.014747
vn 0.013079 -0.999806 0.014747
vn 0.012816 -0.999805 0.015043
vn 0.012816 -0.999805 0.015043
vn 0.012816 -0.999805 0.015043
vn 0.000265 -0.999596 0.028438
vn 0.000265 -0.999596 0.028438
vn 0.000265 -0.999596 0.028438
vn 0.000036 -0.999592 0.028560
vn 0.000036 -0.999592 0.028560
vn 0.000036 -0.999592 0.028560
vn -0.000449 -0.999592 0.028560
vn -0.000449 -0.999592 0.028560
vn -0.000449 -0.999592 0.028560
vn 0.000045 -0.999585 0.028824
vn 0.000045 -0.999585 0.028824
vn 0.000045 -0.999585 0.028824
vn -0.011869 -0.999800 0.016109
vn -0.011869 -0.999800 0.016109
vn -0.011869 -0.999800 0.016109
vn -0.014827 -0.999809 0.012772
vn -0.014827 -0.999809 0.012772
vn -0.014827 -0.999809 0.012772
vn -0.014716 -0.999808 0.012905
vn -0.014716 -0.999808 0.012905
vn -0.014716 -0.999808 0.012905
vn -0.011556 -0.999791 0.016888
vn -0.011556 -0.999791 0.016888
vn -0.011556 -0.999791 0.016888
vn -0.024101 -0.999710 0.000156
vn -0.024101 -0.999710 0.000156
vn -0.024101 -0.999710 0.000156
vn -0.024309 -0.999704 -0.000398
vn -0.024309 -0.999704 -0.000398
vn -0.024309 -0.999704 -0.000398
vn -0.024309 -0.999704 -0.000028
vn -0.024309 -0.999704 -0.000028
vn -0.024309 -0.999704 -0.000028
vn -0.024400 -0.999702 0.000216
vn -0.024400 -0.999702 0.000216
vn -0.024400 -0.999702 0.000216
vn -0.012407 -0.999798 -0.015781
vn -0.012407 -0.999798 -0.015781
vn -0.012407 -0.999798 -0.015781
vn -0.012562 -0.999800 -0.015585
vn -0.012562 -0.999800 -0.015585
vn -0.012562 -0.999800 -0.015585
vn -0.016309 -0.999805 -0.011117
vn -0.016309 -0.999805 -0.011117
vn -0.016309 -0.999805 -0.011117
vn -0.015181 -0.999808 -0.012390
vn -0.015181 -0.999808 -0.012390
vn -0.015181 -0.999808 -0.012390
vn 0.000211 -0.999585 -0.028818
vn 0.000211 -0.999585 -0.028818
vn 0.000211 -0.999585 -0.028818
vn -0.000047 -0.999589 -0.028680
vn -0.000047 -0.999589 -0.028680
vn -0.000047 -0.999589 -0.028680
vn -0.000248 -0.999589 -0.028680
vn -0.000248 -0.999589 -0.028680
vn -0.000248 -0.999589 -0.028680
vn 0.000231 -0.999596 -0.028425
vn 0.000231 -0.999596 -0.028425
vn 0.000231 -0.999596 -0.028425
vn 0.000000 0.000000 -1.000000
vn 0.000000 0.000000 -1.000000
vn 0.000000 0.000000 -1.000000
vn 0.000000 0.000000 -1.000000
vn 0.000000 0.000000 1.000000
vn 0.000000 0.000000 1.000000
vn 0.000000 0.000000 1.000000
vn 0.000000 0.000000 1.000000
vn -1.000000 0.000000 0.000000
vn -1.000000 0.000000 0.000000
vn -1.000000 0.000000 0.000000
vn -1.000000 0.000000 0.000000
vn 1.000000 0.000000 0.000000
vn 1.000000 0.000000 0.000000
vn 1.000000 0.000000 0.000000
vn 1.000000 0.000000 0.000000
vn 0.000000 1.000000 0.000000
vn 0.000000 1.000000 0.000000
vn 0.000000 1.000000 0.000000
vn 0.000000 1.000000 0.000000
vn 0.000000 -1.000000 0.000000
vn 0.000000 -1.000000 0.000000
vn 0.000000 -1.000000 0.000000
vn 0.000000 -1.000000 0.000000
vn 0.000000 0.000000 -1.000000
vn 0.000000 0.000000 -1.000000
vn 0.000000 0.000000 -1.000000
vn 0.000000 0.000000 -1.000000
vn 0.000000 0.000000 1.000000
vn 0.000000 0.000000 1.000000
vn 0.000000 0.000000 1.000000
vn 0.000000 0.000000 1.000000
vn -1.000000 0.000000 0.000000
vn -1.000000 0.000000 0.000000
vn -1.000000 0.000000 0.000000
vn -1.000000 0.000000 0.000000
vn 1.000000 0.000000 0.000000
vn 1.000000 0.000000 0.000000
vn 1.000000 0.000000 0.000000
vn 1.000000 0.000000 0.000000
vn 0.000000 1.000000 0.000000
vn 0.000000 1.000000 0.000000
vn 0.000000 1.000000 0.000000
vn 0.000000 1.000000 0.000000
vn 0.000000 -1.000000 0.000000
vn 0.000000 -1.000000 0.000000
vn 0.000000 -1.000000 0.000000
vn 0.000000 -1.000000 0.000000
vn 0.000000 0.000000 -1.000000
vn 0.000000 0.000000 -1.000000
vn 0.000000 0.000000 -1.000000
vn 0.000000 0.000000 -1.000000
vn 0.000000 0.000000 1.000000
vn 0.000000 0.000000 1.000000
vn 0.000000 0.000000 1.000000
vn 0.000000 0.000000 1.000000
vn -1.000000 0.000000 0.000000
vn -1.000000 0.000000 0.000000
vn -1.000000 0.000000 0.000000
vn -1.000000 0.000000 0.000000
vn 1.000000 0.000000 0.000000
vn 1.000000 0.000000 0.000000
vn 1.000000 0.000000 0.000000
vn 1.000000 0.000000 0.000000
vn 0.000000 1.000000 0.000000
vn 0.000000 1.000000 0.000000
vn 0.000000 1.000000 0.000000
vn 0.000000 1.000000 0.000000
vn 0.000000 -1.000000 0.000000
vn 0.000000 -1.000000 0.000000
vn 0.000000 -1.000000 0.000000
vn 0.000000 -1.000000 0.000000
vn 0.000000 0.000000 -1.000000
vn 0.000000 0.000000 -1.000000
vn 0.000000 0.000000 -1.000000
vn 0.000000 0.000000 -1.000000
vn 0.000000 0.000000 1.000000
vn 0.000000 0.000000 1.000000
vn 0.000000 0.000000 1.000000
vn 0.000000 0.000000 1.000000
vn -1.000000 0.000000 0.000000
vn -1.000000 0.000000 0.000000
vn -1.000000 0.000000 0.000000
vn -1.000000 0.000000 0.000000
vn 1.000000 0.000000 0.000000
vn 1.000000 0.000000 0.000000
vn 1.000000 0.000000 0.000000
vn 1.000000 0.000000 0.000000
vn 0.000000 1.000000 0.000000
vn 0.000000 1.000000 0.000000
vn 0.000000 1.000000 0.000000
vn 0.000000 1.000000 0.000000
vn 0.000000 -1.000000 0.000000
vn 0.000000 -1.000000 0.000000
vn 0.000000 -1.000000 0.000000
vn 0.000000 -1.000000 0.000000
vn 0.000000 0.000000 -1.000000
vn 0.000000 0.000000 -1.000000
vn 0.000000 0.000000 -1.000000
vn 0.000000 0.000000 -1.000000
vn 0.000000 0.000000 1.000000
vn 0.000000 0.000000 1.000000
vn 0.000000 0.000000 1.000000
vn 0.000000 0.000000 1.000000
vn -1.000000 0.000000 0.000000
vn -1.000000 0.000000 0.000000
vn -1.000000 0.000000 0.000000
vn -1.000000 0.000000 0.000000
vn 1.000000 0.000000 0.000000
vn 1.000000 0.000000 0.000000
vn 1.000000 0.000000 0.000000
vn 1.000000 0.000000 0.000000
vn 0.000000 1.000000 0.000000
vn 0.000000 1.000000 0.000000
vn 0.000000 1.000000 0.000000
vn 0.000000 1.000000 0.000000
vn 0.000000 -1.000000 0.000000
vn 0.000000 -1.000000 0.000000
vn 0.000000 -1.000000 0.000000
vn 0.000000 -1.000000 0.000000
vn 0.000000 0.000000 -1.000000
vn 0.000000 0.000000 -1.000000
vn 0.000000 0.000000 -1.000000
vn 0.000000 0.000000 -1.000000
vn 0.000000 0.000000 1.000000
vn 0.000000 0.000000 1.000000
vn 0.000000 0.000000 1.000000
vn 0.000000 0.000000 1.000000
vn -1.000000 0.000000 0.000000
vn -1.000000 0.000000 0.000000
vn -1.000000 0.000000 0.000000
vn -1.000000 0.000000 0.000000
vn 1.000000 0.000000 0.000000
vn 1.000000 0.000000 0.000000
vn 1.000000 0.000000 0.000000
vn 1.000000 0.000000 0.000000
vn 0.000000 1.000000 0.000000
vn 0.000000 1.000000 0.000000
vn 0.000000 1.000000 0.000000
vn 0.000000 1.000000 0.000000
vn 0.000000 -1.000000 0.000000
vn 0.000000 -1.000000 0.000000
vn 0.000000 -1.000000 0.000000
vn 0.000000 -1.000000 0.000000
usemtl fortress_floor
f 1/1/1 2/2/2 3/3/3
f 4/4/4 5/5/5 6/6/6
f 7/7/7 8/8/8 9/9/9
f 10/10/10 11/11/11 12/12/12
f 13/13/13 14/14/14 15/15/15
f 16/16/16 17/17/17 18/18/18
f 19/19/19 20/20/20 21/21/21
f 22/22/22 23/23/23 24/24/24
f 25/25/25 26/26/26 27/27/27
f 28/28/28 29/29/29 30/30/30
f 31/31/31 32/32/32 33/33/33
f 34/34/34 35/35/35 36/36/36
f 37/37/37 38/38/38 39/39/39
f 40/40/40 41/41/41 42/42/42
f 43/43/43 44/44/44 45/45/45
f 46/46/46 47/47/47 48/48/48
f 49/49/49 50/50/50 51/51/51
f 52/52/52 53/53/53 54/54/54
f 55/55/55 56/56/56 57/57/57
f 58/58/58 59/59/59 60/60/60
f 61/61/61 62/62/62 63/63/63
f 64/64/64 65/65/65 66/66/66
f 67/67/67 68/68/68 69/69/69
f 70/70/70 71/71/71 72/72/72
f 73/73/73 74/74/74 75/75/75
f 76/76/76 77/77/77 78/78/78
f 79/79/79 80/80/80 81/81/81
f 82/82/82 83/83/83 84/84/84
f 85/85/85 86/86/86 87/87/87
f 88/88/88 89/89/89 90/90/90
f 91/91/91 92/92/92 93/93/93
f 94/94/94 95/95/95 96/96/96
usemtl fortress_trim
f 97/97/97 98/98/98 99/99/99 100/100/100
f 101/101/101 102/102/102 103/103/103 104/104/104
f 105/105/105 106/106/106 107/107/107 108/108/108
f 109/109/109 110/110/110 111/111/111 112/112/112
f 113/113/113 114/114/114 115/115/115 116/116/116
f 117/117/117 118/118/118 119/119/119 120/120/120
f 121/121/121 122/122/122 123/123/123 124/124/124
f 125/125/125 126/126/126 127/127/127 128/128/128
f 129/129/129 130/130/130 131/131/131 132/132/132
f 133/133/133 134/134/134 135/135/135 136/136/136
f 137/137/137 138/138/138 139/139/139 140/140/140
f 141/141/141 142/142/142 143/143/143 144/144/144
f 145/145/145 146/146/146 147/147/147 148/148/148
f 149/149/149 150/150/150 151/151/151 152/152/152
f 153/153/153 154/154/154 155/155/155 156/156/156
f 157/157/157 158/158/158 159/159/159 160/160/160
f 161/161/161 162/162/162 163/163/163 164/164/164
f 165/165/165 166/166/166 167/167/167 168/168/168
f 169/169/169 170/170/170 171/171/171 172/172/172
f 173/173/173 174/174/174 175/175/175 176/176/176
f 177/177/177 178/178/178 179/179/179 180/180/180
f 181/181/181 182/182/182 183/183/183 184/184/184
f 185/185/185 186/186/186 187/187/187 188/188/188
f 189/189/189 190/190/190 191/191/191 192/192/192
f 193/193/193 194/194/194 195/195/195 196/196/196
f 197/197/197 198/198/198 199/199/199 200/200/200
f 201/201/201 202/202/202 203/203/203 204/204/204
f 205/205/205 206/206/206 207/207/207 208/208/208
f 209/209/209 210/210/210 211/211/211 212/212/212
f 213/213/213 214/214/214 215/215/215 216/216/216
f 217/217/217 218/218/218 219/219/219 220/220/220
f 221/221/221 222/222/222 223/223/223 224/224/224
usemtl fortress_cliff
f 225/225/225 226/226/226 227/227/227 228/228/228
f 229/229/229 230/230/230 231/231/231 232/232/232
f 233/233/233 234/234/234 235/235/235 236/236/236
usemtl basalt_side
f 237/237/237 238/238/238 239/239/239 240/240/240
usemtl fortress_cliff
f 241/241/241 242/242/242 243/243/243 244/244/244
f 245/245/245 246/246/246 247/247/247 248/248/248
f 249/249/249 250/250/250 251/251/251 252/252/252
f 253/253/253 254/254/254 255/255/255 256/256/256
f 257/257/257 258/258/258 259/259/259 260/260/260
f 261/261/261 262/262/262 263/263/263 264/264/264
usemtl basalt_side
f 265/265/265 266/266/266 267/267/267 268/268/268
usemtl fortress_cliff
f 269/269/269 270/270/270 271/271/271 272/272/272
f 273/273/273 274/274/274 275/275/275 276/276/276
f 277/277/277 278/278/278 279/279/279 280/280/280
f 281/281/281 282/282/282 283/283/283 284/284/284
f 285/285/285 286/286/286 287/287/287 288/288/288
f 289/289/289 290/290/290 291/291/291 292/292/292
usemtl basalt_side
f 293/293/293 294/294/294 295/295/295 296/296/296
usemtl fortress_cliff
f 297/297/297 298/298/298 299/299/299 300/300/300
f 301/301/301 302/302/302 303/303/303 304/304/304
f 305/305/305 306/306/306 307/307/307 308/308/308
f 309/309/309 310/310/310 311/311/311 312/312/312
f 313/313/313 314/314/314 315/315/315 316/316/316
f 317/317/317 318/318/318 319/319/319 320/320/320
usemtl basalt_side
f 321/321/321 322/322/322 323/323/323 324/324/324
usemtl fortress_cliff
f 325/325/325 326/326/326 327/327/327 328/328/328
f 329/329/329 330/330/330 331/331/331 332/332/332
f 333/333/333 334/334/334 335/335/335 336/336/336
f 337/337/337 338/338/338 339/339/339 340/340/340
f 341/341/341 342/342/342 343/343/343 344/344/344
f 345/345/345 346/346/346 347/347/347 348/348/348
usemtl basalt_side
f 349/349/349 350/350/350 351/351/351 352/352/352
usemtl fortress_cliff
f 353/353/353 354/354/354 355/355/355 356/356/356
f 357/357/357 358/358/358 359/359/359 360/360/360
f 361/361/361 362/362/362 363/363/363 364/364/364
usemtl obsidian
f 365/365/365 366/366/366 367/367/367 368/368/368
usemtl fortress_cliff
f 369/369/369 370/370/370 371/371/371 372/372/372
f 373/373/373 374/374/374 375/375/375 376/376/376
f 377/377/377 378/378/378 379/379/379 380/380/380
f 381/381/381 382/382/382 383/383/383 384/384/384
f 385/385/385 386/386/386 387/387/387 388/388/388
f 389/389/389 390/390/390 391/391/391 392/392/392
usemtl obsidian
f 393/393/393 394/394/394 395/395/395 396/396/396
usemtl fortress_cliff
f 397/397/397 398/398/398 399/399/399 400/400/400
f 401/401/401 402/402/402 403/403/403 404/404/404
f 405/405/405 406/406/406 407/407/407 408/408/408
f 409/409/409 410/410/410 411/411/411 412/412/412
f 413/413/413 414/414/414 415/415/415 416/416/416
f 417/417/417 418/418/418 419/419/419 420/420/420
usemtl obsidian
f 421/421/421 422/422/422 423/423/423 424/424/424
usemtl fortress_cliff
f 425/425/425 426/426/426 427/427/427 428/428/428
f 429/429/429 430/430/430 431/431/431 432/432/432
f 433/433/433 434/434/434 435/435/435 436/436/436
f 437/437/437 438/438/438 439/439/439 440/440/440
f 441/441/441 442/442/442 443/443/443 444/444/444
f 445/445/445 446/446/446 447/447/447 448/448/448
usemtl obsidian
f 449/449/449 450/450/450 451/451/451 452/452/452
usemtl fortress_cliff
f 453/453/453 454/454/454 455/455/455 456/456/456
f 457/457/457 458/458/458 459/459/459 460/460/460
f 461/461/461 462/462/462 463/463/463 464/464/464
f 465/465/465 466/466/466 467/467/467 468/468/468
f 469/469/469 470/470/470 471/471/471 472/472/472
f 473/473/473 474/474/474 475/475/475 476/476/476
usemtl obsidian
f 477/477/477 478/478/478 479/479/479 480/480/480
f 481/481/481 482/482/482 483/483/483
f 484/484/484 485/485/485 486/486/486
f 487/487/487 488/488/488 489/489/489
f 490/490/490 491/491/491 492/492/492
f 493/493/493 494/494/494 495/495/495
f 496/496/496 497/497/497 498/498/498
f 499/499/499 500/500/500 501/501/501
f 502/502/502 503/503/503 504/504/504
f 505/505/505 506/506/506 507/507/507
f 508/508/508 509/509/509 510/510/510
f 511/511/511 512/512/512 513/513/513
f 514/514/514 515/515/515 516/516/516
f 517/517/517 518/518/518 519/519/519
f 520/520/520 521/521/521 522/522/522
f 523/523/523 524/524/524 525/525/525
f 526/526/526 527/527/527 528/528/528
f 529/529/529 530/530/530 531/531/531
f 532/532/532 533/533/533 534/534/534
f 535/535/535 536/536/536 537/537/537
f 538/538/538 539/539/539 540/540/540
f 541/541/541 542/542/542 543/543/543
f 544/544/544 545/545/545 546/546/546
f 547/547/547 548/548/548 549/549/549
f 550/550/550 551/551/551 552/552/552
f 553/553/553 554/554/554 555/555/555
f 556/556/556 557/557/557 558/558/558
f 559/559/559 560/560/560 561/561/561
f 562/562/562 563/563/563 564/564/564
f 565/565/565 566/566/566 567/567/567
f 568/568/568 569/569/569 570/570/570
f 571/571/571 572/572/572 573/573/573
f 574/574/574 575/575/575 576/576/576
usemtl fortress_floor
f 577/577/577 578/578/578 579/579/579 580/580/580
f 581/581/581 582/582/582 583/583/583 584/584/584
f 585/585/585 586/586/586 587/587/587 588/588/588
f 589/589/589 590/590/590 591/591/591 592/592/592
f 593/593/593 594/594/594 595/595/595 596/596/596
f 597/597/597 598/598/598 599/599/599 600/600/600
usemtl fortress_trim
f 601/601/601 602/602/602 603/603/603 604/604/604
f 605/605/605 606/606/606 607/607/607 608/608/608
f 609/609/609 610/610/610 611/611/611 612/612/612
f 613/613/613 614/614/614 615/615/615 616/616/616
f 617/617/617 618/618/618 619/619/619 620/620/620
f 621/621/621 622/622/622 623/623/623 624/624/624
f 625/625/625 626/626/626 627/627/627 628/628/628
f 629/629/629 630/630/630 631/631/631 632/632/632
f 633/633/633 634/634/634 635/635/635 636/636/636
f 637/637/637 638/638/638 639/639/639 640/640/640
f 641/641/641 642/642/642 643/643/643 644/644/644
f 645/645/645 646/646/646 647/647/647 648/648/648
f 649/649/649 650/650/650 651/651/651 652/652/652
f 653/653/653 654/654/654 655/655/655 656/656/656
f 657/657/657 658/658/658 659/659/659 660/660/660
f 661/661/661 662/662/662 663/663/663 664/664/664
f 665/665/665 666/666/666 667/667/667 668/668/668
f 669/669/669 670/670/670 671/671/671 672/672/672
f 673/673/673 674/674/674 675/675/675 676/676/676
f 677/677/677 678/678/678 679/679/679 680/680/680
f 681/681/681 682/682/682 683/683/683 684/684/684
f 685/685/685 686/686/686 687/687/687 688/688/688
f 689/689/689 690/690/690 691/691/691 692/692/692
f 693/693/693 694/694/694 695/695/695 696/696/696
f 697/697/697 698/698/698 699/699/699 700/700/700
f 701/701/701 702/702/702 703/703/703 704/704/704
f 705/705/705 706/706/706 707/707/707 708/708/708
f 709/709/709 710/710/710 711/711/711 712/712/712
f 713/713/713 714/714/714 715/715/715 716/716/716
f 717/717/717 718/718/718 719/719/719 720/720/720
