# Blender 4.4.1
# www.blender.org
mtllib arrow.mtl
o 立方体
v -0.000088 -1.515923 -0.200006
v -1.000088 -0.515923 -0.200006
v 0.999912 -0.515923 -0.200006
v -0.000088 -1.515923 0.199994
v -1.000088 -0.517022 0.199994
v 0.999912 -0.515924 0.199994
v -0.500013 -0.514933 -0.200006
v -0.500088 1.482020 -0.200006
v 0.499912 -0.513226 -0.200006
v 0.499912 1.482020 -0.200006
v -0.500088 -0.514824 0.199994
v -0.500088 1.482020 0.199994
v 0.499912 -0.520262 0.199994
v 0.499912 1.482020 0.199994
vn -0.0000 -0.0000 -1.0000
vn 0.7071 -0.7071 -0.0000
vn -0.0000 -0.0000 1.0000
vn -0.7067 -0.7075 -0.0000
vn 0.0044 -1.0000 -0.0027
vn 1.0000 -0.0000 -0.0000
vn -1.0000 -0.0000 -0.0002
vn 0.0017 -0.9998 -0.0176
vn -0.0000 1.0000 -0.0000
vn -0.0087 0.9998 0.0176
vn -0.7071 -0.7071 -0.0019
vn 0.0020 -1.0000 0.0003
vn -1.0000 -0.0000 -0.0000
vn -0.0054 -1.0000 0.0003
vn 0.0054 1.0000 -0.0000
vt 0.375000 0.000000
vt 0.625000 0.063118
vt 0.625000 0.187520
vt 0.375000 0.250000
vt 0.625000 0.500000
vt 0.375000 0.500000
vt 0.625000 0.562638
vt 0.625000 0.750000
vt 0.375000 1.000000
vt 0.375000 0.750000
vt 0.625000 1.000000
vt 0.625000 0.000000
vt 0.125000 0.750000
vt 0.125000 0.500000
vt 0.875000 0.500000
vt 0.625000 0.687734
vt 0.625000 0.250000
vt 0.875000 0.750000
s 0
f 1/1/1 7/2/1 9/3/1
f 1/4/2 6/5/2 4/6/2
f 4/6/3 6/5/3 13/7/3
f 5/8/4 1/9/4 4/10/4
f 2/11/5 11/10/5 5/8/5
f 8/12/1 9/4/1 7/1/1
f 9/4/6 14/5/6 13/6/6
f 14/5/3 11/10/3 13/6/3
f 11/10/7 8/11/7 7/9/7
f 13/6/8 7/13/8 9/14/8
f 10/15/9 12/8/9 14/5/9
f 6/5/10 9/4/10 13/6/10
f 11/16/3 5/8/3 4/6/3
f 13/7/3 11/16/3 4/6/3
f 7/2/1 1/1/1 2/12/1
f 9/3/1 3/17/1 1/1/1
f 1/4/2 3/17/2 6/5/2
f 5/8/11 2/11/11 1/9/11
f 2/11/12 7/9/12 11/10/12
f 8/12/1 10/17/1 9/4/1
f 9/4/6 10/17/6 14/5/6
f 14/5/3 12/8/3 11/10/3
f 11/10/13 12/8/13 8/11/13
f 13/6/14 11/10/14 7/13/14
f 10/15/9 8/18/9 12/8/9
f 6/5/15 3/17/15 9/4/15
