# Blender 4.4.1
# www.blender.org
mtllib map_top_equipment_05.mtl
o 台座上側装置_05
v -0.000000 55.000004 -15.000000
v 2.926355 55.000004 -14.711778
v -0.000000 57.000004 -12.261065
v -2.926355 55.000004 -14.711779
v -5.740252 55.000004 -13.858191
v -2.392015 57.000004 -12.025471
v -4.692108 57.000004 -11.327747
v -6.811882 57.000004 -10.194702
v -8.669883 57.000004 -8.669882
v -8.333553 55.000004 -12.472044
v -10.606602 55.000004 -10.606602
v -12.472046 55.000004 -8.333552
v -10.194703 57.000004 -6.811882
v -11.327747 57.000004 -4.692106
v -12.025472 57.000004 -2.392015
v -13.858194 55.000004 -5.740252
v -14.711779 55.000004 -2.926355
v -15.000000 55.000004 0.000000
v -12.261065 57.000004 0.000000
v -12.025472 57.000004 2.392015
v -14.711779 55.000004 2.926355
v -13.858192 55.000004 5.740252
v -11.327747 57.000004 4.692107
v -10.194703 57.000004 6.811882
v -8.669882 57.000004 8.669882
v -12.472044 55.000004 8.333553
v -10.606602 55.000004 10.606602
v -8.333552 55.000004 12.472044
v -5.740252 55.000004 13.858191
v -6.811882 57.000004 10.194702
v -4.692107 57.000004 11.327746
v -2.392015 57.000004 12.025472
v -2.926355 55.000004 14.711778
v 0.000000 55.000004 15.000000
v 0.000000 57.000004 12.261065
v 2.392015 57.000004 12.025471
v 2.926355 55.000004 14.711779
v 5.740252 55.000004 13.858191
v 4.692107 57.000004 11.327747
v 6.811882 57.000004 10.194702
v 8.669883 57.000004 8.669882
v 8.333553 55.000004 12.472044
v 10.606602 55.000004 10.606602
v 12.472046 55.000004 8.333552
v 10.194703 57.000004 6.811882
v 11.327747 57.000004 4.692106
v 12.025472 57.000004 2.392015
v 13.858194 55.000004 5.740252
v 14.711779 55.000004 2.926355
v 15.000000 55.000004 0.000000
v 12.261065 57.000004 0.000000
v 12.025472 57.000004 -2.392015
v 14.711779 55.000004 -2.926355
v 13.858192 55.000004 -5.740252
v 11.327747 57.000004 -4.692107
v 10.194703 57.000004 -6.811882
v 8.669882 57.000004 -8.669882
v 12.472044 55.000004 -8.333553
v 10.606602 55.000004 -10.606602
v 8.333552 55.000004 -12.472044
v 5.740252 55.000004 -13.858191
v 6.811882 57.000004 -10.194702
v 4.692107 57.000004 -11.327746
v 2.392015 57.000004 -12.025472
v -0.000000 55.000004 -15.000000
v -2.926355 55.000004 -14.711779
v -0.000000 53.000004 -12.261065
v 2.926355 55.000004 -14.711778
v 5.740252 55.000004 -13.858191
v 2.392015 53.000004 -12.025472
v 4.692105 53.000004 -11.327746
v 6.811882 53.000004 -10.194702
v 8.669882 53.000004 -8.669882
v 8.333552 55.000004 -12.472044
v 10.606602 55.000004 -10.606602
v 12.472044 55.000004 -8.333553
v 13.858192 55.000004 -5.740252
v 10.194703 53.000004 -6.811882
v 11.327747 53.000004 -4.692107
v 12.025473 53.000004 -2.392015
v 14.711779 55.000004 -2.926355
v 15.000000 55.000004 0.000000
v 12.261066 53.000004 -0.000000
v 12.025473 53.000004 2.392015
v 14.711779 55.000004 2.926355
v 13.858194 55.000004 5.740252
v 12.472046 55.000004 8.333552
v 11.327747 53.000004 4.692106
v 10.194703 53.000004 6.811882
v 8.669883 53.000004 8.669882
v 6.811882 53.000004 10.194702
v 10.606602 55.000004 10.606602
v 8.333553 55.000004 12.472044
v 5.740252 55.000004 13.858191
v 2.926355 55.000004 14.711779
v 4.692106 53.000004 11.327747
v 2.392015 53.000004 12.025471
v 0.000000 53.000004 12.261065
v -2.392015 53.000004 12.025472
v 0.000000 55.000004 15.000000
v -2.926355 55.000004 14.711778
v -5.740252 55.000004 13.858191
v -4.692107 53.000004 11.327747
v -6.811882 53.000004 10.194702
v -8.333552 55.000004 12.472044
v -10.606602 55.000004 10.606602
v -8.669882 53.000004 8.669882
v -10.194703 53.000004 6.811882
v -12.472044 55.000004 8.333553
v -13.858192 55.000004 5.740252
v -14.711779 55.000004 2.926355
v -11.327747 53.000004 4.692107
v -12.025471 53.000004 2.392015
v -12.261065 53.000004 0.000000
v -12.025471 53.000004 -2.392015
v -15.000000 55.000004 0.000000
v -14.711779 55.000004 -2.926355
v -13.858194 55.000004 -5.740252
v -11.327747 53.000004 -4.692106
v -10.194703 53.000004 -6.811882
v -12.472046 55.000004 -8.333552
v -10.606602 55.000004 -10.606602
v -8.669883 53.000004 -8.669882
v -6.811882 53.000004 -10.194702
v -8.333553 55.000004 -12.472044
v -5.740252 55.000004 -13.858191
v -4.692108 53.000004 -11.327747
v -2.392015 53.000004 -12.025471
v -0.000000 75.000000 -15.000000
v 2.926354 75.000000 -14.711778
v -0.000000 77.000000 -12.261065
v -2.926355 75.000000 -14.711779
v -5.740252 75.000000 -13.858191
v -2.392016 77.000000 -12.025472
v -4.692107 77.000000 -11.327747
v -6.811882 77.000000 -10.194702
v -8.669883 77.000000 -8.669882
v -8.333553 75.000000 -12.472044
v -10.606602 75.000000 -10.606602
v -12.472044 75.000000 -8.333552
v -13.858192 75.000000 -5.740252
v -10.194703 77.000000 -6.811882
v -11.327747 77.000000 -4.692106
v -12.025472 77.000000 -2.392015
v -14.711778 75.000000 -2.926355
v -15.000000 75.000000 0.000000
v -12.261065 77.000000 0.000000
v -12.025472 77.000000 2.392015
v -14.711779 75.000000 2.926355
v -13.858191 75.000000 5.740252
v -11.327747 77.000000 4.692107
v -10.194703 77.000000 6.811882
v -8.669882 77.000000 8.669882
v -12.472044 75.000000 8.333553
v -10.606602 75.000000 10.606602
v -8.333552 75.000000 12.472044
v -5.740252 75.000000 13.858191
v -6.811882 77.000000 10.194702
v -4.692107 77.000000 11.327746
v -2.392015 77.000000 12.025471
v -2.926355 75.000000 14.711778
v 0.000000 75.000000 15.000000
v 0.000000 77.000000 12.261065
v 2.392015 77.000000 12.025471
v 2.926355 75.000000 14.711779
v 5.740252 75.000000 13.858191
v 4.692107 77.000000 11.327747
v 6.811882 77.000000 10.194702
v 8.669883 77.000000 8.669882
v 8.333553 75.000000 12.472044
v 10.606602 75.000000 10.606602
v 12.472046 75.000000 8.333552
v 10.194703 77.000000 6.811882
v 11.327747 77.000000 4.692106
v 12.025472 77.000000 2.392015
v 13.858196 75.000000 5.740252
v 14.711782 75.000000 2.926354
v 15.000002 75.000000 0.000000
v 12.261065 77.000000 0.000000
v 12.025472 77.000000 -2.392015
v 14.711782 75.000000 -2.926355
v 13.858194 75.000000 -5.740252
v 12.472046 75.000000 -8.333553
v 11.327747 77.000000 -4.692107
v 10.194703 77.000000 -6.811882
v 8.669882 77.000000 -8.669882
v 10.606602 75.000000 -10.606602
v 8.333552 75.000000 -12.472044
v 5.740252 75.000000 -13.858191
v 6.811882 77.000000 -10.194702
v 4.692107 77.000000 -11.327746
v 2.392015 77.000000 -12.025472
v -0.000000 75.000000 -15.000000
v -2.926355 75.000000 -14.711779
v -0.000000 73.000000 -12.261065
v 2.926354 75.000000 -14.711778
v 5.740252 75.000000 -13.858191
v 2.392015 73.000000 -12.025472
v 4.692107 73.000000 -11.327746
v 6.811882 73.000000 -10.194703
v 8.669882 73.000000 -8.669882
v 8.333552 75.000000 -12.472044
v 10.606602 75.000000 -10.606602
v 12.472046 75.000000 -8.333553
v 10.194703 73.000000 -6.811882
v 11.327746 73.000000 -4.692107
v 12.025473 73.000000 -2.392015
v 13.858194 75.000000 -5.740252
v 14.711782 75.000000 -2.926355
v 15.000002 75.000000 0.000000
v 12.261066 73.000000 -0.000000
v 12.025473 73.000000 2.392015
v 14.711782 75.000000 2.926354
v 13.858196 75.000000 5.740252
v 12.472046 75.000000 8.333552
v 11.327747 73.000000 4.692106
v 10.194702 73.000000 6.811882
v 8.669882 73.000000 8.669882
v 10.606602 75.000000 10.606602
v 8.333553 75.000000 12.472044
v 5.740252 75.000000 13.858191
v 6.811882 73.000000 10.194702
v 4.692107 73.000000 11.327747
v 2.392015 73.000000 12.025471
v 0.000000 73.000000 12.261065
v 2.926355 75.000000 14.711779
v 0.000000 75.000000 15.000000
v -2.926355 75.000000 14.711778
v -5.740252 75.000000 13.858191
v -2.392015 73.000000 12.025471
v -4.692107 73.000000 11.327746
v -6.811883 73.000000 10.194702
v -8.669883 73.000000 8.669882
v -8.333552 75.000000 12.472044
v -10.606602 75.000000 10.606602
v -12.472044 75.000000 8.333553
v -13.858191 75.000000 5.740252
v -10.194704 73.000000 6.811882
v -11.327747 73.000000 4.692106
v -12.025471 73.000000 2.392015
v -14.711779 75.000000 2.926355
v -15.000000 75.000000 0.000000
v -12.261065 73.000000 0.000000
v -12.025471 73.000000 -2.392015
v -14.711778 75.000000 -2.926355
v -13.858192 75.000000 -5.740252
v -11.327748 73.000000 -4.692106
v -10.194703 73.000000 -6.811882
v -12.472044 75.000000 -8.333552
v -10.606602 75.000000 -10.606602
v -8.669884 73.000000 -8.669882
v -6.811884 73.000000 -10.194703
v -4.692108 73.000000 -11.327747
v -8.333553 75.000000 -12.472044
v -5.740252 75.000000 -13.858191
v -2.392016 73.000000 -12.025472
v -0.000000 35.000000 -15.000000
v 2.926355 35.000000 -14.711778
v -0.000000 37.000000 -12.261065
v -2.926355 35.000000 -14.711779
v -5.740252 35.000000 -13.858191
v -2.392015 37.000000 -12.025471
v -4.692108 37.000000 -11.327747
v -6.811882 37.000000 -10.194702
v -8.669883 37.000000 -8.669882
v -8.333553 35.000000 -12.472044
v -10.606602 35.000000 -10.606602
v -12.472046 35.000000 -8.333552
v -10.194703 37.000000 -6.811882
v -11.327747 37.000000 -4.692106
v -12.025472 37.000000 -2.392015
v -13.858194 35.000000 -5.740252
v -14.711779 35.000000 -2.926355
v -15.000000 35.000000 0.000000
v -12.261065 37.000000 0.000000
v -12.025472 37.000000 2.392015
v -14.711779 35.000000 2.926355
v -13.858192 35.000000 5.740252
v -11.327747 37.000000 4.692107
v -10.194703 37.000000 6.811882
v -8.669882 37.000000 8.669882
v -12.472044 35.000000 8.333553
v -10.606602 35.000000 10.606602
v -8.333552 35.000000 12.472044
v -5.740252 35.000000 13.858191
v -6.811882 37.000000 10.194702
v -4.692107 37.000000 11.327746
v -2.392015 37.000000 12.025472
v -2.926355 35.000000 14.711778
v 0.000000 35.000000 15.000000
v 0.000000 37.000000 12.261065
v 2.392015 37.000000 12.025471
v 2.926355 35.000000 14.711779
v 5.740252 35.000000 13.858191
v 4.692107 37.000000 11.327747
v 6.811882 37.000000 10.194702
v 8.669883 37.000000 8.669882
v 8.333553 35.000000 12.472044
v 10.606602 35.000000 10.606602
v 12.472046 35.000000 8.333552
v 10.194703 37.000000 6.811882
v 11.327747 37.000000 4.692106
v 12.025472 37.000000 2.392015
v 13.858194 35.000000 5.740252
v 14.711779 35.000000 2.926355
v 15.000000 35.000000 0.000000
v 12.261065 37.000000 0.000000
v 12.025472 37.000000 -2.392015
v 14.711779 35.000000 -2.926355
v 13.858192 35.000000 -5.740252
v 11.327747 37.000000 -4.692107
v 10.194703 37.000000 -6.811882
v 8.669882 37.000000 -8.669882
v 12.472044 35.000000 -8.333553
v 10.606602 35.000000 -10.606602
v 8.333552 35.000000 -12.472044
v 5.740252 35.000000 -13.858191
v 6.811882 37.000000 -10.194702
v 4.692107 37.000000 -11.327746
v 2.392015 37.000000 -12.025472
v -0.000000 35.000000 -15.000000
v -2.926355 35.000000 -14.711779
v -0.000000 33.000000 -12.261065
v 2.926355 35.000000 -14.711778
v 5.740252 35.000000 -13.858191
v 2.392015 33.000000 -12.025472
v 4.692107 33.000000 -11.327746
v 6.811882 33.000000 -10.194702
v -4.692108 33.000000 -11.327747
v -2.392016 33.000000 -12.025472
v 8.669882 33.000000 -8.669882
v 10.194703 33.000000 -6.811882
v 11.327747 33.000000 -4.692107
v 4.692107 33.000000 11.327747
v 2.392015 33.000000 12.025471
v 5.740252 35.000000 13.858191
v 6.811882 33.000000 10.194702
v 11.327747 33.000000 4.692106
v -4.692107 33.000000 11.327746
v -6.811882 33.000000 10.194702
v -5.740252 35.000000 13.858191
v -2.392015 33.000000 12.025471
v -2.926355 35.000000 14.711778
v 0.000000 33.000000 12.261065
v -8.669882 33.000000 8.669882
v -10.194703 33.000000 6.811882
v -11.327747 33.000000 4.692107
v -12.025472 33.000000 2.392015
v -13.858192 35.000000 5.740252
v -14.711779 35.000000 2.926355
v -11.327747 33.000000 -4.692106
v -10.194703 33.000000 -6.811882
v -13.858194 35.000000 -5.740252
v -12.025472 33.000000 -2.392015
v -12.472046 35.000000 -8.333552
v -14.711779 35.000000 -2.926355
v -12.261065 33.000000 0.000000
v -8.669883 33.000000 -8.669882
v -6.811882 33.000000 -10.194702
v -8.333553 35.000000 -12.472044
v -5.740252 35.000000 -13.858191
v -10.606602 35.000000 -10.606602
v -15.000000 35.000000 0.000000
v -12.472044 35.000000 8.333553
v -10.606602 35.000000 10.606602
v -8.333552 35.000000 12.472044
v 0.000000 35.000000 15.000000
v 2.926355 35.000000 14.711779
v 10.194703 33.000000 6.811882
v 13.858194 35.000000 5.740252
v 12.025472 33.000000 2.392015
v 12.472046 35.000000 8.333552
v 14.711779 35.000000 2.926355
v 12.025472 33.000000 -2.392015
v 12.261065 33.000000 0.000000
v 8.669883 33.000000 8.669882
v 10.606602 35.000000 10.606602
v 8.333553 35.000000 12.472044
v 15.000000 35.000000 0.000000
v 14.711779 35.000000 -2.926355
v 13.858192 35.000000 -5.740252
v 12.472044 35.000000 -8.333553
v 10.606602 35.000000 -10.606602
v 8.333552 35.000000 -12.472044
vn -0.0000 0.8076 -0.5897
vn 0.1150 0.8076 -0.5784
vn -0.1150 0.8076 -0.5784
vn -0.2257 0.8076 -0.5448
vn -0.3276 0.8076 -0.4903
vn -0.4170 0.8076 -0.4170
vn -0.4903 0.8076 -0.3276
vn -0.5448 0.8076 -0.2257
vn -0.5784 0.8076 -0.1150
vn -0.5897 0.8076 -0.0000
vn -0.5784 0.8076 0.1150
vn -0.5448 0.8076 0.2257
vn -0.4903 0.8076 0.3276
vn -0.4170 0.8076 0.4170
vn -0.3276 0.8076 0.4903
vn -0.2257 0.8076 0.5448
vn -0.1150 0.8076 0.5784
vn -0.0000 0.8076 0.5897
vn 0.1150 0.8076 0.5784
vn 0.2257 0.8076 0.5448
vn 0.3276 0.8076 0.4903
vn 0.4170 0.8076 0.4170
vn 0.4903 0.8076 0.3276
vn 0.5448 0.8076 0.2257
vn 0.5784 0.8076 0.1150
vn 0.5897 0.8076 -0.0000
vn 0.5784 0.8076 -0.1150
vn 0.5448 0.8076 -0.2257
vn 0.4903 0.8076 -0.3276
vn 0.4170 0.8076 -0.4170
vn 0.3276 0.8076 -0.4903
vn 0.2257 0.8076 -0.5448
vn -0.0000 -0.8076 -0.5897
vn -0.1150 -0.8076 -0.5784
vn 0.1150 -0.8076 -0.5784
vn 0.2257 -0.8076 -0.5448
vn 0.3276 -0.8076 -0.4903
vn 0.4170 -0.8076 -0.4170
vn 0.4903 -0.8076 -0.3276
vn 0.5448 -0.8076 -0.2257
vn 0.5784 -0.8076 -0.1150
vn 0.5897 -0.8076 -0.0000
vn 0.5784 -0.8076 0.1150
vn 0.5784 -0.8076 0.1151
vn 0.5448 -0.8076 0.2257
vn 0.4903 -0.8076 0.3276
vn 0.4170 -0.8076 0.4170
vn 0.3276 -0.8076 0.4903
vn 0.2257 -0.8076 0.5448
vn 0.1150 -0.8076 0.5784
vn -0.0000 -0.8076 0.5897
vn -0.1150 -0.8076 0.5784
vn -0.1151 -0.8076 0.5784
vn -0.2257 -0.8076 0.5448
vn -0.3276 -0.8076 0.4903
vn -0.4170 -0.8076 0.4170
vn -0.4903 -0.8076 0.3276
vn -0.5448 -0.8076 0.2257
vn -0.5784 -0.8076 0.1150
vn -0.5897 -0.8076 -0.0000
vn -0.5784 -0.8076 -0.1150
vn -0.5448 -0.8076 -0.2257
vn -0.4903 -0.8076 -0.3276
vn -0.4170 -0.8076 -0.4170
vn -0.3276 -0.8076 -0.4903
vn -0.2257 -0.8076 -0.5448
vn -0.1151 0.8076 -0.5784
vn 0.5784 0.8076 0.1151
vn 0.5784 0.8076 -0.1151
vn 0.5784 -0.8076 -0.1151
vn 0.1151 -0.8076 0.5784
vn -0.1151 -0.8076 -0.5784
vn -0.0000 -1.0000 -0.0000
vt 1.000000 1.000000
vt 0.968750 0.500000
vt 1.000000 0.500000
vt 0.031250 0.500000
vt 0.000000 1.000000
vt 0.000000 0.500000
vt 0.062500 1.000000
vt 0.062500 0.500000
vt 0.031250 1.000000
vt 0.093750 1.000000
vt 0.125000 1.000000
vt 0.093750 0.500000
vt 0.125000 0.500000
vt 0.156250 1.000000
vt 0.156250 0.500000
vt 0.187500 1.000000
vt 0.218750 0.500000
vt 0.218750 1.000000
vt 0.187500 0.500000
vt 0.250000 1.000000
vt 0.250000 0.500000
vt 0.281250 0.500000
vt 0.281250 1.000000
vt 0.312500 1.000000
vt 0.312500 0.500000
vt 0.343750 1.000000
vt 0.375000 1.000000
vt 0.343750 0.500000
vt 0.375000 0.500000
vt 0.406250 0.500000
vt 0.437500 0.500000
vt 0.406250 1.000000
vt 0.437500 1.000000
vt 0.468750 0.500000
vt 0.468750 1.000000
vt 0.500000 1.000000
vt 0.500000 0.500000
vt 0.531250 0.500000
vt 0.531250 1.000000
vt 0.562500 1.000000
vt 0.562500 0.500000
vt 0.593750 1.000000
vt 0.625000 1.000000
vt 0.593750 0.500000
vt 0.625000 0.500000
vt 0.656250 1.000000
vt 0.656250 0.500000
vt 0.687500 1.000000
vt 0.718750 0.500000
vt 0.718750 1.000000
vt 0.687500 0.500000
vt 0.750000 1.000000
vt 0.750000 0.500000
vt 0.781250 0.500000
vt 0.781250 1.000000
vt 0.812500 1.000000
vt 0.812500 0.500000
vt 0.843750 1.000000
vt 0.875000 1.000000
vt 0.843750 0.500000
vt 0.875000 0.500000
vt 0.906250 0.500000
vt 0.937500 0.500000
vt 0.906250 1.000000
vt 0.937500 1.000000
vt 0.968750 1.000000
vt 0.158156 0.471731
vt 0.116663 0.449553
vt 0.080294 0.419706
vt 0.250000 0.490000
vt 0.203178 0.485388
vt 0.341844 0.471731
vt 0.296822 0.485388
vt 0.158156 0.028269
vt 0.050447 0.383337
vt 0.028269 0.341844
vt 0.203178 0.014612
vt 0.341844 0.028269
vt 0.116663 0.050447
vt 0.028269 0.158156
vt 0.383337 0.050447
vt 0.419706 0.080294
vt 0.250000 0.010000
vt 0.296822 0.014612
vt 0.449553 0.116663
vt 0.471731 0.158156
vt 0.485388 0.203178
vt 0.471731 0.341844
vt 0.449553 0.383337
vt 0.419706 0.419706
vt 0.490000 0.250000
vt 0.485388 0.296822
vt 0.383337 0.449553
vt 0.050447 0.116663
vt 0.080294 0.080294
vt 0.010000 0.250000
vt 0.014612 0.203178
vt 0.014612 0.296822
s 1
f 3/1/1 2/2/2 1/3/1
f 4/4/3 3/5/1 1/6/1
f 7/7/4 4/4/3 5/8/4
f 4/4/3 6/9/3 3/5/1
f 7/7/4 6/9/3 4/4/3
f 8/10/5 7/7/4 5/8/4
f 9/11/6 8/10/5 10/12/5
f 8/10/5 5/8/4 10/12/5
f 9/11/6 10/12/5 11/13/6
f 13/14/7 11/13/6 12/15/7
f 13/14/7 9/11/6 11/13/6
f 14/16/8 13/14/7 12/15/7
f 17/17/9 15/18/9 14/16/8
f 14/16/8 12/15/7 16/19/8
f 17/17/9 14/16/8 16/19/8
f 19/20/10 17/17/9 18/21/10
f 19/20/10 15/18/9 17/17/9
f 21/22/11 20/23/11 19/20/10
f 21/22/11 19/20/10 18/21/10
f 23/24/12 21/22/11 22/25/12
f 23/24/12 20/23/11 21/22/11
f 24/26/13 23/24/12 22/25/12
f 25/27/14 24/26/13 26/28/13
f 24/26/13 22/25/12 26/28/13
f 25/27/14 26/28/13 27/29/14
f 28/30/15 25/27/14 27/29/14
f 29/31/16 30/32/15 28/30/15
f 28/30/15 30/32/15 25/27/14
f 29/31/16 31/33/16 30/32/15
f 33/34/17 32/35/17 31/33/16
f 33/34/17 31/33/16 29/31/16
f 35/36/18 33/34/17 34/37/18
f 35/36/18 32/35/17 33/34/17
f 37/38/19 36/39/19 35/36/18
f 37/38/19 35/36/18 34/37/18
f 39/40/20 37/38/19 38/41/20
f 39/40/20 36/39/19 37/38/19
f 40/42/21 39/40/20 38/41/20
f 41/43/22 40/42/21 42/44/21
f 40/42/21 38/41/20 42/44/21
f 41/43/22 42/44/21 43/45/22
f 45/46/23 43/45/22 44/47/23
f 45/46/23 41/43/22 43/45/22
f 46/48/24 45/46/23 44/47/23
f 49/49/25 47/50/25 46/48/24
f 46/48/24 44/47/23 48/51/24
f 49/49/25 46/48/24 48/51/24
f 51/52/26 49/49/25 50/53/26
f 51/52/26 47/50/25 49/49/25
f 53/54/27 52/55/27 51/52/26
f 53/54/27 51/52/26 50/53/26
f 55/56/28 53/54/27 54/57/28
f 55/56/28 52/55/27 53/54/27
f 56/58/29 55/56/28 54/57/28
f 57/59/30 56/58/29 58/60/29
f 56/58/29 54/57/28 58/60/29
f 57/59/30 58/60/29 59/61/30
f 60/62/31 57/59/30 59/61/30
f 61/63/32 62/64/31 60/62/31
f 60/62/31 62/64/31 57/59/30
f 61/63/32 63/65/32 62/64/31
f 2/2/2 64/66/2 63/65/32
f 2/2/2 63/65/32 61/63/32
f 3/1/1 64/66/2 2/2/2
f 67/1/33 66/2/34 65/3/33
f 68/4/35 67/5/33 65/6/33
f 71/7/36 68/4/35 69/8/36
f 68/4/35 70/9/35 67/5/33
f 71/7/36 70/9/35 68/4/35
f 72/10/37 71/7/36 69/8/36
f 73/11/38 72/10/37 74/12/37
f 72/10/37 69/8/36 74/12/37
f 73/11/38 74/12/37 75/13/38
f 76/15/39 73/11/38 75/13/38
f 77/19/40 78/14/39 76/15/39
f 76/15/39 78/14/39 73/11/38
f 77/19/40 79/16/40 78/14/39
f 81/17/41 80/18/41 79/16/40
f 81/17/41 79/16/40 77/19/40
f 83/20/42 81/17/41 82/21/42
f 83/20/42 80/18/41 81/17/41
f 85/22/43 84/23/44 83/20/42
f 85/22/43 83/20/42 82/21/42
f 86/25/45 84/23/44 85/22/43
f 87/28/46 88/24/45 86/25/45
f 86/25/45 88/24/45 84/23/44
f 87/28/46 89/26/46 88/24/45
f 90/27/47 89/26/46 87/28/46
f 93/30/48 91/32/48 90/27/47
f 90/27/47 87/28/46 92/29/47
f 93/30/48 90/27/47 92/29/47
f 94/31/49 91/32/48 93/30/48
f 95/34/50 96/33/49 94/31/49
f 94/31/49 96/33/49 91/32/48
f 95/34/50 97/35/50 96/33/49
f 98/36/51 97/35/50 95/34/50
f 101/38/52 99/39/53 98/36/51
f 98/36/51 95/34/50 100/37/51
f 101/38/52 98/36/51 100/37/51
f 103/40/54 101/38/52 102/41/54
f 103/40/54 99/39/53 101/38/52
f 105/44/55 104/42/55 103/40/54
f 105/44/55 103/40/54 102/41/54
f 107/43/56 105/44/55 106/45/56
f 107/43/56 104/42/55 105/44/55
f 109/47/57 108/46/57 107/43/56
f 109/47/57 107/43/56 106/45/56
f 110/51/58 108/46/57 109/47/57
f 111/49/59 112/48/58 110/51/58
f 110/51/58 112/48/58 108/46/57
f 111/49/59 113/50/59 112/48/58
f 114/52/60 113/50/59 111/49/59
f 117/54/61 115/55/61 114/52/60
f 114/52/60 111/49/59 116/53/60
f 117/54/61 114/52/60 116/53/60
f 119/56/62 117/54/61 118/57/62
f 119/56/62 115/55/61 117/54/61
f 121/60/63 120/58/63 119/56/62
f 121/60/63 119/56/62 118/57/62
f 123/59/64 121/60/63 122/61/64
f 123/59/64 120/58/63 121/60/63
f 125/62/65 124/64/65 123/59/64
f 125/62/65 123/59/64 122/61/64
f 126/63/66 124/64/65 125/62/65
f 66/2/34 127/65/66 126/63/66
f 126/63/66 127/65/66 124/64/65
f 66/2/34 128/66/34 127/65/66
f 67/1/33 128/66/34 66/2/34
f 131/1/1 130/2/2 129/3/1
f 132/4/3 131/5/1 129/6/1
f 133/8/4 134/9/67 132/4/3
f 132/4/3 134/9/67 131/5/1
f 133/8/4 135/7/4 134/9/67
f 136/10/5 135/7/4 133/8/4
f 137/11/6 136/10/5 138/12/5
f 136/10/5 133/8/4 138/12/5
f 137/11/6 138/12/5 139/13/6
f 140/15/7 137/11/6 139/13/6
f 141/19/8 142/14/7 140/15/7
f 140/15/7 142/14/7 137/11/6
f 141/19/8 143/16/8 142/14/7
f 145/17/9 144/18/9 143/16/8
f 145/17/9 143/16/8 141/19/8
f 147/20/10 145/17/9 146/21/10
f 147/20/10 144/18/9 145/17/9
f 149/22/11 148/23/11 147/20/10
f 149/22/11 147/20/10 146/21/10
f 151/24/12 149/22/11 150/25/12
f 151/24/12 148/23/11 149/22/11
f 152/26/13 151/24/12 150/25/12
f 153/27/14 152/26/13 154/28/13
f 152/26/13 150/25/12 154/28/13
f 153/27/14 154/28/13 155/29/14
f 156/30/15 153/27/14 155/29/14
f 157/31/16 158/32/15 156/30/15
f 156/30/15 158/32/15 153/27/14
f 157/31/16 159/33/16 158/32/15
f 161/34/17 160/35/17 159/33/16
f 161/34/17 159/33/16 157/31/16
f 163/36/18 161/34/17 162/37/18
f 163/36/18 160/35/17 161/34/17
f 165/38/19 164/39/19 163/36/18
f 165/38/19 163/36/18 162/37/18
f 167/40/20 165/38/19 166/41/20
f 167/40/20 164/39/19 165/38/19
f 168/42/21 167/40/20 166/41/20
f 169/43/22 168/42/21 170/44/21
f 168/42/21 166/41/20 170/44/21
f 169/43/22 170/44/21 171/45/22
f 173/46/23 171/45/22 172/47/23
f 173/46/23 169/43/22 171/45/22
f 174/48/24 173/46/23 172/47/23
f 175/50/68 174/48/24 176/51/24
f 174/48/24 172/47/23 176/51/24
f 175/50/68 176/51/24 177/49/25
f 179/52/26 177/49/25 178/53/26
f 179/52/26 175/50/68 177/49/25
f 181/54/27 180/55/69 179/52/26
f 181/54/27 179/52/26 178/53/26
f 182/57/28 180/55/69 181/54/27
f 183/60/29 184/56/28 182/57/28
f 182/57/28 184/56/28 180/55/69
f 183/60/29 185/58/29 184/56/28
f 187/61/30 186/59/30 185/58/29
f 187/61/30 185/58/29 183/60/29
f 188/62/31 186/59/30 187/61/30
f 189/63/32 190/64/31 188/62/31
f 188/62/31 190/64/31 186/59/30
f 189/63/32 191/65/32 190/64/31
f 130/2/2 192/66/2 191/65/32
f 130/2/2 191/65/32 189/63/32
f 131/1/1 192/66/2 130/2/2
f 195/1/33 194/2/34 193/3/33
f 196/4/35 195/5/33 193/6/33
f 199/7/36 196/4/35 197/8/36
f 196/4/35 198/9/35 195/5/33
f 199/7/36 198/9/35 196/4/35
f 200/10/37 199/7/36 197/8/36
f 201/11/38 200/10/37 202/12/37
f 200/10/37 197/8/36 202/12/37
f 201/11/38 202/12/37 203/13/38
f 205/14/39 203/13/38 204/15/39
f 205/14/39 201/11/38 203/13/38
f 206/16/40 205/14/39 204/15/39
f 207/18/70 206/16/40 208/19/40
f 206/16/40 204/15/39 208/19/40
f 207/18/70 208/19/40 209/17/41
f 211/20/42 209/17/41 210/21/42
f 211/20/42 207/18/70 209/17/41
f 213/22/43 212/23/44 211/20/42
f 213/22/43 211/20/42 210/21/42
f 214/25/45 212/23/44 213/22/43
f 215/28/46 216/24/45 214/25/45
f 214/25/45 216/24/45 212/23/44
f 215/28/46 217/26/46 216/24/45
f 219/29/47 218/27/47 217/26/46
f 219/29/47 217/26/46 215/28/46
f 220/30/48 218/27/47 219/29/47
f 221/31/49 222/32/48 220/30/48
f 220/30/48 222/32/48 218/27/47
f 221/31/49 223/33/49 222/32/48
f 224/35/71 223/33/49 221/31/49
f 225/36/51 224/35/71 226/34/50
f 224/35/71 221/31/49 226/34/50
f 225/36/51 226/34/50 227/37/51
f 228/38/52 225/36/51 227/37/51
f 231/40/54 228/38/52 229/41/54
f 228/38/52 230/39/52 225/36/51
f 231/40/54 230/39/52 228/38/52
f 232/42/55 231/40/54 229/41/54
f 235/45/56 233/43/56 232/42/55
f 232/42/55 229/41/54 234/44/55
f 235/45/56 232/42/55 234/44/55
f 236/47/57 233/43/56 235/45/56
f 237/51/58 238/46/57 236/47/57
f 236/47/57 238/46/57 233/43/56
f 237/51/58 239/48/58 238/46/57
f 241/49/59 240/50/59 239/48/58
f 241/49/59 239/48/58 237/51/58
f 243/52/60 241/49/59 242/53/60
f 243/52/60 240/50/59 241/49/59
f 245/54/61 244/55/61 243/52/60
f 245/54/61 243/52/60 242/53/60
f 247/56/62 245/54/61 246/57/62
f 247/56/62 244/55/61 245/54/61
f 249/60/63 248/58/63 247/56/62
f 249/60/63 247/56/62 246/57/62
f 251/59/64 249/60/63 250/61/64
f 251/59/64 248/58/63 249/60/63
f 252/64/65 251/59/64 250/61/64
f 255/63/66 253/65/66 252/64/65
f 252/64/65 250/61/64 254/62/65
f 255/63/66 252/64/65 254/62/65
f 256/66/72 255/63/66 194/2/34
f 256/66/72 253/65/66 255/63/66
f 195/1/33 256/66/72 194/2/34
f 259/1/1 258/2/2 257/3/1
f 260/4/3 259/5/1 257/6/1
f 263/7/4 260/4/3 261/8/4
f 263/7/4 262/9/3 260/4/3
f 260/4/3 262/9/3 259/5/1
f 264/10/5 263/7/4 261/8/4
f 265/11/6 264/10/5 266/12/5
f 264/10/5 261/8/4 266/12/5
f 265/11/6 266/12/5 267/13/6
f 269/14/7 267/13/6 268/15/7
f 269/14/7 265/11/6 267/13/6
f 270/16/8 269/14/7 268/15/7
f 273/17/9 271/18/9 270/16/8
f 273/17/9 270/16/8 272/19/8
f 270/16/8 268/15/7 272/19/8
f 275/20/10 273/17/9 274/21/10
f 275/20/10 271/18/9 273/17/9
f 277/22/11 276/23/11 275/20/10
f 277/22/11 275/20/10 274/21/10
f 279/24/12 277/22/11 278/25/12
f 279/24/12 276/23/11 277/22/11
f 280/26/13 279/24/12 278/25/12
f 281/27/14 280/26/13 282/28/13
f 280/26/13 278/25/12 282/28/13
f 281/27/14 282/28/13 283/29/14
f 284/30/15 281/27/14 283/29/14
f 285/31/16 286/32/15 284/30/15
f 284/30/15 286/32/15 281/27/14
f 285/31/16 287/33/16 286/32/15
f 289/34/17 288/35/17 287/33/16
f 289/34/17 287/33/16 285/31/16
f 291/36/18 289/34/17 290/37/18
f 291/36/18 288/35/17 289/34/17
f 293/38/19 292/39/19 291/36/18
f 293/38/19 291/36/18 290/37/18
f 295/40/20 293/38/19 294/41/20
f 295/40/20 292/39/19 293/38/19
f 296/42/21 295/40/20 294/41/20
f 297/43/22 296/42/21 298/44/21
f 296/42/21 294/41/20 298/44/21
f 297/43/22 298/44/21 299/45/22
f 301/46/23 299/45/22 300/47/23
f 301/46/23 297/43/22 299/45/22
f 302/48/24 301/46/23 300/47/23
f 305/49/25 303/50/25 302/48/24
f 305/49/25 302/48/24 304/51/24
f 302/48/24 300/47/23 304/51/24
f 307/52/26 305/49/25 306/53/26
f 307/52/26 303/50/25 305/49/25
f 309/54/27 308/55/27 307/52/26
f 309/54/27 307/52/26 306/53/26
f 311/56/28 309/54/27 310/57/28
f 311/56/28 308/55/27 309/54/27
f 312/58/29 311/56/28 310/57/28
f 313/59/30 312/58/29 314/60/29
f 312/58/29 310/57/28 314/60/29
f 313/59/30 314/60/29 315/61/30
f 316/62/31 313/59/30 315/61/30
f 317/63/32 318/64/31 316/62/31
f 316/62/31 318/64/31 313/59/30
f 317/63/32 319/65/32 318/64/31
f 258/2/2 320/66/2 319/65/32
f 258/2/2 319/65/32 317/63/32
f 259/1/1 320/66/2 258/2/2
f 323/1/33 322/2/34 321/3/33
f 324/4/35 323/5/33 321/6/33
f 327/7/36 324/4/35 325/8/36
f 327/7/36 326/9/35 324/4/35
f 324/4/35 326/9/35 323/5/33
f 328/10/37 327/7/36 325/8/36
s 0
f 327/67/73 328/68/73 331/69/73
f 323/70/73 326/71/73 327/67/73
f 329/72/73 330/73/73 327/67/73
f 329/72/73 327/67/73 334/74/73
f 330/73/73 323/70/73 327/67/73
f 331/69/73 332/75/73 327/67/73
f 332/75/73 333/76/73 327/67/73
f 327/67/73 333/76/73 334/74/73
s 1
f 335/35/71 334/33/49 336/31/49
s 0
f 334/74/73 335/77/73 339/78/73
s 1
f 336/31/49 334/33/49 337/32/48
s 0
f 337/79/73 334/74/73 338/80/73
f 333/76/73 338/80/73 334/74/73
f 334/74/73 339/78/73 329/72/73
s 1
f 340/42/55 339/40/54 341/41/54
s 0
f 339/78/73 340/81/73 345/82/73
s 1
f 339/40/54 343/38/52 341/41/54
f 339/40/54 342/39/52 343/38/52
s 0
f 344/83/73 342/84/73 339/78/73
f 335/77/73 344/83/73 339/78/73
f 345/82/73 346/85/73 339/78/73
f 346/85/73 347/86/73 339/78/73
f 339/78/73 347/86/73 329/72/73
s 1
f 350/49/59 348/50/59 347/48/58
s 0
f 347/86/73 348/87/73 351/88/73
s 1
f 350/49/59 347/48/58 349/51/58
f 349/51/58 347/48/58 346/46/57
s 0
f 347/86/73 351/88/73 329/72/73
s 1
f 355/60/63 352/58/63 351/56/62
s 0
f 351/88/73 352/89/73 358/90/73
s 1
f 355/60/63 351/56/62 353/57/62
f 351/56/62 356/54/61 353/57/62
f 351/56/62 354/55/61 356/54/61
s 0
f 357/91/73 354/92/73 351/88/73
f 348/87/73 357/91/73 351/88/73
f 358/90/73 359/93/73 351/88/73
f 359/93/73 329/72/73 351/88/73
s 1
f 361/63/66 329/65/66 359/64/65
f 361/63/66 359/64/65 360/62/65
f 360/62/65 359/64/65 358/59/64
f 330/66/72 361/63/66 322/2/34
f 330/66/72 329/65/66 361/63/66
f 360/62/65 358/59/64 362/61/64
f 358/59/64 355/60/63 362/61/64
f 358/59/64 352/58/63 355/60/63
f 356/54/61 354/55/61 357/52/60
f 356/54/61 357/52/60 363/53/60
f 357/52/60 350/49/59 363/53/60
f 357/52/60 348/50/59 350/49/59
f 349/51/58 346/46/57 364/47/57
f 364/47/57 346/46/57 345/43/56
f 364/47/57 345/43/56 365/45/56
f 345/43/56 366/44/55 365/45/56
f 340/42/55 341/41/54 366/44/55
f 345/43/56 340/42/55 366/44/55
f 343/38/52 342/39/52 344/36/51
f 343/38/52 344/36/51 367/37/51
f 344/36/51 368/34/50 367/37/51
f 344/36/51 335/35/71 368/34/50
f 335/35/71 336/31/49 368/34/50
f 372/28/46 369/26/46 338/24/45
s 0
f 338/80/73 369/94/73 376/95/73
s 1
f 372/28/46 338/24/45 370/25/45
f 338/24/45 373/22/43 370/25/45
f 338/24/45 371/23/43 373/22/43
s 0
f 375/96/73 371/97/73 338/80/73
f 333/76/73 374/98/73 338/80/73
f 374/98/73 375/96/73 338/80/73
f 376/95/73 337/79/73 338/80/73
s 1
f 378/30/48 337/32/48 376/27/47
f 378/30/48 376/27/47 377/29/47
f 376/27/47 372/28/46 377/29/47
f 376/27/47 369/26/46 372/28/46
f 336/31/49 337/32/48 378/30/48
f 373/22/43 371/23/43 375/20/42
f 373/22/43 375/20/42 379/21/42
f 375/20/42 380/17/41 379/21/42
f 375/20/42 374/18/41 380/17/41
f 380/17/41 374/18/41 333/16/40
f 380/17/41 333/16/40 381/19/40
f 381/19/40 333/16/40 332/14/39
f 381/19/40 332/14/39 382/15/39
f 382/15/39 332/14/39 331/11/38
f 382/15/39 331/11/38 383/13/38
f 331/11/38 384/12/37 383/13/38
f 328/10/37 325/8/36 384/12/37
f 331/11/38 328/10/37 384/12/37
f 323/1/33 330/66/72 322/2/34
