# Blender 4.4.1
# www.blender.org
mtllib Player_leftArm.mtl
o 左腕
v 0.384144 0.046719 0.108490
v 0.507679 -0.167272 0.110331
v 0.312822 0.005537 0.107427
v 0.436356 -0.208455 0.109268
v 0.386599 0.046719 -0.056222
v 0.510134 -0.167272 -0.054381
v 0.315277 0.005537 -0.057285
v 0.438811 -0.208455 -0.055444
vn -0.4999 0.8660 -0.0075
vn -0.8659 -0.5000 -0.0129
vn 0.0149 -0.0000 -0.9999
vn 0.4999 -0.8660 0.0075
vn -0.0149 -0.0000 0.9999
vn 0.8659 0.5000 0.0129
vt 0.711185 0.911003
vt 0.690862 0.951649
vt 0.690862 0.911003
vt 0.690862 0.850034
vt 0.650216 0.911003
vt 0.650216 0.850034
vt 0.629893 0.850034
vt 0.711185 0.850034
vt 0.690862 0.809388
vt 0.711185 0.809388
vt 0.629893 0.911003
vt 0.589247 0.850034
vt 0.711185 0.951649
vt 0.589247 0.911003
s 0
usemtl Material
f 1/1/1 7/2/1 3/3/1
f 4/4/2 7/5/2 8/6/2
f 7/5/3 6/7/3 8/6/3
f 2/8/4 8/9/4 6/10/4
f 1/1/5 4/4/5 2/8/5
f 5/11/6 2/12/6 6/7/6
f 1/1/1 5/13/1 7/2/1
f 4/4/2 3/3/2 7/5/2
f 7/5/3 5/11/3 6/7/3
f 2/8/4 4/4/4 8/9/4
f 1/1/5 3/3/5 4/4/5
f 5/11/6 1/14/6 2/12/6
