{
	"asset":{
		"generator":"Khronos glTF Blender I/O v4.4.56",
		"version":"2.0"
	},
	"scene":0,
	"scenes":[
		{
			"name":"Scene",
			"nodes":[
				7
			]
		}
	],
	"nodes":[
		{
			"name":"Object_11"
		},
		{
			"children":[
				0
			],
			"name":"Camera.001",
			"rotation":[
				-0.09194794297218323,
				0.6336881518363953,
				-0.11029665917158127,
				0.7601444125175476
			],
			"scale":[
				99.99998474121094,
				99.99999237060547,
				100.00000762939453
			],
			"translation":[
				-252.152587890625,
				1525.8663330078125,
				3677.82421875
			]
		},
		{
			"mesh":0,
			"name":"SM_RiftGate_Portal_A_LOD0.mo.002_MI_RiftGate_Portal_A.002_0",
			"translation":[
				-1.8466235399246216,
				0,
				0
			]
		},
		{
			"children":[
				2
			],
			"name":"SM_RiftGate_Portal_A_LOD0.mo.002",
			"rotation":[
				0,
				-0.7071066498756409,
				0,
				0.70710688829422
			],
			"translation":[
				0,
				1.4060941934585571,
				4.378343105316162
			]
		},
		{
			"children":[
				3
			],
			"name":"Rift Gate Blue/PinkEmpty",
			"rotation":[
				-0.70710688829422,
				0,
				0,
				0.7071066498756409
			],
			"scale":[
				100,
				99.99999237060547,
				99.99999237060547
			],
			"translation":[
				-10.150575637817383,
				0,
				0
			]
		},
		{
			"children":[
				1,
				4
			],
			"name":"RootNode"
		},
		{
			"children":[
				5
			],
			"name":"cd0df6d8e98d492cbf8d96e50b62056d.fbx",
			"rotation":[
				0.70710688829422,
				0,
				0,
				0.7071066498756409
			],
			"scale":[
				0.009999999776482582,
				0.010000000707805157,
				0.010000000707805157
			]
		},
		{
			"children":[
				6
			],
			"name":"Sketchfab_model",
			"rotation":[
				-0.70710688829422,
				0,
				0,
				0.7071066498756409
			]
		}
	],
	"materials":[
		{
			"doubleSided":true,
			"name":"MI_RiftGate_Portal_A.002",
			"pbrMetallicRoughness":{
				"baseColorTexture":{
					"index":0
				},
				"metallicFactor":0,
				"roughnessFactor":0.8040408492088318
			}
		}
	],
	"meshes":[
		{
			"name":"SM_RiftGate_Portal_A_LOD0.mo.002_MI_RiftGate_Portal_A.002_0",
			"primitives":[
				{
					"attributes":{
						"POSITION":0,
						"NORMAL":1,
						"TEXCOORD_0":2,
						"TEXCOORD_1":3
					},
					"indices":4,
					"material":0
				}
			]
		}
	],
	"textures":[
		{
			"sampler":0,
			"source":0
		}
	],
	"images":[
		{
			"mimeType":"image/png",
			"name":"MI_RiftGate_Portal_A.002_baseColor",
			"uri":"MI_RiftGate_Portal_A_002_baseColor.png"
		}
	],
	"accessors":[
		{
			"bufferView":0,
			"componentType":5126,
			"count":19200,
			"max":[
				3.1156623363494873,
				0.39994046092033386,
				3.1156623363494873
			],
			"min":[
				-3.1156623363494873,
				-0.39922431111335754,
				-3.1156623363494873
			],
			"type":"VEC3"
		},
		{
			"bufferView":1,
			"componentType":5126,
			"count":19200,
			"type":"VEC3"
		},
		{
			"bufferView":2,
			"componentType":5126,
			"count":19200,
			"type":"VEC2"
		},
		{
			"bufferView":3,
			"componentType":5126,
			"count":19200,
			"type":"VEC2"
		},
		{
			"bufferView":4,
			"componentType":5123,
			"count":91884,
			"type":"SCALAR"
		}
	],
	"bufferViews":[
		{
			"buffer":0,
			"byteLength":230400,
			"byteOffset":0,
			"target":34962
		},
		{
			"buffer":0,
			"byteLength":230400,
			"byteOffset":230400,
			"target":34962
		},
		{
			"buffer":0,
			"byteLength":153600,
			"byteOffset":460800,
			"target":34962
		},
		{
			"buffer":0,
			"byteLength":153600,
			"byteOffset":614400,
			"target":34962
		},
		{
			"buffer":0,
			"byteLength":183768,
			"byteOffset":768000,
			"target":34963
		}
	],
	"samplers":[
		{
			"magFilter":9729,
			"minFilter":9987
		}
	],
	"buffers":[
		{
			"byteLength":951768,
			"uri":"gate.bin"
		}
	]
}
