mtllib brazier.mtl
o brazier_no_flame
v -0.360000 0.000000 0.360000
v 0.360000 0.000000 0.360000
v 0.360000 0.140000 0.360000
v -0.360000 0.140000 0.360000
v 0.360000 0.000000 -0.360000
v -0.360000 0.000000 -0.360000
v -0.360000 0.140000 -0.360000
v 0.360000 0.140000 -0.360000
v -0.360000 0.000000 -0.360000
v -0.360000 0.000000 0.360000
v -0.360000 0.140000 0.360000
v -0.360000 0.140000 -0.360000
v 0.360000 0.000000 0.360000
v 0.360000 0.000000 -0.360000
v 0.360000 0.140000 -0.360000
v 0.360000 0.140000 0.360000
v -0.360000 0.140000 0.360000
v 0.360000 0.140000 0.360000
v 0.360000 0.140000 -0.360000
v -0.360000 0.140000 -0.360000
v -0.360000 0.000000 -0.360000
v 0.360000 0.000000 -0.360000
v 0.360000 0.000000 0.360000
v -0.360000 0.000000 0.360000
v -0.240000 0.140000 0.240000
v 0.240000 0.140000 0.240000
v 0.240000 0.280000 0.240000
v -0.240000 0.280000 0.240000
v 0.240000 0.140000 -0.240000
v -0.240000 0.140000 -0.240000
v -0.240000 0.280000 -0.240000
v 0.240000 0.280000 -0.240000
v -0.240000 0.140000 -0.240000
v -0.240000 0.140000 0.240000
v -0.240000 0.280000 0.240000
v -0.240000 0.280000 -0.240000
v 0.240000 0.140000 0.240000
v 0.240000 0.140000 -0.240000
v 0.240000 0.280000 -0.240000
v 0.240000 0.280000 0.240000
v -0.240000 0.280000 0.240000
v 0.240000 0.280000 0.240000
v 0.240000 0.280000 -0.240000
v -0.240000 0.280000 -0.240000
v -0.240000 0.140000 -0.240000
v 0.240000 0.140000 -0.240000
v 0.240000 0.140000 0.240000
v -0.240000 0.140000 0.240000
v 0.120000 0.280000 0.000000
v 0.115911 0.280000 0.031058
v 0.115911 0.780000 0.031058
v 0.120000 0.780000 0.000000
v 0.115911 0.280000 0.031058
v 0.103923 0.280000 0.060000
v 0.103923 0.780000 0.060000
v 0.115911 0.780000 0.031058
v 0.103923 0.280000 0.060000
v 0.084853 0.280000 0.084853
v 0.084853 0.780000 0.084853
v 0.103923 0.780000 0.060000
v 0.084853 0.280000 0.084853
v 0.060000 0.280000 0.103923
v 0.060000 0.780000 0.103923
v 0.084853 0.780000 0.084853
v 0.060000 0.280000 0.103923
v 0.031058 0.280000 0.115911
v 0.031058 0.780000 0.115911
v 0.060000 0.780000 0.103923
v 0.031058 0.280000 0.115911
v 0.000000 0.280000 0.120000
v 0.000000 0.780000 0.120000
v 0.031058 0.780000 0.115911
v 0.000000 0.280000 0.120000
v -0.031058 0.280000 0.115911
v -0.031058 0.780000 0.115911
v 0.000000 0.780000 0.120000
v -0.031058 0.280000 0.115911
v -0.060000 0.280000 0.103923
v -0.060000 0.780000 0.103923
v -0.031058 0.780000 0.115911
v -0.060000 0.280000 0.103923
v -0.084853 0.280000 0.084853
v -0.084853 0.780000 0.084853
v -0.060000 0.780000 0.103923
v -0.084853 0.280000 0.084853
v -0.103923 0.280000 0.060000
v -0.103923 0.780000 0.060000
v -0.084853 0.780000 0.084853
v -0.103923 0.280000 0.060000
v -0.115911 0.280000 0.031058
v -0.115911 0.780000 0.031058
v -0.103923 0.780000 0.060000
v -0.115911 0.280000 0.031058
v -0.120000 0.280000 0.000000
v -0.120000 0.780000 0.000000
v -0.115911 0.780000 0.031058
v -0.120000 0.280000 0.000000
v -0.115911 0.280000 -0.031058
v -0.115911 0.780000 -0.031058
v -0.120000 0.780000 0.000000
v -0.115911 0.280000 -0.031058
v -0.103923 0.280000 -0.060000
v -0.103923 0.780000 -0.060000
v -0.115911 0.780000 -0.031058
v -0.103923 0.280000 -0.060000
v -0.084853 0.280000 -0.084853
v -0.084853 0.780000 -0.084853
v -0.103923 0.780000 -0.060000
v -0.084853 0.280000 -0.084853
v -0.060000 0.280000 -0.103923
v -0.060000 0.780000 -0.103923
v -0.084853 0.780000 -0.084853
v -0.060000 0.280000 -0.103923
v -0.031058 0.280000 -0.115911
v -0.031058 0.780000 -0.115911
v -0.060000 0.780000 -0.103923
v -0.031058 0.280000 -0.115911
v -0.000000 0.280000 -0.120000
v -0.000000 0.780000 -0.120000
v -0.031058 0.780000 -0.115911
v -0.000000 0.280000 -0.120000
v 0.031058 0.280000 -0.115911
v 0.031058 0.780000 -0.115911
v -0.000000 0.780000 -0.120000
v 0.031058 0.280000 -0.115911
v 0.060000 0.280000 -0.103923
v 0.060000 0.780000 -0.103923
v 0.031058 0.780000 -0.115911
v 0.060000 0.280000 -0.103923
v 0.084853 0.280000 -0.084853
v 0.084853 0.780000 -0.084853
v 0.060000 0.780000 -0.103923
v 0.084853 0.280000 -0.084853
v 0.103923 0.280000 -0.060000
v 0.103923 0.780000 -0.060000
v 0.084853 0.780000 -0.084853
v 0.103923 0.280000 -0.060000
v 0.115911 0.280000 -0.031058
v 0.115911 0.780000 -0.031058
v 0.103923 0.780000 -0.060000
v 0.115911 0.280000 -0.031058
v 0.120000 0.280000 -0.000000
v 0.120000 0.780000 -0.000000
v 0.115911 0.780000 -0.031058
v 0.260000 0.780000 0.000000
v 0.255004 0.780000 0.050723
v 0.451161 1.040000 0.089742
v 0.460000 1.040000 0.000000
v 0.000000 0.780000 0.000000
v 0.255004 0.780000 0.050723
v 0.260000 0.780000 0.000000
v 0.255004 0.780000 0.050723
v 0.240209 0.780000 0.099498
v 0.424985 1.040000 0.176034
v 0.451161 1.040000 0.089742
v 0.000000 0.780000 0.000000
v 0.240209 0.780000 0.099498
v 0.255004 0.780000 0.050723
v 0.240209 0.780000 0.099498
v 0.216182 0.780000 0.144448
v 0.382476 1.040000 0.255562
v 0.424985 1.040000 0.176034
v 0.000000 0.780000 0.000000
v 0.216182 0.780000 0.144448
v 0.240209 0.780000 0.099498
v 0.216182 0.780000 0.144448
v 0.183848 0.780000 0.183848
v 0.325269 1.040000 0.325269
v 0.382476 1.040000 0.255562
v 0.000000 0.780000 0.000000
v 0.183848 0.780000 0.183848
v 0.216182 0.780000 0.144448
v 0.183848 0.780000 0.183848
v 0.144448 0.780000 0.216182
v 0.255562 1.040000 0.382476
v 0.325269 1.040000 0.325269
v 0.000000 0.780000 0.000000
v 0.144448 0.780000 0.216182
v 0.183848 0.780000 0.183848
v 0.144448 0.780000 0.216182
v 0.099498 0.780000 0.240209
v 0.176034 1.040000 0.424985
v 0.255562 1.040000 0.382476
v 0.000000 0.780000 0.000000
v 0.099498 0.780000 0.240209
v 0.144448 0.780000 0.216182
v 0.099498 0.780000 0.240209
v 0.050723 0.780000 0.255004
v 0.089742 1.040000 0.451161
v 0.176034 1.040000 0.424985
v 0.000000 0.780000 0.000000
v 0.050723 0.780000 0.255004
v 0.099498 0.780000 0.240209
v 0.050723 0.780000 0.255004
v 0.000000 0.780000 0.260000
v 0.000000 1.040000 0.460000
v 0.089742 1.040000 0.451161
v 0.000000 0.780000 0.000000
v 0.000000 0.780000 0.260000
v 0.050723 0.780000 0.255004
v 0.000000 0.780000 0.260000
v -0.050723 0.780000 0.255004
v -0.089742 1.040000 0.451161
v 0.000000 1.040000 0.460000
v 0.000000 0.780000 0.000000
v -0.050723 0.780000 0.255004
v 0.000000 0.780000 0.260000
v -0.050723 0.780000 0.255004
v -0.099498 0.780000 0.240209
v -0.176034 1.040000 0.424985
v -0.089742 1.040000 0.451161
v 0.000000 0.780000 0.000000
v -0.099498 0.780000 0.240209
v -0.050723 0.780000 0.255004
v -0.099498 0.780000 0.240209
v -0.144448 0.780000 0.216182
v -0.255562 1.040000 0.382476
v -0.176034 1.040000 0.424985
v 0.000000 0.780000 0.000000
v -0.144448 0.780000 0.216182
v -0.099498 0.780000 0.240209
v -0.144448 0.780000 0.216182
v -0.183848 0.780000 0.183848
v -0.325269 1.040000 0.325269
v -0.255562 1.040000 0.382476
v 0.000000 0.780000 0.000000
v -0.183848 0.780000 0.183848
v -0.144448 0.780000 0.216182
v -0.183848 0.780000 0.183848
v -0.216182 0.780000 0.144448
v -0.382476 1.040000 0.255562
v -0.325269 1.040000 0.325269
v 0.000000 0.780000 0.000000
v -0.216182 0.780000 0.144448
v -0.183848 0.780000 0.183848
v -0.216182 0.780000 0.144448
v -0.240209 0.780000 0.099498
v -0.424985 1.040000 0.176034
v -0.382476 1.040000 0.255562
v 0.000000 0.780000 0.000000
v -0.240209 0.780000 0.099498
v -0.216182 0.780000 0.144448
v -0.240209 0.780000 0.099498
v -0.255004 0.780000 0.050723
v -0.451161 1.040000 0.089742
v -0.424985 1.040000 0.176034
v 0.000000 0.780000 0.000000
v -0.255004 0.780000 0.050723
v -0.240209 0.780000 0.099498
v -0.255004 0.780000 0.050723
v -0.260000 0.780000 0.000000
v -0.460000 1.040000 0.000000
v -0.451161 1.040000 0.089742
v 0.000000 0.780000 0.000000
v -0.260000 0.780000 0.000000
v -0.255004 0.780000 0.050723
v -0.260000 0.780000 0.000000
v -0.255004 0.780000 -0.050723
v -0.451161 1.040000 -0.089742
v -0.460000 1.040000 0.000000
v 0.000000 0.780000 0.000000
v -0.255004 0.780000 -0.050723
v -0.260000 0.780000 0.000000
v -0.255004 0.780000 -0.050723
v -0.240209 0.780000 -0.099498
v -0.424985 1.040000 -0.176034
v -0.451161 1.040000 -0.089742
v 0.000000 0.780000 0.000000
v -0.240209 0.780000 -0.099498
v -0.255004 0.780000 -0.050723
v -0.240209 0.780000 -0.099498
v -0.216182 0.780000 -0.144448
v -0.382476 1.040000 -0.255562
v -0.424985 1.040000 -0.176034
v 0.000000 0.780000 0.000000
v -0.216182 0.780000 -0.144448
v -0.240209 0.780000 -0.099498
v -0.216182 0.780000 -0.144448
v -0.183848 0.780000 -0.183848
v -0.325269 1.040000 -0.325269
v -0.382476 1.040000 -0.255562
v 0.000000 0.780000 0.000000
v -0.183848 0.780000 -0.183848
v -0.216182 0.780000 -0.144448
v -0.183848 0.780000 -0.183848
v -0.144448 0.780000 -0.216182
v -0.255562 1.040000 -0.382476
v -0.325269 1.040000 -0.325269
v 0.000000 0.780000 0.000000
v -0.144448 0.780000 -0.216182
v -0.183848 0.780000 -0.183848
v -0.144448 0.780000 -0.216182
v -0.099498 0.780000 -0.240209
v -0.176034 1.040000 -0.424985
v -0.255562 1.040000 -0.382476
v 0.000000 0.780000 0.000000
v -0.099498 0.780000 -0.240209
v -0.144448 0.780000 -0.216182
v -0.099498 0.780000 -0.240209
v -0.050723 0.780000 -0.255004
v -0.089742 1.040000 -0.451161
v -0.176034 1.040000 -0.424985
v 0.000000 0.780000 0.000000
v -0.050723 0.780000 -0.255004
v -0.099498 0.780000 -0.240209
v -0.050723 0.780000 -0.255004
v -0.000000 0.780000 -0.260000
v -0.000000 1.040000 -0.460000
v -0.089742 1.040000 -0.451161
v 0.000000 0.780000 0.000000
v -0.000000 0.780000 -0.260000
v -0.050723 0.780000 -0.255004
v -0.000000 0.780000 -0.260000
v 0.050723 0.780000 -0.255004
v 0.089742 1.040000 -0.451161
v -0.000000 1.040000 -0.460000
v 0.000000 0.780000 0.000000
v 0.050723 0.780000 -0.255004
v -0.000000 0.780000 -0.260000
v 0.050723 0.780000 -0.255004
v 0.099498 0.780000 -0.240209
v 0.176034 1.040000 -0.424985
v 0.089742 1.040000 -0.451161
v 0.000000 0.780000 0.000000
v 0.099498 0.780000 -0.240209
v 0.050723 0.780000 -0.255004
v 0.099498 0.780000 -0.240209
v 0.144448 0.780000 -0.216182
v 0.255562 1.040000 -0.382476
v 0.176034 1.040000 -0.424985
v 0.000000 0.780000 0.000000
v 0.144448 0.780000 -0.216182
v 0.099498 0.780000 -0.240209
v 0.144448 0.780000 -0.216182
v 0.183848 0.780000 -0.183848
v 0.325269 1.040000 -0.325269
v 0.255562 1.040000 -0.382476
v 0.000000 0.780000 0.000000
v 0.183848 0.780000 -0.183848
v 0.144448 0.780000 -0.216182
v 0.183848 0.780000 -0.183848
v 0.216182 0.780000 -0.144448
v 0.382476 1.040000 -0.255562
v 0.325269 1.040000 -0.325269
v 0.000000 0.780000 0.000000
v 0.216182 0.780000 -0.144448
v 0.183848 0.780000 -0.183848
v 0.216182 0.780000 -0.144448
v 0.240209 0.780000 -0.099498
v 0.424985 1.040000 -0.176034
v 0.382476 1.040000 -0.255562
v 0.000000 0.780000 0.000000
v 0.240209 0.780000 -0.099498
v 0.216182 0.780000 -0.144448
v 0.240209 0.780000 -0.099498
v 0.255004 0.780000 -0.050723
v 0.451161 1.040000 -0.089742
v 0.424985 1.040000 -0.176034
v 0.000000 0.780000 0.000000
v 0.255004 0.780000 -0.050723
v 0.240209 0.780000 -0.099498
v 0.255004 0.780000 -0.050723
v 0.260000 0.780000 -0.000000
v 0.460000 1.040000 -0.000000
v 0.451161 1.040000 -0.089742
v 0.000000 0.780000 0.000000
v 0.260000 0.780000 -0.000000
v 0.255004 0.780000 -0.050723
v 0.480000 1.020000 0.000000
v 0.470777 1.020000 0.093643
v 0.470777 1.100000 0.093643
v 0.480000 1.100000 0.000000
v 0.000000 1.100000 0.000000
v 0.480000 1.100000 0.000000
v 0.470777 1.100000 0.093643
v 0.470777 1.020000 0.093643
v 0.443462 1.020000 0.183688
v 0.443462 1.100000 0.183688
v 0.470777 1.100000 0.093643
v 0.000000 1.100000 0.000000
v 0.470777 1.100000 0.093643
v 0.443462 1.100000 0.183688
v 0.443462 1.020000 0.183688
v 0.399105 1.020000 0.266674
v 0.399105 1.100000 0.266674
v 0.443462 1.100000 0.183688
v 0.000000 1.100000 0.000000
v 0.443462 1.100000 0.183688
v 0.399105 1.100000 0.266674
v 0.399105 1.020000 0.266674
v 0.339411 1.020000 0.339411
v 0.339411 1.100000 0.339411
v 0.399105 1.100000 0.266674
v 0.000000 1.100000 0.000000
v 0.399105 1.100000 0.266674
v 0.339411 1.100000 0.339411
v 0.339411 1.020000 0.339411
v 0.266674 1.020000 0.399105
v 0.266674 1.100000 0.399105
v 0.339411 1.100000 0.339411
v 0.000000 1.100000 0.000000
v 0.339411 1.100000 0.339411
v 0.266674 1.100000 0.399105
v 0.266674 1.020000 0.399105
v 0.183688 1.020000 0.443462
v 0.183688 1.100000 0.443462
v 0.266674 1.100000 0.399105
v 0.000000 1.100000 0.000000
v 0.266674 1.100000 0.399105
v 0.183688 1.100000 0.443462
v 0.183688 1.020000 0.443462
v 0.093643 1.020000 0.470777
v 0.093643 1.100000 0.470777
v 0.183688 1.100000 0.443462
v 0.000000 1.100000 0.000000
v 0.183688 1.100000 0.443462
v 0.093643 1.100000 0.470777
v 0.093643 1.020000 0.470777
v 0.000000 1.020000 0.480000
v 0.000000 1.100000 0.480000
v 0.093643 1.100000 0.470777
v 0.000000 1.100000 0.000000
v 0.093643 1.100000 0.470777
v 0.000000 1.100000 0.480000
v 0.000000 1.020000 0.480000
v -0.093643 1.020000 0.470777
v -0.093643 1.100000 0.470777
v 0.000000 1.100000 0.480000
v 0.000000 1.100000 0.000000
v 0.000000 1.100000 0.480000
v -0.093643 1.100000 0.470777
v -0.093643 1.020000 0.470777
v -0.183688 1.020000 0.443462
v -0.183688 1.100000 0.443462
v -0.093643 1.100000 0.470777
v 0.000000 1.100000 0.000000
v -0.093643 1.100000 0.470777
v -0.183688 1.100000 0.443462
v -0.183688 1.020000 0.443462
v -0.266674 1.020000 0.399105
v -0.266674 1.100000 0.399105
v -0.183688 1.100000 0.443462
v 0.000000 1.100000 0.000000
v -0.183688 1.100000 0.443462
v -0.266674 1.100000 0.399105
v -0.266674 1.020000 0.399105
v -0.339411 1.020000 0.339411
v -0.339411 1.100000 0.339411
v -0.266674 1.100000 0.399105
v 0.000000 1.100000 0.000000
v -0.266674 1.100000 0.399105
v -0.339411 1.100000 0.339411
v -0.339411 1.020000 0.339411
v -0.399105 1.020000 0.266674
v -0.399105 1.100000 0.266674
v -0.339411 1.100000 0.339411
v 0.000000 1.100000 0.000000
v -0.339411 1.100000 0.339411
v -0.399105 1.100000 0.266674
v -0.399105 1.020000 0.266674
v -0.443462 1.020000 0.183688
v -0.443462 1.100000 0.183688
v -0.399105 1.100000 0.266674
v 0.000000 1.100000 0.000000
v -0.399105 1.100000 0.266674
v -0.443462 1.100000 0.183688
v -0.443462 1.020000 0.183688
v -0.470777 1.020000 0.093643
v -0.470777 1.100000 0.093643
v -0.443462 1.100000 0.183688
v 0.000000 1.100000 0.000000
v -0.443462 1.100000 0.183688
v -0.470777 1.100000 0.093643
v -0.470777 1.020000 0.093643
v -0.480000 1.020000 0.000000
v -0.480000 1.100000 0.000000
v -0.470777 1.100000 0.093643
v 0.000000 1.100000 0.000000
v -0.470777 1.100000 0.093643
v -0.480000 1.100000 0.000000
v -0.480000 1.020000 0.000000
v -0.470777 1.020000 -0.093643
v -0.470777 1.100000 -0.093643
v -0.480000 1.100000 0.000000
v 0.000000 1.100000 0.000000
v -0.480000 1.100000 0.000000
v -0.470777 1.100000 -0.093643
v -0.470777 1.020000 -0.093643
v -0.443462 1.020000 -0.183688
v -0.443462 1.100000 -0.183688
v -0.470777 1.100000 -0.093643
v 0.000000 1.100000 0.000000
v -0.470777 1.100000 -0.093643
v -0.443462 1.100000 -0.183688
v -0.443462 1.020000 -0.183688
v -0.399105 1.020000 -0.266674
v -0.399105 1.100000 -0.266674
v -0.443462 1.100000 -0.183688
v 0.000000 1.100000 0.000000
v -0.443462 1.100000 -0.183688
v -0.399105 1.100000 -0.266674
v -0.399105 1.020000 -0.266674
v -0.339411 1.020000 -0.339411
v -0.339411 1.100000 -0.339411
v -0.399105 1.100000 -0.266674
v 0.000000 1.100000 0.000000
v -0.399105 1.100000 -0.266674
v -0.339411 1.100000 -0.339411
v -0.339411 1.020000 -0.339411
v -0.266674 1.020000 -0.399105
v -0.266674 1.100000 -0.399105
v -0.339411 1.100000 -0.339411
v 0.000000 1.100000 0.000000
v -0.339411 1.100000 -0.339411
v -0.266674 1.100000 -0.399105
v -0.266674 1.020000 -0.399105
v -0.183688 1.020000 -0.443462
v -0.183688 1.100000 -0.443462
v -0.266674 1.100000 -0.399105
v 0.000000 1.100000 0.000000
v -0.266674 1.100000 -0.399105
v -0.183688 1.100000 -0.443462
v -0.183688 1.020000 -0.443462
v -0.093643 1.020000 -0.470777
v -0.093643 1.100000 -0.470777
v -0.183688 1.100000 -0.443462
v 0.000000 1.100000 0.000000
v -0.183688 1.100000 -0.443462
v -0.093643 1.100000 -0.470777
v -0.093643 1.020000 -0.470777
v -0.000000 1.020000 -0.480000
v -0.000000 1.100000 -0.480000
v -0.093643 1.100000 -0.470777
v 0.000000 1.100000 0.000000
v -0.093643 1.100000 -0.470777
v -0.000000 1.100000 -0.480000
v -0.000000 1.020000 -0.480000
v 0.093643 1.020000 -0.470777
v 0.093643 1.100000 -0.470777
v -0.000000 1.100000 -0.480000
v 0.000000 1.100000 0.000000
v -0.000000 1.100000 -0.480000
v 0.093643 1.100000 -0.470777
v 0.093643 1.020000 -0.470777
v 0.183688 1.020000 -0.443462
v 0.183688 1.100000 -0.443462
v 0.093643 1.100000 -0.470777
v 0.000000 1.100000 0.000000
v 0.093643 1.100000 -0.470777
v 0.183688 1.100000 -0.443462
v 0.183688 1.020000 -0.443462
v 0.266674 1.020000 -0.399105
v 0.266674 1.100000 -0.399105
v 0.183688 1.100000 -0.443462
v 0.000000 1.100000 0.000000
v 0.183688 1.100000 -0.443462
v 0.266674 1.100000 -0.399105
v 0.266674 1.020000 -0.399105
v 0.339411 1.020000 -0.339411
v 0.339411 1.100000 -0.339411
v 0.266674 1.100000 -0.399105
v 0.000000 1.100000 0.000000
v 0.266674 1.100000 -0.399105
v 0.339411 1.100000 -0.339411
v 0.339411 1.020000 -0.339411
v 0.399105 1.020000 -0.266674
v 0.399105 1.100000 -0.266674
v 0.339411 1.100000 -0.339411
v 0.000000 1.100000 0.000000
v 0.339411 1.100000 -0.339411
v 0.399105 1.100000 -0.266674
v 0.399105 1.020000 -0.266674
v 0.443462 1.020000 -0.183688
v 0.443462 1.100000 -0.183688
v 0.399105 1.100000 -0.266674
v 0.000000 1.100000 0.000000
v 0.399105 1.100000 -0.266674
v 0.443462 1.100000 -0.183688
v 0.443462 1.020000 -0.183688
v 0.470777 1.020000 -0.093643
v 0.470777 1.100000 -0.093643
v 0.443462 1.100000 -0.183688
v 0.000000 1.100000 0.000000
v 0.443462 1.100000 -0.183688
v 0.470777 1.100000 -0.093643
v 0.470777 1.020000 -0.093643
v 0.480000 1.020000 -0.000000
v 0.480000 1.100000 -0.000000
v 0.470777 1.100000 -0.093643
v 0.000000 1.100000 0.000000
v 0.470777 1.100000 -0.093643
v 0.480000 1.100000 -0.000000
v -0.620000 0.880000 0.050000
v -0.460000 0.880000 0.050000
v -0.460000 0.980000 0.050000
v -0.620000 0.980000 0.050000
v -0.460000 0.880000 -0.050000
v -0.620000 0.880000 -0.050000
v -0.620000 0.980000 -0.050000
v -0.460000 0.980000 -0.050000
v -0.620000 0.880000 -0.050000
v -0.620000 0.880000 0.050000
v -0.620000 0.980000 0.050000
v -0.620000 0.980000 -0.050000
v -0.460000 0.880000 0.050000
v -0.460000 0.880000 -0.050000
v -0.460000 0.980000 -0.050000
v -0.460000 0.980000 0.050000
v -0.620000 0.980000 0.050000
v -0.460000 0.980000 0.050000
v -0.460000 0.980000 -0.050000
v -0.620000 0.980000 -0.050000
v -0.620000 0.880000 -0.050000
v -0.460000 0.880000 -0.050000
v -0.460000 0.880000 0.050000
v -0.620000 0.880000 0.050000
v 0.460000 0.880000 0.050000
v 0.620000 0.880000 0.050000
v 0.620000 0.980000 0.050000
v 0.460000 0.980000 0.050000
v 0.620000 0.880000 -0.050000
v 0.460000 0.880000 -0.050000
v 0.460000 0.980000 -0.050000
v 0.620000 0.980000 -0.050000
v 0.460000 0.880000 -0.050000
v 0.460000 0.880000 0.050000
v 0.460000 0.980000 0.050000
v 0.460000 0.980000 -0.050000
v 0.620000 0.880000 0.050000
v 0.620000 0.880000 -0.050000
v 0.620000 0.980000 -0.050000
v 0.620000 0.980000 0.050000
v 0.460000 0.980000 0.050000
v 0.620000 0.980000 0.050000
v 0.620000 0.980000 -0.050000
v 0.460000 0.980000 -0.050000
v 0.460000 0.880000 -0.050000
v 0.620000 0.880000 -0.050000
v 0.620000 0.880000 0.050000
v 0.460000 0.880000 0.050000
v -0.050000 0.880000 -0.460000
v 0.050000 0.880000 -0.460000
v 0.050000 0.980000 -0.460000
v -0.050000 0.980000 -0.460000
v 0.050000 0.880000 -0.620000
v -0.050000 0.880000 -0.620000
v -0.050000 0.980000 -0.620000
v 0.050000 0.980000 -0.620000
v -0.050000 0.880000 -0.620000
v -0.050000 0.880000 -0.460000
v -0.050000 0.980000 -0.460000
v -0.050000 0.980000 -0.620000
v 0.050000 0.880000 -0.460000
v 0.050000 0.880000 -0.620000
v 0.050000 0.980000 -0.620000
v 0.050000 0.980000 -0.460000
v -0.050000 0.980000 -0.460000
v 0.050000 0.980000 -0.460000
v 0.050000 0.980000 -0.620000
v -0.050000 0.980000 -0.620000
v -0.050000 0.880000 -0.620000
v 0.050000 0.880000 -0.620000
v 0.050000 0.880000 -0.460000
v -0.050000 0.880000 -0.460000
v -0.050000 0.880000 0.620000
v 0.050000 0.880000 0.620000
v 0.050000 0.980000 0.620000
v -0.050000 0.980000 0.620000
v 0.050000 0.880000 0.460000
v -0.050000 0.880000 0.460000
v -0.050000 0.980000 0.460000
v 0.050000 0.980000 0.460000
v -0.050000 0.880000 0.460000
v -0.050000 0.880000 0.620000
v -0.050000 0.980000 0.620000
v -0.050000 0.980000 0.460000
v 0.050000 0.880000 0.620000
v 0.050000 0.880000 0.460000
v 0.050000 0.980000 0.460000
v 0.050000 0.980000 0.620000
v -0.050000 0.980000 0.620000
v 0.050000 0.980000 0.620000
v 0.050000 0.980000 0.460000
v -0.050000 0.980000 0.460000
v -0.050000 0.880000 0.460000
v 0.050000 0.880000 0.460000
v 0.050000 0.880000 0.620000
v -0.050000 0.880000 0.620000
vt 0.000000 0.000000
vt 1.000000 0.000000
vt 1.000000 1.000000
vt 0.000000 1.000000
vt 0.000000 0.000000
vt 1.000000 0.000000
vt 1.000000 1.000000
vt 0.000000 1.000000
vt 0.000000 0.000000
vt 1.000000 0.000000
vt 1.000000 1.000000
vt 0.000000 1.000000
vt 0.000000 0.000000
vt 1.000000 0.000000
vt 1.000000 1.000000
vt 0.000000 1.000000
vt 0.000000 0.000000
vt 1.000000 0.000000
vt 1.000000 1.000000
vt 0.000000 1.000000
vt 0.000000 0.000000
vt 1.000000 0.000000
vt 1.000000 1.000000
vt 0.000000 1.000000
vt 0.000000 0.000000
vt 1.000000 0.000000
vt 1.000000 1.000000
vt 0.000000 1.000000
vt 0.000000 0.000000
vt 1.000000 0.000000
vt 1.000000 1.000000
vt 0.000000 1.000000
vt 0.000000 0.000000
vt 1.000000 0.000000
vt 1.000000 1.000000
vt 0.000000 1.000000
vt 0.000000 0.000000
vt 1.000000 0.000000
vt 1.000000 1.000000
vt 0.000000 1.000000
vt 0.000000 0.000000
vt 1.000000 0.000000
vt 1.000000 1.000000
vt 0.000000 1.000000
vt 0.000000 0.000000
vt 1.000000 0.000000
vt 1.000000 1.000000
vt 0.000000 1.000000
vt 0.000000 0.000000
vt 0.041667 0.000000
vt 0.041667 1.000000
vt 0.000000 1.000000
vt 0.041667 0.000000
vt 0.083333 0.000000
vt 0.083333 1.000000
vt 0.041667 1.000000
vt 0.083333 0.000000
vt 0.125000 0.000000
vt 0.125000 1.000000
vt 0.083333 1.000000
vt 0.125000 0.000000
vt 0.166667 0.000000
vt 0.166667 1.000000
vt 0.125000 1.000000
vt 0.166667 0.000000
vt 0.208333 0.000000
vt 0.208333 1.000000
vt 0.166667 1.000000
vt 0.208333 0.000000
vt 0.250000 0.000000
vt 0.250000 1.000000
vt 0.208333 1.000000
vt 0.250000 0.000000
vt 0.291667 0.000000
vt 0.291667 1.000000
vt 0.250000 1.000000
vt 0.291667 0.000000
vt 0.333333 0.000000
vt 0.333333 1.000000
vt 0.291667 1.000000
vt 0.333333 0.000000
vt 0.375000 0.000000
vt 0.375000 1.000000
vt 0.333333 1.000000
vt 0.375000 0.000000
vt 0.416667 0.000000
vt 0.416667 1.000000
vt 0.375000 1.000000
vt 0.416667 0.000000
vt 0.458333 0.000000
vt 0.458333 1.000000
vt 0.416667 1.000000
vt 0.458333 0.000000
vt 0.500000 0.000000
vt 0.500000 1.000000
vt 0.458333 1.000000
vt 0.500000 0.000000
vt 0.541667 0.000000
vt 0.541667 1.000000
vt 0.500000 1.000000
vt 0.541667 0.000000
vt 0.583333 0.000000
vt 0.583333 1.000000
vt 0.541667 1.000000
vt 0.583333 0.000000
vt 0.625000 0.000000
vt 0.625000 1.000000
vt 0.583333 1.000000
vt 0.625000 0.000000
vt 0.666667 0.000000
vt 0.666667 1.000000
vt 0.625000 1.000000
vt 0.666667 0.000000
vt 0.708333 0.000000
vt 0.708333 1.000000
vt 0.666667 1.000000
vt 0.708333 0.000000
vt 0.750000 0.000000
vt 0.750000 1.000000
vt 0.708333 1.000000
vt 0.750000 0.000000
vt 0.791667 0.000000
vt 0.791667 1.000000
vt 0.750000 1.000000
vt 0.791667 0.000000
vt 0.833333 0.000000
vt 0.833333 1.000000
vt 0.791667 1.000000
vt 0.833333 0.000000
vt 0.875000 0.000000
vt 0.875000 1.000000
vt 0.833333 1.000000
vt 0.875000 0.000000
vt 0.916667 0.000000
vt 0.916667 1.000000
vt 0.875000 1.000000
vt 0.916667 0.000000
vt 0.958333 0.000000
vt 0.958333 1.000000
vt 0.916667 1.000000
vt 0.958333 0.000000
vt 1.000000 0.000000
vt 1.000000 1.000000
vt 0.958333 1.000000
vt 0.000000 0.000000
vt 0.031250 0.000000
vt 0.031250 1.000000
vt 0.000000 1.000000
vt 0.000000 0.000000
vt 1.000000 0.000000
vt 0.500000 1.000000
vt 0.031250 0.000000
vt 0.062500 0.000000
vt 0.062500 1.000000
vt 0.031250 1.000000
vt 0.000000 0.000000
vt 1.000000 0.000000
vt 0.500000 1.000000
vt 0.062500 0.000000
vt 0.093750 0.000000
vt 0.093750 1.000000
vt 0.062500 1.000000
vt 0.000000 0.000000
vt 1.000000 0.000000
vt 0.500000 1.000000
vt 0.093750 0.000000
vt 0.125000 0.000000
vt 0.125000 1.000000
vt 0.093750 1.000000
vt 0.000000 0.000000
vt 1.000000 0.000000
vt 0.500000 1.000000
vt 0.125000 0.000000
vt 0.156250 0.000000
vt 0.156250 1.000000
vt 0.125000 1.000000
vt 0.000000 0.000000
vt 1.000000 0.000000
vt 0.500000 1.000000
vt 0.156250 0.000000
vt 0.187500 0.000000
vt 0.187500 1.000000
vt 0.156250 1.000000
vt 0.000000 0.000000
vt 1.000000 0.000000
vt 0.500000 1.000000
vt 0.187500 0.000000
vt 0.218750 0.000000
vt 0.218750 1.000000
vt 0.187500 1.000000
vt 0.000000 0.000000
vt 1.000000 0.000000
vt 0.500000 1.000000
vt 0.218750 0.000000
vt 0.250000 0.000000
vt 0.250000 1.000000
vt 0.218750 1.000000
vt 0.000000 0.000000
vt 1.000000 0.000000
vt 0.500000 1.000000
vt 0.250000 0.000000
vt 0.281250 0.000000
vt 0.281250 1.000000
vt 0.250000 1.000000
vt 0.000000 0.000000
vt 1.000000 0.000000
vt 0.500000 1.000000
vt 0.281250 0.000000
vt 0.312500 0.000000
vt 0.312500 1.000000
vt 0.281250 1.000000
vt 0.000000 0.000000
vt 1.000000 0.000000
vt 0.500000 1.000000
vt 0.312500 0.000000
vt 0.343750 0.000000
vt 0.343750 1.000000
vt 0.312500 1.000000
vt 0.000000 0.000000
vt 1.000000 0.000000
vt 0.500000 1.000000
vt 0.343750 0.000000
vt 0.375000 0.000000
vt 0.375000 1.000000
vt 0.343750 1.000000
vt 0.000000 0.000000
vt 1.000000 0.000000
vt 0.500000 1.000000
vt 0.375000 0.000000
vt 0.406250 0.000000
vt 0.406250 1.000000
vt 0.375000 1.000000
vt 0.000000 0.000000
vt 1.000000 0.000000
vt 0.500000 1.000000
vt 0.406250 0.000000
vt 0.437500 0.000000
vt 0.437500 1.000000
vt 0.406250 1.000000
vt 0.000000 0.000000
vt 1.000000 0.000000
vt 0.500000 1.000000
vt 0.437500 0.000000
vt 0.468750 0.000000
vt 0.468750 1.000000
vt 0.437500 1.000000
vt 0.000000 0.000000
vt 1.000000 0.000000
vt 0.500000 1.000000
vt 0.468750 0.000000
vt 0.500000 0.000000
vt 0.500000 1.000000
vt 0.468750 1.000000
vt 0.000000 0.000000
vt 1.000000 0.000000
vt 0.500000 1.000000
vt 0.500000 0.000000
vt 0.531250 0.000000
vt 0.531250 1.000000
vt 0.500000 1.000000
vt 0.000000 0.000000
vt 1.000000 0.000000
vt 0.500000 1.000000
vt 0.531250 0.000000
vt 0.562500 0.000000
vt 0.562500 1.000000
vt 0.531250 1.000000
vt 0.000000 0.000000
vt 1.000000 0.000000
vt 0.500000 1.000000
vt 0.562500 0.000000
vt 0.593750 0.000000
vt 0.593750 1.000000
vt 0.562500 1.000000
vt 0.000000 0.000000
vt 1.000000 0.000000
vt 0.500000 1.000000
vt 0.593750 0.000000
vt 0.625000 0.000000
vt 0.625000 1.000000
vt 0.593750 1.000000
vt 0.000000 0.000000
vt 1.000000 0.000000
vt 0.500000 1.000000
vt 0.625000 0.000000
vt 0.656250 0.000000
vt 0.656250 1.000000
vt 0.625000 1.000000
vt 0.000000 0.000000
vt 1.000000 0.000000
vt 0.500000 1.000000
vt 0.656250 0.000000
vt 0.687500 0.000000
vt 0.687500 1.000000
vt 0.656250 1.000000
vt 0.000000 0.000000
vt 1.000000 0.000000
vt 0.500000 1.000000
vt 0.687500 0.000000
vt 0.718750 0.000000
vt 0.718750 1.000000
vt 0.687500 1.000000
vt 0.000000 0.000000
vt 1.000000 0.000000
vt 0.500000 1.000000
vt 0.718750 0.000000
vt 0.750000 0.000000
vt 0.750000 1.000000
vt 0.718750 1.000000
vt 0.000000 0.000000
vt 1.000000 0.000000
vt 0.500000 1.000000
vt 0.750000 0.000000
vt 0.781250 0.000000
vt 0.781250 1.000000
vt 0.750000 1.000000
vt 0.000000 0.000000
vt 1.000000 0.000000
vt 0.500000 1.000000
vt 0.781250 0.000000
vt 0.812500 0.000000
vt 0.812500 1.000000
vt 0.781250 1.000000
vt 0.000000 0.000000
vt 1.000000 0.000000
vt 0.500000 1.000000
vt 0.812500 0.000000
vt 0.843750 0.000000
vt 0.843750 1.000000
vt 0.812500 1.000000
vt 0.000000 0.000000
vt 1.000000 0.000000
vt 0.500000 1.000000
vt 0.843750 0.000000
vt 0.875000 0.000000
vt 0.875000 1.000000
vt 0.843750 1.000000
vt 0.000000 0.000000
vt 1.000000 0.000000
vt 0.500000 1.000000
vt 0.875000 0.000000
vt 0.906250 0.000000
vt 0.906250 1.000000
vt 0.875000 1.000000
vt 0.000000 0.000000
vt 1.000000 0.000000
vt 0.500000 1.000000
vt 0.906250 0.000000
vt 0.937500 0.000000
vt 0.937500 1.000000
vt 0.906250 1.000000
vt 0.000000 0.000000
vt 1.000000 0.000000
vt 0.500000 1.000000
vt 0.937500 0.000000
vt 0.968750 0.000000
vt 0.968750 1.000000
vt 0.937500 1.000000
vt 0.000000 0.000000
vt 1.000000 0.000000
vt 0.500000 1.000000
vt 0.968750 0.000000
vt 1.000000 0.000000
vt 1.000000 1.000000
vt 0.968750 1.000000
vt 0.000000 0.000000
vt 1.000000 0.000000
vt 0.500000 1.000000
vt 0.000000 0.000000
vt 0.031250 0.000000
vt 0.031250 1.000000
vt 0.000000 1.000000
vt 0.000000 0.000000
vt 1.000000 0.000000
vt 0.500000 1.000000
vt 0.031250 0.000000
vt 0.062500 0.000000
vt 0.062500 1.000000
vt 0.031250 1.000000
vt 0.000000 0.000000
vt 1.000000 0.000000
vt 0.500000 1.000000
vt 0.062500 0.000000
vt 0.093750 0.000000
vt 0.093750 1.000000
vt 0.062500 1.000000
vt 0.000000 0.000000
vt 1.000000 0.000000
vt 0.500000 1.000000
vt 0.093750 0.000000
vt 0.125000 0.000000
vt 0.125000 1.000000
vt 0.093750 1.000000
vt 0.000000 0.000000
vt 1.000000 0.000000
vt 0.500000 1.000000
vt 0.125000 0.000000
vt 0.156250 0.000000
vt 0.156250 1.000000
vt 0.125000 1.000000
vt 0.000000 0.000000
vt 1.000000 0.000000
vt 0.500000 1.000000
vt 0.156250 0.000000
vt 0.187500 0.000000
vt 0.187500 1.000000
vt 0.156250 1.000000
vt 0.000000 0.000000
vt 1.000000 0.000000
vt 0.500000 1.000000
vt 0.187500 0.000000
vt 0.218750 0.000000
vt 0.218750 1.000000
vt 0.187500 1.000000
vt 0.000000 0.000000
vt 1.000000 0.000000
vt 0.500000 1.000000
vt 0.218750 0.000000
vt 0.250000 0.000000
vt 0.250000 1.000000
vt 0.218750 1.000000
vt 0.000000 0.000000
vt 1.000000 0.000000
vt 0.500000 1.000000
vt 0.250000 0.000000
vt 0.281250 0.000000
vt 0.281250 1.000000
vt 0.250000 1.000000
vt 0.000000 0.000000
vt 1.000000 0.000000
vt 0.500000 1.000000
vt 0.281250 0.000000
vt 0.312500 0.000000
vt 0.312500 1.000000
vt 0.281250 1.000000
vt 0.000000 0.000000
vt 1.000000 0.000000
vt 0.500000 1.000000
vt 0.312500 0.000000
vt 0.343750 0.000000
vt 0.343750 1.000000
vt 0.312500 1.000000
vt 0.000000 0.000000
vt 1.000000 0.000000
vt 0.500000 1.000000
vt 0.343750 0.000000
vt 0.375000 0.000000
vt 0.375000 1.000000
vt 0.343750 1.000000
vt 0.000000 0.000000
vt 1.000000 0.000000
vt 0.500000 1.000000
vt 0.375000 0.000000
vt 0.406250 0.000000
vt 0.406250 1.000000
vt 0.375000 1.000000
vt 0.000000 0.000000
vt 1.000000 0.000000
vt 0.500000 1.000000
vt 0.406250 0.000000
vt 0.437500 0.000000
vt 0.437500 1.000000
vt 0.406250 1.000000
vt 0.000000 0.000000
vt 1.000000 0.000000
vt 0.500000 1.000000
vt 0.437500 0.000000
vt 0.468750 0.000000
vt 0.468750 1.000000
vt 0.437500 1.000000
vt 0.000000 0.000000
vt 1.000000 0.000000
vt 0.500000 1.000000
vt 0.468750 0.000000
vt 0.500000 0.000000
vt 0.500000 1.000000
vt 0.468750 1.000000
vt 0.000000 0.000000
vt 1.000000 0.000000
vt 0.500000 1.000000
vt 0.500000 0.000000
vt 0.531250 0.000000
vt 0.531250 1.000000
vt 0.500000 1.000000
vt 0.000000 0.000000
vt 1.000000 0.000000
vt 0.500000 1.000000
vt 0.531250 0.000000
vt 0.562500 0.000000
vt 0.562500 1.000000
vt 0.531250 1.000000
vt 0.000000 0.000000
vt 1.000000 0.000000
vt 0.500000 1.000000
vt 0.562500 0.000000
vt 0.593750 0.000000
vt 0.593750 1.000000
vt 0.562500 1.000000
vt 0.000000 0.000000
vt 1.000000 0.000000
vt 0.500000 1.000000
vt 0.593750 0.000000
vt 0.625000 0.000000
vt 0.625000 1.000000
vt 0.593750 1.000000
vt 0.000000 0.000000
vt 1.000000 0.000000
vt 0.500000 1.000000
vt 0.625000 0.000000
vt 0.656250 0.000000
vt 0.656250 1.000000
vt 0.625000 1.000000
vt 0.000000 0.000000
vt 1.000000 0.000000
vt 0.500000 1.000000
vt 0.656250 0.000000
vt 0.687500 0.000000
vt 0.687500 1.000000
vt 0.656250 1.000000
vt 0.000000 0.000000
vt 1.000000 0.000000
vt 0.500000 1.000000
vt 0.687500 0.000000
vt 0.718750 0.000000
vt 0.718750 1.000000
vt 0.687500 1.000000
vt 0.000000 0.000000
vt 1.000000 0.000000
vt 0.500000 1.000000
vt 0.718750 0.000000
vt 0.750000 0.000000
vt 0.750000 1.000000
vt 0.718750 1.000000
vt 0.000000 0.000000
vt 1.000000 0.000000
vt 0.500000 1.000000
vt 0.750000 0.000000
vt 0.781250 0.000000
vt 0.781250 1.000000
vt 0.750000 1.000000
vt 0.000000 0.000000
vt 1.000000 0.000000
vt 0.500000 1.000000
vt 0.781250 0.000000
vt 0.812500 0.000000
vt 0.812500 1.000000
vt 0.781250 1.000000
vt 0.000000 0.000000
vt 1.000000 0.000000
vt 0.500000 1.000000
vt 0.812500 0.000000
vt 0.843750 0.000000
vt 0.843750 1.000000
vt 0.812500 1.000000
vt 0.000000 0.000000
vt 1.000000 0.000000
vt 0.500000 1.000000
vt 0.843750 0.000000
vt 0.875000 0.000000
vt 0.875000 1.000000
vt 0.843750 1.000000
vt 0.000000 0.000000
vt 1.000000 0.000000
vt 0.500000 1.000000
vt 0.875000 0.000000
vt 0.906250 0.000000
vt 0.906250 1.000000
vt 0.875000 1.000000
vt 0.000000 0.000000
vt 1.000000 0.000000
vt 0.500000 1.000000
vt 0.906250 0.000000
vt 0.937500 0.000000
vt 0.937500 1.000000
vt 0.906250 1.000000
vt 0.000000 0.000000
vt 1.000000 0.000000
vt 0.500000 1.000000
vt 0.937500 0.000000
vt 0.968750 0.000000
vt 0.968750 1.000000
vt 0.937500 1.000000
vt 0.000000 0.000000
vt 1.000000 0.000000
vt 0.500000 1.000000
vt 0.968750 0.000000
vt 1.000000 0.000000
vt 1.000000 1.000000
vt 0.968750 1.000000
vt 0.000000 0.000000
vt 1.000000 0.000000
vt 0.500000 1.000000
vt 0.000000 0.000000
vt 1.000000 0.000000
vt 1.000000 1.000000
vt 0.000000 1.000000
vt 0.000000 0.000000
vt 1.000000 0.000000
vt 1.000000 1.000000
vt 0.000000 1.000000
vt 0.000000 0.000000
vt 1.000000 0.000000
vt 1.000000 1.000000
vt 0.000000 1.000000
vt 0.000000 0.000000
vt 1.000000 0.000000
vt 1.000000 1.000000
vt 0.000000 1.000000
vt 0.000000 0.000000
vt 1.000000 0.000000
vt 1.000000 1.000000
vt 0.000000 1.000000
vt 0.000000 0.000000
vt 1.000000 0.000000
vt 1.000000 1.000000
vt 0.000000 1.000000
vt 0.000000 0.000000
vt 1.000000 0.000000
vt 1.000000 1.000000
vt 0.000000 1.000000
vt 0.000000 0.000000
vt 1.000000 0.000000
vt 1.000000 1.000000
vt 0.000000 1.000000
vt 0.000000 0.000000
vt 1.000000 0.000000
vt 1.000000 1.000000
vt 0.000000 1.000000
vt 0.000000 0.000000
vt 1.000000 0.000000
vt 1.000000 1.000000
vt 0.000000 1.000000
vt 0.000000 0.000000
vt 1.000000 0.000000
vt 1.000000 1.000000
vt 0.000000 1.000000
vt 0.000000 0.000000
vt 1.000000 0.000000
vt 1.000000 1.000000
vt 0.000000 1.000000
vt 0.000000 0.000000
vt 1.000000 0.000000
vt 1.000000 1.000000
vt 0.000000 1.000000
vt 0.000000 0.000000
vt 1.000000 0.000000
vt 1.000000 1.000000
vt 0.000000 1.000000
vt 0.000000 0.000000
vt 1.000000 0.000000
vt 1.000000 1.000000
vt 0.000000 1.000000
vt 0.000000 0.000000
vt 1.000000 0.000000
vt 1.000000 1.000000
vt 0.000000 1.000000
vt 0.000000 0.000000
vt 1.000000 0.000000
vt 1.000000 1.000000
vt 0.000000 1.000000
vt 0.000000 0.000000
vt 1.000000 0.000000
vt 1.000000 1.000000
vt 0.000000 1.000000
vt 0.000000 0.000000
vt 1.000000 0.000000
vt 1.000000 1.000000
vt 0.000000 1.000000
vt 0.000000 0.000000
vt 1.000000 0.000000
vt 1.000000 1.000000
vt 0.000000 1.000000
vt 0.000000 0.000000
vt 1.000000 0.000000
vt 1.000000 1.000000
vt 0.000000 1.000000
vt 0.000000 0.000000
vt 1.000000 0.000000
vt 1.000000 1.000000
vt 0.000000 1.000000
vt 0.000000 0.000000
vt 1.000000 0.000000
vt 1.000000 1.000000
vt 0.000000 1.000000
vt 0.000000 0.000000
vt 1.000000 0.000000
vt 1.000000 1.000000
vt 0.000000 1.000000
vn 0.000000 0.000000 1.000000
vn 0.000000 0.000000 -1.000000
vn -1.000000 0.000000 0.000000
vn 1.000000 0.000000 0.000000
vn 0.000000 1.000000 0.000000
vn 0.000000 -1.000000 0.000000
vn 0.000000 0.000000 1.000000
vn 0.000000 0.000000 -1.000000
vn -1.000000 0.000000 0.000000
vn 1.000000 0.000000 0.000000
vn 0.000000 1.000000 0.000000
vn 0.000000 -1.000000 0.000000
vn 0.991445 0.000000 0.130526
vn 0.923880 0.000000 0.382683
vn 0.793353 0.000000 0.608761
vn 0.608761 0.000000 0.793353
vn 0.382683 0.000000 0.923880
vn 0.130526 0.000000 0.991445
vn -0.130526 0.000000 0.991445
vn -0.382683 0.000000 0.923880
vn -0.608761 0.000000 0.793353
vn -0.793353 0.000000 0.608761
vn -0.923880 0.000000 0.382683
vn -0.991445 0.000000 0.130526
vn -0.991445 0.000000 -0.130526
vn -0.923880 0.000000 -0.382683
vn -0.793353 0.000000 -0.608761
vn -0.608761 0.000000 -0.793353
vn -0.382683 0.000000 -0.923880
vn -0.130526 0.000000 -0.991445
vn 0.130526 0.000000 -0.991445
vn 0.382683 0.000000 -0.923880
vn 0.608761 0.000000 -0.793353
vn 0.793353 0.000000 -0.608761
vn 0.923880 0.000000 -0.382683
vn 0.991445 0.000000 -0.130526
vn 0.995185 0.000000 0.098017
vn 0.000000 -1.000000 0.000000
vn 0.956940 0.000000 0.290285
vn 0.000000 -1.000000 0.000000
vn 0.881921 0.000000 0.471397
vn 0.000000 -1.000000 0.000000
vn 0.773010 0.000000 0.634393
vn 0.000000 -1.000000 0.000000
vn 0.634393 0.000000 0.773010
vn 0.000000 -1.000000 0.000000
vn 0.471397 0.000000 0.881921
vn 0.000000 -1.000000 0.000000
vn 0.290285 0.000000 0.956940
vn 0.000000 -1.000000 0.000000
vn 0.098017 0.000000 0.995185
vn 0.000000 -1.000000 0.000000
vn -0.098017 0.000000 0.995185
vn 0.000000 -1.000000 0.000000
vn -0.290285 0.000000 0.956940
vn 0.000000 -1.000000 0.000000
vn -0.471397 0.000000 0.881921
vn 0.000000 -1.000000 0.000000
vn -0.634393 0.000000 0.773010
vn 0.000000 -1.000000 0.000000
vn -0.773010 0.000000 0.634393
vn 0.000000 -1.000000 0.000000
vn -0.881921 0.000000 0.471397
vn 0.000000 -1.000000 0.000000
vn -0.956940 0.000000 0.290285
vn 0.000000 -1.000000 0.000000
vn -0.995185 0.000000 0.098017
vn 0.000000 -1.000000 0.000000
vn -0.995185 0.000000 -0.098017
vn 0.000000 -1.000000 0.000000
vn -0.956940 0.000000 -0.290285
vn 0.000000 -1.000000 0.000000
vn -0.881921 0.000000 -0.471397
vn 0.000000 -1.000000 0.000000
vn -0.773010 0.000000 -0.634393
vn 0.000000 -1.000000 0.000000
vn -0.634393 0.000000 -0.773010
vn 0.000000 -1.000000 0.000000
vn -0.471397 0.000000 -0.881921
vn 0.000000 -1.000000 0.000000
vn -0.290285 0.000000 -0.956940
vn 0.000000 -1.000000 0.000000
vn -0.098017 0.000000 -0.995185
vn 0.000000 -1.000000 0.000000
vn 0.098017 0.000000 -0.995185
vn 0.000000 -1.000000 0.000000
vn 0.290285 0.000000 -0.956940
vn 0.000000 -1.000000 0.000000
vn 0.471397 0.000000 -0.881921
vn 0.000000 -1.000000 0.000000
vn 0.634393 0.000000 -0.773010
vn 0.000000 -1.000000 0.000000
vn 0.773010 0.000000 -0.634393
vn 0.000000 -1.000000 0.000000
vn 0.881921 0.000000 -0.471397
vn 0.000000 -1.000000 0.000000
vn 0.956940 0.000000 -0.290285
vn 0.000000 -1.000000 0.000000
vn 0.995185 0.000000 -0.098017
vn 0.000000 -1.000000 0.000000
vn 0.995185 0.000000 0.098017
vn 0.000000 1.000000 0.000000
vn 0.956940 0.000000 0.290285
vn 0.000000 1.000000 0.000000
vn 0.881921 0.000000 0.471397
vn 0.000000 1.000000 0.000000
vn 0.773010 0.000000 0.634393
vn 0.000000 1.000000 0.000000
vn 0.634393 0.000000 0.773010
vn 0.000000 1.000000 0.000000
vn 0.471397 0.000000 0.881921
vn 0.000000 1.000000 0.000000
vn 0.290285 0.000000 0.956940
vn 0.000000 1.000000 0.000000
vn 0.098017 0.000000 0.995185
vn 0.000000 1.000000 0.000000
vn -0.098017 0.000000 0.995185
vn 0.000000 1.000000 0.000000
vn -0.290285 0.000000 0.956940
vn 0.000000 1.000000 0.000000
vn -0.471397 0.000000 0.881921
vn 0.000000 1.000000 0.000000
vn -0.634393 0.000000 0.773010
vn 0.000000 1.000000 0.000000
vn -0.773010 0.000000 0.634393
vn 0.000000 1.000000 0.000000
vn -0.881921 0.000000 0.471397
vn 0.000000 1.000000 0.000000
vn -0.956940 0.000000 0.290285
vn 0.000000 1.000000 0.000000
vn -0.995185 0.000000 0.098017
vn 0.000000 1.000000 0.000000
vn -0.995185 0.000000 -0.098017
vn 0.000000 1.000000 0.000000
vn -0.956940 0.000000 -0.290285
vn 0.000000 1.000000 0.000000
vn -0.881921 0.000000 -0.471397
vn 0.000000 1.000000 0.000000
vn -0.773010 0.000000 -0.634393
vn 0.000000 1.000000 0.000000
vn -0.634393 0.000000 -0.773010
vn 0.000000 1.000000 0.000000
vn -0.471397 0.000000 -0.881921
vn 0.000000 1.000000 0.000000
vn -0.290285 0.000000 -0.956940
vn 0.000000 1.000000 0.000000
vn -0.098017 0.000000 -0.995185
vn 0.000000 1.000000 0.000000
vn 0.098017 0.000000 -0.995185
vn 0.000000 1.000000 0.000000
vn 0.290285 0.000000 -0.956940
vn 0.000000 1.000000 0.000000
vn 0.471397 0.000000 -0.881921
vn 0.000000 1.000000 0.000000
vn 0.634393 0.000000 -0.773010
vn 0.000000 1.000000 0.000000
vn 0.773010 0.000000 -0.634393
vn 0.000000 1.000000 0.000000
vn 0.881921 0.000000 -0.471397
vn 0.000000 1.000000 0.000000
vn 0.956940 0.000000 -0.290285
vn 0.000000 1.000000 0.000000
vn 0.995185 0.000000 -0.098017
vn 0.000000 1.000000 0.000000
vn 0.000000 0.000000 1.000000
vn 0.000000 0.000000 -1.000000
vn -1.000000 0.000000 0.000000
vn 1.000000 0.000000 0.000000
vn 0.000000 1.000000 0.000000
vn 0.000000 -1.000000 0.000000
vn 0.000000 0.000000 1.000000
vn 0.000000 0.000000 -1.000000
vn -1.000000 0.000000 0.000000
vn 1.000000 0.000000 0.000000
vn 0.000000 1.000000 0.000000
vn 0.000000 -1.000000 0.000000
vn 0.000000 0.000000 1.000000
vn 0.000000 0.000000 -1.000000
vn -1.000000 0.000000 0.000000
vn 1.000000 0.000000 0.000000
vn 0.000000 1.000000 0.000000
vn 0.000000 -1.000000 0.000000
vn 0.000000 0.000000 1.000000
vn 0.000000 0.000000 -1.000000
vn -1.000000 0.000000 0.000000
vn 1.000000 0.000000 0.000000
vn 0.000000 1.000000 0.000000
vn 0.000000 -1.000000 0.000000
usemtl stone
f 1/1/1 2/2/1 3/3/1
f 1/1/1 3/3/1 4/4/1
f 5/5/2 6/6/2 7/7/2
f 5/5/2 7/7/2 8/8/2
f 9/9/3 10/10/3 11/11/3
f 9/9/3 11/11/3 12/12/3
f 13/13/4 14/14/4 15/15/4
f 13/13/4 15/15/4 16/16/4
f 17/17/5 18/18/5 19/19/5
f 17/17/5 19/19/5 20/20/5
f 21/21/6 22/22/6 23/23/6
f 21/21/6 23/23/6 24/24/6
f 25/25/7 26/26/7 27/27/7
f 25/25/7 27/27/7 28/28/7
f 29/29/8 30/30/8 31/31/8
f 29/29/8 31/31/8 32/32/8
f 33/33/9 34/34/9 35/35/9
f 33/33/9 35/35/9 36/36/9
f 37/37/10 38/38/10 39/39/10
f 37/37/10 39/39/10 40/40/10
f 41/41/11 42/42/11 43/43/11
f 41/41/11 43/43/11 44/44/11
f 45/45/12 46/46/12 47/47/12
f 45/45/12 47/47/12 48/48/12
usemtl metal
f 49/49/13 50/50/13 51/51/13
f 49/49/13 51/51/13 52/52/13
f 53/53/14 54/54/14 55/55/14
f 53/53/14 55/55/14 56/56/14
f 57/57/15 58/58/15 59/59/15
f 57/57/15 59/59/15 60/60/15
f 61/61/16 62/62/16 63/63/16
f 61/61/16 63/63/16 64/64/16
f 65/65/17 66/66/17 67/67/17
f 65/65/17 67/67/17 68/68/17
f 69/69/18 70/70/18 71/71/18
f 69/69/18 71/71/18 72/72/18
f 73/73/19 74/74/19 75/75/19
f 73/73/19 75/75/19 76/76/19
f 77/77/20 78/78/20 79/79/20
f 77/77/20 79/79/20 80/80/20
f 81/81/21 82/82/21 83/83/21
f 81/81/21 83/83/21 84/84/21
f 85/85/22 86/86/22 87/87/22
f 85/85/22 87/87/22 88/88/22
f 89/89/23 90/90/23 91/91/23
f 89/89/23 91/91/23 92/92/23
f 93/93/24 94/94/24 95/95/24
f 93/93/24 95/95/24 96/96/24
f 97/97/25 98/98/25 99/99/25
f 97/97/25 99/99/25 100/100/25
f 101/101/26 102/102/26 103/103/26
f 101/101/26 103/103/26 104/104/26
f 105/105/27 106/106/27 107/107/27
f 105/105/27 107/107/27 108/108/27
f 109/109/28 110/110/28 111/111/28
f 109/109/28 111/111/28 112/112/28
f 113/113/29 114/114/29 115/115/29
f 113/113/29 115/115/29 116/116/29
f 117/117/30 118/118/30 119/119/30
f 117/117/30 119/119/30 120/120/30
f 121/121/31 122/122/31 123/123/31
f 121/121/31 123/123/31 124/124/31
f 125/125/32 126/126/32 127/127/32
f 125/125/32 127/127/32 128/128/32
f 129/129/33 130/130/33 131/131/33
f 129/129/33 131/131/33 132/132/33
f 133/133/34 134/134/34 135/135/34
f 133/133/34 135/135/34 136/136/34
f 137/137/35 138/138/35 139/139/35
f 137/137/35 139/139/35 140/140/35
f 141/141/36 142/142/36 143/143/36
f 141/141/36 143/143/36 144/144/36
f 145/145/37 146/146/37 147/147/37
f 145/145/37 147/147/37 148/148/37
f 149/149/38 150/150/38 151/151/38
f 152/152/39 153/153/39 154/154/39
f 152/152/39 154/154/39 155/155/39
f 156/156/40 157/157/40 158/158/40
f 159/159/41 160/160/41 161/161/41
f 159/159/41 161/161/41 162/162/41
f 163/163/42 164/164/42 165/165/42
f 166/166/43 167/167/43 168/168/43
f 166/166/43 168/168/43 169/169/43
f 170/170/44 171/171/44 172/172/44
f 173/173/45 174/174/45 175/175/45
f 173/173/45 175/175/45 176/176/45
f 177/177/46 178/178/46 179/179/46
f 180/180/47 181/181/47 182/182/47
f 180/180/47 182/182/47 183/183/47
f 184/184/48 185/185/48 186/186/48
f 187/187/49 188/188/49 189/189/49
f 187/187/49 189/189/49 190/190/49
f 191/191/50 192/192/50 193/193/50
f 194/194/51 195/195/51 196/196/51
f 194/194/51 196/196/51 197/197/51
f 198/198/52 199/199/52 200/200/52
f 201/201/53 202/202/53 203/203/53
f 201/201/53 203/203/53 204/204/53
f 205/205/54 206/206/54 207/207/54
f 208/208/55 209/209/55 210/210/55
f 208/208/55 210/210/55 211/211/55
f 212/212/56 213/213/56 214/214/56
f 215/215/57 216/216/57 217/217/57
f 215/215/57 217/217/57 218/218/57
f 219/219/58 220/220/58 221/221/58
f 222/222/59 223/223/59 224/224/59
f 222/222/59 224/224/59 225/225/59
f 226/226/60 227/227/60 228/228/60
f 229/229/61 230/230/61 231/231/61
f 229/229/61 231/231/61 232/232/61
f 233/233/62 234/234/62 235/235/62
f 236/236/63 237/237/63 238/238/63
f 236/236/63 238/238/63 239/239/63
f 240/240/64 241/241/64 242/242/64
f 243/243/65 244/244/65 245/245/65
f 243/243/65 245/245/65 246/246/65
f 247/247/66 248/248/66 249/249/66
f 250/250/67 251/251/67 252/252/67
f 250/250/67 252/252/67 253/253/67
f 254/254/68 255/255/68 256/256/68
f 257/257/69 258/258/69 259/259/69
f 257/257/69 259/259/69 260/260/69
f 261/261/70 262/262/70 263/263/70
f 264/264/71 265/265/71 266/266/71
f 264/264/71 266/266/71 267/267/71
f 268/268/72 269/269/72 270/270/72
f 271/271/73 272/272/73 273/273/73
f 271/271/73 273/273/73 274/274/73
f 275/275/74 276/276/74 277/277/74
f 278/278/75 279/279/75 280/280/75
f 278/278/75 280/280/75 281/281/75
f 282/282/76 283/283/76 284/284/76
f 285/285/77 286/286/77 287/287/77
f 285/285/77 287/287/77 288/288/77
f 289/289/78 290/290/78 291/291/78
f 292/292/79 293/293/79 294/294/79
f 292/292/79 294/294/79 295/295/79
f 296/296/80 297/297/80 298/298/80
f 299/299/81 300/300/81 301/301/81
f 299/299/81 301/301/81 302/302/81
f 303/303/82 304/304/82 305/305/82
f 306/306/83 307/307/83 308/308/83
f 306/306/83 308/308/83 309/309/83
f 310/310/84 311/311/84 312/312/84
f 313/313/85 314/314/85 315/315/85
f 313/313/85 315/315/85 316/316/85
f 317/317/86 318/318/86 319/319/86
f 320/320/87 321/321/87 322/322/87
f 320/320/87 322/322/87 323/323/87
f 324/324/88 325/325/88 326/326/88
f 327/327/89 328/328/89 329/329/89
f 327/327/89 329/329/89 330/330/89
f 331/331/90 332/332/90 333/333/90
f 334/334/91 335/335/91 336/336/91
f 334/334/91 336/336/91 337/337/91
f 338/338/92 339/339/92 340/340/92
f 341/341/93 342/342/93 343/343/93
f 341/341/93 343/343/93 344/344/93
f 345/345/94 346/346/94 347/347/94
f 348/348/95 349/349/95 350/350/95
f 348/348/95 350/350/95 351/351/95
f 352/352/96 353/353/96 354/354/96
f 355/355/97 356/356/97 357/357/97
f 355/355/97 357/357/97 358/358/97
f 359/359/98 360/360/98 361/361/98
f 362/362/99 363/363/99 364/364/99
f 362/362/99 364/364/99 365/365/99
f 366/366/100 367/367/100 368/368/100
usemtl gold
f 369/369/101 370/370/101 371/371/101
f 369/369/101 371/371/101 372/372/101
f 373/373/102 374/374/102 375/375/102
f 376/376/103 377/377/103 378/378/103
f 376/376/103 378/378/103 379/379/103
f 380/380/104 381/381/104 382/382/104
f 383/383/105 384/384/105 385/385/105
f 383/383/105 385/385/105 386/386/105
f 387/387/106 388/388/106 389/389/106
f 390/390/107 391/391/107 392/392/107
f 390/390/107 392/392/107 393/393/107
f 394/394/108 395/395/108 396/396/108
f 397/397/109 398/398/109 399/399/109
f 397/397/109 399/399/109 400/400/109
f 401/401/110 402/402/110 403/403/110
f 404/404/111 405/405/111 406/406/111
f 404/404/111 406/406/111 407/407/111
f 408/408/112 409/409/112 410/410/112
f 411/411/113 412/412/113 413/413/113
f 411/411/113 413/413/113 414/414/113
f 415/415/114 416/416/114 417/417/114
f 418/418/115 419/419/115 420/420/115
f 418/418/115 420/420/115 421/421/115
f 422/422/116 423/423/116 424/424/116
f 425/425/117 426/426/117 427/427/117
f 425/425/117 427/427/117 428/428/117
f 429/429/118 430/430/118 431/431/118
f 432/432/119 433/433/119 434/434/119
f 432/432/119 434/434/119 435/435/119
f 436/436/120 437/437/120 438/438/120
f 439/439/121 440/440/121 441/441/121
f 439/439/121 441/441/121 442/442/121
f 443/443/122 444/444/122 445/445/122
f 446/446/123 447/447/123 448/448/123
f 446/446/123 448/448/123 449/449/123
f 450/450/124 451/451/124 452/452/124
f 453/453/125 454/454/125 455/455/125
f 453/453/125 455/455/125 456/456/125
f 457/457/126 458/458/126 459/459/126
f 460/460/127 461/461/127 462/462/127
f 460/460/127 462/462/127 463/463/127
f 464/464/128 465/465/128 466/466/128
f 467/467/129 468/468/129 469/469/129
f 467/467/129 469/469/129 470/470/129
f 471/471/130 472/472/130 473/473/130
f 474/474/131 475/475/131 476/476/131
f 474/474/131 476/476/131 477/477/131
f 478/478/132 479/479/132 480/480/132
f 481/481/133 482/482/133 483/483/133
f 481/481/133 483/483/133 484/484/133
f 485/485/134 486/486/134 487/487/134
f 488/488/135 489/489/135 490/490/135
f 488/488/135 490/490/135 491/491/135
f 492/492/136 493/493/136 494/494/136
f 495/495/137 496/496/137 497/497/137
f 495/495/137 497/497/137 498/498/137
f 499/499/138 500/500/138 501/501/138
f 502/502/139 503/503/139 504/504/139
f 502/502/139 504/504/139 505/505/139
f 506/506/140 507/507/140 508/508/140
f 509/509/141 510/510/141 511/511/141
f 509/509/141 511/511/141 512/512/141
f 513/513/142 514/514/142 515/515/142
f 516/516/143 517/517/143 518/518/143
f 516/516/143 518/518/143 519/519/143
f 520/520/144 521/521/144 522/522/144
f 523/523/145 524/524/145 525/525/145
f 523/523/145 525/525/145 526/526/145
f 527/527/146 528/528/146 529/529/146
f 530/530/147 531/531/147 532/532/147
f 530/530/147 532/532/147 533/533/147
f 534/534/148 535/535/148 536/536/148
f 537/537/149 538/538/149 539/539/149
f 537/537/149 539/539/149 540/540/149
f 541/541/150 542/542/150 543/543/150
f 544/544/151 545/545/151 546/546/151
f 544/544/151 546/546/151 547/547/151
f 548/548/152 549/549/152 550/550/152
f 551/551/153 552/552/153 553/553/153
f 551/551/153 553/553/153 554/554/153
f 555/555/154 556/556/154 557/557/154
f 558/558/155 559/559/155 560/560/155
f 558/558/155 560/560/155 561/561/155
f 562/562/156 563/563/156 564/564/156
f 565/565/157 566/566/157 567/567/157
f 565/565/157 567/567/157 568/568/157
f 569/569/158 570/570/158 571/571/158
f 572/572/159 573/573/159 574/574/159
f 572/572/159 574/574/159 575/575/159
f 576/576/160 577/577/160 578/578/160
f 579/579/161 580/580/161 581/581/161
f 579/579/161 581/581/161 582/582/161
f 583/583/162 584/584/162 585/585/162
f 586/586/163 587/587/163 588/588/163
f 586/586/163 588/588/163 589/589/163
f 590/590/164 591/591/164 592/592/164
f 593/593/165 594/594/165 595/595/165
f 593/593/165 595/595/165 596/596/165
f 597/597/166 598/598/166 599/599/166
f 597/597/166 599/599/166 600/600/166
f 601/601/167 602/602/167 603/603/167
f 601/601/167 603/603/167 604/604/167
f 605/605/168 606/606/168 607/607/168
f 605/605/168 607/607/168 608/608/168
f 609/609/169 610/610/169 611/611/169
f 609/609/169 611/611/169 612/612/169
f 613/613/170 614/614/170 615/615/170
f 613/613/170 615/615/170 616/616/170
f 617/617/171 618/618/171 619/619/171
f 617/617/171 619/619/171 620/620/171
f 621/621/172 622/622/172 623/623/172
f 621/621/172 623/623/172 624/624/172
f 625/625/173 626/626/173 627/627/173
f 625/625/173 627/627/173 628/628/173
f 629/629/174 630/630/174 631/631/174
f 629/629/174 631/631/174 632/632/174
f 633/633/175 634/634/175 635/635/175
f 633/633/175 635/635/175 636/636/175
f 637/637/176 638/638/176 639/639/176
f 637/637/176 639/639/176 640/640/176
f 641/641/177 642/642/177 643/643/177
f 641/641/177 643/643/177 644/644/177
f 645/645/178 646/646/178 647/647/178
f 645/645/178 647/647/178 648/648/178
f 649/649/179 650/650/179 651/651/179
f 649/649/179 651/651/179 652/652/179
f 653/653/180 654/654/180 655/655/180
f 653/653/180 655/655/180 656/656/180
f 657/657/181 658/658/181 659/659/181
f 657/657/181 659/659/181 660/660/181
f 661/661/182 662/662/182 663/663/182
f 661/661/182 663/663/182 664/664/182
f 665/665/183 666/666/183 667/667/183
f 665/665/183 667/667/183 668/668/183
f 669/669/184 670/670/184 671/671/184
f 669/669/184 671/671/184 672/672/184
f 673/673/185 674/674/185 675/675/185
f 673/673/185 675/675/185 676/676/185
f 677/677/186 678/678/186 679/679/186
f 677/677/186 679/679/186 680/680/186
f 681/681/187 682/682/187 683/683/187
f 681/681/187 683/683/187 684/684/187
f 685/685/188 686/686/188 687/687/188
f 685/685/188 687/687/188 688/688/188
