# Blender 4.4.1
# www.blender.org
mtllib Player_head.mtl
o かお
v -0.329462 0.619648 -0.308667
v -0.329462 0.125455 -0.308667
v 0.329462 0.619648 -0.308667
v -0.329462 0.619648 0.267891
v -0.329462 0.125455 0.267891
v 0.329462 0.619648 0.267891
v 0.329462 0.125455 0.267891
v 0.329462 0.125455 -0.308667
v 0.133953 0.480581 -0.327736
v 0.133953 0.357033 -0.327736
v 0.175135 0.480581 -0.327736
v 0.175135 0.357033 -0.327736
v 0.133953 0.480581 -0.286554
v 0.133953 0.357033 -0.286554
v 0.175135 0.480581 -0.286554
v 0.175135 0.357033 -0.286554
v -0.175135 0.480581 -0.327736
v -0.175135 0.357033 -0.327736
v -0.133952 0.480581 -0.327736
v -0.175135 0.480581 -0.286554
v -0.175135 0.357033 -0.286554
v -0.133952 0.480581 -0.286554
v -0.133952 0.357033 -0.286554
v -0.133952 0.357033 -0.327736
vn -1.0000 -0.0000 -0.0000
vn -0.0000 -0.0000 -1.0000
vn -0.0000 1.0000 -0.0000
vn -0.0000 -0.0000 1.0000
vn 1.0000 -0.0000 -0.0000
vn -0.0000 -1.0000 -0.0000
vt 0.539356 0.632885
vt 0.375680 0.492592
vt 0.539356 0.492592
vt 0.375680 0.632885
vt 0.188621 0.492592
vt 0.375680 0.188621
vt 0.188621 0.024945
vt 0.375680 0.024945
vt 0.188621 0.188621
vt 0.375680 0.328915
vt 0.188621 0.328915
vt 0.188621 0.632885
vt 0.024945 0.492592
vt 0.498569 0.724110
vt 0.490302 0.715843
vt 0.498569 0.715843
vt 0.482035 0.691043
vt 0.490302 0.691043
vt 0.498569 0.691043
vt 0.490302 0.682776
vt 0.498569 0.682776
vt 0.506836 0.715843
vt 0.506836 0.691043
vt 0.503787 0.803003
vt 0.496536 0.781251
vt 0.503787 0.781251
vt 0.496536 0.803003
vt 0.489286 0.781251
vt 0.496536 0.810254
vt 0.489286 0.803003
vt 0.482035 0.781251
vt 0.489286 0.774001
vt 0.496536 0.774001
vt 0.024945 0.632885
vt 0.490302 0.724110
vt 0.482035 0.715843
vt 0.489286 0.810254
vt 0.482035 0.803003
s 0
usemtl Material
f 4/1/1 2/2/1 5/3/1
f 1/4/2 8/5/2 2/2/2
f 4/6/3 3/7/3 1/8/3
f 6/9/4 5/10/4 7/11/4
f 3/12/5 7/13/5 8/5/5
f 2/2/6 7/11/6 5/10/6
f 13/14/3 11/15/3 9/16/3
f 11/15/5 16/17/5 12/18/5
f 10/19/6 16/20/6 14/21/6
f 9/16/2 12/18/2 10/19/2
f 13/22/1 10/19/1 14/23/1
f 20/24/1 18/25/1 21/26/1
f 17/27/2 24/28/2 18/25/2
f 20/29/3 19/30/3 17/27/3
f 19/30/5 23/31/5 24/28/5
f 18/25/6 23/32/6 21/33/6
f 4/1/1 1/4/1 2/2/1
f 1/4/2 3/12/2 8/5/2
f 4/6/3 6/9/3 3/7/3
f 6/9/4 4/6/4 5/10/4
f 3/12/5 6/34/5 7/13/5
f 2/2/6 8/5/6 7/11/6
f 13/14/3 15/35/3 11/15/3
f 11/15/5 15/36/5 16/17/5
f 10/19/6 12/18/6 16/20/6
f 9/16/2 11/15/2 12/18/2
f 13/22/1 9/16/1 10/19/1
f 20/24/1 17/27/1 18/25/1
f 17/27/2 19/30/2 24/28/2
f 20/29/3 22/37/3 19/30/3
f 19/30/5 22/38/5 23/31/5
f 18/25/6 24/28/6 23/32/6
