# Blender 4.4.1
# www.blender.org
mtllib map_wall_01.mtl
o 外側壁
v -33.267155 -50.000000 -107.468811
v -33.267155 80.000000 -107.468811
v 39.505684 -50.000000 -107.504326
v 39.505684 80.000000 -107.504326
v 97.188713 -50.000000 -66.476845
v 97.188713 80.000000 -66.476845
v 117.748940 -50.000000 -0.057465
v 117.748940 80.000000 -0.057465
v 93.333076 -50.000000 66.383858
v 93.333076 80.000000 66.383858
v 33.267155 -50.000000 107.468811
v 33.267155 80.000000 107.468811
v -39.505684 -50.000000 107.504326
v -39.505684 80.000000 107.504326
v -97.188713 -50.000000 66.476845
v -97.188713 80.000000 66.476845
v -117.748940 -50.000000 0.057465
v -117.748940 80.000000 0.057465
v -93.333076 -50.000000 -66.383858
v -93.333076 80.000000 -66.383858
vn 0.0005 -0.0000 1.0000
vn -0.5796 -0.0000 0.8149
vn -0.9553 -0.0000 0.2957
vn -0.9386 -0.0000 -0.3449
vn -0.5646 -0.0000 -0.8254
vn -0.0005 -0.0000 -1.0000
vn 0.5796 -0.0000 -0.8149
vn 0.9553 -0.0000 -0.2957
vn -0.0000 -1.0000 -0.0000
vn 0.9386 -0.0000 0.3449
vn 0.5646 -0.0000 0.8254
vn -0.0000 1.0000 -0.0000
vt 1.000000 1.000000
vt 1.000000 0.500000
vt 0.900000 0.500000
vt 0.900000 1.000000
vt 0.800000 0.500000
vt 0.800000 1.000000
vt 0.700000 0.500000
vt 0.700000 1.000000
vt 0.600000 0.500000
vt 0.600000 1.000000
vt 0.500000 0.500000
vt 0.500000 1.000000
vt 0.400000 0.500000
vt 0.400000 1.000000
vt 0.300000 0.500000
vt 0.300000 1.000000
vt 0.200000 0.500000
vt 0.391068 0.055836
vt 0.478254 0.324164
vt 0.478254 0.175836
vt 0.200000 1.000000
vt 0.100000 0.500000
vt 0.100000 1.000000
vt -0.000000 0.500000
vt 0.391068 0.444164
vt 0.250000 0.490000
vt 0.108932 0.055836
vt 0.108932 0.444164
vt 0.021746 0.324164
vt 0.021746 0.175836
vt 0.250000 0.010000
vt -0.000000 1.000000
s 0
f 2/1/1 1/2/1 3/3/1
f 4/4/2 3/3/2 5/5/2
f 6/6/3 5/5/3 7/7/3
f 8/8/4 7/7/4 9/9/4
f 10/10/5 9/9/5 11/11/5
f 12/12/6 11/11/6 13/13/6
f 14/14/7 13/13/7 15/15/7
f 16/16/8 15/15/8 17/17/8
f 10/18/9 6/19/9 8/20/9
f 18/21/10 17/17/10 19/22/10
f 20/23/11 19/22/11 1/24/11
f 15/15/12 19/22/12 17/17/12
f 2/1/1 3/3/1 4/4/1
f 4/4/2 5/5/2 6/6/2
f 6/6/3 7/7/3 8/8/3
f 8/8/4 9/9/4 10/10/4
f 10/10/5 11/11/5 12/12/5
f 12/12/6 13/13/6 14/14/6
f 14/14/7 15/15/7 16/16/7
f 16/16/8 17/17/8 18/21/8
f 6/19/9 10/18/9 4/25/9
f 4/25/9 10/18/9 2/26/9
f 2/26/9 14/27/9 20/28/9
f 20/28/9 14/27/9 18/29/9
f 18/29/9 14/27/9 16/30/9
f 14/27/9 2/26/9 12/31/9
f 12/31/9 2/26/9 10/18/9
f 18/21/10 19/22/10 20/23/10
f 20/23/11 1/24/11 2/32/11
f 19/22/12 11/11/12 1/24/12
f 1/24/12 11/11/12 3/3/12
f 3/3/12 7/7/12 5/5/12
f 7/7/12 3/3/12 9/9/12
f 9/9/12 3/3/12 11/11/12
f 11/11/12 19/22/12 13/13/12
f 13/13/12 19/22/12 15/15/12
